<svg xmlns="http://www.w3.org/2000/svg" viewBox="0 0 77.55 121.55"><defs><style>.a{fill:#fff;stroke-width:0.05px;}.a,.b{stroke:#000;}.b{fill:none;}</style></defs><title>ClubAsset 1</title><path class="a" d="M77.53,116.53a5,5,0,0,1-5,5H5a5,5,0,0,1-5-5V5A5,5,0,0,1,5,0h67.5a5,5,0,0,1,5,5Z"/><path class="b" d="M3.28,16.52h3.5"/><path class="b" d="M12.28,16.52H8.78"/><path class="b" d="M4.78,16.52l3-13.25,3,13.25"/><path class="b" d="M5.53,13.28H10"/><path d="M8.91,23.32a3.47,3.47,0,0,0,1.25-2.39,2.29,2.29,0,0,0-2.39-2.16,2.29,2.29,0,0,0-2.39,2.16,3.47,3.47,0,0,0,1.25,2.39,2.39,2.39,0,0,0-3.86,1.82A2.3,2.3,0,0,0,5,27.41a2.88,2.88,0,0,0,2.39-1.82,4.19,4.19,0,0,1-1,3.18H9.14a4.19,4.19,0,0,1-1-3.18,2.88,2.88,0,0,0,2.39,1.82,2.29,2.29,0,0,0,2.27-2.27A2.38,2.38,0,0,0,8.91,23.32Z"/><path d="M68.64,98.23a3.47,3.47,0,0,0-1.25,2.39,2.4,2.4,0,0,0,4.77,0,3.47,3.47,0,0,0-1.25-2.39,2.39,2.39,0,0,0,3.86-1.82,2.3,2.3,0,0,0-2.27-2.27A2.88,2.88,0,0,0,70.12,96a4.19,4.19,0,0,1,1-3.18H68.41a4.19,4.19,0,0,1,1,3.18A2.88,2.88,0,0,0,67,94.14a2.29,2.29,0,0,0-2.27,2.27A2.38,2.38,0,0,0,68.64,98.23Z"/><path d="M40.93,59.91a6.6,6.6,0,0,0,2.38-4.53,4.56,4.56,0,0,0-9.07,0,6.6,6.6,0,0,0,2.38,4.53c-2.64-2.06-7.34-.65-7.34,3.45a4.36,4.36,0,0,0,4.32,4.32c3.16,0,4.53-3.45,4.53-3.45s.4,3.94-1.94,6h5.18c-2.35-2.11-1.94-6-1.94-6s1.37,3.45,4.53,3.45a4.36,4.36,0,0,0,4.32-4.32C48.28,59.26,43.57,57.86,40.93,59.91Z"/></svg>