<svg xmlns="http://www.w3.org/2000/svg" viewBox="0 0 77.55 121.55"><defs><style>.a,.d{fill:#fff;}.a{stroke:#000;stroke-width:0.05px;}.b{fill:none;stroke:#df0000;}.c{fill:#df0000;}</style></defs><title>DiamAsset 51</title><path class="a" d="M77.53,116.53a5,5,0,0,1-5,5H5a5,5,0,0,1-5-5V5A5,5,0,0,1,5,0h67.5a5,5,0,0,1,5,5Z"/><path class="b" d="M3.28,11.28c6,0,5,5,9,5"/><path class="b" d="M10.53,10.28c0-3.45,0-6.25-2.75-6.25S5,6.83,5,10.28s0,6.25,2.75,6.25S10.53,13.72,10.53,10.28Z"/><path class="b" d="M67,111.28c0,3.45,0,6.25,2.75,6.25s2.75-2.8,2.75-6.25,0-6.25-2.75-6.25S67,107.83,67,111.28Z"/><path class="b" d="M74.28,110.28c-6,0-5-5-9-5"/><path class="c" d="M9.76,21.15a26.5,26.5,0,0,1-2-2.87,26.5,26.5,0,0,1-2,2.88,21,21,0,0,1-2.51,2.63A21,21,0,0,1,5.79,26.4a26.5,26.5,0,0,1,2,2.88,26.5,26.5,0,0,1,2-2.87,21,21,0,0,1,2.51-2.62A21.08,21.08,0,0,1,9.76,21.15Z"/><path class="c" d="M71.76,95.15a26.5,26.5,0,0,1-2-2.87,26.5,26.5,0,0,1-2,2.88,21,21,0,0,1-2.51,2.63,21,21,0,0,1,2.52,2.63,26.5,26.5,0,0,1,2,2.88,26.5,26.5,0,0,1,2-2.87,21,21,0,0,1,2.51-2.62A21.08,21.08,0,0,1,71.76,95.15Z"/><path class="c" d="M13.84,103.92a1.11,1.11,0,0,1-.71-.26c-.43-.5,0-3.2,0-3.9l0-7.79.17-62.33,0-12.15q25.32.59,50.65.2l.1,84.79a.82.82,0,0,1-1,1l-31.25.23-15.62.11A19.55,19.55,0,0,1,13.84,103.92Z"/><path class="d" d="M20.14,36a1.46,1.46,0,0,0-.21-.36c-.2-.28-.2-.3,0-.37s.19,0,.21.08a.19.19,0,0,0,.17.15.2.2,0,0,1,.18.14c0,.08.06-.06.09-.3.06-.58-.27-1-1-1.23L19,33.88c-.1,0,0,.45.11.53s.14.12.14.15c0,.2.23.67.32.67s.09.07.06.16a.52.52,0,0,0,.14.39c.19.23.39.31.39.17Zm8.19,4.75c.51-.2.6-.44.3-.8a1.06,1.06,0,0,0-.32-.29.77.77,0,0,1-.27-.19.89.89,0,0,0-.37-.22,1.34,1.34,0,0,1-.38-.15c-.27-.16-.77,0-.69.26a.2.2,0,0,0,.17.15,1.71,1.71,0,0,1,1,.33c.18.25,0,.39-.38.27s-.55,0-.36.45.2.33.56.32a2.59,2.59,0,0,0,.76-.14Zm-8.85,1a.32.32,0,0,0,.12-.35c-.05-.16-.09-.16-.22,0s-.64.27-.64.14a1.06,1.06,0,0,1,.62-.6.17.17,0,0,0,.18-.16.26.26,0,0,1,.15-.22.25.25,0,0,0,.15-.19c0-.16-.47-.07-.94.18s-1.21,1-1.13,1.14a2.13,2.13,0,0,0,1.71.1Zm5-7.56a1.57,1.57,0,0,1,.23.85c0,.53.14.68.39.43.1-.1.21-.15.24-.1s.07,0,.07-.07.06-.12.14-.08.5-.35.62-1c.09-.48.08-.63,0-.67a2.2,2.2,0,0,0-1.12.32.24.24,0,0,1-.27,0Z"/><path class="d" d="M22.54,37.29a.69.69,0,0,0-.2-.34,1.33,1.33,0,0,1-.27-.58c-.06-.33,0-.37.11-.3l.21.08s0,.09,0,.21a.23.23,0,0,0,.12.28c.09,0,.14.12.1.18s0,.11,0,.11.14-.75,0-.85-.07-.13,0-.24.09-.19,0-.27-.12-.1,0-.1.21.12.27.28c.19.46.34.34.3-.22s0-.65.19-.15c.09.28.15.33.24.22a.49.49,0,0,1,.32-.14c.16,0,.17,0,.08.13a.74.74,0,0,0-.12.42c0,.27,0,.27.17.09a3,3,0,0,0,0-1.92.32.32,0,0,1-.07-.28c0-.06,0-.08-.14,0s-.2,0-.2-.08-.2-.13-.83-.08c-1.31.1-1.8.56-1.81,1.69,0,.75.2,1.31.48,1.32s.18,0,.07.1-.09.13.1.24a1.77,1.77,0,0,1,.43.41c.19.26.35.2.35-.15Zm3.53,1.48a1.2,1.2,0,0,0,.86-.52,1.56,1.56,0,0,0,.38-1.6c-.13-.54-.34-.73-1.09-1a.82.82,0,0,0-.8,0c-.68.36-1.09.71-1.09.94a.44.44,0,0,1-.14.24.31.31,0,0,0-.09.3c0,.14.09.13.28-.06a.75.75,0,0,1,.33-.23.51.51,0,0,0,.27-.18c.09-.1.2-.15.25-.11s-.14.31-.42.62-.48.59-.44.63.88-.27,1-.42a1,1,0,0,1,.32-.19c.22-.09.26-.08.21,0a1.09,1.09,0,0,1-.66.51c-.17,0-.4.42-.28.5a.11.11,0,0,0,.15-.05.35.35,0,0,1,.28-.11,1.26,1.26,0,0,0,.54-.22c.3-.21.32-.21.32,0s-.79.81-1,.81a.27.27,0,0,0-.21.13c0,.09,0,.11.27.06Zm-4.38.67c0-.08.06-.16.22-.18s0-.05-.38-.06c-.63,0-.64,0-.44.18S21.77,39.64,21.7,39.43Zm-2.21.07c.45.08.75-.09.75-.42s.25-.26.83-.26c.36,0,.48,0,.4-.12a.58.58,0,0,0-.29-.15.29.29,0,0,1-.22-.22c0-.16,0-.18.28-.13.46.09.34-.17-.16-.35s-.39-.17-.15-.2a.31.31,0,0,0,.16-.09.4.4,0,0,1,.3,0c.13,0,.26,0,.3-.07s0-.11-.09-.11a.2.2,0,0,1-.19-.13,3.35,3.35,0,0,0-1.68-.51c-.52,0-.57,0-.88.31a1.07,1.07,0,0,0-.32.9,1.16,1.16,0,0,0,.11.61.3.3,0,0,1,.06.29c0,.12,0,.19,0,.16s.31.22.27.41,0,.12,0,.09a.94.94,0,0,1,.48,0Zm6.3,2.59a1.45,1.45,0,0,0,.81-1.51,1.52,1.52,0,0,0-.26-.64.77.77,0,0,1-.19-.32.27.27,0,0,0-.12-.19,2.29,2.29,0,0,0-1.33.09c-.07.09,0,.1.07.05s.18,0,.18,0,0,.08.1,0,.1.06.1.23,0,.28-.15.16-.19-.1-.25,0,0,.19.2.33.3.27.3.34a.45.45,0,0,0,.2.25.46.46,0,0,1,.2.3c0,.25-.22.34-.35.14a.39.39,0,0,0-.23-.19c-.06,0-.11-.07-.11-.16a.28.28,0,0,0-.34-.25s-.13-.11-.19-.27-.12-.22-.14-.14a1,1,0,0,0,.11.49,1.84,1.84,0,0,1,.16.51c0,.24-.31.18-.37-.07s-.09-.22-.14-.22-.14-.13-.19-.3-.14-.26-.2-.19a1.9,1.9,0,0,0,.07.91c.17.81.17.81.57.91a1.71,1.71,0,0,0,1.5-.32Zm-3.38.48c.13-.23.13-.24-.09-.2s-.18,0-.11,0a.27.27,0,0,0,.13-.21,2.92,2.92,0,0,1,.2-.64c.29-.73.25-.84-.17-.46-.58.51-1.13.85-1.21.76s0-.11.07-.14a4,4,0,0,0,1-1.11c.16-.35.14-.43-.06-.25a2.37,2.37,0,0,1-1,.55c-.1,0,0-.16.28-.42.52-.48.55-.55.24-.53a1.76,1.76,0,0,0-1.22.55,1,1,0,0,0-.36.88,1.09,1.09,0,0,0,.35.91,1.15,1.15,0,0,0,.55.4c.11,0,.2.05.2.12s.2.1.51.08.55-.09.66-.28Z"/><path class="d" d="M49.93,21.31a1.54,1.54,0,0,0,.22-.42.76.76,0,0,1,.25-.3.71.71,0,0,0,.25-.45c0-.2-.05-.17-.35.21a4.12,4.12,0,0,0-.47.76c-.07.17-.16.31-.2.31s-.08.05-.08.11S49.71,21.64,49.93,21.31Zm.14,1.16a1.29,1.29,0,0,0,.38-.39.68.68,0,0,1,.17-.28.84.84,0,0,0,.16-.76c-.07-.14-1.22,1.29-1.22,1.52s.07.25.52-.1Zm-4.24.42a2.26,2.26,0,0,0,.48-.8c0-.09.18-.36.31-.59a1.86,1.86,0,0,0,.09-1.68,1.4,1.4,0,0,0-1.12-.53c-.32,0-.56.37-.52.8s.36.89.56.89.35.32.23.73c-.06.22-.16.4-.2.4s-.22.42-.15.67.13.27.33.13Zm2.83.3a4.23,4.23,0,0,0,.75-1.28s-.18.16-.33.42a6,6,0,0,1-.53.74c-.25.28-.17.37.11.12Zm-1.28-.56c.42-.63,1.07-1.62,1.44-2.2l.77-1.2a.22.22,0,0,0,0-.23,6.57,6.57,0,0,0-1.74,0,1.71,1.71,0,0,0-.07.4,5.09,5.09,0,0,1-.87,2.48,1.63,1.63,0,0,0-.29.52.68.68,0,0,1-.2.33,1.07,1.07,0,0,0-.13,1c.17.19.36,0,1.07-1.08Zm0,1.47a.81.81,0,0,0,.25-.39c0-.08,0-.15.08-.15s.17-.19.28-.42a3.06,3.06,0,0,1,.41-.65,13.08,13.08,0,0,0,.86-1.35,17.12,17.12,0,0,1,1-1.51c.31-.38.4-.68.21-.68s-.16.13-.22.29a3,3,0,0,1-.42.65c-.17.2-.37.46-.45.58-.94,1.37-2,2.92-2.06,3.1a1.49,1.49,0,0,1-.3.38c-.16.14-.17.18,0,.27s.16.15.45-.13Zm.7.92a.58.58,0,0,1,.32-.22.12.12,0,0,0,.13-.11c0-.13.66-.61,1-.7.14,0,.3,0,.48.22s.3.26.52.15.24-.19.21-.48a.89.89,0,0,0-.29-.57c-.23-.19-.3-.2-.69-.07a3.81,3.81,0,0,0-.94.54c-.28.22-.59.45-.7.52-.35.22-.55.94-.26.94C47.88,25.24,48,25.13,48.09,25Zm6.41,1.73a.93.93,0,0,1,.45-.1s.1,0,.13-.13.09-.15.12-.12.22,0,.42-.09a4.36,4.36,0,0,1,.74-.22c.41-.08.44-.13.23-.44s-.18-.2-.67-.06a4.56,4.56,0,0,0-.77.29c-.13.08-.29.11-.34.07s.11-.17.37-.3.47-.27.47-.32-.78-.11-.85,0a.32.32,0,0,1-.26.11c-.11,0-.17.05-.14.11s0,.11-.13.11a.28.28,0,0,0-.25.23c0,.21,0,.22.31.16l.37-.06-.34.22c-.35.22-.52.52-.43.79s.07.12.13,0a1.11,1.11,0,0,1,.45-.28ZM51.77,28.8a.59.59,0,0,1,.27-.2,3.79,3.79,0,0,0,1-1.11.11.11,0,0,1,.1-.12c.05,0,.1-.09.1-.2a.58.58,0,0,1,.09-.31,1.64,1.64,0,0,0,0-1.29,1,1,0,0,0-1.15-.52c-.5.14-.69,1.1-.3,1.54.21.23.54.19.54-.06a.46.46,0,0,1,.14-.28c.11-.11.17-.09.25.1a.68.68,0,0,1-.27.82,1.89,1.89,0,0,0-.34.43,2.87,2.87,0,0,1-.76.9,1.63,1.63,0,0,0-.41.41c-.62.75,0,.66.71-.1Zm.72,1.34a4.75,4.75,0,0,0,.42-.36,10.49,10.49,0,0,1,1.31-.84c.6-.34,1.11-.64,1.13-.67a2.3,2.3,0,0,1,.35-.23,1.93,1.93,0,0,0,.35-.23,7.12,7.12,0,0,1,1-.39c.51-.18.91-.38.89-.44s-.06-.1-.1-.09a1.27,1.27,0,0,1-.31,0,.63.63,0,0,0-.41.19.72.72,0,0,1-.38.21,3.33,3.33,0,0,0-1.35.51A.83.83,0,0,1,55,28a7.19,7.19,0,0,0-1.74,1c0,.05-.19.2-.42.32a4,4,0,0,0-1.19.81c0,.08-.11.1-.16.05s.05-.21.22-.36.44-.42.61-.61a1.2,1.2,0,0,1,.42-.34,1.8,1.8,0,0,0,.82-.57c0-.06.07-.1.15-.1a2.11,2.11,0,0,0,1-.56s.2-.14.44-.21a1.21,1.21,0,0,0,.5-.23.16.16,0,0,1,.21,0c.09,0,.15,0,.15-.1s.1-.16.28-.16c.58,0,1.39-.59,1.16-.85a15.28,15.28,0,0,0-2.88,1.11,2.67,2.67,0,0,1-.61.27c-.16,0-.65.52-.57.61s0,.07,0,.07a1,1,0,0,0-.36.25l-.64.59c-.21.19-.44.4-.5.48a.42.42,0,0,1-.21.14c-.29,0-.34.19-.18.64l.16.45.37-.21c.2-.12.45-.28.56-.35Z"/><path class="d" d="M17.52,103.16a12.42,12.42,0,0,0,.32-1.21,17,17,0,0,1,.5-1.85c.24-.75.63-2.26.67-2.56s-.2-.4-.36.06c-.47,1.42-.83,2.57-.94,3a6.86,6.86,0,0,1-.34,1,4.11,4.11,0,0,0-.28.93,1.25,1.25,0,0,1-.15.52.23.23,0,0,0-.09.17c0,.06,0,.09.08.06a.24.24,0,0,1,.23,0c.21.15.25.13.37-.15Z"/><path class="d" d="M15.59,103a5.84,5.84,0,0,0,.25-.73c.14-.52,1-2.88,1.34-3.71.52-1.26.58-1.41.52-1.48s-.25.1-.81,1.39c-.31.73-.66,1.52-.78,1.76a17.83,17.83,0,0,0-.88,2.91c0,.28.18.2.35-.15Z"/><path class="d" d="M16.65,102.5c.16-.66.45-1.58,1.25-4a3,3,0,0,0,.21-.89s-.07,0-.09,0-.69,1.66-1,2.46l-.41,1.18a6.09,6.09,0,0,0-.46,1.9c.12.35.29.13.47-.61Z"/><path class="d" d="M19.5,102.37a7.37,7.37,0,0,1,.26-1c.11-.32.28-.92.38-1.32s.26-1,.35-1.35c.24-.88.24-1.18,0-1.18a.22.22,0,0,0-.21.19,10,10,0,0,1-.39,1.71c-.08.19-.26.83-.41,1.42s-.31,1.17-.35,1.29A2.11,2.11,0,0,0,19,103.2c.11.2.42-.33.5-.83Z"/><path class="d" d="M22,102.45c.06-.31.23-1,.37-1.63s.27-1.17.28-1.29a1.19,1.19,0,0,1,.1-.35,1.92,1.92,0,0,0,.11-.51,4.32,4.32,0,0,1,.08-.49c.05-.17-.16-.21-.23,0a9.55,9.55,0,0,0-.69,2.56,11.44,11.44,0,0,1-.5,1.94c-.13.27-.12.51,0,.56s.33-.15.45-.76Z"/><path class="d" d="M31.22,103.17a6.21,6.21,0,0,0,2.53-.42s.15-.15.33-.23a1.67,1.67,0,0,0,.49-.36.52.52,0,0,1,.27-.21.11.11,0,0,0,.11-.1c0-.06.12-.13.27-.18a2.85,2.85,0,0,0,.76-.52,2.56,2.56,0,0,1,.59-.44,6.6,6.6,0,0,0,1.36-.93.15.15,0,0,1,.13-.08,2.33,2.33,0,0,0,.77-.59S38.94,99,39,99s.2,0,.22-.08a8,8,0,0,1,1.51-1.11c.21-.11.38-.24.38-.29s.19-.2.43-.33a5.11,5.11,0,0,0,.77-.56,1.43,1.43,0,0,1,.45-.32,1.43,1.43,0,0,0,.45-.31,4.61,4.61,0,0,1,.62-.47c.15-.09.27-.2.27-.26s0-.07.09,0A7,7,0,0,0,45.89,94a.68.68,0,0,1,.33-.17.13.13,0,0,0,.13-.12.08.08,0,0,1,.12-.08c.07,0,.25-.08.4-.24a6.18,6.18,0,0,1,1.23-.9,2.46,2.46,0,0,0,.48-.4,1,1,0,0,1,.42-.29.19.19,0,0,0,.17-.09,5.32,5.32,0,0,1,1.36-1.08,1.56,1.56,0,0,0,.52-.39c0-.08.28-.28,1.25-.89a1.2,1.2,0,0,0,.33-.27A.2.2,0,0,1,52.8,89c.08,0,.14,0,.14-.09s.12-.17.28-.27a6.15,6.15,0,0,0,.68-.58,1.48,1.48,0,0,1,.56-.4.43.43,0,0,0,.29-.17.4.4,0,0,1,.25-.17,4.65,4.65,0,0,0,.92-.67,5,5,0,0,1,.91-.67.12.12,0,0,0,.11-.13c0-.07-.09-.1-.2-.07s-.2,0-.2,0a14.46,14.46,0,0,1,1.65-1.58,4.15,4.15,0,0,0,1.05-.8c0-.06.07-.1.16-.1s.13-.05.09-.11,0-.11.08-.11.68-.64.61-.84-.24-.21-.58.19a13.26,13.26,0,0,1-1.19,1.1l-1,.85c-.49.47-.86.72-.92.62s.3-.55.46-.56.09-.11.12-.23.09-.21.14-.2.22-.11.89-.82a.67.67,0,0,1,.33-.22.12.12,0,0,0,.12-.11.11.11,0,0,1,.1-.11.63.63,0,0,0,.29-.2c.1-.11.34-.34.54-.51s.34-.38.3-.53-.07-.22-.1-.22a6.37,6.37,0,0,0-1.41,1.24,17,17,0,0,1-1.87,1.57l-.4.27.21-.33a2.91,2.91,0,0,1,.91-1,2.73,2.73,0,0,0,.58-.53,7.11,7.11,0,0,1,.69-.71c.82-.72,1-.87,1-1.08s-.07-.21-.18-.21-.34.17-1.28,1.11a2.56,2.56,0,0,1-.45.35,2.44,2.44,0,0,0-.5.44c-.49.57-1.6,1.36-1.6,1.15a4.35,4.35,0,0,1,.91-1,1.84,1.84,0,0,0,.4-.34,1.69,1.69,0,0,1,.41-.34s.07-.08.07-.17,0-.17.11-.17a1.31,1.31,0,0,0,.43-.28,1.63,1.63,0,0,1,.4-.28,1.7,1.7,0,0,0,.39-.41c.32-.42.46-.83.27-.83a7.37,7.37,0,0,0-1.29,1.12c-.16.17-1.16,1-1.61,1.38l-.59.47c-.36.29-.51.34-.51.18a4.21,4.21,0,0,1,1-1.14,1.29,1.29,0,0,0,.42-.34,1.49,1.49,0,0,1,.4-.34,1.5,1.5,0,0,0,.4-.33l.85-.86a2,2,0,0,0,.52-.74c0-.31-.13-.26-.61.27a11.65,11.65,0,0,1-1.5,1.42,1.9,1.9,0,0,0-.37.3c-1.12,1.1-1.47,1.37-1.59,1.24s.06-.19.21-.33a.9.9,0,0,0,.27-.39.13.13,0,0,1,.14-.13.24.24,0,0,0,.2-.17c0-.09.1-.17.15-.17a1.78,1.78,0,0,0,.48-.42A7.35,7.35,0,0,1,56.5,80c.57-.44,1.38-1.4,1.3-1.54s-.77.45-1.37,1.15A1.58,1.58,0,0,1,56,80c-.06,0-.22.15-.36.34a1.2,1.2,0,0,1-.32.34,4.33,4.33,0,0,0-.65.56c-.56.54-1.09.76-1,.39,0-.09,0-.17,0-.17a11.34,11.34,0,0,0-2,1.63.52.52,0,0,1-.27.17.43.43,0,0,0-.24.15,4.22,4.22,0,0,1-.63.46,4.22,4.22,0,0,0-.74.58.9.9,0,0,1-.33.27c-.09,0-.26.14-.56.47a12.22,12.22,0,0,1-1,.79,20.11,20.11,0,0,0-1.71,1.39,3.28,3.28,0,0,1-.48.33c-.2.12-.37.26-.37.31a.1.1,0,0,1-.11.09,4.32,4.32,0,0,0-.83.52l-1.11.81a3.11,3.11,0,0,0-.46.39,1.1,1.1,0,0,1-.27.22c-.11.07-.78.56-1.49,1.09-1.56,1.17-2.27,1.68-2.73,2a2.75,2.75,0,0,0-.4.28.77.77,0,0,1-.2.14A19.15,19.15,0,0,0,36,94.77c-.38.29-1.07.75-1.54,1-1.34.82-5,2.88-5.18,2.88a.12.12,0,0,0-.12.11.13.13,0,0,1-.14.11c-.28,0-.32.23-.41,1.9,0,.66-.08,1.37-.09,1.59,0,.65.13.81.84.76.33,0,.61,0,.61.05s0,.06.1,0a5.92,5.92,0,0,1,1.18-.07Z"/><path class="c" d="M53.13,86.76s0-.28,0-.59-.06-1-.1-1.63c-.09-1.16-.08-1.35.06-1.51s.19,0,.37.28.41.55.57.74c.71.81,1.13,1.73.79,1.73-.08,0-.11-.07-.08-.17s0-.17-.13-.17a.47.47,0,0,1-.31-.13c-.11-.13-.17,0-.14.26s-.28.34-.38.27a.4.4,0,0,1-.1-.29c0-.12,0-.22-.09-.22s-.08.16-.07.37c0,.44-.25,1.28-.36,1.07Z"/><path class="d" d="M14.85,102.71a14,14,0,0,1,.82-2.31.21.21,0,0,0,.08-.17c0-.07.31-.84.69-1.7.61-1.41.73-1.85.51-1.85a16.46,16.46,0,0,0-1.76,3.71c0,.15-.25.69-.46,1.2-.44,1-.5,1.61-.19,1.61.15,0,.23-.12.31-.48Z"/><path class="d" d="M18.41,102.82a2.66,2.66,0,0,0,.28-.7c0-.19.26-1,.5-1.91.67-2.41.74-2.74.64-2.81s-.67.87-.87,1.86a1.39,1.39,0,0,1-.13.39,2.11,2.11,0,0,0-.15.56,3.38,3.38,0,0,1-.15.62,2.74,2.74,0,0,0-.13.56,6.8,6.8,0,0,1-.21.88c-.28.9-.17,1.19.21.55Z"/><path class="d" d="M20.49,101.93a13.66,13.66,0,0,0,.41-1.56c0-.27.15-.8.25-1.17.29-1.11.34-1.52.17-1.52s-.5.91-.61,1.66a1.29,1.29,0,0,1-.16.54.42.42,0,0,0-.09.29,8.41,8.41,0,0,1-.3,1.24c-.29,1-.37,1.55-.23,1.71s.23-.09.57-1.18Z"/><path class="d" d="M22.83,102.89a9.25,9.25,0,0,0,.27-1.31,9.31,9.31,0,0,1,.24-1.2,5.54,5.54,0,0,0,.2-.8,5.67,5.67,0,0,1,.22-.86c.13-.29,0-.6-.16-.6s-.38.35-.34.53a.66.66,0,0,1,0,.26c0,.09-.11.4-.17.67s-.18.78-.26,1.12a8.64,8.64,0,0,0-.28,2.3c.09.25.19.22.32-.11Z"/><path class="d" d="M24.4,103.07a18.44,18.44,0,0,0,.6-2.41c.08-.43.21-1.1.28-1.49l.14-.7h-.24c-.18,0-.24.06-.24.27s0,.29-.1.31a7.65,7.65,0,0,0-.35,1.61c-.14.86-.29,1.76-.33,2a1.12,1.12,0,0,0,0,.48C24.21,103.22,24.33,103.19,24.4,103.07Z"/><path class="d" d="M25.42,103a11.7,11.7,0,0,0,.38-1.71c.14-.82.29-1.59.34-1.71.19-.5.21-.85,0-.92s-.5.32-.72,1.7c-.12.74-.27,1.61-.34,1.92C25,103,25.14,103.47,25.42,103Z"/><path class="d" d="M26.76,101.39c.06-.28.17-.86.25-1.29s.16-.9.19-1,0-.25-.2-.25-.28.08-.35.28a19.74,19.74,0,0,0-.45,3,.31.31,0,0,1-.06.27c-.17.12-.11.71.08.75s.2-.09.3-.58c.07-.34.18-.85.24-1.13Z"/><path class="d" d="M28,102.33c0-.37.12-1.22.15-1.9l.06-1.24-.19,1a12.49,12.49,0,0,0-.37,2.88c.11.32.26,0,.36-.7Z"/><path class="d" d="M39.66,103.25c.93-.05,1.9-.19,2.58-.19q9.21,0,18.42-.26l-5-10a1.24,1.24,0,0,0-.47-.59,1.18,1.18,0,0,0-.68-.06c-3.53.42-6.71,2.33-9.56,4.46-2.09,1.56-4.08,3.26-6.24,4.72-.84.56-2.62,1.19-1.14,1.76A5.46,5.46,0,0,0,39.66,103.25Z"/><path class="d" d="M21.24,102.2c.12-.48.29-1.15.36-1.49s.19-.82.25-1.07S22,99.1,22,99a3.87,3.87,0,0,1,.14-.54c.16-.46.13-.64-.09-.64s-.22.1-.26.31-.13.56-.21.87-.21.94-.29,1.4-.24,1.13-.35,1.49c-.23.76-.25,1.21-.06,1.21s.22-.34.36-.87Z"/><path class="d" d="M23.64,102.82a15.82,15.82,0,0,0,.41-1.94c.07-.37.2-1,.31-1.47.22-.92.24-1.21.07-1.15a13.53,13.53,0,0,0-1,3.9c0,.15-.07.42-.1.59-.07.39.22.44.35.06Z"/><path class="d" d="M27.26,102.45c0-.24.14-.92.23-1.51.27-1.7.29-1.91.19-1.91a30.43,30.43,0,0,0-.73,3.8c0,.33.26,0,.31-.38Z"/><path class="d" d="M62.2,102.52c0-.38-.32-1.13-.46-1.13a.11.11,0,0,1-.1-.11,2.47,2.47,0,0,0-.27-.59c-.15-.26-.42-.8-.61-1.21a7.46,7.46,0,0,0-.48-.91.64.64,0,0,1-.14-.3.24.24,0,0,0-.15-.18.18.18,0,0,1-.09-.22.37.37,0,0,0-.08-.31,2.54,2.54,0,0,1-.27-.46c-.08-.17-.18-.31-.22-.31s-.1-.15-.14-.33a2.88,2.88,0,0,0-.36-.79c-.16-.25-.26-.46-.22-.46s0-.07-.07-.14a2.64,2.64,0,0,1-.37-.64c-.12-.28-.34-.72-.47-1s-.22-.48-.19-.48,0-.09-.14-.2a1.71,1.71,0,0,1-.32-.68c-.11-.48-.12-.48-.53-.44s-.42.06-.45.4,0,.36.08.36a.11.11,0,0,1,.11.12,1.65,1.65,0,0,0,.26.5c.14.21.23.43.2.49s.05.19.19.29a.62.62,0,0,1,.25.42,2.3,2.3,0,0,0,.5,1,1.08,1.08,0,0,1,.13.37,3.47,3.47,0,0,0,.32.76c.14.24.22.44.19.44s0,.11.16.25a2.53,2.53,0,0,1,.36.62c.08.2.19.37.24.37s.08,0,0,.1a.14.14,0,0,0,0,.18.33.33,0,0,1,.1.25.7.7,0,0,0,.22.39c.12.12.18.21.14.21s0,.15.13.33a1.41,1.41,0,0,1,.21.44.18.18,0,0,0,.12.16c.06,0,.13.16.15.31a1.08,1.08,0,0,0,.18.45c.08.1.13.21.1.24s.06.2.2.37a1.43,1.43,0,0,1,.25.41,3.7,3.7,0,0,0,.9,1c.25.1.37,0,.35-.35Z"/><path class="d" d="M63.45,102.62c.18,0,.1-.77-.1-.93a.91.91,0,0,1-.26-.45.57.57,0,0,0-.21-.36.23.23,0,0,1-.14-.18,6.58,6.58,0,0,0-.52-1.29l-.5-.91a4.21,4.21,0,0,1-.38-.8.24.24,0,0,0-.15-.19.32.32,0,0,1-.15-.28c0-.12,0-.24-.1-.26s-.11-.15-.12-.29a.37.37,0,0,0-.2-.31.31.31,0,0,1-.18-.28.5.5,0,0,0-.2-.36.46.46,0,0,1-.2-.31,1.65,1.65,0,0,0-.2-.54,1.69,1.69,0,0,1-.2-.51,1.54,1.54,0,0,0-.3-.53,1.62,1.62,0,0,1-.3-.53c0-.08,0-.14-.1-.14s-.12-.1-.15-.21a1.7,1.7,0,0,0-.28-.48,3.71,3.71,0,0,1-.42-.74c-.12-.29-.27-.47-.38-.47-.29,0-.32.34-.09.8a2,2,0,0,1,.22.58A.48.48,0,0,0,58,93a4.26,4.26,0,0,1,.46.83,7.76,7.76,0,0,0,.44.86c.07.09.36.67.64,1.28s.56,1.18.62,1.26.07.15,0,.15,0,.06.09.12.15.16.12.22,0,.11.09.11.18.11.21.25a10.14,10.14,0,0,0,1,2.19.23.23,0,0,1,.13.19,2.25,2.25,0,0,0,.52.86c.09.11.14.23.12.26s0,.18.12.34a.85.85,0,0,1,.1.63c-.06.3,0,.34.14.34s.21-.06.21-.14.06,0,.12.08.12.21.15,0,.08-.2.13-.2Z"/><path class="d" d="M13.7,102.42A38.31,38.31,0,0,0,16,97.57,24.57,24.57,0,0,0,18.12,92a2.28,2.28,0,0,1,.79-1.63,3.83,3.83,0,0,0,.54-.29,1.34,1.34,0,0,0,.33-.53l9.76-23.11a11.35,11.35,0,0,0,1.28-5.25,2.4,2.4,0,0,0-.24-1,3.1,3.1,0,0,0-2.38-1.19c-.63,5.38-1.27,10.84-3.4,15.82a1.47,1.47,0,0,1-.6.8,1.51,1.51,0,0,1-.84.07l-9.72-1V95.54C13.64,97.73,13.29,100.29,13.7,102.42Z"/><path class="d" d="M63.64,97.79V95H63.4a.39.39,0,0,0-.3.11,5.26,5.26,0,0,1-2-.06.7.7,0,0,1-.27-.21c0-.08-.1-.08-.18,0s0,.79.27,1a.55.55,0,0,1,.13.31c0,.09,0,.16.1.16a.11.11,0,0,1,.1.11,5.13,5.13,0,0,0,.61,1.12,9.26,9.26,0,0,1,.44.93,3.4,3.4,0,0,0,.47.87s.08.08.08.17a.28.28,0,0,0,.15.24.27.27,0,0,1,.15.23c0,.22.31.72.4.66a27,27,0,0,0,.09-2.86Z"/><path class="d" d="M28.41,98.06a.55.55,0,0,0,0-.4,3.67,3.67,0,0,0-1-.23,5.13,5.13,0,0,1-1-.2,1.41,1.41,0,0,0-.53-.1,2.51,2.51,0,0,1-.69-.13,14.19,14.19,0,0,0-2.48-.49c-.49-.08-1.22-.23-1.6-.32s-1.06-.23-1.5-.3a11.32,11.32,0,0,1-1.33-.29c-.57-.18-.87-.14-1,.13s0,.46.17.48a14.91,14.91,0,0,1,1.55.42,3.7,3.7,0,0,0,.77.12c1,.08,1.1.09,1.16.18a.82.82,0,0,0,.4.14l.74.12.6.09a.78.78,0,0,1,.33.11,1.49,1.49,0,0,0,.5.14,3.75,3.75,0,0,1,.55.11c.1,0,.17,0,.17-.07s.07,0,.16.06.22.16.29.13a11,11,0,0,1,2.4.42c1.11.25,1.33.24,1.41-.1Z"/><path class="d" d="M29.23,96.92c1.33-.36,4.42-2.59,5.05-3,5-3.09,9.93-7,12-12.53Q38.5,85.9,31,90.85A6.8,6.8,0,0,0,29.58,92c-.62.71-2,4.24-.86,4.94A.67.67,0,0,0,29.23,96.92Z"/><path class="d" d="M27.91,96.19c.09-.16.09-.15.18-1.25l.06-.77-.27.08a1.69,1.69,0,0,0-.56.35c-.34.32-.56.35-.65.08a1.22,1.22,0,0,0-.26-.39c-.18-.18-.21-.18-.54.07s-.8.28-.68.05c0-.05,0-.1,0-.1s-.12-.1-.14-.21-.11-.2-.31-.16a.72.72,0,0,0-.37.21c-.14.18-.49.21-.49,0a1,1,0,0,0-.56-.55.91.91,0,0,0-.37.23c-.25.22-.66.22-.66,0a1.21,1.21,0,0,0-.2-.37c-.2-.28-.2-.28-.64-.1s-.45.17-.68-.07-.52-.32-.62-.14-.75-.09-.75-.45c0-.14-.21-.14-.53,0a.81.81,0,0,0-.38.53c-.19.63-.19.74,0,1a1.26,1.26,0,0,1,.14.53c0,.36.1.36.56,0s.74-.37.74-.14A.88.88,0,0,0,20,95c.14.21.15.21.58,0s.63-.3.71,0a.72.72,0,0,0,.29.35c.19.12.29.11.53,0s.31-.16.6.16.33.32.62.21.8,0,.8.3.24.15.36,0a.4.4,0,0,1,.25-.08c.1,0,.18-.05.18-.11,0-.24.29-.09.57.29l.28.4.4-.22c.42-.23.57-.2.89.2.17.21.21.22.47.07a1.17,1.17,0,0,0,.36-.3Z"/><path class="d" d="M63.6,93.86a3.88,3.88,0,0,0-.32-1.75,2.84,2.84,0,0,1-.2-.79c-.06-.48-.21-.84-.36-.84a13,13,0,0,0,.42,2.22,4,4,0,0,1,.16,1c0,.06,0,.11.06.11s.09.08.06.17,0,.17,0,.17.12-.15.16-.34Z"/><path class="d" d="M62.22,93.81c0-.15,0-.28-.07-.28a1.56,1.56,0,0,1-.14-.65,6.76,6.76,0,0,0-.64-2.36c-.09,0-.11.08-.05.39a3.74,3.74,0,0,1,.06.64.65.65,0,0,0,.07.34,5.06,5.06,0,0,1,.25.85c.21.91.36,1.35.46,1.35S62.22,94,62.22,93.81Z"/><path class="d" d="M63,93.93c.12-.14.12-.17,0-.22a.28.28,0,0,1-.15-.24c0-.1,0-.15-.1-.11s-.11.73.07.73A.6.6,0,0,0,63,93.93Z"/><path class="d" d="M60.74,93.72a3,3,0,0,0-.16-.7,6.35,6.35,0,0,1-.31-1.56c-.07-.53-.28-.84-.3-.43a9.93,9.93,0,0,0,.38,1.77,4.22,4.22,0,0,1,.15.7C60.57,94,60.75,94.16,60.74,93.72Z"/><path class="d" d="M61.45,93.42l-.29-.68c-.16-.39-.2-.43-.15-.17a.74.74,0,0,0,.14.37s.06.1,0,.18a1,1,0,0,0,.06.47c.08.24.13.29.19.17A.43.43,0,0,0,61.45,93.42Z"/><path class="d" d="M28.28,93.55a1.76,1.76,0,0,0,.1-.39c0-.28,0-.3-.42-.37a8.65,8.65,0,0,1-.87-.19l-.6-.17c-.11,0-.54-.1-1-.15s-1.07-.17-1.45-.27-1.13-.25-1.65-.35-1.22-.26-1.55-.35l-.8-.21-.68-.17c-.4-.11-.5-.11-.57,0s-.06.39.14.35a.13.13,0,0,1,.16.12,3.87,3.87,0,0,0,1.69.65.32.32,0,0,1,.25.1c0,.06.14.08.24,0a.23.23,0,0,1,.26.07c.05.09.11.09.21,0s.15-.09.2.06.16.18.38.17a1.29,1.29,0,0,1,.46,0,4.06,4.06,0,0,0,.55.14l.65.13.75.1a1.2,1.2,0,0,1,.55.15c.09.15.9.27.9.13s.09-.06.23,0a2.09,2.09,0,0,0,.85.21,2.12,2.12,0,0,1,.69.11.16.16,0,0,0,.27,0Z"/><path class="d" d="M60,93.48A.62.62,0,0,1,59.9,93c0-.15,0-.31,0-.35a2,2,0,0,1-.22-.71c-.13-.72-.29-1.13-.29-.77a4.21,4.21,0,0,0,.32,1.57c.05,0,.08,0,.06.15,0,.29.1.71.23.71s.06-.05,0-.16Z"/><path class="d" d="M62.54,92.28c-.12-.55-.35-.93-.26-.42,0,.14.08.51.11.82s.08.52.16.36a1.3,1.3,0,0,0,0-.75Z"/><path class="d" d="M28.7,91.77a9.64,9.64,0,0,1,1.62-1.17,4.15,4.15,0,0,0,.56-.38c.28-.21.67-.48.87-.61l.6-.38a1.71,1.71,0,0,0,.29-.22,3.83,3.83,0,0,1,.5-.33l1.28-.81a6.7,6.7,0,0,1,.92-.54.14.14,0,0,0,.12-.09,2.33,2.33,0,0,1,.58-.4c.3-.17.86-.5,1.25-.75l.85-.52a.73.73,0,0,0,.2-.14,4.19,4.19,0,0,1,1.07-.57.27.27,0,0,0,.2-.14,2.35,2.35,0,0,1,1-.71c.14,0,.26-.11.26-.15s.17-.18,1.25-.76a2.9,2.9,0,0,0,.63-.41.2.2,0,0,1,.18-.08,1.29,1.29,0,0,0,.64-.35A2.69,2.69,0,0,1,44,82a3.51,3.51,0,0,0,.63-.47,1,1,0,0,1,.36-.26A3,3,0,0,0,46,80.59c0-.05.06-.09.13-.09s.44-.55.52-1.15.05-.53-.13-.53a.32.32,0,0,0-.25.09A12.9,12.9,0,0,1,44.59,80a1.63,1.63,0,0,0-.38.25c-.44.36-.78.54-.86.48s-.15,0-.25.16a1,1,0,0,1-.42.28,2.89,2.89,0,0,0-.66.36c-.22.16-.61.42-.87.57a11.8,11.8,0,0,0-1.16.76,10,10,0,0,1-1.4.89c-.39.22-.84.49-1,.61a9,9,0,0,1-.83.5c-.29.15-.53.33-.53.4a.13.13,0,0,1-.13.12,4.08,4.08,0,0,0-1.36.78c-.31.22-.69.48-.86.57a4.64,4.64,0,0,0-.6.41,3.49,3.49,0,0,1-.55.37,4.48,4.48,0,0,0-.55.34c-.17.12-.44.3-.6.39a14.5,14.5,0,0,0-1.32.88,2.82,2.82,0,0,1-.48.31,8.52,8.52,0,0,0-.85.57c-.66.48-.81.64-.89,1a3.62,3.62,0,0,0-.1.56c0,.17.18.58.26.58a3.12,3.12,0,0,0,.49-.4Z"/><path class="d" d="M52.42,92c.19-.18.32-.68.18-.68a3.37,3.37,0,0,0-1,.68c-.17.22-.17.22.21.22a1,1,0,0,0,.62-.21Z"/><path class="d" d="M61,91.81c0-.2,0-.22-.1-.08s-.13.34,0,.34S61,92,61,91.81Z"/><path class="d" d="M26.13,91.34a8.68,8.68,0,0,1,.36-1.12,5.47,5.47,0,0,0,.25-.69s.25-.84.56-1.78l.76-2.32c.2-.61.36-1.06.64-1.76a2,2,0,0,0,.14-.54,19,19,0,0,1,.8-2.45,1.12,1.12,0,0,0,.1-.42c0-.12,0-.23.09-.23s.11-.14.14-.32a6.29,6.29,0,0,1,.3-.93c.22-.55.55-1.46.94-2.63l.23-.67c0-.12.26-.68.48-1.24s.48-1.24.58-1.52.41-1,.69-1.63l.61-1.35.28-.62.78-1.74c.33-.74.8-1.73,1-2.2a6.52,6.52,0,0,0,.43-1c0-.06-.1-.1-.23-.09a3.38,3.38,0,0,1-.73-.06A10.19,10.19,0,0,0,32.86,64c-.28.07-.37.16-.5.55a2.54,2.54,0,0,1-.29.61.57.57,0,0,0-.12.33.52.52,0,0,1-.15.33.47.47,0,0,0-.15.27,2.55,2.55,0,0,1-.3.63,9.31,9.31,0,0,0-.51,1c-.2.5-.36.85-.9,2A17.92,17.92,0,0,0,29,71.9a4.83,4.83,0,0,1-.36.86,1.27,1.27,0,0,0-.19.41.17.17,0,0,1-.09.15,39,39,0,0,0-1.86,4.31l-.35.9c-.19.52-.45,1.18-.82,2a5.62,5.62,0,0,0-.39,1.14,1.09,1.09,0,0,1-.18.49,25.2,25.2,0,0,0-1.38,3.36c-.27.82-.75,2.1-.94,2.5a.94.94,0,0,0-.1.32,7.31,7.31,0,0,1-.51,1.43,2.65,2.65,0,0,0-.18.84c0,.2,0,.3.06.22s.24-.19.21,0,.07.14.18.16a5.5,5.5,0,0,1,1.3.39.84.84,0,0,0,.49,0c.21,0,.41,0,.45,0a2.2,2.2,0,0,0,1.21.35l.47,0,.11-.51Z"/><path class="d" d="M54.93,91.32a1.55,1.55,0,0,1,.6-.17c.12,0,.23,0,.23-.08s.25-.12.55-.15a1.83,1.83,0,0,0,.62-.13A5.13,5.13,0,0,0,56.83,89c-.14-.79-.11-.79-1-.17-.62.42-.66.51-.41.83s.26.72,0,.86-.24.17-.24.23-.44.25-.52.1a1.34,1.34,0,0,1,0-.56c.06-.49,0-.5-.34-.22l-.56.41c-.26.18-.28.21-.12.34a.44.44,0,0,1,.17.27.14.14,0,0,0,.15.13.15.15,0,0,1,.15.14c0,.21.46.22.88,0Z"/><path class="d" d="M60.91,91.33a1.82,1.82,0,0,1-.06-.47c0-.2,0-.26-.1-.18s0,.83.12.83S60.94,91.42,60.91,91.33Z"/><path class="d" d="M62.29,91.08a5.78,5.78,0,0,1-.08-.61c0-.1,0-.16-.08-.13a.91.91,0,0,0,0,.77.22.22,0,0,1,0,.23c0,.09,0,.16.07.16S62.35,91.38,62.29,91.08Z"/><path class="d" d="M63.58,90.34c0-.27,0-.41-.1-.41s-.27.19-.14.28a.13.13,0,0,1,.05.17c-.06.1,0,.49.11.42A1.73,1.73,0,0,0,63.58,90.34Z"/><path class="d" d="M21.21,90.3c.22-.56.53-1.49,1-3,.08-.25.36-1,.63-1.59a14.92,14.92,0,0,0,.56-1.43.78.78,0,0,1,.15-.35,1.69,1.69,0,0,0,.25-.48,8.59,8.59,0,0,0,.44-1.19s.16-.43.35-.87a6.88,6.88,0,0,0,.35-.91,10.4,10.4,0,0,1,.44-1.13c.69-1.62,1.16-2.76,1.16-2.82S27.1,75.11,28,73a22.74,22.74,0,0,0,1.15-2.86c0-.07,0-.12.08-.12s.14-.16.21-.37A7.83,7.83,0,0,1,30,68.37a7.32,7.32,0,0,0,.38-.73c.14-.31.37-.76.51-1a5.58,5.58,0,0,0,.3-.62c0-.09.09-.25.14-.35l.35-.76a3.25,3.25,0,0,1,.36-.64c.17-.12,0-.39-.31-.39s-.5.24-.81,1S30,66.73,29.85,67a5.25,5.25,0,0,0-.35.69c-.09.22-.2.47-.25.56-.23.43-3.31,7.57-3.31,7.69s-1.29,3.19-2.2,5.28c-1.13,2.6-1.5,3.48-1.5,3.58s-.31.78-.69,1.63a16.06,16.06,0,0,0-1.43,3.93.22.22,0,0,1,.11.2c0,.11.12.16.4.16s.41,0,.56-.42Zm6.15,1.47a.72.72,0,0,0,.18-.44,33,33,0,0,1,1-3.61.69.69,0,0,0,.05-.42c0-.1,0-.18,0-.18s.09-.06.07-.14a25.27,25.27,0,0,1,1-3.23c.06-.15.27-.76.47-1.35s.43-1.22.5-1.4l.33-.84a8.15,8.15,0,0,0,.27-.79,23,23,0,0,1,1-2.64,8.08,8.08,0,0,0,.39-1,7.7,7.7,0,0,1,.36-1c.2-.43.65-1.55.93-2.3.09-.24.77-1.8.91-2.08.37-.74.84-1.75.83-1.8a2.42,2.42,0,0,1,.22-.45c.12-.22.32-.62.44-.9a10.83,10.83,0,0,1,.78-1.53,1.53,1.53,0,0,0,.22-.48c0-.07,0-.12.09-.12s.11-.09.14-.2.08-.28.12-.38,0-.2-.23-.26c-.45-.11-.66.08-1,.92A6.79,6.79,0,0,1,36,66a25,25,0,0,0-1.3,2.7,13.53,13.53,0,0,1-.58,1.24A23.33,23.33,0,0,0,32.85,73c-.28.76-.6,1.59-.71,1.86a3,3,0,0,0-.19.59,5.68,5.68,0,0,1-.34.87c-.19.42-.45,1.11-.59,1.55s-.34,1-.45,1.29c-.39,1-.7,1.85-.77,2.12-.12.46-1,3.38-1.27,4a6.26,6.26,0,0,0-.41,1.29,6.76,6.76,0,0,1-.25.84l-.41,1.18c-.12.34-.25.71-.31.81a1.06,1.06,0,0,0-.1.4.53.53,0,0,1-.07.29,6.77,6.77,0,0,0-.42,1.38c-.05.23,0,.37,0,.4a.79.79,0,0,0,.79-.1Z"/><path class="d" d="M59.15,90.32a1.89,1.89,0,0,0,.67-.2c.07-.06.15-.08.19,0s.18,0,.32-.13a3.49,3.49,0,0,1,.59-.35c.18-.08.33-.18.33-.23s.11-.14.25-.21.25-.2.25-.29.12-.19.28-.23a3.08,3.08,0,0,0,1.23-1.16c0-.22-.2-.17-.45.11a4.61,4.61,0,0,1-1.58,1.21c-.15,0,0-.17.44-.68a9.2,9.2,0,0,1,.92-.87c.15-.1.27-.26.27-.34s-.06-.1-.25,0-.25.23-.25.28a.12.12,0,0,1-.12.1,1.85,1.85,0,0,0-.56.39,3,3,0,0,1-.63.46c-.1,0-.19.12-.19.17s-.08.1-.18.1a.42.42,0,0,0-.3.22c-.11.19-.52.33-.52.17a1.43,1.43,0,0,1,.56-.62,1.58,1.58,0,0,0,.51-.41,7.84,7.84,0,0,1,.76-.69c.21-.16.38-.32.38-.37s.09-.12.19-.16c.3-.11.32-.37.05-.68s-.49-.36-.61-.13A7.35,7.35,0,0,1,60,87.19c-1,.64-.95.38.2-.68.45-.41.47-.58,0-.29l-.48.3a.93.93,0,0,0-.27.25c-.07.1-.12.14-.12.09s-.13,0-.28.2a1,1,0,0,1-.39.29.92.92,0,0,0-.37.22c-.34.3-.57.3-.5,0s.06-.24-.26,0-.32.27-.32.35a2.58,2.58,0,0,0,.82.94s.08.07.08.16a.34.34,0,0,0,.13.25.66.66,0,0,1,.19.35c.05.23,0,.26-.18.2a.25.25,0,0,0-.35.16c-.08.16-.17.21-.3.16s-.44,0-.3.22a3.29,3.29,0,0,0,1.81,0Z"/><path class="c" d="M58.95,88.5s.16-.18.35-.3a3.9,3.9,0,0,0,.7-.59,1.4,1.4,0,0,1,.45-.37,1.4,1.4,0,0,0,.45-.39,1.39,1.39,0,0,1,.45-.39.11.11,0,0,0,.11-.11.12.12,0,0,1,.12-.11.56.56,0,0,0,.29-.17c.15-.16.17-.15.22,0a.41.41,0,0,1-.2.43,5.94,5.94,0,0,0-.47.43A10.91,10.91,0,0,1,59,88.58a.09.09,0,0,1-.09-.09Z"/><path class="d" d="M62.85,90.14c0-.06,0-.08-.1,0a.25.25,0,0,0-.1.18c0,.06,0,.08.1,0A.25.25,0,0,0,62.85,90.14Z"/><path class="d" d="M28.76,89.36c1.42.05,4.48-2.68,5.69-3.46l6-3.86c-.3-.77-.77-1.66-1.6-1.7-.42,0-.88.19-1.23-.05a.59.59,0,0,1,.07-1,.65.65,0,0,0-.67-.48,1.88,1.88,0,0,0-.84.29l-4.37,2.35A2.92,2.92,0,0,0,31,82a2.88,2.88,0,0,0-.57,1.1c-.66,1.91-1.72,4.24-1.8,6.26Z"/><path class="d" d="M62.54,89.14a1.13,1.13,0,0,0,.35-.28.93.93,0,0,1,.4-.28c.14,0,.38-.5.29-.6s-.13,0-.22.14a4.9,4.9,0,0,1-.73.62c-.39.28-.55.46-.52.57s.07.14.2,0a.5.5,0,0,1,.23-.17Z"/><path class="d" d="M43.44,87.24a.79.79,0,0,1,.42-.29.8.8,0,0,0,.39-.23.39.39,0,0,1,.26-.16.24.24,0,0,0,.2-.17,1.34,1.34,0,0,1,.5-.41c.24-.14.44-.31.44-.4a.15.15,0,0,1,.15-.15c.08,0,.15-.05.15-.11a.13.13,0,0,1,.13-.11.58.58,0,0,0,.32-.22.59.59,0,0,1,.3-.22.38.38,0,0,0,.24-.16,1.72,1.72,0,0,1,.46-.34c.19-.1.35-.25.35-.33s.23-.27.42-.24a1.41,1.41,0,0,0,.4-.34,9.52,9.52,0,0,1,.73-.67c.22-.18.49-.42.6-.53a5.26,5.26,0,0,1,.58-.48,1.49,1.49,0,0,0,.43-.43.14.14,0,0,1,.18-.1c.07,0,.21,0,.31-.18a.62.62,0,0,1,.29-.23,16.61,16.61,0,0,0,2-1.64,5.6,5.6,0,0,1,.47-.36,1.28,1.28,0,0,0,.38-.42.88.88,0,0,1,.33-.35c.12-.06.21-.18.19-.26s0-.11.07-.08.27-.13.48-.36a2.55,2.55,0,0,1,.55-.5c.19-.08.54-.62.46-.71s-.23.14-.44.37a9.23,9.23,0,0,1-.94.87c-.47.37-.81.67-1.92,1.68a3,3,0,0,1-.4.29,1.89,1.89,0,0,0-.37.29c-.14.15-.32.2-.32.09a6,6,0,0,1,1-1.13,10.42,10.42,0,0,0,1.34-1.25A1.33,1.33,0,0,1,55,76.9c.06,0,.23-.18.38-.39s.34-.39.4-.39a.12.12,0,0,0,.13-.11.13.13,0,0,1,.14-.11c.14,0,.26-.23.26-.51s-.21-.17-.87.51a4.61,4.61,0,0,1-.74.67s-.09.08-.09.17a.16.16,0,0,1-.15.17,1.43,1.43,0,0,0-.54.39,2.07,2.07,0,0,1-.46.39.83.83,0,0,0-.29.22c-.84.86-1.46,1.17-1.46.72,0-.28-.37-.18-.44.12S51.17,79,51,79s-.2.08-.2.45,0,.45-.13.45-.13-.09-.14-.2-.06-.47-.13-.81-.14-.79-.16-1-.11-.69-.2-1c-.24-1.07-.21-1.19.42-1.7a10.15,10.15,0,0,0,.92-.84c.2-.22.59-.59.86-.83a7.66,7.66,0,0,0,.6-.57,2.37,2.37,0,0,1,.38-.33c.15-.11.28-.26.28-.33s.1-.18.23-.24a.3.3,0,0,0,.19-.34c-.06-.37-.11-.35-.56.2a2.76,2.76,0,0,1-.5.53,4.6,4.6,0,0,0-.69.56l-.9.81-.42.4a6.73,6.73,0,0,1-1.25.92c-.22,0-.06-.33.29-.59a6.19,6.19,0,0,0,.65-.58,1.07,1.07,0,0,1,.36-.29,2.69,2.69,0,0,0,.58-.52,16.87,16.87,0,0,1,1.63-1.62,1.46,1.46,0,0,0,.37-.75s-.19.1-.36.29a1.39,1.39,0,0,1-.4.34,1.28,1.28,0,0,0-.37.37,4.3,4.3,0,0,1-.64.64c-.55.43-.9.81-.9,1s0,.14-.06.1-.18.06-.32.21a.91.91,0,0,1-.39.27.12.12,0,0,0-.13.11c0,.06-.12.18-.28.27a2.87,2.87,0,0,0-.52.42,1.06,1.06,0,0,1-.38.28,1.68,1.68,0,0,0-.48.37,1.29,1.29,0,0,1-.49.35c-.08,0-.23.13-.33.28s-.2.47-.2,1.71A7.5,7.5,0,0,1,47,80.42a3.35,3.35,0,0,0-.15.75,6.21,6.21,0,0,1-.79,2.22,6.58,6.58,0,0,0-.48.82A8.86,8.86,0,0,1,44.21,86c-.64.76-1.1,1.42-1,1.42s.15-.1.23-.22Z"/><path class="d" d="M63.59,86c.09-.72.07-.77-.47-1.44-.1-.12-.13-.22-.07-.22s.08-.05,0-.12-.45.23-.38.36,0,.1-.09.12-.08.15.07.43a3.2,3.2,0,0,0,.25.44,2.51,2.51,0,0,1,.37.7C63.41,86.59,63.53,86.47,63.59,86Z"/><path class="d" d="M61.13,85.77a.12.12,0,0,0,.12-.11c0-.23-.44,0-.54.3s-.05.18.12,0A.62.62,0,0,1,61.13,85.77Z"/><path class="d" d="M61.56,85.3c.11-.23.1-.24,0-.1a.51.51,0,0,0-.17.25C61.35,85.62,61.43,85.56,61.56,85.3Z"/><path class="d" d="M63.53,84.17a3.27,3.27,0,0,0,.08-1.09c0-.8-.05-1-.2-1-.34-.07-.47.06-.36.38a3.82,3.82,0,0,1,.14.65,3.92,3.92,0,0,0,.15.69c.09.26.08.35,0,.42s-.09.09,0,.09A.34.34,0,0,0,63.53,84.17Z"/><path class="d" d="M62.2,83.67a1.81,1.81,0,0,0,.09-.31,1.91,1.91,0,0,1,.07-.28c0-.09.1-.36.16-.59l.1-.42h-.42l-.77,0A1.26,1.26,0,0,0,61,82c-.11.07.21.7.59,1.18a1.86,1.86,0,0,1,.34.53c0,.18.17.13.25-.08Z"/><path class="d" d="M54.4,81c.15-.15.22-.28.17-.28a1,1,0,0,0-.37.28c-.15.15-.22.28-.17.28A1,1,0,0,0,54.4,81Z"/><path class="d" d="M31.84,80.89c.07-.09.16-.17.2-.17a7.92,7.92,0,0,0,1.83-1.05c0-.08.21-.18.4-.21a4.36,4.36,0,0,0,1.07-.52,4,4,0,0,1,.86-.46c.39,0,.77-1.13.42-1.26a13.12,13.12,0,0,0-2.34,1.27c-.06.06-.13.07-.16,0s-.11,0-.18.11a.42.42,0,0,1-.27.17,1.11,1.11,0,0,0-.41.16l-.93.52c-.7.37-.94.67-1,1.24-.05.3,0,.34.19.34A.52.52,0,0,0,31.84,80.89Z"/><path class="d" d="M40.85,80c0-.92,0-.95-.23-.95s-.67.54-.67.9.68,1.14.82,1.05A3.45,3.45,0,0,0,40.85,80Z"/><path class="d" d="M41.9,80.35c.15-.28.15-.38,0-.81s-.18-.5-.35-.5c-.32,0-.43.23-.39.84,0,.31,0,.7,0,.87s0,.31.25.11A2.06,2.06,0,0,0,41.9,80.35Z"/><path class="d" d="M55.17,80.27c.16-.17.18-.22.07-.22a.47.47,0,0,0-.39.36C54.84,80.55,54.94,80.51,55.17,80.27Z"/><path class="d" d="M62.34,80c.85,0,1.12,0,1.21-.14s.11-1.66,0-6a26.71,26.71,0,0,0-6-.27,11.4,11.4,0,0,0,0,2.5A3.33,3.33,0,0,0,58,77a3.58,3.58,0,0,1,.4.81c0,.15.11.27.18.26s.13.09.15.24a.44.44,0,0,0,.18.32c.08,0,.12.1.09.16s.06.18.2.28a.61.61,0,0,1,.25.4c0,.12.06.21.14.21a.24.24,0,0,1,.2.16c0,.12.25.17.74.2a2.34,2.34,0,0,0,.7,0,5.82,5.82,0,0,1,1.12,0Z"/><path class="d" d="M43.54,79.88c.18-.25-.25-.72-.69-.76s-.35,0-.35.24.09.33.34.48C43.26,80.09,43.38,80.1,43.54,79.88Z"/><path class="d" d="M39.3,79.48c.39-.41.32-.55-.31-.54s-.85.22-.85.7c0,.19.06.21.46.16a1.2,1.2,0,0,0,.7-.31Z"/><path class="d" d="M45.94,74a1.86,1.86,0,0,1-.47,1.13c-.3.34-.4.38-.76.35s-.42-.06-.41-.34,0-.31-.13-.31c-.3,0-.5.24-.62.73s-.11.53.06.71a1.08,1.08,0,0,0,.75.2c.87,0,.89,0,.89.92,0,1.14-.12,1.45-.63,1.56s-.63.43-.25.5.49,0,.77-.36c.13-.16.28-.27.33-.26a3.37,3.37,0,0,0,1.19-.71,2.27,2.27,0,0,0,.06-1.09,14.65,14.65,0,0,0-.37-3.1c-.06-.21-.28-.13-.4,0Z"/><path class="d" d="M45.78,71.36a.57.57,0,0,1-.09-.25,4.22,4.22,0,0,0-.23-.68c-.12-.28-.29-.72-.38-1-.26-.74-.39-1-.48-.89s-.05,0,0-.11,0-.2,0-.2-.1-.1-.1-.23a.33.33,0,0,0-.15-.29.31.31,0,0,1-.15-.27.38.38,0,0,0-.09-.27,2.19,2.19,0,0,1-.41-.92c0-.08,0-.15-.09-.15s-.19-.23-.32-.51a1.34,1.34,0,0,0-.31-.51s-.08-.1-.08-.22a.41.41,0,0,0-.13-.31,2.55,2.55,0,0,1-.47-1,.18.18,0,0,0-.08-.15,4.45,4.45,0,0,1-.47-.71,4.14,4.14,0,0,0-.52-.76.29.29,0,0,1-.13-.2,3.91,3.91,0,0,0-.89-1.24.61.61,0,0,0-.4,0,.45.45,0,0,1-.32,0c-.09-.06-.15.26-.24,1.29-.18,2-.29,2.47-.66,2.47-.11,0-.25.16-.36.42a2.3,2.3,0,0,1-.24.48,5.52,5.52,0,0,0-.38.73c-.35.74-.48,1-1,2a7.2,7.2,0,0,0-.38.77,2.17,2.17,0,0,1-.25.43,1.67,1.67,0,0,0-.25.47c0,.08-.91,2.21-1.69,4,0,.09-.25.62-.45,1.18s-.58,1.52-.83,2.13-.51,1.34-.58,1.6C32,79,32,79,32.17,79a8.57,8.57,0,0,0,2.27-1.22c0-.05.06-.09.14-.09a1.39,1.39,0,0,0,.43-.13l.33-.14a2.07,2.07,0,0,0,.3-.2,1.91,1.91,0,0,1,.52-.26c.15,0,.28-.11.28-.16.54-.36,2.63-1.16,2.28-1.72-.19-.33-.57-.48-.63-.24l-.09.33c0,.14-.15.16-.58.1a2.18,2.18,0,0,1-.75-.23A2.34,2.34,0,0,1,36.15,73c.1-.41.85-1.41,1-1.31s.49-.45.4-1a3,3,0,0,1,0-.79,4.27,4.27,0,0,1,1.74-2.31,3.92,3.92,0,0,0,.8-.72,1.85,1.85,0,0,1,.73-.57c.26-.06.35,0,.62.33a2.1,2.1,0,0,1,.33.49,1.23,1.23,0,0,0,.32.37c.18.15.61.61,1,1a2.48,2.48,0,0,1,.81,2.44c-.14.77-.14.93,0,.93s.07-.08,0-.18,0-.16.13-.06a2.14,2.14,0,0,0,.87.26c.37.12.68,0,.9-.51Z"/><path class="d" d="M39.09,78.37c.13-.06.16-.11.08-.17a.34.34,0,0,0-.32,0c-.12.07-.2.08-.2,0s-.22-.1-.5-.09-.5.06-.5.11.2.08.45.06a1.09,1.09,0,0,1,.52.05C38.69,78.49,38.84,78.48,39.09,78.37Zm.73,0c0-.15-.35-.29-.43-.14a.21.21,0,0,0,.23.3A.28.28,0,0,0,39.82,78.4Zm4.1.17c.63,0,.83-.15.39-.28a4.7,4.7,0,0,0-1.53.09,2.86,2.86,0,0,1-.77,0c-.45-.06-.73-.06-.82,0s-.14.08-.19,0a1.18,1.18,0,0,0-1,0c0,.06,0,.11,0,.12l.73.07a6.4,6.4,0,0,1,.72.09,9.36,9.36,0,0,0,1,0Z"/><path class="d" d="M52.45,78.08a.4.4,0,0,1,.23-.17,7.13,7.13,0,0,0,1.42-1.25c.88-.92,1-1,1-1a.9.9,0,0,0,.25-.27,1.05,1.05,0,0,1,.39-.34c.21-.07.29-.62.09-.62a5.35,5.35,0,0,0-.89.73,8.08,8.08,0,0,1-.85.73,1.32,1.32,0,0,0-.34.27l-.67.67a1.6,1.6,0,0,1-.53.4.23.23,0,0,0-.18.16.4.4,0,0,1-.25.21.39.39,0,0,0-.13.56c.11.13.3.08.43-.09Z"/><path class="d" d="M44.66,77.81a1.26,1.26,0,0,0,.13-.38c.05-.25,0-.31-.11-.32l-.48-.05c-.17,0-1.56-.07-3.1-.1s-2.94-.08-3.1-.12a.59.59,0,0,0-.5.1c-.19.15-.19.18,0,.47s.2.3,1.15.35c.54,0,1.56.06,2.26.08a6.39,6.39,0,0,1,1.34.11,10.14,10.14,0,0,0,2.45-.14Z"/><path class="d" d="M52,77.35a1.37,1.37,0,0,1,.41-.34,1.74,1.74,0,0,0,.45-.45,1.68,1.68,0,0,1,.45-.45A3.46,3.46,0,0,0,54,75.5a3.53,3.53,0,0,1,.66-.62c.05,0,.09-.06.09-.14s.15-.24.32-.37a.79.79,0,0,0,.35-.53c0-.4-.11-.39-.47,0a17.43,17.43,0,0,1-2,1.9c-.21.14-.38.3-.38.34s-.51.37-.57.3.1-.25.29-.5.36-.4.41-.32.08.1.08,0,.13-.3.85-1c1.08-1,1.37-1.38,1.33-1.65s0-.26-.33.08a4.91,4.91,0,0,1-.52.51,8,8,0,0,0-.6.56c-.21.21-.89.82-1.51,1.35s-1.12,1-1.1,1.12.48.3.48.08.37-.34.52-.23.09.21-.27.48-.43.43-.17.64.23.2.59-.18Z"/><path class="d" d="M40.1,76.45a.13.13,0,0,1,0-.17,3.92,3.92,0,0,0-.34-2.44.18.18,0,0,1-.09-.17,2.6,2.6,0,0,0-.84-1.18l-.62-.36c-.41-.24-.68-.17-1.14.3a1.38,1.38,0,0,0-.15,2l.24.25.17-.29A.83.83,0,0,1,38.46,74c.22.07.37.16.34.22a.16.16,0,0,0,.08.19,2.51,2.51,0,0,1,.53,1.44c.05.49.1.6.32.69s.45.08.36-.08Z"/><path class="d" d="M41,76.26a27.25,27.25,0,0,0-.08-2.75,4.47,4.47,0,0,1,0-.87c0-.34,0-.77,0-1s0-.69,0-1.12,0-.73-.09-.64-.08,1.61-.08,3.4c0,2.6,0,3.25.14,3.25s.13-.13.14-.31Z"/><path class="d" d="M42.85,76.34a5.47,5.47,0,0,0,.19-.7A2.5,2.5,0,0,1,44,74a1.76,1.76,0,0,1,.39-.18c.18,0,.6.58.6.84s.13.36.35,0a2.32,2.32,0,0,0-.15-1.95,1.86,1.86,0,0,0-1.51-.42l-.63,0-.29.67a3.62,3.62,0,0,0-.33,1.56c0,.49-.06,1.07-.08,1.27a1.63,1.63,0,0,0,0,.54c.07.21.44.16.53-.07Z"/><path class="d" d="M41.89,75.07A5.57,5.57,0,0,1,43,71.56c.38-.39.6-1.38.34-1.56a.37.37,0,0,1-.1-.27,2.5,2.5,0,0,0-.83-1.14c-.16,0-.57-.46-.57-.64a.15.15,0,0,0-.15-.15.41.41,0,0,1-.27-.22c-.07-.12-.15-.22-.19-.22a4.22,4.22,0,0,0,0,1c.2,7.56.21,7.85.37,8s.26,0,.33-1.28Z"/><path class="d" d="M50.65,76c0-.07,0-.09.09-.06s.17,0,.27-.16a.59.59,0,0,1,.29-.22,1.43,1.43,0,0,0,.46-.42c.19-.23.38-.41.41-.4a3.57,3.57,0,0,0,.68-.65,4.15,4.15,0,0,1,.7-.67,4.46,4.46,0,0,0,.92-1.14c0-.22-.29,0-.77.47a3,3,0,0,1-.62.56.15.15,0,0,0-.13.08,13.76,13.76,0,0,1-1.66,1.49,1.14,1.14,0,0,0-.35.28,1,1,0,0,1-.37.28c-.18,0-.31.4-.18.54s.28.17.28,0Z"/><path class="d" d="M24.51,74.23a11,11,0,0,0,.9-2.91c-.08-.09-.16-.1-3-.41l-2.6-.31c-1.45-.2-1.66-.19-1.79.06l-.42.79c-.58,1.06-.94,1.75-.94,1.8a3.5,3.5,0,0,1-.26.51c-.24.43-.27.87,0,.72.06,0,.1,0,.1,0s.2.11.48.11a6.22,6.22,0,0,1,1.61.19s.12,0,.23-.07.19-.07.19,0a2.28,2.28,0,0,0,.88.12c1,0,3,.22,3.08.27a3.34,3.34,0,0,0,.62.05l.59,0,.41-1Z"/><path class="d" d="M57,74.06a21.26,21.26,0,0,0-.4-3.44c-.11-.73-.22-.89-.45-.64s-.2.22-.62,0c-.18-.07-.33-.2-.33-.28s0-.15-.1-.15-.48-.32-1.1-1a2.31,2.31,0,0,0-.82-.69c-.3-.06-.48.12-.23.23a.21.21,0,0,1,.1.27.2.2,0,0,0,.14.27c.11,0,.19.11.18.15a2.14,2.14,0,0,0,.29.59,6.81,6.81,0,0,1,.46.9,3.29,3.29,0,0,0,.46.76,1.37,1.37,0,0,1,.31.53c0,.09,0,.16.1.16a.08.08,0,0,1,.09.08c0,.21.15.59.27.59a.11.11,0,0,1,.11.14c0,.08,0,.13.1.11s.12,0,.11.06a1.25,1.25,0,0,0,.34.81,2.48,2.48,0,0,1,.54.93c0,.11.1.2.15.2s.09.08.09.18,0,.14.1.11a2.31,2.31,0,0,0,.1-.88Z"/><path class="d" d="M15.53,74.22a4.3,4.3,0,0,1,.29-.54A7.26,7.26,0,0,0,16.89,71c0-.31.05-.81.09-1.12a1.73,1.73,0,0,0,0-.73,6.86,6.86,0,0,0-2.66-.29h-.6l0,1.16c0,1.37.1,1.48.44.37s.4-1.05.47.29a4.58,4.58,0,0,0,.12.93.69.69,0,0,1,0,.39.29.29,0,0,1-.33.26.45.45,0,0,1-.34-.11.18.18,0,0,0-.23,0c-.14.06-.16.23-.15,1.08,0,1.06.09,1.22.5,1.07a.45.45,0,0,1,.36.06c.21.14,1,.07,1-.1Z"/><path class="d" d="M47.65,73.76a1.41,1.41,0,0,1,.47-.34.29.29,0,0,0,.2-.15,2,2,0,0,1,.47-.41,6.28,6.28,0,0,0,.8-.69c.22-.23.44-.4.49-.37s.08,0,.08-.11a.83.83,0,0,1,.33-.42,6.39,6.39,0,0,0,.69-.67,5.16,5.16,0,0,1,.5-.51,4.4,4.4,0,0,0,.48-.52c.54-.65.14-.5-.54.21-1.05,1.09-1.25,1.28-1.33,1.29a4.5,4.5,0,0,0-.66.51c-.69.58-.91.65-.74.22.06-.15.16-.28.23-.28a1.72,1.72,0,0,0,.51-.45,1.69,1.69,0,0,1,.52-.45.12.12,0,0,0,.13-.11c0-.06.09-.14.21-.18s.18-.1.15-.14.44-.59.57-.59a5.07,5.07,0,0,0,1-1.14c0-.23-.19-.14-.55.25a2.13,2.13,0,0,1-.48.44s-.18.13-.3.28-.27.28-.32.28a1.84,1.84,0,0,0-.5.45,2.48,2.48,0,0,1-.46.45A2.64,2.64,0,0,0,49,71c-.47.42-.75.42-.85,0,0-.15-.13-.27-.21-.27s-.2.23-.06.4a.43.43,0,0,1,0,.36c-.07.21-.12.24-.29.14a.88.88,0,0,1-.29-.3c-.07-.14-.12-.06-.21.35-.14.64-.33.55-.37-.2,0-.43-.19-2-.24-2.28-.09-.51.18-.67.48-.28a.55.55,0,0,0,.3.22.15.15,0,0,1,.13.16,1,1,0,0,0,.69.74c.22,0,.8-.56,2.37-2.24.65-.7.79-.91.72-1.06s-.13-.15-.43.18a13.52,13.52,0,0,1-1.35,1.33l-.6.53c-.64.6-1,.84-1,.64a5.2,5.2,0,0,1,.89-1,6.74,6.74,0,0,0,.74-.79,4.81,4.81,0,0,1,.78-.79c.05,0,.09-.08.09-.17a.15.15,0,0,1,.13-.17c.19,0,.43-.54.3-.68s-.2,0-.41.25-.46.51-.64.68l-.68.65a8.93,8.93,0,0,1-1.51,1.23c-.25,0-.05-.31.46-.73a10.39,10.39,0,0,0,.88-.86,4.33,4.33,0,0,1,.53-.54,5.1,5.1,0,0,0,1.1-1.42c.11-.49,0-.42-.68.31-.35.39-.85.92-1.12,1.16l-.6.56c-.94.93-1.61,1.18-.76.28a4.88,4.88,0,0,1,.58-.56,3,3,0,0,0,.72-.89.12.12,0,0,1,.13-.12c.07,0,.27-.18.45-.39a1.33,1.33,0,0,1,.42-.39c.06,0,.1-.07.1-.16a.26.26,0,0,1,.15-.22.33.33,0,0,0,.15-.29c0-.33-.38-.3-.52.05-.06.15-.14.28-.18.28a1.59,1.59,0,0,0-.38.31,16.9,16.9,0,0,1-2.76,2.39c-.23,0,0-.34.42-.68a8.7,8.7,0,0,0,1.52-1.67c0-.06.08-.14.19-.17a5.62,5.62,0,0,0,1.31-1.41c0-.2-.24-.12-.45.15a14.12,14.12,0,0,1-1.65,1.53,9.35,9.35,0,0,0-.85.73,1.35,1.35,0,0,1-.38.28s-.08.07-.08.15-.14.19-.32.23c-.52.12-1,.53-1,.88,0,.17,0,.31.08.31s.14.23.21.5a1.8,1.8,0,0,0,.27.63.48.48,0,0,1,.14.3,4.51,4.51,0,0,0,.3.89,2.34,2.34,0,0,1,.24.83c0,.06,0,.11,0,.11s.15.24.21.53.18.81.27,1.15.18.74.21.9.19.44.33.45a2,2,0,0,0,.4-.33Z"/><path class="d" d="M18.87,68.88c0-.23.17-.27.26-.24a8.67,8.67,0,0,0,1.76.23c.49,0,1,.09,1.18.13s.27,0,.27-.06.06-.09.22,0a3.93,3.93,0,0,0,1.13.18l1.31.07a1.43,1.43,0,0,1,.52.1.11.11,0,0,0,.17-.06c0-.11.07-.11.12,0,.13.31.45-.44.65-1.51.11-.61.24-1.28.29-1.5a9.15,9.15,0,0,0,.14-1.09c.06-.82.21-.74-1.65-.93L23.7,64l-1.2-.11-1.41-.12c-.61-.06-.63,0-1,1.08a28.5,28.5,0,0,1-1.26,3.6l-.14.32Z"/><path class="d" d="M49.12,70.5a.84.84,0,0,1,.29-.23,1,1,0,0,0,.31-.28.87.87,0,0,1,.33-.28c.05,0,.07,0,0-.09s.08-.18.24-.29.29-.27.29-.36,0-.16.1-.16a2.89,2.89,0,0,0,.94-1.1c.11-.4-.12-.31-.69.28a8.19,8.19,0,0,1-.75.7c-.13.09-.44.36-.7.6-1.13,1.06-1.26,1.23-1,1.35s.34.08.55-.15Z"/><path class="d" d="M17.84,69.94a4.13,4.13,0,0,0,.3-.73c.07-.25.24-.7.37-1a3.89,3.89,0,0,0,.24-.66,2.23,2.23,0,0,1,.13-.46c.07-.19.22-.63.31-1a5,5,0,0,1,.25-.73,38.8,38.8,0,0,0,1.13-6c0-.29-.32-.53-1-.71a1.25,1.25,0,0,1-.5-.35.83.83,0,0,0-.35-.28.54.54,0,0,1-.28-.18,1.15,1.15,0,0,0-.49-.27l-.33-.08-.07,1.87c-.1,2.88-.17,10.59-.1,10.9s.08.22.12.11a2.55,2.55,0,0,1,.21-.45Z"/><path class="d" d="M57.41,69.54c0-.11.08-.13.13-.06s.47.09,1.51,0c.79-.07,1.85-.15,2.34-.17a9.66,9.66,0,0,0,1.38-.15,1.36,1.36,0,0,1,.57-.06.1.1,0,0,0,.15-.05c0-.06.08-1.45.09-3.08,0-2.35,0-3-.09-2.92s-.5-.47-.59-.94l-.07-.36-1.17.05a23.11,23.11,0,0,0-3.54.29,2.66,2.66,0,0,1-.75.09,3.75,3.75,0,0,0-.77.06c-.22,0-.66.1-1,.12a2.49,2.49,0,0,0-.67.11c-.12.08,0,.78.19.83a.09.09,0,0,1,0,.13.88.88,0,0,0,.13.47,5.72,5.72,0,0,1,.31.82c.07.25.18.6.25.79l.24.65a11.54,11.54,0,0,1,.36,1.54c0,.09.11.41.2.72s.18.65.21.77c.08.47.4.69.51.36Z"/><path class="d" d="M40.15,68c0-.09,0-.17,0-.17s-.07.08-.1.17,0,.17,0,.17S40.15,68.06,40.15,68Zm-1.1.67s0,0-.1,0a.11.11,0,0,0-.1.12c0,.07,0,.09.1,0S39,68.67,39,68.64Zm.46.65s-.06,0-.05.15,0,.16.06.07a.25.25,0,0,0,0-.22Zm-1,.41c-.07-.76-.17-.84-.17-.14,0,.51.05.71.18.71A1.86,1.86,0,0,0,38.51,69.7Zm0,.89a.3.3,0,0,0-.16-.18c-.07,0-.1,0-.06.13S38.58,70.79,38.52,70.59Zm.57-.12c0-1.3-.08-1.92-.18-1.09a5,5,0,0,0,0,.9c0,.22,0,.64,0,.94C39,72.22,39.08,71.64,39.1,70.47Zm1.14.08c0-1.56,0-2-.13-1.88a12.92,12.92,0,0,0,.1,4S40.24,71.69,40.23,70.55ZM39.55,70c-.13-.14-.15.7,0,1.29.06.32.08.26.1-.4a2.29,2.29,0,0,0-.08-.89Z"/><path class="d" d="M56,68a3.33,3.33,0,0,0-.24-1.2c0-.12-.11-.31-.14-.42-.09-.32-.25-.23-.32.19a1.49,1.49,0,0,0,.29,1.21c.22.32.32.37.4.22Zm-.24,1a1.42,1.42,0,0,0-.35-.53A1.47,1.47,0,0,1,55,68a.47.47,0,0,0-.15-.27c-.24-.22-.19-1.05.11-1.74a4.13,4.13,0,0,0,.27-.81,3.79,3.79,0,0,0-.68-1.56c-.08,0-.12-.11-.09-.16a1.11,1.11,0,0,0-.26-.67,6.4,6.4,0,0,1-.37-.69,6.55,6.55,0,0,0-.61-1,1.88,1.88,0,0,1-.3-.45s-.07-.11-.16-.15c-.32-.14-1.74,1.75-1.74,2.33a.33.33,0,0,1-.1.24A3.46,3.46,0,0,0,51,64.94c.1.19.22.34.27.34a2.23,2.23,0,0,0,.15-.87,3.46,3.46,0,0,1,.18-1,.3.3,0,0,0,.07-.26c-.06-.11.28-.47.45-.47s.09.09.06.2A7.69,7.69,0,0,0,51.85,65a1.63,1.63,0,0,0,.09.76c.05,0,.13.11.16.25.09.33.52.78.6.63a.78.78,0,0,0,0-.41c-.19-.87.2-3.38.56-3.64s.29.13,0,1a4.71,4.71,0,0,0-.15,2.51c.2.82.31.68.45-.57.06-.58.5-1.68.67-1.68s.07.53-.17,1.46c-.31,1.22-.26,2,.17,2.51a1.89,1.89,0,0,1,.29.49c0,.14.16.25.24.25s.15,0,.15.09.51.47.68.47a.13.13,0,0,0,.13-.14Z"/><path class="d" d="M13.76,62.19a6,6,0,0,1-.06.67,12.44,12.44,0,0,0,0,2.44c.1.35.22.23.3-.32s.22-.89.36-.89.12.29.16.65a4.21,4.21,0,0,0,.13.76,1.51,1.51,0,0,1,.08.43c0,.24,0,.29-.1.2s-.16,0-.26.16-.16.25-.27.15-.36,0-.29.43l.06.32h1.5c1.24,0,1.51,0,1.56-.17h0A5.76,5.76,0,0,0,17,66c0-.47.05-1.33.09-1.91.1-1.49.11-1.48-1.51-1.53s-1.64-.05-1.64-.2Z"/><path class="d" d="M45.3,66.23c.27-.28.77-.83,1.12-1.24.61-.7.85-1,1.81-2a5,5,0,0,0,.53-.68c.12-.24,0-.64-.15-.64a2.75,2.75,0,0,0-1,1,.13.13,0,0,1-.11.13,6.34,6.34,0,0,0-1,1c-.93,1-1.37,1.49-1.48,1.49a3.73,3.73,0,0,0-.65.87c-.12.23,0,.68.23.66a2,2,0,0,0,.66-.52Zm2.41,8.93a1,1,0,0,1,.3-.28,1.63,1.63,0,0,0,.39-.31,5.59,5.59,0,0,1,.61-.5,4.5,4.5,0,0,0,1-.82,5.41,5.41,0,0,1,.72-.62,2.49,2.49,0,0,0,.62-.65c.12-.2.25-.34.3-.31s.38-.27.75-.67a4.24,4.24,0,0,1,.76-.73c.15,0,.12-.24-.06-.47s-.47-.25-.67.13c-.1.19-.21.34-.25.34a3.19,3.19,0,0,0-.57.54c-.27.3-.88.91-1.34,1.35l-1.05,1a3.42,3.42,0,0,1-.6.43,3.63,3.63,0,0,0-.68.52,1.19,1.19,0,0,1-.36.29s-.15.09-.24.2-.15.25,0,.5a.93.93,0,0,0,.16.3,1.42,1.42,0,0,0,.27-.28ZM29.95,97.46c.05.07.21.11.49.1,1.35-.06,3.57-2.07,4.68-2.81A184,184,0,0,0,56.51,78.12c.42-.38.87-1,.5-1.45.33.38-14.44,11.87-15.81,12.87q-4.19,3-8.54,5.83C32.18,95.68,29.66,97.07,29.95,97.46Zm5.31,5.42a.42.42,0,0,1,.25-.14.12.12,0,0,0,.13-.11c0-.06.09-.11.21-.11s.19-.05.15-.17,0-.16,0-.16c.23,0,.42-.05.72-.35a2,2,0,0,1,.54-.41,1.22,1.22,0,0,0,.38-.24c.1-.09.18-.13.18-.09s.15,0,.34-.21a1.43,1.43,0,0,1,.44-.29c.06,0,.16-.1.24-.22a1.36,1.36,0,0,1,.5-.39,1.92,1.92,0,0,0,.49-.32,4.71,4.71,0,0,1,.78-.51,6.3,6.3,0,0,0,1.53-1,2.77,2.77,0,0,1,.52-.41,1.18,1.18,0,0,0,.38-.33.3.3,0,0,1,.23-.15c.08,0,.12-.05.08-.12s0-.11.07-.09.78-.36.78-.49.06-.08.13-.08a.65.65,0,0,0,.33-.2c.11-.11.41-.39.68-.62A4.21,4.21,0,0,0,46,95a.51.51,0,0,1,.43-.23c.16,0,.3,0,.32-.08a4.23,4.23,0,0,1,1.16-.81,1,1,0,0,0,.43-.36c.06-.12.13-.19.16-.16s.18,0,.33-.16a1.05,1.05,0,0,1,.39-.22.11.11,0,0,0,.11-.11c0-.06.23-.25.51-.42A5.11,5.11,0,0,0,51,91.66a1,1,0,0,1,.49-.24,1.11,1.11,0,0,0,.59-.39c.17-.2.36-.35.41-.34a.74.74,0,0,0,.38-.2,1.35,1.35,0,0,1,.35-.23,1.64,1.64,0,0,0,.38-.33,1.57,1.57,0,0,1,.57-.4c.27-.07.8-.55.8-.73s.09-.11.2-.11.2,0,.2-.1.21-.22.48-.36a3.47,3.47,0,0,0,.65-.44,2.46,2.46,0,0,1,.45-.34,1.69,1.69,0,0,0,.32-.22s.3-.26.6-.5.57-.46.6-.5a2.69,2.69,0,0,1,.43-.29,4.45,4.45,0,0,0,.83-.71c.24-.27.44-.45.44-.4s.1,0,.23-.14a2.59,2.59,0,0,1,.45-.36.53.53,0,0,0,.08-.79c-.21-.2-.52,0-1,.48A14.66,14.66,0,0,1,57,86.29a2.78,2.78,0,0,0-.5.35c-.08.09-.57.45-1.08.82a13.17,13.17,0,0,0-1.14.89.81.81,0,0,1-.3.23,7.45,7.45,0,0,0-1,.7,31.07,31.07,0,0,1-2.52,1.9c-.42.29-.89.64-1.05.79a17.42,17.42,0,0,1-2.05,1.44.14.14,0,0,0-.12.09,3.29,3.29,0,0,1-.58.47,8.22,8.22,0,0,0-.85.68,4.88,4.88,0,0,1-.74.56c-.24.15-.7.46-1,.7a6.14,6.14,0,0,1-.83.54c-.14.06-.25.16-.25.22a.1.1,0,0,1-.09.12,3.63,3.63,0,0,0-.68.43c-.32.24-.79.55-1,.7a3.94,3.94,0,0,0-.5.33s-.32.26-.65.5-.62.47-.65.5-.39.3-.8.59l-1.47,1a3.53,3.53,0,0,1-.88.51c-.09,0-.16,0-.16.11s-.16.19-.35.29a1.72,1.72,0,0,0-.46.34.38.38,0,0,1-.25.16,1.77,1.77,0,0,0-.75.66c0,.14.78.08.92-.07Z"/><path class="d" d="M45,64.8l1.19-1.26c.45-.46.3-.6-.19-.18a1.32,1.32,0,0,1-.45.29c-.23,0-.11-.2.31-.51a5.86,5.86,0,0,0,.78-.72c.19-.22.59-.65.88-1,.53-.56.72-1,.32-.75a.93.93,0,0,0-.3.34c-.06.12-.15.22-.2.22a1.46,1.46,0,0,0-.45.35,3.6,3.6,0,0,1-.95.73,1.47,1.47,0,0,0-.33.29c-.29.33-.5.26-.23-.07a1,1,0,0,1,.3-.28.87.87,0,0,0,.28-.22.71.71,0,0,1,.35-.22.15.15,0,0,0,.13-.16c0-.17,0-.21.74-.94a1.64,1.64,0,0,0,.44-.59c0-.06-.12,0-.23.1a8.91,8.91,0,0,1-2.14,1.65,1.9,1.9,0,0,1,.4-.57,11.64,11.64,0,0,1,1.11-1.17c.46-.45.65-.84.48-1s-.24.11-.42.31a4,4,0,0,1-1.17,1,.1.1,0,0,0-.11.09c0,.12-.56.48-.63.4s.05-.2.19-.36c.3-.35.48-.69.37-.69s-.39.22-.28.22-.07.13-.27.28a1.59,1.59,0,0,1-.47.28.1.1,0,0,0-.11.1c0,.05-.09.13-.2.16-.31.09-.24-.06.32-.65.42-.44.49-.56.34-.59a1,1,0,0,0-.55.23c-.57.42-.82.55-.82.43a.6.6,0,0,1,.16-.28c.09-.1.13-.22.1-.27a2,2,0,0,0-1.2.11.86.86,0,0,1-.46.1,1.83,1.83,0,0,0-.66.14l-.29.14.23.45c.12.25.29.61.38.81s.2.37.26.37.11.08.11.17a.28.28,0,0,0,.15.24.25.25,0,0,1,.15.19,1.27,1.27,0,0,0,.28.46,1,1,0,0,1,.25.42.06.06,0,0,0,.07.09s.14.15.19.34.18.34.28.34.16,0,0,.11-.13.13,0,.23a.39.39,0,0,1,.17.27c0,.22.33.84.45.84A6.1,6.1,0,0,0,45,64.8Z"/><path class="d" d="M49.24,62.75a6.45,6.45,0,0,0-1.39,1.62c0,.06.31-.24.7-.67a3.73,3.73,0,0,0,.7-.95Z"/><path class="d" d="M50.58,62.76a2.76,2.76,0,0,1,.51-1.16c.06,0,0-.2,0-.38-.16-.39,0-.62.27-.42s.24.07.55-.29a1.55,1.55,0,0,0,.36-.58A3,3,0,0,0,51,58.59a15.82,15.82,0,0,0-2.9.49c0,.06,0,.24.13.39a1.07,1.07,0,0,1,.19.48c0,.12.07.21.15.21s.15.1.15.23a.33.33,0,0,0,.15.29c.08,0,.15.1.15.15a6.12,6.12,0,0,0,.55,1.29c.13.25.31.61.39.81.22.53.43.46.6-.18Z"/><path class="d" d="M21.7,56.57c.06-.11.49-.12,1.89-.05,4.13.19,4,.21,3.93-.48,0-.35,0-.36-.57-.37l-1.5-.06c-.52,0-1.67-.06-2.55-.07l-1.6,0v1Zm5.38,6.94c.13-.55.09-.6-.51-.63l-.88-.06-1.45-.1-1.6-.13c-1.77-.2-2-.2-2,0a1.65,1.65,0,0,0,0,.46c0,.26.17.29,1.19.3.12,0,.23,0,.23.08s.25.08.57.08a1.58,1.58,0,0,1,.65.1,11.6,11.6,0,0,0,1.92.12c1.83,0,1.84,0,1.9-.22Zm-13-1.42c.07-.07.15-.1.17,0a5,5,0,0,0,1.36.17l1.32.07L17,62c.1-.46.1-.46-1.51-.51a7.65,7.65,0,0,1-1.27-.11c-.33-.1-.63.16-.51.45a.75.75,0,0,1,0,.15Zm2.83,6.18c.1-.45-.09-.62-.81-.75a1.51,1.51,0,0,0-.72,0,.14.14,0,0,1-.17,0,3.73,3.73,0,0,0-1.38-.06.8.8,0,0,0-.06.84,1.94,1.94,0,0,0,.87.16,7.5,7.5,0,0,1,.77,0,6.64,6.64,0,0,0,.73,0c.67,0,.71,0,.77-.27Zm1.79.57-.1.25a3.05,3.05,0,0,0-.13.46c0,.25,0,.4.1.45a8.87,8.87,0,0,0,1,.11c.49,0,1.13.11,1.42.16s.54.06.57,0,.07-.09.13,0,.42.27.53.07.1-.13.1-.06.65.27,1.74.31a2.88,2.88,0,0,1,.83.1c.1.11.33.09.33,0h0c0-.06.07-.08.16,0s.44-.24.44-.6,0-.26-.62-.27c-.34,0-.89,0-1.23-.06l-1.05-.09a2.62,2.62,0,0,1-.6-.1A13.56,13.56,0,0,0,20,69.19,4.64,4.64,0,0,1,18.92,69a.18.18,0,0,1,0-.13Z"/><path class="d" d="M21.29,56.61c0,.68-.12,2.2-.25,3.23-.24,2-.23,2.3.09,2.2a1.83,1.83,0,0,1,.65,0,34.27,34.27,0,0,0,3.48.26,1.81,1.81,0,0,1,.63.09.85.85,0,0,0,.46,0c.26,0,.39,0,.39.07s.15.16.32-.07.3-1,.42-3.53l.08-1.65-.24-.06a2.19,2.19,0,0,0-.49-.05c-.14,0-.54,0-.9-.05S24.51,57,23.54,57s-1.92,0-1.87-.32Z"/><path class="d" d="M38.67,61.42c0-.54,0-1.05-.06-1.15a3.23,3.23,0,0,0-.46-1,1.15,1.15,0,0,1-.3-.23c-.19-.18-.28-.45-.42-1.32-.2-1.17-.35-1.71-.5-1.71s-.08-.09-.06-.2,0-.18-.09-.17-.15-.09-.19-.22a1.68,1.68,0,0,0-.32-.53,4.18,4.18,0,0,1-.4-.53c-.2-.34-.45-.32-.85.06a6.36,6.36,0,0,1-.73.58,2,2,0,0,0-.48.41,1.92,1.92,0,0,1-.21.29,4.74,4.74,0,0,0-.76,1.77c-.11.61-.33,1-.55,1s-.91,1.18-1,2.19c-.08.83,0,1.29.2,1.29s.32-.3.38-1A2.64,2.64,0,0,1,32.81,59a.78.78,0,0,0,.39-.43l.16-.8a4.15,4.15,0,0,1,.57-1.52l.32-.42c.55-.75,1.47-1.1,1.66-.62.05.14.13.25.18.25a1.5,1.5,0,0,1,.3.53,3.94,3.94,0,0,0,.28.59,7,7,0,0,1,.24,2,.68.68,0,0,0,.21.64c.14.18.29.29.32.26s.48.53.64.94a4.35,4.35,0,0,1,.12,1.07,2,2,0,0,0,.16,1c.26.34.36,0,.33-1Zm-.21,2.05a.88.88,0,0,0,0-.37,11.89,11.89,0,0,0-1.76-.29c-.59-.08-2.18-.18-3.83-.24-1.35,0-1.61,0-1.74.12s-.13.2.12.45a1.08,1.08,0,0,0,.44.28c.37,0,1.57.08,3.21.14a17.07,17.07,0,0,1,3.19.25c.11.12.25,0,.33-.35Z"/><path class="d" d="M55.9,61.69c.35-.07,3.19-.32,3.53-.3.12,0,.23-.05.23-.13s0-.08.11,0,.13.12.15.06a2,2,0,0,1,.92-.1,2.93,2.93,0,0,0,1-.09.33.33,0,0,1,.3,0c.31.11.38.07.4-.22l0-.28-1.12.07c-.62,0-1.39.1-1.72.14l-1.1.1c-.27,0-1,.11-1.5.21s-1.39.2-1.88.24c-.74.06-.88.1-.88.27s.08.19.63.16a8.24,8.24,0,0,0,.93-.1Zm5,9.31c1.34,0,2.47-.07,2.53-.11a1.32,1.32,0,0,0,.1-.63V69.7l-.93.06-2.93.13-2.24.1c-.3,0-.42.25-.35.62s.23.57.23.33,0-.14.11,0,.12.13.16,0,.1-.1.27,0a.48.48,0,0,0,.42.1c.11,0,1.29-.09,2.63-.11Zm2.61,1.52a2.06,2.06,0,0,1,0-.62c.17-.31-.15-.35-3.13-.34H57.4V72A1.49,1.49,0,0,0,57.74,73a2,2,0,0,0,1.17,0,.14.14,0,0,1,.17.09c0,.1.07.1.11,0s.54-.2.54-.06a8,8,0,0,0,1.63.07,12.43,12.43,0,0,1,1.83.07c.27.11.36-.07.33-.68Zm-.13,8.92a.24.24,0,0,1,.12-.25c.13-.08.15-.16.06-.37s-.16-.27-1.2-.3c-.6,0-1.37-.07-1.71-.12-.56-.07-.63-.06-.63.12,0,.35.59,1,.9,1,.15,0,.3-.06.33-.14s.07-.11.14,0,.31.13.7.12a2.16,2.16,0,0,1,.67,0,.75.75,0,0,0,.36.06c.21,0,.29,0,.25-.15Z"/><path class="d" d="M17,61a25.18,25.18,0,0,0,0-3.17,1,1,0,0,0-.33-.09,1.22,1.22,0,0,1-.58-.34,4.85,4.85,0,0,0-.94-.66,4.85,4.85,0,0,1-.91-.63c-.28-.29-.52-.35-.54-.13s0,.77,0,1.54c0,1.46.12,1.86.32,1,.12-.48.34-.78.45-.59a3.56,3.56,0,0,1,.1.77,4.92,4.92,0,0,0,.15,1c.12.37.07.52-.2.52a.18.18,0,0,0-.19.17.16.16,0,0,1-.15.17c-.1,0-.15-.11-.15-.31s0-.3-.15-.09-.19.82,0,.88a16,16,0,0,0,3.08,0Z"/><path class="d" d="M63.62,39.74c0-16.79,0-21.36-.1-21.43s-2.24-.07-4.82,0l-5,0-1.3,0c-1.49,0-1.47,0-1.41.18a5.13,5.13,0,0,1,.1.59,3.77,3.77,0,0,0,.25.87,2.31,2.31,0,0,1,.17,1.23,1.73,1.73,0,0,1-.15.8.2.2,0,0,0-.11.17.66.66,0,0,1-.24.34l-.24.2.24.4a1.34,1.34,0,0,1-.52,2c-.41.19-.42.19-.77-.08s-.54-.28-1.09.21c-.39.34-.48.61-.23.72a.25.25,0,0,1,.15.2,2.62,2.62,0,0,0,.46.69,5.69,5.69,0,0,1,.6.87c.08.17.21.31.29.31a.16.16,0,0,1,.15.17c0,.09,0,.17.09.17s.11.11.13.25c.05.42.47.27,1-.36s.58-.79.39-.79-.41-.85-.41-1.23a1.33,1.33,0,0,1,.59-1.19c.55-.41,1.21-.49,1.49-.17.12.13.21.2.21.16s.06,0,.13.11.58.16.58,0,.11-.1.25-.1.25-.06.25-.12.07-.1.15-.06a.16.16,0,0,0,.21,0c.09-.17.91-.13,1.31.06a1.81,1.81,0,0,0,.5.17.62.62,0,0,1,.33.2,12.54,12.54,0,0,0,1.31,1.18c.47.35.51.72.11,1.13a1.22,1.22,0,0,1-.4.3,8.76,8.76,0,0,0-.93.29l-.88.29a1.36,1.36,0,0,0-.32.21,1.06,1.06,0,0,1-.36.21,3.25,3.25,0,0,0-.61.28,3.59,3.59,0,0,1-.59.28,2.11,2.11,0,0,0-.48.39,2.24,2.24,0,0,1-.62.46c-.12,0-.23.11-.23.17s-.07.1-.15.1-.15,0-.15.08a1.42,1.42,0,0,1-.5.34c-.28.14-.5.32-.5.4s.41.59.53.55.07,0,.07.13a2,2,0,0,0,.36.65c.58.79.68.93.92,1.3a1.55,1.55,0,0,1,.23.47.12.12,0,0,0,.13.12c.07,0,.19.19.26.41a2.48,2.48,0,0,0,.38.7,4.23,4.23,0,0,1,.41.6c.09.17.2.31.24.31s.08.07.08.15a.68.68,0,0,0,.2.35.69.69,0,0,1,.2.33,2.28,2.28,0,0,0,.34.61,2.77,2.77,0,0,1,.41.81c0,.18.11.33.16.33s.09.08.09.17a.28.28,0,0,0,.16.24.18.18,0,0,1,.11.21.6.6,0,0,0,.13.41,2.3,2.3,0,0,1,.24.46c0,.11.11.17.17.13s.1.07.1.27,0,.34.08.34.16.2.25.44a6.77,6.77,0,0,0,.42.85,1.81,1.81,0,0,1,.25.55.45.45,0,0,0,.09.25,4,4,0,0,1,.51,1.08.66.66,0,0,0,.13.31,4.79,4.79,0,0,1,.37.85,4.06,4.06,0,0,0,.41.89,1.4,1.4,0,0,1,.24.52.58.58,0,0,0,.2.37.38.38,0,0,1,.14.33c0,.55-.43.67-1.82.52l-1.35-.17a.54.54,0,0,0-.58.23c-.62.7-.67,1.07-.19,1.57a.85.85,0,0,1,.24.38c0,.07,0,.13.09.13a2.27,2.27,0,0,1,.53.52c.24.28.51.6.61.7a.67.67,0,0,1,.17.25,6.47,6.47,0,0,0,.63.82,7.21,7.21,0,0,1,.77,1.06,9.3,9.3,0,0,0,.5.87,10.07,10.07,0,0,1,.89,1.71,1.36,1.36,0,0,0,.28.48c.08,0,.32.55.32.73a2.32,2.32,0,0,0,.4.89,2.5,2.5,0,0,1,.25.7,4.23,4.23,0,0,0,.25.76,2.87,2.87,0,0,1,.2.62c.11.47.26.71.4.62s.07-9.64.08-21.38Z"/><path class="d" d="M55.4,60.83l.9-.15c.93-.15,1.21-.23,1.27-.33s.07-.08.07,0,.15.14.41.14.38,0,.35-.1.07-.09.22-.09a12.69,12.69,0,0,0,2.53-.38c.11-.06.19-.07.19,0s.16.07.35,0,.32-.09.29-.14,0-.07.1,0,.21-.43,0-.89a3.55,3.55,0,0,1-.38-1.05,1.09,1.09,0,0,0-.21-.49c-.08-.07-.12-.18-.09-.23s0-.1-.05-.1-.11-.08-.11-.17,0-.17-.11-.17-.08,0-.05-.1,0-.16-.09-.24a.47.47,0,0,1-.15-.27.89.89,0,0,0-.24-.38c-.2-.21-.31-.24-.67-.19-.89.12-3.79.36-4.94.4A5.62,5.62,0,0,0,54,56a7.9,7.9,0,0,1-1.1.15l-1.5.12c-.8.06-1.15.13-1.24.23s.46.61.64.61a.13.13,0,0,1,.14.11,4.13,4.13,0,0,0,.63.82c.34.39.8.94,1,1.24s.43.49.5.41a4.77,4.77,0,0,0,.13-1.26,5.18,5.18,0,0,1,.12-1.24c.12-.14.74.57.68.77s0,.15.09.15.2.11.26.25a2.77,2.77,0,0,0,.3.48c.25.31.36.84.18.84a.61.61,0,0,1-.33-.25l-.19-.25-.11.38c-.14.48-.31.55-.39.17s-.22-.32-.43,0-.12.26,0,.41a.59.59,0,0,1,.15.29.61.61,0,0,0,.16.29c.18.21.69.22,1.69.05Z"/><path class="d" d="M39.35,59.8c0-.1,0-.1.09,0s.3.11,1.42-.09l1.74-.34c.22-.05.87-.15,1.45-.23s1.34-.18,1.7-.24l2-.37L49,58.31A9.51,9.51,0,0,0,50.23,58c.24-.1.25-.12.09-.26a.46.46,0,0,1-.17-.26c0-.07-.08-.15-.18-.19a23,23,0,0,0-3.22.45l-1.05.17a8.45,8.45,0,0,0-1,.19,5.87,5.87,0,0,1-1.3.26c-.44.07-1,.17-1.15.22a25.82,25.82,0,0,1-3,.58c-.33,0-.43.2-.27.53s.4.32.41.09Z"/><path class="d" d="M46,59.78a1.41,1.41,0,0,1,.07-.24c0-.13,0-.18-.07-.14s-.23.43-.09.43S46,59.81,46,59.78Z"/><path class="d" d="M31,58.93a.59.59,0,0,0-.35-.23.37.37,0,0,1-.24-.08.3.3,0,0,0-.14-.09c-.23,0-.62-.2-.62-.27s-.18-.15-.4-.23-.4-.19-.4-.24-.58-.1-.64.09.6.89,1,.76c.17-.06.2,0,.15.11s0,.18.16.18a.53.53,0,0,1,.35.13c.07.07.12.1.12.07s.21,0,.47.14.5.18.62,0,.12-.19,0-.38Z"/><path class="d" d="M39.6,58.76a1,1,0,0,0,.4-.17,1.16,1.16,0,0,1,.58-.11,8.73,8.73,0,0,0,1.65-.33,19.92,19.92,0,0,1,3.45-.62.5.5,0,0,0,.36-.16c0-.09.1-.1.14,0s.71,0,1.16-.18A4.42,4.42,0,0,1,48.2,57a2.67,2.67,0,0,0,.7-.15c.19-.15.13-.34-.16-.49s-.3-.18-.3-.21a3.15,3.15,0,0,0-1-.78c-.07,0-.19.1-.26.23a.31.31,0,0,1-.6-.08.62.62,0,0,1,.14-.43c.09-.1.15-.2.13-.21l-.42-.39a1.22,1.22,0,0,0-1.53-.18,5,5,0,0,1-.74.28l-1.1.33c-.41.13-.89.27-1.05.3a1.15,1.15,0,0,0-.4.15,8.31,8.31,0,0,1-1.2.39,11.09,11.09,0,0,0-2.41.86c-.07.06-.09.26,0,.57a1.73,1.73,0,0,1,0,.56,1.65,1.65,0,0,0,.33,1.05c.18.15.58.15,1.28,0Z"/><path class="d" d="M31.71,58.31c0-.09.11-.17.18-.17.26,0,.77-1.55.64-1.93a1,1,0,0,0-.49-.32,1.87,1.87,0,0,1-.62-.36.37.37,0,0,0-.36-.14.29.29,0,0,1-.31-.11.41.41,0,0,0-.26-.17,1.23,1.23,0,0,1-.41-.16,11.07,11.07,0,0,0-1.78-.85c-.2,0-.24.25-.23,1.65V57l.26.07a.59.59,0,0,0,.29,0s.08.05.13.16.14.17.19.13.09,0,.09.05.14.12.3.12.3,0,.3.09.24.15.53.22a1.47,1.47,0,0,1,.63.29c.21.31.82.4.91.13Z"/><path class="d" d="M38.95,55.74a1,1,0,0,1,.47-.1.15.15,0,0,0,.18-.07.37.37,0,0,1,.29-.12.49.49,0,0,0,.29-.07.71.71,0,0,1,.33-.11.5.5,0,0,0,.33-.15.18.18,0,0,1,.22-.05.18.18,0,0,0,.22-.05.47.47,0,0,1,.36-.12c.16,0,.29-.05.29-.11s.14-.11.3-.11.3-.05.3-.12,0-.09.09-.06a.69.69,0,0,0,.43-.1A8.45,8.45,0,0,1,44.15,54a4.11,4.11,0,0,0,.83-.28c.17-.16,0-.53-.43-.72s-.4-.19-1.17.11a7.59,7.59,0,0,0-.88.39,6.49,6.49,0,0,1-1,.34c-.47.14-.94.29-1.05.34l-.65.22a4.25,4.25,0,0,0-.6.22,2.56,2.56,0,0,1-.5.17,3.74,3.74,0,0,0-1.3.7.84.84,0,0,0,.16.27c.18.23.68.2,1.34-.07Z"/><path class="d" d="M50.49,55.83a4.47,4.47,0,0,0,.88-.12,3,3,0,0,1,.71-.1c.89-.06.88-.06.85-.38a.71.71,0,0,0-.39-.51c-.2-.13-.36-.26-.35-.3a2.53,2.53,0,0,0-.58-.53,3.52,3.52,0,0,1-.68-.63.3.3,0,0,0-.21-.17,2.31,2.31,0,0,1-.62-.5,4.78,4.78,0,0,0-.82-.68,3.34,3.34,0,0,1-.67-.54,4.05,4.05,0,0,0-.7-.58c-.2-.12-.36-.26-.36-.31s-.06-.09-.13-.09a19.48,19.48,0,0,1-2.5-1.95c-.16-.18-.21-.18-.32-.06a6.24,6.24,0,0,0-.5,2.4c0,.83,0,.92.2,1.21s.29.31.35.31.1.08.1.18.06.16.15.12.15,0,.15,0,.07.11.15.11a.16.16,0,0,1,.15.17.17.17,0,0,0,.16.17,1.34,1.34,0,0,1,.53.33,4,4,0,0,0,.64.47c.15.08.27.18.27.23s.07.09.15.09a.16.16,0,0,1,.15.17.19.19,0,0,0,.2.17c.11,0,.2,0,.2.11s.11.14.25.18a.46.46,0,0,1,.3.26,1,1,0,0,0,.4.4c.19.12.35.25.35.3s.4.2.6.14a8.22,8.22,0,0,1,.94-.1Z"/><path class="d" d="M35.45,55.76v-.25c0-.14,0-.13-.18,0s-.14.23-.07.28S35.45,55.88,35.45,55.76Zm.38.67c0-.22-.09-.24-.63-.25s-.6,0-.6.16.3.29.88.31C35.81,56.67,35.85,56.65,35.83,56.43Zm0,1c0-.26-.22-.35-.9-.38s-.75,0-.78.15,0,.16.24.14a1.06,1.06,0,0,1,.48.06C35.15,57.48,35.85,57.5,35.84,57.39Zm.1,1.55c0,.06.09.1.19.1s.3-.29.26-.84l0-.34H35.15c-.8,0-1.25,0-1.27.12s.09.13.24.14.58.06,1,.11a2,2,0,0,0,.8,0,.19.19,0,0,1,.25.29c-.13.15-1,.32-1,.19a2.41,2.41,0,0,0-1.16,0c-.08.09.62.24.73.16a.63.63,0,0,1,.38,0,1.12,1.12,0,0,0,.57,0c.16,0,.27,0,.27,0Zm.75.78c.1-.18-.26-.36-.77-.4A21.11,21.11,0,0,0,33,59.23a.36.36,0,0,0-.15.31v.25l1.75,0a7.16,7.16,0,0,1,1.7.06c0,.05,0,.07.15,0A.5.5,0,0,0,36.7,59.72Zm.67.87c0-.11,0-.19.1-.19s.1,0,0-.08a18.75,18.75,0,0,0-2.35-.12c-1.23,0-2.31-.06-2.4-.09s-.33.23-.23.42.19.08.35,0,.29,0,.29,0,.29.07.65,0,.65,0,.65.06a4.82,4.82,0,0,0,1.48.09C37.26,60.78,37.39,60.76,37.37,60.58Zm.28.81c0-.17-.08-.21-.43-.22a4.32,4.32,0,0,1-.58,0c-.08,0-1-.05-2.14-.08-1.64,0-2,0-2,.11s0,.14.21.09.27,0,.31.11.09.15.19.06.16-.1.19-.06a5.58,5.58,0,0,0,1.84,0c.08-.15.24-.1.24.08s.1.17.3.17.3-.05.3-.12,0-.1.08-.07.83.18.83.06.08-.06.23,0S37.65,61.68,37.65,61.39Zm-3.21.77c.1,0,.11,0,.06-.1s0-.06.14.06.22.18.23.06,0-.1.05,0,.54.06.54-.12-.21-.16-.61-.19a7,7,0,0,0-2.29.15c0,.05.07.07.15,0s.15,0,.15.06.16.11.4.08.42,0,.45.05.17.05.32,0A.8.8,0,0,1,34.43,62.16Zm2.91.14a.58.58,0,0,0,.22.11c.1,0,.1-.33,0-.34-2-.13-2-.12-2,0s.16.17.67.18a2.84,2.84,0,0,1,.72.07s.1,0,.16-.05a.2.2,0,0,1,.26,0Z"/><path class="d" d="M33.23,55.38c.1-.25.09-.32-.06-.45a.65.65,0,0,0-.29-.16.41.41,0,0,1-.24-.17c-.07-.09-.16-.14-.21-.11a.1.1,0,0,1-.14,0,.79.79,0,0,0-.4-.17.53.53,0,0,1-.4-.27c0-.13-.18-.2-.45-.22s-1.26-.49-1.14-.62,0-.08-.14-.08a.34.34,0,0,1-.27-.11.32.32,0,0,0-.26-.11,1.5,1.5,0,0,1-.58-.24.8.8,0,0,0-.54-.17c-.27.11-.21.63.1.91s.73.53.73.39.08,0,.18.05a1.2,1.2,0,0,0,.45.25c.15,0,.28.12.28.18s0,.09.07.08a4.11,4.11,0,0,1,1.17.49.43.43,0,0,0,.26.09.42.42,0,0,1,.29.16.9.9,0,0,0,.44.24,1.63,1.63,0,0,1,.52.23c.3.23.51.19.64-.14Z"/><path class="d" d="M57.7,55.12c2.12-.17,2.25-.2,2.25-.44a.85.85,0,0,0-.19-.43c-.11-.13-.17-.26-.15-.28s-.11-.21-.31-.41a1.43,1.43,0,0,1-.35-.47,15.15,15.15,0,0,0-1.31-1.59c-1.1-1.24-1.33-1.45-1.44-1.32a9.18,9.18,0,0,0-1,2.35c-.1.4-.22.83-.26,1a11,11,0,0,0-.4,1.67c0,.21.3.27,1,.17.3,0,1.27-.13,2.15-.2Z"/><path class="d" d="M23.89,55.12a1.22,1.22,0,0,1,.68-.05c.34,0,1.14.07,1.77.08l1.15,0,.05-.51a24.2,24.2,0,0,0-.24-3.56,5.17,5.17,0,0,0-1-.11l-2.38-.13a10.08,10.08,0,0,0-3.26.06c-.08.09-.05.33.11.89a9.8,9.8,0,0,0,.31,1,6.67,6.67,0,0,1,.25,1.6c0,.12,0,.33,0,.45s.09.23,1.12.24a5.76,5.76,0,0,1,1.17.08.16.16,0,0,0,.27,0Z"/><path class="d" d="M54.49,53.23c.2-.69.38-1.32.4-1.4a7.21,7.21,0,0,1,.45-1.21c.1-.17.69-1.32,1-2,.1-.21.15-.42.11-.47a30.75,30.75,0,0,0-5-.27c-1.4,0-2.8-.09-3.1-.12s-1.15-.08-1.88-.1c-1.2,0-1.33,0-1.33.16a.5.5,0,0,0,.25.34c.14.08.25.19.25.24a.1.1,0,0,0,.1.09,2.74,2.74,0,0,1,.63.45,3,3,0,0,0,.62.45,2.28,2.28,0,0,1,.54.44c.25.24.47.42.49.39s.1,0,.17.15a2.18,2.18,0,0,0,.61.48,3.4,3.4,0,0,1,.74.58,1,1,0,0,0,.37.31,1.91,1.91,0,0,1,.51.45,2.71,2.71,0,0,0,.47.45,4.32,4.32,0,0,1,.81.68.41.41,0,0,0,.19.11,1,1,0,0,1,.3.25c.44.48.62.63.68.56s.06,0,.06.13,0,.17.09.13a.3.3,0,0,1,.41.21c0,.08.1.19.23.26s.27.14.82-1.73Z"/><path class="d" d="M37.8,54.82a.92.92,0,0,0,.4-.16.35.35,0,0,1,.22-.1,1.4,1.4,0,0,0,.4-.13l.35-.14a.3.3,0,0,0,.14-.09.4.4,0,0,1,.26-.08c.1,0,.18,0,.18-.1s.17-.14.38-.19l.42-.1c.15,0,.88-.31,1.05-.39l.55-.23c1.06-.42,1.1-.49,1.15-1.55,0-.35.06-.86.1-1.14s.08-.61.1-.73a.68.68,0,0,1,0-.22.45.45,0,0,0,.05-.18c.06-.37.65-2.33.91-3a1.66,1.66,0,0,0,.18-.81,5.45,5.45,0,0,0-1.23-.27c-.63-.09-1.46-.24-1.85-.33s-1-.19-1.34-.23c-.59-.07-.63-.06-.57.13a5.25,5.25,0,0,1-.18,2.88A4.21,4.21,0,0,1,38.11,49l-.74.35a1.59,1.59,0,0,1-.51.16c-.14,0-.21.15-.31.65s-.23,1-.36,1.44a10.33,10.33,0,0,0-.3,1.37c-.06.54,0,.59.27.95l.51.6c.33.42.43.49.63.44l.5-.12Z"/><path class="d" d="M34.35,54.39c.87-.69,1-1,1.29-2.48.12-.68.28-1.45.36-1.72.2-.68.18-.9-.08-1-.51-.16-1.38-.88-1.38-1.15a1,1,0,0,0-.24-.36c-.13-.14-.22-.33-.19-.41A.42.42,0,0,0,34,47a3.72,3.72,0,0,1,.11-2.21,2.21,2.21,0,0,1,.31-.76s.09-.13.09-.28-.06-.28-.18-.29l-.73-.08a11.17,11.17,0,0,0-1.24-.08h-.69l-.27.51c-.15.28-.4.76-.55,1.07a9.79,9.79,0,0,1-.49.9c-.12.19-.44.79-.7,1.35s-.59,1.21-.72,1.46-.31.63-.39.84-.29.69-.45,1a1.78,1.78,0,0,0-.23.93,1.28,1.28,0,0,0,.9.83c.16,0,.24.06.24.18s.06.16.14.12.16,0,.18,0,.14.12.28.14a1.13,1.13,0,0,1,.35.1,3.48,3.48,0,0,0,.48.2c.21.07.38.19.38.25s.06.09.13.06.22,0,.33.16a5.67,5.67,0,0,0,1.25.61,7.41,7.41,0,0,1,1.14.51c.1.11.41,0,.66-.16Z"/><path class="d" d="M23.79,42.69l-.22-.21-.33-.37-.3.6a3,3,0,0,0-.3.81,10.86,10.86,0,0,1-.83,2.27,1.24,1.24,0,0,0-.17.37,9.65,9.65,0,0,1-1.86,2.52c-.63.69-1.14,1.28-1.14,1.32s.17.07.38.07c.4,0,.41,0,1.29-1.08a15.35,15.35,0,0,0,1.53-2,3.86,3.86,0,0,1,.51-.7,5.64,5.64,0,0,0,.79-1.82l.21-.93c.09-.39.17-.53.3-.53h.13Z"/><path class="d" d="M24.71,33.75a.18.18,0,0,1,0-.13.73.73,0,0,1,.35-.3c.16-.07.29-.18.29-.23a.1.1,0,0,1,.11-.1c.06,0,.07.06,0,.14s0,.06.12,0a1.36,1.36,0,0,1,.69-.22l.5,0,0,.56a8.13,8.13,0,0,1-.16,1.08c-.13.55,0,.89.23.89.06,0,.14.08.17.17s.1.17.15.17a.91.91,0,0,1,.33.23,2.07,2.07,0,0,1,.16,2l-.21.53.23.2a.82.82,0,0,0,.41.2c.19,0,.28.07.85.69s.82,1,.69,1.09a9.2,9.2,0,0,1-2.27.81c-.24,0-.35.09-.56.45a1.35,1.35,0,0,1-.35.45,1,1,0,0,0-.34.27,2.37,2.37,0,0,1-1.85.38,2.11,2.11,0,0,1-.41-.24V43a9.66,9.66,0,0,1-.36,1.63l-.23.62A5.83,5.83,0,0,1,22.4,47c-.4.5-.41.53-.2.44s.15-.11.15-.16a.1.1,0,0,1,.1-.1,2,2,0,0,0,.52-.46,3.4,3.4,0,0,1,.63-.56l.35-.2a2.13,2.13,0,0,1,1.48-.38,10.86,10.86,0,0,1,2.74.54c.18.12.07.34-.34.7l-.93.8a5.48,5.48,0,0,1-2.15,1.13c-.19,0-.64,0-1,0-2.2-.05-2.13-.06-2.26.15s-.18.16-.23.12-.11,0-.11,0a.12.12,0,0,1-.12.12c-.17,0-1,.83-.92.92a.2.2,0,0,0,.21,0c.08,0,.14,0,.14,0s.17.1.38.11l.68,0a5.88,5.88,0,0,0,.65,0c1.16,0,4.5.06,4.5.13s.87.09,1-.06.53-1.09,1.06-2.25,1-2.25,1.16-2.43a1.61,1.61,0,0,0,.21-.41,5.57,5.57,0,0,1,.37-.77,12,12,0,0,0,1.38-3.17,6.16,6.16,0,0,1,.21-.87,1.69,1.69,0,0,0,.12-.47l-.43-.18a2.82,2.82,0,0,1-.61-.32,2.52,2.52,0,0,1-.64-1.09,1.44,1.44,0,0,0-.3-.5,1.49,1.49,0,0,1,.3-2.08c.26-.21.7-.29.7-.13s.08.14.18.18a1.15,1.15,0,0,1,.36.34c.25.35.39.19.55-.63.11-.58.15-1.57.05-1.28a.21.21,0,0,1-.17.14c-.06,0-.17.1-.24.22a1.84,1.84,0,0,1-1.33.63,2.79,2.79,0,0,1-1.1-.42,1.12,1.12,0,0,0-.24-.36,1.88,1.88,0,0,1,0-2.22c.25-.29.36-.34.89-.36s.61,0,.61.12,0,.14,0,.14l.21.07c.14.06.16,0,.13-.46l0-.53-.55,0c-.51,0-.59-.06-1-.54A2.23,2.23,0,0,1,29,30a3.18,3.18,0,0,0-.15-.57c-.12-.32-.11-.42.09-.86s.29-.53.55-.6a2.23,2.23,0,0,1,1.24,0c.19.07.22,0,.28-.44,0-.29.06-.71.06-.95a6.1,6.1,0,0,1,.65-2.28c.14-.23.22-.41.19-.41a2.1,2.1,0,0,1,.33-.55l.57-.84c.22-.34.36-.38.36-.1s.07.11.3-.17c.35-.43.38-.6.08-.56-.12,0-.23,0-.25-.09s.74-1.06,1-1.06a.43.43,0,0,0,.22-.14,1.61,1.61,0,0,1,.92-.42.52.52,0,0,0,.34-.13c.24-.27,3.66-.12,4.45.2a2.24,2.24,0,0,0,.63.16c.13,0,.24.06.24.14s0,.08.1,0,.1-.12.1,0a.16.16,0,0,0,.18.14,1.27,1.27,0,0,1,.5.22,1.29,1.29,0,0,0,.48.22.13.13,0,0,1,.15.11.12.12,0,0,0,.13.11,1.67,1.67,0,0,1,.5.22,1.6,1.6,0,0,0,.52.22c.08,0,.15,0,.15.1A3.4,3.4,0,0,0,45,22.3c.39-.65.39-.65.09-1-.15-.17-.33-.39-.39-.48a2.41,2.41,0,0,1,.12-1.48,2.08,2.08,0,0,1,1.38-.56l.31.09a1.36,1.36,0,0,1,.41.32,1.44,1.44,0,0,0,.36.31s.09-.17.13-.39a1.17,1.17,0,0,1,.33-.62l.26-.23-3.54.06c-1.95,0-4.13.05-4.84,0-1.66,0-1.1,0-5.6,0-2.14,0-4.55,0-5.35,0s-2.82-.07-4.5-.1C20.7,18.17,15,18,14.75,18h-.52c-.33,0-.37.06-.44.38s-.1,28.68-.05,29.88c0,.11.06.18.13.17s.12,0,.13.14.06.17.12.17a.29.29,0,0,1,.19.08.46.46,0,0,0,.29.08.48.48,0,0,1,.31.11,1.14,1.14,0,0,0,.5.16,6,6,0,0,1,.9.24,5.69,5.69,0,0,0,.9.23,4.48,4.48,0,0,1,.55.11c.31.1.62-.33.68-.94l0-.58-.64-.76c-1.06-1.26-1.22-1.53-1.37-2.33s.18-2.75.5-2.74c.17,0,.48.27.48.41a4.45,4.45,0,0,0,1,1,4.74,4.74,0,0,1,.89,1.45,5,5,0,0,1-.08,2.48c-.3.85-.27,1,.15.61A9.41,9.41,0,0,0,21,46.53l.32-.64a1.81,1.81,0,0,1,.19-.32,8.18,8.18,0,0,0,.64-2,.41.41,0,0,0-.32-.12,2.06,2.06,0,0,1-1.33-.57,1.47,1.47,0,0,0-.42-.33s-.08-.06-.06-.14-.09-.13-.32-.11a5.72,5.72,0,0,1-2-.11c-.39-.13-.45-.19-.48-.49s.05-.43.48-.87a3.67,3.67,0,0,1,.58-.53,1,1,0,0,0,.29-.21.5.5,0,0,0,.16-.56c0-.19-.1-.32-.14-.29-.23.16-.65-1-.61-1.68a1.58,1.58,0,0,1,1-1.26c.39-.19.43-.51.09-.86a1.36,1.36,0,0,1-.29-.47c0-.12-.15-.5-.27-.84-.27-.8-.22-.92.32-.86l.43.07.2.06a.56.56,0,0,1,.3.19.33.33,0,0,0,.2.15,2,2,0,0,1,.48.21l.38.21.33-.39a1.46,1.46,0,0,1,.94-.54,1.88,1.88,0,0,1,1.7.3,2.17,2.17,0,0,1,.61.51Z"/><path class="d" d="M15.38,49.86c0-.08,0-.18,0-.23a1.45,1.45,0,0,0-.59-.24,1.57,1.57,0,0,1-.65-.28c-.05-.09-.1-.09-.19,0s-.06.19.17.39a.75.75,0,0,0,.47.22c.1,0,.18,0,.18.12s.12.15.33.15S15.39,49.95,15.38,49.86Zm1.83,4.8c.19-.17.29-.2.39-.1s.14.07.14-.17-.5-1-.68-1a2,2,0,0,1-.41-.37,1.6,1.6,0,0,0-.43-.36,1.29,1.29,0,0,1-.39-.34,1,1,0,0,0-.44-.34c-.08,0-.14,0-.14-.1s-.09-.08-.2,0-.2,0-.2-.07-.08-.13-.18-.13a.75.75,0,0,1-.42-.28.78.78,0,0,0-.37-.28c-.07,0-.13.12-.13.28s0,.28.08.28a3,3,0,0,1,.42,1,7.82,7.82,0,0,0,1.61,1.63c.1,0,.19.05.19.11s.07.11.15.11a.14.14,0,0,1,.15.12c0,.11.33.31.53.33a.9.9,0,0,0,.34-.22Zm2.08.45c0-.06,0-.11-.14-.11s-.21.05-.21.11a.13.13,0,0,0,.14.11A.26.26,0,0,0,19.29,55.11Zm.32.21a.27.27,0,0,0-.23,0c-.1,0-.1.09,0,.2s.15.11.23,0S19.69,55.37,19.62,55.32Zm.49.3c0-.12,0-.18.27-.23s.36-.11.36-.84a7.48,7.48,0,0,0-.71-3,1.15,1.15,0,0,0-.86-.71c-.32-.11-.73-.26-.92-.35a4.27,4.27,0,0,0-1.64-.32c-.58,0-.73,0-.94.16a1.19,1.19,0,0,1-1.46-.06c-.25-.19-.38-.24-.43-.15a.12.12,0,0,0,0,.17.23.23,0,0,1,.12.21c0,.09,0,.14.09.1s.21.06.35.21a2,2,0,0,0,1.22.63.88.88,0,0,1,.48.17.68.68,0,0,0,.34.16,2.64,2.64,0,0,1,.72.67c.39.46.62.65.73.61s.16,0,.16.06a.12.12,0,0,1-.12.12c-.06,0-.09,0-.06.07s.16,0,.28,0,.19-.1.08-.18-.1-.1,0-.1a.27.27,0,0,1,.2.14,3.3,3.3,0,0,0,1.45.76.35.35,0,0,1,.32.17.28.28,0,0,0,.24.18c.14,0,.12,0-.05.11a.45.45,0,0,1-.42,0,.83.83,0,0,0-.35-.11c-.14,0-.15,0,0,.17s.09.18-.1.26-.19.12-.09.22a1.64,1.64,0,0,0,.48.24c.19.06.27.12.18.12-.27,0-.22.57.05.57.05,0,.07-.07,0-.16Zm.53.22c0-.2-.05-.28-.2-.28s-.18.05-.13.2.21.36.3.36a.8.8,0,0,0,0-.28ZM19.59,56c0-.06-.08-.11-.11-.11s0,.05,0,.11a.11.11,0,0,0,.11.11C19.61,56.12,19.63,56.07,19.59,56Zm-4.42.2.22.06L15.2,56a2.46,2.46,0,0,0-.48-.44.45.45,0,0,1-.25-.4c0-.34.22-.33.59,0,.19.19.4.31.48.28s.16,0,.18.15.23.26.62.38c.65.2,1.14.2,1.07,0s.25-.49.43-.49.1,0,.07.09,0,.1.14.11.26-.13.09-.25a.41.41,0,0,1-.1-.29c0-.12,0-.2-.09-.16a.11.11,0,0,1-.16-.05c-.12-.21-.32.09-.27.4s-.12.37-.48.06a.88.88,0,0,0-.42-.22.29.29,0,0,1-.23-.11.29.29,0,0,0-.23-.11,1.74,1.74,0,0,1-.61-.33c-.24-.18-.48-.31-.53-.27s-.09,0-.09-.07a3.66,3.66,0,0,0-.6-.81l-.6-.68v.57c0,.47,0,.59.2.64.41.15.5.93.09.81-.23-.07-.36.13-.14.22a.25.25,0,0,1,.16.18c0,.2.5.64.65.57s.15,0,.16.26,0,.26.05.19.15-.1.27-.07Zm5.42.36c0-.06-.08-.11-.11-.11s0,.05,0,.11a.11.11,0,0,0,.11.11C20.61,56.68,20.63,56.63,20.59,56.57Zm-4.69-.19s-.06,0-.05.15,0,.16.06.07a.25.25,0,0,0,0-.22Zm.84.65c0-.13-.06-.2-.15-.19s-.31.18-.12.18.17.05.17.11,0,.11,0,.11S16.74,57.15,16.74,57Zm3.1.93c-.17-.16-.34-.26-.37-.22s0,.07.05.07.12.07.12.16.14.27.38.28C20.1,58.25,20,58.12,19.85,58Z"/><path class="d" d="M37.31,48.29s0-.21.13-.35.2-.25.41-.12.25.11.36-.05a.48.48,0,0,0,.07-.35.42.42,0,0,1,.38-.49c.15,0,.18-.06.14-.32A.56.56,0,0,1,39,46c.2-.2.23-.28.14-.41a.59.59,0,0,0-.33-.19c-.24,0-.28-.27-.15-.8s-.13-.53-.4-.26-.63.27-.48.11-.29-.36-.63-.3a.61.61,0,0,1-.6-.16c-.26-.24-.6-.16-.6.14,0,.09-.11.15-.25.15-.31,0-.35,0-.37.36A.43.43,0,0,1,35,45c-.22.1-.23.12-.09.24a.54.54,0,0,1,.1.82.57.57,0,0,0-.21.38c0,.25.11.28.28.08s.12,0,.12.39,0,.52.17.51c.32,0,.53,0,.53.12A1.87,1.87,0,0,0,36,48c.09.28.1.28.38.1s.3-.18.52.06.46.34.36.16Z"/><path class="c" d="M36.57,47.32c-.12-.07-.23-.16-.23-.21S36.28,47,36.2,47a.16.16,0,0,1-.15-.16.22.22,0,0,0-.09-.2s-.1-.14-.11-.26a1.5,1.5,0,0,1,.27-1.18c.25-.33.31-.35.73-.31A1.14,1.14,0,0,1,37.95,46a1.3,1.3,0,0,1-.52,1.22c-.36.25-.52.26-.85.07Z"/><path class="d" d="M37.33,46.45a.64.64,0,0,0,.06-.51,1.75,1.75,0,0,1-.09-.3.69.69,0,0,0-.23-.25c-.42-.33-1,.18-.83.8a.88.88,0,0,1,0,.45s0,0,.06,0,.13,0,.13,0,.15.11.37.09a.54.54,0,0,0,.52-.33Z"/><path class="c" d="M36.76,46.1c0-.37.38-.41.38,0,0,.22-.05.29-.21.29S36.74,46.29,36.76,46.1Z"/><path class="d" d="M25.33,48a3.3,3.3,0,0,0,1.24-.82c.68-.63.79-.84.47-.89-1.49-.24-2.44-.25-2.56,0a.29.29,0,0,1-.23.1,2.21,2.21,0,0,0-1,.78c0,.11.77,0,.94-.08A.71.71,0,0,1,24.5,47l.88-.1c.47-.06.68,0,.68,0s-.37.26-1.3.46c-1.73.38-2.1.5-2.1.71s.09.09.19.06a.41.41,0,0,1,.32,0A5.12,5.12,0,0,0,25.33,48Z"/><path class="d" d="M19,47.17a4,4,0,0,0,0-1.52,5.18,5.18,0,0,0-1-1.65,1.51,1.51,0,0,1-.42-.42c-.3-.38-.34-.4-.41-.2a6.17,6.17,0,0,0,0,2.16.67.67,0,0,1,.17.31,4.56,4.56,0,0,0,1,1.29c.17,0,.06-.52-.23-1.08a2.8,2.8,0,0,1-.3-.88c0-.3.14-.38.23-.14a5.69,5.69,0,0,0,.38.65,1.77,1.77,0,0,1,.41,1.21c0,.31.16.52.19.28Z"/><path class="d" d="M51.67,46.91a10.91,10.91,0,0,0-.22-3.25l-.24-1.8a1,1,0,0,0-.09-.29,3,3,0,0,1-.12-.66,3,3,0,0,0-.13-.66,1.21,1.21,0,0,1-.08-.41,5.39,5.39,0,0,0-.3-1.37.91.91,0,0,1-.07-.48s0-.07-.06-.07-.12-.11-.12-.25a1,1,0,0,0-.15-.47,1,1,0,0,1-.15-.47,2.38,2.38,0,0,0-.22-.74,3,3,0,0,1-.23-.59,4,4,0,0,0-.23-.67c-.53-1.28-.61-1.48-.73-1.8s-.13-.36-.13-.39a4.21,4.21,0,0,0-.23-.46,2,2,0,0,1-.22-.52.24.24,0,0,0-.15-.18.33.33,0,0,1-.15-.29,2,2,0,0,0-.45-.76,2.54,2.54,0,0,1-.45-.67.49.49,0,0,0-.19-.28.9.9,0,0,1-.26-.4c0-.14-.11-.25-.16-.25s-.09-.1-.09-.22-.07-.22-.16-.22-.14-.07-.09-.22,0-.22-.09-.22-.23-.14-.32-.31a10.52,10.52,0,0,0-.93-1.16c-.42-.47-1-1.09-1.19-1.38s-.47-.5-.53-.46-.1,0-.1-.15-.12-.27-.33-.37a1.77,1.77,0,0,1-.56-.46c-.13-.17-.3-.31-.38-.31s-.12,0-.09-.1-.07-.16-.22-.25a2.82,2.82,0,0,1-.44-.31c-.16-.15-.38-.11-.38.07a2.36,2.36,0,0,0,.5.5c.28.23.48.47.44.53s0,.11.16.11a.27.27,0,0,1,.27.22.28.28,0,0,0,.25.22c.11,0,.17.05.13.11s0,.11,0,.11a1.24,1.24,0,0,1,.33.42,2.41,2.41,0,0,0,.38.51.29.29,0,0,1,.13.19,1,1,0,0,0,.23.37,4.42,4.42,0,0,1,.77,1.16,1,1,0,0,0,.25.38.9.9,0,0,1,.25.41c0,.08,0,.15.09.15s.12.09.15.2a1.93,1.93,0,0,0,.52.89.24.24,0,0,1,.14.2.94.94,0,0,0,.2.4.94.94,0,0,1,.2.41c0,.08,0,.15.08.15s.25.41.37.87c0,.14.11.25.15.25A5.08,5.08,0,0,1,46.94,33a8.09,8.09,0,0,0,.39,1,2.1,2.1,0,0,1,.21.57,3.18,3.18,0,0,0,.25.7A2.91,2.91,0,0,1,48,36a2.33,2.33,0,0,0,.15.59,4.84,4.84,0,0,1,.21,1,2.32,2.32,0,0,0,.15.71c.05.07.07.16,0,.2s0,.14,0,.22a1,1,0,0,1,.1.49,1.26,1.26,0,0,0,.07.5,1.38,1.38,0,0,1,.11.44c0,.27.14,1.16.19,1.41s.16,2.6.15,4c0,1.85-.15,1.68,1.39,1.66.9,0,.94,0,1-.29Z"/><path class="d" d="M45.59,47a1.13,1.13,0,0,1,.53,0,3.81,3.81,0,0,0,1.8-.06c.07-.06.13-.06.13,0s.15.11.33.12.34,0,.36-.17,0-1.18,0-2.39a20.59,20.59,0,0,0-.27-4.1c0-.2-.37-.24-.37,0a1.29,1.29,0,0,1-.3.46,1.35,1.35,0,0,0-.3.45.85.85,0,0,1-.19.34A19.61,19.61,0,0,0,46,44.13c-.1.23-.21.42-.26.42s-.08.08-.08.17a4.41,4.41,0,0,1-.29.88c-.5,1.2-.51,1.57-.05,1.5a.67.67,0,0,0,.3-.1Z"/><path class="d" d="M45.53,43.91A7,7,0,0,0,46,42.73c.05-.29,0-.31-.33-.32l-.59,0-.7-.1-1.25-.18c-2.23-.34-3.2-.47-3.65-.52s-1.32-.17-1.45-.21l-.8-.11-.8-.11c-.1,0-.88-.18-1.5-.28a7.41,7.41,0,0,1-2.05-.46c-.14-.25-.35.1-.49.8-.23,1.14-.22,1.18.27,1.33a5.72,5.72,0,0,0,1,.18,2.42,2.42,0,0,1,.78.17.47.47,0,0,0,.35.07.61.61,0,0,1,.42.1,1.65,1.65,0,0,0,.7.16c.23,0,.45.05.48.11a.11.11,0,0,0,.17,0,.38.38,0,0,1,.32,0,13.39,13.39,0,0,0,2.48.43,3.15,3.15,0,0,1,.7.14,2.55,2.55,0,0,0,.76.09c.29,0,.52,0,.53.07s.1.08.22.08a7.56,7.56,0,0,1,1,.17,20.18,20.18,0,0,0,2.3.38c.21,0,.32-.12.68-.85Z"/><path class="d" d="M47,41.21a1.15,1.15,0,0,0,.11-.45c0-.08,0-.11.12-.08s.16,0,.21-.24a.89.89,0,0,0-.42-.87.35.35,0,0,1-.12-.25.16.16,0,0,0-.15-.16.15.15,0,0,1-.15-.15,1.38,1.38,0,0,0-.34-.52c-.19-.21-.32-.44-.29-.53s0-.15,0-.15-.16-.24-.23-.53a4.22,4.22,0,0,0-.19-.65,9.39,9.39,0,0,1-.36-1.74,10.26,10.26,0,0,1,.15-2.95c.15-.71.16-.87,0-1.2a2.08,2.08,0,0,0-.27-.53,1,1,0,0,1-.18-.29c-.08-.28-.55.22-.73.78-.09.3-.21.64-.25.76a8,8,0,0,0-.22,2,14.37,14.37,0,0,0,.44,3.72,2.7,2.7,0,0,1,.14.56,4.44,4.44,0,0,0,.59,1.48,2.82,2.82,0,0,1,.26.7c0,.09,0,.16.1.16a.12.12,0,0,1,.1.13,1.77,1.77,0,0,0,.38.56c.55.63.73.87.73,1S46.91,41.53,47,41.21Z"/><path class="d" d="M44.93,41.27c.13-.15.16-.54,0-.54s-.29.16-.41.42-.09.25.07.25A.46.46,0,0,0,44.93,41.27Z"/><path class="d" d="M44.35,40.82c.41-.49.45-.6.3-.7s-.91.87-.91,1.06.23.1.61-.36Z"/><path class="d" d="M41.56,41.07a1.72,1.72,0,0,0,.48-.51,6,6,0,0,1,.58-.75,5.17,5.17,0,0,0,1.12-1.91c-.09-.1-1.21,1.06-1.21,1.26a1,1,0,0,1-.25.37,1.11,1.11,0,0,0-.25.34,1.94,1.94,0,0,1-.34.46c-.3.34-.56.86-.42.86a1.29,1.29,0,0,0,.28-.12Z"/><path class="d" d="M43.35,41a2.73,2.73,0,0,0,.38-.56c.13-.23.27-.42.31-.42s.15-.13.24-.28.15-.28,0-.28a.19.19,0,0,0-.2.17.16.16,0,0,1-.15.17c-.08,0-.23.14-.32.3a4.22,4.22,0,0,1-.41.56c-.32.36-.16.65.18.34Z"/><path class="d" d="M41.12,40.43c.3-.36.67-.82.82-1s.55-.76.91-1.21c.61-.77.81-1.15.6-1.15,0,0-.15.1-.22.22s-.17.22-.23.22-.25.25-.43.55a4.51,4.51,0,0,1-.62.84,1.55,1.55,0,0,0-.3.33,5.08,5.08,0,0,1-.5.62c-.53.61-.89,1.25-.7,1.25a3,3,0,0,0,.67-.65Z"/><path class="d" d="M42.41,40.93a3.09,3.09,0,0,1,.43-.47,5.39,5.39,0,0,0,1.24-1.77c0-.06-.25.11-.48.37a9.14,9.14,0,0,0-1.37,2,.27.27,0,0,0,.18-.14Z"/><path class="d" d="M39.77,40.76c0-.06.17-.25.41-.42a2.38,2.38,0,0,0,.6-.6,11.07,11.07,0,0,1,.82-1.08,4.72,4.72,0,0,0,.65-.9c0-.07-.24-.13-.56-.13-.67,0-1-.3-1.17-1-.06-.26-.17-.48-.24-.48a.12.12,0,0,0-.13.1,2.35,2.35,0,0,1-.73.49,5.26,5.26,0,0,1-1.73.7c-.63.11-.75.17-.75.39a5,5,0,0,1-.74,2.05c-.33.46-.37.64-.14.64,0,0,.06-.06,0-.14s0-.11.07,0a6.42,6.42,0,0,0,2.36.45,6.45,6.45,0,0,1,1,.11c.08.08.26,0,.24-.15Z"/><path class="d" d="M48.23,39.53a.91.91,0,0,0,.06-.42l-.07-.53a1,1,0,0,0-.11-.38.53.53,0,0,1-.07-.28c0-.11,0-.21-.11-.21s-.08-.05,0-.12a.27.27,0,0,0,0-.25,5.18,5.18,0,0,1-.27-.92,10.38,10.38,0,0,0-.66-2,1,1,0,0,1-.1-.35.5.5,0,0,0-.16-.3.51.51,0,0,1-.13-.38,1,1,0,0,0-.12-.49c-.16-.27-.4-.34-.4-.11a.72.72,0,0,1-.22.36c-.2.19-.21.22-.05.26a.22.22,0,0,1,.18.19.27.27,0,0,0,.16.22c.14.06.13.12-.06.48s-.19.55.14.62.31.41,0,.54-.32.61,0,.63.55.25.23.61a.56.56,0,0,0-.14.56c.06.29.09.31.3.2.38-.19.58,0,.52.39s0,1,.16.88.56-.23.63-.1a1.83,1.83,0,0,1,0,.61C47.94,39.74,48.07,39.88,48.23,39.53Z"/><path class="d" d="M23.52,39.19c.21,0,.53-.58.46-.88s-.19-.28-.45-.37-.44-.11-.65,0-.39.44-.25,1c.09.35.17.44.39.47s.29,0,.31-.11a.16.16,0,0,1,.19-.11Z"/><path class="d" d="M37.8,36.38c.08-.18.14-.2.28-.12s.18.09.43-.68c0-.12.08-.13.16,0s.08.2,0,.42-.06.59.1.42a6.09,6.09,0,0,0,.41-1.66c0-.2,0-.2.19.06s.19.28.2,0a.45.45,0,0,1,.1-.32.48.48,0,0,0,.11-.32c0-.19,0-.2.06,0s.22.28.24.11,0-.19.06-.31a3.75,3.75,0,0,0,.06-.53c0-.22.06-.31.2-.31s.17,0,.08.22-.07.24,0,.28.32-.69.32-1.17a1.06,1.06,0,0,1,.15-.56c.13-.17.12-.25-.14-.82a1.84,1.84,0,0,1-.23-.7s0-.11-.08-.16a1,1,0,0,1-.15-.62c0-.43,0-.56.24-.74a.91.91,0,0,1,.46-.22c.4,0,.47-.26.23-.92-.12-.33-.25-.68-.3-.77a19.47,19.47,0,0,1-.42-2.73,1.72,1.72,0,0,0-.1-.56,2,2,0,0,0-.7-.74.43.43,0,0,1-.2-.12,3.44,3.44,0,0,0-1-.63,1.46,1.46,0,0,1-.47-.26.91.91,0,0,0-.36-.21.35.35,0,0,1-.16,0l-.17-.06-.13,0-.37-.07c-.31,0-.4,0-.83.51a2.11,2.11,0,0,1-.63.56c-.08,0-.14,0-.14.09a3.62,3.62,0,0,1-1,.46c-1,.36-1,.37-1.25.9s-.35,1.08-.09,1a2.7,2.7,0,0,1,2.17-.33c.14.08.25.12.25.08s.09,0,.2.17a.85.85,0,0,1,.2.39.5.5,0,0,0,.12.28,26.88,26.88,0,0,1,0,5.72c-.18,1.06-.13,1.23.29,1.05s.83-.15.91,0-.06.29-.21.51-.29.37-.36.24-.19-.15-.48-.11-.44,0-.57-.13-.16-.27-.06-.88a10,10,0,0,0,.17-3.29c-.05,0-.19.13-.3.33a.82.82,0,0,1-.42.4c-.2,0-.22,0-.16-.29l.06-.33-.64-.08c-.53-.06-.69-.13-.92-.41-.43-.51-.5-.43-.42.43,0,.42.11,1.26.16,1.88a13.09,13.09,0,0,0,.19,1.52c.26,1,.33,1.23.42,1.29a.46.46,0,0,1,.1.32c0,.29.21.86.33.86s.07.08.07.17,0,.17.1.17.1.08.1.18a5.19,5.19,0,0,0,1.81,1.86c.36.12.42.11.5-.05s.11-.17.31,0,.21.22.52,0a1.87,1.87,0,0,0,.41-.49Z"/><path class="c" d="M36.81,36.28a1.26,1.26,0,0,0-.57,0c-.54,0-.54,0-.4-.36.07-.21.06-.31,0-.41a.46.46,0,0,1-.14-.28c0-.21-.37-.28-.51-.1s-.29.19-.29-.16.16-.58.42-.58c.1,0,.18,0,.18-.08s.69-.15.9,0,.2.07.22,0,.59-.22.76-.07a1.26,1.26,0,0,0,.5.19c.39.07.49.26.38.75-.07.29-.36.38-.36.1s0-.23-.5.28a2.32,2.32,0,0,1-.52.45s-.08.05-.08.11.09.11.2.11.2.05.2.11-.23.15-.34,0Z"/><path class="d" d="M36.49,35.12c.14-.06.26-.07.26,0s.11.07.25,0,.3-.1.12-.3-.76-.29-.83-.16a.31.31,0,0,1-.25.09c-.22,0-.25.12-.07.31S36.16,35.26,36.49,35.12Z"/><path class="c" d="M37.49,28.83c-.15-.25-.31-.45-.36-.45s-.16-.18-.24-.39c-.4-1.07.07-1.71,1.32-1.81.24,0,.46,0,.49.08s.19.08.35,0,.29,0,.29,0,.11.12.25.12.25.06.25.14a1,1,0,0,0,.35.42c.38.31.43.58.21,1.16s-1.16,1.37-1.16,1a.71.71,0,0,1,.2-.3c.11-.11.18-.23.15-.26a5.36,5.36,0,0,0-1.65,0,.28.28,0,0,0-.05.28c.11.41-.15.34-.41-.11Z"/><path class="d" d="M39.15,28c0-.06.08-.1.17-.08a.18.18,0,0,0,.2-.15c0-.23-.54-.39-.74-.2s-.17.32,0,.32.13.05.09.11,0,.11.09.11.16-.05.16-.12Z"/><path class="d" d="M37.39,27.64c.17-.2.13-.38-.1-.38s-.14.11-.14.28C37.15,27.87,37.18,27.88,37.39,27.64Z"/><path class="c" d="M37,25.55c-.07-.31.14-.65.4-.65a1.63,1.63,0,0,0,.54-.16.83.83,0,0,1,.61-.06c.16.05.31,0,.34,0s.17,0,.3.15a1,1,0,0,0,.32.26.38.38,0,0,1,.32.43c0,.17,0,.19-.06.06-.09-.39-1.79-.37-2.4,0-.31.2-.32.2-.37,0Z"/><path class="d" d="M46.25,32.42a.1.1,0,1,0-.1.11A.11.11,0,0,0,46.25,32.42Z"/><path class="d" d="M35.35,27.95c.31-.28.2-.58-.2-.58a1.83,1.83,0,0,1-.38,0c-.1,0-.16.44-.09.65S35.08,28.2,35.35,27.95Z"/><path class="d" d="M32.89,27.19c.09,0,.14-.11.11-.16s.05-.09.18-.09.56,0,1-.11a1.67,1.67,0,0,1,.87,0,.19.19,0,0,0,.22,0c.05,0,.12,0,.15.07s.05,0,.06-.09-.14-.31-.52-.54a1.1,1.1,0,0,0-1.33-.12c-.57.21-.94.55-.94.85S32.66,27.29,32.89,27.19Z"/><path class="d" d="M33.25,26c.08.05.1,0,.05,0s0-.13.18-.13a.4.4,0,0,0,.31-.11c.1-.18.94-.13,1.26.08s.32.16.4.07,0-.2-.23-.41a2.19,2.19,0,0,0-1.83-.26c-.57.1-.85.33-.85.7s.2.41.42.19.22-.13.29-.08Z"/><path class="d" d="M34.65,21.3c0-.07,0-.09-.1,0s-.13.17,0,.17A.11.11,0,0,0,34.65,21.3Zm.14,1c.3-.08,1-.59,1-.74s-.08-.08-.18-.06-.73.3-.73.42-.08.09-.19.09a.45.45,0,0,0-.31.17.4.4,0,0,1-.22.17c-.14,0-.38.3-.31.38s.2,0,.37-.14A2.6,2.6,0,0,1,34.79,22.27Zm7.37,5.24A2.65,2.65,0,0,0,42,26.2c-.09-.16-.13-.29-.09-.29s0-.06,0-.13a.55.55,0,0,1-.12-.32c0-.24-.61-1.13-.72-1s-.07.22,0,.42.08.61.11.92a5.34,5.34,0,0,0,.31,1.15,3.48,3.48,0,0,1,.24.78c0,.28.34,1,.43.94a4.71,4.71,0,0,0,.08-1.1ZM44,28.86c0-.5-.16-.68-.25-.27s0,.58.15.58S44,29,44,28.86Zm-.1.63c0-.18,0-.2-.14-.08a.32.32,0,0,0-.09.28C43.79,29.9,43.94,29.76,43.94,29.49Zm-.3.79c0-.07,0-.09-.1,0s-.13.17,0,.17A.11.11,0,0,0,43.64,30.28Zm-2,.26a.25.25,0,0,1,.15-.08,2.45,2.45,0,0,0,.86-1,4.7,4.7,0,0,0-.05-1.83c-.07-.08-.1,0-.1.22a2.47,2.47,0,0,1-.4,1.37.87.87,0,0,0-.2.36c0,.11-.29.16-.48.09s-.06-.15,0-.29c0-.37-.15-.61-.38-.47s-.32.51.08,1.11.44.63.57.49ZM31,30.63a.12.12,0,0,1,.13-.11c.2,0,.57-.62.73-1.25a12.1,12.1,0,0,0,.19-2,21.56,21.56,0,0,1,.2-2.37,4.55,4.55,0,0,0,.11-1c-.07-.08-.07-.09-.49.87a10.69,10.69,0,0,0-.67,3.61c0,1-.62,1.77-1.08,1.26-.15-.17-.13-.21.17-.51s.32-.36.22-.61-.41-.35-.89-.21c-.3.09-.48.72-.35,1.16a.67.67,0,0,1,0,.39s0,.07.06.07a.07.07,0,0,1,.06.11c-.06.1.39.43.8.58s.75.11.75,0Zm11.05.56a.2.2,0,0,1,.18-.1c.24,0,.37,0,.37-.14a1,1,0,0,1,.24-.42,3.47,3.47,0,0,0,.51-2.25c0-.95-.11-1.35-.23-1.35s-.05.24,0,.53a8.28,8.28,0,0,1-.14,2,1.6,1.6,0,0,1-.6,1.12,2.9,2.9,0,0,0-.5.45c-.16.2-.16.23,0,.23a.28.28,0,0,0,.22-.12Zm-9.73,1.52a3.8,3.8,0,0,0,.13-1.23c0-.32,0-1,0-1.41,0-.67,0-.81-.13-.7a5.72,5.72,0,0,0-.13,1.87,5.72,5.72,0,0,1-.12,1.87c-.16.18-.16.35,0,.29a1.68,1.68,0,0,0,.3-.7Zm9.36-.1a1.93,1.93,0,0,0,0-.82c-.13-.09-.21,0-.24.38,0,.17-.05.58-.09.92-.07.57-.06.6.09.44A2.15,2.15,0,0,0,41.73,32.61Zm.57.4.08-.93a.25.25,0,0,0-.08-.22A5,5,0,0,0,42,33.64c.1.33.21.06.27-.63Zm-11.05.77a.88.88,0,0,1,.19-.3,3.08,3.08,0,0,0,.44-1.85c0-.84,0-1-.24-.77s-.12.39-.1,1a2.48,2.48,0,0,1-.25,1.49c-.16.36-.23.61-.16.58S31.25,33.82,31.25,33.78Zm-1.26.6c.15-.06.15-.08,0-.21s-.28-.61-.08-.69a.31.31,0,0,1,.3.08c.12.11.19.1.35-.06a.8.8,0,0,0,0-1.07c-.6-.56-1.38.11-1.25,1.06,0,.3.41,1,.53,1ZM42.4,37c.06-.05.14-.06.18,0s.07,0,.07-.05a1.66,1.66,0,0,1,.33-.53l.33-.4V33.69a12.94,12.94,0,0,0-.1-2.35c-.24-.09-.33.19-.39,1.2-.11,1.84-.47,2.75-1,2.67-.22,0-.26-.08-.23-.32.08-.59.06-.72-.1-.76s-.6.32-.61.59c0,.61.29,1.18.62,1.18a.23.23,0,0,1,.22.14c.06.19.53-.08.9-.51s.47-.36.54-.13a1.43,1.43,0,0,1-.32.55c-.35.44-.37.45-1,.45s-.9.14-.44.37c.14.07.25.18.25.23,0,.22.61.22.86,0Zm-10,.73a4.43,4.43,0,0,0,.87-2.85c0-.54-.28-1.7-.39-1.62a2.84,2.84,0,0,0-.09.81,6.41,6.41,0,0,1-.33,2.12.42.42,0,0,0-.09.29c0,.32-.62,1-.91,1s-.69-.12-.69-.23.13-.17.29-.26c.38-.22.37-.63,0-.79s-.31-.07-.47.17a1.13,1.13,0,0,0-.19.51c0,.27.21.83.32.84s.08.09.08.19,0,.16.06.12.18,0,.33,0a1.23,1.23,0,0,0,1.23-.3Zm.25,1.14a3.3,3.3,0,0,0,1.27-2.67c0-.82-.16-1.09-.32-.47a4.34,4.34,0,0,0-.12.66,2.83,2.83,0,0,1-2.07,2.35c-.32.11-.28.29.07.29a.48.48,0,0,1,.35.11c.06.11.1.1.81-.27Zm1.42.32a2.5,2.5,0,0,0,.51-.85,1.15,1.15,0,0,1,.09-.42,3.14,3.14,0,0,0,.14-.76c0-.46,0-.6-.15-.75s-.39-.24-.39,0a8.08,8.08,0,0,1-.6,1.92,1.6,1.6,0,0,0-.2.54c0,.1-.11.21-.25.25-.57.16-.59.72,0,.72C33.46,39.84,33.6,39.73,34,39.21Zm.78.27a2.74,2.74,0,0,0,.69-2.11c-.1-.37-.3-.09-.44.62a1.44,1.44,0,0,1-.21.62s-.11.14-.15.31a2.44,2.44,0,0,1-.32.67c-.37.54-.06.46.43-.11ZM36.2,39a3.57,3.57,0,0,0,.29-.95c.06-.45,0-.52-.14-.58s-.41,0-.41.39a4.93,4.93,0,0,1-.62,1.85c-.32.39-.19.43.24.08A3,3,0,0,0,36.2,39Z"/><path class="d" d="M37.37,20.49c.18-.23.18-.26,0-.29s-.18,0-.2,0-.16.54-.1.54S37.26,20.63,37.37,20.49Zm.92.09c.21-.36.21-.4-.08-.4a.54.54,0,0,0-.45.55c0,.23.38.12.54-.16Zm-1.7,0c.22-.34.18-.42-.16-.32a.41.41,0,0,0-.3.34C36.06,21,36.33,20.94,36.58,20.56Zm2.33.54a1.32,1.32,0,0,0,.34-.73c0-.28-.36-.19-.53.13C38.44,21,38.55,21.38,38.9,21.11Zm.95-.05c.22-.29.24-.49.08-.6s-.62.48-.55.69S39.63,21.34,39.85,21.05Zm.78.19c.15-.37.14-.49,0-.49s-.49.54-.42.74S40.5,21.57,40.63,21.24Zm.51.39c.33-.39.38-.54.16-.54s-.56.52-.56.75S40.81,22,41.14,21.62Zm.75.43c.3-.45.32-.64.06-.64s-.65.62-.57.85.23.2.51-.21Zm.56.56a1.2,1.2,0,0,1,.2-.38c.24-.34.25-.44.06-.51s-.8.9-.72,1.12.09.13.26,0,.2-.18.2-.24Zm.44.87a.27.27,0,0,0,.16-.22,1.09,1.09,0,0,1,.25-.45c.29-.35.32-.58.09-.68s-.91.94-.8,1.27c.06.18.08.19.3.09Zm1,0c.48-.9.27-1.3-.29-.54-.34.46-.46.83-.36,1.11s.08.17.26,0A2.88,2.88,0,0,0,43.94,23.5Zm.3.92a3.73,3.73,0,0,1,.35-.64c.3-.45.34-.83.09-.77a.5.5,0,0,0-.28.26c-.06.12-.21.4-.33.62a1.71,1.71,0,0,0-.22.59C43.84,24.76,44.13,24.72,44.24,24.42Zm.73.22c.4-.64.51-1.1.27-1.1a4.07,4.07,0,0,0-.82,1.2c-.09.22-.05.6.06.6a5,5,0,0,0,.48-.7Zm.48.92c.4-.45.72-1.45.46-1.45s-.71.75-.8,1.1c0,.14-.11.25-.16.25s-.13.37,0,.49.24-.05.53-.38Zm.36.71c.67-.85.89-1.37.65-1.54a5,5,0,0,0-1,1.75c.08.15.13.12.4-.21Zm.42.86.46-.57c.3-.36.58-1,.5-1.13s-.44-.1-.44,0a.53.53,0,0,1-.1.25c-.64.87-.8,1.15-.8,1.38s.15.35.38,0Zm.7.57a3.9,3.9,0,0,0,.85-1.54c-.07-.24-.31-.15-.47.18a.91.91,0,0,1-.3.39.25.25,0,0,0-.15.2.88.88,0,0,1-.21.38.84.84,0,0,0-.22.75c.07.15.15.1.51-.37Zm.76.25c.53-.9.65-1.26.43-1.26s-.18.13-.22.28-.12.28-.19.28-.21.14-.31.31a4.75,4.75,0,0,1-.36.53c-.21.25-.24.59-.06.66S47.19,28.78,47.68,28Zm.54.67c.58-.86.66-1.07.5-1.24s-.17-.06-.34.12a.84.84,0,0,0-.23.37,1.53,1.53,0,0,1-.31.5c-.34.42-.53,1.18-.27,1.07a4,4,0,0,0,.65-.82Zm.35,1a.17.17,0,0,0,.08-.15,1.15,1.15,0,0,1,.29-.41c.29-.3.46-1,.25-1A6.59,6.59,0,0,0,47.84,30c0,.32.23.32.45,0a1.5,1.5,0,0,1,.28-.33Zm.26,1a1.84,1.84,0,0,0,.32-.51.69.69,0,0,1,.18-.3,2,2,0,0,0,.46-1.07c-.06-.1-.1-.06-.9,1-.45.59-.59.9-.55,1.2s.19.07.49-.32Zm.54.45c.24-.35.51-.76.6-.93.19-.33.23-.69.08-.69a.1.1,0,0,0-.1.11,1.56,1.56,0,0,1-.3.48c-.49.61-.6.76-.56.76s-.07.13-.2.3a1.06,1.06,0,0,0-.25.45c0,.33.31.12.72-.48Zm.07,1.37a.85.85,0,0,1,.2-.35,5.23,5.23,0,0,0,1-1.63c.09-.48-.15-.44-.48.09a2.74,2.74,0,0,0-.26.47,1.93,1.93,0,0,1-.29.4c-.38.46-.58.89-.5,1.11s.26.21.36-.09Zm.39.8a14,14,0,0,1,1.09-1.64c.16-.11.24-.55.12-.63s-.5.25-.5.46a.72.72,0,0,1-.25.36.87.87,0,0,0-.25.3,4.93,4.93,0,0,1-.62,1c-.06,0,0,.31,0,.53s.22,0,.4-.34ZM50,34.58a1.16,1.16,0,0,1,.23-.37,2.61,2.61,0,0,0,.3-.45,3.6,3.6,0,0,1,.58-.93c.37-.43.53-1,.32-1.05s-.11-.16-1,1.21c-.66,1-.83,1.4-.65,1.6s.23.09.23,0Zm.8.19a.59.59,0,0,1,.15-.26,6.4,6.4,0,0,0,.85-1.31.11.11,0,0,1,.1-.11c.05,0,.1-.12.1-.27,0-.44-.31-.24-.69.44a9,9,0,0,1-.58.92c-.42.54-.66,1-.59,1.24s.11.13.36-.19a1.79,1.79,0,0,0,.29-.47Zm.48.82a3.65,3.65,0,0,0,1-1.82c0-.31-.13-.29-.36.07-.1.16-.31.45-.45.65a9.63,9.63,0,0,0-1.09,1.73c0,.29.28.09.88-.63Zm-.2,1.6a1.49,1.49,0,0,0,.22-.34c0-.06.07-.16.84-1.2a3.16,3.16,0,0,0,.56-1c0-.46-.21-.26-.84.8a5.86,5.86,0,0,1-.71,1c-.38.37-.55.68-.48.89s.17.17.41-.14Zm3.75.15a.64.64,0,0,0,0-.35c-.09-.16-.33.25-.26.44S54.81,37.62,54.88,37.35Zm-3.44.93a16.83,16.83,0,0,1,1.11-1.48c.7-.86.82-1.13.64-1.4s-.16-.19-.54.22a1.73,1.73,0,0,0-.4.58c0,.08,0,.15-.08.15a1.3,1.3,0,0,0-.32.42,5.13,5.13,0,0,1-.53.72.92.92,0,0,0-.28.7c0,.49.12.51.39.08Zm3.95,0c.11-.32.07-.5-.13-.5s-.42.49-.34.76S55.3,38.57,55.38,38.31Zm-3.65,1.08a3.27,3.27,0,0,0,.57-.7,8.1,8.1,0,0,1,.7-.94c.46-.52.71-1.15.54-1.34s-.17,0-.31.16l-.47.62a10.39,10.39,0,0,0-1.42,2.21c0,.26.05.26.39,0Zm4.12-.25c.11-.23,0-.54-.16-.54s-.16.09-.19.2a3.77,3.77,0,0,1-.2.47.69.69,0,0,0-.09.43c0,.12.11.1.3-.1a2.29,2.29,0,0,0,.34-.45Zm.09,1.29c0-.08,0-.15.08-.15s.3-.53.23-.66a.11.11,0,0,0-.17,0,4.22,4.22,0,0,0-.57,1.06c-.06.17,0,.18.18.07S55.94,40.52,55.94,40.44Zm-3.9.35a.93.93,0,0,1,.23-.32,5.48,5.48,0,0,0,.52-.68c.16-.25.36-.53.44-.63.57-.7.7-.94.7-1.3s-.2-.51-.5-.13a8,8,0,0,0-.79,1.07c-.12.2-.42.63-.67.95-.46.6-.52.84-.34,1.23.09.19.12.2.25.06a.58.58,0,0,0,.15-.24Zm4,1a.72.72,0,0,1,.2-.29.6.6,0,0,0,.19-.3.46.46,0,0,1,.15-.25c.16-.15.21-.67.06-.67a2.13,2.13,0,0,0-.61.84.74.74,0,0,1-.16.29.47.47,0,0,0-.1.38C55.85,42,56,42,56.06,41.8Zm-3.91.27a16.3,16.3,0,0,1,1.6-2,1.45,1.45,0,0,0,.48-.94c0-.37,0-.41-.17-.34a2.76,2.76,0,0,0-.63.72A8.61,8.61,0,0,1,52,41.42c-.23.14-.32.66-.12.66s.08.05,0,.11,0,.11,0,.11.15-.11.21-.24Zm4.31.61a1.14,1.14,0,0,0,.28-.41.83.83,0,0,1,.19-.34,1.52,1.52,0,0,0,.26-.54c.06-.27,0-.3-.12-.23s-.31.19-.77,1a1.76,1.76,0,0,0-.32.76c.1.17.16.15.47-.18Zm-4,.53c.1-.19.21-.34.26-.34a1.15,1.15,0,0,0,.48-.54.82.82,0,0,1,.23-.32,8,8,0,0,0,1-1.29c.16-.28.15-.77,0-.77a4.69,4.69,0,0,0-.7.8c-.34.44-.81,1-1.05,1.32a2.3,2.3,0,0,0-.44.65.19.19,0,0,1-.09.17.62.62,0,0,0-.16.35c-.06.26,0,.31.14.31s.28-.14.38-.34Zm4.23.44a1.27,1.27,0,0,0,.31-.49.71.71,0,0,1,.21-.36c.27-.27.43-.72.3-.86s-.14,0-.22.16a9,9,0,0,1-1,1.36c-.47.6-.16.76.35.19Zm-4.1.76a2.33,2.33,0,0,1,.38-.53c.43-.5,1.43-1.73,1.72-2.13s.27-.68.06-.68-.21.11-.29.25A6.64,6.64,0,0,1,54,42a4.88,4.88,0,0,0-.44.58,9.72,9.72,0,0,1-.68.87c-.8.95-.86,1-.79,1.25s.08.16.3,0a.72.72,0,0,0,.24-.28Zm4.21.47c.08-.13.27-.4.42-.59a4.59,4.59,0,0,0,.45-.75,1.52,1.52,0,0,1,.25-.43.13.13,0,0,0-.06-.24,2.22,2.22,0,0,0-.62.65c-.27.36-.51.67-.55.7a1.1,1.1,0,0,0-.25.74c.08.22.19.2.36-.08Zm-4.06.77.84-1.08c.26-.33.73-.91,1-1.28q.84-1,.46-1.27c-.1-.07-1,.9-1,1.09a5.06,5.06,0,0,1-.53.69c-1,1.15-1.27,1.59-1.33,2s0,.47.5-.1Zm4.36.14a.1.1,0,0,0,.1-.11,1.57,1.57,0,0,1,.3-.47,1.63,1.63,0,0,0,.3-.47,1.49,1.49,0,0,1,.21-.43c.36-.57.15-.61-.31-.05a4.43,4.43,0,0,0-.48.65,1.41,1.41,0,0,1-.29.37,1,1,0,0,0-.28.61l0,.36.19-.23A.67.67,0,0,1,57.15,45.79Zm-2.45-.16c.78-.91,1.16-1.64.86-1.64a8,8,0,0,0-.91,1.12,8,8,0,0,1-.91,1.12s-.09.06-.09.14a.67.67,0,0,1-.21.35c-.17.17-.19.22-.08.3s.26-.06.59-.48.58-.73.75-.92ZM55.41,47a2.2,2.2,0,0,0,.54-1.11v-.25l-.25.26a1,1,0,0,0-.25.36,1.68,1.68,0,0,1-.25.47,2,2,0,0,0-.25.44c0,.16.28.06.46-.18Zm-.75-.22c.18-.26.44-.6.57-.76a2.51,2.51,0,0,0,.55-.82c.11-.33-.09-.22-.39.22a9.6,9.6,0,0,1-.59.78c-.72.84-.84,1-.62,1s.3-.21.48-.47Zm-2.11.39a4.59,4.59,0,0,1,.55-.74,4.52,4.52,0,0,0,.55-.74,3.06,3.06,0,0,1,.5-.6,4,4,0,0,0,.5-.57A3.23,3.23,0,0,1,55,44c.48-.6.58-1.16.13-.76-.08.08-.44.54-.8,1-.82,1.13-1.15,1.57-1.62,2.12s-.49.86-.28.86a.1.1,0,0,0,.1-.08Zm7-.21a1.52,1.52,0,0,0,0-.44c-.07-.08-.34.24-.46.54s-.11.31.12.31.25-.08.3-.4ZM59,46.59c.36-.49.43-.7.24-.77s-.33.32-.71,1.08c-.16.33-.17.58,0,.34l.47-.65Zm-1.1.43c.18-.19.29-.34.24-.34s0,0,0-.08c.35-.28.87-1.37.65-1.37a7.73,7.73,0,0,0-1.25,1.88c-.09.33-.06.32.34-.08Zm-1.82.08c0-.28-.25-.25-.31,0s0,.22.11.2A.3.3,0,0,0,56.13,47.11Zm1.37-.55.62-1.06c.58-1,.61-1.25.06-.55l-.72.89c-.55.67-.71,1-.71,1.35v.34l.32-.4a6.15,6.15,0,0,0,.42-.57Z"/><path class="d" d="M46.15,73.06c.06-.23-.05-.83-.27-1a.32.32,0,0,0-.51.19,1.18,1.18,0,0,0,.5,1c.24,0,.22,0,.28-.27Z"/><path class="d" d="M38.94,76.46a.27.27,0,0,0,0-.45c-.14-.11-.78.21-.81.42S38.77,76.56,38.94,76.46Z"/></svg>