<svg id="Layer_1" data-name="Layer 1" xmlns="http://www.w3.org/2000/svg" viewBox="0 0 130.936 100.197">
  <defs>
    <style>
      .cls-1 {
        fill: #0000b8;
      }

      .cls-2 {
        fill: #fff;
      }
    </style>
  </defs>
  <title>fa263ff2-f74b-4985-b098-fa56eacf1675</title>
  <g>
    <path class="cls-1" d="M34.265,92.962a.414.414,0,0,1-.349-.178.62.62,0,0,1-.058-.107.5.5,0,0,1-.044-.23c.007-.16.006-.32,0-.48a.5.5,0,0,1,.489-.506h.011a.5.5,0,0,1,.5.483c.006.186.009.373,0,.559h-.038a.508.508,0,0,1-.264.4A.6.6,0,0,1,34.265,92.962Z" transform="translate(0 0)"/>
    <path class="cls-2" d="M34.319,91.96h0c0,.177.007.354,0,.531l0,0c-.005-.008-.006-.018-.012-.026.008-.17.007-.34,0-.51m0-1a1,1,0,0,0-1,1.011c0,.151,0,.3,0,.454a1,1,0,0,0,.092.466,1.081,1.081,0,0,0,.082.153,1,1,0,0,0,1.836-.6c0-.169,0-.338,0-.506a1,1,0,0,0-1-.978Z" transform="translate(0 0)"/>
  </g>
  <g>
    <path class="cls-1" d="M93.9,61.9c-1.371-.087-3-5.083-2.955-6.5a.5.5,0,0,0-.059-.319.294.294,0,0,0-.187-.043,1.516,1.516,0,0,0-.437.081,13.016,13.016,0,0,0-1.3.472,2.178,2.178,0,0,1-.868.2,1.448,1.448,0,0,1-1.4-1.007,1.537,1.537,0,0,1,.026-1.273,2.018,2.018,0,0,1,1.327-.948,4.355,4.355,0,0,1,.842-.126,4.051,4.051,0,0,0,.6-.078,1.42,1.42,0,0,0,.907-.463,1.369,1.369,0,0,0-.021-.987c-.131-.485-.512-1.5-.818-2.313-.329-.874-.5-1.339-.544-1.541a1.449,1.449,0,0,1,.862-1.743,1.433,1.433,0,0,1,.559-.12,1.233,1.233,0,0,1,1.2,1.095,6.437,6.437,0,0,0,.535,1.608,15.474,15.474,0,0,1,.782,2.136c.2.716.345.719.653.719h0a2.513,2.513,0,0,0,.258-.015c2.349-.238,2.349-.238,2.273-2.6-.021-.648-.1-1.316-.175-1.963-.062-.529-.124-1.058-.159-1.589a1.952,1.952,0,0,1,.368-1.495,1.34,1.34,0,0,1,1.024-.4c1.42.026,1.478,1.3,1.5,1.845s.014,1.08,0,1.623a15.176,15.176,0,0,0,.089,2.53l.134,0c.757,0,1.257-.253,1.728-1.586.972-2.754,3.209-4.364,6.472-4.654.117-.011.234-.016.35-.016a3.6,3.6,0,0,1,3.5,2.541c.5,1.679-.063,2.917-1.781,3.9-1.214.69-2.5,1.281-3.739,1.852l-1.016.47c-.74.346-1.2.828-1.264,1.323a1.6,1.6,0,0,0,.715,1.326,5.923,5.923,0,0,0,3.654,1.6c2.392,0,3.894-2.415,4.387-3.209a1.742,1.742,0,0,1,.275-.384c.93-.835.616-7.07.079-9.547-.129-.621,2.352-3.739,3.905-4.384a6.665,6.665,0,0,1,2.568-.517,7.829,7.829,0,0,1,2.464.422,3.686,3.686,0,0,1,2.253,2.547,4.333,4.333,0,0,1-.551,3.862c-.7.9-3.137,2.373-4.79,3.308,2.642.164,6.21.587,8.535.862.943.112,1.836.217,1.974.219h.126a1.739,1.739,0,0,1,1.325.422,1.4,1.4,0,0,1,.331,1.085,1.368,1.368,0,0,1-1.559,1.367c-.125,0-.252-.007-.377-.016-1.6-.117-8.855-.8-10.749-1.175a2.152,2.152,0,0,0-.42-.048.482.482,0,0,0-.335.091c-.048.054-.151.246-.074.854.068.542.1,1.087.131,1.633l.033.547.018.209c.05.519.141,1.483-.856,1.751a2.457,2.457,0,0,1-.634.088,1.584,1.584,0,0,1-1.616-1.4c-.006-.033-.015-.066-.023-.1a2.17,2.17,0,0,0-.243.4c-.06.115-.119.229-.186.335a6.843,6.843,0,0,1-6.066,3.343,9.563,9.563,0,0,1-.973-.051,7.584,7.584,0,0,1-6.2-4.317,3.926,3.926,0,0,1-.2-.507,2.958,2.958,0,0,0-.149-.38.554.554,0,0,0-.53-.364.926.926,0,0,0-.206.025,5.217,5.217,0,0,0,.174,2.717A3.014,3.014,0,0,0,100.8,57.12a.907.907,0,0,1,.6.707,2.181,2.181,0,0,1-.883,1.713,1.87,1.87,0,0,1-1.2.481,1.528,1.528,0,0,1-1.389-.963A10.828,10.828,0,0,1,96.72,55c-.027-.681-.228-1.823-1.25-1.823a2.828,2.828,0,0,0-1.513.581.644.644,0,0,0-.337.723c.023.063.239.523.447.968,1.545,3.3,1.956,4.487,1.759,5.073a1.824,1.824,0,0,1-1.785,1.383Zm13.119-16.622A4.717,4.717,0,0,0,102.9,48.7a30.678,30.678,0,0,0,4.618-1.959.849.849,0,0,0,.293-1.114c-.095-.29-.2-.344-.663-.344Zm11.972-5.134A2.841,2.841,0,0,0,116.34,42.2a6.5,6.5,0,0,0-.38,3.027,12.5,12.5,0,0,0,4.611-2.355,1.6,1.6,0,0,0,.716-1.39A1.567,1.567,0,0,0,120.2,40.4,3.2,3.2,0,0,0,118.989,40.147Z" transform="translate(0 0)"/>
    <path class="cls-2" d="M118.765,37.906a7.3,7.3,0,0,1,2.307.4c2.016.67,2.8,3.909,1.463,5.628-.873,1.127-5.061,3.448-6.222,4.046,3.5,0,11.8,1.15,12.335,1.15h.129c.645,0,1.2.113,1.155.979-.042.754-.532.895-1.059.895-.113,0-.228-.007-.341-.015-1.751-.129-8.892-.807-10.687-1.166a2.667,2.667,0,0,0-.518-.058c-.828,0-1.024.568-.906,1.508.09.712.114,1.433.161,2.15.036.55.209,1.263-.47,1.445a1.959,1.959,0,0,1-.5.071,1.078,1.078,0,0,1-1.125-.989,4.83,4.83,0,0,0-.229-.668c-.719.063-.859.691-1.139,1.138a6.321,6.321,0,0,1-5.642,3.108,9.042,9.042,0,0,1-.921-.048,7.114,7.114,0,0,1-5.81-4.047c-.145-.283-.208-.607-.353-.889a1.055,1.055,0,0,0-.975-.635,1.538,1.538,0,0,0-.442.07c-.738.222-.467,4.794,1.641,5.611.655.254.077,1.148-.425,1.571a1.379,1.379,0,0,1-.875.364,1.025,1.025,0,0,1-.934-.67,10.3,10.3,0,0,1-1.161-3.868c-.062-1.5-.745-2.3-1.75-2.3a3.286,3.286,0,0,0-1.794.668,1.139,1.139,0,0,0-.548,1.218c.053.315,2.493,5,2.225,5.8a1.335,1.335,0,0,1-1.31,1.042c-.037,0-.075,0-.113,0-.818-.052-2.544-4.335-2.487-5.983.022-.644-.3-.879-.746-.879a2,2,0,0,0-.587.1,13.283,13.283,0,0,0-1.351.491,1.678,1.678,0,0,1-.667.156.951.951,0,0,1-.929-.683c-.323-.859.254-1.348,1.021-1.563.456-.128.957-.09,1.42-.2,1.23-.293,1.585-.831,1.253-2.066-.247-.92-1.275-3.44-1.355-3.825a.962.962,0,0,1,.568-1.181.932.932,0,0,1,.363-.08.746.746,0,0,1,.711.681c.235,1.344.768,1.818,1.329,3.794.226.8.486,1.083,1.138,1.083a3.078,3.078,0,0,0,.308-.017c2.566-.26,2.807-.467,2.723-3.112-.038-1.192-.257-2.377-.335-3.569-.042-.642.016-1.358.893-1.358h.031c.857.016.941.689.972,1.367a29.138,29.138,0,0,0,.163,4.591,4.082,4.082,0,0,0,.561.042c1.156,0,1.742-.624,2.2-1.92.965-2.735,3.2-4.069,6.044-4.323q.155-.014.306-.014a3.123,3.123,0,0,1,3.026,2.184c.419,1.4.027,2.418-1.551,3.318-1.518.865-3.133,1.562-4.719,2.3-1.73.809-2.125,2.276-.655,3.488a6.323,6.323,0,0,0,3.973,1.714c3.127,0,4.787-3.532,5-3.721,1.251-1.124.674-7.99.232-10.025-.015-.071,1.9-3.109,3.608-3.817a6.137,6.137,0,0,1,2.377-.478m-3.216,7.958a13.553,13.553,0,0,0,5.345-2.611c1.38-1.166,1.156-2.639-.5-3.317a3.7,3.7,0,0,0-1.4-.29,3.333,3.333,0,0,0-3.119,2.381,7.051,7.051,0,0,0-.321,3.837m-13.361,3.563a29.983,29.983,0,0,0,5.636-2.293,1.332,1.332,0,0,0,.465-1.666c-.209-.637-.663-.689-1.14-.689h-.193c-2.18.019-4.239,1.967-4.769,4.646m16.577-12.521a7.167,7.167,0,0,0-2.76.555c-1.583.657-4.411,3.989-4.2,4.952.586,2.7.719,8.307.064,9.081a2.07,2.07,0,0,0-.355.481c-.506.813-1.849,2.972-3.962,2.972a5.453,5.453,0,0,1-3.337-1.485c-.373-.308-.569-.627-.537-.877.039-.312.415-.67.98-.934q.506-.237,1.015-.469c1.251-.575,2.544-1.17,3.775-1.871,1.929-1.1,2.587-2.562,2.014-4.474a4.1,4.1,0,0,0-3.984-2.9q-.2,0-.395.018c-3.471.309-5.857,2.033-6.9,4.986-.32.908-.605,1.161-.948,1.229a18.114,18.114,0,0,1-.031-2c.011-.538.023-1.094,0-1.655-.069-1.518-.725-2.3-1.952-2.322h0a1.866,1.866,0,0,0-1.436.553,2.4,2.4,0,0,0-.5,1.87c.036.547.1,1.089.161,1.613.078.665.152,1.294.172,1.921a5.434,5.434,0,0,1-.114,1.753,5.57,5.57,0,0,1-1.71.333c-.075.008-.144.012-.208.012H93.56a2.208,2.208,0,0,1-.125-.355,15.787,15.787,0,0,0-.805-2.2,5.963,5.963,0,0,1-.5-1.494,1.742,1.742,0,0,0-1.7-1.509,1.927,1.927,0,0,0-.753.159,1.965,1.965,0,0,0-1.158,2.306,15.47,15.47,0,0,0,.565,1.612c.3.805.68,1.807.8,2.268a1.19,1.19,0,0,1,.072.605h0a1.341,1.341,0,0,1-.591.229,3.793,3.793,0,0,1-.523.066,4.862,4.862,0,0,0-.936.144,2.5,2.5,0,0,0-1.638,1.2,2.022,2.022,0,0,0-.048,1.674,1.949,1.949,0,0,0,1.865,1.332,2.661,2.661,0,0,0,1.069-.241,12.423,12.423,0,0,1,1.25-.453l.035-.011c.082,1.711,1.655,6.7,3.421,6.814.06,0,.119.006.176.006A2.32,2.32,0,0,0,96.3,60.684c.252-.75-.13-1.92-1.78-5.445-.165-.352-.349-.745-.416-.906,0-.056.024-.085.136-.161a2.28,2.28,0,0,1,1.229-.493c.575,0,.726.731.751,1.344a11.209,11.209,0,0,0,1.25,4.241,2.016,2.016,0,0,0,1.844,1.256,2.36,2.36,0,0,0,1.519-.6,2.739,2.739,0,0,0,1.053-2.178,1.405,1.405,0,0,0-.912-1.09,1.99,1.99,0,0,1-.929-1.135,6.16,6.16,0,0,1-.444-2.263l.019.056a4.218,4.218,0,0,0,.231.574,8.065,8.065,0,0,0,6.6,4.586,10.077,10.077,0,0,0,1.023.053,7.31,7.31,0,0,0,6.411-3.453,2.032,2.032,0,0,0,1.724.864,2.954,2.954,0,0,0,.764-.105c1.405-.377,1.27-1.81,1.225-2.281-.006-.067-.013-.132-.017-.2l-.033-.546c-.031-.541-.063-1.1-.134-1.664a2.411,2.411,0,0,1-.023-.381,1.966,1.966,0,0,1,.259.036c1.916.383,9.207,1.065,10.81,1.183.137.01.276.017.414.017a2,2,0,0,0,1.591-3.3,2.244,2.244,0,0,0-1.687-.578h-.141c-.131-.006-.988-.108-1.895-.215-1.883-.223-4.579-.543-6.949-.744a15.462,15.462,0,0,0,3.533-2.624,4.837,4.837,0,0,0,.634-4.314,4.174,4.174,0,0,0-2.573-2.876,8.328,8.328,0,0,0-2.622-.448Zm-2.344,7.649a6.045,6.045,0,0,1,.389-2.183,2.334,2.334,0,0,1,2.18-1.725h0a2.708,2.708,0,0,1,1.025.215c.448.183.74.444.78.7s-.163.607-.545.93a11.477,11.477,0,0,1-3.828,2.066Zm-12.561,3.268a3.846,3.846,0,0,1,3.107-2.041h.184c.091,0,.151,0,.191.006.12.368.057.415-.125.555a27.874,27.874,0,0,1-3.357,1.482Z" transform="translate(0 0)"/>
  </g>
  <g>
    <path class="cls-1" d="M34.4,93.155a.5.5,0,0,1-.457-.3l-.032-.079a.593.593,0,0,1-.063-.149c-.037-.073-.021-.067-.02-.148,0-.169,0-.338,0-.507a.5.5,0,0,1,.5-.514.484.484,0,0,1,.145.021c.188.056.294.087.381.122a.5.5,0,0,1,.3.364.5.5,0,0,1-.022.275.49.49,0,0,1-.036.088,3.4,3.4,0,0,0-.221.487.5.5,0,0,1-.452.336Z" transform="translate(0 0)"/>
    <path class="cls-2" d="M34.32,91.961c.115.035.241.068.338.107l0,0h0v.009l-.235.344c.08-.108.156-.218.233-.328h0a3.986,3.986,0,0,0-.251.559,1.046,1.046,0,0,0-.07-.158l0,0c0-.177,0-.354,0-.531m.327.135h0m-.327-1.135a1,1,0,0,0-1,1.022c0,.163.007.325,0,.488a1,1,0,0,0,.081.416c.012.028.026.056.04.083s.024.061.036.088a1,1,0,0,0,.915.6h.04a1,1,0,0,0,.9-.67,2.982,2.982,0,0,1,.189-.417,1.019,1.019,0,0,0,.066-.154,1,1,0,0,0-.567-1.274c-.1-.039-.216-.076-.335-.111L34.611,91a1,1,0,0,0-.291-.043Zm.327,2.135h0Z" transform="translate(0 0)"/>
  </g>
  <g>
    <path class="cls-1" d="M34.394,93.16a.5.5,0,0,1-.462-.3l-.034-.091A.508.508,0,0,1,34.337,92a.48.48,0,0,1,.406.219.951.951,0,0,1,.1.2.668.668,0,0,1,.028.388.507.507,0,0,1-.457.346Z" transform="translate(0 0)"/>
    <path class="cls-2" d="M34.326,92.5a1.046,1.046,0,0,1,.07.158l0,.008a1.473,1.473,0,0,0-.068-.166m0-1a1,1,0,0,0-.9,1.443c.016.045.029.079.043.112a1,1,0,0,0,.922.612h.024a1,1,0,0,0,.915-.656,1.021,1.021,0,0,0-.022-.755,1.484,1.484,0,0,0-.146-.3,1,1,0,0,0-.841-.457Z" transform="translate(0 0)"/>
  </g>
  <g>
    <path class="cls-1" d="M24.536,99.7c-1.017,0-2.045-.054-3-.111a1.108,1.108,0,0,1-1.04-.761c-.193-.63.178-1.379.992-2a2.494,2.494,0,0,1,1.537-.509,3.161,3.161,0,0,1,1.566.433,2.717,2.717,0,0,0,1.368.338,5.011,5.011,0,0,0,2.367-.671.642.642,0,0,0-.1-.043,24.6,24.6,0,0,0-6.191-1.207,12.359,12.359,0,0,1-3.912-1.069,1.767,1.767,0,0,1-.531-3.085c2.523-2.355,5.082-4.508,8.62-4.962a24.316,24.316,0,0,0,4.132-.828,47.181,47.181,0,0,1,7.1-1.42c1.156-.17,2.353-.346,3.516-.562a2.053,2.053,0,0,0,.349-.123,2.083,2.083,0,0,1,.8-.208,1.174,1.174,0,0,1,1.057.715,2.378,2.378,0,0,1-1.019,3.044,6.964,6.964,0,0,0-3.292,5.545c-.13,1.128.207,1.434.514,1.575a1.185,1.185,0,0,0,.491.11,1.431,1.431,0,0,0,1.082-.573c1.553-1.9,3.1-4.247,2.813-7.229a2.354,2.354,0,0,1,.49-1.715,1,1,0,0,1,.751-.359c.916,0,1.534,1.234,1.888,3.772a.49.49,0,0,1,0,.131,14.892,14.892,0,0,0,.931,3.9,1.01,1.01,0,0,0,.382.418,2.84,2.84,0,0,1,1.448,1.957.727.727,0,0,1-.119.55.7.7,0,0,1-.461.285,3.3,3.3,0,0,1-.492.038h0a3.555,3.555,0,0,1-2.948-1.887c-.152-.227-.347-.554-.523-.859-.845,1.607-2.856,4.843-5.361,4.843a3.066,3.066,0,0,1-1.4-.349,2.453,2.453,0,0,1-.245-.142l.052.215a1.987,1.987,0,0,1-.178,1.53,1.415,1.415,0,0,1-.944.614,1.388,1.388,0,0,1-.278.028,1.578,1.578,0,0,1-1.471-1.389c-.047-.232-.1-.462-.151-.691a14.615,14.615,0,0,1-.315-1.7,44.042,44.042,0,0,0-1.51-7.123c-.27-.972-.707-.972-.894-.972a1.815,1.815,0,0,0-.587.118c-.365.128-.74.231-1.116.335a4.692,4.692,0,0,0-2.847,1.549,2.108,2.108,0,0,1-1.644.888,1.682,1.682,0,0,1-.979-.318,1.35,1.35,0,0,0-.789-.286,2.638,2.638,0,0,0-1.3.528c-.224.142-.453.277-.684.412a7.21,7.21,0,0,0-1.775,1.3.408.408,0,0,0-.1.308.215.215,0,0,0,.085.16,2.13,2.13,0,0,0,.927.246c.186.022.371.047.551.084.718.146,1.442.261,2.168.375a21.151,21.151,0,0,1,5.155,1.267l.319.13c.737.292,1.747.691,1.646,2.062a2.944,2.944,0,0,1-2.116,2.8A17.713,17.713,0,0,1,24.536,99.7ZM38.293,86.243a6.947,6.947,0,0,0-1.733.285l-.337.085c-.483.117-.464.232-.437.392.116.668.462,2.162.852,3.788a13.562,13.562,0,0,1,2.181-4.514A3.769,3.769,0,0,0,38.293,86.243Z" transform="translate(0 0)"/>
    <path class="cls-2" d="M42.1,83.4a.691.691,0,0,1,.617.452,1.885,1.885,0,0,1-.839,2.38,7.508,7.508,0,0,0-3.528,5.916,1.847,1.847,0,0,0,.8,2.085,1.672,1.672,0,0,0,.7.157,1.935,1.935,0,0,0,1.469-.757c1.794-2.2,3.214-4.581,2.922-7.593-.071-.73.284-1.526.744-1.526s1.04.816,1.392,3.342a14.842,14.842,0,0,0,.984,4.188,1.5,1.5,0,0,0,.574.62,2.34,2.34,0,0,1,1.206,1.609l0,.017a.206.206,0,0,1-.167.24,2.733,2.733,0,0,1-.416.033A3.084,3.084,0,0,1,46.034,92.9c-.354-.527-.97-1.656-.97-1.656s-2.359,5.419-5.33,5.419a2.566,2.566,0,0,1-1.176-.294c-1.926-.98-2.915-5.226,1.116-10.4a4.349,4.349,0,0,0-1.381-.227,9.009,9.009,0,0,0-2.188.384c-.521.126-.914.364-.81.964C35.608,88.9,37.533,96.5,37.65,97c.154.661.039,1.389-.732,1.541a.936.936,0,0,1-.181.018,1.09,1.09,0,0,1-.981-.989c-.159-.779-.373-1.538-.46-2.343a45.2,45.2,0,0,0-1.525-7.2c-.24-.867-.676-1.338-1.376-1.338a2.288,2.288,0,0,0-.752.146c-1.477.52-3.135.608-4.2,2.06a1.613,1.613,0,0,1-1.24.683,1.172,1.172,0,0,1-.69-.226,1.827,1.827,0,0,0-1.079-.379,3.035,3.035,0,0,0-1.571.606,11.482,11.482,0,0,0-2.562,1.8.825.825,0,0,0,.069,1.209A4.313,4.313,0,0,0,22.036,93c2.417.5,4.912.619,7.227,1.613.828.355,1.748.537,1.663,1.694a2.462,2.462,0,0,1-1.749,2.35,17.45,17.45,0,0,1-4.643.544c-.99,0-1.983-.051-2.972-.111-.786-.047-.941-.974.226-1.869a2,2,0,0,1,1.233-.4,2.683,2.683,0,0,1,1.319.366,3.214,3.214,0,0,0,1.616.4,4.853,4.853,0,0,0,2.943-.995c.073-.345-.2-.583-.5-.691a25.362,25.362,0,0,0-6.316-1.234,12.06,12.06,0,0,1-3.757-1.031,1.273,1.273,0,0,1-.387-2.26c2.4-2.24,4.92-4.391,8.343-4.831a25.179,25.179,0,0,0,4.216-.847c3.45-1.064,7.039-1.312,10.556-1.969A6.628,6.628,0,0,1,42.1,83.4m0-1h0a2.527,2.527,0,0,0-.99.246,2.2,2.2,0,0,1-.249.093c-1.155.216-2.347.391-3.5.56A47.589,47.589,0,0,0,30.2,84.74a23.819,23.819,0,0,1-4.049.81c-3.684.473-6.311,2.679-8.9,5.092a2.264,2.264,0,0,0,.676,3.911,12.81,12.81,0,0,0,4.067,1.108,26.721,26.721,0,0,1,4.862.8,3.756,3.756,0,0,1-.9.118,2.223,2.223,0,0,1-1.119-.272,3.671,3.671,0,0,0-1.816-.5,3,3,0,0,0-1.841.611,2.438,2.438,0,0,0-1.167,2.546,1.6,1.6,0,0,0,1.489,1.114c.966.058,2,.112,3.033.112a18.229,18.229,0,0,0,4.908-.58,3.465,3.465,0,0,0,2.482-3.241,2.479,2.479,0,0,0-1.96-2.563c-.1-.04-.2-.081-.305-.124a21.562,21.562,0,0,0-5.275-1.3c-.709-.112-1.442-.227-2.145-.371-.192-.039-.39-.065-.589-.09-.148-.018-.3-.037-.427-.063A8.121,8.121,0,0,1,22.7,90.844c.235-.138.47-.277.7-.422a2.339,2.339,0,0,1,1.035-.45.83.83,0,0,1,.5.193,2.18,2.18,0,0,0,1.27.411,2.615,2.615,0,0,0,2.045-1.091,4.266,4.266,0,0,1,2.577-1.363c.375-.1.762-.209,1.15-.345a1.306,1.306,0,0,1,.42-.089c.073,0,.245,0,.412.605A43.718,43.718,0,0,1,34.3,95.335a15.13,15.13,0,0,0,.325,1.753c.052.227.1.454.15.683a2.063,2.063,0,0,0,1.96,1.789,1.944,1.944,0,0,0,.374-.037,1.9,1.9,0,0,0,1.267-.833,2.2,2.2,0,0,0,.33-1.183,3.463,3.463,0,0,0,1.025.156c2.418,0,4.332-2.543,5.383-4.339.03.047.06.092.088.134a4.061,4.061,0,0,0,3.362,2.109,3.751,3.751,0,0,0,.568-.044,1.188,1.188,0,0,0,.79-.486,1.218,1.218,0,0,0,.21-.913,3.333,3.333,0,0,0-1.693-2.32.509.509,0,0,1-.189-.217,14.871,14.871,0,0,1-.873-3.655,1,1,0,0,0-.007-.209c-.251-1.8-.772-4.2-2.382-4.2a1.513,1.513,0,0,0-1.121.524l-.028.031a2.374,2.374,0,0,0-.241-.689,1.665,1.665,0,0,0-1.5-.98Zm-2.248,10.99a.673.673,0,0,1-.284-.066c-.09-.041-.33-.151-.225-1.062A6.5,6.5,0,0,1,42.4,87.09a3.149,3.149,0,0,0,.864-.779c.2,2.711-1.185,4.818-2.716,6.694a.954.954,0,0,1-.694.389Zm-3.541-6.289.027-.007.343-.086a8.866,8.866,0,0,1,1.205-.247,14.882,14.882,0,0,0-1.166,2.212c-.18-.777-.326-1.439-.409-1.873Z" transform="translate(0 0)"/>
  </g>
  <g>
    <path class="cls-1" d="M52.888,95.962c-1.409,0-1.786-1.161-2.011-1.855L50.8,93.86c-.177-.5-.437-1.556-.766-2.889-.578-2.342-1.766-7.154-2.457-7.8a10.738,10.738,0,0,1-2.608.362c-1.471,0-2.456-.459-2.571-1.2-.062-.393.145-.9.91-1.146,1.3-.417,3.816-1.038,6.252-1.638,2.2-.543,4.479-1.1,4.977-1.313a4.561,4.561,0,0,1,1.754-.4c3.557,0,4.161,5.371,4.562,8.925a17.086,17.086,0,0,0,.4,2.56,1.022,1.022,0,0,1,.2-.021.945.945,0,0,1,.75.366,1.324,1.324,0,0,1,.22,1.113,1.068,1.068,0,0,1-.086.23c-.062.165-.1.311-.141.459-.187.7-.473,1.75-1.674,1.84l-.134,0c-1.368,0-1.572-1.487-1.694-2.375-.024-.177-.047-.344-.076-.487-.407-2.019-1.4-8.386-1.487-9.076-.034-.267-.558-.438-1.333-.438-1.965,0-4.132.948-4.217,1.383.124,2.3,2.168,9.724,2.4,10.3a3.571,3.571,0,0,1-.068,2.806,1.022,1.022,0,0,1-.778.519C53.043,95.959,52.964,95.962,52.888,95.962Z" transform="translate(0 0)"/>
    <path class="cls-2" d="M56.285,78.342c4.7,0,3.6,11.542,4.822,11.542a.239.239,0,0,0,.1-.023.591.591,0,0,1,.241-.055c.366,0,.585.419.482.87a2.243,2.243,0,0,1-.086.209c-.263.767-.318,1.853-1.363,1.932-.033,0-.065,0-.1,0-1.138,0-1.11-1.614-1.281-2.461-.4-1.967-1.386-8.306-1.481-9.042-.081-.627-.847-.874-1.829-.874-1.955,0-4.765.981-4.716,1.9.126,2.369,2.171,9.812,2.434,10.47.4,1.009.237,2.581-.425,2.639q-.1.009-.2.009c-1.176,0-1.361-1.023-1.622-1.767-.6-1.727-2.441-11.039-3.638-11.039a.228.228,0,0,0-.056.007,10.811,10.811,0,0,1-2.608.37c-2.156,0-2.6-1.019-1.507-1.369,2.549-.819,10.2-2.514,11.269-2.965a4.036,4.036,0,0,1,1.56-.356m0-1h0a5.05,5.05,0,0,0-1.947.434c-.461.194-2.818.775-4.9,1.287-2.446.6-4.976,1.226-6.289,1.648a1.561,1.561,0,0,0-1.252,1.7c.159,1.014,1.3,1.62,3.065,1.62a11.194,11.194,0,0,0,2.394-.291c.66,1.167,1.676,5.284,2.186,7.349.332,1.346.595,2.409.779,2.935.027.076.052.155.078.236a2.612,2.612,0,0,0,2.487,2.2c.09,0,.184,0,.282-.013a1.51,1.51,0,0,0,1.161-.756,4.025,4.025,0,0,0,.106-3.25,78.923,78.923,0,0,1-2.35-9.966,7.3,7.3,0,0,1,3.7-1.034,2.332,2.332,0,0,1,.853.118c.155,1.1,1.082,7.04,1.477,9,.027.134.048.29.07.455.125.911.385,2.807,2.191,2.807q.083,0,.171-.007c1.554-.117,1.922-1.477,2.119-2.208.037-.137.073-.272.115-.4a1.219,1.219,0,0,0,.115-.31,1.828,1.828,0,0,0-.316-1.538,1.46,1.46,0,0,0-.959-.543c-.1-.513-.2-1.376-.283-2.106-.42-3.731-1.055-9.368-5.059-9.369Z" transform="translate(0 0)"/>
  </g>
  <g>
    <path class="cls-1" d="M99.7,36.225a10.277,10.277,0,0,1-4.6-1.216c-4.968-2.44-8.321-5.617-10.254-9.71a8,8,0,0,1-.656-3.226c-.124-3.525-.125-7.611,1.457-11.5a10.631,10.631,0,0,1,2.095-3.107A24.785,24.785,0,0,1,94.92,2.079a4.043,4.043,0,0,1,1.837-.5,3.1,3.1,0,0,1,1.605.459,2.008,2.008,0,0,0,1.071.294,6.341,6.341,0,0,0,1.344-.211l.389-.087c.7-.15,1.393-.319,2.091-.488A27.991,27.991,0,0,1,109.814.5a12.489,12.489,0,0,1,2.365.216,13.215,13.215,0,0,1,7.95,4.643c3.333,4.047,4.268,8.753,2.858,14.387a11.722,11.722,0,0,0-.219,1.269,9.577,9.577,0,0,1-.367,1.813c-1.586,4.647-4.786,8.04-9.784,10.371a32.507,32.507,0,0,1-11.926,2.961A7.52,7.52,0,0,1,99.7,36.225ZM96.606,4.846a4.371,4.371,0,0,0-1.774.473c-4.426,2.075-6.891,4.879-7.758,8.823a23.75,23.75,0,0,0-.528,5.292c0,.006,0,.105,0,.112a9.741,9.741,0,0,0,.623,4.654A16.188,16.188,0,0,0,97.2,32.955a13.6,13.6,0,0,0,4.2.652c3.616,0,7.144-1.388,10.418-2.887a15.051,15.051,0,0,0,7.6-7.18,20.956,20.956,0,0,0,1.533-5.938l.022-.146A12.186,12.186,0,0,0,111.2,3.323a13.028,13.028,0,0,0-2.461-.231,21.014,21.014,0,0,0-7.56,1.653c-.154.059-.3.121-.453.182a4.888,4.888,0,0,1-1.87.487A3.025,3.025,0,0,1,97.4,5.025,1.669,1.669,0,0,0,96.606,4.846Z" transform="translate(0 0)"/>
    <path class="cls-2" d="M109.814,1a12.078,12.078,0,0,1,2.271.207,12.683,12.683,0,0,1,7.658,4.47c3.45,4.19,4.031,8.859,2.759,13.948-.25,1-.245,2.075-.575,3.042-1.635,4.793-5.025,7.982-9.521,10.079a31.9,31.9,0,0,1-11.744,2.915,7.367,7.367,0,0,1-.964.063,9.9,9.9,0,0,1-4.376-1.165c-4.314-2.119-7.912-5-10.023-9.475a7.535,7.535,0,0,1-.608-3.03c-.136-3.838-.059-7.656,1.42-11.3a10.145,10.145,0,0,1,2-2.959,24.14,24.14,0,0,1,7.036-5.275,3.574,3.574,0,0,1,1.61-.442,2.584,2.584,0,0,1,1.349.388,2.5,2.5,0,0,0,1.328.365,9.052,9.052,0,0,0,1.837-.31C104.092,1.918,106.919,1,109.814,1M98.858,4.914a2.534,2.534,0,0,1-1.221-.329,2.153,2.153,0,0,0-1.03-.239,4.87,4.87,0,0,0-1.986.52C90.6,6.75,87.6,9.441,86.586,14.034a24.272,24.272,0,0,0-.54,5.4,10.38,10.38,0,0,0,.668,4.982,16.69,16.69,0,0,0,10.339,9.016,14.183,14.183,0,0,0,4.353.676c3.689,0,7.2-1.365,10.626-2.932a15.5,15.5,0,0,0,7.841-7.418,21.706,21.706,0,0,0,1.6-6.224A12.718,12.718,0,0,0,111.3,2.831a13.481,13.481,0,0,0-2.554-.239A21.914,21.914,0,0,0,101,4.278a6.2,6.2,0,0,1-2.146.636M109.814,0V0a28.378,28.378,0,0,0-6.674,1.062c-.694.168-1.387.337-2.08.486l-.393.088a5.894,5.894,0,0,1-1.233.2,1.508,1.508,0,0,1-.816-.224,3.592,3.592,0,0,0-1.862-.529,4.522,4.522,0,0,0-2.063.551,25.277,25.277,0,0,0-7.323,5.494,11.256,11.256,0,0,0-2.188,3.255c-1.619,3.982-1.619,8.132-1.493,11.708a8.562,8.562,0,0,0,.7,3.422c1.983,4.2,5.413,7.453,10.486,9.946A10.745,10.745,0,0,0,99.7,36.724a8.413,8.413,0,0,0,1.058-.067,33,33,0,0,0,12.074-3.005c5.056-2.358,8.436-5.946,10.045-10.662a9.9,9.9,0,0,0,.391-1.909,11.363,11.363,0,0,1,.208-1.214c1.45-5.8.483-10.648-2.957-14.826A13.7,13.7,0,0,0,112.273.225,12.977,12.977,0,0,0,109.814,0ZM98.858,5.914a5.276,5.276,0,0,0,2.06-.524c.145-.059.291-.12.441-.177a20.552,20.552,0,0,1,7.383-1.621,12.557,12.557,0,0,1,2.366.221,11.694,11.694,0,0,1,9.377,13.566l-.021.133a20.281,20.281,0,0,1-1.492,5.812,14.561,14.561,0,0,1-7.357,6.942c-3.223,1.476-6.69,2.841-10.21,2.841a13.1,13.1,0,0,1-4.049-.629,15.7,15.7,0,0,1-9.741-8.493,9.328,9.328,0,0,1-.575-4.422l0-.092a23.377,23.377,0,0,1,.518-5.223c.842-3.832,3.15-6.446,7.482-8.478a3.879,3.879,0,0,1,1.562-.425,1.174,1.174,0,0,1,.557.12,3.515,3.515,0,0,0,1.694.448Z" transform="translate(0 0)"/>
  </g>
  <g>
    <path class="cls-1" d="M36.05,70a12.379,12.379,0,0,1-2.475-.34c-.3-.062-.6-.124-.887-.174a1.608,1.608,0,0,1-1.365-1.675c-.021-1.21.911-1.608,1.527-1.872l.132-.057a1.3,1.3,0,0,1,.515-.115c.566,0,1,.433,1.165,1.158.066.3.159.365.5.365.082,0,.167-.005.253-.013a4.542,4.542,0,0,0,1.26-.233c.187-.074.389-.141.594-.208.948-.311,1.4-.52,1.446-1.1.035-.431-.2-.59-1.021-.915a5.751,5.751,0,0,1-.749-.338,9.42,9.42,0,0,0-3.4-.947l-.308-.046c-1.953-.3-4.089-.931-5.129-3.384a2.976,2.976,0,0,1,.705-3.663l.167-.112a8.865,8.865,0,0,1,4.882-1.989c.16,0,.322.007.487.022.441.038,1.235.106,1.366.985a1.407,1.407,0,0,1-.26,1.092,1.342,1.342,0,0,1-.952.49,5.214,5.214,0,0,0-3.34,1.435c-.337.33-.5.569-.5.729s.167.41.512.754A4.857,4.857,0,0,0,33.7,60.99c.3.063.609.122.915.181a26.118,26.118,0,0,1,2.951.694c.084-.319.156-.635.229-.948a12.564,12.564,0,0,1,.688-2.293A7.367,7.367,0,0,1,44.85,53.83q.239-.023.466-.023a3.244,3.244,0,0,1,2.638,1.167,3.456,3.456,0,0,1,.5,3.021c-.048.191-.111.38-.176.568a3.586,3.586,0,0,0-.2.733,1.929,1.929,0,0,1-2.07,1.821A14.2,14.2,0,0,0,41.2,62.632c-.192.087-.433.223-.489.374a1.014,1.014,0,0,0,.146.661,3.854,3.854,0,0,0,3.584,2.2,4.454,4.454,0,0,0,3.637-1.86,5.92,5.92,0,0,0,.6-1.192l.082-.194a1.3,1.3,0,0,1,1.223-.932A2.443,2.443,0,0,1,51,61.98a.5.5,0,0,1,.262.606c-1.329,4.1-3.531,5.926-7.141,5.926q-.168,0-.34,0a1.6,1.6,0,0,1-.332-.066,7.673,7.673,0,0,0-1.925-.276,4.317,4.317,0,0,0-2.841.956A3.945,3.945,0,0,1,36.05,70Zm9.027-13.465a5.133,5.133,0,0,0-4.137,3.151l.408-.1c.977-.251,1.908-.49,2.828-.768a2.363,2.363,0,0,0,1.444-1.533.535.535,0,0,0-.019-.513.6.6,0,0,0-.516-.233v-.5Z" transform="translate(0 0)"/>
    <path class="cls-2" d="M45.315,54.307a2.636,2.636,0,0,1,2.653,3.568,10.441,10.441,0,0,0-.384,1.37c-.1,1-.686,1.309-1.609,1.375a14.644,14.644,0,0,0-4.988,1.558c-.877.4-.962.888-.591,1.7a4.341,4.341,0,0,0,4.039,2.494A4.98,4.98,0,0,0,48.477,64.3a7.408,7.408,0,0,0,.741-1.485c.2-.468.462-.627.763-.627a2.007,2.007,0,0,1,.8.241c-1.255,3.872-3.29,5.581-6.666,5.581q-.16,0-.324-.005a9.592,9.592,0,0,0-2.272-.342,4.837,4.837,0,0,0-3.16,1.071,3.463,3.463,0,0,1-2.312.767A19.626,19.626,0,0,1,32.776,69a1.1,1.1,0,0,1-.952-1.192c-.017-.939.721-1.183,1.359-1.461a.79.79,0,0,1,.314-.073c.391,0,.593.393.677.768a.873.873,0,0,0,.984.755c.1,0,.194-.006.294-.014a4.932,4.932,0,0,0,1.4-.267c.938-.372,2.257-.529,2.354-1.729.094-1.163-1.225-1.269-2.02-1.726A10.749,10.749,0,0,0,33.306,63c-2.028-.309-3.835-.939-4.744-3.085a2.494,2.494,0,0,1,.524-3.052c1.419-.953,2.922-2.016,4.77-2.016q.217,0,.44.02c.385.035.841.045.918.561a.816.816,0,0,1-.762,1.01,5.707,5.707,0,0,0-3.645,1.575c-.873.854-.869,1.322.007,2.195A5.272,5.272,0,0,0,33.6,61.48a30.579,30.579,0,0,1,4.3,1.026,33.339,33.339,0,0,1,1.036-3.679,6.92,6.92,0,0,1,5.954-4.5q.214-.021.417-.021m-5.17,6.107c1.483-.392,2.842-.714,4.176-1.118a2.879,2.879,0,0,0,1.763-1.822,1.008,1.008,0,0,0-1-1.435h-.016c-2.015.022-4.247,1.9-4.926,4.375m5.17-7.107h0q-.25,0-.515.026a7.922,7.922,0,0,0-6.771,5.089,12.854,12.854,0,0,0-.718,2.384c-.033.143-.066.287-.1.432-.86-.24-1.69-.4-2.5-.558-.3-.059-.6-.117-.9-.179a4.311,4.311,0,0,1-2.285-1,2.45,2.45,0,0,1-.342-.4,2.374,2.374,0,0,1,.329-.374,4.734,4.734,0,0,1,3.033-1.294,1.836,1.836,0,0,0,1.3-.679,1.9,1.9,0,0,0,.362-1.474,1.7,1.7,0,0,0-1.756-1.4l-.06-.005q-.269-.025-.531-.024a9.258,9.258,0,0,0-5.162,2.075l-.166.112a3.467,3.467,0,0,0-.887,4.273c1.135,2.679,3.425,3.365,5.514,3.683l.309.047a9.05,9.05,0,0,1,3.227.886,6.077,6.077,0,0,0,.814.369,2.658,2.658,0,0,1,.71.351s0,.022,0,.057c-.02.248-.237.378-1.1.662-.215.07-.426.14-.622.218a4.138,4.138,0,0,1-1.116.2c-.072.006-.143.011-.212.011h-.015A1.735,1.735,0,0,0,33.5,65.271a1.784,1.784,0,0,0-.714.156l-.128.055a2.445,2.445,0,0,0-1.831,2.341A2.1,2.1,0,0,0,32.6,69.981c.286.05.577.111.871.172a12.752,12.752,0,0,0,2.576.351,4.426,4.426,0,0,0,2.95-1,3.832,3.832,0,0,1,2.521-.841,7.19,7.19,0,0,1,1.8.26,1.924,1.924,0,0,0,.44.081q.18.006.355.006c3.81,0,6.23-1.993,7.617-6.272a1,1,0,0,0-.524-1.213,2.924,2.924,0,0,0-1.23-.337A1.787,1.787,0,0,0,48.3,62.428l-.082.2a5.562,5.562,0,0,1-.547,1.092,3.957,3.957,0,0,1-3.231,1.654,3.319,3.319,0,0,1-3.13-1.91,1.785,1.785,0,0,1-.1-.267,1.478,1.478,0,0,1,.2-.106,13.617,13.617,0,0,1,4.645-1.471,2.4,2.4,0,0,0,2.532-2.269,3.2,3.2,0,0,1,.172-.623c.069-.2.137-.4.188-.609a3.94,3.94,0,0,0-.592-3.449,3.732,3.732,0,0,0-3.032-1.359Zm-3.329,5.6a4.333,4.333,0,0,1,3.1-1.866h0a.293.293,0,0,1,.094.013.387.387,0,0,0-.018.044,1.907,1.907,0,0,1-1.127,1.243c-.667.2-1.344.384-2.046.566Z" transform="translate(0 0)"/>
  </g>
  <g>
    <path class="cls-1" d="M21.218,44.387A1.545,1.545,0,0,1,19.9,43.44a26.658,26.658,0,0,1-2.407-7.1c-.38-1.728-.78-3.446-1.191-5.108-.386-1.563-.478-1.563-.747-1.563a7.849,7.849,0,0,0-1.4.259c-1.075.254-2.175.458-3.238.656l-1,.188a2.936,2.936,0,0,1-.548.055A1.694,1.694,0,0,1,7.9,30.106,1.638,1.638,0,0,1,8.057,28.2a1.4,1.4,0,0,1,1.215-.649,2.517,2.517,0,0,1,.887.185,2.942,2.942,0,0,0,1.059.185,8.135,8.135,0,0,0,1.743-.264l.2-.045a37.061,37.061,0,0,0,11.148-4.216,2.629,2.629,0,0,0,.575-.511,3.328,3.328,0,0,1,2.508-1.118,4.937,4.937,0,0,1,1.769.365,9.307,9.307,0,0,1,6.073,7.426,5.442,5.442,0,0,1-1.6,5.014c-1.852,1.861-3.926,3.683-7.111,3.728h-.111c-2.722,0-4.283-1.456-4.64-4.327a14.037,14.037,0,0,1,.3-6.5l-.06.025a2.263,2.263,0,0,1-.227.086c-3.251,1-3.251,1-2.808,4.234a49.918,49.918,0,0,0,1.119,5.808c.29,1.117.556,2.141,1.54,2.693a2.562,2.562,0,0,1,1.174,2.24,1.622,1.622,0,0,1-1.59,1.824Zm3.138-16.407a2.306,2.306,0,0,0-.184.569l-.094.458a7.142,7.142,0,0,0-.218,2.572c0,.2,0,.347-.009.5a5.145,5.145,0,0,0,.021,1.024,3.045,3.045,0,0,0,3.09,2.715c1.9,0,5.03-2.277,5.595-4.057a5.028,5.028,0,0,0-.538-4.04,6.315,6.315,0,0,0-3.81-2.991,2.741,2.741,0,0,0-.594-.074c-.449,0-.947.124-1.231,1.046-.051.166-.085.34-.12.512-.142.7-.355,1.768-1.761,1.768C24.456,27.984,24.408,27.983,24.356,27.981Z" transform="translate(0 0)"/>
    <path class="cls-2" d="M27.394,22.265a4.446,4.446,0,0,1,1.589.331,8.859,8.859,0,0,1,5.762,7.051,4.915,4.915,0,0,1-1.465,4.57c-1.893,1.9-3.841,3.539-6.764,3.581h-.1c-2.588,0-3.834-1.391-4.144-3.888-.28-2.257-.485-4.582.508-6.875a1.242,1.242,0,0,0-.49-.114,1.894,1.894,0,0,0-.65.188c-3.608,1.11-3.658,1.125-3.156,4.78a50.842,50.842,0,0,0,1.13,5.866,4.251,4.251,0,0,0,1.78,3,2.109,2.109,0,0,1,.92,1.85,1.122,1.122,0,0,1-1.092,1.278c-.422,0-.674-.309-.879-.686a26.166,26.166,0,0,1-2.358-6.969q-.565-2.568-1.194-5.121c-.362-1.465-.512-1.943-1.232-1.943a7.7,7.7,0,0,0-1.512.273c-1.4.329-2.811.571-4.22.84a2.44,2.44,0,0,1-.455.046,1.086,1.086,0,0,1-.895-1.851.9.9,0,0,1,.8-.426,2.058,2.058,0,0,1,.709.153,3.439,3.439,0,0,0,1.236.217,9.636,9.636,0,0,0,2.053-.32,37.575,37.575,0,0,0,11.3-4.275,3.109,3.109,0,0,0,.691-.605,2.824,2.824,0,0,1,2.136-.953M24.5,27.484a2.661,2.661,0,0,1-.266-.014h-.018c-.263,0-.46.587-.539.983a9.045,9.045,0,0,0-.316,3.2,9.158,9.158,0,0,0,.013,1.534,3.531,3.531,0,0,0,3.584,3.136h0c2.092,0,5.439-2.425,6.066-4.406,1.1-3.461-1.821-7.017-4.714-7.669a3.217,3.217,0,0,0-.7-.086,1.694,1.694,0,0,0-1.709,1.4c-.262.85-.139,1.927-1.4,1.927m2.889-6.219h0a3.8,3.8,0,0,0-2.866,1.269,2.233,2.233,0,0,1-.474.43,36.562,36.562,0,0,1-11,4.157l-.2.046a7.788,7.788,0,0,1-1.632.251,2.452,2.452,0,0,1-.882-.153,3,3,0,0,0-1.063-.217,1.9,1.9,0,0,0-1.631.872,2.13,2.13,0,0,0-.149,2.471,2.2,2.2,0,0,0,1.876.935,3.444,3.444,0,0,0,.642-.064l1-.188c1.068-.2,2.173-.4,3.26-.661a10.171,10.171,0,0,1,1.207-.243,10.6,10.6,0,0,1,.337,1.18c.407,1.647.807,3.362,1.188,5.1a27.1,27.1,0,0,0,2.456,7.231,1.977,1.977,0,0,0,1.758,1.21,2.121,2.121,0,0,0,2.087-2.37,3.119,3.119,0,0,0-1.427-2.631c-.745-.418-.985-1.167-1.293-2.352a49.594,49.594,0,0,1-1.115-5.781,6.671,6.671,0,0,1-.122-2.653,5.03,5.03,0,0,1,1.975-.848,16.138,16.138,0,0,0-.048,5.781c.489,3.938,3.063,4.765,5.136,4.765h.118c3.372-.048,5.618-2.025,7.458-3.875a5.927,5.927,0,0,0,1.739-5.459,9.9,9.9,0,0,0-6.384-7.8,5.44,5.44,0,0,0-1.95-.4ZM24.7,28.478a2.24,2.24,0,0,0,2.053-2.165,4.7,4.7,0,0,1,.107-.461c.2-.643.448-.694.753-.694a2.242,2.242,0,0,1,.484.062,5.8,5.8,0,0,1,3.486,2.752,4.518,4.518,0,0,1,.495,3.64c-.493,1.557-3.456,3.706-5.114,3.708a2.538,2.538,0,0,1-2.6-2.293,4.74,4.74,0,0,1-.015-.922c.008-.162.014-.316.014-.455a1,1,0,0,0-.01-.14,6.761,6.761,0,0,1,.212-2.4c.032-.154.065-.307.095-.46.012-.06.026-.116.04-.168Z" transform="translate(0 0)"/>
  </g>
  <g>
    <path class="cls-1" d="M92.365,90.958c-2.186,0-2.961-1.7-3.354-2.983a17.03,17.03,0,0,1-.567-3.437,19.007,19.007,0,0,0-.384-2.706A17.79,17.79,0,0,0,86.1,76.644c-.619-1.009-1.479-2.167-2.645-2.167-.062,0-.123,0-.187.009-1.624.156-2.437,1.6-2.833,2.775a20.038,20.038,0,0,0-.776,8.963,17.859,17.859,0,0,1,.149,1.951,2,2,0,0,1-.383,1.511,1.354,1.354,0,0,1-1,.369c-1.058,0-1.219-.847-1.306-1.3-.016-.085-.032-.172-.053-.256-.221-.9-.377-1.814-.527-2.7a24.5,24.5,0,0,0-.91-3.983,9.866,9.866,0,0,0-2.521-4.48,1.753,1.753,0,0,1-.758-1.277,1.369,1.369,0,0,1,.591-1.028,1.952,1.952,0,0,1,1.216-.5,1.489,1.489,0,0,1,1.331.915l.6,1.128c.416.776.841,1.569,1.251,2.389a23.87,23.87,0,0,1,1.623-4.237A4.779,4.779,0,0,1,83.2,71.619a5.027,5.027,0,0,1,4.016,2.347,19.066,19.066,0,0,1,3.311,8.607c.038.3.073.593.108.891a17.491,17.491,0,0,0,.588,3.244c.506,1.6,1.2,1.607,1.426,1.607h0a2.793,2.793,0,0,0,1.411-.535,14.569,14.569,0,0,0,2.115-1.757,2.186,2.186,0,0,1,1.433-.77,1.614,1.614,0,0,1,1.468,1.93,1.916,1.916,0,0,1-1.224,1.322,7.359,7.359,0,0,0-1.628.98,6.826,6.826,0,0,1-2.355,1.262,6.224,6.224,0,0,1-1.507.21Z" transform="translate(0 0)"/>
    <path class="cls-2" d="M83.2,72.119a4.5,4.5,0,0,1,3.607,2.134,18.581,18.581,0,0,1,3.224,8.383,24.252,24.252,0,0,0,.716,4.222c.411,1.3,1.037,1.956,1.9,1.956a3.235,3.235,0,0,0,1.681-.614,14.844,14.844,0,0,0,2.19-1.816,1.765,1.765,0,0,1,1.087-.632,1.011,1.011,0,0,1,.73.382,1.191,1.191,0,0,1-.665,1.9c-1.432.551-2.393,1.84-3.926,2.224a5.756,5.756,0,0,1-1.386.195c-1.466,0-2.326-.834-2.876-2.63-.615-2.006-.459-4.1-.943-6.114a18.1,18.1,0,0,0-2.017-5.332c-.721-1.176-1.678-2.405-3.072-2.405q-.115,0-.234.011c-1.671.161-2.7,1.46-3.259,3.114a20.594,20.594,0,0,0-.8,9.183,17.061,17.061,0,0,1,.145,1.895c.006.63.048,1.37-.887,1.375h-.007c-.763,0-.726-.627-.862-1.178-.549-2.227-.682-4.529-1.452-6.728a10.251,10.251,0,0,0-2.665-4.692c-.565-.492-.89-.966-.181-1.539a1.492,1.492,0,0,1,.9-.386,1.015,1.015,0,0,1,.889.647c.843,1.6,1.733,3.177,2.516,4.9A18.054,18.054,0,0,1,79.436,74.9,4.248,4.248,0,0,1,83.2,72.119m0-1h0a5.243,5.243,0,0,0-4.675,3.365,32.917,32.917,0,0,0-1.31,3.139c-.225-.428-.45-.849-.673-1.265q-.307-.573-.61-1.145a1.968,1.968,0,0,0-1.774-1.181,2.435,2.435,0,0,0-1.53.609,1.841,1.841,0,0,0-.777,1.407,2.259,2.259,0,0,0,.93,1.664,9.491,9.491,0,0,1,2.377,4.268,23.684,23.684,0,0,1,.889,3.9c.153.9.31,1.822.536,2.738.019.075.033.153.047.229a1.8,1.8,0,0,0,1.786,1.71,1.847,1.847,0,0,0,1.368-.518,2.384,2.384,0,0,0,.527-1.8V88.17a18.111,18.111,0,0,0-.153-2.006,19.543,19.543,0,0,1,.754-8.744c.507-1.512,1.317-2.331,2.407-2.436q.07-.007.138-.007c.717,0,1.4.595,2.219,1.928a17.33,17.33,0,0,1,1.9,5.043,18.811,18.811,0,0,1,.372,2.637,17.386,17.386,0,0,0,.587,3.537c.253.825,1.023,3.336,3.832,3.336a6.693,6.693,0,0,0,1.629-.225,7.34,7.34,0,0,0,2.527-1.341,6.982,6.982,0,0,1,1.515-.919,2.415,2.415,0,0,0,1.531-1.679,2.026,2.026,0,0,0-.5-1.844,1.98,1.98,0,0,0-1.457-.7,2.675,2.675,0,0,0-1.779.91,14.061,14.061,0,0,1-2.039,1.7,2.268,2.268,0,0,1-1.141.455c-.368,0-.687-.423-.951-1.258a17.036,17.036,0,0,1-.569-3.157c-.035-.3-.07-.6-.109-.892a19.565,19.565,0,0,0-3.4-8.83A5.518,5.518,0,0,0,83.2,71.119Z" transform="translate(0 0)"/>
  </g>
  <g>
    <path class="cls-1" d="M18.307,75.375a6.087,6.087,0,0,1-1.713-.249,7.967,7.967,0,0,1-5.437-4.933c-.083-.219-.154-.444-.225-.67a2.8,2.8,0,0,0-1.346-1.992,1.292,1.292,0,0,1-.73-1.235,1.346,1.346,0,0,1,.94-1.184c.642-.226.787-.626,1.008-1.373.057-.192.115-.386.186-.577.789-2.12,2.087-4.7,5.144-5.839a5.3,5.3,0,0,1,1.831-.367,3.706,3.706,0,0,1,3.258,2.062l.19.317a8.813,8.813,0,0,1,1.356,3.1,1.74,1.74,0,0,1-1.308,2.3c-.841.286-1.687.63-2.5.964a22.319,22.319,0,0,1-5.5,1.7.611.611,0,0,0-.361.14c-.049.067-.093.237-.02.67a5.549,5.549,0,0,0,5.1,4.525,4.974,4.974,0,0,0,4.638-4.662l.021-.208c.043-.451.132-1.39,1.261-1.39a1.065,1.065,0,0,1,.82.307,2.034,2.034,0,0,1,.294,1.543C25,72.213,21.9,75.375,18.307,75.375Zm-.839-15.622a2.645,2.645,0,0,0-1.671.683,7.586,7.586,0,0,0-2.747,4.216,11.554,11.554,0,0,0,4.1-.963l.683-.251c.781-.28,1.834-.709,1.958-1.189s-.593-1.366-1.144-1.992A1.536,1.536,0,0,0,17.468,59.753Z" transform="translate(0 0)"/>
    <path class="cls-2" d="M17.964,57.457a3.206,3.206,0,0,1,2.828,1.818,9.5,9.5,0,0,1,1.484,3.241c.137.825.138,1.37-.975,1.747-2.63.892-5.093,2.272-7.905,2.643-.828.109-.938.619-.809,1.389a6.01,6.01,0,0,0,5.6,4.942h.06c2.554-.033,4.7-2.17,5.073-5.1.072-.564.01-1.161.786-1.161h.03c.53.01.642.308.586,1.323a6.793,6.793,0,0,1-6.411,6.575,5.551,5.551,0,0,1-1.571-.228,7.466,7.466,0,0,1-5.111-4.63c-.4-1.071-.525-2.3-1.819-2.935a.8.8,0,0,1,.157-1.5c1.146-.4,1.168-1.366,1.5-2.247.911-2.449,2.218-4.565,4.85-5.545a4.773,4.773,0,0,1,1.656-.336m-4.918,7.695A14.13,14.13,0,0,0,18,63.908c2.779-1,2.949-1.789,1.022-3.982a2.031,2.031,0,0,0-1.556-.673,3.126,3.126,0,0,0-1.995.8,7.939,7.939,0,0,0-3.017,5.074q.3.023.589.023m4.918-8.695a5.786,5.786,0,0,0-2.005.4c-3.247,1.21-4.612,3.913-5.438,6.134-.075.2-.136.406-.2.608-.214.723-.3.906-.695,1.044a1.838,1.838,0,0,0-1.273,1.626,1.791,1.791,0,0,0,1.01,1.713c.624.306.811.816,1.088,1.693.074.235.149.469.234.7a8.45,8.45,0,0,0,5.764,5.236,6.559,6.559,0,0,0,1.853.268c3.857,0,7.181-3.374,7.41-7.52a2.5,2.5,0,0,0-.426-1.911,1.528,1.528,0,0,0-1.14-.467h0a1.744,1.744,0,0,0-1.805,1.842c-.006.064-.012.129-.02.193-.307,2.421-2.029,4.2-4.094,4.224h0a5.032,5.032,0,0,1-4.656-4.108c-.017-.1-.025-.177-.029-.234a22.76,22.76,0,0,0,5.6-1.731c.811-.331,1.65-.673,2.478-.954a2.227,2.227,0,0,0,1.64-2.859,9.191,9.191,0,0,0-1.42-3.27l-.192-.319a4.174,4.174,0,0,0-3.687-2.305Zm-4.247,7.662a7.469,7.469,0,0,1,2.4-3.3,2.152,2.152,0,0,1,1.348-.565,1.044,1.044,0,0,1,.8.333c1,1.142,1.037,1.487,1.033,1.545-.021.036-.217.324-1.642.836-.229.082-.458.168-.688.253a12.852,12.852,0,0,1-3.259.9Z" transform="translate(0 0)"/>
  </g>
  <g>
    <path class="cls-1" d="M70.085,63.5a3.863,3.863,0,0,1-3.544-2.315,13,13,0,0,1,.486-11.416,3.4,3.4,0,0,1,3.055-1.978,4.719,4.719,0,0,1,2.782,1.024,2.551,2.551,0,0,1,.379.369c.107.121.229.259.3.259a3.524,3.524,0,0,1,.753-.1,1.424,1.424,0,0,1,1.084.417,2.655,2.655,0,0,1,.4,2,19.968,19.968,0,0,0,.03,2.21,15.861,15.861,0,0,1-.065,3.24c-.2,1.294.226,2.071,3.094,2.724a.5.5,0,0,1,.245.838,3.063,3.063,0,0,1-2.1,1.229h0c-.762,0-1.524-.452-2.854-1.457a3.359,3.359,0,0,0-.417.635,4.772,4.772,0,0,1-.465.722A4.07,4.07,0,0,1,70.085,63.5Zm.115-12.7a.726.726,0,0,0-.374.106,3.345,3.345,0,0,0-1.418,2.2,12,12,0,0,0-.144,5.626,2.27,2.27,0,0,0,1.357,1.993,1.259,1.259,0,0,0,.438.083c.6,0,1.127-.5,1.7-1.1.788-.817,1.114-3.884.853-8.005a1.894,1.894,0,0,0-.036-.267,1.838,1.838,0,0,1-.2.011,3.177,3.177,0,0,1-1.319-.375A2.3,2.3,0,0,0,70.2,50.795Z" transform="translate(0 0)"/>
    <path class="cls-2" d="M70.082,48.289a4.233,4.233,0,0,1,2.485.926c.33.245.534.726.976.726a.69.69,0,0,0,.156-.019,2.67,2.67,0,0,1,.6-.078c1.086,0,1.034,1,.98,1.89-.109,1.8.251,3.569-.03,5.4s.78,2.674,3.476,3.287c-.7.71-1.179,1.079-1.746,1.079-.669,0-1.459-.515-2.863-1.592-.642.386-.816,1.134-1.26,1.675A3.547,3.547,0,0,1,70.086,63,3.379,3.379,0,0,1,67,60.989a12.531,12.531,0,0,1,.471-10.995,2.873,2.873,0,0,1,2.608-1.706M70.06,61.3a3.123,3.123,0,0,0,2.064-1.248c1.4-1.457,1.062-7.278.991-8.384-.019-.291-.111-.785-.321-.785a.148.148,0,0,0-.042.006,1.3,1.3,0,0,1-.373.054c-.768,0-1.44-.649-2.178-.649a1.223,1.223,0,0,0-.624.172,3.84,3.84,0,0,0-1.65,2.491,12.674,12.674,0,0,0-.155,5.852,2.764,2.764,0,0,0,1.678,2.377,1.763,1.763,0,0,0,.61.113m.022-14.012h0a3.877,3.877,0,0,0-3.5,2.25,13.483,13.483,0,0,0-.5,11.838A4.369,4.369,0,0,0,70.086,64a4.56,4.56,0,0,0,3.539-1.776,5.251,5.251,0,0,0,.513-.793c.034-.062.067-.119.1-.172a4.79,4.79,0,0,0,2.739,1.248,3.578,3.578,0,0,0,2.46-1.378,1,1,0,0,0-.491-1.676c-2.938-.669-2.827-1.393-2.71-2.161a16.215,16.215,0,0,0,.07-3.338,19.59,19.59,0,0,1-.03-2.157,3.069,3.069,0,0,0-.531-2.377,1.908,1.908,0,0,0-1.447-.573,3.391,3.391,0,0,0-.627.062l-.051-.057a2.987,2.987,0,0,0-.454-.437,5.214,5.214,0,0,0-3.081-1.124ZM70.06,60.3a.77.77,0,0,1-.266-.052c-.375-.137-.833-.445-1.036-1.61a11.534,11.534,0,0,1,.131-5.4,2.854,2.854,0,0,1,1.189-1.9.228.228,0,0,1,.125-.039,2.142,2.142,0,0,1,.652.23,4.06,4.06,0,0,0,1.276.406c.257,4.318-.192,6.874-.725,7.428-.479.5-.941.942-1.344.942Z" transform="translate(0 0)"/>
  </g>
  <g>
    <path class="cls-1" d="M53.737,66.715a1.453,1.453,0,0,1-.321-.037,1.41,1.41,0,0,1-1.2-1.427A24.6,24.6,0,0,0,49.05,55.136L48.974,55c-.212-.361-.71-1.208.169-1.772a2.042,2.042,0,0,1,1.092-.346,1.633,1.633,0,0,1,1.461.954,11.2,11.2,0,0,1,.861,2.335s.066.261.076.3a9.511,9.511,0,0,1,1.284-3.46,5.443,5.443,0,0,1,4.44-2.842A5.045,5.045,0,0,1,62.6,52.913c1.643,2.693,1.807,5.746,1.966,8.7l.017.313a1.441,1.441,0,0,1-.378,1.1,1.524,1.524,0,0,1-1.124.458h0c-1.229-.065-1.189-1-1.171-1.452,0-.09.007-.182.006-.275a42.636,42.636,0,0,0-.365-4.843,4.584,4.584,0,0,0-1.325-2.885,3.2,3.2,0,0,0-2.184-.96,2.726,2.726,0,0,0-2.488,1.755,7.1,7.1,0,0,0-.692,3.261c.035.818.064,1.636.094,2.454.041,1.174.083,2.349.146,3.522a2.366,2.366,0,0,0,.058.349,1.727,1.727,0,0,1-.115,1.32A1.563,1.563,0,0,1,53.737,66.715Z" transform="translate(0 0)"/>
    <path class="cls-2" d="M58.358,50.67a4.572,4.572,0,0,1,3.817,2.5c1.633,2.678,1.746,5.751,1.91,8.779a.94.94,0,0,1-1,1.029l-.07,0c-.771-.042-.586-.639-.6-1.232a43.236,43.236,0,0,0-.369-4.9,5.128,5.128,0,0,0-1.475-3.18,3.672,3.672,0,0,0-2.53-1.1A3.234,3.234,0,0,0,55.1,54.614a7.573,7.573,0,0,0-.738,3.49c.088,1.993.134,3.988.24,5.98.025.466.287.916.01,1.39-.216.371-.433.741-.876.741a.952.952,0,0,1-.21-.025.927.927,0,0,1-.809-.978,24.969,24.969,0,0,0-3.231-10.321c-.236-.422-.606-.9-.073-1.238a1.541,1.541,0,0,1,.822-.267,1.125,1.125,0,0,1,1.017.683,10.882,10.882,0,0,1,.823,2.232,3.983,3.983,0,0,0,.813,1.813,11.186,11.186,0,0,1,1.452-4.833,4.926,4.926,0,0,1,4.019-2.611m0-1h0a5.929,5.929,0,0,0-4.863,3.074,8.8,8.8,0,0,0-.9,1.891,9.968,9.968,0,0,0-.455-1.025,2.116,2.116,0,0,0-1.905-1.224,2.536,2.536,0,0,0-1.362.426c-.585.375-1.117,1.1-.331,2.444l.072.124a24.1,24.1,0,0,1,3.106,9.911A1.921,1.921,0,0,0,53.3,67.166a1.957,1.957,0,0,0,.432.05,2.03,2.03,0,0,0,1.74-1.237,2.211,2.211,0,0,0,.172-1.676,2.142,2.142,0,0,1-.047-.271c-.062-1.167-.1-2.335-.145-3.5-.029-.823-.058-1.646-.095-2.468a6.52,6.52,0,0,1,.649-3.032,2.246,2.246,0,0,1,2.033-1.462,2.7,2.7,0,0,1,1.837.821,4.119,4.119,0,0,1,1.176,2.588,42.411,42.411,0,0,1,.361,4.786c0,.083,0,.166-.006.247-.063,1.553.806,1.928,1.547,1.968.042,0,.083,0,.124,0a2.045,2.045,0,0,0,1.486-.614,1.953,1.953,0,0,0,.515-1.469l-.017-.307c-.162-3.016-.329-6.135-2.038-8.938a5.594,5.594,0,0,0-4.671-2.982Z" transform="translate(0 0)"/>
  </g>
  <g>
    <path class="cls-1" d="M40.8,35.845a1.881,1.881,0,0,1-.883-.232,4.1,4.1,0,0,1-1.66-1.767,31.577,31.577,0,0,1-1.476-3.065l-.059-.149c-.184-.468-.271-.662-.609-.756-.262-.074-1.054-.3-1.2-.962s.481-1.2.688-1.375c.105-.091.105-.276,0-.55a6.894,6.894,0,0,1-.319-2.713c0-.184.007-.367.007-.549,0-.645-.1-.645-.3-.645a1.447,1.447,0,0,0-.2.015,1.578,1.578,0,0,1-.212.015A1.226,1.226,0,0,1,33.344,22.1a1.594,1.594,0,0,1,.852-1.631c1.058-.783,2.869-1.169,5.416-1.169l.42,0a8.969,8.969,0,0,1,4.9,1.251,3.673,3.673,0,0,1,1.944,3.368,3.307,3.307,0,0,1-2.24,2.716c-.648.253-1.29.525-1.932.8-.831.353-1.662.705-2.508,1.017l-.1.036a4.2,4.2,0,0,0-1.211.55,4.622,4.622,0,0,0,.461,1.424A19.413,19.413,0,0,0,40.2,32.37c.288.534.445.761.781.771.459.014,1.088.032,1.392.5a1.1,1.1,0,0,1,.021,1.055A1.736,1.736,0,0,1,40.8,35.845Zm-.521-13.961c-.343,0-.688.012-1.033.024-.308.011-.615.021-.922.024-.116,0-.209,0-.258.32-.034.22-.072.44-.111.662a5.691,5.691,0,0,0,.159,3.64l1.016-.389c1.168-.447,2.275-.871,3.377-1.308a5.1,5.1,0,0,0,.949-.518c.838-.563.884-.747.885-.778s-.056-.222-.826-.8A5.1,5.1,0,0,0,40.283,21.883Z" transform="translate(0 0)"/>
    <path class="cls-2" d="M40.034,19.8a8.532,8.532,0,0,1,4.628,1.176c2.488,1.558,2.164,4.268-.212,5.194-1.486.58-2.934,1.259-4.43,1.811-1.927.711-1.946.678-1.139,2.667a19.679,19.679,0,0,0,.883,1.959c.259.479.538,1.013,1.207,1.033.587.017,1.3.044.963.865a1.238,1.238,0,0,1-1.129.839,1.385,1.385,0,0,1-.649-.174A3.645,3.645,0,0,1,38.7,33.611a31.247,31.247,0,0,1-1.453-3.017c-.217-.539-.346-1.018-1-1.2-.955-.268-1.18-.745-.324-1.475a.935.935,0,0,0,.142-1.112,8.293,8.293,0,0,1-.279-3.081c0-.687-.124-1.145-.8-1.145a1.961,1.961,0,0,0-.262.019,1.074,1.074,0,0,1-.145.01.722.722,0,0,1-.748-.61c-.119-.568.306-.864.691-1.149.927-.688,2.659-1.049,5.091-1.049h.143l.276,0m-2.145,7.375c1.714-.659,3.265-1.245,4.806-1.855a5.615,5.615,0,0,0,1.043-.568c1.475-.99,1.449-1.368.079-2.392a5.56,5.56,0,0,0-3.534-.977c-.65,0-1.308.042-1.96.048-.45,0-.675.278-.747.743-.252,1.631-.746,3.267.312,5M40.034,18.8h0l-.3,0h-.123c-2.659,0-4.572.419-5.687,1.246a2.09,2.09,0,0,0-1.074,2.158,1.71,1.71,0,0,0,1.726,1.4,2.054,2.054,0,0,0,.207-.011c0,.037,0,.079,0,.127,0,.18,0,.361-.007.542a7.385,7.385,0,0,0,.354,2.9c.014.035.023.064.03.088a1.841,1.841,0,0,0-.738,1.764,1.914,1.914,0,0,0,1.553,1.336c.095.027.112.032.279.457l.061.153a31.693,31.693,0,0,0,1.5,3.114,4.592,4.592,0,0,0,1.868,1.973,2.372,2.372,0,0,0,1.117.29,2.226,2.226,0,0,0,2.055-1.462,1.567,1.567,0,0,0-.064-1.517,2.052,2.052,0,0,0-1.8-.725c-.106-.046-.262-.334-.345-.488a19,19,0,0,1-.847-1.88c-.144-.354-.3-.743-.38-.99.208-.093.538-.215.84-.326l.1-.036c.86-.317,1.709-.677,2.529-1.025.637-.27,1.274-.541,1.918-.792a3.8,3.8,0,0,0,2.557-3.136,4.16,4.16,0,0,0-2.177-3.838A9.443,9.443,0,0,0,40.034,18.8Zm-1.452,3.449h0Zm-.034.179c.24,0,.478-.013.717-.021.34-.012.68-.024,1.018-.024a4.653,4.653,0,0,1,2.935.778c.228.17.379.3.479.385-.107.088-.269.21-.517.376a4.608,4.608,0,0,1-.854.469c-1.115.442-2.235.87-3.419,1.323l-.508.195A6.045,6.045,0,0,1,38.452,23c.033-.19.066-.38.1-.569Z" transform="translate(0 0)"/>
  </g>
  <g>
    <path class="cls-1" d="M5.962,45.836a4.448,4.448,0,0,1-.475-.025,2.487,2.487,0,0,1-.935-.36l-.1-.058a1.389,1.389,0,0,1-.726-1.529,1.2,1.2,0,0,1,1.213-1,1.374,1.374,0,0,1,.29.031,4.266,4.266,0,0,0,.882.095A7.569,7.569,0,0,0,10.149,41.3,4.49,4.49,0,0,0,11.9,39.177a1.427,1.427,0,0,0,.137-1.044,1.237,1.237,0,0,0-.8-.481A18.34,18.34,0,0,0,6.157,37.1a9.306,9.306,0,0,1-1,.055A6.743,6.743,0,0,1,2.915,36.8,3.471,3.471,0,0,1,.687,35.05,2.932,2.932,0,0,1,.866,32.63,16.733,16.733,0,0,1,5.29,26.787,2.271,2.271,0,0,1,6.8,26.245c.058,0,.116,0,.175.005a1.391,1.391,0,0,1,1.368.965,1.22,1.22,0,0,1-.062.955,1.246,1.246,0,0,1-.774.6c-1.84.546-2.725,2.055-3.661,3.652l-.271.459c-.268.45-.367.82-.273,1.017s.419.34.921.414a36.146,36.146,0,0,0,3.684.281c.5.021,1,.042,1.5.072a7.263,7.263,0,0,1,3.873,1.169A3.061,3.061,0,0,1,14.6,39.27c-.716,3.068-5.317,6.566-8.639,6.566Z" transform="translate(0 0)"/>
    <path class="cls-2" d="M6.8,26.745q.071,0,.144,0a.914.914,0,0,1,.922.618.68.68,0,0,1-.5.923c-2.219.659-3.166,2.567-4.218,4.335-.728,1.222-.417,1.974,1,2.182,1.723.252,3.482.255,5.226.357a6.686,6.686,0,0,1,3.612,1.079,2.572,2.572,0,0,1,1.123,2.914c-.673,2.888-5.087,6.179-8.152,6.179a3.927,3.927,0,0,1-.421-.022,2.479,2.479,0,0,1-.853-.36.883.883,0,0,1-.473-1,.694.694,0,0,1,.721-.588.9.9,0,0,1,.186.019,4.724,4.724,0,0,0,.986.106,7.921,7.921,0,0,0,4.318-1.776,5.016,5.016,0,0,0,1.934-2.355c.477-1.194.223-1.841-.99-2.191A18.782,18.782,0,0,0,6.156,36.6a9.786,9.786,0,0,1-1,.055,6.281,6.281,0,0,1-2.074-.325C1.237,35.69.531,34.565,1.32,32.838a16.276,16.276,0,0,1,4.293-5.67,1.774,1.774,0,0,1,1.19-.424m0-1a2.762,2.762,0,0,0-1.836.661A17.227,17.227,0,0,0,.411,32.423a3.405,3.405,0,0,0-.184,2.824,3.937,3.937,0,0,0,2.525,2.025,7.239,7.239,0,0,0,2.4.38c.335,0,.681-.018,1.053-.055a17.752,17.752,0,0,1,4.887.536,1.094,1.094,0,0,1,.494.226,1.4,1.4,0,0,1-.155.633,4,4,0,0,1-1.56,1.893,7.1,7.1,0,0,1-3.764,1.608,3.753,3.753,0,0,1-.778-.084,1.894,1.894,0,0,0-.394-.041,1.686,1.686,0,0,0-1.7,1.406,1.891,1.891,0,0,0,.977,2.058l.1.054a2.939,2.939,0,0,0,1.127.422,4.924,4.924,0,0,0,.528.028c3.578,0,8.354-3.639,9.126-6.952a3.562,3.562,0,0,0-1.519-3.958,7.723,7.723,0,0,0-4.131-1.261c-.5-.029-1.007-.051-1.511-.072A35.217,35.217,0,0,1,4.3,33.817a1.607,1.607,0,0,1-.523-.144,1.678,1.678,0,0,1,.233-.536l.272-.461C5.2,31.1,6,29.739,7.651,29.248A1.756,1.756,0,0,0,8.726,28.4a1.725,1.725,0,0,0,.1-1.339,1.9,1.9,0,0,0-1.815-1.314q-.1-.006-.2-.006Z" transform="translate(0 0)"/>
  </g>
  <g>
    <path class="cls-1" d="M67.188,90.418a6.539,6.539,0,0,1-1-.075,5.177,5.177,0,0,1-3.974-4.154,13.032,13.032,0,0,1,.835-7.539A4.568,4.568,0,0,1,65.5,76.381a1.4,1.4,0,0,1,.632-.16,1.283,1.283,0,0,1,1.047.575,1.386,1.386,0,0,1-.071,1.7,4.268,4.268,0,0,1-.646.648l-.1.09c-1.892,1.66-2.894,5.116-1.352,7.083a3.291,3.291,0,0,0,2.525,1.507,4.077,4.077,0,0,0,2.739-6.642.827.827,0,0,0-.754-.416,2.484,2.484,0,0,0-1.285.471,4.007,4.007,0,0,0-.348.268,2.017,2.017,0,0,1-1.214.6,1.131,1.131,0,0,1-.905-.49,1.305,1.305,0,0,1-.312-1,2.042,2.042,0,0,1,1-1.246,3.222,3.222,0,0,0,.345-.267,3.762,3.762,0,0,1,2.6-1.14,3.724,3.724,0,0,1,3.25,2.206,7.853,7.853,0,0,1-.063,7.545c-.787,1.565-3.059,2.7-5.4,2.7Z" transform="translate(0 0)"/>
    <path class="cls-2" d="M66.137,76.721a.783.783,0,0,1,.64.368.894.894,0,0,1-.064,1.108,4.679,4.679,0,0,1-.68.663c-2.109,1.851-3.126,5.584-1.415,7.767a3.734,3.734,0,0,0,2.92,1.7,4.724,4.724,0,0,0,3.745-2.643,4.79,4.79,0,0,0-.582-4.762,1.323,1.323,0,0,0-1.178-.653,2.96,2.96,0,0,0-1.558.552c-.417.271-.856.79-1.288.79a.646.646,0,0,1-.511-.3c-.713-.914.5-1.384.987-1.847a3.015,3.015,0,0,1,5.06.939,7.345,7.345,0,0,1-.068,7.086c-.726,1.446-2.9,2.427-4.956,2.427a6.018,6.018,0,0,1-.92-.069A4.665,4.665,0,0,1,62.709,86.1a12.61,12.61,0,0,1,.8-7.257,4.1,4.1,0,0,1,2.219-2.02.9.9,0,0,1,.407-.106m0-1h0a1.894,1.894,0,0,0-.857.213,5.06,5.06,0,0,0-2.687,2.517,13.511,13.511,0,0,0-.87,7.819,5.626,5.626,0,0,0,4.391,4.566,7.031,7.031,0,0,0,1.074.081c2.523,0,4.983-1.253,5.85-2.978a8.325,8.325,0,0,0,.058-8A4.261,4.261,0,0,0,69.4,77.465a3.833,3.833,0,0,0-1.472.3,1.82,1.82,0,0,0-.343-1.256,1.767,1.767,0,0,0-1.452-.785Zm.539,6.889a2.437,2.437,0,0,0,1.53-.717,3.619,3.619,0,0,1,.3-.234,1.951,1.951,0,0,1,1.013-.39.33.33,0,0,1,.329.18,3.584,3.584,0,0,1-2.314,5.877A2.832,2.832,0,0,1,65.4,86.01a4.331,4.331,0,0,1-.185-4.31,2.356,2.356,0,0,0,.156.226,1.613,1.613,0,0,0,1.3.683Z" transform="translate(0 0)"/>
  </g>
  <g>
    <path class="cls-1" d="M83.074,60.822a6.453,6.453,0,0,1-2.729-.538,4.181,4.181,0,0,1-2.377-4.443,10.812,10.812,0,0,1,3.626-7.179,2.344,2.344,0,0,1,1.477-.789A1.342,1.342,0,0,1,84.347,49.2a1.963,1.963,0,0,1-.912,1.282l-.078.063a10.239,10.239,0,0,0-2.479,3.48,2.709,2.709,0,0,0,.158,3.228,2.765,2.765,0,0,0,2.29,1.089,4.581,4.581,0,0,0,.879-.091,13.758,13.758,0,0,0,3.465-1.357l.494-.245a7.92,7.92,0,0,1,1.009-.442.784.784,0,0,1,.2-.031,1.091,1.091,0,0,1,.744.388.959.959,0,0,1,.051,1.253c-1.3,1.741-4.28,3.005-7.09,3.005Z" transform="translate(0 0)"/>
    <path class="cls-2" d="M83.07,48.373a.719.719,0,0,1,.528.243c.636.656-.082,1.16-.556,1.541a10.632,10.632,0,0,0-2.61,3.639,3.2,3.2,0,0,0,.213,3.77,3.269,3.269,0,0,0,2.68,1.276,5.07,5.07,0,0,0,.976-.1,16,16,0,0,0,3.968-1.588,8.443,8.443,0,0,1,1.061-.473.121.121,0,0,1,.038-.006.61.61,0,0,1,.361.209.468.468,0,0,1,.033.632c-1.255,1.682-4.178,2.8-6.689,2.8a5.935,5.935,0,0,1-2.514-.49,3.711,3.711,0,0,1-2.092-3.96,10.285,10.285,0,0,1,3.469-6.844,1.95,1.95,0,0,1,1.134-.654m0-1a2.791,2.791,0,0,0-1.818.925,11.3,11.3,0,0,0-3.782,7.5,4.674,4.674,0,0,0,2.661,4.941,6.851,6.851,0,0,0,2.942.587c2.534,0,5.921-1.1,7.491-3.207a1.469,1.469,0,0,0-.068-1.873,1.57,1.57,0,0,0-1.127-.566,1.254,1.254,0,0,0-.353.057,8.26,8.26,0,0,0-1.083.473l-.106.053-.378.188a13.418,13.418,0,0,1-3.34,1.315,4.093,4.093,0,0,1-.783.082,2.263,2.263,0,0,1-1.9-.9,2.21,2.21,0,0,1-.106-2.685,9.871,9.871,0,0,1,2.349-3.32l.076-.061a2.389,2.389,0,0,0,1.1-1.642,1.84,1.84,0,0,0-1.776-1.861Z" transform="translate(0 0)"/>
  </g>
  <g>
    <path class="cls-1" d="M28.78,71.581a1.527,1.527,0,0,1-.207-.014,1.759,1.759,0,0,1-1.453-1.511q-.567-2.177-1.149-4.349-.612-2.3-1.216-4.605c-.052-.2-.089-.406-.126-.61a2.569,2.569,0,0,0-.427-1.212,1.944,1.944,0,0,1,.231-2.527l.135-.2a1.122,1.122,0,0,1,.65-.412.844.844,0,0,1,.3-.068l.038,0a1.433,1.433,0,0,1,1.111.8,2.974,2.974,0,0,1,.356,1.823c0,.121-.01.242-.01.361a24.491,24.491,0,0,0,1.845,8.092,2.714,2.714,0,0,0,.943,1.334,1.5,1.5,0,0,1,.376,2.121,1.663,1.663,0,0,1-1.4.977Z" transform="translate(0 0)"/>
    <path class="cls-2" d="M25.5,56.571a1,1,0,0,1,.781.62,3.33,3.33,0,0,1,.239,1.866,25.233,25.233,0,0,0,1.889,8.307,3.168,3.168,0,0,0,1.09,1.513,1.013,1.013,0,0,1,.255,1.47c-.23.384-.5.734-.975.734a1.076,1.076,0,0,1-.141-.01c-.66-.088-.883-.557-1.035-1.141-.778-2.988-1.589-5.966-2.365-8.954a4.77,4.77,0,0,0-.646-2.007c-.642-.809-.035-1.491.393-2.141.105-.16.393-.2.515-.256m0-1a1,1,0,0,0-.387.078l-.041.013a1.6,1.6,0,0,0-.921.615l-.13.193a2.442,2.442,0,0,0-.21,3.12,2.144,2.144,0,0,1,.327.99c.039.216.078.433.134.647q.6,2.3,1.215,4.6.579,2.176,1.15,4.353a2.259,2.259,0,0,0,1.871,1.881,2.075,2.075,0,0,0,.273.018,2.159,2.159,0,0,0,1.832-1.22,2.01,2.01,0,0,0-.5-2.772,2.159,2.159,0,0,1-.762-1.055,24.27,24.27,0,0,1-1.833-7.977c0-.113,0-.228.009-.342a3.4,3.4,0,0,0-.4-2.047l-.033-.054a1.917,1.917,0,0,0-1.48-1.035,1,1,0,0,0-.12-.007Z" transform="translate(0 0)"/>
  </g>
  <g>
    <path class="cls-1" d="M102.866,29.62a14.069,14.069,0,0,1-2.3-.185,4.344,4.344,0,0,1-2.6-1.755c-.2-.23-.4-.459-.611-.663a53.067,53.067,0,0,1-3.719-4.064c-.47-.551-.939-1.1-1.418-1.645l-.131-.145a3.526,3.526,0,0,1-.529-.694,1.726,1.726,0,0,1,.288-2.35,1.547,1.547,0,0,1,1.013-.414,2.074,2.074,0,0,1,1.325.633l.2.177c.806.719,1.639,1.462,2.5,2.115l.181.141a1.42,1.42,0,0,0,.643.371.345.345,0,0,0,.229-.108c.277-.236.251-.5.024-1.235-.429-1.385-.84-2.776-1.252-4.167-.372-1.26-.745-2.521-1.131-3.777a6.624,6.624,0,0,1-.314-2.289A1.529,1.529,0,0,1,96.695,7.94l.145-.007c.853,0,1.078.712,1.213,1.137l.037.114c.159.488.36.958.573,1.454-.022-.119-.046-.238-.069-.357a15.274,15.274,0,0,1-.248-1.514,1.474,1.474,0,0,1,.9-1.712,1.563,1.563,0,0,1,.549-.1,2.118,2.118,0,0,1,1.25.5,2.6,2.6,0,0,1,.945,1.583A1.619,1.619,0,0,1,103.5,7.869c.061-.005.12-.008.179-.008a1.48,1.48,0,0,1,1.527,1.365,10.031,10.031,0,0,1,.091,1.748,7.133,7.133,0,0,0,.34,2.605,13.713,13.713,0,0,0-.1-2.23l-.051-.509a1.692,1.692,0,0,1,.62-1.746,1.5,1.5,0,0,1,.841-.255,2.336,2.336,0,0,1,1.021.279,1.648,1.648,0,0,1,.81,1.377c.043.264.1.529.152.793a9.289,9.289,0,0,1,.252,1.875,38.185,38.185,0,0,0,1.255,8.865,7.727,7.727,0,0,1-.11,4.522,3.5,3.5,0,0,1-2.453,2.421,23.092,23.092,0,0,1-5.008.649Z" transform="translate(0 0)"/>
    <path class="cls-2" d="M99.8,7.452a1.608,1.608,0,0,1,.947.4,2.375,2.375,0,0,1,.831,1.659c.25,1.488.6,2.964.762,4.46a2.076,2.076,0,0,0,1.133,1.766c-.291-1.473-.6-2.943-.865-4.42a8.126,8.126,0,0,1-.173-1.9,1.11,1.11,0,0,1,1.113-1.051c.047,0,.092-.006.136-.006a.978.978,0,0,1,1.032.934,9.5,9.5,0,0,1,.086,1.659,8.07,8.07,0,0,0,1.061,4.4,11.649,11.649,0,0,0,.126-4.558c-.045-.492-.071-.972.4-1.283a1,1,0,0,1,.564-.172,1.863,1.863,0,0,1,.8.228c.4.195.472.611.536,1.009a16.5,16.5,0,0,1,.4,2.587,38,38,0,0,0,1.268,8.983,7.3,7.3,0,0,1-.1,4.24,3,3,0,0,1-2.09,2.1,22.39,22.39,0,0,1-4.9.637,13.433,13.433,0,0,1-2.215-.178c-1.453-.242-2.075-1.459-2.946-2.287-1.839-1.748-3.421-3.767-5.106-5.677A4.177,4.177,0,0,1,92,20.234a1.265,1.265,0,0,1,.171-1.733,1.054,1.054,0,0,1,.689-.294,1.59,1.59,0,0,1,.993.506c.892.8,1.782,1.6,2.735,2.318.327.246.7.612,1.124.612a.842.842,0,0,0,.553-.227c.568-.482.379-1.117.179-1.764-.817-2.641-1.572-5.3-2.383-7.943a6.159,6.159,0,0,1-.292-2.119c.029-.638.3-1.09.968-1.153q.052,0,.1,0c.533,0,.626.454.774.907.491,1.5,1.373,2.862,1.508,4.5a2.011,2.011,0,0,0,.87,1.5c.127-1.549-.52-2.874-.743-4.263-.126-.787-.329-1.566-.405-2.357a1.036,1.036,0,0,1,.577-1.2,1.061,1.061,0,0,1,.375-.07m0-1h0a2.065,2.065,0,0,0-.725.133,1.829,1.829,0,0,0-1.145,1.248,1.529,1.529,0,0,0-1.087-.4c-.061,0-.125,0-.192.009a2.014,2.014,0,0,0-1.873,2.1A7.147,7.147,0,0,0,95.109,12c.386,1.258.76,2.52,1.133,3.781.411,1.389.823,2.779,1.251,4.163a3.463,3.463,0,0,1,.155.633c-.087-.059-.191-.142-.264-.2s-.128-.1-.189-.148c-.851-.641-1.677-1.378-2.476-2.091l-.2-.174a2.522,2.522,0,0,0-1.658-.76,2.035,2.035,0,0,0-1.339.534,2.205,2.205,0,0,0-.4,2.964,3.9,3.9,0,0,0,.6.8l.123.136c.478.541.947,1.092,1.416,1.642a53.235,53.235,0,0,0,3.75,4.1c.191.182.38.4.579.629a4.816,4.816,0,0,0,2.891,1.92,14.52,14.52,0,0,0,2.379.192,23.559,23.559,0,0,0,5.117-.661,3.99,3.99,0,0,0,2.816-2.745,8.3,8.3,0,0,0,.124-4.8,37.67,37.67,0,0,1-1.24-8.747,9.715,9.715,0,0,0-.264-1.978c-.053-.257-.106-.513-.147-.77a2.125,2.125,0,0,0-1.083-1.746,2.848,2.848,0,0,0-1.241-.33,1.99,1.99,0,0,0-1.117.338,2.112,2.112,0,0,0-.2.148,1.95,1.95,0,0,0-1.953-1.464q-.107,0-.22.009a2.294,2.294,0,0,0-1.348.554,2.791,2.791,0,0,0-.765-.874,2.583,2.583,0,0,0-1.551-.6Z" transform="translate(0 0)"/>
  </g>
</svg>
