<svg id="Layer_1" data-name="Layer 1" xmlns="http://www.w3.org/2000/svg" viewBox="0 0 148.394 88.051">
  <defs>
    <style>
      .cls-1 {
        fill: #0000b8;
      }

      .cls-2 {
        fill: #fff;
      }
    </style>
  </defs>
  <title>6c9281ec-8534-4527-9d8c-5f80c53933b6</title>
  <g>
    <path class="cls-1" d="M82.427,82.156c-.645,0-1.107-.465-1.373-1.382a2.191,2.191,0,0,1-.069-.47,1.356,1.356,0,0,0-.03-.252.187.187,0,0,0-.332-.168,6.725,6.725,0,0,1-3.36.962,6.458,6.458,0,0,1-3.062-.811.435.435,0,0,0-.2-.061,1.087,1.087,0,0,0-.441.172,2.8,2.8,0,0,1-.519.233,4.644,4.644,0,0,1-1.333.195,4.105,4.105,0,0,1-3.774-2.222c-.227-.506-.759-1.691.486-2.31l0,0a9.985,9.985,0,0,1-2.02-1.767,2.151,2.151,0,0,1-.63-1.548,1.543,1.543,0,0,1,.582-1.072l.333-.28C68.07,70.2,69.5,68.986,71.517,68.72a5.3,5.3,0,0,1,.686-.065,1.179,1.179,0,0,1,1.264,1.3,2.094,2.094,0,0,1-.5,1.538,1.31,1.31,0,0,1-.961.4,1.709,1.709,0,0,1-.352-.038,3.1,3.1,0,0,0-.646-.073,2.275,2.275,0,0,0-1.564.639.868.868,0,0,0-.373.588c.009.165.179.315.32.412,1.19.817,2.442,1.533,3.618,2.185a.33.33,0,0,0,.147.052c.039,0,.111-.1.148-.289a6.592,6.592,0,0,1,1.328-2.615,12.205,12.205,0,0,0,.7-1.041A3.039,3.039,0,0,1,78.214,70.2c.235,0,.476.014.719.036a1.235,1.235,0,0,1,.688.294,1.456,1.456,0,0,1,.22-.62,1.813,1.813,0,0,1,1.419-.717c.935,0,1.132.866,1.239,1.332l.031.134a5.615,5.615,0,0,1,.1,1.413,3.6,3.6,0,0,0,.279,1.8c1.793-.433,1.78-.554,1.552-2.64l-.02-.176a7.349,7.349,0,0,1-.063-.833A1.363,1.363,0,0,1,85.63,68.7l.126,0c.882,0,1.065.763,1.163,1.172l.038.153a10.425,10.425,0,0,1,.321,2.731v.109a1.177,1.177,0,0,0,.029.389.728.728,0,0,0,.22.039.7.7,0,0,0,.551-.306,2.408,2.408,0,0,0,.233-.437,3.33,3.33,0,0,1,.325-.6,3.987,3.987,0,0,1,3.094-1.91,3.588,3.588,0,0,1,3.055,2.188c.036-.045.078-.1.12-.145a1.514,1.514,0,0,1,1.124-.691,1.274,1.274,0,0,1,.659.2,1.244,1.244,0,0,1,.288,1.935,2.387,2.387,0,0,0-.174.323,4.363,4.363,0,0,0,.106,3.358c.131.327.221.327.259.327.123-.017.183-.05.314-.357a19.644,19.644,0,0,0,1.031-3.634c.1-.441.191-.883.3-1.322a2.55,2.55,0,0,0,.05-.459,2.994,2.994,0,0,1,.108-.756,1.56,1.56,0,0,1,1.479-1.216,1.777,1.777,0,0,1,.356.038,1.744,1.744,0,0,1,1.219.855,1.431,1.431,0,0,1,.037,1.244,7.452,7.452,0,0,0-.388,3.113l.006.458c.009,1.237.168,2.008.984,2.542a1.515,1.515,0,0,1,.742.948,1.19,1.19,0,0,1-.266.936,1.635,1.635,0,0,1-1.34.7,2.608,2.608,0,0,1-.971-.215,2.075,2.075,0,0,1-1.053-1.143c-.051-.1-.1-.2-.155-.292-.045.073-.089.149-.134.227a2.425,2.425,0,0,1-1.307,1.265,2.326,2.326,0,0,1-.719.114,4,4,0,0,1-1.786-.552l-.135-.067h-.017a.745.745,0,0,0-.3.125,2.606,2.606,0,0,1-1.282.383,1.458,1.458,0,0,1-1.193-.6c-.319-.416-.53-.416-.6-.416a2.209,2.209,0,0,0-.93.417l-.26.158a3.6,3.6,0,0,1-1.8.571,2.015,2.015,0,0,1-1.756-1,3.573,3.573,0,0,0,.151.409,1.271,1.271,0,0,1-.516,1.664,1.343,1.343,0,0,1-.713.215,1.715,1.715,0,0,1-1.176-.586,2.574,2.574,0,0,1-.632-1.892c-.012-.316-.039-.633-.064-.949s-.053-.638-.066-.958c-.016-.39-.012-.781-.008-1.169V76.25a3.379,3.379,0,0,0-.5-.042.8.8,0,0,0-.635.194c-.184.231-.179.776.014,1.622a9.959,9.959,0,0,0,.559,1.727,1.858,1.858,0,0,1,.1,1.433,1.54,1.54,0,0,1-.862.836A1.567,1.567,0,0,1,82.427,82.156ZM79.916,72.083a1.372,1.372,0,0,1-.5.494,6.59,6.59,0,0,1-1.1.482A3.8,3.8,0,0,0,75.748,77a1.068,1.068,0,0,0,.887,1.095,3.742,3.742,0,0,0,.862.1,5.8,5.8,0,0,0,2.857-.9,2.1,2.1,0,0,0-.312-.286c-.7-.549-1.086-.853-1.114-1.349-.028-.512.379-.912,1-1.516.269-.264.248-.5.178-.972-.02-.137-.04-.274-.049-.41A3.281,3.281,0,0,0,79.916,72.083Zm-9.694,4.97a1.888,1.888,0,0,0,.562.514l.136.1a.486.486,0,0,0,.06.038c-.011-.015-.024-.034-.042-.056a2.868,2.868,0,0,0-.732-.629ZM91.2,73.392c-.442,0-.826.9-1.056,1.443a2.878,2.878,0,0,0-.291,1.565,1.689,1.689,0,0,1,0,.4c-.033.405,0,.417.115.458h.027c.215,0,.4-.2.561-.375.092-.1.183-.2.276-.283a1.906,1.906,0,0,0,.692-1.111c.022-.16.054-.329.087-.5.191-1.019.187-1.407-.216-1.554A.563.563,0,0,0,91.2,73.392Zm-4.1,2.722c-.1.022-.217.148-.111.875v-.011a3.808,3.808,0,0,1,.109-.459,2.98,2.98,0,0,0,.094-.4A.9.9,0,0,0,87.1,76.114Z" transform="translate(0 0)"/>
    <path class="cls-2" d="M72.2,69.155c.415,0,.745.149.764.817.02.723-.267,1.422-.961,1.422a1.21,1.21,0,0,1-.249-.027,3.624,3.624,0,0,0-.749-.084,2.775,2.775,0,0,0-1.893.761c-.7.607-.753,1.279-.009,1.79,1.173.806,2.413,1.519,3.659,2.21a.809.809,0,0,0,.39.114c.328,0,.559-.277.639-.694.267-1.39,1.3-2.341,1.969-3.5A2.554,2.554,0,0,1,78.214,70.7c.221,0,.446.013.673.034a.794.794,0,0,1,.676.608.762.762,0,0,1-.4.807,6.711,6.711,0,0,1-1.082.468,4.288,4.288,0,0,0-2.836,4.431,1.565,1.565,0,0,0,1.269,1.535,4.216,4.216,0,0,0,.977.114,6.442,6.442,0,0,0,3.124-.979c.6-.338.114-.8-.27-1.1-1.2-.942-1.237-.977-.077-2.115.585-.574.318-1.184.278-1.773a10.077,10.077,0,0,0-.394-1.61,1.043,1.043,0,0,1,.9-1.4,1.126,1.126,0,0,1,.206-.02c.592,0,.665.587.784,1.083.276,1.148-.259,2.417.63,3.663,2.575-.611,2.574-.611,2.284-3.266a8.982,8.982,0,0,1-.08-.954c0-.535.233-.969.792-1.015.03,0,.058,0,.085,0,.552,0,.6.486.717.952a9.949,9.949,0,0,1,.3,2.6c0,.381-.059.86.431,1a1.149,1.149,0,0,0,1.266-.46c.236-.312.333-.728.564-1.046a3.485,3.485,0,0,1,2.69-1.7c1.047,0,2.046.74,2.754,2.2a.263.263,0,0,0,.214.139.364.364,0,0,0,.2-.079c.384-.269.645-.9,1.128-.9a.775.775,0,0,1,.4.129c.831.5.126,1.1-.092,1.646a4.868,4.868,0,0,0,.107,3.729c.136.341.338.642.723.642a.845.845,0,0,0,.146-.013c.343-.06.494-.335.628-.647a30.808,30.808,0,0,0,1.354-5.036c.092-.384.032-.81.149-1.183a1.067,1.067,0,0,1,1-.866,1.253,1.253,0,0,1,.255.027,1.037,1.037,0,0,1,.9,1.415,9.1,9.1,0,0,0-.422,3.769,3.15,3.15,0,0,0,1.21,2.957c.413.271.754.627.349,1.165a1.124,1.124,0,0,1-.94.5,2.148,2.148,0,0,1-.785-.179c-.743-.3-.741-1.2-1.394-1.769-.6.528-.737,1.537-1.6,1.814a1.823,1.823,0,0,1-.565.09,3.975,3.975,0,0,1-1.7-.567.566.566,0,0,0-.253-.061c-.3,0-.56.252-.842.358a2.112,2.112,0,0,1-.727.16.953.953,0,0,1-.8-.4,1.265,1.265,0,0,0-1-.612A3.239,3.239,0,0,0,90.7,79.6a3.117,3.117,0,0,1-1.547.5c-1.02,0-1.677-.831-1.727-2.334a4.03,4.03,0,0,1,.06-.715c.082-.56.6-1.438-.385-1.438h-.023c-.766.01-.666.955-.562,1.585a11.96,11.96,0,0,0,.575,3.012.777.777,0,0,1-.322,1.037.846.846,0,0,1-.45.14,1.233,1.233,0,0,1-.824-.44,2.118,2.118,0,0,1-.485-1.556c-.024-.637-.1-1.272-.13-1.909-.023-.551,0-1.1,0-1.647a4.7,4.7,0,0,0-1-.128c-1.315,0-1.451.93-1.108,2.427a10.467,10.467,0,0,0,.587,1.813c.311.718.173,1.321-.5,1.611a1.066,1.066,0,0,1-.418.1c-.5,0-.741-.5-.893-1.021-.066-.227-.036-.481-.1-.71-.106-.4-.314-.618-.607-.618a.936.936,0,0,0-.457.144,6.209,6.209,0,0,1-3.111.9,5.938,5.938,0,0,1-2.826-.752.921.921,0,0,0-.44-.12c-.409,0-.724.312-1.1.426a4.133,4.133,0,0,1-1.188.174,3.589,3.589,0,0,1-3.318-1.927c-.264-.587-.546-1.262.252-1.658a.934.934,0,0,1,.407-.116c.416,0,.529.486.726.9a2.588,2.588,0,0,0,.853.8.7.7,0,0,0,.406.152.484.484,0,0,0,.412-.247.524.524,0,0,0-.115-.64,4.112,4.112,0,0,0-1.542-1.1,9.143,9.143,0,0,1-3.009-2.288c-.548-.625-.76-1.355-.1-1.907,1.457-1.224,2.886-2.553,4.908-2.82a4.933,4.933,0,0,1,.621-.061m17.85,8.617c.472,0,.776-.5,1.112-.806a2.419,2.419,0,0,0,.849-1.41c.131-.929.591-2.214-.454-2.6a1.053,1.053,0,0,0-.362-.069c-.761,0-1.187.975-1.516,1.748a3.37,3.37,0,0,0-.328,1.811c.054.324-.242,1.033.441,1.275a.768.768,0,0,0,.258.047m4.19-1.2.132-.052-.041-.182c-.047.016-.134.032-.134.049a.677.677,0,0,0,.044.185m.392,1.646h.024a.2.2,0,0,0,.13-.34,1.122,1.122,0,0,0-.365-.2c-.048.125-.168.289-.126.366a.441.441,0,0,0,.337.174M72.2,68.155v0a4.962,4.962,0,0,0-.669.059l-.082.011a9.966,9.966,0,0,0-5.091,2.768l-.329.278a2.033,2.033,0,0,0-.759,1.417,2.632,2.632,0,0,0,.754,1.916,10.645,10.645,0,0,0,1.539,1.442,2.163,2.163,0,0,0-.09,2.512A4.551,4.551,0,0,0,71.7,81.074a5.129,5.129,0,0,0,1.476-.216,3.2,3.2,0,0,0,.613-.272c.058-.031.138-.075.192-.1a6.97,6.97,0,0,0,3.277.858,7.058,7.058,0,0,0,3.237-.826,2.2,2.2,0,0,0,.073.394c.417,1.441,1.238,1.744,1.854,1.744a2.062,2.062,0,0,0,.812-.178,2.016,2.016,0,0,0,1.129-1.111c.02-.051.04-.106.057-.166a2.394,2.394,0,0,0,.359.455,2.231,2.231,0,0,0,1.529.731,1.836,1.836,0,0,0,.977-.29A1.8,1.8,0,0,0,88.14,80.9a2.622,2.622,0,0,0,1.008.2,4.079,4.079,0,0,0,2.056-.641c.09-.053.18-.108.268-.163a2.776,2.776,0,0,1,.664-.342,1.323,1.323,0,0,1,.206.22,1.942,1.942,0,0,0,1.59.792,3.021,3.021,0,0,0,1.081-.224,2.94,2.94,0,0,0,.454-.227l.03-.018a4.355,4.355,0,0,0,1.96.58,2.836,2.836,0,0,0,.872-.138,2.441,2.441,0,0,0,1.262-.972,2.183,2.183,0,0,0,1.048.9,3.1,3.1,0,0,0,1.158.251,2.117,2.117,0,0,0,1.74-.9,1.677,1.677,0,0,0,.359-1.323,2.024,2.024,0,0,0-.96-1.28c-.631-.413-.75-1.041-.758-2.128l-.006-.462a7.088,7.088,0,0,1,.349-2.911,1.925,1.925,0,0,0-.055-1.67,2.367,2.367,0,0,0-2.018-1.161,2.038,2.038,0,0,0-1.957,1.567,3.471,3.471,0,0,0-.13.878,2.4,2.4,0,0,1-.037.37c-.106.442-.2.886-.3,1.331a22.37,22.37,0,0,1-.823,3.1,3.7,3.7,0,0,1,.064-2.5,2.475,2.475,0,0,1,.139-.252c.848-1.423.218-2.21-.459-2.619a1.763,1.763,0,0,0-.917-.273,1.675,1.675,0,0,0-1.171.5,3.856,3.856,0,0,0-3.128-1.856,4.466,4.466,0,0,0-3.5,2.117,3.758,3.758,0,0,0-.375.687c-.026.058-.052.114-.076.165a10.767,10.767,0,0,0-.336-2.609l-.035-.143a1.706,1.706,0,0,0-1.65-1.557c-.053,0-.108,0-.166.007a1.871,1.871,0,0,0-1.712,2.013,7.74,7.74,0,0,0,.067.89l.019.171a8.556,8.556,0,0,1,.1,1.714,3.711,3.711,0,0,1-.853.283,4.5,4.5,0,0,1-.084-1.2,6.069,6.069,0,0,0-.114-1.537l-.03-.128c-.107-.471-.392-1.721-1.727-1.721a2.132,2.132,0,0,0-.389.037,2.109,2.109,0,0,0-1.449.909,1.885,1.885,0,0,0-.1.168,1.7,1.7,0,0,0-.345-.069c-.28-.026-.53-.039-.766-.039A3.5,3.5,0,0,0,74.9,71.464a11.928,11.928,0,0,1-.67,1,7.641,7.641,0,0,0-1.343,2.5c-1.061-.593-2.163-1.236-3.21-1.955-.025-.017-.045-.033-.062-.046a1.165,1.165,0,0,1,.159-.164,1.789,1.789,0,0,1,1.238-.517,2.655,2.655,0,0,1,.542.062,2.215,2.215,0,0,0,.456.049,1.8,1.8,0,0,0,1.319-.55,2.582,2.582,0,0,0,.641-1.9A1.679,1.679,0,0,0,72.2,68.155Zm5.294,9.54a3.239,3.239,0,0,1-.746-.087c-.307-.073-.461-.189-.5-.655a3.285,3.285,0,0,1,2.187-3.4l.069-.026a7.673,7.673,0,0,0,1.079-.465c.008.061.017.121.026.182.065.444.048.46-.034.541-.662.65-1.186,1.163-1.145,1.9.035.631.444,1.029,1.036,1.5a4.585,4.585,0,0,1-1.969.506Zm12.85-1.364a2.421,2.421,0,0,1,.256-1.3,4.224,4.224,0,0,1,.617-1.128,3.808,3.808,0,0,1-.105.988c-.034.181-.067.358-.09.525a1.477,1.477,0,0,1-.535.813c-.046.042-.092.087-.138.134l0-.033Zm-6.723.4a.942.942,0,0,1,.24-.025c0,.272,0,.544.012.816.014.326.04.651.067.976q.01.118.019.235-.127-.4-.225-.824a2.772,2.772,0,0,1-.113-1.179Zm-3.176,3.38h0Z" transform="translate(0 0)"/>
  </g>
  <g>
    <path class="cls-1" d="M73.464,47.069c-1.542,0-2.245-.967-2.825-2.419-1.126-2.818-.565-4.954,1.581-6.014a20.67,20.67,0,0,1,6.422-2.2,22.273,22.273,0,0,0,2.431-.51,14.553,14.553,0,0,1,3.427-.572,5.7,5.7,0,0,1,1.192.119l1.788-.009c.331,0,.641,0,.951.016,1.505.06,3.574.376,4.151,2.435A4.977,4.977,0,0,1,91,42.739a8.832,8.832,0,0,1-4.6,2.376,33.07,33.07,0,0,1-4.438.536c-1.114.083-2.266.169-3.38.346a28.329,28.329,0,0,0-2.865.658l-.556.147a6.8,6.8,0,0,1-1.7.267Z" transform="translate(0 0)"/>
    <path class="cls-2" d="M84.5,35.85a5.218,5.218,0,0,1,1.141.119c.73,0,1.316-.01,1.847-.01.322,0,.623,0,.924.016,1.583.063,3.224.409,3.689,2.07a4.518,4.518,0,0,1-1.457,4.342A8.363,8.363,0,0,1,86.3,44.626c-2.577.549-5.205.467-7.792.878-1.193.19-2.318.513-3.469.815a6.386,6.386,0,0,1-1.573.25c-1.163,0-1.768-.623-2.36-2.1-1.016-2.543-.59-4.427,1.338-5.38a20.143,20.143,0,0,1,6.266-2.157c2.014-.265,3.955-1.077,5.793-1.077m0-1a14.923,14.923,0,0,0-3.548.587,21.822,21.822,0,0,1-2.375.5A21.124,21.124,0,0,0,72,38.188c-2.378,1.175-3.042,3.6-1.824,6.648.54,1.352,1.354,2.734,3.289,2.734a7.259,7.259,0,0,0,1.826-.283l.557-.147a28.018,28.018,0,0,1,2.816-.647c1.094-.174,2.185-.256,3.34-.342a33.419,33.419,0,0,0,4.5-.546,9.315,9.315,0,0,0,4.846-2.512,5.46,5.46,0,0,0,1.71-5.316c-.741-2.646-3.655-2.762-4.612-2.8-.314-.012-.628-.016-.964-.016-.247,0-.505,0-.785,0s-.608.005-.957.006A6.226,6.226,0,0,0,84.5,34.85Z" transform="translate(0 0)"/>
  </g>
  <g>
    <path class="cls-1" d="M110.437,43.836a1.869,1.869,0,0,1-1.4-.5c-.589-.594-.7-1.625-.688-3.1a9.72,9.72,0,0,1,.173-2.292,9.425,9.425,0,0,0,.169-2.145,2.155,2.155,0,0,1,1.479-2.148,34.209,34.209,0,0,1,9.744-2.459q.292-.026.589-.026a10.675,10.675,0,0,1,3.608.728,4.614,4.614,0,0,1,3.006,3.6,4.709,4.709,0,0,1-1.7,4.476,15.4,15.4,0,0,1-4.2,2.182l-.156.061a18,18,0,0,1-5.494.973,24.291,24.291,0,0,0-3.721.454,6.381,6.381,0,0,1-1.406.194Z" transform="translate(0 0)"/>
    <path class="cls-2" d="M120.5,31.667a10.323,10.323,0,0,1,3.437.7,4.191,4.191,0,0,1,1.158,7.22,15.471,15.471,0,0,1-4.222,2.166c-2.967,1.172-6.124.711-9.143,1.4a5.98,5.98,0,0,1-1.294.182c-1.309,0-1.607-.874-1.589-3.095-.125-1.479.455-2.943.341-4.479a1.662,1.662,0,0,1,1.166-1.647,34.034,34.034,0,0,1,9.6-2.425q.269-.024.543-.024m0-1q-.32,0-.634.028a34.729,34.729,0,0,0-9.886,2.493,2.639,2.639,0,0,0-1.79,2.649,9.059,9.059,0,0,1-.165,2.031,10.381,10.381,0,0,0-.179,2.41c-.01,1.576.129,2.7.834,3.409a2.371,2.371,0,0,0,1.755.65,6.834,6.834,0,0,0,1.518-.207,23.561,23.561,0,0,1,3.645-.442,18.391,18.391,0,0,0,5.642-1.007l.151-.06a15.78,15.78,0,0,0,4.335-2.261,5.2,5.2,0,0,0,1.882-4.946,5.109,5.109,0,0,0-3.328-3.989,11.165,11.165,0,0,0-3.78-.758Z" transform="translate(0 0)"/>
  </g>
  <g>
    <path class="cls-1" d="M9.827,34.889c-1.083-.089-1.262-1.014-1.369-1.566a2.72,2.72,0,0,0-.109-.448,30.3,30.3,0,0,1-1.318-5.136c-.093-.476-.186-.952-.285-1.426-.038-.182-.071-.365-.1-.547a4.889,4.889,0,0,0-.471-1.6,1.719,1.719,0,0,1-.242-1.489,1.35,1.35,0,0,1,.886-.794,1.565,1.565,0,0,1,.506-.092c.836,0,1.123.767,1.312,1.273l.067.178c.233.593.409,1.205.579,1.8.137.474.276.958.447,1.446l.08-.147q.777-1.43,1.549-2.862c.069-.129.127-.266.186-.4a4.147,4.147,0,0,1,.361-.71,1.432,1.432,0,0,1,1.167-.716,1.276,1.276,0,0,1,.75.257,1.26,1.26,0,0,1,.247,1.732c-.293.542-.6,1.076-.907,1.61-.366.637-.732,1.274-1.075,1.924-.29.551-.545,1.137-.816,1.757q-.083.192-.17.39a6.786,6.786,0,0,0,1.441.139c.482,0,.958-.035,1.427-.069s.963-.069,1.438-.069c.191,0,.381.005.571.018.035-.01.075-.091.037-.222a3.935,3.935,0,0,1-.095-1.319,3.149,3.149,0,0,0-.065-1.042,5.789,5.789,0,0,1-.1-2.088,1.437,1.437,0,0,1,1.469-1.4,1.88,1.88,0,0,1,.252.017c1.023.14.967,1.011.94,1.429l-.009.163a8.78,8.78,0,0,0,.916,4.754A3.988,3.988,0,0,0,21.739,25.3c-.017-.131-.043-.263-.068-.4a3.116,3.116,0,0,1-.073-1.168,1.573,1.573,0,0,1,1.558-1.444,2.012,2.012,0,0,1,.384.039,1.781,1.781,0,0,1,1.226.7,1.542,1.542,0,0,1,.171,1.207c-.045.213-.1.426-.149.639a3.9,3.9,0,0,0-.062,2.565c.065.15.122.317.178.486.2.6.3.75.474.75a.746.746,0,0,0,.2-.034c.669-.19.573-.92.456-1.338A12.647,12.647,0,0,1,25.8,23.2c.1-1.969,1.033-3.045,2.564-3.045a3.971,3.971,0,0,1,.791.085,31.466,31.466,0,0,1,5.093,1.571,1.85,1.85,0,0,1,1.219,1.257,2.334,2.334,0,0,1-.708,2.063,4.957,4.957,0,0,1-1.593,1.076,5.878,5.878,0,0,0-1.012.586,8.279,8.279,0,0,0,3.08,1.665,2,2,0,0,1,1.545,2A1.344,1.344,0,0,1,35.627,31.8a2.977,2.977,0,0,1-.551.058,1.743,1.743,0,0,1-1.573-.95,3.66,3.66,0,0,0-2.03-1.329,9.633,9.633,0,0,1-1.223-.534.733.733,0,0,0-.328-.116c-.029.015-.1.153-.068.476a6.834,6.834,0,0,0,.135.8,6.425,6.425,0,0,1,.164,1.109c.015.441.061,1.786-1.342,1.959a2.243,2.243,0,0,1-.279.018h0a1.575,1.575,0,0,1-1.605-1.469l-.083-.46a4.962,4.962,0,0,1-1.781.4,2.357,2.357,0,0,1-2.3-1.686,2.481,2.481,0,0,0-.529.6,4.522,4.522,0,0,1-.364.465A3.943,3.943,0,0,1,19,32.584a3.313,3.313,0,0,1-1.341-.3,4.43,4.43,0,0,0-1.85-.366,12.977,12.977,0,0,0-1.983.207c-.511.079-1.04.161-1.573.2-.31.021-.349.106-.486.5-.037.105-.074.211-.118.312s-.088.22-.13.334C11.314,34.041,11,34.9,9.979,34.9,9.93,34.9,9.879,34.893,9.827,34.889Zm20.684-11.65a.5.5,0,0,0-.379.136.355.355,0,0,0,.011.3,2.269,2.269,0,0,1,.107.6c.039.461.043.461.276.461a2.957,2.957,0,0,0,1.656-.934,3.917,3.917,0,0,0-1.639-.564v-.5Z" transform="translate(0 0)"/>
    <path class="cls-2" d="M28.359,20.653a3.464,3.464,0,0,1,.691.075,31.654,31.654,0,0,1,5.013,1.548c1.166.45,1.226,1.508.319,2.519-.821.915-2.166,1.044-2.965,2.011a8.875,8.875,0,0,0,3.673,2.13,1.521,1.521,0,0,1,1.184,1.556.851.851,0,0,1-.743.82,2.447,2.447,0,0,1-.458.049,1.248,1.248,0,0,1-1.144-.707c-.754-1.257-2.269-1.4-3.44-2.044a1.216,1.216,0,0,0-.569-.178c-.426,0-.62.406-.566,1.02.055.63.277,1.249.3,1.877s-.047,1.341-.9,1.447a1.779,1.779,0,0,1-.218.014,1.085,1.085,0,0,1-1.113-1.053c-.052-.305-.111-.609-.2-1.08a5.5,5.5,0,0,1-2.161.6c-.917,0-1.644-.5-2.009-1.892-.925.307-1.128.973-1.554,1.429a3.5,3.5,0,0,1-2.5,1.29,2.8,2.8,0,0,1-1.139-.253,4.963,4.963,0,0,0-2.052-.408c-1.2,0-2.388.322-3.592.406-.8.056-.823.647-1.027,1.113-.273.626-.391,1.454-1.216,1.454q-.053,0-.11,0c-.953-.078-.818-1.087-1.052-1.7a41.428,41.428,0,0,1-1.58-6.485,7.482,7.482,0,0,0-.631-2.292c-.389-.675-.378-1.3.374-1.561a1.055,1.055,0,0,1,.343-.065c.555,0,.711.617.914,1.134.527,1.344.745,2.76,1.425,4.231.713-1.314,1.43-2.626,2.136-3.944.188-.35.3-.744.521-1.07a.96.96,0,0,1,.751-.495.785.785,0,0,1,.459.164c.388.278.289.735.1,1.087-.645,1.189-1.355,2.343-1.985,3.54-.438.832-.786,1.711-1.238,2.708a6.711,6.711,0,0,0,2.135.31c.979,0,1.929-.139,2.867-.139.179,0,.358.005.537.017h.042c.409,0,.637-.418.509-.861-.224-.777.079-1.569-.161-2.365a5.269,5.269,0,0,1-.08-1.9.936.936,0,0,1,.97-.938,1.371,1.371,0,0,1,.185.013c.631.086.524.542.5,1.074a9.1,9.1,0,0,0,1.22,5.431c2.378-1.1,3.4-2.793,3.107-5.051a4.8,4.8,0,0,1-.146-1.408,1.093,1.093,0,0,1,1.067-1.036,1.512,1.512,0,0,1,.288.029c.707.137,1.181.467,1,1.309-.245,1.158-.705,2.3-.181,3.507.267.612.357,1.537,1.111,1.537a1.245,1.245,0,0,0,.339-.052c.8-.228,1.067-1,.8-1.954a12.542,12.542,0,0,1-.217-4.038c.081-1.589.776-2.48,2.06-2.48m2.167,4.584h.024c.818-.012,2.242-1.034,2.194-1.532-.033-.34-1.472-.967-2.2-.967h-.057c-.725.036-1.031.513-.812,1.107.181.49-.109,1.391.852,1.391m-2.167-5.584h0c-1.775,0-2.911,1.24-3.052,3.323a1.793,1.793,0,0,0-.126-.222,2.25,2.25,0,0,0-1.548-.911,2.52,2.52,0,0,0-.479-.048,2.066,2.066,0,0,0-2.05,1.853A3.564,3.564,0,0,0,21.179,25c.024.122.048.244.064.364a3.382,3.382,0,0,1-1.708,3.57,8.731,8.731,0,0,1-.628-4.032l.009-.153c.075-1.164-.387-1.823-1.372-1.957a2.369,2.369,0,0,0-.32-.022,1.937,1.937,0,0,0-1.967,1.856,6.062,6.062,0,0,0,.119,2.274,2.756,2.756,0,0,1,.044.875,5.574,5.574,0,0,0,.022,1.044h-.035c-.5,0-1,.036-1.475.071s-.933.068-1.392.068c-.256,0-.5-.011-.723-.033.234-.536.461-1.044.711-1.519.337-.64.709-1.286,1.068-1.911.308-.537.617-1.074.912-1.618a1.748,1.748,0,0,0-.4-2.376,1.789,1.789,0,0,0-1.041-.351,1.913,1.913,0,0,0-1.581.937,4.658,4.658,0,0,0-.406.792c-.053.123-.1.247-.167.364q-.529.988-1.065,1.972l-.09-.311c-.173-.6-.353-1.226-.594-1.841l-.064-.17c-.194-.519-.6-1.6-1.78-1.6a2.055,2.055,0,0,0-.67.12A1.832,1.832,0,0,0,5.463,22.5a2.2,2.2,0,0,0,.277,1.914,4.537,4.537,0,0,1,.412,1.436c.033.187.067.375.106.561.1.471.191.945.283,1.418a30.76,30.76,0,0,0,1.342,5.221,2.746,2.746,0,0,1,.085.364,2.06,2.06,0,0,0,1.819,1.969q.1.008.192.008a2.182,2.182,0,0,0,2.013-1.746c.039-.1.077-.209.12-.308s.091-.23.132-.348c.017-.051.04-.117.061-.169.551-.039,1.086-.122,1.6-.2a12.628,12.628,0,0,1,1.906-.2,3.945,3.945,0,0,1,1.648.323A3.8,3.8,0,0,0,19,33.084a4.417,4.417,0,0,0,3.226-1.607,4.781,4.781,0,0,0,.406-.517l.008-.011a2.738,2.738,0,0,0,2.418,1.308,4.754,4.754,0,0,0,1.394-.232,2.065,2.065,0,0,0,2.076,1.765,2.777,2.777,0,0,0,.341-.022c.694-.086,1.847-.521,1.781-2.473a6.916,6.916,0,0,0-.175-1.194c-.03-.145-.06-.285-.083-.42.3.139.6.255.9.368a3.265,3.265,0,0,1,1.78,1.12,2.234,2.234,0,0,0,2,1.193,3.418,3.418,0,0,0,.646-.067,1.843,1.843,0,0,0,1.553-1.864,2.511,2.511,0,0,0-1.906-2.455,7.68,7.68,0,0,1-2.347-1.139c.116-.061.237-.121.363-.183a5.43,5.43,0,0,0,1.743-1.19,2.809,2.809,0,0,0,.821-2.513,2.333,2.333,0,0,0-1.525-1.607,31.965,31.965,0,0,0-5.173-1.595,4.477,4.477,0,0,0-.891-.1Zm2.386,4.535a3.391,3.391,0,0,0-.06-.437,3.256,3.256,0,0,1,.59.166,2.93,2.93,0,0,1-.529.271Zm-5.238,3.944c-.046-.112-.1-.26-.13-.364-.061-.184-.123-.365-.194-.528a3.286,3.286,0,0,1,.06-2.124,9.194,9.194,0,0,0,.311,2.324c.073.262.119.58-.046.692Z" transform="translate(0 0)"/>
  </g>
  <g>
    <path class="cls-1" d="M113.964,81.933a1.669,1.669,0,0,1-1.382-.716,4.707,4.707,0,0,1-.794-1.972c-.087-.5-.241-.5-.324-.5a1.356,1.356,0,0,0-.522.145c-.621.274-1.251.492-1.84.686a5.639,5.639,0,0,1-1.759.294h0a5.707,5.707,0,0,1-3.805-1.586,4.491,4.491,0,0,1-.438-.468,1.983,1.983,0,0,0-.484-.467c-.532-.283-1.245-.742-1.3-1.461s.59-1.287,1.079-1.648a2.784,2.784,0,0,0,.642-1.172c.807-2.34,2.847-3.1,4.7-3.629a2.76,2.76,0,0,1,.756-.109,2.3,2.3,0,0,1,1.646.675,2.686,2.686,0,0,1,.745,1.8c.129-.445.276-.882.423-1.314l.164-.488a1.845,1.845,0,0,1,1.787-1.314,2.057,2.057,0,0,1,.238.014l.107.012c1.923.223,3.911.454,5.5,1.938a2.625,2.625,0,0,1,.947,1.944,2.852,2.852,0,0,1-1.111,2.057,4.943,4.943,0,0,1-1.908.916,7.846,7.846,0,0,0-1.11.4,5.9,5.9,0,0,0,1.92.456,8.316,8.316,0,0,1,1.582.3,5.354,5.354,0,0,0,1.151.191,5.333,5.333,0,0,1,1.694.355,1.468,1.468,0,0,0,.342.113,2.411,2.411,0,0,1,1.983-1.2,3.779,3.779,0,0,1,2.057.78c.1-.014.162-.019.227-.024l.188-.012c.29-.009.3-.048.316-.086,0,0-.125-.061-.2-.1-.934-.478-1.868-.917-2.8-1.354a8.578,8.578,0,0,1-2.559-1.625,2.193,2.193,0,0,1-.818-2,1.812,1.812,0,0,1,1.243-1.294A48.038,48.038,0,0,1,127,68.951l.975-.28a.99.99,0,0,1,.276-.037,1.419,1.419,0,0,1,1.128.542c.339.545.174,1.1-.491,1.643a5.716,5.716,0,0,1-2.369,1.013,9.74,9.74,0,0,0-1.1.325,4,4,0,0,0-.73.334,2.379,2.379,0,0,0,1.081.6,5.1,5.1,0,0,1,.894.389,8.254,8.254,0,0,0,1.032.487,6.168,6.168,0,0,1,1.787,1,2.692,2.692,0,0,1,1.055,2.412,2.641,2.641,0,0,1-1.675,1.968,4.911,4.911,0,0,1-1.528.349c-.227.026-.453.051-.677.1a1.677,1.677,0,0,1-.333.033,3.229,3.229,0,0,1-1.383-.419,2.273,2.273,0,0,0-.818-.289.41.41,0,0,0-.3.13,2.193,2.193,0,0,1-1.528.65,3.772,3.772,0,0,1-1.2-.257,3.548,3.548,0,0,0-.753-.2c-.814-.079-1.625-.227-2.41-.369-.31-.057-.619-.113-.929-.165-.117-.02-.233-.049-.348-.078a2.5,2.5,0,0,0-.329-.07,5.384,5.384,0,0,0-.59-.044c-.345,0-.389,0-.427,1.032-.009.246-.019.491-.037.736l-.006.1a1.212,1.212,0,0,1-.9,1.307A1.89,1.89,0,0,1,113.964,81.933Zm-3.448-8.373a4.559,4.559,0,0,1-2.772,2.4c-.307.094-.623.16-.938.226-.235.049-.471.1-.7.161a1.487,1.487,0,0,0-.428.152c.036.235.371.339.473.366a7.658,7.658,0,0,0,1.908.33,3.274,3.274,0,0,0,.889-.119c1.589-.444,1.732-.529,1.567-2.083A6.725,6.725,0,0,1,110.516,73.56Zm-2.937-1.288a1.209,1.209,0,0,0-.42.186,4.407,4.407,0,0,0-1.366,1.127,3.277,3.277,0,0,0,1.606-.658c.41-.321.32-.477.276-.552C107.656,72.345,107.611,72.272,107.579,72.272ZM115,71.705a.839.839,0,0,0-.553.165,1,1,0,0,0-.123.7c.026.568.2.961.413.965a7.8,7.8,0,0,0,2.254-1.2,3.121,3.121,0,0,0-1.912-.629v-.5Z" transform="translate(0 0)"/>
    <path class="cls-2" d="M128.247,69.134a.957.957,0,0,1,.7.307c.242.389-.047.715-.384.991-.973.8-2.226.832-3.334,1.257a2.835,2.835,0,0,0-1.2.7c.466,1.059,1.568,1.049,2.364,1.521a16.108,16.108,0,0,1,2.744,1.433c1.376,1.2,1.169,2.8-.5,3.548a9.232,9.232,0,0,1-2.1.411,1.181,1.181,0,0,1-.234.023c-.773,0-1.516-.708-2.2-.708a.908.908,0,0,0-.638.263,1.7,1.7,0,0,1-1.188.517c-.656,0-1.264-.389-1.908-.451-1.108-.108-2.2-.344-3.3-.53-.236-.04-.466-.124-.7-.151a5.831,5.831,0,0,0-.647-.048c-.762,0-.884.332-.926,1.514-.009.24-.019.479-.036.718-.028.394-.007.847-.509.954a1.386,1.386,0,0,1-.291.032,1.18,1.18,0,0,1-.977-.508,4.208,4.208,0,0,1-.706-1.765c-.112-.645-.4-.914-.816-.914a1.856,1.856,0,0,0-.724.187c-.583.258-1.189.469-1.795.669a5.1,5.1,0,0,1-1.6.27,5.2,5.2,0,0,1-3.474-1.461c-.358-.316-.616-.787-1.019-1-1.327-.706-1.38-1.361-.157-2.266a2.979,2.979,0,0,0,.817-1.411c.72-2.09,2.5-2.778,4.36-3.311a2.245,2.245,0,0,1,.618-.09,1.95,1.95,0,0,1,1.895,2.132,3.879,3.879,0,0,1-2.786,3.521c-.531.163-1.089.236-1.626.382-.375.1-.843.2-.782.72a1,1,0,0,0,.832.764,8.065,8.065,0,0,0,2.035.347,3.77,3.77,0,0,0,1.023-.137c1.784-.5,2.125-.778,1.93-2.618a11.194,11.194,0,0,1,.932-4.782,1.345,1.345,0,0,1,1.312-.972,1.559,1.559,0,0,1,.18.011c1.894.221,3.826.421,5.326,1.819,1.123,1.047,1.022,2.231-.152,3.259-.994.869-2.42.746-3.614,1.684,1.316,1.117,2.921.8,4.271,1.247a28.094,28.094,0,0,1,2.8.529,1.63,1.63,0,0,0,.594.16.34.34,0,0,0,.3-.138,1.955,1.955,0,0,1,1.628-1.064,3.425,3.425,0,0,1,1.782.7.563.563,0,0,0,.309.069c.131,0,.272-.018.4-.022.322-.01.647-.058.773-.422.144-.416-.2-.581-.458-.714-.924-.472-1.863-.914-2.8-1.353a8.15,8.15,0,0,1-2.417-1.525c-.984-.987-.965-1.984.257-2.475,1.838-.738,3.771-1.245,5.678-1.8a.5.5,0,0,1,.137-.017m-13.515,4.9a6.366,6.366,0,0,0,2.79-1.581c.075-.605-1.29-1.246-2.446-1.246h-.094c-.969.03-1.212.563-1.159,1.392.042.888.38,1.425.9,1.434h.006m-9.839.119a4.359,4.359,0,0,0,2.813-.828c.335-.261.7-.683.4-1.2a.6.6,0,0,0-.529-.353,1.412,1.412,0,0,0-.681.26,4.3,4.3,0,0,0-2,2.118m23.354-6.016a1.491,1.491,0,0,0-.415.057l-.973.279a48.538,48.538,0,0,0-4.8,1.551,2.308,2.308,0,0,0-1.546,1.658,1.98,1.98,0,0,0-.037.282,3.338,3.338,0,0,0-1.035-1.676c-1.711-1.595-3.874-1.846-5.782-2.068l-.11-.013a2.561,2.561,0,0,0-.3-.017,2.332,2.332,0,0,0-2.261,1.657l-.1.308a2.9,2.9,0,0,0-.4-.5,2.8,2.8,0,0,0-2-.822,3.249,3.249,0,0,0-.893.128c-1.97.563-4.146,1.38-5.03,3.946a2.156,2.156,0,0,1-.467.933,2.09,2.09,0,0,0,.283,3.953,2.044,2.044,0,0,1,.338.349,4.827,4.827,0,0,0,.489.519,6.189,6.189,0,0,0,4.136,1.711,6.127,6.127,0,0,0,1.915-.32c.571-.188,1.242-.419,1.886-.7.055-.025.1-.043.143-.057l.008.042a5.21,5.21,0,0,0,.881,2.179,2.186,2.186,0,0,0,1.788.923,2.391,2.391,0,0,0,.5-.054,1.7,1.7,0,0,0,1.291-1.766l.006-.094c.018-.251.028-.5.038-.753s.022-.43.035-.547c.109.005.247.018.424.038a2.032,2.032,0,0,1,.263.058c.129.033.258.064.389.086.307.052.613.108.92.163.8.145,1.618.295,2.455.376a3.256,3.256,0,0,1,.643.173,4.164,4.164,0,0,0,1.362.283,2.7,2.7,0,0,0,1.86-.776,3.285,3.285,0,0,1,.568.236,3.679,3.679,0,0,0,1.6.469,2.19,2.19,0,0,0,.432-.043c.21-.042.423-.066.635-.09a5.386,5.386,0,0,0,1.676-.39,3.163,3.163,0,0,0,1.964-2.35,3.215,3.215,0,0,0-1.22-2.862,6.669,6.669,0,0,0-1.923-1.085,7.9,7.9,0,0,1-.97-.456,5.575,5.575,0,0,0-.98-.43l-.163-.06c.272-.092.564-.166.87-.243a6.189,6.189,0,0,0,2.563-1.111,1.651,1.651,0,0,0,.6-2.293,1.9,1.9,0,0,0-1.553-.778Zm-13.42,4.09a1.048,1.048,0,0,1,.185-.02h.063a2.97,2.97,0,0,1,.958.174,9.154,9.154,0,0,1-1.152.587,1.875,1.875,0,0,1-.06-.415,1.54,1.54,0,0,1,.006-.326Zm2.808,3.675a4.616,4.616,0,0,0,1.63-.871,3.3,3.3,0,0,0,1.281-2.4,3.38,3.38,0,0,0,.921,1.5,8.563,8.563,0,0,0,2.513,1.636,2.915,2.915,0,0,0-1.552,1.036,5.912,5.912,0,0,0-1.808-.378,5.022,5.022,0,0,1-1.043-.169,8.685,8.685,0,0,0-1.676-.324l-.265-.033Zm-10.405.709c.216-.047.436-.1.66-.169a5.058,5.058,0,0,0,2.133-1.309c.115,1.094.084,1.1-1.213,1.465a2.765,2.765,0,0,1-.754.1,4.474,4.474,0,0,1-.826-.087Z" transform="translate(0 0)"/>
  </g>
  <g>
    <path class="cls-1" d="M10.707,87.551a3.877,3.877,0,0,1-1.088-.157,1.878,1.878,0,0,1-1.427-1.455A60.6,60.6,0,0,1,6.411,77c-.16-1.586-.295-3.175-.43-4.764-.191-2.256-.39-4.588-.66-6.872a25.147,25.147,0,0,0-.545-2.987,1.874,1.874,0,0,1,.209-1.612A1.5,1.5,0,0,1,6.2,60.219h0a1.423,1.423,0,0,1,1.077.39,1.917,1.917,0,0,1,.452,1.435c-.03,2.615.2,5.271.422,7.841l.077.895a69.14,69.14,0,0,0,1.821,12.173c.413,1.533.646,1.669,1.206,1.669a6.09,6.09,0,0,0,1.246-.186c4.566-1.015,9.5-1.9,15.084-2.692,1.753-.25,1.753-.25,1.711-2-.007-.321-.028-.642-.048-.962l-.027-.451c-.091-1.667-.2-3.334-.306-5-.287-4.464-.583-9.08-.557-13.642,0-.547-.085-.752-.16-.827a.515.515,0,0,0-.358-.091,2.569,2.569,0,0,0-.433.044,78.981,78.981,0,0,1-9.2.895c-2.377.137-4.835.279-7.229.6a9.382,9.382,0,0,1-1.245.076c-.7,0-1.417-.061-2.106-.12-.42-.036-.84-.072-1.257-.094a1.754,1.754,0,0,1-1.316-.609A1.81,1.81,0,0,1,4.7,58.138a1.518,1.518,0,0,1,1.512-1.391,1.675,1.675,0,0,1,.891.261,6.071,6.071,0,0,0,3.394.839c.581,0,1.164-.04,1.743-.079.377-.026.753-.051,1.126-.066,3.078-.125,6.207-.439,9.233-.744l1.929-.192a8.435,8.435,0,0,0,1.8-.456,7.935,7.935,0,0,1,2.533-.534q.205,0,.416.019c.938.087,1.5.14,1.824.569a2,2,0,0,1,.084,1.606,35.92,35.92,0,0,0-.291,9.006c.047.914.1,1.829.122,2.744.043,1.462.192,2.949.337,4.386a49.673,49.673,0,0,1,.352,5.647,5.709,5.709,0,0,0,.251,1.5,5.621,5.621,0,0,1,.26,2.066c-.1.969-.648,1.6-1.384,1.6a1.543,1.543,0,0,1-.8-.245,3.78,3.78,0,0,0-2.042-.552,10.949,10.949,0,0,0-2.26.329c-.467.1-.931.2-1.392.266a64.868,64.868,0,0,0-12.293,2.605,4.075,4.075,0,0,1-1.341.232Z" transform="translate(0 0)"/>
    <path class="cls-2" d="M28.866,56.277c.122,0,.245.005.37.017,1.556.144,1.748.173,1.464,1.578-.8,3.949-.295,7.9-.178,11.863.1,3.355.735,6.664.689,10.012-.017,1.226.647,2.293.514,3.519-.078.717-.42,1.149-.888,1.149a1.057,1.057,0,0,1-.544-.172,4.3,4.3,0,0,0-2.3-.625,27,27,0,0,0-3.721.6,65.07,65.07,0,0,0-12.388,2.628,3.579,3.579,0,0,1-1.178.2,3.366,3.366,0,0,1-.947-.136,1.375,1.375,0,0,1-1.083-1.1,59.844,59.844,0,0,1-1.767-8.863c-.391-3.877-.633-7.771-1.091-11.644a25.769,25.769,0,0,0-.556-3.047c-.185-.766-.045-1.513.953-1.541H6.26c.8,0,.982.639.974,1.32-.034,2.94.251,5.862.5,8.784A69.4,69.4,0,0,0,9.571,83.083c.4,1.5.72,2.039,1.689,2.039a6.593,6.593,0,0,0,1.354-.2c4.978-1.107,10-1.965,15.047-2.686,2.191-.313,2.192-.327,2.14-2.5-.011-.477-.05-.952-.077-1.429-.34-6.2-.9-12.394-.862-18.612.005-.968-.242-1.421-1.017-1.421a3.024,3.024,0,0,0-.52.052c-5.424.958-10.956.765-16.409,1.486a9,9,0,0,1-1.181.071c-1.1,0-2.228-.154-3.336-.213a1.191,1.191,0,0,1-1.2-1.464,1.02,1.02,0,0,1,1.017-.96,1.182,1.182,0,0,1,.625.184,6.613,6.613,0,0,0,3.66.916c.966,0,1.937-.108,2.889-.146,3.737-.151,7.465-.573,11.191-.938,1.459-.143,2.758-.988,4.285-.988m0-1h0a8.451,8.451,0,0,0-2.689.559,8.061,8.061,0,0,1-1.693.433l-1.926.192c-3.021.3-6.144.618-9.208.742-.378.015-.758.041-1.14.067-.592.04-1.15.078-1.708.078a5.6,5.6,0,0,1-3.129-.764,2.177,2.177,0,0,0-1.157-.337,2.025,2.025,0,0,0-2.008,1.822,2.3,2.3,0,0,0,.463,1.81,2.074,2.074,0,0,0,.247.253,1.777,1.777,0,0,0-.331.332,2.307,2.307,0,0,0-.3,2.032,24.682,24.682,0,0,1,.535,2.929c.269,2.277.467,4.607.659,6.861.133,1.562.27,3.177.43,4.766a61,61,0,0,0,1.794,9.012,2.359,2.359,0,0,0,1.771,1.81,4.378,4.378,0,0,0,1.227.177,4.583,4.583,0,0,0,1.506-.26,64.447,64.447,0,0,1,12.2-2.582c.485-.068.964-.172,1.428-.273a10.422,10.422,0,0,1,2.154-.317,3.3,3.3,0,0,1,1.783.48,2.036,2.036,0,0,0,1.062.317c.766,0,1.719-.535,1.882-2.042a6.1,6.1,0,0,0-.273-2.246,5.342,5.342,0,0,1-.236-1.367,50.046,50.046,0,0,0-.354-5.7c-.144-1.429-.293-2.906-.335-4.351-.027-.918-.075-1.836-.122-2.753a35.018,35.018,0,0,1,.281-8.883,2.392,2.392,0,0,0-.173-2c-.453-.609-1.177-.676-2.179-.768-.156-.014-.31-.021-.462-.021ZM9.736,60.884a9.943,9.943,0,0,0,1.312-.08c2.375-.314,4.825-.455,7.193-.592a79.457,79.457,0,0,0,9.258-.9,2.111,2.111,0,0,1,.338-.037,2.437,2.437,0,0,1,.026.415c-.026,4.581.271,9.206.559,13.679.107,1.664.214,3.328.3,4.993l.028.459c.02.313.04.626.047.939a10.081,10.081,0,0,1-.012,1.264,10.1,10.1,0,0,1-1.27.226c-5.6.8-10.544,1.682-15.122,2.7a6.186,6.186,0,0,1-1.137.173c-.248,0-.373,0-.723-1.3A68.761,68.761,0,0,1,8.732,70.738l-.077-.889c-.221-2.559-.45-5.205-.42-7.8A2.909,2.909,0,0,0,8.01,60.8c.567.046,1.146.086,1.726.086Z" transform="translate(0 0)"/>
  </g>
  <g>
    <path class="cls-1" d="M98.085,30.483a2.4,2.4,0,0,1-2.051-.83,1.092,1.092,0,0,1-.147-1.167,1.355,1.355,0,0,1,1.229-.672,1.765,1.765,0,0,1,.231.016h0a11.825,11.825,0,0,0,2.355-.406c-.213-.248-1-.891-3.895-2.243a1.658,1.658,0,0,1-.983-1.111,2.229,2.229,0,0,1,.53-1.85A8.21,8.21,0,0,1,101.2,19.6a4.468,4.468,0,0,1,1.051.116,2.661,2.661,0,0,1,.434.162,1.517,1.517,0,0,0,.255.1,11.648,11.648,0,0,1,3.669-.625,11.806,11.806,0,0,0,3.305-.519c.075-.027.15-.051.225-.073a1.143,1.143,0,0,0,.285-.111,1.784,1.784,0,0,1,1.99-1.838c.222,0,.457.016.7.033l.136.009a10.83,10.83,0,0,1,3.86,1.219l.356.164a2.058,2.058,0,0,1,1.506,2.015,2.544,2.544,0,0,1-1.895,2.359,7.057,7.057,0,0,1-1.219.243c-.207.031-.486.072-.758.122a8.44,8.44,0,0,0,1.815.248,11.769,11.769,0,0,1,1.457.156h.022c.276,0,.42-.182.675-.558.08-.118.16-.235.244-.343l.219-.285a4.531,4.531,0,0,1,2.534-1.978,4.582,4.582,0,0,1,1.127-.152,2.606,2.606,0,0,1,1.9.718,2.861,2.861,0,0,1,.738,2.1v.115c-.01.9.011,1.353.592,1.8a.979.979,0,0,1,.411.931,1.362,1.362,0,0,1-.934,1,2.813,2.813,0,0,1-.934.181,1.171,1.171,0,0,1-1.014-.447c-.4-.55-.714-.614-.916-.614a2.909,2.909,0,0,0-1.171.424c-.2.1-.391.2-.587.285a3.543,3.543,0,0,1-1.353.366,1.294,1.294,0,0,1-.748-.216,7.818,7.818,0,0,0-3.9-1.066c-.542-.052-1.083-.1-1.617-.194a3.581,3.581,0,0,1-.6-.169,3.142,3.142,0,0,0,0,.368A1.752,1.752,0,0,1,112.717,27a1.838,1.838,0,0,1-1.405.7,1.9,1.9,0,0,1-.278-.021,1.362,1.362,0,0,1-1.178-1.534l0-.276c-.009-1.1-.018-2.194-.046-3.291-.019-.725-.4-.725-.584-.725-.27.012-.327.015-.307.664.009.358.038.726.071,1.149.188,2.414.28,4.662-.642,5.659a1.5,1.5,0,0,1-1.127.49,1.564,1.564,0,0,1-1.329-.672,1.708,1.708,0,0,1-.115-1.587,8.186,8.186,0,0,0,.442-2.826,15.453,15.453,0,0,1,.138-1.76c.114-.736.026-.907,0-.942-.005-.007-.061-.062-.329-.062a4.757,4.757,0,0,0-.823.1,18.423,18.423,0,0,1-3.433.389,10.693,10.693,0,0,1-1.164-.062,1.511,1.511,0,0,0-.159-.008,4.646,4.646,0,0,0-2.469.919,7.255,7.255,0,0,0,1.1.414,7.516,7.516,0,0,1,1.338.517l.366.2a8.409,8.409,0,0,1,1.529.993l.19.161a2.011,2.011,0,0,1,.953,2.021c-.19,1.191-1.581,2.655-4.875,2.862C98.441,30.473,98.272,30.483,98.085,30.483Zm23.964-7.527c-.1,0-.359.243-.565.819a1.459,1.459,0,0,0,.926-.542C122.235,23.025,122.1,22.957,122.049,22.957Zm-8.907-3.207a.2.2,0,0,0-.141.058.258.258,0,0,0-.067.188c0,.12.031.258.272.271l.32.019c.315.02.635.04.968.04a6.378,6.378,0,0,0,.859-.055,3.074,3.074,0,0,0-1.828-.5l-.367-.025-.017-.5Z" transform="translate(0 0)"/>
    <path class="cls-2" d="M112.415,17.307c.253,0,.523.023.8.041a11.516,11.516,0,0,1,4.041,1.338c.722.331,1.25.666,1.216,1.541a2.1,2.1,0,0,1-1.568,1.909c-.647.238-2.728.3-3.086.789,1.446.96,3.017.662,4.46.939a1,1,0,0,0,.189.019c.618,0,.885-.647,1.24-1.1A4.629,4.629,0,0,1,122.19,20.7a4.069,4.069,0,0,1,1-.136,2.029,2.029,0,0,1,2.142,2.312c-.009.906-.055,1.67.785,2.318.479.369.126.873-.392,1.065a2.292,2.292,0,0,1-.76.15.72.72,0,0,1-.61-.241,1.624,1.624,0,0,0-1.32-.82,5.581,5.581,0,0,0-1.957.75,3.171,3.171,0,0,1-1.154.325.8.8,0,0,1-.464-.129c-1.752-1.2-3.785-1.014-5.714-1.341a7.613,7.613,0,0,1-.961-.3c-.5.63.076,1.435-.445,2.018a1.353,1.353,0,0,1-1.032.531,1.4,1.4,0,0,1-.206-.016c-.573-.085-.747-.511-.751-1.043-.01-1.192-.017-2.385-.049-3.576-.019-.714-.358-1.212-1.084-1.212l-.081,0c-.8.039-.738.722-.724,1.26.042,1.645.856,6.7-1.2,6.7H107.2a1.068,1.068,0,0,1-.961-1.572c.622-1.529.369-3.138.611-4.7.18-1.158-.009-1.582-.827-1.582a5.215,5.215,0,0,0-.915.106,18.184,18.184,0,0,1-3.342.38,10.224,10.224,0,0,1-1.109-.059,1.976,1.976,0,0,0-.214-.011c-1.165,0-3.009.876-3.04,1.44-.032.6,1.907.859,2.764,1.344a10.556,10.556,0,0,1,1.813,1.138c.542.471,1.123.81.977,1.726-.156.979-1.428,2.254-4.413,2.442-.126.008-.285.018-.46.018a1.984,1.984,0,0,1-1.65-.627c-.419-.565.065-1.042.68-1.042a1.209,1.209,0,0,1,.163.011.741.741,0,0,0,.1,0,8.471,8.471,0,0,0,2.811-.6c.141-.25.656-.75-4.165-3-.938-.438-.935-1.332-.267-2.2A7.753,7.753,0,0,1,101.2,20.1a3.984,3.984,0,0,1,.933.1,4.895,4.895,0,0,0,.8.274.285.285,0,0,0,.1-.018c2.27-.888,4.769-.335,7.048-1.156.389-.14.794-.167.845-.648.122-1.139.721-1.345,1.485-1.345m2.079,3.52a6.285,6.285,0,0,0,1.8-.245c-.871-1.331-2.037-1.243-3.1-1.329l-.058,0a.715.715,0,0,0-.708.747.737.737,0,0,0,.745.769c.43.024.861.06,1.316.06m6.854,3.471c.678,0,1.888-.717,1.478-1.3-.267-.379-.531-.541-.777-.541-.463,0-.863.571-1.1,1.337-.1.361.095.5.4.5m-8.933-7.99h0a2.225,2.225,0,0,0-2.442,1.977c-.075.023-.151.047-.227.074a11.43,11.43,0,0,1-3.167.491,13.3,13.3,0,0,0-3.659.583l-.031-.014a3,3,0,0,0-.52-.191,4.982,4.982,0,0,0-1.169-.13,8.771,8.771,0,0,0-6.242,2.818,2.712,2.712,0,0,0-.619,2.272A2.185,2.185,0,0,0,95.6,25.634a28.794,28.794,0,0,1,2.958,1.543,8.913,8.913,0,0,1-1.18.154,1.887,1.887,0,0,0-.259-.016,1.832,1.832,0,0,0-1.676.948,1.6,1.6,0,0,0,.193,1.69,2.863,2.863,0,0,0,2.453,1.031c.2,0,.379-.011.522-.02,3.59-.226,5.119-1.909,5.338-3.282a2.516,2.516,0,0,0-1.127-2.484c-.06-.05-.121-.1-.182-.153a8.782,8.782,0,0,0-1.614-1.053c-.121-.066-.242-.133-.362-.2a7.873,7.873,0,0,0-1.433-.558l-.1-.032a3.744,3.744,0,0,1,1.316-.325.977.977,0,0,1,.105.005,11.287,11.287,0,0,0,1.217.065,18.888,18.888,0,0,0,3.525-.4,5.393,5.393,0,0,1,.619-.086c-.005.1-.019.237-.048.424a15.841,15.841,0,0,0-.144,1.817,7.815,7.815,0,0,1-.4,2.657,2.206,2.206,0,0,0,.16,2.051,2.045,2.045,0,0,0,1.712.9h0a2.007,2.007,0,0,0,1.527-.651,4.064,4.064,0,0,0,.862-2.481,1.753,1.753,0,0,0,1.385.99,2.4,2.4,0,0,0,.352.026,2.34,2.34,0,0,0,1.778-.865,2.023,2.023,0,0,0,.491-1.4h0c.558.095,1.114.148,1.653.2a7.446,7.446,0,0,1,3.662.98,1.783,1.783,0,0,0,1.031.3,3.988,3.988,0,0,0,1.552-.408c.206-.089.412-.194.616-.3a2.763,2.763,0,0,1,.942-.368c.142,0,.314.137.511.408a1.669,1.669,0,0,0,1.418.653,3.33,3.33,0,0,0,1.108-.212,1.858,1.858,0,0,0,1.254-1.393,1.466,1.466,0,0,0-.6-1.4c-.372-.286-.407-.521-.4-1.4v-.117a3.3,3.3,0,0,0-.882-2.455,3.093,3.093,0,0,0-2.26-.866,5.073,5.073,0,0,0-1.251.167,5,5,0,0,0-2.807,2.159l-.216.28c-.091.116-.178.243-.264.371a3.575,3.575,0,0,1-.246.337c-.182-.033-.363-.059-.542-.079a2.934,2.934,0,0,0,1.6-2.527,2.544,2.544,0,0,0-1.8-2.489l-.353-.163a11.231,11.231,0,0,0-4.037-1.264l-.135-.009c-.253-.018-.5-.034-.733-.034Z" transform="translate(0 0)"/>
  </g>
  <g>
    <path class="cls-1" d="M73.276,29.271a1.313,1.313,0,0,1-1.126-.827l-.073-.125c-.8-1.325-.975-4.029-1.007-5.523-.032-.65-1.585-1.432-3.131-1.432-.429,0-1.4.071-1.583.7a2.7,2.7,0,0,0,1.086.839c.2.107.4.212.582.335s.392.256.59.384a12.717,12.717,0,0,1,2,1.479,1.817,1.817,0,0,1,.488,1.912,1.894,1.894,0,0,1-1.63,1.254,7.3,7.3,0,0,1-.768.041,6.186,6.186,0,0,1-4.059-1.46c-.01-.008-1.009-.85-.6-1.417a.866.866,0,0,0,.169-.422.5.5,0,0,1,.761-.368,11.957,11.957,0,0,0,1.572.853.473.473,0,0,0,.056,0,.207.207,0,0,0,.171-.065.194.194,0,0,0,.056-.119,17.278,17.278,0,0,1-2.611-1.49l-.394-.256a.5.5,0,0,1-.194-.237,2.3,2.3,0,0,1,.161-2.062c1.378-2.614,4.9-2.817,5.949-2.817a8.115,8.115,0,0,1,1.772.179,22.448,22.448,0,0,0,3.174.418l.788.068c.477.044.971.089,1.457.089a4.614,4.614,0,0,0,1.832-.325,2.121,2.121,0,0,1,.819-.174,2,2,0,0,1,1.657.953,2.085,2.085,0,0,1-.223,2.548,6.781,6.781,0,0,1-3.307,2.352c-.767.318-.821.533-.825.556s-.017.23.571.73a1.823,1.823,0,0,0,1.22.466,2.316,2.316,0,0,0,.378-.032c2.79-.457,3.807-1.689,3.751-4.549A4.785,4.785,0,0,1,83.2,19.4a1.442,1.442,0,0,1,1.289-.947,1.409,1.409,0,0,1,.458.081,1.3,1.3,0,0,1,.8,1.414c.007.338-.015.785-.047,1.234.078-.118.146-.228.2-.322a4.127,4.127,0,0,1,3.821-2.183,6.667,6.667,0,0,1,.729.042c2.051.23,2.707,2.085,3.059,3.082a9.992,9.992,0,0,1,.091,5.929l-.026.108c-.114.476-.326,1.361-1.254,1.361h0a1.5,1.5,0,0,1-.246-.021C91,29,91.012,27.433,91.028,25.444a9.443,9.443,0,0,0-.235-2.963,1.558,1.558,0,0,0-2.986-.2,27.062,27.062,0,0,0-1.536,3.246c-.207.491-.413.983-.631,1.467-.05.111-.091.228-.132.344a2.808,2.808,0,0,1-.419.849,1.275,1.275,0,0,1-1,.554c-.7,0-1.2-.687-1.549-1.371l-.307.165a10.11,10.11,0,0,1-2.519,1.079,6.708,6.708,0,0,1-1.513.188,3.757,3.757,0,0,1-3.13-1.467,1.952,1.952,0,0,1-.158.843,1.762,1.762,0,0,1-1.521,1.09Zm1.267-7.62a2.26,2.26,0,0,0-.375.046l-.2.032c-.1.014-.148.021-.121.359a10.139,10.139,0,0,1-.011,1.319,3.5,3.5,0,0,0,.5,2.58,5.2,5.2,0,0,1,.081-3.616,2.243,2.243,0,0,1,.225-.423,1.191,1.191,0,0,0,.129-.235A.388.388,0,0,0,74.542,21.651Zm2.93.647a.519.519,0,0,0,.127.014,1.693,1.693,0,0,0,1.137-.582.852.852,0,0,0,.227-.5l-.014,0A2.453,2.453,0,0,0,77.473,22.3Z" transform="translate(0 0)"/>
    <path class="cls-2" d="M69.746,18.95a7.593,7.593,0,0,1,1.659.165,29.827,29.827,0,0,0,4.029.5c.5.046,1,.092,1.5.092a5.135,5.135,0,0,0,2.025-.364,1.619,1.619,0,0,1,.626-.136,1.535,1.535,0,0,1,1.25.744c.53.745.169,1.379-.232,1.98A6.331,6.331,0,0,1,77.523,24.1c-1.389.576-1.483,1.2-.385,2.129a2.313,2.313,0,0,0,1.544.585,2.838,2.838,0,0,0,.459-.039c3.014-.493,4.231-1.951,4.171-5.053a4.335,4.335,0,0,1,.334-2.092,1.012,1.012,0,0,1,.842-.672.9.9,0,0,1,.3.053c.461.159.453.575.462.988.02.949-.222,2.97-.222,2.97s.952-1.234,1.308-1.858a3.644,3.644,0,0,1,3.387-1.931,6.06,6.06,0,0,1,.674.039c1.572.176,2.173,1.42,2.643,2.751a9.6,9.6,0,0,1,.077,5.643c-.124.5-.219,1.09-.795,1.09a1.018,1.018,0,0,1-.165-.014c-1.154-.19-.218-4.9-.9-6.413a2.046,2.046,0,0,0-3.872-.251,48.174,48.174,0,0,0-2.192,4.761A4.937,4.937,0,0,1,84.7,27.87a.807.807,0,0,1-.6.367c-.423,0-.868-.513-1.317-1.557a14.372,14.372,0,0,1-3.171,1.443,6.185,6.185,0,0,1-1.4.176,3.273,3.273,0,0,1-2.742-1.284,4.535,4.535,0,0,1-.582-4.47c.154-.416.673-.772.169-1.221a.729.729,0,0,0-.509-.173,4.741,4.741,0,0,0-.645.083c-.537.076-.579.511-.55.893.12,1.533-.514,3.211.911,4.506a1.179,1.179,0,0,1,.2,1.346,1.272,1.272,0,0,1-1.11.786q-.038,0-.073,0c-.421,0-.576-.389-.771-.711-.916-1.512-.929-5.2-.937-5.356-.054-1.023-2.013-1.84-3.629-1.84-1.088,0-2.02.371-2.108,1.3.485.875,1.287,1.072,1.917,1.492a17.594,17.594,0,0,1,2.523,1.807,1.332,1.332,0,0,1-.848,2.308,6.911,6.911,0,0,1-.717.038,5.7,5.7,0,0,1-3.738-1.345c-.232-.193-.575-.656-.514-.74a1.362,1.362,0,0,0,.26-.658,12.636,12.636,0,0,0,1.637.886.69.69,0,0,0,.277.06c.616,0,1.031-.88.371-1.167a20.559,20.559,0,0,1-2.9-1.7,1.806,1.806,0,0,1,.138-1.646c1.042-1.975,3.583-2.55,5.507-2.55M77.6,22.812c.828,0,2-.834,1.851-1.753a.493.493,0,0,0-.5-.331c-.882,0-2.435,1.438-1.889,1.909a.808.808,0,0,0,.539.175M69.746,17.95h0c-2.984,0-5.373,1.153-6.391,3.084a2.8,2.8,0,0,0-.184,2.478,1,1,0,0,0,.388.474l.394.257.1.068a1,1,0,0,0-.337.64.365.365,0,0,1-.078.187c-.667.925.545,1.976.685,2.093a6.67,6.67,0,0,0,4.378,1.576,7.946,7.946,0,0,0,.82-.043,2.43,2.43,0,0,0,1.746-.994,4.608,4.608,0,0,0,.377.807l.067.115a1.782,1.782,0,0,0,1.56,1.078c.055,0,.112,0,.172-.009a2.27,2.27,0,0,0,1.933-1.394l0-.011a4.392,4.392,0,0,0,2.822.941,7.2,7.2,0,0,0,1.627-.2,10.015,10.015,0,0,0,2.517-1.058,2.138,2.138,0,0,0,1.744,1.2,1.751,1.751,0,0,0,1.385-.742,3.257,3.257,0,0,0,.5-1c.037-.1.072-.207.116-.3.22-.49.429-.986.638-1.482a26.236,26.236,0,0,1,1.5-3.182,1.33,1.33,0,0,1,1.031-.778c.4,0,.8.349,1.068.935a9.969,9.969,0,0,1,.191,2.753c-.017,2.14-.032,3.988,1.463,4.234a2.013,2.013,0,0,0,.327.027c1.322,0,1.626-1.267,1.74-1.745l.026-.106a10.473,10.473,0,0,0-.105-6.216c-.361-1.021-1.113-3.147-3.475-3.412a7.092,7.092,0,0,0-.785-.045,4.673,4.673,0,0,0-3.493,1.406,1.639,1.639,0,0,0-1.116-1.521,1.9,1.9,0,0,0-.621-.108,1.926,1.926,0,0,0-1.734,1.22,5.284,5.284,0,0,0-.441,2.563c.051,2.609-.79,3.63-3.333,4.046a1.85,1.85,0,0,1-.3.026,1.31,1.31,0,0,1-.9-.347,3.213,3.213,0,0,1-.271-.255,3.391,3.391,0,0,1,.392-.188,7.3,7.3,0,0,0,3.532-2.536,2.575,2.575,0,0,0,.215-3.115,2.534,2.534,0,0,0-2.065-1.164,2.617,2.617,0,0,0-1.013.213,4.137,4.137,0,0,1-1.639.286c-.464,0-.945-.044-1.411-.087-.263-.024-.526-.046-.79-.068a21.7,21.7,0,0,1-3.1-.408,8.638,8.638,0,0,0-1.886-.191ZM67,22.039a2.208,2.208,0,0,1,.941-.175,3.641,3.641,0,0,1,2.637.929l-.006.014c.011.514.035,1.076.082,1.65A15.464,15.464,0,0,0,68.887,23.2c-.2-.126-.392-.252-.585-.38a7.122,7.122,0,0,0-.624-.36,3.674,3.674,0,0,1-.68-.423Z" transform="translate(0 0)"/>
  </g>
  <g>
    <path class="cls-1" d="M127.565,33.417a1.755,1.755,0,0,1-1.264-.583,1.265,1.265,0,0,1-.425-1.362,16.742,16.742,0,0,0,.87-5.631,27.1,27.1,0,0,1,.345-3.863,30.766,30.766,0,0,1,2.191-7.158,7.011,7.011,0,0,1,2.776-2.926,3.167,3.167,0,0,1,1.737-.576,2.792,2.792,0,0,1,1.708.62,3.238,3.238,0,0,1,1.2,3.254,6.44,6.44,0,0,1-2.75,3.922,8.844,8.844,0,0,1-.986.677,3.293,3.293,0,0,1,1.028.313l.451.237A4.294,4.294,0,0,0,136.12,21c.308,0,.738-.123,1.6-1.033a2.287,2.287,0,0,1,1.765-.641c.192,0,.386.01.578.021l.322.016c.622.021,2.274.077,2.253,1.948a2.386,2.386,0,0,1-2.334,2.5l-.49-.019c-.3-.014-.6-.027-.895-.027a5.876,5.876,0,0,0-.987.072c-.292.049-.352.126-.352.126s-.05.1.156.556c.289.633.9.856,1.79,1.01l.417.078a6.769,6.769,0,0,0,1.265.164,2.485,2.485,0,0,0,.69-.091,1.728,1.728,0,0,1,.47-.069,1.163,1.163,0,0,1,1.192,1.154,1.759,1.759,0,0,1-.389,1.355,1.332,1.332,0,0,1-1.008.419h0a1.879,1.879,0,0,1-.245-.017c-.352-.047-.708-.082-1.064-.117a8.4,8.4,0,0,1-4.211-1.192,2.707,2.707,0,0,0-1.522-.593,2.03,2.03,0,0,0-1.03.309,3.522,3.522,0,0,1-1.135.359c-.125.024-.251.049-.373.079a5.7,5.7,0,0,1-1.324.189,2.212,2.212,0,0,1-2.2-1.765c-.005,1.05-.005,2.1-.006,3.152l0,2.688a1.659,1.659,0,0,1-.906,1.674A1.558,1.558,0,0,1,127.565,33.417Zm3.7-10.76a.5.5,0,0,1,.229.056,1.119,1.119,0,0,1,.581.651,1.062,1.062,0,0,1-.084.813c-.225.432-.211.635-.188.672.009.015.1.072.332.072a2.51,2.51,0,0,0,1.814-.814c.046-.4-1.27-1.264-1.781-1.462a6.537,6.537,0,0,0-2.052-.519c-.489,0-.883.134-1.007,1.592a7.115,7.115,0,0,1,1.963-1.022A.5.5,0,0,1,131.266,22.657Zm8.7-1.239a.266.266,0,0,0-.173.159.438.438,0,0,0-.038.131c.224-.11.284-.219.276-.258l-.042-.035A.082.082,0,0,0,139.968,21.418Zm-6.527-7.253c-.292,0-.667.333-.969.6a7.93,7.93,0,0,0-2.185,3.716l1.3-.578a4.152,4.152,0,0,0,2.134-1.94c.5-1.007.305-1.393.074-1.617A.5.5,0,0,0,133.441,14.165Z" transform="translate(0 0)"/>
    <path class="cls-2" d="M133.794,11.818a2.291,2.291,0,0,1,1.405.518,2.766,2.766,0,0,1,1.005,2.781c-.246,1.615-1.391,2.648-2.572,3.61a23.577,23.577,0,0,1-2.044,1.322c.591.247,1.44.121,2.172.5a5.994,5.994,0,0,0,2.359.954c.58,0,1.149-.329,1.964-1.19a1.8,1.8,0,0,1,1.4-.484c.295,0,.595.027.882.036.94.032,1.784.227,1.77,1.443a1.877,1.877,0,0,1-1.834,2h-.077c-.439-.017-.873-.045-1.308-.045a6.393,6.393,0,0,0-1.069.08c-.964.163-.865.731-.568,1.383a2.588,2.588,0,0,0,2.159,1.295,10.364,10.364,0,0,0,1.768.249,2.992,2.992,0,0,0,.827-.11,1.224,1.224,0,0,1,.333-.05.66.66,0,0,1,.693.694c.058.712-.252,1.234-.9,1.234a1.346,1.346,0,0,1-.179-.012c-1.722-.231-3.545-.172-5.056-1.224a3.194,3.194,0,0,0-1.807-.683,2.522,2.522,0,0,0-1.281.376,10.329,10.329,0,0,1-2.581.56c-.941,0-1.424-.47-1.767-1.555-.444-1.4-.442-1.408,1.774-2.341a.55.55,0,0,1,.281.79c-.565,1.089-.114,1.474.587,1.474.91,0,2.241-.65,2.311-1.253.1-.908-1.878-1.909-2.1-1.992a6.96,6.96,0,0,0-2.227-.55c-1.18,0-1.529.906-1.547,3.054-.02,2.316-.008,4.631-.016,6.947,0,.5-.089,1.011-.591,1.211a1.065,1.065,0,0,1-.4.078,1.273,1.273,0,0,1-.9-.431c-.23-.237-.452-.5-.32-.83,1.226-3.089.649-6.409,1.241-9.587a30.31,30.31,0,0,1,2.155-7.043,6.515,6.515,0,0,1,2.595-2.714,2.672,2.672,0,0,1,1.462-.494m-4.3,7.561c1.036-.458,1.669-.737,2.3-1.019a4.66,4.66,0,0,0,2.377-2.172c.369-.736.613-1.582-.024-2.2a1,1,0,0,0-.707-.323,2.347,2.347,0,0,0-1.35.769c-1.336,1.182-1.983,2.777-2.6,4.944m10.144,2.882a.564.564,0,0,0,.205-.043c1.067-.419.724-1.3.149-1.3a.59.59,0,0,0-.149.019c-.72.188-.767,1.326-.205,1.326m-5.843-11.442a3.656,3.656,0,0,0-2.011.658,7.457,7.457,0,0,0-2.957,3.137,31.251,31.251,0,0,0-2.227,7.273,27.5,27.5,0,0,0-.353,3.935,16.361,16.361,0,0,1-.835,5.466,1.749,1.749,0,0,0,.531,1.9,2.272,2.272,0,0,0,1.622.734,2,2,0,0,0,1.988-2.286q0-1.339,0-2.678,0-.73,0-1.46a2.567,2.567,0,0,0,1.7.56,6.178,6.178,0,0,0,1.442-.2c.114-.028.232-.05.35-.073a3.973,3.973,0,0,0,1.292-.418,1.55,1.55,0,0,1,.779-.241,2.254,2.254,0,0,1,1.236.5A8.917,8.917,0,0,0,140.8,28.9c.351.034.7.069,1.048.115a2.345,2.345,0,0,0,.312.021,1.842,1.842,0,0,0,1.375-.58,2.248,2.248,0,0,0,.52-1.735,1.654,1.654,0,0,0-1.69-1.613,2.218,2.218,0,0,0-.607.088,1.994,1.994,0,0,1-.553.072,6.4,6.4,0,0,1-1.172-.155c-.143-.027-.284-.055-.425-.079-.873-.151-1.245-.341-1.42-.725l0-.007a5.83,5.83,0,0,1,.73-.04c.29,0,.579.014.87.027l.4.017.115,0a2.875,2.875,0,0,0,2.834-2.99c.012-1.077-.453-2.376-2.736-2.454-.1,0-.206-.009-.311-.015-.2-.011-.4-.022-.6-.022a2.787,2.787,0,0,0-2.128.8c-.831.877-1.138.877-1.238.877a4.314,4.314,0,0,1-1.444-.6l-.454-.239-.1-.048q.071-.054.141-.111c1.319-1.076,2.632-2.29,2.928-4.235a3.758,3.758,0,0,0-1.387-3.727,3.278,3.278,0,0,0-2.012-.722Zm-2.632,6.729a6.234,6.234,0,0,1,1.591-2.363l.051-.045a3.142,3.142,0,0,1,.613-.464c.009.008.021.018.035.031.057.056.232.225-.173,1.033a3.669,3.669,0,0,1-1.891,1.707l-.225.1Zm1.284,6.839a1.583,1.583,0,0,0,.161-.934,4.3,4.3,0,0,1,.732.568,2.817,2.817,0,0,1-.892.367Z" transform="translate(0 0)"/>
  </g>
  <g>
    <path class="cls-1" d="M137.767,81.733A1.6,1.6,0,0,1,136.16,80.5a10.531,10.531,0,0,0-.848-2.786,8.358,8.358,0,0,1-.887-4.724q-.066,0-.127,0c-.468,0-.773.144-.845.857-.161,1.584-.223,2.89.534,4.07a1.8,1.8,0,0,1,.36,1.407,1.206,1.206,0,0,1-.628.764,1.464,1.464,0,0,1-.7.195c-.819,0-1.276-.8-1.471-1.146a8.931,8.931,0,0,1-.894-5.494,1.359,1.359,0,0,0-.3-.034,1.525,1.525,0,0,0-1.024.46,1.512,1.512,0,0,1-.993.443,1.192,1.192,0,0,1-1.112-.9,1.606,1.606,0,0,1,.078-1.449,1.185,1.185,0,0,1,.971-.532,4.536,4.536,0,0,0,2-.81,5.061,5.061,0,0,1,2.576-.944,3.12,3.12,0,0,1,1.134.221,8.72,8.72,0,0,1,2.82-.95,11.756,11.756,0,0,0,1.772-.471,3.95,3.95,0,0,1,1.44-.312,2.644,2.644,0,0,1,1.524.481,3.9,3.9,0,0,1,1.6,3.324,3.754,3.754,0,0,1-1.611,3.167,1.819,1.819,0,0,1-.371.173l-.039.014a37.616,37.616,0,0,0,3.824,1.151l1.109.295a2.3,2.3,0,0,0,.344.055,2.633,2.633,0,0,1,.624.126,1.366,1.366,0,0,1,.86,1.138,1.017,1.017,0,0,1-.83,1.121,3.853,3.853,0,0,1-1.344.249h0a4.986,4.986,0,0,1-1.645-.307c-1.54-.535-2.723-.917-3.836-1.237a3.462,3.462,0,0,0-.793-.159c-.126,0-.246,0-.3,1a3.2,3.2,0,0,0,.042.573c.013.1.026.205.036.307.122,1.3-.526,1.734-1.091,1.864A1.6,1.6,0,0,1,137.767,81.733ZM139.782,71.3a1.28,1.28,0,0,0-.9.345.959.959,0,0,0-.242.723c.024.656.23.675.449.695h0a1.529,1.529,0,0,0,1.3-1.318C140.4,71.464,140.381,71.413,139.782,71.3Z" transform="translate(0 0)"/>
    <path class="cls-2" d="M140.012,68.86a2.16,2.16,0,0,1,1.243.4,3.583,3.583,0,0,1,0,5.657c-.311.2-.811.15-.892.843a43.217,43.217,0,0,0,5.556,1.693c.3.082.637.062.927.168a.863.863,0,0,1,.536.736c.059.434-.3.507-.582.611a3.177,3.177,0,0,1-1.1.192,4.519,4.519,0,0,1-1.481-.28c-1.277-.444-2.562-.871-3.861-1.245a3.619,3.619,0,0,0-.932-.178c-.591,0-.741.41-.8,1.471a6.637,6.637,0,0,0,.079.953c.056.6-.031,1.174-.705,1.33a1.079,1.079,0,0,1-.243.027,1.119,1.119,0,0,1-1.11-.785c-.283-2.645-2.451-4.864-1.628-7.871a3.418,3.418,0,0,0-.732-.09c-.832,0-1.255.444-1.342,1.306a6.487,6.487,0,0,0,.611,4.391c.315.491.553,1.111-.088,1.462a.966.966,0,0,1-.464.134c-.468,0-.784-.45-1.036-.892a8.678,8.678,0,0,1-.784-5.593,2.144,2.144,0,0,0-.842-.188,2.019,2.019,0,0,0-1.357.587,1.05,1.05,0,0,1-.661.316c-.264,0-.491-.185-.646-.585-.236-.608-.06-1.269.606-1.3,1.657-.076,2.892-1.754,4.551-1.753a2.686,2.686,0,0,1,1.181.286c1.421-.978,3.175-.927,4.724-1.52a3.557,3.557,0,0,1,1.261-.279m-.878,4.7a2.023,2.023,0,0,0,1.75-1.8c.032-.775-.527-.863-1.06-.966a1.523,1.523,0,0,0-1.686,1.588c.022.606.2,1.111.9,1.174q.046,0,.093,0m.878-5.7a4.426,4.426,0,0,0-1.619.345,11.388,11.388,0,0,1-1.7.449,9.7,9.7,0,0,0-2.766.891,3.551,3.551,0,0,0-1.084-.173,5.526,5.526,0,0,0-2.831,1.014,4.21,4.21,0,0,1-1.766.74,1.7,1.7,0,0,0-1.367.758,2.1,2.1,0,0,0-.125,1.9,1.68,1.68,0,0,0,1.578,1.222,1.993,1.993,0,0,0,1.326-.569,1.452,1.452,0,0,1,.441-.288,9,9,0,0,0,1.008,5.228,2.336,2.336,0,0,0,1.905,1.4,1.957,1.957,0,0,0,.945-.256,1.694,1.694,0,0,0,.872-1.078,2.256,2.256,0,0,0-.423-1.8,4.617,4.617,0,0,1-.525-3,12.148,12.148,0,0,0,.966,3.256,10.182,10.182,0,0,1,.814,2.652,2.151,2.151,0,0,0,2.573,1.626,1.97,1.97,0,0,0,1.476-2.4c-.01-.108-.024-.217-.038-.326a3,3,0,0,1-.038-.481c.012-.222.027-.379.042-.49.1.021.235.054.412.105,1.409.406,2.776.87,3.81,1.229a5.481,5.481,0,0,0,1.809.335,4.2,4.2,0,0,0,1.436-.252l.07-.024a1.457,1.457,0,0,0,1.162-1.661,1.855,1.855,0,0,0-1.183-1.54,3.1,3.1,0,0,0-.74-.154,1.821,1.821,0,0,1-.269-.041c-.372-.1-.744-.2-1.117-.3-.967-.254-1.9-.5-2.8-.792a4.624,4.624,0,0,0-.453-6.967,3.172,3.172,0,0,0-1.8-.568Zm-.855,4.7a1.509,1.509,0,0,1-.021-.214.449.449,0,0,1,.106-.361.787.787,0,0,1,.506-.186l.112.023a1.134,1.134,0,0,1-.7.737Z" transform="translate(0 0)"/>
  </g>
  <g>
    <path class="cls-1" d="M42.429,42.681c-1.218,0-1.542-.97-2.251-3.1L40,39.078a4.468,4.468,0,0,1-.354-2.409,2.3,2.3,0,0,1,1.894-2.049c1.028-.192,2.067-.452,3.072-.7a25.9,25.9,0,0,1,6.217-1.027,4.8,4.8,0,0,1,.754-.06,6.022,6.022,0,0,1,1.937.365c1.772.594,2.777,1.6,2.758,2.77-.021,1.191-1.492,2.868-2.917,3.323q-1.243.4-2.489.785c-1.931.6-3.927,1.231-5.864,1.907l-.139.048a8.534,8.534,0,0,1-2.445.652Z" transform="translate(0 0)"/>
    <path class="cls-2" d="M51.587,33.33a5.474,5.474,0,0,1,1.778.339c1.529.512,2.432,1.342,2.417,2.287-.016.973-1.369,2.472-2.569,2.855-2.791.892-5.6,1.731-8.365,2.7a9.218,9.218,0,0,1-2.419.673c-.879,0-1.115-.773-1.826-2.9a4.849,4.849,0,0,1-.461-2.515,1.826,1.826,0,0,1,1.495-1.65c3.111-.582,6.118-1.722,9.2-1.722h.048a4.282,4.282,0,0,1,.707-.06m0-1a5.3,5.3,0,0,0-.786.059,26.409,26.409,0,0,0-6.307,1.042c-1,.249-2.029.507-3.042.7a2.818,2.818,0,0,0-2.294,2.448,4.932,4.932,0,0,0,.374,2.665c.041.116.082.233.121.351l.05.151c.715,2.143,1.146,3.437,2.724,3.437A8.715,8.715,0,0,0,45.04,42.5l.137-.048c1.933-.675,3.928-1.3,5.857-1.9q1.242-.389,2.483-.783c1.458-.466,3.239-2.261,3.264-3.791.023-1.4-1.106-2.585-3.1-3.252a6.482,6.482,0,0,0-2.1-.391Z" transform="translate(0 0)"/>
  </g>
  <g>
    <path class="cls-1" d="M41.068,31.311c-.755,0-1.058-.695-1.258-1.155l-.1-.219a8.05,8.05,0,0,1-.385-1.061,3.27,3.27,0,0,0-.928-1.721,1.273,1.273,0,0,1-.145-1.618,2.489,2.489,0,0,0,.068-1.428,5.278,5.278,0,0,1-.079-1.078.357.357,0,0,0-.032-.22.379.379,0,0,0-.233-.048l-.209.014c-.123.011-.248.022-.368.022a1.017,1.017,0,0,1-1.11-1.083,1.8,1.8,0,0,1,.972-1.591,1.878,1.878,0,0,1,.917-.267c2.234-.082,4.468-.156,6.7-.212h.009a1.7,1.7,0,0,1,1.4.479,1.4,1.4,0,0,1,.25,1.185,2.1,2.1,0,0,1-.3.825,1.359,1.359,0,0,1,.241-.021,1.571,1.571,0,0,1,.649.146,1.261,1.261,0,0,1,.673,1.554,7.846,7.846,0,0,0-.185,2.681c.147.887.551.937.7.956h.01c.211,0,.3-.125.516-.513.048-.087.1-.175.147-.26A7.056,7.056,0,0,0,49.94,23.5c.012-.16.013-.322.015-.484a4.659,4.659,0,0,1,.086-1.019,1.625,1.625,0,0,1,1.634-1.333,2.1,2.1,0,0,1,.4.038,1.249,1.249,0,0,1,.879.553,1.739,1.739,0,0,1,.065,1.389,7.572,7.572,0,0,0,.013,3.207c.053.368.105.736.143,1.1.062.616.141.766.471.887.747.275.96.677,1.009.965a1.15,1.15,0,0,1-.529,1.09,2.452,2.452,0,0,1-1.485.681,1.7,1.7,0,0,1-1.282-.657,2.661,2.661,0,0,1-.571-1.608l0-.023-.035.083a2.847,2.847,0,0,1-.18.372,2.917,2.917,0,0,1-2.61,1.465,4.161,4.161,0,0,1-.555-.038,2.749,2.749,0,0,1-2.3-2.286c-.042-.156-.072-.32-.1-.485-.1-.6-.161-.736-.539-.783a3.566,3.566,0,0,0-.442-.027,5.256,5.256,0,0,0-2.279.607c-.1.05-.082.309-.032.477a5.659,5.659,0,0,0,.547,1.135,1.834,1.834,0,0,1,.231,1.486,1.572,1.572,0,0,1-1.415,1.02Zm1.974-9.266c-.22,0-.44.013-.659.025l-.181.01c-1.265.067-1.391.216-1.348,1.6.022.725.288.728.546.728h0a1.777,1.777,0,0,0,.23-.017c.447-.058.892-.139,1.336-.22.495-.09.99-.181,1.488-.241.329-.04.408-.191.591-.625a4.469,4.469,0,0,1,.207-.444,1.583,1.583,0,0,1,.142-.213c-.038,0-.074,0-.107,0a2.045,2.045,0,0,1-1.028-.336A2.3,2.3,0,0,0,43.041,22.045Z" transform="translate(0 0)"/>
    <path class="cls-2" d="M44.977,20.145c.674,0,1.22.216,1.073,1.082-.107.625-.365.925-.761.925a1.589,1.589,0,0,1-.773-.266,2.8,2.8,0,0,0-1.474-.339c-.289,0-.58.021-.867.036-1.576.084-1.871.509-1.822,2.112.026.846.377,1.213,1.049,1.213a2.3,2.3,0,0,0,.294-.02c.944-.122,1.876-.346,2.82-.46.828-.1.873-.782,1.174-1.324a.9.9,0,0,1,.793-.488,1.074,1.074,0,0,1,.443.1c.441.2.465.588.388,1.008a8.268,8.268,0,0,0-.187,2.853c.105.638.4,1.279,1.134,1.371a.992.992,0,0,0,.122.008c.58,0,.766-.563,1.041-1.019a7.54,7.54,0,0,0,1.013-3.4,9.72,9.72,0,0,1,.089-1.428,1.124,1.124,0,0,1,1.147-.945,1.633,1.633,0,0,1,.3.029c.728.138.729.706.556,1.313-.431,1.512-.01,3,.139,4.5.06.6.146,1.067.8,1.307.6.22,1.034.629.337,1.2a2,2,0,0,1-1.169.568,1.212,1.212,0,0,1-.907-.489c-.557-.629-.351-1.477-.61-2.161-.722.088-.748.673-.981,1.057a2.411,2.411,0,0,1-2.182,1.225,3.694,3.694,0,0,1-.489-.034,2.31,2.31,0,0,1-1.889-1.922c-.183-.665-.067-1.508-1.058-1.632a4.067,4.067,0,0,0-.5-.031,5.8,5.8,0,0,0-2.495.655c-.408.195-.406.7-.3,1.071a6.208,6.208,0,0,0,.611,1.274,1.057,1.057,0,0,1-.38,1.63.961.961,0,0,1-.388.1c-.507,0-.675-.6-.9-1.087-.466-.989-.5-2.18-1.449-2.955-.353-.288-.129-.733.03-1.107.366-.863-.054-1.732,0-2.6a.672.672,0,0,0-.763-.8q-.067,0-.14.006c-.143.011-.295.03-.437.03-.322,0-.6-.1-.611-.6a1.357,1.357,0,0,1,.74-1.156,1.386,1.386,0,0,1,.667-.189q3.347-.123,6.7-.212h.084m0-1h-.109c-1.992.05-4.123.117-6.707.212a2.391,2.391,0,0,0-1.167.345,2.323,2.323,0,0,0-1.2,2.028A1.518,1.518,0,0,0,37.4,23.3c.11,0,.224-.008.337-.018a7.1,7.1,0,0,0,.089.9,2.1,2.1,0,0,1,0,1.091l-.029.068a1.756,1.756,0,0,0,.287,2.2,2.827,2.827,0,0,1,.767,1.482,8.448,8.448,0,0,0,.411,1.125c.031.067.062.136.092.206a1.876,1.876,0,0,0,3.607.091,2.294,2.294,0,0,0-.255-1.858,5.519,5.519,0,0,1-.517-1.053,4.508,4.508,0,0,1,1.829-.45,3.07,3.07,0,0,1,.38.023l.032,0a3.479,3.479,0,0,1,.075.367c.031.181.063.361.111.533a3.246,3.246,0,0,0,2.72,2.649,4.712,4.712,0,0,0,.622.043,3.373,3.373,0,0,0,2.6-1.12,2.46,2.46,0,0,0,.42.663,2.182,2.182,0,0,0,1.656.826,2.89,2.89,0,0,0,1.8-.794,1.618,1.618,0,0,0,.705-1.56,1.8,1.8,0,0,0-1.329-1.351.329.329,0,0,1-.081-.039,2.462,2.462,0,0,1-.065-.429c-.038-.376-.091-.752-.145-1.128a7.216,7.216,0,0,1-.027-3,2.254,2.254,0,0,0-.12-1.788,1.736,1.736,0,0,0-1.212-.782,2.64,2.64,0,0,0-.488-.047,2.13,2.13,0,0,0-2.121,1.721,5.115,5.115,0,0,0-.1,1.126c0,.151,0,.3-.013.451a6.483,6.483,0,0,1-.872,2.962c-.055.091-.106.185-.158.279-.034.062-.077.141-.117.207a1.057,1.057,0,0,1-.18-.493A7.481,7.481,0,0,1,48.3,23.9a1.734,1.734,0,0,0-.959-2.1,2.191,2.191,0,0,0-.364-.128q.034-.133.06-.282a1.873,1.873,0,0,0-.36-1.591,2.107,2.107,0,0,0-1.7-.658ZM41.427,22.7a2.359,2.359,0,0,1,.8-.123l.182-.01c.21-.012.421-.025.632-.025a1.817,1.817,0,0,1,.964.2,3.282,3.282,0,0,0,.612.289l-.032.076a2.369,2.369,0,0,1-.15.318l-.039.005c-.519.063-1.028.156-1.52.246-.452.082-.879.16-1.308.216a1.3,1.3,0,0,1-.166.012h-.023a1.317,1.317,0,0,1-.026-.243,2.213,2.213,0,0,1,.074-.96Z" transform="translate(0 0)"/>
  </g>
  <g>
    <path class="cls-1" d="M42.5,83.865c-.529,0-1.224-.237-1.531-1.366-.14-.516-.267-1.036-.394-1.556A21.73,21.73,0,0,0,39.3,76.87c-.139-.3-.259-.607-.38-.915a5.98,5.98,0,0,0-1.038-1.932,1.87,1.87,0,0,1-.193-2.36,1.312,1.312,0,0,1,1.155-.618c.049,0,.1,0,.15.007a1.767,1.767,0,0,1,1.691,1.66,9.5,9.5,0,0,0,.91,2.64c.059.129.118.259.177.39a5.277,5.277,0,0,0-.3-1.941,2.162,2.162,0,0,1,.085-1.851,1.781,1.781,0,0,1,1.271-.864,2.459,2.459,0,0,1,.416-.038,2.076,2.076,0,0,1,1.886,1.561c.174.43.337.865.5,1.307a30.245,30.245,0,0,0,1.237,2.957,8.52,8.52,0,0,0-.055-3.746,5.644,5.644,0,0,1-.346-2.054A1.462,1.462,0,0,1,48.1,69.646a1.359,1.359,0,0,1,1.045.43,1.32,1.32,0,0,1,.3,1.05,24.287,24.287,0,0,0-.015,4.184,23.326,23.326,0,0,1-.063,4.683c-.118.805-.269,1.838-1.532,2.01a2.115,2.115,0,0,1-.282.02,2.137,2.137,0,0,1-1.847-1.457q-.653-1.326-1.318-2.645l-.031-.063a8.191,8.191,0,0,0-.084,1.588c0,.365.008.727-.018,1.088l-.023.364a8.594,8.594,0,0,1-.2,1.617,1.59,1.59,0,0,1-1.385,1.345C42.6,83.864,42.548,83.865,42.5,83.865Z" transform="translate(0 0)"/>
    <path class="cls-2" d="M48.111,70.146a.78.78,0,0,1,.84.92c-.356,2.95.357,5.9-.077,8.854-.113.769-.194,1.463-1.1,1.588a1.585,1.585,0,0,1-.214.015c-.727,0-1.093-.557-1.4-1.178-.622-1.261-1.255-2.517-1.884-3.775-.717,1.391-.424,2.666-.515,3.928a10.865,10.865,0,0,1-.212,1.893,1.128,1.128,0,0,1-.94.97q-.053,0-.1,0c-.609,0-.9-.447-1.049-1a35.08,35.08,0,0,0-1.7-5.709,10.68,10.68,0,0,0-1.5-2.973,1.374,1.374,0,0,1-.135-1.764.819.819,0,0,1,.728-.378c.034,0,.069,0,.1,0a1.28,1.28,0,0,1,1.241,1.228c.248,1.835,1.436,3.337,1.835,5.153a8.134,8.134,0,0,0-.088-4.3,1.405,1.405,0,0,1,.971-2.049,1.953,1.953,0,0,1,.331-.03c.729,0,1.115.489,1.423,1.248a33.658,33.658,0,0,0,2.5,5.64c.264-2.124.647-3.771.13-5.457a5.247,5.247,0,0,1-.325-1.876c.044-.7.5-.953,1.137-.957h.009m0-1H48.1a1.96,1.96,0,0,0-2.128,1.894,6.058,6.058,0,0,0,.367,2.233,5.276,5.276,0,0,1,.211,1.633c-.156-.393-.3-.781-.447-1.166-.168-.446-.333-.885-.508-1.319a2.583,2.583,0,0,0-2.349-1.873,2.968,2.968,0,0,0-.5.045,2.275,2.275,0,0,0-1.62,1.108,2.328,2.328,0,0,0-.123.246,2.238,2.238,0,0,0-1.957-1.391q-.1-.009-.2-.009a1.824,1.824,0,0,0-1.582.858,2.37,2.37,0,0,0,.25,2.957,5.621,5.621,0,0,1,.943,1.778c.124.317.249.633.391.941a21.379,21.379,0,0,1,1.245,3.982c.128.524.256,1.048.4,1.568A2.053,2.053,0,0,0,42.5,84.365q.088,0,.181-.007a2.088,2.088,0,0,0,1.831-1.72,9.018,9.018,0,0,0,.217-1.708l.023-.36c.018-.257.023-.509.022-.756q.242.486.482.973a2.638,2.638,0,0,0,2.3,1.736,2.582,2.582,0,0,0,.35-.024,2.339,2.339,0,0,0,1.951-2.382l.007-.051a23.749,23.749,0,0,0,.068-4.782,23.511,23.511,0,0,1,.012-4.1,1.81,1.81,0,0,0-.425-1.441,1.843,1.843,0,0,0-1.407-.6Z" transform="translate(0 0)"/>
  </g>
  <g>
    <path class="cls-1" d="M50.891,11.408c-1.638,0-1.746-2.824-1.825-4.887-.015-.388-.027-.729-.051-.982-.13-1.428-.251-1.782-1.07-1.782a2.976,2.976,0,0,0-.356.023,1.592,1.592,0,0,1-.2.013h0a1.265,1.265,0,0,1-.919-.362,1.316,1.316,0,0,1-.348-.988,1.272,1.272,0,0,1,1.4-1.326c.446,0,1.129.07,1.92.147,1.152.112,2.585.251,3.762.251,1.52,0,1.874-.234,1.946-.306A2.421,2.421,0,0,1,56.675.5a.909.909,0,0,1,.461.112,9.74,9.74,0,0,1,1.315-.1,4.681,4.681,0,0,1,3.51,1.267,3.256,3.256,0,0,1,.979,1.95,5.307,5.307,0,0,1-1.458,4.109A6.326,6.326,0,0,1,56.9,10a4.8,4.8,0,0,1-1.509-.239c-1.171-.387-2.1-2.526-1.506-4.473.208-.687.1-.854.092-.871s-.142-.129-.736-.129l-.291,0a10.215,10.215,0,0,1-1.057-.073l-.084-.009a15.918,15.918,0,0,0,.429,4.652c.033.169.053.28.057.316a2.286,2.286,0,0,1-.322,1.77,1.367,1.367,0,0,1-1.017.457Zm5.665-5.237c.034,1.012.333,1.088.513,1.134a1.53,1.53,0,0,0,.373.043,3.431,3.431,0,0,0,3-2.341A1.22,1.22,0,0,0,60.259,4a.95.95,0,0,0-.762-.308,1.185,1.185,0,0,0-.79.4,1.864,1.864,0,0,1-1.252.6h-.1c-.528,0-.63.218-.73,1.024C56.607,5.88,56.586,6.037,56.556,6.171Z" transform="translate(0 0)"/>
    <path class="cls-2" d="M56.675,1a.322.322,0,0,1,.3.128s.008,0,.019,0a12.38,12.38,0,0,1,1.461-.117A4.309,4.309,0,0,1,61.6,2.13a2.8,2.8,0,0,1,.842,1.655C62.762,6.726,59.815,9.5,56.9,9.5a4.305,4.305,0,0,1-1.353-.214c-.889-.293-1.7-2.141-1.185-3.853C54.78,4.053,54.3,3.79,53.24,3.79l-.185,0h-.108c-.5,0-1-.079-1.54-.122-.479,1.7.364,5.332.389,5.562.079.74.095,1.625-.867,1.674h-.039c-1.421,0-1.25-4.022-1.377-5.415-.11-1.2-.192-2.236-1.568-2.236a3.43,3.43,0,0,0-.418.028,1.16,1.16,0,0,1-.142.009.729.729,0,0,1-.767-.838c.015-.617.37-.838.9-.838h.019c1,.01,3.659.4,5.664.4a3.791,3.791,0,0,0,2.3-.451A1.957,1.957,0,0,1,56.675,1m.78,3.19h-.1c-1.327,0-1.132,1.319-1.3,1.928.022,1.05.3,1.523.891,1.673a2.016,2.016,0,0,0,.5.059,3.932,3.932,0,0,0,3.5-2.751A1.461,1.461,0,0,0,59.5,3.187q-.056,0-.114,0c-.861.046-1.155,1-1.928,1M56.676,0h0a2.913,2.913,0,0,0-1.884.855v0a4.769,4.769,0,0,1-1.595.162c-1.152,0-2.572-.138-3.713-.249-.836-.081-1.5-.145-1.941-.15a1.775,1.775,0,0,0-1.924,1.813,1.8,1.8,0,0,0,.49,1.35,1.761,1.761,0,0,0,1.277.513,2.161,2.161,0,0,0,.264-.016,2.434,2.434,0,0,1,.3-.02c.391,0,.451,0,.569,1.3.025.277.037.608.052.986.087,2.266.205,5.369,2.324,5.369l.09,0a1.858,1.858,0,0,0,1.372-.631,2.807,2.807,0,0,0,.439-2.147c0-.041-.026-.168-.064-.361a18.64,18.64,0,0,1-.463-4.007c.223.02.451.034.684.034l.132,0,.161,0c.1,0,.187,0,.251.008a3.18,3.18,0,0,1-.087.348c-.625,2.06.281,4.582,1.829,5.093A5.308,5.308,0,0,0,56.9,10.5a6.832,6.832,0,0,0,4.956-2.327,5.8,5.8,0,0,0,1.584-4.5,3.787,3.787,0,0,0-1.118-2.244A5.226,5.226,0,0,0,58.452.014,9.816,9.816,0,0,0,57.215.1a1.479,1.479,0,0,0-.54-.1Zm.78,5.19a2.338,2.338,0,0,0,1.582-.724c.193-.17.317-.274.4-.278l.06,0a.471.471,0,0,1,.377.128.77.77,0,0,1,.08.6,2.953,2.953,0,0,1-2.512,1.931,1.023,1.023,0,0,1-.251-.029h0c-.02,0-.11-.125-.133-.6.03-.147.048-.3.066-.442a2.451,2.451,0,0,1,.116-.582h.009c.017,0,.054,0,.109,0l.1,0Z" transform="translate(0 0)"/>
  </g>
  <g>
    <path class="cls-1" d="M19.956,78.826c-.966,0-1.579-1.569-2.523-6.612l-.089.176c-.613,1.214-1.247,2.469-1.806,3.725a4.452,4.452,0,0,1-1.73,1.971,2.685,2.685,0,0,1-1.381.38h0a2.521,2.521,0,0,1-1.955-.931c-1.456-1.69-1.741-5.568-.848-11.526a5.963,5.963,0,0,0,.05-.673,3.933,3.933,0,0,1,.293-1.577,1.376,1.376,0,0,1,1.3-.883,2.267,2.267,0,0,1,.7.125c.67.217.713,1.089.31,6.218-.114,1.449-.222,2.817-.239,3.78-.021,1.124.02,2.237.746,2.418.87-.318,4.035-7.3,3.76-8.49a1.773,1.773,0,0,1-.021-1.426,2.133,2.133,0,0,1,1.269-1.123,3.838,3.838,0,0,1,1.27-.3,1.053,1.053,0,0,1,.81.322A2.1,2.1,0,0,1,20.18,66c-.337,4.276.05,7.457,1.254,10.313a1.85,1.85,0,0,1-.134,1.641,1.719,1.719,0,0,1-1.256.87Z" transform="translate(0 0)"/>
    <path class="cls-2" d="M11.266,63.376a1.809,1.809,0,0,1,.548.1c.614.2-.223,6.662-.276,9.513-.02,1.06-.031,2.624,1.124,2.912a.285.285,0,0,0,.069.008c1.3,0,4.716-8.142,4.279-9.16a1.388,1.388,0,0,1,.954-1.9,3.488,3.488,0,0,1,1.1-.268c.561,0,.694.421.619,1.376A22.08,22.08,0,0,0,20.974,76.5a1.36,1.36,0,0,1-.987,1.82l-.031,0c-1,0-1.9-5.491-2.3-7.672-.866,1.749-1.781,3.476-2.574,5.257a3.985,3.985,0,0,1-1.547,1.756,2.175,2.175,0,0,1-1.108.3c-1.541,0-3.837-1.681-2.308-11.883a7.136,7.136,0,0,1,.3-2.112.888.888,0,0,1,.848-.595m0-1a1.877,1.877,0,0,0-1.754,1.171,4.337,4.337,0,0,0-.339,1.769,5.843,5.843,0,0,1-.045.618c-.928,6.2-.613,10.1.963,11.927a3.008,3.008,0,0,0,2.333,1.1,3.174,3.174,0,0,0,1.654-.461,5,5,0,0,0,1.914-2.186c.383-.859.8-1.72,1.225-2.569.819,4.069,1.469,5.576,2.736,5.576.038,0,.108,0,.146-.008A2.222,2.222,0,0,0,21.733,78.2a2.353,2.353,0,0,0,.163-2.087c-1.172-2.779-1.548-5.887-1.217-10.08a2.5,2.5,0,0,0-.438-1.972,1.544,1.544,0,0,0-1.177-.483,4.28,4.28,0,0,0-1.442.329A2.627,2.627,0,0,0,16.065,65.3a2.262,2.262,0,0,0-.014,1.739c0,1.168-2.219,6.427-3.336,7.7a4.964,4.964,0,0,1-.176-1.737c.017-.948.125-2.31.238-3.751.4-5.143.458-6.371-.654-6.731a2.766,2.766,0,0,0-.857-.15Z" transform="translate(0 0)"/>
  </g>
  <g>
    <path class="cls-1" d="M102.7,43.08a3.909,3.909,0,0,1-3.14-1.694,4.207,4.207,0,0,1-.148-4.8,6.5,6.5,0,0,1,5.655-3.17,7.056,7.056,0,0,1,1.191.1c1.234.211,1.293,1.019,1.218,1.481a6.124,6.124,0,0,0,.123,2.008A7.945,7.945,0,0,1,107.762,39c-.054,2.532-.275,2.672-3.179,3.712a5.6,5.6,0,0,1-1.887.37Z" transform="translate(0 0)"/>
    <path class="cls-2" d="M105.064,33.919a6.567,6.567,0,0,1,1.107.095c.589.1.9.345.809.909-.223,1.374.392,2.678.284,4.036-.049,2.278-.049,2.278-2.849,3.281a5.129,5.129,0,0,1-1.718.341,3.4,3.4,0,0,1-2.749-1.506,3.727,3.727,0,0,1-.109-4.23,6.013,6.013,0,0,1,5.225-2.925m0-1a6.991,6.991,0,0,0-6.085,3.415,4.7,4.7,0,0,0,.186,5.362A4.379,4.379,0,0,0,102.7,43.58a6.08,6.08,0,0,0,2.055-.4c3.048-1.092,3.449-1.4,3.511-4.173a8.437,8.437,0,0,0-.173-2.08,5.77,5.77,0,0,1-.123-1.844,1.728,1.728,0,0,0-1.628-2.054,7.588,7.588,0,0,0-1.275-.109Z" transform="translate(0 0)"/>
  </g>
  <g>
    <path class="cls-1" d="M64.9,81.017a1.316,1.316,0,0,1-1.1-.661A12.7,12.7,0,0,0,60.77,77.25l-.2-.151a3.99,3.99,0,0,0,.156,1.343,1.632,1.632,0,0,1-1.536,2.117c-.062.005-.122.008-.18.008a1.776,1.776,0,0,1-1.764-1.776,4.191,4.191,0,0,1,.107-1.2,4.633,4.633,0,0,0,.1-.729,13.237,13.237,0,0,0-.313-3.644,3.558,3.558,0,0,1,.74-3.043A3.8,3.8,0,0,1,60.8,68.642c.091,0,.182,0,.273.012a4.836,4.836,0,0,1,2.917,1.206c1.207,1.152,1.714,2.175,1.552,3.127-.154.9-.879,1.634-2.218,2.239-.072.033-.147.061-.224.088-.049.017-.089.032-.124.046a13.462,13.462,0,0,0,2.291,2.2c.078.059.159.115.24.172a3.477,3.477,0,0,1,.765.659,1.467,1.467,0,0,1-.318,2.147A1.584,1.584,0,0,1,64.9,81.017Zm-3.592-9.409a.384.384,0,0,0-.289.1.29.29,0,0,0-.06.232c.044.449.215.692.992.692.072,0,.145,0,.218-.006a1.328,1.328,0,0,0,.328-.043l0-.031a1.175,1.175,0,0,0-1.173-.944l-.02-.5Z" transform="translate(0 0)"/>
    <path class="cls-2" d="M60.8,69.142q.114,0,.229.01a4.351,4.351,0,0,1,2.616,1.07c1.8,1.714,2.181,3.325-.527,4.549-.28.127-.615.153-.8.562a14.067,14.067,0,0,0,2.652,2.63,4.769,4.769,0,0,1,.914.742c.434.547.184,1.059-.264,1.467a1.117,1.117,0,0,1-.722.345.846.846,0,0,1-.689-.442,13.141,13.141,0,0,0-3.145-3.229,1.237,1.237,0,0,0-.721-.355.756.756,0,0,0-.15.016,3.523,3.523,0,0,0,.045,2.053,1.136,1.136,0,0,1-1.092,1.5q-.07.006-.137.006a1.3,1.3,0,0,1-1.267-1.324,15.557,15.557,0,0,1,.211-1.863,13.552,13.552,0,0,0-.329-3.781A3.412,3.412,0,0,1,60.8,69.142m1.147,3.991c.08,0,.162,0,.244-.007.407-.021.8-.061.81-.632a1.705,1.705,0,0,0-1.662-1.385h-.036a.784.784,0,0,0-.845.881c.091.931.732,1.144,1.489,1.144M60.8,68.142a4.3,4.3,0,0,0-3.317,1.729,4.05,4.05,0,0,0-.829,3.473,12.812,12.812,0,0,1,.3,3.506,4.475,4.475,0,0,1-.093.651,4.639,4.639,0,0,0-.114,1.338,2.276,2.276,0,0,0,2.262,2.228q.108,0,.222-.01a2.129,2.129,0,0,0,1.979-2.733l-.027-.116a12.1,12.1,0,0,1,2.2,2.429,1.813,1.813,0,0,0,1.515.878,2.062,2.062,0,0,0,1.4-.607,1.957,1.957,0,0,0,.373-2.827,3.885,3.885,0,0,0-.871-.758c-.076-.053-.152-.106-.225-.161a12.8,12.8,0,0,1-1.764-1.612,3.6,3.6,0,0,0,2.231-2.481c.192-1.128-.363-2.3-1.7-3.573a5.334,5.334,0,0,0-3.217-1.343q-.16-.014-.319-.014Z" transform="translate(0 0)"/>
  </g>
  <g>
    <path class="cls-1" d="M4.145,14.535a1.3,1.3,0,0,1-1.281-1.05Q1.687,8.876.546,4.258A1.246,1.246,0,0,1,1.38,2.7a1.448,1.448,0,0,1,.4-.061c.833,0,1.006.787,1.1,1.21.1.466.186.9.27,1.347.14.739.284,1.493.494,2.284a13.112,13.112,0,0,0,.125-2.808A1.765,1.765,0,0,1,5.256,2.6a1.934,1.934,0,0,1,.34-.032c.939,0,1.259.761,1.516,1.372.19.452.362.914.538,1.382A18.885,18.885,0,0,0,9.037,8.435,8.884,8.884,0,0,0,9.251,3.9c-.022-.109-.053-.218-.083-.328a2.661,2.661,0,0,1-.139-.974,1.552,1.552,0,0,1,1.655-1.418,1.126,1.126,0,0,1,.909.382A1.478,1.478,0,0,1,11.833,2.8a27.8,27.8,0,0,0-.285,4.509,35.037,35.037,0,0,1-.173,3.793,1.545,1.545,0,0,1-1.037,1.551,1.8,1.8,0,0,1-.5.074,1.732,1.732,0,0,1-1.294-.617A14.351,14.351,0,0,1,6.411,8.8c-.157-.315-.321-.627-.5-.968a6.246,6.246,0,0,0-.2,2.1,9.6,9.6,0,0,1-.06,1.543,5.946,5.946,0,0,0-.04.831,6.1,6.1,0,0,1-.069,1.085,1.4,1.4,0,0,1-1.3,1.139Z" transform="translate(0 0)"/>
    <path class="cls-2" d="M10.693,1.677c.672,0,.726.586.648,1.033-.481,2.761-.135,5.564-.462,8.33-.058.49-.115.964-.681,1.129a1.291,1.291,0,0,1-.363.054,1.234,1.234,0,0,1-.925-.453A13.732,13.732,0,0,1,6.858,8.576c-.28-.563-.583-1.116-.959-1.834C4.833,8.29,5.37,9.913,5.152,11.4c-.091.625.006,1.28-.106,1.9a.9.9,0,0,1-.839.729l-.062,0a.8.8,0,0,1-.8-.673Q2.173,8.755,1.032,4.139a.748.748,0,0,1,.486-.963.943.943,0,0,1,.259-.041c.443,0,.528.444.617.849a33.027,33.027,0,0,0,1.269,5.2,10.349,10.349,0,0,0,.6-4.536C4.239,3.8,4.5,3.249,5.345,3.1A1.415,1.415,0,0,1,5.6,3.072c.6,0,.806.475,1.055,1.066A23.793,23.793,0,0,0,9.171,9.554,9.617,9.617,0,0,0,9.741,3.8a4.173,4.173,0,0,1-.215-1.154,1.066,1.066,0,0,1,1.161-.967h.007m0-1h-.011a2.051,2.051,0,0,0-2.152,1.87A3.1,3.1,0,0,0,8.686,3.7c.027.1.055.2.075.294a8.455,8.455,0,0,1,.094,3c-.28-.617-.51-1.234-.737-1.841-.178-.475-.353-.943-.545-1.4A2.176,2.176,0,0,0,5.6,2.072a2.423,2.423,0,0,0-.429.04A2.15,2.15,0,0,0,3.36,3.725c-.1-.461-.389-1.589-1.584-1.589a1.944,1.944,0,0,0-.534.08A1.732,1.732,0,0,0,.061,4.377c.806,3.288,1.624,6.511,2.318,9.231a1.8,1.8,0,0,0,1.765,1.426q.06,0,.122,0a1.9,1.9,0,0,0,1.763-1.549,6.592,6.592,0,0,0,.077-1.173,5.617,5.617,0,0,1,.035-.76,10.034,10.034,0,0,0,.065-1.624c0-.147,0-.292,0-.433a13.742,13.742,0,0,0,1.969,2.951,2.208,2.208,0,0,0,1.665.781,2.3,2.3,0,0,0,.643-.094,2.038,2.038,0,0,0,1.394-1.972,35.4,35.4,0,0,0,.176-3.846,27.084,27.084,0,0,1,.278-4.429,1.956,1.956,0,0,0-.351-1.645,1.635,1.635,0,0,0-1.282-.56Z" transform="translate(0 0)"/>
  </g>
  <g>
    <path class="cls-1" d="M74.45,65.091a1.379,1.379,0,0,1-1.144-.631,3.431,3.431,0,0,1-.441-2.08c.008-.824.006-1.594,0-2.416v-.61H72.7c-.5,0-.973.022-1.119.183-.22.243-.164,1.132-.09,1.88a6.826,6.826,0,0,0,.263,1.17c.082.289.164.577.224.869.21,1.035-.289,1.415-.744,1.552a1.448,1.448,0,0,1-.418.063,1.518,1.518,0,0,1-1.177-.594,4.539,4.539,0,0,1-.816-2.125l-.064-.325a7.283,7.283,0,0,1-.111-.877c-.067-.784-.133-1.285-.644-1.689a1.223,1.223,0,0,1-.453-.884,1.264,1.264,0,0,1,.338-.953,1.866,1.866,0,0,0,.414-2.271,1.659,1.659,0,0,1,1.456-2.264h.012a1.455,1.455,0,0,1,1.162.494,1.755,1.755,0,0,1,.377,1.407,2.667,2.667,0,0,0,.024.986l.047.242c.1.564.127.592.474.592.971-.025,1.145-.051,1.193-.726a10.788,10.788,0,0,1,.474-2.21l.128-.448a1.187,1.187,0,0,1,1.166-.891c.632.019.97.387,1.047,1.1a3.936,3.936,0,0,1-.1,1.14c-.149.8-.126,1,.126,1.125a.991.991,0,0,0,.447.083,5.91,5.91,0,0,0,1.114-.163,9.61,9.61,0,0,1,.967-.165c.071-.007.143-.013.214-.013l.124.006c.075.007.157.009.241.009l.369,0c.378,0,1.528,0,1.568,1.229a1.283,1.283,0,0,1-.323.975,1.364,1.364,0,0,1-1.035.365,5.65,5.65,0,0,1-.733-.065l-.112-.015a2.4,2.4,0,0,0-.3-.021c-2.9.143-3.012.255-3,3.019,0,.813.049,1.656.14,2.578a1.075,1.075,0,0,1-.639,1.293A1.459,1.459,0,0,1,74.45,65.091Z" transform="translate(0 0)"/>
    <path class="cls-2" d="M74.819,53.034h.026c.413.013.487.319.523.649.1.914-.67,2.169.3,2.657a1.477,1.477,0,0,0,.672.137c.654,0,1.442-.263,2.131-.331.054-.005.109-.01.164-.01.025,0,.051,0,.076,0,.091.009.189.011.29.011.121,0,.246,0,.37,0,.535,0,1.046.064,1.068.746s-.378.823-.858.823a6.252,6.252,0,0,1-.78-.076,2.827,2.827,0,0,0-.364-.025l-.113,0c-3.065.153-3.4.492-3.388,3.518,0,.876.057,1.754.142,2.625.034.347.059.645-.307.773a.958.958,0,0,1-.317.056.877.877,0,0,1-.731-.412,3.076,3.076,0,0,1-.354-1.847c.01-1.106,0-2.213,0-3.471-.242,0-.462-.008-.663-.008-1.618,0-1.941.243-1.709,2.612a21.234,21.234,0,0,0,.494,2.09c.079.386.1.824-.4.974a.95.95,0,0,1-.274.041,1.029,1.029,0,0,1-.791-.411,4.905,4.905,0,0,1-.778-2.235c-.207-.994.032-2.091-.935-2.856a.767.767,0,0,1-.067-1.1,2.347,2.347,0,0,0,.523-2.8,1.159,1.159,0,0,1,1.02-1.585l.062,0a1.068,1.068,0,0,1,.963,1.333,3.164,3.164,0,0,0,.031,1.162c.135.631.121,1.229,1.011,1.229h.056c.865-.023,1.552-.034,1.635-1.189a13.317,13.317,0,0,1,.585-2.56.7.7,0,0,1,.686-.525m0-1h0a1.7,1.7,0,0,0-1.649,1.257l-.128.447a11.152,11.152,0,0,0-.492,2.309,1.117,1.117,0,0,1-.033.217,4.134,4.134,0,0,1-.608.043c-.012-.059-.025-.125-.035-.181-.016-.084-.032-.169-.05-.256a2.162,2.162,0,0,1-.019-.811,2.256,2.256,0,0,0-.494-1.806,1.931,1.931,0,0,0-1.459-.669q-.062,0-.125,0a2.159,2.159,0,0,0-1.891,2.943,1.375,1.375,0,0,1-.3,1.742,1.747,1.747,0,0,0-.48,1.335,1.723,1.723,0,0,0,.641,1.244c.335.265.392.578.456,1.34a7.653,7.653,0,0,0,.12.936l.063.318a5.011,5.011,0,0,0,.921,2.346,2.009,2.009,0,0,0,1.564.778,1.952,1.952,0,0,0,.561-.083,1.567,1.567,0,0,0,1.148-1.507,2.815,2.815,0,0,0,.364.762,1.871,1.871,0,0,0,1.558.85,1.957,1.957,0,0,0,.648-.113,1.561,1.561,0,0,0,.971-1.814c-.089-.906-.134-1.734-.137-2.532-.011-2.393-.011-2.393,2.438-2.515l.063,0a1.824,1.824,0,0,1,.235.017l.108.014a5.981,5.981,0,0,0,.8.07,1.857,1.857,0,0,0,1.394-.517,1.768,1.768,0,0,0,.464-1.339c-.021-.64-.317-1.713-2.068-1.713l-.2,0-.168,0c-.067,0-.133,0-.194-.007s-.114-.008-.172-.008c-.087,0-.175.006-.262.015a9.864,9.864,0,0,0-1.02.173,5.734,5.734,0,0,1-1.013.153.869.869,0,0,1-.167-.013,4.437,4.437,0,0,1,.086-.6,4.391,4.391,0,0,0,.106-1.285,1.506,1.506,0,0,0-1.486-1.54ZM71.766,56.3Zm.2,3.6a2.433,2.433,0,0,1,.407-.039v.112c0,.818,0,1.585,0,2.351v.051c0,.173,0,.356,0,.546-.042-.159-.086-.315-.13-.468a6.444,6.444,0,0,1-.246-1.084,5.432,5.432,0,0,1-.03-1.469Z" transform="translate(0 0)"/>
  </g>
  <g>
    <path class="cls-1" d="M56.614,29a1.22,1.22,0,0,1-1.282-1,14.594,14.594,0,0,0-.513-1.821,9.435,9.435,0,0,1-.659-3.39c.016-.38.021-.764,0-1.144-.1-1.779.188-2.718,2.1-3.236a7.469,7.469,0,0,1,1.954-.266,7.113,7.113,0,0,1,2.824.588,2.308,2.308,0,0,1,1.706,2.221,2.782,2.782,0,0,1-1.6,2.208,3.765,3.765,0,0,1-1.2.431A3.409,3.409,0,0,0,59,23.9l.355.2c.9.51,1.782,1.015,2.678,1.5a1.158,1.158,0,0,0,.255.054,1.258,1.258,0,0,1,.748.295,1.731,1.731,0,0,1,.3,2.35,1.2,1.2,0,0,1-1.029.589h0a2.08,2.08,0,0,1-.859-.232,7.373,7.373,0,0,1-1.507-.958,8.306,8.306,0,0,0-2.3-1.342,1.91,1.91,0,0,0,.13.472,2.645,2.645,0,0,1,.166.623c.086.823-.2,1.322-.852,1.484A1.986,1.986,0,0,1,56.614,29Zm1.458-8.244a3.882,3.882,0,0,0-.81.09c-.252.054-.337.092-.285.462s.134.43.134.43l.127-.008c.195-.042.393-.077.592-.112a4.184,4.184,0,0,0,1.67-.532A3.252,3.252,0,0,0,58.073,20.757Z" transform="translate(0 0)"/>
    <path class="cls-2" d="M58.216,18.639a6.6,6.6,0,0,1,2.627.548c.747.322,1.46.765,1.4,1.733a2.307,2.307,0,0,1-1.368,1.813c-.82.513-1.935.261-2.73,1.259,1.231.7,2.432,1.393,3.651,2.054.269.146.7.076.892.268a1.239,1.239,0,0,1,.232,1.715.709.709,0,0,1-.613.366,1.647,1.647,0,0,1-.652-.187,6.912,6.912,0,0,1-1.4-.894,8.389,8.389,0,0,0-2.98-1.6c-.354.784.114,1.256.17,1.792.042.4.03.822-.475.947a1.489,1.489,0,0,1-.355.046.727.727,0,0,1-.79-.6c-.325-1.714-1.242-3.292-1.164-5.1.017-.4.021-.8,0-1.193-.1-1.746.2-2.31,1.734-2.726a6.952,6.952,0,0,1,1.823-.248m-1.069,3.6a.939.939,0,0,0,.2-.023c1.043-.226,2.194-.243,2.985-1.228a3.9,3.9,0,0,0-2.257-.734,4.36,4.36,0,0,0-.915.1.783.783,0,0,0-.675,1.021c.066.464.218.864.664.864m1.069-4.6a7.973,7.973,0,0,0-2.085.283c-2.222.6-2.583,1.782-2.471,3.748.018.324.019.682,0,1.094a9.832,9.832,0,0,0,.684,3.569,14.188,14.188,0,0,1,.5,1.757A1.716,1.716,0,0,0,56.614,29.5a2.486,2.486,0,0,0,.6-.075,1.646,1.646,0,0,0,1.23-2.022c0-.046-.011-.092-.019-.136a9.131,9.131,0,0,1,1.213.827,7.835,7.835,0,0,0,1.611,1.021,2.54,2.54,0,0,0,1.067.277,1.708,1.708,0,0,0,1.445-.812,2.222,2.222,0,0,0-.368-2.985,1.745,1.745,0,0,0-1.024-.431c-.043-.006-.086-.01-.127-.02-.668-.363-1.33-.736-2-1.114a3.812,3.812,0,0,0,1.166-.451,3.282,3.282,0,0,0,1.837-2.6,2.816,2.816,0,0,0-2.007-2.709,7.6,7.6,0,0,0-3.022-.629Z" transform="translate(0 0)"/>
  </g>
  <g>
    <path class="cls-1" d="M67.668,48.638a3.734,3.734,0,0,1-.827-.111,7.164,7.164,0,0,0-1.521-.176c-2.453-.047-3.474-1.079-3.523-3.56a5.485,5.485,0,0,1,1.767-3.752,5.844,5.844,0,0,1,3.915-1.93,2.358,2.358,0,0,1,1.845.775,1.115,1.115,0,0,1,.2.987,6.079,6.079,0,0,0,.037,2.625,6.571,6.571,0,0,1-.044,3.22c-.315.945-.64,1.921-1.844,1.921Z" transform="translate(0 0)"/>
    <path class="cls-2" d="M67.478,39.609h.029c.86.009,1.706.5,1.53,1.127-.555,1.971.653,3.862,0,5.823-.365,1.1-.613,1.579-1.369,1.579a3.266,3.266,0,0,1-.715-.1,7.708,7.708,0,0,0-1.624-.189c-2.184-.042-2.989-.884-3.033-3.07-.047-2.337,2.836-5.172,5.181-5.172m0-1a6.345,6.345,0,0,0-4.272,2.08A5.976,5.976,0,0,0,61.3,44.8c.056,2.749,1.294,4,4.014,4.05a6.679,6.679,0,0,1,1.419.164,4.171,4.171,0,0,0,.939.124c1.564,0,2-1.308,2.318-2.263a7.063,7.063,0,0,0,.064-3.455A5.721,5.721,0,0,1,70,41.007a1.6,1.6,0,0,0-.276-1.422,2.8,2.8,0,0,0-2.206-.976Z" transform="translate(0 0)"/>
  </g>
  <g>
    <path class="cls-1" d="M31.672,10.76a.531.531,0,0,1-.469-.27.491.491,0,0,1,.065-.579l.048-.048a.5.5,0,0,1,.842.249.576.576,0,0,1-.4.642A.524.524,0,0,1,31.672,10.76Z" transform="translate(0 0)"/>
    <path class="cls-2" d="M31.67,10.217c0,.014,0,.029.005.042-.018,0-.036,0-.054.006h0l.048-.048m0-1a1.025,1.025,0,1,0,.072,2.041c.033,0,.065-.007.1-.012a1,1,0,0,0,.824-1.138c0-.016-.011-.074-.014-.089a1,1,0,0,0-.98-.8Z" transform="translate(0 0)"/>
  </g>
  <g>
    <path class="cls-1" d="M30.89,13.1c-.952,0-1.412-1.061-1.585-1.459a14.456,14.456,0,0,1-.488-1.367c-.074-.231-.147-.462-.228-.691-.255-.731-.451-1.483-.64-2.211A16.487,16.487,0,0,0,26.814,4a1.646,1.646,0,0,1-.155-1.378,1.507,1.507,0,0,1,.97-.831,1.874,1.874,0,0,1,.617-.116c.678,0,1.146.447,1.391,1.328.188.677.386,1.351.587,2.036l.132.45A3.427,3.427,0,0,0,31.9,4.026a8.164,8.164,0,0,1,.72-.931,5.047,5.047,0,0,0,.449-.608c.41-.611.874-1.3,1.638-1.3a1.525,1.525,0,0,1,.982.413,1.178,1.178,0,0,1,.45.846c.036.657-.491,1.214-1,1.752a5.711,5.711,0,0,0-.505.577,9.332,9.332,0,0,1-1.067,1.2,9.947,9.947,0,0,0-.855.932c-.3.384-.31.564-.291.638s.1.225.545.428A11.567,11.567,0,0,0,37.356,9.1a1.6,1.6,0,0,1,1.162.453,1.175,1.175,0,0,1,.294.869c-.037.789-.759.97-1.147,1.067l-.113.029a5.43,5.43,0,0,1-1.4.185,6.461,6.461,0,0,1-1.928-.311c-.256-.079-.508-.18-.759-.281a5.407,5.407,0,0,0-1.072-.35,1.646,1.646,0,0,1,.071,1.039,1.79,1.79,0,0,1-.913,1.132,1.438,1.438,0,0,1-.656.169Z" transform="translate(0 0)"/>
    <path class="cls-2" d="M34.711,1.683a1.035,1.035,0,0,1,.659.294c.883.749-.591,1.725-1.141,2.507S32.9,5.849,32.318,6.6c-.547.71-.65,1.328.444,1.826A12.16,12.16,0,0,0,37.335,9.6c.5.021,1,.2.977.8-.021.465-.509.534-.89.636a4.911,4.911,0,0,1-1.275.167,6.008,6.008,0,0,1-1.781-.289,8.029,8.029,0,0,0-2.322-.684,2.23,2.23,0,0,0-.368.03c0-.014,0-.029-.005-.042a.237.237,0,0,1-.046.011c.022-.176,0-.3-.08-.3-.049,0-.12.049-.214.163-.052.063.065.151.2.151a.3.3,0,0,0,.093-.015c0,.014,0,.022,0,.037h0c.018,0,.036,0,.054-.006a1,1,0,0,0,.092.4,1.22,1.22,0,0,1-.448,1.824.943.943,0,0,1-.429.114c-.551,0-.893-.621-1.127-1.159-.283-.653-.466-1.349-.7-2.023-.652-1.864-.9-3.857-1.8-5.641-.346-.683-.253-1.233.535-1.511a1.367,1.367,0,0,1,.451-.087c.5,0,.753.4.909.962.271.978.564,1.95.857,2.957,1.66-.277,2.095-1.719,2.977-2.66.543-.579.995-1.754,1.722-1.754m0-1h0c-1.031,0-1.622.882-2.054,1.526a4.884,4.884,0,0,1-.4.544,8.6,8.6,0,0,0-.766.987,5,5,0,0,1-.835,1.008c-.185-.63-.367-1.251-.54-1.875C29.71,1.4,28.77,1.178,28.246,1.178a2.366,2.366,0,0,0-.783.144,1.984,1.984,0,0,0-1.268,1.116,2.118,2.118,0,0,0,.173,1.789,16.1,16.1,0,0,1,1.1,3.268c.192.738.39,1.5.652,2.251.078.224.151.451.223.678a14.763,14.763,0,0,0,.5,1.413c.189.436.764,1.761,2.044,1.761a1.936,1.936,0,0,0,.884-.224,2.3,2.3,0,0,0,1.169-1.453,2.121,2.121,0,0,0,.065-.455l.263.1c.254.1.516.208.8.3a6.957,6.957,0,0,0,2.076.333A5.943,5.943,0,0,0,37.68,12l.107-.027c.364-.091,1.471-.369,1.524-1.529a1.657,1.657,0,0,0-.425-1.229A2.072,2.072,0,0,0,37.377,8.6a11.075,11.075,0,0,1-4.2-1.085,1.768,1.768,0,0,1-.2-.106,2.014,2.014,0,0,1,.137-.2,9.6,9.6,0,0,1,.813-.883,9.77,9.77,0,0,0,1.123-1.268,5.7,5.7,0,0,1,.459-.521,3.028,3.028,0,0,0,1.137-2.124,1.668,1.668,0,0,0-.626-1.2A2.008,2.008,0,0,0,34.711.683Z" transform="translate(0 0)"/>
  </g>
  <g>
    <path class="cls-1" d="M39.514,65.348c-.685-.025-1.516-.4-1.586-2.025-.051-1.178-.163-2.379-.271-3.542-.058-.622-.116-1.245-.166-1.868a2.082,2.082,0,0,1,.387-1.6,1.422,1.422,0,0,1,1.1-.428l.112,0a1.269,1.269,0,0,1,.937.388,1.446,1.446,0,0,1,.253,1.129A4.9,4.9,0,0,1,43.019,55.2a7.112,7.112,0,0,1,1.838-.275,3.393,3.393,0,0,1,3.42,2.819,15.043,15.043,0,0,1,.571,5.369,2.4,2.4,0,0,1-.7,1.611,1.584,1.584,0,0,1-1.093.488,1.45,1.45,0,0,1-.834-.277,1.3,1.3,0,0,1-.562-.841,1.2,1.2,0,0,1,.22-.911c.869-1.2.487-2.429.084-3.729-.065-.209-.13-.417-.189-.625-.133-.465-.477-1.245-1.287-1.245a2.1,2.1,0,0,0-1.084.368,4.09,4.09,0,0,0-1.874,2.98c-.038.243-.071.487-.1.732a15.633,15.633,0,0,1-.338,1.905l-.035.134c-.146.576-.42,1.647-1.479,1.647Z" transform="translate(0 0)"/>
    <path class="cls-2" d="M44.857,55.422c1.455,0,2.436.73,2.941,2.46a14.6,14.6,0,0,1,.552,5.191,1.936,1.936,0,0,1-.552,1.288,1.1,1.1,0,0,1-.747.349.96.96,0,0,1-.55-.188.716.716,0,0,1-.221-1.047c1.168-1.614.417-3.226-.029-4.785-.3-1.058-.958-1.607-1.767-1.607a2.566,2.566,0,0,0-1.351.445,4.579,4.579,0,0,0-2.1,3.326A25.306,25.306,0,0,1,40.6,63.44c-.152.575-.3,1.409-1.031,1.409h-.037c-.817-.031-1.069-.71-1.105-1.547-.079-1.812-.294-3.618-.438-5.427-.061-.763.067-1.486.984-1.486l.088,0c1,.047.676.855.687,1.453a6.852,6.852,0,0,0,.152.884c1.085-1.309,1.629-2.614,3.248-3.048a6.684,6.684,0,0,1,1.709-.258m0-1h0a7.605,7.605,0,0,0-1.968.293,4.514,4.514,0,0,0-2.309,1.493,1.51,1.51,0,0,0-.181-.257,1.744,1.744,0,0,0-1.291-.559c-.046,0-.091,0-.135,0a1.912,1.912,0,0,0-1.463.589,2.609,2.609,0,0,0-.517,1.976c.05.624.108,1.247.166,1.87.108,1.157.219,2.354.27,3.522.1,2.193,1.477,2.481,2.067,2.5h.074c1.449,0,1.81-1.419,1.964-2.025l.033-.13a16.005,16.005,0,0,0,.35-1.965c.033-.242.065-.483.1-.723a3.565,3.565,0,0,1,1.647-2.633,1.614,1.614,0,0,1,.817-.291c.367,0,.638.3.806.882.06.211.126.423.192.636.441,1.42.676,2.338-.012,3.288a1.7,1.7,0,0,0-.307,1.288,1.792,1.792,0,0,0,.77,1.168,1.944,1.944,0,0,0,1.119.366,2.073,2.073,0,0,0,1.44-.628,2.929,2.929,0,0,0,.856-1.934,15.539,15.539,0,0,0-.589-5.547c-.616-2.109-1.928-3.179-3.9-3.179Z" transform="translate(0 0)"/>
  </g>
  <g>
    <path class="cls-1" d="M55.8,82.081a1.349,1.349,0,0,1-1-.594,5.272,5.272,0,0,1-1.036-2.078,3.129,3.129,0,0,1-1.925.889c-1.5,0-2.013-1.869-2.179-2.483a10.581,10.581,0,0,1,.2-6.64,3.087,3.087,0,0,1,2.8-2.067,2.547,2.547,0,0,1,.3.018,1.274,1.274,0,0,1,1.3,1.087,1.16,1.16,0,0,1-.67,1.346,2.364,2.364,0,0,0-1.74,1.991,5.456,5.456,0,0,0,.424,3.171,2.684,2.684,0,0,0,1.071-2.5,3.751,3.751,0,0,1,.208-1.884,1.625,1.625,0,0,1,1.584-1.187,2.331,2.331,0,0,1,.479.053c.388.083,1.273.43,1.1,1.869a5.629,5.629,0,0,1-.239.993,3.845,3.845,0,0,0-.221,1.035l-.018.645a9.284,9.284,0,0,0,.593,4.5,1.227,1.227,0,0,1-.513,1.69A1.114,1.114,0,0,1,55.8,82.081Z" transform="translate(0 0)"/>
    <path class="cls-2" d="M52.668,69.608a2.066,2.066,0,0,1,.239.014c.38.044.811.125.861.638.031.323-.015.72-.327.822a2.865,2.865,0,0,0-2.078,2.378,6.371,6.371,0,0,0,.736,4.075c1.161-.946,1.951-1.876,1.747-3.379a3.261,3.261,0,0,1,.18-1.639,1.148,1.148,0,0,1,1.118-.865,1.809,1.809,0,0,1,.374.042c.7.148.776.765.709,1.32a20.322,20.322,0,0,0-.463,2.077c-.04,1.825-.213,3.652.626,5.378a.73.73,0,0,1-.3,1.03.614.614,0,0,1-.289.081c-.295,0-.493-.276-.691-.5A7.235,7.235,0,0,1,54,78.51,3.483,3.483,0,0,1,51.841,79.8c-.758,0-1.314-.7-1.7-2.114a10.069,10.069,0,0,1,.188-6.331,2.6,2.6,0,0,1,2.335-1.745m0-1A3.588,3.588,0,0,0,49.4,71a11.064,11.064,0,0,0-.218,6.948c.514,1.892,1.41,2.851,2.662,2.851a3.023,3.023,0,0,0,1.67-.571,4.6,4.6,0,0,0,.851,1.515l.06.07a1.818,1.818,0,0,0,1.381.769,1.606,1.606,0,0,0,.759-.2,1.726,1.726,0,0,0,.728-2.35,8.932,8.932,0,0,1-.543-4.273c.007-.215.013-.431.018-.647a3.464,3.464,0,0,1,.2-.9,6.077,6.077,0,0,0,.257-1.08,1.952,1.952,0,0,0-1.495-2.417,2.815,2.815,0,0,0-.582-.064,2.307,2.307,0,0,0-.381.031,2.528,2.528,0,0,0,0-.52c-.06-.615-.41-1.38-1.74-1.535a3.064,3.064,0,0,0-.355-.021Zm-.194,7.16a4.6,4.6,0,0,1-.127-2.129A1.9,1.9,0,0,1,53,72.418a4.247,4.247,0,0,0-.148,1.873,1.871,1.871,0,0,1-.381,1.477Z" transform="translate(0 0)"/>
  </g>
  <g>
    <path class="cls-1" d="M50.945,64.772a2.236,2.236,0,0,1-2.022-1.548A5.136,5.136,0,0,1,48.482,61a7.166,7.166,0,0,1,1.976-5.187,3.409,3.409,0,0,1,2.447-1.16,3.292,3.292,0,0,1,1.621.456c1.757.99,2.119,1.771,1.76,3.8-.029.164-.066.329-.1.5-.2.895-.276,1.382.379,1.827.792.536.971,1.158.532,1.848a1.548,1.548,0,0,1-1.212.673,2.206,2.206,0,0,0-.314.063,1.175,1.175,0,0,1-.347.055h0a1.454,1.454,0,0,1-1.092-.649,1.389,1.389,0,0,0-.261-.261s-.033.013-.09.052a4.688,4.688,0,0,0-.679.605,4.866,4.866,0,0,1-.957.809A2.339,2.339,0,0,1,50.945,64.772Zm1.876-7.032c-.389.011-.945.134-1.273,1.067a4,4,0,0,0-.123,2.579,5.494,5.494,0,0,0,1.848-3.324.477.477,0,0,0,.018-.253h0s-.082-.07-.4-.07v-.5Z" transform="translate(0 0)"/>
    <path class="cls-2" d="M52.9,55.151a2.794,2.794,0,0,1,1.376.391c1.575.888,1.831,1.483,1.513,3.273-.174.984-.663,2.043.487,2.823.4.272.754.6.391,1.166-.308.483-.809.39-1.252.527a.67.67,0,0,1-.2.032c-.593,0-.815-.91-1.344-.91a.684.684,0,0,0-.378.136c-.587.393-1.01,1.043-1.612,1.4a1.852,1.852,0,0,1-.941.282,1.734,1.734,0,0,1-1.559-1.237,4.681,4.681,0,0,1-.407-1.978,6.722,6.722,0,0,1,1.836-4.894,2.93,2.93,0,0,1,2.09-1.011M51.176,62.16a5.706,5.706,0,0,0,2.584-3.978c.182-.739-.262-.943-.867-.943h-.085a1.83,1.83,0,0,0-1.73,1.4,4.5,4.5,0,0,0,.1,3.519M52.9,54.151a3.89,3.89,0,0,0-2.8,1.311,7.669,7.669,0,0,0-2.12,5.533,5.791,5.791,0,0,0,.481,2.418,2.719,2.719,0,0,0,2.485,1.858,2.831,2.831,0,0,0,1.45-.421,5.321,5.321,0,0,0,1.058-.888c.123-.124.242-.245.359-.349a1.869,1.869,0,0,0,1.409.75,1.674,1.674,0,0,0,.5-.077,1.7,1.7,0,0,1,.243-.047,2.052,2.052,0,0,0,1.556-.9,1.712,1.712,0,0,0-.673-2.531c-.338-.229-.385-.356-.172-1.3.039-.174.078-.347.108-.518.394-2.221-.075-3.23-2.007-4.319a3.785,3.785,0,0,0-1.867-.52Zm-1.138,6.2a3.946,3.946,0,0,1,.253-1.377c.2-.561.451-.692.69-.724a5.662,5.662,0,0,1-.943,2.1Z" transform="translate(0 0)"/>
  </g>
  <g>
    <path class="cls-1" d="M19.537,12.659a1.425,1.425,0,0,1-1.194-.727c-.169-.263-.316-.54-.479-.854a4.11,4.11,0,0,1-2.48,1.022h0c-1.35,0-2.418-1.026-2.931-2.814-.925-3.224-.407-5.153,1.787-6.66a2.576,2.576,0,0,1,1.449-.481,2.14,2.14,0,0,1,1.9,1.185,1.547,1.547,0,0,1,.114,1.31,1.7,1.7,0,0,1,.647-.134A1.359,1.359,0,0,1,19.71,5.934,10.918,10.918,0,0,0,20.7,10.57a1.308,1.308,0,0,1-.458,1.891A1.394,1.394,0,0,1,19.537,12.659Zm-4.13-7.635c-.262,0-.441.395-.684,1a1.921,1.921,0,0,0-.069,1.551c.061.158.118.325.176.495.306.9.5,1.325,1,1.325a1.136,1.136,0,0,0,.143-.01c.381-.05.484-.281.551-1.236a5.793,5.793,0,0,1,.091-.785,1.966,1.966,0,0,0-.014-.585,2.152,2.152,0,0,1,.158-1.335c-.033,0-.066,0-.1,0A1.255,1.255,0,0,1,16,5.253,1.229,1.229,0,0,0,15.407,5.024Z" transform="translate(0 0)"/>
    <path class="cls-2" d="M15.689,2.645a1.646,1.646,0,0,1,1.464.924,1.023,1.023,0,0,1-.036,1.123.544.544,0,0,1-.462.252.765.765,0,0,1-.391-.117,1.7,1.7,0,0,0-.857-.3c-.642,0-.9.7-1.177,1.381a2.363,2.363,0,0,0-.042,1.847c.352.907.553,2.138,1.638,2.138a1.614,1.614,0,0,0,.208-.014c1.163-.151.88-1.548,1.067-2.411.154-.712-.407-1.549.441-2.163a1.411,1.411,0,0,1,.812-.3.868.868,0,0,1,.857.949A11.312,11.312,0,0,0,20.25,10.8a.826.826,0,0,1-.263,1.229.9.9,0,0,1-.45.131.945.945,0,0,1-.773-.5c-.255-.4-.454-.826-.75-1.374a4.052,4.052,0,0,1-2.63,1.312c-1.11,0-1.991-.85-2.451-2.451-.863-3.008-.414-4.735,1.59-6.11a2.07,2.07,0,0,1,1.166-.393m0-1a3.069,3.069,0,0,0-1.732.569C11.584,3.844,10.991,6,11.973,9.424c.579,2.018,1.822,3.176,3.412,3.176a4.181,4.181,0,0,0,2.31-.779c.072.129.148.256.229.382a1.933,1.933,0,0,0,1.614.956,1.885,1.885,0,0,0,.95-.265,1.8,1.8,0,0,0,.652-2.552,10.48,10.48,0,0,1-.929-4.427,1.854,1.854,0,0,0-1.856-1.908H18.3a2.176,2.176,0,0,0-.27-.915,2.66,2.66,0,0,0-2.342-1.446Zm.137,7.245c-.159,0-.3-.332-.523-.986-.06-.176-.119-.35-.183-.514a1.377,1.377,0,0,1,.037-1.11l.03-.073a5.066,5.066,0,0,1,.3-.658,1.594,1.594,0,0,1,.254.13,1.843,1.843,0,0,0,.352.167,3.482,3.482,0,0,0,.007.985,1.929,1.929,0,0,1,.022.422,6.046,6.046,0,0,0-.1.856,3.521,3.521,0,0,1-.106.771.525.525,0,0,1-.089.009Z" transform="translate(0 0)"/>
  </g>
  <g>
    <path class="cls-1" d="M34.143,43.334a3.014,3.014,0,0,1-3.127-2.251,3.9,3.9,0,0,1,.1-3.168,3.623,3.623,0,0,1,2.414-1.7,6.2,6.2,0,0,1,1.5-.193q.156,0,.31.009a2.293,2.293,0,0,1,1.647.652,1.955,1.955,0,0,1,.389,1.5,6.719,6.719,0,0,0,.212,1.974c.3,1.341.467,2.08.052,2.6-.376.47-1.047.5-2.028.5l-.5,0a6.219,6.219,0,0,1-.968.078Z" transform="translate(0 0)"/>
    <path class="cls-2" d="M35.028,36.521q.141,0,.281.008c.963.059,1.676.383,1.569,1.609a7.1,7.1,0,0,0,.223,2.127c.511,2.279.518,2.493-1.491,2.493l-.493,0a6.882,6.882,0,0,1-.973.078,2.521,2.521,0,0,1-2.655-1.913c-.708-2.081.052-3.692,2.16-4.222a5.721,5.721,0,0,1,1.379-.178m0-1a6.672,6.672,0,0,0-1.623.208,4.107,4.107,0,0,0-2.732,1.946,4.384,4.384,0,0,0-.132,3.568,3.507,3.507,0,0,0,3.6,2.59,7.663,7.663,0,0,0,1.04-.078l.426,0a2.9,2.9,0,0,0,2.421-.692c.564-.705.369-1.576.045-3.02a6.268,6.268,0,0,1-.2-1.821,2.431,2.431,0,0,0-.508-1.869,2.828,2.828,0,0,0-2-.825q-.17-.01-.342-.01Z" transform="translate(0 0)"/>
  </g>
  <g>
    <path class="cls-1" d="M23.127,13.131a2.263,2.263,0,0,1-1.648-.5,1.85,1.85,0,0,1-.449-1.393,27.583,27.583,0,0,0-.686-6.96,1.855,1.855,0,0,1,.01-.971l.039-.125c.124-.4.354-1.157,1.252-1.157a1.305,1.305,0,0,1,1.308,1.2c.053.331.123.657.192.984a10.442,10.442,0,0,1,.3,2.143,16.472,16.472,0,0,0,.284,2.984c.17.894.393.9.609.9h0a2.893,2.893,0,0,0,.786-.154,4.087,4.087,0,0,0,1.312-.8l.327-.257A1.209,1.209,0,0,1,27.5,8.76a1.223,1.223,0,0,1,.745.266,1.04,1.04,0,0,1,.289,1.284l-.035.11a2.724,2.724,0,0,1-1.9,2c-.79.218-1.59.4-2.216.538l-.6.137C23.493,13.125,23.3,13.131,23.127,13.131Z" transform="translate(0 0)"/>
    <path class="cls-2" d="M21.645,2.525l.066,0c.474.029.682.358.749.779a19.963,19.963,0,0,1,.487,3.052,17.032,17.032,0,0,0,.293,3.075c.177.926.479,1.3,1.1,1.3a3.342,3.342,0,0,0,.932-.175,5.834,5.834,0,0,0,1.8-1.143A.71.71,0,0,1,27.5,9.26a.722.722,0,0,1,.441.163c.335.257.166.559.078.857a2.228,2.228,0,0,1-1.555,1.664c-1.071.295-2.161.52-2.8.67-.193.012-.373.018-.54.018-1.088,0-1.612-.289-1.6-1.387a28.092,28.092,0,0,0-.7-7.086,1.349,1.349,0,0,1,0-.7c.136-.42.226-.935.814-.935m0-1a1.807,1.807,0,0,0-1.73,1.511l-.036.116a2.357,2.357,0,0,0-.02,1.244,27.1,27.1,0,0,1,.671,6.835,2.318,2.318,0,0,0,.593,1.751,2.7,2.7,0,0,0,2,.651c.185,0,.385-.007.6-.02a1,1,0,0,0,.169-.025c.167-.039.366-.084.588-.134.641-.144,1.439-.323,2.247-.546a3.182,3.182,0,0,0,2.249-2.346l.03-.094a1.512,1.512,0,0,0-.46-1.839,1.672,1.672,0,0,0-2.089-.005c-.112.086-.223.174-.333.261a3.685,3.685,0,0,1-1.147.719,2.568,2.568,0,0,1-.623.132,2.151,2.151,0,0,1-.138-.49,16,16,0,0,1-.275-2.894,10.856,10.856,0,0,0-.312-2.245c-.068-.318-.136-.636-.188-.958a1.769,1.769,0,0,0-1.675-1.619q-.065,0-.126,0Z" transform="translate(0 0)"/>
  </g>
  <g>
    <path class="cls-1" d="M61.942,64.031q-.208,0-.421-.014c-2.493-.161-2.958-1.768-2.91-3.088.082-2.212.543-5.376,3.59-7.3a.5.5,0,0,1,.267-.078.5.5,0,0,1,.165.028A2.469,2.469,0,0,1,64,54.769a1.681,1.681,0,0,1,.162,1.568,1.246,1.246,0,0,1-1.042.65c-.966.114-1.187.694-1.493,1.709l-.088.29c-.334,1.058-.435,1.872.154,2.407a.97.97,0,0,0,.7.251,4.683,4.683,0,0,0,1.189-.239l.37-.1c.181-.048.359-.111.543-.176a5.037,5.037,0,0,1,1.76-.368,4.378,4.378,0,0,1,1.27.2.5.5,0,0,1,.118.9c-2,1.23-3.683,2.171-5.7,2.171Z" transform="translate(0 0)"/>
    <path class="cls-2" d="M62.469,54.049a1.986,1.986,0,0,1,1.1.965c.353.63.372,1.374-.5,1.477-1.472.174-1.673,1.308-2,2.345-.316,1-.558,2.153.3,2.927a1.472,1.472,0,0,0,1.036.381,6.984,6.984,0,0,0,1.688-.359,7.415,7.415,0,0,1,2.174-.527,3.88,3.88,0,0,1,1.125.176c-1.933,1.192-3.541,2.1-5.442,2.1q-.192,0-.389-.013c-1.684-.108-2.5-.9-2.442-2.57.1-2.78.838-5.305,3.357-6.9m0-1a1,1,0,0,0-.535.155c-3.247,2.053-3.736,5.382-3.822,7.707-.081,2.179,1.119,3.46,3.377,3.6q.229.015.453.015c2.152,0,3.9-.973,5.966-2.246a1,1,0,0,0-.237-1.809,4.856,4.856,0,0,0-1.413-.218,5.535,5.535,0,0,0-1.926.4c-.171.06-.338.12-.506.164-.125.033-.252.07-.38.106a4.375,4.375,0,0,1-1.051.219.474.474,0,0,1-.364-.121c-.284-.258-.4-.677-.014-1.885l.091-.3c.312-1.034.448-1.283,1.073-1.357a1.741,1.741,0,0,0,1.428-.919,2.164,2.164,0,0,0-.171-2.039A2.985,2.985,0,0,0,62.8,53.1a1,1,0,0,0-.33-.056Z" transform="translate(0 0)"/>
  </g>
  <g>
    <path class="cls-1" d="M24.052,75.242a1.49,1.49,0,0,1-1.121-.417,2.118,2.118,0,0,1-.426-1.578c.027-.768.021-1.537.015-2.305l-.006-2.062c0-.843,0-1.687.01-2.53A3.621,3.621,0,0,1,22.747,65,1.385,1.385,0,0,1,24,64.063a1.29,1.29,0,0,1,.2.016,1.14,1.14,0,0,1,.978,1.416,21.738,21.738,0,0,0,.374,7.614,1.851,1.851,0,0,1-.239,1.6,1.5,1.5,0,0,1-1.23.532Z" transform="translate(0 0)"/>
    <path class="cls-2" d="M24,64.563a.807.807,0,0,1,.123.01c.472.073.617.388.557.859a22.119,22.119,0,0,0,.382,7.788c.172.747.012,1.511-.987,1.521h-.02c-.944,0-1.076-.677-1.047-1.477.04-1.111.01-2.224.011-3.336,0-1.19-.013-2.38.009-3.57a3.2,3.2,0,0,1,.183-1.166.9.9,0,0,1,.789-.63m0-1a1.868,1.868,0,0,0-1.71,1.24,4.063,4.063,0,0,0-.262,1.538c-.016.852-.013,1.7-.011,2.556l0,1.031c0,.342,0,.684.005,1.026.006.75.012,1.525-.015,2.275a2.559,2.559,0,0,0,.566,1.943,1.971,1.971,0,0,0,1.481.57,2,2,0,0,0,1.648-.723A2.357,2.357,0,0,0,26.034,73a21.245,21.245,0,0,1-.364-7.439,1.633,1.633,0,0,0-1.4-1.972A1.808,1.808,0,0,0,24,63.563Z" transform="translate(0 0)"/>
  </g>
  <g>
    <path class="cls-1" d="M47.827,20.123a1.865,1.865,0,0,1-1.419-.482,1.264,1.264,0,0,1-.317-.988,1.518,1.518,0,0,1,1.462-1.443,1.539,1.539,0,0,1,.581.117.945.945,0,0,0,.356.078,1.713,1.713,0,0,0,.755-.271,1.221,1.221,0,0,1,.565-.146,1.124,1.124,0,0,1,1.057.845c.36,1.061-.113,1.646-.676,1.839A8.828,8.828,0,0,1,48.652,20c-.219.034-.442.067-.668.11A1.535,1.535,0,0,1,47.827,20.123Z" transform="translate(0 0)"/>
    <path class="cls-2" d="M49.81,17.488a.636.636,0,0,1,.583.505c.167.491.172,1.021-.365,1.206a15.282,15.282,0,0,1-2.135.422h-.066c-.613,0-1.292-.167-1.237-.934a1.018,1.018,0,0,1,.963-.979,1.045,1.045,0,0,1,.393.081,1.433,1.433,0,0,0,.543.115,2.132,2.132,0,0,0,.986-.327.725.725,0,0,1,.334-.09m0-1a1.712,1.712,0,0,0-.8.2,1.563,1.563,0,0,1-.524.214.476.476,0,0,1-.168-.042,2.042,2.042,0,0,0-.768-.154,2.016,2.016,0,0,0-1.961,1.907,1.752,1.752,0,0,0,.45,1.364,2.332,2.332,0,0,0,1.784.641h.085a1,1,0,0,0,.164-.017c.22-.041.437-.074.651-.107a9.208,9.208,0,0,0,1.627-.353,1.769,1.769,0,0,0,.987-2.473,1.623,1.623,0,0,0-1.53-1.184Z" transform="translate(0 0)"/>
  </g>
</svg>
