<svg id="Layer_1" data-name="Layer 1" xmlns="http://www.w3.org/2000/svg" viewBox="0 0 161.362 68.101">
  <defs>
    <style>
      .cls-1 {
        fill: #0000b8;
      }

      .cls-2 {
        fill: #fff;
      }
    </style>
  </defs>
  <title>9a799875-eb87-4a29-95e7-fbc86710df31</title>
  <g>
    <polygon class="cls-1" points="17.756 6.828 17.756 6.828 17.756 6.828 17.756 6.828"/>
    <polyline class="cls-2" points="17.756 6.828 17.756 6.828 17.756 6.828 17.756 6.828"/>
  </g>
  <g>
    <path class="cls-1" d="M133.074,17.434a1.659,1.659,0,0,1-1.589-.9,6.849,6.849,0,0,1-.662-2.261c-.048-.288-.1-.575-.161-.858a4.1,4.1,0,0,1-.067-1.056l-.138.141c-.627.638-1.159,1.179-1.718,1.69a4.227,4.227,0,0,1-2.771,1.316c-.884,0-2.131-.447-3.055-2.579a5.1,5.1,0,0,1-.162-3.851,14.966,14.966,0,0,1,.867-2.04c1-1.913,1.777-2.885,3.275-2.885a6.32,6.32,0,0,1,2.1.46A7.693,7.693,0,0,0,131.64,5c.311,0,.619-.008.929-.016s.637-.017.956-.017c.138,0,.276,0,.416,0,1.1.03,1.779.137,2.188.613s.408,1.134.282,2.123c-.15,1.169-.222,2.347-.283,3.755,0,.074-.009.451.217.571l.036,0a.929.929,0,0,0,.469-.22,3.437,3.437,0,0,0,1.274-2.823,2.849,2.849,0,0,0-.025-.558,3.159,3.159,0,0,1-.007-.9c.173-.974.758-1.556,1.565-1.556a1.831,1.831,0,0,1,.284.022,1.665,1.665,0,0,1,1.6,1.759c-.015.517-.009,1.033,0,1.549l.007.861a9.873,9.873,0,0,0,.114,1.818c.045-.76.08-1.52.115-2.279.059-1.256.119-2.555.229-3.833.151-1.765,1.087-2.136,1.846-2.136a3.505,3.505,0,0,1,1.216.254,6.051,6.051,0,0,1,3.479,6.381,8.591,8.591,0,0,1-.272.974c0,.018-.011.034-.017.052a3.569,3.569,0,0,0,1.369.242c.191,0,.4-.011.629-.032a7.93,7.93,0,0,1,.553-4.089,3.859,3.859,0,0,1,3.639-2.568A3.98,3.98,0,0,1,157.115,6a2.421,2.421,0,0,1,.481,3.021A4.939,4.939,0,0,1,154.9,11.75c-.5.188-.8.434-.836.676-.039.281.249.682.772,1.07A5.555,5.555,0,0,0,157,14.551l.271.063a3,3,0,0,0,.637.109c.146,0,.327,0,.482-.462A1.032,1.032,0,0,1,159.4,13.5a1.553,1.553,0,0,1,.646.156,1.413,1.413,0,0,1,.816,1.465c-.068,1.278-1.1,2.1-2.625,2.1l-.152,0A7.569,7.569,0,0,1,153.4,15.36a4.786,4.786,0,0,0-3.37-1.17,14.114,14.114,0,0,1-2.6-.323c-.416-.078-.833-.156-1.25-.215a3.239,3.239,0,0,0-.445-.038c-.338,0-.57.051-.73.726-.284,1.2-.489,2.069-1.46,2.069a5.617,5.617,0,0,1-1.574-.39l-.264-.086c-.174-.057-.351-.107-.523-.156-.893-.254-2.073-.59-2.186-1.954-.044.029-.093.065-.149.107a2.9,2.9,0,0,1-.3.2,5.8,5.8,0,0,1-2.69.914c-2.247,0-2.407-2.864-2.459-3.806a7.939,7.939,0,0,1,.033-1.062c.017-.214.033-.429.037-.643l.012-.28a1.675,1.675,0,0,0-.049-.7,1.1,1.1,0,0,0-.015.163c-.021.836-.024,1.671-.028,2.506,0,.521,0,1.043-.01,1.563a1.225,1.225,0,0,0,.431,1.087,1.9,1.9,0,0,1,.6,2.258l-.046.158a1.268,1.268,0,0,1-1.278,1.142ZM127.411,6.842a.58.58,0,0,0-.36.227,6.763,6.763,0,0,0-1.831,3.853c.045.892.248,1.342.753,1.589a.876.876,0,0,0,.391.1,1.5,1.5,0,0,0,.956-.524c.445-.415.905-.813,1.366-1.211.586-.507,1.192-1.031,1.746-1.579a.679.679,0,0,0,.214-.63.812.812,0,0,0-.536-.569c-.158-.06-.318-.117-.478-.174a6.839,6.839,0,0,1-2.008-.986A.368.368,0,0,0,127.411,6.842Zm17.836.833a13.316,13.316,0,0,1,.262,1.651.457.457,0,0,0,.151-.143.97.97,0,0,0-.031-.685l-.038-.136C145.489,7.992,145.442,7.822,145.247,7.675Zm9.054.436c-.309,0-.583.089-.925,1.022a4.012,4.012,0,0,0,1.5-.743.745.745,0,0,0,.1-.161c-.026,0-.086-.029-.189-.053A2.207,2.207,0,0,0,154.3,8.111Z"/>
    <path class="cls-2" d="M143.844,4.24a3.058,3.058,0,0,1,1.042.223,5.516,5.516,0,0,1,3.162,5.815c-.089.451-.256.887-.4,1.388a3.961,3.961,0,0,0,1.976.477,9.319,9.319,0,0,0,1.235-.1,7,7,0,0,1,.416-4.35,3.359,3.359,0,0,1,3.17-2.242,3.466,3.466,0,0,1,2.34.922,1.934,1.934,0,0,1,.37,2.427,4.461,4.461,0,0,1-2.421,2.48c-1.506.566-1.53,1.616-.185,2.615a6.115,6.115,0,0,0,2.351,1.144,5.228,5.228,0,0,0,1.013.183c.4,0,.744-.172.956-.8A.54.54,0,0,1,159.4,14a1.076,1.076,0,0,1,.438.11.934.934,0,0,1,.525.985c-.053.987-.86,1.63-2.125,1.63l-.135,0a7.059,7.059,0,0,1-4.372-1.739,5.3,5.3,0,0,0-3.693-1.29h0a27.8,27.8,0,0,1-3.782-.533,3.761,3.761,0,0,0-.515-.043c-.586,0-1.009.23-1.217,1.11-.294,1.243-.434,1.684-.973,1.684a7.089,7.089,0,0,1-1.683-.451c-1.246-.406-2.578-.478-2.347-2.224a1.268,1.268,0,0,0-.2-.017c-.482,0-.709.313-1.007.48a5.369,5.369,0,0,1-2.445.85c-1.235,0-1.835-1.079-1.96-3.333-.031-.553.062-1.112.071-1.669s.136-1.123-.346-1.551a.992.992,0,0,0-.144-.011c-.447,0-.553.363-.563.726-.035,1.358-.021,2.717-.038,4.075a1.726,1.726,0,0,0,.62,1.485,1.422,1.422,0,0,1,.43,1.718c-.144.469-.188.944-.847.946h-.011a1.154,1.154,0,0,1-1.151-.639,10.883,10.883,0,0,1-.774-2.99,12.258,12.258,0,0,1-.021-2.191c-1.123,1.121-1.9,1.948-2.727,2.71a3.762,3.762,0,0,1-2.433,1.184c-1.048,0-1.943-.773-2.6-2.278a4.62,4.62,0,0,1-.148-3.487,14.659,14.659,0,0,1,.837-1.973c.941-1.8,1.609-2.616,2.832-2.616a5.977,5.977,0,0,1,1.936.431,8.112,8.112,0,0,0,2.812.413c.627,0,1.251-.032,1.878-.032q.2,0,.406.005c1.91.051,2.224.324,1.988,2.173-.16,1.258-.232,2.529-.287,3.8a1.076,1.076,0,0,0,.482,1.034.634.634,0,0,0,.3.08,1.465,1.465,0,0,0,.775-.365,3.923,3.923,0,0,0,1.434-3.149c.044-.468-.119-.963-.038-1.419.108-.606.416-1.143,1.074-1.143a1.367,1.367,0,0,1,.208.017c.661.1,1.195.432,1.171,1.251-.02.718,0,1.437,0,2.156a7.314,7.314,0,0,0,.457,3.221c.826-.112.631-.678.655-1.079.124-2.041.169-4.089.344-6.125.1-1.138.547-1.678,1.348-1.678m-17.481,8.871a1.978,1.978,0,0,0,1.3-.659c1.021-.954,2.13-1.818,3.122-2.8a1.2,1.2,0,0,0-.5-2.021,8.5,8.5,0,0,1-2.355-1.087.84.84,0,0,0-.521-.2,1.022,1.022,0,0,0-.731.39,7.276,7.276,0,0,0-1.958,4.136,2.14,2.14,0,0,0,1.031,2.091,1.375,1.375,0,0,0,.61.152m18.7-3.094c1.152-.263,1.284-.8,1.048-1.651-.284-1.025-.228-1.04-1.63-1.584a12.443,12.443,0,0,1,.581,3.235m7.565-.157a5.644,5.644,0,0,0,2.651-1.171c.381-.514.215-.862-.384-1a2.677,2.677,0,0,0-.592-.078c-.814,0-1.222.588-1.675,2.249M143.844,3.24h0c-.638,0-2.144.253-2.344,2.593q-.016.181-.03.363a2.508,2.508,0,0,0-1.453-.689,2.365,2.365,0,0,0-.359-.028A2.124,2.124,0,0,0,137.6,7.447a3.628,3.628,0,0,0,0,1.044,2.635,2.635,0,0,1,.026.457,3.007,3.007,0,0,1-.994,2.411c.052-1.162.122-2.395.274-3.587a3.128,3.128,0,0,0-.4-2.512,3.256,3.256,0,0,0-2.555-.787q-.216-.006-.432-.005c-.322,0-.644.008-.965.016-.3.008-.608.016-.913.016a7.232,7.232,0,0,1-2.475-.355,6.785,6.785,0,0,0-2.273-.489c-1.916,0-2.852,1.492-3.719,3.154a15.51,15.51,0,0,0-.9,2.108,5.645,5.645,0,0,0,.176,4.213c1.031,2.38,2.479,2.88,3.513,2.88a4.7,4.7,0,0,0,3.109-1.447c.367-.336.721-.683,1.093-1.056l.005.023c.063.273.109.551.155.829a7.342,7.342,0,0,0,.717,2.42,2.131,2.131,0,0,0,2.027,1.156,1.776,1.776,0,0,0,1.772-1.508l.042-.145a3.307,3.307,0,0,0,.151-.85,2.8,2.8,0,0,0,.821.115,5.99,5.99,0,0,0,2.812-.91,3.255,3.255,0,0,0,2.374,1.621c.167.047.337.1.505.15l.264.086a5.951,5.951,0,0,0,1.729.414c1.365,0,1.661-1.247,1.946-2.453a1.013,1.013,0,0,1,.124-.337h.006c.015,0,.053,0,.113,0a2.791,2.791,0,0,1,.376.033c.408.057.815.134,1.222.211a14.555,14.555,0,0,0,2.7.332,4.321,4.321,0,0,1,3.046,1.051,8.067,8.067,0,0,0,4.986,1.978l.17,0a2.825,2.825,0,0,0,3.124-2.576,1.911,1.911,0,0,0-1.107-1.947,2.052,2.052,0,0,0-.854-.2,1.544,1.544,0,0,0-1.482,1.106.988.988,0,0,1-.047.117,3.339,3.339,0,0,1-.48-.092c-.1-.023-.19-.045-.285-.066a5.079,5.079,0,0,1-1.964-.969,1.731,1.731,0,0,1-.564-.591,1.344,1.344,0,0,1,.5-.285,5.426,5.426,0,0,0,2.963-2.967,2.931,2.931,0,0,0-.592-3.617,4.482,4.482,0,0,0-3.012-1.182,4.355,4.355,0,0,0-4.108,2.9,8.851,8.851,0,0,0-.645,3.793h-.067a3.513,3.513,0,0,1-.741-.072c.058-.194.111-.393.151-.6a6.5,6.5,0,0,0-3.795-6.946,3.994,3.994,0,0,0-1.391-.285ZM125.725,10.9a6.3,6.3,0,0,1,1.693-3.492,7.7,7.7,0,0,0,2.049.987c.155.056.311.111.465.17a.328.328,0,0,1,.224.2c0,.02.017.08-.077.172-.541.536-1.115,1.032-1.722,1.557-.455.393-.925.8-1.379,1.223-.345.322-.525.39-.615.39a.408.408,0,0,1-.17-.05c-.218-.107-.418-.278-.468-1.161Z"/>
  </g>
  <g>
    <path class="cls-1" d="M79.9,62.939a1.912,1.912,0,0,1-1.207-.465c-1.172-.942-1.166-1.834-.954-2.416.892-2.457.364-4.8-.193-7.286-.151-.675-.3-1.35-.426-2.027a1.672,1.672,0,0,0-.12-.331,2.4,2.4,0,0,1-.192-.582,1.938,1.938,0,0,1,.306-1.613,1.55,1.55,0,0,1,1.244-.494,3.39,3.39,0,0,1,.467.035,20.773,20.773,0,0,0,2.938.207A30.775,30.775,0,0,0,92.379,45.78c.338-.124.663-.28.988-.437.242-.116.483-.232.73-.337a3.2,3.2,0,0,1,1.2-.312c1.236,0,1.256,1.378,1.263,1.9a8.034,8.034,0,0,1-.077,1.055c-.017.144-.034.286-.047.43a43.711,43.711,0,0,0-.467,8.5c.016.229.027.458.039.688.025.477.05.954.11,1.427a2.283,2.283,0,0,1-.341,1.8,1.839,1.839,0,0,1-1.464.524h0a7.1,7.1,0,0,1-1.281-.159,7.163,7.163,0,0,0-.929-.137q-.6-.032-1.205-.032a41.153,41.153,0,0,0-7.894.965,3.362,3.362,0,0,0-1.727.688A2.053,2.053,0,0,1,79.9,62.939Zm1.307-12.322a1.288,1.288,0,0,0-.949.253,1.845,1.845,0,0,0-.184,1.323c.083.9.188,1.806.292,2.708.125,1.074.249,2.148.338,3.226.053.638.246.824.859.831.183,0,.366.013.549.022s.38.021.567.021a2.993,2.993,0,0,0,.469-.032,70.241,70.241,0,0,1,9.068-.953c.764-.02.9-.2.938-1.182.052-1.445.158-2.905.271-4.45.05-.682.162-2.25.162-2.25.019-.187.055-.56.084-.934a6.562,6.562,0,0,0,.025-1.029,5.77,5.77,0,0,0-1,.329,19.856,19.856,0,0,1-6.143,1.51,20.871,20.871,0,0,0-2.155.288,17.521,17.521,0,0,1-2.912.321Z"/>
    <path class="cls-2" d="M95.3,45.194c.546,0,.749.433.762,1.4a13.947,13.947,0,0,1-.121,1.431,43.941,43.941,0,0,0-.468,8.583c.049.715.061,1.434.153,2.143.159,1.23-.176,1.758-1.309,1.758h-.069c-.706-.013-1.406-.255-2.114-.293q-.621-.034-1.237-.033a41.273,41.273,0,0,0-7.985.974,3.843,3.843,0,0,0-1.964.807,1.585,1.585,0,0,1-1.047.473,1.418,1.418,0,0,1-.893-.355c-.613-.493-1.063-1.124-.8-1.855,1.195-3.293-.025-6.409-.6-9.573-.056-.31-.262-.593-.311-.9-.16-1,.18-1.53,1.056-1.53a2.809,2.809,0,0,1,.4.03,21.216,21.216,0,0,0,3.009.212,31.445,31.445,0,0,0,10.788-2.217c.6-.218,1.156-.534,1.742-.782a2.777,2.777,0,0,1,1.006-.273M81.483,50.12l-.176,0h-.1c-1.39,0-1.769.627-1.632,2.122.182,1.979.467,3.949.63,5.929a1.2,1.2,0,0,0,1.352,1.29c.373,0,.752.044,1.125.044a3.479,3.479,0,0,0,.544-.038,68.947,68.947,0,0,1,9-.948c1.221-.031,1.39-.653,1.426-1.664.073-2.063.256-4.122.419-6.563.009-.1.058-.572.1-1.049.088-1.12.07-1.575-.41-1.575a4.129,4.129,0,0,0-1.253.371,19.623,19.623,0,0,1-5.989,1.476c-1.693.107-3.319.609-5.035.609M95.3,44.194a3.6,3.6,0,0,0-1.4.352c-.254.108-.5.227-.754.347-.327.157-.635.3-.942.417a30.292,30.292,0,0,1-10.445,2.156,20.331,20.331,0,0,1-2.868-.2,3.828,3.828,0,0,0-.538-.041,2.031,2.031,0,0,0-1.625.67,2.4,2.4,0,0,0-.419,2.017,2.818,2.818,0,0,0,.228.7,1.793,1.793,0,0,1,.087.221c.125.691.28,1.381.43,2.048.541,2.41,1.053,4.685.211,7.006a2.552,2.552,0,0,0,1.111,2.976,2.4,2.4,0,0,0,1.52.575,2.539,2.539,0,0,0,1.717-.731,2.936,2.936,0,0,1,1.487-.567,40.672,40.672,0,0,1,7.792-.955c.4,0,.8.011,1.183.032a6.744,6.744,0,0,1,.863.128,7.446,7.446,0,0,0,1.287.166h.087a2.3,2.3,0,0,0,1.84-.694,2.723,2.723,0,0,0,.461-2.192c-.058-.446-.081-.9-.107-1.386-.012-.233-.024-.465-.04-.7a43.2,43.2,0,0,1,.463-8.388c.017-.177.033-.318.05-.458a8.34,8.34,0,0,0,.079-1.112c-.027-1.975-.973-2.39-1.762-2.39ZM81.483,51.12a17.808,17.808,0,0,0,2.994-.329,20.5,20.5,0,0,1,2.1-.282,20.308,20.308,0,0,0,6.3-1.545c.121-.048.227-.089.319-.123-.008.132-.017.252-.023.321-.029.375-.066.749-.084.931l-.01.1c-.051.76-.1,1.461-.151,2.137-.113,1.555-.22,3.025-.272,4.484a1.841,1.841,0,0,1-.086.658h0a1.791,1.791,0,0,1-.363.042,70.6,70.6,0,0,0-9.134.96,2.5,2.5,0,0,1-.388.026c-.178,0-.358-.011-.538-.021s-.384-.021-.575-.023a.745.745,0,0,1-.3-.043,1.09,1.09,0,0,1-.065-.329c-.09-1.091-.217-2.188-.34-3.25-.1-.9-.208-1.791-.291-2.689-.072-.78.053-.939.055-.94s.114-.09.581-.09h.079l.2,0Z"/>
  </g>
  <g>
    <path class="cls-1" d="M17.756,6.828h0L17.741,6.8l.015.023Z"/>
    <path class="cls-2" d="M17.741,6.8l0,.006,0-.006m0,.006.012.018h0l-.012-.018"/>
  </g>
  <g>
    <path class="cls-1" d="M3.358,14.984a2.76,2.76,0,0,1-1.295-.413,1.812,1.812,0,0,1-.841-2.226,9.434,9.434,0,0,0,.251-3.419c-.021-.463-.043-.927-.04-1.389,0-.123.012-.251.022-.381.038-.45.035-.649-.153-.81A2.159,2.159,0,0,1,.889,3.541,3.888,3.888,0,0,0,1.13,2.8a1.192,1.192,0,0,1,1.312-.952,2.328,2.328,0,0,1,.476.05,4.53,4.53,0,0,0,.928.088c.418,0,.834-.042,1.251-.083l.524-.048c.145-.013.287-.018.427-.018a5.41,5.41,0,0,1,4.266,2.3l.088.106a2.087,2.087,0,0,0,.252.278c0-.014.108-.056.363-.263a4.384,4.384,0,0,1,2.78-.771c.338,0,.677.017,1,.038a2.349,2.349,0,0,1,2.112,1.406,3.561,3.561,0,0,0,1.1,1.454.5.5,0,0,1,.2.354l.071.782c.053.595.105,1.189.183,1.781.292,2.257-.591,3.8-2.553,4.451a3.429,3.429,0,0,1-1.084.17,4.5,4.5,0,0,1-3.783-2.168A7.387,7.387,0,0,1,10.51,10.5c-.019-.052-.037-.1-.055-.154a1.5,1.5,0,0,0-.458.551c-.066.106-.133.213-.2.313a5.458,5.458,0,0,1-3.546,2.446,2.687,2.687,0,0,0-1.633.72,1.637,1.637,0,0,1-1.256.612ZM14.687,7.29a4.5,4.5,0,0,0-1.044.185c-.72.185-.937.241-.688,1.534a2.914,2.914,0,0,0,.692,1.448c.461.514.785.723,1.118.723a1.015,1.015,0,0,0,.381-.082c.5-.2.677-.6.688-1.551-.022-.1-.044-.2-.066-.31a7.547,7.547,0,0,0-.221-.871C15.2,7.338,15.011,7.29,14.687,7.29Zm-8.9-2.732A1.822,1.822,0,0,0,3.981,6c-.016.361-.046.724-.075,1.087A10.328,10.328,0,0,0,3.93,9.926c.21,1.081.774,1.081.96,1.081a1.793,1.793,0,0,0,.572-.108,7.348,7.348,0,0,0,1.618-.754,3.182,3.182,0,0,0,1.179-3.6A2.65,2.65,0,0,0,5.833,4.558l-.049-.5Z"/>
    <path class="cls-2" d="M6.047,2.34A5.008,5.008,0,0,1,9.928,4.463c.27.324.432.56.689.56a1.275,1.275,0,0,0,.714-.371,3.859,3.859,0,0,1,2.466-.66c.326,0,.653.017.969.037a1.84,1.84,0,0,1,1.689,1.115,4.1,4.1,0,0,0,1.261,1.649c.083.86.145,1.723.256,2.58.261,2.015-.474,3.331-2.215,3.912a2.925,2.925,0,0,1-.926.144,4.015,4.015,0,0,1-3.35-1.918,12.918,12.918,0,0,1-.706-1.741c-.823,0-1.04.653-1.39,1.146a5.029,5.029,0,0,1-3.231,2.244,3.138,3.138,0,0,0-1.916.88,1.14,1.14,0,0,1-.881.443A2.293,2.293,0,0,1,2.3,14.133,1.315,1.315,0,0,1,1.7,12.5c.533-1.649.225-3.308.236-4.959,0-.517.2-1.138-.307-1.574-1.2-1.018-.177-2.068,0-3.078.071-.411.447-.538.818-.538a1.843,1.843,0,0,1,.373.039,5,5,0,0,0,1.031.1c.607,0,1.209-.082,1.815-.132.131-.011.26-.016.386-.016M4.889,11.508a2.291,2.291,0,0,0,.733-.135,7.854,7.854,0,0,0,1.729-.808A3.693,3.693,0,0,0,8.74,6.409,3.154,3.154,0,0,0,5.85,4.058H5.783a2.309,2.309,0,0,0-2.3,1.915,16.846,16.846,0,0,0-.043,4.05c.188.965.688,1.485,1.451,1.485m5.882-5.33.081-.1-.111-.025.03.129m3.994,5.5a1.5,1.5,0,0,0,.569-.119c.864-.351,1-1.144,1-2.069-.089-.371-.164-.843-.315-1.288-.349-1.022-.636-1.414-1.334-1.414a4.973,4.973,0,0,0-1.168.2c-1.1.285-1.323.717-1.055,2.113a3.422,3.422,0,0,0,.812,1.689,2.115,2.115,0,0,0,1.49.888M6.047,1.34h0q-.23,0-.468.02c-.177.015-.353.032-.53.049-.42.041-.817.08-1.2.08a4.007,4.007,0,0,1-.826-.077,2.821,2.821,0,0,0-.578-.061,1.7,1.7,0,0,0-1.8,1.368,3.671,3.671,0,0,1-.214.637A2.661,2.661,0,0,0,.978,6.728a3.221,3.221,0,0,1-.021.386c-.012.143-.023.285-.024.42,0,.48.019.955.04,1.415a9.068,9.068,0,0,1-.228,3.243,2.314,2.314,0,0,0,1.076,2.818,3.253,3.253,0,0,0,1.536.475A2.131,2.131,0,0,0,4.99,14.7a2.273,2.273,0,0,1,1.351-.558A6.011,6.011,0,0,0,10.2,11.5c.032-.046.064-.093.1-.14a5.418,5.418,0,0,0,.32.659,5.014,5.014,0,0,0,4.215,2.416,3.919,3.919,0,0,0,1.243-.2c2.186-.729,3.212-2.5,2.89-4.989-.075-.577-.128-1.177-.18-1.757-.023-.264-.047-.527-.072-.791a1,1,0,0,0-.4-.708,3.1,3.1,0,0,1-.945-1.258,2.816,2.816,0,0,0-2.535-1.7c-.281-.018-.652-.039-1.034-.039a4.865,4.865,0,0,0-3.073.865L10.7,3.823A5.946,5.946,0,0,0,6.047,1.34ZM4.889,10.508c-.109,0-.337,0-.469-.677A10.012,10.012,0,0,1,4.4,7.118c.03-.367.06-.733.077-1.1.021-.458.7-.962,1.3-.962A2.16,2.16,0,0,1,7.778,6.681a2.688,2.688,0,0,1-.969,3.044,6.87,6.87,0,0,1-1.508.7,1.336,1.336,0,0,1-.411.081ZM13.367,8.1a1.666,1.666,0,0,1,.4-.142,4.552,4.552,0,0,1,.919-.168.372.372,0,0,1,.085.006,4.463,4.463,0,0,1,.3.73,7.106,7.106,0,0,1,.2.815c.019.089.037.175.055.257-.019.89-.2.964-.376,1.036a.529.529,0,0,1-.193.045c-.222,0-.532-.317-.746-.556a2.439,2.439,0,0,1-.574-1.209,2.626,2.626,0,0,1-.078-.814Z"/>
  </g>
  <g>
    <path class="cls-1" d="M17.715,7.31a.439.439,0,0,1-.262-.086c-.017-.012-.049-.039-.063-.053a.54.54,0,0,1-.17-.328.515.515,0,0,1,.04-.258.494.494,0,0,1,.141-.193.477.477,0,0,1,.119-.073.489.489,0,0,1,.2-.043h.017a.478.478,0,0,1,.4.22l.007.013a.518.518,0,0,1-.429.8Z"/>
    <path class="cls-2" d="M17.714,6.763l.012.018-.011-.016h0c.012.018.021.037.033.055-.011-.008-.02-.018-.031-.026l0-.031m.012.018.007.011-.007-.011"/>
  </g>
  <g>
    <path class="cls-1" d="M126.977,62.806a.544.544,0,0,1-.422-.188.505.505,0,0,1-.1-.5.538.538,0,0,1,.336-.311.633.633,0,0,1,.16-.021.463.463,0,0,1,.28.087.545.545,0,0,1,.209.537.5.5,0,0,1-.381.393A.513.513,0,0,1,126.977,62.806Z"/>
    <path class="cls-2" d="M126.936,62.269l.046.038-.064.008.018-.044v0"/>
  </g>
  <g>
    <path class="cls-1" d="M126.94,62.736a.475.475,0,0,1-.155-.025.5.5,0,0,1-.342-.522c0-.012,0-.036.008-.049a.507.507,0,0,1,.423-.409.612.612,0,0,1,.072,0,.494.494,0,0,1,.445.271.523.523,0,0,1-.014.492A.513.513,0,0,1,126.94,62.736Z"/>
    <path class="cls-2" d="M126.945,62.22l.005.012-.009.012,0-.024m0-1a1,1,0,0,0-.986.833c-.005.027-.01.057-.012.08a1,1,0,0,0,1.8.708c.018-.023.035-.048.05-.071a1,1,0,0,0,.074-.938c-.009-.021-.019-.043-.028-.061a1,1,0,0,0-.893-.551Z"/>
  </g>
  <g>
    <path class="cls-1" d="M139.829,65.408a16.539,16.539,0,0,1-3.185-.24,50.932,50.932,0,0,0-8.91-.907c-.661-.018-1.231-.032-1.509-.456a1.037,1.037,0,0,1-.06-.9c-.245.024-.458.038-.646.038a1.587,1.587,0,0,1-1.172-.383c-.447-.447-.469-1.174-.467-2.42,0-2.191-.069-4.423-.139-6.581l-.011-.315a5.155,5.155,0,0,0-.784-2.891,2.134,2.134,0,0,1-.2-2.572,1.388,1.388,0,0,1,1.15-.624,3.039,3.039,0,0,1,1.3.419,4.238,4.238,0,0,0,2,.432c.5,0,1.021-.052,1.522-.1l.3-.029c.724-.068,1.447-.131,2.172-.192a63.22,63.22,0,0,0,7.709-.982,4.837,4.837,0,0,1,.978-.124,1.4,1.4,0,0,1,1.089.405,2.273,2.273,0,0,1,.36,1.735,75.827,75.827,0,0,0,.641,14.152c.106.982.09,1.6-.3,2.03a2.272,2.272,0,0,1-1.779.5ZM127.9,61.166a3.932,3.932,0,0,1,.879.136l.315.07a48.225,48.225,0,0,0,9.531,1.166c.436,0,.536-.062.563-.089a.486.486,0,0,0,.055-.3c-.027-1.1-.045-2.2-.062-3.3-.04-2.521-.081-5.128-.247-7.678-.106-1.627-.357-1.627-.962-1.627a7.619,7.619,0,0,0-1.075.1c-1.955.295-3.944.437-5.868.574-1.282.091-2.607.186-3.9.324-.83.089-.959.309-.95.97.01.707,0,1.417-.011,2.127-.039,2.711-.077,5.284.941,7.741A1.5,1.5,0,0,1,127.9,61.166Z"/>
    <path class="cls-2" d="M139.88,47.082c.816,0,1.041.463.952,1.6a76.248,76.248,0,0,0,.641,14.245c.177,1.632-.022,1.98-1.584,1.98h-.056a16.091,16.091,0,0,1-3.089-.231,52.046,52.046,0,0,0-9-.917c-1.333-.035-1.359-.141-.829-1.446l.064-.008c.014-.055.021-.109.034-.164a1.025,1.025,0,0,1,.889-.477,6.089,6.089,0,0,1,1.1.2,48.573,48.573,0,0,0,9.628,1.176h.063c.663,0,1.075-.163,1.056-.906-.091-3.668-.071-7.344-.31-11-.1-1.584-.367-2.095-1.461-2.095a8.039,8.039,0,0,0-1.15.111c-3.237.488-6.505.548-9.75.9-1.029.11-1.411.493-1.4,1.473.049,3.615-.423,7.289,1.265,10.706l0,.024-.013.018.009.008v0l-.018.044a11.467,11.467,0,0,1-1.4.132c-1.085,0-1.141-.51-1.139-2.3,0-2.3-.076-4.609-.149-6.913a5.728,5.728,0,0,0-.872-3.158,1.677,1.677,0,0,1-.208-1.995.888.888,0,0,1,.746-.419,2.907,2.907,0,0,1,1.169.41,4.7,4.7,0,0,0,2.135.44c.627,0,1.256-.074,1.867-.133a87.5,87.5,0,0,0,9.937-1.184,4.344,4.344,0,0,1,.874-.113m0-1a5.215,5.215,0,0,0-1.082.135,62.81,62.81,0,0,1-7.647.973c-.726.062-1.452.125-2.177.194l-.3.029c-.49.049-1,.1-1.473.1a3.7,3.7,0,0,1-1.691-.336l-.084-.042a3.426,3.426,0,0,0-1.53-.473,1.869,1.869,0,0,0-1.554.83,2.63,2.63,0,0,0,.192,3.15,4.7,4.7,0,0,1,.7,2.624l.011.354c.069,2.142.14,4.357.137,6.526,0,1.206,0,2.158.613,2.774a2.073,2.073,0,0,0,1.526.529h.075a1.27,1.27,0,0,0,.211.632c.421.643,1.18.663,1.914.682a50.59,50.59,0,0,1,8.824.9,17.015,17.015,0,0,0,3.281.251h.061a2.739,2.739,0,0,0,2.156-.67,2.98,2.98,0,0,0,.423-2.418,75.4,75.4,0,0,1-.638-14.058,2.7,2.7,0,0,0-.493-2.115,1.892,1.892,0,0,0-1.456-.565Zm-13.16,5.049a1.731,1.731,0,0,1,.463-.1c1.286-.138,2.607-.232,3.885-.323,1.934-.138,3.933-.28,5.909-.578a7.127,7.127,0,0,1,1-.1.851.851,0,0,1,.3.033,4.563,4.563,0,0,1,.16,1.127c.166,2.536.207,5.136.246,7.65.017,1.065.034,2.129.059,3.193h-.117a47.731,47.731,0,0,1-9.43-1.156c-.1-.021-.2-.044-.3-.067a4.313,4.313,0,0,0-.993-.149,2.173,2.173,0,0,0-.509.058,19.934,19.934,0,0,1-.727-7.082c.01-.715.021-1.429.011-2.141a.972.972,0,0,1,.04-.37Z"/>
  </g>
  <g>
    <path class="cls-1" d="M126.981,62.806a.5.5,0,0,1-.443-.27c-.009-.016-.033-.071-.039-.088a.573.573,0,0,1,.027-.483c.01-.018.063-.09.076-.105a.536.536,0,0,1,.413-.2.465.465,0,0,1,.207.047.488.488,0,0,1,.28.547l-.036.171a.5.5,0,0,1-.427.375A.394.394,0,0,1,126.981,62.806Z"/>
    <path class="cls-2" d="M127.016,62.143h.005m-.005,0c-.013.055-.02.109-.034.164-.013-.025-.02-.051-.032-.076.021-.034.044-.058.066-.088m.005-1h-.005a1,1,0,0,0-.8.406,1.64,1.64,0,0,0-.105.145,1,1,0,0,0-.07.944c.017.043.034.082.054.122a1,1,0,0,0,1.861-.209c.012-.046.021-.092.03-.138a1,1,0,0,0-.96-1.27Zm-.005,2h0Z"/>
  </g>
  <g>
    <path class="cls-1" d="M4.628,59.842a1.4,1.4,0,0,1-1.1-.469,2.518,2.518,0,0,1-.366-2.039,56.649,56.649,0,0,0,.587-7.063,4.879,4.879,0,0,0-.573-2.715,1.739,1.739,0,0,1-.043-1.76A1.46,1.46,0,0,1,4.4,45.041a1.581,1.581,0,0,1,.761.2,7.183,7.183,0,0,0,3.509.857,19.509,19.509,0,0,0,4.14-.613c.524-.116,1.047-.231,1.568-.331.779-.148,1.572-.23,2.34-.31A14.031,14.031,0,0,0,20.845,44a1.371,1.371,0,0,1,.533-.109,1.515,1.515,0,0,1,1.211.656,2.164,2.164,0,0,1,.28,1.923,8.446,8.446,0,0,0-.295,1.939,12.274,12.274,0,0,1-.181,1.534,10.7,10.7,0,0,0,.107,6.079,1.813,1.813,0,0,1-.077,1.729A2.206,2.206,0,0,1,20.5,58.5h0a.614.614,0,0,1-.169-.023,5.369,5.369,0,0,0-1.659-.244,14.957,14.957,0,0,0-3.164.47c-.394.087-.787.174-1.182.25A33.264,33.264,0,0,1,9.5,59.4a33.855,33.855,0,0,0-4.466.4A2.331,2.331,0,0,1,4.628,59.842Zm5.117-3.015c.3.027.607.04.908.04a22.126,22.126,0,0,0,4.287-.57c.749-.149,1.5-.3,2.252-.41,1.512-.222,1.764-.454,2.075-1.916a24.457,24.457,0,0,0,.462-5.822c-.031-1.123-.121-1.123-.711-1.123-.133,0-.28.007-.446.02a53.673,53.673,0,0,0-5.442.777,46.027,46.027,0,0,1-6.635.848c-.2.006-.257.007-.279.49-.025.563-.067,1.126-.108,1.689-.074,1-.151,2.03-.128,3.03.067,2.9.067,2.9,3.012,2.945H9.7Z"/>
    <path class="cls-2" d="M21.378,44.392a1.39,1.39,0,0,1,1.014,1.931,32.229,32.229,0,0,0-.488,3.524,11.27,11.27,0,0,0,.129,6.351c.442,1.2-.146,1.8-1.534,1.8H20.48a5.9,5.9,0,0,0-1.812-.267,24.111,24.111,0,0,0-4.441.729c-3.066.592-6.207.3-9.278.853a1.823,1.823,0,0,1-.322.031c-.829,0-1.149-.7-.975-1.938a57.406,57.406,0,0,0,.591-7.125A5.379,5.379,0,0,0,3.6,47.3a1.112,1.112,0,0,1,.8-1.763,1.093,1.093,0,0,1,.522.141,7.662,7.662,0,0,0,3.747.918,31.505,31.505,0,0,0,5.8-.953c2.182-.416,4.458-.291,6.569-1.184a.864.864,0,0,1,.339-.07M9.251,57.327H9.7c.32.029.637.042.953.042a45.772,45.772,0,0,0,6.612-.985c1.731-.254,2.139-.655,2.492-2.307a25.049,25.049,0,0,0,.474-5.94c-.035-1.262-.232-1.609-1.211-1.609-.144,0-.3.007-.483.021-4.05.3-7.98,1.5-12.055,1.624-.633.019-.739.441-.763.968-.073,1.586-.274,3.172-.237,4.754.078,3.379.127,3.378,3.509,3.433l.262,0M21.378,43.392a1.86,1.86,0,0,0-.728.149,13.666,13.666,0,0,1-3.986.807c-.778.08-1.582.163-2.381.315-.527.1-1.055.217-1.584.334a18.863,18.863,0,0,1-4.031.6A6.609,6.609,0,0,1,5.4,44.8a2.08,2.08,0,0,0-1-.261,1.953,1.953,0,0,0-1.7,1.007,2.233,2.233,0,0,0,.045,2.261,4.391,4.391,0,0,1,.5,2.456,56.223,56.223,0,0,1-.582,7A2.976,2.976,0,0,0,3.146,59.7a1.888,1.888,0,0,0,1.481.64,2.831,2.831,0,0,0,.5-.047,33.157,33.157,0,0,1,4.4-.392,33.612,33.612,0,0,0,4.888-.464c.4-.077.794-.164,1.191-.251a14.574,14.574,0,0,1,3.06-.459,4.887,4.887,0,0,1,1.507.22,1,1,0,0,0,.3.047,2.677,2.677,0,0,0,2.358-.957,2.272,2.272,0,0,0,.136-2.188,10.258,10.258,0,0,1-.087-5.807,12.646,12.646,0,0,0,.189-1.6,8.116,8.116,0,0,1,.273-1.828,2.665,2.665,0,0,0-.355-2.369,2.008,2.008,0,0,0-1.613-.86ZM6.717,49.163a47.97,47.97,0,0,0,6.5-.849,53.473,53.473,0,0,1,5.39-.771c.152-.011.288-.018.41-.018.068,0,.121,0,.161.005a4.463,4.463,0,0,1,.05.632,23.985,23.985,0,0,1-.452,5.7c-.258,1.212-.321,1.33-1.659,1.526-.771.113-1.537.266-2.278.414a21.431,21.431,0,0,1-4.188.56c-.294,0-.585-.013-.862-.038-.03,0-.06,0-.09,0H9.251l-.246,0a8.031,8.031,0,0,1-2.316-.191,7.939,7.939,0,0,1-.209-2.266c-.023-.98.05-1.957.127-2.992.042-.564.084-1.129.11-1.693v-.021Z"/>
  </g>
  <g>
    <path class="cls-1" d="M38.749,34.888a1.889,1.889,0,0,1-.192-.011A1.569,1.569,0,0,1,36.97,33.34c.015-.974-.032-1.971-.076-2.936a29.756,29.756,0,0,1,.049-4.984,1.8,1.8,0,0,1,1.273-1.684,1.678,1.678,0,0,1,.474-.074,1.3,1.3,0,0,1,1.132.7c.421-.933,1.046-2.065,2.411-2.065l.154,0c1.359.087,1.759,1.3,2.051,2.181.051.153.1.3.154.45a2.471,2.471,0,0,0,2.224,1.831,2.823,2.823,0,0,0,1.93-.885A9.65,9.65,0,0,1,50.931,24.2a2.558,2.558,0,0,1,1.187-.283,2.771,2.771,0,0,1,2.55,1.633c.485,1.2-.112,2.428-1.522,3.118a13.6,13.6,0,0,1-1.554.609c-.313.109-.628.218-.936.341a.911.911,0,0,0-.549.427,1.123,1.123,0,0,0,.135.821,1.953,1.953,0,0,0,1.63,1.352,2.363,2.363,0,0,0,1.416-.6,3.054,3.054,0,0,0,.35-.357,1.855,1.855,0,0,1,1.286-.817,1.205,1.205,0,0,1,.929.5c.958,1.15-.432,2.4-.955,2.864a4.029,4.029,0,0,1-2.718,1.062h0a4.938,4.938,0,0,1-4.627-4.021c-.277-1.169-.437-1.169-.913-1.169a5.524,5.524,0,0,0-.572.038.907.907,0,0,0-.6.214.858.858,0,0,0-.011.608,7.472,7.472,0,0,1,.142,1.136c.015.192.028.386.051.577a1.515,1.515,0,0,1-.308,1.244,1.3,1.3,0,0,1-1.023.412A1.462,1.462,0,0,1,42.7,32.38c.008-.312.022-.622.037-.934.027-.575.054-1.118.033-1.665a21.266,21.266,0,0,0-.281-3.017c-.1-.535-.214-.656-.359-.674h-.012c-.115,0-.165.048-.323.41l-.09.2a16.184,16.184,0,0,0-1.435,5.319,6.415,6.415,0,0,0-.024.686c0,.248,0,.5-.024.742A1.461,1.461,0,0,1,38.749,34.888Z"/>
    <path class="cls-2" d="M42.231,22.8c.041,0,.082,0,.125,0,1.21.077,1.408,1.339,1.767,2.3a2.94,2.94,0,0,0,2.693,2.158,3.321,3.321,0,0,0,2.276-1.024,9.149,9.149,0,0,1,2.067-1.589,2.087,2.087,0,0,1,.958-.228,2.27,2.27,0,0,1,2.085,1.32c.374.928-.076,1.892-1.278,2.481-.783.384-1.642.61-2.455.936-.937.375-1.094,1.014-.682,1.92a2.371,2.371,0,0,0,2.084,1.644,2.824,2.824,0,0,0,1.727-.7c.411-.327.832-1.067,1.325-1.067a.727.727,0,0,1,.545.321c.614.736-.259,1.592-.906,2.171a3.536,3.536,0,0,1-2.384.934,4.457,4.457,0,0,1-4.141-3.637c-.286-1.208-.541-1.554-1.4-1.554a5.991,5.991,0,0,0-.625.041c-.917.1-1.255.511-1.047,1.43a16.233,16.233,0,0,1,.183,1.662c.079.661-.173,1.1-.835,1.1h-.052c-.6-.02-1.08-.305-1.063-1.024.021-.877.1-1.755.07-2.629a21.841,21.841,0,0,0-.29-3.087c-.074-.408-.21-1.012-.792-1.082a.89.89,0,0,0-.106-.007c-.512,0-.639.5-.83.9a16.756,16.756,0,0,0-1.48,5.48c-.051.474,0,.959-.05,1.434a.967.967,0,0,1-.971.989,1.3,1.3,0,0,1-.14-.008c-.564-.061-1.15-.367-1.14-1.033.04-2.623-.348-5.245-.031-7.867a1.327,1.327,0,0,1,.919-1.265,1.174,1.174,0,0,1,.332-.053c.564,0,.765.546,1.03,1.086.273-.2.368-.238.4-.3.436-1.005.914-2.151,2.115-2.151m8.917,4.134.185-.08c-.042-.047-.078-.126-.126-.134h-.012c-.052,0-.112.048-.168.073l.122.142M42.231,21.8h0a2.832,2.832,0,0,0-2.528,1.69,1.649,1.649,0,0,0-1.013-.323,2.178,2.178,0,0,0-.616.094,2.267,2.267,0,0,0-1.628,2.1,30.274,30.274,0,0,0-.052,5.063c.044.958.09,1.95.076,2.909A2.064,2.064,0,0,0,38.5,35.374a2.3,2.3,0,0,0,.248.014A1.956,1.956,0,0,0,40.717,33.5c.027-.279.027-.541.028-.794a6.154,6.154,0,0,1,.021-.629,15.862,15.862,0,0,1,1.28-4.923,22.41,22.41,0,0,1,.224,2.65c.019.527-.006,1.061-.033,1.626-.015.314-.03.628-.037.942a1.943,1.943,0,0,0,2.03,2.047h.085a1.792,1.792,0,0,0,1.4-.58,2,2,0,0,0,.429-1.634c-.022-.183-.035-.368-.048-.553a7.964,7.964,0,0,0-.153-1.212,1.481,1.481,0,0,1-.031-.181,1.6,1.6,0,0,1,.209-.035,5.086,5.086,0,0,1,.518-.035,1.164,1.164,0,0,1,.182.011,3.178,3.178,0,0,1,.245.773,5.436,5.436,0,0,0,5.114,4.407,4.521,4.521,0,0,0,3.051-1.189c1.51-1.35,1.849-2.547,1.008-3.556a1.686,1.686,0,0,0-1.313-.681,2.3,2.3,0,0,0-1.659.984,3.323,3.323,0,0,1-.289.3,1.887,1.887,0,0,1-1.1.486c-.573,0-.955-.575-1.174-1.058a.977.977,0,0,1-.124-.434h0a1.13,1.13,0,0,1,.268-.143c.3-.12.6-.225.909-.33a14.03,14.03,0,0,0,1.614-.635c1.638-.8,2.348-2.31,1.766-3.753a3.278,3.278,0,0,0-3.013-1.947,3.066,3.066,0,0,0-1.416.338,10.122,10.122,0,0,0-2.3,1.757,2.37,2.37,0,0,1-1.583.745,1.973,1.973,0,0,1-1.756-1.506c-.052-.139-.1-.285-.148-.433-.3-.9-.8-2.414-2.493-2.521q-.1-.006-.188-.006Z"/>
  </g>
  <g>
    <path class="cls-1" d="M45.906,61.63A1.588,1.588,0,0,1,44.732,61a1.828,1.828,0,0,0-1.607-.6l-.82,0a82.453,82.453,0,0,0-9.265.57,9.551,9.551,0,0,1-1.021.071,1.767,1.767,0,0,1-1.318-.428c-.453-.468-.466-1.222-.435-2.234A38,38,0,0,0,30,53.551c-.133-1.377-.271-2.8-.277-4.224,0-.335.012-.676.025-1.019a6.545,6.545,0,0,0-.408-3.246,1.272,1.272,0,0,1,.593-1.669,1.649,1.649,0,0,1,.826-.228,1.672,1.672,0,0,1,1.093.42,6.4,6.4,0,0,0,3.919,1.408c.978.059,1.852.087,2.672.087a25.684,25.684,0,0,0,4.615-.379,6.081,6.081,0,0,1,1.07-.116c1.451,0,1.824,1.017,2,2.011.1.6.225,1.2.345,1.8a23.481,23.481,0,0,1,.668,5.878,12.876,12.876,0,0,0,.486,4.589.494.494,0,0,1,.008.267c-.028.118-.054.236-.079.355a5.628,5.628,0,0,1-.228.854c-.422,1.125-1.072,1.293-1.422,1.293ZM33.082,47.175c-.188,0-.367,0-.523.7a19.126,19.126,0,0,0-.012,6.374c.114,1.053.233,2.142.264,3.227.01.36.13.729.945.734l.676,0a59.759,59.759,0,0,0,8.051-.454c2.121-.293,2.26-.6,2.255-2.585V53.613c-.023-.358-.04-.738-.057-1.11-.035-.788-.067-1.533-.172-2.261-.294-2.067-1.008-2.687-3.183-2.762-.362-.013-.725-.018-1.088-.018-.508,0-1.016.009-1.523.018s-1.027.019-1.541.019a20.751,20.751,0,0,1-3.783-.29A1.763,1.763,0,0,0,33.082,47.175Z"/>
    <path class="cls-2" d="M30.762,43.667a1.184,1.184,0,0,1,.768.3,6.925,6.925,0,0,0,4.213,1.528c.9.054,1.8.088,2.7.088a26.246,26.246,0,0,0,4.7-.387,5.646,5.646,0,0,1,.982-.109c.9,0,1.3.42,1.5,1.6.437,2.5,1.142,4.978,1.006,7.562a13.528,13.528,0,0,0,.507,4.763,9.923,9.923,0,0,1-.288,1.153c-.233.622-.569.969-.955.969a1.125,1.125,0,0,1-.8-.46,2.306,2.306,0,0,0-1.982-.767c-.174,0-.353,0-.538,0H42.3a82.977,82.977,0,0,0-9.318.574,8.917,8.917,0,0,1-.965.068c-1.177,0-1.305-.5-1.253-2.147.1-3.035-.527-6.032-.54-9.076-.006-1.47.276-3.039-.434-4.483a.774.774,0,0,1,.394-1.015,1.147,1.147,0,0,1,.576-.161m3.679,15.05a59.473,59.473,0,0,0,8.11-.459c2.359-.324,2.692-.813,2.687-3.081,0-.557,0-1.114,0-1.564-.077-1.221-.076-2.342-.233-3.441-.331-2.327-1.277-3.109-3.661-3.191-.369-.013-.739-.017-1.108-.017-1.019,0-2.039.035-3.058.035a20.019,20.019,0,0,1-3.695-.281,2.2,2.2,0,0,0-.4-.042c-.553,0-.836.31-1.012,1.1-.733,3.279.15,6.486.24,9.723.023.829.568,1.216,1.443,1.22l.687,0m-3.678-16.05h0a2.133,2.133,0,0,0-1.075.294,1.76,1.76,0,0,0-.792,2.322,6.185,6.185,0,0,1,.357,3.005c-.014.351-.027.7-.026,1.042.006,1.447.145,2.883.28,4.273a37.184,37.184,0,0,1,.26,4.768,3.4,3.4,0,0,0,.576,2.6,2.251,2.251,0,0,0,1.677.579,9.64,9.64,0,0,0,1.078-.075,81.835,81.835,0,0,1,9.206-.567h.236l.337,0,.25,0c.64,0,.908.062,1.233.429a2.057,2.057,0,0,0,1.548.8c.479,0,1.363-.21,1.891-1.618a6.275,6.275,0,0,0,.25-.934c.024-.112.047-.224.074-.334a1,1,0,0,0-.016-.532,12.4,12.4,0,0,1-.464-4.415,23.914,23.914,0,0,0-.678-6c-.119-.593-.239-1.187-.342-1.781-.182-1.041-.637-2.424-2.489-2.424a6.524,6.524,0,0,0-1.16.125,25.155,25.155,0,0,1-4.524.371c-.811,0-1.676-.028-2.644-.086a5.92,5.92,0,0,1-3.624-1.29,2.2,2.2,0,0,0-1.417-.539Zm3.678,15.05-.682,0a.755.755,0,0,1-.419-.08.391.391,0,0,1-.03-.168c-.031-1.105-.15-2.206-.266-3.27a18.778,18.778,0,0,1,0-6.207,2,2,0,0,1,.091-.31,1.353,1.353,0,0,1,.162.022,21.264,21.264,0,0,0,3.878.3c.515,0,1.031-.009,1.547-.018s1.008-.018,1.512-.018c.358,0,.716,0,1.074.017,1.917.066,2.448.523,2.705,2.333.1.7.132,1.433.166,2.208.016.366.033.74.057,1.123v1.535c0,1.8,0,1.836-1.823,2.088a59.175,59.175,0,0,1-7.974.45Z"/>
  </g>
  <g>
    <path class="cls-1" d="M115.6,65.213a18.756,18.756,0,0,1-2.027-.237c-.515-.079-1.03-.159-1.548-.2l-.916-.081c-.993-.092-2.021-.186-3.022-.186a11.79,11.79,0,0,0-2.351.215,3.816,3.816,0,0,1-.752.088,1.63,1.63,0,0,1-1.5-.822,1.54,1.54,0,0,1,.344-1.885,1.847,1.847,0,0,1,1.442-.659,2.678,2.678,0,0,1,.841.146,17.062,17.062,0,0,0,5.091.613,26.927,26.927,0,0,1,3.557.233l.058,0c.134,0,.246-.041.255-.378a4.824,4.824,0,0,0-.112-1.282Q113.7,55.681,112.394,50.6l-.054-.213c-.338-1.325-.417-1.432-1.059-1.432a6.445,6.445,0,0,0-1.1.129,5.805,5.805,0,0,1-1.062.085c-.282,0-.567-.014-.853-.026-.242-.012-.483-.022-.723-.025a.482.482,0,0,1-.085.008l-.909,0c-.172,0-.622.008-.627.008a9.992,9.992,0,0,1-1-.071,9.059,9.059,0,0,0-.917-.067c-.38,0-.6.063-.656.187a5.991,5.991,0,0,0-.418,3.639,20.553,20.553,0,0,1,.329,2.707,15.831,15.831,0,0,0,.455,3.172,2.68,2.68,0,0,1,.063.86l-.007.233c0,1.328-.549,2-1.617,2.007a1.361,1.361,0,0,1-1.094-.4,1.591,1.591,0,0,1-.223-1.332,2.784,2.784,0,0,0,.034-.353v-.451a37.6,37.6,0,0,0-.481-7.317,10.494,10.494,0,0,1,.16-4.44c.365-1.6,1.279-1.838,1.792-1.838a2.2,2.2,0,0,1,.929.228,8.59,8.59,0,0,0,3.738.731c.825,0,1.679-.069,2.5-.137.576-.048,1.153-.095,1.729-.12.231-.011.461-.037.691-.062a8.781,8.781,0,0,1,.984-.072,1.717,1.717,0,0,1,1.3.493,1.573,1.573,0,0,1,.385,1.225,18.935,18.935,0,0,0,1.333,7.152c.18.562.36,1.123.529,1.688a40.594,40.594,0,0,1,1.369,5.874,2.486,2.486,0,0,1-.273,2.035,2.057,2.057,0,0,1-1.6.521C115.844,65.221,115.725,65.218,115.6,65.213Z"/>
    <path class="cls-2" d="M102.343,46.166a1.714,1.714,0,0,1,.718.181,9.093,9.093,0,0,0,3.948.779c1.414,0,2.837-.194,4.256-.258.552-.025,1.1-.134,1.652-.134h.01c.754,0,1.229.4,1.176,1.183-.216,3.185,1,6.068,1.882,9.017a40.837,40.837,0,0,1,1.353,5.8c.221,1.522-.031,1.984-1.382,1.984q-.157,0-.334-.008c-1.189-.053-2.366-.34-3.556-.439-1.326-.111-2.652-.269-3.981-.269a12.294,12.294,0,0,0-2.448.225,3.338,3.338,0,0,1-.653.078,1.14,1.14,0,0,1-1.072-.572,1.108,1.108,0,0,1,.29-1.31,1.345,1.345,0,0,1,1.064-.484,2.191,2.191,0,0,1,.682.12c2.846.94,5.835.42,8.729.866a1.094,1.094,0,0,0,.167.013c.494,0,.708-.387.722-.87a5.358,5.358,0,0,0-.127-1.416q-1.256-5.1-2.559-10.179c-.359-1.393-.456-2.02-1.6-2.02a6.876,6.876,0,0,0-1.193.137,5.378,5.378,0,0,1-.971.077c-.551,0-1.111-.051-1.661-.051v.008c-.3,0-.6,0-.9,0-.18,0-.36,0-.539.007h-.1c-.587,0-1.313-.139-1.916-.139-.516,0-.941.1-1.112.48a6.523,6.523,0,0,0-.452,3.948c.412,1.942.242,3.976.793,5.912a3.52,3.52,0,0,1,.036.955c0,.777-.158,1.506-1.12,1.509h-.009c-1.218,0-.77-.964-.771-1.585a40.194,40.194,0,0,0-.491-7.865,10.061,10.061,0,0,1,.157-4.231c.209-.913.649-1.449,1.3-1.449m0-1c-.532,0-1.82.217-2.279,2.226a10.983,10.983,0,0,0-.163,4.65,36.735,36.735,0,0,1,.472,7.229v.442a2.252,2.252,0,0,1-.03.286,2.046,2.046,0,0,0,.342,1.729,1.842,1.842,0,0,0,1.458.569,2.294,2.294,0,0,0,1.094-.259,1.942,1.942,0,0,0-.193,2.2,2.138,2.138,0,0,0,1.939,1.073,4.3,4.3,0,0,0,.851-.1,11.287,11.287,0,0,1,2.25-.2c.979,0,1.949.089,2.977.183.307.028.614.056.921.082.495.041.99.118,1.515.2a19.175,19.175,0,0,0,2.08.243q.2.009.379.009a2.494,2.494,0,0,0,1.982-.694,2.958,2.958,0,0,0,.39-2.434,41.133,41.133,0,0,0-1.384-5.946c-.169-.567-.351-1.133-.533-1.7a18.575,18.575,0,0,1-1.31-6.966,2.054,2.054,0,0,0-.517-1.6,2.172,2.172,0,0,0-1.654-.652,9.236,9.236,0,0,0-1.054.075c-.218.024-.436.049-.655.059-.583.026-1.166.074-1.749.121-.852.07-1.657.136-2.462.136a7.993,7.993,0,0,1-3.526-.685,2.7,2.7,0,0,0-1.141-.275Zm6.774,4.5a6.277,6.277,0,0,0,1.152-.093,6,6,0,0,1,1.013-.121h0a.762.762,0,0,1,.262.028,5.926,5.926,0,0,1,.311,1.027l.055.213c.8,3.1,1.634,6.424,2.557,10.169a4.163,4.163,0,0,1,.1,1.007,29.515,29.515,0,0,0-3.359-.2,16.69,16.69,0,0,1-4.948-.589,3.184,3.184,0,0,0-1-.17,2.35,2.35,0,0,0-1.33.393,3.166,3.166,0,0,0,.337-1.545c0-.07,0-.142.006-.214a3.134,3.134,0,0,0-.081-1.019,15.48,15.48,0,0,1-.438-3.072,20.929,20.929,0,0,0-.339-2.774,5.484,5.484,0,0,1,.331-3.205,1.674,1.674,0,0,1,.255-.016c.251,0,.549.031.865.065a10.181,10.181,0,0,0,1.05.074l.124,0c.17,0,.34-.006.511-.006l.442,0,.457,0a1.017,1.017,0,0,0,.117-.007c.222,0,.444.013.667.024.293.014.586.027.877.027Z"/>
  </g>
  <g>
    <path class="cls-1" d="M71.05,61.869c-.137,0-.283,0-.437-.015-.813-.054-1.623-.186-2.405-.312l-.714-.114a21.3,21.3,0,0,0-3.187-.3,9.208,9.208,0,0,0-2.753.387,3.382,3.382,0,0,1-1,.141c-.125,0-.249-.006-.37-.017a1.478,1.478,0,0,1-1.5-1.579,1.384,1.384,0,0,1,1.346-1.369,20.11,20.11,0,0,1,6.357.021,23.587,23.587,0,0,0,3.832.342h.047l-.446-2.462c-.454-2.522-.884-4.905-1.368-7.327-.18-.9-.566-1.262-1.333-1.262a3.182,3.182,0,0,0-.573.058,32.419,32.419,0,0,1-5.727.366c-.8,0-1.607.006-2.41.036-1,.036-1.181.211-1.229,1.168a16.23,16.23,0,0,0,.52,4.227c.127.6.253,1.192.353,1.793.05.3.216.5.612.737a1.486,1.486,0,0,1,.468,2.089,1.454,1.454,0,0,1-1.352.894A1.776,1.776,0,0,1,56.1,57.988a29.687,29.687,0,0,1-1.18-5.9c-.083-.641-.167-1.281-.264-1.92-.062-.4-.1-.808-.145-1.214-.039-.381-.078-.763-.135-1.145a2.631,2.631,0,0,1,.418-2.148,1.707,1.707,0,0,1,1.342-.57,3.326,3.326,0,0,1,1.1.214,12.684,12.684,0,0,0,4.329.716A31.956,31.956,0,0,0,68.447,45a3.873,3.873,0,0,1,.848-.105,1.565,1.565,0,0,1,1.257.5,1.733,1.733,0,0,1,.293,1.458,14.052,14.052,0,0,0,.491,5.377c.159.721.324,1.466.442,2.212a19.818,19.818,0,0,0,.733,2.817c.178.569.356,1.14.5,1.716a2.655,2.655,0,0,1-.158,2.237,2.2,2.2,0,0,1-1.809.659Z"/>
    <path class="cls-2" d="M69.294,45.4c.81,0,1.21.437,1.058,1.374-.436,2.683.528,5.182.932,7.747.245,1.554.853,3.047,1.249,4.581.417,1.613.013,2.271-1.482,2.271q-.191,0-.405-.014c-1.03-.067-2.053-.264-3.076-.421a21.562,21.562,0,0,0-3.261-.306,9.716,9.716,0,0,0-2.9.409,2.925,2.925,0,0,1-.856.117c-.11,0-.219,0-.326-.014a.985.985,0,0,1-1.037-1.067c.017-.573.392-.806.924-.89a19.594,19.594,0,0,1,6.2.02,24.184,24.184,0,0,0,3.912.349q.319,0,.644-.011c-.647-3.532-1.238-6.963-1.922-10.376-.22-1.1-.79-1.664-1.823-1.664a3.7,3.7,0,0,0-.663.066,55.656,55.656,0,0,1-8.066.394c-1.247.046-1.647.413-1.71,1.643-.108,2.118.541,4.092.878,6.127a1.531,1.531,0,0,0,.849,1.084c.634.377.516.9.268,1.455a.953.953,0,0,1-.9.6h-.053c-.63-.03-.954-.463-1.154-1.044A43.416,43.416,0,0,1,55.152,50.1c-.119-.78-.161-1.57-.279-2.357-.205-1.365.277-2.145,1.266-2.145a2.825,2.825,0,0,1,.936.184,13.215,13.215,0,0,0,4.5.744,32,32,0,0,0,6.986-1.033,3.386,3.386,0,0,1,.736-.093m0-1h0a4.392,4.392,0,0,0-.956.117,31.476,31.476,0,0,1-6.766,1.008,12.191,12.191,0,0,1-4.161-.686,3.818,3.818,0,0,0-1.272-.242,2.179,2.179,0,0,0-1.721.744,3.038,3.038,0,0,0-.534,2.55c.056.375.094.75.133,1.125.042.413.085.825.147,1.234.1.635.18,1.273.262,1.911a30.042,30.042,0,0,0,1.2,5.993,2.224,2.224,0,0,0,2.052,1.718l.1,0a2.052,2.052,0,0,0,.423-.043,2.09,2.09,0,0,0-.018.217,1.967,1.967,0,0,0,1.954,2.093c.134.011.271.017.409.017a3.9,3.9,0,0,0,1.151-.162,8.709,8.709,0,0,1,2.606-.365,20.726,20.726,0,0,1,3.109.294c.237.036.474.075.711.114.794.129,1.615.263,2.452.317q.249.016.47.016a2.729,2.729,0,0,0,2.2-.854,3.082,3.082,0,0,0,.247-2.668c-.153-.592-.335-1.176-.512-1.741a19.485,19.485,0,0,1-.717-2.745c-.12-.762-.287-1.516-.448-2.246a13.688,13.688,0,0,1-.484-5.186,2.208,2.208,0,0,0-.407-1.862,2.042,2.042,0,0,0-1.638-.672ZM57.787,49.06a1.589,1.589,0,0,1,.642-.1c.791-.029,1.6-.032,2.392-.036a32.744,32.744,0,0,0,5.817-.374,2.727,2.727,0,0,1,.483-.049c.392,0,.682.062.842.86.485,2.423.915,4.81,1.371,7.337q.166.919.333,1.845a24.265,24.265,0,0,1-3.2-.327,20.594,20.594,0,0,0-6.514-.021q-.1.016-.2.037a1.808,1.808,0,0,0-.838-2.276c-.343-.2-.359-.3-.373-.388-.1-.617-.232-1.227-.357-1.817a15.833,15.833,0,0,1-.509-4.1,1.309,1.309,0,0,1,.106-.6Z"/>
  </g>
  <g>
    <path class="cls-1" d="M84.9,14.172a5.049,5.049,0,0,1-2.67-.792l-.219-.139a1.907,1.907,0,0,0-.982-.431,1.58,1.58,0,0,0-.738.236,2.285,2.285,0,0,1-1.119.283,5.632,5.632,0,0,1-2.314-.709c-.21-.1-.418-.2-.62-.281a2.488,2.488,0,0,0-.779-.234c-.081,0-.232,0-.375.511a1.493,1.493,0,0,1-1.44,1.211h0a1.765,1.765,0,0,1-.414-.051,1.671,1.671,0,0,1-1.154-1.463c-.189-.831-.388-1.659-.587-2.488-.3-1.265-.606-2.528-.875-3.8a8.006,8.006,0,0,1-.11-1.78l0-.468A1.435,1.435,0,0,1,71.819,2.34a1.5,1.5,0,0,1,.26-.024c.839,0,1.064.748,1.186,1.149a2.928,2.928,0,0,1,.127.849c0,.094.006.184.014.271l.1-.083c.5-.436,1-.864,1.521-1.263A1.957,1.957,0,0,1,76.208,2.8a1.584,1.584,0,0,1,1.228.591c.778.91-.045,1.687-.4,2.019l-.074.07c-.312.3-.632.587-.953.875s-.662.594-.981.9c-.481.465-.474.763-.3,1.12a5.387,5.387,0,0,0,3.257,1.692.642.642,0,0,0,.18-.021,1.179,1.179,0,0,0,.238-.131,1.549,1.549,0,0,1,.857-.3,1.3,1.3,0,0,1,.209.018,2.584,2.584,0,0,1,.361.1c.055.019.105.035.153.048-.742-2.427.964-3.915,2.355-5.129l.393-.345a2.7,2.7,0,0,1,1.793-.686,2.483,2.483,0,0,1,1.935.885c.887,1.108.62,2.52-.68,3.6a14.212,14.212,0,0,1-1.831,1.274,4.553,4.553,0,0,1-.447.225c-.542.246-.613.307-.517.688a1.757,1.757,0,0,0,1.56,1.313,1.178,1.178,0,0,0,.194-.017,3.316,3.316,0,0,0,1.843-.907,2.674,2.674,0,0,1,2.08-.928l.269-.04a.615.615,0,0,1,.073,0,.5.5,0,0,1,.489.6A4.729,4.729,0,0,1,84.9,14.172Z"/>
    <path class="cls-2" d="M72.08,2.815c.505,0,.612.491.735.887.163.524-.051,1.124.353,1.744.734-.62,1.424-1.246,2.16-1.812a1.468,1.468,0,0,1,.88-.334,1.1,1.1,0,0,1,.848.416c.5.585-.039,1.023-.437,1.4-.633.606-1.306,1.171-1.937,1.779a1.332,1.332,0,0,0-.4,1.7A5.748,5.748,0,0,0,77.99,10.57a1.118,1.118,0,0,0,.326-.043c.323-.1.564-.414.949-.414a.743.743,0,0,1,.125.011,4.164,4.164,0,0,0,.8.186,1.055,1.055,0,0,0,.488-.125c-1.2-2.671.765-4.06,2.392-5.507a2.188,2.188,0,0,1,1.461-.56,1.975,1.975,0,0,1,1.543.7c.7.877.492,1.987-.608,2.9A13.872,13.872,0,0,1,83.7,8.943c-.591.351-1.456.435-1.193,1.466A2.24,2.24,0,0,0,84.55,12.1a1.664,1.664,0,0,0,.277-.023,3.835,3.835,0,0,0,2.11-1.044c.681-.669.72-.63,2.071-.83A4.2,4.2,0,0,1,84.9,13.671a4.522,4.522,0,0,1-2.4-.715,2.856,2.856,0,0,0-1.467-.646,2.03,2.03,0,0,0-.979.3,1.781,1.781,0,0,1-.878.22,7.906,7.906,0,0,1-2.742-.951,2.732,2.732,0,0,0-.973-.274c-.379,0-.672.22-.856.876a1,1,0,0,1-.96.846,1.279,1.279,0,0,1-.3-.037c-.528-.126-.671-.593-.783-1.087-.477-2.1-1.016-4.179-1.461-6.281A10.661,10.661,0,0,1,71,3.775c0-.581.408-.853.906-.944a.949.949,0,0,1,.17-.016m2.049,8.291.141-.118-.113-.146c-.047.039-.127.075-.132.119s.066.1.1.145M72.08,1.815h0A2.1,2.1,0,0,0,70,3.779c0,.151,0,.3,0,.455a8.443,8.443,0,0,0,.12,1.895c.271,1.282.58,2.571.88,3.818.2.825.4,1.651.584,2.478a2.154,2.154,0,0,0,1.526,1.838,2.285,2.285,0,0,0,.529.064,1.994,1.994,0,0,0,1.923-1.577c.013-.046.025-.084.036-.115a4.589,4.589,0,0,1,.442.166c.2.083.4.178.6.274a6.1,6.1,0,0,0,2.525.755,2.783,2.783,0,0,0,1.361-.345,1.161,1.161,0,0,1,.5-.175,1.715,1.715,0,0,1,.714.352l.222.142a5.543,5.543,0,0,0,2.934.867,5.225,5.225,0,0,0,5.088-4.264,1,1,0,0,0-1.125-1.194l-.272.04a3.148,3.148,0,0,0-2.353,1.065,2.841,2.841,0,0,1-1.576.772.665.665,0,0,1-.11.009,1.248,1.248,0,0,1-1.075-.934c.072-.038.167-.081.239-.113a5.127,5.127,0,0,0,.5-.249A14.908,14.908,0,0,0,86.1,8.483c1.506-1.247,1.808-2.973.751-4.293A2.983,2.983,0,0,0,84.53,3.118,3.2,3.2,0,0,0,82.4,3.93c-.128.114-.258.227-.388.34-1.284,1.119-2.961,2.582-2.683,4.845h-.068a2.035,2.035,0,0,0-1.126.383A1.077,1.077,0,0,1,78,9.578a5.336,5.336,0,0,1-2.826-1.426c-.08-.163-.114-.232.2-.534s.645-.6.973-.895.647-.581.961-.881l.072-.069c1.008-.953,1.154-1.863.433-2.707A2.1,2.1,0,0,0,76.208,2.3a2.45,2.45,0,0,0-1.489.541c-.308.237-.609.484-.9.733-.013-.056-.028-.112-.045-.169l-.026-.085a1.779,1.779,0,0,0-1.664-1.5Z"/>
  </g>
  <g>
    <path class="cls-1" d="M99.087,35.174a1.623,1.623,0,0,1-1.533-1.3c-.226-.8-.424-1.606-.623-2.423l-.131-.529a3.36,3.36,0,0,0-.891.566,5.786,5.786,0,0,1-.634.456,8.437,8.437,0,0,1-4.295,1.352,6.431,6.431,0,0,1-3.207-.887,4.164,4.164,0,0,1-2-2.509,4.024,4.024,0,0,1,.423-3.075A5.93,5.93,0,0,1,91,23.7c2.443-.2,4.931-.324,7.336-.44q1.45-.07,2.9-.146l.188-.013c.146-.011.292-.021.436-.021a2.289,2.289,0,0,1,.449.041,1.5,1.5,0,0,1,1.311,1.405,1.417,1.417,0,0,1-1.238,1.525,4.816,4.816,0,0,1-.808.061c-.273,0-.55-.016-.822-.032l-.142-.009c-.279-.017-.517-.028-.719-.028-.665,0-.705,0-.838,1.24A7.824,7.824,0,0,0,99.88,31.6a5.171,5.171,0,0,0,.331.558c.093.144.187.288.271.437a1.755,1.755,0,0,1,.206,1.508,1.8,1.8,0,0,1-1.6,1.069ZM89.3,29.889a4.8,4.8,0,0,0,2.154.5,4.159,4.159,0,0,0,3.844-2.27c.63-1.371.132-1.676-.031-1.775a.779.779,0,0,0-.4-.133c-.442,0-.78.63-.905.9a5,5,0,0,1-3.1,2.353l-.187.073a4.274,4.274,0,0,1-.767.2A4.3,4.3,0,0,0,89.3,29.889Z"/>
    <path class="cls-2" d="M101.863,23.576a1.734,1.734,0,0,1,.35.031,1.012,1.012,0,0,1,.911.947.915.915,0,0,1-.824,1,4.3,4.3,0,0,1-.726.055c-.31,0-.623-.022-.931-.04-.291-.017-.538-.029-.748-.029-1.02,0-1.185.286-1.334,1.687a8.367,8.367,0,0,0,.87,4.6c.174.356.42.676.617,1.021a1.1,1.1,0,0,1-.563,1.753,1.062,1.062,0,0,1-1.45-.864c-.317-1.122-.578-2.26-.868-3.415-1,.114-1.488.8-2.146,1.19a8,8,0,0,1-4.041,1.282,5.882,5.882,0,0,1-2.958-.821,3.51,3.51,0,0,1-1.388-4.9,5.464,5.464,0,0,1,4.413-2.875c3.4-.284,6.813-.4,10.221-.585.2-.011.4-.033.6-.033m-10.4,7.318a4.643,4.643,0,0,0,4.3-2.561c.354-.771.663-1.867-.225-2.41a1.26,1.26,0,0,0-.658-.206c-.575,0-1.04.5-1.359,1.191-.584,1.266-1.829,1.7-3.021,2.17-.649.256-1.425.141-2.144.817a5.311,5.311,0,0,0,3.108,1m-2.131-3.4c.76,0,1.3-.178,1.513-1.033a1.072,1.072,0,0,0-.508-.14,1.264,1.264,0,0,0-.506.127,1.934,1.934,0,0,0-1,1.028c.176.011.343.019.5.019m12.535-4.915c-.154,0-.311.011-.467.022l-.182.012c-.969.052-1.937.1-2.906.146-2.406.117-4.895.237-7.344.441a6.492,6.492,0,0,0-5.2,3.375,4.523,4.523,0,0,0-.472,3.456,4.657,4.657,0,0,0,2.232,2.811,6.915,6.915,0,0,0,3.453.952,8.913,8.913,0,0,0,4.55-1.421,6.108,6.108,0,0,0,.689-.493c.092-.072.175-.138.254-.2.187.765.382,1.554.6,2.326a2.055,2.055,0,0,0,2.762,1.529,2.152,2.152,0,0,0,1.323-1.26,2.292,2.292,0,0,0-.243-1.925c-.09-.157-.188-.31-.286-.462a5.2,5.2,0,0,1-.3-.5,7.341,7.341,0,0,1-.774-4.052,5.876,5.876,0,0,1,.119-.785c.051,0,.122-.008.221-.008.194,0,.422.012.69.027l.135.008c.284.017.57.034.855.034a5.274,5.274,0,0,0,.895-.069,1.918,1.918,0,0,0,1.654-2.05,1.991,1.991,0,0,0-1.708-1.862,2.711,2.711,0,0,0-.551-.052Zm-6.985,4.14h0Zm-3.705,3.169a5.316,5.316,0,0,0,3.251-2.559c.214-.464.412-.6.454-.61a.407.407,0,0,1,.133.06c.269.164-.088.978-.162,1.14a3.66,3.66,0,0,1-3.39,1.978q-.144,0-.286-.009Z"/>
  </g>
  <g>
    <path class="cls-1" d="M115.69,35.367a1.35,1.35,0,0,1-1.327-1.344c-.1-1.328-.088-2.648-.062-3.878a.826.826,0,0,0-.127-.568.856.856,0,0,0-.583-.134c-.105,0-.216,0-.329.013-.316.021-.387.093-.388.094a1.6,1.6,0,0,0,.063.554c.023.108.046.218.063.325a6.289,6.289,0,0,0,.612,1.654c.1.218.208.435.3.656a1.448,1.448,0,0,1,.053,1.175,1.527,1.527,0,0,1-.939.811,2.615,2.615,0,0,1-.888.176,1.188,1.188,0,0,1-1.272-1.212c-.013-.266-.066-.881-.306-.881a2.861,2.861,0,0,0-.979.387,7.369,7.369,0,0,1-3.633.875c-.353,0-.708-.019-1.064-.053a4.053,4.053,0,0,1-3.03-1.528,4.118,4.118,0,0,1-.486-3.409,12.151,12.151,0,0,1,1.893-3.857c.157-.24.314-.481.468-.726a2.179,2.179,0,0,1,1.52-.937,2.138,2.138,0,0,1,.412-.042,1.739,1.739,0,0,1,1.668,1.231,1.453,1.453,0,0,1-1.076,1.963c-1.384.316-1.821,1.428-2.328,2.715a1.756,1.756,0,0,0,.018,1.666,1.661,1.661,0,0,0,1.438.617,11.61,11.61,0,0,0,3.954-.984c.319-.12.638-.24.958-.354.049-.016.062-.059.041-.2s-.081-.284-.134-.294c-.276-.05-.559-.073-.841-.1a7.149,7.149,0,0,1-1.316-.2,1.969,1.969,0,0,1-1.279-.786,1.154,1.154,0,0,1-.067-.92c.322-1.046.817-1.576,1.472-1.576a1.238,1.238,0,0,1,.436.083,2.345,2.345,0,0,0,.4.122c-.011-.114-.037-.268-.058-.383l-.031-.185a1.331,1.331,0,0,0-.1-.275,2.914,2.914,0,0,1-.131-.326,1.2,1.2,0,0,1,.461-1.409,1.273,1.273,0,0,1,.722-.226,1.71,1.71,0,0,1,.936.317,2.2,2.2,0,0,1,.958,1.464c.343,1.45.367,1.456.975,1.456h.007c.266,0,.607-.028,1.052-.071a6.434,6.434,0,0,0-.4-2.678l-.038-.126a1.588,1.588,0,0,1,.105-1.3,1.36,1.36,0,0,1,.95-.623,1.764,1.764,0,0,1,.326-.032,1.416,1.416,0,0,1,1.395,1.393,10.731,10.731,0,0,1,.118,1.494c-.006.475.085.67.665.966s1.327.763,1.378,1.524c.052.777-.678,1.377-1.23,1.761-.511.354-.5.587-.435.835a4.91,4.91,0,0,1,.115,1.275,2.353,2.353,0,0,0,.443,1.719,1.144,1.144,0,0,1,.285,1.062,1.953,1.953,0,0,1-1.263,1.143,1.574,1.574,0,0,1-.52.093Z"/>
    <path class="cls-2" d="M114.739,22.6c.515,0,.827.382.9.955a10.36,10.36,0,0,1,.115,1.425,1.367,1.367,0,0,0,.937,1.418c1.459.745,1.465,1.476.091,2.429a1.188,1.188,0,0,0-.633,1.373c.273,1.047-.214,2.193.666,3.2.541.617-.136,1.183-.766,1.4a1.078,1.078,0,0,1-.355.064.861.861,0,0,1-.828-.882c-.095-1.271-.088-2.553-.061-3.829.022-1.008-.5-1.213-1.21-1.213-.116,0-.238.006-.363.014-1.2.081-.836.853-.721,1.552a10.514,10.514,0,0,0,.951,2.428.893.893,0,0,1-.6,1.318,2.118,2.118,0,0,1-.713.145.7.7,0,0,1-.774-.736c-.047-1.022-.361-1.357-.8-1.357a2.9,2.9,0,0,0-1.219.449,6.9,6.9,0,0,1-3.391.814c-.337,0-.677-.018-1.018-.051-2.5-.242-3.64-1.894-3.077-4.327a14.76,14.76,0,0,1,2.3-4.428,1.672,1.672,0,0,1,1.193-.713,1.638,1.638,0,0,1,.317-.032,1.239,1.239,0,0,1,1.2.9.953.953,0,0,1-.716,1.307c-1.672.382-2.187,1.762-2.711,3.09a1.959,1.959,0,0,0,1.95,2.9h.048a15.9,15.9,0,0,0,5.03-1.367c.386-.137.415-.423.369-.746a.756.756,0,0,0-.539-.716c-.7-.126-1.435-.1-2.114-.283-.487-.135-1.226-.349-1-1.076.15-.486.443-1.224.993-1.224a.731.731,0,0,1,.26.051,2.092,2.092,0,0,0,.694.167c.549,0,.384-.582.29-1.161a5.211,5.211,0,0,0-.249-.671.706.706,0,0,1,.262-.845.778.778,0,0,1,.443-.141,1.249,1.249,0,0,1,.664.237,1.733,1.733,0,0,1,.744,1.159c.344,1.462.446,1.841,1.467,1.841.362,0,.839-.048,1.482-.111a6.535,6.535,0,0,0-.39-3.406c-.187-.629.009-1.164.672-1.293a1.2,1.2,0,0,1,.229-.023m0-1a2.209,2.209,0,0,0-.421.042,1.884,1.884,0,0,0-1.283.854,2.1,2.1,0,0,0-.157,1.706l.037.123a7.156,7.156,0,0,1,.41,2.078c-.231.019-.426.031-.581.031a1.767,1.767,0,0,1-.2-.01,8.488,8.488,0,0,1-.291-1.061,2.735,2.735,0,0,0-1.172-1.768,2.191,2.191,0,0,0-1.208-.4,1.766,1.766,0,0,0-1,.311,1.707,1.707,0,0,0-.658,1.973,3.127,3.127,0,0,0,.125.324,1.644,1.644,0,0,0-.479.021,2.031,2.031,0,0,0-.054-1.249,2.222,2.222,0,0,0-2.137-1.562,2.647,2.647,0,0,0-.509.051,2.7,2.7,0,0,0-1.847,1.162c-.152.241-.307.48-.463.719a12.51,12.51,0,0,0-1.961,4.017,4.6,4.6,0,0,0,.567,3.814,4.533,4.533,0,0,0,3.388,1.733c.384.037.759.056,1.115.056a7.853,7.853,0,0,0,3.872-.937,5.624,5.624,0,0,1,.513-.255,2.956,2.956,0,0,1,.032.333,1.692,1.692,0,0,0,1.773,1.689,3.067,3.067,0,0,0,1.061-.207,2.333,2.333,0,0,0,.808-.487,1.791,1.791,0,0,0,1.677,1.161,2.078,2.078,0,0,0,.685-.12,2.344,2.344,0,0,0,1.582-1.488,1.627,1.627,0,0,0-.393-1.518c-.3-.347-.318-.715-.319-1.39a5.431,5.431,0,0,0-.131-1.4.292.292,0,0,1-.013-.08h0a.948.948,0,0,1,.248-.219,2.686,2.686,0,0,0,1.444-2.205c-.076-1.133-1.261-1.737-1.65-1.936s-.4-.225-.391-.514a11.107,11.107,0,0,0-.121-1.556,1.91,1.91,0,0,0-1.892-1.837Zm-9.322,9.607a1.222,1.222,0,0,1-1.059-.4,1.244,1.244,0,0,1,.007-1.131l.028-.07c.525-1.335.9-2.166,1.975-2.412l.053-.013a5,5,0,0,0-.2.542,1.642,1.642,0,0,0,.107,1.308,2.413,2.413,0,0,0,1.584,1.027,6.8,6.8,0,0,0,1.242.2,11.228,11.228,0,0,1-3.735.95Zm8-1.262c.06,0,.119,0,.176,0a1.588,1.588,0,0,1,.2.011,1.261,1.261,0,0,1,.007.18c-.008.368-.015.744-.017,1.127a3.974,3.974,0,0,1-.29-.915c-.019-.115-.043-.231-.068-.346l-.011-.052Z"/>
  </g>
  <g>
    <path class="cls-1" d="M17.7,7.282a.437.437,0,0,1-.372-.2l-.008-.012a.5.5,0,1,1,.832-.555.534.534,0,0,1-.177.688A.549.549,0,0,1,17.7,7.282Z"/>
    <path class="cls-2" d="M17.733,6.792l.008.012-.008-.012"/>
  </g>
  <g>
    <path class="cls-1" d="M26.086,13.839a1.712,1.712,0,0,1-.412-.05,1.574,1.574,0,0,1-1.049-2.122c.089-.43.2-.855.3-1.281.125-.5.251-.994.345-1.5a3.392,3.392,0,0,0-.254-2.25,1.365,1.365,0,0,0-1.164-.862,1.39,1.39,0,0,0-1.042.576c-.883,1.075-.92,2.372-.877,3.954,0,.146.02.3.035.454.073.745.211,2.133-1.49,2.309a2.52,2.52,0,0,1-.263.015c-1.39,0-1.608-1.216-1.739-1.941-.027-.152-.055-.3-.089-.44-.092-.362-.163-.729-.233-1.1a6.731,6.731,0,0,0-.828-2.512.5.5,0,0,1-.029-.5c.032-.127.062-.254.091-.381a6.441,6.441,0,0,1,.352-1.177,1.5,1.5,0,0,1,1.286-1.053,1.369,1.369,0,0,1,1,.5,1.147,1.147,0,0,0,.26.23c-.011-.021.068-.091.237-.3A4.343,4.343,0,0,1,23.9,2.582a3.779,3.779,0,0,1,1.165.188c1.811.583,2.809,2.106,2.887,4.406.024.724-.019,1.445-.062,2.143a16.861,16.861,0,0,0-.023,2.615,1.694,1.694,0,0,1-.44,1.312A1.81,1.81,0,0,1,26.086,13.839Z"/>
    <path class="cls-2" d="M23.9,3.081a3.289,3.289,0,0,1,1.012.163c1.783.574,2.477,2.1,2.54,3.948.054,1.6-.234,3.18-.083,4.788a1.269,1.269,0,0,1-1.278,1.358,1.212,1.212,0,0,1-.292-.035c-.853-.212-.814-.885-.679-1.535.194-.934.477-1.851.651-2.789a3.917,3.917,0,0,0-.3-2.565,1.716,1.716,0,0,0-3.039-.379c-1.032,1.259-1.031,2.766-.99,4.285.024.9.453,2.1-1.007,2.252a2.052,2.052,0,0,1-.211.011c-1.188,0-1.137-1.19-1.344-2a11.552,11.552,0,0,0-1.127-3.76l.009.007h0A11.109,11.109,0,0,1,18.2,5.241c.19-.432.481-.753.829-.753a.892.892,0,0,1,.635.345c.251.271.439.394.611.394.21,0,.4-.182.646-.5A3.854,3.854,0,0,1,23.9,3.081m0-1h0a4.783,4.783,0,0,0-3.665,1.907,1.775,1.775,0,0,0-1.2-.5,1.968,1.968,0,0,0-1.745,1.351A7.031,7.031,0,0,0,16.9,6.107c-.025.109-.05.218-.077.326a1,1,0,0,0,.086.937A6.366,6.366,0,0,1,17.666,9.7c.07.366.143.744.239,1.124.032.128.056.266.082.407.127.7.425,2.353,2.231,2.353a3.048,3.048,0,0,0,.315-.017c2.2-.228,2.007-2.137,1.936-2.856-.014-.143-.029-.284-.033-.418-.041-1.527-.01-2.68.764-3.624a.737.737,0,0,1,1.373.2A2.919,2.919,0,0,1,24.782,8.8c-.09.484-.211.964-.339,1.471-.109.431-.217.862-.307,1.3-.4,1.95.714,2.534,1.417,2.709a2.214,2.214,0,0,0,.533.065,2.314,2.314,0,0,0,1.706-.757,2.186,2.186,0,0,0,.568-1.695,16.558,16.558,0,0,1,.026-2.539c.043-.709.087-1.442.061-2.19-.109-3.2-1.818-4.41-3.233-4.866A4.3,4.3,0,0,0,23.9,2.081Zm-6.14,5.746h0Z"/>
  </g>
  <g>
    <polygon class="cls-1" points="17.756 6.828 17.756 6.828 17.756 6.828 17.756 6.828"/>
    <polyline class="cls-2" points="17.756 6.828 17.756 6.828 17.756 6.828"/>
  </g>
  <g>
    <path class="cls-1" d="M17.716,7.312a.439.439,0,0,1-.294-.112.5.5,0,0,1-.091-.1.535.535,0,0,1-.03-.051.508.508,0,0,1-.027-.517.5.5,0,0,1,.413-.264h.028a.5.5,0,0,1,.412.217l.006.009a.517.517,0,0,1-.417.821Z"/>
    <path class="cls-2" d="M17.715,6.765l.018.027.008.012.015.023-.009-.007c-.012-.018-.021-.037-.033-.055h0m0-1a1,1,0,0,0-.849,1.528c.015.026.037.062.048.079a1,1,0,0,0,.193.216c.021.018.044.036.065.051a1,1,0,0,0,1.585-.811,1.092,1.092,0,0,0-1.041-1.063Z"/>
  </g>
  <g>
    <path class="cls-1" d="M34.353,14.106a4.193,4.193,0,0,1-3.764-2.391,4.108,4.108,0,0,0-1.474-1.478A1.724,1.724,0,0,1,28.2,8.706a1.538,1.538,0,0,1,1.044-1.26,1.227,1.227,0,0,0,.752-.857,5.244,5.244,0,0,1,3.487-2.977,3.794,3.794,0,0,1,1.307-.256,2.67,2.67,0,0,1,2.547,2.019,2.714,2.714,0,0,1-1.687,3.869,18.418,18.418,0,0,1-2.563.84c-.321.082-.379.176-.38.177s-.019.124.212.436a2.536,2.536,0,0,0,2.059.929,2.605,2.605,0,0,0,2-.845,1.016,1.016,0,0,0,.063-.121,1.89,1.89,0,0,1,.139-.256l.129-.2c.287-.449.682-1.065,1.353-1.065a1.325,1.325,0,0,1,.841.342c1.011.83.212,2.021-.172,2.593-.969,1.446-2.194,2.01-4.368,2.01h-.177A3.642,3.642,0,0,1,34.353,14.106Zm-.02-7.7a.5.5,0,0,0-.192.044,2.792,2.792,0,0,0-1.216.828,2.853,2.853,0,0,0,1.256-.45c.332-.215.294-.312.279-.35S34.432,6.4,34.333,6.4Z"/>
    <path class="cls-2" d="M34.788,3.856a2.175,2.175,0,0,1,2.076,1.686c.566,1.593.163,2.581-1.411,3.241a18.011,18.011,0,0,1-2.494.816c-.955.245-.887.8-.445,1.394a3.039,3.039,0,0,0,2.46,1.131,3.093,3.093,0,0,0,2.38-1.024c.1-.12.143-.286.232-.417.292-.432.6-1.044,1.068-1.044a.836.836,0,0,1,.523.227c.646.532.134,1.327-.269,1.929-.87,1.3-1.913,1.789-3.954,1.789h-.17a4.264,4.264,0,0,1-.431.022,3.676,3.676,0,0,1-3.323-2.128,4.616,4.616,0,0,0-1.637-1.657c-.941-.626-.94-1.474.053-1.92a1.713,1.713,0,0,0,1.018-1.141,4.753,4.753,0,0,1,3.191-2.68,3.291,3.291,0,0,1,1.134-.225M32.533,7.8a3.4,3.4,0,0,0,1.917-.552c.339-.218.641-.527.475-.951a.6.6,0,0,0-.593-.39.984.984,0,0,0-.4.088A2.559,2.559,0,0,0,32.17,7.782q.186.014.363.014m2.254-4.94h0a4.293,4.293,0,0,0-1.48.287,5.689,5.689,0,0,0-3.784,3.274c-.133.364-.2.445-.488.573A2.071,2.071,0,0,0,27.7,8.664a2.225,2.225,0,0,0,1.139,1.99,3.667,3.667,0,0,1,1.311,1.3,4.671,4.671,0,0,0,4.2,2.653q.235,0,.476-.022h.125c2.366,0,3.708-.626,4.784-2.232.392-.585,1.434-2.139.074-3.258a1.809,1.809,0,0,0-1.158-.455,2.233,2.233,0,0,0-1.774,1.3c-.042.065-.082.128-.122.188a2.37,2.37,0,0,0-.176.322l-.022.045a2.3,2.3,0,0,1-3.146.023,18.484,18.484,0,0,0,2.426-.809c2.058-.864,2.72-2.377,1.966-4.5a3.176,3.176,0,0,0-3.018-2.351Z"/>
  </g>
  <g>
    <path class="cls-1" d="M73.322,34.154A13.049,13.049,0,0,1,69,33.174c-.3-.1-.592-.208-.888-.307a1.347,1.347,0,0,1-.88-.84A1.766,1.766,0,0,1,67.5,30.5a1.984,1.984,0,0,1,1.633-1.057,1.785,1.785,0,0,1,.827.217,2.507,2.507,0,0,1,.671.566,2.872,2.872,0,0,0,.29.287,1.805,1.805,0,0,0,1.184.5,1.73,1.73,0,0,0,.187-.01,8.918,8.918,0,0,0-1.69-1.6L70.083,29a14.512,14.512,0,0,1-1.957-1.719,2.467,2.467,0,0,1-.8-2.319c.14-.514.593-1.219,1.955-1.655.433-.139.873-.253,1.313-.366.334-.087.669-.173,1-.271a2.61,2.61,0,0,1,.743-.107,4.106,4.106,0,0,1,1.438.314,1.64,1.64,0,0,1,1.09,2.114,1.546,1.546,0,0,1-1.7,1.121l-.121,0a3.524,3.524,0,0,1-.846-.16,2.485,2.485,0,0,0-.633-.125.711.711,0,0,0-.358.093c-.1.058-.205.109-.319.164a4.568,4.568,0,0,0,1.4,1.368,8.41,8.41,0,0,1,1.068.884c.142.146.285.288.43.43A8.376,8.376,0,0,1,75.3,30.573a2.513,2.513,0,0,1,.146,2.521,2.333,2.333,0,0,1-2.1,1.061Z"/>
    <path class="cls-2" d="M72.34,23.06a3.606,3.606,0,0,1,1.263.282,1.143,1.143,0,0,1,.785,1.513c-.169.61-.646.754-1.214.754l-.109,0c-.5-.015-.99-.285-1.494-.285a1.2,1.2,0,0,0-.6.156c-.206.115-.423.209-.723.355C70.7,27.252,72.1,27.75,73,28.68a11.044,11.044,0,0,1,1.866,2.137c.837,1.488.143,2.83-1.518,2.836h-.026a16.211,16.211,0,0,1-5.048-1.262c-.726-.242-.759-1.014-.359-1.617a1.556,1.556,0,0,1,1.218-.833,1.287,1.287,0,0,1,.6.16c.339.176.569.55.877.8a2.314,2.314,0,0,0,1.5.611,2.832,2.832,0,0,0,.995-.2,8.205,8.205,0,0,0-2.246-2.344,18.277,18.277,0,0,1-2.357-2.02c-1.25-1.4-.866-2.586.938-3.164.758-.243,1.54-.408,2.3-.635a2.085,2.085,0,0,1,.6-.087m0-1h0a3.1,3.1,0,0,0-.885.128c-.327.1-.658.183-.988.268-.436.113-.886.229-1.335.373a3.048,3.048,0,0,0-2.285,2,2.934,2.934,0,0,0,.906,2.783,11.791,11.791,0,0,0,1.45,1.331h-.069a2.445,2.445,0,0,0-2.051,1.279,2.272,2.272,0,0,0-.319,1.967,1.837,1.837,0,0,0,1.195,1.151c.292.1.584.2.877.3a13.43,13.43,0,0,0,4.487,1.01,2.836,2.836,0,0,0,2.558-1.309,3,3,0,0,0-.143-3.018,8.777,8.777,0,0,0-1.6-1.92c-.142-.14-.284-.281-.423-.424a8.816,8.816,0,0,0-1.13-.938,7.68,7.68,0,0,1-.869-.705c.1.02.223.053.349.088a3.909,3.909,0,0,0,.966.179l.138,0a2.025,2.025,0,0,0,2.177-1.487,2.127,2.127,0,0,0-1.4-2.716,4.569,4.569,0,0,0-1.615-.346Z"/>
  </g>
  <g>
    <path class="cls-1" d="M70.054,14.108a1.9,1.9,0,0,1-1.281-.571,3.167,3.167,0,0,1-.66-1.009,3.213,3.213,0,0,0-.413-.705,2.712,2.712,0,0,1-1.831.9,2.4,2.4,0,0,1-1.248-.388A3.727,3.727,0,0,1,62.765,8.7a7.619,7.619,0,0,1,1.979-4.559,2.155,2.155,0,0,1,1.758-.8,5.623,5.623,0,0,1,2.567.8c1.6.856,1.632,1.889,1.155,3.277-.6,1.733-.361,3.122.7,4.126a1.751,1.751,0,0,1,.664,1.21,1.229,1.229,0,0,1-.44.9,1.594,1.594,0,0,1-1.089.456Zm-3.118-7.6a.515.515,0,0,0-.213.145,2.6,2.6,0,0,0-1.017,1.911,2.707,2.707,0,0,1,.006.324,1.2,1.2,0,0,0,.026.367l.146.033c.174,0,.316-.326.369-.467.125-.33.229-.668.332-1.006s.213-.692.339-1.03c.055-.146.057-.237.006-.274Z"/>
    <path class="cls-2" d="M66.5,3.841a5.244,5.244,0,0,1,2.332.739c1.225.654,1.379,1.332.918,2.674a4.191,4.191,0,0,0,.824,4.65c.486.462.738.907.228,1.382a1.089,1.089,0,0,1-.749.322,1.406,1.406,0,0,1-.94-.436c-.585-.548-.6-1.473-1.429-2.027a2.824,2.824,0,0,1-1.817,1.075,1.892,1.892,0,0,1-.988-.315,3.227,3.227,0,0,1-1.616-3.187,7.051,7.051,0,0,1,1.868-4.259,1.672,1.672,0,0,1,1.37-.619m-.617,5.947c.435,0,.687-.392.837-.79.253-.668.421-1.369.672-2.038a.678.678,0,0,0-.17-.854.484.484,0,0,0-.288-.1.861.861,0,0,0-.56.284,3.12,3.12,0,0,0-1.17,2.272c.043.448-.143,1.038.469,1.2a.838.838,0,0,0,.209.028M66.5,2.841a2.668,2.668,0,0,0-2.146.988,8.092,8.092,0,0,0-2.092,4.859,4.188,4.188,0,0,0,2.1,4.071,2.892,2.892,0,0,0,1.509.461,2.771,2.771,0,0,0,1.713-.639c.025.051.052.105.079.163A3.61,3.61,0,0,0,68.43,13.9a2.381,2.381,0,0,0,1.624.706,2.083,2.083,0,0,0,1.43-.59,1.713,1.713,0,0,0,.6-1.264,2.226,2.226,0,0,0-.82-1.575,3.184,3.184,0,0,1-.566-3.6c.45-1.311.636-2.8-1.393-3.881a6.093,6.093,0,0,0-2.8-.857Z"/>
  </g>
  <g>
    <path class="cls-1" d="M31.905,33.4a5.045,5.045,0,0,1-1.54-.247c-1.54-.493-3.032-1.222-3.517-3.2a5.135,5.135,0,0,1,2.617-5.712,14.334,14.334,0,0,1,2.156-.837c.264-.087.527-.173.788-.265a1.779,1.779,0,0,1,.583-.1,1.061,1.061,0,0,1,1.1.745,8.066,8.066,0,0,0,.837,1.792,6.513,6.513,0,0,1,1.158,3.879,4.069,4.069,0,0,1-4.18,3.95Zm-1.482-6.164c-.046,0-.173.05-.5.387a1.623,1.623,0,0,0-.443,1.845,2.274,2.274,0,0,0,2.014,1.375H31.5a2.035,2.035,0,0,0,1.325-.523,1.544,1.544,0,0,0,.588-1.084,2.174,2.174,0,0,0-.47-1.437.366.366,0,0,0-.086-.078c.007.016-.1.093-.168.144a1.349,1.349,0,0,1-.8.332,1.5,1.5,0,0,1-1.225-.705C30.53,27.283,30.439,27.238,30.423,27.238Z"/>
    <path class="cls-2" d="M32.993,23.536a.576.576,0,0,1,.616.377c.494,1.807,2.16,3.164,1.979,5.5A3.571,3.571,0,0,1,31.905,32.9a4.549,4.549,0,0,1-1.388-.223c-1.5-.481-2.763-1.127-3.183-2.848A4.636,4.636,0,0,1,29.7,24.683a22.281,22.281,0,0,1,2.881-1.075,1.275,1.275,0,0,1,.417-.073m-1.432,7.811a2.441,2.441,0,0,0,2.35-2.11,2.637,2.637,0,0,0-.6-1.769.581.581,0,0,0-.427-.24c-.354,0-.64.469-1,.469h-.027a.974.974,0,0,1-.778-.477c-.227-.349-.447-.482-.661-.482a1.407,1.407,0,0,0-.86.537,2.076,2.076,0,0,0-.541,2.4,2.772,2.772,0,0,0,2.434,1.664c.035,0,.07,0,.1,0m1.432-8.811a2.281,2.281,0,0,0-.75.13c-.256.09-.516.175-.776.26a14.712,14.712,0,0,0-2.232.869,5.638,5.638,0,0,0-2.872,6.273c.544,2.228,2.251,3.051,3.849,3.563a5.551,5.551,0,0,0,1.693.271,4.567,4.567,0,0,0,4.682-4.458,6.9,6.9,0,0,0-1.225-4.118,7.679,7.679,0,0,1-.789-1.677,1.561,1.561,0,0,0-1.58-1.114Zm-1.432,7.811h-.045a1.774,1.774,0,0,1-1.587-1.087,1.1,1.1,0,0,1,.347-1.283l.07-.07a1.963,1.963,0,0,0,1.449.788l.1,0a1.607,1.607,0,0,0,.864-.271,1.99,1.99,0,0,1,.156.812.988.988,0,0,1-.332.626,1.586,1.586,0,0,1-1.018.483Z"/>
  </g>
  <g>
    <path class="cls-1" d="M96.719,13.116a2.659,2.659,0,0,1-1.4-.416c-1.249-.762-1.682-2.168-1.286-4.181A6.068,6.068,0,0,1,97.384,3.9,3.887,3.887,0,0,1,99.059,3.5a3.147,3.147,0,0,1,2.31.967,3.4,3.4,0,0,1,.88,2.557,8.3,8.3,0,0,1-.078.9c-.119.972-.159,1.6.517,2.186a.975.975,0,0,1,.345.95,1.419,1.419,0,0,1-.979.972,2.982,2.982,0,0,1-.89.153h0a1.708,1.708,0,0,1-1.393-.667,1.45,1.45,0,0,0-.144-.161,1.3,1.3,0,0,0-.163.166A3.718,3.718,0,0,1,96.719,13.116Zm1.666-6.261a.943.943,0,0,0-.337.164,3.761,3.761,0,0,0-1.3,2.406l-.1.363a.186.186,0,0,0,.185.1.342.342,0,0,0,.189-.06,3.629,3.629,0,0,0,1.647-2.778.987.987,0,0,0-.257-.192Z"/>
    <path class="cls-2" d="M99.059,4a2.686,2.686,0,0,1,2.69,3c-.015,1.2-.589,2.449.609,3.493.456.4.024.919-.454,1.067a2.534,2.534,0,0,1-.741.131,1.217,1.217,0,0,1-1-.48c-.191-.238-.351-.377-.527-.377-.16,0-.332.113-.551.369a3.359,3.359,0,0,1-2.365,1.412,2.155,2.155,0,0,1-1.134-.343c-1.308-.8-1.316-2.334-1.057-3.657A5.585,5.585,0,0,1,97.6,4.351,3.4,3.4,0,0,1,99.059,4m-2.224,6.388a.84.84,0,0,0,.466-.143,4.231,4.231,0,0,0,1.9-3.389v0c0,.005,0,.008-.007.008a2.52,2.52,0,0,0-.56-.454.566.566,0,0,0-.252-.059,1.163,1.163,0,0,0-.616.25c-1.081.728-1.292,1.934-1.6,3.051a.614.614,0,0,0,.666.738M99.059,3a4.38,4.38,0,0,0-1.89.443,6.54,6.54,0,0,0-3.624,4.976c-.546,2.789.524,4.1,1.518,4.7a3.152,3.152,0,0,0,1.655.489A4.036,4.036,0,0,0,99.624,12.1a2.2,2.2,0,0,0,1.539.592,3.487,3.487,0,0,0,1.037-.176,1.894,1.894,0,0,0,1.319-1.346,1.462,1.462,0,0,0-.5-1.43c-.468-.408-.468-.782-.349-1.749a8.766,8.766,0,0,0,.083-.977,3.866,3.866,0,0,0-1.019-2.887A3.639,3.639,0,0,0,99.059,3ZM97.437,8.821A2.9,2.9,0,0,1,98.021,7.7a3.066,3.066,0,0,1-.584,1.123Z"/>
  </g>
  <g>
    <path class="cls-1" d="M79.763,35.1a1.35,1.35,0,0,1-1.344-1.159,14.961,14.961,0,0,0-1.376-4.9,24.793,24.793,0,0,1-1.125-3.173,1.669,1.669,0,0,1-.06-.333l-.019-.276c-.048-.647-.148-2,1.349-2.107.05,0,.1,0,.145,0a1.339,1.339,0,0,1,1.028.423,2.111,2.111,0,0,1,.408,1.642,3.21,3.21,0,0,0,.479,1.99,8.939,8.939,0,0,0,1.565-2.515,1.424,1.424,0,0,1,1.278-.959,1.544,1.544,0,0,1,.782.234,1.74,1.74,0,0,1,.922,1.083,1.492,1.492,0,0,1-.3,1.185c-.239.347-.483.689-.727,1.032-.4.56-.795,1.119-1.173,1.69-.222.336-.312.621-.246.783s.3.281.648.359a3.712,3.712,0,0,0,.807.089,4.411,4.411,0,0,0,1.5-.28,2.307,2.307,0,0,1,.779-.153,1.217,1.217,0,0,1,1.24.971c.274,1.037-.6,1.438-1.062,1.653l-.163.076a4.033,4.033,0,0,1-1.809.408,7.655,7.655,0,0,1-2.182-.387,1.061,1.061,0,0,0,.036.43,1.75,1.75,0,0,1,0,.95l-.043.125c-.142.423-.378,1.129-1.24,1.129Z"/>
    <path class="cls-2" d="M77.334,23.643c.818,0,1,.748.937,1.521a3.932,3.932,0,0,0,.9,2.812,8.68,8.68,0,0,0,2.1-3.086.959.959,0,0,1,.823-.666,1.047,1.047,0,0,1,.528.165c.635.374.955.848.467,1.553-.631.913-1.292,1.806-1.9,2.731-.643.971-.4,1.659.71,1.906a4.193,4.193,0,0,0,.917.1,4.886,4.886,0,0,0,1.671-.31,1.831,1.831,0,0,1,.609-.123.724.724,0,0,1,.757.6c.188.71-.466.911-.961,1.152a3.564,3.564,0,0,1-1.59.358A8.06,8.06,0,0,1,80.96,31.9c-.729.522-.084,1.21-.285,1.783-.156.445-.254.92-.812.92l-.068,0c-.417-.027-.858-.285-.877-.685C78.773,30.97,77.111,28.5,76.4,25.74a1.19,1.19,0,0,1-.045-.235c-.037-.781-.267-1.774.868-1.859q.056,0,.109,0m0-1c-.059,0-.12,0-.183.007a1.812,1.812,0,0,0-1.707,1.209,3.491,3.491,0,0,0-.1,1.434c.007.089.013.176.017.261a2.053,2.053,0,0,0,.072.425,25.369,25.369,0,0,0,1.148,3.247,14.585,14.585,0,0,1,1.34,4.74A1.838,1.838,0,0,0,79.73,35.6c.046,0,.09,0,.133,0a1.8,1.8,0,0,0,1.715-1.47l.041-.12a1.909,1.909,0,0,0,.079-.869,6.832,6.832,0,0,0,1.6.211,4.532,4.532,0,0,0,2.028-.459l.153-.072a1.9,1.9,0,0,0,1.337-2.236,1.729,1.729,0,0,0-1.724-1.342,2.8,2.8,0,0,0-.95.183,3.905,3.905,0,0,1-1.33.25,3.208,3.208,0,0,1-.7-.077,1.351,1.351,0,0,1-.254-.079,1.484,1.484,0,0,1,.16-.3c.37-.559.77-1.123,1.156-1.667.247-.348.494-.7.737-1.047a1.972,1.972,0,0,0,.374-1.577,2.2,2.2,0,0,0-1.156-1.406,2.032,2.032,0,0,0-1.036-.3,1.918,1.918,0,0,0-1.733,1.251,10.094,10.094,0,0,1-.989,1.789,2.6,2.6,0,0,1-.1-1.013,2.587,2.587,0,0,0-.538-2.023,1.828,1.828,0,0,0-1.4-.585Z"/>
  </g>
  <g>
    <path class="cls-1" d="M114.422,15.032a1.483,1.483,0,0,1-1.2-.637,5.194,5.194,0,0,1-.858-2.449c-.031-.222-.049-.45-.065-.678-.063-.854-.13-1.4-.691-1.812a1.144,1.144,0,0,1-.474-.74,1.019,1.019,0,0,1,.21-.771c.44-.594.43-.825.4-.9-.017-.051-.118-.227-.694-.386a.817.817,0,0,1-.517-.426,1.4,1.4,0,0,1,0-1.082,2.708,2.708,0,0,1,.626-.969,3.469,3.469,0,0,1,2.464-1.038,5.912,5.912,0,0,1,2.481.66c1.427.662,3.118,1.446,3.03,3.529.016,1.638-.828,2.663-2.655,3.2A4.317,4.317,0,0,0,115,11.1a4.8,4.8,0,0,0,.451,1.657c.02.056.043.107.066.158a2.584,2.584,0,0,1,.12.309c.321,1.095-.264,1.513-.53,1.642a1.568,1.568,0,0,1-.685.162Zm.62-8.6c-.2.029-.225.033-.219.557v.226a.573.573,0,0,0,.1.389.667.667,0,0,0,.462.126c.051,0,.1,0,.155-.007a.727.727,0,0,0,.494-.172.37.37,0,0,0,.009-.269.935.935,0,0,0-.992-.85v-.5Z"/>
    <path class="cls-2" d="M113.617,3.647a5.521,5.521,0,0,1,2.27.613c1.371.637,2.817,1.277,2.741,3.055.013,1.455-.709,2.276-2.3,2.743-2.157.635-2.157.635-1.354,2.873.053.149.133.289.178.441.119.4.141.85-.269,1.049a1.069,1.069,0,0,1-.466.113.988.988,0,0,1-.8-.435,4.7,4.7,0,0,1-.766-2.222c-.142-.991.029-2.094-.955-2.822a.545.545,0,0,1-.159-.812c.682-.919.856-1.673-.558-2.063-.318-.088-.3-.553-.187-.848a2.206,2.206,0,0,1,.505-.786,2.949,2.949,0,0,1,2.118-.9m1.767,4.579c.064,0,.129,0,.2-.008.584-.048,1.125-.318.949-1.054a1.439,1.439,0,0,0-1.479-1.234h-.01c-.836.107-.7.746-.717,1.271-.018.773.462,1.026,1.062,1.026m-1.767-5.579a3.953,3.953,0,0,0-2.812,1.179,3.208,3.208,0,0,0-.746,1.151,1.927,1.927,0,0,0,.026,1.485,1.314,1.314,0,0,0,.83.682,2.092,2.092,0,0,1,.282.1,2.873,2.873,0,0,1-.261.406,1.534,1.534,0,0,0-.3,1.143,1.638,1.638,0,0,0,.67,1.068c.369.273.43.632.49,1.446.018.24.036.479.069.713a5.65,5.65,0,0,0,.952,2.675,2,2,0,0,0,1.605.84,2.056,2.056,0,0,0,.9-.213,1.711,1.711,0,0,0,.792-2.231,3.039,3.039,0,0,0-.145-.377c-.018-.039-.036-.078-.051-.119-.168-.469-.341-.951-.407-1.224.241-.1.677-.226,1.1-.351,2.037-.6,3.023-1.8,3.014-3.686.087-2.4-1.841-3.291-3.25-3.945l-.07-.033a6.381,6.381,0,0,0-2.692-.706Zm1.705,4.577c0-.078,0-.158,0-.239a.451.451,0,0,1,.179.236h0c-.038,0-.076,0-.113,0l-.062,0Z"/>
  </g>
  <g>
    <path class="cls-1" d="M11.878,33.993a1.476,1.476,0,0,1-1.2-.7A9.91,9.91,0,0,1,9.04,27.858l-.009-.174c-.06-1.185-.135-1.6-1.2-1.685a1.194,1.194,0,0,1-1.1-.918,1.474,1.474,0,0,1,.663-1.588,4.566,4.566,0,0,1,2.321-.557s3.905-.178,4.725-.218l.157,0a1.385,1.385,0,0,1,1.581,1.314c.025.5-.15,1.358-1.611,1.44-.242.014-.483.036-.726.059-.408.038-.816.075-1.224.075l-.258,0c-.381,0-.585.058-.693.17a1.427,1.427,0,0,0-.191.981c.039,1.313.188,1.313.9,1.313.168,0,.357-.01.57-.026a17.7,17.7,0,0,0,2.518-.421c.149-.033.314-.084.486-.136a4.489,4.489,0,0,1,1.251-.254,1.27,1.27,0,0,1,1.312,1.006.972.972,0,0,1-.1.782c-.329.536-1.136.7-1.848.851-.15.031-.294.062-.423.093-.9.22-1.787.462-2.744.723l-.806.218.043.1c.157.348.277.616.417.875a1.4,1.4,0,0,1-1.175,2.123Z"/>
    <path class="cls-2" d="M14.6,23.215c.572,0,1.051.2,1.083.839.035.707-.532.883-1.14.917-.642.036-1.284.133-1.924.133q-.109,0-.218,0l-.113,0c-1.129,0-1.337.683-1.308,1.669.042,1.4.263,1.8,1.4,1.8.179,0,.381-.01.609-.027a18.23,18.23,0,0,0,2.588-.432,8.378,8.378,0,0,1,1.628-.378.776.776,0,0,1,.83.636c.211.779-1.195.909-2.011,1.109-1.313.323-2.615.692-4.129,1.1.325.7.5,1.132.719,1.537a.9.9,0,0,1-.735,1.385.984.984,0,0,1-.788-.475,9.4,9.4,0,0,1-1.55-5.187c-.063-1.156-.03-2.2-1.671-2.329-.811-.065-.911-1.136-.2-1.587a4.107,4.107,0,0,1,2.077-.478c1.574-.077,3.15-.141,4.724-.218q.066,0,.132,0m0-1h0q-.089,0-.181,0-1.2.059-2.4.111-1.161.052-2.322.107a4.982,4.982,0,0,0-2.567.634A1.973,1.973,0,0,0,6.247,25.2a1.7,1.7,0,0,0,1.543,1.3c.645.051.684.054.742,1.211l.009.176a10.393,10.393,0,0,0,1.717,5.689,1.976,1.976,0,0,0,1.62.919,1.858,1.858,0,0,0,1-.3,1.833,1.833,0,0,0,.613-2.56c-.068-.125-.132-.255-.2-.4l.2-.054c.962-.262,1.871-.509,2.771-.73.123-.03.261-.059.4-.088a3.1,3.1,0,0,0,2.174-1.079A1.48,1.48,0,0,0,19,28.1,1.776,1.776,0,0,0,17.2,26.727a4.878,4.878,0,0,0-1.4.275c-.159.048-.311.1-.45.126a17.568,17.568,0,0,1-2.446.411c-.2.015-.376.024-.533.024a1.959,1.959,0,0,1-.325-.021,3.8,3.8,0,0,1-.079-.806,1.58,1.58,0,0,1,.055-.621h.005a1.941,1.941,0,0,1,.248-.018h.076q.128,0,.256,0c.438,0,.861-.039,1.27-.077.236-.022.473-.044.709-.057,2.018-.113,2.1-1.533,2.083-1.965a1.86,1.86,0,0,0-2.082-1.79Z"/>
  </g>
  <g>
    <path class="cls-1" d="M4.4,33.987a3.641,3.641,0,0,1-3.34-2.266A7.092,7.092,0,0,1,3.442,23.27a2.817,2.817,0,0,1,1.486-.52,1.377,1.377,0,0,1,1.318.874,7.5,7.5,0,0,0,.834,1.336,4.354,4.354,0,0,1,1.168,3.464,7.061,7.061,0,0,1-.575,3.233,3.477,3.477,0,0,1-3.135,2.327Zm-.159-7.335A4.059,4.059,0,0,0,3.192,28.67a2.543,2.543,0,0,0,.667,2.389.424.424,0,0,0,.355.193.906.906,0,0,0,.477-.173,1.748,1.748,0,0,0,.78-1.949,2.576,2.576,0,0,1-.013-.529c.018-.347.018-.347-.166-.411A1.576,1.576,0,0,1,4.237,26.652Z"/>
    <path class="cls-2" d="M4.929,23.251a.884.884,0,0,1,.86.576c.671,1.532,2.358,2.654,1.957,4.565a6.559,6.559,0,0,1-.533,3.072A2.978,2.978,0,0,1,4.52,33.485l-.123,0a3.139,3.139,0,0,1-2.885-1.973,6.57,6.57,0,0,1,2.206-7.828,2.351,2.351,0,0,1,1.211-.437m-.714,8.5a1.384,1.384,0,0,0,.754-.257,2.24,2.24,0,0,0,1-2.441c-.08-.52.229-1.075-.505-1.336-.894-.317-.655-1.154-.809-1.948a3.873,3.873,0,0,0-1.94,2.761,3.064,3.064,0,0,0,.753,2.833.922.922,0,0,0,.75.388m.714-9.5a3.33,3.33,0,0,0-1.762.6A7.619,7.619,0,0,0,.6,31.927a4.13,4.13,0,0,0,3.8,2.56l.16,0a3.952,3.952,0,0,0,3.577-2.633,7.563,7.563,0,0,0,.618-3.4,4.854,4.854,0,0,0-1.265-3.787,7.23,7.23,0,0,1-.781-1.244,1.875,1.875,0,0,0-1.776-1.174Zm-.678,8.493a2.07,2.07,0,0,1-.579-1.935,7.008,7.008,0,0,1,.364-1.037,1.871,1.871,0,0,0,.922.823,2.922,2.922,0,0,0,.019.612,1.254,1.254,0,0,1-.565,1.457.617.617,0,0,1-.161.08Z"/>
  </g>
  <g>
    <path class="cls-1" d="M60.689,14.2a2.446,2.446,0,0,1-.98-.251,1.692,1.692,0,0,1-.8-2.332l-.184-1.2c-.208-1.363-.416-2.727-.651-4.084,0-.041-.033-.058-.126-.058a1.41,1.41,0,0,0-.244.025,3.857,3.857,0,0,1-.646.064h0a1.809,1.809,0,0,1-1.113-.346,1.806,1.806,0,0,1-.94-2.147A1.454,1.454,0,0,1,56.4,2.9a1.844,1.844,0,0,1,.65.124,2.767,2.767,0,0,0,1,.176,7.394,7.394,0,0,0,1.738-.288,8.26,8.26,0,0,1,1.98-.317,4.091,4.091,0,0,1,.532.034h.05a1.772,1.772,0,0,0,.249-.019,2.968,2.968,0,0,1,.371-.029,1.251,1.251,0,0,1,.687.188,1.3,1.3,0,0,1,.659,1.243,1.1,1.1,0,0,1-.715.922,1.706,1.706,0,0,1-.415.13l-.129.03c-1.952.549-2.083.73-1.994,2.771a11.472,11.472,0,0,0,.771,3.224l.034.1c.039.113.085.224.13.334a1.813,1.813,0,0,1-.176,2.145A1.47,1.47,0,0,1,60.689,14.2Z"/>
    <path class="cls-2" d="M62.964,3.085a.762.762,0,0,1,.421.111.813.813,0,0,1,.427.785c-.021.291-.227.4-.437.509a2.65,2.65,0,0,1-.457.127c-2.182.614-2.458,1.013-2.36,3.275a12.38,12.38,0,0,0,.834,3.466c.228.668.685,1.276.053,1.983a.975.975,0,0,1-.754.361,2,2,0,0,1-.781-.209c-.845-.37-.738-1.1-.483-1.828-.28-1.806-.543-3.615-.855-5.415a.544.544,0,0,0-.619-.471,1.976,1.976,0,0,0-.329.032,3.347,3.347,0,0,1-.561.057,1.328,1.328,0,0,1-.818-.248c-.527-.387-1.052-.842-.771-1.564A.959.959,0,0,1,56.4,3.4a1.341,1.341,0,0,1,.473.092,3.267,3.267,0,0,0,1.174.208c1.253,0,2.463-.605,3.718-.6a3.561,3.561,0,0,1,.468.03.941.941,0,0,0,.124.008c.2,0,.406-.051.61-.051m0-1h0a3.522,3.522,0,0,0-.432.033,1.471,1.471,0,0,1-.178.017,4.563,4.563,0,0,0-.591-.038,8.665,8.665,0,0,0-2.1.332,7.062,7.062,0,0,1-1.619.273,2.277,2.277,0,0,1-.82-.143A2.334,2.334,0,0,0,56.4,2.4a1.965,1.965,0,0,0-1.856,1.29,2.319,2.319,0,0,0,1.111,2.732,2.327,2.327,0,0,0,1.411.442,3.969,3.969,0,0,0,.591-.049c.2,1.2.388,2.414.569,3.594l.179,1.17a2.093,2.093,0,0,0,1.106,2.825,2.933,2.933,0,0,0,1.182.293,1.974,1.974,0,0,0,1.5-.695,2.312,2.312,0,0,0,.267-2.668c-.041-.1-.084-.2-.119-.305l-.036-.1a11.137,11.137,0,0,1-.745-3.081c-.077-1.788-.077-1.788,1.632-2.269.032-.009.065-.015.1-.022a2.17,2.17,0,0,0,.532-.171A1.6,1.6,0,0,0,64.81,4.05a1.8,1.8,0,0,0-.892-1.7,1.761,1.761,0,0,0-.954-.264Z"/>
  </g>
  <g>
    <path class="cls-1" d="M46.228,10.445a1.82,1.82,0,0,1-.593-.107,1.453,1.453,0,0,1-.951-.8,2.079,2.079,0,0,1,.355-1.7l.091-.173c.271-.526.554-1.047.836-1.568.361-.667.723-1.333,1.062-2.012a3.8,3.8,0,0,1,.205-.351,1.088,1.088,0,0,0,.25-.612c-.09-.007-.181-.01-.27-.01a6.937,6.937,0,0,0-2.719.75,2.281,2.281,0,0,0-.289.163,1.86,1.86,0,0,1-1,.355,1.386,1.386,0,0,1-.332-.041l-.162-.036A1.44,1.44,0,0,1,41.4,3.216a1.586,1.586,0,0,1,.722-1.765,2.256,2.256,0,0,1,.543-.275A14.952,14.952,0,0,1,47.054.5a14.212,14.212,0,0,1,2.212.175,1.93,1.93,0,0,1,1.528.907,2.085,2.085,0,0,1-.18,1.9,18.527,18.527,0,0,1-1.38,2.328,7.4,7.4,0,0,0-1.4,2.774c-.241,1.235-.78,1.862-1.6,1.862Z"/>
    <path class="cls-2" d="M47.052,1a13.552,13.552,0,0,1,2.135.169c1.273.2,1.554.928.979,2.09a18.061,18.061,0,0,1-1.343,2.265A7.8,7.8,0,0,0,47.34,8.487c-.119.612-.366,1.458-1.111,1.458a1.311,1.311,0,0,1-.429-.08c-1.172-.407-.585-1.27-.225-1.968.621-1.2,1.3-2.377,1.9-3.587.234-.47.728-.894.4-1.64a3.862,3.862,0,0,0-.66-.056,7.363,7.363,0,0,0-2.919.792c-.368.162-.666.476-1.087.476a.9.9,0,0,1-.215-.027c-.463-.113-.985-.149-1.1-.738a1.1,1.1,0,0,1,.5-1.243,1.848,1.848,0,0,1,.423-.221A14.42,14.42,0,0,1,47.052,1m0-1a15.455,15.455,0,0,0-4.538.7,2.63,2.63,0,0,0-.638.316,2.1,2.1,0,0,0-.969,2.3,1.935,1.935,0,0,0,1.7,1.478l.151.034a1.907,1.907,0,0,0,.453.055,2.336,2.336,0,0,0,1.261-.43,1.922,1.922,0,0,1,.23-.131,8.173,8.173,0,0,1,2-.667c-.041.069-.08.139-.115.208-.334.669-.7,1.346-1.055,2-.283.523-.567,1.047-.84,1.575L44.6,7.6a2.5,2.5,0,0,0-.38,2.114,1.925,1.925,0,0,0,1.253,1.091,2.311,2.311,0,0,0,.758.136c.753,0,1.728-.393,2.093-2.267a6.833,6.833,0,0,1,1.3-2.553A19.22,19.22,0,0,0,51.062,3.7a2.544,2.544,0,0,0,.176-2.35A2.391,2.391,0,0,0,49.345.181,14.615,14.615,0,0,0,47.052,0Z"/>
  </g>
  <g>
    <path class="cls-1" d="M121.181,14.565a1.521,1.521,0,0,1-1.455-1.229,14.84,14.84,0,0,1-.534-6.365,2.488,2.488,0,0,1,.47-1.1,1.283,1.283,0,0,1,1.077-.554,1.583,1.583,0,0,1,.26.022,1.131,1.131,0,0,1,.974,1.138c.016.572.013,1.143.009,1.715l0,.686c-.012.22-.026.412-.041.605a4.04,4.04,0,0,0,.438,2.814,1.518,1.518,0,0,1,.3,1.3,1.29,1.29,0,0,1-.823.829,1.814,1.814,0,0,1-.669.138Z"/>
    <path class="cls-2" d="M120.738,5.817a1.049,1.049,0,0,1,.177.015.637.637,0,0,1,.557.659c.022.794.007,1.59.007,2.385-.069,1.262-.329,2.56.489,3.71.367.516.389,1.1-.3,1.375a1.308,1.308,0,0,1-.483.1c-.471,0-.8-.339-.98-.888a14.523,14.523,0,0,1-.511-6.156,2.013,2.013,0,0,1,.384-.867.779.779,0,0,1,.665-.337m0-1a1.775,1.775,0,0,0-1.489.771,2.957,2.957,0,0,0-.554,1.33,15.317,15.317,0,0,0,.557,6.574,2.036,2.036,0,0,0,1.929,1.572,2.305,2.305,0,0,0,.854-.174,1.808,1.808,0,0,0,1.118-1.152,2,2,0,0,0-.37-1.731,3.63,3.63,0,0,1-.347-2.485c.015-.2.03-.394.041-.59q0-.027,0-.055l0-.682c0-.577.006-1.154-.01-1.731a1.625,1.625,0,0,0-1.388-1.618,2.043,2.043,0,0,0-.345-.03Z"/>
  </g>
  <g>
    <path class="cls-1" d="M53.035,43.255c-1.017,0-1.331-.955-1.539-1.586-.039-.118-.077-.234-.119-.345-.056-.146-.123-.287-.191-.428a3.251,3.251,0,0,1-.395-1.286,1.7,1.7,0,0,1,1.614-2,2.1,2.1,0,0,1,.229-.013c.414,0,1.4.155,1.546,1.595a10.574,10.574,0,0,1,.025,1.294c0,.272-.011.588-.011.97a1.4,1.4,0,0,1,.006,1.224,1.164,1.164,0,0,1-.836.543,1.693,1.693,0,0,1-.33.034Z"/>
    <path class="cls-2" d="M52.634,38.1c.7,0,.982.5,1.049,1.146.057.549.011,1.109.011,2.212-.008.1.543,1.086-.425,1.276a1.218,1.218,0,0,1-.234.024c-.791,0-.933-.927-1.191-1.608a4.978,4.978,0,0,1-.554-1.559c-.037-.851.277-1.389,1.168-1.483a1.684,1.684,0,0,1,.176-.01m0-1a2.68,2.68,0,0,0-.281.015,2.2,2.2,0,0,0-2.062,2.521,3.689,3.689,0,0,0,.443,1.479c.062.128.124.257.175.39.039.1.075.212.111.323.222.675.636,1.93,2.015,1.93a2.227,2.227,0,0,0,.427-.043,1.65,1.65,0,0,0,1.173-.785,1.965,1.965,0,0,0,.061-1.617c0-.315.006-.583.01-.818a10.958,10.958,0,0,0-.027-1.353A2.018,2.018,0,0,0,52.634,37.1Z"/>
  </g>
  <g>
    <path class="cls-1" d="M50.674,48.625a.942.942,0,0,1-.134-.007c-.11-.023-.231-.036-.354-.05-.562-.063-1.609-.181-1.753-1.461-.164-1.469,1.04-1.751,1.76-1.92l.148-.035a1.957,1.957,0,0,1,.5-.09c.03,0,.138.01.167.015a.964.964,0,0,0,.171.013c.136,0,.278-.016.422-.03a5.14,5.14,0,0,1,.525-.035A1.36,1.36,0,0,1,53.58,46.2a1.507,1.507,0,0,1-.3,1.241,3.21,3.21,0,0,1-2.259,1.163S50.709,48.625,50.674,48.625Z"/>
    <path class="cls-2" d="M52.129,45.523a.871.871,0,0,1,.963.788c.189.842-.929,1.7-2.111,1.8-.079.007-.158.01-.337.02-.641-.136-1.591.021-1.714-1.078s.756-1.226,1.529-1.413a1.733,1.733,0,0,1,.386-.075.445.445,0,0,1,.078.006,1.49,1.49,0,0,0,.26.02c.305,0,.641-.066.947-.066m0-1a5.728,5.728,0,0,0-.577.038,3.7,3.7,0,0,1-.37.028.491.491,0,0,1-.085-.005,1.445,1.445,0,0,0-.252-.022,2.11,2.11,0,0,0-.556.087l-.065.017-.147.035c-.7.166-2.354.553-2.14,2.462a2.143,2.143,0,0,0,2.194,1.9c.107.012.212.022.307.042a1,1,0,0,0,.207.022l.059,0,.16-.009c.086,0,.144-.008.2-.013a3.73,3.73,0,0,0,2.62-1.365,2.02,2.02,0,0,0,.384-1.648,1.852,1.852,0,0,0-1.939-1.569Z"/>
  </g>
  <g>
    <path class="cls-1" d="M50.827,57.256a1.6,1.6,0,0,1-.207-.013,1.748,1.748,0,0,1-1-3,2.937,2.937,0,0,1,2.02-.824,1.856,1.856,0,0,1,1.826.938.5.5,0,0,1,.042.214,2.971,2.971,0,0,1-2.68,2.688Z"/>
    <path class="cls-2" d="M51.639,53.916h.015a1.379,1.379,0,0,1,1.354.637,2.478,2.478,0,0,1-2.18,2.2,1.179,1.179,0,0,1-.146-.009,1.2,1.2,0,0,1-1.1-1.306c-.006-.791,1.038-1.525,2.061-1.525m0-1a3.454,3.454,0,0,0-2.374.972,2.248,2.248,0,0,0,1.292,3.851,2.174,2.174,0,0,0,.271.017,3.465,3.465,0,0,0,3.179-3.175,1,1,0,0,0-.083-.427,2.313,2.313,0,0,0-2.264-1.238Z"/>
  </g>
  <g>
    <path class="cls-1" d="M54.618,66.084a1.715,1.715,0,0,1-1.86-1.45,3.149,3.149,0,0,1,2.428-2.983A1.451,1.451,0,0,1,56.657,63.2c-.012,1.141-.928,2.888-2.033,2.888Z"/>
    <path class="cls-2" d="M55.219,62.149a.941.941,0,0,1,.938,1.042c-.01,1.022-.836,2.393-1.533,2.393h0a1.232,1.232,0,0,1-1.369-1.028,2.694,2.694,0,0,1,1.967-2.408m0-1-.066,0a3.277,3.277,0,0,0-2.108,1.3,3.169,3.169,0,0,0-.781,2.261,2.208,2.208,0,0,0,2.352,1.874c1.458,0,2.528-2.021,2.542-3.383a1.925,1.925,0,0,0-1.806-2.043,1,1,0,0,0-.132-.009Z"/>
  </g>
  <g>
    <path class="cls-1" d="M67.713,40.671a1.935,1.935,0,0,1-.3-.023c-1.269-.188-1.271-1.31-1.272-2.129l0-.322c.014-.13.018-.178.023-.234a3.5,3.5,0,0,1,.231-1.048,1.572,1.572,0,0,1,1.517-.964,2.4,2.4,0,0,1,.4.035A1.407,1.407,0,0,1,69.5,37.756a4.415,4.415,0,0,1-.144.622,3.225,3.225,0,0,0-.118.509c-.138,1.184-.651,1.784-1.527,1.784Z"/>
    <path class="cls-2" d="M67.911,36.45a1.882,1.882,0,0,1,.318.028c.69.118.861.606.779,1.211-.052.385-.218.755-.263,1.14-.082.708-.291,1.342-1.031,1.342a1.535,1.535,0,0,1-.226-.018c-.95-.141-.83-.977-.848-1.966a4.03,4.03,0,0,1,.214-1.076,1.07,1.07,0,0,1,1.057-.661m0-1a2.053,2.053,0,0,0-1.976,1.267,3.975,3.975,0,0,0-.269,1.195l-.011.106a1.326,1.326,0,0,0-.014.188l0,.315c0,.828.005,2.37,1.7,2.622a2.534,2.534,0,0,0,.373.029c.659,0,1.8-.289,2.024-2.227a3.031,3.031,0,0,1,.1-.429A4.867,4.867,0,0,0,70,37.823a1.9,1.9,0,0,0-1.6-2.33,2.888,2.888,0,0,0-.487-.043Z"/>
  </g>
  <g>
    <path class="cls-1" d="M59.583,42.866a1.439,1.439,0,0,1-1.515-1.107,12.431,12.431,0,0,1-.336-2.441,1.335,1.335,0,0,1,1.122-1.338,1.51,1.51,0,0,1,.313-.034,1.254,1.254,0,0,1,1.2.88c.088.241.2.477.3.7a2.777,2.777,0,0,1,.4,1.418l-.013.188c-.05.733-.106,1.565-1.107,1.708A2.663,2.663,0,0,1,59.583,42.866Z"/>
    <path class="cls-2" d="M59.168,38.445a.764.764,0,0,1,.734.55c.268.74.731,1.43.675,1.888-.065.858-.038,1.367-.694,1.461a2.108,2.108,0,0,1-.3.022.951.951,0,0,1-1.03-.73,11.863,11.863,0,0,1-.322-2.34.847.847,0,0,1,.728-.828.98.98,0,0,1,.207-.023m0-1a1.986,1.986,0,0,0-.419.046,1.829,1.829,0,0,0-1.516,1.849,12.88,12.88,0,0,0,.351,2.539,1.93,1.93,0,0,0,2,1.487,3.111,3.111,0,0,0,.44-.032c1.4-.2,1.484-1.433,1.535-2.169l.015-.207a3.156,3.156,0,0,0-.446-1.642c-.1-.22-.207-.447-.285-.662a1.76,1.76,0,0,0-1.674-1.208Z"/>
  </g>
  <g>
    <path class="cls-1" d="M71.979,43.827a1.328,1.328,0,0,1-1.285-1.05,2.264,2.264,0,0,1,.3-1.795,2.167,2.167,0,0,1,1.445-.97,2.424,2.424,0,0,1,.4-.034,1.853,1.853,0,0,1,1.708,1.068,1.287,1.287,0,0,1-.439,1.605c-.05.05-.1.1-.145.147-.676.73-1.07,1.035-1.77,1.035C72.2,43.835,72.056,43.832,71.979,43.827Z"/>
    <path class="cls-2" d="M72.842,40.478a1.357,1.357,0,0,1,1.264.8c.279.543-.2.851-.508,1.185-.637.689-.916.874-1.4.874-.057,0-.118,0-.182-.007a.828.828,0,0,1-.837-.677,1.75,1.75,0,0,1,1.346-2.144,1.932,1.932,0,0,1,.319-.028m0-1a2.941,2.941,0,0,0-.485.042,2.667,2.667,0,0,0-1.782,1.191,2.764,2.764,0,0,0-.366,2.191,1.818,1.818,0,0,0,1.749,1.424c.073.005.158.009.238.009a2.761,2.761,0,0,0,2.136-1.2c.04-.043.084-.085.127-.128A1.78,1.78,0,0,0,75,40.818a2.364,2.364,0,0,0-2.153-1.34Z"/>
  </g>
  <g>
    <path class="cls-1" d="M75.018,67.369a6.284,6.284,0,0,1-1.855-.233c-.92-.281-1.294-.807-1.111-1.561a1.284,1.284,0,0,1,1.32-.987,6.815,6.815,0,0,1,.829.093l.521.078.1-.008c.117,0,.264-.007.426-.007.18,0,.377,0,.573.019a1.564,1.564,0,0,1,1.1.494,1.211,1.211,0,0,1,.273.91c-.029.347-.238,1.157-1.527,1.191C75.449,67.364,75.233,67.369,75.018,67.369Z"/>
    <path class="cls-2" d="M73.371,65.088l.061,0c.313.015.625.082,1.22.165.116,0,.34-.01.6-.01.167,0,.35,0,.532.018.518.038.958.3.909.862s-.526.721-1.043.734c-.214.006-.427.011-.639.011a5.728,5.728,0,0,1-1.706-.21c-.484-.149-.917-.365-.771-.965a.793.793,0,0,1,.834-.605m0-1a1.785,1.785,0,0,0-1.806,1.37c-.116.478-.207,1.647,1.449,2.156a6.761,6.761,0,0,0,2,.255c.221,0,.443-.005.665-.011a1.842,1.842,0,0,0,2.013-1.647,1.7,1.7,0,0,0-.391-1.277,2.057,2.057,0,0,0-1.441-.669c-.208-.015-.416-.02-.606-.02-.168,0-.321,0-.443.007l-.1,0c-.168-.024-.311-.046-.438-.066a7.423,7.423,0,0,0-.794-.1l-.11,0Z"/>
  </g>
  <g>
    <path class="cls-1" d="M45.41,16.81a2.136,2.136,0,0,1-.851-.19,2,2,0,0,1-1.2-1.106,1.625,1.625,0,0,1,1.5-2.071,1.9,1.9,0,0,1,.974.284,6.13,6.13,0,0,1,.976.777c.137.125.278.255.432.385a.5.5,0,0,1,.082.674,2.512,2.512,0,0,1-1.92,1.248Z"/>
    <path class="cls-2" d="M44.868,13.942a1.408,1.408,0,0,1,.717.213,11.274,11.274,0,0,1,1.34,1.114c-.488.674-.956,1.041-1.514,1.041a1.641,1.641,0,0,1-.652-.15c-.731-.316-1.241-.845-.812-1.646a1.018,1.018,0,0,1,.922-.573m0-1a2.026,2.026,0,0,0-1.8,1.1,1.989,1.989,0,0,0-.172,1.635,2.473,2.473,0,0,0,1.469,1.4,2.644,2.644,0,0,0,1.05.232,2.958,2.958,0,0,0,2.325-1.455,1,1,0,0,0-.163-1.349c-.148-.125-.285-.251-.417-.372A6.621,6.621,0,0,0,46.1,13.3a2.408,2.408,0,0,0-1.23-.355Z"/>
  </g>
  <g>
    <path class="cls-1" d="M65.244,67.6a1.756,1.756,0,0,1-1.852-1.648,1.625,1.625,0,0,1,.319-1.366,1.5,1.5,0,0,1,1.164-.494,1.635,1.635,0,0,1,1.564,1.381,2.449,2.449,0,0,0,.2.477.486.486,0,0,1,.079.233,1.29,1.29,0,0,1-.281,1,1.482,1.482,0,0,1-1.09.416Z"/>
    <path class="cls-2" d="M64.878,64.593h.007c1.027,0,.965,1.06,1.336,1.63.057.723-.39.858-.891.876l-.086,0a1.262,1.262,0,0,1-1.356-1.225c-.125-.8.3-1.284.991-1.284m0-1a1.989,1.989,0,0,0-1.545.669,2.157,2.157,0,0,0-.434,1.769,2.26,2.26,0,0,0,2.344,2.07l.123,0a1.991,1.991,0,0,0,1.446-.583,1.775,1.775,0,0,0,.406-1.372,1,1,0,0,0-.158-.466,2.368,2.368,0,0,1-.145-.366,2.106,2.106,0,0,0-2.025-1.72Z"/>
  </g>
  <g>
    <path class="cls-1" d="M73.86,53.863a1.827,1.827,0,0,1-.352-.037,1.647,1.647,0,0,1,.294-3.276c.578.008,1.482.231,1.468,1.639a.514.514,0,0,1-.027.159c-.026.076-.051.156-.074.237-.132.447-.378,1.278-1.309,1.278Z"/>
    <path class="cls-2" d="M73.8,51.049h.032c.735.011.944.464.938,1.133-.175.5-.242,1.18-.91,1.18a1.27,1.27,0,0,1-.252-.028,1.1,1.1,0,0,1-1.015-1.144A1.087,1.087,0,0,1,73.8,51.049m0-1a2.146,2.146,0,0,0-.391,4.266,2.276,2.276,0,0,0,.451.048,1.914,1.914,0,0,0,1.788-1.635c.022-.074.043-.147.067-.216a1,1,0,0,0,.056-.321,1.88,1.88,0,0,0-1.924-2.142Z"/>
  </g>
</svg>
