<svg xmlns="http://www.w3.org/2000/svg" viewBox="0 0 77.55 121.55"><defs><style>.a{fill:#fff;stroke-width:0.05px;}.a,.b{stroke:#000;}.b{fill:none;}</style></defs><title>ClubAsset 10</title><path class="a" d="M77.53,116.53a5,5,0,0,1-5,5H5a5,5,0,0,1-5-5V5A5,5,0,0,1,5,0h67.5a5,5,0,0,1,5,5Z"/><path class="b" d="M11.53,14.38a2.2,2.2,0,0,1-2.25,2.15A2.2,2.2,0,0,1,7,14.38V6.18A2.2,2.2,0,0,1,9.28,4a2.2,2.2,0,0,1,2.25,2.15Z"/><path class="b" d="M4,3.53V17"/><path class="b" d="M73.53,118v-13.5"/><path class="b" d="M66,107.18a2.25,2.25,0,0,1,4.5,0v8.2a2.25,2.25,0,0,1-4.5,0Z"/><path d="M8.91,23.32a3.47,3.47,0,0,0,1.25-2.39,2.29,2.29,0,0,0-2.39-2.16,2.29,2.29,0,0,0-2.39,2.16,3.47,3.47,0,0,0,1.25,2.39,2.39,2.39,0,0,0-3.86,1.82A2.3,2.3,0,0,0,5,27.41a2.88,2.88,0,0,0,2.39-1.82,4.19,4.19,0,0,1-1,3.18H9.14a4.19,4.19,0,0,1-1-3.18,2.88,2.88,0,0,0,2.39,1.82,2.29,2.29,0,0,0,2.27-2.27A2.38,2.38,0,0,0,8.91,23.32Z"/><path d="M68.64,98.23a3.47,3.47,0,0,0-1.25,2.39,2.4,2.4,0,0,0,4.77,0,3.47,3.47,0,0,0-1.25-2.39,2.39,2.39,0,0,0,3.86-1.82,2.3,2.3,0,0,0-2.27-2.27A2.88,2.88,0,0,0,70.12,96a4.19,4.19,0,0,1,1-3.18H68.41a4.19,4.19,0,0,1,1,3.18A2.88,2.88,0,0,0,67,94.14a2.29,2.29,0,0,0-2.27,2.27A2.38,2.38,0,0,0,68.64,98.23Z"/><path d="M24.93,19.91a6.6,6.6,0,0,0,2.38-4.53,4.36,4.36,0,0,0-4.53-4.1,4.36,4.36,0,0,0-4.53,4.1,6.6,6.6,0,0,0,2.38,4.53c-2.64-2.06-7.34-.65-7.34,3.45a4.36,4.36,0,0,0,4.32,4.32c3.16,0,4.53-3.45,4.53-3.45s.4,3.94-1.94,6h5.18c-2.35-2.11-1.94-6-1.94-6s1.37,3.45,4.53,3.45a4.36,4.36,0,0,0,4.32-4.32C32.28,19.26,27.57,17.86,24.93,19.91Z"/><path d="M24.93,46.66a6.6,6.6,0,0,0,2.38-4.53A4.36,4.36,0,0,0,22.78,38a4.36,4.36,0,0,0-4.53,4.1,6.6,6.6,0,0,0,2.38,4.53C18,44.61,13.28,46,13.28,50.12a4.36,4.36,0,0,0,4.32,4.32c3.16,0,4.53-3.45,4.53-3.45s.4,3.94-1.94,6h5.18c-2.35-2.11-1.94-6-1.94-6s1.37,3.45,4.53,3.45a4.36,4.36,0,0,0,4.32-4.32C32.28,46,27.57,44.61,24.93,46.66Z"/><path d="M20.62,74.89a6.6,6.6,0,0,0-2.37,4.53,4.36,4.36,0,0,0,4.53,4.1,4.36,4.36,0,0,0,4.53-4.1,6.6,6.6,0,0,0-2.37-4.53c2.64,2.06,7.34.65,7.34-3.45A4.36,4.36,0,0,0,28,67.12c-3.16,0-4.53,3.45-4.53,3.45s-.4-3.94,1.94-6H20.18c2.35,2.11,1.94,6,1.94,6s-1.37-3.45-4.53-3.45a4.36,4.36,0,0,0-4.32,4.32C13.28,75.54,18,76.94,20.62,74.89Z"/><path d="M20.62,101.64a6.6,6.6,0,0,0-2.37,4.53,4.36,4.36,0,0,0,4.53,4.1,4.36,4.36,0,0,0,4.53-4.1,6.6,6.6,0,0,0-2.37-4.53c2.64,2.06,7.34.65,7.34-3.45A4.36,4.36,0,0,0,28,93.87c-3.16,0-4.53,3.45-4.53,3.45s-.4-3.94,1.94-6H20.18c2.35,2.11,1.94,6,1.94,6s-1.37-3.45-4.53-3.45a4.36,4.36,0,0,0-4.32,4.32C13.28,102.29,18,103.69,20.62,101.64Z"/><path d="M40.93,33.29a6.6,6.6,0,0,0,2.38-4.53,4.56,4.56,0,0,0-9.07,0,6.6,6.6,0,0,0,2.38,4.53c-2.64-2.06-7.34-.65-7.34,3.45a4.36,4.36,0,0,0,4.32,4.32c3.16,0,4.53-3.45,4.53-3.45s.4,3.94-1.94,6h5.18c-2.35-2.11-1.94-6-1.94-6s1.37,3.45,4.53,3.45a4.36,4.36,0,0,0,4.32-4.32C48.28,32.63,43.57,31.23,40.93,33.29Z"/><path d="M36.62,88.26a6.6,6.6,0,0,0-2.37,4.53,4.56,4.56,0,0,0,9.07,0,6.6,6.6,0,0,0-2.37-4.53c2.64,2.06,7.34.65,7.34-3.45A4.36,4.36,0,0,0,44,80.49c-3.16,0-4.53,3.45-4.53,3.45s-.4-3.94,1.94-6H36.18c2.35,2.11,1.94,6,1.94,6s-1.37-3.45-4.53-3.45a4.36,4.36,0,0,0-4.32,4.32C29.28,88.92,34,90.32,36.62,88.26Z"/><path d="M56.93,19.91a6.6,6.6,0,0,0,2.38-4.53,4.56,4.56,0,0,0-9.07,0,6.6,6.6,0,0,0,2.38,4.53c-2.64-2.06-7.34-.65-7.34,3.45a4.36,4.36,0,0,0,4.32,4.32c3.16,0,4.53-3.45,4.53-3.45s.4,3.94-1.94,6h5.18c-2.35-2.11-1.94-6-1.94-6s1.37,3.45,4.53,3.45a4.36,4.36,0,0,0,4.32-4.32C64.28,19.26,59.57,17.86,56.93,19.91Z"/><path d="M56.93,46.66a6.6,6.6,0,0,0,2.38-4.53,4.56,4.56,0,0,0-9.07,0,6.6,6.6,0,0,0,2.38,4.53C50,44.61,45.28,46,45.28,50.12a4.36,4.36,0,0,0,4.32,4.32c3.16,0,4.53-3.45,4.53-3.45s.4,3.94-1.94,6h5.18c-2.35-2.11-1.94-6-1.94-6s1.37,3.45,4.53,3.45a4.36,4.36,0,0,0,4.32-4.32C64.28,46,59.57,44.61,56.93,46.66Z"/><path d="M52.62,74.89a6.6,6.6,0,0,0-2.37,4.53,4.56,4.56,0,0,0,9.07,0,6.6,6.6,0,0,0-2.37-4.53c2.64,2.06,7.34.65,7.34-3.45A4.36,4.36,0,0,0,60,67.12c-3.16,0-4.53,3.45-4.53,3.45s-.4-3.94,1.94-6H52.18c2.35,2.11,1.94,6,1.94,6s-1.37-3.45-4.53-3.45a4.36,4.36,0,0,0-4.32,4.32C45.28,75.54,50,76.94,52.62,74.89Z"/><path d="M52.62,101.64a6.6,6.6,0,0,0-2.37,4.53,4.56,4.56,0,0,0,9.07,0,6.6,6.6,0,0,0-2.37-4.53c2.64,2.06,7.34.65,7.34-3.45A4.36,4.36,0,0,0,60,93.87c-3.16,0-4.53,3.45-4.53,3.45s-.4-3.94,1.94-6H52.18c2.35,2.11,1.94,6,1.94,6s-1.37-3.45-4.53-3.45a4.36,4.36,0,0,0-4.32,4.32C45.28,102.29,50,103.69,52.62,101.64Z"/></svg>