<svg id="Layer_1" data-name="Layer 1" xmlns="http://www.w3.org/2000/svg" viewBox="0 0 149.399 64.108">
  <defs>
    <style>
      .cls-1 {
        fill: #0000b8;
      }

      .cls-2 {
        fill: #fff;
      }
    </style>
  </defs>
  <title>ddde2d52-a1ad-4ab3-8cdb-f01afd3cda8a</title>
  <g>
    <path class="cls-1" d="M77.324,27.108c-1.459,0-1.839-.994-2.154-2.194a59.9,59.9,0,0,1-1.892-12.348c-.114-2.358-.254-4.867-.6-7.337A2.687,2.687,0,0,1,73.1,3.016a1.954,1.954,0,0,1,1.55-.6,4.3,4.3,0,0,1,.63.05,11.112,11.112,0,0,0,1.643.115,27.5,27.5,0,0,0,3.821-.363c.432-.061.861-.123,1.292-.177l.676-.085C87.159,1.389,91.761.808,96.324.532,96.7.509,97.073.5,97.449.5c.981,0,1.975.066,2.935.13l1.674.11c.51.037,1.02.073,1.53.073a7.364,7.364,0,0,0,1.256-.1,4.494,4.494,0,0,1,.745-.069,1.484,1.484,0,0,1,1.077.335l.21.208c.479.478.794.793,1.417.793a2.308,2.308,0,0,0,.306-.022c.021,0,.12-.01.143-.01a.985.985,0,0,1,.784.393,2.626,2.626,0,0,1,.282,2.016,8.707,8.707,0,0,0-.17,1.974c0,.416-.009.831-.046,1.244A36.3,36.3,0,0,0,110.616,17.8l.239,1.221a4.488,4.488,0,0,0,.857,1.943,1.338,1.338,0,0,1-1.113,2.27,26.565,26.565,0,0,0-3.361.324,26.022,26.022,0,0,1-3.576.331,10.873,10.873,0,0,1-1.655-.119,87.7,87.7,0,0,0-15.5,1.867c-2.39.457-5.019.9-8.273,1.393a6.1,6.1,0,0,1-.91.083ZM97.087,2.762A88.774,88.774,0,0,0,80.228,4.549a12.574,12.574,0,0,1-1.636.163,4.216,4.216,0,0,0-2.675.681c-.545.539-.389,1.432-.209,2.466a8.048,8.048,0,0,1,.18,1.818,21.489,21.489,0,0,0,.142,5.046c.089.827.18,1.683.222,2.533a24.23,24.23,0,0,0,.985,5.028c.106.393.213.785.314,1.179.2.792.525.937,1.083.937.088,0,.182,0,.28-.014a68.7,68.7,0,0,0,8.215-1.16c.967-.209,1.953-.367,2.907-.519.833-.133,1.665-.265,2.49-.433a51.429,51.429,0,0,1,8.279-.771c2.063-.08,4.2-.162,6.269-.442a3.286,3.286,0,0,0,1.112-.258,3.1,3.1,0,0,0-.046-1.1c-.094-.65-.193-1.3-.293-1.951a51.031,51.031,0,0,1-.821-8.575,12.985,12.985,0,0,0-.9-4.93c-.237-.62-.452-.71-.885-.769-.5-.067-1.007-.143-1.509-.218a37.066,37.066,0,0,0-3.9-.444Q98.459,2.761,97.087,2.762Z" transform="translate(0 0)"/>
    <path class="cls-2" d="M97.446,1c1.3,0,2.609.117,3.91.194.746.044,1.487.12,2.231.12a7.844,7.844,0,0,0,1.341-.1,4.013,4.013,0,0,1,.661-.062,1.082,1.082,0,0,1,.728.194c.6.588,1.036,1.142,1.975,1.142a2.784,2.784,0,0,0,.372-.026.568.568,0,0,1,.076-.005c.629,0,.743,1.128.582,1.79a21.454,21.454,0,0,0-.229,3.292c-.353,3.954.532,7.755,1.27,11.578a5.01,5.01,0,0,0,.951,2.151c.562.737.214,1.457-.721,1.467-2.335.023-4.629.654-6.933.654a10.441,10.441,0,0,1-1.579-.113,86.968,86.968,0,0,0-15.668,1.87c-2.74.524-5.5.972-8.255,1.39a5.693,5.693,0,0,1-.835.076c-.975,0-1.314-.465-1.671-1.821a59.229,59.229,0,0,1-1.877-12.245c-.119-2.47-.26-4.933-.6-7.382-.208-1.494.256-2.248,1.473-2.248a3.819,3.819,0,0,1,.556.044,11.7,11.7,0,0,0,1.716.12,41.424,41.424,0,0,0,5.175-.543c4.745-.6,9.486-1.213,14.259-1.5.363-.022.728-.031,1.093-.031M78.635,24.9q.154,0,.326-.016a68.5,68.5,0,0,0,8.276-1.17c1.781-.387,3.6-.588,5.39-.951,4.793-.974,9.7-.556,14.516-1.208,1.6-.217,1.725-.316,1.494-1.92a65.53,65.53,0,0,1-1.109-10.447,13.454,13.454,0,0,0-.93-5.117,1.4,1.4,0,0,0-1.285-1.086c-1.813-.243-3.605-.588-5.451-.667q-1.389-.059-2.771-.058a90.4,90.4,0,0,0-16.955,1.8c-1.556.3-3.537-.042-4.569.98-1.115,1.1-.088,3.044-.176,4.612-.326,2.566.236,5.089.363,7.632a31.813,31.813,0,0,0,1.315,6.307A1.458,1.458,0,0,0,78.635,24.9M97.446,0h0c-.408,0-.785.011-1.153.033-4.583.277-9.2.86-13.662,1.424l-.662.084c-.433.055-.866.116-1.3.178a26.654,26.654,0,0,1-3.75.357,10.633,10.633,0,0,1-1.57-.109,4.836,4.836,0,0,0-.7-.055,2.428,2.428,0,0,0-1.927.776A3.139,3.139,0,0,0,72.184,5.3c.343,2.458.481,4.95.594,7.292a60.465,60.465,0,0,0,1.908,12.451c.327,1.242.827,2.567,2.638,2.567a6.575,6.575,0,0,0,.985-.088c3.265-.5,5.9-.939,8.292-1.4a87,87,0,0,1,15.411-1.851,11.436,11.436,0,0,0,1.648.113,26.412,26.412,0,0,0,3.645-.335,25.778,25.778,0,0,1,3.3-.319,1.833,1.833,0,0,0,1.506-3.073,4.006,4.006,0,0,1-.765-1.735q-.118-.613-.24-1.226a35.376,35.376,0,0,1-1.016-10.073c.039-.439.044-.867.048-1.28a8.291,8.291,0,0,1,.156-1.864,3.087,3.087,0,0,0-.376-2.443,1.475,1.475,0,0,0-1.177-.584,1.567,1.567,0,0,0-.21.014,1.788,1.788,0,0,1-.238.017c-.4,0-.582-.166-1.063-.647l-.215-.213a1.947,1.947,0,0,0-1.425-.477,5.048,5.048,0,0,0-.831.076,6.851,6.851,0,0,1-1.171.09c-.486,0-.975-.035-1.493-.072-.226-.016-.452-.032-.679-.046-.331-.019-.663-.042-.995-.064C99.45.067,98.447,0,97.446,0ZM78.635,23.9c-.33,0-.454,0-.6-.562-.1-.4-.209-.79-.316-1.185a23.459,23.459,0,0,1-.969-4.922c-.043-.864-.135-1.725-.224-2.558a21.051,21.051,0,0,1-.146-4.9q0-.035.006-.07A8.5,8.5,0,0,0,76.2,7.772c-.181-1.039-.267-1.693.067-2.024a3.991,3.991,0,0,1,2.352-.538,12.985,12.985,0,0,0,1.7-.171A88.326,88.326,0,0,1,97.09,3.262c.916,0,1.834.019,2.729.057a36.15,36.15,0,0,1,3.846.44c.5.076,1.008.151,1.514.219.285.038.329.044.484.451a12.507,12.507,0,0,1,.864,4.744,51.36,51.36,0,0,0,.826,8.655c.1.65.2,1.3.293,1.951.043.3.069.522.077.672-.217.047-.548.092-.716.115-2.047.277-4.169.359-6.221.438a51.8,51.8,0,0,0-8.359.781c-.812.165-1.656.3-2.471.43-.96.153-1.953.311-2.932.524a68.312,68.312,0,0,1-8.156,1.151c-.082.008-.16.012-.234.012Z" transform="translate(0 0)"/>
  </g>
  <g>
    <path class="cls-1" d="M3.785,24.634c-.666,0-1.188-.547-1.361-1.429a30.058,30.058,0,0,1-.5-3.115l-.013-.144c-.06-.685-.106-1-.587-1.265a1.273,1.273,0,0,1-.749-.97,1.624,1.624,0,0,1,.744-1.347c.661-.562.632-.768.631-.776-.01-.051-.152-.227-.691-.418a1.25,1.25,0,0,1-.684-1.632c.557-1.872,2.787-2.991,4.622-2.991a3.706,3.706,0,0,1,1.913.491,3.063,3.063,0,0,1,1.773,2.34,2.927,2.927,0,0,1-1.368,2.457,6.8,6.8,0,0,1-.631.442,7.753,7.753,0,0,1,1.186.3,4.4,4.4,0,0,0,1.205.268.992.992,0,0,0,.408-.078c.408-.179.548-.668.729-1.454a4.892,4.892,0,0,1,.617-1.684c.964-1.417,1.9-2.361,3.332-2.361a4.071,4.071,0,0,1,.839.093c.324.068,1.312.274,1.44,1.249a1.248,1.248,0,0,1-.036.54h.033a1.318,1.318,0,0,1,.752.224,1.328,1.328,0,0,0,.683.278c.286,0,.534-.269.921-.8a2.852,2.852,0,0,1,2.477-1.148c.093,0,.186,0,.28.007a6.89,6.89,0,0,1,.958.135,6.577,6.577,0,0,0,.7.108,3.116,3.116,0,0,1,3.228,3.483,2.267,2.267,0,0,0,1.326,2.26,1.379,1.379,0,0,1,.761.84,1.3,1.3,0,0,1-.183,1.056,1.112,1.112,0,0,1-1,.51,3.441,3.441,0,0,1-.516-.051,2.949,2.949,0,0,1-1.566-.839,4.465,4.465,0,0,0-.627-.485c-1.307,1.534-2.29,2.166-3.342,2.166-1.031,0-2.062-.627-3.471-2.135A4.932,4.932,0,0,1,15.87,21.3a5.956,5.956,0,0,1-2.513.745,3.067,3.067,0,0,1-1.615-.46,1.142,1.142,0,0,0-.569-.2c-.163,0-.425.06-.8.573a4.361,4.361,0,0,1-3.72,1.8,2.759,2.759,0,0,0-1.918.5,1.534,1.534,0,0,1-.952.375Zm2.566-5.95c-1.015.007-1.65.033-1.913.453-.2.326.138.884.525,1.3A2.515,2.515,0,0,0,6.8,21.27a2.385,2.385,0,0,0,.5-.054A1.807,1.807,0,0,0,8.85,19.78c.066-.463-.087-.595-.968-.829-.159-.042-.315-.084-.46-.133a3.136,3.136,0,0,0-.8-.12c-.08,0-.15-.009-.207-.015Zm8.678-4.748a3.456,3.456,0,0,0-2.167,1.72,3.4,3.4,0,0,0-.114,2.94,1.312,1.312,0,0,0,1.128.937,1.472,1.472,0,0,0,.953-.428,2.285,2.285,0,0,0,.458-3.006,1.509,1.509,0,0,0-.219-.223,1.124,1.124,0,0,1-.239-1.709A2.748,2.748,0,0,1,15.029,13.937Zm6.659.456a2.23,2.23,0,0,0-1.642,1.769,2.122,2.122,0,0,0,.621,1.465,1.414,1.414,0,0,0,.92.518c.643,0,1.544-1.14,1.625-2.339a2.914,2.914,0,0,0-1.524-1.412ZM5.038,13.013a.96.96,0,0,0-.45.143c-.667.37-.611.715-.411,1.53.027.112.056.226.08.342A4.046,4.046,0,0,0,5.866,13.6C5.536,13.233,5.305,13.013,5.038,13.013Z" transform="translate(0 0)"/>
    <path class="cls-2" d="M5.2,11.049a3.2,3.2,0,0,1,1.655.419c1.911,1.149,2.052,2.617.35,3.979a16.818,16.818,0,0,1-1.557,1c.032.27.179.322.333.322.065,0,.132-.009.192-.015s.15-.011.224-.011c.995,0,2,.608,2.88.608a1.5,1.5,0,0,0,.61-.12c1.125-.493.834-2.248,1.559-3.315,1.008-1.483,1.8-2.142,2.918-2.142a3.606,3.606,0,0,1,.736.083c.5.1.976.292,1.047.825.093.709-.508.618-.965.708a3.924,3.924,0,0,0-2.889,5.4,1.78,1.78,0,0,0,1.587,1.24,1.952,1.952,0,0,0,1.286-.555,2.8,2.8,0,0,0,.539-3.661c-.288-.422-1.021-.644-.477-1.343a1.984,1.984,0,0,1,1.412-.82.831.831,0,0,1,.473.138,1.761,1.761,0,0,0,.962.364c.558,0,.929-.461,1.326-1a2.358,2.358,0,0,1,2.073-.943q.126,0,.255.007c.562.028,1.105.2,1.643.243a2.624,2.624,0,0,1,2.767,2.981,2.761,2.761,0,0,0,1.609,2.713.763.763,0,0,1,.373,1.178.625.625,0,0,1-.578.277,3.662,3.662,0,0,1-.521-.058c-.931-.138-1.36-1.082-2.324-1.436-1.244,1.52-2.209,2.284-3.207,2.284-1.043,0-2.121-.836-3.591-2.516-.58,1.145-1.08,2.414-2.237,2.964a5.527,5.527,0,0,1-2.3.7A2.552,2.552,0,0,1,12,21.156a1.607,1.607,0,0,0-.829-.271,1.538,1.538,0,0,0-1.2.778,3.882,3.882,0,0,1-3.316,1.594,3.247,3.247,0,0,0-2.228.61,1.052,1.052,0,0,1-.642.267c-.436,0-.752-.421-.872-1.026a29.716,29.716,0,0,1-.494-3.063c-.067-.734-.07-1.367-.855-1.8-.8-.445-.525-.988.076-1.5C2.524,16,2.977,15.253,1.424,14.7a.765.765,0,0,1-.372-1.019c.458-1.54,2.406-2.633,4.143-2.633M3.844,15.674a4.442,4.442,0,0,0,2.668-2.1c-.45-.492-.85-1.063-1.474-1.063a1.43,1.43,0,0,0-.692.206c-1.413.783-.538,1.9-.5,2.956m17.743,2.97h.007c.974-.007,2.022-1.4,2.117-2.806.041-.606-1.354-1.946-2.023-1.946H21.68a2.676,2.676,0,0,0-2.133,2.234,2.551,2.551,0,0,0,2.039,2.518M6.8,21.77a2.875,2.875,0,0,0,.6-.065,2.317,2.317,0,0,0,1.944-1.854c.172-1.2-.983-1.245-1.763-1.507a4.888,4.888,0,0,0-1.139-.16c-1.064.008-1.993-.008-2.428.688-.4.644.151,1.442.585,1.905a3.02,3.02,0,0,0,2.2.993M5.2,10.049C3.177,10.049.717,11.3.094,13.4a1.748,1.748,0,0,0,.995,2.246c.076.027.139.052.193.076-.069.071-.162.159-.289.267a2.183,2.183,0,0,0-.917,1.777,1.742,1.742,0,0,0,1,1.357c.238.132.272.189.331.872l.013.146A30.839,30.839,0,0,0,1.932,23.3a2.006,2.006,0,0,0,1.853,1.832,2.019,2.019,0,0,0,1.264-.484,2.29,2.29,0,0,1,1.607-.393,4.894,4.894,0,0,0,4.122-2.005c.211-.29.351-.367.395-.367a.725.725,0,0,1,.309.125,3.563,3.563,0,0,0,1.876.533,6.453,6.453,0,0,0,2.727-.794,4.7,4.7,0,0,0,2.053-2.137A5.043,5.043,0,0,0,21.484,21.4a4.843,4.843,0,0,0,3.42-1.993c.072.06.145.123.221.189a3.361,3.361,0,0,0,1.744.945l.076.011a3.85,3.85,0,0,0,.592.057,1.608,1.608,0,0,0,1.423-.743,1.791,1.791,0,0,0,.241-1.459,1.87,1.87,0,0,0-1.023-1.154,1.767,1.767,0,0,1-1.045-1.807,3.6,3.6,0,0,0-3.687-3.985,6.328,6.328,0,0,1-.646-.1,7.375,7.375,0,0,0-1.028-.143q-.154-.008-.3-.008a3.317,3.317,0,0,0-2.88,1.353,2.655,2.655,0,0,1-.529.6,1.094,1.094,0,0,1-.392-.195,1.79,1.79,0,0,0-.518-.239q0-.084-.016-.175c-.116-.881-.733-1.444-1.833-1.673a4.569,4.569,0,0,0-.941-.1c-1.751,0-2.835,1.24-3.745,2.58a5.292,5.292,0,0,0-.692,1.853c-.115.5-.235,1.018-.441,1.108a.494.494,0,0,1-.208.036A4.13,4.13,0,0,1,8.217,16.1l-.179-.056a3.279,3.279,0,0,0,1.342-2.7,3.532,3.532,0,0,0-2.015-2.736A4.2,4.2,0,0,0,5.2,10.049Zm-.606,4.209c-.1-.472-.05-.5.242-.665a.56.56,0,0,1,.207-.08.506.506,0,0,1,.166.118,4.127,4.127,0,0,1-.615.627Zm17.108.635h0Zm-7.822,4.141c-.358,0-.586-.443-.668-.633a2.909,2.909,0,0,1,.821-3.4,1.862,1.862,0,0,0,.706,1.247,1.214,1.214,0,0,1,.144.138,1.791,1.791,0,0,1-.383,2.346,1.008,1.008,0,0,1-.62.3ZM6.8,20.77a2.019,2.019,0,0,1-1.468-.677,1.508,1.508,0,0,1-.454-.73c.118-.169.872-.174,1.478-.178H6.4c.057.005.124.009.2.014a2.766,2.766,0,0,1,.668.094c.155.052.322.1.491.143a3.4,3.4,0,0,1,.608.2.661.661,0,0,1-.007.074c-.106.736-.918.966-1.164,1.019a1.882,1.882,0,0,1-.395.042Z" transform="translate(0 0)"/>
  </g>
  <g>
    <path class="cls-1" d="M50.5,61.746c-1.008,0-1.638-.726-1.686-1.942-.017-.437-.024-.873-.032-1.309a13.523,13.523,0,0,0-.809-5.349,1.519,1.519,0,0,1-.04-1.19,2.651,2.651,0,0,1,1.478-1.286,5.576,5.576,0,0,1,2.193-.46,4.7,4.7,0,0,1,3.1,1.121,2.339,2.339,0,0,0,1.57.671,4.293,4.293,0,0,0,1.418-.326,6.378,6.378,0,0,1,.989-.311A3.155,3.155,0,0,1,59.3,51.3a1.931,1.931,0,0,1,1.895,1.335,2.429,2.429,0,0,1-1.151,3.079,6.068,6.068,0,0,1-.937.324,6.469,6.469,0,0,0-.673.217c-.764.312-.858.573-.869.646s0,.355.656.884a3.046,3.046,0,0,0,1.889.581,3.56,3.56,0,0,0,1.824-.478c1.26-.764,1.416-1.175,1.116-2.934a6.734,6.734,0,0,0-.494-1.476l-.09-.215a1.856,1.856,0,0,1-.035-1.482,1.769,1.769,0,0,1,1.063-.94,1.848,1.848,0,0,1,.628-.12c.527,0,1.219.271,1.516,1.559a6.834,6.834,0,0,1,.118.774c.017.148.033.3.057.444a.661.661,0,0,0,.105.3.569.569,0,0,0,.174-.22,3.691,3.691,0,0,1,3.231-2.356,4,4,0,0,1,.706.065c2.386.428,3.813,1.527,4.362,3.358a7.111,7.111,0,0,1-.245,5.5c-.187.366-.761,1.482-1.8,1.482a1.577,1.577,0,0,1-.713-.18,1.383,1.383,0,0,1-.759-.82,2.258,2.258,0,0,1,.453-1.708l.088-.155a3.556,3.556,0,0,0-.37-4.069,1.741,1.741,0,0,0-1.143-.674c-.53,0-.974.526-1.253.968a11.309,11.309,0,0,0-1.26,3.481c-.107.438-.214.875-.338,1.307-.377,1.318-.958,1.595-1.379,1.595a1.262,1.262,0,0,1-1-.616c-.455-.625-.835-.7-1.081-.7a3.357,3.357,0,0,0-1.229.374c-.154.067-.309.135-.462.2a6,6,0,0,1-2.2.439,6.46,6.46,0,0,1-4.042-1.583l-.1-.074a1.665,1.665,0,0,1-.729-.907c-.165-.825-.459-.892-.8-.892a3.764,3.764,0,0,0-.862.136c-1.64.405-1.64.405-1.382,1.858a1.765,1.765,0,0,0,.118.325,1.321,1.321,0,0,1,.1,1.133,1.257,1.257,0,0,1-.894.607A2.487,2.487,0,0,1,50.5,61.746Zm1.185-8.563c-.071,0-.161.024-.2.364a1.333,1.333,0,0,0,.355.98.871.871,0,0,0,.592.327.682.682,0,0,0,.588-.566A3.583,3.583,0,0,0,51.688,53.183Z" transform="translate(0 0)"/>
    <path class="cls-2" d="M51.607,50.709a4.23,4.23,0,0,1,2.777,1,2.83,2.83,0,0,0,1.9.791,4.632,4.632,0,0,0,1.591-.358,6.049,6.049,0,0,1,.913-.289A2.635,2.635,0,0,1,59.3,51.8a1.422,1.422,0,0,1,1.427,1.012,1.93,1.93,0,0,1-.9,2.449c-.5.235-1.072.32-1.587.531-1.458.595-1.564,1.388-.338,2.381a3.537,3.537,0,0,0,2.2.692,4.064,4.064,0,0,0,2.083-.55c1.449-.879,1.68-1.507,1.349-3.445a8.3,8.3,0,0,0-.615-1.8,1.225,1.225,0,0,1,.736-1.761,1.344,1.344,0,0,1,.457-.09c.593,0,.882.537,1.028,1.171.089.388.106.791.169,1.185a.933.933,0,0,0,.5.761.878.878,0,0,0,.713-.533c.627-1.2,1.444-2.088,2.789-2.088a3.494,3.494,0,0,1,.618.058c1.836.33,3.4,1.1,3.972,3.01a6.65,6.65,0,0,1-.211,5.124c-.31.6-.751,1.21-1.353,1.21A1.076,1.076,0,0,1,71.855,61c-.954-.482-.422-1.252-.006-1.993a4.048,4.048,0,0,0-.434-4.647,1.777,1.777,0,0,0-3.19.36,17.948,17.948,0,0,0-1.656,4.919c-.224.785-.544,1.232-.9,1.232a.8.8,0,0,1-.6-.411,1.808,1.808,0,0,0-1.485-.9,5.548,5.548,0,0,0-1.874.6,5.463,5.463,0,0,1-2.014.4,6.009,6.009,0,0,1-3.732-1.476c-.248-.2-.591-.425-.643-.687-.2-.977-.631-1.293-1.29-1.293a4.241,4.241,0,0,0-.983.151c-1.873.463-2.078.6-1.754,2.432.1.556.791,1.215-.3,1.494a1.993,1.993,0,0,1-.489.067c-.712,0-1.148-.492-1.186-1.462-.09-2.307.083-4.619-.883-6.838-.392-.9.43-1.5,1.176-1.817a5.1,5.1,0,0,1,2-.42m.832,4.645a1.169,1.169,0,0,0,1.087-1.06c.006-.429-1.314-1.612-1.833-1.612h-.01c-.5.015-.65.429-.689.814a1.722,1.722,0,0,0,1.442,1.859h0m-.832-5.645h0a6.068,6.068,0,0,0-2.389.5,3.049,3.049,0,0,0-1.746,1.561,2.01,2.01,0,0,0,.045,1.575,13.157,13.157,0,0,1,.768,5.156c.008.44.016.881.033,1.321A2.2,2.2,0,0,0,50.5,62.246a3,3,0,0,0,.736-.1,1.744,1.744,0,0,0,1.219-.871,1.778,1.778,0,0,0-.093-1.551,2.192,2.192,0,0,1-.086-.22,4.746,4.746,0,0,1-.11-.948,7.527,7.527,0,0,1,1.12-.334,3.367,3.367,0,0,1,.743-.122.416.416,0,0,1,.143.016,1.129,1.129,0,0,1,.166.473,2.113,2.113,0,0,0,.913,1.205l.092.071A6.936,6.936,0,0,0,59.7,61.56a6.494,6.494,0,0,0,2.381-.474c.159-.063.319-.132.479-.2a3.15,3.15,0,0,1,1.029-.332c.1,0,.319,0,.677.492a1.725,1.725,0,0,0,1.407.822c.593,0,1.4-.34,1.86-1.957.125-.438.234-.881.342-1.324a10.97,10.97,0,0,1,1.2-3.335c.291-.46.6-.735.831-.735a1.279,1.279,0,0,1,.77.508,3.054,3.054,0,0,1,.306,3.491l-.086.152a2.669,2.669,0,0,0-.5,2.1A1.861,1.861,0,0,0,71.4,61.888a2.071,2.071,0,0,0,.938.234c.891,0,1.645-.59,2.242-1.754a7.588,7.588,0,0,0,.279-5.869c-.61-2.029-2.165-3.242-4.753-3.706a4.515,4.515,0,0,0-.795-.073,3.8,3.8,0,0,0-3.142,1.737c-.016-.094-.034-.19-.057-.287-.4-1.757-1.535-1.947-2-1.947a2.345,2.345,0,0,0-.8.15,2.289,2.289,0,0,0-1.35,1.209A2.372,2.372,0,0,0,62,53.457l.09.215a6.393,6.393,0,0,1,.463,1.367c.283,1.663.124,1.812-.882,2.423a3.053,3.053,0,0,1-1.565.4,2.543,2.543,0,0,1-1.574-.469,2.349,2.349,0,0,1-.418-.413,2.311,2.311,0,0,1,.5-.265,6.134,6.134,0,0,1,.62-.2,6.6,6.6,0,0,0,1.013-.352,2.931,2.931,0,0,0,1.406-3.709A2.431,2.431,0,0,0,59.3,50.8a3.646,3.646,0,0,0-.7.073,6.481,6.481,0,0,0-1,.309l-.061.023a3.682,3.682,0,0,1-1.244.3,1.827,1.827,0,0,1-1.246-.551,5.2,5.2,0,0,0-3.428-1.241Zm.818,4.642a.717.717,0,0,1-.317-.306,3.752,3.752,0,0,1,.317.306h0Z" transform="translate(0 0)"/>
  </g>
  <g>
    <path class="cls-1" d="M62.239,43.792a1.5,1.5,0,0,1-1.343-.763c-.255-.411-.489-.835-.762-1.328l-.182-.326a6.267,6.267,0,0,1-2.937.833,4.794,4.794,0,0,1-2.856-.985.911.911,0,0,0-.123-.08c0,.006-.039.022-.1.061-1.709,1.143-2.832,1.762-3.872,1.762-1.216,0-2.144-.808-3.529-2.5l-.368.283A15.808,15.808,0,0,1,44.39,42a3.8,3.8,0,0,1-1.889.512h0a3.587,3.587,0,0,1-3.52-2.86,6.857,6.857,0,0,1,.319-4.314,2.95,2.95,0,0,1,2.688-2.092,4.218,4.218,0,0,1,1.93.553,2.317,2.317,0,0,0,.93.165,2.741,2.741,0,0,1,1.627.45c.017-.036.032-.069.047-.1.212-.418.606-1.2,1.433-1.2a1.55,1.55,0,0,1,.7.184,1.875,1.875,0,0,1,1.036,1.109,1.687,1.687,0,0,1-.229,1.354,4.846,4.846,0,0,0-.471,2.955,1.686,1.686,0,0,0,1.5,1.693,1.471,1.471,0,0,0,.3.034c.424,0,.6-.242.953-.881.088-.159.178-.32.276-.474a2.524,2.524,0,0,0,.218-1.656,3.665,3.665,0,0,1,.235-2.023c0-.023-.013-.147-.022-.229a1.824,1.824,0,0,1,.057-.867,1.758,1.758,0,0,1,1.736-1.276,2.825,2.825,0,0,1,.528.053,1.585,1.585,0,0,1,1.211.814,1.7,1.7,0,0,1-.07,1.518,4.518,4.518,0,0,0-.352,2.522,1.832,1.832,0,0,0,1.393,1.806,1.741,1.741,0,0,0,.337.035c.613,0,1.08-.406,1.514-1.316a4.582,4.582,0,0,0,.284-.953c.043-.191.086-.383.139-.571a1.368,1.368,0,0,0,.035-1.007.961.961,0,0,0-.654-.336l-.105-.021c-.466-.089-1.557-.3-1.348-1.545a1.72,1.72,0,0,1,1.875-1.449h.014a4.313,4.313,0,0,1,.754.074,4.132,4.132,0,0,0,.456.059l.652.04c.481.032.963.064,1.442.064a5.9,5.9,0,0,0,2.187-.355,6.046,6.046,0,0,1,1.715-.312l.3-.026c.051,0,.1-.007.148-.007A1.3,1.3,0,0,1,68,33.1a1.174,1.174,0,0,1-.8,1.377,4.411,4.411,0,0,1-2.145.43,6.784,6.784,0,0,0-.909.053c-1.853.276-1.853.276-1.883,2a20.22,20.22,0,0,0,.062,2.335c.078.787.173.824.46.824l.224-.007a1.282,1.282,0,0,1,.952.347,1.843,1.843,0,0,1,.365,1.4,1.593,1.593,0,0,1-1.191,1.787A3.828,3.828,0,0,1,62.239,43.792ZM42.065,36.371a2.753,2.753,0,0,0-.432,1.936c.1.931.682,1.66,1.332,1.66a1.682,1.682,0,0,0,1.551-1.554,3.152,3.152,0,0,0,.073-1.124,4.045,4.045,0,0,1-1.261.308C42.631,37.6,42.339,37.168,42.065,36.371Z" transform="translate(0 0)"/>
    <path class="cls-2" d="M66.7,32.625a.8.8,0,0,1,.82.606c.13.491-.268.655-.63.847-.894.474-1.88.249-2.816.389-2.115.316-2.271.406-2.308,2.49a20.516,20.516,0,0,0,.064,2.394c.059.6.122,1.274.957,1.274q.051,0,.106,0c.041,0,.08,0,.117,0,.854,0,.824.658.817,1.289-.006.586-.087,1.085-.809,1.261a3.4,3.4,0,0,1-.777.124,1,1,0,0,1-.918-.525c-.374-.6-.7-1.233-1.175-2.071a6.24,6.24,0,0,1-3.13,1.014,4.269,4.269,0,0,1-2.563-.889.566.566,0,0,0-.792-.031c-1.641,1.1-2.691,1.678-3.593,1.678-1.1,0-1.979-.86-3.444-2.69a28.178,28.178,0,0,1-2.484,1.79,3.281,3.281,0,0,1-1.639.446,3.078,3.078,0,0,1-3.031-2.466,6.4,6.4,0,0,1,.288-4c.531-1.193,1.268-1.8,2.231-1.8a3.718,3.718,0,0,1,1.7.5c.889.467,2.09-.134,2.826.934a.081.081,0,0,0,.064.043c.131,0,.283-.463.392-.677.236-.467.512-.923.986-.923a1.048,1.048,0,0,1,.472.129,1.145,1.145,0,0,1,.6,1.764,5.275,5.275,0,0,0-.538,3.252,2.187,2.187,0,0,0,1.9,2.138,1.974,1.974,0,0,0,.4.044c.952,0,1.191-.869,1.651-1.585.766-1.194-.116-2.53.479-3.727.145-.29-.1-.733.057-1.146a1.265,1.265,0,0,1,1.267-.949,2.351,2.351,0,0,1,.435.044,1.029,1.029,0,0,1,.783,1.623,5.064,5.064,0,0,0-.4,2.792,2.3,2.3,0,0,0,1.793,2.245,2.236,2.236,0,0,0,.434.045c.98,0,1.553-.737,1.964-1.6a10.01,10.01,0,0,0,.453-1.6c.273-.967.205-1.728-1-1.97-.513-.1-1.195-.17-1.057-.993.129-.773.716-1.01,1.4-1.031H59.1c.374,0,.75.113,1.127.133.708.038,1.416.1,2.122.1a6.4,6.4,0,0,0,2.368-.389A7.023,7.023,0,0,1,66.6,32.63q.052,0,.1,0M42.965,40.466H43A2.169,2.169,0,0,0,45.007,38.5a2.73,2.73,0,0,0-.114-1.858,5.766,5.766,0,0,1-1.565.449c-.542,0-.681-.472-1.05-1.726a3.278,3.278,0,0,0-1.143,2.987,2.112,2.112,0,0,0,1.828,2.108M66.7,31.625h0q-.1,0-.194.009l-.3.025A6.515,6.515,0,0,0,64.352,32a5.344,5.344,0,0,1-2.005.321c-.458,0-.921-.03-1.41-.062-.219-.014-.439-.029-.658-.04a3.683,3.683,0,0,1-.4-.053,4.677,4.677,0,0,0-.779-.081h-.086a2.2,2.2,0,0,0-2.352,1.866c-.132.79.064,1.8,1.747,2.12l.1.019a.854.854,0,0,1,.335.118h0a1.812,1.812,0,0,1-.1.6c-.055.2-.1.395-.145.594a4.262,4.262,0,0,1-.248.85c-.491,1.031-.877,1.031-1.062,1.031a1.247,1.247,0,0,1-.24-.026c-.215-.042-.868-.172-.992-1.367a4.047,4.047,0,0,1,.3-2.253,2.183,2.183,0,0,0,.067-1.96A2.116,2.116,0,0,0,54.863,32.6a3.363,3.363,0,0,0-.621-.062,2.326,2.326,0,0,0-2.29,2.7l.01.079a4.281,4.281,0,0,0-.225,2.156,2.083,2.083,0,0,1-.14,1.346c-.1.163-.2.333-.293.5-.333.6-.4.623-.516.623a1,1,0,0,1-.2-.023,1.206,1.206,0,0,1-1.105-1.247,4.261,4.261,0,0,1,.4-2.657,2.168,2.168,0,0,0,.278-1.748,2.346,2.346,0,0,0-1.29-1.415,2.041,2.041,0,0,0-.924-.237,1.974,1.974,0,0,0-1.68,1.1,3.944,3.944,0,0,0-1.4-.259,2.059,2.059,0,0,1-.722-.108,4.644,4.644,0,0,0-2.162-.61c-.949,0-2.266.414-3.145,2.389a7.346,7.346,0,0,0-.352,4.623A4.084,4.084,0,0,0,42.5,43.011a4.3,4.3,0,0,0,2.137-.578,16.093,16.093,0,0,0,1.822-1.277c1.166,1.386,2.2,2.31,3.608,2.31,1.126,0,2.275-.6,3.962-1.722a5.233,5.233,0,0,0,2.986.964,6.412,6.412,0,0,0,2.733-.672c.252.456.475.857.722,1.256a2,2,0,0,0,1.768,1,4.284,4.284,0,0,0,1.013-.153,2.057,2.057,0,0,0,1.573-2.221,2.346,2.346,0,0,0-.509-1.8,1.764,1.764,0,0,0-1.308-.5c-.045,0-.092,0-.14,0-.02-.11-.035-.258-.045-.36a19.75,19.75,0,0,1-.06-2.286,5.306,5.306,0,0,1,.113-1.254,7.722,7.722,0,0,1,1.344-.265,6.586,6.586,0,0,1,.843-.047,4.765,4.765,0,0,0,2.294-.448l.073-.038a1.662,1.662,0,0,0,1.056-1.949A1.793,1.793,0,0,0,66.7,31.625Z" transform="translate(0 0)"/>
  </g>
  <g>
    <path class="cls-1" d="M12.941,47.085a1.494,1.494,0,0,1-1.453-1.027c-.13-.348-.224-.348-.286-.348a2.207,2.207,0,0,0-.472.094l-.154.04c-.166.042-.331.094-.5.145a4.808,4.808,0,0,1-1.453.286,2.737,2.737,0,0,1-.337-.021,4.359,4.359,0,0,1-3.941-4.166c.049-3.873,1.405-6.625,4.146-8.414.14-.09.284-.171.429-.251l.215-.122a3.036,3.036,0,0,1,1.53-.461,2.263,2.263,0,0,1,1.492.563,1.524,1.524,0,0,1,.173,1.916l-.086.208a2.317,2.317,0,0,1-2.021,1.6,1.6,1.6,0,0,1-.747-.185,1.589,1.589,0,0,0-.689-.218c-.344,0-.532.3-.852.952l-.069.139A7.455,7.455,0,0,0,7.1,41.965c.083.835.576,1.351,1.647,1.721A2,2,0,0,0,9.4,43.8a2.932,2.932,0,0,0,1.768-.736c.369-.288.3-.905.045-1.341a.272.272,0,0,0-.074-.095,1.7,1.7,0,0,0-.4.176,3.9,3.9,0,0,1-.373.179c-.106.041-.217.092-.329.143a2.922,2.922,0,0,1-1.166.344,1.242,1.242,0,0,1-1.19-.894A1.389,1.389,0,0,1,7.686,40.3c.36-.609,1.209-.71,1.771-.776a1.388,1.388,0,0,0,.94-.449,2.329,2.329,0,0,1,1.806-.935,3.5,3.5,0,0,1,1.777.6,1.573,1.573,0,0,0,.786.257c.567,0,.873-.545,1.028-1a4.884,4.884,0,0,1,3.516-3.28,2.72,2.72,0,0,1,.751-.111,1.926,1.926,0,0,1,1.551.714,2.264,2.264,0,0,1,.354,1.966,4.469,4.469,0,0,1-2.61,2.865c-.105.056-.216.11-.327.164-.3.146-.64.311-.69.48a.863.863,0,0,0,.174.563c.433.735.845.739.982.739h0a1.783,1.783,0,0,0,.917-.333,12.724,12.724,0,0,0,1.7-1.392c.257-.235.514-.47.776-.694a1.493,1.493,0,0,1,.93-.443,1,1,0,0,1,.794.42,1.139,1.139,0,0,1-.123,1.454A7.752,7.752,0,0,1,19.578,44.5a4.452,4.452,0,0,1-.87.091,2.846,2.846,0,0,1-2.8-1.9c-.417-1.059-.965-1.205-1.5-1.205a2.961,2.961,0,0,0-.37.025c.042.267.067.531.093.789a4.081,4.081,0,0,0,.508,1.925,1.851,1.851,0,0,1,.269,1.472,1.741,1.741,0,0,1-.882,1.1A2.348,2.348,0,0,1,12.941,47.085Z" transform="translate(0 0)"/>
    <path class="cls-2" d="M10.667,33.34a1.775,1.775,0,0,1,1.17.444c.521.44.134,1.066-.058,1.563a1.846,1.846,0,0,1-1.555,1.284A1.1,1.1,0,0,1,9.71,36.5a2.033,2.033,0,0,0-.921-.275c-.743,0-1.042.717-1.368,1.367A7.976,7.976,0,0,0,6.6,42.015,2.51,2.51,0,0,0,8.58,44.159,2.486,2.486,0,0,0,9.4,44.3a3.442,3.442,0,0,0,2.074-.842,1.539,1.539,0,0,0,.17-1.988.563.563,0,0,0-.495-.339,3.2,3.2,0,0,0-.965.386,4.228,4.228,0,0,1-1.313.453c-.292,0-.55-.145-.727-.581-.447-1.1.523-1.264,1.372-1.365a1.893,1.893,0,0,0,1.262-.62,1.847,1.847,0,0,1,1.425-.76,3.08,3.08,0,0,1,1.522.53,2.058,2.058,0,0,0,1.042.328c.664,0,1.2-.46,1.5-1.342A4.407,4.407,0,0,1,19.449,35.2a2.212,2.212,0,0,1,.613-.092,1.514,1.514,0,0,1,1.419,2.066,3.973,3.973,0,0,1-2.362,2.539c-.737.4-1.773.65-1.037,1.9A1.668,1.668,0,0,0,19.5,42.6a2.246,2.246,0,0,0,1.185-.411,24.011,24.011,0,0,0,2.537-2.128,1.049,1.049,0,0,1,.6-.323.522.522,0,0,1,.405.234c.24.3.047.583-.142.851a7.322,7.322,0,0,1-4.606,3.184,3.926,3.926,0,0,1-.772.081A2.356,2.356,0,0,1,16.375,42.5a1.988,1.988,0,0,0-1.96-1.522,4.2,4.2,0,0,0-.961.128c.3,1.134.079,2.314.772,3.383a1.252,1.252,0,0,1-.431,1.86,1.854,1.854,0,0,1-.854.235.993.993,0,0,1-.984-.7c-.2-.524-.45-.673-.755-.673a3.327,3.327,0,0,0-.75.15,7.438,7.438,0,0,1-1.826.415,2.233,2.233,0,0,1-.276-.017,3.862,3.862,0,0,1-3.5-3.663c.041-3.232,1.026-6.113,3.919-8,.2-.131.415-.24.622-.361a2.556,2.556,0,0,1,1.278-.393m8.077,4.753c.136,0,.231-.152.336-.254.152-.143.146-.3-.047-.343a.166.166,0,0,0-.039,0,.475.475,0,0,0-.313.158c-.078.1-.141.345-.1.378a.266.266,0,0,0,.161.064M10.667,32.34h0a3.524,3.524,0,0,0-1.784.53c-.068.04-.138.079-.207.117-.154.086-.308.173-.456.269C5.33,35.143,3.9,38.03,3.848,42.083a4.863,4.863,0,0,0,4.379,4.668,3.227,3.227,0,0,0,.4.025,5.28,5.28,0,0,0,1.6-.308c.157-.049.315-.1.473-.138l.158-.041.167-.043a1.993,1.993,0,0,0,1.916,1.341,2.85,2.85,0,0,0,1.329-.355,2.234,2.234,0,0,0,1.13-1.416,2.342,2.342,0,0,0-.334-1.869,3.671,3.671,0,0,1-.43-1.7q-.012-.127-.025-.256c.3.036.567.2.835.878a3.361,3.361,0,0,0,3.264,2.22,4.94,4.94,0,0,0,.969-.1A8.335,8.335,0,0,0,24.9,41.4a1.577,1.577,0,0,0,.1-2.056,1.489,1.489,0,0,0-1.183-.606,1.943,1.943,0,0,0-1.254.563c-.268.229-.529.468-.791.707a12.39,12.39,0,0,1-1.635,1.338,1.29,1.29,0,0,1-.648.255c-.175,0-.361-.166-.553-.493a1.524,1.524,0,0,1-.075-.143c.106-.064.263-.14.379-.2s.234-.114.345-.173A5.017,5.017,0,0,0,22.454,37.4,2.755,2.755,0,0,0,22,35.01a2.418,2.418,0,0,0-1.943-.9,3.215,3.215,0,0,0-.89.131,5.42,5.42,0,0,0-3.85,3.6c-.085.248-.269.664-.555.664a1.131,1.131,0,0,1-.53-.187,3.971,3.971,0,0,0-2.034-.671,2.834,2.834,0,0,0-2.184,1.109.877.877,0,0,1-.621.278,3.675,3.675,0,0,0-1.632.482,7.191,7.191,0,0,1,.549-1.469l.071-.142a2.579,2.579,0,0,1,.412-.679,1.408,1.408,0,0,1,.449.167,2.093,2.093,0,0,0,.978.242,2.813,2.813,0,0,0,2.488-1.925c.024-.062.051-.126.079-.191a1.994,1.994,0,0,0-.31-2.5,2.79,2.79,0,0,0-1.815-.68ZM8.869,42.97a3.364,3.364,0,0,0,1.373-.389c.1-.047.206-.094.3-.132a3.744,3.744,0,0,0,.352-.165c.04.18.024.335-.04.384A2.466,2.466,0,0,1,9.4,43.3a1.481,1.481,0,0,1-.491-.086,2.668,2.668,0,0,1-.928-.494,1.66,1.66,0,0,0,.891.249Z" transform="translate(0 0)"/>
  </g>
  <g>
    <path class="cls-1" d="M7.947,63.608a2.463,2.463,0,0,1-1.077-.257A4.867,4.867,0,0,1,4.831,59.13c.367-2.853,4-6.109,6.823-6.113,1,0,1.635.283,1.713,1.69.031.565.1,1.127.178,1.69a15.077,15.077,0,0,1,.182,3.014.887.887,0,0,0,.792,1.027,2.753,2.753,0,0,0,.557.082.676.676,0,0,0,.078,0c-.018-.033-.018-.17-.087-.453a8.989,8.989,0,0,1-.193-1.866,8.937,8.937,0,0,0-.126-1.478,3.791,3.791,0,0,1,.059-1.644,1.6,1.6,0,0,1,1.565-1.33c.048,0,.1,0,.147.006A1.189,1.189,0,0,1,17.636,54.9a9.688,9.688,0,0,1,1.034-1.538,2.482,2.482,0,0,1,1.852-1.119c.477,0,1.174.225,1.795,1.3a15.2,15.2,0,0,1,2.171,7.508c0,.1,0,.2-.009.308l-.008.184a1.417,1.417,0,0,1-1.565,1.454,1.288,1.288,0,0,1-1-.412,1.453,1.453,0,0,1-.308-1.133,10.345,10.345,0,0,0-.5-4.257,2.677,2.677,0,0,0-.825-1.494,3.7,3.7,0,0,0-.816,1.77c-.081.3-.162.591-.265.875a3.516,3.516,0,0,0-.141.741,3.369,3.369,0,0,1-.287,1.171,2.262,2.262,0,0,0-.158.7,1.863,1.863,0,0,1-1.887,1.94,2.72,2.72,0,0,1-1.423-.462l-.2.043a12.059,12.059,0,0,1-1.773.223c-1,0-1.385-.5-1.965-1.493a1.754,1.754,0,0,0-.338.4c-.088.124-.176.247-.273.359A3.9,3.9,0,0,1,7.947,63.608ZM10.1,56.55a3.839,3.839,0,0,0-2.091,1.863,3.213,3.213,0,0,0,.17,2.326A3.931,3.931,0,0,0,10.1,56.55Z" transform="translate(0 0)"/>
    <path class="cls-2" d="M20.522,52.74c.492,0,.955.346,1.362,1.048a14.639,14.639,0,0,1,2.1,7.263c0,.159-.014.319-.016.478-.011.716-.492.963-1.067.963h-.043c-.57-.012-.827-.433-.767-.991a10.838,10.838,0,0,0-.517-4.461,2.773,2.773,0,0,0-1.346-1.955c-1.059.741-1.116,2.009-1.506,3.085a17.079,17.079,0,0,1-.4,1.856c-.356.7-.035,1.683-.845,2.154a1.478,1.478,0,0,1-.755.211,2.391,2.391,0,0,1-1.253-.446.2.2,0,0,0-.111-.026,2.379,2.379,0,0,0-.342.06,11.944,11.944,0,0,1-1.692.216c-.819,0-1.04-.385-1.726-1.579-.669.023-.872.608-1.228,1.015a3.454,3.454,0,0,1-2.423,1.477,1.963,1.963,0,0,1-.86-.207,4.418,4.418,0,0,1-1.759-3.707c.338-2.627,3.726-5.674,6.328-5.677h.007c.792,0,1.146.147,1.206,1.218a36.067,36.067,0,0,1,.359,4.641,1.38,1.38,0,0,0,1.182,1.55,3.191,3.191,0,0,0,.665.093c.521,0,.668-.29.478-1.075-.268-1.106-.1-2.225-.316-3.323a3.3,3.3,0,0,1,.053-1.423,1.11,1.11,0,0,1,1.08-.953q.053,0,.109,0c.655.052.636.607.711,1.059.062.374-.174.787.315,1.279a7.658,7.658,0,0,1,1.553-2.915,2.038,2.038,0,0,1,1.464-.933M7.952,61.482c2.319-1.4,3.161-3.179,2.507-5.644-3.021,1.283-3.772,2.878-2.507,5.644M20.522,51.74h0a2.947,2.947,0,0,0-2.242,1.3q-.312.387-.57.766a1.576,1.576,0,0,0-1.152-.558c-.064-.005-.127-.007-.187-.007a2.1,2.1,0,0,0-2.049,1.7,4.292,4.292,0,0,0-.065,1.867,8.653,8.653,0,0,1,.117,1.4,10.46,10.46,0,0,0,.151,1.71c-.251-.076-.32-.2-.3-.477a15.413,15.413,0,0,0-.185-3.116c-.074-.572-.144-1.112-.174-1.651-.106-1.917-1.234-2.162-2.2-2.162-3.095,0-6.925,3.431-7.327,6.549A5.38,5.38,0,0,0,6.652,63.8a2.966,2.966,0,0,0,1.295.306,4.354,4.354,0,0,0,3.176-1.818c.064-.073.124-.15.183-.229a2.214,2.214,0,0,0,2.018,1.134,12.263,12.263,0,0,0,1.853-.229l.039-.007a3.054,3.054,0,0,0,1.506.433A2.355,2.355,0,0,0,19.1,61.015a2.067,2.067,0,0,1,.11-.537,3.851,3.851,0,0,0,.337-1.337,3.163,3.163,0,0,1,.114-.63c.112-.309.2-.617.277-.915a6.251,6.251,0,0,1,.369-1.1,5.192,5.192,0,0,1,.313.838,9.853,9.853,0,0,1,.478,4.056,1.945,1.945,0,0,0,.43,1.517,1.763,1.763,0,0,0,1.31.581H22.9a1.922,1.922,0,0,0,2.066-1.948c0-.057,0-.115.007-.172.006-.111.011-.221.01-.332a15.693,15.693,0,0,0-2.238-7.754,2.583,2.583,0,0,0-2.227-1.547ZM8.446,59.9a2.221,2.221,0,0,1,.031-1.3,2.737,2.737,0,0,1,1.2-1.239A3.247,3.247,0,0,1,8.446,59.9Z" transform="translate(0 0)"/>
  </g>
  <g>
    <path class="cls-1" d="M99.642,41.539a1.506,1.506,0,0,1-1.487-1.317,20.6,20.6,0,0,1-.4-2.9,24.326,24.326,0,0,1-.015-2.691c.022-.575-.086-.772-.777-.805l-.108,0c-.116,0-.242.006-.37.013-.152.007-.309.015-.461.015a1.718,1.718,0,0,1-1.281-.414,1.344,1.344,0,0,1-.344-1.019c.037-1.248.773-1.434,1.208-1.434a3.519,3.519,0,0,1,.868.15,2.788,2.788,0,0,0,.583.114c.864-.079,1.7-.113,2.527-.146,1.062-.043,2.16-.087,3.216-.229a11.227,11.227,0,0,1,1.5-.14,3.071,3.071,0,0,1,2.61,1.273,1.308,1.308,0,0,0,.507.225c.484.151,1.294.4,1.337,1.4.055,1.276-.9,1.785-1.6,2.156-.157.083-.314.166-.461.257a5.58,5.58,0,0,1-.582.3c-.693.322-.843.458-.8.725a2.144,2.144,0,0,0,1.585,1.536,4.388,4.388,0,0,0,1.395.243,3.951,3.951,0,0,0,1.69-.4,1.85,1.85,0,0,1,.758-.174,1.1,1.1,0,0,1,1.131.874c.236.961-.627,1.315-1.041,1.485l-.1.042a6.669,6.669,0,0,1-2.595.516,6.863,6.863,0,0,1-4.813-1.954c-2.526-2.51-2.71-3.365-.442-6.1l-.312.023c-.925.064-1.35.143-1.542.623-.706,1.758-.681,3.168.078,4.313a2.255,2.255,0,0,1,.274,1.868A1.637,1.637,0,0,1,99.9,41.521,2.006,2.006,0,0,1,99.642,41.539Z" transform="translate(0 0)"/>
    <path class="cls-2" d="M104.3,31.233a2.562,2.562,0,0,1,2.215,1.078c.425.551,1.694.285,1.74,1.346.051,1.2-1.032,1.472-1.829,1.967-.65.4-1.754.6-1.616,1.523a2.567,2.567,0,0,0,1.922,1.937,4.894,4.894,0,0,0,1.552.269,4.445,4.445,0,0,0,1.9-.442,1.356,1.356,0,0,1,.548-.128.609.609,0,0,1,.646.493c.145.589-.4.759-.852.948a6.2,6.2,0,0,1-2.4.477,6.349,6.349,0,0,1-4.461-1.809c-2.552-2.537-2.541-3,.238-6.192a2.052,2.052,0,0,0-.36-.167l-.017,0c-1.035.277-2.505-.1-2.974,1.066a5.011,5.011,0,0,0,.125,4.775,1.818,1.818,0,0,1,.193,1.545c-.109.629-.361,1.012-1.031,1.1a1.431,1.431,0,0,1-.194.014,1.013,1.013,0,0,1-1-.924,20.13,20.13,0,0,1-.388-2.828,23.756,23.756,0,0,1-.013-2.636c.034-.9-.337-1.279-1.253-1.324-.043,0-.087,0-.133,0-.255,0-.549.028-.831.028-.6,0-1.148-.126-1.125-.917.022-.749.318-.949.708-.949.448,0,1.022.264,1.45.264.029,0,.057,0,.085,0,1.9-.178,3.834-.122,5.725-.376a10.983,10.983,0,0,1,1.429-.136m1.1,3.36a.5.5,0,0,0,.371-.241c.061-.156-.007-.267-.207-.268h-.005a.6.6,0,0,0-.395.112.383.383,0,0,0,.081.359.34.34,0,0,0,.154.039m-1.1-4.36a11.083,11.083,0,0,0-1.473.133l-.09.012c-1.032.139-2.07.181-3.169.225-.822.033-1.671.067-2.516.146a3.115,3.115,0,0,1-.449-.1,3.938,3.938,0,0,0-.993-.167c-.8,0-1.666.5-1.708,1.919a1.83,1.83,0,0,0,.484,1.382,2.2,2.2,0,0,0,1.64.566c.161,0,.325-.008.485-.015.12-.006.237-.012.346-.012l.084,0a1.306,1.306,0,0,1,.291.04,1.186,1.186,0,0,1,.011.247,24.646,24.646,0,0,0,.015,2.747,21.025,21.025,0,0,0,.409,2.969,2,2,0,0,0,1.975,1.71,2.43,2.43,0,0,0,.329-.023,2.1,2.1,0,0,0,1.88-1.923,3.008,3.008,0,0,0-.079-1.771,17.105,17.105,0,0,0,1.185,1.279,7.366,7.366,0,0,0,5.166,2.1,7.161,7.161,0,0,0,2.788-.555l.1-.04a1.77,1.77,0,0,0,1.338-2.068,1.6,1.6,0,0,0-1.617-1.254,2.355,2.355,0,0,0-.969.221,3.461,3.461,0,0,1-1.479.349,3.893,3.893,0,0,1-1.236-.218c-.409-.136-1.1-.453-1.236-1.069a4.085,4.085,0,0,1,.507-.264,5.883,5.883,0,0,0,.635-.328c.137-.085.284-.162.431-.24a2.785,2.785,0,0,0,1.87-2.619,2.033,2.033,0,0,0-1.687-1.86c-.095-.03-.232-.072-.3-.1a3.529,3.529,0,0,0-2.968-1.418Zm-3.01,4.259q.082-.253.189-.518c.039-.1.112-.159.278-.206a8.567,8.567,0,0,0-.467.724Z" transform="translate(0 0)"/>
  </g>
  <g>
    <path class="cls-1" d="M132.765,41.025a.518.518,0,0,1-.128-.018,2.622,2.622,0,0,0-.274-.048,2.994,2.994,0,0,1-1.419-.492,2.676,2.676,0,0,0-1.706-.651,4.573,4.573,0,0,0-1.771.447,3.68,3.68,0,0,1-1.458.283h0a4.6,4.6,0,0,1-3.99-2.211,3.2,3.2,0,0,1-.061-3.43,4.894,4.894,0,0,1,4.013-2.481h.1a6.474,6.474,0,0,1,2.377.673,5.168,5.168,0,0,0,1.658.521h0a3.839,3.839,0,0,0,1.543-.522,5.623,5.623,0,0,1,2.317-.733l.192,0c1.948,0,2.8.763,3.358,3.023a4.53,4.53,0,0,1-.653,3.961,4.959,4.959,0,0,1-4.04,1.678Zm1.262-5.58c-1.271,0-2.339.688-2.382,1.533a1.433,1.433,0,0,0,1.556,1.611l.121,0a2.041,2.041,0,0,0,1.474-.587,1.183,1.183,0,0,0,.342-.89l-.014-.292c-.037-.937-.133-1.281-.6-1.344A3.629,3.629,0,0,0,134.027,35.445Zm-6.752.058a3.325,3.325,0,0,0-1.073.234,4.786,4.786,0,0,1-1.259.333c-.159.014-.246.021-.273.568A1.393,1.393,0,0,0,125,37.706a1.564,1.564,0,0,0,1.163.4l.246-.011a1.976,1.976,0,0,0,.263-.025,1.922,1.922,0,0,0,1.325-.795,1.344,1.344,0,0,0,.1-1.108C127.922,35.617,127.643,35.5,127.275,35.5Z" transform="translate(0 0)"/>
    <path class="cls-2" d="M134.167,32.863c1.723,0,2.364.6,2.872,2.644.718,2.889-.941,5.019-4.208,5.019h-.062a3.756,3.756,0,0,1-1.516-.451,3.168,3.168,0,0,0-2.015-.757,5.061,5.061,0,0,0-1.967.487,3.208,3.208,0,0,1-1.262.242,4.092,4.092,0,0,1-3.541-1.93,2.69,2.69,0,0,1-.1-2.927,4.352,4.352,0,0,1,3.6-2.265h.093c1.455.033,2.773,1.138,4.025,1.193l.07,0c1.146,0,2.388-1.223,3.826-1.256l.182,0m-.845,6.23a2.119,2.119,0,0,0,2.313-2.008c-.049-.8.044-1.952-1.044-2.1a4.188,4.188,0,0,0-.565-.039c-1.577,0-2.825.914-2.88,2.008a1.924,1.924,0,0,0,2.028,2.135q.074,0,.148,0m-7.163-.483.126,0a4.388,4.388,0,0,0,.476-.043c1.447-.283,2.179-1.314,1.806-2.54A1.253,1.253,0,0,0,127.274,35a3.765,3.765,0,0,0-1.243.264,4.347,4.347,0,0,1-1.131.3c-.625.053-.706.544-.73,1.042a1.789,1.789,0,0,0,1.989,1.995m8.007-6.747h0l-.2,0a6.006,6.006,0,0,0-2.525.783,3.77,3.77,0,0,1-1.279.472,4.814,4.814,0,0,1-1.508-.481,6.866,6.866,0,0,0-2.564-.714h-.116a5.349,5.349,0,0,0-4.424,2.7,3.677,3.677,0,0,0,.023,3.934,5.059,5.059,0,0,0,4.439,2.491,4.184,4.184,0,0,0,1.655-.323,4.109,4.109,0,0,1,1.574-.407,2.177,2.177,0,0,1,1.4.544,3.4,3.4,0,0,0,1.654.593c.085.013.161.022.219.036a1.136,1.136,0,0,0,.253.035h.07a5.441,5.441,0,0,0,4.434-1.87,5.014,5.014,0,0,0,.745-4.39c-.522-2.1-1.347-3.4-3.843-3.4Zm-.845,6.23-.1,0c-1.016-.054-1.1-.646-1.082-1.087.025-.5.8-1.058,1.882-1.058a3.2,3.2,0,0,1,.43.029.255.255,0,0,1,.068.016,3.2,3.2,0,0,1,.1.851c0,.1.008.207.014.3a.681.681,0,0,1-.207.518,1.555,1.555,0,0,1-1.108.429Zm-8.146-1.546a5.5,5.5,0,0,0,1.125-.314l.069-.025a2.782,2.782,0,0,1,.9-.2h0c.179,0,.241,0,.335.312a.85.85,0,0,1-.048.706,1.444,1.444,0,0,1-.993.562,1.412,1.412,0,0,1-.192.016l-.176.012h-.043a1.11,1.11,0,0,1-.8-.249.965.965,0,0,1-.189-.7c0-.045,0-.083.007-.115Zm.026-.17h0Z" transform="translate(0 0)"/>
  </g>
  <g>
    <path class="cls-1" d="M115.477,41.253a1.934,1.934,0,0,1-1.713-1.243,18.71,18.71,0,0,1-2.034-7.276,1.742,1.742,0,0,1,1.529-2.056,6.547,6.547,0,0,1,1.273-.124,12.772,12.772,0,0,1,4.021.861c.408.135.816.27,1.226.39a1.39,1.39,0,0,1,.925.975,2.641,2.641,0,0,1-.446,2.32,2.555,2.555,0,0,1-.872.635,2.4,2.4,0,0,0-.507.314,4.613,4.613,0,0,0,.957.329,4.628,4.628,0,0,1,1.429.564,2.123,2.123,0,0,1,1.258,1.9,2.18,2.18,0,0,1-1.6,2.039l-.132.043a4.368,4.368,0,0,1-1.376.292,2.205,2.205,0,0,1-.954-.213,2.276,2.276,0,0,0-.994-.238,2.581,2.581,0,0,0-1.108.272,2.087,2.087,0,0,1-.884.215Zm-.13-7.844c-.58.109-.652.14-.61.568.043.448.227.538.511.538a1.6,1.6,0,0,0,.426-.066,6.243,6.243,0,0,1,.673-.133c.882-.141,1.019-.241,1-.427-.015-.206-.594-.3-1.06-.38-.248-.042-.5-.084-.726-.143C115.494,33.381,115.421,33.395,115.347,33.409Z" transform="translate(0 0)"/>
    <path class="cls-2" d="M114.532,31.055a18.412,18.412,0,0,1,5.106,1.232c.832.244.855,1.722.229,2.5-.454.564-1.353.56-1.667,1.4.785.709,1.928.6,2.787,1.173.572.38,1.068.725,1.035,1.461a1.679,1.679,0,0,1-1.253,1.586,4.424,4.424,0,0,1-1.352.311,1.689,1.689,0,0,1-.739-.165,2.783,2.783,0,0,0-1.209-.286,3.09,3.09,0,0,0-1.322.32,1.581,1.581,0,0,1-.671.167,1.494,1.494,0,0,1-1.27-.975,18.35,18.35,0,0,1-1.98-7.085,1.25,1.25,0,0,1,1.129-1.525,6.005,6.005,0,0,1,1.175-.114m.715,3.96a2.1,2.1,0,0,0,.562-.085c.762-.215,2.108-.13,2.041-1.077-.059-.827-1.39-.737-2.274-1-.606.16-1.442.093-1.338,1.176a.948.948,0,0,0,1.009.99M118.5,38.89a3.3,3.3,0,0,0,1.1-.3,4.525,4.525,0,0,0-2.082-.7,2.867,2.867,0,0,0-.943.167c1.06.593,1.492.835,1.926.835m-3.963-8.835a7.047,7.047,0,0,0-1.37.133,2.241,2.241,0,0,0-1.931,2.588,19.2,19.2,0,0,0,2.09,7.467,2.4,2.4,0,0,0,2.156,1.511,2.577,2.577,0,0,0,1.1-.262,2.1,2.1,0,0,1,.9-.225,1.79,1.79,0,0,1,.779.189,2.7,2.7,0,0,0,1.169.262,4.768,4.768,0,0,0,1.534-.318l.13-.043a2.658,2.658,0,0,0,1.94-2.491,2.6,2.6,0,0,0-1.481-2.339,4.821,4.821,0,0,0-1.472-.6,2.39,2.39,0,0,0,.578-.51,3.17,3.17,0,0,0,.534-2.783,1.9,1.9,0,0,0-1.261-1.3c-.4-.119-.807-.252-1.21-.385a13.169,13.169,0,0,0-4.178-.887Zm.7,3.887c.067-.015.144-.03.2-.041l.116-.022q.091.021.182.039c-.067.015-.134.031-.2.05a1.1,1.1,0,0,1-.291.048h0c0-.019-.008-.044-.011-.074Z" transform="translate(0 0)"/>
  </g>
  <g>
    <path class="cls-1" d="M27.6,63.063a2.042,2.042,0,0,1-2.188-1.79L25.035,59.3c-.261-1.367-.521-2.734-.755-4.106a2.734,2.734,0,0,1,.447-2.325,2.278,2.278,0,0,1,1.838-.742q.185,0,.387.019a11.72,11.72,0,0,1,2.9.667c.464.168.932.327,1.4.485a17.521,17.521,0,0,1,5.87,2.865,2.012,2.012,0,0,1,.411,3.106,4.7,4.7,0,0,1-1.987,1.748,30.089,30.089,0,0,1-7.719,2.042c-.089,0-.159.007-.228.007Zm-.361-6.555c.04.187.079.4.119.62a11.216,11.216,0,0,0,.488,1.97c.23.6.514,1.25.97,1.25a13.384,13.384,0,0,0,5.931-1.937.649.649,0,0,0,.336-.462c0-.11-.124-.2-.225-.263a15.164,15.164,0,0,0-6.652-2.5c-.1-.006-.187-.01-.271-.01a.8.8,0,0,0-.519.11C27.231,55.472,27.231,56.2,27.235,56.508Z" transform="translate(0 0)"/>
    <path class="cls-2" d="M26.564,52.625q.163,0,.34.016a11.323,11.323,0,0,1,2.775.639c2.458.891,5.03,1.521,7.12,3.264a1.53,1.53,0,0,1,.331,2.423,4.265,4.265,0,0,1-1.763,1.579,29.583,29.583,0,0,1-7.59,2.012q-.092.005-.181.005a1.542,1.542,0,0,1-1.7-1.381c-.376-2.024-.781-4.044-1.126-6.074-.267-1.572.383-2.483,1.791-2.483m2.247,8.222a1.162,1.162,0,0,0,.148-.01,13.643,13.643,0,0,0,6.063-2.013c.613-.416.825-1.134.085-1.57a15.636,15.636,0,0,0-6.874-2.567c-.108-.007-.208-.011-.3-.011-1,0-1.218.423-1.2,1.888a17.874,17.874,0,0,0,.64,2.71c.25.658.622,1.571,1.436,1.571m-2.247-9.222a2.759,2.759,0,0,0-2.22.92,3.207,3.207,0,0,0-.557,2.731c.235,1.38.5,2.773.756,4.12q.188.984.372,1.969a2.53,2.53,0,0,0,2.68,2.2q.116,0,.236-.007a30.5,30.5,0,0,0,7.884-2.074,5.137,5.137,0,0,0,2.214-1.917,2.5,2.5,0,0,0-.492-3.789,17.9,17.9,0,0,0-6.027-2.953c-.465-.158-.931-.316-1.392-.483A12.229,12.229,0,0,0,27,51.646q-.225-.021-.433-.021Zm1.216,4.059c.037,0,.087-.006.152-.006s.153,0,.238.009a14.4,14.4,0,0,1,6.262,2.331,12.892,12.892,0,0,1-5.6,1.828l-.021,0h0c-.076-.036-.231-.229-.5-.927a10.813,10.813,0,0,1-.463-1.879c-.038-.21-.075-.408-.112-.587a4.031,4.031,0,0,1,.046-.77Z" transform="translate(0 0)"/>
  </g>
  <g>
    <path class="cls-1" d="M32.575,20.693a2.311,2.311,0,0,1-1.869-1.279,18.759,18.759,0,0,1-2.449-6.121c-.351-1.755.251-2.725,2.012-3.241A11.114,11.114,0,0,1,33.393,9.5c.189,0,.38.007.571.024a3.5,3.5,0,0,1,2.895,1.4,3.284,3.284,0,0,1-.067,3.037c-.292.7-.03,1.106.459,1.762.134.18.268.36.383.548a3.481,3.481,0,0,0,1.078.948l.167.105c.4.25.9.56.994,1.095a1.161,1.161,0,0,1-.278.933,1.645,1.645,0,0,1-1.308.634,1.953,1.953,0,0,1-1.363-.579c-.634-.619-1.22-1.293-1.786-1.946l-.665-.763c-.5-.583-.837-.941-1.38-.941a1.539,1.539,0,0,0-.321.037c-.558.121-.644.247-.654.271-.021.042-.016.188.127.469l.176.343c.232.453.464.906.688,1.362a2.73,2.73,0,0,0,.2.317,1.878,1.878,0,0,1,.421,1.6.5.5,0,0,1-.295.349,2.236,2.236,0,0,1-.859.186Zm.479-8.609a2.814,2.814,0,0,0-1.8.519.514.514,0,0,0-.046.711.437.437,0,0,0,.421.262,2.72,2.72,0,0,0,.7-.15c.213-.065.437-.113.659-.16.69-.146,1.14-.264,1.4-.734l-.017-.039a1,1,0,0,0-.052-.108A2.162,2.162,0,0,0,33.053,12.084Z" transform="translate(0 0)"/>
    <path class="cls-2" d="M33.393,10c.175,0,.351.007.529.022,2.453.209,3.348,1.5,2.409,3.746-.529,1.266.368,1.939.877,2.765a3.914,3.914,0,0,0,1.232,1.105c.548.355,1.305.708.761,1.406a1.138,1.138,0,0,1-.913.441,1.464,1.464,0,0,1-1.014-.436c-.8-.779-1.513-1.643-2.251-2.481-.549-.623-1.037-1.312-1.93-1.312a2.014,2.014,0,0,0-.427.048c-.861.187-1.351.508-.867,1.456.289.566.581,1.129.862,1.7.238.482.748.858.582,1.582a1.734,1.734,0,0,1-.667.147,1.766,1.766,0,0,1-1.444-1.041A18.2,18.2,0,0,1,28.746,13.2c-.3-1.516.18-2.229,1.662-2.663A10.6,10.6,0,0,1,33.393,10m-1.771,4.072a3.041,3.041,0,0,0,.844-.171c.882-.267,1.929-.216,2.416-1.245a.631.631,0,0,0,0-.239,1.408,1.408,0,0,0-.217-.387,2.511,2.511,0,0,0-1.616-.448,3.218,3.218,0,0,0-2.167.675,1.009,1.009,0,0,0-.112,1.312.929.929,0,0,0,.849.5M33.393,9a11.566,11.566,0,0,0-3.267.569c-2.013.59-2.763,1.8-2.361,3.818a19.26,19.26,0,0,0,2.513,6.284,2.7,2.7,0,0,0,2.3,1.518,2.736,2.736,0,0,0,1.052-.224,1,1,0,0,0,.59-.7,2.368,2.368,0,0,0-.5-1.992,2.089,2.089,0,0,1-.163-.256c-.218-.443-.443-.882-.668-1.321l-.19-.37c.049-.014.108-.028.178-.043a1.028,1.028,0,0,1,.215-.026c.309,0,.531.222,1,.766l.18.207q.247.28.491.563c.572.659,1.164,1.34,1.811,1.972a2.451,2.451,0,0,0,1.713.721,2.142,2.142,0,0,0,1.7-.827,1.646,1.646,0,0,0,.377-1.327A2.241,2.241,0,0,0,39.143,16.9l-.16-.1a3.148,3.148,0,0,1-.925-.791c-.123-.2-.265-.392-.408-.584-.482-.648-.577-.843-.4-1.271a3.749,3.749,0,0,0,.033-3.49,3.956,3.956,0,0,0-3.28-1.638Q33.7,9,33.393,9Zm-1.8,3.968.023-.025a2.424,2.424,0,0,1,1.441-.362,3.069,3.069,0,0,1,.457.032,5.527,5.527,0,0,1-.631.16c-.237.05-.474.1-.7.171a2.848,2.848,0,0,1-.535.128l-.013-.02a.45.45,0,0,1-.041-.084Z" transform="translate(0 0)"/>
  </g>
  <g>
    <path class="cls-1" d="M85.6,42.4a1.293,1.293,0,0,1-.944-.428,1.733,1.733,0,0,1-.271-1.324,12.337,12.337,0,0,0-.37-4.774c-.034-.12-.06-.248-.084-.376-.1-.53-.153-.535-.3-.549h-.008a1.077,1.077,0,0,0-.976.728A15.719,15.719,0,0,0,81.456,39.4c-.023.129-.041.261-.059.393a5.257,5.257,0,0,1-.155.826,1.5,1.5,0,0,1-1.605,1.1c-.154,0-.313-.011-.471-.022a1.356,1.356,0,0,1-1.232-1.442c-.1-.958-.218-1.916-.331-2.873-.1-.848-.2-1.7-.295-2.543a1.9,1.9,0,0,1,.293-1.5,1.372,1.372,0,0,1,1.048-.43h0a1.684,1.684,0,0,1,1.723,1.669l0,.032a4.723,4.723,0,0,1,2.259-2.438l.142-.093a2.4,2.4,0,0,1,1.3-.438,1.87,1.87,0,0,1,1.64,1.084,15.085,15.085,0,0,1,1.6,8.321,1.405,1.405,0,0,1-1.55,1.355C85.718,42.408,85.66,42.406,85.6,42.4Z" transform="translate(0 0)"/>
    <path class="cls-2" d="M84.08,32.147a1.368,1.368,0,0,1,1.2.825,14.61,14.61,0,0,1,1.544,8.052.918.918,0,0,1-1.052.884q-.068,0-.138,0c-.744-.051-.819-.569-.752-1.2a12.948,12.948,0,0,0-.387-4.964c-.147-.514-.1-1.219-.823-1.285-.044,0-.086-.006-.129-.006A1.536,1.536,0,0,0,82.19,35.47a16.156,16.156,0,0,0-1.225,3.845,11.077,11.077,0,0,1-.2,1.166,1.008,1.008,0,0,1-1.126.745c-.142,0-.289-.01-.434-.021-.613-.046-.717-.482-.773-1C78.235,38.4,78,36.6,77.8,34.789c-.074-.668-.057-1.351.857-1.374H78.7c.756,0,1.105.568,1.176,1.224.054.5-.44,1.036.069,1.543.671-.184.736-.854.876-1.318A4.445,4.445,0,0,1,83.05,32.5a1.917,1.917,0,0,1,1.03-.357m0-1h0a2.885,2.885,0,0,0-1.577.519l-.141.092a6.828,6.828,0,0,0-1.889,1.6,2.046,2.046,0,0,0-1.773-.941h-.063a1.853,1.853,0,0,0-1.413.6,2.378,2.378,0,0,0-.414,1.883c.093.842.193,1.683.293,2.524.114.964.228,1.928.333,2.893.127,1.177.7,1.811,1.692,1.885.17.013.342.024.509.024a1.967,1.967,0,0,0,2.084-1.459,5.686,5.686,0,0,0,.171-.9c.017-.125.033-.251.056-.375a15.209,15.209,0,0,1,1.15-3.607.926.926,0,0,1,.32-.407c.008.039.016.078.022.112.028.144.057.288.1.421a11.862,11.862,0,0,1,.354,4.584,2.216,2.216,0,0,0,.386,1.7,1.777,1.777,0,0,0,1.292.6c.069,0,.138.007.206.007a1.912,1.912,0,0,0,2.05-1.827,15.564,15.564,0,0,0-1.666-8.59,2.347,2.347,0,0,0-2.077-1.344Z" transform="translate(0 0)"/>
  </g>
  <g>
    <path class="cls-1" d="M46.449,19.873c-2.711,0-4.558-1.483-5.489-4.409-.1-.321-.213-.641-.323-.96-.2-.578-.4-1.175-.565-1.783-.2-.764-.331-1.384,0-1.843s.921-.529,1.672-.585c.16-.012.322-.016.484-.016l.75.01.207,0c3.511,0,6.239,1.864,8.521,3.612a2.448,2.448,0,0,1,1.043,1.827A2.939,2.939,0,0,1,51.7,17.965a7.385,7.385,0,0,1-4.905,1.9q-.174.008-.343.008Zm.854-2.51a2.779,2.779,0,0,0,2.13-.833,1.018,1.018,0,0,0,.367-.637.776.776,0,0,0-.313-.461,10.066,10.066,0,0,0-5.744-2.517c-.06,0-.117-.008-.172-.008a.564.564,0,0,0-.405.1c-.026.033-.105.173-.014.6a8.437,8.437,0,0,0,1.538,3.244.765.765,0,0,0,.717.288c.129,0,.26-.008.391-.017.152-.01.3-.019.452-.019a1.927,1.927,0,0,1,1.042.259Z" transform="translate(0 0)"/>
    <path class="cls-2" d="M42.219,10.776c.251,0,.5.01.754.01l.207,0c3.224,0,5.789,1.648,8.218,3.508,1.173.9,1.106,2.225-.042,3.309a6.889,6.889,0,0,1-4.585,1.764q-.163.007-.321.007c-2.689,0-4.216-1.555-5.014-4.06-.289-.908-.638-1.8-.881-2.72-.394-1.49-.239-1.693,1.221-1.8.147-.011.3-.014.443-.014m3.188,6.863c.278,0,.566-.036.842-.036a1.332,1.332,0,0,1,.88.256l.173,0a3.294,3.294,0,0,0,2.489-.985c.574-.59.77-1.2.018-1.829a10.6,10.6,0,0,0-6.024-2.633q-.113-.01-.215-.01c-.818,0-1.09.465-.907,1.307a8.911,8.911,0,0,0,1.625,3.437,1.263,1.263,0,0,0,1.118.489M42.219,9.776c-.173,0-.346,0-.518.017a2.5,2.5,0,0,0-2.042.793,2.6,2.6,0,0,0-.072,2.261c.165.623.373,1.226.573,1.809.11.319.22.637.322.958,1.005,3.156,3.013,4.757,5.967,4.757q.179,0,.365-.008a7.872,7.872,0,0,0,5.227-2.036,3.426,3.426,0,0,0,1.2-2.632,2.972,2.972,0,0,0-1.238-2.2c-2.346-1.8-5.157-3.714-8.826-3.714l-.228,0c-.1,0-.217,0-.336-.005s-.265-.005-.4-.005Zm3.188,6.863c-.252,0-.279-.037-.317-.087A7.94,7.94,0,0,1,43.641,13.5c-.008-.035-.013-.066-.018-.094l.077,0a9.586,9.586,0,0,1,5.465,2.4.954.954,0,0,1,.115.112,1.363,1.363,0,0,1-.205.255,2.267,2.267,0,0,1-1.652.68,2.471,2.471,0,0,0-1.173-.257c-.159,0-.321.01-.484.02-.12.008-.24.016-.359.016Z" transform="translate(0 0)"/>
  </g>
  <g>
    <path class="cls-1" d="M140.031,41.917a1.466,1.466,0,0,1-1.485-1.189c-.183-.734-.351-1.471-.519-2.208a41.1,41.1,0,0,0-1.547-5.573,1.257,1.257,0,0,1,.3-1.431,1.092,1.092,0,0,1,.75-.3,1.857,1.857,0,0,1,.732.193l.135.057a1.894,1.894,0,0,1,1.15,1.414c.149.582.314,1.162.481,1.751l.068.244a1.8,1.8,0,0,0,.947-1.1c.031-.083.057-.169.082-.255a2.144,2.144,0,0,1,.336-.747,1.833,1.833,0,0,1,1.451-.742,2.108,2.108,0,0,1,1.139.356,1.274,1.274,0,0,1,.621.893,1.966,1.966,0,0,1-.6,1.481,11.008,11.008,0,0,1-1.045,1.022,11.591,11.591,0,0,0-.85.81l-.156.164c-.306.312-.369.419-.324.548.058.161.2.268.745.305.957.066,1.916.113,2.875.16l.979.049c.323.018.646.036.971.036h.147a1.429,1.429,0,0,1,1.091.418,1.586,1.586,0,0,1,.392,1.2,1.143,1.143,0,0,1-1.3,1.071,2.778,2.778,0,0,1-.392-.029c-.641-.091-1.278-.2-1.916-.3-.773-.127-1.546-.255-2.322-.356a5.938,5.938,0,0,0-.74-.068c-.419,0-.675.054-.7.809a1.377,1.377,0,0,1-1.461,1.322Z" transform="translate(0 0)"/>
    <path class="cls-2" d="M137.527,31.715a1.994,1.994,0,0,1,.683.215A1.415,1.415,0,0,1,139.06,33c.213.829.455,1.65.693,2.5a2.263,2.263,0,0,0,1.755-1.55,3.3,3.3,0,0,1,.345-.872,1.322,1.322,0,0,1,1.058-.55,1.61,1.61,0,0,1,.867.276c.745.482.307,1.169-.086,1.629-.565.66-1.3,1.176-1.883,1.82-.3.325-.773.68-.582,1.216.182.51.7.6,1.182.637,1.192.081,2.385.135,3.578.195.428.022.856.051,1.284.051h.178a.922.922,0,0,1,.949,1.087c-.025.471-.4.6-.8.6a2.306,2.306,0,0,1-.321-.024c-1.417-.2-2.825-.474-4.244-.659a6.426,6.426,0,0,0-.8-.072c-.643,0-1.166.231-1.2,1.294a.88.88,0,0,1-.961.837h-.028a.968.968,0,0,1-1.011-.812,67.283,67.283,0,0,0-2.084-7.838.759.759,0,0,1,.164-.881.6.6,0,0,1,.415-.171m0-1a1.6,1.6,0,0,0-1.086.429,1.739,1.739,0,0,0-.428,1.98,40.121,40.121,0,0,1,1.524,5.5c.169.743.338,1.487.523,2.226a1.952,1.952,0,0,0,1.96,1.569h0a1.9,1.9,0,0,0,2.008-1.807,1.2,1.2,0,0,1,.042-.314.991.991,0,0,1,.156-.01,5.493,5.493,0,0,1,.653.061c.787.1,1.57.232,2.327.357.642.106,1.283.212,1.927.3a3.316,3.316,0,0,0,.462.034,1.627,1.627,0,0,0,1.8-1.544,2.079,2.079,0,0,0-.528-1.566,1.889,1.889,0,0,0-1.42-.575l-.178,0c-.318,0-.637-.018-.955-.035l-.279-.015-.714-.035c-.949-.047-1.9-.093-2.846-.158l-.095-.008c.058-.059.114-.117.166-.174a11.139,11.139,0,0,1,.813-.774,11.273,11.273,0,0,0,1.091-1.069,2.489,2.489,0,0,0,.714-1.878,1.76,1.76,0,0,0-.844-1.241,2.6,2.6,0,0,0-1.409-.436,2.322,2.322,0,0,0-1.844.932,2.574,2.574,0,0,0-.424.916c-.022.074-.043.148-.069.218a2.051,2.051,0,0,1-.2.411c-.118-.42-.233-.836-.341-1.255A2.4,2.4,0,0,0,138.579,31l-.121-.051a2.292,2.292,0,0,0-.93-.234Z" transform="translate(0 0)"/>
  </g>
  <g>
    <path class="cls-1" d="M90.176,42.013a4.463,4.463,0,0,1-.568-.036,3.2,3.2,0,0,1-2.941-3.4,7.469,7.469,0,0,1,3.388-5.685,2.626,2.626,0,0,1,1.542-.421,4.783,4.783,0,0,1,3.07,1.118,5.282,5.282,0,0,1,1.054,4.786,6.384,6.384,0,0,1-5.544,3.641Zm2.273-6.206c-.1,0-.346,0-.649.71a1.567,1.567,0,0,1-1.577.813c-.6.03-.7.308-.755,1.186l-.007.116a.8.8,0,0,0,.658.878,2.294,2.294,0,0,0,.469.048,2.549,2.549,0,0,0,2.5-2.516,2.373,2.373,0,0,1-.037-.422c-.019-.5-.054-.644-.28-.736A.882.882,0,0,0,92.45,35.808Z" transform="translate(0 0)"/>
    <path class="cls-2" d="M91.6,32.969a4.281,4.281,0,0,1,2.725.979,4.848,4.848,0,0,1,.934,4.239,5.855,5.855,0,0,1-5.079,3.326,3.967,3.967,0,0,1-.5-.032,2.711,2.711,0,0,1-2.5-2.908A6.957,6.957,0,0,1,90.347,33.3a2.15,2.15,0,0,1,1.249-.326m-1.008,7.09a3.051,3.051,0,0,0,3-3.014c-.1-.552.111-1.319-.627-1.622a1.363,1.363,0,0,0-.516-.115c-.528,0-.857.423-1.109,1.013-.211.493-.716.488-1.226.514-1.1.055-1.1,1.055-1.152,1.764A1.291,1.291,0,0,0,90.018,40a2.807,2.807,0,0,0,.57.059m1.008-8.09a3.115,3.115,0,0,0-1.834.515,7.935,7.935,0,0,0-3.593,6.022q0,.036,0,.072a3.7,3.7,0,0,0,3.377,3.9,4.98,4.98,0,0,0,.632.04,6.824,6.824,0,0,0,6.008-3.956,5.785,5.785,0,0,0-1.172-5.333A5.244,5.244,0,0,0,91.6,31.969Zm-1.52,5.872c.013,0,.042-.005.088-.007l.081,0a2.032,2.032,0,0,0,2.015-1.115,1.485,1.485,0,0,1,.226-.4c.013,0,.03.008.051.015.012.084.017.217.021.312.005.144.012.3.035.472a2.042,2.042,0,0,1-2,1.946,1.815,1.815,0,0,1-.367-.038.3.3,0,0,1-.261-.354l.008-.119a2.569,2.569,0,0,1,.1-.707Z" transform="translate(0 0)"/>
  </g>
  <g>
    <path class="cls-1" d="M27.848,44.376c-1.273,0-1.53-1.34-1.615-1.78a34.638,34.638,0,0,1-.462-5.344l-.015-.434c-.034-.964-.278-.964-.516-.964a1.987,1.987,0,0,0-.45.063,2.019,2.019,0,0,1-.482.052c-.136,0-.273-.009-.411-.02l-.2-.013a1.2,1.2,0,0,1-1.259-1.177,1.31,1.31,0,0,1,.607-1.262.836.836,0,0,1,.444-.187,23.5,23.5,0,0,0,2.425-.318,19.475,19.475,0,0,1,3.185-.35,8.039,8.039,0,0,1,2.092.259,2.576,2.576,0,0,1,.8.371,1.283,1.283,0,0,1,.46,1.667,1.1,1.1,0,0,1-1.009.694h0a1.431,1.431,0,0,1-.663-.179,1.947,1.947,0,0,1-.337-.236,1.053,1.053,0,0,0-.167-.122,3.265,3.265,0,0,0-.866-.16c-.276,0-.562,0-.679,1.183a12.224,12.224,0,0,0-.022,1.448c.006.258.012.532.013.827a5.454,5.454,0,0,1,.1,1.129,3.1,3.1,0,0,0,.524,2.044,1.746,1.746,0,0,1,.276,1.613A1.717,1.717,0,0,1,28.4,44.3,2.135,2.135,0,0,1,27.848,44.376Z" transform="translate(0 0)"/>
    <path class="cls-2" d="M29.1,33.143a7.568,7.568,0,0,1,1.963.242,2.075,2.075,0,0,1,.642.3A.789.789,0,0,1,32,34.73a.6.6,0,0,1-.555.4.946.946,0,0,1-.431-.121c-.21-.11-.376-.331-.594-.395a3.732,3.732,0,0,0-1.008-.181c-.756,0-1.063.483-1.177,1.634-.07.71-.012,1.433-.012,2.383.251.966-.182,2.267.73,3.423a1.216,1.216,0,0,1-.68,1.935,1.61,1.61,0,0,1-.422.062c-.682,0-.972-.581-1.124-1.375a37.1,37.1,0,0,1-.468-5.7c-.032-.923-.272-1.446-1.015-1.446a2.448,2.448,0,0,0-.567.077,1.559,1.559,0,0,1-.366.038c-.194,0-.394-.023-.588-.032-.443-.022-.759-.211-.783-.7a.83.83,0,0,1,.373-.813.537.537,0,0,1,.21-.112c1.866-.112,3.708-.666,5.58-.666m0-1a19.854,19.854,0,0,0-3.268.356,22.9,22.9,0,0,1-2.372.312,1.286,1.286,0,0,0-.673.256,1.812,1.812,0,0,0-.848,1.716,1.7,1.7,0,0,0,1.732,1.652l.189.012c.15.011.3.021.449.021a2.536,2.536,0,0,0,.6-.066,1.664,1.664,0,0,1,.293-.048,2.314,2.314,0,0,1,.055.48l.015.445a34.9,34.9,0,0,0,.47,5.409c.346,1.808,1.336,2.187,2.106,2.187a2.615,2.615,0,0,0,.685-.1,2.21,2.21,0,0,0,1.561-1.44,2.253,2.253,0,0,0-.359-2.079,2.681,2.681,0,0,1-.417-1.744,6.1,6.1,0,0,0-.1-1.176c0-.278-.007-.536-.012-.781a11.861,11.861,0,0,1,.02-1.388,2.442,2.442,0,0,1,.149-.731h.033a2.6,2.6,0,0,1,.658.121l.058.048a2.438,2.438,0,0,0,.421.292,1.926,1.926,0,0,0,.9.236,1.6,1.6,0,0,0,1.464-.985,1.78,1.78,0,0,0-.628-2.285,3.069,3.069,0,0,0-.957-.444,8.526,8.526,0,0,0-2.22-.276Z" transform="translate(0 0)"/>
  </g>
  <g>
    <path class="cls-1" d="M80.834,60.978c-.9,0-1.5-.665-1.586-1.778a1.494,1.494,0,0,1,1.462-1.637.487.487,0,0,1,.06,0,.5.5,0,0,1,.142.021l.182.052c.72.206,1.808.517,1.874,1.781.064,1.247-1.112,1.43-1.677,1.517l-.122.02A2.1,2.1,0,0,1,80.834,60.978Z" transform="translate(0 0)"/>
    <path class="cls-2" d="M80.769,58.06c.755.223,1.647.392,1.7,1.38.044.855-.789.92-1.38,1.016a1.581,1.581,0,0,1-.254.022c-.748,0-1.031-.624-1.088-1.318-.053-.641.353-1.019,1.023-1.1m0-1a1,1,0,0,0-.119.007,1.985,1.985,0,0,0-1.9,2.175,2.119,2.119,0,0,0,2.085,2.236,2.591,2.591,0,0,0,.415-.035l.117-.018c.541-.084,2.188-.339,2.1-2.036-.084-1.622-1.485-2.022-2.238-2.237l-.176-.051a1,1,0,0,0-.283-.041Z" transform="translate(0 0)"/>
  </g>
  <g>
    <path class="cls-1" d="M99.228,61.486a2.241,2.241,0,0,1-1.736-2.365c.239-1.053,1.182-1.132,1.745-1.179.066-.006.129-.008.188-.008,1.372,0,1.374,1.309,1.375,1.739a1.982,1.982,0,0,1-.5,1.424,1.324,1.324,0,0,1-.956.394Z" transform="translate(0 0)"/>
    <path class="cls-2" d="M99.425,58.434c.785,0,.874.6.875,1.24,0,.809-.389,1.317-.961,1.317l-.075,0a1.773,1.773,0,0,1-1.286-1.756c.156-.688.739-.744,1.3-.791q.077-.006.147-.006m0-1c-.073,0-.15,0-.23.01A2.13,2.13,0,0,0,97,59.01a2.725,2.725,0,0,0,2.186,2.974q.076.006.149.006a1.838,1.838,0,0,0,1.311-.541,2.473,2.473,0,0,0,.65-1.778c0-1.947-1.176-2.238-1.875-2.238Z" transform="translate(0 0)"/>
  </g>
  <g>
    <path class="cls-1" d="M89.263,60.907a1.894,1.894,0,0,1-1.972-1.929,1.214,1.214,0,0,1,.317-.921,1.26,1.26,0,0,1,.934-.388,1.5,1.5,0,0,1,.272.025c.6.11,2.007.369,1.881,1.979a1.213,1.213,0,0,1-1.38,1.234Z" transform="translate(0 0)"/>
    <path class="cls-2" d="M88.542,58.169a1,1,0,0,1,.182.017c.781.144,1.557.382,1.474,1.448-.011.592-.371.773-.882.773h-.043a1.4,1.4,0,0,1-1.483-1.46.711.711,0,0,1,.752-.778m0-1a1.756,1.756,0,0,0-1.3.546,1.71,1.71,0,0,0-.451,1.3,2.383,2.383,0,0,0,2.462,2.4h.062A1.707,1.707,0,0,0,91.2,59.684c.094-1.349-.677-2.184-2.292-2.482a2,2,0,0,0-.363-.033Z" transform="translate(0 0)"/>
  </g>
  <g>
    <path class="cls-1" d="M84.4,18.012c-1.663,0-2.768-.9-3.476-2.831a8.736,8.736,0,0,1-.09-4.634A15.363,15.363,0,0,0,81.088,8.4a1.226,1.226,0,0,1,1.295-1.226,1.865,1.865,0,0,1,.65.122c1,.372,1.356,1,1.063,1.856a9.53,9.53,0,0,0-.693,4.222c.139,1.167.35,1.773,1.174,2.06a1.623,1.623,0,0,0,.526.095,2.257,2.257,0,0,0,1.642-1.018c1.345-1.577,1.49-3.534,1.534-5.742a6.154,6.154,0,0,0-.031-.643,3.725,3.725,0,0,1,.123-1.649,1.775,1.775,0,0,1,1.711-1.364,2.081,2.081,0,0,1,.223.012,1.471,1.471,0,0,1,1.06.533,1.817,1.817,0,0,1,.26,1.436,17.8,17.8,0,0,0,.335,5.581l.11.693c.1.647.174,1.057.561,1.3a1.408,1.408,0,0,1,.685.879,1.723,1.723,0,0,1-.428,1.3l-.074.109a1.8,1.8,0,0,1-1.5.936,1.668,1.668,0,0,1-.465-.069,1.569,1.569,0,0,1-1.107-1.54c-.03-.335-.088-.668-.153-1.039a3.492,3.492,0,0,0-.745.735l-.188.225a5.26,5.26,0,0,1-3.187,1.7A5.96,5.96,0,0,1,84.4,18.012Z" transform="translate(0 0)"/>
    <path class="cls-2" d="M90.081,5.611a1.626,1.626,0,0,1,.171.009c.859.091.981.71.878,1.4a19.789,19.789,0,0,0,.406,6.165c.116.713.146,1.473.824,1.908.841.539.38,1.076.036,1.592a1.347,1.347,0,0,1-1.081.713,1.157,1.157,0,0,1-.325-.049,1.1,1.1,0,0,1-.75-1.1c-.049-.538-.164-1.07-.273-1.747a3.8,3.8,0,0,0-1.689,1.387,4.823,4.823,0,0,1-2.9,1.534,5.461,5.461,0,0,1-.98.1c-1.5,0-2.387-.813-3.006-2.5-.824-2.251.145-4.4.2-6.6a.726.726,0,0,1,.8-.737,1.377,1.377,0,0,1,.476.09c.538.2,1.02.474.763,1.226a9.936,9.936,0,0,0-.716,4.443c.129,1.087.333,2.066,1.506,2.473a2.1,2.1,0,0,0,.691.122,2.775,2.775,0,0,0,2.021-1.193c1.478-1.733,1.611-3.9,1.655-6.057a6.261,6.261,0,0,1,.061-2.13,1.313,1.313,0,0,1,1.24-1.036m0-1h0A2.26,2.26,0,0,0,87.9,6.3a4.2,4.2,0,0,0-.152,1.863c.017.211.034.411.03.59-.043,2.112-.179,3.978-1.416,5.429-.5.582-.885.842-1.26.842a1.1,1.1,0,0,1-.363-.067c-.534-.185-.707-.524-.84-1.646a9.092,9.092,0,0,1,.67-4,1.832,1.832,0,0,0-1.361-2.486,2.364,2.364,0,0,0-.825-.153,1.725,1.725,0,0,0-1.795,1.714,15.009,15.009,0,0,1-.249,2.08,9.26,9.26,0,0,0,.114,4.887c.778,2.126,2.069,3.159,3.945,3.159a6.4,6.4,0,0,0,1.16-.114,5.823,5.823,0,0,0,3.475-1.864c.066-.076.13-.154.2-.233l.01-.012,0,.043a2.055,2.055,0,0,0,1.465,1.974,2.162,2.162,0,0,0,.606.089,2.265,2.265,0,0,0,1.913-1.158l.071-.105a2.179,2.179,0,0,0,.5-1.682,1.883,1.883,0,0,0-.9-1.2c-.2-.125-.25-.375-.335-.957l-.041-.27-.07-.427a17.415,17.415,0,0,1-.334-5.429,2.311,2.311,0,0,0-.359-1.815,1.957,1.957,0,0,0-1.4-.725,2.625,2.625,0,0,0-.276-.015Z" transform="translate(0 0)"/>
  </g>
  <g>
    <path class="cls-1" d="M102.035,17.441a1.665,1.665,0,0,1-1.671-1.507,18.417,18.417,0,0,1-.082-2.946.882.882,0,0,0-.128-.583.983.983,0,0,0-.67-.167l-1.041.012A5.006,5.006,0,0,1,96.709,12c-.341-.124-1.141-.415-1.086-1.288a1.351,1.351,0,0,1,1.5-1.261h.009c.493,0,.906.027,1.319.055l1.769.12A6.475,6.475,0,0,0,100.3,8.7a6.373,6.373,0,0,1,.123-1.168,16.749,16.749,0,0,0-1.722.213,13.21,13.21,0,0,1-2.078.22h0a5.978,5.978,0,0,1-.679-.038c-.155-.018-.325-.022-.5-.027A2.291,2.291,0,0,1,93.755,7.4a1.311,1.311,0,0,1-.318-1c.025-.511.308-1.369,1.916-1.369.264,0,.533.021.78.044l.3.029c.654.064,1.332.13,1.978.13a5.029,5.029,0,0,0,3.134-.9,1.422,1.422,0,0,1,.839-.274,1.663,1.663,0,0,1,1.112.458,1.549,1.549,0,0,1,.381,1.82,6.6,6.6,0,0,0-.59,3.557.837.837,0,0,0,.165.016,2.274,2.274,0,0,0,.668-.148,4.353,4.353,0,0,1,.571-.156,2.179,2.179,0,0,1,.393-.037,1.477,1.477,0,0,1,1.513,1.477,1.229,1.229,0,0,1-.229.948,1.537,1.537,0,0,1-1.145.432l-.179.016c-.074.007-.148.011-.225.011a5.121,5.121,0,0,1-.693-.064,3.974,3.974,0,0,0-.545-.054c-.253,0-.35.063-.423.165a2.023,2.023,0,0,0-.052,1.49c.046.247.09.493.112.73a2.768,2.768,0,0,0,.105.593,1.816,1.816,0,0,1-.019,1.524,1.333,1.333,0,0,1-1.02.577A1.945,1.945,0,0,1,102.035,17.441Z" transform="translate(0 0)"/>
    <path class="cls-2" d="M102.384,4.571a1.169,1.169,0,0,1,.776.328,1.065,1.065,0,0,1,.246,1.284,6.56,6.56,0,0,0-.535,4.11,1.376,1.376,0,0,0,.582.129,7.282,7.282,0,0,0,1.328-.313,1.7,1.7,0,0,1,.3-.029c.593,0,.945.373,1.015,1.03.089.84-.531.786-1.107.845a1.7,1.7,0,0,1-.174.008c-.4,0-.843-.118-1.237-.118a.937.937,0,0,0-.828.371c-.52.719-.113,1.7-.032,2.56a3.178,3.178,0,0,0,.129.7c.227.684.261,1.331-.63,1.448a1.432,1.432,0,0,1-.187.012,1.16,1.16,0,0,1-1.174-1.069,17.93,17.93,0,0,1-.078-2.866c.033-.946-.42-1.259-1.293-1.267h-.1c-.314,0-.63.013-.946.013a4.5,4.5,0,0,1-1.563-.221c-.392-.143-.787-.317-.757-.787.037-.576.482-.788,1-.792h.07c.533,0,1.067.047,1.6.079.548.033,1.1.076,1.8.125.364-1.1.019-2.081.532-3.133-.091,0-.182,0-.272,0-1.519,0-2.871.446-4.233.446A5.483,5.483,0,0,1,96,7.428c-.847-.1-2.121.147-2.064-1,.036-.731.706-.893,1.417-.893.248,0,.5.02.733.042.778.074,1.558.161,2.326.161a5.574,5.574,0,0,0,3.427-.991.919.919,0,0,1,.545-.18m0-1h0a1.92,1.92,0,0,0-1.132.37,4.565,4.565,0,0,1-2.841.8c-.62,0-1.255-.062-1.927-.127l-.3-.029c-.227-.022-.526-.046-.828-.046-2.1,0-2.388,1.289-2.415,1.843a1.8,1.8,0,0,0,.45,1.36,2.7,2.7,0,0,0,2.041.655c.159,0,.316.009.458.025a6.524,6.524,0,0,0,.735.04,13.622,13.622,0,0,0,2.158-.226c.358-.057.707-.113,1.054-.154-.018.205-.027.4-.035.594-.006.145-.012.284-.022.418-.326-.023-.626-.044-.926-.062l-.374-.024c-.416-.028-.846-.057-1.286-.057h-.078a1.836,1.836,0,0,0-1.99,1.729c-.053.828.423,1.43,1.414,1.79a5.461,5.461,0,0,0,1.9.281c.164,0,.329,0,.493-.006s.3-.006.452-.006h.091a1.448,1.448,0,0,1,.3.027,1.158,1.158,0,0,1,.008.206A18.832,18.832,0,0,0,99.869,16a2.153,2.153,0,0,0,2.166,1.943,2.435,2.435,0,0,0,.318-.021,1.811,1.811,0,0,0,1.379-.807,2.266,2.266,0,0,0,.069-1.948,2.345,2.345,0,0,1-.083-.481c-.025-.267-.072-.524-.118-.773a2.3,2.3,0,0,1-.06-1.063h.044a3.846,3.846,0,0,1,.475.049,5.443,5.443,0,0,0,.762.069,2.694,2.694,0,0,0,.276-.014l.168-.015a1.993,1.993,0,0,0,1.49-.611,1.708,1.708,0,0,0,.342-1.32,1.985,1.985,0,0,0-2.01-1.925,2.7,2.7,0,0,0-.482.045,4.835,4.835,0,0,0-.636.173c-.086.028-.17.055-.248.077a7.406,7.406,0,0,1,.619-2.825,2.062,2.062,0,0,0-.5-2.39,2.165,2.165,0,0,0-1.45-.589Z" transform="translate(0 0)"/>
  </g>
</svg>
