<svg id="Layer_1" data-name="Layer 1" xmlns="http://www.w3.org/2000/svg" viewBox="0 0 148.819 86.903">
  <defs>
    <style>
      .cls-1 {
        fill: #0000b8;
      }

      .cls-2 {
        fill: #fff;
      }
    </style>
  </defs>
  <title>dfa2bfe4-7ba8-459c-af24-379338c1f7e1</title>
  <g>
    <path class="cls-1" d="M105.762,64.5c-1.3,0-1.517-.87-1.559-1.81q-.086-1.86-.185-3.721c-.172-3.35-.349-6.813-.386-10.227-.033-3.024-.269-5.993-.508-8.775a25.87,25.87,0,0,1-.05-2.687c.021-1.31.141-1.861.763-2.126a1.235,1.235,0,0,1-.153-.606c0-1.093,1.321-2.363,3.025-2.363l4.638.107c2.156.051,4.273.138,6.368.225,3.153.131,6.131.254,9.16.254A62.187,62.187,0,0,0,142.368,31.1a6.3,6.3,0,0,1,1.489-.232c1.5,0,1.818,1.18,2.049,2.6.443,2.735.707,5.524.963,8.221.092.961.183,1.923.281,2.883l.018.166a28.138,28.138,0,0,1,.22,4.187A22.773,22.773,0,0,0,148,54.5a10.94,10.94,0,0,1,.156,2.114,9.981,9.981,0,0,0,.127,1.852,1.5,1.5,0,0,1-1,1.693l-.129.072a5.932,5.932,0,0,1-2.965.7h0c-.282,0-.56-.015-.826-.039-.309-.028-.614-.041-.919-.041a22.778,22.778,0,0,0-3.057.278c-.7.1-1.4.191-2.108.244-2.561.19-5.161.47-7.677.74-3.249.349-6.609.71-9.938.887-3.864.206-7.983.655-12.962,1.413A6.381,6.381,0,0,1,105.762,64.5Zm1.432-3.863a2.153,2.153,0,0,0,.078.715,5.065,5.065,0,0,0,.677-.115A2.243,2.243,0,0,0,107.194,60.639Zm7.571-25.5c-1.632,0-3.072.058-4.4.175a5.166,5.166,0,0,0-4.425,5.073c.056,1.154.167,2.331.273,3.469a40.356,40.356,0,0,1,.251,6.854c-.3,3.9.649,6.437,3.075,8.229a1.8,1.8,0,0,1,.445.5,2.649,2.649,0,0,0,2.479,1.367,5.442,5.442,0,0,0,.731-.053,70.23,70.23,0,0,1,9.263-.816h0a43.1,43.1,0,0,0,7.991-.734,26.456,26.456,0,0,1,3.6-.346,20.335,20.335,0,0,0,4.2-.5,2.816,2.816,0,0,1,.487-.069,1.239,1.239,0,0,0,.362-.058,2.083,2.083,0,0,1,1.842-1.609l.3-.08a7.681,7.681,0,0,0,3.806-2.228c.255-.312.146-1.151.05-1.893a11.39,11.39,0,0,1-.114-1.223c0-.1-.01-.2-.018-.3l0-.041a.508.508,0,0,1-.022-.117l-.183-2.718c-.145-2.116-.288-4.232-.4-6.351-.095-1.87-.679-2.966-1.954-3.664a12.748,12.748,0,0,1-2.9-2.325,2.4,2.4,0,0,0-1.857-.718q-.158,0-.325.012c-2.082.146-4.2.193-6.247.241-1.248.028-2.5.058-3.743.107-.785.031-1.571.044-2.357.044-1.711,0-3.445-.062-5.122-.121S116.459,35.144,114.765,35.144Z" transform="translate(0 0)"/>
    <path class="cls-2" d="M143.857,31.369c1.007,0,1.3.618,1.556,2.185.6,3.676.86,7.38,1.24,11.075a28.819,28.819,0,0,1,.236,4.277,23.327,23.327,0,0,0,.622,5.69c.269,1.339.027,2.66.283,3.964.146.746-.419.969-.885,1.234a5.478,5.478,0,0,1-2.718.638c-.266,0-.527-.014-.779-.037-.324-.03-.646-.043-.966-.043-1.763,0-3.468.394-5.2.523-5.876.438-11.714,1.313-17.6,1.627-4.361.232-8.694.76-13.01,1.418a5.973,5.973,0,0,1-.867.083c-.8,0-1.016-.348-1.061-1.333-.212-4.643-.519-9.285-.569-13.929-.032-2.954-.257-5.88-.51-8.814a25.726,25.726,0,0,1-.047-2.635c.03-1.775.042-1.775,2.1-1.907-.079.005-.155.008-.227.008-2.393,0-1.05-2.7,1.262-2.7h.069l4.557.106c5.34.125,10.448.478,15.54.478a63.556,63.556,0,0,0,15.614-1.688,5.963,5.963,0,0,1,1.367-.218m.157,4.778c-.548-.957-.563-2.031-1.672-2.031a2.462,2.462,0,0,0-.534.066c.672.557.808,1.665,2.206,1.965m-19.04-1.262c-3.4,0-6.8-.241-10.207-.241-1.482,0-2.966.046-4.449.177a5.666,5.666,0,0,0-4.88,5.6c.166,3.421.788,6.822.525,10.262-.261,3.409.319,6.483,3.277,8.669a1.252,1.252,0,0,1,.313.36,3.138,3.138,0,0,0,2.909,1.609,6.043,6.043,0,0,0,.8-.056,69.414,69.414,0,0,1,9.2-.812h.077a43.487,43.487,0,0,0,8.009-.744c2.6-.491,5.268-.178,7.835-.851.444-.117,1.085.05,1.213-.526.227-1.022,1.031-1.074,1.79-1.293a8.186,8.186,0,0,0,4.053-2.39c.57-.693.071-2.265.05-3.442,0-.159-.021-.319-.031-.478h-.013c-.2-3.02-.425-6.039-.578-9.061a4.4,4.4,0,0,0-2.213-4.077,12.172,12.172,0,0,1-2.782-2.238,2.921,2.921,0,0,0-2.217-.868q-.174,0-.358.013c-3.317.232-6.65.215-9.974.348-.78.031-1.56.044-2.34.044m18.4,23.465a4.165,4.165,0,0,1,.441-.021c.256,0,.5.016.753.016a2.6,2.6,0,0,0,1.479-.389,3.87,3.87,0,0,0-1.338-.462c-.387,0-.678.263-1.335.856m-36.046,3.481a7.786,7.786,0,0,0,1.461-.272,2.875,2.875,0,0,0-2.095-1.584c0,1.4,0,1.856.634,1.856m36.533-31.463a6.751,6.751,0,0,0-1.608.247,61.743,61.743,0,0,1-15.373,1.658c-3.018,0-5.99-.123-9.136-.253-2.073-.086-4.218-.174-6.381-.225l-2.866-.067L106.8,31.69h-.092a3.71,3.71,0,0,0-3.2,1.741,2.1,2.1,0,0,0-.279,1.519c-.473.393-.631,1.079-.652,2.328a26.742,26.742,0,0,0,.051,2.737c.228,2.646.474,5.721.507,8.739.037,3.414.214,6.873.385,10.218.064,1.249.128,2.5.185,3.746.029.625.1,2.287,2.06,2.287a6.854,6.854,0,0,0,1.018-.094c4.958-.755,9.062-1.2,12.913-1.408,3.341-.178,6.706-.539,9.96-.889,2.513-.27,5.111-.549,7.666-.739.725-.054,1.443-.152,2.137-.247a22.058,22.058,0,0,1,2.99-.274c.306,0,.592.013.874.039s.588.041.87.041a6.415,6.415,0,0,0,3.213-.769l.123-.068a2,2,0,0,0,1.248-2.227,9.637,9.637,0,0,1-.118-1.759,11.359,11.359,0,0,0-.166-2.21,22.311,22.311,0,0,1-.6-5.446,28.63,28.63,0,0,0-.226-4.282l-.015-.144c-.1-.956-.189-1.914-.28-2.871-.256-2.707-.521-5.507-.968-8.261-.183-1.132-.49-3.025-2.543-3.025Zm-18.883,5.516c.85,0,1.628-.015,2.38-.045,1.242-.049,2.484-.078,3.727-.107,2.056-.047,4.181-.1,6.277-.243q.148-.01.288-.01a1.923,1.923,0,0,1,1.5.569,13.2,13.2,0,0,0,3.015,2.414c1.117.612,1.608,1.553,1.694,3.25.108,2.137.256,4.3.4,6.4q.092,1.339.18,2.678a.981.981,0,0,0,.027.174c.007.086.014.171.016.257A11.693,11.693,0,0,0,144.6,52.5a4.512,4.512,0,0,1,.051,1.523,7.19,7.19,0,0,1-3.55,2.054c-.094.027-.19.051-.284.076A2.62,2.62,0,0,0,138.7,57.8h0a3.179,3.179,0,0,0-.574.083,19.964,19.964,0,0,1-4.1.483,26.766,26.766,0,0,0-3.663.353,42.363,42.363,0,0,1-7.824.727h-.077a70.483,70.483,0,0,0-9.311.819,5.149,5.149,0,0,1-.681.05,2.14,2.14,0,0,1-2.051-1.124,2.265,2.265,0,0,0-.576-.649c-2.272-1.679-3.159-4.082-2.875-7.789a40.72,40.72,0,0,0-.251-6.944c-.106-1.131-.217-2.3-.272-3.443a4.7,4.7,0,0,1,3.969-4.551c1.316-.116,2.742-.173,4.361-.173,1.684,0,3.4.061,5.068.12,1.681.059,3.42.121,5.138.121Z" transform="translate(0 0)"/>
  </g>
  <g>
    <path class="cls-1" d="M60.831,62.227a.526.526,0,0,1-.287-.958.571.571,0,0,1,.3-.094.427.427,0,0,1,.3.119l.077.074a.5.5,0,0,1-.347.86Z" transform="translate(0 0)"/>
    <path class="cls-2" d="M60.8,61.655l.077.074c-.02,0-.037,0-.056,0-.008-.025-.013-.046-.021-.071m0-1a1,1,0,0,0-.953,1.3l.023.078a1,1,0,0,0,.839.685c.025,0,.067.006.1.007l.07,0a1,1,0,0,0,.693-1.721l-.077-.074a1,1,0,0,0-.693-.279Z" transform="translate(0 0)"/>
  </g>
  <g>
    <path class="cls-1" d="M49.58,71.291a1.922,1.922,0,0,1-1.974-1.832,5.19,5.19,0,0,1-.04-.992,3.485,3.485,0,0,0-.052-.917c-.017.034-.12.216-.12.216a5.3,5.3,0,0,1-5.047,2.545c-.572,0-1.156-.037-1.738-.078a1.852,1.852,0,0,1-1.386-.681,1.636,1.636,0,0,1-.259-1.374,1.5,1.5,0,0,1,1.551-1.263,2.936,2.936,0,0,1,1.112.248.8.8,0,0,1,.235.154,3.348,3.348,0,0,0,1.067.173c.687,0,1.184-.228,1.269-.448a.278.278,0,0,0-.033-.186A2.967,2.967,0,0,0,42.474,65.7a6.382,6.382,0,0,0-.809-.2,4.244,4.244,0,0,1-1.806-.679,2.312,2.312,0,0,1-1.133-1.884,2.022,2.022,0,0,1,1.036-1.628A6.969,6.969,0,0,1,43.7,59.7a4.468,4.468,0,0,1,.563.036,6.283,6.283,0,0,0,.778.047,8.735,8.735,0,0,0,1.68-.177,6.153,6.153,0,0,1,1.164-.147c1.42,0,1.544,1.207,1.652,2.272a3.172,3.172,0,0,1,0,.473c-.021.442-.006.446.145.478a.847.847,0,0,0,.181.021,1.07,1.07,0,0,0,.787-.441,12.773,12.773,0,0,1,2.718-2.109,2.8,2.8,0,0,1,1.366-.474,1.464,1.464,0,0,1,1.366.964,1.774,1.774,0,0,1,.042,1.534,1.69,1.69,0,0,1-.161.271,5.734,5.734,0,0,1,3.839-1.274,9.662,9.662,0,0,1,1.055.061.5.5,0,0,1,.42.344c.606,1.876.272,2.762-1.432,3.79-.187.112-.382.211-.576.309a3.078,3.078,0,0,0-.944.619c.725.854,1.233,1.2,1.762,1.2a3.593,3.593,0,0,0,1.72-.672c.065-.04.129-.086.192-.131l.188-.13c.091-.06.183-.134.276-.209a1.843,1.843,0,0,1,1.116-.533,1.133,1.133,0,0,1,.9.485,1.443,1.443,0,0,1,.356,1.21c-.149.718-.913,1.125-1.369,1.369a8.2,8.2,0,0,1-3.813,1.163h0A5.186,5.186,0,0,1,57.6,69.6l-.176-.08a1.792,1.792,0,0,0-.4-.153,3.775,3.775,0,0,1-1.338.248A6.065,6.065,0,0,1,52.021,67.9l-.1-.078a1.133,1.133,0,0,0-.708-.292,1.066,1.066,0,0,0-.257.033c-.028.095.015.212.171.507a1.9,1.9,0,0,1,.3,1.073c-.074.823-.187,2.068-1.7,2.147Zm4.537-5.955a6.933,6.933,0,0,1,1.409-2.451,2.722,2.722,0,0,1-.885.389c-.188.047-.38.085-.571.124-.835.167-1.467.294-1.786,1.071ZM43.027,62.713c1.842,1.153,2.231,1.359,3.129,1.463a4.651,4.651,0,0,0-.361-.665l-.152-.254c-.544-.929-.945-1.343-1.3-1.343A2.55,2.55,0,0,0,43.027,62.713Z" transform="translate(0 0)"/>
    <path class="cls-2" d="M47.889,59.956c.838,0,1.016.467,1.155,1.823.053.519-.227,1.227.54,1.389a1.365,1.365,0,0,0,.284.031,1.582,1.582,0,0,0,1.152-.6,12.361,12.361,0,0,1,2.612-2.024,2.3,2.3,0,0,1,1.108-.4.988.988,0,0,1,.914.677c.412.876-.043,1.662-1.134,1.936-1.143.287-2.448.244-2.841,1.948l2.742,1.3c.851-2.969,2.688-4.364,5.405-4.364a9,9,0,0,1,1,.058c.53,1.638.316,2.286-1.215,3.209-.677.408-1.48.615-1.885,1.383.91,1.138,1.584,1.668,2.385,1.668a4.018,4.018,0,0,0,1.979-.744c.136-.083.261-.183.394-.27.353-.23.731-.661,1.119-.661a.649.649,0,0,1,.509.3c.758.955-.24,1.5-.857,1.828a7.719,7.719,0,0,1-3.578,1.1,4.657,4.657,0,0,1-1.873-.394,2.383,2.383,0,0,0-.774-.274.355.355,0,0,0-.123.02,3.489,3.489,0,0,1-1.213.228c-1.34,0-2.4-.862-3.463-1.694a1.621,1.621,0,0,0-1.015-.4,1.707,1.707,0,0,0-.584.111c-.562.715.363,1.256.3,1.956-.078.867-.154,1.638-1.229,1.694q-.062,0-.122,0c-.879,0-1.334-.531-1.48-1.415-.128-.776.133-1.6-.24-2.321a.76.76,0,0,0-.333-.094c-.289,0-.406.283-.564.551-1.126,1.913-2.813,2.3-4.616,2.3-.561,0-1.133-.037-1.7-.077a1.156,1.156,0,0,1-1.191-1.454,1,1,0,0,1,1.062-.865,2.47,2.47,0,0,1,.923.21c.07.029.121.108.192.135a3.8,3.8,0,0,0,1.3.231c.829,0,1.548-.282,1.735-.77.24-.627-.627-1.514-2.032-1.992a7.856,7.856,0,0,1-2.476-.8c-1.155-.862-1.285-1.9-.115-2.7A6.583,6.583,0,0,1,43.7,60.2a3.993,3.993,0,0,1,.5.032,6.706,6.706,0,0,0,.841.051,9.263,9.263,0,0,0,1.775-.187,5.9,5.9,0,0,1,1.069-.138m-1.12,4.778a3.339,3.339,0,0,0-.7-1.73c-.62-1.058-1.125-1.591-1.731-1.59-.562,0-1.212.46-2.12,1.385,2.865,1.8,2.865,1.8,4.546,1.936m1.12-5.778h0a6.624,6.624,0,0,0-1.261.156,8.222,8.222,0,0,1-1.583.168,5.738,5.738,0,0,1-.716-.044,5.012,5.012,0,0,0-.626-.04,7.412,7.412,0,0,0-4.194,1.683,2.523,2.523,0,0,0-1.282,2.049,2.783,2.783,0,0,0,1.333,2.3,4.645,4.645,0,0,0,2.007.77,6.089,6.089,0,0,1,.745.18,3.3,3.3,0,0,1,1.267.72,2.019,2.019,0,0,1-.648.1,2.8,2.8,0,0,1-.832-.127,1.225,1.225,0,0,0-.281-.163,3.448,3.448,0,0,0-1.3-.285,2,2,0,0,0-2.04,1.66,2.122,2.122,0,0,0,.349,1.777,2.344,2.344,0,0,0,1.75.878c.6.042,1.182.08,1.773.08a6.008,6.008,0,0,0,4.718-1.755,3.96,3.96,0,0,0,.048.484,2.407,2.407,0,0,0,2.467,2.252c.057,0,.115,0,.175,0,1.947-.1,2.1-1.791,2.172-2.6a1.922,1.922,0,0,0-.11-.813,6.352,6.352,0,0,0,3.875,1.747,4.436,4.436,0,0,0,1.354-.219c.057.024.124.055.171.078.065.03.128.06.188.086a5.687,5.687,0,0,0,2.27.477,8.779,8.779,0,0,0,4.049-1.222,2.8,2.8,0,0,0,1.623-1.709,1.921,1.921,0,0,0-.453-1.623,1.616,1.616,0,0,0-1.292-.675,2.3,2.3,0,0,0-1.429.643c-.08.064-.158.129-.236.179s-.138.094-.207.143c-.053.038-.105.077-.161.11a3.257,3.257,0,0,1-1.46.6c-.215,0-.5-.089-1.033-.635.123-.072.269-.147.44-.233.206-.1.412-.208.609-.327,1.917-1.157,2.333-2.26,1.649-4.373a1,1,0,0,0-.84-.686,10.038,10.038,0,0,0-1.109-.064,6.726,6.726,0,0,0-3.028.657,2.513,2.513,0,0,0-.24-.9,1.958,1.958,0,0,0-1.819-1.251,3.251,3.251,0,0,0-1.626.547,13.232,13.232,0,0,0-2.822,2.194,1.476,1.476,0,0,1-.245.215,3.125,3.125,0,0,0-.008-.453c-.111-1.083-.278-2.721-2.15-2.721Zm-4.012,3.7c.3-.221.432-.239.465-.239.01,0,.239.059.781.95a14.081,14.081,0,0,1-1.246-.711Zm9.146,1.612a2.778,2.778,0,0,1,1.144-.378l.052-.01a8.227,8.227,0,0,0-.374.777l-.132-.063-.69-.326Z" transform="translate(0 0)"/>
  </g>
  <g>
    <path class="cls-1" d="M36.3,81.707a.513.513,0,0,1-.492-.37l.376-.1.013-.014-.4.063a.5.5,0,0,1,.832-.5.393.393,0,0,1,.033.037.562.562,0,0,1,.136.429.516.516,0,0,1-.258.4.845.845,0,0,1-.095.034A.533.533,0,0,1,36.3,81.707Z" transform="translate(0 0)"/>
    <path class="cls-2" d="M36.276,81.143l.005.005,0,0h0l.051.053c-.013.006-.022.007-.035.012l-.02-.068" transform="translate(0 0)"/>
  </g>
  <g>
    <path class="cls-1" d="M24.357,85.222a1.269,1.269,0,0,1-1.424-1.116,8.338,8.338,0,0,0-.276-1.051L22.638,83a2.808,2.808,0,0,0-.844.552,5.416,5.416,0,0,1-.629.472,6.035,6.035,0,0,1-3.187,1.007A5.033,5.033,0,0,1,17.455,85a3.327,3.327,0,0,1-3.183-3.019A5.8,5.8,0,0,1,16.106,76.8a2.909,2.909,0,0,1,1.5-.753,4.6,4.6,0,0,1,.693-.074,1.343,1.343,0,0,1,1.313,1,2.422,2.422,0,0,1,.4-.294,6.359,6.359,0,0,1,2.858-.719c.18-.016.843-.081.843-.081a14.423,14.423,0,0,0,2.87-.494,3.545,3.545,0,0,1,1.025-.188c1.354,0,1.491,1.355,1.543,1.865.032.309.054.619.074.93a8.657,8.657,0,0,0,.409,2.485c.041.108.074.227.107.346.093.339.139.438.2.442h0a.8.8,0,0,0,.8-.485,7.262,7.262,0,0,1,.638-1.506,3.349,3.349,0,0,0,.585-2.294,1.609,1.609,0,0,1,.21-1.4,1.426,1.426,0,0,1,1.166-.481,1.6,1.6,0,0,1,1.709,1.666c.012.318,0,.64-.008.961a4.094,4.094,0,0,0,.438,2.5l.126.2c.1.167.23.375.308.375a.453.453,0,0,0,.173-.048.491.491,0,0,1,.2-.042.5.5,0,0,1,.48.36,1.769,1.769,0,0,1-.508,2.229,1.457,1.457,0,0,1-.777.228,2.69,2.69,0,0,1-1.482-.628,6.373,6.373,0,0,1-.857-.745l-.059-.059c-.078.069-.156.139-.233.209a14.237,14.237,0,0,1-1.4,1.149,3.525,3.525,0,0,1-1.979.7,2.7,2.7,0,0,1-2.528-2.4c-.152-.643-.267-1.295-.382-1.946-.053-.3-.1-.6-.161-.9-.1-.518-.326-.518-.477-.518a.893.893,0,0,0-.132.01c-.167.021-.324.042-.373.562a6.5,6.5,0,0,0,.264,2.859,3.808,3.808,0,0,1,.273,2.147,1.508,1.508,0,0,1-1.478,1.248Zm-5.166-6.917a1.9,1.9,0,0,1-.475.32,2.577,2.577,0,0,0-1.6,2.385,1.5,1.5,0,0,0,.233,1.084,1.53,1.53,0,0,0,1.077.346h0c1.251,0,3.423-1.66,3.63-2.732a.594.594,0,0,0-.033-.449.4.4,0,0,0-.274-.076,1.116,1.116,0,0,0-.347.1,2.237,2.237,0,0,1-.533.164,1.949,1.949,0,0,1-.267.02,1.393,1.393,0,0,1-1.38-1.055C19.21,78.377,19.2,78.341,19.191,78.305Z" transform="translate(0 0)"/>
    <path class="cls-2" d="M33.374,75.6a1.091,1.091,0,0,1,1.184,1.185c.046,1.255-.254,2.557.514,3.72.241.365.423.8.85.8a.937.937,0,0,0,.373-.09c.176.606.35,1.269-.29,1.665a.96.96,0,0,1-.515.152,2.374,2.374,0,0,1-1.238-.566,12.056,12.056,0,0,1-1.145-1.043,24.725,24.725,0,0,1-1.934,1.624,3.05,3.05,0,0,1-1.694.611c-.973,0-1.734-.7-2.043-2.016-.22-.93-.36-1.879-.538-2.82-.109-.578-.416-.924-.968-.924a1.516,1.516,0,0,0-.2.014c-.572.075-.754.476-.806,1.01a7.054,7.054,0,0,0,.291,3.073,3.374,3.374,0,0,1,.258,1.872,1.012,1.012,0,0,1-1.007.858l-.115,0c-.455,0-.826-.106-.927-.7a15.693,15.693,0,0,0-.437-1.6c-.958.043-1.43.769-2.084,1.166a5.613,5.613,0,0,1-2.925.935,4.409,4.409,0,0,1-.471-.025A2.824,2.824,0,0,1,14.77,81.94a5.349,5.349,0,0,1,1.666-4.768,2.388,2.388,0,0,1,1.248-.634,4.166,4.166,0,0,1,.617-.069.765.765,0,0,1,.8.536.945.945,0,0,1-.6,1.17,3.066,3.066,0,0,0-1.886,2.81c-.068,1.32.445,1.89,1.785,1.955l.078,0c1.422,0,3.809-1.8,4.069-3.139.117-.6-.078-1.119-.8-1.119h-.041a8.834,8.834,0,0,0-.911.269,1.357,1.357,0,0,1-.2.015.9.9,0,0,1-.9-.7c-.176-.56.122-.892.571-1.164a7.376,7.376,0,0,1,3.187-.7,16.6,16.6,0,0,0,3.275-.546,3.041,3.041,0,0,1,.876-.166c.658,0,.945.431,1.046,1.416a13.823,13.823,0,0,0,.512,3.54c.163.435.188,1.077.748,1.111l.077,0a1.28,1.28,0,0,0,1.244-.863c.352-1.365,1.563-2.479,1.226-4.03-.173-.8.086-1.262.892-1.271h.02m0-1h-.031a1.9,1.9,0,0,0-1.551.67,2.08,2.08,0,0,0-.308,1.812,2.909,2.909,0,0,1-.54,1.959,7.622,7.622,0,0,0-.678,1.609.148.148,0,0,1-.043.039v0c-.037-.135-.075-.267-.121-.387a8.315,8.315,0,0,1-.379-2.348c-.021-.314-.043-.629-.075-.943-.2-1.913-1.218-2.315-2.04-2.315a3.934,3.934,0,0,0-1.174.211,14.157,14.157,0,0,1-2.784.475l-.3.031c-.174.018-.351.033-.529.049a6.85,6.85,0,0,0-3.017.756,1.729,1.729,0,0,0-1.505-.742,4.542,4.542,0,0,0-.712.071l-.058.009a3.374,3.374,0,0,0-1.754.871,6.269,6.269,0,0,0-2,5.6A3.81,3.81,0,0,0,17.4,85.5a5.414,5.414,0,0,0,.578.031,6.582,6.582,0,0,0,3.444-1.08,5.726,5.726,0,0,0,.69-.515c.082-.068.157-.13.226-.184.041.151.076.3.1.441a1.75,1.75,0,0,0,1.913,1.533l.147,0a2.008,2.008,0,0,0,1.95-1.636,4.307,4.307,0,0,0-.29-2.424,6.019,6.019,0,0,1-.241-2.628c.055.291.106.583.158.875.113.641.229,1.3.385,1.962.412,1.745,1.539,2.786,3.016,2.786a4,4,0,0,0,2.26-.787,13.339,13.339,0,0,0,1.337-1.087,5.166,5.166,0,0,0,.6.5l.042.029a3.128,3.128,0,0,0,1.767.716,1.953,1.953,0,0,0,1.041-.3,2.244,2.244,0,0,0,.724-2.794,1,1,0,0,0-1.172-.7l-.043-.07c-.044-.072-.089-.144-.135-.214a3.672,3.672,0,0,1-.356-2.21c.01-.322.02-.655.007-1A2.08,2.08,0,0,0,33.374,74.6Zm-14.9,7.346a1.266,1.266,0,0,1-.759-.182c-.031-.035-.132-.19-.1-.723a2.073,2.073,0,0,1,1.318-1.96l.035-.017a1.849,1.849,0,0,0,1.635.908,2.357,2.357,0,0,0,.339-.025,2.494,2.494,0,0,0,.573-.165,4.737,4.737,0,0,1-3.037,2.164Z" transform="translate(0 0)"/>
  </g>
  <g>
    <path class="cls-1" d="M69.332,13.438c-1.174-.038-1.3-1.014-1.375-1.6-.05-.386-.1-.771-.159-1.157a20.367,20.367,0,0,1-.2-6.4,8.656,8.656,0,0,0-1.84.371l-.349.1a8.741,8.741,0,0,1-1.475.316c-.081.008-.162.012-.241.012a1.279,1.279,0,0,1-1.386-1.1,1.217,1.217,0,0,1,.188-.953,1.5,1.5,0,0,1,1.063-.548,16.1,16.1,0,0,0,1.806-.405,16.288,16.288,0,0,1,1.9-.424c1.118-.156,2.235-.417,3.315-.67.517-.12,1.032-.24,1.552-.352A4.8,4.8,0,0,1,73.112.5c1.112,0,1.548.707,1.858,1.769a10.109,10.109,0,0,1,.281,1.479c.042.3.084.609.146.91.221,1.072.46,1.173,1.04,1.173a4.651,4.651,0,0,0,.576-.043c.382-.049.46-.135.472-.151a.483.483,0,0,0,0-.317c-.044-.206-.074-.417-.1-.627a4.279,4.279,0,0,0-.2-.924,1.307,1.307,0,0,1-.014-1.146,1.21,1.21,0,0,1,.9-.554A3.8,3.8,0,0,1,78.723,2a1.122,1.122,0,0,1,1.227,1.134c.063,1.259.336,2.125,1.5,2.556a.938.938,0,0,1,.566.8.964.964,0,0,1-.343.929c-.65.463-.55.847-.259,1.672a6.028,6.028,0,0,1,.228.755,14.342,14.342,0,0,0,.427,1.56,1.606,1.606,0,0,1-.01,1.3,1.34,1.34,0,0,1-.94.6,2.58,2.58,0,0,1-.539.06,1.387,1.387,0,0,1-1.492-1.332,19.912,19.912,0,0,0-.591-3.109l-.023-.1c-.111-.456-.3-.533-.676-.533a3.649,3.649,0,0,0-.449.035c-.772.1-.888.333-.854.821.01.147.014.3.018.444a1.815,1.815,0,0,0,.332,1.295,1.5,1.5,0,0,1,.461,1.295,1.2,1.2,0,0,1-.757.858,2.71,2.71,0,0,1-1.078.279,1.45,1.45,0,0,1-1.387-1.027,5.535,5.535,0,0,1-.357-1.516c-.02-.162-.033-.326-.046-.491C73.608,9.448,73.539,8.914,73,8.5a1.387,1.387,0,0,1-.365-1.683,2.984,2.984,0,0,0-.3-2.336c-.1-.249-.2-.5-.287-.752-.188-.561-.309-.561-.424-.561a.859.859,0,0,0-.161.019c-.749.156-.97.256-1.012.622-.282,2.413-.441,4.416.27,6.4.038.105.085.205.132.3a1.728,1.728,0,0,1,.1,1.63c-.278.575-.628,1.3-1.563,1.3Z" transform="translate(0 0)"/>
    <path class="cls-2" d="M73.112,1c.739,0,1.077.38,1.378,1.409.222.759.257,1.57.417,2.349.24,1.168.6,1.573,1.529,1.573a5.128,5.128,0,0,0,.641-.047c.654-.084,1.057-.317.9-1.069a10.665,10.665,0,0,0-.325-1.627c-.234-.6-.084-.919.511-1.026a3.284,3.284,0,0,1,.564-.064.629.629,0,0,1,.727.659c.069,1.365.391,2.469,1.822,3A.572.572,0,0,1,81.38,7c-1.281.911-.437,1.946-.232,2.937a14.629,14.629,0,0,0,.442,1.614c.2.619.187,1.1-.581,1.26a2.093,2.093,0,0,1-.434.049.891.891,0,0,1-.994-.873,21.09,21.09,0,0,0-.626-3.285,1.055,1.055,0,0,0-1.161-.914,4.1,4.1,0,0,0-.512.039c-.8.1-1.357.4-1.29,1.351a3,3,0,0,0,.481,2.043c.471.514.508,1.073-.132,1.359a2.243,2.243,0,0,1-.875.236.971.971,0,0,1-.924-.719,5.064,5.064,0,0,1-.324-1.383c-.109-.93-.021-1.928-.913-2.614A.91.91,0,0,1,73.1,7c.5-1.265-.206-2.315-.58-3.432-.169-.5-.377-.9-.9-.9a1.3,1.3,0,0,0-.263.029c-.635.132-1.316.268-1.408,1.053a14.3,14.3,0,0,0,.3,6.625c.185.515.557.92.254,1.546-.253.521-.472,1.016-1.113,1.016h-.041c-.733-.023-.817-.553-.9-1.161-.335-2.6-.881-5.175-.25-8.014h-.135a9.412,9.412,0,0,0-2.794.5,8.474,8.474,0,0,1-1.392.3c-.065.006-.129.01-.192.01a.8.8,0,0,1-.893-.684c-.108-.629.322-.847.83-.921,1.26-.182,2.471-.656,3.7-.829,1.667-.234,3.27-.68,4.9-1.027A4.348,4.348,0,0,1,73.112,1m0-1h0a5.251,5.251,0,0,0-1.088.137c-.522.111-1.041.232-1.56.353-1.119.261-2.176.508-3.272.662a16.752,16.752,0,0,0-1.964.436,15.586,15.586,0,0,1-1.744.393,1.992,1.992,0,0,0-1.4.748,1.705,1.705,0,0,0-.276,1.333A1.784,1.784,0,0,0,63.69,5.576c.1,0,.193-.005.29-.015A9.033,9.033,0,0,0,65.5,5.24l.387-.108a11.112,11.112,0,0,1,1.118-.276,22.532,22.532,0,0,0,.3,5.9c.054.384.108.767.158,1.15a1.96,1.96,0,0,0,1.855,2.032h.072a2.206,2.206,0,0,0,1.99-1.533l.023-.047a2.208,2.208,0,0,0-.1-2.057c-.04-.085-.082-.172-.115-.263-.674-1.876-.518-3.822-.244-6.171a1.6,1.6,0,0,1,.553-.176c.02.046.044.11.073.2.088.262.193.522.3.78.349.861.536,1.376.3,1.963A1.892,1.892,0,0,0,72.7,8.9c.355.273.417.627.482,1.428.014.171.028.341.048.509a6.078,6.078,0,0,0,.393,1.649,1.939,1.939,0,0,0,1.848,1.337,3.175,3.175,0,0,0,1.283-.323,1.72,1.72,0,0,0,1.043-1.214,1.978,1.978,0,0,0-.581-1.734c-.165-.18-.187-.422-.2-.971,0-.155-.008-.311-.019-.465a.646.646,0,0,1,.009-.2h0a2.269,2.269,0,0,1,.408-.087,3.1,3.1,0,0,1,.386-.031.728.728,0,0,1,.15.012c0,.013.02.058.04.14l.027.112a19.447,19.447,0,0,1,.574,3.018,1.876,1.876,0,0,0,1.99,1.791,3.093,3.093,0,0,0,.643-.071,1.814,1.814,0,0,0,1.27-.843,2.066,2.066,0,0,0,.052-1.708,13.578,13.578,0,0,1-.412-1.5,6.337,6.337,0,0,0-.246-.82c-.294-.835-.252-.865.078-1.1a1.46,1.46,0,0,0,.548-1.4,1.429,1.429,0,0,0-.889-1.2c-.821-.3-1.1-.817-1.171-2.112A1.618,1.618,0,0,0,78.723,1.5a4.186,4.186,0,0,0-.741.08,1.684,1.684,0,0,0-1.251.8,1.79,1.79,0,0,0-.016,1.571,3.972,3.972,0,0,1,.17.816c.025.175.05.351.083.524l-.018,0a4.145,4.145,0,0,1-.515.039.708.708,0,0,1-.3-.037s-.122-.107-.252-.737c-.06-.29-.1-.585-.141-.88a10.6,10.6,0,0,0-.3-1.548A2.455,2.455,0,0,0,73.112,0Z" transform="translate(0 0)"/>
  </g>
  <g>
    <path class="cls-1" d="M84.419,69.6a1.64,1.64,0,0,1-1.34-.507,1.345,1.345,0,0,1-.22-1.178,3.726,3.726,0,0,0-.128-1.555,5.964,5.964,0,0,1-.192-1.416,1.286,1.286,0,0,0-.156-.829c-.019-.02-.067-.07-.231-.07l-.675,0c-.815,0-1.308.083-1.573.522-.311.513.208,1.3.445,1.611a1.264,1.264,0,0,0,.358.21,1.244,1.244,0,0,1,.794,1.775,2.071,2.071,0,0,1-1.954,1.246c-.07,0-.137.008-.2.008-1.306,0-1.65-1.038-1.843-1.723l-.021-.015c-.151.063-.3.129-.457.194a13.728,13.728,0,0,1-1.715.647,6.145,6.145,0,0,1-1.655.232,5.093,5.093,0,0,1-3.747-1.569,4.727,4.727,0,0,1-1.218-3.624,5.152,5.152,0,0,1,2.863-4.12,1.664,1.664,0,0,1,.832-.233,1.3,1.3,0,0,1,1.12.616c.308.473.467,1.179-.525,1.856A2.372,2.372,0,0,0,71.927,64.8a1.751,1.751,0,0,0,1.75,1.355,3.226,3.226,0,0,0,.479-.038,10.948,10.948,0,0,0,1.771-.44c.214-.07.864-.284.945-.614a.275.275,0,0,0,.012-.129c-.041-.077-.383-.169-.529-.208l-.217-.061a1.434,1.434,0,0,1-1.017-.905,1,1,0,0,1,.226-.949,3.131,3.131,0,0,0,.535-2.588,1.341,1.341,0,0,1,1.192-1.328c.022,0,.137-.012.159-.012a1.372,1.372,0,0,1,1.1.682,7.736,7.736,0,0,1,.6,1.122,2.543,2.543,0,0,1,.175.678c.078.482.1.485.264.485h0a4.866,4.866,0,0,0,2.318-.463c.155-.088.188-.105-.012-.569a3.324,3.324,0,0,1-.126-.326l-.076-.241a1.832,1.832,0,0,1-.051-1.522,1.544,1.544,0,0,1,1.114-.657,2.366,2.366,0,0,1,.464-.049c.562,0,1.5.255,1.5,1.961,0,.734.208.985.928,1.117a1.247,1.247,0,0,1,1.048,1.132,1.011,1.011,0,0,1-.586,1.079c-.847.32-.755.673-.553,1.444a4.582,4.582,0,0,1,.157.79,10.194,10.194,0,0,0,.2,1.222c.075.367.15.734.194,1.105a1.6,1.6,0,0,1-.331,1.254,1.4,1.4,0,0,1-1.048.471Z" transform="translate(0 0)"/>
    <path class="cls-2" d="M83.013,58.52c.847,0,1,.74,1,1.461a1.4,1.4,0,0,0,1.337,1.609c.782.144.78,1.1.376,1.251-1.659.627-.795,1.779-.717,2.742.064.788.3,1.56.4,2.347a.928.928,0,0,1-.9,1.164h-.094c-.632,0-1.251-.21-1.07-1.082.22-1.062-.329-2.023-.309-3.063.011-.585-.053-1.408-.887-1.408h-.039c-.089,0-.18,0-.272,0h-.364a2.091,2.091,0,0,0-2,.763,2.037,2.037,0,0,0,.475,2.172c.373.493,1.547.4,1.09,1.49a1.6,1.6,0,0,1-1.531.941q-.085.006-.163.006c-.941,0-1.176-.685-1.387-1.45-.034-.123-.224-.2-.407-.356a24.2,24.2,0,0,1-2.377.929,5.631,5.631,0,0,1-1.52.214A4.285,4.285,0,0,1,69.19,63.6,4.7,4.7,0,0,1,71.8,59.875a1.182,1.182,0,0,1,.581-.166.808.808,0,0,1,.7.39c.339.519.057.865-.389,1.169a2.87,2.87,0,0,0-1.24,3.708,2.24,2.24,0,0,0,2.217,1.677,3.727,3.727,0,0,0,.554-.044,11.369,11.369,0,0,0,1.852-.46c.526-.173,1.144-.438,1.275-.968.187-.757-.568-.844-1.076-1-.588-.176-.9-.656-.559-1.048a3.623,3.623,0,0,0,.657-2.952.846.846,0,0,1,.76-.8.687.687,0,0,1,.092-.006.871.871,0,0,1,.689.464,7.247,7.247,0,0,1,.563,1.05c.245.529.019,1.453.895,1.453h.02a5.261,5.261,0,0,0,2.545-.527c.72-.407.225-1.049.1-1.477-.246-.814-.633-1.539.606-1.784a1.9,1.9,0,0,1,.367-.039m0-1a2.906,2.906,0,0,0-.561.058A2.006,2.006,0,0,0,81,58.473a2.28,2.28,0,0,0,.007,1.931l.073.23a3.806,3.806,0,0,0,.145.379l.017.039a4.5,4.5,0,0,1-1.628.29l-.01-.06a2.993,2.993,0,0,0-.215-.808,8.068,8.068,0,0,0-.645-1.193,1.805,1.805,0,0,0-1.515-.9,1.686,1.686,0,0,0-.227.015,1.83,1.83,0,0,0-1.623,1.862c.076,1.027.094,1.637-.415,2.223a1.5,1.5,0,0,0-.327,1.416,1.919,1.919,0,0,0,1.32,1.236c-.057.021-.12.044-.191.067a10.327,10.327,0,0,1-1.688.421,2.746,2.746,0,0,1-.405.033c-.534,0-.957-.176-1.283-1.033a1.892,1.892,0,0,1,.869-2.528,1.727,1.727,0,0,0,.662-2.541,1.813,1.813,0,0,0-1.539-.844,2.168,2.168,0,0,0-1.083.3,5.621,5.621,0,0,0-3.11,4.514,5.223,5.223,0,0,0,1.349,4,5.6,5.6,0,0,0,4.114,1.73A6.639,6.639,0,0,0,75.445,69a13.833,13.833,0,0,0,1.744-.655,2.179,2.179,0,0,0,2.157,1.569q.115,0,.239-.009a2.561,2.561,0,0,0,2.377-1.55,1.7,1.7,0,0,0-1.041-2.422c-.064-.03-.157-.074-.2-.1-.355-.483-.465-.878-.386-1.008.127-.21.417-.281,1.147-.281h.545a2.476,2.476,0,0,1,.017.387,6.426,6.426,0,0,0,.2,1.533,3.321,3.321,0,0,1,.126,1.345,1.83,1.83,0,0,0,.323,1.6,2.1,2.1,0,0,0,1.726.69l.125,0a1.907,1.907,0,0,0,1.412-.643,2.094,2.094,0,0,0,.449-1.639c-.048-.4-.126-.78-.2-1.148a9.883,9.883,0,0,1-.192-1.161,5.062,5.062,0,0,0-.172-.876,2.237,2.237,0,0,1-.114-.652h0a.94.94,0,0,1,.36-.2,1.5,1.5,0,0,0,.907-1.592,1.758,1.758,0,0,0-1.456-1.578c-.484-.089-.518-.13-.518-.625a3.069,3.069,0,0,0-.3-1.467,1.835,1.835,0,0,0-1.7-.994Z" transform="translate(0 0)"/>
  </g>
  <g>
    <path class="cls-1" d="M29.944,15.855c-.841,0-1.152-.739-1.4-1.333a36.275,36.275,0,0,1-1.733-5.66q-.116-.475-.233-.944c-.053,0-.107-.008-.163-.008a3.66,3.66,0,0,0-.853.14,4.255,4.255,0,0,1-1.022.16,2.266,2.266,0,0,1-.292-.019,1.406,1.406,0,0,1-1.429-1.282,1.254,1.254,0,0,1,1.177-1.34A15.223,15.223,0,0,0,27.5,4.743,14.281,14.281,0,0,1,31.8,3.851a6.854,6.854,0,0,1,2.133.331h.041a1.715,1.715,0,0,0,.353-.046c.105-.021.211-.043.313-.056a6.908,6.908,0,0,1,.862-.058,3.3,3.3,0,0,1,3.564,3.461,19.93,19.93,0,0,0,.714,3.745l.15.588c.022.086.05.178.078.272.167.556.515,1.714-.687,2.2a2,2,0,0,1-.743.162c-.8,0-1.164-.594-1.392-1.266-.026.031-.053.062-.077.092A3.4,3.4,0,0,1,34.6,14.747h0c-.626,0-1.794-.291-2.57-2.238a6.32,6.32,0,0,1,.366-6.194.759.759,0,0,0-.55-.234,1.269,1.269,0,0,0-.4.075A14.712,14.712,0,0,0,29.3,7h0c.033,0,.068.134.09.216a2.455,2.455,0,0,1,.079.379,18.48,18.48,0,0,0,1.693,5.757l.059.127a1.861,1.861,0,0,1,.264,1.463,1.428,1.428,0,0,1-.853.761A1.8,1.8,0,0,1,29.944,15.855Zm5.5-8.881c-.138,0-.286.166-.5.418a3.506,3.506,0,0,0-.573,3.053c.115.792.229,1.024.532,1.082a.632.632,0,0,0,.123.014c.084,0,.127,0,.243-.5a3.962,3.962,0,0,1,.119-.438l.082-.228a2.774,2.774,0,0,0,.257-1.641.469.469,0,0,1-.013-.111l.006-.317a6.08,6.08,0,0,0-.012-.751c-.045-.458-.079-.531-.163-.558A.387.387,0,0,0,35.439,6.974Z" transform="translate(0 0)"/>
    <path class="cls-2" d="M31.8,4.352a6.4,6.4,0,0,1,1.98.306.682.682,0,0,0,.21.03,6.1,6.1,0,0,0,.713-.111,6.33,6.33,0,0,1,.8-.054c1.853,0,2.938.97,3.065,2.992a24.087,24.087,0,0,0,.879,4.424c.161.638.6,1.517-.312,1.884a1.509,1.509,0,0,1-.556.126c-.738,0-.921-.857-1.147-1.761-.4.43-.563.592-.708.77A2.929,2.929,0,0,1,34.6,14.246c-.839,0-1.6-.645-2.106-1.923-.832-2.087-.909-4.171.536-6.03a1.411,1.411,0,0,0-1.184-.713,1.765,1.765,0,0,0-.562.1,14.925,14.925,0,0,0-2.214.874c-.426.225-.126.72-.087,1.086a19.037,19.037,0,0,0,1.736,5.914c.354.77.661,1.288-.271,1.68a1.315,1.315,0,0,1-.5.12c-.536,0-.731-.53-.98-1.118a46,46,0,0,1-1.981-6.744,1.945,1.945,0,0,0-.571-.083c-.662,0-1.259.3-1.875.3a1.735,1.735,0,0,1-.227-.014c-.481-.063-.965-.2-1-.811a.759.759,0,0,1,.714-.816c2.646-.19,5.1-1.717,7.776-1.717m3.221,7.688c.684,0,.654-.773.833-1.274a3.646,3.646,0,0,0,.356-2.147A10.587,10.587,0,0,0,36.2,7.5c-.039-.384-.055-.843-.513-.984a.848.848,0,0,0-.252-.04c-.4,0-.66.334-.92.643a4,4,0,0,0-.645,3.4c.1.669.216,1.365.933,1.5a1.165,1.165,0,0,0,.217.022M31.8,3.352h0a14.624,14.624,0,0,0-4.458.915,14.914,14.914,0,0,1-3.389.8,1.764,1.764,0,0,0-1.641,1.863c.034.692.385,1.558,1.863,1.753a2.73,2.73,0,0,0,.357.023,4.743,4.743,0,0,0,1.139-.174c.179-.043.351-.085.51-.108q.068.274.135.549a36.615,36.615,0,0,0,1.722,5.651l.037.087c.259.613.692,1.64,1.864,1.64a2.278,2.278,0,0,0,.891-.2,1.892,1.892,0,0,0,1.125-1.04,2.292,2.292,0,0,0-.276-1.855l-.057-.124a17.97,17.97,0,0,1-1.65-5.6,2.342,2.342,0,0,0-.051-.286c.495-.223,1.029-.4,1.588-.591l.089-.03.022-.007a6.938,6.938,0,0,0-.059,6.072c.885,2.221,2.282,2.553,3.035,2.553a3.479,3.479,0,0,0,2.456-1.163,1.7,1.7,0,0,0,1.527.866,2.472,2.472,0,0,0,.929-.2c1.625-.654,1.14-2.272.98-2.8-.026-.087-.052-.172-.072-.252l-.153-.6a19.439,19.439,0,0,1-.7-3.643,3.79,3.79,0,0,0-4.063-3.93,7.357,7.357,0,0,0-.926.062c-.114.014-.231.038-.349.062-.064.013-.154.031-.207.038a7.359,7.359,0,0,0-2.22-.333Zm3.082,7.167c-.009-.056-.016-.106-.022-.145a3.127,3.127,0,0,1,.359-2.535c0,.147,0,.3,0,.451,0,.115-.006.226-.006.33a1,1,0,0,0,.025.223A2.344,2.344,0,0,1,35,10.2l-.084.231q-.015.043-.029.088Z" transform="translate(0 0)"/>
  </g>
  <g>
    <path class="cls-1" d="M12.093,16.127c-.7,0-1.227-.5-1.446-1.372-.517-2.045-1-4.1-1.48-6.153L9.03,8.017a1.536,1.536,0,0,1,.887-2,1.371,1.371,0,0,1,.423-.073.934.934,0,0,1,.88.6,2.418,2.418,0,0,1,1.248-1.961,2.741,2.741,0,0,1,1.283-.432,1.586,1.586,0,0,1,1.38.934c.08.136.156.274.233.414a6.151,6.151,0,0,0,.687,1.064A6.569,6.569,0,0,1,17.6,5.175c.2-.146.405-.291.6-.445A2.658,2.658,0,0,1,19.842,4.1a2.237,2.237,0,0,1,.594.081l.172.043c.387.09,1.191.278,1.217,1.217a1.274,1.274,0,0,1-.967,1.214l-.1.042a3.34,3.34,0,0,1-.9.217c-.8.116-.826.188-.8.512.038.44.331.562,1.252.727.214.038.426.076.622.127a11.487,11.487,0,0,1,3.916,1.566,2.388,2.388,0,0,1,1.215,1.922A2.469,2.469,0,0,1,24.74,13.7a6.3,6.3,0,0,1-3.6,1.016,12.622,12.622,0,0,1-2.036-.186.5.5,0,0,1-.419-.449,1.676,1.676,0,0,1,.354-1.325,1.937,1.937,0,0,1,1.481-.5h.126l.145.5v-.5c.844,0,1.413-.032,1.789-.6a3.478,3.478,0,0,0-2.31-.871,13.77,13.77,0,0,1-2.2-.549l-.43-.133a2.381,2.381,0,0,0,.252.818,4.561,4.561,0,0,1,.261.714c.041.163.087.326.133.487a5.1,5.1,0,0,1,.279,1.764C18.48,15.3,17.7,15.6,17.063,15.6l-.123,0a1.333,1.333,0,0,1-.981-.438,1.683,1.683,0,0,1-.317-1.3c.2-2.13-.832-3.838-1.924-5.646l-.176-.291a2.333,2.333,0,0,0-.249,1.671l.021.316c.046.792.142,1.6.234,2.385.072.616.146,1.231.2,1.848a1.674,1.674,0,0,1-1.39,1.965A1.554,1.554,0,0,1,12.093,16.127Z" transform="translate(0 0)"/>
    <path class="cls-2" d="M19.843,4.6a1.73,1.73,0,0,1,.46.063c.435.119,1,.147,1.022.791.013.492-.4.621-.768.787-.733.33-2.1,0-1.993,1.229.1,1.121,1.343,1.059,2.247,1.294a11.042,11.042,0,0,1,3.75,1.488c1.381.987,1.332,2.077-.1,3.029a5.8,5.8,0,0,1-3.323.932,12.373,12.373,0,0,1-1.958-.179c-.094-1.077.539-1.275,1.339-1.278h.286c.937,0,1.861-.034,2.366-1.15-.692-1.029-1.758-1.166-2.882-1.325a24.487,24.487,0,0,1-3.012-.807c-.4.876.214,1.551.394,2.278a6.913,6.913,0,0,1,.4,2.1c-.043.692-.248,1.244-1.008,1.244l-.093,0c-.722-.04-.888-.559-.829-1.19.231-2.476-1.076-4.413-2.258-6.388-.066-.11-.278-.132-.439-.2-.87.711-.68,1.713-.627,2.624.083,1.419.313,2.828.431,4.245a1.19,1.19,0,0,1-.974,1.43,1.081,1.081,0,0,1-.179.016c-.565,0-.837-.5-.962-.994C10.567,12.4,10.043,10.149,9.516,7.9c-.138-.588-.066-1.209.556-1.413a.871.871,0,0,1,.268-.049c.536,0,.47.752.77,1.06.108.111.235.2.474.406.166-1.086-.045-2.235,1.129-2.894a2.268,2.268,0,0,1,1.039-.367c.351,0,.657.193.949.688A6.392,6.392,0,0,0,16.149,7.35,7.133,7.133,0,0,1,18.51,5.12,2.155,2.155,0,0,1,19.843,4.6m0-1h0a3.145,3.145,0,0,0-1.956.74c-.187.149-.383.289-.579.43a9.293,9.293,0,0,0-1.219.986c-.1-.159-.19-.326-.287-.5-.079-.144-.158-.286-.24-.426a2.07,2.07,0,0,0-1.81-1.18,3.188,3.188,0,0,0-1.528.5A2.752,2.752,0,0,0,10.95,5.571a1.416,1.416,0,0,0-.61-.129,1.843,1.843,0,0,0-.579.1A2.023,2.023,0,0,0,8.542,8.132l.1.416c.487,2.076.99,4.223,1.522,6.33a2.035,2.035,0,0,0,1.931,1.749,2.077,2.077,0,0,0,.344-.029,2.165,2.165,0,0,0,1.805-2.5c-.052-.625-.125-1.248-.2-1.872-.1-.809-.186-1.574-.231-2.349-.006-.107-.014-.215-.022-.324s-.014-.189-.018-.275a7.52,7.52,0,0,1,1.371,4.531,2.155,2.155,0,0,0,.436,1.669,1.826,1.826,0,0,0,1.334.613c.051,0,.1,0,.148,0a1.849,1.849,0,0,0,1.774-1.126,1,1,0,0,0,.188.049,13.171,13.171,0,0,0,2.117.192,6.773,6.773,0,0,0,3.876-1.1,2.9,2.9,0,0,0,1.549-2.338,2.828,2.828,0,0,0-1.424-2.337,11.9,11.9,0,0,0-4.081-1.643c-.209-.054-.434-.1-.661-.136a3.736,3.736,0,0,1-.8-.2c.1-.02.229-.038.326-.052a3.786,3.786,0,0,0,1.036-.256l.094-.041a1.759,1.759,0,0,0,1.264-1.685,1.79,1.79,0,0,0-1.6-1.69c-.053-.012-.1-.024-.155-.038a2.74,2.74,0,0,0-.725-.1Zm-1,8.647c-.024-.089-.049-.176-.074-.262-.045-.156-.089-.313-.128-.472a4.3,4.3,0,0,0-.227-.651,11.7,11.7,0,0,0,1.734.409,5.207,5.207,0,0,1,1.642.395,3.394,3.394,0,0,1-.985.089h-.29a2.58,2.58,0,0,0-1.671.492Z" transform="translate(0 0)"/>
  </g>
  <g>
    <path class="cls-1" d="M68.165,83.8a1.2,1.2,0,0,1-1.3-1.315,8.573,8.573,0,0,0-.569-2.488,14.1,14.1,0,0,1-.511-1.8c-.132-.689-.351-.689-.469-.689a1.57,1.57,0,0,0-.551.138,3.248,3.248,0,0,1-.826.213,3.126,3.126,0,0,0-.312.062,2.832,2.832,0,0,1-.636.1,1.115,1.115,0,0,1-1.132-1.064A1.759,1.759,0,0,1,63.205,74.7c.229-.051.462-.082.694-.113a2.181,2.181,0,0,0,1.611-.678.964.964,0,0,1,.762-.354,1.532,1.532,0,0,1,1.259.788c.231.4.441.485.707.485a3.076,3.076,0,0,0,.767-.143,11.17,11.17,0,0,0,4.322-1.971,3.8,3.8,0,0,1,2.387-.964,3.519,3.519,0,0,1,3.15,2.509,5.42,5.42,0,0,1-.431,5.163,5.723,5.723,0,0,1-4.877,2.466h-.1c-2.841-.042-4.091-1.194-4.462-4.109l-.018-.154a1.636,1.636,0,0,0-.1-.48c-.057.011-.108.014-.186.03-.112.024-.241.053-.143.557a10.678,10.678,0,0,0,1.28,3.4,1.789,1.789,0,0,1,.2,1.77,1.765,1.765,0,0,1-1.468.87A3.692,3.692,0,0,1,68.165,83.8Zm7.651-9.266a.647.647,0,0,0-.639.421,3.152,3.152,0,0,1-2.145,1.669,1.2,1.2,0,0,0-.979,1.6c.156.813.622.938,1.574,1.01a3.128,3.128,0,0,0,2.526-1.244,2.871,2.871,0,0,0,.461-2.556c-.177-.6-.274-.829-.587-.884A1.242,1.242,0,0,0,75.817,74.533Z" transform="translate(0 0)"/>
    <path class="cls-2" d="M75.714,72.253a3.045,3.045,0,0,1,2.688,2.2,4.957,4.957,0,0,1-4.845,6.938h-.094c-2.588-.038-3.632-.991-3.973-3.673-.065-.51-.067-1.061-.637-1.061a1.253,1.253,0,0,0-.264.032c-.59.128-.626.638-.528,1.141A11.236,11.236,0,0,0,69.4,81.384c.6,1.032.189,1.773-.894,1.892a3.151,3.151,0,0,1-.34.022c-.428,0-.78-.146-.8-.828-.037-1.53-.808-2.894-1.09-4.368-.145-.757-.457-1.1-.96-1.1a2.02,2.02,0,0,0-.739.174,2.723,2.723,0,0,1-.7.179,8.344,8.344,0,0,1-.889.154c-.3,0-.545-.136-.64-.656a1.275,1.275,0,0,1,.958-1.669c.91-.2,1.87-.085,2.586-.962a.466.466,0,0,1,.374-.171,1.043,1.043,0,0,1,.825.537,1.235,1.235,0,0,0,1.141.737,3.424,3.424,0,0,0,.9-.161,11.641,11.641,0,0,0,4.5-2.066,3.289,3.289,0,0,1,2.068-.849m-2.1,7.482A3.505,3.505,0,0,0,77.1,75.294c-.157-.53-.31-1.117-.981-1.233a1.75,1.75,0,0,0-.3-.027,1.142,1.142,0,0,0-1.09.706,2.625,2.625,0,0,1-1.828,1.4,1.693,1.693,0,0,0-1.334,2.179c.241,1.251,1.185,1.35,2.027,1.414h.02m2.1-8.482h0a4.293,4.293,0,0,0-2.7,1.078,10.769,10.769,0,0,1-4.141,1.876,2.726,2.726,0,0,1-.63.123c-.084,0-.139,0-.272-.233a2.042,2.042,0,0,0-1.693-1.04,1.455,1.455,0,0,0-1.149.538c-.284.348-.62.407-1.292.5-.245.033-.49.067-.733.12a2.248,2.248,0,0,0-1.728,2.827,1.62,1.62,0,0,0,1.624,1.475,3.289,3.289,0,0,0,.748-.109A2.5,2.5,0,0,1,64,78.353a3.746,3.746,0,0,0,.954-.245,1.687,1.687,0,0,1,.269-.088,1.639,1.639,0,0,1,.072.27,14.387,14.387,0,0,0,.528,1.862,8.221,8.221,0,0,1,.544,2.343,1.7,1.7,0,0,0,1.8,1.8,4.158,4.158,0,0,0,.45-.028,2.241,2.241,0,0,0,1.859-1.141,2.021,2.021,0,0,0,.148-1.359,5.936,5.936,0,0,0,2.828.619h.109A6.216,6.216,0,0,0,78.85,79.7a5.915,5.915,0,0,0,.477-5.632,3.994,3.994,0,0,0-3.613-2.818ZM73.63,78.735c-.9-.071-1-.174-1.084-.6-.119-.619.027-.859.625-1.028a3.613,3.613,0,0,0,2.459-1.936c.064-.135.1-.135.186-.135a.751.751,0,0,1,.128.012,2.058,2.058,0,0,1,.179.482l.015.05a2.377,2.377,0,0,1-.383,2.115,2.635,2.635,0,0,1-2.125,1.042Z" transform="translate(0 0)"/>
  </g>
  <g>
    <path class="cls-1" d="M39.154,85.617a1.745,1.745,0,0,1-1.383-.992,4.7,4.7,0,0,1-.558-1.286,2.95,2.95,0,0,0-.587-1.214c-.422-.436-.729-3.563-.646-4.542L36,77.322c.111-1.395.251-3.13,2.009-3.843a4.617,4.617,0,0,1,1.75-.351,5.086,5.086,0,0,1,3.229,1.249,9.31,9.31,0,0,1,1.459,1.4,3.166,3.166,0,0,1,.729,2.6A3.385,3.385,0,0,1,43.387,80.6c-.059.033-.115.067-.173.1a7.676,7.676,0,0,0,3.352.78.645.645,0,0,1,.521.339c.365,1.033.393,1.655.092,2.081a1.168,1.168,0,0,1-1.02.451,3.69,3.69,0,0,1-.85-.119c-1.242-.3-2.456-.7-3.63-1.088-.4-.133-.8-.266-1.2-.393-.016.059.021.134.1.3a1.571,1.571,0,0,1,.2.674,1.724,1.724,0,0,1-1.1,1.795,1.438,1.438,0,0,1-.516.1Zm-.113-7.928a1.37,1.37,0,0,0,.262.9.917.917,0,0,0,.677.226h.166a3.085,3.085,0,0,0,1.942-.388.708.708,0,0,0,.168-.556,3.1,3.1,0,0,0-2.395-2.084.779.779,0,0,0-.1.006c-.447.057-.492.192-.521.858A2.434,2.434,0,0,1,39.04,77.689Z" transform="translate(0 0)"/>
    <path class="cls-2" d="M39.76,73.628a4.573,4.573,0,0,1,2.91,1.135,8.858,8.858,0,0,1,1.384,1.319,2.537,2.537,0,0,1-.911,4.076c-.265.148-.511.329-.816.527a7.084,7.084,0,0,0,4.287,1.3c.454,1.283.353,1.865-.456,1.865a3.24,3.24,0,0,1-.733-.105c-1.742-.418-3.434-1.045-5.075-1.558-.807.572-.081,1.052-.079,1.537a1.258,1.258,0,0,1-.781,1.327.941.941,0,0,1-.337.068c-.451,0-.721-.408-.979-.788-.533-.787-.5-1.841-1.189-2.552a13.615,13.615,0,0,1-.508-4.152c.121-1.43.152-3.047,1.72-3.683a4.136,4.136,0,0,1,1.563-.314m.381,5.685c1.908,0,2.626-.4,2.614-1.449s-1.7-2.578-2.894-2.578a1.265,1.265,0,0,0-.16.01c-1.414.18-.682,1.58-1.159,2.255-.029,1.17.459,1.75,1.431,1.762h.169m-.381-6.685h0a5.14,5.14,0,0,0-1.938.387c-2.044.829-2.2,2.816-2.32,4.267l-.021.258c-.067.792.15,4.276.786,4.932a2.589,2.589,0,0,1,.469,1.016,5.136,5.136,0,0,0,.61,1.4,2.224,2.224,0,0,0,1.807,1.227,1.942,1.942,0,0,0,.693-.134,2.214,2.214,0,0,0,1.424-2.264,1.548,1.548,0,0,0-.012-.189l.266.088c1.183.391,2.406.8,3.667,1.1a4.177,4.177,0,0,0,.967.133,1.64,1.64,0,0,0,1.427-.662,2.8,2.8,0,0,0-.029-2.536,1,1,0,0,0-.861-.663l-.09-.007a10.459,10.459,0,0,1-2.344-.363,3.638,3.638,0,0,0,1.4-2.14,3.7,3.7,0,0,0-.824-3.011,9.728,9.728,0,0,0-1.536-1.475,5.578,5.578,0,0,0-3.546-1.363Zm.01,3.669.057-.009h0a2.72,2.72,0,0,1,1.926,1.589.471.471,0,0,1-.024.2s-.217.24-1.59.24h-.157a.515.515,0,0,1-.323-.073.732.732,0,0,1-.117-.445,3.108,3.108,0,0,0,.2-1.121c.005-.115.012-.276.028-.376Z" transform="translate(0 0)"/>
  </g>
  <g>
    <path class="cls-1" d="M46.591,82.484a.522.522,0,0,1-.27-.941.558.558,0,0,1,.312-.1.434.434,0,0,1,.3.112l.074.069a.5.5,0,0,1-.341.865Z" transform="translate(0 0)"/>
    <path class="cls-2" d="M46.6,81.925l.067.063-.048,0c-.007-.021-.011-.037-.019-.059m0-1a1,1,0,0,0-.946,1.324c.006.021.018.058.023.07a1,1,0,0,0,.862.662c.027,0,.055,0,.082,0a1.029,1.029,0,0,0,.937-.593.99.99,0,0,0-.206-1.132l-.075-.07a1,1,0,0,0-.677-.264Z" transform="translate(0 0)"/>
  </g>
  <g>
    <path class="cls-1" d="M43.067,15.441a3,3,0,0,1-2.25-.778,3.636,3.636,0,0,1-.836-2.707c0-.387.028-.773.054-1.16l.033-.535a10.657,10.657,0,0,0-.291-4.1,1.939,1.939,0,0,1,.063-1.537,1.387,1.387,0,0,1,.916-.64,2.127,2.127,0,0,1,.5-.064c.857,0,1.426.593,1.561,1.627a23.391,23.391,0,0,1,.117,5.124c-.088,1-.026,1.579.194,1.821.051.055.205.223.829.223a7.682,7.682,0,0,0,1.15-.112c.381-.061.758-.146,1.133-.235.8-.19,1.048-.446.811-1.5a16.964,16.964,0,0,1-.307-3.3c-.01-.356-.02-.712-.036-1.064L46.7,6.371a1.673,1.673,0,0,1,.563-1.62,2.338,2.338,0,0,1,1.327-.52,1.514,1.514,0,0,1,.762.207,1.32,1.32,0,0,1,.521,1.605,11.623,11.623,0,0,0-.113,4.109c.229,1.763.723,2.085,1.611,2.085a5.7,5.7,0,0,0,1.181-.152c.015,0,.064-.033.1-.054a1.689,1.689,0,0,1,.279-.132,1.921,1.921,0,0,1,.6-.105,1.176,1.176,0,0,1,1.055.582,1.411,1.411,0,0,1-.579,1.914,5.008,5.008,0,0,1-2.487.939,2.075,2.075,0,0,1-1.2-.366,2.555,2.555,0,0,0-1.51-.48,6.766,6.766,0,0,0-1.591.267c-.282.069-.565.14-.852.194-.326.063-.65.146-.975.229a11.227,11.227,0,0,1-1.628.33A6.992,6.992,0,0,1,43.067,15.441Z" transform="translate(0 0)"/>
    <path class="cls-2" d="M41.26,4.421c.634,0,.971.473,1.064,1.192a23.046,23.046,0,0,1,.115,5.015c-.168,1.914.159,2.588,1.521,2.588a8.12,8.12,0,0,0,1.229-.118c.393-.062.783-.151,1.171-.243,1.15-.273,1.46-.864,1.181-2.1a24.933,24.933,0,0,1-.33-4.279c-.022-.46-.1-1,.348-1.322a1.865,1.865,0,0,1,1.036-.427,1.017,1.017,0,0,1,.513.141c.386.221.377.639.281,1.062a12.124,12.124,0,0,0-.122,4.284c.231,1.779.782,2.521,2.107,2.521a6.192,6.192,0,0,0,1.287-.164,4.71,4.71,0,0,0,.434-.2,1.422,1.422,0,0,1,.443-.079.681.681,0,0,1,.624.337.92.92,0,0,1-.413,1.234,4.629,4.629,0,0,1-2.224.865,1.578,1.578,0,0,1-.916-.278,3.052,3.052,0,0,0-1.793-.568,13.889,13.889,0,0,0-2.536.47c-.858.164-1.7.464-2.56.552a6.47,6.47,0,0,1-.656.036c-1.822,0-2.6-.942-2.585-2.981.005-.558.056-1.115.086-1.673a11.163,11.163,0,0,0-.309-4.261c-.181-.639-.214-1.351.619-1.556a1.611,1.611,0,0,1,.383-.05m0-1a2.619,2.619,0,0,0-.622.079,1.881,1.881,0,0,0-1.23.872A2.4,2.4,0,0,0,39.3,6.3a10.133,10.133,0,0,1,.277,3.883c0,.017,0,.035,0,.052-.009.171-.021.343-.032.514-.026.39-.052.793-.056,1.2a4.1,4.1,0,0,0,.98,3.064,3.52,3.52,0,0,0,2.605.927,7.507,7.507,0,0,0,.757-.041,11.531,11.531,0,0,0,1.7-.343c.314-.08.628-.161.945-.222.3-.056.587-.128.878-.2a6.4,6.4,0,0,1,1.471-.252,2.053,2.053,0,0,1,1.227.392,2.569,2.569,0,0,0,1.482.454,5.421,5.421,0,0,0,2.75-1.014,1.9,1.9,0,0,0,.746-2.594,1.681,1.681,0,0,0-1.484-.827,2.407,2.407,0,0,0-.759.131,2.065,2.065,0,0,0-.369.171l-.025.014a5.125,5.125,0,0,1-1.011.128c-.5,0-.9,0-1.116-1.65a11.144,11.144,0,0,1,.106-3.933A1.785,1.785,0,0,0,49.6,4a2.012,2.012,0,0,0-1.01-.273,2.836,2.836,0,0,0-1.619.614A2.147,2.147,0,0,0,46.2,6.4l.007.123c.017.35.026.7.036,1.055a17.4,17.4,0,0,0,.318,3.4c.172.758.114.772-.437.9-.333.079-.72.169-1.1.228a7.181,7.181,0,0,1-1.073.106.963.963,0,0,1-.464-.065c-.012-.017-.166-.246-.061-1.435a23.9,23.9,0,0,0-.119-5.232A2.086,2.086,0,0,0,41.26,3.421Z" transform="translate(0 0)"/>
  </g>
  <g>
    <path class="cls-1" d="M3.865,71.307a2.358,2.358,0,0,1-.931-.2A4.579,4.579,0,0,1,.551,66.419a7.6,7.6,0,0,1,7.207-5.955,5.937,5.937,0,0,1,.854.062c1.121.166,1.631.758,1.515,1.76a8.613,8.613,0,0,0,1.241,5.775,1.282,1.282,0,0,1-.441,1.713,1.215,1.215,0,0,1-.733.25,1.572,1.572,0,0,1-.96-.376A4.08,4.08,0,0,1,8.111,68c-.062-.132-.123-.265-.188-.4l-.093.147c-.372.592-.723,1.151-1.117,1.688a3.737,3.737,0,0,1-2.847,1.866ZM3.45,67.425a6.678,6.678,0,0,0,.283.843c.054.122.1.122.144.122a.555.555,0,0,0,.207-.05c1.144-.48,2.766-3.593,2.444-4.691-.093-.318-.179-.318-.215-.318a.6.6,0,0,0-.191.04A4.534,4.534,0,0,0,3.4,67.24Z" transform="translate(0 0)"/>
    <path class="cls-2" d="M7.757,60.964a5.375,5.375,0,0,1,.783.057c.787.116,1.18.425,1.09,1.206a9.146,9.146,0,0,0,1.314,6.1.791.791,0,0,1-.314,1.046.722.722,0,0,1-.436.152,1.1,1.1,0,0,1-.653-.271c-.785-.611-.928-1.636-1.6-2.614-.591.912-1.072,1.739-1.635,2.506a3.293,3.293,0,0,1-2.444,1.662,1.866,1.866,0,0,1-.735-.155,4.078,4.078,0,0,1-2.085-4.159,7.067,7.067,0,0,1,6.712-5.529m-3.88,7.925a1.047,1.047,0,0,0,.4-.089c1.359-.57,3.123-3.952,2.731-5.292-.11-.375-.3-.678-.7-.678a1.089,1.089,0,0,0-.354.067A5.032,5.032,0,0,0,2.9,67.319a10.324,10.324,0,0,0,.378,1.149.63.63,0,0,0,.6.422m3.88-8.925a8.023,8.023,0,0,0-7.7,6.381,5.074,5.074,0,0,0,2.683,5.228,2.867,2.867,0,0,0,1.126.234,4.193,4.193,0,0,0,3.25-2.07c.262-.357.5-.721.744-1.1a3.866,3.866,0,0,0,1.068,1.4,2.056,2.056,0,0,0,1.267.482,1.729,1.729,0,0,0,1.029-.347,1.77,1.77,0,0,0,.568-2.381,8.136,8.136,0,0,1-1.168-5.453,1.979,1.979,0,0,0-1.938-2.31,6.4,6.4,0,0,0-.929-.067ZM3.9,67.165A4.188,4.188,0,0,1,6.071,63.93a6.688,6.688,0,0,1-1.992,3.843c-.058-.17-.107-.34-.149-.488l-.034-.12Z" transform="translate(0 0)"/>
  </g>
  <g>
    <path class="cls-1" d="M46.662,82.488a.5.5,0,0,1-.343-.136l-.067-.063a.51.51,0,0,1-.16-.367.5.5,0,0,1,.3-.457.535.535,0,0,1,.216-.045.509.509,0,0,1,.444.242l.054.089a.5.5,0,0,1-.44.737Z" transform="translate(0 0)"/>
    <path class="cls-2" d="M46.617,81.912c.015.025.032.05.045.076l-.067-.063h0l0,0c.009,0,.016-.005.025-.01m-.023-.993a.959.959,0,0,0-.283.042h0a1.158,1.158,0,0,0-.187.077,1,1,0,0,0-.21,1.621l.064.06a1,1,0,0,0,1.57-1.193c-.02-.038-.042-.076-.066-.114a1.061,1.061,0,0,0-.888-.493Z" transform="translate(0 0)"/>
  </g>
  <g>
    <path class="cls-1" d="M52.172,85.585A4.52,4.52,0,0,1,49.4,84.67a6.152,6.152,0,0,1-1.891-2.121c-.147-.3-.265-.3-.314-.3a.813.813,0,0,0-.354.111.493.493,0,0,1-.229.056.5.5,0,0,1-.434-.25c-.054-.095-.118-.188-.183-.282a1.725,1.725,0,0,1-.428-1.329,1.5,1.5,0,0,1,.777-.937c.2-.118.211-.205.132-.715a4.559,4.559,0,0,1,.539-2.6c.791-1.8,1.856-2.18,2.612-2.18a2.686,2.686,0,0,1,.96.188,3.33,3.33,0,0,1,1.852,3.913,4.443,4.443,0,0,1-1.8,2.545c-.427.356-.52.55-.523.649s.079.3.485.685a2.336,2.336,0,0,0,1.584.719,2.372,2.372,0,0,0,1.64-.772c.049-.049.095-.1.141-.155a1.341,1.341,0,0,1,.874-.561,1.756,1.756,0,0,1,.191-.01,2,2,0,0,1,1.01.268c.718.433.371,1.215.257,1.472A4.443,4.443,0,0,1,52.172,85.585Z" transform="translate(0 0)"/>
    <path class="cls-2" d="M49.632,74.621a2.174,2.174,0,0,1,.781.156,2.831,2.831,0,0,1,1.542,3.349,3.94,3.94,0,0,1-1.632,2.258c-.933.778-.921,1.264-.062,2.08a2.808,2.808,0,0,0,1.928.857A2.844,2.844,0,0,0,54.18,82.4c.226-.223.4-.541.714-.574a1.36,1.36,0,0,1,.14-.007,1.513,1.513,0,0,1,.751.2c.333.2.186.553.059.841a3.972,3.972,0,0,1-3.672,2.225,4.053,4.053,0,0,1-2.467-.812,5.615,5.615,0,0,1-1.743-1.943.853.853,0,0,0-.764-.583,1.3,1.3,0,0,0-.582.167c-.355-.615-1.078-1.226-.008-1.872.524-.316.435-.778.361-1.258a4.123,4.123,0,0,1,.517-2.3c.542-1.238,1.277-1.863,2.145-1.863m-.391,4a.459.459,0,0,0,.174-.04.874.874,0,0,0,.515-.942c0-.221-.086-.481-.28-.481a.246.246,0,0,0-.052.006c-.559.123-.631.624-.62,1.1,0,.164.064.361.262.361m.391-5h0c-.905,0-2.171.427-3.061,2.463a5.046,5.046,0,0,0-.589,2.851c.016.1.033.213.041.292a1.962,1.962,0,0,0-.939,1.215,2.187,2.187,0,0,0,.5,1.718c.057.084.115.167.163.251a1,1,0,0,0,1.324.39l0,0a6.642,6.642,0,0,0,2.02,2.269,5.022,5.022,0,0,0,3.073,1.017,4.944,4.944,0,0,0,4.586-2.821c.555-1.254-.047-1.855-.456-2.1a2.518,2.518,0,0,0-1.268-.339,2.354,2.354,0,0,0-.243.012,1.811,1.811,0,0,0-1.2.732c-.037.043-.073.086-.112.125a1.934,1.934,0,0,1-1.289.629,1.825,1.825,0,0,1-1.24-.582,2.621,2.621,0,0,1-.283-.3,2.52,2.52,0,0,1,.3-.282,4.919,4.919,0,0,0,1.973-2.831,3.821,3.821,0,0,0-2.163-4.477,3.174,3.174,0,0,0-1.14-.223Z" transform="translate(0 0)"/>
  </g>
  <g>
    <path class="cls-1" d="M46.6,81.925h0l.067.063Z" transform="translate(0 0)"/>
    <path class="cls-2" d="M46.6,81.925l.067.063-.067-.063h0m.067.063h0M46.6,80.925a1,1,0,0,0-.691,1.723l.069.064a1,1,0,0,0,1.374-1.454L47.28,81.2a1,1,0,0,0-.685-.272Z" transform="translate(0 0)"/>
  </g>
  <g>
    <path class="cls-1" d="M67.633,19a1.446,1.446,0,0,1-1.615-1.187,1.858,1.858,0,0,1,.474-1.473,1.751,1.751,0,0,1,1.3-.7,1.162,1.162,0,0,1,.308.041,13.139,13.139,0,0,0,3.517.423c1.175,0,2.378-.107,3.542-.211,1.05-.093,2.136-.189,3.212-.21.266,0,.53-.007.8-.007.724,0,1.448.016,2.173.031s1.436.032,2.153.032a24.261,24.261,0,0,0,4.069-.282c.2-.033.4-.057.6-.08a2.362,2.362,0,0,0,1.721-.656A1.482,1.482,0,0,1,91,14.188a1.416,1.416,0,0,1,.554.114l.165.068c.628.26,1.681.694,1.489,1.9a1.712,1.712,0,0,1-1.934,1.5h0a5.869,5.869,0,0,1-.637-.041c-2.933.248-5.912.282-8.8.315a83.545,83.545,0,0,0-12.555.781l-.221.038a6.987,6.987,0,0,1-1.032.124Z" transform="translate(0 0)"/>
    <path class="cls-2" d="M91,14.689a.91.91,0,0,1,.358.074c.652.277,1.5.539,1.356,1.429-.138.87-.751,1.077-1.44,1.077a5.379,5.379,0,0,1-.628-.043c-7.137.61-14.331-.064-21.439,1.106a8.562,8.562,0,0,1-1.183.156c-.127,0-.258.008-.387.008-.511,0-1-.088-1.126-.779a1.55,1.55,0,0,1,1.28-1.584.668.668,0,0,1,.175.023,13.776,13.776,0,0,0,3.649.441c2.257,0,4.51-.379,6.763-.421q.391-.007.782-.007c1.443,0,2.888.064,4.332.064a25.177,25.177,0,0,0,4.15-.289c.947-.157,1.906-.078,2.619-.9A.986.986,0,0,1,91,14.689m0-1h0a1.983,1.983,0,0,0-1.5.7c-.3.346-.685.4-1.4.487-.208.024-.418.049-.627.083a23.821,23.821,0,0,1-3.986.275c-.715,0-1.43-.016-2.145-.032s-1.458-.032-2.187-.032q-.4,0-.8.007c-1.094.021-2.188.118-3.247.212-1.153.1-2.346.209-3.5.209a12.636,12.636,0,0,1-3.386-.406,1.67,1.67,0,0,0-.437-.058,2.244,2.244,0,0,0-1.682.883,2.364,2.364,0,0,0-.582,1.885A1.887,1.887,0,0,0,67.635,19.5c.1,0,.2,0,.293-.006l.116,0a7.482,7.482,0,0,0,1.11-.132l.213-.036a83.036,83.036,0,0,1,12.481-.775c2.876-.033,5.848-.068,8.782-.314a5.931,5.931,0,0,0,.642.039A2.213,2.213,0,0,0,93.7,16.348c.253-1.595-1.181-2.187-1.794-2.44l-.158-.066A1.9,1.9,0,0,0,91,13.689Z" transform="translate(0 0)"/>
  </g>
  <g>
    <path class="cls-1" d="M14.6,70.8a1.657,1.657,0,0,1-1.663-1.412c-.244-.974-.463-2.051-.667-3.294a6.323,6.323,0,0,0-.284-1,3.271,3.271,0,0,1-.231-2.151c-.062-1.031-.062-1.744.34-2.17a1.271,1.271,0,0,1,.98-.356,6.535,6.535,0,0,1,1.133.137,11.852,11.852,0,0,0,1.364.14,9,9,0,0,1,2.224.335A4.213,4.213,0,0,1,20.96,64a4.079,4.079,0,0,1-1.523,4.265,10.8,10.8,0,0,1-4.032,2.4A2.8,2.8,0,0,1,14.6,70.8Zm.555-7.605c-.235,0-.354,0-.365,1.262a5.659,5.659,0,0,0,.4,2.132l.084.267c.106.343.313.751.694.751a1.3,1.3,0,0,0,.7-.277c1.33-.931,1.865-1.713,1.737-2.535-.152-.981-1.159-1.245-2.565-1.511A4.031,4.031,0,0,0,15.155,63.2Z" transform="translate(0 0)"/>
    <path class="cls-2" d="M13.075,60.92a6.288,6.288,0,0,1,1.042.128,26.419,26.419,0,0,1,3.525.459,3.761,3.761,0,0,1,2.832,2.617,3.59,3.59,0,0,1-1.367,3.768,10.451,10.451,0,0,1-3.848,2.3,2.287,2.287,0,0,1-.659.11,1.165,1.165,0,0,1-1.178-1.034c-.27-1.072-.48-2.161-.659-3.253-.176-1.073-.882-2.062-.5-2.992-.1-1.607-.024-2.1.816-2.1m2.9,7.186a1.764,1.764,0,0,0,.987-.368C18.022,66.994,19.1,66,18.9,64.716c-.219-1.407-1.716-1.688-2.972-1.926a4.39,4.39,0,0,0-.777-.1c-.717,0-.853.427-.865,1.756A6.824,6.824,0,0,0,14.8,67c.228.733.649,1.1,1.172,1.1m-2.9-8.186a1.789,1.789,0,0,0-1.346.513,3.134,3.134,0,0,0-.48,2.452,3.865,3.865,0,0,0,.264,2.375,5.9,5.9,0,0,1,.263.916c.206,1.254.427,2.344.676,3.334A2.144,2.144,0,0,0,14.6,71.3a3.284,3.284,0,0,0,.95-.153,11.269,11.269,0,0,0,4.215-2.5,4.547,4.547,0,0,0,1.679-4.764,4.675,4.675,0,0,0-3.5-3.326,9.38,9.38,0,0,0-2.341-.358,11.581,11.581,0,0,1-1.311-.133,6.923,6.923,0,0,0-1.22-.144Zm2.9,7.186h-.008a.836.836,0,0,1-.209-.4l-.085-.27a5.458,5.458,0,0,1-.388-1.865,1.014,1.014,0,0,0,.007-.111,7.516,7.516,0,0,1,.035-.755c.164.018.347.053.421.067,1.426.27,2.076.492,2.17,1.1s-.392,1.252-1.53,2.049a.888.888,0,0,1-.414.187Z" transform="translate(0 0)"/>
  </g>
  <g>
    <path class="cls-1" d="M24.9,69.857a2.566,2.566,0,0,1-1.881-.954,7.274,7.274,0,0,1-1.84-3.86,4.58,4.58,0,0,1-.044-.724,4.588,4.588,0,0,0-.02-.492,1.64,1.64,0,0,0-.184-.458,1.536,1.536,0,0,1,.071-1.882,3,3,0,0,1,2.515-.963l.512.007A10.93,10.93,0,0,1,28.6,61.654a3,3,0,0,1,1.177,4.81,10.454,10.454,0,0,1-2.942,2.578l-.426.287a2.694,2.694,0,0,1-1.51.528Zm-.031-6.689c-.675,0-.778,0-.8.917-.031,1.439.688,2.594,1.17,2.639h0a3.025,3.025,0,0,0,2.091-2.186c.007-.752-.855-1.3-2.146-1.362C25.075,63.171,24.97,63.168,24.871,63.168Z" transform="translate(0 0)"/>
    <path class="cls-2" d="M23.521,61.024c.167,0,.336,0,.5.007A10.418,10.418,0,0,1,28.375,62.1c1.8.924,2.149,2.435,1,4.078a11.57,11.57,0,0,1-3.24,2.739,2.192,2.192,0,0,1-1.229.441,2.106,2.106,0,0,1-1.516-.8,6.757,6.757,0,0,1-1.711-3.6c-.065-.39-.014-.8-.061-1.191-.078-.651-.867-1.2-.226-1.958a2.516,2.516,0,0,1,2.133-.786m1.755,6.2a3.448,3.448,0,0,0,2.559-2.684c.009-1.038-1.044-1.787-2.621-1.865-.124-.006-.238-.009-.344-.009-1.028,0-1.272.309-1.3,1.407-.034,1.553.745,3.064,1.623,3.147.026,0,.053,0,.08,0m-1.755-7.2a3.525,3.525,0,0,0-2.9,1.14,2.013,2.013,0,0,0-.136,2.431,1.95,1.95,0,0,1,.133.3,3.9,3.9,0,0,1,.016.43,4.915,4.915,0,0,0,.051.8,7.764,7.764,0,0,0,1.968,4.121A3.074,3.074,0,0,0,24.9,70.357a3.184,3.184,0,0,0,1.792-.615l.423-.286a10.846,10.846,0,0,0,3.072-2.7,3.487,3.487,0,0,0-1.356-5.542,11.4,11.4,0,0,0-4.76-1.178l-.148,0c-.135,0-.27,0-.4,0ZM24.6,63.679a2.441,2.441,0,0,1,.266-.012c.091,0,.189,0,.3.008.956.047,1.674.416,1.67.858a2.758,2.758,0,0,1-1.549,1.691,2.837,2.837,0,0,1-.713-2.128,3.182,3.182,0,0,1,.03-.417Z" transform="translate(0 0)"/>
  </g>
  <g>
    <path class="cls-1" d="M89.119,13.053a1.433,1.433,0,0,1-1.6-1.334,1.671,1.671,0,0,1,.387-1.312,1.541,1.541,0,0,1,1.174-.471,2.62,2.62,0,0,1,.624.081,1.822,1.822,0,0,0,.432.055,2.348,2.348,0,0,0,1.432-.6,4.656,4.656,0,0,0-1.6-.755,9.547,9.547,0,0,1-.905-.326c-1.946-.856-3.276-1.686-3.444-2.949-.144-1.088.621-2.266,2.409-3.707.095-.076.188-.161.281-.247A2.691,2.691,0,0,1,89.332.809a3.068,3.068,0,0,1,.846-.128,1.658,1.658,0,0,1,1.624,1,1.311,1.311,0,0,1,.036,1.075,2.014,2.014,0,0,1-1.251.962,1.6,1.6,0,0,0-.229.111,2.281,2.281,0,0,1-.443.2c-.749.224-.866.524-.881.817-.023.466.247.615.969.9.433.169.784.295,1.137.422a18.086,18.086,0,0,1,2.316.955A2.316,2.316,0,0,1,94.8,8.714a2.477,2.477,0,0,1-.731,2.1,7.429,7.429,0,0,1-4.244,2.15A3.162,3.162,0,0,1,89.119,13.053Z" transform="translate(0 0)"/>
    <path class="cls-2" d="M90.178,1.182a1.171,1.171,0,0,1,1.166.7c.327.753-.268,1.134-.924,1.366-.223.079-.422.234-.647.3-.657.2-1.2.538-1.238,1.271-.046.907.7,1.156,1.37,1.42a33.132,33.132,0,0,1,3.318,1.321c1.329.7,1.447,1.795.472,2.927a6.975,6.975,0,0,1-3.979,1.989,2.674,2.674,0,0,1-.6.073c-.537,0-1.044-.2-1.1-.877a1.014,1.014,0,0,1,1.062-1.24,2.127,2.127,0,0,1,.505.066,2.3,2.3,0,0,0,.551.069,3.382,3.382,0,0,0,2.176-1.065c-.9-1.062-2.065-1.14-3.053-1.574-3.125-1.375-4.77-2.706-.923-5.808a3.841,3.841,0,0,1,1.134-.835,2.591,2.591,0,0,1,.707-.108m0-1a3.566,3.566,0,0,0-.983.147,3.131,3.131,0,0,0-1.227.79c-.086.078-.171.157-.258.227-1.219.983-2.813,2.483-2.59,4.162.221,1.661,2.045,2.6,3.738,3.34a9.8,9.8,0,0,0,.955.346c.28.09.543.175.789.282a1.235,1.235,0,0,1-.464.1,1.3,1.3,0,0,1-.313-.04,3.131,3.131,0,0,0-.744-.1,2.056,2.056,0,0,0-1.542.631,2.137,2.137,0,0,0-.517,1.691,1.937,1.937,0,0,0,2.1,1.793,3.646,3.646,0,0,0,.824-.1,7.85,7.85,0,0,0,4.51-2.311A2.953,2.953,0,0,0,95.3,8.62a2.8,2.8,0,0,0-1.609-1.942A18.605,18.605,0,0,0,91.305,5.7c-.347-.124-.694-.249-1.035-.383l-.087-.034a2.321,2.321,0,0,1-.647-.32.464.464,0,0,1,0-.084c0-.079.011-.211.524-.363a2.743,2.743,0,0,0,.536-.236,1.175,1.175,0,0,1,.16-.081A2.537,2.537,0,0,0,92.3,2.96a1.8,1.8,0,0,0-.036-1.474,2.16,2.16,0,0,0-2.083-1.3Z" transform="translate(0 0)"/>
  </g>
  <g>
    <path class="cls-1" d="M60.832,62.2a.42.42,0,0,1-.3-.112.54.54,0,0,1-.192-.621.5.5,0,0,1,.412-.311l.131-.007a.505.505,0,0,1,.5.536.563.563,0,0,1-.324.47A.664.664,0,0,1,60.832,62.2Z" transform="translate(0 0)"/>
    <path class="cls-2" d="M60.89,61.651h.005m-.005,0c0,.027-.008.05-.009.078l-.076-.074h0c.028,0,.057,0,.085,0m0-1h0l-.063,0c-.033,0-.11.006-.134.009a1.045,1.045,0,1,0,.2-.011h0Zm0,2h0Z" transform="translate(0 0)"/>
  </g>
  <g>
    <path class="cls-1" d="M67.883,68.909a1.468,1.468,0,0,1-1.19-.611,3.345,3.345,0,0,1-.522-1.176c-.047-.162-.092-.324-.154-.48-.192-.48-.352-.975-.511-1.47a9.826,9.826,0,0,0-1.237-2.822c-.218-.3-.4-.535-.538-.535a.693.693,0,0,0-.323.117,2.223,2.223,0,0,1-1.159.283c-.205,0-.413-.019-.622-.037-.178-.017-.356-.033-.534-.033-.055,0-.188.007-.2.007a.5.5,0,0,1-.5-.54,2.53,2.53,0,0,1,2.679-2.583,8.494,8.494,0,0,0,2.089-.506c.345-.113.69-.227,1.036-.321.1-.026.2-.058.3-.088a3.586,3.586,0,0,1,.98-.2h0a3.094,3.094,0,0,1,2.168,1.158,1.055,1.055,0,0,1,.244.948,1.176,1.176,0,0,1-1.17.989,2.787,2.787,0,0,1-.682-.112,2.125,2.125,0,0,0-.426-.082h0a1.473,1.473,0,0,0-.265.029,17.41,17.41,0,0,0,1.293,4.383c.086.2.182.406.276.607a9.414,9.414,0,0,1,.5,1.188,1.361,1.361,0,0,1-.88,1.773A1.952,1.952,0,0,1,67.883,68.909Z" transform="translate(0 0)"/>
    <path class="cls-2" d="M67.509,58.41c.794,0,2.046.947,1.895,1.468-.143.493-.4.628-.689.628-.346,0-.749-.187-1.1-.195h-.023a6.522,6.522,0,0,0-.8.119,16.93,16.93,0,0,0,1.383,4.986c.247.587.565,1.149.756,1.752a.86.86,0,0,1-.566,1.15,1.493,1.493,0,0,1-.482.09.961.961,0,0,1-.793-.416,5.782,5.782,0,0,1-.61-1.537c-.588-1.469-.853-3.067-1.806-4.4-.294-.41-.546-.745-.944-.745a1.162,1.162,0,0,0-.573.185,1.754,1.754,0,0,1-.909.216c-.383,0-.774-.071-1.159-.071-.067,0-.133,0-.2.007A2.038,2.038,0,0,1,63.1,59.527a16.732,16.732,0,0,0,3.227-.843,5.1,5.1,0,0,1,1.157-.274h.025m0-1h-.05a4.051,4.051,0,0,0-1.12.227c-.091.028-.183.057-.274.082-.356.1-.71.213-1.064.329a8.161,8.161,0,0,1-1.962.48,3.005,3.005,0,0,0-3.147,3.042,1,1,0,0,0,1,1.08l.075,0c.041,0,.083,0,.124,0,.163,0,.326.016.49.031.224.02.448.039.669.039a2.741,2.741,0,0,0,1.407-.349c.071.087.156.206.206.275a9.475,9.475,0,0,1,1.169,2.684c.158.492.321,1,.522,1.5.056.14.1.287.139.433A3.8,3.8,0,0,0,66.3,68.6a1.949,1.949,0,0,0,1.586.807,2.49,2.49,0,0,0,.807-.144,1.863,1.863,0,0,0,1.194-2.4,9.89,9.89,0,0,0-.519-1.248c-.092-.2-.185-.392-.269-.591a18.066,18.066,0,0,1-1.16-3.644,3.14,3.14,0,0,0,.779.121,1.673,1.673,0,0,0,1.65-1.349,1.533,1.533,0,0,0-.324-1.388,3.594,3.594,0,0,0-2.531-1.359Z" transform="translate(0 0)"/>
  </g>
  <g>
    <path class="cls-1" d="M5.93,86.4A1.559,1.559,0,0,1,4.8,85.982a1.162,1.162,0,0,1-.335-.85,11.675,11.675,0,0,0-.546-3.155,12.65,12.65,0,0,1-.576-3.362c.014-2.055,1.215-3.446,2.99-3.461h0a.486.486,0,0,1,.154.024c.27.088.555.157.847.229a6.523,6.523,0,0,1,2.3.9,2.272,2.272,0,0,1,1.026,1.88,2.315,2.315,0,0,1-1.1,1.883,10.559,10.559,0,0,1-2.2,1.172c-.673.249-.8.52-.552,1.208.143.4.259.806.375,1.213.081.283.162.566.252.847a1.436,1.436,0,0,1-.066,1.207,1.461,1.461,0,0,1-1.038.646,2.16,2.16,0,0,1-.409.04Zm-.073-8.262a4.533,4.533,0,0,1,.159.489c.129.46.148.46.332.466h0a1.3,1.3,0,0,0,1.143-.748,1.661,1.661,0,0,0-.972-.268A4.217,4.217,0,0,0,5.857,78.141Z" transform="translate(0 0)"/>
    <path class="cls-2" d="M6.339,75.654a10.3,10.3,0,0,1,3.014,1.062,1.7,1.7,0,0,1-.063,2.938A10.241,10.241,0,0,1,7.2,80.773a1.24,1.24,0,0,0-.85,1.845c.239.67.4,1.366.621,2.045a.829.829,0,0,1-.724,1.209,1.637,1.637,0,0,1-.313.031c-.512,0-.97-.252-.964-.765.027-2.255-1.137-4.286-1.122-6.519.012-1.764.987-2.952,2.494-2.965M6.386,79.6a1.9,1.9,0,0,0,1.722-1.39,2.125,2.125,0,0,0-1.588-.628,6.591,6.591,0,0,0-1.469.215c.7.7.3,1.77,1.281,1.8h.054m-.047-4.944H6.33c-2.036.018-3.469,1.646-3.485,3.958a13.019,13.019,0,0,0,.593,3.494,11.3,11.3,0,0,1,.529,3.02,1.673,1.673,0,0,0,.479,1.208,2.055,2.055,0,0,0,1.484.569,2.637,2.637,0,0,0,.505-.049,1.812,1.812,0,0,0,1.484-2.5c-.088-.273-.166-.548-.245-.824-.116-.408-.237-.83-.387-1.25a.946.946,0,0,1-.084-.4h0a1.238,1.238,0,0,1,.337-.17,11.064,11.064,0,0,0,2.3-1.226,2.805,2.805,0,0,0,1.322-2.292A2.764,2.764,0,0,0,9.93,75.9a6.933,6.933,0,0,0-2.468-.976c-.292-.072-.567-.139-.813-.219a1,1,0,0,0-.31-.049Zm.183,3.928h0Z" transform="translate(0 0)"/>
  </g>
  <g>
    <path class="cls-1" d="M84.184,12.507a1.473,1.473,0,0,1-1.413-1.088,1.384,1.384,0,0,1-.06-.2,32.108,32.108,0,0,1-1.018-5.036c-.09-.614-.18-1.229-.283-1.84a1.517,1.517,0,0,1,.242-1.27,1.357,1.357,0,0,1,1.078-.442,1.558,1.558,0,0,1,1.51,1.49c.092.456.164.918.235,1.379.1.648.2,1.262.348,1.867A9.482,9.482,0,0,1,85,8.339a3.737,3.737,0,0,0,.57,1.789,1.513,1.513,0,0,1,.384,1.282,1.274,1.274,0,0,1-.763.835,2.381,2.381,0,0,1-1.009.262Z" transform="translate(0 0)"/>
    <path class="cls-2" d="M82.755,3.127c.708,0,.886.55.995,1.09.22,1.085.319,2.2.59,3.269.249.986.169,2.067.834,2.944.372.491.526,1.022-.2,1.363a1.914,1.914,0,0,1-.795.214,1,1,0,0,1-.947-.77c-.029-.074-.039-.154-.063-.23A49.983,49.983,0,0,1,81.9,4.256c-.106-.628.048-1.117.835-1.129h.016m0-1h-.027a1.837,1.837,0,0,0-1.46.622,1.99,1.99,0,0,0-.351,1.674c.1.609.192,1.221.282,1.832a32.167,32.167,0,0,0,1.021,5.052,2.03,2.03,0,0,0,.085.293,2,2,0,0,0,1.879,1.406,2.851,2.851,0,0,0,1.222-.31,1.751,1.751,0,0,0,1.035-1.167,2,2,0,0,0-.471-1.7,3.33,3.33,0,0,1-.474-1.56,10.039,10.039,0,0,0-.187-1.025c-.147-.583-.241-1.186-.339-1.823-.073-.468-.146-.936-.24-1.4-.254-1.255-.919-1.891-1.975-1.891Z" transform="translate(0 0)"/>
  </g>
  <g>
    <path class="cls-1" d="M8.274,17.543a1.333,1.333,0,0,1-1.308-1.23C6.6,14.2,6.254,12.073,5.919,10L5.56,7.785a.494.494,0,0,1,0-.178A2.555,2.555,0,0,0,5.6,7.293,1.073,1.073,0,0,1,6.46,6.122a1.187,1.187,0,0,1,.181-.014c.393,0,.908.194,1.133,1.124q.882,3.664,1.739,7.332l.22.933c.293,1.246-.324,1.745-.894,1.943a1.712,1.712,0,0,1-.564.1Z" transform="translate(0 0)"/>
    <path class="cls-2" d="M6.642,6.608c.4,0,.561.391.646.742q.993,4.127,1.958,8.262c.138.587.1,1.121-.572,1.357a1.22,1.22,0,0,1-.4.074c-.452,0-.731-.33-.815-.815-.5-2.877-.954-5.762-1.405-8.524.1-.493-.047-1.006.483-1.087a.694.694,0,0,1,.105-.008m0-1a1.691,1.691,0,0,0-.257.02A1.555,1.555,0,0,0,5.1,7.256a2.032,2.032,0,0,1-.026.253,1,1,0,0,0-.006.356l.355,2.192c.335,2.071.681,4.213,1.051,6.342a1.828,1.828,0,0,0,1.8,1.644A2.219,2.219,0,0,0,9,17.913a1.929,1.929,0,0,0,1.216-2.53l-.137-.581q-.9-3.844-1.823-7.685C7.932,5.755,7.019,5.608,6.642,5.608Z" transform="translate(0 0)"/>
  </g>
  <g>
    <path class="cls-1" d="M13.186,85.685a1.4,1.4,0,0,1-1.146-.851,1.039,1.039,0,0,0-.1-.144.923.923,0,0,1-.265-.568,17.033,17.033,0,0,0-.658-3.776,19.766,19.766,0,0,1-.47-2.174,2.329,2.329,0,0,1,.315-1.788,1.329,1.329,0,0,1,.952-.438c.079-.006.157-.009.231-.009A1.363,1.363,0,0,1,13.5,77.193c.146.787.237,1.587.324,2.361a16.642,16.642,0,0,0,.86,4.276c.264.676-.106,1.339-.968,1.729a1.281,1.281,0,0,1-.532.125Z" transform="translate(0 0)"/>
    <path class="cls-2" d="M12.042,76.437a.875.875,0,0,1,.967.848c.417,2.239.363,4.559,1.21,6.728.2.5-.259.889-.709,1.093a.788.788,0,0,1-.325.08c-.368,0-.562-.36-.763-.681-.084-.134-.247-.262-.25-.4-.057-2.232-.907-4.318-1.133-6-.1-1.147.1-1.607.81-1.661.066-.005.13-.008.192-.008m0-1q-.129,0-.268.011a1.8,1.8,0,0,0-1.3.615,2.83,2.83,0,0,0-.434,2.135,20.023,20.023,0,0,0,.486,2.272,16.716,16.716,0,0,1,.643,3.665,1.407,1.407,0,0,0,.38.878l.036.044.025.042a1.866,1.866,0,0,0,1.572,1.087,1.783,1.783,0,0,0,.738-.169,1.867,1.867,0,0,0,1.226-2.367,16.262,16.262,0,0,1-.829-4.149c-.088-.783-.18-1.593-.33-2.4a1.853,1.853,0,0,0-1.95-1.665Z" transform="translate(0 0)"/>
  </g>
  <g>
    <path class="cls-1" d="M122.673,54.545a9.056,9.056,0,0,1-2.908-.483c-1.394-.479-3.127-1.076-3.408-3.255a1.29,1.29,0,0,0-.334-.734c-2.191-1.791-1.438-4.49-1.191-5.377a15.369,15.369,0,0,1,1-2.443c.274-.574.558-1.168.773-1.758a1.857,1.857,0,0,1,.936-.953l.141-.083a7.9,7.9,0,0,1,4.093-1.226,6.976,6.976,0,0,1,6.239,4.1c.206.4.285.426.419.435,2.42.162,4.038,1.876,4.327,4.585.226,2.12-1.246,3.841-2.715,5.245-1.587,1.516-3.391,1.65-5.3,1.794-.484.036-.979.073-1.481.135C123.053,54.538,122.865,54.545,122.673,54.545Zm-4.416-7.479c.366.877.744,1.783,1.031,2.709a1.892,1.892,0,0,0,1.287,1.3,7.217,7.217,0,0,0,2.762.548,11.3,11.3,0,0,0,5.077-1.437,4.631,4.631,0,0,0,1.105-2.8,2.211,2.211,0,0,0-2.256-1.483c-.105-.007-.211-.009-.316-.009l-.751.012a5.1,5.1,0,0,1-.636-.035,1.818,1.818,0,0,1-1.406-.7,1.794,1.794,0,0,1,.038-1.556,4.124,4.124,0,0,1,.416-.774,3.961,3.961,0,0,0-2.81-1.318,3.716,3.716,0,0,0-.54.04,1.359,1.359,0,0,0-.911.411.873.873,0,0,0-.043.705,2.542,2.542,0,0,1-1.878,3.332c-.076.027-.153.051-.231.074a1.921,1.921,0,0,0-.3.107C118.015,46.483,118.136,46.774,118.257,47.065Z" transform="translate(0 0)"/>
    <path class="cls-2" d="M121.771,38.732a6.5,6.5,0,0,1,5.795,3.827c.206.4.4.675.829.7,2.578.174,3.651,2.135,3.864,4.139.2,1.855-1.108,3.44-2.563,4.83-1.848,1.765-4.081,1.5-6.5,1.794-.169.012-.345.018-.527.018a8.53,8.53,0,0,1-2.744-.456c-1.463-.5-2.839-1.017-3.075-2.846a1.75,1.75,0,0,0-.513-1.057c-1.655-1.353-1.466-3.28-1.027-4.857.388-1.395,1.239-2.739,1.76-4.163.149-.407.53-.575.867-.781a7.35,7.35,0,0,1,3.832-1.152m1.566,13.387a12,12,0,0,0,5.3-1.489c.7-.35,1.549-2.635,1.369-3.368-.272-1.107-1.219-1.769-2.711-1.862-.115-.007-.231-.01-.346-.01-.249,0-.5.011-.748.011a4.531,4.531,0,0,1-.576-.031c-1.1-.141-1.35-.556-.965-1.582a7.234,7.234,0,0,1,.584-1.026,4.775,4.775,0,0,0-3.445-1.743,4.278,4.278,0,0,0-.612.045c-1.057.153-1.637.682-1.367,1.735a2.051,2.051,0,0,1-1.561,2.737c-.363.129-.784.173-.932.579.51,1.283,1.083,2.518,1.483,3.807a2.384,2.384,0,0,0,1.576,1.612,7.748,7.748,0,0,0,2.95.585m-1.566-14.387a8.4,8.4,0,0,0-4.354,1.3l-.133.078a2.339,2.339,0,0,0-1.152,1.212c-.208.568-.474,1.126-.756,1.717a15.757,15.757,0,0,0-1.028,2.522c-.269.965-1.085,3.9,1.358,5.9a.956.956,0,0,1,.154.411c.321,2.487,2.3,3.167,3.741,3.664a9.549,9.549,0,0,0,3.069.51q.308,0,.6-.02l.054-.005c.487-.06.981-.1,1.459-.133,1.913-.143,3.891-.291,5.607-1.931,1.466-1.4,3.117-3.31,2.867-5.659-.313-2.937-2.069-4.81-4.7-5.025-.021-.035-.052-.088-.094-.17a7.462,7.462,0,0,0-6.684-4.369Zm-3.212,8.759.035-.012a3.015,3.015,0,0,0,2.194-3.927.568.568,0,0,1-.026-.3,1.019,1.019,0,0,1,.567-.194,3.3,3.3,0,0,1,.469-.035,3.249,3.249,0,0,1,2.165.912,3.533,3.533,0,0,0-.241.506,1.937,1.937,0,0,0,1.774,2.926,5.465,5.465,0,0,0,.7.039c.132,0,.264,0,.4-.006.117,0,.234-.005.352-.005.095,0,.19,0,.284.008,1.032.064,1.638.435,1.8,1.1a4.829,4.829,0,0,1-.878,2.251,10.787,10.787,0,0,1-4.819,1.367,6.722,6.722,0,0,1-2.574-.511,1.407,1.407,0,0,1-1-.982c-.294-.947-.677-1.864-1.046-2.751l-.16-.384Z" transform="translate(0 0)"/>
  </g>
  <g>
    <path class="cls-1" d="M122.344,51.24c-1.2,0-2.666-1.951-2.759-3.273a2.3,2.3,0,0,1,.716-1.651,3.257,3.257,0,0,1,2.17-1.106h0c2.746,0,3.329,1.6,3.348,2.938a2.9,2.9,0,0,1-.771,2.157,3.669,3.669,0,0,1-2.7.937Z" transform="translate(0 0)"/>
    <path class="cls-2" d="M122.546,45.709c1.842,0,2.75.8,2.773,2.444.023,1.664-1.021,2.574-2.97,2.587h0c-.844,0-2.179-1.659-2.26-2.809-.066-.935,1.308-2.211,2.393-2.222h.069m0-1h-.08a3.765,3.765,0,0,0-2.533,1.268A2.783,2.783,0,0,0,119.087,48c.11,1.564,1.772,3.739,3.258,3.739a4.151,4.151,0,0,0,3.062-1.086,3.427,3.427,0,0,0,.912-2.514c-.018-1.281-.532-3.431-3.773-3.431Z" transform="translate(0 0)"/>
  </g>
  <g>
    <path class="cls-1" d="M89.667,83.586a2.156,2.156,0,0,1-1.657-.879,5.256,5.256,0,0,1-.747-1.476c-.391-1.055-.759-2.115-1.128-3.176l-.322-.927a16.115,16.115,0,0,1-.73-2.557,1.446,1.446,0,0,1,.121-.938,2.935,2.935,0,0,1,.876-.99,4.619,4.619,0,0,1,2.785-.778c.207,0,.414.008.617.022a5.033,5.033,0,0,1,2.708.845,2.955,2.955,0,0,1,1.008,1.3,3.711,3.711,0,0,1,.63-.5,3.224,3.224,0,0,1,1.735-.458c.147,0,.295.008.441.021a3.837,3.837,0,0,1,2.227.936,1.559,1.559,0,0,1,.066-.193c.488-1.163,2.295-1.615,3.747-1.979.906-.054,2.3-.177,3.786-.306,2.16-.189,4.394-.385,5.43-.385a3.764,3.764,0,0,1,.472.023.655.655,0,0,1,.58.719c-.042.614-1,1.769-1.784,1.769,0,0-.082,0-.1-.007a2.657,2.657,0,0,0-.35-.024c-.608,0-.973.2-1.036,1.248a13.035,13.035,0,0,0,.219,2.047c.283,1.866.408,2.86-.064,3.3a2,2,0,0,1-1.339.537,1.3,1.3,0,0,1-1.149-.591,1.476,1.476,0,0,1-.127-.383c-.352.85-1.546,1.279-3.556,1.279a22.906,22.906,0,0,1-2.7-.186,13.371,13.371,0,0,1-1.776-.229c-.033.033-.066.063-.1.093a4.343,4.343,0,0,1-1.945.92,9.561,9.561,0,0,1-2.033.245q-.286,0-.57-.024a4.877,4.877,0,0,1-2.556-.928,2.451,2.451,0,0,1-.955-1.337,2.016,2.016,0,0,1-.03-.773c-.127.09-.251.186-.37.286a.621.621,0,0,0-.161.167.558.558,0,0,0,.011.212,3.97,3.97,0,0,0,.73,1.74,1.8,1.8,0,0,1,.489,1.091,1.345,1.345,0,0,1-1.368,1.23Zm6.29-6.932a3.222,3.222,0,0,0-1.15.366l-.2.089c-.933.407-1.367.945-1.294,1.6.031.276.392.437,1.17.52a6.622,6.622,0,0,0,.678.039A2.489,2.489,0,0,0,96.412,79l.125-.063a.557.557,0,0,0,.234-.262.507.507,0,0,1,.087-.129l.006-.008a1.491,1.491,0,0,0-.269-1.512A.742.742,0,0,0,95.957,76.654Zm3.6,1.8a11.093,11.093,0,0,1,1.624.188,12.7,12.7,0,0,0,1.865.211,2.763,2.763,0,0,0,.443-.031l.4-.5-.36.347a7.987,7.987,0,0,0-2.1-1.19,15.33,15.33,0,0,1-1.9-.978,5.965,5.965,0,0,1,.015,1.948Zm1.284-3.638a12.452,12.452,0,0,0,2.19,1.021c.3.118.567.224.762.309a6,6,0,0,1,2.551,2.057c-.153-1.5-.249-3.392-.255-4.108a4.958,4.958,0,0,0-1.392-.144C102.632,73.95,101.1,74.472,100.846,74.816ZM89.6,74.97a1.834,1.834,0,0,0-.232.015c-.512.063-.62.161-.624.166a1.964,1.964,0,0,1,.208.369,4.178,4.178,0,0,1,.261.607c.9-.3,1.122-.446,1.1-.816C90.3,74.986,89.718,74.97,89.6,74.97Z" transform="translate(0 0)"/>
    <path class="cls-2" d="M111.261,71.665a3.231,3.231,0,0,1,.4.018c.554.076-.561,1.492-1.135,1.492l-.041,0a3.237,3.237,0,0,0-.412-.028c-1.076,0-1.471.66-1.536,1.718-.074,1.2.815,4.545.315,5.007a1.515,1.515,0,0,1-1,.4.807.807,0,0,1-.72-.35,36.045,36.045,0,0,1-.537-6.017c.011-.3-.826-.456-1.893-.456-1.828,0-4.33.457-4.391,1.421-.034.533,2.4,1.344,3.286,1.733,2.252.981,4.723,3.975-.575,3.975a22.3,22.3,0,0,1-2.637-.182,12.783,12.783,0,0,1-2.013-.285,1.906,1.906,0,0,1-.246.263,3.9,3.9,0,0,1-1.729.813,9.16,9.16,0,0,1-1.931.233c-.175,0-.349-.007-.524-.022a4.408,4.408,0,0,1-2.3-.827,1.977,1.977,0,0,1-.772-1.058,2.4,2.4,0,0,1,.438-1.733,5.94,5.94,0,0,0-1.646.981.955.955,0,0,0-.309.379.929.929,0,0,0-.013.459,4.475,4.475,0,0,0,.823,1.961,1.42,1.42,0,0,1,.391.791.847.847,0,0,1-.875.732h-.016A1.684,1.684,0,0,1,88.4,82.4a4.772,4.772,0,0,1-.67-1.341c-.5-1.357-.969-2.727-1.447-4.092a15.487,15.487,0,0,1-.709-2.476.954.954,0,0,1,.072-.624,2.44,2.44,0,0,1,.727-.817,4.156,4.156,0,0,1,2.49-.681c.195,0,.39.008.582.022a4.657,4.657,0,0,1,2.448.749,2.2,2.2,0,0,1,.923,2.256,3.674,3.674,0,0,1,1.275-1.438,2.744,2.744,0,0,1,1.469-.382c.131,0,.262.007.393.02,3.074.3,3.6,3.646,2.889,5.632.085-.2.348-.269.718-.269.882,0,2.371.4,3.49.4a3.348,3.348,0,0,0,.522-.037.589.589,0,0,0,.323-.989c-1.032-1.072-4.209-1.783-4.955-3.051-1.075-1.828,1.341-2.464,3.224-2.936,1.979-.1,7.367-.676,9.1-.676m-22.5,5.145c1.151-.414,2.1-.569,2.049-1.528-.034-.592-.628-.811-1.213-.811a2.4,2.4,0,0,0-.293.018c-2.119.262-.282,1.348-.543,2.321m6.4,2.959a2.966,2.966,0,0,0,1.505-.337,1.024,1.024,0,0,0,.105-.051l.008,0h0a1.051,1.051,0,0,0,.445-.487h.007c.029-.046.064-.083.09-.134A1.927,1.927,0,0,0,97,76.73a1.245,1.245,0,0,0-1.041-.577,4.249,4.249,0,0,0-1.551.5c-.888.388-1.711,1.044-1.591,2.114.085.758,1.006.9,1.614.961a7,7,0,0,0,.732.042m16.1-9.1h0c-1.055,0-3.3.2-5.466.386-1.479.129-2.877.252-3.679.291a1,1,0,0,0-.194.029c-1.408.353-3.127.784-3.878,1.889a4.479,4.479,0,0,0-1.991-.663c-.163-.016-.327-.025-.491-.025a3.707,3.707,0,0,0-2,.534q-.1.065-.206.138a3.536,3.536,0,0,0-.872-.915,5.493,5.493,0,0,0-2.968-.94c-.215-.015-.434-.024-.653-.024a5.1,5.1,0,0,0-3.081.875A3.429,3.429,0,0,0,84.76,73.4a1.925,1.925,0,0,0-.17,1.254,16.545,16.545,0,0,0,.751,2.637l.327.938c.362,1.04.735,2.116,1.126,3.172a5.728,5.728,0,0,0,.825,1.615,2.649,2.649,0,0,0,2.047,1.066,1.831,1.831,0,0,0,1.891-1.729,1.726,1.726,0,0,0-.172-.75,5.54,5.54,0,0,0,2.472.79c.2.017.406.026.609.026a10.113,10.113,0,0,0,2.143-.256A4.906,4.906,0,0,0,98.7,81.2a14.368,14.368,0,0,0,1.611.194,23.3,23.3,0,0,0,2.714.184,5.474,5.474,0,0,0,3.474-.851,1.837,1.837,0,0,0,1.357.545,2.509,2.509,0,0,0,1.68-.67c.658-.609.528-1.7.219-3.74a13.279,13.279,0,0,1-.214-1.94c.048-.779.212-.779.538-.779a2.24,2.24,0,0,1,.285.02c.042.005.126.011.168.011a2.846,2.846,0,0,0,2.282-2.234,1.153,1.153,0,0,0-1.011-1.249,4.04,4.04,0,0,0-.538-.028ZM101.9,74.823a10.072,10.072,0,0,1,2.8-.373,6.851,6.851,0,0,1,.906.051c.019.553.057,1.391.118,2.269A7.331,7.331,0,0,0,104,75.686c-.2-.086-.468-.194-.774-.314s-.862-.34-1.325-.549Zm-12.41.651.068,0-.059.024-.009-.02ZM93.8,78.58c-.007-.2.072-.606,1-1.013l.2-.091a3.144,3.144,0,0,1,.946-.323c.049,0,.109,0,.238.173.1.132.4.576.255.93a1,1,0,0,0-.13.207.96.96,0,0,0-.14.094l-.021.012a2.008,2.008,0,0,1-1,.2,5.97,5.97,0,0,1-.627-.037,2.384,2.384,0,0,1-.731-.151Zm6.3-.6c.013-.188.019-.379.015-.573.36.183.737.356,1.109.527.218.1.444.2.663.308-.207-.03-.417-.064-.625-.1-.408-.066-.8-.129-1.163-.165Z" transform="translate(0 0)"/>
  </g>
  <g>
    <path class="cls-1" d="M138.1,82.7a5.065,5.065,0,0,1-.963-.09,10.632,10.632,0,0,1-1.732-.49.8.8,0,0,1-.493-.577l-.381-1.763h-5.649a5.733,5.733,0,0,1,.084,1.194c-.011.795-1.018,1.157-1.949,1.157a1.689,1.689,0,0,1-.5-.062c-.109-.034-.416-.129-.776-.938a7.659,7.659,0,0,1-2.217.394,2.429,2.429,0,0,1-2.135-.923,1.585,1.585,0,0,1-.168-.333,4.151,4.151,0,0,1-.534.272,7.34,7.34,0,0,1-2.413.517,2.533,2.533,0,0,1-1.916-.724,4.53,4.53,0,0,1-2.511.706,6.258,6.258,0,0,1-.929-.072,4.1,4.1,0,0,1-3.162-2.381,4.214,4.214,0,0,1,.369-4.047,18.3,18.3,0,0,1,2.444-2.47,2.834,2.834,0,0,1,1.656-.639,1.567,1.567,0,0,1,.646.133c.749.335,1.255.665,1.284,1.188.033.574-.507.894-1.189,1.3a4.856,4.856,0,0,0-2.4,2.425,1.136,1.136,0,0,0,.677,1.628,3.045,3.045,0,0,0,1.108.2,3.811,3.811,0,0,0,1.146-.18,5.887,5.887,0,0,1,.083-1.231c.942-3.909,3.008-4.722,4.575-4.722A5.682,5.682,0,0,1,122,72.5c1.686.573,1.476,3,1.322,4.768a9.247,9.247,0,0,0-.061,1.241,4.1,4.1,0,0,0,1.406.149c.121,0,.238,0,.346,0-.15-.466-.33-1.011-.414-1.218a10.565,10.565,0,0,1-.333-6,.5.5,0,0,1,.373-.36,24.175,24.175,0,0,1,4.246-.58,2.921,2.921,0,0,1,1.361.237,4.013,4.013,0,0,1,1.49,5.931,1.8,1.8,0,0,1-.117.153c.686.074,1.6.154,2.345.154h.121c-.13-1.559-.459-5.228-.557-6.308a.792.792,0,0,1,.755-.864c.3-.015.773-.032,1.251-.032a7.636,7.636,0,0,1,1.385.09c2.742.547,6.664,3.068,6.9,6.378a6.01,6.01,0,0,1-1.478,4.656,5.876,5.876,0,0,1-4.234,1.812Zm-.329-3.326a3.568,3.568,0,0,0,2.328-.746,3.088,3.088,0,0,0,.913-2.141,2.124,2.124,0,0,0-.451-1.519,7.168,7.168,0,0,0-3.415-1.492l.529,5.9Zm-17.7-4.281c-.158,0-.377.15-.649.447a3.362,3.362,0,0,0-.548.728c-.2.4-.215,1.1.053,1.274a.3.3,0,0,0,.159.038.734.734,0,0,0,.275-.062,1.333,1.333,0,0,0,.6-.543,1.648,1.648,0,0,0,.162-.344,2.674,2.674,0,0,0,.055-1.356.529.529,0,0,0-.054-.183ZM127.3,76.3a7.16,7.16,0,0,0,1.66-.842,1.922,1.922,0,0,0,.71-1.277.78.78,0,0,0-.25-.628s-.139-.127-.691-.127a8.177,8.177,0,0,0-1.606.208Z" transform="translate(0 0)"/>
    <path class="cls-2" d="M135.537,70.265a7.6,7.6,0,0,1,1.286.08c2.534.506,6.284,2.911,6.495,5.923A5.2,5.2,0,0,1,138.1,82.2a4.544,4.544,0,0,1-.868-.081,10.189,10.189,0,0,1-1.648-.466.3.3,0,0,1-.184-.216l-.467-2.157h-6.912c.1.007.463.137.443,1.688-.006.473-.893.664-1.45.664a1.262,1.262,0,0,1-.348-.038c-.285-.09-.64-1.095-.64-1.095a7.784,7.784,0,0,1-2.5.527,1.994,1.994,0,0,1-1.725-.709,2.836,2.836,0,0,1-.271-.818,10.05,10.05,0,0,1-1.012.573,6.966,6.966,0,0,1-2.242.486,1.951,1.951,0,0,1-1.808-.9,4.111,4.111,0,0,1-2.619.886,5.689,5.689,0,0,1-.853-.067,3.623,3.623,0,0,1-2.452-5.659,17.923,17.923,0,0,1,2.333-2.349,2.366,2.366,0,0,1,1.35-.534,1.077,1.077,0,0,1,.442.089c2.954,1.321-1.546,1.259-2.578,4.294a1.626,1.626,0,0,0,.97,2.255,3.547,3.547,0,0,0,1.288.232,3.907,3.907,0,0,0,1.676-.356,5.063,5.063,0,0,1,.046-1.475c.85-3.518,2.625-4.3,4.082-4.3a5.293,5.293,0,0,1,1.684.305c1.866.634.7,4.821.955,5.757.1.355,1.08.428,1.874.428.556,0,1.02-.036,1.02-.036s-.459-1.467-.625-1.875a10.152,10.152,0,0,1-.312-5.687,24.072,24.072,0,0,1,4.135-.568,2.6,2.6,0,0,1,1.125.178,3.514,3.514,0,0,1,1.309,5.216,7.022,7.022,0,0,1-.788.8,30.231,30.231,0,0,0,3.434.283c.239,0,.463-.008.66-.026-.075-1.012-.487-5.6-.6-6.827a.292.292,0,0,1,.28-.321c.293-.014.759-.031,1.229-.031M126.845,77a10.14,10.14,0,0,0,2.432-1.15c.746-.608,1.311-1.868.489-2.655a1.556,1.556,0,0,0-1.037-.266,9.8,9.8,0,0,0-2.134.321l.25,3.75m10.932,2.875A4.031,4.031,0,0,0,140.439,79c1.25-1.125,1.419-3.415.486-4.378a8.035,8.035,0,0,0-3.951-1.687.3.3,0,0,0-.052,0,.3.3,0,0,0-.292.327l.568,6.338a.3.3,0,0,0,.283.272c.083,0,.183.008.3.008M119.092,78.08a1.224,1.224,0,0,0,.469-.1,1.845,1.845,0,0,0,.835-.741,2.2,2.2,0,0,0,.21-.445,3.183,3.183,0,0,0,.072-1.609.8.8,0,0,0-.2-.451.538.538,0,0,0-.268-.127.73.73,0,0,0-.136-.013,1.541,1.541,0,0,0-1.018.609,3.867,3.867,0,0,0-.625.838c-.268.525-.353,1.55.228,1.923a.787.787,0,0,0,.429.117m16.446-8.815h0c-.487,0-.97.018-1.275.032a1.291,1.291,0,0,0-1.23,1.41c.235,2.613.409,4.583.51,5.755-.351-.012-.721-.037-1.074-.066a4.548,4.548,0,0,0,.378-3.177,4.617,4.617,0,0,0-2.362-2.927,3.367,3.367,0,0,0-1.6-.3,24.764,24.764,0,0,0-4.356.593,1,1,0,0,0-.746.722,10.891,10.891,0,0,0-.28,1.917,2.257,2.257,0,0,0-1.343-1.2,6.178,6.178,0,0,0-2.005-.359c-1.747,0-4.042.879-5.054,5.066-.006.025-.011.05-.015.075a6.985,6.985,0,0,0-.091.927,3.342,3.342,0,0,1-.644.065,2.545,2.545,0,0,1-.926-.164c-.325-.126-.622-.307-.386-1a4.393,4.393,0,0,1,2.185-2.155c.73-.432,1.484-.879,1.434-1.757-.053-.934-1.046-1.378-1.58-1.616a2.068,2.068,0,0,0-.851-.176,3.337,3.337,0,0,0-1.96.742,18.4,18.4,0,0,0-2.557,2.59,4.712,4.712,0,0,0-.408,4.525,4.6,4.6,0,0,0,3.545,2.673,6.716,6.716,0,0,0,1,.078,5.087,5.087,0,0,0,2.45-.589,3.138,3.138,0,0,0,1.977.606,7.786,7.786,0,0,0,2.582-.546c.048-.017.1-.041.163-.069a2.912,2.912,0,0,0,2.506,1.082,7.647,7.647,0,0,0,1.958-.3c.377.659.716.766.885.819a2.16,2.16,0,0,0,.648.084c1.209,0,2.435-.511,2.45-1.651q0-.376-.021-.7h4.683l.3,1.368a1.294,1.294,0,0,0,.8.938,11.181,11.181,0,0,0,1.814.513,5.547,5.547,0,0,0,1.059.1,6.194,6.194,0,0,0,6.211-7c-.249-3.558-4.4-6.255-7.3-6.834a8.107,8.107,0,0,0-1.482-.1Zm-7.887,4.777a6.447,6.447,0,0,1,1.079-.113,1.65,1.65,0,0,1,.388.035.29.29,0,0,1,.054.2,1.435,1.435,0,0,1-.526.909,4.473,4.473,0,0,1-.893.5l-.1-1.53Zm10.486,4.818-.425-4.743a5.6,5.6,0,0,1,2.5,1.2,1.663,1.663,0,0,1,.311,1.153,2.574,2.574,0,0,1-.748,1.786,2.8,2.8,0,0,1-1.634.6Zm-18.907-1.83a1.167,1.167,0,0,1,.1-.536,2.743,2.743,0,0,1,.422-.563,1.767,1.767,0,0,1-.086.538,1.2,1.2,0,0,1-.115.243.9.9,0,0,1-.317.318Zm4.531,1.082c.013-.239.039-.546.061-.8.013-.154.027-.315.04-.48a8.135,8.135,0,0,0,.275.793c.04.1.109.294.187.529-.247-.008-.43-.025-.564-.043Z" transform="translate(0 0)"/>
  </g>
</svg>
