<svg id="Layer_1" data-name="Layer 1" xmlns="http://www.w3.org/2000/svg" viewBox="0 0 156.43 92.362">
  <defs>
    <style>
      .cls-1 {
        fill: #0000b8;
      }

      .cls-2 {
        fill: #fff;
      }
    </style>
  </defs>
  <title>abf90b08-e711-4f11-bd0c-602d71040ea1</title>
  <g>
    <path class="cls-1" d="M97.655,56.109a1.547,1.547,0,0,1-1.1-.545,1.832,1.832,0,0,1-.354-1.387q.283-2.493.626-4.978c.026-.193.058-.386.088-.58a10.153,10.153,0,0,0,.177-1.854,13.817,13.817,0,0,1-1.6.1,12.98,12.98,0,0,1-2.471-.238,2.433,2.433,0,0,1-1.687-.92,1.426,1.426,0,0,1-.094-1.2,1.683,1.683,0,0,1,1.628-1.2,2.244,2.244,0,0,1,1.048.277,5.961,5.961,0,0,0,2.851.681,15.334,15.334,0,0,0,4-.718c.777-.215,1.56-.5,2.315-.78.714-.263,1.452-.534,2.2-.751a6.717,6.717,0,0,1,1.863-.283,4.822,4.822,0,0,1,3.331,1.288,1.813,1.813,0,0,1-.319,3.275,12.123,12.123,0,0,1-1.559.739l-.042.018a7.4,7.4,0,0,0,1.94.771,10.075,10.075,0,0,1,1.638.586c.105-.01.229-.243.294-.368l.075-.141a12.249,12.249,0,0,1,5.543-4.837,2.7,2.7,0,0,1,1.171-.35,1.286,1.286,0,0,1,1.153.7,1.487,1.487,0,0,1,.188,1.1,1.949,1.949,0,0,1,.977-.274,1.789,1.789,0,0,1,.406.047c.972.227.988,1.144,1,1.636l.006.221c.018.346,0,.7-.015,1.047a4.322,4.322,0,0,0,.175,1.874c.081.192.149.4.219.609.287.872.474,1.326,1.263,1.326l.139,0a1.136,1.136,0,0,1,.814.355,1.045,1.045,0,0,1,.3.756,1.706,1.706,0,0,1-.7,1.131,2.4,2.4,0,0,1-1.471.583,2.3,2.3,0,0,1-1.715-.907,2.778,2.778,0,0,1-.292-.42c-.044-.072-.086-.145-.136-.212-.394-.539-.729-1-.878-1a3.51,3.51,0,0,0-1.043.57,6.508,6.508,0,0,1-3.691,1.192,6.87,6.87,0,0,1-3.6-1.071,31.815,31.815,0,0,0-4.16-2.084c-.837-.357-1.689-.679-2.585-1.017l-.77-.292a4.046,4.046,0,0,0,.084,1.675c.028.146.057.29.08.435.027.164.061.329.093.493a7.217,7.217,0,0,1,.173,1.217,1.69,1.69,0,0,1-1.593,1.813,1.9,1.9,0,0,1-.193.01c-.5,0-1.362-.218-1.489-1.681l-.068-.789c-.136-1.559-.271-3.118-.425-4.674a2.994,2.994,0,0,1,.006-.484c.029-.433.015-.437-.126-.47a1.141,1.141,0,0,0-.262-.032.942.942,0,0,0-.865.7,15.07,15.07,0,0,0-.846,6.543,1.306,1.306,0,0,0,.081.271,1.531,1.531,0,0,1,.132.735,1.777,1.777,0,0,1-1.752,1.776C97.77,56.116,97.713,56.114,97.655,56.109Zm21.734-10.254a2.271,2.271,0,0,1-.952.248,2.289,2.289,0,0,0-.5.085,4.327,4.327,0,0,0-2.911,2.363,1.2,1.2,0,0,0,1.147,1.821q.125.009.246.009a2.828,2.828,0,0,0,2.111-.893,3.066,3.066,0,0,0,.757-2.364A3.263,3.263,0,0,1,119.389,45.855Z"/>
    <path class="cls-2" d="M107.137,42.227a4.321,4.321,0,0,1,2.995,1.159c1.046.949.968,1.755-.239,2.475a23.343,23.343,0,0,1-2.3,1.053c1.24,1.258,2.938,1.262,4.313,1.939a.645.645,0,0,0,.285.075c.373,0,.555-.448.744-.791a11.61,11.61,0,0,1,5.329-4.632,2.251,2.251,0,0,1,.946-.3.8.8,0,0,1,.721.453c.463.8-.179,1.374-.776,1.751-.374.236-.938.146-1.38.3a4.8,4.8,0,0,0-3.209,2.65,1.693,1.693,0,0,0,1.576,2.5q.143.01.282.01a3.359,3.359,0,0,0,3.366-3.8,2.042,2.042,0,0,1,.356-1.58,1.916,1.916,0,0,1,1.381-.766,1.279,1.279,0,0,1,.292.034c.689.161.591.844.619,1.4a8.911,8.911,0,0,0,.2,3.09c.393.933.47,2.241,1.942,2.241l.113,0h.025a.623.623,0,0,1,.617.589,1.254,1.254,0,0,1-.508.759,1.906,1.906,0,0,1-1.163.477,1.821,1.821,0,0,1-1.34-.738c-.157-.177-.258-.4-.4-.6-.594-.814-.877-1.2-1.282-1.2a2.889,2.889,0,0,0-1.323.656,6.02,6.02,0,0,1-3.411,1.106,6.411,6.411,0,0,1-3.337-1,32.665,32.665,0,0,0-4.224-2.117c-1.23-.525-2.492-.974-3.875-1.508a4.725,4.725,0,0,0-.005,2.851,12.583,12.583,0,0,1,.259,1.643,1.185,1.185,0,0,1-1.141,1.3c-.051,0-.1.007-.145.007-.707,0-.934-.557-.992-1.224-.159-1.823-.315-3.647-.493-5.469-.049-.5.252-1.213-.5-1.392a1.637,1.637,0,0,0-.378-.046,1.415,1.415,0,0,0-1.334,1.025,15.53,15.53,0,0,0-.875,6.759c.027.305.252.614.215.9-.1.743-.48,1.339-1.255,1.339q-.063,0-.13-.005a1.1,1.1,0,0,1-1-1.378q.281-2.486.624-4.965a11.7,11.7,0,0,0,.236-3.071,13.441,13.441,0,0,1-2.071.164,12.405,12.405,0,0,1-2.376-.228c-.914-.178-1.7-.542-1.4-1.481a1.177,1.177,0,0,1,1.152-.852,1.751,1.751,0,0,1,.814.22,6.463,6.463,0,0,0,3.084.739,15.724,15.724,0,0,0,4.13-.736c1.531-.424,3-1.09,4.523-1.533a6.207,6.207,0,0,1,1.724-.263m-.828,2.976a3.059,3.059,0,0,0,2.007-.743,12.994,12.994,0,0,0-1.834-.247c-.622,0-.834.239-1.386.861a8.2,8.2,0,0,0,1.214.128m.828-3.976h0a7.219,7.219,0,0,0-2,.3c-.767.222-1.515.5-2.238.763-.78.287-1.517.557-2.273.767a14.721,14.721,0,0,1-3.863.7,5.475,5.475,0,0,1-2.618-.623,2.734,2.734,0,0,0-1.28-.335,2.177,2.177,0,0,0-2.106,1.55,1.916,1.916,0,0,0,.141,1.608,2.875,2.875,0,0,0,2.021,1.156,13.483,13.483,0,0,0,2.567.247c.359,0,.724-.014,1.091-.043-.028.418-.091.816-.157,1.226-.031.2-.062.392-.089.587-.229,1.657-.44,3.336-.627,4.99a2.325,2.325,0,0,0,.463,1.76,2.037,2.037,0,0,0,1.449.726q.108.009.211.009a2.266,2.266,0,0,0,2.247-2.212,2,2,0,0,0-.158-.974,1.169,1.169,0,0,1-.055-.16,14.571,14.571,0,0,1,.821-6.31.517.517,0,0,1,.28-.349,3.109,3.109,0,0,0,0,.518c.156,1.593.295,3.189.433,4.784l.059.674c.173,1.983,1.566,2.137,1.988,2.137.077,0,.157,0,.242-.012a2.169,2.169,0,0,0,2.044-2.325,7.648,7.648,0,0,0-.181-1.3c-.032-.159-.064-.319-.09-.478s-.054-.3-.083-.449a6.16,6.16,0,0,1-.129-.876l.145.055c.9.338,1.743.658,2.568,1.01a31.381,31.381,0,0,1,4.1,2.051,7.362,7.362,0,0,0,3.857,1.144,7,7,0,0,0,3.972-1.278c.129-.087.462-.313.676-.426.143.163.359.458.554.727.047.064.082.125.118.184a3.215,3.215,0,0,0,.345.493,2.778,2.778,0,0,0,2.09,1.076,2.882,2.882,0,0,0,1.781-.691,2.238,2.238,0,0,0,.889-1.5,1.544,1.544,0,0,0-.439-1.124,1.64,1.64,0,0,0-1.177-.51h-.068l-.07,0c-.375,0-.475-.036-.787-.982-.073-.223-.147-.443-.233-.647a3.924,3.924,0,0,1-.136-1.657c.016-.353.033-.717.014-1.1,0-.066,0-.135-.006-.2a1.934,1.934,0,0,0-1.384-2.115,2.287,2.287,0,0,0-.519-.06,2.323,2.323,0,0,0-.482.051,2.249,2.249,0,0,0-.25-.63,1.791,1.791,0,0,0-1.586-.95,3.2,3.2,0,0,0-1.4.4,12.71,12.71,0,0,0-5.755,5.042l-.074.138a13.038,13.038,0,0,0-1.355-.453c-.306-.09-.6-.176-.874-.273.221-.105.437-.218.651-.346a2.3,2.3,0,0,0,.4-4.075,5.306,5.306,0,0,0-3.667-1.418Zm9.287,8.654q-.1,0-.209-.008a.722.722,0,0,1-.719-1.139,3.778,3.778,0,0,1,2.614-2.076,2.164,2.164,0,0,1,.38-.059c.09-.009.186-.019.286-.033a5.381,5.381,0,0,0,.018.6,2.578,2.578,0,0,1-.625,1.986,2.336,2.336,0,0,1-1.744.731Z"/>
  </g>
  <g>
    <path class="cls-1" d="M94.234,81.417a1.245,1.245,0,0,1-1.376-1.222c-.034-.552-.179-.552-.527-.552-.121,0-.25.009-.387.021-.964.083-1.93.141-2.9.2-1.4.084-2.841.171-4.246.335a55.047,55.047,0,0,1-6.3.3c-.847,0-1.694-.009-2.542-.018s-1.687-.019-2.53-.019h-.6c-1.025,0-1.678-.03-2.08-.462-.424-.454-.38-1.1-.292-2.375l.009-.126a12.88,12.88,0,0,0-.377-3.405,12.234,12.234,0,0,1-.294-3.215,26.5,26.5,0,0,0-.811-7.867,2.391,2.391,0,0,1,.119-2.031,2.527,2.527,0,0,1,2.017-.658c1.208-.029,2.417-.038,3.626-.038.876,0,4.246.018,5.055.018a.435.435,0,0,1,.2-.048q1.632,0,3.263.01t3.26.01c1.64,0,3.279-.011,4.919-.05h.114a2.225,2.225,0,0,1,1.714.6,2.3,2.3,0,0,1,.491,1.8,33.245,33.245,0,0,0,.539,6.957c.214,1.437.436,2.922.533,4.406a16.223,16.223,0,0,0,.566,2.931c.122.477.244.953.347,1.431l.061.267a4.489,4.489,0,0,1,.155,1.009c0,1.29-.684,1.668-1.262,1.757A3.016,3.016,0,0,1,94.234,81.417ZM73.223,77.4a56.814,56.814,0,0,0,6.8.405,68.823,68.823,0,0,0,12.5-1.21c-.345-2.026-.542-4.051-.733-6.012a62.192,62.192,0,0,0-1.042-7.534c-1.361-.035-5.832-.08-10.06-.08-2.242,0-5.248.013-6.836.075s-1.616.114-1.555,1.876c.038,1.1.1,2.2.17,3.3.085,1.414.172,2.875.2,4.319a14.526,14.526,0,0,0,.238,1.793A14.556,14.556,0,0,1,73.223,77.4Z"/>
    <path class="cls-2" d="M91.545,60.723c1.371,0,1.782.691,1.707,1.867-.246,3.868.821,7.608,1.073,11.428a31.691,31.691,0,0,0,.922,4.433,5.864,5.864,0,0,1,.205,1.174c0,.579-.143,1.152-.837,1.259a2.521,2.521,0,0,1-.381.032c-.446,0-.841-.161-.877-.751-.051-.842-.442-1.022-1.027-1.022-.133,0-.277.009-.429.022-2.384.2-4.784.257-7.158.535a53.643,53.643,0,0,1-6.24.3c-1.688,0-3.375-.036-5.063-.036h-.619c-2.07,0-2.018-.173-1.863-2.43a13.268,13.268,0,0,0-.387-3.54,11.828,11.828,0,0,1-.285-3.086,27.031,27.031,0,0,0-.824-8.015c-.4-1.615-.04-2.028,1.662-2.07,1.208-.029,2.417-.038,3.626-.038,1.746,0,3.493.018,5.24.018v-.048c2.175,0,4.35.02,6.525.02,1.643,0,3.286-.011,4.928-.05h.1M80.027,78.3a70.179,70.179,0,0,0,13.082-1.309c-.89-4.89-.841-9.692-1.951-14.434-.586-.038-5.749-.094-10.459-.094-2.8,0-5.437.02-6.859.075-1.922.075-2.1.431-2.034,2.394.089,2.538.322,5.072.368,7.611.023,1.253.811,4.043.478,5.284a56.979,56.979,0,0,0,7.375.473M91.545,59.723H91.42c-1.432.034-2.99.05-4.9.05q-1.629,0-3.258-.01t-3.267-.01a1,1,0,0,0-.3.047q-1.155,0-2.31-.009c-.875,0-1.75-.009-2.625-.009-1.414,0-2.574.012-3.65.038a2.927,2.927,0,0,0-2.4.854,2.844,2.844,0,0,0-.208,2.454,25.964,25.964,0,0,1,.8,7.721,12.707,12.707,0,0,0,.3,3.345,12.512,12.512,0,0,1,.368,3.269l-.009.126c-.092,1.333-.147,2.138.425,2.752a3.168,3.168,0,0,0,2.444.621h.619c.84,0,1.68.009,2.521.018S77.656,81,78.5,81a55.459,55.459,0,0,0,6.356-.3c1.389-.162,2.825-.248,4.213-.332.954-.057,1.94-.116,2.914-.2.122-.01.236-.019.343-.019h.022c0,.024.005.051.007.083a1.744,1.744,0,0,0,1.875,1.69,3.477,3.477,0,0,0,.534-.044,1.991,1.991,0,0,0,1.685-2.252,4.905,4.905,0,0,0-.169-1.125c-.02-.085-.04-.169-.058-.254-.1-.485-.227-.968-.351-1.451a15.866,15.866,0,0,1-.551-2.838c-.1-1.5-.322-3-.537-4.448a32.367,32.367,0,0,1-.535-6.851,2.759,2.759,0,0,0-.625-2.173,2.728,2.728,0,0,0-2.08-.757ZM72.853,63.669a3.294,3.294,0,0,1,1.026-.129c1.252-.049,3.61-.075,6.82-.075,3.888,0,7.973.038,9.651.071a65.474,65.474,0,0,1,.95,7.092c.177,1.814.359,3.68.657,5.559A67.856,67.856,0,0,1,80.027,77.3a56.605,56.605,0,0,1-6.294-.349,18.951,18.951,0,0,0-.328-2.7,14.544,14.544,0,0,1-.231-1.723c-.026-1.454-.114-2.92-.2-4.339-.065-1.08-.131-2.2-.17-3.289a4.63,4.63,0,0,1,.048-1.23Z"/>
  </g>
  <g>
    <path class="cls-1" d="M104.312,86.54c-1.5,0-1.895-.825-2.021-2.065a20.936,20.936,0,0,1-.112-3.176,66.755,66.755,0,0,0-.149-6.828c-.1-1.806-.206-3.674-.188-5.522,0-.147-.009-.3-.018-.444a4.64,4.64,0,0,1,0-.8c.27-2.584.794-3.444,3.363-3.444.178,0,.368,0,.569.009s.408.017.612.028c.271.014.542.029.814.031.437,0,3.538,0,3.538,0,.492.023.967.033,1.448.033,1.239,0,2.5-.062,3.836-.127,1.364-.067,2.775-.136,4.194-.136.933,0,1.776.029,2.578.09l.132.012a2.227,2.227,0,0,0,.228.016,3.033,3.033,0,0,1,1.6-.549,3.138,3.138,0,0,1,2.213,1.316,5.019,5.019,0,0,0,.859.793,1.269,1.269,0,0,1,.461,1.08,60.294,60.294,0,0,0,.235,8.888,71.884,71.884,0,0,1,.3,7.7c-.02.6-.079,2.416-1.687,2.416h0a3.646,3.646,0,0,1-1.316-.3,5.35,5.35,0,0,0-1.969-.272l-.2,0q-1.349-.023-2.7-.024a85.041,85.041,0,0,0-15.08,1.163,5.781,5.781,0,0,1-.689.066l-.308.021C104.659,86.531,104.478,86.54,104.312,86.54Zm.4-19.394c-.169,3.193-.109,6.324-.052,9.355.024,1.28.048,2.556.056,3.832.017,2.646,1.031,3.188,2.549,3.188a7.054,7.054,0,0,0,.84-.055c3.128-.38,6.309-.474,9.384-.563,2.26-.066,4.6-.136,6.884-.317l.191-.016c1.3-.1,1.3-.1,1.343-1.351a63.036,63.036,0,0,0-.622-12.328,2.317,2.317,0,0,0-2.269-2.114c-1.474-.123-3.062-.182-4.858-.182-1.959,0-3.954.07-5.884.138-1.512.054-3.023.107-4.535.129l-.462,0A8.11,8.11,0,0,0,104.71,67.146Z"/>
    <path class="cls-2" d="M124.733,64.17c1.193,0,1.848,1.418,2.8,2.03a.8.8,0,0,1,.233.624c-.4,5.555.719,11.06.539,16.61-.042,1.288-.369,1.933-1.188,1.933a3.188,3.188,0,0,1-1.133-.27,6.319,6.319,0,0,0-2.342-.31q-1.358-.024-2.713-.025a86.548,86.548,0,0,0-15.162,1.17c-.313.055-.635.054-.953.081-.184.016-.351.024-.5.024-1.038,0-1.4-.4-1.523-1.615a20.86,20.86,0,0,1-.11-3.1c.194-4.133-.377-8.242-.336-12.369,0-.4-.067-.8-.026-1.2.258-2.469.678-3,2.866-3q.26,0,.555.009c.479.014.957.055,1.436.059.437,0,.874.005,1.342.005l2.2,0c.476.023.959.033,1.448.033,2.554,0,5.271-.264,8.03-.264.844,0,1.692.025,2.541.089.124.009.266.029.4.029a.547.547,0,0,0,.306-.07,2.323,2.323,0,0,1,1.3-.479M107.263,84.02a7.5,7.5,0,0,0,.9-.059c5.4-.655,10.839-.448,16.246-.879,1.839-.146,1.935-.089,1.995-1.848a64.192,64.192,0,0,0-.63-12.423,2.819,2.819,0,0,0-2.72-2.534c-1.632-.135-3.264-.183-4.9-.183-3.476,0-6.953.217-10.428.267a8.884,8.884,0,0,0-3.5.436c-.268,4.659-.041,9.1-.014,13.538.015,2.522.91,3.685,3.05,3.685m17.469-20.85a3.157,3.157,0,0,0-1.693.544l-.087-.009-.143-.013c-.815-.062-1.671-.092-2.616-.092-1.431,0-2.848.07-4.219.137-1.329.065-2.583.127-3.811.127-.5,0-.961-.01-1.4-.032h-2.249c-.466,0-.9,0-1.333,0-.263,0-.527-.017-.79-.031-.208-.011-.416-.022-.624-.028s-.4-.01-.586-.01c-2.956,0-3.58,1.2-3.861,3.892a5.107,5.107,0,0,0,0,.884c.009.136.019.271.017.406-.019,1.866.087,3.744.189,5.56a66.291,66.291,0,0,1,.148,6.772,21.717,21.717,0,0,0,.115,3.251c.12,1.17.515,2.513,2.518,2.513.179,0,.375-.01.59-.028.1-.008.194-.014.292-.019a6.167,6.167,0,0,0,.75-.074,84.586,84.586,0,0,1,14.988-1.155q1.347,0,2.7.025l.2,0a4.909,4.909,0,0,1,1.788.237,4.119,4.119,0,0,0,1.5.341c.955,0,2.11-.5,2.188-2.9A72,72,0,0,0,129,75.709a60.078,60.078,0,0,1-.235-8.812,1.737,1.737,0,0,0-.689-1.538,4.7,4.7,0,0,1-.764-.715,3.576,3.576,0,0,0-2.577-1.475Zm-19.542,4.356a9.351,9.351,0,0,1,2.084-.161l.469,0c1.52-.022,3.061-.076,4.551-.129,1.925-.068,3.914-.138,5.863-.138,1.781,0,3.356.059,4.814.18a1.836,1.836,0,0,1,1.816,1.7A62.491,62.491,0,0,1,125.4,81.2c-.006.185-.019.566-.049.788-.2.032-.531.058-.835.082l-.19.015c-2.275.181-4.606.25-6.861.316-3.086.091-6.277.185-9.427.567a6.545,6.545,0,0,1-.779.051c-1.113,0-2.035-.2-2.05-2.691-.008-1.276-.032-2.552-.056-3.833-.055-2.911-.112-5.915.033-8.97Z"/>
  </g>
  <g>
    <path class="cls-1" d="M4.9,87.356a1.422,1.422,0,0,1-1.361-1.03,1.454,1.454,0,0,1,.881-1.769,5.107,5.107,0,0,1,1.169-.3,1.361,1.361,0,0,1-.547-1.364,83.187,83.187,0,0,0,.056-9.779c-.071-2.129-.145-4.332-.106-6.5a4.084,4.084,0,0,0-.215-1.175c-.052-.184-.1-.368-.146-.556a1.974,1.974,0,0,1,.309-1.707,1.627,1.627,0,0,1,1.306-.6,2.148,2.148,0,0,1,.342.028,25.4,25.4,0,0,0,4,.289c1.889,0,3.814-.16,5.677-.314,1.64-.136,3.335-.277,5.014-.31a17.492,17.492,0,0,0,2.754-.244,3.007,3.007,0,0,1,.524-.046A3.5,3.5,0,0,1,27.9,65.091q.192,1.8.373,3.6c.419,4.1.853,8.344,1.514,12.481a1.62,1.62,0,0,1,.017.185c.209,1.686.222,2.549-.253,3.087a1.727,1.727,0,0,1-1.347.48h0a10.818,10.818,0,0,1-1.848-.222,14.54,14.54,0,0,0-2.594-.22,29.564,29.564,0,0,0-5.548.649c-1.546.293-3.124.518-4.65.734A61.806,61.806,0,0,0,6,87.265a3.1,3.1,0,0,1-.824.1C5.084,87.365,4.989,87.362,4.9,87.356ZM22.159,64.838c-.271,0-.542.006-.812.012s-.557.013-.835.013c-1.565.15-3.2.212-4.787.273a60.709,60.709,0,0,0-6.8.518c-.97.148-1.217.422-1.2,1.333.031,1.928.027,3.857.023,5.785,0,1.812-.008,3.623.019,5.434A8.346,8.346,0,0,0,8,79.805a7.09,7.09,0,0,1,.226,2.483l-.016.126A2.263,2.263,0,0,1,7.443,84.1c3.212-.279,6.435-.775,9.563-1.257,1.949-.3,3.966-.61,5.959-.865a14.777,14.777,0,0,1,1.87-.106c.361,0,.724.009,1.084.022h.017a1.1,1.1,0,0,0,.81-.214,1.245,1.245,0,0,0,.241-.885c0-.757-.012-1.561-.092-2.341-.1-.933-.18-1.867-.264-2.8a71.068,71.068,0,0,0-1.107-8.5c-.337-1.585-.926-2.138-2.422-2.275C22.79,64.846,22.474,64.838,22.159,64.838Z"/>
    <path class="cls-2" d="M24.546,62.475A3.011,3.011,0,0,1,27.4,65.144c.574,5.375,1.037,10.764,1.891,16.106.013.079.009.16.019.239.279,2.211.2,2.934-1.108,2.934a10.834,10.834,0,0,1-1.76-.214,15.188,15.188,0,0,0-2.681-.227,30.4,30.4,0,0,0-5.641.658c-4.074.771-8.234,1.046-12.25,2.143a2.647,2.647,0,0,1-.692.082c-.085,0-.17,0-.253-.008a.927.927,0,0,1-.907-.659A.961.961,0,0,1,4.6,85.022a5.445,5.445,0,0,1,1.624-.33c5.649-.387,11.2-1.506,16.805-2.222a14.3,14.3,0,0,1,1.81-.1c.355,0,.709.009,1.062.022l.116,0c1.071,0,1.474-.6,1.47-1.6,0-.8-.014-1.6-.1-2.39a105.567,105.567,0,0,0-1.378-11.353c-.373-1.747-1.1-2.506-2.866-2.668-.329-.03-.659-.04-.99-.04-.548,0-1.1.026-1.646.026-3.88.365-7.8.207-11.666.8C7.691,65.336,7.2,65.771,7.218,67c.062,3.738-.012,7.479.042,11.218.019,1.34.654,2.621.468,4.008a1.955,1.955,0,0,1-.608,1.49A1.2,1.2,0,0,1,6.392,84a.98.98,0,0,1-.379-.079.855.855,0,0,1-.477-.987c.46-5.441-.145-10.878-.05-16.317a7.6,7.6,0,0,0-.374-1.851c-.221-.969.269-1.693,1.128-1.693a1.682,1.682,0,0,1,.263.021,25.952,25.952,0,0,0,4.075.3c3.573,0,7.13-.553,10.7-.624a18.091,18.091,0,0,0,2.832-.252,2.5,2.5,0,0,1,.436-.038m0-1a3.507,3.507,0,0,0-.611.054,17.08,17.08,0,0,1-2.678.236c-1.693.034-3.4.175-5.043.311-1.853.154-3.768.312-5.636.312a24.888,24.888,0,0,1-3.919-.283,2.682,2.682,0,0,0-.42-.034,2.118,2.118,0,0,0-1.7.787,2.464,2.464,0,0,0-.406,2.129c.045.2.1.389.153.582a3.686,3.686,0,0,1,.2,1.03c-.038,2.184.036,4.392.107,6.526A83.045,83.045,0,0,1,4.54,82.85a2.236,2.236,0,0,0,.148,1.087q-.239.069-.458.156a1.967,1.967,0,0,0-1.179,2.36,1.905,1.905,0,0,0,1.815,1.4c.1.006.207.009.312.009a3.59,3.59,0,0,0,.956-.117,61.336,61.336,0,0,1,7.5-1.387c1.532-.218,3.115-.443,4.672-.738a29.106,29.106,0,0,1,5.455-.641,14.1,14.1,0,0,1,2.505.212,11.294,11.294,0,0,0,1.936.23,2.24,2.24,0,0,0,1.721-.65c.657-.745.572-1.883.379-3.409a2.446,2.446,0,0,0-.024-.272c-.659-4.125-1.092-8.361-1.51-12.457q-.184-1.8-.373-3.6a4.016,4.016,0,0,0-3.849-3.563Zm-3.988,3.888c.266,0,.533-.007.8-.013s.534-.013.8-.013c.35,0,.636.011.9.035,1.278.117,1.685.5,1.979,1.881a70.822,70.822,0,0,1,1.1,8.433c.084.938.168,1.876.264,2.813.078.756.087,1.547.09,2.293,0,.426-.095.528-.1.529a.654.654,0,0,1-.375.069l-.078,0c-.365-.014-.732-.023-1.1-.023a15.233,15.233,0,0,0-1.937.111c-2,.256-4.024.567-5.979.868-2.765.425-5.6.862-8.44,1.149A4.308,4.308,0,0,0,8.7,82.479l.016-.125A7.594,7.594,0,0,0,8.488,79.7a7.913,7.913,0,0,1-.227-1.5c-.026-1.8-.022-3.644-.018-5.423,0-1.9.008-3.862-.024-5.8-.01-.63.018-.715.777-.831a60.4,60.4,0,0,1,6.748-.513c1.576-.061,3.2-.123,4.814-.273Z"/>
  </g>
  <g>
    <path class="cls-1" d="M107.732,14.708a5.382,5.382,0,0,1-.814-.06,10.507,10.507,0,0,1-3.337-1.088l-.275-.147a6.177,6.177,0,0,0-2.943-.986c-.1,0-.2,0-.3.011-.072.005-.145.008-.214.008-1.446,0-2.315-1.109-2.326-2.967V9.287a16.642,16.642,0,0,0-.41-4.415,1.609,1.609,0,0,0-.378-.757,10.292,10.292,0,0,0-1.606,5.113l-.016.122a5.662,5.662,0,0,0-.036.6,3.334,3.334,0,0,1-.362,1.682c-.287.495-.676,1.167-1.512,1.167a1.621,1.621,0,0,1-.245-.02c-1.158-.177-1.119-1.212-1.1-1.709l0-.106a20.67,20.67,0,0,0-.491-5.813L91.333,5c-.116-.492-.169-.541-.291-.558h0c-.107,0-.289.218-.409.363l-.1.114A8.256,8.256,0,0,0,89.1,8.087l-.1.343q-.514,1.71-.991,3.433a1.594,1.594,0,0,1-1.661,1.224,3.092,3.092,0,0,1-.383-.025c-1.02-.126-.988-1.049-.976-1.442l0-.188c-.01-.591-.062-1.182-.114-1.773A14.257,14.257,0,0,1,84.856,6.2L84.886,6a3.829,3.829,0,0,1,.888-2.272L85.9,3.59a1.548,1.548,0,0,1,1.115-.652,1.174,1.174,0,0,1,.536.136,1.109,1.109,0,0,1,.489,1.492A7.189,7.189,0,0,1,90.3,2.273a2.989,2.989,0,0,1,1.691-.745c.888,0,1.378.792,1.774,1.648a8.746,8.746,0,0,1,.325.836,5.708,5.708,0,0,0,.688-.978A5.9,5.9,0,0,1,95.594,1.9,2.88,2.88,0,0,1,97.483.8c.926,0,1.446.959,1.8,1.795a12.247,12.247,0,0,1,.67,2.524c.036.189.072.38.111.573a2.529,2.529,0,0,0,.481-.6,3.822,3.822,0,0,1,.464-.609A7.308,7.308,0,0,1,106.391,2.1a8.475,8.475,0,0,1,1.326.108,2.812,2.812,0,0,1,2.146,1.314,2.424,2.424,0,0,1-.054,2.24,17.261,17.261,0,0,1-1.834,2.9l-.142.194a1.84,1.84,0,0,1-1.58.743,4.06,4.06,0,0,1-.648-.059c-.827-.136-1.688-.21-2.521-.282l-.246-.021a5.311,5.311,0,0,0,4.535,2.837l.313,0c1.984,0,3.519-.325,4.554-1.911a1.339,1.339,0,0,1,1.079-.685,1.053,1.053,0,0,1,.643.229c.708.545.31,1.337.139,1.675-.893,1.784-3.862,3.324-6.368,3.324ZM105.714,4.629a4.124,4.124,0,0,0-.544.036,2.2,2.2,0,0,0-.895.232,4.556,4.556,0,0,1-.754.424c-.711.343-.863.485-.815.76.087.491.425.59,1.334.625.146.005.286.011.412.022l.592.007a2.04,2.04,0,0,0,.217-.009,3.171,3.171,0,0,0,2.08-1.621C107.3,4.978,106.735,4.629,105.714,4.629Z"/>
    <path class="cls-2" d="M97.482,1.3c.512,0,.917.487,1.337,1.488a21.824,21.824,0,0,1,.875,3.577c.954-.12,1.171-1.023,1.668-1.527a6.858,6.858,0,0,1,5.029-2.24,7.96,7.96,0,0,1,1.248.1c1.644.261,2.4,1.367,1.716,2.852a18.211,18.211,0,0,1-1.926,3.01,1.35,1.35,0,0,1-1.176.537,3.535,3.535,0,0,1-.567-.052c-1.019-.167-2.053-.24-3.083-.332h-.024a1.488,1.488,0,0,0-.424.147,5.675,5.675,0,0,0,5.212,3.713l.318,0c1.921,0,3.766-.29,4.974-2.138a.884.884,0,0,1,.661-.458.548.548,0,0,1,.338.125c.391.3.155.739-.017,1.083-.813,1.623-3.628,3.019-5.908,3.019a4.894,4.894,0,0,1-.739-.054,9.991,9.991,0,0,1-3.177-1.036,7.213,7.213,0,0,0-3.453-1.191q-.165,0-.337.013-.09.007-.177.007c-1.2,0-1.817-.97-1.826-2.47a17.933,17.933,0,0,0-.429-4.738,2.008,2.008,0,0,0-.937-1.328c-1.533,1.781-1.775,3.836-2.042,5.873a5.1,5.1,0,0,1-.335,2.1c-.269.465-.53.917-1.079.917a1.126,1.126,0,0,1-.17-.013c-.766-.117-.69-.741-.672-1.305a21.52,21.52,0,0,0-.505-5.951c-.117-.466-.184-1.005-.747-1.081a.592.592,0,0,0-.079-.005c-.378,0-.634.373-.873.653A9.619,9.619,0,0,0,88.52,8.287Q88,10,87.526,11.729a1.1,1.1,0,0,1-1.18.858,2.613,2.613,0,0,1-.322-.021c-.668-.083-.526-.7-.533-1.142a30.29,30.29,0,0,1-.141-5.148,3.737,3.737,0,0,1,.784-2.206c.26-.27.514-.632.878-.632a.676.676,0,0,1,.309.082c.6.3.215.829.131,1.265A6.029,6.029,0,0,0,87.1,7.546a3.132,3.132,0,0,0,1.011-1.77,5.393,5.393,0,0,1,2.477-3.1,2.644,2.644,0,0,1,1.4-.649c.518,0,.894.436,1.322,1.359.2.425.329.881.541,1.461,1.084-.663,1.344-1.831,2.1-2.592.626-.633,1.115-.957,1.532-.957m7.56,5.936a2.515,2.515,0,0,0,.273-.012c1.052-.114,2.608-1.462,2.523-2.175-.062-.524-1.016-.919-2.125-.919a4.647,4.647,0,0,0-.609.04,2.481,2.481,0,0,0-1.128.327c-.662.494-1.937.676-1.762,1.671.2,1.16,1.448.99,2.193,1.059.272,0,.468.009.635.009M97.482.3a3.4,3.4,0,0,0-2.243,1.253,6.248,6.248,0,0,0-.889,1.224l-.125.2-.007-.015c-.292-.629-.9-1.938-2.229-1.938A3.558,3.558,0,0,0,90,1.869,11.1,11.1,0,0,0,88.43,3.2a1.614,1.614,0,0,0-.655-.568,1.67,1.67,0,0,0-.763-.191,2.011,2.011,0,0,0-1.486.817c-.038.041-.075.083-.112.122a4.293,4.293,0,0,0-1.022,2.548l-.03.2A14.7,14.7,0,0,0,84.379,9.7c.053.6.1,1.172.113,1.74,0,.052,0,.108,0,.164-.048,1.464.741,1.87,1.413,1.954a3.618,3.618,0,0,0,.445.029A2.085,2.085,0,0,0,88.489,12c.35-1.255.673-2.374.989-3.424l.1-.35a8,8,0,0,1,1.3-2.941,20.256,20.256,0,0,1,.474,5.668l0,.1a1.876,1.876,0,0,0,1.525,2.223,2.122,2.122,0,0,0,.321.025,2.265,2.265,0,0,0,1.942-1.412,3.791,3.791,0,0,0,.431-1.924,5.465,5.465,0,0,1,.031-.55l.017-.127A11.878,11.878,0,0,1,96.67,5.154,16.977,16.977,0,0,1,97.022,9.3v.185c.014,2.554,1.469,3.464,2.826,3.464q.123,0,.252-.01t.261-.01a5.719,5.719,0,0,1,2.708.928l.277.148a11,11,0,0,0,3.494,1.14,5.909,5.909,0,0,0,.891.065c2.717,0,5.832-1.635,6.8-3.571.515-1.024.42-1.8-.267-2.324a1.547,1.547,0,0,0-.947-.333,1.825,1.825,0,0,0-1.5.911c-.913,1.4-2.314,1.684-4.136,1.684l-.3,0A4.873,4.873,0,0,1,103.8,9.823c.587.054,1.156.117,1.723.209a4.5,4.5,0,0,0,.729.065,2.331,2.331,0,0,0,1.984-.948l.139-.19a17.71,17.71,0,0,0,1.887-2.99,2.974,2.974,0,0,0,.04-2.685A3.294,3.294,0,0,0,107.8,1.711a9,9,0,0,0-1.4-.114,7.886,7.886,0,0,0-5.74,2.537,3.2,3.2,0,0,0-.31.371,10.854,10.854,0,0,0-.6-2.105C99.477,1.772,98.86.3,97.482.3Zm5.731,5.756a4.2,4.2,0,0,1,.526-.284,5.031,5.031,0,0,0,.835-.474,2.545,2.545,0,0,1,.64-.134,3.735,3.735,0,0,1,.5-.034h0a2.964,2.964,0,0,1,.969.148,3.017,3.017,0,0,1-1.475.952,1.535,1.535,0,0,1-.166.007l-.22,0c-.108,0-.23,0-.371-.005-.121-.01-.253-.015-.391-.02a2.322,2.322,0,0,1-.835-.121h0a.2.2,0,0,1-.011-.03Z"/>
  </g>
  <g>
    <path class="cls-1" d="M15.13,16.344a2.393,2.393,0,0,1-.365-.03A1.231,1.231,0,0,1,13.6,15.006a15.006,15.006,0,0,0-.924-5.447,26.885,26.885,0,0,1-.83-3.289,2.967,2.967,0,0,1,.218-2.408,2.212,2.212,0,0,1,1.7-.7,3.365,3.365,0,0,0,.345-.4,3.481,3.481,0,0,1,.569-.6,4.531,4.531,0,0,1,2.77-.926,4.694,4.694,0,0,1,4.022,2.25A3.442,3.442,0,0,1,20.5,7.738a5.62,5.62,0,0,1-2.845,1.013,18.778,18.778,0,0,0,5.244,2.57,8.084,8.084,0,0,1,2.129-6.95,4.8,4.8,0,0,1,2.7-1.57,1.568,1.568,0,0,1,.371-.045,1.273,1.273,0,0,1,1.2.784,1.358,1.358,0,0,1-.532,1.6,2.637,2.637,0,0,1-1.111.5,1.724,1.724,0,0,0-.8.353,4.752,4.752,0,0,0-1.124,4.773l.053.139c.222.6.342.824.718.839l.112,0a1.278,1.278,0,0,0,1.331-.779c.084-.245.175-.489.267-.733a6.684,6.684,0,0,0,.616-2.764A4.266,4.266,0,0,1,28.985,5.6a1.889,1.889,0,0,1,1.794-1.2,2.374,2.374,0,0,1,.558.069,1.148,1.148,0,0,1,.749.512A1.6,1.6,0,0,1,32.155,6.2c-.876,3.443-.876,3.443.636,6.627a.544.544,0,0,1,.01.448.515.515,0,0,1-.322.291,4.321,4.321,0,0,1-1,.176c-.656,0-1.031-.348-1.827-1.251-.044.064-.09.141-.144.231a3.168,3.168,0,0,1-.3.453,3.127,3.127,0,0,1-2.369,1.432h0a4.544,4.544,0,0,1-1.76-.455c-.132-.056-.26-.118-.385-.179A1.955,1.955,0,0,0,24,13.724c-.066,0-.267,0-.572.536a1.135,1.135,0,0,1-1.007.654,2.441,2.441,0,0,1-1.459-.781l-.09-.079a18.5,18.5,0,0,0-4.844-2.783,7.016,7.016,0,0,0,.435,1.854c.072.221.146.439.209.658a2.066,2.066,0,0,1-.359,2.005A1.43,1.43,0,0,1,15.13,16.344Zm1.951-12.48a2.015,2.015,0,0,0-.689.122,2.2,2.2,0,0,0-1.23,1.882c.072.362.178.392.484.392.1,0,.208-.007.313-.014.126-.008.253-.016.375-.016a2.148,2.148,0,0,1,.363.028l.619-.009.382,0c1.183,0,1.442-.35,1.479-.915.042-.64-.37-1.025-1.472-1.376A2.038,2.038,0,0,0,17.082,3.864Z"/>
    <path class="cls-2" d="M17.442,1.736a4.183,4.183,0,0,1,3.594,2.006,2.935,2.935,0,0,1-.849,3.6c-1.146.9-2.51.83-3.91,1.119C18.509,9.885,20.658,11.4,23.583,12c-.9-2.928.084-5.213,1.826-7.308a4.321,4.321,0,0,1,2.435-1.4,1.061,1.061,0,0,1,.252-.031.776.776,0,0,1,.743.482c.187.433-.079.754-.4,1.025-.557.475-1.368.328-1.933.874a5.231,5.231,0,0,0-1.243,5.311c.222.58.411,1.266,1.217,1.3l.133,0a1.74,1.74,0,0,0,1.8-1.116,9.515,9.515,0,0,0,.909-3.69,3.881,3.881,0,0,1,.119-1.656,1.39,1.39,0,0,1,1.33-.895,1.845,1.845,0,0,1,.438.055c.58.142.592.582.453,1.13-.923,3.631-.911,3.634.688,7a4.017,4.017,0,0,1-.877.161c-.51,0-.8-.339-1.768-1.443-.476.2-.593.7-.889,1.055-.727.861-1.272,1.254-1.988,1.254a4.127,4.127,0,0,1-1.563-.415A3.747,3.747,0,0,0,24,13.224c-.337,0-.667.193-1.007.788a.659.659,0,0,1-.572.4c-.412,0-.868-.432-1.221-.737a20.891,20.891,0,0,0-5.641-3.153,7.753,7.753,0,0,0,.635,3.4,1.582,1.582,0,0,1-.274,1.557.943.943,0,0,1-.791.362,1.873,1.873,0,0,1-.288-.024c-.429-.067-.78-.312-.746-.777.23-3.117-1.27-5.884-1.76-8.854-.2-1.225-.443-2.417,1.452-2.53.414-.025.752-.769,1.187-1.1a4.053,4.053,0,0,1,2.467-.823m-1.8,5.024c.226,0,.464-.029.689-.029a1.646,1.646,0,0,1,.278.021.5.5,0,0,0,.085.006c.051,0,.1,0,.153-.005l.457,0,.257,0H17.7c.977,0,1.9-.22,1.981-1.383.074-1.131-.888-1.588-1.819-1.885a2.559,2.559,0,0,0-.778-.122,2.52,2.52,0,0,0-.86.151,2.66,2.66,0,0,0-1.549,2.451.859.859,0,0,0,.974.793m1.8-6.024h0A5.028,5.028,0,0,0,14.37,1.763a3.849,3.849,0,0,0-.657.688c-.055.068-.128.16-.186.225a2.559,2.559,0,0,0-1.856.874,3.321,3.321,0,0,0-.334,2.721l.013.081A27.4,27.4,0,0,0,12.194,9.7a14.659,14.659,0,0,1,.905,5.267,1.723,1.723,0,0,0,1.589,1.839,2.843,2.843,0,0,0,.442.036,1.926,1.926,0,0,0,1.579-.746,2.567,2.567,0,0,0,.446-2.455c-.066-.224-.14-.447-.214-.673-.1-.292-.192-.578-.266-.867a15.9,15.9,0,0,1,3.874,2.329l.088.077a2.856,2.856,0,0,0,1.788.9,1.626,1.626,0,0,0,1.44-.906,1.43,1.43,0,0,1,.19-.272,4.153,4.153,0,0,1,.419.186c.132.064.268.13.407.189a5,5,0,0,0,1.956.5A3.631,3.631,0,0,0,29.587,13.5c.051-.061.1-.123.141-.183a2.271,2.271,0,0,0,1.753.927,4.7,4.7,0,0,0,1.117-.19,1,1,0,0,0,.663-1.4c-1.453-3.061-1.453-3.061-.622-6.328a2.078,2.078,0,0,0-.125-1.607,1.639,1.639,0,0,0-1.06-.74,2.849,2.849,0,0,0-.676-.083,2.476,2.476,0,0,0-.874.156,1.716,1.716,0,0,0-.147-.708A1.782,1.782,0,0,0,28.1,2.256a2.063,2.063,0,0,0-.49.06A5.347,5.347,0,0,0,24.64,4.052a8.748,8.748,0,0,0-2.359,6.557A16.986,16.986,0,0,1,19,9,4.9,4.9,0,0,0,20.8,8.132a3.909,3.909,0,0,0,1.091-4.9A5.2,5.2,0,0,0,17.442.736ZM15.65,5.76a1.843,1.843,0,0,1,.911-1.3,1.52,1.52,0,0,1,.519-.091,1.559,1.559,0,0,1,.474.074c1.157.369,1.139.657,1.125.867-.016.24-.029.448-.983.448h-.114l-.276,0h-.46l-.119,0,.005,0a2.7,2.7,0,0,0-.4-.027c-.133,0-.27.008-.407.017-.093.006-.187.013-.277.013Zm10.966,5.491-.091,0c-.1-.058-.207-.343-.27-.513l-.054-.144a4.218,4.218,0,0,1,1-4.235,1.386,1.386,0,0,1,.578-.229,5.355,5.355,0,0,0,.583-.179,6,6,0,0,0-.037,1.5l0,.057a6.328,6.328,0,0,1-.585,2.555c-.093.25-.186.5-.272.749-.041.12-.151.441-.858.441Z"/>
  </g>
  <g>
    <path class="cls-1" d="M81.512,36.431a1.533,1.533,0,0,1-.255-.022,2.086,2.086,0,0,1-1.789-2.261,6.06,6.06,0,0,0,0-1.121,5.365,5.365,0,0,1,.089-1.745.5.5,0,0,0-.109-.026,3.008,3.008,0,0,1-.321.018,1.452,1.452,0,0,1-1.607-1.416,1.333,1.333,0,0,1,.321-1.039,1.7,1.7,0,0,1,1.274-.427c.081,0,.252.006.256.006.677,0,.744-.2.779-1.041a5.234,5.234,0,0,1,.045-.568c.047-.3.189-1.21.053-1.37-.05-.058-.256-.128-.958-.128,0,0-.5.005-.56.01-.146.009-.308.034-.474.059a5.7,5.7,0,0,1-.814.082,1.188,1.188,0,0,1-1.329-1A1.367,1.367,0,0,1,76.35,23.3a2.47,2.47,0,0,1,1.9-.615l.241-.011c.98-.062,1.961-.146,2.942-.231,1.868-.162,3.8-.329,5.718-.329a26.839,26.839,0,0,1,3,.156.5.5,0,0,1,.437.584c-.273,1.537-.424,2.383-1.49,2.383a6.83,6.83,0,0,1-1.477-.277,6.775,6.775,0,0,0-1.626-.163c-.241,0-.482.006-.724.012-.208,0-.416.01-.623.011l-.607-.01c-.59,0-.808.115-.973.514a5.365,5.365,0,0,0-.357,3,.521.521,0,0,1,.175-.062c.81-.181,1.631-.3,2.426-.417a14.1,14.1,0,0,0,5.238-1.474,6.384,6.384,0,0,1,3.2-.736,14.5,14.5,0,0,1,2.94.342,2.717,2.717,0,0,1,1.86,1.752,4.971,4.971,0,0,1-.194,4.345c-1.115,1.753-4.466,2.838-6.93,2.838h0a5.672,5.672,0,0,1-2.954-.692c-1.459-.9-1.92-1.939-1.7-3.986-.111-.008-.226-.013-.344-.013a10,10,0,0,0-2.271.357,15.6,15.6,0,0,1-1.659.327c-.105.013-.19.173-.222.241a2.464,2.464,0,0,0,.229,2.1,1.832,1.832,0,0,0,.19.229,1.218,1.218,0,0,1,.354,1.436l-.1.224C82.731,35.648,82.4,36.431,81.512,36.431Zm14.394-7.674a14.989,14.989,0,0,1-1.529.057,5.908,5.908,0,0,0-3.167.588c-1.439.859-1.491,1.513-1.353,2.04.19.721.6.769,1.265.788a3.649,3.649,0,0,1,.433.029,9.16,9.16,0,0,0,3.4-.539,2.213,2.213,0,0,0,1.451-1.492,1.748,1.748,0,0,0-.307-1.312c-.1-.132-.18-.159-.193-.159v0Z"/>
    <path class="cls-2" d="M87.148,22.609a26.491,26.491,0,0,1,2.944.153c-.265,1.49-.351,1.971-1,1.971a6.644,6.644,0,0,1-1.355-.262,7.127,7.127,0,0,0-1.746-.178c-.45,0-.9.02-1.351.023h-.036c-.187,0-.379-.01-.568-.01a1.321,1.321,0,0,0-1.434.823,5.833,5.833,0,0,0-.388,3.277.482.482,0,0,0,.538.366,1.1,1.1,0,0,0,.239-.027c2.608-.583,5.3-.511,7.8-1.945a5.905,5.905,0,0,1,2.949-.67,14.179,14.179,0,0,1,2.839.332c1.76.366,2.411,3.664,1.346,5.338-.943,1.482-3.972,2.607-6.509,2.607a5.2,5.2,0,0,1-2.691-.618c-1.369-.844-1.73-1.775-1.4-3.988a4.705,4.705,0,0,0-.9-.084,32.763,32.763,0,0,0-3.992.687c-.88.109-1.093,1.979-.349,3.111.256.39.755.64.507,1.182-.235.513-.421,1.233-1.077,1.233a1.032,1.032,0,0,1-.172-.015,1.579,1.579,0,0,1-1.376-1.707c.133-1.09-.278-2.178.233-3.238a3.749,3.749,0,0,0-.755-.215l-.051,0a2.5,2.5,0,0,1-.27.015c-.613,0-1.066-.262-1.109-.947-.049-.787.491-.935,1.1-.935.073,0,.147,0,.221.006l.12,0c1.415,0,1.111-1.257,1.233-2.034.284-1.813.13-2.075-1.4-2.075q-.165,0-.352,0c-.08,0-.16,0-.239.007-.376.025-.85.14-1.254.14s-.755-.122-.837-.588c-.219-1.237,1.2-1.139,1.918-1.184,2.873-.181,5.744-.56,8.63-.56m4.329,10.144a9.7,9.7,0,0,0,3.682-.577,2.718,2.718,0,0,0,1.733-1.832c.2-.845-.337-2.088-.986-2.088l-.053,0c-1.636.172-3.34-.218-4.9.713-1.252.747-1.859,1.54-1.58,2.6.362,1.375,1.536,1.1,2.1,1.184M87.148,21.609c-1.94,0-3.883.168-5.762.331-.963.083-1.958.17-2.931.231-.069,0-.146.007-.228.01a2.891,2.891,0,0,0-2.266.8,1.852,1.852,0,0,0-.345,1.546,1.69,1.69,0,0,0,1.822,1.414,6.012,6.012,0,0,0,.888-.087c.151-.023.3-.046.431-.055.049,0,.1,0,.147,0,.163,0,.275,0,.379,0,.248,0,.411.008.519.019a7.94,7.94,0,0,1-.1.9,5.458,5.458,0,0,0-.051.625,3.444,3.444,0,0,1-.051.554.908.908,0,0,1-.144.01l-.074,0c-.089,0-.179-.007-.267-.007a2.215,2.215,0,0,0-1.639.585,1.817,1.817,0,0,0-.456,1.413,1.933,1.933,0,0,0,1.942,1.879,7.776,7.776,0,0,0,.008,1.289,5.761,5.761,0,0,1,.007,1.029,2.584,2.584,0,0,0,2.2,2.815,2.029,2.029,0,0,0,.338.029,2.134,2.134,0,0,0,1.9-1.607c.03-.072.06-.143.09-.21a1.729,1.729,0,0,0-.439-1.98,1.4,1.4,0,0,1-.142-.167,2.015,2.015,0,0,1-.207-1.591c.536-.076,1.054-.2,1.556-.316a10.793,10.793,0,0,1,1.959-.339,3.855,3.855,0,0,0,1.98,3.92,6.162,6.162,0,0,0,3.216.767c2.654,0,6.129-1.148,7.352-3.07a5.5,5.5,0,0,0,.232-4.808,3.2,3.2,0,0,0-2.218-2.046,14.968,14.968,0,0,0-3.043-.353,6.867,6.867,0,0,0-3.446.8,13.728,13.728,0,0,1-5.062,1.413c-.686.1-1.391.2-2.1.346a4.965,4.965,0,0,1,.39-2.182c.068-.165.084-.2.509-.2.087,0,.174,0,.261,0,.1,0,.206.005.307.005.253,0,.464-.007.675-.012.237-.006.475-.011.712-.011a6.029,6.029,0,0,1,1.5.148,7.092,7.092,0,0,0,1.6.292c1.485,0,1.7-1.234,1.982-2.8a1,1,0,0,0-.874-1.169,27.333,27.333,0,0,0-3.055-.16Zm8.81,7.645h0Zm-4.438,2.5c-.116-.012-.245-.017-.384-.021-.653-.019-.7-.064-.8-.416-.065-.245-.185-.7,1.126-1.483a5.451,5.451,0,0,1,2.912-.518c.444,0,.9,0,1.366-.04a1.3,1.3,0,0,1,.176.838c-.119.495-.468.839-1.168,1.151a8.7,8.7,0,0,1-3.233.488Z"/>
  </g>
  <g>
    <path class="cls-1" d="M30.62,37.03a1.527,1.527,0,0,1-.213-.015,1.258,1.258,0,0,1-1.06-1.372c0-.6.011-1.209.021-1.814.013-.749.024-1.5.021-2.247,0-.847-.024-1.693-.045-2.54-.014-.586-.028-1.171-.037-1.757l0-.171a2.837,2.837,0,0,1,.352-1.744,1.674,1.674,0,0,1,1.423-.854,1.741,1.741,0,0,1,.274.022.973.973,0,0,1,.916,1.066A7.936,7.936,0,0,1,33.7,23.588a3.4,3.4,0,0,1,2.351-1.023,3.152,3.152,0,0,1,2.773,1.808,9.99,9.99,0,0,1,.862,3c.061.349.122.7.2,1.043a2.4,2.4,0,0,1,.009.741c-.052.544-.039.546.29.592a1.242,1.242,0,0,0,.17.012,1.687,1.687,0,0,0,1.581-1.378,5.584,5.584,0,0,1,2.488-3.812,3.18,3.18,0,0,1,1.819-.75,1.994,1.994,0,0,1,.89.214c1.311.646,1.142,1.967,1.029,2.841A4.71,4.71,0,0,1,45.7,30.46c-.129.075-.268.146-.407.219-.842.434-1.114.625-.734,1.424.688,1.448,1.295,1.738,2.052,1.738a3.376,3.376,0,0,0,.527-.045,2.506,2.506,0,0,0,1.614-.717.89.89,0,0,1,.673-.319,1,1,0,0,1,.655.26.94.94,0,0,1,.356.672,1.184,1.184,0,0,1-.387.852,5.623,5.623,0,0,1-3.972,1.962h0c-1.769,0-3.269-1.153-4.116-3.163a2.21,2.21,0,0,1-.134-.706,1.469,1.469,0,0,0-.062-.4l-.107.021a4.907,4.907,0,0,0-1.956.5c-.139.064-.186.086.1.7a1.785,1.785,0,0,1,.136,1.584,1.34,1.34,0,0,1-.993.686,2.1,2.1,0,0,1-.427.047c-.427,0-1.418-.178-1.433-1.822-.007-.875.009-1.75.025-2.626.012-.642.023-1.284.026-1.925a7.943,7.943,0,0,0-.428-3.1c-.156-.379-.5-1.015-1.085-1.015a1.545,1.545,0,0,0-1.041.566,3.194,3.194,0,0,0-.753,1.209c-.131.424-.27.847-.408,1.269a15.153,15.153,0,0,0-1.073,5.284,5.2,5.2,0,0,1-.467,2.575A1.407,1.407,0,0,1,30.62,37.03ZM45.592,26.938c-.333.093-.449.371-.631.967-.019.062-.038.124-.058.186A1.608,1.608,0,0,0,45.592,26.938Z"/>
    <path class="cls-2" d="M36.054,23.065a2.639,2.639,0,0,1,2.33,1.539A15.008,15.008,0,0,1,39.4,28.519c.133.61-.431,1.56.717,1.721a1.724,1.724,0,0,0,.239.017,2.18,2.18,0,0,0,2.075-1.8,5.108,5.108,0,0,1,2.287-3.483,2.73,2.73,0,0,1,1.526-.655,1.493,1.493,0,0,1,.669.163c.973.48.866,1.461.754,2.33a4.2,4.2,0,0,1-2.218,3.219c-.827.482-2.053.791-1.341,2.29.659,1.387,1.358,2.024,2.5,2.024a3.863,3.863,0,0,0,.606-.052,3,3,0,0,0,1.911-.882.388.388,0,0,1,.3-.148.519.519,0,0,1,.33.14c.324.279.165.555-.068.8a5.113,5.113,0,0,1-3.609,1.805c-1.484,0-2.846-.936-3.656-2.857-.2-.48.075-1.358-.646-1.384l-.118,0a5.365,5.365,0,0,0-2.165.543c-.669.309-.358.9-.113,1.436.291.634.334,1.317-.539,1.5a1.593,1.593,0,0,1-.325.036c-.725,0-.926-.635-.932-1.327-.013-1.515.046-3.03.051-4.545a8.383,8.383,0,0,0-.465-3.293c-.357-.868-.919-1.325-1.547-1.325a2.008,2.008,0,0,0-1.4.719,3.7,3.7,0,0,0-.871,1.409c-.674,2.2-1.585,4.35-1.5,6.717a4.662,4.662,0,0,1-.413,2.331.907.907,0,0,1-.816.565.991.991,0,0,1-.142-.01c-.47-.068-.632-.452-.631-.875,0-1.355.048-2.71.042-4.064-.007-1.434-.062-2.867-.083-4.3a2.733,2.733,0,0,1,.264-1.631,1.127,1.127,0,0,1,1.2-.614c.75.121.408.7.486,1.115.092.49-.449.872-.04,1.682a13.94,13.94,0,0,1,2.335-3.884,2.882,2.882,0,0,1,2-.882m8.422,5.7c1.192-.216,1.524-1.1,1.676-2.109.01-.068-.22-.251-.337-.251h-.005c-1.154.056-1.183,1.061-1.483,1.824-.042.107.072.275.149.536m-8.422-6.7h0a3.893,3.893,0,0,0-2.7,1.165,7.136,7.136,0,0,0-1.01,1.247,1.675,1.675,0,0,0-.915-.431,2.21,2.21,0,0,0-.353-.029,2.157,2.157,0,0,0-1.841,1.077,3.332,3.332,0,0,0-.434,2.03l0,.169c.009.594.023,1.187.038,1.781.02.837.041,1.673.045,2.51,0,.742-.008,1.485-.02,2.227-.01.61-.02,1.22-.021,1.83a1.749,1.749,0,0,0,1.488,1.868,1.99,1.99,0,0,0,.285.021,1.892,1.892,0,0,0,1.709-1.114,5.655,5.655,0,0,0,.52-2.818,14.789,14.789,0,0,1,1.049-5.11c.14-.426.28-.851.411-1.278a2.723,2.723,0,0,1,.635-1.009,1.148,1.148,0,0,1,.681-.413c.205,0,.444.27.623.705a7.538,7.538,0,0,1,.39,2.909c0,.644-.014,1.287-.026,1.931-.016.859-.033,1.746-.025,2.626.014,1.709,1.007,2.318,1.932,2.318a2.6,2.6,0,0,0,.53-.058,1.823,1.823,0,0,0,1.337-.95,2.169,2.169,0,0,0-.094-1.945l-.034-.074c-.021-.046-.046-.1-.071-.155a4.59,4.59,0,0,1,1.153-.313,2.437,2.437,0,0,0,.163.755c.929,2.2,2.6,3.469,4.577,3.469a6.111,6.111,0,0,0,4.335-2.117,1.681,1.681,0,0,0,.524-1.222,1.428,1.428,0,0,0-.528-1.025,1.517,1.517,0,0,0-.983-.383,1.383,1.383,0,0,0-1.05.49,2.089,2.089,0,0,1-1.316.552,2.888,2.888,0,0,1-.449.039c-.5,0-.961-.109-1.6-1.453a.843.843,0,0,1-.117-.382,2.789,2.789,0,0,1,.628-.383c.147-.076.293-.152.429-.231a5.186,5.186,0,0,0,2.706-3.956c.115-.891.328-2.549-1.3-3.354a2.5,2.5,0,0,0-1.112-.266,3.666,3.666,0,0,0-2.112.845,6.05,6.05,0,0,0-2.69,4.142,1.183,1.183,0,0,1-1.054.953l.005-.055a2.829,2.829,0,0,0-.017-.9c-.074-.339-.134-.68-.194-1.022a10.4,10.4,0,0,0-.912-3.143,3.643,3.643,0,0,0-3.217-2.076Z"/>
  </g>
  <g>
    <path class="cls-1" d="M38.371,15.354a3.038,3.038,0,0,1-2.046-1.184c-.107-.108-.213-.214-.318-.312a10.713,10.713,0,0,1-2.616-5.1L33.345,8.6A14.1,14.1,0,0,1,32.9,5.87c-.035-.364-.07-.728-.117-1.088a1.5,1.5,0,0,1,1.347-1.731,1.683,1.683,0,0,1,.28-.024,1.082,1.082,0,0,1,.837.348,1.643,1.643,0,0,1,.306,1.31,9.942,9.942,0,0,0,1.773,6.222,2.7,2.7,0,0,0,.5.683A17.363,17.363,0,0,0,37.951,6c-.017-.116-.045-.231-.072-.347a1.861,1.861,0,0,1,.161-1.608,2.011,2.011,0,0,1,1.525-1h0A1.413,1.413,0,0,1,41,4.34,7.043,7.043,0,0,0,43.412,8a27.525,27.525,0,0,1,2.05,2.349c.307.379.612.758.928,1.128.281.33.47.532.674.532.258-.033.324-.128.372-.7l.015-.166a17.721,17.721,0,0,0,.038-3.477,11.8,11.8,0,0,0-.243-1.382,13.945,13.945,0,0,1-.255-1.422c-.08-.729-.208-1.091-.724-1.181-.45-.079-1.5-.261-1.451-1.29C44.866,1.343,45.848.914,46.376.683A2.042,2.042,0,0,1,47.2.5a1.6,1.6,0,0,1,1.289.641,2.181,2.181,0,0,1,.446.807c.838,3.438,1.578,7.107.633,10.83l-.053.214c-.23.938-.545,2.221-2.205,2.344-.1.008-.2.011-.3.011a3.038,3.038,0,0,1-2.869-1.889,14.22,14.22,0,0,0-3.593-4.292l-.028.471c-.058.958-.105,1.753-.137,2.549l-.008.2c-.032.948-.077,2.246-1.193,2.774A1.877,1.877,0,0,1,38.371,15.354Z"/>
    <path class="cls-2" d="M47.2,1a1.108,1.108,0,0,1,.9.451,1.732,1.732,0,0,1,.352.615c.851,3.491,1.546,7,.635,10.589-.247.971-.408,2.078-1.81,2.182-.089.007-.176.01-.26.01a2.546,2.546,0,0,1-2.418-1.6c-.946-2-2.537-3.381-4.483-5.152-.1,1.711-.18,2.892-.227,4.075-.038.961-.011,2.115-.915,2.544a1.381,1.381,0,0,1-.6.143c-.807,0-1.425-.8-2.022-1.36-1.452-1.36-1.982-3.231-2.525-5.037a23.513,23.513,0,0,1-.545-3.738,1,1,0,0,1,.932-1.173,1.214,1.214,0,0,1,.2-.018c.631,0,.7.607.646,1.107A10.368,10.368,0,0,0,36.9,11.164a2.138,2.138,0,0,0,1.292,1.172,17.985,17.985,0,0,0,.258-6.406c-.074-.536-.365-1.054.008-1.606a1.482,1.482,0,0,1,1.132-.78h.045c.518,0,.786.376.881.889a7.529,7.529,0,0,0,2.549,3.929c1.073,1.056,1.967,2.294,2.948,3.445.286.335.595.708,1.054.708a.891.891,0,0,0,.125-.009c.737-.1.711-.852.758-1.307a18.224,18.224,0,0,0,.04-3.577c-.089-.939-.394-1.854-.5-2.811-.071-.643-.2-1.456-1.135-1.618-.46-.08-1.067-.185-1.038-.773.034-.708.7-1.03,1.262-1.277A1.562,1.562,0,0,1,47.2,1m0-1h0a2.544,2.544,0,0,0-1.023.225A2.621,2.621,0,0,0,44.315,2.37c-.047.976.581,1.584,1.866,1.807.141.025.235.041.312.743a14.347,14.347,0,0,0,.264,1.475,11.587,11.587,0,0,1,.234,1.322,17.23,17.23,0,0,1-.039,3.38l-.015.175-.006.073c-.052-.058-.1-.118-.144-.166-.329-.386-.633-.763-.937-1.139a27.751,27.751,0,0,0-2.086-2.389,6.654,6.654,0,0,1-2.267-3.4,1.891,1.891,0,0,0-1.865-1.706l-.086,0a2.427,2.427,0,0,0-1.92,1.219,2.346,2.346,0,0,0-.233,2.005c.024.1.049.2.063.3a16.839,16.839,0,0,1,.064,4.185,9.074,9.074,0,0,1-1.47-5.515,2.11,2.11,0,0,0-.431-1.7,1.6,1.6,0,0,0-1.209-.514,2.209,2.209,0,0,0-.362.031,2,2,0,0,0-1.76,2.288c.046.355.08.713.115,1.072a14.543,14.543,0,0,0,.464,2.826l.047.158a11.256,11.256,0,0,0,2.752,5.321c.1.094.2.2.305.3a3.469,3.469,0,0,0,2.4,1.33,2.382,2.382,0,0,0,1.026-.24c1.391-.66,1.443-2.193,1.478-3.208l.007-.2c.025-.625.06-1.25.1-1.954a11.664,11.664,0,0,1,2.706,3.419,3.55,3.55,0,0,0,3.322,2.175q.164,0,.334-.013c2.022-.15,2.418-1.761,2.654-2.724l.052-.209c.974-3.832.221-7.571-.632-11.072a2.609,2.609,0,0,0-.539-1A2.112,2.112,0,0,0,47.2,0Z"/>
  </g>
  <g>
    <path class="cls-1" d="M63.244,36.478a1.384,1.384,0,0,1-1.268-1.535,24.247,24.247,0,0,0-.124-2.977,17.4,17.4,0,0,1,.036-4.625c.168-.912.1-1.161.042-1.229-.02-.023-.114-.1-.523-.1a7.768,7.768,0,0,0-.869.065c-.306.036-.612.087-.92.139a11.047,11.047,0,0,1-1.8.2c-.153,0-.307-.006-.46-.021q-.105-.01-.2-.01c-.731,0-1,.424-1.442,1.238-.926,1.69-.926,1.69.654,2.788l.788.551c.518.363,1.034.726,1.56,1.079a1.315,1.315,0,0,1,.629,1.8,1.424,1.424,0,0,1-1.29.892,1.693,1.693,0,0,1-.773-.2,5.712,5.712,0,0,1-.992-.7l-.605-.492a7.568,7.568,0,0,0-1.386-.979c-.036.062-.073.121-.108.178-.121.2-.272.438-.244.544.02.078.152.222.463.393a.987.987,0,0,1,.512.778,1.291,1.291,0,0,1-.449,1.078,3.036,3.036,0,0,1-1.939.973,2.052,2.052,0,0,1-.681-.121,1.3,1.3,0,0,1-.87-1.514,31.188,31.188,0,0,1,.742-3.062,1.175,1.175,0,0,0-.572-1.634,8.3,8.3,0,0,1-2.455-2.181,1.993,1.993,0,0,1-.453-1.555,1.554,1.554,0,0,1,.777-1,1.587,1.587,0,0,1,.826-.254,1.554,1.554,0,0,1,1.405,1.1,3.384,3.384,0,0,0,1.509,1.657,10.354,10.354,0,0,1,1.376-2.482c.209-.3.417-.607.607-.92a2.11,2.11,0,0,1,1.834-1.181,2.509,2.509,0,0,1,.426.038,21.867,21.867,0,0,0,3.7.283c1.371,0,2.774-.09,4.131-.178.6-.039,1.205-.078,1.808-.11l.165,0a1.274,1.274,0,0,1,1.407,1.062,1.4,1.4,0,0,1-.98,1.682,2.355,2.355,0,0,1-.514.107,2.9,2.9,0,0,1-.395.028c-.167,0-.338-.013-.509-.027-.145-.012-.288-.024-.429-.024a.721.721,0,0,0-.645.248,2.1,2.1,0,0,0-.226,1.563c.02.226.039.45.041.667,0,.434-.008.868-.019,1.3a11.907,11.907,0,0,0,.258,3.569,4.019,4.019,0,0,1,.04,1.47l-.014.141a1.481,1.481,0,0,1-1.467,1.515Z"/>
    <path class="cls-2" d="M56.573,23.649a2.024,2.024,0,0,1,.341.031,22.365,22.365,0,0,0,3.788.29c1.988,0,3.978-.184,5.965-.288q.072,0,.139,0c.5,0,.811.164.917.665a.9.9,0,0,1-.659,1.108,2.272,2.272,0,0,1-.466.089,2.084,2.084,0,0,1-.273.016c-.308,0-.63-.051-.938-.051a1.213,1.213,0,0,0-1.033.434c-.6.743-.3,1.7-.3,2.55a18.884,18.884,0,0,0,.259,5,4.064,4.064,0,0,1,.009,1.43c-.056.591-.347,1.062-.969,1.062l-.08,0a.888.888,0,0,1-.8-1.016c.1-2.511-.56-5-.1-7.533.27-1.473.1-1.917-.973-1.917a8.241,8.241,0,0,0-.928.068,23.527,23.527,0,0,1-2.665.335c-.138,0-.276-.006-.413-.019-.087-.008-.17-.012-.249-.012-1.063,0-1.45.71-1.882,1.5-1.065,1.946-1.014,2.17.809,3.437.784.545,1.561,1.1,2.353,1.635.43.289.75.586.462,1.157a.95.95,0,0,1-.843.617,1.2,1.2,0,0,1-.545-.149,7.331,7.331,0,0,1-1.143-.836,8.528,8.528,0,0,0-2.3-1.544c-.267.779-1.309,1.428.1,2.206.4.219.294.771-.02,1.036a2.64,2.64,0,0,1-1.616.854,1.539,1.539,0,0,1-.515-.093.8.8,0,0,1-.545-.946,30.648,30.648,0,0,1,.73-3.013,1.66,1.66,0,0,0-.785-2.2A7.807,7.807,0,0,1,49.1,27.5c-.465-.663-.636-1.352.175-1.845a1.094,1.094,0,0,1,.566-.181c.419,0,.737.333.95.808a4.047,4.047,0,0,0,2.274,2.168,13.15,13.15,0,0,1,2.1-3.857,1.6,1.6,0,0,1,1.408-.941m0-1h0a2.623,2.623,0,0,0-2.262,1.421c-.186.3-.388.6-.592.9a12.962,12.962,0,0,0-1.2,2,2.811,2.811,0,0,1-.819-1.1A1.947,1.947,0,0,0,48.756,24.8a2.039,2.039,0,0,0-1.007,1.33,2.489,2.489,0,0,0,.533,1.944,8.912,8.912,0,0,0,2.6,2.317c.494.31.545.46.36,1.064a31.318,31.318,0,0,0-.755,3.112,1.8,1.8,0,0,0,1.194,2.082,2.546,2.546,0,0,0,.848.15,3.39,3.39,0,0,0,2.188-1.028l.073-.062a1.779,1.779,0,0,0,.625-1.51,1.513,1.513,0,0,0-.18-.584l.126.1c.127.1.253.209.381.311l.225.183a6.188,6.188,0,0,0,1.082.759,2.187,2.187,0,0,0,1,.26,1.942,1.942,0,0,0,1.736-1.166,1.752,1.752,0,0,0-.8-2.438c-.521-.351-1.035-.712-1.549-1.073L56.649,30a5.616,5.616,0,0,1-1.089-.885,6.55,6.55,0,0,1,.587-1.25c.466-.851.6-.979,1.005-.979q.074,0,.156.008c.168.016.337.023.506.023A11.388,11.388,0,0,0,59.7,26.71c.3-.05.6-.1.9-.135a7.263,7.263,0,0,1,.811-.061h.086a5.4,5.4,0,0,1-.1.735,17.774,17.774,0,0,0-.043,4.757,23.7,23.7,0,0,1,.123,2.916,1.869,1.869,0,0,0,1.737,2.055c.048,0,.1,0,.142,0a1.97,1.97,0,0,0,1.964-1.967l.014-.14a4.4,4.4,0,0,0-.055-1.652,11.539,11.539,0,0,1-.241-3.419c.012-.441.023-.882.019-1.323,0-.231-.022-.469-.043-.708-.052-.592-.074-.967.118-1.2.026-.033.049-.061.255-.061.128,0,.258.012.389.022.184.015.369.029.549.029a3.083,3.083,0,0,0,.4-.025l.055-.007a2.813,2.813,0,0,0,.616-.132,1.9,1.9,0,0,0,1.3-2.256,1.779,1.779,0,0,0-1.9-1.458c-.062,0-.126,0-.192.005-.605.032-1.211.071-1.817.11-1.348.087-2.741.177-4.1.177a21.368,21.368,0,0,1-3.619-.276,3.037,3.037,0,0,0-.51-.045Z"/>
  </g>
  <g>
    <path class="cls-1" d="M41.717,91.863a2.352,2.352,0,0,1-.288-.018c-1.5-.184-1.8-.965-1.783-1.589.026-.924.712-1.5,1.789-1.5.31.007.542.018.775.028.321.015.642.029.961.029a6.584,6.584,0,0,0,.89-.054c1.762-.243,3.556-.42,5.291-.591a82.671,82.671,0,0,0,8.635-1.158A7.231,7.231,0,0,1,59,86.9c1.388-.089,2.295-.147,2.5-.406s.066-1.126-.117-2.34a124.119,124.119,0,0,0-3.016-14.47c-.468-1.705.579-2.2,1.051-2.338a1.743,1.743,0,0,1,.48-.072c.836,0,1.383.684,1.463,1.83a44.878,44.878,0,0,0,1.291,7.145c.132.558.264,1.114.391,1.672.115.5.282,1.194.465,1.949.982,4.056,1.2,5.138,1.1,5.514-.09.334-.033.429-.032.43s.088.057.3.057a1.531,1.531,0,0,1,1.253.523,1.255,1.255,0,0,1,.191,1.13c-.368,1.435-1.2,1.788-1.828,1.832-.147.01-.3.015-.445.015-.372,0-.745-.028-1.118-.057-.215-.016-.43-.032-.645-.043a.491.491,0,0,1-.229-.067l-2.148.251c-1.788.207-3.576.413-5.36.651-2.573.343-5.144.706-7.714,1.069l-4.322.609A5.141,5.141,0,0,1,41.717,91.863Z"/>
    <path class="cls-2" d="M59.9,67.771c.715,0,.923.788.963,1.365a58.786,58.786,0,0,0,1.693,8.893c.448,1.964,1.69,6.759,1.566,7.223-.167.623-.061,1.116.754,1.116h0c.679,0,1.131.361.96,1.029s-.531,1.4-1.379,1.458c-.136.009-.272.013-.408.013-.578,0-1.162-.071-1.742-.1l-.008-.1c-2.606.31-5.217.591-7.818.938-3.942.526-7.878,1.1-11.818,1.646a7.027,7.027,0,0,1-.948.11,1.872,1.872,0,0,1-.227-.013c-.648-.079-1.365-.286-1.343-1.079.02-.731.588-1.012,1.291-1.012H41.5c.555.013,1.116.056,1.672.056a7.005,7.005,0,0,0,.957-.058c4.646-.641,9.353-.8,13.959-1.755a6.881,6.881,0,0,1,.949-.106c3.341-.216,3.313-.211,2.83-3.4a125.091,125.091,0,0,0-3.016-14.45c-.242-.882-.057-1.506.706-1.725a1.248,1.248,0,0,1,.343-.052m0-1h0a2.253,2.253,0,0,0-.618.091,2.156,2.156,0,0,0-1.4,2.951,123.258,123.258,0,0,1,2.991,14.335l.012.08a11.013,11.013,0,0,1,.205,1.938,11.846,11.846,0,0,1-2.112.233,7.864,7.864,0,0,0-1.1.125,82.193,82.193,0,0,1-8.579,1.15c-1.741.171-3.542.348-5.313.593a6.02,6.02,0,0,1-.821.049c-.311,0-.625-.015-.938-.029-.237-.011-.475-.022-.711-.027h-.086a2.052,2.052,0,0,0-2.291,1.984c-.019.68.245,1.857,2.221,2.1a2.872,2.872,0,0,0,.349.021,5.57,5.57,0,0,0,.869-.087l.217-.033q2.036-.283,4.072-.572c2.579-.365,5.158-.729,7.74-1.073,1.788-.238,3.614-.449,5.38-.653q1-.115,1.993-.232a.938.938,0,0,0,.274.055c.211.01.422.026.633.042.373.028.76.058,1.156.058.159,0,.318,0,.477-.016a2.53,2.53,0,0,0,2.278-2.207,1.771,1.771,0,0,0-.28-1.56,1.941,1.941,0,0,0-1.408-.707c.071-.5-.114-1.468-1.123-5.637-.182-.749-.347-1.434-.461-1.934-.127-.556-.259-1.112-.39-1.668a44.657,44.657,0,0,1-1.281-7.073c-.119-1.691-1.091-2.294-1.961-2.294Z"/>
  </g>
  <g>
    <path class="cls-1" d="M116.2,35.516c-1.082,0-1.256-.956-1.349-1.47-.408-2.238-.8-4.433-1.187-6.628a1.088,1.088,0,0,1,.016-.4c-.4-1.175-.713-2.534.883-3.705a6.744,6.744,0,0,1,3.956-1.578,5.141,5.141,0,0,1,1.3.171,6.647,6.647,0,0,1,2.664,1.552,3.856,3.856,0,0,1,1.544,2.943,4.143,4.143,0,0,1-1.649,2.973,1.146,1.146,0,0,0,.479.128c.087.013.173.026.254.042.7.141,1.414.259,2.124.378.786.132,1.571.263,2.352.424.422.087,1.7.352,1.479,1.583a1.7,1.7,0,0,1-1.738,1.443h0q-.1,0-.211-.01a5.413,5.413,0,0,1-1.034-.236c-.143-.043-.285-.086-.429-.122l-1.771-.452c-1.567-.4-3.135-.8-4.709-1.177A5.124,5.124,0,0,0,118,31.189a1.723,1.723,0,0,0-.574.091,1.422,1.422,0,0,0,.185.558,3.08,3.08,0,0,1,.229.595l.062.233a2.112,2.112,0,0,1,.016,1.463,1.89,1.89,0,0,1-1.57,1.38C116.3,35.514,116.247,35.516,116.2,35.516Zm1.346-8.113a1.222,1.222,0,0,1,.673.173,1.413,1.413,0,0,0,.435.1c.108.016.224.033.343.057l.169-.014c.96-.078,1.606-.18,1.846-.846.192-.536-.123-.855-.888-1.456-.106-.083-.211-.166-.311-.249a4.276,4.276,0,0,0-.709-.461,1.252,1.252,0,0,0-.608-.164,2.426,2.426,0,0,0-1.284.53c-.605.423-.584,1.066-.477,2.074a.751.751,0,0,0,.063.286h0a.61.61,0,0,0,.113.009c.086,0,.177-.009.268-.018C117.3,27.414,117.426,27.4,117.546,27.4Z"/>
    <path class="cls-2" d="M118.518,22.234a4.614,4.614,0,0,1,1.171.155,6.125,6.125,0,0,1,2.46,1.444c1.953,1.717,1.814,3.613-.342,5.364.044.775.716.74,1.2.836,1.485.3,2.99.5,4.474.8.511.105,1.222.268,1.087,1a1.21,1.21,0,0,1-1.247,1.034q-.079,0-.162-.008a9.613,9.613,0,0,1-1.389-.346c-2.161-.548-4.318-1.115-6.487-1.631a5.623,5.623,0,0,0-1.283-.2,2.1,2.1,0,0,0-1.013.24c-.226.642.24,1.092.366,1.621a2.092,2.092,0,0,1,.1,1.39c-.226.547-.5,1.02-1.148,1.072q-.056,0-.108,0c-.685,0-.769-.575-.865-1.1q-.6-3.289-1.179-6.581c-.027-.153.07-.336.021-.474-.425-1.191-.6-2.2.682-3.141a6.209,6.209,0,0,1,3.659-1.482m-1.605,5.709c.2,0,.427-.041.633-.041a.745.745,0,0,1,.406.1,3.5,3.5,0,0,0,1.015.241c.93-.085,2.115-.082,2.515-1.2.386-1.076-.629-1.661-1.349-2.258a4.887,4.887,0,0,0-.79-.516,1.749,1.749,0,0,0-.847-.225,2.833,2.833,0,0,0-1.571.62c-.913.637-.78,1.664-.68,2.6.06.568.337.676.668.676m1.605-6.709a7.186,7.186,0,0,0-4.251,1.675,3.25,3.25,0,0,0-1.094,4.107,1.472,1.472,0,0,0,0,.487q.58,3.3,1.18,6.587c.1.558.349,1.925,1.849,1.925.06,0,.122,0,.187-.008a2.389,2.389,0,0,0,1.993-1.687,2.6,2.6,0,0,0,0-1.786c-.02-.072-.04-.144-.058-.218a3.266,3.266,0,0,0-.232-.626,5.45,5.45,0,0,1,.958.17c1.574.375,3.172.784,4.718,1.18l1.754.448c.136.034.271.075.406.116a5.871,5.871,0,0,0,1.133.256q.132.013.259.013a2.21,2.21,0,0,0,2.231-1.854c.117-.64.029-1.771-1.869-2.162-.792-.163-1.595-.3-2.371-.427-.639-.107-1.3-.217-1.941-.342a4.154,4.154,0,0,0,1.152-2.676,4.327,4.327,0,0,0-1.714-3.328,7.121,7.121,0,0,0-2.868-1.661,5.646,5.646,0,0,0-1.424-.188Zm-1.3,5.686c-.084-.865-.043-1.207.283-1.435a2.052,2.052,0,0,1,1-.44.756.756,0,0,1,.37.1,3.89,3.89,0,0,1,.629.407c.1.085.211.17.321.257.742.583.79.714.725.894-.127.353-.465.439-1.415.516l-.1.009c-.1-.019-.2-.034-.3-.048a2.39,2.39,0,0,1-.279-.051,1.645,1.645,0,0,0-.9-.23c-.108,0-.22.008-.332.017Z"/>
  </g>
  <g>
    <path class="cls-1" d="M32,55.073a2.687,2.687,0,0,1-2.37-1.42A41.81,41.81,0,0,1,26.6,46.291a2.181,2.181,0,0,1,.124-1.958,2.415,2.415,0,0,1,2.009-.829c.611-.026,1.223-.034,1.835-.034.438,0,2.725.016,2.725.016a5.554,5.554,0,0,1,2.779.694l.263.147c.751.415,1.886,1.041,1.728,2.4a3.058,3.058,0,0,1-2.376,2.706l.371.177c1.176.564,2.353,1.128,3.542,1.661l.2.084a1.514,1.514,0,0,1,1.179,1.44,1.922,1.922,0,0,1-.774,1.672,1.266,1.266,0,0,1-.728.252,1.552,1.552,0,0,1-1.061-.56c-.07-.068-.14-.136-.212-.193a13.717,13.717,0,0,0-6.875-2.848c.374.9.629,1.338,1.476,1.338h.008a.81.81,0,0,1,.639.244,1.5,1.5,0,0,1,.321,1.071,1.24,1.24,0,0,1-.857,1.138,2.543,2.543,0,0,1-.914.167Zm.146-9.118a5.742,5.742,0,0,0-1.52.208c-.768.211-.816.293-.759.662.04.253.116.436.744.473.3.018.594.026.89.026a16.658,16.658,0,0,0,3.467-.377c-.047-.273-.243-.426-.687-.591A6.14,6.14,0,0,0,32.149,45.955Z"/>
    <path class="cls-2" d="M30.574,43.97c.868,0,1.736.015,2.6.015h.131a5.052,5.052,0,0,1,2.518.627c.79.455,1.877.9,1.742,2.052a2.582,2.582,0,0,1-2.1,2.3,6.788,6.788,0,0,1-.939.09l-.051.342c1.639.778,3.268,1.579,4.924,2.32.523.234,1.079.353,1.081,1.07a1.45,1.45,0,0,1-.561,1.261.771.771,0,0,1-.442.162c-.387,0-.656-.4-.963-.646a14.424,14.424,0,0,0-7.98-3.045c.551,1.162.724,2.428,2.271,2.428h.1c.268,0,.394.445.373.787a.753.753,0,0,1-.537.7,2.051,2.051,0,0,1-.735.134,2.188,2.188,0,0,1-1.93-1.156,41.657,41.657,0,0,1-2.992-7.274c-.444-1.422.147-2.073,1.677-2.138.6-.026,1.21-.033,1.816-.033m.932,3.853a17.266,17.266,0,0,0,3.959-.475c.109-.882-.363-1.222-1.007-1.461a6.6,6.6,0,0,0-2.31-.433,6.2,6.2,0,0,0-1.652.227c-.628.173-1.259.336-1.12,1.221.111.7.631.86,1.209.894q.462.027.921.027m-.932-4.853h0c-.719,0-1.31.011-1.858.034a2.866,2.866,0,0,0-2.4,1.04,2.646,2.646,0,0,0-.193,2.4,42.322,42.322,0,0,0,3.065,7.449A3.185,3.185,0,0,0,32,55.573a3.039,3.039,0,0,0,1.094-.2A1.753,1.753,0,0,0,34.273,53.8a2.02,2.02,0,0,0-.455-1.444,1.285,1.285,0,0,0-.453-.313,12.861,12.861,0,0,1,4.53,2.313c.059.047.116.1.173.16a2.022,2.022,0,0,0,1.409.7,1.756,1.756,0,0,0,1.015-.343,2.434,2.434,0,0,0,.988-2.083,2.007,2.007,0,0,0-1.487-1.9c-.062-.026-.124-.051-.186-.079-.971-.435-1.95-.9-2.908-1.357a3.544,3.544,0,0,0,1.662-2.672c.2-1.689-1.166-2.442-1.981-2.892-.087-.048-.173-.1-.255-.143a6.043,6.043,0,0,0-3.017-.76h-.131c-.431,0-.862,0-1.293-.008s-.874-.008-1.311-.008Zm-.2,3.792c.105-.039.257-.08.369-.111a5.274,5.274,0,0,1,1.408-.2,5.444,5.444,0,0,1,1.5.218,15.613,15.613,0,0,1-2.142.151q-.43,0-.862-.025a1.409,1.409,0,0,1-.272-.036Zm2.435,5.19a.689.689,0,0,1-.554-.179q.421.084.829.19a1.242,1.242,0,0,0-.179-.013Z"/>
  </g>
  <g>
    <path class="cls-1" d="M41.173,88.991a1.239,1.239,0,0,1-1.235-1.255,119.838,119.838,0,0,0-1.857-17.457,1.073,1.073,0,0,1,.161-.965,1.713,1.713,0,0,1,1.384-.574,2.1,2.1,0,0,1,.4.037,15.3,15.3,0,0,0,3.01.259c.863,0,1.747-.046,2.6-.091l.929-.047c2.46-.113,4.962-.328,7.381-.535l2.322-.2a2.871,2.871,0,0,0,.369-.065,3.04,3.04,0,0,1,.646-.091,1.27,1.27,0,0,1,.979.427,1.547,1.547,0,0,1-.13,2.019l-.068.1A2.093,2.093,0,0,1,56.4,71.68a1.519,1.519,0,0,1-.823-.253,3.827,3.827,0,0,0-2.189-.538c-.336,0-.673.019-1.007.038l-.222.012c-2.321.124-4.683.307-6.966.484-1.084.084-2.168.168-3.252.246-.154.012-.31.016-.477.016l-.507-.006c-.264,3.729,1.021,12.8,2.076,14.306.365.521.047,1.318-.233,2.021l-.092.233A1.263,1.263,0,0,1,41.39,89S41.245,89,41.173,88.991Z"/>
    <path class="cls-2" d="M57.284,68.512a.77.77,0,0,1,.608.263c.482.532.015,1.112-.246,1.514a1.669,1.669,0,0,1-1.241.891,1.023,1.023,0,0,1-.554-.175,4.384,4.384,0,0,0-2.458-.616c-.419,0-.839.029-1.255.051-3.412.182-6.818.485-10.228.732-.143.01-.286.014-.44.014-.267,0-.569-.01-.962-.01-.4,3.3.9,13.354,2.121,15.1.242.346-.16,1.21-.382,1.791a.833.833,0,0,1-.856.438c-.06,0-.119,0-.176-.007a.744.744,0,0,1-.776-.744,117.8,117.8,0,0,0-1.877-17.607c-.178-.622.488-.9,1.065-.9a1.586,1.586,0,0,1,.3.028,15.969,15.969,0,0,0,3.106.268c1.186,0,2.372-.084,3.553-.138,3.245-.149,6.482-.467,9.721-.731.32-.026.659-.154.974-.154m0-1h0a3.449,3.449,0,0,0-.753.1,2.366,2.366,0,0,1-.3.055q-1.161.095-2.321.2c-2.415.207-4.913.421-7.364.533-.309.014-.619.03-.929.047-.849.045-1.727.091-2.578.091a14.825,14.825,0,0,1-2.912-.249,2.58,2.58,0,0,0-.5-.047,2.21,2.21,0,0,0-1.783.773,1.564,1.564,0,0,0-.243,1.4,118.726,118.726,0,0,1,1.839,17.306,1.741,1.741,0,0,0,1.695,1.767c.084.007.17.011.257.011a1.752,1.752,0,0,0,1.79-1.08l.091-.231c.31-.779.7-1.748.177-2.491-.921-1.316-2.118-9.719-2.008-13.512h.03c.18,0,.347,0,.512-.016q1.626-.118,3.251-.247c2.281-.177,4.641-.36,6.958-.484l.223-.012c.325-.018.652-.037.979-.037a3.371,3.371,0,0,1,1.921.459,2.011,2.011,0,0,0,1.091.331,2.563,2.563,0,0,0,2.08-1.346l.064-.1a2.045,2.045,0,0,0,.084-2.632,1.771,1.771,0,0,0-1.349-.591Z"/>
  </g>
  <g>
    <path class="cls-1" d="M124.723,16.155c-1.078,0-1.425-1.189-1.573-1.7a16.005,16.005,0,0,1-.387-1.877c-.065-.4-.131-.8-.218-1.2-.345-1.568-.352-1.6-2.085-1.733-.1-.007-.2-.008-.3-.009-.5,0-1.556-.015-1.613-1.259a1.8,1.8,0,0,1,.423-1.364,1.431,1.431,0,0,1,1.077-.425,2.316,2.316,0,0,1,.4.036,1.3,1.3,0,0,0,.215.021.379.379,0,0,0,.093-.009,3.389,3.389,0,0,0-.036-.395,3.133,3.133,0,0,1,.013-1.135,1.68,1.68,0,0,1,1.644-1.4l.1,0c.575,0,1.289.261,1.423,1.5a3.647,3.647,0,0,1-.014.665c-.059.69.012.707.222.758a5.313,5.313,0,0,0,1.262.157,4.41,4.41,0,0,0,1.518-.261c.215-.079.314-.2.332-.7,0-.114,0-.229,0-.343a2.314,2.314,0,0,1,.375-1.561,1.512,1.512,0,0,1,1.163-.691,1.321,1.321,0,0,1,.385.06,1.2,1.2,0,0,1,.952,1.1c0,.079.014.159.022.239a2.676,2.676,0,0,1,0,.851c-.042.194-.167.786-.014.975a.9.9,0,0,0,.635.158,1.2,1.2,0,0,1,1.155,1.042,1.135,1.135,0,0,1-.218.888,1.337,1.337,0,0,1-.911.489.74.74,0,0,0-.462.157c-.109.137-.057.576-.032.787a8.453,8.453,0,0,0,1.36,4.184.5.5,0,0,1-.2.753,4.706,4.706,0,0,1-1.714.533h0c-.937,0-1.187-.9-1.387-1.625a26.183,26.183,0,0,1-.852-3.8c-.105-.852-.386-.852-.61-.852a2.265,2.265,0,0,0-.538.082c-.378.1-.764.157-1.2.224l-.211.033a6.421,6.421,0,0,0,1.8,4.967.5.5,0,0,1-.045.769A3.549,3.549,0,0,1,124.723,16.155Z"/>
    <path class="cls-2" d="M128.757,3.744a.815.815,0,0,1,.239.038.724.724,0,0,1,.6.651,3.629,3.629,0,0,1,.027.954c-.207.973-.194,1.737,1.111,1.737h.021a.694.694,0,0,1,.639.619.708.708,0,0,1-.686.8c-1.02.108-1.037.681-.938,1.5a8.986,8.986,0,0,0,1.453,4.42,4.548,4.548,0,0,1-1.514.491c-.479,0-.662-.378-.905-1.258a26.153,26.153,0,0,1-.837-3.724c-.114-.922-.47-1.29-1.106-1.29a2.724,2.724,0,0,0-.662.1c-.537.137-1.093.2-1.784.316-.018,2.166.274,4.186,1.962,5.757a3.249,3.249,0,0,1-1.653.8c-.512,0-.83-.434-1.093-1.337-.288-.988-.375-2.032-.6-3.041-.4-1.812-.605-1.974-2.535-2.125-.612-.048-1.406.142-1.45-.793-.034-.73.265-1.266,1-1.266a1.849,1.849,0,0,1,.314.029,1.774,1.774,0,0,0,.3.029c.562,0,.65-.383.551-.985a2.657,2.657,0,0,1,.008-.952,1.187,1.187,0,0,1,1.179-1l.077,0c.642,0,.858.43.926,1.058.071.656-.361,1.623.586,1.855a5.809,5.809,0,0,0,1.38.171A4.907,4.907,0,0,0,127.06,7c.538-.2.642-.637.661-1.148a2.566,2.566,0,0,1,.271-1.619,1.006,1.006,0,0,1,.766-.494m0-1h0a2,2,0,0,0-1.56.887,2.759,2.759,0,0,0-.478,1.878c0,.1.005.21,0,.313a1.536,1.536,0,0,1-.025.251,3.918,3.918,0,0,1-1.326.225,4.758,4.758,0,0,1-1-.11c0-.085.012-.185.019-.263a3.932,3.932,0,0,0,.013-.76c-.19-1.761-1.406-1.951-1.92-1.951q-.062,0-.127,0a2.183,2.183,0,0,0-2.108,1.8A3.573,3.573,0,0,0,120.2,6.1c-.049,0-.1,0-.146,0a1.921,1.921,0,0,0-1.439.58,2.252,2.252,0,0,0-.561,1.733c.054,1.138.763,1.722,2.107,1.735.09,0,.179,0,.264.008a4.545,4.545,0,0,1,1.279.21,4.054,4.054,0,0,1,.357,1.132c.083.378.146.763.213,1.171a16.2,16.2,0,0,0,.4,1.935c.148.509.6,2.057,2.053,2.057a3.955,3.955,0,0,0,2.244-.993,1,1,0,0,0,.09-1.539,5.557,5.557,0,0,1-1.631-4.174c.347-.055.682-.112,1.019-.2a1.746,1.746,0,0,1,.415-.066h.019a1.534,1.534,0,0,1,.1.413,26.951,26.951,0,0,0,.866,3.868c.206.745.552,1.991,1.869,1.991a5.029,5.029,0,0,0,1.914-.575,1,1,0,0,0,.407-1.507,8.024,8.024,0,0,1-1.267-3.949c-.022-.179-.03-.3-.032-.374l.083-.011a1.822,1.822,0,0,0,1.254-.682,1.645,1.645,0,0,0,.315-1.268,1.7,1.7,0,0,0-1.627-1.466h0a1.8,1.8,0,0,1-.23-.013,3.115,3.115,0,0,1,.077-.517,3.121,3.121,0,0,0,.014-1c-.008-.074-.016-.148-.021-.22a1.694,1.694,0,0,0-1.305-1.545,1.816,1.816,0,0,0-.531-.082Z"/>
  </g>
  <g>
    <path class="cls-1" d="M152.581,16.526a1.119,1.119,0,0,1-.728-.242,1.439,1.439,0,0,1-.444-.814,1.188,1.188,0,0,0-.1-.291.542.542,0,0,0-.445-.182h0a2.832,2.832,0,0,0-.722.134l-.129.035a5.806,5.806,0,0,1-1.471.212,3.031,3.031,0,0,1-1.755-.5,3.171,3.171,0,0,1-1.261-2.248,7.194,7.194,0,0,1,.189-2.382c.959-4.61,2.717-7.3,5.226-7.986a4.363,4.363,0,0,1,1.155-.152,5.793,5.793,0,0,1,2.238.485,1.111,1.111,0,0,1,.368.233,1.134,1.134,0,0,1,.268.518.892.892,0,0,1-.139.808,1.322,1.322,0,0,1-1.067.46,1.838,1.838,0,0,1-.5-.068,3,3,0,0,0-.8-.118,1.971,1.971,0,0,0-.705.121,3.734,3.734,0,0,0-1.678,1.895l-.279.524a11.768,11.768,0,0,0-1.657,4.38,1.462,1.462,0,0,0,.093.778c.179.351.655.571,1.416.653a5.272,5.272,0,0,0,.569.035,2.616,2.616,0,0,0,.589-.06,1.345,1.345,0,0,0,.81-.488.679.679,0,0,0,.11-.495.267.267,0,0,0-.108-.184.424.424,0,0,0-.214-.048,1.025,1.025,0,0,0-.226.028.949.949,0,0,1-.219.028.629.629,0,0,1-.45-.181.671.671,0,0,1-.176-.58,2.2,2.2,0,0,1,.854-1.715c.126-.079.512-.319,3.031-.584a2.1,2.1,0,0,1,.236-.015,1.39,1.39,0,0,1,1.448,1.018,1.631,1.631,0,0,1-.2,1.02c-.171.354-.365.694-.56,1.035-.211.368-.422.735-.6,1.121a3.113,3.113,0,0,0-.308,2.053,1.536,1.536,0,0,1,.08.658c-.072.479-.455.817-1.137,1A2.337,2.337,0,0,1,152.581,16.526Z"/>
    <path class="cls-2" d="M152.1,2.614a5.265,5.265,0,0,1,2.041.445.628.628,0,0,1,.209.125.714.714,0,0,1,.146.318c.106.371-.27.616-.729.616a1.34,1.34,0,0,1-.361-.05,3.5,3.5,0,0,0-.939-.136,2.471,2.471,0,0,0-.885.155,4.143,4.143,0,0,0-1.941,2.128,13.921,13.921,0,0,0-1.993,5.1,1.951,1.951,0,0,0,.146,1.044,2.183,2.183,0,0,0,1.808.924,5.832,5.832,0,0,0,.624.038,3.123,3.123,0,0,0,.7-.073,1.854,1.854,0,0,0,1.106-.686,1,1,0,0,0-.141-1.393.892.892,0,0,0-.478-.123,1.52,1.52,0,0,0-.339.041.488.488,0,0,1-.107.016.13.13,0,0,1-.1-.034.2.2,0,0,1-.032-.169,1.736,1.736,0,0,1,.619-1.348,14.012,14.012,0,0,1,2.865-.516,1.251,1.251,0,0,1,.138-.008.917.917,0,0,1,.959.614,1.16,1.16,0,0,1-.158.707c-.355.738-.822,1.42-1.16,2.166a3.645,3.645,0,0,0-.335,2.387,1.14,1.14,0,0,1,.07.455c-.052.341-.441.5-.774.6a1.873,1.873,0,0,1-.479.079.635.635,0,0,1-.413-.129c-.281-.228-.243-.672-.434-.98a1.018,1.018,0,0,0-.867-.419h-.015a3.834,3.834,0,0,0-.97.186,5.313,5.313,0,0,1-1.342.195,2.552,2.552,0,0,1-1.472-.408,2.691,2.691,0,0,1-1.048-1.9,6.764,6.764,0,0,1,.183-2.217c.566-2.719,1.822-6.77,4.869-7.606a3.859,3.859,0,0,1,1.024-.134m0-1h0a4.866,4.866,0,0,0-1.288.169c-2.7.742-4.582,3.557-5.583,8.367a7.662,7.662,0,0,0-.2,2.547,3.67,3.67,0,0,0,1.473,2.6,3.525,3.525,0,0,0,2.039.584,6.292,6.292,0,0,0,1.6-.228l.136-.037a2.542,2.542,0,0,1,.577-.116.365.365,0,0,1,.049,0c.008.03.015.064.024.1a1.919,1.919,0,0,0,.612,1.074,1.623,1.623,0,0,0,1.043.353,2.821,2.821,0,0,0,.742-.114c1.107-.3,1.426-.933,1.5-1.409a1.865,1.865,0,0,0-.076-.8l-.015-.056a2.768,2.768,0,0,1,.279-1.72c.162-.357.362-.708.575-1.079.194-.34.4-.691.575-1.066a2.124,2.124,0,0,0,.239-1.334,1.881,1.881,0,0,0-1.94-1.422,2.256,2.256,0,0,0-.249.014c-2.671.281-3.083.537-3.282.661a2.7,2.7,0,0,0-1.085,2.087,1.157,1.157,0,0,0,.318.986,1.126,1.126,0,0,0,.8.328,1.287,1.287,0,0,0,.136-.007,1.064,1.064,0,0,1-.4.178,2.125,2.125,0,0,1-.476.047,4.8,4.8,0,0,1-.517-.032c-.646-.07-.953-.244-1.024-.383a1.025,1.025,0,0,1-.04-.511,11.4,11.4,0,0,1,1.6-4.182l.282-.529a3.343,3.343,0,0,1,1.413-1.66,1.476,1.476,0,0,1,.528-.089,2.489,2.489,0,0,1,.669.1,2.335,2.335,0,0,0,.631.087,1.8,1.8,0,0,0,1.466-.659,1.391,1.391,0,0,0,.224-1.232,1.638,1.638,0,0,0-.4-.744,1.581,1.581,0,0,0-.529-.343,6.289,6.289,0,0,0-2.433-.525Z"/>
  </g>
  <g>
    <path class="cls-1" d="M26.771,55.816a1.835,1.835,0,0,1-1.4-.905,10.912,10.912,0,0,0-2.536-2.281,3.677,3.677,0,0,0-1.2-.622v.2c0,.573,0,1.115,0,1.658a1.38,1.38,0,0,1-.949,1.434,1.113,1.113,0,0,1-.279.036,1.355,1.355,0,0,1-1.194-.935c-.06-.136-.127-.271-.193-.407a4.054,4.054,0,0,1-.46-1.265c-.252-1.889-.433-3.815-.606-5.677A2.538,2.538,0,0,1,19.732,44.4a5.837,5.837,0,0,1,2.463-.594,4.766,4.766,0,0,1,3.638,1.771,1.88,1.88,0,0,1,.034,2.659,2.951,2.951,0,0,1-1.693,1.125,4.49,4.49,0,0,0-.838.358l.5.329c.983.641,1.947,1.27,2.92,1.888a1.539,1.539,0,0,0,.291.122,1.943,1.943,0,0,1,.606.3,2.04,2.04,0,0,1,.7,1.619,1.882,1.882,0,0,1-.692,1.5,1.474,1.474,0,0,1-.9.335Zm-4.388-9.208a1.375,1.375,0,0,0-1.1.406.629.629,0,0,0,0,.423c.02.042.044.077.133.077a.436.436,0,0,0,.2-.053,2.823,2.823,0,0,1,.79-.25,1.192,1.192,0,0,0,.705-.286.861.861,0,0,0-.073-.16A1.136,1.136,0,0,0,22.383,46.609Z"/>
    <path class="cls-2" d="M22.195,44.311a4.246,4.246,0,0,1,3.261,1.6c.723.831.466,1.318-.01,2.061-.673,1.05-2.074.768-2.939,1.809,1.358.883,2.665,1.742,3.984,2.581a9.061,9.061,0,0,1,.852.391,1.6,1.6,0,0,1,.021,2.331.981.981,0,0,1-.594.233,1.39,1.39,0,0,1-1-.7,11.422,11.422,0,0,0-2.647-2.39,3.5,3.5,0,0,0-1.987-.787c0,.869.008,1.648,0,2.426a.91.91,0,0,1-.572.957.628.628,0,0,1-.156.02.9.9,0,0,1-.737-.635,6.147,6.147,0,0,1-.616-1.538c-.251-1.882-.428-3.775-.6-5.667-.1-1.114.52-1.687,1.493-2.142a5.324,5.324,0,0,1,2.25-.547m-.777,3.7a.93.93,0,0,0,.433-.113c.584-.314,1.438-.11,1.818-.932-.1-.195-.147-.449-.3-.576a1.571,1.571,0,0,0-.983-.285,1.8,1.8,0,0,0-1.537.666,1.1,1.1,0,0,0-.012.88.617.617,0,0,0,.583.36m.778-4.7h0a6.326,6.326,0,0,0-2.673.641,3.079,3.079,0,0,0-2.066,3.14c.173,1.861.352,3.786.609,5.707a4.532,4.532,0,0,0,.508,1.423c.063.128.127.255.183.383a1.83,1.83,0,0,0,1.652,1.234,1.632,1.632,0,0,0,.4-.052,1.859,1.859,0,0,0,1.324-1.911c.005-.366.007-.732.006-1.107.13.078.263.167.4.267a10.535,10.535,0,0,1,2.426,2.172,2.344,2.344,0,0,0,1.8,1.108,1.961,1.961,0,0,0,1.2-.437,2.378,2.378,0,0,0,.889-1.889,2.541,2.541,0,0,0-.889-2.015,2.409,2.409,0,0,0-.755-.385,1.813,1.813,0,0,1-.191-.074c-.875-.557-1.746-1.123-2.63-1.7a3.336,3.336,0,0,0,1.892-1.306,2.385,2.385,0,0,0-.078-3.258,5.253,5.253,0,0,0-4.016-1.943Z"/>
  </g>
  <g>
    <path class="cls-1" d="M14.98,55.964A2.394,2.394,0,0,1,12.7,54.5a12.73,12.73,0,0,1-.569-1.579c-.007-.023-.014-.046-.021-.069l-.221.188c-.562.479-1.093.931-1.619,1.39a5.656,5.656,0,0,1-2.821,1.29,6.758,6.758,0,0,1-1.182.106h0a3.711,3.711,0,0,1-3.427-1.616c-.62-1.167.322-4.136,1.625-5.124L5.1,48.6a13.436,13.436,0,0,1,4.822-2.739,6.213,6.213,0,0,1,1.542-.258,2.851,2.851,0,0,1,.557.053c2.566.51,3.072.847,2.6,3.252a6.872,6.872,0,0,0,.254,3.08l.054.208c.193.754.295,1.064.877,1.173a1.159,1.159,0,0,1,.8.541,1.22,1.22,0,0,1,.083,1.017,1.5,1.5,0,0,1-1.324,1.013A3.363,3.363,0,0,1,14.98,55.964Zm-4.571-7.54a1.326,1.326,0,0,0-.326.04A6.984,6.984,0,0,0,5.636,51.5c-.148.242-.371.7-.2,1.019.184.339.774.549,1.622.576a5.446,5.446,0,0,0,3.893-3.124c.06-.113.134-.228.21-.346.309-.475.333-.594.161-.8A1.183,1.183,0,0,0,10.409,48.424Z"/>
    <path class="cls-2" d="M11.465,46.1a2.347,2.347,0,0,1,.459.043c2.448.487,2.6.643,2.209,2.666a7.264,7.264,0,0,0,.26,3.305c.214.8.318,1.555,1.323,1.743a.649.649,0,0,1,.5.909,1.01,1.01,0,0,1-.908.673,2.868,2.868,0,0,1-.333.02,1.892,1.892,0,0,1-1.821-1.171,24.135,24.135,0,0,1-.8-2.306c-.87.745-1.648,1.4-2.414,2.068a5.182,5.182,0,0,1-2.58,1.174,6.287,6.287,0,0,1-1.095.1,3.263,3.263,0,0,1-2.986-1.351c-.493-.929.333-3.617,1.486-4.49,1.635-1.239,3.2-2.605,5.276-3.139a5.813,5.813,0,0,1,1.417-.242M7.045,53.59A5.937,5.937,0,0,0,11.4,50.2c.258-.494.862-1.043.311-1.7a1.68,1.68,0,0,0-1.3-.577,1.828,1.828,0,0,0-.45.056,7.485,7.485,0,0,0-4.747,3.255c-.805,1.312-.154,2.293,1.834,2.355m4.42-8.485a6.676,6.676,0,0,0-1.666.274,13.811,13.811,0,0,0-5,2.829c-.209.161-.418.323-.628.482C2.779,49.741,1.611,52.954,2.4,54.445a4.19,4.19,0,0,0,3.869,1.882,7.3,7.3,0,0,0,1.269-.114A6.142,6.142,0,0,0,10.6,54.808c.413-.36.83-.717,1.263-1.086a9.568,9.568,0,0,0,.384.99,2.872,2.872,0,0,0,2.729,1.752,3.869,3.869,0,0,0,.449-.027,2.009,2.009,0,0,0,1.742-1.352,1.712,1.712,0,0,0-.127-1.428,1.651,1.651,0,0,0-1.143-.778c-.248-.046-.293-.055-.485-.805l-.055-.213a6.424,6.424,0,0,1-.245-2.855c.534-2.733-.158-3.274-2.995-3.839a3.364,3.364,0,0,0-.654-.063ZM6.991,52.587c-.8-.039-1.081-.253-1.112-.31-.01-.018-.017-.191.185-.52a6.5,6.5,0,0,1,4.142-2.809.834.834,0,0,1,.2-.025.732.732,0,0,1,.49.174c-.041.076-.106.176-.154.25-.086.132-.168.261-.234.387a4.986,4.986,0,0,1-3.52,2.852Z"/>
  </g>
  <g>
    <path class="cls-1" d="M3.4,18.654c-.532,0-1.223-.282-1.486-1.625-.089-.449-.187-.9-.285-1.344A19.226,19.226,0,0,1,1,11.047,19.319,19.319,0,0,0,.736,7.885c-.06-.42-.118-.841-.167-1.262C.29,4.171.85,3.42,3.176,3.132c.249-.031.5-.076.545-.085a.5.5,0,0,1,.108-.012h.028a9.59,9.59,0,0,1,5.513,1.7c2.651,1.8,3.1,3.775,1.5,6.613-1.558,2.764-3.591,4.442-6.041,4.989a1.741,1.741,0,0,0-.2.056c.02.081.054.19.071.246a1.705,1.705,0,0,1-.128,1.376,1.291,1.291,0,0,1-.886.612,1.567,1.567,0,0,1-.285.027Zm.678-13.12a.927.927,0,0,0-.742.254,3.11,3.11,0,0,0-.377,2.143c.009.153.032.3.056.457l.031.216c.025.326.04.622.055.918A6.594,6.594,0,0,0,4,13.2c.395.566.63.683.86.683a1.587,1.587,0,0,0,.653-.194,7.463,7.463,0,0,0,2.906-2.721c1.12-1.647.969-2.727-.54-3.85a8.656,8.656,0,0,0-2.16-1.216A5.138,5.138,0,0,0,4.077,5.534Z"/>
    <path class="cls-2" d="M3.83,3.535h0m0,0A9.059,9.059,0,0,1,9.091,5.149C11.426,6.732,11.956,8.4,10.434,11.1a8.961,8.961,0,0,1-5.716,4.747c-.714.159-.669.4-.5.941a.977.977,0,0,1-.627,1.346,1.086,1.086,0,0,1-.2.019c-.632,0-.881-.634-1-1.221a26.914,26.914,0,0,1-.9-5.872,31.864,31.864,0,0,0-.436-4.495c-.244-2.132.075-2.678,2.171-2.938.283-.035.565-.087.59-.093M4.858,14.386a2.024,2.024,0,0,0,.872-.245,8.017,8.017,0,0,0,3.1-2.889c1.253-1.845,1.094-3.23-.656-4.531A9.187,9.187,0,0,0,5.888,5.436a5.537,5.537,0,0,0-1.811-.4c-1.261,0-1.726.93-1.619,2.923.013.239.059.476.091.714.125,1.651,0,3.326,1.038,4.819.406.582.773.9,1.271.9M3.83,2.535a1.041,1.041,0,0,0-.165.014l-.057.011c-.072.014-.282.05-.493.076C.194,3-.2,4.282.073,6.68c.049.427.109.854.168,1.281A18.538,18.538,0,0,1,.5,11.034a19.589,19.589,0,0,0,.636,4.756c.1.445.2.89.283,1.336.347,1.765,1.388,2.029,1.977,2.029a2.091,2.091,0,0,0,.375-.035A1.785,1.785,0,0,0,5,18.273a2.143,2.143,0,0,0,.244-1.523A9.967,9.967,0,0,0,11.3,11.594c1.712-3.036,1.187-5.347-1.653-7.272A10.07,10.07,0,0,0,3.874,2.536ZM4.858,13.386c-.057,0-.21-.123-.451-.468A6.14,6.14,0,0,1,3.6,9.5c-.015-.3-.029-.6-.052-.9,0-.019,0-.038-.006-.057L3.506,8.3c-.02-.133-.042-.265-.049-.4-.072-1.332.166-1.693.241-1.771.023-.024.093-.1.379-.1a4.671,4.671,0,0,1,1.469.341A8.167,8.167,0,0,1,7.579,7.523c1.3.964,1.4,1.734.425,3.167a7,7,0,0,1-2.713,2.553,1.1,1.1,0,0,1-.433.143Z"/>
  </g>
  <g>
    <path class="cls-1" d="M143.737,16.761a1.3,1.3,0,0,1-.98-.407,1.962,1.962,0,0,1-.375-1.542c.3-3.7-.161-8.159-1.207-8.362h0c-.137,0-.259.282-.34.469l-.055.127a15.83,15.83,0,0,0-.961,3.544c-.15.789-.306,1.6-.536,2.4a2.516,2.516,0,0,0-.069.36,1.887,1.887,0,0,1-.511,1.188c-.06.057-.117.119-.176.181a1.728,1.728,0,0,1-1.235.695,1.392,1.392,0,0,1-.52-.106,1.456,1.456,0,0,1-.778-1.647c.04-.752.077-1.631.117-2.579.252-5.971.351-6.693.634-6.976a1.557,1.557,0,0,1,1.093-.614,1.168,1.168,0,0,1,.493.115,1.262,1.262,0,0,1,.643,1.264c0,.224,0,.447,0,.679.255-.451.5-.868.754-1.274a1.814,1.814,0,0,1,1.517-1.025,3.214,3.214,0,0,1,1.769.785c1.8,1.292,2.017,4.939,2.208,8.156.057.948.109,1.844.2,2.539a1.848,1.848,0,0,1-.395,1.493,1.643,1.643,0,0,1-1.263.541Z"/>
    <path class="cls-2" d="M141.243,3.747a2.843,2.843,0,0,1,1.477.69c2.127,1.529,1.818,7.447,2.207,10.356a1.173,1.173,0,0,1-1.163,1.468h-.02c-.8-.01-.92-.715-.864-1.409.221-2.727.134-8.553-1.609-8.893a.761.761,0,0,0-.146-.015c-.463,0-.625.493-.806.9-.853,1.915-.944,4.022-1.521,6.006-.131.451-.062.958-.446,1.327-.323.311-.609.736-1.064.736a.892.892,0,0,1-.334-.07c-.555-.223-.484-.788-.46-1.243.143-2.695.313-8.854.6-9.143.217-.218.437-.467.739-.467a.661.661,0,0,1,.282.068c.333.155.352.5.354.815.007.758,0,1.516,0,2.589.668-1.171,1.137-2.069,1.677-2.922.355-.561.7-.792,1.094-.792m0-1h0a2.284,2.284,0,0,0-1.922,1.231,1.5,1.5,0,0,0-.783-.827,1.657,1.657,0,0,0-.7-.162,1.947,1.947,0,0,0-1.4.713l-.048.048c-.405.407-.5.723-.779,7.328-.04.939-.076,1.807-.111,2.467l0,.082a1.953,1.953,0,0,0,1.091,2.143,1.892,1.892,0,0,0,.707.142,2.2,2.2,0,0,0,1.6-.851c.053-.056.106-.112.16-.164a2.37,2.37,0,0,0,.658-1.475,2.253,2.253,0,0,1,.054-.293c.238-.818.4-1.646.549-2.447a15.467,15.467,0,0,1,.926-3.431l.022-.05c.527,1,.9,4.269.628,7.572a2.423,2.423,0,0,0,.5,1.919,1.784,1.784,0,0,0,1.345.571h0a2.156,2.156,0,0,0,1.671-.712,2.345,2.345,0,0,0,.515-1.889c-.091-.678-.144-1.565-.2-2.5-.2-3.328-.424-7.1-2.415-8.531a3.622,3.622,0,0,0-2.061-.878Z"/>
  </g>
  <g>
    <path class="cls-1" d="M140.695,55.99a1.779,1.779,0,0,1-.295-.025,1.317,1.317,0,0,1-.884-.534,1.817,1.817,0,0,1-.242-1.368,12.732,12.732,0,0,0-.483-5.439c-.037-.145-.065-.305-.095-.47-.134-.767-.231-.994-.615-1.023h0c-.439,0-.684.345-1.04.912-.072.116-.145.231-.219.34a15.442,15.442,0,0,0-1.668,3.552c-.113.315-.232.627-.353.94-.107.282-.215.563-.318.847a1.668,1.668,0,0,1-1.6,1.234c-.053,0-.106,0-.161-.007a1.567,1.567,0,0,1-1.4-1.693,17.7,17.7,0,0,1,.527-4.832c.076-.3.181-.6.287-.9a3.116,3.116,0,0,0,.258-2.052,1.164,1.164,0,0,1,.133-1.035,1.758,1.758,0,0,1,1.308-.647c.05,0,.1-.005.141-.005,1.115,0,1.135,1.009,1.144,1.439l.006.207a5.458,5.458,0,0,1-.1,1.27,12.566,12.566,0,0,1,2.049-2.175,2.693,2.693,0,0,1,1.63-.673,1.924,1.924,0,0,1,1.771,1.389A20,20,0,0,1,142.11,54.3c-.051,1.06-.58,1.693-1.415,1.693Z"/>
    <path class="cls-2" d="M133.97,44.287c.725,0,.621.641.65,1.174a13.672,13.672,0,0,1-.54,3.233,24.889,24.889,0,0,1,3.3-3.772,2.228,2.228,0,0,1,1.321-.566c.537,0,.992.349,1.313,1.088a19.5,19.5,0,0,1,1.6,8.828c-.031.621-.248,1.218-.916,1.218a1.319,1.319,0,0,1-.215-.019c-.665-.11-.814-.742-.713-1.323a13.393,13.393,0,0,0-.492-5.648c-.179-.7-.132-1.79-1.157-1.867-.032,0-.064,0-.095,0-.825,0-1.189.838-1.62,1.473a16.086,16.086,0,0,0-1.725,3.663c-.215.6-.453,1.188-.67,1.786a1.187,1.187,0,0,1-1.131.9c-.038,0-.078,0-.118-.005a1.1,1.1,0,0,1-.942-1.211,17.151,17.151,0,0,1,.513-4.7c.262-1.053.906-2.015.538-3.216-.211-.691.444-1,1-1.038.036,0,.071,0,.1,0m0-1h0c-.056,0-.115,0-.178.007a2.189,2.189,0,0,0-1.683.863,1.676,1.676,0,0,0-.2,1.464,2.675,2.675,0,0,1-.251,1.735,9.9,9.9,0,0,0-.3.946,18.207,18.207,0,0,0-.542,4.968,2.059,2.059,0,0,0,1.859,2.177c.069.006.136.008.2.008a2.164,2.164,0,0,0,2.071-1.563c.1-.279.207-.556.313-.833.122-.318.243-.636.358-.956a15.051,15.051,0,0,1,1.612-3.44c.077-.113.152-.232.227-.353.17-.271.428-.681.565-.681l.035,0a3.045,3.045,0,0,1,.146.606c.031.178.063.351.1.508a12.314,12.314,0,0,1,.476,5.23,2.3,2.3,0,0,0,.327,1.743,1.806,1.806,0,0,0,1.209.738,2.321,2.321,0,0,0,.377.032c.874,0,1.836-.57,1.915-2.169a20.519,20.519,0,0,0-1.678-9.277,2.411,2.411,0,0,0-2.23-1.689,3.173,3.173,0,0,0-1.939.78,9.456,9.456,0,0,0-1.15,1.084h0c-.03-1.6-.91-1.931-1.643-1.931Z"/>
  </g>
  <g>
    <path class="cls-1" d="M145.015,57.692a1.674,1.674,0,0,1-1.52-.832,2.077,2.077,0,0,1,.273-2.285,1.432,1.432,0,0,1,1.175-.785,1.182,1.182,0,0,1,1.008.638c.2.32.372.347.519.347a2.535,2.535,0,0,0,.646-.134l.171-.049a18.223,18.223,0,0,0,2.4-.868c.613-.269.982-.6,1.014-.908s-.253-.686-.78-1.06A24.5,24.5,0,0,0,144.784,49l-.116-.046c-1.061-.42-2.514-1-2.451-2.589.055-1.41,1.521-2.094,2.4-2.5.185-.086.366-.186.553-.288a5.182,5.182,0,0,1,2.7-.812c.13,0,.264,0,.4.016a9.534,9.534,0,0,1,2.332.911,1.2,1.2,0,0,1,.693,1.332,1.34,1.34,0,0,1-1.313,1.092,5.756,5.756,0,0,1-1.36-.252l-.485-.134a3.431,3.431,0,0,0-.912-.181,1.146,1.146,0,0,0-.379.062c-.116.041-.237.077-.36.113-.671.2-.871.309-.9.653-.021.219.032.292.593.514a4.627,4.627,0,0,1,.432.188c.476.247.963.477,1.449.706a13.09,13.09,0,0,1,4.726,3.156,3.079,3.079,0,0,1,.958,2.254,2.722,2.722,0,0,1-1.43,1.793,18.475,18.475,0,0,1-6.572,2.62A3.64,3.64,0,0,1,145.015,57.692Z"/>
    <path class="cls-2" d="M147.868,43.264q.177,0,.366.014a10.047,10.047,0,0,1,2.153.863.7.7,0,0,1,.421.78.84.84,0,0,1-.824.693h-.036a6.553,6.553,0,0,1-1.4-.289,5.255,5.255,0,0,0-1.327-.278,1.638,1.638,0,0,0-.543.089c-.657.228-1.516.313-1.6,1.193-.075.823.75.91,1.292,1.192,2.1,1.093,4.419,1.847,6.023,3.742,1.214,1.434,1.179,2.284-.366,3.308a18.127,18.127,0,0,1-6.4,2.547,3.1,3.1,0,0,1-.623.075,1.176,1.176,0,0,1-1.091-.589c-.4-.669-.038-1.256.28-1.779a.963.963,0,0,1,.74-.534.708.708,0,0,1,.583.4,1.056,1.056,0,0,0,.942.583,3.71,3.71,0,0,0,.953-.2,18.723,18.723,0,0,0,2.464-.892c1.6-.7,1.778-1.8.322-2.833a24.946,24.946,0,0,0-5.24-2.812c-1.065-.424-2.3-.865-2.252-2.151.042-1.07,1.209-1.649,2.108-2.068a6.223,6.223,0,0,1,3.044-1.053m0-1h0a5.683,5.683,0,0,0-2.944.873c-.176.1-.348.191-.522.273-.915.426-2.618,1.219-2.685,2.936-.076,1.947,1.7,2.652,2.767,3.074l.114.045a23.985,23.985,0,0,1,5.031,2.7c.45.32.567.551.573.607h0s-.1.226-.717.5a17.778,17.778,0,0,1-2.332.844l-.177.051a2.4,2.4,0,0,1-.507.115h0c-.007,0-.041-.029-.093-.113a1.664,1.664,0,0,0-1.432-.874A1.9,1.9,0,0,0,143.35,54.3a2.567,2.567,0,0,0-.283,2.813,2.153,2.153,0,0,0,1.949,1.076,4.109,4.109,0,0,0,.826-.1,18.946,18.946,0,0,0,6.747-2.692,3.326,3.326,0,0,0,1.649-2.14,3.507,3.507,0,0,0-1.072-2.648,13.47,13.47,0,0,0-4.894-3.286c-.481-.227-.961-.453-1.432-.7a5.163,5.163,0,0,0-.477-.209c-.051-.02-.113-.045-.172-.069a3.167,3.167,0,0,1,.439-.154c.13-.039.259-.077.382-.12a.64.64,0,0,1,.216-.034,3.134,3.134,0,0,1,.773.161c.1.028.2.057.3.083l.195.053a6.293,6.293,0,0,0,1.419.269l.076,0a1.836,1.836,0,0,0,1.8-1.492,1.7,1.7,0,0,0-.967-1.883,9.7,9.7,0,0,0-2.463-.954c-.2-.016-.348-.022-.49-.022Z"/>
  </g>
  <g>
    <path class="cls-1" d="M62.637,55.1a1.343,1.343,0,0,1-.332-.043A1.48,1.48,0,0,1,61.08,53.51a9.061,9.061,0,0,0-.123-2.056,8.029,8.029,0,0,1-.021-2.956,4.813,4.813,0,0,0-.1-2.149,1.2,1.2,0,0,1,.152-.941,1.559,1.559,0,0,1,1.05-.625,1.537,1.537,0,0,1,.285-.028,1.239,1.239,0,0,1,1.217,1.334c.024.831.02,1.662.014,2.492V48.9l.365-.49c.547-.731,1.094-1.463,1.634-2.2a4.492,4.492,0,0,1,1.537-1.443,4.445,4.445,0,0,1,2.006-.613c1.514,0,2.066,1.421,2.352,2.49a8.187,8.187,0,0,1,.323,3.727,3.491,3.491,0,0,0,.262,1.78c.058.177.114.354.165.533a1.726,1.726,0,0,1-.087,1.468,1.407,1.407,0,0,1-1.059.58,2.914,2.914,0,0,1-.357.024,1.494,1.494,0,0,1-1.148-.44A1.668,1.668,0,0,1,69.182,53a23.306,23.306,0,0,0-.1-3.7q-.04-.489-.075-.978c-.064-.923-.394-1.178-.673-1.3A.324.324,0,0,0,68.2,47c-.254,0-.574.327-.809.566l-.123.124a12.067,12.067,0,0,0-2.345,4.053c-.118.282-.2.49-.284.7-.212.53-.431,1.078-.7,1.6C63.736,54.437,63.4,55.1,62.637,55.1Z"/>
    <path class="cls-2" d="M69.1,44.653c.914,0,1.484.674,1.868,2.119a7.653,7.653,0,0,1,.316,3.5,5.239,5.239,0,0,0,.437,2.549c.2.695.158,1.3-.728,1.415a2.33,2.33,0,0,1-.3.02c-.692,0-1.082-.373-1.017-1.218a32.216,32.216,0,0,0-.178-4.748,1.807,1.807,0,0,0-.977-1.722A.828.828,0,0,0,68.2,46.5c-.526,0-.966.52-1.283.834a12.6,12.6,0,0,0-2.486,4.292c-.307.733-.574,1.485-.937,2.189-.179.348-.4.782-.856.782a.84.84,0,0,1-.208-.028,1,1,0,0,1-.851-1.011c.155-1.656-.543-3.271-.154-4.946a5.408,5.408,0,0,0-.095-2.37c-.132-.6.334-.877.809-.968a1.009,1.009,0,0,1,.19-.019c.467,0,.7.378.717.85.034,1.167.011,2.336.011,3.5l.509.117c.8-1.073,1.6-2.142,2.4-3.22a4.007,4.007,0,0,1,1.364-1.295,4.05,4.05,0,0,1,1.776-.557m0-1h0a5.136,5.136,0,0,0-3.946,2.26q-.542.739-1.091,1.473c0-.436-.006-.874-.019-1.311a1.73,1.73,0,0,0-1.716-1.821,2.016,2.016,0,0,0-.379.037,2.04,2.04,0,0,0-1.373.841,1.685,1.685,0,0,0-.224,1.324,4.362,4.362,0,0,1,.1,1.928,8.4,8.4,0,0,0,.012,3.137,8.73,8.73,0,0,1,.121,1.942,1.987,1.987,0,0,0,1.6,2.074,1.844,1.844,0,0,0,.456.059,2.033,2.033,0,0,0,1.745-1.323c.279-.542.5-1.1.716-1.635.084-.209.167-.419.254-.626l.033-.078a11.516,11.516,0,0,1,2.234-3.889l.129-.13a3.016,3.016,0,0,1,.445-.4c.108.063.269.231.311.843.023.328.049.656.075.984a22.948,22.948,0,0,1,.1,3.617,2.146,2.146,0,0,0,.5,1.694,1.977,1.977,0,0,0,1.515.6,3.331,3.331,0,0,0,.422-.028,1.883,1.883,0,0,0,1.412-.8,2.286,2.286,0,0,0,.151-1.88c-.053-.185-.112-.368-.171-.551a3.045,3.045,0,0,1-.247-1.526,8.614,8.614,0,0,0-.33-3.954c-.188-.708-.761-2.862-2.835-2.862Z"/>
  </g>
  <g>
    <path class="cls-1" d="M16.076,36.971c-.428,0-1.173-.2-1.363-1.526l-.134-.995a21.8,21.8,0,0,0-.858-4.294c-.047-.135-.087-.274-.128-.414-.2-.7-.324-.975-.775-1.032a2.113,2.113,0,0,0-.273-.018,2,2,0,0,0-1.662,1.021,11.2,11.2,0,0,0-1.508,3.83l-.146.557a4.488,4.488,0,0,1-1.083,2.254,1.48,1.48,0,0,1-1.036.425,1.2,1.2,0,0,1-1.257-1.163c-.043-2.281-.029-4.7.041-7.186a1.574,1.574,0,0,1,1.585-1.436.487.487,0,0,1,.06,0,.5.5,0,0,1,.416.223,3.315,3.315,0,0,1,.429,2.038,6.512,6.512,0,0,0,.013.721,4.828,4.828,0,0,0,.312-.586,5.686,5.686,0,0,1,.353-.658A6,6,0,0,1,10.584,27a4.948,4.948,0,0,1,2.74-1.123c1.662,0,2.47,1.589,2.933,2.784a9.819,9.819,0,0,1,.766,3.678,2.7,2.7,0,0,0,.459,1.92,1.6,1.6,0,0,1,.336,1.479,1.915,1.915,0,0,1-1.741,1.236Z"/>
    <path class="cls-2" d="M13.323,26.374c1.045,0,1.824.8,2.468,2.465a9.439,9.439,0,0,1,.731,3.493,3.169,3.169,0,0,0,.568,2.236,1.112,1.112,0,0,1-.625,1.834,1.251,1.251,0,0,1-.389.069c-.619,0-.8-.63-.868-1.1a28.7,28.7,0,0,0-1.015-5.38c-.259-.754-.327-1.654-1.313-1.78a2.661,2.661,0,0,0-.336-.022,2.489,2.489,0,0,0-2.07,1.232,13.023,13.023,0,0,0-1.7,4.429A4.325,4.325,0,0,1,7.8,36a.986.986,0,0,1-.688.284.7.7,0,0,1-.757-.672c-.045-2.387-.026-4.776.041-7.162.013-.449.384-.863,1.145-.954.7,1.049.031,2.245.589,3.4.8-.417.947-1.27,1.35-1.885a5.567,5.567,0,0,1,1.4-1.6,4.5,4.5,0,0,1,2.45-1.031m0-1v0a5.33,5.33,0,0,0-3.03,1.216,5.88,5.88,0,0,0-1.458,1.571,2.988,2.988,0,0,0-.465-1.225,1,1,0,0,0-.952-.439,2.076,2.076,0,0,0-2.025,1.919c-.07,2.5-.084,4.927-.041,7.209a1.691,1.691,0,0,0,1.757,1.653,1.977,1.977,0,0,0,1.385-.567,4.95,4.95,0,0,0,1.217-2.483l.032-.121.115-.44A10.838,10.838,0,0,1,11.289,30c.506-.714.918-.81,1.255-.81a1.663,1.663,0,0,1,.21.014c.122.016.168.021.358.676.043.147.086.294.135.437a21.388,21.388,0,0,1,.836,4.2c.044.333.088.666.135,1,.258,1.816,1.488,1.957,1.858,1.957a2.414,2.414,0,0,0,2.22-1.592,2.114,2.114,0,0,0-.424-1.934,2.244,2.244,0,0,1-.35-1.605,10.307,10.307,0,0,0-.8-3.862c-.3-.767-1.2-3.1-3.4-3.1Z"/>
  </g>
  <g>
    <path class="cls-1" d="M117.262,14.1c-.75,0-1.244-.688-1.591-1.287a8.744,8.744,0,0,1-.933-3.9,14.127,14.127,0,0,0-.256-2.041l-.082-.348a5.787,5.787,0,0,1-.181-2.8,8.008,8.008,0,0,0-.951-.054,18.53,18.53,0,0,0-1.972.14,1.548,1.548,0,0,1-.163.009,1.053,1.053,0,0,1-1.084-.864,1.315,1.315,0,0,1,.4-1.354,2.816,2.816,0,0,1,1.864-.639Q113.9.943,115.49.911c2.12-.041,4.24-.082,6.361-.09a4.435,4.435,0,0,1,2.322.606,1.44,1.44,0,0,1,.684,1.507,1.045,1.045,0,0,1-1.122.943,2.512,2.512,0,0,1-.359-.03l-.766-.114a22.829,22.829,0,0,0-3.446-.349c-.22,0-.44.006-.662.021-1.31.083-1.31.083-1.286,1.316.019,1.008.119,2.04.216,3.039.068.7.136,1.4.179,2.1s.429,1.02,1.586,1.26a.5.5,0,0,1,.334.735c-.108.193-.2.363-.274.517a4.093,4.093,0,0,1-.5.822,2.157,2.157,0,0,1-1.489.912Z"/>
    <path class="cls-2" d="M121.872,1.321a3.9,3.9,0,0,1,2.041.533.94.94,0,0,1,.448,1.013.551.551,0,0,1-.627.51,2.037,2.037,0,0,1-.288-.024,29.97,29.97,0,0,0-4.284-.468c-.23,0-.461.007-.693.021-1.589.1-1.785.187-1.755,1.825.032,1.721.29,3.437.4,5.158.073,1.184.976,1.51,1.984,1.719a8.944,8.944,0,0,1-.723,1.259c-.423.495-.779.737-1.11.737-.4,0-.762-.352-1.158-1.038-1.05-1.814-.7-3.877-1.133-5.8a5.164,5.164,0,0,1-.085-3.434,7.931,7.931,0,0,0-1.616-.156,18.913,18.913,0,0,0-2.026.143,1.025,1.025,0,0,1-.109.006.559.559,0,0,1-.6-.474.827.827,0,0,1,.235-.865,2.34,2.34,0,0,1,1.548-.519c3.177-.049,6.355-.134,9.532-.146h.02m0-1h-.024c-2.117.008-4.267.05-6.346.089q-1.6.031-3.2.057a3.3,3.3,0,0,0-2.182.759,1.819,1.819,0,0,0-.561,1.844,1.561,1.561,0,0,0,1.572,1.255,2.028,2.028,0,0,0,.216-.012,18.131,18.131,0,0,1,1.919-.137q.187,0,.366.008a7.289,7.289,0,0,0,.28,2.462l.08.342a13.72,13.72,0,0,1,.245,1.969,9.135,9.135,0,0,0,1,4.111c.243.42.889,1.537,2.024,1.537a2.6,2.6,0,0,0,1.87-1.087,4.538,4.538,0,0,0,.566-.915c.076-.149.162-.315.268-.5a1,1,0,0,0-.668-1.47c-1.155-.24-1.17-.487-1.189-.8-.044-.712-.113-1.426-.18-2.116-.1-1.035-.2-2.012-.214-3a5.946,5.946,0,0,1,.017-.732c.213-.039.6-.063.8-.076s.421-.019.63-.019a22.505,22.505,0,0,1,3.372.343c.256.039.512.078.769.115a3.049,3.049,0,0,0,.431.035A1.546,1.546,0,0,0,125.352,3a1.937,1.937,0,0,0-.918-2,4.913,4.913,0,0,0-2.562-.679Z"/>
  </g>
  <g>
    <path class="cls-1" d="M66.709,13.351a4.856,4.856,0,0,1-1.768-.278,2.028,2.028,0,0,1-1.431-1.493,2.067,2.067,0,0,1,1-1.853,4.466,4.466,0,0,1,.982-.524c.127-.054.254-.108.377-.168a3.484,3.484,0,0,1,.365-.165l-.542-.218a19.364,19.364,0,0,1-2.474-1.13A2.5,2.5,0,0,1,61.9,5.551,2.133,2.133,0,0,1,62.8,3.7a12.545,12.545,0,0,1,6.15-2.418,2.21,2.21,0,0,1,.26-.016,1.089,1.089,0,0,1,1.2.993,1.187,1.187,0,0,1-.3.921,1.249,1.249,0,0,1-.924.4,7.047,7.047,0,0,0-3.571,1.1c-.626.361-.694.528-.7.546h0a2.624,2.624,0,0,0,.769.521,12.822,12.822,0,0,0,1.647.685c.318.116.637.232.949.359a21.12,21.12,0,0,1,3.685,1.879,2.123,2.123,0,0,1,1.092,1.356,1.83,1.83,0,0,1-.608,1.4c-1.095,1.188-3.833,1.924-5.742,1.924Zm.363-2.545c.255.017.508.033.761.033a2.692,2.692,0,0,0,1.549-.4,8.09,8.09,0,0,0-1.858-1.024,1.081,1.081,0,0,1-.318,1.238C67.168,10.694,67.088,10.787,67.072,10.806Z"/>
    <path class="cls-2" d="M69.214,1.77c.32,0,.661.1.7.539a.7.7,0,0,1-.726.776H69.18a7.563,7.563,0,0,0-3.813,1.168c-1.282.739-1.274,1.22.085,1.941.834.442,1.762.705,2.641,1.065a20.731,20.731,0,0,1,3.6,1.834c1.023.674,1.144,1.181.391,2-.937,1.016-3.455,1.762-5.375,1.762a4.418,4.418,0,0,1-1.583-.243c-1.37-.544-1.515-1.567-.313-2.483a7.219,7.219,0,0,1,1.273-.639A1.3,1.3,0,0,1,66.6,9.3a.455.455,0,0,1,.339.161c.419.44-.005.712-.234,1a.62.62,0,0,0-.118.818c.416.022.83.063,1.241.063a3.086,3.086,0,0,0,2.323-.88,9.461,9.461,0,0,0-3.2-1.828A33.667,33.667,0,0,1,63.467,7.09,1.732,1.732,0,0,1,63.1,4.1a12.1,12.1,0,0,1,5.908-2.322,1.794,1.794,0,0,1,.2-.012m0-1A2.8,2.8,0,0,0,68.9.789,13.043,13.043,0,0,0,62.506,3.3a2.625,2.625,0,0,0-1.1,2.279,2.992,2.992,0,0,0,1.565,2.375,16.357,16.357,0,0,0,1.985.938,3.935,3.935,0,0,0-.747.436,2.476,2.476,0,0,0-1.191,2.319,2.44,2.44,0,0,0,1.742,1.889,5.337,5.337,0,0,0,1.952.313c2.059,0,4.907-.78,6.11-2.084a2.283,2.283,0,0,0,.737-1.8,2.554,2.554,0,0,0-1.313-1.713,21.566,21.566,0,0,0-3.771-1.924c-.319-.13-.644-.249-.969-.367a12.541,12.541,0,0,1-1.583-.656c-.073-.039-.138-.075-.195-.108l.14-.083A6.484,6.484,0,0,1,69.18,4.084a1.757,1.757,0,0,0,1.3-.563,1.681,1.681,0,0,0,.429-1.3A1.574,1.574,0,0,0,69.214.77Zm-1.2,9.566q.026-.063.046-.124.1.051.2.105c-.081.01-.164.015-.25.019Z"/>
  </g>
  <g>
    <path class="cls-1" d="M102.794,34.35a3.921,3.921,0,0,1-3.167-1.56,5.209,5.209,0,0,1-.024-5.945,3.247,3.247,0,0,1,.258-.306,1.861,1.861,0,0,0,.193-.229,1.742,1.742,0,0,1,1.326-.911,1.315,1.315,0,0,1,.741.246c.989.669.4,1.568.153,1.952l-.105.164a3.142,3.142,0,0,1-.194.273,1.284,1.284,0,0,0-.166.249,2.574,2.574,0,0,0,.165,2.859,1.406,1.406,0,0,0,1.161.6,2.786,2.786,0,0,0,2.635-2.4l.014-.178a6,6,0,0,0-.018-1.6,2.236,2.236,0,0,1,.374-2.027,3.094,3.094,0,0,1,1.806-.893.5.5,0,0,1,.6.428l.156,1.216c.125.96.247,1.9.344,2.845a3.328,3.328,0,0,0,.81,1.66c.226.3.4.335.548.335a1.73,1.73,0,0,0,.727-.229,1.03,1.03,0,0,1,.47-.111,1.367,1.367,0,0,1,1.191.83,1.161,1.161,0,0,1-.6,1.49,3.2,3.2,0,0,1-4.179-.091,2.4,2.4,0,0,1-.393-.411,1.279,1.279,0,0,0-.36-.349l-.18.18a5.484,5.484,0,0,1-1.906,1.4A6.576,6.576,0,0,1,102.794,34.35Z"/>
    <path class="cls-2" d="M108.046,25.14c.174,1.386.363,2.716.5,4.05a3.772,3.772,0,0,0,.909,1.913,1.155,1.155,0,0,0,.945.531,2.2,2.2,0,0,0,.95-.283.545.545,0,0,1,.246-.058.876.876,0,0,1,.736.537c.217.477-.2.706-.512.928a2.854,2.854,0,0,1-1.66.587,3,3,0,0,1-1.845-.719c-.364-.283-.514-.817-1.2-.928a6.785,6.785,0,0,1-2.131,1.68,6.137,6.137,0,0,1-2.2.471,3.411,3.411,0,0,1-2.777-1.374,4.687,4.687,0,0,1-.007-5.341c.138-.194.33-.351.46-.549.244-.368.541-.686.909-.686a.821.821,0,0,1,.461.16c.665.45.186.976-.1,1.442a4.463,4.463,0,0,0-.4.6,3.084,3.084,0,0,0,.237,3.357,1.908,1.908,0,0,0,1.553.788,3.285,3.285,0,0,0,3.134-2.862,7.056,7.056,0,0,0-.014-1.912c-.3-1.449.411-2.041,1.792-2.328m0-1a1,1,0,0,0-.2.021,3.546,3.546,0,0,0-2.083,1.056,2.737,2.737,0,0,0-.485,2.455,5.515,5.515,0,0,1,.009,1.451l-.014.186a1.968,1.968,0,0,1-1.445,1.786,2.014,2.014,0,0,1-.691.148.907.907,0,0,1-.77-.41c-.5-.634-.529-1.274-.092-2.362a1.477,1.477,0,0,1,.1-.129,3.641,3.641,0,0,0,.225-.318c.03-.049.063-.1.1-.151.915-1.4.347-2.21-.291-2.641a1.806,1.806,0,0,0-1.022-.331,2.124,2.124,0,0,0-1.743,1.135,1.368,1.368,0,0,1-.143.166,3.693,3.693,0,0,0-.3.354,5.658,5.658,0,0,0,.042,6.549,4.4,4.4,0,0,0,3.556,1.746,7.057,7.057,0,0,0,2.558-.538,5.562,5.562,0,0,0,1.909-1.345,2.722,2.722,0,0,0,.442.45,3.984,3.984,0,0,0,2.459.929,3.842,3.842,0,0,0,2.238-.771l.072-.05a1.594,1.594,0,0,0,.772-2.108,1.872,1.872,0,0,0-1.646-1.124,1.537,1.537,0,0,0-.695.164,1.294,1.294,0,0,1-.5.177c-.012,0-.062-.022-.15-.139a2.817,2.817,0,0,1-.708-1.408c-.1-.951-.218-1.875-.345-2.853q-.079-.6-.157-1.219a1,1,0,0,0-.992-.876Z"/>
  </g>
  <g>
    <path class="cls-1" d="M76.8,12.507a5.1,5.1,0,0,1-2.446-.6A3.369,3.369,0,0,1,72.6,8.12c.68-2.288,1.774-4.436,5.155-4.664.592-.04.821-.082,1.072-.4A1.5,1.5,0,0,1,80.009,2.4a1.866,1.866,0,0,1,1.363.756A5.665,5.665,0,0,1,82.773,7c-.018,3.246-3.164,5.506-5.976,5.506Zm-.242-5.874c-.412,0-.865.121-1.113,1.013a1.661,1.661,0,0,0,.236,1.482,2.031,2.031,0,0,0,1.654.718l.143,0a2.812,2.812,0,0,0,2.271-1.067,3.617,3.617,0,0,0,.415-2.711c-.6.575-1,.613-2.335.625h-.006c-.289,0-.53-.015-.771-.03-.143-.009-.284-.019-.426-.024l-.068-.5Z"/>
    <path class="cls-2" d="M80.009,2.9A1.424,1.424,0,0,1,81,3.481,5.16,5.16,0,0,1,82.274,7c-.016,2.807-2.755,5.005-5.477,5.005a4.628,4.628,0,0,1-2.209-.545,2.874,2.874,0,0,1-1.511-3.2c.638-2.15,1.572-4.1,4.709-4.307a1.67,1.67,0,0,0,1.431-.59,1.028,1.028,0,0,1,.793-.471M77.775,6.189c-.378,0-.756-.039-1.133-.054l-.088,0a1.6,1.6,0,0,0-1.595,1.379,2.221,2.221,0,0,0,2.373,2.834q.083,0,.167,0c2.7-.13,3.853-2.224,2.932-5.306-.994,1.134-.994,1.139-2.61,1.152h-.045M80.009,1.9a1.981,1.981,0,0,0-1.578.851c-.11.139-.136.172-.713.211-4.194.282-5.144,3.482-5.6,5.02a3.875,3.875,0,0,0,2,4.365,5.593,5.593,0,0,0,2.683.665c3.433,0,6.459-2.8,6.477-6a6.165,6.165,0,0,0-1.525-4.187A2.337,2.337,0,0,0,80.009,1.9ZM77.775,7.189h.054a5.048,5.048,0,0,0,1.914-.233,2.591,2.591,0,0,1-.406,1.531,2.3,2.3,0,0,1-1.886.857l-.119,0a1.543,1.543,0,0,1-1.257-.521,1.158,1.158,0,0,1-.152-1.046c.179-.646.419-.646.631-.646.185.006.321.015.458.024.255.016.509.032.764.032Z"/>
  </g>
  <g>
    <path class="cls-1" d="M50.936,54.751A3.011,3.011,0,0,1,48.648,53.5,23.626,23.626,0,0,1,45.735,48.8c-.261-.506-.521-1.013-.793-1.512a2.011,2.011,0,0,1-.23-1.646,1.483,1.483,0,0,1,.93-.866,1.648,1.648,0,0,1,.571-.111c.973,0,1.328,1.013,1.445,1.345.154.441.333.873.511,1.305.155.375.31.749.449,1.129a6.7,6.7,0,0,0,1.866,2.731c.367.325.585.36.662.36.221,0,.35-.422.394-.784a12.834,12.834,0,0,0-.2-4.074,2.613,2.613,0,0,0-.078-.271,1.91,1.91,0,0,1-.131-.794,1.6,1.6,0,0,1,1.651-1.591l.122,0a1.434,1.434,0,0,1,1.124.531,1.41,1.41,0,0,1,.217,1.2,4.607,4.607,0,0,0-.047,1.594,17.974,17.974,0,0,1-.226,4.745,3.015,3.015,0,0,1-2.32,2.555,2.749,2.749,0,0,1-.72.1Z"/>
    <path class="cls-2" d="M52.786,44.518l.1,0a.853.853,0,0,1,.879,1.13,5.089,5.089,0,0,0-.049,1.8,17.477,17.477,0,0,1-.228,4.566,2.5,2.5,0,0,1-1.959,2.155,2.227,2.227,0,0,1-.587.082,2.542,2.542,0,0,1-1.908-1.072,33.791,33.791,0,0,1-3.647-6.134c-.334-.614-.49-1.459.435-1.8a1.137,1.137,0,0,1,.4-.079c.51,0,.781.461.974,1.011.289.825.66,1.621.963,2.441a7.218,7.218,0,0,0,2,2.933,1.6,1.6,0,0,0,.994.486c.467,0,.793-.424.89-1.224a13.251,13.251,0,0,0-.2-4.234,3.369,3.369,0,0,1-.2-.915,1.106,1.106,0,0,1,1.155-1.142m0-1a2.084,2.084,0,0,0-2.15,2.041,2.375,2.375,0,0,0,.153,1,2.005,2.005,0,0,1,.064.217,12.312,12.312,0,0,1,.189,3.916,1.916,1.916,0,0,1-.046.252,1.964,1.964,0,0,1-.182-.144,6.212,6.212,0,0,1-1.728-2.53c-.142-.386-.3-.767-.456-1.148-.182-.44-.353-.855-.5-1.279-.391-1.115-1.036-1.681-1.918-1.681a2.136,2.136,0,0,0-.745.142,1.968,1.968,0,0,0-1.224,1.159,2.5,2.5,0,0,0,.261,2.06c.27.5.529,1,.788,1.5a23.986,23.986,0,0,0,2.978,4.8,3.473,3.473,0,0,0,2.668,1.422,3.24,3.24,0,0,0,.85-.118,3.487,3.487,0,0,0,2.683-2.955,18.485,18.485,0,0,0,.239-4.808.977.977,0,0,0-.015-.113,4.116,4.116,0,0,1,.045-1.4,1.938,1.938,0,0,0-.31-1.614,1.96,1.96,0,0,0-1.494-.725c-.05,0-.1,0-.148,0Z"/>
  </g>
  <g>
    <path class="cls-1" d="M78,55.291a4.69,4.69,0,0,1-3.966-1.864,4.59,4.59,0,0,1-.354-4.332,12.365,12.365,0,0,1,5.171-5.849,2.037,2.037,0,0,1,1.088-.41,1.268,1.268,0,0,1,.493.1,1.379,1.379,0,0,1,.912.934,1.034,1.034,0,0,1-.354.957,6.712,6.712,0,0,1-1.166.857c-.217.136-.434.272-.638.422-2.083,1.533-2.924,3.009-2.812,4.935.082,1.4.364,1.695,1.682,1.755l.2.009c.269.013.537.026.806.026a3.424,3.424,0,0,0,1.771-.383,2.32,2.32,0,0,1,1.085-.313,1.128,1.128,0,0,1,1.107.727,1.189,1.189,0,0,1,.016.967,1.675,1.675,0,0,1-1.114.761c-.1.034-.2.066-.291.1a8.324,8.324,0,0,1-3.372.6Z"/>
    <path class="cls-2" d="M79.945,43.336a.76.76,0,0,1,.3.061c.488.205.887.6.4,1.073a15.466,15.466,0,0,1-1.75,1.234c-1.81,1.333-3.156,2.93-3.013,5.366.1,1.625.559,2.152,2.159,2.225.342.016.685.036,1.027.036a3.966,3.966,0,0,0,2.015-.447,1.828,1.828,0,0,1,.839-.249.634.634,0,0,1,.642.41c.348.883-.591.96-1.123,1.189a7.913,7.913,0,0,1-3.173.554h-.113l-.15,0c-3.191,0-4.976-2.516-3.851-5.52a11.657,11.657,0,0,1,4.975-5.6,1.583,1.583,0,0,1,.817-.33m0-1a2.5,2.5,0,0,0-1.36.49,12.838,12.838,0,0,0-5.368,6.093A4.85,4.85,0,0,0,78,55.79l.174,0h.089a8.8,8.8,0,0,0,3.569-.636c.075-.032.162-.059.25-.088a2.129,2.129,0,0,0,1.41-1.023,1.674,1.674,0,0,0,0-1.363,1.628,1.628,0,0,0-1.573-1.043,2.832,2.832,0,0,0-1.329.377,2.965,2.965,0,0,1-1.525.319c-.261,0-.523-.013-.784-.026l-.2-.009c-1.021-.047-1.136-.092-1.206-1.285-.1-1.735.678-3.081,2.608-4.5.194-.143.4-.272.608-.4a7.065,7.065,0,0,0,1.25-.924,1.526,1.526,0,0,0,.5-1.406,1.854,1.854,0,0,0-1.208-1.3,1.761,1.761,0,0,0-.687-.14Z"/>
  </g>
  <g>
    <path class="cls-1" d="M84.414,57.608a1.9,1.9,0,0,1-1.836-1.832,3.655,3.655,0,0,1,.051-1.053c.023-.155.047-.31.057-.463.018-.261.028-.521.039-.781.019-.461.038-.923.094-1.38.1-.851-.015-1.088-.07-1.15a.418.418,0,0,0-.283-.073,2.972,2.972,0,0,0-.759.134,16.969,16.969,0,0,1-2.189.417c-.447.065-.9.129-1.341.219a2.368,2.368,0,0,1-.47.049,1.541,1.541,0,0,1-1.49-.958,1.491,1.491,0,0,1,.214-1.627,1.7,1.7,0,0,1,1.3-.648,1.6,1.6,0,0,1,.84.243,1.413,1.413,0,0,0,.767.231,3.586,3.586,0,0,0,1.309-.377l.168-.07a6.039,6.039,0,0,1,2-.5c.175-.011.337-.016.485-.016,1.612,0,2.032.8,2.213,2.19.075.586.107,1.177.131,1.627l.024.417c-.022.336-.049.579-.074.812a4.227,4.227,0,0,0,.1,2.2,1.923,1.923,0,0,1,.117,1.7,1.37,1.37,0,0,1-1.053.659,2.165,2.165,0,0,1-.347.029Z"/>
    <path class="cls-2" d="M83.3,48.472c1.178,0,1.539.384,1.717,1.755.1.785.121,1.58.152,2.015-.112,1.3-.336,2.238.07,3.174.3.7.456,1.5-.557,1.67a1.645,1.645,0,0,1-.266.022c-.767,0-1.231-.6-1.34-1.4a7.235,7.235,0,0,1,.112-1.416c.048-.711.044-1.428.129-2.134.147-1.218-.051-1.784-.85-1.784a3.42,3.42,0,0,0-.894.152c-1.158.326-2.334.394-3.493.627a1.892,1.892,0,0,1-.372.039,1.048,1.048,0,0,1-1.032-.658.987.987,0,0,1,.139-1.105,1.206,1.206,0,0,1,.921-.469,1.1,1.1,0,0,1,.578.169,1.915,1.915,0,0,0,1.028.306,4.484,4.484,0,0,0,1.669-.486,5.586,5.586,0,0,1,1.833-.461c.164-.01.316-.015.455-.015m0-1h0c-.158,0-.329.006-.515.017a6.525,6.525,0,0,0-2.158.536l-.17.071a3.291,3.291,0,0,1-1.115.338.924.924,0,0,1-.5-.157,2.1,2.1,0,0,0-1.1-.317,2.191,2.191,0,0,0-1.687.827,1.994,1.994,0,0,0-.289,2.149,2.04,2.04,0,0,0,1.948,1.258,2.893,2.893,0,0,0,.569-.059c.427-.086.857-.148,1.313-.214a17.34,17.34,0,0,0,2.253-.431,3.157,3.157,0,0,1,.515-.108,3.725,3.725,0,0,1-.034.658c-.058.484-.078.96-.1,1.42-.01.256-.021.511-.038.766-.01.14-.031.281-.052.422a4.143,4.143,0,0,0-.053,1.2,2.374,2.374,0,0,0,2.331,2.265,2.655,2.655,0,0,0,.428-.036,1.845,1.845,0,0,0,1.411-.914,2.5,2.5,0,0,0-.1-2.141,3.8,3.8,0,0,1-.066-1.947c.026-.236.052-.482.075-.744a.993.993,0,0,0,0-.157c-.008-.113-.015-.251-.023-.407-.023-.445-.055-1.055-.135-1.665-.177-1.364-.628-2.626-2.708-2.626Z"/>
  </g>
  <g>
    <path class="cls-1" d="M128.087,54.819a1.657,1.657,0,0,1-1.247-.589,4.871,4.871,0,0,1-1.037-3.258.5.5,0,0,1,.009-.107l.3-1.608c.295-1.565.59-3.131.9-4.692a1.875,1.875,0,0,1,.854-1.32,1.719,1.719,0,0,1,.854-.276,1.216,1.216,0,0,1,.482.1,1.115,1.115,0,0,1,.7,1.273l-.025.191a13.577,13.577,0,0,1-.536,2.7,8.756,8.756,0,0,0-.585,3.76c.016.135.021.276.027.418.022.531.059.762.331.92a1.305,1.305,0,0,1,.763.958,1.112,1.112,0,0,1-.439.949,2.047,2.047,0,0,1-1.356.579Z"/>
    <path class="cls-2" d="M128.725,43.468a.708.708,0,0,1,.285.061.625.625,0,0,1,.4.749,14.258,14.258,0,0,1-.539,2.8,9.139,9.139,0,0,0-.609,3.978c.07.6-.071,1.323.606,1.714.5.291.742.651.239,1.1a1.571,1.571,0,0,1-1.023.451,1.158,1.158,0,0,1-.874-.423,4.353,4.353,0,0,1-.909-2.938c.4-2.1.785-4.2,1.206-6.3a1.349,1.349,0,0,1,.608-.984,1.266,1.266,0,0,1,.608-.211m0-1a2.21,2.21,0,0,0-1.1.341,2.34,2.34,0,0,0-1.1,1.657c-.313,1.557-.607,3.117-.9,4.677l-.307,1.629a.99.99,0,0,0-.017.215,5.314,5.314,0,0,0,1.165,3.578,2.141,2.141,0,0,0,1.618.755,2.538,2.538,0,0,0,1.69-.707,1.585,1.585,0,0,0,.6-1.373,1.786,1.786,0,0,0-1.009-1.339,1.273,1.273,0,0,1-.082-.508c-.007-.155-.014-.308-.031-.455a8.313,8.313,0,0,1,.563-3.543,14.135,14.135,0,0,0,.559-2.8l.024-.187a1.615,1.615,0,0,0-1-1.8,1.709,1.709,0,0,0-.682-.143Z"/>
  </g>
  <g>
    <path class="cls-1" d="M3.86,38.413a1.66,1.66,0,0,1-1.094-.481,2.8,2.8,0,0,1-1.15-2.193,29.282,29.282,0,0,0-.408-6.318,2.328,2.328,0,0,1,1.945-2.864.52.52,0,0,1,.121-.015.5.5,0,0,1,.445.273,4.152,4.152,0,0,1,.295,2.436,5.08,5.08,0,0,0-.027,1.109c.065.505.109,1.014.153,1.522a10.471,10.471,0,0,0,.98,4.3,1.468,1.468,0,0,1-.418,1.91,1.3,1.3,0,0,1-.843.322Z"/>
    <path class="cls-2" d="M3.274,27.042c.6,1.177.076,2.295.218,3.382.265,2.032.161,4.118,1.191,6a.975.975,0,0,1-.3,1.285.808.808,0,0,1-.524.207,1.194,1.194,0,0,1-.761-.355,2.313,2.313,0,0,1-.982-1.815A29.461,29.461,0,0,0,1.7,29.316a1.84,1.84,0,0,1,1.577-2.274m0-1a1,1,0,0,0-.241.03A2.821,2.821,0,0,0,.719,29.523a28.846,28.846,0,0,1,.4,6.211,3.29,3.29,0,0,0,1.318,2.571,2.141,2.141,0,0,0,1.425.608,1.81,1.81,0,0,0,1.163-.438,1.969,1.969,0,0,0,.537-2.535,10.1,10.1,0,0,1-.921-4.1c-.043-.5-.088-1.024-.156-1.545a4.719,4.719,0,0,1,.029-1,4.622,4.622,0,0,0-.347-2.709,1,1,0,0,0-.891-.546Z"/>
  </g>
  <g>
    <path class="cls-1" d="M58.109,55.51a1.927,1.927,0,0,1-1.2-.455,3.165,3.165,0,0,1-1.046-2.52c-.024-.539-.016-1.081-.006-1.626a10.757,10.757,0,0,0-.472-4.1c-.163-.669.2-1.153,1.056-1.5a1.356,1.356,0,0,1,.5-.1,1.307,1.307,0,0,1,1.124.69,4.259,4.259,0,0,1,.554,2.334c-.012,1.307.019,2.6.047,3.572,0,.106,0,.218,0,.33-.02.518.016.573.22.646a1.408,1.408,0,0,1,1.008.9,1.224,1.224,0,0,1-.377,1.129,1.888,1.888,0,0,1-1.408.693Z"/>
    <path class="cls-2" d="M56.947,45.717a.826.826,0,0,1,.7.45,3.8,3.8,0,0,1,.481,2.071c-.01,1.2.013,2.394.047,3.59.015.531-.169,1.176.546,1.433.672.241.963.626.427,1.224a1.4,1.4,0,0,1-1.037.527,1.423,1.423,0,0,1-.885-.346,2.7,2.7,0,0,1-.858-2.151c-.086-1.9.256-3.833-.508-5.875-.1-.425.309-.67.773-.856a.854.854,0,0,1,.317-.065m0-1a1.852,1.852,0,0,0-.688.136c-1.474.589-1.494,1.516-1.375,2.016a1,1,0,0,0,.036.119,10.212,10.212,0,0,1,.439,3.912c-.009.54-.019,1.1.006,1.658A3.667,3.667,0,0,0,56.6,55.446a2.423,2.423,0,0,0,1.509.564,2.374,2.374,0,0,0,1.781-.859,1.688,1.688,0,0,0,.49-1.585,1.816,1.816,0,0,0-1.218-1.208c0-.064,0-.138.005-.2,0-.123.008-.246.005-.364-.042-1.429-.056-2.525-.047-3.552a4.721,4.721,0,0,0-.627-2.6,1.812,1.812,0,0,0-1.551-.929Z"/>
  </g>
  <g>
    <path class="cls-1" d="M134.212,15.789c-.654,0-1.121-.527-1.189-1.343-.421-4.97-.54-7.5-.389-8.2a2.942,2.942,0,0,1,1.256-2.139,1.582,1.582,0,0,1,.812-.237,1.377,1.377,0,0,1,.869.315,1.091,1.091,0,0,1,.206,1.456c-1.274,2.686-.789,5.422-.147,7.744a1.044,1.044,0,0,0,.067.116,1.931,1.931,0,0,1,.131.233c.545,1.213-.563,1.717-.98,1.906A1.545,1.545,0,0,1,134.212,15.789Z"/>
    <path class="cls-2" d="M134.7,4.368a.868.868,0,0,1,.554.2c.307.248.211.554.07.852-1.268,2.671-.929,5.378-.177,8.092a3.287,3.287,0,0,0,.223.422c.338.751-.242,1.023-.732,1.245a1.046,1.046,0,0,1-.428.106c-.437,0-.65-.407-.691-.885a69.191,69.191,0,0,1-.4-8.055,2.5,2.5,0,0,1,1.022-1.814,1.1,1.1,0,0,1,.556-.167m0-1a2.071,2.071,0,0,0-1.066.307,3.443,3.443,0,0,0-1.489,2.463c-.165.764-.052,3.253.376,8.322a1.772,1.772,0,0,0,1.69,1.829,2.037,2.037,0,0,0,.842-.2c1.637-.743,1.573-1.806,1.23-2.566a2.42,2.42,0,0,0-.163-.294l-.024-.039c-.611-2.221-1.063-4.825.132-7.342a1.559,1.559,0,0,0-.345-2.058,1.869,1.869,0,0,0-1.183-.426Z"/>
  </g>
  <g>
    <path class="cls-1" d="M43.546,53.87a1.249,1.249,0,0,1-.933-.409,2.943,2.943,0,0,1-.741-1.5c-.106-.549-.177-1.108-.246-1.667a8.632,8.632,0,0,0-1.191-4.053,1.029,1.029,0,0,1-.178-.8,1.441,1.441,0,0,1,.683-.894,1.531,1.531,0,0,1,.837-.253,1.752,1.752,0,0,1,1.315.646,3.475,3.475,0,0,1,.684,1.813l.051.491a10.891,10.891,0,0,0,1.149,4.591,1.156,1.156,0,0,1,.137.517,1.1,1.1,0,0,1,.009.272,1.348,1.348,0,0,1-.869,1.1,2.035,2.035,0,0,1-.705.145Z"/>
    <path class="cls-2" d="M41.777,44.792a1.276,1.276,0,0,1,.936.471,2.949,2.949,0,0,1,.566,1.542,12.6,12.6,0,0,0,1.267,5.283,1.327,1.327,0,0,1,.085.441.861.861,0,0,1-.551.727,1.576,1.576,0,0,1-.533.114.742.742,0,0,1-.568-.25,2.449,2.449,0,0,1-.615-1.253c-.388-2-.278-4.121-1.517-5.909-.272-.393.011-.766.363-.992a1.038,1.038,0,0,1,.567-.174m0-1a2.05,2.05,0,0,0-1.107.332,1.935,1.935,0,0,0-.9,1.216,1.54,1.54,0,0,0,.258,1.187,8.266,8.266,0,0,1,1.105,3.829c.069.555.141,1.129.252,1.7a3.435,3.435,0,0,0,.866,1.745,1.738,1.738,0,0,0,1.3.567,2.5,2.5,0,0,0,.878-.176,1.832,1.832,0,0,0,1.188-1.478,1,1,0,0,0,0-.362l0-.045a1.632,1.632,0,0,0-.2-.729,10.526,10.526,0,0,1-1.082-4.387l-.052-.495a3.964,3.964,0,0,0-.8-2.086,2.252,2.252,0,0,0-1.7-.821Z"/>
  </g>
</svg>
