<svg id="Layer_1" data-name="Layer 1" xmlns="http://www.w3.org/2000/svg" viewBox="0 0 128.365 85.922">
  <defs>
    <style>
      .cls-1 {
        fill: #0000b8;
      }

      .cls-2 {
        fill: #fff;
      }
    </style>
  </defs>
  <title>ef078b6f-13e8-42f2-b9f1-62660ed3bb41</title>
  <g>
    <path class="cls-1" d="M6.931,85.422c-.915,0-1.556-.691-1.713-1.848a3.736,3.736,0,0,1,.306-1.813c.057-.158.113-.317.161-.478.209-.706.525-1.772,1.8-1.814h0c1.228,0,1.387.98,1.473,1.507.014.086.027.171.045.252.112.528.325.618.76.618.094,0,.192-.006.295-.016a144.153,144.153,0,0,0,14.36-1.973,6.813,6.813,0,0,1,1.334-.133l.211,0q.634.021,1.267.02c2.02,0,4.075-.146,6.063-.286.973-.069,1.945-.138,2.918-.19a3.81,3.81,0,0,0,1.175-.173,4.005,4.005,0,0,0-.2-1.221c-.334-1.3-.691-2.592-1.049-3.886-.258-.93-.515-1.86-.764-2.793l-.043-.161a5.513,5.513,0,0,1-.269-1.63,48.856,48.856,0,0,0-.336-6.4,51.878,51.878,0,0,1-.349-6.266A4.047,4.047,0,0,0,34.241,55a4.021,4.021,0,0,0-1.751-.2H32.26a14.262,14.262,0,0,0-3.44.406,21.152,21.152,0,0,1-3.105.444c-.33.031-.66.061-.988.1a3,3,0,0,1-.318.016c-.128,0-.256-.006-.384-.013-.111-.006-.222-.012-.33-.012a1.427,1.427,0,0,0-.34.033,54.835,54.835,0,0,1-7.822,1.1c-2.113.194-4.3.4-6.406.8-2.212.43-2.254.438-2.229,3.984.233,1.866.28,4.1.33,6.469.014.678.028,1.363.048,2.047a9.52,9.52,0,0,0,.562,2.513l.045.143A2.156,2.156,0,0,1,7.844,74.6a1.648,1.648,0,0,1-1.127.762,2.016,2.016,0,0,1-.452.054h0c-.523,0-1.431-.252-1.623-1.944-.19-1.667-.267-3.317-.324-5.283-.022-.817-.016-1.634-.008-2.452.009-.927.018-1.885-.022-2.819-.01-.239-.016-.478-.022-.716a9.038,9.038,0,0,0-.575-3.556,2.151,2.151,0,0,1-.144-1.807A2.717,2.717,0,0,1,5.481,55.7a50.232,50.232,0,0,1,10.568-.973l.24,0a25.81,25.81,0,0,0,4.528-.631c1.124-.224,2.286-.455,3.459-.574,2.257-.228,4.544-.592,6.756-.945.967-.154,1.934-.308,2.9-.452.11-.017.222-.038.333-.059a6.354,6.354,0,0,1,.647-.1c.275-.022.521-.034.737-.034a1.974,1.974,0,0,1,1.509.49,2.575,2.575,0,0,1,.358,2.029,59.845,59.845,0,0,0,.016,11.63,32.235,32.235,0,0,0,1.835,8.683,14.175,14.175,0,0,1,.7,2.84,14.8,14.8,0,0,0,.582,2.5,1.241,1.241,0,0,1-.084,1.189,1.494,1.494,0,0,1-1.307.528l-.146,0c-2.964-.123-5.986-.124-8.91-.124h-.419a45.23,45.23,0,0,0-8.357,1.051c-.72.137-1.44.273-2.162.4a21.689,21.689,0,0,1-3.162.393,20.74,20.74,0,0,0-8.185,1.644A2.419,2.419,0,0,1,6.931,85.422Z" transform="translate(0)"/>
    <path class="cls-2" d="M35.651,52.433c1.243,0,1.515.437,1.37,1.972a59.908,59.908,0,0,0,.016,11.727A32.424,32.424,0,0,0,38.9,74.949c.668,1.686.646,3.587,1.273,5.328.235.651-.062,1.048-.919,1.048l-.126,0c-3.113-.13-6.232-.124-9.349-.124h0c-3.6,0-7.088.837-10.605,1.459a20.989,20.989,0,0,1-3.087.385A21.356,21.356,0,0,0,7.712,84.73a1.922,1.922,0,0,1-.781.192c-.671,0-1.1-.519-1.218-1.416a4.848,4.848,0,0,1,.451-2.081C6.378,80.7,6.61,80,7.506,79.968h.05c.871,0,.842.792.964,1.364a1.119,1.119,0,0,0,1.249,1.014c.109,0,.223-.007.342-.018a143.376,143.376,0,0,0,14.411-1.981,6.34,6.34,0,0,1,1.236-.123c.065,0,.13,0,.194,0q.641.021,1.281.02c3.011,0,6.008-.314,9.011-.478,1.769-.1,1.89-.236,1.432-2.017-.575-2.235-1.219-4.452-1.814-6.682a5.787,5.787,0,0,1-.295-1.644c.152-4.246-.791-8.428-.684-12.674.06-2.394-.043-2.422-2.386-2.455l-.234,0a14.794,14.794,0,0,0-3.561.421,30.83,30.83,0,0,1-4.029.529,2.467,2.467,0,0,1-.266.013c-.237,0-.478-.024-.713-.024a1.948,1.948,0,0,0-.456.046c-4.672,1.124-9.511.992-14.207,1.9-2.508.487-2.659.761-2.633,4.478.3,2.453.292,5.491.378,8.527a10.5,10.5,0,0,0,.63,2.792c.289.912.19,1.66-.8,1.888a1.508,1.508,0,0,1-.339.042c-.822,0-1.051-.836-1.126-1.5-.2-1.737-.271-3.492-.321-5.241s.044-3.521-.03-5.278a11.6,11.6,0,0,0-.641-4.454c-.613-1.38-.075-1.889,1.449-2.249a50.671,50.671,0,0,1,10.7-.965c2.711-.056,5.324-.934,8.027-1.208,3.24-.328,6.454-.921,9.679-1.4.316-.047.629-.126.947-.152.26-.021.492-.033.7-.033m0-1c-.228,0-.486.013-.776.036a6.555,6.555,0,0,0-.7.1c-.106.02-.212.04-.318.056-.97.144-1.938.3-2.907.453-2.2.351-4.485.715-6.726.941-1.2.121-2.373.355-3.509.581a25.5,25.5,0,0,1-4.439.621l-.231,0a50.632,50.632,0,0,0-10.682.986,3.128,3.128,0,0,0-2.267,1.4,2.678,2.678,0,0,0,.134,2.232,8.656,8.656,0,0,1,.532,3.365c.007.241.013.483.023.725.039.919.03,1.868.021,2.786-.008.81-.015,1.647.008,2.479.049,1.708.123,3.535.327,5.326.246,2.155,1.564,2.387,2.12,2.387a2.515,2.515,0,0,0,.565-.067,2.133,2.133,0,0,0,1.448-1,2.654,2.654,0,0,0,.079-2.163l-.046-.146a9.18,9.18,0,0,1-.537-2.372c-.019-.687-.034-1.374-.048-2.054-.049-2.353-.1-4.576-.33-6.509a8.494,8.494,0,0,1,.229-2.88c.12-.2.522-.343,1.595-.552,2.083-.4,4.256-.6,6.358-.8a55.172,55.172,0,0,0,7.892-1.116,1,1,0,0,1,.222-.018c.1,0,.2.006.3.011.137.007.274.014.409.014a3.468,3.468,0,0,0,.373-.019c.326-.035.654-.066.982-.1a21.587,21.587,0,0,0,3.178-.456,13.763,13.763,0,0,1,3.323-.393l.22,0a10.368,10.368,0,0,1,1.375.07,9.637,9.637,0,0,1,.025,1.359,52.189,52.189,0,0,0,.35,6.325,48.575,48.575,0,0,1,.334,6.338,5.959,5.959,0,0,0,.285,1.778l.043.16c.25.936.508,1.869.766,2.8.351,1.268.714,2.58,1.046,3.872.079.306.134.545.165.716-.239.029-.551.046-.683.053-.976.053-1.951.122-2.926.191-1.98.14-4.028.285-6.03.285q-.624,0-1.249-.02-.113,0-.227,0a7.315,7.315,0,0,0-1.432.143,143.589,143.589,0,0,1-14.31,1.966c-.086.008-.168.013-.246.013a.718.718,0,0,1-.213-.022,1.766,1.766,0,0,1-.058-.2c-.016-.073-.028-.15-.04-.228a1.947,1.947,0,0,0-1.9-1.928H7.473a2.5,2.5,0,0,0-2.267,2.172c-.045.153-.1.3-.153.454a4.2,4.2,0,0,0-.33,2.046c.228,1.682,1.29,2.281,2.208,2.281a2.911,2.911,0,0,0,1.192-.28,20.265,20.265,0,0,1,7.993-1.6,22.09,22.09,0,0,0,3.235-.4c.722-.128,1.443-.265,2.165-.4A44.847,44.847,0,0,1,29.782,82.2h.424c2.917,0,5.934,0,8.885.123q.086,0,.167,0a1.945,1.945,0,0,0,1.715-.741,1.734,1.734,0,0,0,.145-1.646,14.313,14.313,0,0,1-.56-2.419,14.581,14.581,0,0,0-.724-2.939,31.072,31.072,0,0,1-1.8-8.55A59.281,59.281,0,0,1,38.017,54.5a3.049,3.049,0,0,0-.487-2.412,2.416,2.416,0,0,0-1.879-.654Z" transform="translate(0)"/>
  </g>
  <g>
    <path class="cls-1" d="M22.214,26.527a1.777,1.777,0,0,1-1.363-.73,2.721,2.721,0,0,1-.506-1.357l-.061-.336c-.221-1.177-.45-2.4-.778-3.551-.35-1.232-.395-1.232-.687-1.232a8.423,8.423,0,0,0-.974.1,4.8,4.8,0,0,0-1.144.225c0,.086.183.64.339,1.129.339,1.053.706,2.1,1.078,3.138a1.9,1.9,0,0,1,.044,1.525,1.371,1.371,0,0,1-.922.663,1.841,1.841,0,0,1-.462.063c-.736,0-1.217-.494-1.427-1.468l-.075-.346a27.4,27.4,0,0,0-.712-2.824c-.341-1.034-.612-1.216-1.057-1.216a2.248,2.248,0,0,0-.521.073,2.293,2.293,0,0,1-.543.069h0a1.233,1.233,0,0,1-1.319-1.239,1.539,1.539,0,0,1,1.4-1.655c.073-.014.148-.023.223-.031a1.674,1.674,0,0,0,.194-.029A4.263,4.263,0,0,0,12,16a1.428,1.428,0,0,1-.388-1.216,1.344,1.344,0,0,1,.776-.918,2.275,2.275,0,0,1,1.041-.294,1.383,1.383,0,0,1,1.277.866,7.269,7.269,0,0,1,.366,1.023,7.474,7.474,0,0,0,.268.786,2.265,2.265,0,0,0,2.049,1.08,1.707,1.707,0,0,0,1.15-.371c.08-.072.1-.106.007-.478l-.156-.679a21.688,21.688,0,0,1-.444-2.317,1.716,1.716,0,0,1,.36-1.369,1.4,1.4,0,0,1,1.088-.455l.139,0a1.574,1.574,0,0,1,1.292.618,1.424,1.424,0,0,1,.063,1.3,2.151,2.151,0,0,0-.058.666v.112c.009,1.612.227,1.616.458,1.616h0a5.49,5.49,0,0,0,1.348-.312A4.053,4.053,0,0,0,25.1,13.877a5.54,5.54,0,0,1,2.91-2.514,4.2,4.2,0,0,1,1.37-.267A2.369,2.369,0,0,1,31.67,12.99c.095.277.208.545.32.813a4.956,4.956,0,0,1,.479,3.414c-.171.647.3,1.7,1.222,2.754a1.839,1.839,0,0,1,.575,1.473,1.283,1.283,0,0,1-.665.911,1.561,1.561,0,0,1-.811.232,1.775,1.775,0,0,1-1.492-.938,3.953,3.953,0,0,1-.213-.421,1.706,1.706,0,0,0-.309-.521c-.861,1.18-1.863,2.424-3.531,2.424a4,4,0,0,1-1.329-.247c-2.155-.763-2.275-2.575-2.373-4.031-.017-.247-.032-.494-.058-.734a3.77,3.77,0,0,0-1.623.455,4.481,4.481,0,0,0,.256,1.837l.051.223a8.8,8.8,0,0,0,1.286,3.409,1.386,1.386,0,0,1-.239,2.122A1.638,1.638,0,0,1,22.214,26.527Zm3.894-7.732a3.59,3.59,0,0,1,.2.666c.135.591.23.862.586.984a1.145,1.145,0,0,0,.372.067c.467,0,.922-.373,1.354-1.109a3.882,3.882,0,0,0,.665-2.193,4.359,4.359,0,0,1,.293-2.377c.259-.5.135-.6-.125-.745a.941.941,0,0,0-.457-.137,1.02,1.02,0,0,0-.575.216C27.051,15.112,26.377,16.459,26.108,18.795Z" transform="translate(0)"/>
    <path class="cls-2" d="M29.385,11.6c.861,0,1.446.485,1.812,1.555.43,1.254,1.212,2.344.789,3.936-.261.982.508,2.278,1.329,3.213.458.521.751,1.191.028,1.625a1.069,1.069,0,0,1-.553.161,1.288,1.288,0,0,1-1.065-.7c-.274-.45-.341-1.063-1.085-1.346-.9,1.235-1.813,2.588-3.394,2.588a3.478,3.478,0,0,1-1.162-.217c-2.367-.838-1.861-3.04-2.163-4.8-.137-.014-.218-.035-.284-.035a.245.245,0,0,0-.045,0c-2.558.469-2.534.464-1.945,3.016a9.635,9.635,0,0,0,1.407,3.746.9.9,0,0,1-.142,1.425,1.145,1.145,0,0,1-.7.262,1.3,1.3,0,0,1-.977-.548,2.808,2.808,0,0,1-.438-1.344c-.234-1.247-.466-2.5-.812-3.719-.358-1.259-.478-1.6-1.168-1.6a8.752,8.752,0,0,0-1.06.111c-1.748.242-1.758.245-1.194,2,.34,1.058.709,2.107,1.083,3.153.239.67.309,1.316-.533,1.536a1.335,1.335,0,0,1-.336.047c-.551,0-.8-.448-.939-1.073a31.281,31.281,0,0,0-.8-3.22c-.32-.971-.675-1.56-1.531-1.56a2.72,2.72,0,0,0-.64.087,1.822,1.822,0,0,1-.425.055.738.738,0,0,1-.82-.767,1.048,1.048,0,0,1,.994-1.135c.3-.057.64-.008.868-.373a4.059,4.059,0,0,0-1.1-2c-.461-.557-.381-1.055.233-1.371a1.842,1.842,0,0,1,.812-.238.879.879,0,0,1,.825.58c.27.569.377,1.212.626,1.793a2.744,2.744,0,0,0,2.508,1.382,2.2,2.2,0,0,0,1.486-.5c.363-.329.214-.71.126-1.1a27.9,27.9,0,0,1-.559-2.8c-.079-.673.205-1.265.952-1.265.034,0,.069,0,.1,0,.693.048,1.242.352.918,1.256a2.833,2.833,0,0,0-.086.948c.008,1.532.183,2.115.959,2.115a5.44,5.44,0,0,0,1.5-.336,4.553,4.553,0,0,0,2.738-2,5.126,5.126,0,0,1,2.649-2.3,3.74,3.74,0,0,1,1.206-.239m-2.123,9.414a2.27,2.27,0,0,0,1.785-1.357,4.339,4.339,0,0,0,.732-2.478,3.926,3.926,0,0,1,.239-2.117c.3-.573.314-1.054-.326-1.411a1.428,1.428,0,0,0-.7-.2,1.5,1.5,0,0,0-.861.3c-1.723,1.194-2.305,2.961-2.536,5.131.335.576.164,1.7,1.132,2.031a1.639,1.639,0,0,0,.536.094M29.385,10.6h0a4.683,4.683,0,0,0-1.534.294,6.105,6.105,0,0,0-3.173,2.725,3.555,3.555,0,0,1-2.193,1.572,7.111,7.111,0,0,1-1.08.28,6.189,6.189,0,0,1-.073-1.112v-.109a2.119,2.119,0,0,1,.028-.5A1.892,1.892,0,0,0,21.245,12a2.03,2.03,0,0,0-1.676-.843q-.089-.006-.174-.006a1.918,1.918,0,0,0-1.461.622,2.212,2.212,0,0,0-.484,1.76A21.961,21.961,0,0,0,17.9,15.9l.123.537.036.152.019.079a1.429,1.429,0,0,1-.69.153,1.81,1.81,0,0,1-1.589-.777,7.026,7.026,0,0,1-.248-.731,7.528,7.528,0,0,0-.394-1.1,1.881,1.881,0,0,0-1.729-1.151,2.76,2.76,0,0,0-1.271.35,1.825,1.825,0,0,0-1.036,1.262,1.908,1.908,0,0,0,.492,1.635,7.8,7.8,0,0,1,.608.8,2,2,0,0,0-1.6,2.127,1.737,1.737,0,0,0,1.819,1.711,2.805,2.805,0,0,0,.662-.083,1.762,1.762,0,0,1,.4-.058c.151,0,.294,0,.582.873a26.478,26.478,0,0,1,.7,2.763l.076.355c.351,1.62,1.351,1.862,1.917,1.862a2.34,2.34,0,0,0,.588-.08,1.853,1.853,0,0,0,1.237-.913,2.382,2.382,0,0,0-.015-1.927c-.413-1.157-.754-2.131-1.072-3.123-.065-.2-.138-.429-.194-.62.174-.028.379-.056.573-.083.374-.052.667-.092.858-.1.085.212.2.609.271.867.322,1.132.548,2.336.766,3.5l.025.131.036.206a3.162,3.162,0,0,0,.612,1.588,2.285,2.285,0,0,0,1.75.913,2.15,2.15,0,0,0,1.305-.468,1.877,1.877,0,0,0,.337-2.818,8.434,8.434,0,0,1-1.2-3.22l-.035-.153-.017-.072a12.811,12.811,0,0,1-.283-1.423,5.964,5.964,0,0,1,.709-.173q.006.091.012.184c.1,1.518.24,3.6,2.706,4.47a4.5,4.5,0,0,0,1.5.275,4.418,4.418,0,0,0,3.469-2.014,3.314,3.314,0,0,0,.157.294,2.263,2.263,0,0,0,1.919,1.178,2.08,2.08,0,0,0,1.068-.3,1.772,1.772,0,0,0,.9-1.264,2.29,2.29,0,0,0-.694-1.879c-.91-1.035-1.215-1.915-1.114-2.3a5.436,5.436,0,0,0-.5-3.735c-.108-.258-.217-.516-.309-.782A2.828,2.828,0,0,0,29.385,10.6Zm-2.766,8.13c.26-2.1.872-3.312,2.081-4.15a.616.616,0,0,1,.291-.127.447.447,0,0,1,.183.057c-.012.027-.026.058-.045.095a4.686,4.686,0,0,0-.353,2.561l0,.078a3.317,3.317,0,0,1-.6,1.908c-.189.322-.56.862-.922.862a.656.656,0,0,1-.21-.04c-.1-.034-.147-.124-.26-.622a4.842,4.842,0,0,0-.172-.622Z" transform="translate(0)"/>
  </g>
  <g>
    <path class="cls-1" d="M111,41.32a1.586,1.586,0,0,1-1.354-.941,22.826,22.826,0,0,1-1.765-4.934c-.187-.689-.376-1.378-.591-2.058a1.393,1.393,0,0,1,.108-1.136,1.608,1.608,0,0,1,1.085-.737,1.848,1.848,0,0,1,.385-.043,1.53,1.53,0,0,1,1.387,1.161c.06.159.181.481.274.663.132-.111.377-.339.51-.463.183-.169.371-.332.559-.5a7.906,7.906,0,0,0,1.255-1.259,1.556,1.556,0,0,1,1.262-.65,1.684,1.684,0,0,1,1.187.507,1.307,1.307,0,0,1,.442,1,2.013,2.013,0,0,1-.888,1.328c-.367.3-.758.579-1.147.854a14.316,14.316,0,0,0-1.313,1c-.987.883-.775,1.354-.706,1.508a1.565,1.565,0,0,0,1.506.8c.078,0,.156,0,.234-.01,1.107-.093,2.211-.218,3.358-.349l1.033-.116a1.539,1.539,0,0,0-.825-1.15c-.757-.483-.879-.986-.849-1.322s.26-.844,1.162-1.211a3.18,3.18,0,0,0,1.35-.909,4.171,4.171,0,0,1,3.409-1.445,16.035,16.035,0,0,1,1.677.117,1.644,1.644,0,0,1,1.477,1.213,1.667,1.667,0,0,1-.886,1.936,8.189,8.189,0,0,1-3.262,1.321.687.687,0,0,0-.459.21,1.01,1.01,0,0,0,.045.735,3.731,3.731,0,0,0,3.415,2.32,2.615,2.615,0,0,0,.932-.162,1.1,1.1,0,0,0,.126-.1,1.274,1.274,0,0,1,.512-.307,2.284,2.284,0,0,1,.576-.078,1.569,1.569,0,0,1,1.569,1.172,1.32,1.32,0,0,1-.123,1.164,1.771,1.771,0,0,1-1.407.653c-.413.037-.823.057-1.229.057a8.076,8.076,0,0,1-5.429-1.823l-.192-.167c-.188-.165-.423-.37-.533-.37-.066,0-.223.1-.442.365a1.666,1.666,0,0,1-1.341.554c-.215,0-.44-.022-.666-.045a5.513,5.513,0,0,0-.555-.04c-.477.021-.865.025-1.256.025l-1.492-.009c-.376,0-.516.025-.714.524A1.6,1.6,0,0,1,111,41.32Z" transform="translate(0)"/>
    <path class="cls-2" d="M114.114,30.926a1.187,1.187,0,0,1,.834.362c.663.659.067,1.187-.412,1.583-.8.658-1.707,1.182-2.475,1.868-.589.527-1.192,1.28-.83,2.086a2.021,2.021,0,0,0,1.963,1.093c.092,0,.184,0,.276-.012,1.586-.132,3.166-.333,4.875-.519a2.08,2.08,0,0,0-1.082-2.016c-.921-.589-.8-1.23.232-1.649a3.693,3.693,0,0,0,1.545-1.051,3.636,3.636,0,0,1,3.024-1.266,15.679,15.679,0,0,1,1.625.114,1.156,1.156,0,0,1,1.047.848,1.191,1.191,0,0,1-.676,1.385A7.782,7.782,0,0,1,121,35c-.92.145-1.085.735-.814,1.591a4.234,4.234,0,0,0,3.892,2.668,3.121,3.121,0,0,0,1.108-.195c.215-.081.372-.337.588-.393a1.779,1.779,0,0,1,.45-.061,1.071,1.071,0,0,1,1.09.814c.26.875-.432,1.118-1.095,1.177-.4.035-.794.055-1.185.055a7.613,7.613,0,0,1-5.106-1.706c-.385-.324-.691-.654-1.048-.654-.24,0-.5.149-.83.549a1.141,1.141,0,0,1-.953.37c-.4,0-.83-.086-1.221-.086l-.111,0c-.38.018-.761.023-1.143.023-.5,0-1-.009-1.494-.009h0a1.078,1.078,0,0,0-1.177.839c-.224.562-.582.834-.945.834a1.1,1.1,0,0,1-.914-.678c-1.169-2.166-1.587-4.591-2.32-6.906A.95.95,0,0,1,108.588,32a1.343,1.343,0,0,1,.28-.032c.452,0,.715.293.919.836.27.72.419,1.05.662,1.05.2,0,.472-.231.932-.659a13.65,13.65,0,0,0,1.875-1.825,1.058,1.058,0,0,1,.86-.447m6.829,2.188L120.9,33.1a.3.3,0,0,0-.025.035l-.007,0,0,0h0l.082.132-.029-.094a.641.641,0,0,0,.126.086s0-.006-.009-.02c-.04-.051-.051-.066-.06-.078l-.01-.013.01.013c0,.007.007.011,0,.011a.311.311,0,0,1-.064-.056l.015,0a2.038,2.038,0,0,0,.6.22c.059,0,.141.019.22.019.149,0,.282-.051.217-.319-.011-.045-.183-.073-.323-.073a.773.773,0,0,0-.1.005,4.724,4.724,0,0,0-.617.147m-6.829-3.188h0a2.054,2.054,0,0,0-1.665.854,7.576,7.576,0,0,1-1.178,1.178c-.186.161-.371.322-.552.489a1.938,1.938,0,0,0-1.852-1.475,2.35,2.35,0,0,0-.489.054,2.1,2.1,0,0,0-1.413.975,1.888,1.888,0,0,0-.153,1.538c.211.666.4,1.362.584,2.036a23.22,23.22,0,0,0,1.809,5.043,1.935,1.935,0,0,0,3.668-.26,1.258,1.258,0,0,1,.1-.2,1.213,1.213,0,0,1,.151-.008c.243,0,.485,0,.728,0s.512,0,.768,0c.4,0,.794-.005,1.19-.024h.064a5,5,0,0,1,.5.037,6.862,6.862,0,0,0,.718.048,2.11,2.11,0,0,0,1.727-.737c.029-.036.055-.066.079-.091.06.05.125.107.181.155l.2.173a8.55,8.55,0,0,0,5.75,1.941c.405,0,.834-.02,1.273-.059a2.258,2.258,0,0,0,1.776-.87,1.8,1.8,0,0,0,.189-1.587,2.072,2.072,0,0,0-2.049-1.53,2.78,2.78,0,0,0-.7.094,1.745,1.745,0,0,0-.713.414l-.038.034a2.155,2.155,0,0,1-.691.107,3.247,3.247,0,0,1-2.939-1.971,1.578,1.578,0,0,1-.067-.284c.023-.005.05-.011.083-.016a8.79,8.79,0,0,0,3.456-1.4A2.131,2.131,0,0,0,125.7,32.1a2.156,2.156,0,0,0-1.907-1.578,16.671,16.671,0,0,0-1.73-.12,4.634,4.634,0,0,0-3.791,1.624,2.7,2.7,0,0,1-1.156.766c-1.135.462-1.426,1.141-1.471,1.628a1.9,1.9,0,0,0,1.077,1.789,1.791,1.791,0,0,1,.381.306l-.386.044c-1.152.131-2.24.255-3.333.346-.065.005-.129.008-.193.008a1.1,1.1,0,0,1-1.051-.5c-.121-.27.417-.78.584-.93a13.924,13.924,0,0,1,1.265-.963c.39-.275.793-.559,1.181-.88a2.456,2.456,0,0,0,1.068-1.691,1.789,1.789,0,0,0-.589-1.373,2.181,2.181,0,0,0-1.539-.653Z" transform="translate(0)"/>
  </g>
  <g>
    <path class="cls-1" d="M58.263,76.8A1.759,1.759,0,0,1,56.7,75.543a16.235,16.235,0,0,1-.831-2.569c-.062-.289-.108-.58-.154-.87a3.926,3.926,0,0,0-1.066-2.569,1.2,1.2,0,0,1-.407-1.107,1.784,1.784,0,0,1,1.072-1.259,6.025,6.025,0,0,1,1.559-.375c.187-.027.368-.053.538-.087a.492.492,0,0,1,.1-.009.479.479,0,0,1,.092.009c.4.075.8.129,1.189.182a7.829,7.829,0,0,1,3.47,1.047,1.012,1.012,0,0,0,.58.223,1.355,1.355,0,0,0,.624-.208,4.266,4.266,0,0,1,2.053-.607,2.982,2.982,0,0,1,2.168.963,4.211,4.211,0,0,1,.431-.022,2.125,2.125,0,0,1,1.607.577,3.773,3.773,0,0,1,.541,2.819,3.887,3.887,0,0,0,1.407,2.759c.04.043.089.084.136.126A1.036,1.036,0,0,1,72.137,76a1.171,1.171,0,0,1-1.034.61h0a2.332,2.332,0,0,1-.84-.2A3.764,3.764,0,0,1,68.6,75.036c-.214-.291-.348-.291-.42-.291a1.462,1.462,0,0,0-.584.184,6.368,6.368,0,0,1-2.786.734c-1.646,0-3.013-.881-4.176-2.692-.373-.582-.627-.582-.735-.582a2.4,2.4,0,0,0-.818.248c-.123.053-.28.138-.321.246-.073.191.123.607.252.883l.377.813A1.776,1.776,0,0,1,59.617,76a1.275,1.275,0,0,1-.788.692A1.6,1.6,0,0,1,58.263,76.8Zm8-6.888a3.56,3.56,0,0,0-2.389.755,1.4,1.4,0,0,0-.348,1.68,2.221,2.221,0,0,0,1.674.8A1.214,1.214,0,0,0,66,72.893a2.5,2.5,0,0,0,.838-2.331,1.6,1.6,0,0,1,0-.319,1.1,1.1,0,0,0-.011-.3h0a.785.785,0,0,0-.147-.022C66.538,69.915,66.4,69.911,66.268,69.911Zm-7.706-.5a.663.663,0,0,0-.386.135.574.574,0,0,0,.1.448.631.631,0,0,0,.384.152,1.853,1.853,0,0,0,.825-.373A2.313,2.313,0,0,0,58.562,69.414Z" transform="translate(0)"/>
    <path class="cls-2" d="M57.5,67.2c1.6.3,3.165.274,4.472,1.153a1.522,1.522,0,0,0,.859.308,1.807,1.807,0,0,0,.866-.271,3.83,3.83,0,0,1,1.812-.545,2.5,2.5,0,0,1,1.852.856c.051.053.131.123.192.123h.009a4.434,4.434,0,0,1,.546-.037c1.792,0,1.721,1.389,1.649,2.88A4.34,4.34,0,0,0,71.3,74.78c.254.273.7.476.408.959a.677.677,0,0,1-.607.371,1.881,1.881,0,0,1-.656-.167A3.314,3.314,0,0,1,69,74.74a1,1,0,0,0-.823-.495,1.9,1.9,0,0,0-.8.234,5.925,5.925,0,0,1-2.567.684c-1.458,0-2.686-.8-3.755-2.462-.392-.611-.765-.812-1.156-.812a2.734,2.734,0,0,0-1.013.287c-.958.406-.648,1.121-.328,1.8.1.217.2.433.3.651.262.579.688,1.254-.207,1.594a1.093,1.093,0,0,1-.389.076,1.286,1.286,0,0,1-1.1-.942,15.674,15.674,0,0,1-.806-2.489c-.281-1.3-.228-2.659-1.374-3.7-.586-.534-.081-1.273.529-1.538A9.39,9.39,0,0,1,57.5,67.2m1.158,3.451c.568,0,1.095-.5,1.85-.918-.8-.339-1.362-.817-1.95-.817a1.165,1.165,0,0,0-.665.221c-.373.251-.247,1.024.086,1.267a1.137,1.137,0,0,0,.679.248m6.543,3a1.693,1.693,0,0,0,1.12-.374,2.991,2.991,0,0,0,1.009-2.755c-.052-.308.218-1.042-.633-1.092-.145-.008-.29-.013-.434-.013a4.058,4.058,0,0,0-2.71.872,1.867,1.867,0,0,0-.417,2.375,2.736,2.736,0,0,0,2.065.987M57.5,66.2a1,1,0,0,0-.195.019c-.161.032-.334.057-.513.082a6.4,6.4,0,0,0-1.684.411,2.291,2.291,0,0,0-1.366,1.635A1.708,1.708,0,0,0,54.31,69.9a3.5,3.5,0,0,1,.91,2.277c.047.3.1.6.16.9a16.631,16.631,0,0,0,.855,2.649A2.237,2.237,0,0,0,58.263,77.3a2.094,2.094,0,0,0,.743-.141,1.756,1.756,0,0,0,1.074-.972,2.23,2.23,0,0,0-.24-1.82l-.069-.149c-.1-.223-.2-.444-.309-.665a4.717,4.717,0,0,1-.193-.453l.006,0a2.5,2.5,0,0,1,.623-.208c.008,0,.119.048.314.352,1.245,1.939,2.791,2.922,4.6,2.922a6.848,6.848,0,0,0,3-.785,1.643,1.643,0,0,1,.318-.125.889.889,0,0,1,.064.079,4.247,4.247,0,0,0,1.884,1.539,2.762,2.762,0,0,0,1.023.237,1.673,1.673,0,0,0,1.461-.849,1.493,1.493,0,0,0-.429-2.069c-.035-.031-.071-.06-.1-.093-.837-.9-1.313-1.576-1.274-2.385.057-1.167.115-2.365-.678-3.2a2.6,2.6,0,0,0-1.969-.732c-.079,0-.161,0-.246.007a3.409,3.409,0,0,0-2.353-.948,4.744,4.744,0,0,0-2.293.668.92.92,0,0,1-.384.147.736.736,0,0,1-.3-.137,8.212,8.212,0,0,0-3.681-1.128c-.384-.052-.773-.1-1.164-.178A1,1,0,0,0,57.5,66.2Zm7.7,6.447a1.729,1.729,0,0,1-1.285-.612.967.967,0,0,1,.281-.984,3.044,3.044,0,0,1,2.067-.637h.059a1.742,1.742,0,0,0,.014.22,2.009,2.009,0,0,1-.669,1.883.734.734,0,0,1-.466.131Z" transform="translate(0)"/>
  </g>
  <g>
    <path class="cls-1" d="M18.674,77.539c-.971,0-1.459-.494-1.539-1.555a22.546,22.546,0,0,0-.874-4.424c-.26.967-.5,1.845-.7,2.73a2.826,2.826,0,0,1-1.447,2.021,2.521,2.521,0,0,1-1.17.343,1.81,1.81,0,0,1-1.523-.949,7.857,7.857,0,0,1-1.283-4.363,41.773,41.773,0,0,1,.442-6.99,2.99,2.99,0,0,1,.121-.55,1.505,1.505,0,0,1,1.409-1.1,1.587,1.587,0,0,1,.207.014,1.27,1.27,0,0,1,.905.54,1.439,1.439,0,0,1,.169,1.163,13.362,13.362,0,0,0-.311,2.792,14.743,14.743,0,0,1-.314,2.895,3.978,3.978,0,0,0,.366,2.634,18.774,18.774,0,0,0,1.352-7.53,1.252,1.252,0,0,0-.067-.272,1.467,1.467,0,0,1-.089-.76,1.916,1.916,0,0,1,1.728-1.6,1.854,1.854,0,0,1,.23-.015c1.1,0,1.307,1.045,1.384,1.439.12.611.191,1.232.26,1.832.048.42.1.84.16,1.257a48.651,48.651,0,0,0,1.594,6.4l.277.933c.028.1.061.194.093.291a3.821,3.821,0,0,1,.229.969,1.84,1.84,0,0,1-.385,1.4,1.494,1.494,0,0,1-1.107.458Z" transform="translate(0)"/>
    <path class="cls-2" d="M16.283,63.065c.656,0,.8.559.893,1.036.2,1.011.258,2.048.416,3.068a57.093,57.093,0,0,0,1.886,7.393,5.451,5.451,0,0,1,.3,1.151c.044.7-.154,1.3-1.008,1.325l-.1,0c-.66,0-.974-.235-1.038-1.092A30.336,30.336,0,0,0,16.243,69.7c-.454,1.718-.845,3.091-1.171,4.479a2.355,2.355,0,0,1-1.2,1.694,2.051,2.051,0,0,1-.936.285,1.314,1.314,0,0,1-1.1-.723,7.359,7.359,0,0,1-1.2-4.086,40.928,40.928,0,0,1,.435-6.906,2.81,2.81,0,0,1,.1-.467,1.015,1.015,0,0,1,.94-.766,1.055,1.055,0,0,1,.14.01A.8.8,0,0,1,12.9,64.3c-.48,1.872-.173,3.824-.627,5.693-.322,1.328.107,2.471.89,3.989A19.916,19.916,0,0,0,14.981,65.2c-.011-.307-.226-.632-.167-.911a1.421,1.421,0,0,1,1.3-1.21,1.341,1.341,0,0,1,.168-.011m0-1a2.339,2.339,0,0,0-.294.019,2.39,2.39,0,0,0-2.067,1.672,1.811,1.811,0,0,0-.289-.775,1.764,1.764,0,0,0-1.253-.756,2.055,2.055,0,0,0-.273-.018,1.988,1.988,0,0,0-1.881,1.427,2.855,2.855,0,0,0-.127.541l-.015.091a42.107,42.107,0,0,0-.45,7.074A8.358,8.358,0,0,0,11,75.979a2.278,2.278,0,0,0,1.941,1.175,3,3,0,0,0,1.4-.4,3.341,3.341,0,0,0,1.7-2.349c.067-.284.136-.567.208-.853a17.165,17.165,0,0,1,.384,2.469,1.9,1.9,0,0,0,2.036,2.018l.13,0a1.982,1.982,0,0,0,1.461-.621,2.308,2.308,0,0,0,.514-1.767,4.29,4.29,0,0,0-.252-1.1c-.03-.091-.061-.182-.088-.274l-.274-.923a48.422,48.422,0,0,1-1.583-6.34c-.063-.409-.11-.821-.157-1.233-.07-.611-.142-1.243-.266-1.875-.24-1.223-.87-1.843-1.874-1.843Zm-3.106,9.006a2.729,2.729,0,0,1,.072-.843,15.147,15.147,0,0,0,.328-2.989,13.938,13.938,0,0,1,.257-2.533,3.171,3.171,0,0,0,.1.388,1.172,1.172,0,0,1,.046.161,17.439,17.439,0,0,1-.807,5.817Z" transform="translate(0)"/>
  </g>
  <g>
    <path class="cls-1" d="M87.989,9.87a1.608,1.608,0,0,1-.71-.179,1.534,1.534,0,0,1-.895-1.076,1.841,1.841,0,0,1,.462-1.529C90.69,2.593,94.553.5,99.005.5c.462,0,.937.023,1.411.069a7.923,7.923,0,0,1,5.462,3.387,2.065,2.065,0,0,1,.2.331.886.886,0,0,0,.115.2,2.719,2.719,0,0,0,.357-1.534,1.641,1.641,0,0,1,1.085-1.827,2.117,2.117,0,0,1,.582-.085,1.929,1.929,0,0,1,1.211.433,1.316,1.316,0,0,1,.277,1.818c-.039.081-.078.162-.108.242l-.275.722a14.6,14.6,0,0,0-.93,3.03c-.122.782-.435,1.822-1.726,1.822a3.867,3.867,0,0,1-.939-.137l-1.065-.273a41.722,41.722,0,0,0-4.69-1.024,1.766,1.766,0,0,1-1.566-1.8,1.6,1.6,0,0,1,.39-1.228,1.3,1.3,0,0,1,.965-.391,2.04,2.04,0,0,1,.649.115,5.689,5.689,0,0,1,1.315.708,3.833,3.833,0,0,0,1.367.67c.075.014.15.032.227.05a1.609,1.609,0,0,0,.309.054c.084-.072.183-.215-.06-.563A5.171,5.171,0,0,0,99.2,2.727a5.8,5.8,0,0,0-.629.035,10.858,10.858,0,0,0-9.123,5.988A1.783,1.783,0,0,1,87.989,9.87Z" transform="translate(0)"/>
    <path class="cls-2" d="M99,1q.666,0,1.365.067a7.309,7.309,0,0,1,5.115,3.2c.22.281.244.753.849.753l.075,0a2.949,2.949,0,0,0,.641-2.066c0-.578.041-1.151.722-1.347a1.61,1.61,0,0,1,.444-.065,1.436,1.436,0,0,1,.9.326c.639.5.193,1,.01,1.491A19.645,19.645,0,0,0,107.9,7.2c-.154.984-.5,1.4-1.231,1.4a3.412,3.412,0,0,1-.817-.122,53.991,53.991,0,0,0-5.81-1.308A1.278,1.278,0,0,1,98.9,5.841c-.033-.692.3-1.095.855-1.095a1.541,1.541,0,0,1,.489.088c.985.332,1.694,1.2,2.752,1.4a3.706,3.706,0,0,0,.626.112.521.521,0,0,0,.462-.241.939.939,0,0,0-.112-1.108A5.683,5.683,0,0,0,99.2,2.226a6.331,6.331,0,0,0-.683.038A11.425,11.425,0,0,0,89,8.517c-.257.492-.57.853-1.015.853a1.109,1.109,0,0,1-.489-.128,1.1,1.1,0,0,1-.273-1.832C90.386,3.716,94.044,1,99,1m0-1C92.95,0,88.949,3.858,86.466,6.76a2.311,2.311,0,0,0-.572,1.956,2.055,2.055,0,0,0,1.163,1.423,2.1,2.1,0,0,0,.931.231,2.165,2.165,0,0,0,1.9-1.391,10.39,10.39,0,0,1,8.734-5.721,5.35,5.35,0,0,1,.575-.032,4.511,4.511,0,0,1,3.643,1.917A5.429,5.429,0,0,1,102,4.652a6.168,6.168,0,0,0-1.433-.766,2.537,2.537,0,0,0-.809-.141,1.808,1.808,0,0,0-1.327.546,2.077,2.077,0,0,0-.527,1.6,2.263,2.263,0,0,0,2,2.275,40.754,40.754,0,0,1,4.638,1.013q.532.138,1.064.273a4.364,4.364,0,0,0,1.062.152c1.24,0,1.986-.755,2.219-2.245a14.279,14.279,0,0,1,.9-2.934c.093-.239.186-.479.276-.721.025-.067.059-.135.091-.2a1.825,1.825,0,0,0-.421-2.425,2.449,2.449,0,0,0-1.519-.539,2.615,2.615,0,0,0-.72.1,2.12,2.12,0,0,0-1.447,2.307c0,.144-.006.277-.017.4A8.166,8.166,0,0,0,100.464.071C99.973.024,99.482,0,99,0Z" transform="translate(0)"/>
  </g>
  <g>
    <path class="cls-1" d="M92.062,22.55a2.067,2.067,0,0,1-.3-.023,1.563,1.563,0,0,1-1.076-.61,1.5,1.5,0,0,1-.237-1.164,21.455,21.455,0,0,0,.222-3.437c.008-.645.015-1.289.053-1.932a2,2,0,0,1,1.83-2.091,1.875,1.875,0,0,1,1.248.516,12.786,12.786,0,0,0,3.47,2.18,1.683,1.683,0,0,1,.9.865,1.174,1.174,0,0,1-.054.93A1.189,1.189,0,0,1,97,18.511a2.06,2.06,0,0,1-.67-.127,5.883,5.883,0,0,0,3.528,1.18,5.046,5.046,0,0,0,1.208-.143A8.682,8.682,0,0,0,106.97,12.7c.021-.151.031-.3.042-.456l.029-.379c.034-.484.1-1.491,1.27-1.491a1.728,1.728,0,0,1,1.343.519,1.549,1.549,0,0,1,.3,1.247,4.481,4.481,0,0,0-.019.563,3,3,0,0,1-.168,1.231c-1.545,3.575-3.822,7.322-8.989,8.015a10.809,10.809,0,0,1-1.423.1h0a7.713,7.713,0,0,1-4.8-1.572l-.159-.121a2.658,2.658,0,0,0-.747-.46,2.2,2.2,0,0,0-.032.574,3.048,3.048,0,0,1-.063.846A1.5,1.5,0,0,1,92.062,22.55Z" transform="translate(0)"/>
    <path class="cls-2" d="M108.31,10.87h.05c.737.025,1.206.354,1.1,1.2a6.328,6.328,0,0,1-.15,1.657c-1.677,3.879-3.966,7.1-8.6,7.718a10.214,10.214,0,0,1-1.358.095,7.245,7.245,0,0,1-4.5-1.472,2.552,2.552,0,0,0-1.483-.729c-.44.56-.148,1.238-.3,1.843a1,1,0,0,1-1.011.863,1.538,1.538,0,0,1-.225-.017.966.966,0,0,1-.894-1.193,47.6,47.6,0,0,0,.281-5.425c.058-.985.646-1.62,1.33-1.62a1.38,1.38,0,0,1,.915.389,13.355,13.355,0,0,0,3.6,2.264c.361.159.868.545.6,1.124a.69.69,0,0,1-.667.441,1.694,1.694,0,0,1-.573-.123A5.906,5.906,0,0,0,94.67,17.2a5.935,5.935,0,0,0,5.187,2.867,5.529,5.529,0,0,0,1.328-.158,9.2,9.2,0,0,0,6.282-7.145c.031-.237.042-.477.062-.716.046-.545.014-1.175.782-1.175m0-1c-1.082,0-1.677.658-1.768,1.956l-.01.135-.018.238c-.01.145-.02.289-.039.433a8.26,8.26,0,0,1-5.531,6.3,4.53,4.53,0,0,1-1.088.129,5.41,5.41,0,0,1-1.882-.347,1.788,1.788,0,0,0,.6-.721,1.665,1.665,0,0,0,.069-1.318,2.142,2.142,0,0,0-1.166-1.147,12.313,12.313,0,0,1-3.338-2.095,2.366,2.366,0,0,0-1.581-.643,2.483,2.483,0,0,0-2.328,2.561c-.039.66-.046,1.321-.053,1.96a20.807,20.807,0,0,1-.214,3.352,2.016,2.016,0,0,0,.324,1.543,2.081,2.081,0,0,0,1.409.812,2.534,2.534,0,0,0,.372.028,1.988,1.988,0,0,0,1.98-1.614,2.858,2.858,0,0,0,.082-.667l.136.1a8.2,8.2,0,0,0,5.1,1.672,11.269,11.269,0,0,0,1.49-.1c5.447-.73,7.875-4.826,9.382-8.312a3.452,3.452,0,0,0,.209-1.433,4.2,4.2,0,0,1,.015-.5,2.03,2.03,0,0,0-.42-1.633,2.148,2.148,0,0,0-1.64-.693Z" transform="translate(0)"/>
  </g>
  <g>
    <path class="cls-1" d="M56.3,22.822a2.6,2.6,0,0,1-1.921-1.03,6.34,6.34,0,0,1-.469-.633s-1.619.642-2.156.86a4.337,4.337,0,0,1-1.638.321h0a4.912,4.912,0,0,1-4.731-5.064,11.52,11.52,0,0,1,2.229-7.019,5.316,5.316,0,0,1,3.408-2.273,2.589,2.589,0,0,1,.466-.043,1.6,1.6,0,0,1,1.679,1.182,1.275,1.275,0,0,1-.2,1.123,1.834,1.834,0,0,1-1.46.594c-.911.017-1.519.485-2.1,1.614a13.939,13.939,0,0,0-1.147,2.767,1.872,1.872,0,0,1,1.269-.452,2.235,2.235,0,0,1,.311.022,7.64,7.64,0,0,0,1.086.08,7.473,7.473,0,0,0,2.629-.5,2.282,2.282,0,0,1,.791-.153c1.016,0,1.719.829,1.834,2.163.08.913.136,1.8.166,2.646a1.663,1.663,0,0,0,.118.766c-.018-.028.13-.046.476-.273a.991.991,0,0,1,.55-.17,1.206,1.206,0,0,1,.95.543,1.282,1.282,0,0,1-.033,1.421A2.491,2.491,0,0,1,56.3,22.822Zm-8.255-5.627c.059.965.41,2.585,2.115,2.585a4.053,4.053,0,0,0,1.479-.323,7.439,7.439,0,0,0,.722-.35c.256-.135.512-.27.778-.378.5-.2.575-.283.4-.817-.164-.487-.337-.524-.582-.524a2.11,2.11,0,0,0-.307.026c-.4.059-.794.134-1.189.209l-.437.083c-.114.021-.229.051-.344.08a3.315,3.315,0,0,1-.826.135l-.125,0a2.153,2.153,0,0,1-1.683-.764C48.042,17.165,48.043,17.18,48.044,17.194Z" transform="translate(0)"/>
    <path class="cls-2" d="M51.487,8.439a1.117,1.117,0,0,1,1.193.8c.185.78-.46,1.087-1.187,1.1a2.853,2.853,0,0,0-2.532,1.886,9.666,9.666,0,0,0-1.415,5c.119,1.973,1.1,3.055,2.615,3.055a4.543,4.543,0,0,0,1.665-.359c.516-.206.989-.52,1.5-.73.69-.282.961-.6.681-1.439-.223-.665-.57-.865-1.056-.865a2.621,2.621,0,0,0-.38.032c-.551.081-1.1.193-1.645.294a6.281,6.281,0,0,1-1.078.207q-.045,0-.09,0c-.645-.046-1.39-.266-1.46-.972-.082-.832.6-1.177,1.226-1.177a1.684,1.684,0,0,1,.239.017,8.092,8.092,0,0,0,1.157.085,7.921,7.921,0,0,0,2.8-.528,1.78,1.78,0,0,1,.617-.122c.768,0,1.246.652,1.337,1.706.075.872.133,1.746.164,2.62.024.679.113,1.221.566,1.221a1.6,1.6,0,0,0,.8-.328.5.5,0,0,1,.275-.088.739.739,0,0,1,.548.342c.206.277.095.583-.069.881A2.011,2.011,0,0,1,56.3,22.322a2.117,2.117,0,0,1-1.543-.857c-.251-.289-.45-.623-.66-.918-.905.361-1.72.68-2.531,1.009a3.851,3.851,0,0,1-1.45.284,4.4,4.4,0,0,1-4.231-4.573,11,11,0,0,1,2.132-6.716,4.85,4.85,0,0,1,3.1-2.076,2.05,2.05,0,0,1,.374-.035m0-1a3.053,3.053,0,0,0-.557.052,5.8,5.8,0,0,0-3.721,2.471,12,12,0,0,0-2.324,7.322,5.407,5.407,0,0,0,5.23,5.555,4.84,4.84,0,0,0,1.826-.357c.547-.222,1.1-.44,1.674-.669l.11-.044c.085.117.176.235.277.35a3.03,3.03,0,0,0,2.3,1.2,2.9,2.9,0,0,0,2.544-1.767,1.73,1.73,0,0,0-1.356-2.7,1.478,1.478,0,0,0-.644.15c-.031-.849-.085-1.72-.167-2.662-.167-1.931-1.315-2.62-2.333-2.62a2.779,2.779,0,0,0-.965.184,6.967,6.967,0,0,1-2.454.466,7.046,7.046,0,0,1-1.014-.075,2.709,2.709,0,0,0-.816.008c.222-.555.488-1.1.758-1.622.565-1.1,1.054-1.331,1.661-1.342a2.316,2.316,0,0,0,1.846-.788,1.793,1.793,0,0,0,.295-1.544,2.1,2.1,0,0,0-2.166-1.566Zm-1.636,10.98a3.753,3.753,0,0,0,.95-.151c.1-.026.206-.053.309-.072l.44-.083c.389-.074.778-.148,1.169-.206a1.627,1.627,0,0,1,.234-.021h.03a1.013,1.013,0,0,1,.077.182c.018.052.03.1.038.129-.036.018-.085.04-.149.066a9.161,9.161,0,0,0-.826.4,7.22,7.22,0,0,1-.67.326,3.566,3.566,0,0,1-1.295.288,1.414,1.414,0,0,1-1.42-1.048,3.739,3.739,0,0,0,.949.183c.054,0,.108.006.161.006Z" transform="translate(0)"/>
  </g>
  <g>
    <path class="cls-1" d="M72.384,44.5a6.934,6.934,0,0,1-2.146-.336.5.5,0,0,1-.248-.775c.772-1.037.527-2.082.243-3.292-.084-.355-.167-.711-.224-1.065l-.048-.325c-.149-1.064-.277-1.466-1.034-1.466a2.594,2.594,0,0,0-.388.032,1.312,1.312,0,0,1-.2.016,1.015,1.015,0,0,1-.931-.549,1.4,1.4,0,0,1,.207-1.442,3.17,3.17,0,0,1,2.459-1.535l.139,0c.367.024.736.042,1.105.059a13.358,13.358,0,0,1,5.393,1.021c.863.42,1.676.915,1.777,1.68s-.533,1.428-1.233,2.04c-.137.119-.281.229-.44.344l.117.054a10.23,10.23,0,0,1,1.552.821,1.946,1.946,0,0,1,.905,1.868,1.749,1.749,0,0,1-1.283,1.39c-.458.142-.914.3-1.372.466a12.9,12.9,0,0,1-4.346.989Zm1.539-3.4a.672.672,0,0,0-.322.046.464.464,0,0,0,.417.334,1.549,1.549,0,0,0,.261.022,2.494,2.494,0,0,0,1.064-.3,2,2,0,0,0-.749-.113C74.485,41.083,74.037,41.1,73.923,41.1Zm-1.417-4.521a.409.409,0,0,0-.176.024l.027.2c.032.8.141.8.3.8l.271,0c.99-.01,1.679-.06,2.16-.582a3.507,3.507,0,0,0-1.468-.322c-.278-.022-.556-.045-.824-.092A1.733,1.733,0,0,0,72.506,36.577Z" transform="translate(0)"/>
    <path class="cls-2" d="M70.07,34.26c.036,0,.071,0,.107,0,2.127.14,4.314.058,6.312,1.031,1.879.915,1.975,1.547.433,2.893-.3.259-.634.47-1.094.807A20.818,20.818,0,0,1,78.2,40.2a1.267,1.267,0,0,1-.242,2.369C76.146,43.121,74.37,44,72.383,44a6.473,6.473,0,0,1-1.994-.312c1.166-1.564.365-3.161.113-4.735-.158-.987-.166-2.212-1.575-2.212a3.1,3.1,0,0,0-.463.038.86.86,0,0,1-.129.01c-.569,0-.731-.635-.321-1.2a2.77,2.77,0,0,1,2.055-1.33m2.592,3.846h.021c1.124-.02,2.385.07,3.1-1.191-.84-.8-1.923-.63-2.9-.8a2.248,2.248,0,0,0-.381-.037c-.344,0-.681.116-.655.6.03.555-.012,1.431.811,1.431M74.279,42a4.462,4.462,0,0,0,2-.724,2.026,2.026,0,0,0-1.683-.693c-.226,0-.45.014-.671.014-.407,0-.847.091-.793.619a.883.883,0,0,0,.8.754,2.03,2.03,0,0,0,.344.03M70.07,33.26A3.64,3.64,0,0,0,67.208,35a1.891,1.891,0,0,0-.249,1.963,1.506,1.506,0,0,0,1.377.823,1.857,1.857,0,0,0,.279-.021,2.125,2.125,0,0,1,.313-.026c.325,0,.393,0,.539,1.036.016.113.032.225.049.334.06.378.147.745.23,1.1.3,1.258.446,2.07-.158,2.879a1,1,0,0,0,.5,1.55,7.426,7.426,0,0,0,2.3.36A13.29,13.29,0,0,0,76.9,43.979c.452-.16.9-.32,1.353-.46a2.239,2.239,0,0,0,1.63-1.792,2.442,2.442,0,0,0-1.116-2.356,7.811,7.811,0,0,0-1.018-.578,2.805,2.805,0,0,0,1.236-2.335c-.133-1-1.066-1.582-2.054-2.063a13.744,13.744,0,0,0-5.587-1.071c-.367-.017-.733-.035-1.1-.059-.058,0-.116-.006-.173-.006Z" transform="translate(0)"/>
  </g>
  <g>
    <path class="cls-1" d="M43.5,23.473a1.848,1.848,0,0,1-1.477-.77,1.481,1.481,0,0,1-.146-1.364c.693-1.9.124-3.626-.478-5.455-.132-.4-.265-.8-.383-1.208a3.707,3.707,0,0,0-1.331-2.265A3.493,3.493,0,0,0,38.653,14.7l-.062.3a21.146,21.146,0,0,0-.472,5.807,1.713,1.713,0,0,0,.037.217c.016.07.03.14.041.211a1.485,1.485,0,0,1-1.276,1.752,1.633,1.633,0,0,1-.39.049,1.479,1.479,0,0,1-1.406-1.317l-.148-.645a61.3,61.3,0,0,1-1.343-7.144,2.758,2.758,0,0,1,.109-1.152,1.366,1.366,0,0,1,1.349-.968,1.269,1.269,0,0,1,1.344,1.151l0,.04a8.216,8.216,0,0,1,1.2-2.292A2.823,2.823,0,0,1,39.82,9.393a2.778,2.778,0,0,1,2.035,1.095A7.175,7.175,0,0,1,43.233,13.3c.108.345.216.689.347,1.025a28.125,28.125,0,0,1,1.409,6.669l.056.433a1.942,1.942,0,0,1-.332,1.6,1.415,1.415,0,0,1-1.117.449Z" transform="translate(0)"/>
    <path class="cls-2" d="M39.82,9.893a2.309,2.309,0,0,1,1.662.928c.955,1.07,1.147,2.435,1.63,3.685a29.506,29.506,0,0,1,1.436,6.985c.108.843-.085,1.484-.953,1.484h-.073c-.8-.031-1.467-.655-1.172-1.463.913-2.5-.184-4.71-.851-6.975a3.888,3.888,0,0,0-1.833-2.712c-1.18.7-1.326,1.926-1.565,3.074a21.649,21.649,0,0,0-.481,5.944c.011.158.058.313.082.47.107.7-.319,1.046-.9,1.19a1.122,1.122,0,0,1-.269.035c-.533,0-.811-.452-.92-.929a66.784,66.784,0,0,1-1.481-7.73,2.28,2.28,0,0,1,.085-.941.872.872,0,0,1,.875-.626h.034a.759.759,0,0,1,.812.707c.09.787.129,1.581.293,2.4a12.627,12.627,0,0,1,1.807-4.4A2.363,2.363,0,0,1,39.82,9.893m0-1h0A3.288,3.288,0,0,0,37.246,10.4a7.756,7.756,0,0,0-.848,1.389,1.856,1.856,0,0,0-1.244-.482h-.062a1.872,1.872,0,0,0-1.823,1.308,3.27,3.27,0,0,0-.131,1.365,61.615,61.615,0,0,0,1.35,7.19l.151.657a1.972,1.972,0,0,0,1.894,1.706,2.128,2.128,0,0,0,.509-.064,1.983,1.983,0,0,0,1.651-2.312c-.012-.081-.029-.161-.046-.242a1.118,1.118,0,0,1-.028-.148,20.615,20.615,0,0,1,.463-5.669l.062-.306a4.187,4.187,0,0,1,.58-1.709,4.108,4.108,0,0,1,.818,1.732c.12.409.254.815.388,1.222.574,1.744,1.117,3.392.483,5.128a1.994,1.994,0,0,0,.2,1.814,2.348,2.348,0,0,0,1.873.991l.111,0a1.9,1.9,0,0,0,1.492-.618,2.437,2.437,0,0,0,.453-1.994l-.057-.447a28.425,28.425,0,0,0-1.438-6.771c-.122-.316-.226-.646-.336-1a7.674,7.674,0,0,0-1.482-2.995A3.251,3.251,0,0,0,39.82,8.893Z" transform="translate(0)"/>
  </g>
  <g>
    <path class="cls-1" d="M65,22.852c-3.417,0-6.948-2.019-7.711-4.408a7.507,7.507,0,0,0-.643-1.342,7.014,7.014,0,0,1-.75-1.663c-.3-1.2.628-1.672,1.244-1.987a2.108,2.108,0,0,0,.889-.647c1.037-1.774,2.878-2.768,5.47-2.955.081-.006.161-.009.241-.009a3,3,0,0,1,2.982,2.82c.167,1.526-.508,2.355-2.255,2.773l-.664.16c-1.239.3-2.521.608-3.8.839-.409.074-.472.164-.444.639a2.205,2.205,0,0,0,1.031,1.815,7.256,7.256,0,0,0,4.046,1.629,4.743,4.743,0,0,0,.526-.03c.163-.021.342-.03.521-.038.809-.037,1.067-.082,1.133-.773.045-.47.137-1.449,1.126-1.565.02,0,.1-.007.124-.007A1.712,1.712,0,0,1,69.349,19a1.664,1.664,0,0,1,.03,2.146,4.053,4.053,0,0,1-1.041.86A6.406,6.406,0,0,1,65,22.852ZM62.912,12.729a2.8,2.8,0,0,0-2.2.993l.343-.073c.766-.163,1.531-.326,2.3-.481.066-.013.129-.026.147-.236a.191.191,0,0,0-.011-.109.453.453,0,0,0-.269-.08C63.118,12.733,63.013,12.729,62.912,12.729Z" transform="translate(0)"/>
    <path class="cls-2" d="M63.74,10.34a2.486,2.486,0,0,1,2.485,2.375c.138,1.26-.36,1.87-1.874,2.232-1.474.353-2.947.725-4.438.994-.745.134-.891.534-.854,1.16a2.711,2.711,0,0,0,1.248,2.2,7.705,7.705,0,0,0,4.328,1.715,5.168,5.168,0,0,0,.583-.033c.859-.11,1.96.155,2.1-1.261.046-.478.105-1.048.687-1.116a.559.559,0,0,1,.065,0c.362,0,.653.355.868.674a1.2,1.2,0,0,1,.061,1.547,3.646,3.646,0,0,1-.916.752A5.9,5.9,0,0,1,65,22.351c-3.084,0-6.512-1.8-7.235-4.059-.337-1.055-1.129-1.969-1.384-2.976-.344-1.356,1.5-1.263,2.08-2.259a6.009,6.009,0,0,1,5.074-2.709c.069,0,.138-.007.205-.007m-3.5,3.995c1.072-.227,2.143-.459,3.218-.676A.678.678,0,0,0,64,12.976c.044-.5-.3-.7-.736-.732-.12-.01-.238-.015-.353-.015a3.4,3.4,0,0,0-2.924,1.615l.25.491m3.5-4.995q-.137,0-.277.01c-2.727.2-4.755,1.3-5.866,3.2a2,2,0,0,1-.685.455,2.181,2.181,0,0,0-1.5,2.555,7.394,7.394,0,0,0,.8,1.784,7.143,7.143,0,0,1,.6,1.25c.938,2.937,4.981,4.755,8.188,4.755a6.907,6.907,0,0,0,3.6-.922,4.555,4.555,0,0,0,1.166-.969,2.157,2.157,0,0,0,0-2.744,2.185,2.185,0,0,0-1.7-1.114,1.56,1.56,0,0,0-.182.011c-1.389.163-1.522,1.556-1.566,2.014a.648.648,0,0,1-.061.264,3.229,3.229,0,0,1-.6.057c-.193.009-.386.019-.569.042a4.135,4.135,0,0,1-.456.025,6.855,6.855,0,0,1-3.765-1.542,1.718,1.718,0,0,1-.812-1.432c0-.044,0-.08,0-.11l.037-.007c1.29-.233,2.574-.543,3.816-.842l.677-.163c1.254-.3,2.891-.97,2.635-3.313A3.488,3.488,0,0,0,63.74,9.34Z" transform="translate(0)"/>
  </g>
  <g>
    <path class="cls-1" d="M16.592,47.328a2.924,2.924,0,0,1-.638-.083,1.48,1.48,0,0,1-1.082-1.551,17.049,17.049,0,0,0-.9-3.681c-.089-.279-.181-.563-.271-.854a3.676,3.676,0,0,1-2.984,1.585c-.127,0-.257-.006-.391-.019-.041,0-.137-.006-.146-.005,0,.089.023.22.036.3.042.274.094.547.146.82a13.652,13.652,0,0,1,.235,1.563,1.783,1.783,0,0,1-.409,1.382,1.487,1.487,0,0,1-1.136.453c-1.081,0-1.193-1.038-1.241-1.481-.282-2.582-.733-5.333-1.379-8.409l-.043-.183A1.341,1.341,0,0,1,7.1,35.341a1.662,1.662,0,0,1,.594-.112,1.793,1.793,0,0,1,1.463.825,5.191,5.191,0,0,0,.427.512,2.815,2.815,0,0,1,.949,1.995,1.275,1.275,0,0,0,.183.639l.118.2c.2.345.3.509.472.522h0c.13,0,.186-.057.374-.433l.092-.179a5.57,5.57,0,0,0,.755-2.488,1.767,1.767,0,0,1,1.8-1.63h.007c.615,0,1.512.241,1.521,1.827A21.322,21.322,0,0,0,17.518,44.1l.295.83a1.7,1.7,0,0,1-.285,2.081,1.4,1.4,0,0,1-.936.319Z" transform="translate(0)"/>
    <path class="cls-2" d="M14.4,35.694c.78,0,.945.659.949,1.331.018,2.849,1.064,5.445,1.989,8.069.193.548.388,1.091-.135,1.533a.914.914,0,0,1-.612.2,2.455,2.455,0,0,1-.529-.071c-.581-.13-.648-.61-.693-1.108a32.71,32.71,0,0,0-1.49-5.62c-.885,1.424-1.838,2.215-3.168,2.215q-.168,0-.343-.017-.088-.008-.163-.008c-.617,0-.56.42-.489.877.12.783.318,1.558.376,2.344.051.694-.234,1.3-1.046,1.3h0c-.623,0-.692-.558-.744-1.035-.31-2.844-.8-5.658-1.386-8.458-.106-.505-.383-1.156.357-1.438a1.164,1.164,0,0,1,.416-.079,1.307,1.307,0,0,1,1.052.61c.482.7,1.309,1.2,1.287,2.211a1.773,1.773,0,0,0,.255.908c.24.4.445.923.977.966l.072,0c.505,0,.658-.46.88-.879a6.157,6.157,0,0,0,.813-2.7,1.263,1.263,0,0,1,1.318-1.15H14.4m0-1-.1,0a2.249,2.249,0,0,0-2.276,2.11,5.12,5.12,0,0,1-.7,2.274l-.052.1-.013-.024c-.042-.075-.084-.148-.126-.218a.786.786,0,0,1-.111-.367A3.267,3.267,0,0,0,9.95,36.231a4.924,4.924,0,0,1-.387-.461,2.284,2.284,0,0,0-1.874-1.04,2.164,2.164,0,0,0-.772.144c-.976.372-1.319,1.183-1.019,2.411.014.057.028.113.039.167.642,3.057,1.091,5.792,1.371,8.36.139,1.278.724,1.926,1.737,1.927a1.977,1.977,0,0,0,1.5-.614,2.294,2.294,0,0,0,.54-1.759,14.151,14.151,0,0,0-.242-1.617c-.032-.169-.064-.337-.094-.506a3.982,3.982,0,0,0,2.725-1.117l.013.04a16.749,16.749,0,0,1,.882,3.574,1.978,1.978,0,0,0,1.47,1.993,3.409,3.409,0,0,0,.748.095,1.891,1.891,0,0,0,1.258-.437,2.187,2.187,0,0,0,.436-2.621l-.3-.842a20.947,20.947,0,0,1-1.635-6.909c-.013-2.157-1.5-2.325-1.949-2.325Z" transform="translate(0)"/>
  </g>
  <g>
    <path class="cls-1" d="M26.526,74.611a1.445,1.445,0,0,1-1.06-.424,1.86,1.86,0,0,1-.472-1.359c.008-.4.031-.8.055-1.2A11.636,11.636,0,0,0,25,68.945a1.439,1.439,0,0,0-.372.093,2.139,2.139,0,0,1-.7.145,1.271,1.271,0,0,1-.205-.016,1.552,1.552,0,0,1-1.479-1.153A1.345,1.345,0,0,1,23.3,66.382l.166-.057c.178-.062.356-.124.538-.176,1.447-.415,1.594-.457,1.432-1.925l-.871.194c-1.138.253-2.271.505-3.4.773a3.292,3.292,0,0,1-.768.106,1.311,1.311,0,0,1-1.378-1.105,1.329,1.329,0,0,1,.166-1.083,1.959,1.959,0,0,1,1.417-.674l.339-.049c.442-.064.886-.128,1.33-.171,1.582-.153,2.871-.349,3.869-1.336a2.1,2.1,0,0,1,1.518-.64,2.714,2.714,0,0,1,.737.109,1.649,1.649,0,0,1,1.216,1,1.678,1.678,0,0,1-.314,1.567c-.083.122-.171.238-.258.354a2.447,2.447,0,0,0-.566,1.076c-.06.357-.2,1.193-.068,1.349.084.1.464.148,1.132.148h.257a8.624,8.624,0,0,1,1.752.2,1.071,1.071,0,0,1,.707.478,1.082,1.082,0,0,1,.115.856c-.177.667-.537,1.005-1.074,1.005-.477-.012-.922-.038-1.367-.063-.428-.024-.854-.049-1.282-.061h-.007a.84.84,0,0,0-.611.158.938.938,0,0,0-.157.635c.007.294,0,.588,0,.883a8.555,8.555,0,0,0,.232,2.548,1.684,1.684,0,0,1-.1,1.392,1.536,1.536,0,0,1-1.05.7A2.074,2.074,0,0,1,26.526,74.611Z" transform="translate(0)"/>
    <path class="cls-2" d="M27.655,60.74a2.207,2.207,0,0,1,.6.09,1.049,1.049,0,0,1,.626,1.8,3.974,3.974,0,0,0-.906,1.63c-.3,1.81-.175,2.08,1.554,2.08l.261,0h.06a8.022,8.022,0,0,1,1.589.192.552.552,0,0,1,.439.718c-.078.3-.212.632-.591.632h-.017c-.873-.023-1.745-.1-2.618-.124h-.071c-.828,0-1.239.414-1.218,1.306a13.17,13.17,0,0,0,.257,3.564,1.013,1.013,0,0,1-.772,1.454,1.577,1.577,0,0,1-.322.035c-.694,0-1.046-.547-1.032-1.274a17.768,17.768,0,0,0-.054-4.263.768.768,0,0,0-.429-.13c-.365,0-.71.238-1.075.238a.78.78,0,0,1-.125-.01c-.5-.081-.95-.2-1.07-.763-.123-.58.213-.883.717-1.054.226-.077.451-.16.681-.226,2.019-.579,2.019-.578,1.726-3.014-1.615.363-3.22.711-4.819,1.09a2.9,2.9,0,0,1-.652.092.817.817,0,0,1-.889-.714c-.19-.853.488-1.058,1.165-1.154.548-.078,1.1-.164,1.646-.217a6.367,6.367,0,0,0,4.174-1.478,1.6,1.6,0,0,1,1.166-.5m0-1a2.617,2.617,0,0,0-1.869.784c-.883.873-2.035,1.045-3.567,1.194-.45.044-.9.108-1.346.173l-.343.049a2.429,2.429,0,0,0-1.759.885A1.944,1.944,0,0,0,20.394,65.8a3.8,3.8,0,0,0,.883-.119c1.131-.269,2.266-.521,3.4-.775l.309-.069A2.631,2.631,0,0,1,25,65.3a8.354,8.354,0,0,1-1.133.371c-.19.055-.375.118-.56.182l-.169.058a1.833,1.833,0,0,0-1.373,2.209,2.036,2.036,0,0,0,1.888,1.543,1.778,1.778,0,0,0,.285.023,2.256,2.256,0,0,0,.643-.1,15,15,0,0,1-.03,2.024c-.024.4-.047.81-.055,1.215a2.353,2.353,0,0,0,.614,1.718,1.936,1.936,0,0,0,1.417.574,2.585,2.585,0,0,0,.527-.057,2,2,0,0,0,1.377-.93,2.168,2.168,0,0,0,.148-1.792,8.167,8.167,0,0,1-.211-2.4c0-.3,0-.6,0-.9a.956.956,0,0,1,.022-.263.837.837,0,0,1,.2-.019c.467.012.89.037,1.312.061.45.026.9.052,1.351.063h0a1.776,1.776,0,0,0,1.425-2.624,1.565,1.565,0,0,0-1.032-.7,9.034,9.034,0,0,0-1.789-.212h-.073l-.249,0a6.16,6.16,0,0,1-.683-.028,8.316,8.316,0,0,1,.115-.886,2,2,0,0,1,.471-.857c.091-.121.183-.244.272-.372a2.031,2.031,0,0,0-1.177-3.327,3.214,3.214,0,0,0-.874-.128Z" transform="translate(0)"/>
  </g>
  <g>
    <path class="cls-1" d="M82.863,43.021a1.753,1.753,0,0,1-1.294-.674,5.807,5.807,0,0,1-1.368-3.6c-.008-.134-.012-.27-.016-.4-.026-.936-.074-1.357-.926-1.536a1.02,1.02,0,0,1-.8-.717,1.331,1.331,0,0,1,.384-1.288,4.041,4.041,0,0,1,2.813-1.517,3.192,3.192,0,0,1,.523.044c1,.168,2.007.3,3.014.432.731.1,1.464.191,2.193.3l.136.019a1.381,1.381,0,0,1,1.4,1.066,1.66,1.66,0,0,1-.91,1.946c-.717.361-1.436.717-2.218,1.1l.267.084c1.114.353,2.147.681,3.176,1.023a1.917,1.917,0,0,1,1.54,1.774,1.317,1.317,0,0,1-.757,1.218,2.081,2.081,0,0,1-.959.255,1.881,1.881,0,0,1-1.361-.629c-1.159-1.187-2.639-1.324-4.219-1.375a1.531,1.531,0,0,0,.131.346c.031.067.063.134.09.2a1.3,1.3,0,0,0,.113.192.984.984,0,0,1-.075,1.418,1.406,1.406,0,0,1-.872.316Zm.264-6.892a.244.244,0,0,0-.18.069.226.226,0,0,0-.055.17,1.852,1.852,0,0,0,.276-.042c.229-.045.448-.1.666-.162-.241-.02-.474-.034-.706-.036l0-.5Z" transform="translate(0)"/>
    <path class="cls-2" d="M81.654,33.786a2.661,2.661,0,0,1,.44.038c1.731.29,3.479.474,5.216.734.446.067,1,.066,1.118.687a1.173,1.173,0,0,1-.645,1.4c-1.041.525-2.089,1.038-3.326,1.651,1.694.541,3.161,1,4.617,1.481.626.208,1.183.523,1.2,1.31a.831.831,0,0,1-.488.765,1.579,1.579,0,0,1-.728.2,1.389,1.389,0,0,1-1-.479c-1.406-1.439-3.215-1.489-5-1.538a1.426,1.426,0,0,0,.183,1.25c.14.339.6.706.191,1.027a.9.9,0,0,1-.562.209,1.272,1.272,0,0,1-.916-.5,5.357,5.357,0,0,1-1.248-3.3c-.06-1.011.122-2.094-1.338-2.4-.555-.117-.575-.76-.169-1.16a3.555,3.555,0,0,1,2.461-1.372m1.2,3.086a2.209,2.209,0,0,0,.411-.055,5.676,5.676,0,0,0,2.329-.971c-.947-.091-1.7-.21-2.46-.217h-.007a.714.714,0,0,0-.733.77c.02.376.216.473.46.473m-1.2-4.086a4.446,4.446,0,0,0-3.163,1.661,1.81,1.81,0,0,0-.512,1.786A1.526,1.526,0,0,0,79.156,37.3c.454.1.5.105.529,1.061,0,.14.008.281.016.42a6.366,6.366,0,0,0,1.49,3.9,2.239,2.239,0,0,0,1.672.847,1.9,1.9,0,0,0,1.182-.424,1.39,1.39,0,0,0,.231-2.01,4.4,4.4,0,0,1,3.061,1.185,2.371,2.371,0,0,0,1.72.78,2.571,2.571,0,0,0,1.189-.311,1.825,1.825,0,0,0,1.026-1.672A2.354,2.354,0,0,0,89.39,38.83c-.744-.248-1.49-.487-2.268-.735.376-.187.744-.37,1.11-.555a2.177,2.177,0,0,0,1.176-2.488,1.878,1.878,0,0,0-1.824-1.466l-.127-.017c-.732-.11-1.465-.206-2.2-.3-.988-.13-2.01-.263-3-.429a3.678,3.678,0,0,0-.605-.051Z" transform="translate(0)"/>
  </g>
  <g>
    <path class="cls-1" d="M50.562,44.511c-1.156,0-1.855-.553-1.87-1.48a11.759,11.759,0,0,0-.572-2.981l-.047-.164c-.39-1.381-.876-3.1,1.143-4.478a4.556,4.556,0,0,1,2.643-.83,9.237,9.237,0,0,1,2.518.448,1.221,1.221,0,0,1,.437.254.977.977,0,0,0,.093.071c.927.6,1.792,1.275,1.857,2.178s-.684,1.683-1.5,2.4c-.056.049-.114.093-.174.138-.033.025-.063.047-.091.069l.105.036a5.856,5.856,0,0,0,1.853.419l.135,0a1.5,1.5,0,0,1,1.533,1.181,1.515,1.515,0,0,1-.145,1.328,1.024,1.024,0,0,1-.859.455A1.538,1.538,0,0,1,57,43.405a15.533,15.533,0,0,0-3.46-.905c-.556-.1-1.127-.2-1.689-.335.015.046.037.111.055.161a1.527,1.527,0,0,1,.112.608,1.438,1.438,0,0,1-1.427,1.578Zm1.754-7.246c-.643,0-.806.2-.881.57a.392.392,0,0,0,.007.26c.082.123.44.2.678.244l.116.024a1.522,1.522,0,0,0,.308.033,1.275,1.275,0,0,0,1.037-.579.822.822,0,0,0-.811-.529C52.621,37.276,52.467,37.265,52.316,37.265Z" transform="translate(0)"/>
    <path class="cls-2" d="M51.857,35.077a8.781,8.781,0,0,1,2.381.429,1.739,1.739,0,0,1,.4.265c2.09,1.348,2.156,2.155.3,3.777-.236.206-.554.328-.645.878a9.3,9.3,0,0,0,2.669.661c.05,0,.1,0,.152,0h.06a.976.976,0,0,1,.973.813,1.039,1.039,0,0,1-.074.912.519.519,0,0,1-.448.24,1.071,1.071,0,0,1-.415-.1c-1.778-.774-3.707-.876-5.52-1.338-.67.387-.131.874-.161,1.289-.045.644-.217,1.106-.933,1.113H50.56c-.678,0-1.356-.217-1.368-.988a12.774,12.774,0,0,0-.638-3.273c-.434-1.538-.71-2.8.943-3.93a4.043,4.043,0,0,1,2.36-.743m.686,3.819a1.839,1.839,0,0,0,1.576-.982,1.319,1.319,0,0,0-1.307-1.124c-.164-.014-.332-.026-.5-.026-.622,0-1.206.163-1.371.97-.184.9.615,1,1.189,1.117a2,2,0,0,0,.41.044m-.686-4.819a5.037,5.037,0,0,0-2.924.917c-2.315,1.58-1.753,3.573-1.342,5.027l.048.17a11.2,11.2,0,0,1,.553,2.848c.015.91.644,1.972,2.368,1.972.7-.006,1.835-.279,1.959-2.043,0-.051,0-.1,0-.149.313.062.624.118.93.173a14.94,14.94,0,0,1,3.351.872,2.019,2.019,0,0,0,.814.185,1.509,1.509,0,0,0,1.27-.67,2.016,2.016,0,0,0,.217-1.744,1.974,1.974,0,0,0-1.938-1.552l-.106,0-.106,0A3.5,3.5,0,0,1,56,39.931a3.182,3.182,0,0,0,1.264-2.439c-.081-1.121-1.05-1.893-2.085-2.561l-.046-.038a1.689,1.689,0,0,0-.616-.348,9.661,9.661,0,0,0-2.656-.468Zm.13,3.722a1.151,1.151,0,0,1,.328-.035c.137,0,.276.01.411.022a1.067,1.067,0,0,1,.147.022.6.6,0,0,1-.33.088,1,1,0,0,1-.2-.023l-.12-.025c-.065-.013-.151-.031-.232-.05Z" transform="translate(0)"/>
  </g>
  <g>
    <path class="cls-1" d="M77.564,61.748c-.969-.1-1.046-.987-1.083-1.414l-.012-.138c-.034-.332-.061-.666-.086-1a11.956,11.956,0,0,0-.482-2.987,1.666,1.666,0,0,0-.318.024c-1.051.214-1.181.384-1.2.416s-.022.24.6,1.062a1.864,1.864,0,0,0,.209.214,1.362,1.362,0,0,1,.55.949,1.158,1.158,0,0,1-.4.838,1.724,1.724,0,0,1-1.227.563,1.888,1.888,0,0,1-1.37-.687,3.074,3.074,0,0,1-.662-.921c-.078-.192-.145-.393-.211-.593-.315-.955-.509-1.413-1.46-1.413a.986.986,0,0,1-.916-.842,1.066,1.066,0,0,1,.569-1.232c.635-.295.776-.562.691-1.3a1.4,1.4,0,0,1,.327-1.131,1.816,1.816,0,0,1,1.388-.533,1.417,1.417,0,0,1,1.06.4,1.652,1.652,0,0,1,.394,1.235c-.013.485.088.614.108.635a.3.3,0,0,0,.185.041,3.021,3.021,0,0,0,.559-.079,4.424,4.424,0,0,1,.627-.092c.314-.015.469-.085.509-.146s.09-.246-.153-.874l-.044-.111a1.743,1.743,0,0,1,.112-1.954,1.427,1.427,0,0,1,1.163-.5,3.431,3.431,0,0,1,.373.023,1.486,1.486,0,0,1,1.351,1.7c-.017,1.015.055,1.253.8,1.271A1.22,1.22,0,0,1,80.7,54.531a1.384,1.384,0,0,1-1.179,1.295,1.028,1.028,0,0,0-.666.236c-.16.2-.087.679-.017,1.138l.017.112c.041.272.107.542.173.813a4.77,4.77,0,0,1,.172,2.188c-.272,1.255-1.039,1.442-1.472,1.442A1.591,1.591,0,0,1,77.564,61.748Z" transform="translate(0)"/>
    <path class="cls-2" d="M77,50.676a2.973,2.973,0,0,1,.319.02c.706.077.915.6.9,1.193-.016.936.013,1.75,1.287,1.779a.72.72,0,0,1,.7.812.9.9,0,0,1-.727.847c-1.467.13-1.26,1.094-1.115,2.058a7.742,7.742,0,0,1,.349,2.822c-.113.523-.375,1.047-.982,1.047a1.137,1.137,0,0,1-.114-.006c-.619-.062-.6-.625-.648-1.1a15.526,15.526,0,0,0-.723-4.444,5.459,5.459,0,0,0-.762.042c-1.851.376-2.013.792-.894,2.269.306.4,1.042.714.407,1.345a1.246,1.246,0,0,1-.875.417,1.4,1.4,0,0,1-1-.526,2.714,2.714,0,0,1-.566-.767c-.42-1.044-.491-2.321-2.134-2.321h-.023c-.382,0-.669-.862-.113-1.121a1.491,1.491,0,0,0,.977-1.808c-.086-.744.476-1.108,1.216-1.108H72.5c.747.007.948.511.932,1.121-.026.963.331,1.188.793,1.188.383,0,.839-.155,1.209-.172,1.247-.058,1.119-.87.8-1.7-.2-.529-.456-1.037-.014-1.562a.945.945,0,0,1,.78-.324m0-1h0a1.922,1.922,0,0,0-1.545.68,2.24,2.24,0,0,0-.2,2.46l.042.107a3.409,3.409,0,0,1,.114.338h-.026a4.772,4.772,0,0,0-.7.1c-.087.017-.175.035-.256.048,0-.04,0-.086,0-.14a2.126,2.126,0,0,0-.533-1.6,1.885,1.885,0,0,0-1.39-.551h0a2.326,2.326,0,0,0-1.791.7,1.918,1.918,0,0,0-.45,1.522c.063.546.012.592-.406.786a1.557,1.557,0,0,0-.847,1.795,1.475,1.475,0,0,0,1.382,1.233h0c.589,0,.69.11,1.007,1.07.069.21.14.421.222.624A3.46,3.46,0,0,0,72.36,59.9a2.372,2.372,0,0,0,1.76.872,2.215,2.215,0,0,0,1.58-.708,2.255,2.255,0,0,0,.23-.266q.019.224.042.447l.012.131a1.773,1.773,0,0,0,1.531,1.866,2.146,2.146,0,0,0,.214.011,2.011,2.011,0,0,0,1.959-1.836,5.224,5.224,0,0,0-.174-2.412c-.066-.271-.127-.526-.164-.77l-.017-.113a4,4,0,0,1-.071-.743,1.233,1.233,0,0,1,.3-.057A1.881,1.881,0,0,0,81.2,54.582a1.72,1.72,0,0,0-1.668-1.912,1.021,1.021,0,0,1-.271-.034,3.421,3.421,0,0,1-.039-.728,1.987,1.987,0,0,0-1.8-2.2A3.985,3.985,0,0,0,77,49.676Zm-1.976,7.21c.121-.038.289-.083.524-.134a8.215,8.215,0,0,1,.2,1.007c-.073-.076-.143-.143-.2-.2a1.393,1.393,0,0,1-.152-.15c-.175-.232-.29-.4-.365-.523Z" transform="translate(0)"/>
  </g>
  <g>
    <path class="cls-1" d="M95.418,75.153a2.859,2.859,0,0,1-1.944-.755,3.035,3.035,0,0,1-.9-3.573l.167-.432a7.9,7.9,0,0,1,1.3-2.473A3.757,3.757,0,0,1,96.858,66.4a3.092,3.092,0,0,1,1.108.214,4.364,4.364,0,0,0,1.232.2,2.989,2.989,0,0,1,2.35.9,2.948,2.948,0,0,1,.317,2.509,5.358,5.358,0,0,0-.115,1.038c.026.838.224.977.843.992a1.039,1.039,0,0,1,1.046,1.141,1.363,1.363,0,0,1-.734,1.172,2.686,2.686,0,0,1-1.311.382h0c-.867,0-1.644-.51-2.539-1.687-.174.146-.338.3-.5.442a5.211,5.211,0,0,1-1.663,1.154A4.159,4.159,0,0,1,95.418,75.153Zm1.872-5.94a2.083,2.083,0,0,0-1.829,2.165c-.113.914.139,1.089.384,1.184a.335.335,0,0,0,.119.026c.152,0,.344-.239.512-.45l.154-.189a5.785,5.785,0,0,0,1.3-2.012.776.776,0,0,0,.031-.554c-.024-.035-.142-.149-.611-.169l-.064-.5Z" transform="translate(0)"/>
    <path class="cls-2" d="M96.858,66.9a2.571,2.571,0,0,1,.929.18c1.121.432,2.587-.036,3.371.944.721.9.058,2.153.093,3.25.031.988.342,1.451,1.33,1.476a.542.542,0,0,1,.559.618.86.86,0,0,1-.479.758,2.2,2.2,0,0,1-1.068.319c-.791,0-1.53-.593-2.439-1.9a12.175,12.175,0,0,1-2.438,1.841,3.692,3.692,0,0,1-1.3.268,2.351,2.351,0,0,1-1.612-.629,2.537,2.537,0,0,1-.764-3.016,9.141,9.141,0,0,1,1.382-2.761A3.322,3.322,0,0,1,96.858,66.9m-.893,6.189c.472,0,.762-.482,1.046-.814a6.217,6.217,0,0,0,1.4-2.193c.292-.966-.142-1.33-1.039-1.368l-.085,0a2.569,2.569,0,0,0-2.328,2.633c-.094.758,0,1.411.7,1.682a.826.826,0,0,0,.3.06m.893-7.189a4.23,4.23,0,0,0-3.189,1.694,8.425,8.425,0,0,0-1.391,2.62c-.055.143-.109.286-.165.428a3.548,3.548,0,0,0,1.03,4.131,3.344,3.344,0,0,0,2.276.881,4.635,4.635,0,0,0,1.651-.333,5.678,5.678,0,0,0,1.822-1.252l.1-.089a3.486,3.486,0,0,0,2.6,1.465A3.164,3.164,0,0,0,103.147,75a1.862,1.862,0,0,0,.992-1.584,1.594,1.594,0,0,0-.408-1.176,1.57,1.57,0,0,0-1.125-.489.923.923,0,0,1-.3-.043,3.009,3.009,0,0,1-.051-.465,5.024,5.024,0,0,1,.108-.937,3.383,3.383,0,0,0-.42-2.906,3.429,3.429,0,0,0-2.7-1.085,4.049,4.049,0,0,1-1.089-.167,3.58,3.58,0,0,0-1.288-.247Zm-.91,6.1a1.733,1.733,0,0,1,.007-.526c0-.02,0-.039.006-.059.063-.968.634-1.7,1.33-1.7.075,0,.136.008.186.013q-.008.03-.019.067a5.324,5.324,0,0,1-1.179,1.8c-.082.1-.137.164-.193.234-.038.048-.089.112-.138.169Z" transform="translate(0)"/>
  </g>
  <g>
    <path class="cls-1" d="M112.269,75.821a1.444,1.444,0,0,1-1.28-.822,6.071,6.071,0,0,1-.5-1.4c-.177-.675-.323-1.3-.5-2.036l-.037-.155-.127.163c-.521.668-.956,1.224-1.4,1.775a2.4,2.4,0,0,1-1.985.95,4.245,4.245,0,0,1-.878-.1,2.256,2.256,0,0,1-1.7-2.184c-.136-.793-.238-1.593-.341-2.393-.069-.544-.139-1.087-.219-1.63a1.445,1.445,0,0,1,.24-1.153,1.506,1.506,0,0,1,1.108-.512q.157-.014.3-.014a1.453,1.453,0,0,1,1.6,1.4,10.606,10.606,0,0,1,.029,1.361,7.241,7.241,0,0,0,.14,1.971,9.315,9.315,0,0,0,1.905-3.106,4.793,4.793,0,0,0,.188-.576c.2-.695.5-1.745,1.713-1.745a2.479,2.479,0,0,1,.5.056c1.577.328,1.473,1.626,1.411,2.4a4.493,4.493,0,0,0-.024.63l.012.183a8.778,8.778,0,0,0,1.125,4.59,1.509,1.509,0,0,1,.291,1.212,1.419,1.419,0,0,1-.759.9,1.71,1.71,0,0,1-.825.229Z" transform="translate(0)"/>
    <path class="cls-2" d="M110.535,66.117a1.978,1.978,0,0,1,.4.045c1.489.31.928,1.622.989,2.575a9.573,9.573,0,0,0,1.221,5.023.854.854,0,0,1-.3,1.394,1.217,1.217,0,0,1-.583.167.956.956,0,0,1-.842-.563,5.878,5.878,0,0,1-.466-1.343c-.239-.911-.445-1.83-.758-3.133-.9,1.145-1.522,1.954-2.16,2.753a1.917,1.917,0,0,1-1.595.762,3.793,3.793,0,0,1-.776-.09c-1.008-.212-1.178-1-1.311-1.778-.227-1.33-.36-2.676-.558-4.012-.107-.722.236-1.037.9-1.094.089-.008.176-.012.261-.012a.958.958,0,0,1,1.1.953c.137,1.3-.23,2.675.442,4.143a8.837,8.837,0,0,0,2.588-3.769c.344-.789.332-2.02,1.444-2.02m0-1c-1.593,0-2,1.424-2.194,2.108a4.5,4.5,0,0,1-.166.513,12.382,12.382,0,0,1-1.091,2.1c-.005-.248,0-.5,0-.754a11.229,11.229,0,0,0-.032-1.423,1.948,1.948,0,0,0-2.1-1.849c-.112,0-.228.006-.346.016a1.984,1.984,0,0,0-1.458.7,1.927,1.927,0,0,0-.343,1.537c.08.54.149,1.081.219,1.622.1.789.205,1.6.343,2.411a2.744,2.744,0,0,0,2.091,2.589,4.749,4.749,0,0,0,.981.111,2.909,2.909,0,0,0,2.376-1.138c.289-.362.576-.726.886-1.123.1.4.187.765.283,1.133a6.721,6.721,0,0,0,.557,1.571,1.947,1.947,0,0,0,1.719,1.081,2.2,2.2,0,0,0,1.066-.291,1.9,1.9,0,0,0,1-1.223,1.982,1.982,0,0,0-.364-1.608,8.431,8.431,0,0,1-1.04-4.349l-.011-.176a4.359,4.359,0,0,1,.023-.558c.06-.752.2-2.513-1.807-2.932a2.989,2.989,0,0,0-.606-.066Z" transform="translate(0)"/>
  </g>
  <g>
    <path class="cls-1" d="M55.95,61.9c-1.8,0-2.385-2.042-2.666-3.579-.038-.209-.1-.414-.145-.582l-.055-.2a.493.493,0,0,1-.017-.142,4.255,4.255,0,0,1,2.312-3.794,4.63,4.63,0,0,1,2.093-.662,2.421,2.421,0,0,1,1.968,1.046.425.425,0,0,0,.063.068c-.019-.024.063-.077.119-.112a1.661,1.661,0,0,1,.51-.243,2.336,2.336,0,0,1,.538-.066,1.386,1.386,0,0,1,1.166.532,1.435,1.435,0,0,1,.138,1.315,6.038,6.038,0,0,0,.117,4.1A1.308,1.308,0,0,1,61.735,61a1.1,1.1,0,0,1-.737.3,1.61,1.61,0,0,1-.958-.4c-.1-.081-.2-.168-.3-.254-.188-.172-.311-.276-.409-.276a.846.846,0,0,0-.446.218A5.214,5.214,0,0,1,55.95,61.9Zm1.226-5.667a1.251,1.251,0,0,0-1.014.521,1.391,1.391,0,0,0-.2,1.252c.162.525.283.845.621.964a.484.484,0,0,0,.156.032c.144,0,.278-.15.481-.4.058-.07.115-.139.174-.2a4.179,4.179,0,0,0,1.1-2.285.373.373,0,0,0-.07-.006,1.663,1.663,0,0,0-.346.059,2.38,2.38,0,0,1-.563.085,1.373,1.373,0,0,1-.168-.01A1.39,1.39,0,0,0,57.175,56.236Z" transform="translate(0)"/>
    <path class="cls-2" d="M57.472,53.445a1.92,1.92,0,0,1,1.572.852.526.526,0,0,0,.408.256c.271,0,.517-.3.794-.362a1.833,1.833,0,0,1,.423-.053A.818.818,0,0,1,61.5,55.33a6.559,6.559,0,0,0,.122,4.423.811.811,0,0,1-.219.879.592.592,0,0,1-.4.169,1.147,1.147,0,0,1-.652-.3c-.352-.272-.6-.635-1.01-.635a1.285,1.285,0,0,0-.746.319A4.862,4.862,0,0,1,55.95,61.4c-1.114,0-1.786-1.048-2.174-3.169-.057-.311-.156-.615-.208-.817a3.744,3.744,0,0,1,2.045-3.367,4.2,4.2,0,0,1,1.859-.6m.043,2.312a.838.838,0,0,1-.105-.006,1.864,1.864,0,0,0-.235-.015,1.838,1.838,0,0,0-1.7,2.421c.156.5.329,1.074.933,1.288a.965.965,0,0,0,.322.06c.479,0,.738-.445,1.027-.766a4.612,4.612,0,0,0,1.259-2.88.839.839,0,0,0-.6-.245c-.309,0-.609.144-.908.144m-.043-3.312a5.053,5.053,0,0,0-2.325.72,4.735,4.735,0,0,0-2.578,4.222,1,1,0,0,0,.031.28c.017.065.038.139.061.22.043.153.1.338.132.527.181.986.73,3.989,3.158,3.989a5.651,5.651,0,0,0,3.239-1.415c.042-.031.077-.055.106-.073l.112.1c.1.095.212.191.327.281A2.067,2.067,0,0,0,61,61.8a1.589,1.589,0,0,0,1.071-.425,1.8,1.8,0,0,0,.492-1.962,5.561,5.561,0,0,1-.112-3.775,1.92,1.92,0,0,0-.208-1.764,1.9,1.9,0,0,0-1.571-.738,2.836,2.836,0,0,0-.654.08,1.756,1.756,0,0,0-.434.171,2.847,2.847,0,0,0-2.109-.943Zm.043,4.312a2.166,2.166,0,0,0,.322-.025,3.98,3.98,0,0,1-.819,1.337c-.063.07-.125.145-.188.221-.044.053-.1.122-.15.176a1.869,1.869,0,0,1-.243-.591.905.905,0,0,1,.125-.821.751.751,0,0,1,.611-.317.869.869,0,0,1,.109.007,1.837,1.837,0,0,0,.231.014Z" transform="translate(0)"/>
  </g>
  <g>
    <path class="cls-1" d="M85.475,75.732a2.622,2.622,0,0,1-1.474-.5,1.524,1.524,0,0,1-.582-1.76c.018-.106.036-.216.049-.331a14.474,14.474,0,0,0-.16-4.349,2.625,2.625,0,0,1,.32-2.266,2.549,2.549,0,0,1,2.106-.729q.139,0,.287.006c2.559.1,4.112,1.792,5.483,3.289a1.439,1.439,0,0,1,.312,1.05c.129,1.532-.275,2.443-1.345,3.041-.649.363-1.291.738-1.933,1.113-.661.387-1.323.773-1.991,1.146A2.184,2.184,0,0,1,85.475,75.732Zm.823-6.1a4.78,4.78,0,0,1,.123,1.281c0,.3.009.628.039.952.038.414.222.414.355.414A4.308,4.308,0,0,0,89,70.888c.031-.694-.335-1.166-1.315-1.638-.279-.135-.56-.269-.846-.387a5.58,5.58,0,0,0-.532-.2A7.751,7.751,0,0,0,86.3,69.634Z" transform="translate(0)"/>
    <path class="cls-2" d="M85.733,66.3c.087,0,.177,0,.27.005,2.3.087,3.732,1.6,5.133,3.127a.986.986,0,0,1,.179.693l0,0c.132,1.414-.213,2.14-1.085,2.628-1.317.737-2.606,1.524-3.924,2.26a1.681,1.681,0,0,1-.83.224,2.146,2.146,0,0,1-1.193-.413c-.641-.434-.392-.949-.316-1.621a14.983,14.983,0,0,0-.166-4.5c-.332-1.737.254-2.4,1.934-2.4m1.082,6.48.071,0c.77-.041,2.579-1.278,2.607-1.819.059-1.14-.68-1.721-1.591-2.159-.288-.138-.577-.277-.872-.4a2.672,2.672,0,0,0-.847-.257c-.389,0-.424.418-.381,1.583a12.748,12.748,0,0,1,.161,2.187c.046.5.3.867.853.867M85.733,65.3a3.034,3.034,0,0,0-2.491.909,3.112,3.112,0,0,0-.426,2.679,13.973,13.973,0,0,1,.154,4.2c-.012.106-.029.207-.046.3a2.014,2.014,0,0,0,.8,2.257,3.115,3.115,0,0,0,1.754.585,2.676,2.676,0,0,0,1.317-.351c.67-.374,1.333-.762,2-1.149.64-.374,1.281-.749,1.928-1.111a3.326,3.326,0,0,0,1.6-3.5,1.93,1.93,0,0,0-.444-1.37c-1.366-1.491-3.066-3.346-5.833-3.45-.106,0-.209-.006-.308-.006ZM86.8,69.553q0-.087,0-.166c.228.1.452.207.676.314.839.4,1.008.721,1.027,1.042a4.827,4.827,0,0,1-1.543,1.008c-.022-.276-.027-.563-.031-.841a5.471,5.471,0,0,0-.125-1.357Z" transform="translate(0)"/>
  </g>
  <g>
    <path class="cls-1" d="M6.29,28.074a9.645,9.645,0,0,1-2.071-.231,4.6,4.6,0,0,1-3.6-4.172A11.825,11.825,0,0,1,4.511,13.112a3.837,3.837,0,0,1,2.735-1.085,7.091,7.091,0,0,1,3.586,1.166.5.5,0,0,1,.051.822,1.434,1.434,0,0,1-.9.342,1.852,1.852,0,0,1-.476-.073l-.114-.027a5.5,5.5,0,0,0-1.119-.123A3.921,3.921,0,0,0,4.923,16.02,10.184,10.184,0,0,0,2.933,22.2c.017,2.448,1.105,3.492,3.644,3.492a8.045,8.045,0,0,0,2.787-.659l.121-.045a7.766,7.766,0,0,0,.817-.377,4.627,4.627,0,0,1,2.113-.658.549.549,0,0,1,.548.463c.007.1.021.19.033.267a.75.75,0,0,1-.171.754A9.876,9.876,0,0,1,6.29,28.074Z" transform="translate(0)"/>
    <path class="cls-2" d="M7.246,12.527a6.633,6.633,0,0,1,3.328,1.095.935.935,0,0,1-.593.236,2.307,2.307,0,0,1-.488-.091,5.994,5.994,0,0,0-1.22-.133,4.437,4.437,0,0,0-3.755,2.1,10.746,10.746,0,0,0-2.084,6.476c.018,2.766,1.36,3.988,4.143,3.988h.086a8.808,8.808,0,0,0,3-.734c.9-.331,1.717-1.005,2.759-1.005h.048c.024.314.1.546.036.6A9.4,9.4,0,0,1,6.29,27.574a9.125,9.125,0,0,1-1.964-.219,4.089,4.089,0,0,1-3.212-3.75A11.354,11.354,0,0,1,4.857,13.474a3.352,3.352,0,0,1,2.389-.948m0-1a4.377,4.377,0,0,0-3.08,1.224A12.3,12.3,0,0,0,.124,23.738a5.076,5.076,0,0,0,3.988,4.594,10.167,10.167,0,0,0,2.179.242,10.367,10.367,0,0,0,6.864-2.758,1.227,1.227,0,0,0,.337-1.21c-.01-.065-.023-.142-.03-.227a1,1,0,0,0-.978-.925h-.067a5.033,5.033,0,0,0-2.342.713,7.407,7.407,0,0,1-.762.353l-.12.044a7.548,7.548,0,0,1-2.539.628H6.576c-2.277,0-3.129-.812-3.143-2.995a9.7,9.7,0,0,1,1.9-5.888,3.459,3.459,0,0,1,2.942-1.677,5.028,5.028,0,0,1,1.017.112l.091.022a2.309,2.309,0,0,0,.6.089,1.938,1.938,0,0,0,1.211-.45,1,1,0,0,0-.1-1.643,7.575,7.575,0,0,0-3.844-1.238Z" transform="translate(0)"/>
  </g>
  <g>
    <path class="cls-1" d="M51.224,63.164a1.213,1.213,0,0,1-.782-.3,1.345,1.345,0,0,1-.143-1.724l.068-.156c.753-1.792.322-3.1-1.28-3.894a2.047,2.047,0,0,0-.806-.264c-.167,0-.377.065-.75.838a4.18,4.18,0,0,0-.309,1.289c-.019.139-.037.278-.059.418a14.853,14.853,0,0,1-.408,1.706l-.054.192a1.476,1.476,0,0,1-1.547,1.076A1.408,1.408,0,0,1,43.8,60.947a12.607,12.607,0,0,1-.118-2.15,6.788,6.788,0,0,0-.54-3.32.893.893,0,0,1-.019-.749,1.938,1.938,0,0,1,1.033-1.049,1.352,1.352,0,0,1,.5-.1c.7,0,.975.614,1.153,1.02.065.147.131.277.207.423a3.151,3.151,0,0,1,2.17-1.138,4.026,4.026,0,0,1,1.738.512c3.094,1.482,4.165,4.576,3.384,6.593l-.053.139a3.443,3.443,0,0,1-.725,1.282,1.96,1.96,0,0,1-1.308.758Z" transform="translate(0)"/>
    <path class="cls-2" d="M44.656,54.076c.387,0,.547.383.708.748.125.284.281.554.526,1.03.99-1.031,1.591-1.473,2.3-1.473a3.664,3.664,0,0,1,1.522.463c2.82,1.351,3.823,4.183,3.134,5.961a3.43,3.43,0,0,1-.666,1.249c-.276.278-.592.61-.953.61a.719.719,0,0,1-.463-.189c-.425-.352-.12-.854.068-1.3.861-2.047.321-3.626-1.519-4.535a2.446,2.446,0,0,0-1.027-.315c-.5,0-.831.355-1.2,1.121a6.293,6.293,0,0,0-.412,1.846,16.323,16.323,0,0,1-.449,1.84.989.989,0,0,1-1.064.711H45.11c-.6-.014-.728-.469-.813-.976-.313-1.858.244-3.816-.709-5.621-.155-.293.274-.909.757-1.1a.849.849,0,0,1,.311-.068m0-1h0a1.846,1.846,0,0,0-.68.138,2.443,2.443,0,0,0-1.319,1.341,1.406,1.406,0,0,0,.046,1.156,6.417,6.417,0,0,1,.482,3.085,13.039,13.039,0,0,0,.125,2.235c.2,1.178.8,1.786,1.776,1.809h.07A1.97,1.97,0,0,0,47.184,61.4l.048-.172a15.4,15.4,0,0,0,.425-1.782c.023-.144.042-.288.061-.432a3.759,3.759,0,0,1,.264-1.137,2.225,2.225,0,0,1,.333-.552,2.039,2.039,0,0,1,.551.209c.856.423,1.895,1.219,1.04,3.251l-.064.146a1.831,1.831,0,0,0,.28,2.312,1.71,1.71,0,0,0,1.1.419,2.346,2.346,0,0,0,1.635-.877,3.925,3.925,0,0,0,.866-1.49l.05-.131c.862-2.224-.283-5.619-3.634-7.225a4.617,4.617,0,0,0-1.954-.561,3.159,3.159,0,0,0-2.007.822,1.687,1.687,0,0,0-1.524-1.126Z" transform="translate(0)"/>
  </g>
  <g>
    <path class="cls-1" d="M74.167,75.7a1.58,1.58,0,0,1-1.614-1.727c.007-.308.021-.617.037-.926a9.747,9.747,0,0,0-.26-3.508.472.472,0,0,1-.022-.127,1.685,1.685,0,0,1,.445-1.241,1.334,1.334,0,0,1,.967-.425,1.493,1.493,0,0,1,.9.327,1.055,1.055,0,0,0,.554.265c.172,0,.36-.153.652-.4l.108-.093a3.141,3.141,0,0,1,2.041-.983,2.419,2.419,0,0,1,.506.055,2.738,2.738,0,0,1,2.282,1.763,11.888,11.888,0,0,1,.648,2.625,11.741,11.741,0,0,0,.518,2.224,1.259,1.259,0,0,1-.079,1.132,1.564,1.564,0,0,1-1.21.668c-.09.009-.178.014-.265.014a1.389,1.389,0,0,1-1.5-1.246c-.057-.375-.106-.751-.156-1.128-.1-.782-.209-1.59-.379-2.36-.1-.473-.26-.684-.367-.684-.053,0-.251.027-.619.381A4.855,4.855,0,0,0,76.03,73.2a4.138,4.138,0,0,0-.038.481,4.17,4.17,0,0,1-.074.727,1.569,1.569,0,0,1-1.593,1.3C74.273,75.71,74.22,75.707,74.167,75.7Z" transform="translate(0)"/>
    <path class="cls-2" d="M77.98,67.36a1.9,1.9,0,0,1,.4.044,2.264,2.264,0,0,1,1.925,1.464c.645,1.57.573,3.27,1.161,4.834.244.651-.231,1.064-.87,1.127-.073.007-.146.011-.217.011a.9.9,0,0,1-1.008-.819c-.177-1.175-.285-2.365-.54-3.522-.159-.718-.457-1.077-.856-1.077a1.52,1.52,0,0,0-.965.521,5.426,5.426,0,0,0-1.473,3.174c-.064.39-.025.8-.107,1.183a1.075,1.075,0,0,1-1.1.908c-.039,0-.079,0-.119,0a1.091,1.091,0,0,1-1.153-1.217,13.5,13.5,0,0,0-.246-4.6,1.019,1.019,0,0,1,.913-1.143.988.988,0,0,1,.6.224,1.449,1.449,0,0,0,.858.367c.4,0,.708-.3,1.084-.615a2.693,2.693,0,0,1,1.718-.865m0-1a3.556,3.556,0,0,0-2.344,1.085l-.13.111a3.592,3.592,0,0,1-.344.273,1.419,1.419,0,0,1-.235-.151,1.986,1.986,0,0,0-1.207-.429,1.827,1.827,0,0,0-1.328.579,2.189,2.189,0,0,0-.584,1.609,1,1,0,0,0,.045.254,9.34,9.34,0,0,1,.237,3.333c-.015.315-.03.628-.037.941A2.078,2.078,0,0,0,74.127,76.2c.067.005.133.008.2.008a2.072,2.072,0,0,0,2.082-1.7,4.641,4.641,0,0,0,.084-.808,3.539,3.539,0,0,1,.032-.424A4.388,4.388,0,0,1,77.7,70.666c.042-.04.079-.074.113-.1.013.044.026.094.039.152.165.747.265,1.508.371,2.313.05.381.1.762.157,1.142a1.894,1.894,0,0,0,2,1.671c.1,0,.209-.006.315-.016a2.059,2.059,0,0,0,1.585-.9,1.75,1.75,0,0,0,.123-1.572,11.35,11.35,0,0,1-.493-2.131,12.257,12.257,0,0,0-.68-2.732,3.257,3.257,0,0,0-2.64-2.062,2.908,2.908,0,0,0-.61-.066Z" transform="translate(0)"/>
  </g>
  <g>
    <path class="cls-1" d="M98.882,42.5a1.5,1.5,0,0,1-1.357-1.04,7.475,7.475,0,0,0-.418-.792,2.212,2.212,0,0,0-.175-.238,6.868,6.868,0,0,1-2.416,1.642,3.035,3.035,0,0,1-1.056.2h0a2.32,2.32,0,0,1-2.035-1.211,10.943,10.943,0,0,1-1.614-5.177,1.471,1.471,0,0,1,1.615-1.71,1.354,1.354,0,0,1,1.051.406,1.588,1.588,0,0,1,.331,1.26,6.446,6.446,0,0,0,.594,3c.11.269.358.72.783.719a.764.764,0,0,0,.13-.012c.286-.05.434-.268.584-.864a5.534,5.534,0,0,0,.13-3.026,1.774,1.774,0,0,1,.129-1.554,1.817,1.817,0,0,1,1.419-.723c.1-.01.2-.015.289-.015a1.46,1.46,0,0,1,1.107.411,2.117,2.117,0,0,1,.4,1.609,7.1,7.1,0,0,0,1.669,4.453,1.829,1.829,0,0,1,.423,1.389,1.466,1.466,0,0,1-.673.956A1.611,1.611,0,0,1,98.882,42.5Z" transform="translate(0)"/>
    <path class="cls-2" d="M96.867,33.87c.893,0,1.052.585,1,1.494a7.518,7.518,0,0,0,1.761,4.771c.448.623.524,1.2-.124,1.64a1.125,1.125,0,0,1-.626.224c-.375,0-.685-.272-.9-.748a7.974,7.974,0,0,0-.446-.844c-.119-.195-.28-.364-.563-.724a7.2,7.2,0,0,1-2.628,1.92,2.539,2.539,0,0,1-.881.172,1.834,1.834,0,0,1-1.609-.971A10.437,10.437,0,0,1,90.31,35.86a.983.983,0,0,1,1.119-1.183h.007c.745,0,.931.5.874,1.12a6.857,6.857,0,0,0,.629,3.236,1.44,1.44,0,0,0,1.246,1.03,1.252,1.252,0,0,0,.216-.019c.642-.112.846-.692.982-1.234a6.029,6.029,0,0,0,.124-3.293c-.3-.976.127-1.537,1.118-1.634.086-.008.166-.013.241-.013m0-1h0c-.106,0-.219.006-.339.017a2.283,2.283,0,0,0-1.786.943,2.244,2.244,0,0,0-.191,1.976,5.034,5.034,0,0,1-.137,2.76,1.22,1.22,0,0,1-.187.5c-.126,0-.267-.183-.362-.412a6.012,6.012,0,0,1-.558-2.766,2.059,2.059,0,0,0-.459-1.643,1.83,1.83,0,0,0-1.411-.568,1.966,1.966,0,0,0-2.124,2.237A11.448,11.448,0,0,0,91,41.326a2.832,2.832,0,0,0,2.462,1.45,3.537,3.537,0,0,0,1.229-.235,6.863,6.863,0,0,0,2.147-1.34c.08.148.158.3.233.467A2.025,2.025,0,0,0,98.882,43a2.1,2.1,0,0,0,1.189-.4,1.952,1.952,0,0,0,.883-1.283,2.321,2.321,0,0,0-.51-1.768,6.663,6.663,0,0,1-1.574-4.136,2.589,2.589,0,0,0-.535-1.979,1.938,1.938,0,0,0-1.469-.566Z" transform="translate(0)"/>
  </g>
  <g>
    <path class="cls-1" d="M60.949,43.582a1.109,1.109,0,0,1-1.187-.9c-.121-.57-.292-1.126-.473-1.715a10.366,10.366,0,0,1-.661-3.959c.049-.584.151-1.8,1.451-1.8a2.36,2.36,0,0,1,.35.028l.317-.211a2.9,2.9,0,0,1,1.917-.9,2.453,2.453,0,0,1,.53.06,4.87,4.87,0,0,1,2.935,2.1l.169.236a7.829,7.829,0,0,1,1.831,4.02,2.31,2.31,0,0,1-2.068,2.635h0a1.306,1.306,0,0,1-.591-.142,1.374,1.374,0,0,1-.508-1.928c.436-.906.091-1.546-.509-2.516-.105-.171-.211-.342-.31-.515-.248-.436-.658-.956-1.205-.956a1.057,1.057,0,0,0-.33.057c-.255.083-.308.258-.369.86a3.915,3.915,0,0,1-.121.726c.057.261.11.52.165.778.151.728.295,1.415.488,2.094a1.571,1.571,0,0,1,.01,1.247,1.112,1.112,0,0,1-.729.5A4.532,4.532,0,0,1,60.949,43.582Z" transform="translate(0)"/>
    <path class="cls-2" d="M62.664,34.624a1.959,1.959,0,0,1,.423.048,4.4,4.4,0,0,1,2.634,1.905,7.957,7.957,0,0,1,1.908,4,1.691,1.691,0,0,1-.618,1.682,1.723,1.723,0,0,1-.951.416.8.8,0,0,1-.367-.088.892.892,0,0,1-.281-1.264c.68-1.418-.216-2.407-.835-3.5a2.013,2.013,0,0,0-1.64-1.208,1.555,1.555,0,0,0-.487.081c-.887.291-.581,1.347-.852,2.033.229,1.036.41,2.051.691,3.038.147.515.273.964-.363,1.128a4.2,4.2,0,0,1-.979.18.62.62,0,0,1-.7-.5c-.391-1.838-1.289-3.584-1.125-5.529.057-.673.146-1.341.954-1.341a1.849,1.849,0,0,1,.275.022.574.574,0,0,0,.085.006.618.618,0,0,0,.365-.11c.573-.463,1.066-1.006,1.858-1.006m0-1a3.35,3.35,0,0,0-2.239,1.022l-.092.078c-.089-.008-.173-.012-.252-.012-1.76,0-1.9,1.7-1.95,2.257a10.756,10.756,0,0,0,.681,4.147c.177.578.345,1.124.462,1.674a1.612,1.612,0,0,0,1.675,1.292,4.561,4.561,0,0,0,1.146-.19l.082-.021a1.6,1.6,0,0,0,1.037-.739,2.015,2.015,0,0,0,.037-1.632c-.189-.661-.33-1.339-.48-2.057-.046-.221-.092-.442-.14-.665a5.051,5.051,0,0,0,.1-.688,3.41,3.41,0,0,1,.064-.447.518.518,0,0,1,.137-.021c.232,0,.52.263.771.7.1.179.211.355.319.531.6.966.793,1.392.484,2.037a1.871,1.871,0,0,0,.733,2.59,1.8,1.8,0,0,0,.817.2,2.614,2.614,0,0,0,1.542-.61,2.7,2.7,0,0,0,1.023-2.561,8.336,8.336,0,0,0-1.927-4.28L66.535,36A5.341,5.341,0,0,0,63.3,33.7a2.973,2.973,0,0,0-.638-.072Z" transform="translate(0)"/>
  </g>
  <g>
    <path class="cls-1" d="M36.53,45.958A1.738,1.738,0,0,1,35,44.975a34.825,34.825,0,0,1-2.286-6.625,1.516,1.516,0,0,1,1.405-2.043c.843,0,1.225.782,1.408,1.158a2.289,2.289,0,0,1,.188.865,1.884,1.884,0,0,0,.1.576,2.294,2.294,0,0,0,.854-1.172,1.95,1.95,0,0,1,1.605-1.311l.108-.026a2.431,2.431,0,0,1,.581-.09,1.189,1.189,0,0,1,.882.378,1.374,1.374,0,0,1,0,1.938c-.184.247-.386.479-.589.709a3.919,3.919,0,0,0-1.028,1.651,3.235,3.235,0,0,0-.129.878h0a5.815,5.815,0,0,0,.814.055c.71.012,1.421.04,2.131.071a.706.706,0,0,1,.435.195.555.555,0,0,1,.232.358,1.135,1.135,0,0,1-.971,1.339c-.066.021-.134.043-.2.068a5.7,5.7,0,0,1-1.1.259c-.8.133-1.439.239-1.808,1.088a1.166,1.166,0,0,1-1.11.663Z" transform="translate(0)"/>
    <path class="cls-2" d="M38.965,36.806a.688.688,0,0,1,.522.227.909.909,0,0,1-.039,1.293,7.146,7.146,0,0,0-1.7,2.545c-.314,1.347-.22,1.522,1.165,1.546.706.012,1.412.039,2.117.07.067,0,.13.081.195.125.1.671-.388.693-.854.869-1.1.417-2.52.073-3.189,1.616a.674.674,0,0,1-.651.361,1.228,1.228,0,0,1-1.082-.706,34.207,34.207,0,0,1-2.251-6.53,1.015,1.015,0,0,1,.629-1.368,1,1,0,0,1,.293-.048c.489,0,.748.444.959.877.27.553-.053,1.29.625,1.9a2.99,2.99,0,0,0,1.443-1.7,1.461,1.461,0,0,1,1.24-.974,2.7,2.7,0,0,1,.579-.1m0-1h0a2.892,2.892,0,0,0-.7.1l-.1.025a2.483,2.483,0,0,0-1.969,1.647c-.016.049-.033.1-.052.144a2.1,2.1,0,0,0-.165-.482,2.164,2.164,0,0,0-1.857-1.438,2.013,2.013,0,0,0-1.889,2.671A35.246,35.246,0,0,0,34.552,45.2a2.241,2.241,0,0,0,1.978,1.262,1.658,1.658,0,0,0,1.569-.964c.239-.553.545-.646,1.43-.793a6.155,6.155,0,0,0,1.195-.285c.059-.022.119-.041.177-.06a1.633,1.633,0,0,0,1.313-1.885,1,1,0,0,0-.434-.69,1.141,1.141,0,0,0-.706-.292c-.714-.031-1.429-.059-2.144-.071-.109,0-.2,0-.277-.008.017-.085.04-.187.069-.311a3.5,3.5,0,0,1,.918-1.435c.2-.232.415-.473.615-.742a1.854,1.854,0,0,0-.047-2.583,1.693,1.693,0,0,0-1.241-.531Z" transform="translate(0)"/>
  </g>
  <g>
    <path class="cls-1" d="M45.319,45.386a3.252,3.252,0,0,1-2.608-1.163c-.1-.157-.2-.317-.29-.475-.524-.883-.861-1.383-1.708-1.383-.071,0-.146,0-.223.011h-.02a.809.809,0,0,1-.636-.275,1.759,1.759,0,0,1-.405-1.239,1.256,1.256,0,0,1,1.209-1.216c.017,0,.222.014.271.014.488,0,.637-.252.863-1.061a4.77,4.77,0,0,1,3.282-3.18,1.922,1.922,0,0,1,.652-.125c.732,0,1.232.523,1.337,1.4a4.524,4.524,0,0,1-1.8,4.223c-.76.609-.8.868-.53,1.333.4.692.838.692.981.692a1.381,1.381,0,0,0,.425-.074,2.594,2.594,0,0,0,.255-.107,1.9,1.9,0,0,1,.775-.223.991.991,0,0,1,.961.845c.3,1.031-.628,1.4-1.024,1.558-.086.034-.169.066-.244.1a4.625,4.625,0,0,1-.837.289c-.084.022-.161.043-.229.064a.508.508,0,0,1-.15.023C45.6,45.421,45.319,45.386,45.319,45.386Z" transform="translate(0)"/>
    <path class="cls-2" d="M45.706,35.795c.465,0,.765.324.841.96a4.043,4.043,0,0,1-1.615,3.773c-.735.589-1.146,1.116-.65,1.974a1.633,1.633,0,0,0,1.414.942,1.865,1.865,0,0,0,.58-.1,3.434,3.434,0,0,1,.875-.305c.2,0,.373.116.481.484.213.729-.542.846-1.007,1.072a6.548,6.548,0,0,1-1,.325c-1.011-.134-2.005-.2-2.5-.967-.631-.987-1.032-2.089-2.419-2.089q-.129,0-.27.013h-.019c-.28,0-.527-.568-.495-.979a.762.762,0,0,1,.709-.753.653.653,0,0,1,.066,0,2.024,2.024,0,0,0,.2.011c.924,0,1.146-.718,1.345-1.426a4.245,4.245,0,0,1,2.971-2.844,1.428,1.428,0,0,1,.482-.1m-1.234,2.729c.05-.046.136-.09.139-.139s-.078-.1-.123-.154c-.05.046-.136.09-.139.139s.078.1.123.154m1.234-3.729a2.422,2.422,0,0,0-.822.155,5.2,5.2,0,0,0-3.593,3.514,2.27,2.27,0,0,1-.266.683h0a.361.361,0,0,1-.116.013,1.028,1.028,0,0,1-.1-.006,1.658,1.658,0,0,0-.166-.008,1.75,1.75,0,0,0-1.707,1.675,2.258,2.258,0,0,0,.535,1.618,1.3,1.3,0,0,0,.957.439c.031,0,.081,0,.112-.005q.092-.009.177-.009c.557,0,.768.278,1.279,1.139.1.163.194.327.3.489a3.731,3.731,0,0,0,2.968,1.389l.239.031a1,1,0,0,0,.432-.037c.061-.019.131-.038.207-.058a5.107,5.107,0,0,0,.927-.322c.064-.031.137-.059.21-.088,1.16-.461,1.6-1.189,1.32-2.163a1.49,1.49,0,0,0-1.441-1.2,2.329,2.329,0,0,0-.983.268,2.072,2.072,0,0,1-.2.087.883.883,0,0,1-.269.05c-.08,0-.292,0-.548-.443a.532.532,0,0,1-.083-.2c.005-.015.06-.147.493-.494a5.066,5.066,0,0,0,1.983-4.673,1.849,1.849,0,0,0-1.834-1.841Z" transform="translate(0)"/>
  </g>
  <g>
    <path class="cls-1" d="M49.289,77.6a13.283,13.283,0,0,1-1.449-.09,2,2,0,0,1-1.413-.683,1.342,1.342,0,0,1-.22-1.088A1.527,1.527,0,0,1,47.738,74.5a1.47,1.47,0,0,1,.739.191,1.838,1.838,0,0,0,.938.279,3.07,3.07,0,0,0,1.438-.493,10.685,10.685,0,0,0-3.281-.747l-.281-.025a3.63,3.63,0,0,1-1.533-.374,1.472,1.472,0,0,1-.857-1.244,1.285,1.285,0,0,1,.739-1.1c.309-.17.61-.358.913-.546a6.7,6.7,0,0,1,3.615-1.349,1.942,1.942,0,0,0,.309-.037,2.72,2.72,0,0,1,.438-.048,1.029,1.029,0,0,1,1.046.98,1.672,1.672,0,0,1-.221,1.4,1.252,1.252,0,0,1-.82.42l.086,0a2.149,2.149,0,0,1,1.046.221l.26.144a2.387,2.387,0,0,1,1.617,2.135,2.86,2.86,0,0,1-1.594,2.542A5.742,5.742,0,0,1,49.289,77.6Z" transform="translate(0)"/>
    <path class="cls-2" d="M50.912,69.508c.258,0,.469.109.555.571.131.709.023,1.244-.858,1.244h-.065l-.093,0c-.263,0-.583.051-.561.523.442.73,1.3.273,1.913.618.773.439,1.618.759,1.623,1.846a2.386,2.386,0,0,1-1.348,2.108,5.321,5.321,0,0,1-2.789.679,12.95,12.95,0,0,1-1.4-.087c-.649-.071-1.35-.375-1.2-1.18A1.027,1.027,0,0,1,47.737,75a.973.973,0,0,1,.488.123,2.325,2.325,0,0,0,1.19.347,3.5,3.5,0,0,0,1.7-.567c.123-.07.186-.246.461-.629a10.209,10.209,0,0,0-3.952-1.04A4.01,4.01,0,0,1,46,72.9c-.728-.408-.829-1.081-.122-1.471,1.36-.749,2.584-1.833,4.286-1.833h0c.25,0,.515-.085.743-.085m0-1h0a3.052,3.052,0,0,0-.521.055,1.378,1.378,0,0,1-.223.03,7.2,7.2,0,0,0-3.883,1.424c-.295.183-.589.367-.89.533a1.769,1.769,0,0,0-1,1.537,1.954,1.954,0,0,0,1.113,1.682,3.5,3.5,0,0,0,1.382.4,2,2,0,0,0-1.178,1.469,1.832,1.832,0,0,0,.308,1.479A2.429,2.429,0,0,0,47.785,78a13.8,13.8,0,0,0,1.5.093,6.3,6.3,0,0,0,3.3-.818A3.34,3.34,0,0,0,54.426,74.3a2.865,2.865,0,0,0-1.879-2.573c-.083-.045-.167-.091-.25-.138l-.067-.036a2.287,2.287,0,0,0,.221-1.66,1.532,1.532,0,0,0-1.538-1.389Z" transform="translate(0)"/>
  </g>
  <g>
    <path class="cls-1" d="M21.05,45.189a3.692,3.692,0,0,1-3.266-2.47,4.5,4.5,0,0,1-.361-1.775,3.475,3.475,0,0,1,.486-2.167c.085-.177.171-.354.243-.534a2.4,2.4,0,0,1,2.226-1.667,2.6,2.6,0,0,1,.332.021c1.014.129,2.4.307,2.934,1.794a21.938,21.938,0,0,1,.683,2.339A3.585,3.585,0,0,1,21.9,45.065,2.989,2.989,0,0,1,21.05,45.189Zm-.624-5.171c-.294.428-.264.9.139,1.739.058.12.087.18.113.243.2.494.489.494.583.494a.8.8,0,0,0,.165-.018c.234-.048.292-.137.315-.9,0-.015,0-.126.007-.141a1.064,1.064,0,0,0-.788-1.225l-.2-.081a1.342,1.342,0,0,0-.336-.114v-.5Z" transform="translate(0)"/>
    <path class="cls-2" d="M20.379,37.074a2.111,2.111,0,0,1,.268.017c1.019.13,2.106.29,2.526,1.466a20.936,20.936,0,0,1,.666,2.285,3.077,3.077,0,0,1-2.08,3.743,2.487,2.487,0,0,1-.708.1,3.18,3.18,0,0,1-2.8-2.161,4.025,4.025,0,0,1-.323-1.629,4.3,4.3,0,0,1,.693-2.47,1.9,1.9,0,0,1,1.762-1.354m.883,5.919a1.313,1.313,0,0,0,.266-.028c.708-.147.694-.77.717-1.468a1.554,1.554,0,0,0-1.107-1.752,2.265,2.265,0,0,0-.709-.227.446.446,0,0,0-.377.2,2.057,2.057,0,0,0,.062,2.257c.034.072.072.143.1.216a1.126,1.126,0,0,0,1.046.8m-.883-6.919a2.873,2.873,0,0,0-2.689,1.98c-.069.17-.15.337-.23.5a3.965,3.965,0,0,0-.536,2.428,5.06,5.06,0,0,0,.4,1.923,4.188,4.188,0,0,0,3.729,2.78,3.492,3.492,0,0,0,.992-.145,4.077,4.077,0,0,0,2.77-4.928,22,22,0,0,0-.7-2.395c-.634-1.776-2.329-1.993-3.341-2.122a3.11,3.11,0,0,0-.394-.026Zm.843,5.888a.718.718,0,0,1-.08-.15c-.03-.074-.065-.147-.1-.219l-.025-.052a2.256,2.256,0,0,1-.281-.88l.051.02c.441.166.505.381.467.7q-.005.044-.007.088l0,.1c0,.12-.009.28-.02.4Z" transform="translate(0)"/>
  </g>
  <g>
    <path class="cls-1" d="M104.936,41.814a4.564,4.564,0,0,1-1.956-.456,4.2,4.2,0,0,1-2.52-4.338,5,5,0,0,1,3.364-5.039,2.8,2.8,0,0,1,1.081-.283,1.224,1.224,0,0,1,1.211.929c.343,1.042-.56,1.48-1.045,1.715l-.122.06a2.841,2.841,0,0,0-1.729,2.8c.022,1.309.713,2.09,1.848,2.09a2.891,2.891,0,0,0,.682-.086,6.2,6.2,0,0,0,.947-.346c.259-.11.519-.22.784-.307a1.292,1.292,0,0,1,.4-.064,1.087,1.087,0,0,1,1.032.641,1.182,1.182,0,0,1-.5,1.447A6.583,6.583,0,0,1,104.936,41.814Z" transform="translate(0)"/>
    <path class="cls-2" d="M104.906,32.2a.732.732,0,0,1,.736.585c.224.682-.392.912-.915,1.171a3.324,3.324,0,0,0-2.007,3.256,2.341,2.341,0,0,0,2.348,2.582,3.4,3.4,0,0,0,.8-.1c.607-.147,1.17-.468,1.768-.664a.805.805,0,0,1,.249-.04.6.6,0,0,1,.573.336.688.688,0,0,1-.312.831,6.041,6.041,0,0,1-3.209,1.158,4.029,4.029,0,0,1-1.743-.408,3.709,3.709,0,0,1-2.234-3.863,4.532,4.532,0,0,1,3.063-4.6,2.4,2.4,0,0,1,.884-.242m0-1a3.25,3.25,0,0,0-1.278.323,5.489,5.489,0,0,0-3.669,5.519,4.707,4.707,0,0,0,2.808,4.769,5.054,5.054,0,0,0,2.17.5A7.04,7.04,0,0,0,108.686,41a1.683,1.683,0,0,0,.692-2.065,1.6,1.6,0,0,0-1.492-.944,1.8,1.8,0,0,0-.56.089c-.293.1-.563.211-.825.322a5.882,5.882,0,0,1-.869.32,2.41,2.41,0,0,1-.564.073c-1.149,0-1.338-1-1.348-1.6a2.328,2.328,0,0,1,1.452-2.343l.119-.058c1.78-.863,1.42-1.961,1.3-2.321a1.734,1.734,0,0,0-1.686-1.273Z" transform="translate(0)"/>
  </g>
  <g>
    <path class="cls-1" d="M29.777,45.93a5.081,5.081,0,0,1-4.429-2.06,3.268,3.268,0,0,1-.388-1.905,7.04,7.04,0,0,1,5.022-5.682,2.171,2.171,0,0,1,.262-.023c.123-.006.211-.01.3-.01,1,0,1.325.523,1.423.961a1.118,1.118,0,0,1-.177.955,1.459,1.459,0,0,1-1.132.5,2.964,2.964,0,0,0-2.276,1.6,2.261,2.261,0,0,0-.486,1.894,2.452,2.452,0,0,0,1.725,1.323,4.015,4.015,0,0,0,1.223.149l.914-.012a5.467,5.467,0,0,1,1.6.2.5.5,0,0,1,.178.861A5.8,5.8,0,0,1,29.777,45.93Z" transform="translate(0)"/>
    <path class="cls-2" d="M30.542,36.75c.423,0,.828.09.935.571.131.59-.317.821-.846.85a3.472,3.472,0,0,0-2.662,1.813c-1.263,1.824-.622,3.3,1.5,3.978a4.428,4.428,0,0,0,1.375.173c.3,0,.607-.012.915-.012a4.959,4.959,0,0,1,1.458.178,5.362,5.362,0,0,1-3.436,1.129,4.61,4.61,0,0,1-4-1.811A2.807,2.807,0,0,1,25.46,42a6.548,6.548,0,0,1,4.611-5.221,2.01,2.01,0,0,1,.238-.019c.077,0,.156-.007.234-.007m0-1c-.1,0-.193,0-.288.009a2.778,2.778,0,0,0-.356.032,7.492,7.492,0,0,0-5.437,6.143,3.749,3.749,0,0,0,.454,2.188,5.5,5.5,0,0,0,4.861,2.308,6.3,6.3,0,0,0,4.082-1.365,1,1,0,0,0-.357-1.722,5.913,5.913,0,0,0-1.746-.22c-.161,0-.322,0-.482.006s-.29.006-.434.006a3.515,3.515,0,0,1-1.069-.125c-.768-.247-1.267-.6-1.4-1.008a1.818,1.818,0,0,1,.424-1.449c.672-.97,1.186-1.345,1.894-1.384a1.909,1.909,0,0,0,1.5-.7,1.632,1.632,0,0,0,.266-1.364,1.745,1.745,0,0,0-1.911-1.353Z" transform="translate(0)"/>
  </g>
  <g>
    <path class="cls-1" d="M67.287,61.145a5.608,5.608,0,0,1-3.017-.732,3.556,3.556,0,0,1-1.057-1.271,4.785,4.785,0,0,1-.031-3.932,4.311,4.311,0,0,1,2.5-2.56,3.3,3.3,0,0,1,1.015-.217,1.326,1.326,0,0,1,1.25.835c.512,1.087-.418,1.547-.814,1.743l-.2.1c-.122.068-.242.148-.359.23A2.109,2.109,0,0,0,65.7,57.73c.165.78.56.85,1.74.865.154,0,.312,0,.471.01.1.009.167.012.237.012a3.993,3.993,0,0,0,1.826-.538,1.551,1.551,0,0,1,.731-.2,1.176,1.176,0,0,1,.983.522c.27.387.411.99-.44,1.667A6.9,6.9,0,0,1,67.287,61.145Z" transform="translate(0)"/>
    <path class="cls-2" d="M66.7,52.933a.828.828,0,0,1,.8.548c.354.75-.322.93-.8,1.191-.139.077-.272.166-.4.257a2.6,2.6,0,0,0-1.081,2.9c.3,1.415,1.453,1.226,2.682,1.271q.125.012.256.012a4.474,4.474,0,0,0,2.065-.6,1.047,1.047,0,0,1,.493-.139.674.674,0,0,1,.572.309c.3.429-.041.751-.341.989a6.363,6.363,0,0,1-3.654.967A5,5,0,0,1,64.558,60a3.087,3.087,0,0,1-.9-1.091c-1.037-2.015.152-5.114,2.183-5.788a2.874,2.874,0,0,1,.857-.191m0-1a3.755,3.755,0,0,0-1.172.242,4.8,4.8,0,0,0-2.806,2.845,5.287,5.287,0,0,0,.05,4.349,4.062,4.062,0,0,0,1.212,1.451,6.094,6.094,0,0,0,3.306.824,7.4,7.4,0,0,0,4.276-1.184,1.619,1.619,0,0,0,.539-2.344,1.682,1.682,0,0,0-1.392-.737,2.048,2.048,0,0,0-.97.26,3.5,3.5,0,0,1-1.587.476c-.054,0-.106,0-.158-.007l-.062,0c-.163-.006-.324-.008-.483-.01-1.161-.014-1.176-.084-1.257-.468a1.615,1.615,0,0,1,.67-1.874,3.774,3.774,0,0,1,.318-.2c.056-.031.116-.06.176-.09,1.459-.723,1.373-1.706,1.044-2.4a1.82,1.82,0,0,0-1.7-1.122Z" transform="translate(0)"/>
  </g>
  <g>
    <path class="cls-1" d="M92.972,31.815a1.093,1.093,0,0,1-.8-.332,1.977,1.977,0,0,1-.427-1.395,2.077,2.077,0,0,1,1.844-1.953,1.162,1.162,0,0,1,.359.056,1.788,1.788,0,0,1,1.188,1.495.5.5,0,0,1-.136.45,3.33,3.33,0,0,0-.372.5A2.088,2.088,0,0,1,93.1,31.809Z" transform="translate(0)"/>
    <path class="cls-2" d="M93.587,28.637a.66.66,0,0,1,.205.032,1.327,1.327,0,0,1,.852,1.116c-.509.513-.753,1.448-1.592,1.527-.028,0-.054,0-.08,0-.6,0-.744-.672-.728-1.212a1.6,1.6,0,0,1,1.344-1.466m0-1a2.577,2.577,0,0,0-2.343,2.437,2.409,2.409,0,0,0,.567,1.757,1.6,1.6,0,0,0,1.161.484c.056,0,.114,0,.175-.008a2.566,2.566,0,0,0,1.9-1.4,3.039,3.039,0,0,1,.308-.422,1,1,0,0,0,.271-.9A2.284,2.284,0,0,0,94.1,27.718a1.659,1.659,0,0,0-.515-.081Z" transform="translate(0)"/>
  </g>
  <g>
    <path class="cls-1" d="M90.565,31.537a1.785,1.785,0,0,1-1.882-1.7c-.026-.8.608-1.365,1.618-1.429l.132,0a1.348,1.348,0,0,1,1.4,1.5A1.479,1.479,0,0,1,90.7,31.53a.518.518,0,0,1-.095.009Z" transform="translate(0)"/>
    <path class="cls-2" d="M90.433,28.909c.617,0,.893.384.9,1.01s-.264,1.029-.731,1.119c-.939-.07-1.4-.553-1.42-1.212-.02-.623.568-.877,1.15-.914q.052,0,.1,0m0-1c-.053,0-.107,0-.163.005a1.961,1.961,0,0,0-2.086,1.944,2.29,2.29,0,0,0,2.345,2.177l.075,0a1,1,0,0,0,.189-.018,1.973,1.973,0,0,0,1.542-2.113,1.843,1.843,0,0,0-1.9-2Z" transform="translate(0)"/>
  </g>
  <g>
    <path class="cls-1" d="M22.535,36.241a1.5,1.5,0,0,1-1.677-1.327,1.315,1.315,0,0,1,.244-1.035,1.35,1.35,0,0,1,.99-.485q.119-.01.231-.01a1.454,1.454,0,0,1,1.608,1.484,1.336,1.336,0,0,1-1.162,1.365C22.681,36.239,22.606,36.241,22.535,36.241Z" transform="translate(0)"/>
    <path class="cls-2" d="M22.323,33.883c.627,0,1.1.287,1.108.993a.839.839,0,0,1-.706.858q-.1.007-.192.007c-.746,0-1.1-.332-1.18-.9a.771.771,0,0,1,.781-.949c.065-.005.128-.008.19-.008m0-1q-.134,0-.274.012a1.875,1.875,0,0,0-1.34.674,1.824,1.824,0,0,0-.346,1.418,2.006,2.006,0,0,0,2.17,1.754q.125,0,.26-.009a1.845,1.845,0,0,0,1.638-1.873,1.958,1.958,0,0,0-2.108-1.975Z" transform="translate(0)"/>
  </g>
  <g>
    <path class="cls-1" d="M19.083,36.073A3.633,3.633,0,0,1,17,35.1a1.22,1.22,0,0,1-.146-1.671,1.361,1.361,0,0,1,1.119-.646,1.332,1.332,0,0,1,.793.275,2.175,2.175,0,0,1,.874,2.695.5.5,0,0,1-.555.323Z" transform="translate(0)"/>
    <path class="cls-2" d="M17.971,33.28a.833.833,0,0,1,.5.177,1.687,1.687,0,0,1,.7,2.124,3.157,3.157,0,0,1-1.816-.839.729.729,0,0,1-.088-1.033.87.87,0,0,1,.707-.429m0-1a1.869,1.869,0,0,0-1.531.862,1.724,1.724,0,0,0,.206,2.309A4.106,4.106,0,0,0,19,36.566a1,1,0,0,0,1.11-.647,2.66,2.66,0,0,0-1.048-3.267,1.829,1.829,0,0,0-1.089-.373Z" transform="translate(0)"/>
  </g>
</svg>
