<svg id="Layer_1" data-name="Layer 1" xmlns="http://www.w3.org/2000/svg" viewBox="0 0 148.26 106.027">
  <defs>
    <style>
      .cls-1 {
        fill: #0000b8;
      }

      .cls-2 {
        fill: #fff;
      }
    </style>
  </defs>
  <title>485bc497-c4ca-425b-bcbf-6415ab9f9521</title>
  <g>
    <path class="cls-1" d="M60.287,66.492a1.68,1.68,0,0,1-1.329-.913c-1.328-2.108-1.463-7.668-.738-9.364s1.927-2.67,3.3-2.67a3.889,3.889,0,0,1,2.864,1.513,5.551,5.551,0,0,1,1.5,2.7,6.666,6.666,0,0,1,3.771-3.819,4.1,4.1,0,0,1,1.675-.391,2.283,2.283,0,0,1,1.954.926c.7,1.032.228,3.25-.881,4.161a13.066,13.066,0,0,1-1.471,1l-.618.383a4.1,4.1,0,0,0-1,.75,2.584,2.584,0,0,0,2.047,1.135,3.528,3.528,0,0,0,1.376-.322c1.929-.831,2.04-1.033,1.7-3.1-.046-.276-.081-.555-.115-.833a6.871,6.871,0,0,0-.552-2.28,1.678,1.678,0,0,1-.142-1.5,1.613,1.613,0,0,1,1.189-.822c.383-.089.764-.187,1.145-.285a16.576,16.576,0,0,1,3.641-.648l.189,0a2.586,2.586,0,0,1,2.336.958,2.906,2.906,0,0,1-.14,2.8,4.391,4.391,0,0,1-.9,1.141c.124,0,.253,0,.385,0a7.525,7.525,0,0,1,2.885.452,10.026,10.026,0,0,0-.388-1.191,9.992,9.992,0,0,1-.378-1.157c-.479-2.028-.268-3.246,2.225-3.873a12.947,12.947,0,0,1,3.05-.451c1.964,0,2.65.853,2.881,1.566.513,1.587-.786,3.915-1.915,5.233,2.343.487,4.714,2.66,4.94,3.713a.786.786,0,0,1-.431.934,2,2,0,0,1-.818.152h0A10.644,10.644,0,0,1,89.3,60.978a7.989,7.989,0,0,0-.889-.4c.328,1.4.269,1.578.231,1.692a1.777,1.777,0,0,1-1.617,1.377l-.11,0a1.671,1.671,0,0,1-1.448-1.082,3.89,3.89,0,0,1-.252-.635,5.508,5.508,0,0,1-4.731,1.87c-.271,0-.546-.007-.821-.016-.12,0-.253-.016-.389-.027s-.3-.027-.447-.027a.631.631,0,0,0-.227.024,2.285,2.285,0,0,1-1.62.773,3.034,3.034,0,0,1-1.867-.874.346.346,0,0,0-.233-.085.954.954,0,0,0-.615.3,7.2,7.2,0,0,1-3.888,1.264,2.19,2.19,0,0,1-.307-.019,8.74,8.74,0,0,1-3.018-1.259,3.674,3.674,0,0,1-2.356.9h0a9.113,9.113,0,0,1-3.027-1.117,3.579,3.579,0,0,1-.379,2.405,1.162,1.162,0,0,1-.938.446Zm3.121-5.1a4.012,4.012,0,0,0,1.063.426c.281.024.522.04.729.04.44,0,.518-.076.524-.085.038-.045.109-.241-.039-1.1a6.387,6.387,0,0,1-.1-1.227,4.982,4.982,0,0,1-1.9,1.809A2.279,2.279,0,0,1,63.408,61.388Zm15.113-.226a8.966,8.966,0,0,0,3.7-1.151,2.516,2.516,0,0,0-.808-.093,18.361,18.361,0,0,0-3.143.4ZM61.31,58.86a.909.909,0,0,0,.237.033,1.109,1.109,0,0,0,.848-.479.672.672,0,0,0,.167-.445c-.26-.7-.455-1.008-.925-1.008v-.5l-.031.5c-.2.006-.221.006-.272.484-.012.106-.024.212-.042.313A2.027,2.027,0,0,0,61.31,58.86Zm9.164-2.431a1.786,1.786,0,0,0-.5.556A1.5,1.5,0,0,0,70.474,56.43Zm6.8-.247a3.986,3.986,0,0,0,1.72-1.4h-.027a7.234,7.234,0,0,0-1.949.465ZM87.4,56.052a6.828,6.828,0,0,0,1.734-1.806.789.789,0,0,0-.158-.587,1.11,1.11,0,0,0-.767-.221,4.43,4.43,0,0,0-1.095.166Z" transform="translate(0)"/>
    <path class="cls-2" d="M88.864,51.291c4.973,0,1.216,5.713-.167,6.709.074-.005.148-.008.224-.008,2.768,0,6.157,3.363,5.214,3.789a1.5,1.5,0,0,1-.612.109,10.229,10.229,0,0,1-3.981-1.348,14.6,14.6,0,0,0-1.844-.76,16.16,16.16,0,0,1,.467,2.332,1.3,1.3,0,0,1-1.177,1.033l-.075,0c-.528,0-.8-.41-1-.811a12.385,12.385,0,0,1-.53-1.566c-1.185,2.191-2.979,2.531-4.9,2.531-.266,0-.535-.007-.805-.016s-.577-.055-.853-.055a.786.786,0,0,0-.549.146,1.861,1.861,0,0,1-1.3.652,2.522,2.522,0,0,1-1.544-.755.839.839,0,0,0-.557-.2,1.456,1.456,0,0,0-.974.455,6.828,6.828,0,0,1-3.528,1.113,1.76,1.76,0,0,1-.239-.014,9.183,9.183,0,0,1-3.156-1.406,3.052,3.052,0,0,1-2.3,1.04h-.021c-.94,0-3.648-1.54-3.648-1.54s.737,3.274-.662,3.274h-.039c-2.018-.086-2.455-7.648-1.629-9.58.659-1.542,1.7-2.366,2.836-2.366A3.408,3.408,0,0,1,64,55.388c1.712,1.944,2.224,3.737-.574,5.436a9.475,9.475,0,0,1-1.233.457,8.865,8.865,0,0,0,2.23,1.03c.3.026.555.042.773.042,1.045,0,1.221-.368.978-1.769-.461-2.655.823-4.886,3.679-6.191a3.568,3.568,0,0,1,1.467-.346,1.784,1.784,0,0,1,1.539.7,3.253,3.253,0,0,1-.783,3.5,16.992,16.992,0,0,1-1.775,1.188,4.2,4.2,0,0,0-1.61,1.346,3.219,3.219,0,0,0,2.663,1.625,4,4,0,0,0,1.575-.364c2.131-.918,2.372-1.348,2-3.638a10.783,10.783,0,0,0-.714-3.257c-.392-.779-.261-1.379.714-1.605a23.989,23.989,0,0,1,4.688-.921l.175,0c2.019,0,2.614,1.1,1.74,3.054a8.887,8.887,0,0,1-1.9,1.953,15.032,15.032,0,0,1,1.838-.113c1.261,0,2.821.175,3.475.957.094-1.249-.62-2.413-.87-3.468-.471-1.991-.163-2.764,1.86-3.273a12.32,12.32,0,0,1,2.927-.436M87.01,57s2.591-1.951,2.625-2.719c.047-1.068-.67-1.343-1.423-1.343a5.485,5.485,0,0,0-1.64.311L87.01,57m-10.062-.125s2.425-.913,2.635-2.307c-.059-.21-.3-.288-.615-.288a9.413,9.413,0,0,0-2.552.657l.531,1.938m-7.772.864a2.083,2.083,0,0,0,1.95-1.546.448.448,0,0,0-.235-.362.972.972,0,0,0-.1-.005c-1.022,0-1.677,1.634-1.615,1.913m-7.628,1.654c.976,0,1.685-1.056,1.483-1.6-.241-.647-.543-1.334-1.392-1.334h-.046c-.8.023-.7.7-.793,1.209a2.42,2.42,0,0,0,.124,1.578,1.464,1.464,0,0,0,.623.144m16.619,2.326S82.8,61.1,82.76,59.938c-.015-.389-.589-.519-1.348-.519a21.437,21.437,0,0,0-3.777.519l.531,1.781m10.7-11.428a13.4,13.4,0,0,0-3.171.466c-2.137.538-2.812,1.562-2.8,2.951a2.319,2.319,0,0,0-.343-.9,3.042,3.042,0,0,0-2.755-1.186c-.067,0-.135,0-.2,0a16.927,16.927,0,0,0-3.754.665c-.376.1-.752.194-1.131.282a2.086,2.086,0,0,0-1.52,1.078,2.975,2.975,0,0,0-1.86-.6,4.587,4.587,0,0,0-1.883.436,7.717,7.717,0,0,0-3.494,2.929,8.282,8.282,0,0,0-1.192-1.685,4.3,4.3,0,0,0-3.239-1.681c-1.578,0-2.947,1.083-3.755,2.973-.766,1.791-.666,7.54.775,9.827a2.14,2.14,0,0,0,1.731,1.146l.082,0a1.669,1.669,0,0,0,1.329-.634,3.135,3.135,0,0,0,.528-1.888,7.018,7.018,0,0,0,2.454.788,4.28,4.28,0,0,0,2.428-.789A8.6,8.6,0,0,0,70,65.615a2.759,2.759,0,0,0,.377.024c.971,0,3.348-.5,4.243-1.414a.621.621,0,0,1,.22-.145,3.419,3.419,0,0,0,2.14.949,2.749,2.749,0,0,0,1.85-.8c.128,0,.267.014.4.026s.285.024.414.029c.281.009.561.016.839.016a6.358,6.358,0,0,0,4.563-1.458,2.139,2.139,0,0,0,1.868,1.3c.047,0,.1,0,.146-.005a2.267,2.267,0,0,0,2.058-1.722,1.73,1.73,0,0,0-.013-.981,11.1,11.1,0,0,0,4.421,1.448,2.479,2.479,0,0,0,1.024-.2A1.278,1.278,0,0,0,95.26,61.2C95,59.976,92.9,58.054,90.675,57.305c1.046-1.427,2.063-3.5,1.547-5.1-.281-.873-1.093-1.913-3.358-1.913Zm-1.2,3.7a3.182,3.182,0,0,1,.546-.055.807.807,0,0,1,.407.068.763.763,0,0,1,.017.132,5.443,5.443,0,0,1-.847.912l-.123-1.058ZM82.178,56.53a2.642,2.642,0,0,0,.266-.449,4.909,4.909,0,0,0,.479-1.847,8.486,8.486,0,0,0,.18,1,10.439,10.439,0,0,0,.4,1.217c.033.088.065.176.1.263a8.977,8.977,0,0,0-1.419-.18ZM70.015,60.807c.163-.12.352-.236.553-.358l.271-.167.36-.224a13.5,13.5,0,0,0,1.518-1.038,3.778,3.778,0,0,0,1.072-1.6c.013.1.025.193.037.291.036.285.072.57.118.853.3,1.824.3,1.824-1.405,2.558a3.04,3.04,0,0,1-1.179.282,1.828,1.828,0,0,1-1.343-.6Zm-8.291-2.457a2.8,2.8,0,0,1,.06-.5c.016-.09.028-.184.039-.279a1.991,1.991,0,0,1,.225.458.746.746,0,0,1-.325.324ZM64.5,61.314a6.514,6.514,0,0,0,.688-.563v0a5.837,5.837,0,0,1,.079.6H65.2c-.169,0-.387-.012-.686-.038l-.01,0Z" transform="translate(0)"/>
  </g>
  <g>
    <path class="cls-1" d="M97.851,62.339a3.777,3.777,0,0,1-.581-.046,4.445,4.445,0,0,1-3.4-2.439,12.772,12.772,0,0,1-.8-5.605,4.553,4.553,0,0,1,.561-2.041,2.268,2.268,0,0,1,.862-.979l.336-.2a3.928,3.928,0,0,1,1.976-.729,2.377,2.377,0,0,1,1.255.378A4.481,4.481,0,0,1,99.584,54.6a4.638,4.638,0,0,1-2.19,3.4.675.675,0,0,0-.375.362.766.766,0,0,0,.116.551.78.78,0,0,0,.679.3,1.03,1.03,0,0,0,.675-.233,4.23,4.23,0,0,0,.573-.682c.142-.193.284-.387.441-.564a1.313,1.313,0,0,1,1.685-.327,1.343,1.343,0,0,1,.669,1.553,4.2,4.2,0,0,1-4.006,3.382Zm-1.256-8.7a2.327,2.327,0,0,0-.518,1.175,10.344,10.344,0,0,0,1.184-.679A2.134,2.134,0,0,0,96.595,53.641Z" transform="translate(0)"/>
    <path class="cls-2" d="M96.807,50.8a1.867,1.867,0,0,1,.994.3,4.057,4.057,0,0,1,1.3,3.363c-.316,1.219-.663,2.444-1.931,3.081a1.047,1.047,0,0,0-.471,1.6,1.252,1.252,0,0,0,1.115.557,1.529,1.529,0,0,0,1.005-.358,13.891,13.891,0,0,0,1.059-1.29.817.817,0,0,1,1.073-.219.867.867,0,0,1,.415,1.022,3.676,3.676,0,0,1-3.514,2.972,3.2,3.2,0,0,1-.5-.04l-.014,0a3.936,3.936,0,0,1-3.008-2.154,12.253,12.253,0,0,1-.753-5.381,4.018,4.018,0,0,1,.5-1.815,1.807,1.807,0,0,1,.668-.783,4.518,4.518,0,0,1,2.066-.859m-1.391,4.884a12.081,12.081,0,0,0,2.406-1.375c.067-.434-.862-1.176-1.225-1.176h-.01c-.9.035-1.172,2.551-1.172,2.551M96.807,49.8h0a4.379,4.379,0,0,0-2.229.8c-.109.064-.218.129-.328.191A2.736,2.736,0,0,0,93.2,51.968a5.048,5.048,0,0,0-.622,2.267,13.2,13.2,0,0,0,.846,5.83,4.935,4.935,0,0,0,3.758,2.719,4.252,4.252,0,0,0,.673.054,4.653,4.653,0,0,0,4.5-3.791,1.842,1.842,0,0,0-.925-2.083,1.812,1.812,0,0,0-2.294.435c-.179.2-.329.406-.473.6a3.9,3.9,0,0,1-.5.6.545.545,0,0,1-.345.109.449.449,0,0,1-.256-.063.6.6,0,0,1-.051-.134.61.61,0,0,1,.112-.07,5.108,5.108,0,0,0,2.45-3.724,4.935,4.935,0,0,0-1.743-4.466,2.874,2.874,0,0,0-1.517-.452Z" transform="translate(0)"/>
  </g>
  <g>
    <path class="cls-1" d="M34.365,65.671a1.5,1.5,0,0,1-1.116-.415,1.824,1.824,0,0,1-.435-1.379A1.745,1.745,0,0,1,34.4,61.855h.008a2.229,2.229,0,0,1,1.029.343,2.98,2.98,0,0,0,1.261.434,1.131,1.131,0,0,0,.825-.378c.23-.229.235-.314.235-.315s-.018-.091-.258-.279a3.486,3.486,0,0,0-2.225-.771c-.109,0-.221,0-.334.013-.153.011-.3.017-.454.017a4.053,4.053,0,0,1-2.807-1.012,2.391,2.391,0,0,1-.905-2.162A2.22,2.22,0,0,1,32.222,56.1a14.285,14.285,0,0,1,4.244-.661c.9,0,1.36.12,1.58.415A1.5,1.5,0,0,1,38.4,57.2a1.482,1.482,0,0,1-1.146.768,4.252,4.252,0,0,1-.818.059l-.774-.007a3.6,3.6,0,0,0-1.047.1,10.524,10.524,0,0,0,1.886.469,11.526,11.526,0,0,1,1.213.266c.091.028.2.05.331.075a3.46,3.46,0,0,1,2.882,2.326c.961,2.479-1.749,3.55-2.64,3.9a9.646,9.646,0,0,1-3.722.513h-.2Z" transform="translate(0)"/>
    <path class="cls-2" d="M36.465,55.944c.61,0,1.068.064,1.18.214.544.73.392,1.138-.494,1.323a3.79,3.79,0,0,1-.718.048c-.243,0-.508-.007-.771-.007-.76,0-1.5.058-1.653.51-.265.787,2.566.99,3.553,1.3a3.255,3.255,0,0,1,2.9,2.106c.763,1.969-1.363,2.863-2.358,3.256a9.636,9.636,0,0,1-3.735.478h0c-.838,0-1.064-.56-1.049-1.284.016-.771.161-1.465,1.123-1.532h.026c.458,0,1.312.778,2.238.778a1.622,1.622,0,0,0,1.177-.523c.483-.48.559-.853-.067-1.343a3.967,3.967,0,0,0-2.534-.879q-.183,0-.371.014-.212.016-.419.016a3.567,3.567,0,0,1-2.474-.887c-1.144-1.012-.993-2.391.4-2.964a13.77,13.77,0,0,1,4.052-.622m0-1a14.641,14.641,0,0,0-4.433.7,2.712,2.712,0,0,0-1.746,2.019,2.877,2.877,0,0,0,1.067,2.618A4.432,4.432,0,0,0,34.034,61.4c-.828.159-1.683.742-1.719,2.466a2.319,2.319,0,0,0,.577,1.74,1.982,1.982,0,0,0,1.472.565h.2a10.025,10.025,0,0,0,3.9-.547c1.854-.732,3.865-2.115,2.923-4.547a3.953,3.953,0,0,0-3.25-2.636c-.107-.021-.2-.038-.279-.062l-.1-.03a1.673,1.673,0,0,0,1.105-.968,1.879,1.879,0,0,0-.422-1.82c-.381-.511-1.068-.616-1.982-.616Zm-1.6,6.462.121-.008q.15-.011.3-.011a2.948,2.948,0,0,1,1.813.587.569.569,0,0,1-.39.157,2.665,2.665,0,0,1-1.031-.378,3.983,3.983,0,0,0-.809-.347Z" transform="translate(0)"/>
  </g>
  <g>
    <path class="cls-1" d="M3.319,50.1c-1.032,0-1.657-.708-1.67-1.895l-.006-.459c-.009-.652-.017-1.306,0-1.958A9.551,9.551,0,0,0,.8,40.923a1.418,1.418,0,0,1,.355-2.077,2.115,2.115,0,0,1,1.192-.455,1.292,1.292,0,0,1,1.158.743,4.873,4.873,0,0,1,.25.566,1.679,1.679,0,0,1,.4-.284,1.852,1.852,0,0,1,.789-.146c.14,0,.276.009.4.018A2.888,2.888,0,0,1,7.438,40.4,3.453,3.453,0,0,1,9.176,38.78a1.266,1.266,0,0,1,.479-.09,3.244,3.244,0,0,1,2.406,1.628,11.046,11.046,0,0,1,.586,1.5c.118-.251.235-.5.328-.685.66-1.345,1.5-2,2.559-2a5.135,5.135,0,0,1,2.574.938c1.843,1.128,1.706,2.33,1.549,3.723a2.719,2.719,0,0,0,.651,2.455,1.727,1.727,0,0,1,.688,1.3,1.4,1.4,0,0,1-.6,1.045,2.211,2.211,0,0,1-1.362.544,1.757,1.757,0,0,1-1.444-.809,3.254,3.254,0,0,1-.406-.809c-.034.057-.217.386-.217.386a2.879,2.879,0,0,1-2.351,1.655,2.2,2.2,0,0,1-1.425-.556,3.231,3.231,0,0,1-.549-.6,1.793,1.793,0,0,1-1.45.953,1.035,1.035,0,0,1-.868-.452c-.463-.659-.36-1.895.315-3.776a3,3,0,0,0-.832-2.607.258.258,0,0,0-.2-.084.284.284,0,0,0-.271.172,3.643,3.643,0,0,0-.155,1.06c-.067,1.182-.124,2.349-.153,3.517a2.192,2.192,0,0,1-1.3,2,2.135,2.135,0,0,1-.816.178h0a1.328,1.328,0,0,1-1.007-.426A1.647,1.647,0,0,1,5.554,47.6a14.846,14.846,0,0,1,.368-1.908,5.743,5.743,0,0,0,.021-1.971c-.12-1.1-.555-1.115-.718-1.121-.455.325-.9,3.73-.255,4.911a1.78,1.78,0,0,1,.1,1.644,1.728,1.728,0,0,1-1.338.907A2.5,2.5,0,0,1,3.319,50.1ZM15.874,42.34a.637.637,0,0,0-.151.125,3.562,3.562,0,0,0-.839,3.318,5.962,5.962,0,0,0,1.071-3.265A.393.393,0,0,0,15.874,42.34Z" transform="translate(0)"/>
    <path class="cls-2" d="M2.35,38.891a.814.814,0,0,1,.723.488,12.11,12.11,0,0,1,.5,1.288,3.322,3.322,0,0,1,.8-.8,1.4,1.4,0,0,1,.577-.1c.127,0,.251.008.36.017a2.626,2.626,0,0,1,2.225,1.8,3.3,3.3,0,0,1,1.835-2.34.759.759,0,0,1,.29-.053,2.751,2.751,0,0,1,1.958,1.351,15.4,15.4,0,0,1,.919,2.711s.58-1.27.89-1.9c.592-1.205,1.271-1.719,2.111-1.719a4.732,4.732,0,0,1,2.314.865c1.558.954,1.471,1.834,1.312,3.239a3.262,3.262,0,0,0,.81,2.88c.58.534.77,1.064.116,1.589a1.721,1.721,0,0,1-1.049.434,1.281,1.281,0,0,1-1.041-.6,7.114,7.114,0,0,1-.6-1.38,2.032,2.032,0,0,0-.853,1,2.378,2.378,0,0,1-1.92,1.41,1.709,1.709,0,0,1-1.1-.437A4.173,4.173,0,0,1,12.364,46.5a5.024,5.024,0,0,1,0,1.208A1.379,1.379,0,0,1,11.2,48.854c-.612,0-1.052-.857-.082-3.56a3.471,3.471,0,0,0-.929-3.108.757.757,0,0,0-.571-.253.782.782,0,0,0-.737.493,4.1,4.1,0,0,0-.189,1.226C8.621,44.824,8.563,46,8.534,47.17a1.7,1.7,0,0,1-.993,1.552,1.655,1.655,0,0,1-.626.139c-.588,0-.945-.444-.864-1.209a14.685,14.685,0,0,1,.358-1.845,6.183,6.183,0,0,0,.031-2.142c-.084-.758-.361-1.535-1.2-1.566H5.231c-.964,0-1.485,4.222-.7,5.651a1.153,1.153,0,0,1-.88,1.817,2.05,2.05,0,0,1-.331.029c-.774,0-1.16-.527-1.17-1.4-.009-.8-.027-1.6-.007-2.4a9.89,9.89,0,0,0-.9-5.113c-.285-.526-.442-.978.2-1.43a1.677,1.677,0,0,1,.906-.364m12.274,8.071a6.926,6.926,0,0,0,1.831-4.428.829.829,0,0,0-.277-.593.465.465,0,0,0-.292-.109.782.782,0,0,0-.528.291c-1.2,1.276-1.276,2.755-.734,4.839M2.35,37.891h0a2.582,2.582,0,0,0-1.479.545A1.874,1.874,0,0,0,.362,41.16a8.943,8.943,0,0,1,.78,4.613c-.016.66-.007,1.322,0,1.962l.006.472A2.16,2.16,0,0,0,3.32,50.6a3.064,3.064,0,0,0,.493-.042,2.211,2.211,0,0,0,1.706-1.181c.013-.027.025-.054.037-.081a1.826,1.826,0,0,0,1.359.569,2.642,2.642,0,0,0,1.008-.215,2.693,2.693,0,0,0,1.611-2.451c.031-1.231.094-2.453.152-3.486.01-.174.019-.339.035-.488a2.361,2.361,0,0,1,.452,1.736c-.745,2.075-.826,3.42-.254,4.233a1.544,1.544,0,0,0,1.277.665,2.137,2.137,0,0,0,1.466-.66q.1.1.21.193a2.7,2.7,0,0,0,1.749.674,3.1,3.1,0,0,0,2.522-1.5l.047.067a2.285,2.285,0,0,0,1.847,1.014,2.7,2.7,0,0,0,1.675-.654,1.881,1.881,0,0,0,.784-1.418,2.187,2.187,0,0,0-.849-1.686,2.272,2.272,0,0,1-.493-2.031c.162-1.431.33-2.911-1.783-4.2a5.5,5.5,0,0,0-2.836-1.012,3.179,3.179,0,0,0-2.818,1.917c-.066-.157-.136-.31-.208-.454a3.708,3.708,0,0,0-2.853-1.9,1.755,1.755,0,0,0-.669.127,3.813,3.813,0,0,0-1.63,1.277,3.379,3.379,0,0,0-1.977-.8c-.132-.01-.281-.019-.435-.019a2.365,2.365,0,0,0-.969.179l-.033-.061a1.788,1.788,0,0,0-1.594-1Zm13.775,4.881h0ZM5.207,46.589a8.768,8.768,0,0,1,.2-3.081c.016.076.031.165.042.268a5.3,5.3,0,0,1-.01,1.8c-.079.331-.16.669-.229,1.014Z" transform="translate(0)"/>
  </g>
  <g>
    <path class="cls-1" d="M112.76,60.588a2.02,2.02,0,0,1-1.749-.667,1.965,1.965,0,0,1,.134-1.826c.348-.776,2.2-4.533,2.415-4.959a5.015,5.015,0,0,0-.853-.071l-.138,0a5.16,5.16,0,0,0-1.419.207,3.063,3.063,0,0,1-.854.139,1.71,1.71,0,0,1-1.176-.442,1.49,1.49,0,0,1-.6-1.536,1.348,1.348,0,0,1,1.279-1.118c.395,0,.79-.018,1.186-.03.533-.017,1.067-.033,1.6-.033a16.1,16.1,0,0,1,1.81.088l2.135.236a1.036,1.036,0,0,1,.8,1.516c-1.678,3.184-2.523,4.993-2.821,5.782.275.021.525.031.755.031a2.5,2.5,0,0,0,1.856-.52,1.867,1.867,0,0,0,.35-1.449c-.083-1.229-.277-4.1,1.01-5.547a4.7,4.7,0,0,1,3.531-1.781,4.865,4.865,0,0,1,4.061,2.443,3.808,3.808,0,0,1-.042,3.644,3.487,3.487,0,0,1-2.717,1.854c-.105.009-.22.013-.341.013a14.812,14.812,0,0,1-2.337-.265,1.617,1.617,0,0,0,1.458,1.287,2.193,2.193,0,0,0,.595-.091,3.482,3.482,0,0,0,.751-.335,2.075,2.075,0,0,1,1-.291,1.051,1.051,0,0,1,.984.57c.539,1.083-.59,1.684-1.015,1.91a6.023,6.023,0,0,1-2.822.84h0a3.654,3.654,0,0,1-.989-.135,4.169,4.169,0,0,0-1.159-.158,10.074,10.074,0,0,0-2.022.282,29.82,29.82,0,0,1-4.488.416Zm8.283-7.5a4.993,4.993,0,0,0,.737.044,6.856,6.856,0,0,0,1.582-.151c-.3-.922-.6-1.471-1.188-1.471a1.266,1.266,0,0,0-.2.019C121.389,51.625,121.077,52.149,121.043,53.083Z" transform="translate(0)"/>
    <path class="cls-2" d="M122.012,49.1a4.387,4.387,0,0,1,3.616,2.173,3.255,3.255,0,0,1-2.356,4.77c-.092.008-.193.011-.3.011a18.434,18.434,0,0,1-2.993-.4s.25,2.425,2.115,2.425a2.689,2.689,0,0,0,.73-.109,3.983,3.983,0,0,0,.863-.382,1.6,1.6,0,0,1,.753-.226.555.555,0,0,1,.537.294c.313.628-.3.978-.8,1.245a5.672,5.672,0,0,1-2.587.781,3.109,3.109,0,0,1-.852-.116,4.692,4.692,0,0,0-1.3-.176,10.927,10.927,0,0,0-2.219.312,29.505,29.505,0,0,1-4.295.386h-.156c-1.427-.028-1.736-.521-1.168-1.789.293-.653,1.716-3.543,2.407-4.942a.534.534,0,0,0-.468-.772c-.233,0-.508-.011-.817-.02l-.154,0a5.639,5.639,0,0,0-1.555.227,2.627,2.627,0,0,1-.716.119,1.205,1.205,0,0,1-.842-.315A1,1,0,0,1,109,51.562c.112-.4.347-.745.8-.751.923-.013,1.852-.064,2.776-.064a15.887,15.887,0,0,1,1.755.085l2.135.236a.537.537,0,0,1,.416.785c-.89,1.688-3.071,5.894-3,6.458a12.516,12.516,0,0,0,1.38.089c1.764,0,2.836-.577,2.705-2.5-.088-1.3-.24-3.92.884-5.18a4.208,4.208,0,0,1,3.158-1.614m-.231,4.522a7.209,7.209,0,0,0,1.737-.176.506.506,0,0,0,.349-.615c-.27-.775-.669-1.831-1.693-1.831a1.679,1.679,0,0,0-.289.026c-1.124.2-1.363,1.334-1.344,2.344,0,.182.582.252,1.24.252m.231-5.522a5.175,5.175,0,0,0-3.9,1.948,3.678,3.678,0,0,0-.455.639,1.537,1.537,0,0,0-1.069-.616l-2.135-.236a16.653,16.653,0,0,0-1.865-.091c-.537,0-1.076.017-1.615.034-.392.012-.784.025-1.175.03a1.84,1.84,0,0,0-1.755,1.483,1.988,1.988,0,0,0,.749,2.044,2.2,2.2,0,0,0,1.509.57,3.547,3.547,0,0,0,.992-.158,4.639,4.639,0,0,1,1.279-.188l.124,0,.1,0c-.785,1.592-1.846,3.756-2.1,4.323a2.429,2.429,0,0,0-.1,2.3,2.48,2.48,0,0,0,2.161.9l.176,0a30.161,30.161,0,0,0,4.5-.406l.094-.019a9.685,9.685,0,0,1,1.922-.272,3.7,3.7,0,0,1,1.023.138,4.122,4.122,0,0,0,1.125.154,6.487,6.487,0,0,0,3.056-.9c1.641-.872,1.574-1.881,1.229-2.574a1.5,1.5,0,0,0-.831-.744,4.244,4.244,0,0,0,1.428-1.535,4.3,4.3,0,0,0,.048-4.115,5.4,5.4,0,0,0-4.5-2.714Zm-.418,4.52c.076-.364.23-.568.463-.608a.683.683,0,0,1,.117-.011c.2,0,.361.217.522.576-.252.026-.572.046-.916.046l-.187,0ZM115.245,57.4c.33-.748.882-1.9,1.672-3.435-.018.666.011,1.344.055,2a1.553,1.553,0,0,1-.216,1.075,2.171,2.171,0,0,1-1.491.36Zm6.848-.32a.78.78,0,0,1-.422-.121c.257.033.517.06.767.078a1.567,1.567,0,0,1-.345.043Z" transform="translate(0)"/>
  </g>
  <g>
    <path class="cls-1" d="M43.018,48.362a1.58,1.58,0,0,1-1.5-1.454c-.108-.562-.19-1.128-.272-1.694-.1-.68-.2-1.383-.351-2.053-.436-1.955-.568-2.274-.946-2.274a9.13,9.13,0,0,0-2.175.622,3.211,3.211,0,0,1-1.034.247,1.044,1.044,0,0,1-1.031-.741,1.74,1.74,0,0,1,.688-2.3c.3-.155,2.306-.661,7.164-1.864,2.688-.666,5.469-1.354,6.976-1.763a3.242,3.242,0,0,1,.849-.115,3.611,3.611,0,0,1,3.246,2.4c.064.158.134.315.2.473.091.21.183.42.267.633a5.489,5.489,0,0,1-.25,5.154,5.429,5.429,0,0,1-4.62,2.182h-.108a4.736,4.736,0,0,1-3.661-1.556,4.664,4.664,0,0,1-1.011-3.786,4.5,4.5,0,0,1,.3-1.024,4.017,4.017,0,0,1,.385-.679,17.906,17.906,0,0,0-3.122,1c.289,1.691,1.449,6.042,1.572,6.384a1.614,1.614,0,0,1-.037,1.313,1.693,1.693,0,0,1-1.062.826A1.661,1.661,0,0,1,43.018,48.362ZM51.48,38.236a2.364,2.364,0,0,0-1.3.589l-.3.215c-.212.15-.424.3-.619.469a2.057,2.057,0,0,0-.595,2.738,1.558,1.558,0,0,0,1.4.813,2.768,2.768,0,0,0,.692-.1,2.323,2.323,0,0,0,1.906-2.228l-.039-.24c-.031-.239-.066-.5-.12-.757C52.3,38.741,51.953,38.236,51.48,38.236Z" transform="translate(0)"/>
    <path class="cls-2" d="M51.39,35.472a3.1,3.1,0,0,1,2.783,2.085c.15.369.32.729.465,1.1,1.444,3.683-.481,6.583-4.413,6.653h-.1a4.079,4.079,0,0,1-3.907-5.68,10.6,10.6,0,0,1,1.145-1.673s-4.955,1.112-4.875,1.667c.223,1.554,1.5,6.32,1.63,6.694a1.065,1.065,0,0,1-.769,1.492,1.167,1.167,0,0,1-.332.051c-.553,0-.892-.469-1-1.049-.242-1.247-.349-2.523-.625-3.761-.434-1.943-.605-2.665-1.435-2.665a8.856,8.856,0,0,0-2.341.65,2.883,2.883,0,0,1-.868.219.542.542,0,0,1-.559-.405,1.288,1.288,0,0,1,.447-1.694c.488-.255,10.582-2.65,14.039-3.587a2.737,2.737,0,0,1,.718-.1m-1.321,8.087a3.283,3.283,0,0,0,.816-.112,2.815,2.815,0,0,0,2.281-2.709c-.049-.323-.089-.717-.169-1.1q-.4-1.9-1.516-1.9a2.878,2.878,0,0,0-1.6.687c-.317.234-.648.451-.946.707a2.553,2.553,0,0,0-.694,3.38,2.047,2.047,0,0,0,1.831,1.05m1.321-9.087v0a3.745,3.745,0,0,0-.98.132c-1.5.408-4.287,1.1-6.978,1.763C37.643,37.8,36.49,38.1,36.17,38.27a2.229,2.229,0,0,0-.929,2.908,1.539,1.539,0,0,0,1.5,1.078A3.451,3.451,0,0,0,37.886,42l.059-.021a11.309,11.309,0,0,1,1.959-.592,11.511,11.511,0,0,1,.508,1.881c.146.652.241,1.315.343,2.017.081.561.165,1.141.277,1.717a2.076,2.076,0,0,0,1.986,1.859A2.314,2.314,0,0,0,45,47.69a2.1,2.1,0,0,0,.062-1.708c-.107-.314-1.114-4.064-1.48-5.923.368-.147.943-.33,1.6-.516a4.367,4.367,0,0,0-.223.858,5.156,5.156,0,0,0,1.128,4.184,5.226,5.226,0,0,0,4.038,1.727h.118a5.914,5.914,0,0,0,5.028-2.4,5.969,5.969,0,0,0,.3-5.615c-.084-.215-.176-.426-.268-.638-.068-.157-.137-.314-.2-.473a4.108,4.108,0,0,0-3.71-2.709Zm-1.321,8.087a1.055,1.055,0,0,1-.981-.576,1.568,1.568,0,0,1,.5-2.1c.172-.148.37-.289.58-.439.1-.074.206-.147.308-.222a1.949,1.949,0,0,1,1.008-.491c.181,0,.4.454.537,1.1.051.244.083.493.114.72.011.083.022.164.033.241a1.83,1.83,0,0,1-1.528,1.679,2.3,2.3,0,0,1-.567.08Z" transform="translate(0)"/>
  </g>
  <g>
    <path class="cls-1" d="M133.851,77.833a4.034,4.034,0,0,1-3.219-1.749,6.086,6.086,0,0,1-1-4.847c.485-1.7,1.3-4.549,5.135-5.012a2.762,2.762,0,0,1,.334-.021,4.3,4.3,0,0,1,3.035,1.576,1.064,1.064,0,0,1,.291.88,6.245,6.245,0,0,1,1.223-.833,6.478,6.478,0,0,1,2.6-.751,1.747,1.747,0,0,1,.861.2c.589.333,1.02,1.407,1.729,3.278.6,1.569,1.337,3.522,2.074,4.09a.7.7,0,0,1,.237.8,2.939,2.939,0,0,1-2.194,1.361h0a.722.722,0,0,1-.735-.483,3.217,3.217,0,0,0-.513-.857,3.658,3.658,0,0,1-3.08,1.841c-.1,0-.194.006-.288.006a6.12,6.12,0,0,1-2.057-.336,8.484,8.484,0,0,1-4.065.863C134.1,77.838,133.976,77.836,133.851,77.833Zm1.231-8.442a2.35,2.35,0,0,0-1.049.416c-.822.48-1.387,2.173-1.186,3.549a1.713,1.713,0,0,0,1.135,1.576,3.023,3.023,0,0,0,.687.066,10.569,10.569,0,0,0,2.232-.312,6.636,6.636,0,0,1,.3-4.427,3.411,3.411,0,0,1-.871.218c-.022,0-.095.009-.117.009-.551,0-.751-.49-.858-.753C135.215,69.391,135.182,69.391,135.082,69.391Zm5.967,1.152a4.33,4.33,0,0,0-1.807,3.063,1.1,1.1,0,0,0,.3.762.559.559,0,0,0,.369.205c.634-.14,1.336-.416,1.4-.979A14.365,14.365,0,0,0,141.049,70.543Z" transform="translate(0)"/>
    <path class="cls-2" d="M135.1,66.705a3.869,3.869,0,0,1,2.667,1.414c.305.33.131.737-.089,1.1a1.752,1.752,0,0,1-1.418.761.376.376,0,0,1-.05,0c-.494,0-.3-1.1-1.132-1.1a2.807,2.807,0,0,0-1.3.485c-1.708,1-2.238,5.476.083,6.042a3.467,3.467,0,0,0,.806.082,12.421,12.421,0,0,0,2.861-.457s-1.792-4.583,2.354-6.771a5.928,5.928,0,0,1,2.364-.693,1.258,1.258,0,0,1,.615.131c1.006.568,2.179,6.122,3.746,7.329.45.347-1.024,1.268-1.653,1.268-.133,0-.228-.041-.259-.138a5.6,5.6,0,0,0-1.127-1.626,3.206,3.206,0,0,1-2.962,2.265c-.091,0-.18.005-.267.005a5.127,5.127,0,0,1-2.1-.394,7.214,7.214,0,0,1-4.023.922q-.172,0-.352,0c-3.143-.087-4.318-3.969-3.75-5.958s1.375-4.25,4.715-4.653a2.287,2.287,0,0,1,.276-.016m4.811,8.366a.759.759,0,0,0,.17-.019c.781-.179,1.633-.569,1.73-1.4a19.145,19.145,0,0,0-.409-3.942,5.161,5.161,0,0,0-2.662,3.866,1.433,1.433,0,0,0,1.172,1.5M135.1,65.705h0a3.291,3.291,0,0,0-.4.024c-4.165.5-5.07,3.67-5.556,5.371a6.536,6.536,0,0,0,1.077,5.28,4.517,4.517,0,0,0,3.607,1.952q.194.005.38.005a9.259,9.259,0,0,0,4.11-.821,6.767,6.767,0,0,0,2.015.294q.15,0,.307-.006a4.109,4.109,0,0,0,3.043-1.461.993.993,0,0,1,.054.13,1.213,1.213,0,0,0,1.211.831,3.4,3.4,0,0,0,2.668-1.7,1.2,1.2,0,0,0-.405-1.36c-.625-.481-1.369-2.441-1.913-3.872-.773-2.035-1.211-3.117-1.951-3.535a2.226,2.226,0,0,0-1.107-.26,6.826,6.826,0,0,0-2.831.809,7.232,7.232,0,0,0-.666.4,1.7,1.7,0,0,0-.248-.343,4.786,4.786,0,0,0-3.4-1.736ZM134.67,74.5a2.451,2.451,0,0,1-.569-.053c-.5-.123-.691-.7-.759-1.161a3.48,3.48,0,0,1,.944-3.046,3.7,3.7,0,0,1,.613-.3,1.441,1.441,0,0,0,1.315,1.049,1.371,1.371,0,0,0,.177-.012,7.109,7.109,0,0,0-.108,3.336,8.743,8.743,0,0,1-1.614.189Zm5.274-.441a.647.647,0,0,1-.2-.42,3.447,3.447,0,0,1,.954-2.1,9.859,9.859,0,0,1,.126,1.993c-.022.192-.364.394-.878.523Z" transform="translate(0)"/>
  </g>
  <g>
    <path class="cls-1" d="M108.131,80.262a1.615,1.615,0,0,1-1.328-1.025c-.881-1.547-1.3-5.067-1.463-6.517a9.364,9.364,0,0,1-1.149.07c-1.3,0-1.966-.253-2.1-.8a1.544,1.544,0,0,1,1-1.949c.448-.152,7.615-1.38,9.21-1.651a6.841,6.841,0,0,0,.814-.44,4.42,4.42,0,0,1,2.341-.791c1.256,0,2.3.758,3.19,2.317l.306.521a6.5,6.5,0,0,1,1.285,3.769c-.185,2.141-1.172,4.78-4.83,5.2a3.155,3.155,0,0,1-.354.02,3.788,3.788,0,0,1-2.811-1.277,5.658,5.658,0,0,1-1.017-4.633c.015-.107.034-.223.055-.341.159-.922.08-1.085-.272-1.169a1.928,1.928,0,0,0-.45-.051,5.3,5.3,0,0,0-1.957.544c.032.653.34,2.684,1.008,6.075a1.613,1.613,0,0,1-.906,2.008A1.53,1.53,0,0,1,108.131,80.262Zm7.941-9.6a2.8,2.8,0,0,1-.756.344,2.03,2.03,0,0,0-.545.242c-.675.459-.742,1.627-.783,2.325a2.807,2.807,0,0,0,.473,2.068,1.249,1.249,0,0,0,.964.365,2.106,2.106,0,0,0,1.589-.534,2.13,2.13,0,0,0,.455-1.628A4.822,4.822,0,0,0,116.072,70.66Z" transform="translate(0)"/>
    <path class="cls-2" d="M115.459,67.661c1.1,0,1.993.73,2.757,2.065.7,1.229,1.651,2.551,1.526,4-.358,4.15-3.295,4.62-4.389,4.744a2.642,2.642,0,0,1-.3.016c-1.487,0-3.882-1.154-3.33-5.344.1-.724.462-1.81-.6-2.062a2.438,2.438,0,0,0-.566-.064,6.42,6.42,0,0,0-2.412.7c-.294.126.908,6.189.98,6.558a1.118,1.118,0,0,1-.607,1.409,1.056,1.056,0,0,1-.39.085c-.413,0-.647-.343-.893-.774-.988-1.733-1.393-6.341-1.46-6.852a7.523,7.523,0,0,1-1.587.154c-.792,0-1.538-.112-1.612-.415a1.052,1.052,0,0,1,.676-1.357c.44-.15,9.193-1.643,9.193-1.643a6.747,6.747,0,0,0,.938-.5,3.962,3.962,0,0,1,2.074-.714m-.026,8.844a2.286,2.286,0,0,0,2.535-2.688,5.431,5.431,0,0,0-1.867-3.833c-.566.589-1.043.462-1.612.85-.855.583-.949,1.836-1,2.708-.108,1.839.527,2.961,1.935,2.963h.009m.026-9.844a4.892,4.892,0,0,0-2.607.868,6.4,6.4,0,0,1-.7.382c-3.312.565-8.781,1.51-9.224,1.661a2.04,2.04,0,0,0-1.325,2.541c.288,1.178,1.956,1.178,2.583,1.178.235,0,.476-.009.708-.026.255,2.152.679,4.831,1.47,6.219a2.084,2.084,0,0,0,1.762,1.279,2.055,2.055,0,0,0,.761-.156,2.083,2.083,0,0,0,1.218-2.53l-.011-.055c-.567-2.887-.875-4.784-.967-5.64a4.051,4.051,0,0,1,1.429-.366,1.451,1.451,0,0,1,.3.03,4.15,4.15,0,0,1-.074.6c-.022.126-.042.247-.057.361-.353,2.683.423,4.215,1.136,5.028a4.3,4.3,0,0,0,3.186,1.447,3.646,3.646,0,0,0,.411-.023c3.994-.455,5.072-3.324,5.272-5.652a6.881,6.881,0,0,0-1.352-4.065c-.1-.174-.205-.346-.3-.516-.975-1.7-2.194-2.569-3.625-2.569Zm-.026,9.844-.006-1a.75.75,0,0,1-.6-.207,2.454,2.454,0,0,1-.338-1.7c.033-.566.095-1.62.565-1.941a1.555,1.555,0,0,1,.421-.18,4.4,4.4,0,0,0,.491-.186,4.2,4.2,0,0,1,1,2.575,1.753,1.753,0,0,1-.319,1.258,1.719,1.719,0,0,1-1.218.379v1Z" transform="translate(0)"/>
  </g>
  <g>
    <path class="cls-1" d="M73.076,82.251a4.093,4.093,0,0,1-3.984-3.291l-.025-.112c-.655-2.809.595-4.989,3.716-6.479a5.842,5.842,0,0,1,2.5-.581,4.1,4.1,0,0,1,3.273,1.436,4.642,4.642,0,0,1,.726,4.063,5.955,5.955,0,0,1-1.846,3.105,7.431,7.431,0,0,1-3.057,1.678,4.985,4.985,0,0,1-1.3.182Zm1.172-7.5a2.477,2.477,0,0,1-1.508,1.487c-.536.259-.821.417-.925.9a3.179,3.179,0,0,0,.628,2.284.928.928,0,0,0,.611.394c1.253-.033,3.483-1.913,3.684-3.1.066-.392.032-.911-.833-1.457a3.648,3.648,0,0,0-1.584-.518C74.291,74.744,74.268,74.745,74.248,74.747Z" transform="translate(0)"/>
    <path class="cls-2" d="M75.278,72.287c2.267,0,4.194,1.624,3.51,4.9a5.437,5.437,0,0,1-1.694,2.839,6.9,6.9,0,0,1-2.849,1.563,4.458,4.458,0,0,1-1.169.164,3.617,3.617,0,0,1-3.494-2.9c-.15-.7-1.15-3.855,3.417-6.036a5.325,5.325,0,0,1,2.279-.532m-2.222,8.028h.025c1.459-.039,3.911-2.1,4.151-3.512a1.878,1.878,0,0,0-1.06-1.963,4.1,4.1,0,0,0-1.851-.6c-.272,0-.47.072-.519.247-.428,1.555-2.156,1.044-2.476,2.541-.253,1.184.6,3.283,1.729,3.283m2.222-9.028a6.338,6.338,0,0,0-2.71.63c-2.312,1.1-4.88,3.223-3.987,7.045l.023.1a4.588,4.588,0,0,0,4.472,3.686,5.48,5.48,0,0,0,1.431-.2,7.908,7.908,0,0,0,3.264-1.791,6.462,6.462,0,0,0,2-3.372,5.121,5.121,0,0,0-.827-4.481,4.654,4.654,0,0,0-3.662-1.62Zm-2.213,8.028a2.441,2.441,0,0,1-.76-2.074c.05-.236.13-.3.653-.556a3.119,3.119,0,0,0,1.613-1.409,3.382,3.382,0,0,1,1.068.409c.695.438.64.758.608.95a5.007,5.007,0,0,1-3.182,2.68Z" transform="translate(0)"/>
  </g>
  <g>
    <path class="cls-1" d="M68.087,84.935a16.817,16.817,0,0,1-2.362-.158,1.9,1.9,0,0,1-1.64-1.676,59.486,59.486,0,0,1-.5-7.95,1.408,1.408,0,0,1,1.456-1.5,2.329,2.329,0,0,1,.433.044,1.724,1.724,0,0,1,1.219.727,1.488,1.488,0,0,1,.1,1.236,14.361,14.361,0,0,0-.354,5.86c.073.592.238.687.73.687.06,0,.121,0,.186-.006l.343-.022c.454-.031,1.033-.07,1.617-.07A3.752,3.752,0,0,1,72,82.792a1.258,1.258,0,0,1,.368.917c-.012,1.106-3,1.226-4.282,1.226Z" transform="translate(0)"/>
    <path class="cls-2" d="M65.046,74.155a1.786,1.786,0,0,1,.338.035c.742.143,1.17.534.937,1.332a14.835,14.835,0,0,0-.37,6.063c.106.862.5,1.124,1.224,1.124q.1,0,.217-.007c.469-.028,1.2-.092,1.929-.092,1.27,0,2.558.191,2.548,1.093,0,.391-1.751.732-3.784.732a16.476,16.476,0,0,1-2.29-.154A1.419,1.419,0,0,1,64.575,83a58.97,58.97,0,0,1-.485-7.827c.027-.653.366-1.016.956-1.016m0-1h0a1.914,1.914,0,0,0-1.955,1.974,60.113,60.113,0,0,0,.5,8.073,2.389,2.389,0,0,0,2.059,2.069,17.337,17.337,0,0,0,2.431.164c4.765,0,4.779-1.3,4.784-1.721a1.747,1.747,0,0,0-.513-1.274c-.568-.574-1.5-.83-3.036-.83-.6,0-1.184.039-1.65.071l-.339.022c-.055,0-.108.005-.158.005a1.171,1.171,0,0,1-.183-.012,1.213,1.213,0,0,1-.048-.235,13.873,13.873,0,0,1,.337-5.66,1.975,1.975,0,0,0-.156-1.637,2.2,2.2,0,0,0-1.55-.957,2.8,2.8,0,0,0-.527-.053Z" transform="translate(0)"/>
  </g>
  <g>
    <path class="cls-1" d="M17.92,68.958c-.465,0-.911-.011-1.319-.031a1.488,1.488,0,0,1-1.113-.492,2.545,2.545,0,0,1-.327-1.949c.087-.775,1.074-.82,2.567-.887,2.139-.1,4.057-.277,4.034-1.438-.009-.475-.888-.758-2.349-.758l-.345,0a1.594,1.594,0,0,1-1.624-1.394l-.037-.318a1.574,1.574,0,0,1,.847-1.581c1.619-.811,1.978-1.347,2.048-1.594a.35.35,0,0,0-.051-.3.665.665,0,0,0-.65-.293,5.828,5.828,0,0,0-2.441.858,1.114,1.114,0,0,1-.528.134,1.131,1.131,0,0,1-1.123-1.013l-.038-.338a1.658,1.658,0,0,1,.8-1.549,7.275,7.275,0,0,1,3.444-.879,3.916,3.916,0,0,1,2.395.674c1.331,1.067,1.908,2.135,1.717,3.172a3.039,3.039,0,0,1-1.312,1.819,4.276,4.276,0,0,1,2.55,1.17,3.046,3.046,0,0,1,.758,2.39A4.77,4.77,0,0,1,22.1,68.554a19.045,19.045,0,0,1-4.176.4Z" transform="translate(0)"/>
    <path class="cls-2" d="M19.71,55.642a3.4,3.4,0,0,1,2.082.564c4.145,3.325-1.255,5.055-1.255,5.055a7.134,7.134,0,0,1,.762-.036c1.4,0,4.214.341,4.02,3.107a4.3,4.3,0,0,1-3.345,3.738,17.974,17.974,0,0,1-4.055.39c-.456,0-.894-.011-1.294-.03-1.148-.055-1.052-1.129-.967-1.888.106-.949,6.657.374,6.6-2.39-.02-1.008-1.472-1.247-2.848-1.247-.12,0-.24,0-.358.005h-.032a1.08,1.08,0,0,1-1.083-.951l-.037-.319a1.067,1.067,0,0,1,.574-1.076c1.66-.831,2.738-1.738,2.2-2.606a1.175,1.175,0,0,0-1.075-.528,6.432,6.432,0,0,0-2.679.918.609.609,0,0,1-.291.074.635.635,0,0,1-.626-.568q-.019-.169-.038-.339a1.161,1.161,0,0,1,.544-1.057,6.811,6.811,0,0,1,3.2-.815m0-1a7.783,7.783,0,0,0-3.687.943,2.151,2.151,0,0,0-1.049,2.043l.038.335A1.624,1.624,0,0,0,17.4,59.226a5.19,5.19,0,0,1,2.2-.8.507.507,0,0,1,.183.023,4.608,4.608,0,0,1-1.752,1.216,2.071,2.071,0,0,0-1.12,2.084l.037.32a2.082,2.082,0,0,0,2.077,1.837h.06c.108,0,.219,0,.329,0a3.47,3.47,0,0,1,1.847.306c-.065.735-2.329.837-3.555.891-1.56.07-2.908.13-3.041,1.33a2.984,2.984,0,0,0,.443,2.33,1.978,1.978,0,0,0,1.47.668c.414.02.869.031,1.341.031a19.037,19.037,0,0,0,4.3-.42,5.268,5.268,0,0,0,4.1-4.637,3.571,3.571,0,0,0-.89-2.766,4.17,4.17,0,0,0-1.857-1.1,3.015,3.015,0,0,0,.744-1.453c.228-1.232-.41-2.461-1.9-3.653a4.4,4.4,0,0,0-2.708-.784Z" transform="translate(0)"/>
  </g>
  <g>
    <path class="cls-1" d="M11.344,68.853c-1.5,0-3.906-1.09-4.562-2.361a1.557,1.557,0,0,1,.126-1.848,1.1,1.1,0,0,1,.875-.418,3.328,3.328,0,0,1,1.411.493,3.887,3.887,0,0,0,1.62.561,1.526,1.526,0,0,0,1.229-.681c.087-.1.047-.315.026-.4A2.488,2.488,0,0,0,10.8,62.716a1.917,1.917,0,0,0-.765-.114l-.461,0a4.07,4.07,0,0,1-.513-.027,2.3,2.3,0,0,1-1.955-1.694A18.266,18.266,0,0,1,7.368,56.4a.962.962,0,0,1,.873-.847c.238-.022.558-.065.923-.115a23.565,23.565,0,0,1,3.03-.276,3.907,3.907,0,0,1,1.879.349c.619.349.486,1.709.394,2.063-.162.618-.553.686-.713.686a.844.844,0,0,1-.25-.051,1.267,1.267,0,0,0-.393-.036,18.773,18.773,0,0,0-2.875.388l.13,1.131.1-.023A5.536,5.536,0,0,1,14.732,61.3a4.727,4.727,0,0,1,.7,4.081A5.206,5.206,0,0,1,11.6,68.841Q11.479,68.853,11.344,68.853Z" transform="translate(0)"/>
    <path class="cls-2" d="M12.2,55.664a3.552,3.552,0,0,1,1.632.284c.31.175.3,1.814-.074,1.814a.155.155,0,0,1-.059-.013,1.679,1.679,0,0,0-.584-.075,18.708,18.708,0,0,0-2.972.4.471.471,0,0,0-.375.509l.1,1.157a.477.477,0,0,0,.479.433h.123c1.5,0,5.414.438,4.475,5.117a4.714,4.714,0,0,1-3.391,3.056q-.1.01-.209.009c-1.307,0-3.552-.994-4.117-2.09a1.053,1.053,0,0,1,.068-1.3.6.6,0,0,1,.487-.233c.745,0,1.859,1.053,3.031,1.053a2.044,2.044,0,0,0,1.615-.862c.568-.687-.4-2.229-1.43-2.662a2.4,2.4,0,0,0-.957-.153c-.155,0-.31,0-.464,0a3.6,3.6,0,0,1-.45-.023A1.814,1.814,0,0,1,7.593,60.75a23.563,23.563,0,0,1,.271-4.286.464.464,0,0,1,.423-.41,38.61,38.61,0,0,1,3.909-.39m0-1h0a24.32,24.32,0,0,0-3.1.281c-.358.049-.669.091-.9.113a1.46,1.46,0,0,0-1.323,1.283c-.474,3.844-.305,4.449-.242,4.677A2.83,2.83,0,0,0,9,63.075a4.494,4.494,0,0,0,.574.031l.247,0,.216,0a1.548,1.548,0,0,1,.568.074,2,2,0,0,1,.984,1.179,1,1,0,0,1-.78.425,3.522,3.522,0,0,1-1.392-.5,3.672,3.672,0,0,0-1.639-.549h0a1.6,1.6,0,0,0-1.262.6,2.039,2.039,0,0,0-.182,2.393c.751,1.458,3.353,2.632,5.006,2.632q.159,0,.3-.014a5.618,5.618,0,0,0,4.277-3.854,5.2,5.2,0,0,0-.807-4.5,5.8,5.8,0,0,0-4.3-1.811l-.019-.214a14.63,14.63,0,0,1,2.308-.288,1.315,1.315,0,0,1,.25.015,1.035,1.035,0,0,0,.393.072,1.238,1.238,0,0,0,1.2-1.058c.005-.02.452-2.016-.632-2.627a4.3,4.3,0,0,0-2.123-.413Z" transform="translate(0)"/>
  </g>
  <g>
    <path class="cls-1" d="M59.606,103.911a5.237,5.237,0,0,1-1.965-.377,2.209,2.209,0,0,1-1.327-1.058,1.487,1.487,0,0,1,.05-1.176,1.153,1.153,0,0,1,1.083-.831,2.279,2.279,0,0,1,1.05.36l.145.077a2.149,2.149,0,0,0,1.012.253,3.759,3.759,0,0,0,1.539-.4.855.855,0,0,0,.545-.87c0-.3-.655-1.509-3.683-1.509l-.329,0a1.754,1.754,0,0,1-1.962-1.632,1.664,1.664,0,0,1,1.322-1.889,7.378,7.378,0,0,0,2.449-1.507,11.6,11.6,0,0,0-1.839.556,5.659,5.659,0,0,1-1.514.434c-.424-.017-1.341-.208-1.482-1.639-.094-.959,1.113-1.512,1.638-1.705l.582-.22a6.945,6.945,0,0,1,2.553-.636,5.461,5.461,0,0,1,1.555.251,2.612,2.612,0,0,1,1.885,1.867,3.147,3.147,0,0,1-.992,2.986,7.933,7.933,0,0,1-.932.755,6.653,6.653,0,0,1,1.5.49,4.437,4.437,0,0,1,2.306,3.579,3.7,3.7,0,0,1-2.372,3.187,6.942,6.942,0,0,1-2.818.651Z" transform="translate(0)"/>
    <path class="cls-2" d="M59.471,90.645a4.937,4.937,0,0,1,1.414.23c1.879.556,2.1,2.635.685,4.015a17.5,17.5,0,0,1-1.73,1.319c.013.134,1.592.3,2.42.728a3.939,3.939,0,0,1,2.037,3.132,3.2,3.2,0,0,1-2.076,2.733,6.467,6.467,0,0,1-2.616.609,4.723,4.723,0,0,1-1.778-.341c-.716-.288-1.38-.68-1-1.576.165-.393.382-.525.621-.525a2.416,2.416,0,0,1,.964.381,2.643,2.643,0,0,0,1.243.31,4.268,4.268,0,0,0,1.745-.45,1.349,1.349,0,0,0,.839-1.325c0-.525-.74-2.008-4.183-2.008-.11,0-.224,0-.339,0h-.078a1.227,1.227,0,0,1-1.379-1.2c-.111-.776.288-1.088,1-1.348,1.081-.4,2.782-1.441,2.917-2.1.06-.293-.112-.4-.415-.4-.921,0-3.054,1.022-3.577,1.022h-.015c-.632-.027-.9-.526-.969-1.187-.056-.565.82-1.006,1.313-1.187a8.606,8.606,0,0,1,2.961-.824m0-1a7.319,7.319,0,0,0-2.73.668c-.182.069-.373.143-.578.218-1.337.494-2.052,1.3-1.961,2.224a2.023,2.023,0,0,0,1.836,2.082,1.952,1.952,0,0,0-.77,1.984,2.2,2.2,0,0,0,2.369,2.062h.1c.107,0,.211,0,.313,0,2.355,0,3.094.754,3.182,1.043a.354.354,0,0,1-.251.38,3.3,3.3,0,0,1-1.332.36,1.655,1.655,0,0,1-.781-.2l-.14-.075a2.705,2.705,0,0,0-1.286-.419,1.654,1.654,0,0,0-1.543,1.137,1.972,1.972,0,0,0-.05,1.562,2.681,2.681,0,0,0,1.6,1.329,5.735,5.735,0,0,0,2.151.413,7.439,7.439,0,0,0,3.023-.7,4.191,4.191,0,0,0,2.669-3.638,4.908,4.908,0,0,0-2.575-4.026,4.526,4.526,0,0,0-.644-.267q.1-.086.19-.177a3.64,3.64,0,0,0,1.13-3.464,3.1,3.1,0,0,0-2.229-2.227,5.958,5.958,0,0,0-1.7-.271Z" transform="translate(0)"/>
  </g>
  <g>
    <path class="cls-1" d="M41.606,104.911a5.237,5.237,0,0,1-1.965-.377,2.209,2.209,0,0,1-1.327-1.058,1.487,1.487,0,0,1,.05-1.176,1.153,1.153,0,0,1,1.083-.831,2.279,2.279,0,0,1,1.05.36l.145.077a2.149,2.149,0,0,0,1.012.253,3.759,3.759,0,0,0,1.539-.4.855.855,0,0,0,.545-.87c0-.3-.655-1.509-3.683-1.509l-.329,0a1.754,1.754,0,0,1-1.962-1.632,1.664,1.664,0,0,1,1.322-1.889,7.378,7.378,0,0,0,2.449-1.507,11.6,11.6,0,0,0-1.839.556,5.659,5.659,0,0,1-1.514.434c-.424-.017-1.341-.208-1.482-1.639-.094-.959,1.113-1.512,1.638-1.705l.582-.22a6.945,6.945,0,0,1,2.553-.636,5.461,5.461,0,0,1,1.555.251,2.612,2.612,0,0,1,1.885,1.867,3.147,3.147,0,0,1-.992,2.986,7.933,7.933,0,0,1-.932.755,6.653,6.653,0,0,1,1.5.49,4.437,4.437,0,0,1,2.306,3.579,3.7,3.7,0,0,1-2.372,3.187,6.942,6.942,0,0,1-2.818.651Z" transform="translate(0)"/>
    <path class="cls-2" d="M41.471,91.645a4.937,4.937,0,0,1,1.414.23c1.879.556,2.1,2.635.685,4.015a17.5,17.5,0,0,1-1.73,1.319c.013.134,1.592.3,2.42.728a3.939,3.939,0,0,1,2.037,3.132,3.2,3.2,0,0,1-2.076,2.733,6.467,6.467,0,0,1-2.616.609,4.723,4.723,0,0,1-1.778-.341c-.716-.288-1.38-.68-1-1.576.165-.393.382-.525.621-.525a2.416,2.416,0,0,1,.964.381,2.643,2.643,0,0,0,1.243.31,4.268,4.268,0,0,0,1.745-.45,1.349,1.349,0,0,0,.839-1.325c0-.525-.74-2.008-4.183-2.008-.11,0-.224,0-.339,0h-.078a1.227,1.227,0,0,1-1.379-1.2c-.111-.776.288-1.088,1-1.348,1.081-.4,2.782-1.441,2.917-2.1.06-.293-.112-.4-.415-.4-.921,0-3.054,1.022-3.577,1.022h-.015c-.632-.027-.9-.526-.969-1.187-.056-.565.82-1.006,1.313-1.187a8.606,8.606,0,0,1,2.961-.824m0-1a7.319,7.319,0,0,0-2.73.668c-.182.069-.373.143-.578.218-1.337.494-2.052,1.3-1.961,2.224a2.023,2.023,0,0,0,1.836,2.082,1.952,1.952,0,0,0-.77,1.984,2.2,2.2,0,0,0,2.369,2.062h.1c.107,0,.211,0,.313,0,2.355,0,3.094.754,3.182,1.043a.354.354,0,0,1-.251.38,3.3,3.3,0,0,1-1.332.36,1.655,1.655,0,0,1-.781-.2l-.14-.075a2.705,2.705,0,0,0-1.286-.419,1.654,1.654,0,0,0-1.543,1.137,1.972,1.972,0,0,0-.05,1.562,2.681,2.681,0,0,0,1.6,1.329,5.735,5.735,0,0,0,2.151.413,7.439,7.439,0,0,0,3.023-.7,4.191,4.191,0,0,0,2.669-3.638,4.908,4.908,0,0,0-2.575-4.026,4.526,4.526,0,0,0-.644-.267q.1-.086.19-.177a3.64,3.64,0,0,0,1.13-3.464,3.1,3.1,0,0,0-2.229-2.227,5.958,5.958,0,0,0-1.7-.271Z" transform="translate(0)"/>
  </g>
  <g>
    <path class="cls-1" d="M25.691,105.526a2.673,2.673,0,0,1-.32-.021,1.817,1.817,0,0,1-1.639-1.694c-.049-.336-.1-.672-.158-1.008-.124-.76-.252-1.545-.313-2.333a5.1,5.1,0,0,0-.33-1.7l-.4.135a12.6,12.6,0,0,1-1.8.517,3.725,3.725,0,0,1-.661.061,2.978,2.978,0,0,1-2.458-1.207,3.151,3.151,0,0,1-.369-2.869,4.418,4.418,0,0,1,3.474-3.017,5.07,5.07,0,0,1,1.06-.115A5.557,5.557,0,0,1,25.706,94.1c.807.8,1.366,10.175,1.222,10.638a1.164,1.164,0,0,1-1.236.786ZM21.245,95.31a1.306,1.306,0,0,0-1.227,1.06.18.18,0,0,0-.007.105.7.7,0,0,0,.43.135,1.909,1.909,0,0,0,1.3-.56.361.361,0,0,0,.11-.209c-.05-.354-.234-.534-.547-.534Z" transform="translate(0)"/>
    <path class="cls-2" d="M21.782,92.779a5.074,5.074,0,0,1,3.573,1.679c.51.5,1.3,9.486,1.1,10.134a.7.7,0,0,1-.76.435,2.125,2.125,0,0,1-.259-.017,1.316,1.316,0,0,1-1.2-1.27c-.161-1.1-.382-2.2-.468-3.308a4.574,4.574,0,0,0-.59-2.259,22.336,22.336,0,0,1-2.522.761,3.2,3.2,0,0,1-.573.053,2.476,2.476,0,0,1-2.351-3.42,3.93,3.93,0,0,1,3.1-2.683,4.525,4.525,0,0,1,.954-.1m-1.356,4.329c.962,0,2.016-.706,1.926-1.336a1.02,1.02,0,0,0-1.041-.964q-.05,0-.1,0a1.807,1.807,0,0,0-1.675,1.435c-.147.579.331.818.868.861h.024m1.356-5.329a5.55,5.55,0,0,0-1.164.126,4.9,4.9,0,0,0-3.844,3.348,3.647,3.647,0,0,0,.439,3.32,3.473,3.473,0,0,0,2.862,1.413,4.213,4.213,0,0,0,.752-.069,12.349,12.349,0,0,0,1.792-.508,7.244,7.244,0,0,1,.144,1.1c.063.811.193,1.609.319,2.381.054.331.108.662.157.994A2.309,2.309,0,0,0,25.31,106a3.127,3.127,0,0,0,.381.024,1.673,1.673,0,0,0,1.714-1.136,30.359,30.359,0,0,0-.24-5.518c-.495-5.02-.834-5.356-1.107-5.626a6.037,6.037,0,0,0-4.276-1.969Zm-1.075,4.294a.8.8,0,0,1,.569-.264,1.584,1.584,0,0,1-.569.264Z" transform="translate(0)"/>
  </g>
  <g>
    <path class="cls-1" d="M106.112,61.416c-1.3,0-3.225-.658-4.977-3.8-1.3-2.334-1.152-3.574-.354-5.318a4.3,4.3,0,0,1,4.052-2.7,5.491,5.491,0,0,1,.6.033c1.531.163,3.226,2.1,3.357,3.837a1.921,1.921,0,0,1-1.571,2.052,9.217,9.217,0,0,1-1.309.293l-.388.068c-.372.069-.746.13-1.165.2l-.113.019a3.042,3.042,0,0,0,2.124,1.911,2.591,2.591,0,0,0,.87.209c.187,0,.5,0,.678-.749a2.408,2.408,0,0,1,.632-1.025,1.309,1.309,0,0,1,.961-.451,1.2,1.2,0,0,1,.444.087,1.3,1.3,0,0,1,.814,1.477A5.02,5.02,0,0,1,106.112,61.416Zm-2.3-8.133a2.133,2.133,0,0,0,.485.061c.47,0,.626-.2.7-.344a.161.161,0,0,0,0-.126.277.277,0,0,0-.153-.156,1.142,1.142,0,0,0-.419-.1C104.323,52.617,104.063,52.617,103.813,53.283Z" transform="translate(0)"/>
    <path class="cls-2" d="M104.835,50.1a5.087,5.087,0,0,1,.543.03,4.046,4.046,0,0,1,2.912,3.378c.066.872-.507,1.3-1.227,1.538a12.717,12.717,0,0,1-1.633.345c-.547.1-1.1.185-1.793.3a3.413,3.413,0,0,0,2.554,2.786,3.085,3.085,0,0,0,1.046.241c.532,0,.962-.28,1.165-1.133a1.951,1.951,0,0,1,.511-.8.828.828,0,0,1,.6-.292.709.709,0,0,1,.261.051.817.817,0,0,1,.5.961,4.572,4.572,0,0,1-4.157,3.411c-1.443,0-3.068-.9-4.54-3.541-1.256-2.25-1.039-3.329-.335-4.867a3.8,3.8,0,0,1,3.6-2.41m-.537,3.746a1.2,1.2,0,0,0,1.146-.613.723.723,0,0,0-.4-.975,1.608,1.608,0,0,0-.61-.139c-.643,0-1,.57-1.234,1.465a2.314,2.314,0,0,0,1.1.262m.537-4.746a4.777,4.777,0,0,0-4.508,2.994c-.851,1.861-1.027,3.264.372,5.77,1.87,3.351,3.976,4.054,5.414,4.054a5.577,5.577,0,0,0,5.152-4.31,1.79,1.79,0,0,0-1.129-1.991,1.708,1.708,0,0,0-.627-.121,1.818,1.818,0,0,0-1.325.609,2.857,2.857,0,0,0-.754,1.251.928.928,0,0,1-.144.364h-.048a2.222,2.222,0,0,1-.692-.176,3.044,3.044,0,0,1-1.572-1.057c.219-.037.43-.073.64-.112.123-.023.248-.044.372-.066A9.63,9.63,0,0,0,107.373,56a2.4,2.4,0,0,0,1.914-2.564c-.15-1.979-2.033-4.107-3.8-4.3a6.1,6.1,0,0,0-.65-.036Z" transform="translate(0)"/>
  </g>
  <g>
    <path class="cls-1" d="M51.076,101.48a4.251,4.251,0,0,1-1.825-.412,6.062,6.062,0,0,1-1.233-.79,5.277,5.277,0,0,1-1.107-6.7A.546.546,0,0,1,47,93.467l.037-.069a5.182,5.182,0,0,1,.277-.479l.2-.3c.555-.848,1.246-1.9,2.528-1.9a2.481,2.481,0,0,1,.493.051,4.615,4.615,0,0,1,3.782,2.937,9.049,9.049,0,0,1,.474,4.457,3.674,3.674,0,0,1-3.71,3.318Zm-.568-7.7c-.083,0-.338,0-.713.463a3.689,3.689,0,0,0-.027,3.829,1.8,1.8,0,0,0,1.355.552,1.107,1.107,0,0,0,.952-.375,3.767,3.767,0,0,0-.844-4.139A1.281,1.281,0,0,0,50.508,93.785Z" transform="translate(0)"/>
    <path class="cls-2" d="M50.037,91.218a2.009,2.009,0,0,1,.4.041,4.145,4.145,0,0,1,3.41,2.614,8.509,8.509,0,0,1,.45,4.214,3.155,3.155,0,0,1-3.216,2.894,3.746,3.746,0,0,1-1.608-.363,5.477,5.477,0,0,1-1.13-.724,4.764,4.764,0,0,1-1-6.061l.014-.024.021.012c.116-.208.218-.425.351-.622.6-.889,1.171-1.981,2.311-1.981m1.087,7.911a1.575,1.575,0,0,0,1.378-.613,4.2,4.2,0,0,0-1-4.82,1.663,1.663,0,0,0-1-.411,1.448,1.448,0,0,0-1.1.648,4.133,4.133,0,0,0-.026,4.462,2.291,2.291,0,0,0,1.743.734m-1.087-8.911c-1.553,0-2.358,1.23-2.946,2.129l-.193.292a5.535,5.535,0,0,0-.3.515v0a.957.957,0,0,0-.1.135,5.791,5.791,0,0,0,1.2,7.373,6.515,6.515,0,0,0,1.336.855,4.744,4.744,0,0,0,2.041.462,4.154,4.154,0,0,0,4.2-3.742,9.546,9.546,0,0,0-.5-4.7,5.085,5.085,0,0,0-4.156-3.259,3.021,3.021,0,0,0-.591-.06Zm1.087,7.911a1.326,1.326,0,0,1-.969-.368,3.194,3.194,0,0,1,.029-3.2c.183-.226.3-.277.325-.277a.839.839,0,0,1,.386.2q.032.025.066.047a3.267,3.267,0,0,1,.689,3.459.8.8,0,0,1-.525.135Z" transform="translate(0)"/>
  </g>
  <g>
    <path class="cls-1" d="M35.154,104.338a1.693,1.693,0,0,1-1.485-.933,22.554,22.554,0,0,1-.955-3.542l-1.235.366a5.187,5.187,0,0,1-1.536.253,2.921,2.921,0,0,1-2.448-1.145c-.794-1.062-.913-2.727-.335-4.686a1.591,1.591,0,0,1,1.483-1.271,1.722,1.722,0,0,1,.644.133,1.59,1.59,0,0,1,1,2.171,1.8,1.8,0,0,1-.355.518,1.036,1.036,0,0,0-.17.219.956.956,0,0,0,1.061,1.438l.109,0c.53-.019.86-.105.981-.257a1.314,1.314,0,0,0,.041-.94,5.54,5.54,0,0,1-.055-2.54,1.452,1.452,0,0,1,1.474-1.24,2.107,2.107,0,0,1,.276.019,1.565,1.565,0,0,1,1.408,1.63c.006.117-.018,1.178-.036,1.958a4.07,4.07,0,0,1,.838-.111c.048,0,.095,0,.139,0a1.51,1.51,0,0,1,1.517,1.153c.084.353.01.854-.817,1.245a6.3,6.3,0,0,1-1.347.385,11.911,11.911,0,0,0,.482,2.36c.012.022.04.068.074.128a2.775,2.775,0,0,1,.551,1.872.948.948,0,0,1-.468.591,1.73,1.73,0,0,1-.839.224Z" transform="translate(0)"/>
    <path class="cls-2" d="M33.377,93.38a1.669,1.669,0,0,1,.213.014,1.078,1.078,0,0,1,.972,1.158c.007.152-.052,2.594-.052,2.594a5.528,5.528,0,0,1,1.353-.271c.035,0,.069,0,.1,0a1.041,1.041,0,0,1,1.067.772c.074.311-.229.526-.545.675a7.919,7.919,0,0,1-1.686.424,15.588,15.588,0,0,0,.576,2.972c.091.212,1.07,1.571.375,1.954a1.233,1.233,0,0,1-.6.161,1.189,1.189,0,0,1-1.044-.664,30.468,30.468,0,0,1-1.018-3.944s-1.685.5-1.759.522a4.706,4.706,0,0,1-1.391.232c-2.206,0-3.231-2.048-2.3-5.189a1.1,1.1,0,0,1,1-.912,1.217,1.217,0,0,1,.457.1,1.1,1.1,0,0,1,.729,1.521c-.113.282-.443.483-.537.766-.425,1.288.188,2.095,1.534,2.095l.128,0c1.317-.048,1.743-.477,1.5-1.79a5.073,5.073,0,0,1-.062-2.32c.156-.591.478-.868.99-.868m0-1h0a1.963,1.963,0,0,0-1.957,1.612,6.035,6.035,0,0,0,.047,2.76,1.89,1.89,0,0,1,.045.525,2.126,2.126,0,0,1-.6.081l-.091,0c-.4,0-.585-.1-.628-.16s-.075-.233.027-.569c.025-.032.055-.062.083-.094a2.224,2.224,0,0,0,.448-.664,2.079,2.079,0,0,0-1.281-2.82,2.214,2.214,0,0,0-.833-.17,2.072,2.072,0,0,0-1.962,1.629c-.624,2.114-.477,3.934.414,5.126a3.448,3.448,0,0,0,2.849,1.346,5.711,5.711,0,0,0,1.688-.277l.707-.21a18.217,18.217,0,0,0,.888,3.143,2.191,2.191,0,0,0,1.929,1.2,2.218,2.218,0,0,0,1.08-.286,1.455,1.455,0,0,0,.708-.9,3.156,3.156,0,0,0-.6-2.259c-.027-.046-.049-.083-.064-.11a9.7,9.7,0,0,1-.365-1.731,5.361,5.361,0,0,0,1-.326c1.235-.584,1.174-1.462,1.09-1.812a2.014,2.014,0,0,0-1.966-1.537c-.056,0-.115-.006-.176-.006a3.185,3.185,0,0,0-.324.018c.018-.835.026-1.3.022-1.388a2.075,2.075,0,0,0-1.843-2.1,2.673,2.673,0,0,0-.34-.023Z" transform="translate(0)"/>
  </g>
  <g>
    <path class="cls-1" d="M33.442,89.119c-.684,0-1.258-.515-1.577-1.412-.57-1.6-.664-5.206-.732-7.84-.023-.894-.047-1.812-.087-2.193a.9.9,0,0,0-.307-.048,3.448,3.448,0,0,0-.609.078,4.362,4.362,0,0,1-.8.1,1.982,1.982,0,0,1-.483-.056c-.518-.126-1.411-.344-1.391-1.32a1.509,1.509,0,0,1,1.427-1.562,1.275,1.275,0,0,1,.217.019,6.051,6.051,0,0,0,.948.064,33.516,33.516,0,0,0,6.092-.91,8.72,8.72,0,0,1,1.282-.239,1.308,1.308,0,0,1,.3,2.573,1.133,1.133,0,0,1-.28.05c-3.482.58-3.482.58-3.474,4.026l0,.6c-.014,1.528-.04,4.374.742,5.441a1.75,1.75,0,0,1,.213,1.552,1.558,1.558,0,0,1-1.064,1.019A1.454,1.454,0,0,1,33.442,89.119Z" transform="translate(0)"/>
    <path class="cls-2" d="M37.421,74.3h.014a.778.778,0,0,1,.763.76c.06.5-.283.694-.663.848a.245.245,0,0,1-.092.014l-.086,0a.348.348,0,0,0-.058,0c-3.824.653-3.839.653-3.829,4.525,0,1.485-.162,4.977.835,6.338a1.177,1.177,0,0,1-.589,1.795.963.963,0,0,1-.272.041c-.533,0-.9-.5-1.106-1.08-.844-2.365-.607-9.889-.853-10.2a1.306,1.306,0,0,0-.744-.211c-.464,0-.939.173-1.408.173a1.524,1.524,0,0,1-.364-.041c-.467-.114-1.022-.233-1.01-.824a1.022,1.022,0,0,1,.926-1.073.852.852,0,0,1,.137.011,6.47,6.47,0,0,0,1.027.072c2.722,0,6.938-1.15,7.375-1.15m0-1a8.2,8.2,0,0,0-1.39.251,33.177,33.177,0,0,1-5.984.9,5.5,5.5,0,0,1-.866-.059,1.851,1.851,0,0,0-.3-.024,2,2,0,0,0-1.926,2.051c-.029,1.378,1.252,1.69,1.734,1.807a2.584,2.584,0,0,0,.639.079,4.813,4.813,0,0,0,.889-.1c.127-.023.249-.046.357-.059.023.455.04,1.124.056,1.74.069,2.669.164,6.323.761,8a2.259,2.259,0,0,0,2.047,1.744A1.966,1.966,0,0,0,34,89.537a2.073,2.073,0,0,0,1.4-1.339,2.23,2.23,0,0,0-.283-2.006c-.685-.935-.658-3.777-.645-5.144,0-.225,0-.429,0-.606a7.192,7.192,0,0,1,.239-2.819,6.972,6.972,0,0,1,2.694-.706h.042a1.224,1.224,0,0,0,.468-.087,1.73,1.73,0,0,0,1.281-1.894A1.771,1.771,0,0,0,37.518,73.3c-.027,0-.069,0-.1,0Z" transform="translate(0)"/>
  </g>
  <g>
    <path class="cls-1" d="M143.623,60.423a1.574,1.574,0,0,1-1.43-.948,7.755,7.755,0,0,1-.656-2.835l-.033-.333c-.066-.639-.432-3.749-.566-4.89-.1,0-.225-.006-.353-.006a7.164,7.164,0,0,0-.911.051,2.794,2.794,0,0,1-.364.024,1.588,1.588,0,0,1-1.712-1.592,1.332,1.332,0,0,1,.342-1.026,1.817,1.817,0,0,1,1.372-.468l.152,0c.676.026,1.5.048,2.359.071,1.643.043,3.5.093,4.814.183.706.049,1.071.818,1.121,1.56a.618.618,0,0,1-.15.415c-.143.152-.377.4-3.339.429,1.176,8.766.525,9.036.173,9.184A2.147,2.147,0,0,1,143.623,60.423Z" transform="translate(0)"/>
    <path class="cls-2" d="M139.311,48.9l.134,0c1.979.075,5.183.117,7.159.253.412.028.625.623.656,1.094.02.3-3.117.313-3.52.313H143.7s1.227,8.938.553,9.22a1.644,1.644,0,0,1-.626.14,1.071,1.071,0,0,1-.984-.674A8.352,8.352,0,0,1,142,56.254c-.082-.787-.617-5.317-.617-5.317s-.353-.026-.8-.026a7.716,7.716,0,0,0-.977.054,2.259,2.259,0,0,1-.3.021,1.1,1.1,0,0,1-1.213-1.118c-.041-.8.6-.967,1.214-.967m0-1h0a2.29,2.29,0,0,0-1.734.623,1.821,1.821,0,0,0-.478,1.4,2.1,2.1,0,0,0,2.212,2.067,3.25,3.25,0,0,0,.429-.029,6.39,6.39,0,0,1,.753-.045c.159,1.352.456,3.885.514,4.446l.033.326a8.258,8.258,0,0,0,.708,3.016,2.077,2.077,0,0,0,1.876,1.222,2.632,2.632,0,0,0,1.011-.217c.684-.285,1.331-.556.2-9.154,2.646-.057,2.894-.321,3.134-.578a1.108,1.108,0,0,0,.285-.789c-.075-1.152-.712-1.966-1.585-2.026-1.321-.091-3.191-.141-4.841-.184-.86-.023-1.676-.045-2.349-.07-.057,0-.114,0-.172,0Z" transform="translate(0)"/>
  </g>
  <g>
    <path class="cls-1" d="M136.147,59.946a3.854,3.854,0,0,1-2.173-.683c-2.05-1.38-2.979-3.008-2.84-4.979a4.321,4.321,0,0,1,4.225-4.426,4.373,4.373,0,0,1,1.205.173c1.134.325,1.254,1.069,1.226,1.484a1.43,1.43,0,0,1-1.407,1.349c-.157.013-.316.015-.477.017s-.312,0-.466.018a1.8,1.8,0,0,0-1.223.728,1.743,1.743,0,0,0-.366,1.326,2.522,2.522,0,0,0,2.506,2.211,2.85,2.85,0,0,0,1.353-.353l.188-.1a3.812,3.812,0,0,0,.439-.342,2.224,2.224,0,0,1,1.314-.689,1.056,1.056,0,0,1,.9.535,1.384,1.384,0,0,1,.237,1.095c-.158.693-.865,1.116-1.434,1.457-.115.069-.227.136-.325.2a5.312,5.312,0,0,1-2.884.98Z" transform="translate(0)"/>
    <path class="cls-2" d="M135.358,50.36a3.864,3.864,0,0,1,1.068.153c.5.144.9.424.865.969a.934.934,0,0,1-.946.886c-.318.025-.64,0-.957.035a2.372,2.372,0,0,0-2.03,2.634,3.034,3.034,0,0,0,3,2.629,3.366,3.366,0,0,0,1.588-.411c.07-.038.142-.073.21-.115.468-.284,1.017-.96,1.5-.96a.574.574,0,0,1,.482.311c.677,1.029-.653,1.585-1.378,2.059a4.851,4.851,0,0,1-2.61.9,3.332,3.332,0,0,1-1.893-.6c-1.564-1.053-2.769-2.43-2.621-4.529a3.817,3.817,0,0,1,3.726-3.96m0-1a4.823,4.823,0,0,0-4.725,4.92c-.142,2.151.86,3.918,3.062,5.4a4.329,4.329,0,0,0,2.451.768,5.8,5.8,0,0,0,3.157-1.061c.094-.061.2-.124.308-.19a3.1,3.1,0,0,0,1.665-1.775,1.877,1.877,0,0,0-.307-1.481,1.551,1.551,0,0,0-1.318-.761,2.629,2.629,0,0,0-1.636.807,3.875,3.875,0,0,1-.379.3c-.035.021-.072.04-.108.059l-.054.028a2.36,2.36,0,0,1-1.118.294,2.036,2.036,0,0,1-2.013-1.8,1.245,1.245,0,0,1,.271-.94,1.3,1.3,0,0,1,.876-.532c.14-.014.281-.014.422-.016.17,0,.34,0,.509-.017a1.921,1.921,0,0,0,.28-3.813,4.87,4.87,0,0,0-1.343-.192Z" transform="translate(0)"/>
  </g>
  <g>
    <path class="cls-1" d="M26.984,50.054a1.764,1.764,0,0,1-1.627-1.582c-.066-.365-.063-1.532-.052-3.563.01-1.764.021-3.764-.051-4.813a2.392,2.392,0,0,1,.38-1.8,1.263,1.263,0,0,1,.932-.4h0a1.513,1.513,0,0,1,1.146.431,2.429,2.429,0,0,1,.521,1.816l-.031.849a53.831,53.831,0,0,0-.012,6.261,9.626,9.626,0,0,0,3-1,6.837,6.837,0,0,1,2.339-.785.961.961,0,0,1,.993.7,1.131,1.131,0,0,1-.152.934c-.949,1.526-5.584,2.658-7.133,2.935a1.439,1.439,0,0,1-.256.022Z" transform="translate(0)"/>
    <path class="cls-2" d="M26.631,38.389c.927,0,1.133.871,1.106,1.732-.047,1.508-.31,6.581.056,7.61a2.289,2.289,0,0,0,.3.018c1.767,0,4.333-1.789,5.443-1.789a.469.469,0,0,1,.513.344c.39,1.345-4.423,2.8-6.892,3.236a.954.954,0,0,1-.168.015,1.3,1.3,0,0,1-1.135-1.172c-.128-.7.044-6.254-.1-8.321-.049-.727-.048-1.643.828-1.671h.049m0-1h-.08a1.755,1.755,0,0,0-1.287.568,2.922,2.922,0,0,0-.507,2.171c.07,1.032.059,3.021.049,4.777a32.653,32.653,0,0,0,.061,3.657,2.254,2.254,0,0,0,2.119,1.992,1.95,1.95,0,0,0,.343-.031c.062-.011,6.224-1.159,7.469-3.162a1.616,1.616,0,0,0,.208-1.337,1.467,1.467,0,0,0-1.474-1.066,7.07,7.07,0,0,0-2.544.829,13.317,13.317,0,0,1-2.351.893c-.094-1.478.024-4.539.068-5.685.013-.339.024-.628.031-.844a2.894,2.894,0,0,0-.661-2.18,1.958,1.958,0,0,0-1.445-.583Z" transform="translate(0)"/>
  </g>
  <g>
    <path class="cls-1" d="M23.43,49.159c-2.373-.038-2.677-4.711-2.877-7.8-.022-.342-.043-.651-.063-.915a2.386,2.386,0,0,1,.023-.876,1.262,1.262,0,0,1,1.322-.932c1.375.128,1.516,1.123,1.608,1.78l.046.327A36.821,36.821,0,0,0,24.7,46.834a2.023,2.023,0,0,1-.141,1.806,1.291,1.291,0,0,1-1.1.52Z" transform="translate(0)"/>
    <path class="cls-2" d="M21.844,39.132c.91.088,1.006.659,1.1,1.351a39,39,0,0,0,1.278,6.5c.264.824.108,1.673-.767,1.673h-.022c-2.156-.034-2.262-5.919-2.45-8.259a2.065,2.065,0,0,1,.007-.7.8.8,0,0,1,.85-.565m0-1h-.018a1.779,1.779,0,0,0-1.795,1.3,2.6,2.6,0,0,0-.049.964l.008.089c.021.262.041.568.063.907.226,3.472.534,8.227,3.368,8.272h0a1.827,1.827,0,0,0,1.543-.725,2.507,2.507,0,0,0,.213-2.253,36.443,36.443,0,0,1-1.195-6.017l-.045-.321a2.169,2.169,0,0,0-2-2.206q-.048,0-.1,0Z" transform="translate(0)"/>
  </g>
  <g>
    <path class="cls-1" d="M123.127,82.211a2.476,2.476,0,0,1-.426-.04,1.909,1.909,0,0,1-.843-.336c-.895-.694-.3-1.941.056-2.687.066-.139.127-.265.168-.369.375-.939.776-1.875,1.194-2.78a1.973,1.973,0,0,1,.646-.867,1.372,1.372,0,0,1,.776-.224,1.936,1.936,0,0,1,.625.108l.111.041a1.42,1.42,0,0,1,.933.981,1.54,1.54,0,0,1-.147.933,9.677,9.677,0,0,1-.766,1.341,4.6,4.6,0,0,0-.9,2.032l-.011.222a1.756,1.756,0,0,1-.409,1.273,1.363,1.363,0,0,1-1,.371Z" transform="translate(0)"/>
    <path class="cls-2" d="M124.7,75.408a1.464,1.464,0,0,1,.464.082l.078.029a.957.957,0,0,1,.638.624,1.062,1.062,0,0,1-.116.628c-.531,1.211-1.612,2.22-1.71,3.537-.031.412.019.886-.274,1.178a.9.9,0,0,1-.65.225,1.977,1.977,0,0,1-.339-.032,1.394,1.394,0,0,1-.623-.24c-.7-.546.135-1.855.382-2.474q.555-1.394,1.184-2.757a1.5,1.5,0,0,1,.47-.661.885.885,0,0,1,.5-.139m0-1a1.886,1.886,0,0,0-1.053.307,2.427,2.427,0,0,0-.823,1.074c-.424.919-.829,1.863-1.2,2.806-.038.1-.095.212-.156.34-.364.764-1.122,2.355.09,3.295a2.368,2.368,0,0,0,1.063.434,2.976,2.976,0,0,0,.512.047,1.854,1.854,0,0,0,1.356-.517,2.22,2.22,0,0,0,.555-1.607c0-.069,0-.137.01-.2a4.206,4.206,0,0,1,.827-1.8,10.1,10.1,0,0,0,.8-1.411,2.028,2.028,0,0,0,.179-1.233,1.916,1.916,0,0,0-1.251-1.351c-.04-.016-.081-.031-.121-.044a2.449,2.449,0,0,0-.787-.135Z" transform="translate(0)"/>
  </g>
  <g>
    <path class="cls-1" d="M59.4,41.668a1.329,1.329,0,0,1-.989-.417,1.616,1.616,0,0,1-.392-1.237,1.679,1.679,0,0,1,1.569-1.525h0c.763,0,1.462,1,1.485,1.771.01.307-.076,1.314-1.578,1.406Z" transform="translate(0)"/>
    <path class="cls-2" d="M59.637,38.986c.629,0,1.832,2.057-.174,2.179l-.068,0c-.6,0-.925-.5-.88-1.119a1.177,1.177,0,0,1,1.1-1.062h.019m0-1-.087,0a2.183,2.183,0,0,0-2.032,1.988,2.109,2.109,0,0,0,.522,1.614,1.826,1.826,0,0,0,1.355.576q.063,0,.129,0a1.9,1.9,0,0,0,2.048-1.92c-.031-1.022-.9-2.257-1.935-2.257Z" transform="translate(0)"/>
  </g>
  <g>
    <path class="cls-1" d="M58.4,37.668a1.329,1.329,0,0,1-.989-.417,1.616,1.616,0,0,1-.392-1.237,1.679,1.679,0,0,1,1.569-1.525h0c.763,0,1.462,1,1.485,1.771.01.307-.076,1.314-1.578,1.406Z" transform="translate(0)"/>
    <path class="cls-2" d="M58.637,34.986c.629,0,1.832,2.057-.174,2.179l-.068,0c-.6,0-.925-.5-.88-1.119a1.177,1.177,0,0,1,1.1-1.062h.019m0-1-.087,0a2.183,2.183,0,0,0-2.032,1.988,2.109,2.109,0,0,0,.522,1.614,1.826,1.826,0,0,0,1.355.576q.063,0,.129,0a1.9,1.9,0,0,0,2.048-1.92c-.031-1.022-.9-2.257-1.935-2.257Z" transform="translate(0)"/>
  </g>
  <g>
    <path class="cls-1" d="M47.931,66.73a1.946,1.946,0,0,1-1.62-1.054,4.97,4.97,0,0,1-.923-3.23,1.877,1.877,0,0,0-.032-.687,9.674,9.674,0,0,0-1.03.227c.269,1.726.429,3.7-.119,4.216a1.528,1.528,0,0,1-1.048.458,1.4,1.4,0,0,1-1.33-1.3c-.019-.11-.1-.541-.226-1.16-1.588-8.06-1.5-8.238-1.389-8.485a1.455,1.455,0,0,1,1.325-.812,1.577,1.577,0,0,1,.192.012A1.246,1.246,0,0,1,42.8,55.974c.076.523.379,2.309.527,3.178l1.9-.286c-.152-.747-.409-2.05-.426-2.482a1.41,1.41,0,0,1,1.5-1.56,1.542,1.542,0,0,1,1.719,1.419c.006.141.049.537.12,1.221l.05.473a4.452,4.452,0,0,1,3.479-2.848,5.036,5.036,0,0,1,.548-.03,4.4,4.4,0,0,1,3.888,2.37,7.206,7.206,0,0,1,.127,6.8,4.034,4.034,0,0,1-3.618,2.1h0a6.4,6.4,0,0,1-2.021-.359,3.523,3.523,0,0,1-1.721-1.531c.058.572.113,1.1.166,1.557a.5.5,0,0,1-.236.483A1.648,1.648,0,0,1,47.931,66.73Zm2.869-6.92a3.853,3.853,0,0,0,.247,2.669c.438.976.866,1.107,1.228,1.107a1.436,1.436,0,0,0,.2-.016,1.561,1.561,0,0,0,1.354-1.32,2.988,2.988,0,0,0-.091-1.821c-.167-.381-.259-.472-.29-.493a1.643,1.643,0,0,0-.283.228A1.725,1.725,0,0,1,52,60.791a1.2,1.2,0,0,1-.983-.585A1.894,1.894,0,0,1,50.8,59.811Z" transform="translate(0)"/>
    <path class="cls-2" d="M46.3,55.323h.032c.549.011,1.157.237,1.187.94.01.221.1,1.051.265,2.6l.7-.18a4.058,4.058,0,0,1,3.241-3.1,4.469,4.469,0,0,1,.493-.028c5.389,0,5.941,10.266.4,10.266a5.872,5.872,0,0,1-1.862-.333c-.45-.151-2.405-1.283-2.268-5.021l-.5.129c.214,2.046.4,4.054.559,5.448a1.151,1.151,0,0,1-.6.185,1.521,1.521,0,0,1-1.2-.828,4.5,4.5,0,0,1-.843-2.917,1.474,1.474,0,0,0-.259-1.208.229.229,0,0,0-.139-.028,10.586,10.586,0,0,0-1.728.376s.629,3.716.1,4.214a1.041,1.041,0,0,1-.7.321c-.4,0-.74-.318-.837-.883-.093-.547-1.817-9-1.655-9.349a.956.956,0,0,1,.873-.525,1.014,1.014,0,0,1,.128.008.75.75,0,0,1,.636.634c.1.7.612,3.674.612,3.674l2.906-.437s-.5-2.359-.523-2.918a.915.915,0,0,1,1-1.041m5.979,8.764a1.9,1.9,0,0,0,.271-.02,2.069,2.069,0,0,0,1.773-1.719,3.515,3.515,0,0,0-.122-2.119c-.186-.424-.395-.789-.725-.789a1.015,1.015,0,0,0-.658.369,1.324,1.324,0,0,1-.809.482.725.725,0,0,1-.577-.375,1.25,1.25,0,0,1,.052-1.541c.233-.356.962-.35.761-1.023a3.956,3.956,0,0,0-1.649,5.331c.361.807.857,1.4,1.683,1.4M46.3,54.323h0a2.011,2.011,0,0,0-1.472.584,1.971,1.971,0,0,0-.524,1.5,19.132,19.132,0,0,0,.331,2.048l-.894.135c-.158-.928-.381-2.252-.443-2.683a1.747,1.747,0,0,0-1.5-1.482,2.01,2.01,0,0,0-.255-.016,1.956,1.956,0,0,0-1.779,1.1c-.2.419-.269.575,1.354,8.809.119.6.2,1.024.22,1.131a1.9,1.9,0,0,0,1.823,1.715,2.017,2.017,0,0,0,1.391-.595c.2-.187.588-.557.516-2.358a6.379,6.379,0,0,0,.827,1.743,2.42,2.42,0,0,0,2.038,1.28,2.137,2.137,0,0,0,1.127-.332,1,1,0,0,0,.471-.966v-.005a3.084,3.084,0,0,0,.9.511,6.89,6.89,0,0,0,2.18.385c2.891,0,4.91-2.385,4.91-5.8,0-3.134-1.859-6.466-5.306-6.466a5.465,5.465,0,0,0-.6.034,4.517,4.517,0,0,0-3.084,1.775c-.006-.068-.01-.117-.011-.145a2.018,2.018,0,0,0-2.166-1.9ZM52,61.291a2,2,0,0,0,1.31-.579,2.65,2.65,0,0,1,.024,1.441,1.072,1.072,0,0,1-.934.924.906.906,0,0,1-.128.01c-.132,0-.407,0-.771-.812a3.842,3.842,0,0,1-.332-1.23,1.527,1.527,0,0,0,.831.246Zm-7.117,1.07h.006l0,.028,0-.027Z" transform="translate(0)"/>
  </g>
  <g>
    <path class="cls-1" d="M11.513,89.006a3.808,3.808,0,0,1-2.582-1.069A6.881,6.881,0,0,1,6.8,80.364c.988-2.859,2.733-4.434,4.913-4.434a6.358,6.358,0,0,1,3.556,1.261,2,2,0,0,1,.452.524,4.688,4.688,0,0,1,2.156-.673,1.875,1.875,0,0,1,1.854,1.3A2.751,2.751,0,0,1,21.366,79.4a1.138,1.138,0,0,1,.067.16,3.751,3.751,0,0,1,.257-1.474,3.658,3.658,0,0,1,3.494-2.48,5.155,5.155,0,0,1,.92.086,1.893,1.893,0,0,1,1.251.829,2.836,2.836,0,0,1,.367,2.126.7.7,0,0,1-.675.627c-.478,0-.88-.494-1.5-1.3-.432.043-1.173.425-1.278.878-.1.428.453.987,1.48,1.5a6.4,6.4,0,0,0,.732.251c1.408.434,4.029,1.241,3.5,3.535-.1.415-.763,2.483-4.5,2.483h0a13.443,13.443,0,0,1-2.231-.206l-.209-.04a2.453,2.453,0,0,0-.455-.063,13.74,13.74,0,0,1-2.066.217c-1.242,0-1.97-.451-2.234-1.405a3.54,3.54,0,0,1-2.017.794,1.9,1.9,0,0,1-.25-.016,1.287,1.287,0,0,1,.043.771,1.45,1.45,0,0,1-.7.883A8.129,8.129,0,0,1,11.513,89.006Zm-1.46-4.989c.257.749.879,2.148,1.944,2.148a3.056,3.056,0,0,0,1.917-1.026,1.151,1.151,0,0,1,.595-.309,5.09,5.09,0,0,1-.624-1.841ZM21.485,79.95a1.111,1.111,0,0,1-.088.362,4.947,4.947,0,0,0-.2,3.193c.074.109.686.368,2.059.368a9.956,9.956,0,0,0,2.551-.312.807.807,0,0,0,.374-.171,5.06,5.06,0,0,0-1.841-1.136c-.091-.036-.2-.074-.327-.116a3.739,3.739,0,0,1-2.356-1.676A2.251,2.251,0,0,1,21.485,79.95Zm-3.655-.023a1.252,1.252,0,0,0-1.14.843c-.06.137-.123.272-.187.409-.308.657-.574,1.225-.307,1.786a.336.336,0,0,0,.3.182.235.235,0,0,0,.152-.051A4.88,4.88,0,0,0,17.83,79.927ZM11.118,78.78a.839.839,0,0,0-.555.162,4.772,4.772,0,0,0-.916,2.947,8.188,8.188,0,0,0,3.961-1.959A4.273,4.273,0,0,0,11.118,78.78Z" transform="translate(0)"/>
    <path class="cls-2" d="M25.185,76.1a4.656,4.656,0,0,1,.831.079,1.878,1.878,0,0,1,1.218,2.36c-.033.161-.1.229-.185.229-.254,0-.7-.577-1.1-1.1a.511.511,0,0,0-.419-.153c-1.084,0-3.371,1.609,0,3.278.857.424,4.5.917,3.968,3.226-.137.6-.92,2.1-4.014,2.1a12.832,12.832,0,0,1-2.148-.2,4.613,4.613,0,0,0-.748-.11,1.091,1.091,0,0,0-.178.014,12.164,12.164,0,0,1-1.888.2c-1.229,0-1.848-.449-1.85-1.856a3.933,3.933,0,0,1-2.4,1.245c-1.8,0-1.949-3.055-1.949-3.055l-4.9,1.313s.675,3,2.571,3a3.457,3.457,0,0,0,2.26-1.162.619.619,0,0,1,.429-.188,1.013,1.013,0,0,1,.776.565.849.849,0,0,1-.349,1.234,7.788,7.788,0,0,1-3.6,1.393,3.319,3.319,0,0,1-2.251-.944,6.361,6.361,0,0,1-1.986-7.034c.95-2.75,2.547-4.1,4.44-4.1A5.9,5.9,0,0,1,14.989,77.6c.188.129.522.752.616.752l.009,0a4.615,4.615,0,0,1,2.265-.811,1.419,1.419,0,0,1,1.443,1.207s2,.442,1.614,1.369a5.464,5.464,0,0,0-.221,3.506c.128.524,1.267.749,2.543.749a10.472,10.472,0,0,0,2.689-.332c1.75-.5-.083-1.708-1.417-2.25-.823-.334-3.375-.792-2.37-3.536A3.135,3.135,0,0,1,25.185,76.1M9.176,82.479c2.084-.29,4.332-1.477,4.971-2.43.271-.4-1.648-1.769-3.029-1.769a1.321,1.321,0,0,0-.88.282c-.876.748-1.192,2.924-1.063,3.917m7.318,1.168a.736.736,0,0,0,.466-.162,5.453,5.453,0,0,0,1.358-4.049q-.163-.016-.317-.016a1.773,1.773,0,0,0-1.77,1.151c-.369.851-.921,1.692-.485,2.608a.836.836,0,0,0,.748.468M25.185,75.1h0a4.146,4.146,0,0,0-3.964,2.809q-.09.245-.151.48a4.287,4.287,0,0,0-.963-.459,2.336,2.336,0,0,0-2.227-1.391,4.668,4.668,0,0,0-2.007.533,1.594,1.594,0,0,0-.319-.3,6.846,6.846,0,0,0-3.838-1.348c-1.4,0-3.951.619-5.385,4.771A7.364,7.364,0,0,0,8.6,88.311a4.343,4.343,0,0,0,2.913,1.195,8.557,8.557,0,0,0,4.079-1.515,1.957,1.957,0,0,0,.956-1.2,1.741,1.741,0,0,0,.055-.4,3.845,3.845,0,0,0,1.464-.533,2.586,2.586,0,0,0,2.457,1.165,12.7,12.7,0,0,0,2.051-.216h0a2.219,2.219,0,0,1,.369.053c.075.015.15.029.224.042a13.91,13.91,0,0,0,2.316.214c4.118,0,4.878-2.392,4.988-2.871.633-2.747-2.5-3.713-3.841-4.125-.261-.08-.556-.171-.658-.222-1.122-.555-1.215-.938-1.215-.941a1.076,1.076,0,0,1,.6-.412c.547.705,1.021,1.229,1.689,1.229a1.19,1.19,0,0,0,1.165-1.026,3.346,3.346,0,0,0-.442-2.506A2.381,2.381,0,0,0,26.195,75.2a5.679,5.679,0,0,0-1.009-.095ZM10.2,81.234a3.632,3.632,0,0,1,.69-1.911.427.427,0,0,1,.23-.042,3.586,3.586,0,0,1,1.736.665A8.606,8.606,0,0,1,10.2,81.234Zm6.391,1.174a3.384,3.384,0,0,1,.367-1.017c.066-.141.131-.281.193-.422q.031-.073.066-.135a4.819,4.819,0,0,1-.625,1.575Zm5.049.767a4.6,4.6,0,0,1-.026-1.877,4.957,4.957,0,0,0,2.243,1.314c.115.039.216.073.3.106a6.644,6.644,0,0,1,.971.489,10.532,10.532,0,0,1-1.867.167,4.981,4.981,0,0,1-1.62-.2Zm-10.921,1.18L13.5,83.61a5.762,5.762,0,0,0,.321.967,1.823,1.823,0,0,0-.249.2,2.707,2.707,0,0,1-1.573.89c-.561,0-1-.682-1.279-1.309Z" transform="translate(0)"/>
  </g>
  <g>
    <path class="cls-1" d="M50.845,86.261a1.459,1.459,0,0,1-.379-.053,1.879,1.879,0,0,1-1.479-1.475c-.063-.3-.176-.984-.317-1.847a53.052,53.052,0,0,0-1.327-6.61,1.945,1.945,0,0,1,.064-1.743,2.659,2.659,0,0,1,1.959-1.276l.282-.048a13.588,13.588,0,0,1,2.243-.252,4.382,4.382,0,0,1,1.72.31,2.243,2.243,0,0,1,1.605,1.924c.095,1.544-1.538,3.065-2.659,3.712a5.363,5.363,0,0,1-1.062.43c-.142.045-.283.09-.422.142a17.651,17.651,0,0,0,.543,2.569c.57,2.228.753,3.112.411,3.563a1.463,1.463,0,0,1-1.182.654ZM50.7,76.369a3.377,3.377,0,0,0,1.574-.8,2.317,2.317,0,0,0-.341-.021,9.025,9.025,0,0,0-1.387.144C50.6,75.943,50.65,76.185,50.7,76.369Z" transform="translate(0)"/>
    <path class="cls-2" d="M51.89,73.457a3.9,3.9,0,0,1,1.526.271c2.719,1.147.606,3.753-1.109,4.741a14.866,14.866,0,0,1-1.611.618c-.62.269,1.4,5.6.932,6.218a.989.989,0,0,1-.783.456.933.933,0,0,1-.246-.034,1.388,1.388,0,0,1-1.122-1.1c-.229-1.088-1.112-7.266-1.676-8.553-.453-1.035.294-2.1,1.647-2.326a15.271,15.271,0,0,1,2.442-.293m-1.549,3.458h0c1.043-.038,2.638-.883,2.494-1.55-.051-.238-.435-.315-.906-.315a11.4,11.4,0,0,0-1.982.248,15.281,15.281,0,0,0,.394,1.617m1.549-4.458a13.947,13.947,0,0,0-2.327.26l-.28.047a3.155,3.155,0,0,0-2.317,1.531,2.439,2.439,0,0,0-.083,2.183,55.41,55.41,0,0,1,1.291,6.488c.148.9.255,1.551.322,1.87a2.366,2.366,0,0,0,1.838,1.856,1.893,1.893,0,0,0,2.09-.782c.5-.66.276-1.639-.325-3.987-.167-.651-.4-1.555-.487-2.1l.036-.012a5.752,5.752,0,0,0,1.157-.472c1.23-.708,3.019-2.4,2.909-4.176a2.733,2.733,0,0,0-1.91-2.353,4.847,4.847,0,0,0-1.915-.35Z" transform="translate(0)"/>
  </g>
  <g>
    <path class="cls-1" d="M56.469,84.7a1.677,1.677,0,0,1-.46-.063c-2.035-.583-2.459-2.482-1.419-6.352a5.994,5.994,0,0,1,5.265-4.6c.126-.007.25-.01.371-.01a2.75,2.75,0,0,1,2.716,1.479c.265.5-.006,1.228-.416,2.32-.519,1.383-1.228,3.277-.416,4.23a1.134,1.134,0,0,0,.324.22,1.3,1.3,0,0,1,.833,1.142c.033.581-.744,1.061-1.084,1.138a1.9,1.9,0,0,1-.422.049h0a2.657,2.657,0,0,1-2.149-1.623C58.918,83.454,57.667,84.7,56.469,84.7Zm3.847-8.3c-.909,0-2.557.523-3.382,4.023a2.476,2.476,0,0,0-.1.892A6.507,6.507,0,0,0,58.9,79.8l1.421-3.4Z" transform="translate(0)"/>
    <path class="cls-2" d="M60.225,74.176A2.252,2.252,0,0,1,62.5,75.387c.44.841-2.35,4.788-.77,6.644.359.422,1,.375,1.039,1.065.012.221-.471.571-.7.622a1.411,1.411,0,0,1-.311.036c-1.359,0-2.03-2.087-2.03-2.087S57.942,84.2,56.469,84.2a1.167,1.167,0,0,1-.323-.044c-1.031-.3-2.344-1.014-1.074-5.741a5.508,5.508,0,0,1,4.806-4.231c.118-.006.234-.009.347-.009m-3.455,7.65c.835,0,2.552-1.743,2.552-1.743L61.031,76a2.424,2.424,0,0,0-.715-.1c-1.045,0-2.962.563-3.868,4.409-.266,1.13-.069,1.514.323,1.514m3.455-8.65c-.129,0-.26,0-.395.01a6.5,6.5,0,0,0-5.724,4.971c-1.114,4.146-.57,6.293,1.764,6.962a2.171,2.171,0,0,0,.6.083,4.783,4.783,0,0,0,3.07-1.737,2.767,2.767,0,0,0,2.222,1.289,2.416,2.416,0,0,0,.531-.06c.455-.1,1.526-.725,1.473-1.654a1.8,1.8,0,0,0-1.1-1.554,1.485,1.485,0,0,1-.186-.11c-.616-.723.062-2.53.51-3.726.44-1.175.759-2.024.391-2.727a3.243,3.243,0,0,0-3.159-1.748Zm-2.768,7.216c.435-1.745,1.14-2.88,2.034-3.3l-1.015,2.425a10.989,10.989,0,0,1-1.02.878Z" transform="translate(0)"/>
  </g>
  <g>
    <path class="cls-1" d="M89.181,82.659a1.669,1.669,0,0,1-.464-.062c-1.555-.446-2.393-1.692-1.426-6.324.855-4.1,3.158-4.713,4.455-4.713a4.967,4.967,0,0,1,.934.093,6.039,6.039,0,0,1,2.455,1.308.5.5,0,0,1,.162.443c-.216,1.518-.53,5.8.586,7.361a.5.5,0,0,1-.139.712,2.38,2.38,0,0,1-1.256.428h0a1.759,1.759,0,0,1-1.6-1.352C92,81.376,90.426,82.659,89.181,82.659Zm2.457-8.275a1.489,1.489,0,0,0-1.353.934c-.6,1.133-1.007,3.732-.743,4.158a.2.2,0,0,0,.164.06,2.4,2.4,0,0,0,1.405-.905,5.975,5.975,0,0,0,1.6-3.942A2.291,2.291,0,0,0,91.638,74.384Z" transform="translate(0)"/>
    <path class="cls-2" d="M91.746,72.059a4.474,4.474,0,0,1,.841.084,5.559,5.559,0,0,1,2.215,1.19s-.8,5.65.674,7.722a1.881,1.881,0,0,1-.987.349c-1.157,0-1.312-1.842-1.312-1.842s-2.434,2.6-4,2.6a1.18,1.18,0,0,1-.326-.043c-1.031-.3-2.074-.95-1.074-5.741.778-3.728,2.729-4.316,3.965-4.316m-2.04,7.976c1.317,0,3.706-2.793,3.491-5.6a2.463,2.463,0,0,0-1.56-.554,1.969,1.969,0,0,0-1.794,1.2c-.6,1.132-1.187,4.125-.687,4.708a.694.694,0,0,0,.55.243m2.04-8.976c-1.448,0-4.016.664-4.944,5.112-.906,4.344-.408,6.28,1.777,6.907a2.184,2.184,0,0,0,.6.082,6.392,6.392,0,0,0,3.543-1.789A2.04,2.04,0,0,0,94.489,82.4a2.865,2.865,0,0,0,1.524-.506,1,1,0,0,0,.277-1.425c-.908-1.272-.787-4.969-.5-7a1,1,0,0,0-.323-.886,6.433,6.433,0,0,0-2.7-1.427,5.44,5.44,0,0,0-1.026-.1Zm-1.785,7.877a9.565,9.565,0,0,1,.766-3.385c.313-.591.651-.667.911-.667a1.624,1.624,0,0,1,.568.117,5.523,5.523,0,0,1-1.38,3.2,3.318,3.318,0,0,1-.865.736Z" transform="translate(0)"/>
  </g>
  <g>
    <path class="cls-1" d="M100.962,82.56A16.817,16.817,0,0,1,98.6,82.4a1.9,1.9,0,0,1-1.64-1.676,59.486,59.486,0,0,1-.5-7.95,1.408,1.408,0,0,1,1.456-1.5,2.329,2.329,0,0,1,.433.044,1.724,1.724,0,0,1,1.219.727,1.488,1.488,0,0,1,.1,1.236,14.361,14.361,0,0,0-.354,5.86c.073.592.238.687.73.687.06,0,.121,0,.186-.006l.343-.022c.454-.031,1.033-.07,1.617-.07a3.752,3.752,0,0,1,2.679.682,1.258,1.258,0,0,1,.368.917c-.012,1.106-3,1.226-4.282,1.226Z" transform="translate(0)"/>
    <path class="cls-2" d="M97.921,71.78a1.786,1.786,0,0,1,.338.035c.742.143,1.17.534.937,1.332a14.835,14.835,0,0,0-.37,6.063c.106.862.5,1.124,1.224,1.124q.1,0,.217-.007c.469-.028,1.2-.092,1.929-.092,1.27,0,2.558.191,2.548,1.093,0,.391-1.751.732-3.784.732a16.476,16.476,0,0,1-2.29-.154,1.419,1.419,0,0,1-1.221-1.283,58.97,58.97,0,0,1-.485-7.827c.027-.653.366-1.016.956-1.016m0-1h0a1.914,1.914,0,0,0-1.955,1.974,60.113,60.113,0,0,0,.5,8.073A2.389,2.389,0,0,0,98.529,82.9a17.337,17.337,0,0,0,2.431.164c4.765,0,4.779-1.3,4.784-1.721a1.747,1.747,0,0,0-.513-1.274c-.568-.574-1.5-.83-3.036-.83-.6,0-1.184.039-1.65.071l-.339.022c-.055,0-.108.005-.158.005a1.171,1.171,0,0,1-.183-.012,1.213,1.213,0,0,1-.048-.235,13.873,13.873,0,0,1,.337-5.66A1.975,1.975,0,0,0,100,71.79a2.2,2.2,0,0,0-1.55-.957,2.8,2.8,0,0,0-.527-.053Z" transform="translate(0)"/>
  </g>
  <g>
    <path class="cls-1" d="M135.754,37.323c-7.883,0-38.97-2.287-39.283-2.31a1.745,1.745,0,0,1-1.393-2.593,1.692,1.692,0,0,1,1.491-.881c1.855.006,6.533.324,11.949.693,8.354.568,18.752,1.276,24.847,1.276,2.791,0,5.03-.183,5.132-2.341a167.44,167.44,0,0,0-1.035-24,3.236,3.236,0,0,0-.833-2.065c-8.687,4.424-24.792,12.849-27.964,14.51a1.276,1.276,0,0,1-.587.146,1.242,1.242,0,0,1-.668-.2c-2.246-1.428-13.593-8.62-19.774-12.244a.855.855,0,0,0-.206.557l.025,1.2c.115,5.578.289,14.008,2.531,19.62.225.562.656.726,1.4.968A3.974,3.974,0,0,1,93.355,30.8a.5.5,0,0,1,.083.519l-.19.453a.5.5,0,0,1-.421.3c-1.936.154-3.256.243-4.277.243-1.507,0-2.328-.21-2.837-.725-.669-.679-.654-1.7-.632-3.386,0-.311.009-.645.01-1.006,0-1.518-.244-4.391-.53-7.717-.9-10.431-1.1-14.931-.055-15.792,1-.821,8.155-1.135,24.251-1.656,10.159-.329,20.663-.669,25.7-1.311A24.259,24.259,0,0,1,137.439.5c1.592,0,2.563.3,3.15.968a3.4,3.4,0,0,1,.531,2.811c-.414,3.15,0,7.623.442,12.358.9,9.69,1.832,19.71-4.209,20.619a12.349,12.349,0,0,1-1.6.067ZM91.233,5.794C94.324,7.637,102.575,12.6,107.7,16.082a.573.573,0,0,0,.3.065,6.32,6.32,0,0,0,2.341-.909l.2-.112c6.915-3.666,15.989-8.582,20.049-10.786l-3.313.3c-4.659.422-9.284.508-14.795.508l-5.8-.01c-3.837,0-7.95.037-12.038.3C93.516,5.507,92.2,5.664,91.233,5.794Z" transform="translate(0)"/>
    <path class="cls-2" d="M137.44,1c2.731,0,3.484.928,3.184,3.213-1.257,9.583,5.032,31.287-3.345,32.549a12.319,12.319,0,0,1-1.525.062c-6.85,0-31.691-1.751-39.246-2.309a1.245,1.245,0,0,1-.993-1.851l.014-.025a1.186,1.186,0,0,1,1.04-.6h0c4.618.015,26.651,1.97,36.791,1.97h.1c2.219,0,5.4-.01,5.534-2.817A168.91,168.91,0,0,0,137.959,7.12,3.46,3.46,0,0,0,136.7,4.513c-8.782,4.467-25.505,13.218-28.264,14.662a.766.766,0,0,1-.356.089.742.742,0,0,1-.4-.117c-2.223-1.412-14.036-8.9-20.125-12.449a1.514,1.514,0,0,0-.624,1.194c.131,5.764.153,14.89,2.593,20.995.594,1.486,2.359.973,3.453,2.244l-.19.451c-1.84.146-3.213.242-4.238.242-3.357,0-2.966-1.023-2.959-4.616C85.6,22.584,83.3,5.333,84.822,4.083c1.8-1.481,38.727-1.46,49.695-2.857A23.834,23.834,0,0,1,137.44,1M112.479,4.646c-1.931,0-3.862-.01-5.794-.01-4.031,0-8.062.042-12.081.3C92.5,5.071,89.76,5.5,89.76,5.5s11.229,6.626,17.655,10.995a1.013,1.013,0,0,0,.579.153,7.269,7.269,0,0,0,2.775-1.079c9.245-4.9,22.178-11.943,22.178-11.943s-1.885.168-5.721.515c-4.9.443-9.821.506-14.747.506M137.44,0a24.746,24.746,0,0,0-3.05.235c-5.01.638-15.5.978-25.646,1.306-18.07.585-23.486.888-24.557,1.77-1.214,1-1.1,4.924-.126,16.215.273,3.18.531,6.183.528,7.679,0,.359-.005.691-.009,1-.024,1.756-.04,2.916.776,3.744a4.395,4.395,0,0,0,3.193.874c1.038,0,2.369-.09,4.317-.245a1,1,0,0,0,.843-.609l.095-.226.095-.225a1,1,0,0,0-.164-1.04,4.45,4.45,0,0,0-2.192-1.284c-.711-.232-.953-.335-1.09-.679-2.209-5.528-2.381-13.9-2.5-19.444l-.021-.991c6.248,3.693,17.023,10.522,19.208,11.91a1.742,1.742,0,0,0,.935.273,1.774,1.774,0,0,0,.82-.2c3.113-1.63,18.763-9.818,27.606-14.327a3.269,3.269,0,0,1,.461,1.494A166.889,166.889,0,0,1,138,31.145c-.074,1.572-1.586,1.861-4.536,1.865h-.1c-6.078,0-16.465-.707-24.812-1.275-5.648-.384-10.109-.688-11.975-.694a2.186,2.186,0,0,0-1.922,1.114,2.246,2.246,0,0,0,1.78,3.358c.313.023,31.417,2.312,39.32,2.312a12.641,12.641,0,0,0,1.674-.073c6.508-.981,5.554-11.239,4.632-21.16-.437-4.707-.851-9.152-.445-12.247a4,4,0,0,0-.651-3.206C140.273.351,139.187,0,137.44,0ZM112.479,5.646c5.523,0,10.16-.087,14.837-.51l.9-.082c-4.591,2.488-12.036,6.512-17.919,9.63-.051.027-.122.067-.209.116a6.163,6.163,0,0,1-2.1.847.445.445,0,0,1-.05,0C103.4,12.557,96.42,8.32,92.739,6.112c.642-.073,1.316-.138,1.93-.178,4.077-.262,8.185-.3,12.017-.3q1.447,0,2.895,0t2.9,0Z" transform="translate(0)"/>
  </g>
</svg>
