<svg id="Layer_1" data-name="Layer 1" xmlns="http://www.w3.org/2000/svg" viewBox="0 0 155.839 86.416">
  <defs>
    <style>
      .cls-1 {
        fill: #0000b8;
      }

      .cls-2 {
        fill: #fff;
      }
    </style>
  </defs>
  <title>736da52d-d868-4db1-9b71-a1b2db1bd0df</title>
  <g>
    <path class="cls-1" d="M23.95,85.916a1.649,1.649,0,0,1-.864-.266,2.235,2.235,0,0,1-1.02-2.068l-.016-4.317c0-.287.021-.585.046-.883a3.739,3.739,0,0,0-.074-1.557c-.952-2.415-.063-4.393.8-6.306.216-.479.431-.956.613-1.439a26.711,26.711,0,0,1,1.451-3.032c.338-.634.676-1.269.978-1.919,1.3-2.8,1.167-5.743-.413-9.26l-.1-.2a1.346,1.346,0,0,1,.229-1.851l.138-.117a1.937,1.937,0,0,1,1.241-.6,1.546,1.546,0,0,1,.892.314,2.159,2.159,0,0,0,1.29.312c.153,0,.308,0,.461-.01s.326-.01.487-.01l.522,0c1.07.006,2.141.013,3.21.013q1.389,0,2.775-.019a31.412,31.412,0,0,0,6.044-.536,25.164,25.164,0,0,1,5.085-.4c.438,0,2.895.015,2.895.015,4.053-.017,8.17-.248,12.151-.47,2.991-.167,6.084-.34,9.133-.422A128.692,128.692,0,0,0,88.3,49.54a4.422,4.422,0,0,1,.673-.055,2.158,2.158,0,0,1,1.686.65,2.6,2.6,0,0,1,.5,2.09c-.151,1.42-.227,2.877-.3,4.287a52.99,52.99,0,0,1-.6,6.491l-.033.205c-.092.583-.246,1.561-1.424,1.58h0a1.43,1.43,0,0,1-1.078-.377,1.949,1.949,0,0,1-.384-1.478l0-.206a49.775,49.775,0,0,1,.605-6.987c.021-.151.048-.3.074-.455a4.22,4.22,0,0,0,.1-1.091c-.116-1.217-.8-1.4-1.309-1.426-.293-.017-.586-.028-.879-.028-.169,0-.339,0-.507.012q-3.028.152-6.055.31-3.393.177-6.786.347c-.5.024-.992.053-1.488.082-1.354.077-2.754.157-4.137.157,0,0-.994-.007-1.3-.007-3.905,0-7.872.281-11.709.552-3.856.273-7.843.555-11.787.555q-1.087,0-2.177-.03c-.154,0-.308-.007-.461-.007a35.314,35.314,0,0,0-4.379.371,36.367,36.367,0,0,1-4.544.38l-.393,0a1.045,1.045,0,0,0-.784.223,1.138,1.138,0,0,0-.081.865q.116.6.2,1.211c.337,2.514.538,5.422-1.362,8.129A23.189,23.189,0,0,0,25.743,70.9c-.275.712-.25.891-.235.929A4,4,0,0,0,26.672,72q.7.041,1.4.04a51.827,51.827,0,0,0,7.646-.765c1.08-.163,2.159-.325,3.239-.458,3.309-.408,6.659-.529,9.9-.646l1.368-.05c2.709-.1,5.46-.324,8.12-.539,3.587-.289,7.3-.588,10.979-.6a78.782,78.782,0,0,0,8.891-.712c1.826-.216,3.715-.439,5.58-.577.923-.068,1.844-.171,2.765-.274a44.252,44.252,0,0,1,4.891-.362q.62,0,1.242.037l.143,0a2.37,2.37,0,0,0,.727-.117,3.356,3.356,0,0,0-1.6-.834,2.34,2.34,0,0,1-1.544-.821,1.319,1.319,0,0,1-.2-1.333,1.178,1.178,0,0,1,1.015-.679c.292-.026.512-.045.726-.045a1.848,1.848,0,0,1,.987.226,30.692,30.692,0,0,0,2.8,1.441,18.474,18.474,0,0,1,4.886,2.969,2.6,2.6,0,0,1,.858,3.127A10.617,10.617,0,0,0,100.812,76c.011.56.021,1.119.006,1.677-.048,1.67-.028,3.372-.009,5.019a1.716,1.716,0,0,1-.419,1.289,1.473,1.473,0,0,1-1.095.4l-.123,0C97.9,84.319,97.9,83.226,97.9,82.7c0-3.39,0-6.75.016-10.109.014-2.277-.118-2.418-2.342-2.516-.687-.03-1.376-.038-2.064-.038l-2.121.008c-.683,0-1.366-.008-2.049-.037l-.128,0c-.726,0-1.02.26-1.166,1.028a8.976,8.976,0,0,1-.4,1.468c-.029.077-.052.162-.076.248-.108.389-.311,1.113-1.119,1.173l-.136.005A1.94,1.94,0,0,1,84.6,72.472c-.758-1.889-1-2.081-1.683-2.081a9.278,9.278,0,0,0-1.728.264,18.416,18.416,0,0,1-2.948.31l-.463.024c-2.021.11-4.043.207-6.064.3-5.222.251-10.622.51-15.906,1-2.851.262-5.737.382-8.529.5-1.226.051-2.451.1-3.678.165-3,.154-6.056.511-9.007.857-.955.112-1.91.224-2.865.33-.932.1-1.034.58-1.013,1.033a1.452,1.452,0,0,1-.354,1.115,1.548,1.548,0,0,1-1.161.431,1.362,1.362,0,0,1-1.394-1.289c-.132-.719-.388-.719-.594-.719a3.6,3.6,0,0,0-.656.093,4.368,4.368,0,0,1-.841.11l-.148,0c-.262,0-.391.041-.462.119a1.053,1.053,0,0,0-.128.749,21.983,21.983,0,0,1-.021,3,11.274,11.274,0,0,0,.5,5.116,1.312,1.312,0,0,1-.47,1.583A1.521,1.521,0,0,1,23.95,85.916Z" transform="translate(0)"/>
    <path class="cls-2" d="M88.975,49.985c1.245,0,1.845.743,1.691,2.187-.382,3.575-.27,7.189-.895,10.744-.117.667-.126,1.358-.973,1.371h-.032c-1.059,0-.92-.886-.922-1.562a48.55,48.55,0,0,1,.6-6.916,7.3,7.3,0,0,0,.177-1.663,1.81,1.81,0,0,0-1.779-1.878c-.3-.017-.6-.029-.906-.029-.178,0-.356,0-.533.013-4.28.214-8.56.445-12.84.657-1.865.093-3.733.238-5.6.238l-.388,0q-.456-.005-.911-.005c-7.846,0-15.645,1.108-23.5,1.108q-1.081,0-2.163-.03c-.158,0-.315-.007-.473-.007-2.97,0-5.925.751-8.921.751q-.188,0-.376,0h-.068c-1.089,0-1.52.589-1.307,1.684q.114.588.193,1.183c.365,2.718.447,5.321-1.276,7.775a23.767,23.767,0,0,0-2.5,5.122c-.59,1.526-.275,1.684,1.366,1.781q.718.042,1.43.041c3.693,0,7.315-.779,10.947-1.227,3.745-.462,7.494-.552,11.225-.692,6.37-.24,12.688-1.116,19.083-1.139,4.836-.017,9.663-.932,14.506-1.291,2.539-.188,5.063-.634,7.616-.634.4,0,.807.011,1.212.036q.087.005.173.005a3.431,3.431,0,0,0,1.6-.443,4.194,4.194,0,0,0-2.362-1.5,1.888,1.888,0,0,1-1.247-.63c-.393-.527-.192-1.158.459-1.215.215-.019.453-.043.683-.043a1.42,1.42,0,0,1,.728.153c2.5,1.512,5.4,2.3,7.606,4.349a2.121,2.121,0,0,1,.747,2.546c-1.056,2.225-.663,4.548-.728,6.842-.048,1.678-.029,3.359-.009,5.038.009.753-.265,1.183-1.012,1.183l-.1,0c-.809-.039-.8-.65-.8-1.211,0-3.359,0-6.717.015-10.076.015-2.508-.289-2.907-2.819-3.019-.7-.031-1.392-.039-2.089-.039s-1.411.008-2.116.008c-.677,0-1.354-.007-2.031-.036-.051,0-.1,0-.149,0a1.5,1.5,0,0,0-1.658,1.435,8.514,8.514,0,0,1-.375,1.386c-.159.426-.183,1.054-.764,1.1q-.05,0-.1,0c-.678,0-1.012-.548-1.249-1.141-.716-1.788-1.057-2.4-2.146-2.4a9.6,9.6,0,0,0-1.832.275,21.349,21.349,0,0,1-3.333.324c-7.333.4-14.682.63-21.99,1.3-4.067.373-8.124.454-12.187.662-3.977.2-7.938.75-11.9,1.189-.854.094-1.508.523-1.457,1.555.034.7-.337,1.016-1.019,1.021h-.01c-.59,0-.787-.334-.887-.879-.167-.907-.586-1.129-1.085-1.129-.477,0-1.027.2-1.5.2l-.091,0q-.062,0-.12,0c-.882,0-1.091.644-1.026,1.412.232,2.754-.613,5.578.514,8.271.2.481-.05.75-.346,1.021a1.031,1.031,0,0,1-.7.307,1.161,1.161,0,0,1-.6-.192,1.732,1.732,0,0,1-.78-1.643q-.007-2.159-.016-4.318a7.7,7.7,0,0,0-.063-2.621c-1.106-2.805.522-5.032,1.413-7.385.644-1.7,1.646-3.26,2.415-4.917,1.522-3.283,1.01-6.516-.41-9.676-.244-.542-.584-.985-.005-1.461.333-.274.65-.6,1.061-.6a1.045,1.045,0,0,1,.6.223,2.61,2.61,0,0,0,1.578.4c.315,0,.634-.02.946-.02h.04c1.231.007,2.462.016,3.693.016q1.392,0,2.785-.019a32.191,32.191,0,0,0,6.137-.546,24.66,24.66,0,0,1,4.984-.391c.873,0,1.747.015,2.615.015h.281c7.111-.03,14.195-.7,21.3-.893a130.55,130.55,0,0,0,16.46-1.352,3.921,3.921,0,0,1,.6-.049m0-1h0a4.94,4.94,0,0,0-.749.061,128.3,128.3,0,0,1-16.334,1.341c-3.055.082-6.15.255-9.144.423-3.977.222-8.089.452-12.13.47h-.276c-.431,0-.863,0-1.3-.008s-.88-.008-1.32-.008a25.577,25.577,0,0,0-5.186.412,31,31,0,0,1-5.95.525q-1.385.021-2.77.019c-1.066,0-2.131-.006-3.2-.013l-.49,0h-.008c-.209,0-.375.005-.541.01-.148,0-.3.01-.443.01a1.641,1.641,0,0,1-1-.22,2.033,2.033,0,0,0-1.18-.406,2.375,2.375,0,0,0-1.566.722l-.13.11a1.83,1.83,0,0,0-.359,2.457c.03.061.06.123.088.186,1.517,3.375,1.649,6.185.415,8.845-.294.634-.635,1.275-.965,1.9A26.96,26.96,0,0,0,22.965,68.9c-.176.465-.383.925-.6,1.413-.86,1.914-1.835,4.083-.806,6.693a3.519,3.519,0,0,1,.041,1.333c-.024.3-.048.609-.047.926q.008,1.742.013,3.484l0,.833a2.749,2.749,0,0,0,1.259,2.493,2.148,2.148,0,0,0,1.126.339,2.016,2.016,0,0,0,1.376-.57A1.815,1.815,0,0,0,25.92,83.7a10.9,10.9,0,0,1-.461-4.9,22.277,22.277,0,0,0,.021-3.074,1.388,1.388,0,0,1,0-.328h.026l.059,0q.075,0,.152,0a4.812,4.812,0,0,0,.938-.12,3.432,3.432,0,0,1,.559-.083h.013a1.275,1.275,0,0,1,.089.31,1.8,1.8,0,0,0,1.871,1.7,2.036,2.036,0,0,0,1.538-.587,1.937,1.937,0,0,0,.491-1.483c-.013-.269-.022-.447.568-.512.954-.105,1.909-.217,2.863-.329,2.945-.345,5.991-.7,8.98-.855,1.228-.063,2.455-.114,3.683-.165,2.795-.116,5.685-.237,8.545-.5,5.274-.484,10.669-.743,15.886-.994,2.023-.1,4.045-.194,6.067-.3l.455-.023a18.854,18.854,0,0,0,3.032-.321,9.106,9.106,0,0,1,1.624-.253h0c.379,0,.509,0,1.215,1.767a2.35,2.35,0,0,0,2.178,1.769c.056,0,.114,0,.172-.007a1.811,1.811,0,0,0,1.564-1.538c.02-.072.038-.143.062-.207a9.44,9.44,0,0,0,.42-1.549c.113-.6.243-.622.676-.622l.106,0c.6.026,1.241.037,2.073.037.355,0,.709,0,1.064,0s.7,0,1.052,0c.827,0,1.458.012,2.044.038,1.874.083,1.874.083,1.863,2.014-.019,3.343-.018,6.677-.015,10.083,0,1.419.589,2.153,1.748,2.209q.077,0,.149,0a1.954,1.954,0,0,0,1.449-.548,2.213,2.213,0,0,0,.563-1.647c-.019-1.63-.039-3.315.009-5,.016-.575.005-1.149-.006-1.7a10.241,10.241,0,0,1,.637-4.738,3.1,3.1,0,0,0-.97-3.708,18.865,18.865,0,0,0-5.013-3.055A29.887,29.887,0,0,1,93.21,63.07a2.35,2.35,0,0,0-1.245-.3c-.228,0-.464.02-.683.04l-.087.008a1.909,1.909,0,0,0-.407.08,55.05,55.05,0,0,0,.575-6.361c.072-1.4.146-2.854.3-4.261a3.073,3.073,0,0,0-.628-2.477,2.637,2.637,0,0,0-2.057-.816ZM66.966,54.147c1.4,0,2.8-.08,4.161-.158.5-.028.991-.057,1.486-.081q3.409-.169,6.817-.348,3.012-.156,6.024-.309c.161-.008.322-.012.483-.012.283,0,.566.011.848.027.4.023.759.115.841.975a3.937,3.937,0,0,1-.1.958c-.027.157-.055.315-.077.471a49.956,49.956,0,0,0-.61,7.058l0,.2a2.412,2.412,0,0,0,.527,1.837,1.878,1.878,0,0,0,1.4.527,2.066,2.066,0,0,0,.955-.223,2.07,2.07,0,0,0,.3.564,2.559,2.559,0,0,0,1.5.932H91.45a44.621,44.621,0,0,0-4.944.364c-.9.1-1.836.2-2.747.272-1.876.139-3.77.363-5.6.58a78.5,78.5,0,0,1-8.834.709c-3.7.013-7.421.313-11.018.6-2.655.214-5.4.435-8.1.537l-1.36.05c-3.253.117-6.617.238-9.95.649-1.089.134-2.189.3-3.252.46a51.447,51.447,0,0,1-7.572.759c-.467,0-.928-.013-1.372-.039q-.388-.023-.624-.051c.03-.1.073-.217.132-.371A22.758,22.758,0,0,1,28.6,66.174c2-2.855,1.8-5.875,1.448-8.482-.057-.425-.125-.843-.2-1.241a.91.91,0,0,1-.015-.465l.005,0a2.018,2.018,0,0,1,.335-.031c.179,0,.312,0,.444,0a36.705,36.705,0,0,0,4.606-.385,34.434,34.434,0,0,1,4.315-.366c.148,0,.3,0,.445.006q1.1.031,2.191.03c3.961,0,7.958-.283,11.822-.556,3.828-.271,7.786-.551,11.674-.551q.45,0,.9.005l.4,0Z" transform="translate(0)"/>
  </g>
  <g>
    <path class="cls-1" d="M84.154,40.987a2.229,2.229,0,0,1-1.663-1.142,6.748,6.748,0,0,1-1.27-3.325c-.058-.548-.145-1.094-.229-1.628a12.558,12.558,0,0,1-.244-3.261l-.006-.017a2.1,2.1,0,0,1-.921.276,1.108,1.108,0,0,1-1.059-.814,1.619,1.619,0,0,1,.6-2.1c.147-.088.295-.18.443-.271a5.429,5.429,0,0,1,2.859-1.088l1.288-.01a9.355,9.355,0,0,1,4.038.681c.143.065.283.14.421.214a1.887,1.887,0,0,0,.691.276c.156,0,.326-.164.506-.488a.873.873,0,0,1,.784-.455,1.748,1.748,0,0,1,1.245.68,4.281,4.281,0,0,1,.873,2.741c.014.486.024.972.035,1.458.025,1.159.052,2.358.129,3.528.082,1.267.263,1.271.514,1.271h0a4.131,4.131,0,0,0,.94-.165,9.027,9.027,0,0,0,1.295-.421,3.183,3.183,0,0,0,.932-.5,3.253,3.253,0,0,0-.365-1.021c-1.014-2.143-.045-3.79,1.037-5.119a8.271,8.271,0,0,1,2.431-1.858l.389-.227a1.291,1.291,0,0,1,.663-.19,1.767,1.767,0,0,1,1.4.928,1.12,1.12,0,0,1,.209.895,1.213,1.213,0,0,1-.349.6,2.308,2.308,0,0,1,.8-.137,2.92,2.92,0,0,1,.789.114,1.453,1.453,0,0,1,.988,1.73l-.006.136a3.825,3.825,0,0,0,.276,1.872,4.538,4.538,0,0,1,.185.471c.188.54.253.594.449.594.389-.012.726-.275,1.112-.855a6.792,6.792,0,0,0,.847-2.428,10.827,10.827,0,0,1,.594-2.069,4.08,4.08,0,0,0-1.221-.151c-.173,0-.345,0-.515.01s-.354.01-.528.01a5.984,5.984,0,0,1-.709-.037,1.85,1.85,0,0,0-.219-.01l-.369,0a1.519,1.519,0,0,1-1.148-.377,1.322,1.322,0,0,1-.3-1.032c.041-.591.342-1.3,1.543-1.3.15,0,.3.009.452.019l.23.013c1.888.07,3.415.17,4.807.316a12.1,12.1,0,0,0,1.236.084,3.183,3.183,0,0,0,2.21-.743,5.16,5.16,0,0,1,2.751-.8c1.96-.2,3.936-.317,5.847-.434l.861-.053c.1-.006.21-.012.315-.012a1.218,1.218,0,0,1,1.35.981,1.974,1.974,0,0,1-.3,1.8,1.539,1.539,0,0,1-1.145.557,1.348,1.348,0,0,1-.824-.288,2.314,2.314,0,0,0-1.5-.453,9.286,9.286,0,0,0-1.12.092c-1.649.2-2.309.943-2.353,2.651-.011.41.075.5.079.506a.185.185,0,0,0,.1.018,1.176,1.176,0,0,0,.323-.057c.927-.27,5.286-1.524,5.286-1.524a1.255,1.255,0,0,1,.506-.219,10.364,10.364,0,0,1,1.337-.084,21.96,21.96,0,0,1,4.812.712l.449.1c.769.172.911.921,1.006,1.417l.03.158a5.03,5.03,0,0,1-.611,3.126l-.068.156c-.813,1.847-4.277,3.073-6.212,3.073a3.038,3.038,0,0,1-1.2-.207c-2.148-.929-3.223-1.931-2.75-4.565a1.591,1.591,0,0,1,.119-.359l.011-.025a1.99,1.99,0,0,0-.317.12,2.957,2.957,0,0,1-.458.169,2.783,2.783,0,0,0-1.988,1.321,2.745,2.745,0,0,0,.536,2.3c.069.109.145.211.217.311a1.95,1.95,0,0,1,.432,2.038,1.584,1.584,0,0,1-1.537,1.281,1.681,1.681,0,0,1-1.909-1.453c-.046-.356-.078-.719-.11-1.082a9.306,9.306,0,0,0-.459-2.56l-.091-.231a4.954,4.954,0,0,1-.335-4.047,1.267,1.267,0,0,0,.06-.892.584.584,0,0,0-.349-.322,2.941,2.941,0,0,0-1.108-.217,3.39,3.39,0,0,0-1.317.279c-.107.045-.14.1-.113.565l.01.234c.01.588,0,1.178-.01,1.768A16.051,16.051,0,0,0,112,37.748a1.537,1.537,0,0,1-.284,1.848,1.821,1.821,0,0,1-1.186.43,2.413,2.413,0,0,1-.908-.19,1.49,1.49,0,0,1-.836-1.956,8.236,8.236,0,0,0,.118-2.712c-.121.166-.233.331-.344.494a6.068,6.068,0,0,1-1.12,1.344,3.844,3.844,0,0,1-2.357,1.053,2.634,2.634,0,0,1-1.5-.5,1.775,1.775,0,0,0-1.062-.328,4.889,4.889,0,0,0-.825.091,12.191,12.191,0,0,1-1.671.14c-1.472.055-2.742.1-3.622,1.476a1.324,1.324,0,0,1-.883.482c-.086.021-.171.04-.247.066a8.667,8.667,0,0,1-2.753.6,2.305,2.305,0,0,1-1.733-.643c-.67-.679-.944-1.847-.916-3.906.012-.857-.037-1.739-.085-2.591-.022-.4-.045-.808-.062-1.212A1.053,1.053,0,0,0,89.511,31c-1.049,1.541-2.79,1.981-4.342,2.373l-.42.106c-1.1.286-1.212.76-1.037,1.65a6.324,6.324,0,0,0,1.193,3.065,2.165,2.165,0,0,1,.7,1.619,1.335,1.335,0,0,1-.673.942A1.447,1.447,0,0,1,84.154,40.987Zm40.034-8.131a1.714,1.714,0,0,0-1.082,1.6c.022.5.885,1.18,1.487,1.18a4.62,4.62,0,0,0,3.441-1.757c.3-.595.333-.968.1-1.287-.127-.173-.357-.208-.754-.254l-.206-.025a.71.71,0,0,0-.1-.008c-.176,0-.237.062-.437.438a1.809,1.809,0,0,1-.668.8,1.176,1.176,0,0,1-.577.165,1.347,1.347,0,0,1-1.027-.643A2.449,2.449,0,0,0,124.188,32.856ZM100.9,30.991c-.184.085-.37.157-.552.228a5,5,0,0,0-.8.363,2.241,2.241,0,0,0-1.028,2.48,1.923,1.923,0,0,0,1.837,1.061,2.675,2.675,0,0,0,.619-.073c.444-.1.494-.194.5-.2a.731.731,0,0,0-.1-.416,3.725,3.725,0,0,1-.219-.807,2.546,2.546,0,0,0-.219-.744c-.031-.056-.067-.113-.1-.17a1.24,1.24,0,0,1,.034-1.7ZM84.381,29.916c-.44,0-.6.15-.6.985a.342.342,0,0,0,.019.14,2.735,2.735,0,0,0,.592-.119l.348-.1a4.9,4.9,0,0,0,1.273-.488,3.421,3.421,0,0,0-1.627-.419v-.5Z" transform="translate(0)"/>
    <path class="cls-2" d="M123.048,25.868c.381,0,.75.087.861.589a1.463,1.463,0,0,1-.188,1.361,1.054,1.054,0,0,1-.771.389.847.847,0,0,1-.52-.184,2.823,2.823,0,0,0-1.8-.556,9.889,9.889,0,0,0-1.182.1c-1.929.234-2.741,1.193-2.791,3.135-.017.652.163,1.037.681,1.037a1.684,1.684,0,0,0,.464-.077c1.76-.514,3.524-1.012,5.285-1.524.151-.044.281-.184.431-.2a9.837,9.837,0,0,1,1.273-.08,23.777,23.777,0,0,1,5.151.8c.505.113.557.705.656,1.188a4.851,4.851,0,0,1-.648,2.98c-.667,1.513-3.819,2.775-5.754,2.775a2.576,2.576,0,0,1-1-.166c-2.156-.932-2.851-1.814-2.456-4.018.052-.29.34-.552.062-.9a.708.708,0,0,0-.341-.087,4.3,4.3,0,0,0-.98.315c-2.485.625-3.138,2.212-1.752,4.373.391.61.931,1.044.6,1.9-.216.563-.408.961-1.072.961H117.2c-.717-.025-1.244-.19-1.351-1.016a16.069,16.069,0,0,0-.6-3.759c-.513-1.313-1.039-2.453-.43-3.9a1.343,1.343,0,0,0-.562-1.871,3.432,3.432,0,0,0-1.3-.253,3.882,3.882,0,0,0-1.512.319c-.55.232-.417.81-.409,1.268.041,2.388-.252,4.8.49,7.142.145.458.333.927-.129,1.314a1.312,1.312,0,0,1-.864.313,1.923,1.923,0,0,1-.719-.153c-.589-.24-.688-.72-.537-1.382a10.441,10.441,0,0,0-.019-4.019c-.984.994-1.34,2-2.132,2.647a3.36,3.36,0,0,1-2.04.939,2.126,2.126,0,0,1-1.218-.409,2.268,2.268,0,0,0-1.344-.415,5.278,5.278,0,0,0-.912.1c-1.964.347-4.239-.331-5.627,1.839-.137.214-.574.241-.874.346a8.32,8.32,0,0,1-2.588.574c-1.652,0-2.187-1.22-2.149-4.042.017-1.276-.095-2.554-.148-3.831a1.335,1.335,0,0,0-.891-1.406c-.97,1.858-2.93,2.216-4.713,2.678a1.638,1.638,0,0,0-1.4,2.231,6.678,6.678,0,0,0,1.308,3.3c.52.589.937,1.3.131,1.806a.948.948,0,0,1-.508.16c-.493,0-.909-.452-1.256-.934a6.285,6.285,0,0,1-1.179-3.085,23.362,23.362,0,0,1-.461-4.881c-.119-.427-.261-.535-.394-.535a.6.6,0,0,0-.244.081,2.1,2.1,0,0,1-.8.257c-.24,0-.45-.123-.591-.493a1.146,1.146,0,0,1,.388-1.489,6.21,6.21,0,0,1,3.05-1.289c.427,0,.856-.01,1.285-.01a9.024,9.024,0,0,1,3.831.636,3.766,3.766,0,0,0,1.32.536c.319,0,.632-.185.943-.745a.374.374,0,0,1,.347-.2,1.274,1.274,0,0,1,.859.5,3.8,3.8,0,0,1,.759,2.437c.048,1.669.056,3.341.164,5.006.083,1.271.287,1.738,1.015,1.738a4.559,4.559,0,0,0,1.065-.18,9.658,9.658,0,0,0,1.365-.445c1.42-.6,1.51-.746.823-2.2-.859-1.814-.145-3.216.972-4.589a9.33,9.33,0,0,1,2.687-1.97.792.792,0,0,1,.408-.121,1.362,1.362,0,0,1,.987.711c.387.561-.1.913-.475,1.142-.54.324-1.193.461-1.728.791a2.719,2.719,0,0,0-1.229,3.1,2.413,2.413,0,0,0,2.3,1.368,3.189,3.189,0,0,0,.734-.087c.729-.173,1.114-.433.743-1.3a14.768,14.768,0,0,0-.459-1.6c-.218-.394-.623-.8-.15-1.273a1.822,1.822,0,0,1,1.336-.575,2.424,2.424,0,0,1,.654.1c.732.205.636.81.616,1.367a4.3,4.3,0,0,0,.327,2.108c.265.546.3,1.347,1.084,1.347h.036a1.988,1.988,0,0,0,1.492-1.077c1.01-1.512.8-3.389,1.708-5.035a4.008,4.008,0,0,0-1.9-.39c-.353,0-.7.019-1.044.019a5.43,5.43,0,0,1-.649-.034,2.372,2.372,0,0,0-.279-.013c-.12,0-.244,0-.367,0-.517,0-1-.077-.947-.874.049-.71.529-.832,1.044-.831.225,0,.458.023.663.031,1.593.06,3.189.148,4.774.314a12.481,12.481,0,0,0,1.289.087,3.7,3.7,0,0,0,2.53-.859,4.831,4.831,0,0,1,2.5-.693c2.217-.223,4.445-.346,6.67-.483.093-.006.189-.011.285-.011M83.865,31.527a2.486,2.486,0,0,0,.672-.126,5.06,5.06,0,0,0,2.376-1.119,4.465,4.465,0,0,0-2.525-.866H84.38c-1.049,0-1.1.877-1.1,1.485,0,.485.257.626.58.626M125.39,33.2c-.529,0-.727-.865-1.187-.865a.471.471,0,0,0-.22.06,2.239,2.239,0,0,0-1.376,2.077,2.191,2.191,0,0,0,1.987,1.658h.018a5.043,5.043,0,0,0,3.868-2.03,1.647,1.647,0,0,0,.059-1.809c-.3-.415-.811-.415-1.3-.481a1.267,1.267,0,0,0-.171-.012c-.847,0-.8.99-1.35,1.3a.676.676,0,0,1-.332.1m-16.07-.163-.055-.155-.086.14.141.015m13.729-8.171h0c-.116,0-.233.006-.347.013l-.859.053c-1.916.117-3.9.238-5.849.434a5.557,5.557,0,0,0-3.04.919,2.689,2.689,0,0,1-1.89.627,11.6,11.6,0,0,1-1.184-.081c-1.4-.147-2.939-.248-4.841-.319-.07,0-.143-.007-.218-.012-.158-.01-.322-.02-.483-.02a1.836,1.836,0,0,0-2.042,1.763,2.526,2.526,0,0,0,0,.376,2.208,2.208,0,0,0-1.785-1.108,1.782,1.782,0,0,0-.918.26L99.211,28a8.813,8.813,0,0,0-2.569,1.975c-1.111,1.366-2.239,3.242-1.1,5.648.121.255.208.453.261.592-.185.094-.448.206-.571.258a8.594,8.594,0,0,1-1.224.4,5.109,5.109,0,0,1-.734.145,4.835,4.835,0,0,1-.1-.8c-.076-1.164-.1-2.363-.128-3.522-.01-.483-.021-.965-.035-1.447a4.808,4.808,0,0,0-.986-3.043,2.253,2.253,0,0,0-1.631-.863,1.377,1.377,0,0,0-1.221.712,1.435,1.435,0,0,1-.137.209c-.1-.042-.268-.131-.386-.195-.148-.08-.3-.16-.452-.229a10.013,10.013,0,0,0-4.245-.726c-.251,0-.5,0-.753.006l-.537,0a5.9,5.9,0,0,0-3.121,1.163c-.145.09-.29.18-.435.267a2.117,2.117,0,0,0-.81,2.705,1.6,1.6,0,0,0,1.525,1.135,1.884,1.884,0,0,0,.391-.043,17.445,17.445,0,0,0,.286,2.622c.084.527.17,1.072.226,1.6a7.248,7.248,0,0,0,1.362,3.564,2.752,2.752,0,0,0,2.068,1.35,1.938,1.938,0,0,0,1.04-.313,1.818,1.818,0,0,0,.9-1.294,2.6,2.6,0,0,0-.815-2.02A5.871,5.871,0,0,1,84.2,35.029c-.141-.712-.1-.869.672-1.069l.417-.106a8.6,8.6,0,0,0,3.951-1.78c.014.3.031.6.048.9.05.885.1,1.722.085,2.564-.03,2.2.287,3.48,1.059,4.263a2.814,2.814,0,0,0,2.089.792,9.123,9.123,0,0,0,2.918-.63c.06-.021.129-.035.2-.052a1.775,1.775,0,0,0,1.189-.7c.7-1.1,1.635-1.187,3.219-1.246a12.583,12.583,0,0,0,1.739-.147,4.428,4.428,0,0,1,.738-.084,1.272,1.272,0,0,1,.78.241,3.125,3.125,0,0,0,1.782.584,4.366,4.366,0,0,0,2.675-1.167,4.649,4.649,0,0,0,.691-.718,6.348,6.348,0,0,1-.151,1.095,1.983,1.983,0,0,0,1.134,2.531,2.9,2.9,0,0,0,1.1.227,2.317,2.317,0,0,0,1.507-.546,1.976,1.976,0,0,0,.464-2.307l-.024-.076a15.7,15.7,0,0,1-.453-5.07c.01-.6.02-1.192.01-1.786,0-.082-.006-.167-.011-.253,0-.044-.005-.1-.007-.147a2.8,2.8,0,0,1,.939-.169,2.441,2.441,0,0,1,.921.18c.064.026.071.043.075.051a.8.8,0,0,1-.059.506,5.423,5.423,0,0,0,.33,4.422l.091.231a9,9,0,0,1,.427,2.422c.033.37.066.739.113,1.1a2.086,2.086,0,0,0,2.308,1.887l.1,0a2.078,2.078,0,0,0,2.005-1.6,2.454,2.454,0,0,0-.5-2.512c-.067-.092-.136-.186-.2-.285a2.237,2.237,0,0,1-.492-1.843c.169-.427.738-.785,1.6-1.009-.3,2.582.978,3.7,3.116,4.623a3.531,3.531,0,0,0,1.4.248c2.114,0,5.763-1.313,6.67-3.372l.068-.153a5.505,5.505,0,0,0,.645-3.431l-.029-.149a1.982,1.982,0,0,0-1.389-1.814l-.449-.1a22.325,22.325,0,0,0-4.92-.725c-.259,0-.515.009-.768.026a2.315,2.315,0,0,0,.448-.393,2.455,2.455,0,0,0,.416-2.241,1.715,1.715,0,0,0-1.838-1.373Zm-5.39,5.789c.05-1.42.521-1.934,1.91-2.1a9.061,9.061,0,0,1,1.061-.089,1.822,1.822,0,0,1,1.193.351,1.864,1.864,0,0,0,.911.377q-1.193.347-2.388.688-1.344.386-2.687.775ZM102.632,29.8a1.518,1.518,0,0,0,.009-.247q.041.053.087.1a1.518,1.518,0,0,0,.177.162q-.138-.015-.273-.018Zm1.61.391.2,0,.164,0a1.369,1.369,0,0,1,.16.006,6.339,6.339,0,0,0,.769.041c.179,0,.36,0,.542-.01.166,0,.333-.009.5-.009a5.1,5.1,0,0,1,.544.025,14.7,14.7,0,0,0-.407,1.59,6.443,6.443,0,0,1-.773,2.255,1.611,1.611,0,0,1-.588.61c-.03-.074-.061-.165-.086-.235a4.872,4.872,0,0,0-.208-.525,3.354,3.354,0,0,1-.227-1.635l.006-.13a2.1,2.1,0,0,0-.772-1.98c.065,0,.122,0,.17,0Zm-19.922.232h.018l-.019.005v0Zm16.045,4.205a1.432,1.432,0,0,1-1.376-.753,1.764,1.764,0,0,1,.83-1.862,2.173,2.173,0,0,1,.2-.106,2.338,2.338,0,0,0,.4,1.08c.031.049.062.1.089.146a2.195,2.195,0,0,1,.165.6,4.522,4.522,0,0,0,.219.833l-.023.006a2.193,2.193,0,0,1-.5.06ZM125.39,34.2a1.666,1.666,0,0,0,.824-.229,2.244,2.244,0,0,0,.864-1c.025-.048.058-.11.088-.161l.16.019a2.016,2.016,0,0,1,.435.078c.023.044.118.175-.17.739a4.159,4.159,0,0,1-2.993,1.484,1.38,1.38,0,0,1-.992-.711,1.019,1.019,0,0,1,.481-.909,1.693,1.693,0,0,0,1.3.69Z" transform="translate(0)"/>
  </g>
  <g>
    <path class="cls-1" d="M141.126,15.432c-1.283,0-1.895-.855-2.536-2.2a7.031,7.031,0,0,1-3.546.78c-.369,0-.738-.013-1.106-.025s-.712-.024-1.065-.024a8.86,8.86,0,0,0-1.289.08,2.347,2.347,0,0,1-.343.026,1.825,1.825,0,0,1-1.331-.539,2.48,2.48,0,0,1-.636-1.8c.006-.436-.008-.87-.022-1.305a12.688,12.688,0,0,1,.192-3.33,5.523,5.523,0,0,0,.113-3.235A2.1,2.1,0,0,1,130.845.962,4.182,4.182,0,0,1,132.791.5a6.277,6.277,0,0,1,1.927.333,10.61,10.61,0,0,1,3.081,1.66c1.055.779,1.547,1.451,1.595,2.177a3.2,3.2,0,0,1-1.308,2.385c.3.047.61.067.939.089l.061,0,.259-.961c.313-1.172.624-2.329.957-3.478.248-.85.693-1.28,1.325-1.28a1.541,1.541,0,0,1,.488.085c1.185.4.913,1.507.8,1.981-.354,1.453-.7,2.908-1.044,4.363l-.447,1.881c-.056.23-.11.46-.157.692-.193.975-.3,1.756.265,2.2a1.44,1.44,0,0,0,.922.309,3.48,3.48,0,0,0,1.488-.422c.213-.1.438-.193.664-.281.856-.335,1.346-.563,1.448-1.36a2.457,2.457,0,0,1,.063-.3c.047-.181.053-.228.017-.312a6.645,6.645,0,0,1,.61-6.2A6.752,6.752,0,0,1,152.221.894l.158,0a2.629,2.629,0,0,1,2.572,1.278,2.891,2.891,0,0,1-.2,3.206,7.538,7.538,0,0,1-3.372,2.643c-.1.041-.2.077-.307.112a1.376,1.376,0,0,0-.415.185,2.726,2.726,0,0,1-.947.494c-.6.217-.744.307-.729.688a4.436,4.436,0,0,0,2.542,1.889c.213-.014.25-.081.284-.18a1.224,1.224,0,0,1,1.181-.994,2.479,2.479,0,0,1,1.037.309,1.627,1.627,0,0,1,1.082,1.842,1.668,1.668,0,0,1-1.432,1.262l-.155.045a4.671,4.671,0,0,1-1.333.2,4.249,4.249,0,0,1-1.577-.3,3.564,3.564,0,0,0-1.34-.258,6.925,6.925,0,0,0-2.43.565,42.171,42.171,0,0,1-4.143,1.295A6.24,6.24,0,0,1,141.126,15.432Zm-8.749-6.15c-.478,0-.5.058-.531.153a1.287,1.287,0,0,0,.27,1.258,3.481,3.481,0,0,0,2.2.492c1.711,0,3.123-.458,3.449-.882.219-.285.239-.439.229-.474s-.089-.117-.353-.2a8.141,8.141,0,0,0-2.52-.366c-.218,0-.431.006-.636.018l-1.206,0C133.044,9.274,132.377,9.281,132.377,9.281Zm19.594-5.852c-1.536,0-2.676,1.088-3.213,3.024l.16-.076c.807-.377,1.576-.737,2.327-1.133a2.387,2.387,0,0,0,1.226-1.234c.142-.368.115-.48.112-.492h0a.941.941,0,0,0-.4-.082C152.11,3.432,152.04,3.429,151.971,3.429ZM132.793,3.7c-.156.631-.317,1.285-.512,1.928-.089.3-.052.368.245.466a1.42,1.42,0,0,0,.43.052,5.578,5.578,0,0,0,3.393-1.272c0-.291-1.149-1.235-2.73-1.542-.093-.018-.187-.044-.281-.071a1.452,1.452,0,0,0-.363-.072l-.055,0Z" transform="translate(0)"/>
    <path class="cls-2" d="M132.791,1a5.848,5.848,0,0,1,1.774.309A10.259,10.259,0,0,1,137.5,2.9c1.792,1.323,1.848,2.245.229,3.807-.152.146-.405.216-.347.561a2.214,2.214,0,0,0,.591.28c.468.076.946.089,1.487.133.445-1.639.859-3.24,1.321-4.828.132-.455.353-.92.845-.92a1.036,1.036,0,0,1,.328.059c.7.236.611.81.471,1.388-.489,2.007-.961,4.017-1.44,6.026-.074.31-.152.619-.214.931-.191.958-.382,2.039.446,2.689a1.936,1.936,0,0,0,1.231.416,4.016,4.016,0,0,0,1.707-.472c.964-.471,2.206-.6,2.389-2.027.038-.3.193-.528.044-.877a6.376,6.376,0,0,1,5.642-8.67l.145,0a2.194,2.194,0,0,1,2.133,1.014,2.4,2.4,0,0,1-.169,2.68,7.065,7.065,0,0,1-3.155,2.47,2.97,2.97,0,0,0-.867.389c-.6.547-1.883.375-1.839,1.57.03.808,2.162,2.371,3.042,2.371l.046,0a.733.733,0,0,0,.712-.52c.165-.49.415-.653.707-.653a2.046,2.046,0,0,1,.819.259c.534.258.95.605.81,1.291s-.688.764-1.239.929a4.157,4.157,0,0,1-1.191.18,3.743,3.743,0,0,1-1.392-.268,4.064,4.064,0,0,0-1.525-.293,7.454,7.454,0,0,0-2.606.6,42.356,42.356,0,0,1-4.095,1.279,5.909,5.909,0,0,1-1.442.247c-1.028,0-1.515-.642-2.321-2.428a6.181,6.181,0,0,1-3.762,1c-.725,0-1.452-.05-2.172-.05a9.435,9.435,0,0,0-1.361.085,1.875,1.875,0,0,1-.271.02c-.957,0-1.48-.805-1.467-1.834a20.715,20.715,0,0,1,.157-4.528,5.891,5.891,0,0,0,.09-3.536c-.508-1.257.179-1.806,1.053-2.26A3.674,3.674,0,0,1,132.791,1m.165,5.642c1.393,0,3.738-.934,3.881-1.666.138-.711-1.423-1.808-3.123-2.138a3.732,3.732,0,0,0-.74-.152.929.929,0,0,0-.476.131c-.218.848-.425,1.765-.694,2.664a.765.765,0,0,0,.567,1.084,1.909,1.909,0,0,0,.586.078m15.1.693c1.215-.58,2.337-1.077,3.42-1.649a2.9,2.9,0,0,0,1.459-1.5c.28-.729.231-1.192-.726-1.252q-.122-.008-.241-.008c-1.98,0-3.465,1.571-3.911,4.405M134.453,8.778c-.451,0-.833,0-1.187,0-.231,0-.451,0-.67.006h-.217c-.411,0-.839.016-1.005.486a1.793,1.793,0,0,0,.372,1.762,3.825,3.825,0,0,0,2.564.655c1.568,0,3.322-.4,3.846-1.077.45-.584.55-1.159-.365-1.458a8.615,8.615,0,0,0-2.673-.391c-.229,0-.451.007-.666.019M132.791,0h0a4.685,4.685,0,0,0-2.178.518,2.589,2.589,0,0,0-1.521,3.522,5.175,5.175,0,0,1-.137,2.935,13.046,13.046,0,0,0-.205,3.463c.014.426.028.852.022,1.278a2.974,2.974,0,0,0,.779,2.16,2.314,2.314,0,0,0,1.687.687,2.875,2.875,0,0,0,.415-.031,8.371,8.371,0,0,1,1.217-.075c.348,0,.7.012,1.048.024.374.013.749.025,1.124.025a7.86,7.86,0,0,0,3.324-.608c.635,1.2,1.377,2.032,2.759,2.032a6.668,6.668,0,0,0,1.7-.28,42.8,42.8,0,0,0,4.192-1.31,6.5,6.5,0,0,1,2.253-.533,3.068,3.068,0,0,1,1.155.223,4.746,4.746,0,0,0,1.762.339,5.168,5.168,0,0,0,1.476-.221l.149-.043a2.162,2.162,0,0,0,1.784-1.643,2.053,2.053,0,0,0-1.355-2.392,2.9,2.9,0,0,0-1.254-.359A1.684,1.684,0,0,0,151.4,10.86a4.892,4.892,0,0,1-1.908-1.426,3.53,3.53,0,0,1,.385-.155,3.161,3.161,0,0,0,1.113-.594l.24-.082c.116-.039.231-.079.34-.124a8.024,8.024,0,0,0,3.587-2.816,3.4,3.4,0,0,0,.234-3.731A3.125,3.125,0,0,0,152.378.392l-.169,0a7.251,7.251,0,0,0-5.888,3.4,7.148,7.148,0,0,0-.676,6.6l-.015.055a2.963,2.963,0,0,0-.075.365c-.063.488-.285.626-1.135.958-.238.093-.476.187-.7.3a3.056,3.056,0,0,1-1.268.371.942.942,0,0,1-.613-.2c-.309-.243-.271-.765-.083-1.707.046-.233.1-.463.157-.693l.048-.2.363-1.527q.533-2.248,1.076-4.494c.328-1.347-.05-2.213-1.124-2.573a2.036,2.036,0,0,0-.646-.111c-.5,0-1.391.213-1.806,1.641q-.142.489-.28.984A5.325,5.325,0,0,0,138.1,2.091,11.091,11.091,0,0,0,134.871.357,6.772,6.772,0,0,0,132.791,0Zm.009,5.635c.18-.612.33-1.222.476-1.812l.015-.059c.078.021.156.04.232.055a4.857,4.857,0,0,1,2.158.989,6.153,6.153,0,0,1-2.724.834c-.064,0-.116,0-.156-.007Zm16.885-.171a2.55,2.55,0,0,1,2.276-1.534,2.02,2.02,0,0,1-.95.873c-.432.228-.873.445-1.327.662ZM134.453,9.778l.055,0c.2-.011.4-.017.611-.017a7.793,7.793,0,0,1,2.193.289,5.937,5.937,0,0,1-3,.636,3.484,3.484,0,0,1-1.828-.331.829.829,0,0,1-.2-.571h.335c.212,0,.425-.006.648-.006h.518l.669,0Zm3.174.385Z" transform="translate(0)"/>
  </g>
  <g>
    <path class="cls-1" d="M133.077,39.27a1.313,1.313,0,0,1-1.465-1.279l-.042-.812a29.076,29.076,0,0,1,.276-7.651c.3-1.371.922-3.194,2.895-3.194a5.106,5.106,0,0,1,1.41.231,3.787,3.787,0,0,1,2.363,1.907,3.572,3.572,0,0,1,.172,2.861,3.735,3.735,0,0,1-1.869,1.884l-.209.125a4.922,4.922,0,0,0,1.191.387,8.445,8.445,0,0,0,1.545.278.392.392,0,0,0,.226-.04,4.966,4.966,0,0,0,.094-1.785c-.014-.323-.012-.647-.01-.97a7.981,7.981,0,0,0-.156-2.027,1.585,1.585,0,0,1,.233-1.408,1.779,1.779,0,0,1,1.4-.65h0a1.312,1.312,0,0,1,1,.373,2.092,2.092,0,0,1,.427,1.534c-.006.18,0,.4,0,.649a5.707,5.707,0,0,0,.142-.886,1.782,1.782,0,0,1,1.775-1.9h0a1.973,1.973,0,0,1,2.062,1.59c.148.646.3,1.289.483,2.031l.026.11a12.02,12.02,0,0,0,1.2-1.97c.229-.436.454-.866.709-1.273.063-.1.119-.2.175-.3a2.234,2.234,0,0,1,1.348-1.247,3.152,3.152,0,0,1,.888-.146c.53,0,1.442.215,1.6,1.658a47.427,47.427,0,0,1-.251,10.075,2.625,2.625,0,0,1-.226.856,1.522,1.522,0,0,1-1.394.957h0a1.871,1.871,0,0,1-.6-.1,1.255,1.255,0,0,1-.767-.643,1.5,1.5,0,0,1,.006-1.182,11.918,11.918,0,0,0,.554-3.551c.014-.259.058-.942.058-.942a10.873,10.873,0,0,0-.036-2.56,11.3,11.3,0,0,0-1.831,3.74A14.528,14.528,0,0,0,148,36.473a1.629,1.629,0,0,1-1.716,1.564,1.6,1.6,0,0,1-1.661-1.772l-.009-1.523c0-.769,0-1.538-.02-2.307,0-.11,0-.2-.012-.284a7,7,0,0,0-.562,2.131,11.091,11.091,0,0,1-.347,1.648,5.254,5.254,0,0,0-.146,1.524v.229a1.449,1.449,0,0,1-1.159,1.494,2.029,2.029,0,0,1-.562.083,1.469,1.469,0,0,1-1.431-1.008c-.059-.164-.105-.332-.151-.5-.167-.6-.269-.9-.747-1.042a21.918,21.918,0,0,0-4.547-.985h0c-.013,0-.033.1-.036.348,0,.18,0,.361,0,.542a10.465,10.465,0,0,1-.049,1.425c-.07.562-.411,1.23-1.637,1.23Zm2.358-9.885c-.335.056-.5.217-.523.979l-.013.267c-.006.114-.015.275-.014.4,1.024-.05,1.176-.414,1.253-.848a.718.718,0,0,0-.2-.507.741.741,0,0,0-.476-.3Z" transform="translate(0)"/>
    <path class="cls-2" d="M151.366,26.187c.638,0,1.01.37,1.1,1.212a46.7,46.7,0,0,1-.251,9.968,2.142,2.142,0,0,1-.179.692,1.03,1.03,0,0,1-.943.673,1.365,1.365,0,0,1-.437-.078c-.6-.2-.624-.714-.452-1.178a15.6,15.6,0,0,0,.629-4.467,9.827,9.827,0,0,0-.258-3.83A11.014,11.014,0,0,0,148,33.84a15.147,15.147,0,0,0-.495,2.569,1.128,1.128,0,0,1-1.218,1.128h-.054c-.785-.02-1.1-.544-1.108-1.277-.013-1.278,0-2.556-.028-3.834a1.216,1.216,0,0,0-.521-1.167c-1.1,1.324-.905,3.039-1.377,4.519a6.525,6.525,0,0,0-.17,1.9.963.963,0,0,1-.8,1.017,1.527,1.527,0,0,1-.423.064.97.97,0,0,1-.96-.677c-.264-.734-.261-1.558-1.225-1.849a22.153,22.153,0,0,0-4.652-1l-.066,0c-.474,0-.506.446-.51.842a17.031,17.031,0,0,1-.043,1.911c-.083.664-.594.792-1.14.792l-.12,0c-.521-.016-.951-.2-.981-.8a32.178,32.178,0,0,1,.224-8.332c.441-2.027,1.2-2.8,2.406-2.8a4.655,4.655,0,0,1,1.272.212,3.153,3.153,0,0,1,2.2,4.117c-.416,1.153-1.578,1.47-2.492,2.167a4.1,4.1,0,0,0,2.008.9,8.092,8.092,0,0,0,1.613.281c.85,0,.9-.585.82-2.346a14.975,14.975,0,0,0-.181-3.1,1.1,1.1,0,0,1,1.16-1.436h.036c.792,0,.9.726.879,1.391-.033,1.062.167,3.514.167,3.514a19.338,19.338,0,0,0,.976-3.706c.045-.815.426-1.414,1.286-1.432h.046a1.445,1.445,0,0,1,1.519,1.2c.214.924.44,1.844.73,3.053,1.3-1.209,1.793-2.72,2.6-4,.336-.534.508-1.119,1.24-1.335a2.688,2.688,0,0,1,.747-.126m-16.707,5.352c1.365,0,1.83-.473,1.972-1.266a1.348,1.348,0,0,0-1.169-1.391.661.661,0,0,0-.11.009c-.8.136-.918.8-.94,1.456-.018.537-.111,1.183.21,1.192h.037m16.707-6.352a3.637,3.637,0,0,0-1.03.167,2.718,2.718,0,0,0-1.643,1.484c-.052.092-.1.186-.161.278-.27.43-.5.877-.73,1.309-.176.336-.348.664-.533.982-.085-.355-.165-.695-.244-1.036a2.428,2.428,0,0,0-2.493-1.978h-.067a2.157,2.157,0,0,0-1.822.941,1.736,1.736,0,0,0-1.465-.708h-.062a2.276,2.276,0,0,0-1.783.848,1.945,1.945,0,0,0-.357.8l-.015-.03a4.279,4.279,0,0,0-2.669-2.16,5.6,5.6,0,0,0-1.55-.251c-2.6,0-3.191,2.7-3.384,3.588a29.5,29.5,0,0,0-.286,7.788l.041.806a1.813,1.813,0,0,0,1.949,1.754l.151,0a1.884,1.884,0,0,0,2.132-1.668,10.862,10.862,0,0,0,.053-1.491c0-.113,0-.225,0-.338a23.5,23.5,0,0,1,3.94.916c.2.06.242.091.41.7.049.178.1.358.163.533a1.975,1.975,0,0,0,1.9,1.339,2.526,2.526,0,0,0,.7-.1,1.949,1.949,0,0,0,1.52-1.97v-.231a5.514,5.514,0,0,1,.095-1.278v.093a2.091,2.091,0,0,0,2.082,2.266h.08a2.113,2.113,0,0,0,2.21-2,14.219,14.219,0,0,1,.458-2.4,13.168,13.168,0,0,1,.945-2.353c-.009.332-.032.661-.055,1l-.011.16c-.018.26-.032.521-.047.781a11.552,11.552,0,0,1-.522,3.406,1.988,1.988,0,0,0,.011,1.571,1.74,1.74,0,0,0,1.057.9,2.364,2.364,0,0,0,.758.131,2.023,2.023,0,0,0,1.844-1.24,3.114,3.114,0,0,0,.272-1.02,47.835,47.835,0,0,0,.251-10.181,2.08,2.08,0,0,0-2.095-2.1Zm-15.957,5.261,0-.068a1.864,1.864,0,0,1,.056-.468.576.576,0,0,1,.172.224.353.353,0,0,1-.231.311Zm2.361,2.759a3.51,3.51,0,0,0,1.383-1.7c0,.231,0,.462.012.693.013.305.041.932.012,1.292a11.632,11.632,0,0,1-1.217-.244l-.049-.012-.141-.033Z" transform="translate(0)"/>
  </g>
  <g>
    <path class="cls-1" d="M110.894,4.416a.424.424,0,0,1-.285-.1l-.108-.107a.5.5,0,0,1,.354-.853.487.487,0,0,1,.06,0,.616.616,0,0,1,.422.239.531.531,0,0,1,.1.438.575.575,0,0,1-.358.351A.751.751,0,0,1,110.894,4.416Z" transform="translate(0)"/>
    <path class="cls-2" d="M110.855,3.862c.037,0,.073.005.11.009-.009.027-.018.046-.027.074l-.083-.083m.01-1a1,1,0,0,0-.716,1.707l.1.1a1,1,0,0,0,1.64-.4l.024-.066a1,1,0,0,0-.84-1.324l-.089-.007a1.007,1.007,0,0,0-.115-.007Z" transform="translate(0)"/>
  </g>
  <g>
    <path class="cls-1" d="M118.712,14.711a1.31,1.31,0,0,1-1.233-.806c-.208-.5-1.2-7.285-1.586-9.918a13.814,13.814,0,0,0-1.4-.084,2.8,2.8,0,0,0-1.1.136,3.955,3.955,0,0,1-1.741.372h0a7.058,7.058,0,0,1-.74-.043.5.5,0,0,1-.42-.661c.7-2.012,1.228-2.265,3.2-2.474A11.4,11.4,0,0,1,114.9,1.17a14.945,14.945,0,0,1,3.663.5,14.171,14.171,0,0,0,3.459.39c.585,0,1.189-.026,1.849-.081.271-.022.521-.033.755-.033a2.882,2.882,0,0,1,2.311.791c.548.621.706,1.584.513,3.124-.03.241-.069.485-.108.731-.227,1.417-.422,2.642.871,3.61a.989.989,0,0,1,.4.781,1.732,1.732,0,0,1-.639,1.263,1.8,1.8,0,0,1-1.165.426,2.362,2.362,0,0,1-1.191-.354,1.765,1.765,0,0,1-.762-1.252c-.015-.06-.028-.119-.044-.176l-.246.162a10.907,10.907,0,0,1-1.758,1.006,3.6,3.6,0,0,1-1.376.315,1.78,1.78,0,0,1-1.387-.586,1.756,1.756,0,0,1-.128-.164c.153,1.118.212,1.574.214,1.709a1.305,1.305,0,0,1-1.087,1.343A1.546,1.546,0,0,1,118.712,14.711Zm.215-10.574c.167,1.464.436,3.45.675,5.187a13.743,13.743,0,0,1,1.933-4.792,8.87,8.87,0,0,0-1.654-.279C119.568,4.221,119.251,4.188,118.927,4.137ZM124.2,5.6c-.191.343-.417.669-.635.985a4.244,4.244,0,0,0-1.044,2.478,3.894,3.894,0,0,0,1.5-2.691c.067-.262.135-.524.211-.779Z" transform="translate(0)"/>
    <path class="cls-2" d="M114.9,1.67a14.54,14.54,0,0,1,3.542.486,14.786,14.786,0,0,0,3.582.4c.628,0,1.258-.03,1.887-.082.256-.021.494-.032.715-.032,2.081,0,2.627.963,2.326,3.352-.207,1.645-.832,3.463.959,4.8.43.322.1.965-.256,1.26a1.291,1.291,0,0,1-.845.31,1.857,1.857,0,0,1-.936-.284c-.607-.36-.425-1.138-.833-1.735a19.376,19.376,0,0,1-2.425,1.443,3.118,3.118,0,0,1-1.183.276c-1.035,0-1.558-.827-1.364-2.285a13.969,13.969,0,0,1,2.2-5.311c-1.294-.59-2.569-.424-3.914-.763.307,2.983,1.271,9.43,1.276,9.826a.815.815,0,0,1-.694.847,1.055,1.055,0,0,1-.226.025.8.8,0,0,1-.772-.5c-.212-.511-1.607-10.176-1.607-10.176a15.263,15.263,0,0,0-1.842-.133,3.434,3.434,0,0,0-1.313.185,3.446,3.446,0,0,1-1.527.323,6.594,6.594,0,0,1-.687-.04c.617-1.784.948-1.946,2.777-2.14A10.967,10.967,0,0,1,114.9,1.67M122.113,9.8c2.076-.74,2.137-2.608,2.636-4.189a.407.407,0,0,0-.318-.53.743.743,0,0,0-.083,0c-.2,0-.475.069-.541.192-.748,1.391-2.169,2.542-1.695,4.532M114.9.67a12.041,12.041,0,0,0-1.263.066c-2.161.229-2.854.6-3.617,2.808a1,1,0,0,0,.841,1.322,7.57,7.57,0,0,0,.792.046,4.446,4.446,0,0,0,1.957-.421,2.627,2.627,0,0,1,.882-.087c.331,0,.673.02.964.044.871,6,1.4,9.249,1.562,9.649a1.8,1.8,0,0,0,1.7,1.115,2.058,2.058,0,0,0,.44-.048,1.806,1.806,0,0,0,1.479-1.838c0-.089-.017-.252-.061-.6a2.548,2.548,0,0,0,.862.143A4.1,4.1,0,0,0,123,12.518a9.617,9.617,0,0,0,1.511-.835,1.945,1.945,0,0,0,.85,1.064,2.857,2.857,0,0,0,1.447.425,2.294,2.294,0,0,0,1.485-.542,2.228,2.228,0,0,0,.818-1.66,1.481,1.481,0,0,0-.6-1.168c-1-.751-.916-1.634-.677-3.131.04-.252.08-.5.111-.748a4.456,4.456,0,0,0-.634-3.516,3.376,3.376,0,0,0-2.685-.96c-.246,0-.511.012-.8.035-.644.053-1.235.079-1.805.079a13.7,13.7,0,0,1-3.34-.375A15.411,15.411,0,0,0,114.9.67Zm4.877,6.22c-.1-.76-.2-1.5-.278-2.174l.329.035c.33.035.64.067.937.117a17.818,17.818,0,0,0-.989,2.022Zm4.913-1.146h0Z" transform="translate(0)"/>
  </g>
  <g>
    <path class="cls-1" d="M30.391,66.413a1.882,1.882,0,0,1-1.358-.429,1.27,1.27,0,0,1-.349-.941c0-.459.184-1.527,1.759-1.527a5.859,5.859,0,0,1,.839.071,20.6,20.6,0,0,0,3.045.208c1.663,0,3.361-.157,5-.31,1.014-.094,2.026-.187,3.041-.248,1.877-.111,3.752-.259,5.627-.407,2.759-.217,5.612-.442,8.435-.542,2.784-.1,5.617-.327,8.355-.546,1.977-.159,3.952-.318,5.931-.432,1.06-.062,2.118-.152,3.177-.243,1.859-.159,3.782-.323,5.692-.323.839,0,1.612.03,2.366.094.169.014.339.02.51.02a13.483,13.483,0,0,0,1.985-.191,3.288,3.288,0,0,1,.487-.039,1.878,1.878,0,0,1,1.895,1.634.5.5,0,0,1-.434.631c-.317.031-.627.072-.931.111a13.559,13.559,0,0,1-1.779.155l-.192,0q-.986-.029-1.97-.028c-3.477,0-7.01.253-10.426.5-2.328.167-4.735.339-7.11.431-3.765.145-7.59.514-11.289.871-2.3.222-4.679.451-7.023.625-3.916.291-7.9.491-11.757.685l-2.973.152C30.77,66.4,30.579,66.413,30.391,66.413Z" transform="translate(0)"/>
    <path class="cls-2" d="M84.935,61.13c.7,0,1.159.35,1.412,1.267-.935.091-1.8.264-2.66.264l-.179,0q-.992-.029-1.981-.028c-5.867,0-11.7.7-17.559.929-6.12.236-12.216,1.043-18.331,1.5-4.845.36-9.7.576-14.552.826-.212.011-.455.03-.7.03-.617,0-1.214-.129-1.207-.865.007-.819.581-1.031,1.259-1.031a5.321,5.321,0,0,1,.765.066,21.228,21.228,0,0,0,3.118.213c2.7,0,5.381-.4,8.074-.558,4.685-.278,9.352-.782,14.05-.948,4.771-.169,9.529-.7,14.3-.979,2.946-.171,5.882-.565,8.838-.565.774,0,1.549.027,2.326.092.182.015.366.022.55.022a13.919,13.919,0,0,0,2.061-.2,2.772,2.772,0,0,1,.413-.034m0-1a3.737,3.737,0,0,0-.562.045,13.044,13.044,0,0,1-1.911.186c-.156,0-.312-.006-.467-.019-.768-.064-1.556-.1-2.41-.1-1.93,0-3.862.165-5.731.325-1.039.089-2.114.181-3.165.242-1.983.115-3.992.276-5.934.432-2.736.22-5.565.447-8.341.545-2.834.1-5.694.326-8.459.543-1.841.145-3.744.295-5.615.406-1.026.061-2.06.156-3.059.249-1.63.151-3.316.307-4.955.307a20.147,20.147,0,0,1-2.972-.2,6.178,6.178,0,0,0-.912-.077,2,2,0,0,0-2.259,2.023,1.761,1.761,0,0,0,.494,1.3,2.335,2.335,0,0,0,1.713.576c.2,0,.4-.011.585-.023l.162-.009,2.8-.142c3.86-.194,7.851-.394,11.775-.686,2.35-.174,4.73-.4,7.033-.626,3.693-.356,7.512-.725,11.263-.869,2.385-.092,4.8-.265,7.131-.432,3.407-.244,6.931-.5,10.39-.5q.975,0,1.951.028c.069,0,.139,0,.208,0a14.19,14.19,0,0,0,1.846-.16c.3-.039.6-.079.912-.109a1,1,0,0,0,.867-1.261,2.36,2.36,0,0,0-2.376-2Z" transform="translate(0)"/>
  </g>
  <g>
    <path class="cls-1" d="M74.925,17.156a1.561,1.561,0,0,1-1.555-1.5c-.067-.482-.144-.964-.22-1.446A18.639,18.639,0,0,1,73,6.723,5.07,5.07,0,0,1,73.474,5.5a1.246,1.246,0,0,1,1.135-.679,1.712,1.712,0,0,1,.467.068,1.224,1.224,0,0,1,.865,1.5c-.049.312-.121.619-.193.927s-.147.622-.191.937a13.968,13.968,0,0,0-.146,2.036c.05-.155.1-.308.146-.461A12.043,12.043,0,0,1,76.57,7.287c.082-.141.153-.292.225-.441a4.1,4.1,0,0,1,.51-.874,1.99,1.99,0,0,1,1.5-.787,1.572,1.572,0,0,1,.521.089,1.461,1.461,0,0,1,.835,1.512l.01.162c.061.877.134,1.8.254,2.74l0-.009a26.78,26.78,0,0,1,1.262-2.607c.064-.111.124-.227.184-.343a3.78,3.78,0,0,1,.639-.973,2.133,2.133,0,0,1,1.494-.726,1.883,1.883,0,0,1,1.709,1.475,8.964,8.964,0,0,1,.37,2.715,10.9,10.9,0,0,0,.159,1.842,6.028,6.028,0,0,1,.092.986,2.193,2.193,0,0,0,.4,1.5,1.6,1.6,0,0,1,.559,1.235,1.247,1.247,0,0,1-.628.879,1.7,1.7,0,0,1-.937.3,1.719,1.719,0,0,1-1.426-.834,5.114,5.114,0,0,1-.669-2.525c-.07-.941-.194-1.9-.337-3.006l-.021-.16a16.411,16.411,0,0,0-.911,2.7c-.088.322-.174.639-.269.953a2.564,2.564,0,0,0-.072.416,2.25,2.25,0,0,1-.351,1.1,2.178,2.178,0,0,1-1.739,1.215,1.785,1.785,0,0,1-.234-.016c-.889-.119-1.4-.723-1.5-1.8-.1-.99-.252-1.978-.412-3.023l-.026-.173a5.1,5.1,0,0,0-.261,1.454c-.018.2-.034.394-.058.583a15.839,15.839,0,0,1-.52,2.293c-.071.256-.143.511-.209.768a1.735,1.735,0,0,1-1.735,1.261Z" transform="translate(0)"/>
    <path class="cls-2" d="M74.608,5.32a1.2,1.2,0,0,1,.329.049.738.738,0,0,1,.509.941c-.1.629-.3,1.243-.386,1.873a13.89,13.89,0,0,0,.033,4.3c.894-1.827,1.075-3.515,1.908-4.94a9.279,9.279,0,0,1,.69-1.25,1.505,1.505,0,0,1,1.115-.6,1.071,1.071,0,0,1,.356.061c.515.18.478.749.511,1.236a37.191,37.191,0,0,0,.517,4.431c.673-1.391,1.188-2.8,1.935-4.092a5.792,5.792,0,0,1,.744-1.215,1.653,1.653,0,0,1,1.139-.577c.521,0,.977.389,1.237,1.138.5,1.452.211,3.011.512,4.493.186.914-.1,1.959.613,2.723.462.5.674.932.024,1.357a1.207,1.207,0,0,1-.663.214,1.23,1.23,0,0,1-1.008-.61,4.7,4.7,0,0,1-.587-2.288c-.106-1.394-.318-2.78-.553-4.721a17.084,17.084,0,0,0-1.962,5.1c-.134.445-.054.946-.352,1.367-.347.49-.7,1-1.331,1a1.27,1.27,0,0,1-.168-.011c-.743-.1-1-.617-1.074-1.352-.145-1.42-.391-2.829-.617-4.392-1.1.88-1,2.164-1.133,3.219a23.8,23.8,0,0,1-.717,3,1.23,1.23,0,0,1-1.251.886h-.04a1.075,1.075,0,0,1-1.071-1.074c-.408-2.9-1.1-5.792-.375-8.74a4.647,4.647,0,0,1,.422-1.1.754.754,0,0,1,.7-.418m0-1a1.749,1.749,0,0,0-1.574.94A5.6,5.6,0,0,0,72.519,6.6a19.009,19.009,0,0,0,.138,7.679c.075.48.151.959.218,1.439a2.068,2.068,0,0,0,2.037,1.934h.065A2.226,2.226,0,0,0,77.2,16.021c.066-.254.137-.507.208-.76.1-.373.211-.753.3-1.145a2.173,2.173,0,0,0,1.929,2.171,2.27,2.27,0,0,0,.3.02,2.612,2.612,0,0,0,2.125-1.394,2.733,2.733,0,0,0,.462-1.356,2.326,2.326,0,0,1,.055-.332c.1-.318.183-.639.271-.966.062-.226.123-.454.189-.684.039.361.073.711.1,1.059a5.533,5.533,0,0,0,.749,2.762,2.132,2.132,0,0,0,3.054.682,1.724,1.724,0,0,0,.851-1.237,2.064,2.064,0,0,0-.689-1.636c-.219-.236-.242-.583-.264-1.175a6.529,6.529,0,0,0-.1-1.067A10.64,10.64,0,0,1,86.587,9.2a9.34,9.34,0,0,0-.4-2.863,2.379,2.379,0,0,0-2.181-1.81,2.583,2.583,0,0,0-1.852.876A4.266,4.266,0,0,0,81.431,6.5c-.056.109-.112.219-.173.323-.186.323-.358.652-.521.983q-.036-.452-.066-.892l-.009-.153A1.925,1.925,0,0,0,79.493,4.8a2.072,2.072,0,0,0-.687-.117,2.484,2.484,0,0,0-1.888.97,3.9,3.9,0,0,0-.479.776,1.723,1.723,0,0,0-1.228-2.023,2.2,2.2,0,0,0-.6-.088Z" transform="translate(0)"/>
  </g>
  <g>
    <path class="cls-1" d="M90.323,17.349a1.661,1.661,0,0,1-1.5-1.151,8.156,8.156,0,0,1-.537-3.244c.006-1.262-.1-1.895-1.071-2.244a1.153,1.153,0,0,1-.792-1.042,1.041,1.041,0,0,1,.672-.991c.973-.408,1.068-1.082,1.155-2.238.012-.167.024-.335.042-.5.01-.1.015-.212.019-.32A2.6,2.6,0,0,1,88.5,4.6a1.369,1.369,0,0,1,1.3-.8,2.185,2.185,0,0,1,.5.061,1.169,1.169,0,0,1,.77.527,1.271,1.271,0,0,1,.1,1,10.339,10.339,0,0,0-.315,2.5,8.181,8.181,0,0,0,4.539-1.714,6.945,6.945,0,0,1,4.36-1.93q.173-.009.34-.009a3.434,3.434,0,0,1,3.7,3.157,5.189,5.189,0,0,1-1.422,4.618,8.458,8.458,0,0,1-6.215,2.442h0a3.264,3.264,0,0,1-3.539-3.473,3.144,3.144,0,0,1,.042-.513c.016-.115.027-.207.031-.284a2.668,2.668,0,0,0-1.8,1.341c-.329.764-.118,1.805.626,3.1.051.088.108.17.165.25a1.259,1.259,0,0,1,.026,1.757A1.876,1.876,0,0,1,90.323,17.349Zm9.829-10.687c-.346,0-.761.11-1.224.926a3.232,3.232,0,0,1-2.781,1.9c-.59.024-.612,1.256-.613,1.4,0,.462.2.71.757.947a2.249,2.249,0,0,0,.879.165,4.832,4.832,0,0,0,3.211-1.494,3,3,0,0,0,.978-1.979,5.006,5.006,0,0,1-.1-.69c-.064-.7-.127-.958-.586-1.086A1.959,1.959,0,0,0,100.152,6.661Z" transform="translate(0)"/>
    <path class="cls-2" d="M89.794,4.306a1.678,1.678,0,0,1,.382.047.662.662,0,0,1,.505.909,12.159,12.159,0,0,0-.338,3.2c2.035-.287,3.857-.56,5.378-1.919a6.5,6.5,0,0,1,4.053-1.8c.107-.006.212-.008.314-.008a2.926,2.926,0,0,1,3.207,2.74,4.681,4.681,0,0,1-1.289,4.189,8.037,8.037,0,0,1-5.863,2.288h-.071a2.757,2.757,0,0,1-2.961-2.987c-.012-.463.231-.95-.1-1.39-2.828.679-3.523,2.523-1.927,5.294.284.493.764.835.248,1.43a1.38,1.38,0,0,1-1.006.551A1.179,1.179,0,0,1,89.287,16a7.6,7.6,0,0,1-.5-3.046c.005-1.144-.038-2.227-1.4-2.717a.578.578,0,0,1-.1-1.1c1.5-.63,1.376-1.925,1.5-3.15a3.775,3.775,0,0,1,.158-1.173.865.865,0,0,1,.844-.508m7.376,8.185c2.127,0,4.726-2.028,4.688-4.035-.215-.8.082-1.876-1.047-2.195a2.436,2.436,0,0,0-.66-.1A1.889,1.889,0,0,0,98.494,7.34a2.751,2.751,0,0,1-2.366,1.643c-.825.034-1.09,1.028-1.093,1.894a1.435,1.435,0,0,0,1.063,1.41,2.741,2.741,0,0,0,1.073.2M89.794,3.306h0a1.851,1.851,0,0,0-1.751,1.087,3.049,3.049,0,0,0-.228,1.2c0,.1-.007.2-.017.29-.017.171-.03.342-.043.514-.084,1.138-.169,1.529-.849,1.815a1.532,1.532,0,0,0-.979,1.465,1.65,1.65,0,0,0,1.122,1.5c.621.223.746.521.74,1.772a8.628,8.628,0,0,0,.577,3.441,2.163,2.163,0,0,0,1.956,1.456,2.364,2.364,0,0,0,1.762-.9,1.76,1.76,0,0,0,0-2.373c-.048-.068-.1-.137-.141-.212a3.383,3.383,0,0,1-.6-2.648,1.673,1.673,0,0,1,.764-.758v.029a3.74,3.74,0,0,0,3.96,3.961h.086a8.939,8.939,0,0,0,6.568-2.595,5.671,5.671,0,0,0,1.555-5.048,3.93,3.93,0,0,0-4.193-3.574q-.179,0-.366.01A7.428,7.428,0,0,0,95.055,5.8a6.888,6.888,0,0,1-3.68,1.5,8.871,8.871,0,0,1,.272-1.779,1.776,1.776,0,0,0-.158-1.382,1.657,1.657,0,0,0-1.085-.758,2.679,2.679,0,0,0-.611-.074ZM96.211,9.98a3.738,3.738,0,0,0,3.153-2.147c.381-.672.646-.672.788-.672a1.466,1.466,0,0,1,.388.063.338.338,0,0,1,.119.05,2.092,2.092,0,0,1,.1.6,5.714,5.714,0,0,0,.094.694,2.617,2.617,0,0,1-.833,1.58,4.374,4.374,0,0,1-2.853,1.344,1.75,1.75,0,0,1-.684-.125c-.454-.192-.453-.3-.453-.486a1.857,1.857,0,0,1,.177-.9Z" transform="translate(0)"/>
  </g>
  <g>
    <path class="cls-1" d="M6.934,24.3A1.524,1.524,0,0,1,5.8,23.653c-1.443-1.721-1.713-7.1-1.608-7.873.049-.361.034-.417-.508-.7-.591-.3-1.224-.678-1.24-1.272s.557-.97,1.095-1.288.56-.337.488-.7a15.772,15.772,0,0,1-.219-2C3.8,9.714,3.79,9.606,3.782,9.5a2.284,2.284,0,0,0-.482.272,1.96,1.96,0,0,1-1.121.435h0C1.215,10.149.692,9.773.536,9.088A1.246,1.246,0,0,1,1.425,7.6c.552-.2,3.682-.882,8.042-1.821,2.252-.484,4.379-.942,4.7-1.039a2.572,2.572,0,0,1,.74-.15,1.02,1.02,0,0,1,1.023.9,1.559,1.559,0,0,1-.788,1.76,25.506,25.506,0,0,1-3.9.767c-1.5.262-3.12.543-4.148.752a1.126,1.126,0,0,0-.736.352.947.947,0,0,0-.006.7,9.5,9.5,0,0,1,.274,1.477c.061.635.284.635.464.635a1.583,1.583,0,0,0,.36-.049l1.2-.291c2.076-.5,3.823-.924,4.18-.972.089-.012.186-.033.283-.053a3.261,3.261,0,0,1,.665-.091,1.116,1.116,0,0,1,1.153,1.036c.149.905-1.094,1.426-5.781,2.425l-.656.142c-1.623.359-1.623.359-1.413,1.959.146,1.124.539,3.144.825,4.618A21.605,21.605,0,0,1,8.3,22.847a1.369,1.369,0,0,1-.966,1.386A1.335,1.335,0,0,1,6.934,24.3Z" transform="translate(0)"/>
    <path class="cls-2" d="M14.91,5.086c.24,0,.446.114.535.511A1.068,1.068,0,0,1,14.9,6.813c-.258.148-5.574.992-7.9,1.462-1,.2-1.383.671-1.127,1.667a9.2,9.2,0,0,1,.261,1.4c.071.737.382,1.088.962,1.088a2.066,2.066,0,0,0,.476-.063c1.315-.315,4.867-1.191,5.333-1.254a7.026,7.026,0,0,1,.883-.14c.316,0,.579.128.66.618.127.77-4.424,1.637-6.053,2-2,.442-2.058.542-1.8,2.512s1.213,6.424,1.21,6.742a.871.871,0,0,1-.617.914.834.834,0,0,1-.253.042,1.02,1.02,0,0,1-.755-.466c-1.311-1.565-1.589-6.789-1.5-7.484s-.172-.9-.775-1.208c-1.267-.651-1.277-1-.12-1.685.555-.327.866-.51.725-1.229a26.759,26.759,0,0,1-.271-2.759,1.391,1.391,0,0,0-.2-.014c-.811,0-1.194.753-1.868.753l-.057,0c-.515-.032-.97-.172-1.1-.728A.759.759,0,0,1,1.6,8.065c.952-.35,11.88-2.6,12.716-2.85a2.233,2.233,0,0,1,.6-.129m0-1a2.788,2.788,0,0,0-.824.153l-.059.018c-.305.091-2.519.567-4.659,1.028-4.523.973-7.531,1.627-8.115,1.841A1.737,1.737,0,0,0,.049,9.2a1.933,1.933,0,0,0,2.01,1.5c.04,0,.08,0,.12,0a2.169,2.169,0,0,0,1.16-.363,13.207,13.207,0,0,0,.193,1.575l0,.021c-.073.048-.174.107-.255.155-.478.282-1.368.806-1.341,1.733s.993,1.436,1.512,1.7c.122.063.2.106.246.136l-.006.048c-.081.6.092,6.318,1.72,8.261a2,2,0,0,0,1.522.824,1.837,1.837,0,0,0,.556-.089A1.867,1.867,0,0,0,8.8,22.852a17.593,17.593,0,0,0-.4-2.292c-.285-1.469-.676-3.48-.821-4.589a8.454,8.454,0,0,1-.1-1.107,8.539,8.539,0,0,1,1.125-.3c.184-.041.406-.088.655-.141,4.475-.954,6.411-1.525,6.168-3a1.616,1.616,0,0,0-1.646-1.455,3.725,3.725,0,0,0-.768.1c-.086.018-.17.037-.249.047-.349.047-1.646.355-4.24.984l-1.193.288a1.361,1.361,0,0,1-.182.032,1.341,1.341,0,0,1-.028-.18A10.042,10.042,0,0,0,6.84,9.694,1.08,1.08,0,0,1,6.8,9.386a1.33,1.33,0,0,1,.4-.13c1.018-.206,2.6-.482,4.135-.749,3.65-.636,3.813-.683,4.062-.826a2.063,2.063,0,0,0,1.026-2.3A1.512,1.512,0,0,0,14.91,4.086Z" transform="translate(0)"/>
  </g>
  <g>
    <path class="cls-1" d="M105.791,15.021a1.5,1.5,0,0,1-.62-.121c-.823-.371-.891-1.4-.919-1.842a37.991,37.991,0,0,0-.584-4.627c-.105-.559-.234-1.112-.362-1.666l-.133-.576a1.96,1.96,0,0,1-.03-.823A2.139,2.139,0,0,1,103.9,4.2a5.257,5.257,0,0,1,3.2-1.586l.143,0a6.952,6.952,0,0,1,1.7.267,11.22,11.22,0,0,1,1.519.476c1.383.571,3.619,2.048,3.228,3.964a2.49,2.49,0,0,1-1.522,1.729,2.313,2.313,0,0,1-.259.091,11.964,11.964,0,0,1,2.514,1.25,1.2,1.2,0,0,1,.285,1.271,1.243,1.243,0,0,1-1.288.723h0a3.085,3.085,0,0,1-.585-.06,24.508,24.508,0,0,1-3.115-1.083c-.784-.305-1.794-.7-2.359-.864.045.662.152,1.827.242,2.57a1.922,1.922,0,0,1-.241,1.354,1.809,1.809,0,0,1-1.41.72C105.9,15.019,105.846,15.021,105.791,15.021Zm.719-8.346a19.422,19.422,0,0,0,2.3.162c1.616,0,1.9-.329,1.93-.366.073-.1.06-.136.053-.153-.13-.334-1.208-.863-3.018-1.229a.968.968,0,0,0-.237-.036C106.944,5.053,106.636,6.025,106.51,6.675Z" transform="translate(0)"/>
    <path class="cls-2" d="M107.245,3.109a6.483,6.483,0,0,1,1.579.252,10.634,10.634,0,0,1,1.451.453c1.227.506,3.247,1.839,2.928,3.4a2.017,2.017,0,0,1-1.229,1.369,7.208,7.208,0,0,1-1.878.291s3.783,1.665,3.969,1.857a.713.713,0,0,1,.183.735.81.81,0,0,1-.826.411,2.579,2.579,0,0,1-.488-.051c-1.287-.252-5.134-2.013-5.922-2.036h-.027a.24.24,0,0,0-.133.03A31.808,31.808,0,0,0,107.11,13a1.488,1.488,0,0,1-.161,1.014,1.325,1.325,0,0,1-1.029.5c-.043,0-.086,0-.129,0a1.009,1.009,0,0,1-.416-.077c-.5-.223-.589-.874-.624-1.417a38.366,38.366,0,0,0-.592-4.688c-.144-.759-.328-1.507-.5-2.26a1.479,1.479,0,0,1-.026-.617,1.625,1.625,0,0,1,.6-.89,4.775,4.775,0,0,1,2.888-1.461l.123,0m1.566,4.228c1.026,0,2.011-.128,2.334-.572.9-1.229-2.353-1.981-3.271-2.167a1.339,1.339,0,0,0-.336-.045c-1.4,0-1.6,2.548-1.6,2.548a20.98,20.98,0,0,0,2.868.236m-1.566-5.228-.16,0a5.709,5.709,0,0,0-3.515,1.712,2.6,2.6,0,0,0-.919,1.447,2.454,2.454,0,0,0,.032,1.029l.127.55c.134.575.26,1.119.365,1.674a37.517,37.517,0,0,1,.577,4.566,2.479,2.479,0,0,0,1.212,2.266,1.975,1.975,0,0,0,.825.165c.066,0,.132,0,.2-.007a2.3,2.3,0,0,0,1.79-.939,2.4,2.4,0,0,0,.324-1.694c-.062-.511-.131-1.2-.181-1.8.515.187,1.136.428,1.622.617a24.551,24.551,0,0,0,3.2,1.107,3.554,3.554,0,0,0,.68.069,1.735,1.735,0,0,0,1.753-1.035,1.7,1.7,0,0,0-.39-1.806c-.108-.112-.226-.234-1.725-.929a2.835,2.835,0,0,0,1.123-1.694c.456-2.236-2-3.9-3.527-4.525a11.624,11.624,0,0,0-1.587-.5,7.353,7.353,0,0,0-1.824-.283Zm-.115,4.133c.134-.406.3-.689.408-.689a.351.351,0,0,1,.086.013l.052.012a9.993,9.993,0,0,1,2.234.683,6.7,6.7,0,0,1-1.1.075c-.584,0-1.19-.045-1.681-.095Z" transform="translate(0)"/>
  </g>
  <g>
    <path class="cls-1" d="M35.316,20.484a3.439,3.439,0,0,1-1.276-.328,2.841,2.841,0,0,0-.989-.273.977.977,0,0,0-.158.013c-.026,0-.178.015-.178.015-1.086,0-1.364-1.519-1.47-2.09s-.229-1.156-.353-1.733a23.238,23.238,0,0,1-.674-4.716,2.58,2.58,0,0,0-.476-1.506,2.375,2.375,0,0,1-.483-2.3A2.283,2.283,0,0,1,31.23,6.38a2.924,2.924,0,0,1,.437-.027l.342.006c.157,0,.34.009.561.009a.5.5,0,0,1,.148.022,21.892,21.892,0,0,0,2.584.568,15.35,15.35,0,0,1,5,1.513,4.669,4.669,0,0,1,2.506,2.68,4.915,4.915,0,0,1-.827,3.747,13.141,13.141,0,0,1-3.939,3.934c-.528.393-1.057.786-1.559,1.209A1.778,1.778,0,0,1,35.316,20.484ZM33.227,9.028a.56.56,0,0,0-.334.062c-.053.057-.135.274-.084,1.1a21.745,21.745,0,0,0,1.367,7.35l.165-.091c1.378-.758,4.6-2.534,5.563-3.972.741-1.113.542-1.919-.688-2.783a10.956,10.956,0,0,0-4.859-1.527l-.348-.054A5.336,5.336,0,0,0,33.227,9.028Z" transform="translate(0)"/>
    <path class="cls-2" d="M31.668,6.852c.228,0,.5.016.9.016,2.284.708,5.086.686,7.488,2.038,2.645,1.489,2.965,3.144,1.49,5.745-1.282,2.259-3.512,3.429-5.386,5.006a1.267,1.267,0,0,1-.844.326c-.737,0-1.471-.6-2.266-.6a1.484,1.484,0,0,0-.239.019.6.6,0,0,1-.1.008c-.615,0-.854-1.007-.977-1.68a36.713,36.713,0,0,1-1.018-6.362,3.071,3.071,0,0,0-.563-1.785c-1-1.46-.568-2.457,1.146-2.709a2.484,2.484,0,0,1,.365-.022m2.276,11.391c.441-.305,5.115-2.6,6.376-4.495.929-1.394.571-2.495-.817-3.47a12.253,12.253,0,0,0-5.419-1.666,5.858,5.858,0,0,0-.859-.085c-.828,0-.995.407-.916,1.688a21.1,21.1,0,0,0,1.635,8.028M31.668,5.852a3.418,3.418,0,0,0-.511.033A2.745,2.745,0,0,0,28.8,7.364a2.8,2.8,0,0,0,.529,2.783,2.082,2.082,0,0,1,.389,1.227A23.632,23.632,0,0,0,30.4,16.2c.122.57.245,1.141.349,1.714.113.618.458,2.5,1.961,2.5a1.6,1.6,0,0,0,.258-.021.484.484,0,0,1,.078-.006,2.563,2.563,0,0,1,.8.237,3.878,3.878,0,0,0,1.462.364,2.263,2.263,0,0,0,1.488-.56c.487-.41,1-.789,1.536-1.19a13.543,13.543,0,0,0,4.076-4.088,5.367,5.367,0,0,0,.875-4.128,5.194,5.194,0,0,0-2.743-2.983A15.969,15.969,0,0,0,35.39,6.466a21.569,21.569,0,0,1-2.525-.553,1,1,0,0,0-.3-.045c-.215,0-.392,0-.546-.009-.132,0-.249-.007-.355-.007Zm1.656,3.48h0Zm1.107,7.49a22.753,22.753,0,0,1-1.123-6.668A5.505,5.505,0,0,1,33.3,9.53a5.78,5.78,0,0,1,.635.072l.349.054A10.6,10.6,0,0,1,38.929,11.1c1.127.792,1.073,1.327.559,2.1-.82,1.229-3.651,2.85-5.057,3.628Z" transform="translate(0)"/>
  </g>
  <g>
    <path class="cls-1" d="M14.674,44.927a1.475,1.475,0,0,1-1.46-1.33,5.808,5.808,0,0,0-.5-1.619,5.954,5.954,0,0,1-.571-2.031,13.144,13.144,0,0,0-.41-1.619c-.481-1.681-1.081-3.772-.818-4.864.47-1.954,1.009-2.826,2.962-2.826.248,0,.523.013.831.035.244.018.487.054.653.078l.048.007.146-.029a1.233,1.233,0,0,1,.265-.037c.136.01.2.012.266.012a6.055,6.055,0,0,0,.629-.046,7.019,7.019,0,0,1,.734-.052,1.947,1.947,0,0,1,1.956,1.33c.612,1.5,1.451,3.542-.154,5.44a8.613,8.613,0,0,0-.528.72,3.408,3.408,0,0,1-2.961,1.938h0c-.172,0-.374.016-.443.118a1.182,1.182,0,0,0,.107.922c.2.5.426.989.662,1.472a1.731,1.731,0,0,1,.175,1.39,1.525,1.525,0,0,1-.9.843A1.748,1.748,0,0,1,14.674,44.927ZM14.646,34.41a3.559,3.559,0,0,0-.039,2.753.523.523,0,0,0,.529.282.948.948,0,0,0,.118-.008c.98-.125,1.551-.9,2.155-1.725a1.352,1.352,0,0,0,.016-1.765A16.467,16.467,0,0,0,14.646,34.41Z" transform="translate(0)"/>
    <path class="cls-2" d="M17.445,31.108a1.443,1.443,0,0,1,1.493,1.019c.677,1.652,1.28,3.328-.074,4.928-.862,1.019-1.32,2.482-3.107,2.482H15.7c-1.073,0-1.088.892-.748,1.729.207.509.434,1.01.676,1.5.33.673.313,1.222-.469,1.554a1.244,1.244,0,0,1-.486.106.976.976,0,0,1-.963-.883c-.136-1.3-1.014-2.354-1.074-3.62-.04-.843-1.591-4.886-1.241-6.343.456-1.9.88-2.443,2.476-2.443.237,0,.5.012.793.034.311.023.62.077.752.093.239-.042.327-.072.4-.072h.023c.08.008.161.011.243.011.444,0,.919-.1,1.363-.1m-2.308,6.837a1.434,1.434,0,0,0,.181-.012,3.918,3.918,0,0,0,2.539-1.985,1.875,1.875,0,0,0-.2-2.518c-.514.022-3.23.335-3.4.647a4.017,4.017,0,0,0-.124,3.239,1,1,0,0,0,1.005.628m2.308-7.837v0a7.336,7.336,0,0,0-.788.054c-.209.022-.406.043-.576.043-.049,0-.1,0-.144-.006s-.089-.006-.122-.006a1.691,1.691,0,0,0-.369.048l-.052.011c-.173-.025-.414-.059-.655-.077-.32-.023-.608-.036-.867-.036-2.262,0-2.936,1.081-3.448,3.209-.271,1.13.191,2.909.823,5.117a15.481,15.481,0,0,1,.391,1.51,6.431,6.431,0,0,0,.61,2.2,5.482,5.482,0,0,1,.468,1.478,1.971,1.971,0,0,0,1.957,1.779,2.241,2.241,0,0,0,.876-.185,2,2,0,0,0,1.171-1.129,2.2,2.2,0,0,0-.194-1.786c-.247-.5-.459-.975-.648-1.439a1.841,1.841,0,0,1-.108-.352,3.915,3.915,0,0,0,3.359-2.157c.169-.247.329-.481.5-.679,1.8-2.13.859-4.43.235-5.953a2.432,2.432,0,0,0-2.418-1.64Zm-2.432,4.712a19.128,19.128,0,0,1,2.15-.344.779.779,0,0,1-.111.881l-.044.06c-.652.888-1.1,1.433-1.816,1.525a.433.433,0,0,1-.054,0,.357.357,0,0,1-.077-.008,3.136,3.136,0,0,1-.048-2.117Z" transform="translate(0)"/>
  </g>
  <g>
    <path class="cls-1" d="M28.038,19.208a1.438,1.438,0,0,1-1.094-.455,1.719,1.719,0,0,1-.389-1.334,16.69,16.69,0,0,0-1.117-6.585l-.029-.1a1.45,1.45,0,0,0-.146-.366,10.243,10.243,0,0,0-1.672,4.312c-.107.474-.176.9-.245,1.321-.059.357-.116.713-.188,1.067-.112.551-.507,1.218-1.748,1.266h0a1.62,1.62,0,0,1-1.7-1.377,53.388,53.388,0,0,1-.828-7.422,4.044,4.044,0,0,1,.37-1.581,1.254,1.254,0,0,1,1.224-.8,2.314,2.314,0,0,1,.583.082A1.2,1.2,0,0,1,21.9,8.676c-.028.361-.076.724-.125,1.089a9.334,9.334,0,0,0-.115,2.354,5.721,5.721,0,0,0,.286-.736,6.107,6.107,0,0,1,.3-.77c.148-.3.3-.6.457-.9.278-.536.565-1.09.8-1.644a2.187,2.187,0,0,1,2.153-1.379,1.949,1.949,0,0,1,1.8,1.49,33.429,33.429,0,0,1,1.965,9.194,1.851,1.851,0,0,1-.344,1.382,1.261,1.261,0,0,1-.893.444C28.137,19.206,28.087,19.208,28.038,19.208Z" transform="translate(0)"/>
    <path class="cls-2" d="M25.688,7.191c.751,0,1.059.561,1.306,1.177a32.521,32.521,0,0,1,1.93,9.057c.06.611-.125,1.228-.776,1.279-.038,0-.074,0-.11,0-.675,0-1.05-.508-.984-1.244a17.2,17.2,0,0,0-1.138-6.78c-.123-.386-.2-.768-.75-.959a9.959,9.959,0,0,0-2.073,4.9c-.176.773-.265,1.566-.424,2.343-.139.682-.722.845-1.277.867h-.057a1.093,1.093,0,0,1-1.136-.958,53.114,53.114,0,0,1-.822-7.353,3.547,3.547,0,0,1,.332-1.379.759.759,0,0,1,.762-.492,1.826,1.826,0,0,1,.456.066c.474.124.516.453.48.913-.115,1.455-.563,2.926,0,4.616.885-.752.925-1.675,1.291-2.418.422-.857.9-1.691,1.272-2.566a1.7,1.7,0,0,1,1.7-1.077h.02m0-1h-.033a2.677,2.677,0,0,0-2.606,1.682c-.211.49-.454.967-.712,1.465.026-.208.048-.416.065-.623a1.637,1.637,0,0,0-1.223-1.959,2.782,2.782,0,0,0-.709-.1,1.749,1.749,0,0,0-1.684,1.106,4.522,4.522,0,0,0-.409,1.784,53.949,53.949,0,0,0,.835,7.492,2.085,2.085,0,0,0,2.124,1.8l.1,0a2.1,2.1,0,0,0,2.218-1.666c.073-.36.133-.722.192-1.085.07-.431.137-.839.227-1.237l.013-.058A13.337,13.337,0,0,1,25.123,11.5a15.147,15.147,0,0,1,.934,5.876,2.209,2.209,0,0,0,.518,1.716,1.949,1.949,0,0,0,1.462.617c.061,0,.123,0,.187-.007a1.751,1.751,0,0,0,1.237-.621,2.342,2.342,0,0,0,.457-1.752,33.836,33.836,0,0,0-2-9.332,2.437,2.437,0,0,0-2.234-1.8Z" transform="translate(0)"/>
  </g>
  <g>
    <path class="cls-1" d="M66.242,40.536a1.256,1.256,0,0,1-1.127-.945,5.629,5.629,0,0,1-.251-1.04c-.024-.142-.049-.285-.079-.425-.089-.42-.17-.841-.251-1.263a26.822,26.822,0,0,0-.665-2.89,1.678,1.678,0,0,0-1.491-1.328c-.521.025-1.063.2-1.412,1.347-.288.947-.606,1.964-.978,2.979A7.633,7.633,0,0,1,58.3,39.806a1.957,1.957,0,0,1-1.369.629h0a1.615,1.615,0,0,1-.417-.056,1.2,1.2,0,0,1-.855-1.384,2.223,2.223,0,0,0,0-.243,26.389,26.389,0,0,1-.032-2.963,18.3,18.3,0,0,0-.171-3.912,1.379,1.379,0,0,1,.224-1.092,1.346,1.346,0,0,1,.956-.52,1.638,1.638,0,0,1,.174-.01,1.3,1.3,0,0,1,1.324,1.338c.022.766.024,1.532.021,2.3.206-.385.408-.787.552-1.11.726-1.639,2.438-2.972,3.815-2.972a2.074,2.074,0,0,1,.389.036,4.43,4.43,0,0,1,3.538,3.239,22.261,22.261,0,0,1,.706,3.2c.123.726.251,1.476.429,2.194a1.613,1.613,0,0,1-.075,1.033,1.785,1.785,0,0,1-.852.945A1.113,1.113,0,0,1,66.242,40.536Z" transform="translate(0)"/>
    <path class="cls-2" d="M62.522,30.309a1.566,1.566,0,0,1,.295.027,3.913,3.913,0,0,1,3.156,2.9c.57,1.758.686,3.586,1.125,5.357a1.092,1.092,0,0,1-.038.691,1.433,1.433,0,0,1-.59.7.608.608,0,0,1-.228.047c-.331,0-.546-.323-.659-.622a9.582,9.582,0,0,1-.308-1.392c-.3-1.4-.5-2.833-.928-4.2a2.113,2.113,0,0,0-1.969-1.68c-.038,0-.076,0-.115,0-.994.053-1.5.787-1.775,1.7-.3.991-.614,1.981-.969,2.953a7.025,7.025,0,0,1-1.567,2.651,1.481,1.481,0,0,1-1.017.484,1.109,1.109,0,0,1-.289-.039c-.637-.171-.451-.746-.489-1.187-.2-2.3.223-4.625-.21-6.925a.809.809,0,0,1,.742-1.022,1.118,1.118,0,0,1,.121-.007.806.806,0,0,1,.824.852c.04,1.337.013,2.675.013,4.013h0a12.545,12.545,0,0,0,1.515-2.637c.635-1.434,2.163-2.675,3.359-2.675m0-1h0a5.133,5.133,0,0,0-3.881,2.538q0-.135-.007-.269a1.8,1.8,0,0,0-1.823-1.823,2.118,2.118,0,0,0-.228.012,1.84,1.84,0,0,0-1.3.719,1.875,1.875,0,0,0-.314,1.483,17.89,17.89,0,0,1,.162,3.805,26.777,26.777,0,0,0,.034,3.021,1.832,1.832,0,0,1,0,.189,1.694,1.694,0,0,0,1.225,1.879,2.113,2.113,0,0,0,.548.073,2.44,2.44,0,0,0,1.721-.774,8.1,8.1,0,0,0,1.8-3.018c.381-1.044.713-2.105.986-3.005.292-.96.669-.98.872-.991l.062,0c.588,0,.876.531,1.014.977a26.217,26.217,0,0,1,.652,2.837c.082.425.163.849.253,1.271.028.133.051.268.075.4a6.1,6.1,0,0,0,.276,1.134,1.747,1.747,0,0,0,1.594,1.269,1.6,1.6,0,0,0,.6-.12,2.25,2.25,0,0,0,1.114-1.187,2.086,2.086,0,0,0,.112-1.375c-.174-.7-.294-1.41-.421-2.16a22.811,22.811,0,0,0-.723-3.264A4.9,4.9,0,0,0,63,29.354a2.572,2.572,0,0,0-.483-.045Z" transform="translate(0)"/>
  </g>
  <g>
    <path class="cls-1" d="M64.835,16.424a2.811,2.811,0,0,1-2.016-.917,4,4,0,0,1-1.089-2.875,12.057,12.057,0,0,0,.13-1.419c.063-1.281.13-2.607,1.48-3.6A3.208,3.208,0,0,1,65.116,6.8a1.505,1.505,0,0,1,.659.152,2.1,2.1,0,0,0,.926.232,3.643,3.643,0,0,0,1.519-.453,3.94,3.94,0,0,1,1.643-.446c1.3,0,1.929,1.108,2.332,2.074,1.115,2.669.75,4.176-1.5,6.2-1.673,1.507-3.648,1.678-5.559,1.842C64.981,16.42,64.908,16.424,64.835,16.424Zm-.167-5.648a5.391,5.391,0,0,0-.14,1.036l-.028.36a1.688,1.688,0,0,0,.337,1.344A1.876,1.876,0,0,0,66.228,14c.085,0,.172,0,.261-.009a3.94,3.94,0,0,0,3.18-1.882,3.8,3.8,0,0,0,.449-2.726.832.832,0,0,0-.3-.527.7.7,0,0,0-.321-.071,2.775,2.775,0,0,0-2.133,1.95,1.8,1.8,0,0,1-1.7,1.418h0a2.718,2.718,0,0,1-.613-.077.5.5,0,0,1-.371-.357A1.967,1.967,0,0,1,64.668,10.776Z" transform="translate(0)"/>
    <path class="cls-2" d="M69.862,6.789c.831,0,1.374.578,1.871,1.767,1.069,2.559.667,3.8-1.373,5.638-1.572,1.416-3.475,1.561-5.349,1.723-.059.005-.118.008-.176.008-1.509,0-2.668-1.683-2.6-3.271.3-1.753-.187-3.465,1.407-4.633A2.808,2.808,0,0,1,65.115,7.3a1,1,0,0,1,.442.1,2.581,2.581,0,0,0,1.144.282,4.1,4.1,0,0,0,1.732-.5,3.465,3.465,0,0,1,1.429-.4m-4.2,4.864a2.264,2.264,0,0,1-.5-.064c-.22-.816.427-1.406.262-2.443C64.012,9.891,64.1,11.119,64,12.125A2,2,0,0,0,66.228,14.5q.144,0,.295-.01a4.45,4.45,0,0,0,3.562-2.1c.852-1.287.812-3.541-.04-3.975a1.2,1.2,0,0,0-.549-.125,3.24,3.24,0,0,0-2.6,2.279c-.278.765-.647,1.089-1.23,1.089m4.2-5.864a4.353,4.353,0,0,0-1.855.494,3.248,3.248,0,0,1-1.306.406,1.594,1.594,0,0,1-.708-.182,2,2,0,0,0-.878-.2,3.625,3.625,0,0,0-2.069.909c-1.544,1.13-1.619,2.641-1.686,3.975a10.7,10.7,0,0,1-.116,1.294,1,1,0,0,0-.014.131,4.507,4.507,0,0,0,1.228,3.241,3.3,3.3,0,0,0,2.376,1.069c.087,0,.174,0,.262-.011l.081-.007c1.9-.164,4.053-.349,5.851-1.969,2.419-2.179,2.829-3.886,1.626-6.766-.272-.651-.995-2.381-2.794-2.381Zm-4.2,6.864a2.257,2.257,0,0,0,2.17-1.748A2.329,2.329,0,0,1,69.5,9.285a.325.325,0,0,1,.057,0,3.128,3.128,0,0,1-.3,2.543,3.467,3.467,0,0,1-2.8,1.659q-.116.008-.226.008a1.415,1.415,0,0,1-1.022-.321.989.989,0,0,1-.216-.6,3.169,3.169,0,0,0,.673.078Z" transform="translate(0)"/>
  </g>
  <g>
    <path class="cls-1" d="M5.721,41.352a7.219,7.219,0,0,1-2.369-.418A1.787,1.787,0,0,1,2.206,40a1.688,1.688,0,0,1,.106-1.4,1.531,1.531,0,0,1,1.31-1.012,1.313,1.313,0,0,1,1.137.752A1.162,1.162,0,0,0,5.889,39,4.683,4.683,0,0,0,6.5,38.95c.869-.117,1.368-.4,1.484-.842.062-.234-.06-.375-.646-.758-.147-.1-.293-.193-.421-.292-.3-.238-.612-.468-.922-.7A14.783,14.783,0,0,1,3.064,33.73a1.9,1.9,0,0,1-.507-1.384,2,2,0,0,1,.92-1.253,7.642,7.642,0,0,1,4.814-1.422l.231.019a6.643,6.643,0,0,1,1.019.15,1.478,1.478,0,0,1,1.086,1.866,1.034,1.034,0,0,1-1.08,1,2.931,2.931,0,0,1-.6-.079c-.152-.032-.3-.066-.455-.1a5.93,5.93,0,0,0-1.3-.2,2.142,2.142,0,0,0-.774.137,1.244,1.244,0,0,0-.539.3,1.727,1.727,0,0,0,.316.359,24.822,24.822,0,0,0,2.346,1.812l.361.257c1.06.752,2.377,1.688,2.057,3.408-.289,1.552-1.647,1.948-2.739,2.266-.192.057-.383.112-.564.173a6.082,6.082,0,0,1-1.937.313Z" transform="translate(0)"/>
    <path class="cls-2" d="M8.292,30.171H8.3a7.964,7.964,0,0,1,1.119.155c.683.17.786.733.71,1.317-.058.449-.294.566-.584.566a2.563,2.563,0,0,1-.5-.069,9.3,9.3,0,0,0-1.856-.314A2.637,2.637,0,0,0,6.243,32c-.974.371-1.145.8-.381,1.5A28.052,28.052,0,0,0,8.5,35.52c1.055.752,2.239,1.531,1.968,2.988C10.193,40,8.662,40.174,7.5,40.565a5.554,5.554,0,0,1-1.777.287,6.728,6.728,0,0,1-2.206-.391c-.818-.284-1.143-.81-.75-1.656.215-.461.534-.723.856-.723a.858.858,0,0,1,.707.506,1.648,1.648,0,0,0,1.561.913,5.173,5.173,0,0,0,.681-.056c.8-.107,1.69-.4,1.9-1.211s-.7-1.146-1.242-1.572a20.591,20.591,0,0,1-3.774-3.242c-.666-.845-.495-1.329.317-1.925a7.172,7.172,0,0,1,4.519-1.325m.011-1H8.292a8.11,8.11,0,0,0-5.11,1.519,2.448,2.448,0,0,0-1.12,1.589,2.423,2.423,0,0,0,.609,1.761A15.166,15.166,0,0,0,5.7,36.76c.306.227.612.455.912.69.138.108.3.213.456.318a4.319,4.319,0,0,1,.4.284,1.6,1.6,0,0,1-1.034.4,4.361,4.361,0,0,1-.548.047.672.672,0,0,1-.7-.419,1.843,1.843,0,0,0-1.569-1,2.012,2.012,0,0,0-1.763,1.3,2.165,2.165,0,0,0-.113,1.807,2.261,2.261,0,0,0,1.442,1.215,7.726,7.726,0,0,0,2.534.446,6.567,6.567,0,0,0,2.1-.339c.175-.059.358-.112.544-.166,1.094-.319,2.747-.8,3.093-2.655.379-2.033-1.207-3.16-2.257-3.905l-.114-.081-.236-.168A26.481,26.481,0,0,1,6.695,32.9a1.667,1.667,0,0,1,.5-.071,5.578,5.578,0,0,1,1.188.19c.155.036.31.071.465.1a3.4,3.4,0,0,0,.7.09,1.528,1.528,0,0,0,1.575-1.439,1.977,1.977,0,0,0-1.461-2.415,7.051,7.051,0,0,0-1.093-.163c-.057,0-.1-.009-.138-.013a1,1,0,0,0-.128-.008Z" transform="translate(0)"/>
  </g>
  <g>
    <path class="cls-1" d="M49.248,41.427a3.311,3.311,0,0,1-1.422-.339c-1.635-.774-1.7-2.182-1.76-3.313l-.012-.229a6.947,6.947,0,0,1,4.03-6.493,2.856,2.856,0,0,1,1.034-.259c.387,0,1.061.166,1.234,1.276.011.067.033.093.246.214a1.885,1.885,0,0,1,.411.29,4.488,4.488,0,0,1,.322,6.4,8.145,8.145,0,0,1-1.476,1.392,4.486,4.486,0,0,1-2.609,1.059Zm-.593-4.521c0,.883.145,1.341.5,1.574a.8.8,0,0,0,.443.138,2.5,2.5,0,0,0,1.2-.524,2.319,2.319,0,0,0,.937-2.743c-.146-.46-.264-.543-.271-.548s-.16.018-.593.434l-.111.115a1.128,1.128,0,0,1-.828.453.951.951,0,0,1-.295-.048,1.865,1.865,0,0,0-.542-.107c-.192,0-.258,0-.338.667A3.314,3.314,0,0,1,48.655,36.905Z" transform="translate(0)"/>
    <path class="cls-2" d="M51.12,31.294c.362,0,.639.208.74.853.075.479.535.524.8.784a3.968,3.968,0,0,1,.288,5.725,7.711,7.711,0,0,1-1.384,1.306,4.032,4.032,0,0,1-2.317.964,2.792,2.792,0,0,1-1.208-.29c-1.46-.692-1.421-1.959-1.486-3.119a6.44,6.44,0,0,1,3.719-6,2.435,2.435,0,0,1,.847-.222M49.938,35.3a.455.455,0,0,1-.141-.024,2.313,2.313,0,0,0-.7-.132c-.975,0-.728,1.12-.945,1.671-.013.924.108,1.677.731,2.08a1.291,1.291,0,0,0,.716.219,2.876,2.876,0,0,0,1.478-.607A2.81,2.81,0,0,0,52.219,35.2c-.189-.594-.414-.892-.731-.892a1.609,1.609,0,0,0-.957.569c-.2.192-.347.428-.593.428m1.181-5.01a3.294,3.294,0,0,0-1.222.3,7.441,7.441,0,0,0-4.344,6.921c0,.021,0,.042,0,.063l.012.227c.056,1.13.141,2.838,2.045,3.74a3.809,3.809,0,0,0,1.636.387,4.932,4.932,0,0,0,2.9-1.155A8.649,8.649,0,0,0,53.718,39.3a4.963,4.963,0,0,0-.357-7.079,2.38,2.38,0,0,0-.512-.366l-.029-.016a1.711,1.711,0,0,0-1.7-1.54ZM49.938,36.3a1.6,1.6,0,0,0,1.2-.613c.029-.031.059-.064.09-.094l.055-.052a1.81,1.81,0,0,1-.747,2.131,2.4,2.4,0,0,1-.929.442.294.294,0,0,1-.173-.058c-.127-.082-.271-.282-.275-1.083a4.171,4.171,0,0,0,.1-.6c.007-.06.016-.133.026-.2.055.012.123.031.2.057a1.456,1.456,0,0,0,.448.072Z" transform="translate(0)"/>
  </g>
  <g>
    <path class="cls-1" d="M22.6,40.425a2.4,2.4,0,0,1-2.358-1.888,6.758,6.758,0,0,1-.12-1.4c0-.183,0-.363-.015-.538.012-.22.017-.375.021-.527a5.836,5.836,0,0,1,.1-1.062,3.927,3.927,0,0,1,3.8-3.345,4.642,4.642,0,0,1,2.522.8,2.077,2.077,0,0,1,.848,1.491,5.39,5.39,0,0,1-.994,4.174,5.255,5.255,0,0,1-3.487,2.27A2.46,2.46,0,0,1,22.6,40.425Zm2.035-5.66a1.589,1.589,0,0,1-1.3,1.3,2.392,2.392,0,0,0-.435.169.4.4,0,0,0-.224.269,1.281,1.281,0,0,0,.27.9.426.426,0,0,0,.372.209.62.62,0,0,0,.386-.145,3.275,3.275,0,0,0,1.326-2.575l0,.005a.393.393,0,0,0-.2-.119.492.492,0,0,0-.134-.018A.45.45,0,0,0,24.636,34.765Z" transform="translate(0)"/>
    <path class="cls-2" d="M24.033,32.164a4.124,4.124,0,0,1,2.249.722,1.629,1.629,0,0,1,.638,1.2,5.2,5.2,0,0,1-4.065,5.818,1.916,1.916,0,0,1-2.125-1.481,11.238,11.238,0,0,1-.123-1.856,10.4,10.4,0,0,1,.113-1.454,3.426,3.426,0,0,1,3.314-2.952m-.714,5.949a1.124,1.124,0,0,0,.7-.259,3.746,3.746,0,0,0,1.507-2.94.7.7,0,0,0-.562-.616,1,1,0,0,0-.271-.037c-.267,0-.521.105-.541.316-.1.995-.9.89-1.5,1.224-.733.408-.543,1.259-.126,1.881a.925.925,0,0,0,.787.431m.714-6.949A4.413,4.413,0,0,0,19.743,34.9a6.2,6.2,0,0,0-.113,1.152c0,.146-.01.3-.02.446a1,1,0,0,0,0,.127c.01.169.012.343.014.519a7.182,7.182,0,0,0,.132,1.5A2.916,2.916,0,0,0,22.988,40.9a5.754,5.754,0,0,0,3.829-2.476A5.882,5.882,0,0,0,27.9,33.886a2.586,2.586,0,0,0-1.07-1.837,5.138,5.138,0,0,0-2.8-.885Zm-.868,5.5a2.442,2.442,0,0,1,.325-.122,3.606,3.606,0,0,0,.639-.261,3.469,3.469,0,0,1-.742.8.149.149,0,0,1-.037.022,1.138,1.138,0,0,1-.185-.439Z" transform="translate(0)"/>
  </g>
  <g>
    <path class="cls-1" d="M58.063,18.3a3.453,3.453,0,0,1-2.744-1.548,4.038,4.038,0,0,1-.886-2.789A11.092,11.092,0,0,1,59.32,5.172a7.357,7.357,0,0,1,1.089-.59,2.963,2.963,0,0,1,1.234-.338,1.228,1.228,0,0,1,1.173.726,1.165,1.165,0,0,1,.07.963,1.616,1.616,0,0,1-1.074.78c-.109.039-.217.077-.312.121-3.1,1.442-4.938,4.743-4.178,7.515.383,1.4.613,1.464,1.021,1.464a5.148,5.148,0,0,0,1.246-.232l.171-.049a2.615,2.615,0,0,1,.763-.144A1.6,1.6,0,0,1,61.752,16a.5.5,0,0,1-.076.735A6.429,6.429,0,0,1,58.063,18.3Z" transform="translate(0)"/>
    <path class="cls-2" d="M61.644,4.744a.733.733,0,0,1,.719.438c.4.856-.522.942-1.073,1.2-3.35,1.556-5.278,5.077-4.449,8.1.363,1.324.672,1.832,1.5,1.832a5.6,5.6,0,0,0,1.378-.25,3.125,3.125,0,0,1,.8-.175,1.109,1.109,0,0,1,.855.441A6.005,6.005,0,0,1,58.063,17.8a3,3,0,0,1-2.355-1.361A3.511,3.511,0,0,1,54.932,14a10.6,10.6,0,0,1,4.675-8.416,7.147,7.147,0,0,1,1.052-.566,2.467,2.467,0,0,1,.985-.273m0-1a3.332,3.332,0,0,0-1.411.368,8.017,8.017,0,0,0-1.2.65,11.567,11.567,0,0,0-5.1,9.173,4.532,4.532,0,0,0,.994,3.134A3.964,3.964,0,0,0,58.063,18.8a6.863,6.863,0,0,0,3.909-1.669,1,1,0,0,0,.154-1.47,2.1,2.1,0,0,0-1.6-.776,3.072,3.072,0,0,0-.907.165l-.158.046a5.234,5.234,0,0,1-1.115.214.41.41,0,0,1-.124-.012,2.894,2.894,0,0,1-.414-1.084c-.7-2.544,1.018-5.587,3.906-6.929.082-.038.175-.07.269-.1a2.071,2.071,0,0,0,1.368-1.059,1.644,1.644,0,0,0-.08-1.367,1.725,1.725,0,0,0-1.625-1.014Z" transform="translate(0)"/>
  </g>
  <g>
    <path class="cls-1" d="M24.45,31.827q-.264,0-.53-.017a1.1,1.1,0,0,1-1.214-.793,1.214,1.214,0,0,1,.93-1.464l.431-.141a7.173,7.173,0,0,1,2-.46,42.684,42.684,0,0,0,9.738-1.386,2.733,2.733,0,0,1,.716-.106,1.518,1.518,0,0,1,1.338.714,1.136,1.136,0,0,1-.034,1.511l-.151.147a2.6,2.6,0,0,1-1.8.973,2.016,2.016,0,0,1-.5-.065q-.425-.008-.85-.008a34.37,34.37,0,0,0-7.864.827A9.6,9.6,0,0,1,24.45,31.827Z" transform="translate(0)"/>
    <path class="cls-2" d="M36.522,27.959a1.022,1.022,0,0,1,.917.484c.168.26.307.624.04.88-.471.453-.922.981-1.608.981a1.532,1.532,0,0,1-.428-.064q-.46-.009-.919-.009a35,35,0,0,0-7.979.84,9.171,9.171,0,0,1-2.1.255q-.248,0-.5-.015c-.293-.018-.666.015-.756-.4a.732.732,0,0,1,.593-.881,8.982,8.982,0,0,1,2.3-.578,43.338,43.338,0,0,0,9.852-1.4,2.263,2.263,0,0,1,.585-.089m0-1a3.215,3.215,0,0,0-.846.124,42.191,42.191,0,0,1-9.626,1.369,7.688,7.688,0,0,0-2.145.487c-.141.047-.281.094-.42.138a1.721,1.721,0,0,0-1.268,2.046,1.492,1.492,0,0,0,1.6,1.183l.076,0q.282.017.561.017a10.126,10.126,0,0,0,2.323-.281,33.87,33.87,0,0,1,7.752-.814q.392,0,.784.006a2.49,2.49,0,0,0,.564.067,3.049,3.049,0,0,0,2.155-1.117l.146-.143A1.613,1.613,0,0,0,38.28,27.9a2.023,2.023,0,0,0-1.758-.942Z" transform="translate(0)"/>
  </g>
  <g>
    <path class="cls-1" d="M17.794,18.5a1.494,1.494,0,0,1-1.337-.978A16.633,16.633,0,0,1,15.07,8.61a1.317,1.317,0,0,1,1.443-1.269,2.7,2.7,0,0,1,.339.022c1.091.136,1.064,1.114,1.053,1.532-.013.521-.057.979-.1,1.436l-.053.563a11.12,11.12,0,0,0,1,5.217l.132.364.069.173a1.143,1.143,0,0,1-.458,1.67,1.566,1.566,0,0,1-.705.181Z" transform="translate(0)"/>
    <path class="cls-2" d="M16.513,7.841a2.244,2.244,0,0,1,.277.018c.672.084.624.627.613,1.085-.015.637-.1,1.272-.151,1.908-.254,2.062.489,3.919,1.165,5.793.153.425.492.906-.144,1.227a1.065,1.065,0,0,1-.48.127,1.029,1.029,0,0,1-.885-.692,16.243,16.243,0,0,1-1.341-8.651.832.832,0,0,1,.945-.816m0-1a1.814,1.814,0,0,0-1.941,1.722A17.12,17.12,0,0,0,16,17.736,1.991,1.991,0,0,0,17.793,19a2.058,2.058,0,0,0,.931-.234,1.59,1.59,0,0,0,.694-2.31c-.021-.05-.042-.1-.06-.149l-.132-.364a10.753,10.753,0,0,1-.981-4.967c.02-.225.038-.411.056-.6.045-.456.091-.927.1-1.41l0-.061c.033-1.226-.468-1.913-1.49-2.04a3.251,3.251,0,0,0-.4-.026Z" transform="translate(0)"/>
  </g>
  <g>
    <path class="cls-1" d="M31.486,42.393a1.7,1.7,0,0,1-1.385-.831,1.934,1.934,0,0,1-.267-.584,20.687,20.687,0,0,1-.755-8.147l.016-.125c.045-.387.165-1.415,1.244-1.415a1.7,1.7,0,0,1,.231.016,1.551,1.551,0,0,1,1.12.577,1.662,1.662,0,0,1,.2,1.327,4.621,4.621,0,0,0-.026,1.029c.008.18.016.36.016.539.006.358,0,.728-.012,1.1-.036,1.466-.069,2.852.867,4.022a1.493,1.493,0,0,1,.357,1.163,1.515,1.515,0,0,1-.662,1.01,1.629,1.629,0,0,1-.943.321Z" transform="translate(0)"/>
    <path class="cls-2" d="M30.34,31.791a1.241,1.241,0,0,1,.165.012c.8.108,1.038.527.893,1.317a9.3,9.3,0,0,0-.019,1.658c.032,1.856-.338,3.8.965,5.433a.93.93,0,0,1-.2,1.452,1.145,1.145,0,0,1-.657.231,1.211,1.211,0,0,1-.972-.613,1.413,1.413,0,0,1-.2-.43,19.869,19.869,0,0,1-.743-7.947c.055-.381.05-1.112.764-1.112m0-1c-.7,0-1.563.322-1.741,1.859l-.013.11a21.109,21.109,0,0,0,.765,8.344,2.41,2.41,0,0,0,.338.74,2.183,2.183,0,0,0,1.8,1.049,2.122,2.122,0,0,0,1.231-.412,1.924,1.924,0,0,0,.408-2.895c-.823-1.029-.793-2.266-.758-3.7.009-.377.018-.754.012-1.127,0-.168-.008-.356-.016-.543a4.366,4.366,0,0,1,.019-.917A2.13,2.13,0,0,0,32.1,31.59a2.046,2.046,0,0,0-1.457-.778,2.236,2.236,0,0,0-.3-.021Z" transform="translate(0)"/>
  </g>
  <g>
    <path class="cls-1" d="M87.059,4.935a1.17,1.17,0,0,1-1.293-.879,1.222,1.222,0,0,1,.691-1.269A9.488,9.488,0,0,1,89.821,1.5a1,1,0,0,1,.115-.006l.86.048a13.86,13.86,0,0,1,5.28.935,1.147,1.147,0,0,1,.813,1.2,1.171,1.171,0,0,1-1.136,1.042,1.085,1.085,0,0,1-.426-.087A6.861,6.861,0,0,0,92.592,4.1a18.008,18.008,0,0,0-4.015.619l-.786.179a2.1,2.1,0,0,1-.454.046Z" transform="translate(0)"/>
    <path class="cls-2" d="M89.907,2c2.438.146,4.263.149,5.959.937.307.143.584.3.53.672a.671.671,0,0,1-.641.615.589.589,0,0,1-.231-.047A7.363,7.363,0,0,0,92.592,3.6a22.988,22.988,0,0,0-4.91.811,1.6,1.6,0,0,1-.344.034c-.044,0-.088,0-.131,0-.388-.022-.842.023-.952-.491-.078-.363.213-.577.472-.743A8.958,8.958,0,0,1,89.907,2m0-1a1,1,0,0,0-.169.014,10.008,10.008,0,0,0-3.551,1.353,1.648,1.648,0,0,0-.91,1.8,1.66,1.66,0,0,0,1.763,1.274l.109,0q.094.005.189.006a2.6,2.6,0,0,0,.561-.058c.264-.059.527-.119.791-.18a17.644,17.644,0,0,1,3.9-.607,6.373,6.373,0,0,1,2.541.495,1.582,1.582,0,0,0,.622.127,1.669,1.669,0,0,0,1.631-1.468,1.577,1.577,0,0,0-1.1-1.725,14.406,14.406,0,0,0-5.461-.98L89.967,1l-.06,0Z" transform="translate(0)"/>
  </g>
</svg>
