<svg id="Layer_1" data-name="Layer 1" xmlns="http://www.w3.org/2000/svg" viewBox="0 0 152.044 90.672">
  <defs>
    <style>
      .cls-1 {
        fill: #0000b8;
      }

      .cls-2 {
        fill: #fff;
      }
    </style>
  </defs>
  <title>020e49a2-1fd8-4043-ad38-8022c0df01cf</title>
  <g>
    <path class="cls-1" d="M28.39,57.238c-.963,0-1.465-.855-2.205-2.293a2.244,2.244,0,0,0-.745.519c-.138.124-.275.246-.42.355a3.58,3.58,0,0,1-2.154.871,3.441,3.441,0,0,1-1.884-.649l-.21-.132a3.886,3.886,0,0,1-1.238-1.049,5.785,5.785,0,0,0-4.183-2.586,2.083,2.083,0,0,0,.147.42,2.154,2.154,0,0,1,.238,1.016l-.013.2c-.034.625-.1,1.789-1.476,1.839h-.006c-.617,0-1.526-.23-1.6-1.744A31.127,31.127,0,0,0,11.2,46.318a3.037,3.037,0,0,1-.975.153A7.14,7.14,0,0,1,8.3,46.109a6.708,6.708,0,0,0-1.811-.346,2.692,2.692,0,0,0-.654.078,7.449,7.449,0,0,0,1.428.952,8.812,8.812,0,0,1,1.352.875,7.354,7.354,0,0,1,2.312,3.277c.624,1.723.155,2.792-1.519,3.469a3.338,3.338,0,0,1-1.237.2,5.873,5.873,0,0,1-4.011-1.471,1.571,1.571,0,0,1-.046-2.166,1.533,1.533,0,0,1,1.16-.611,1.436,1.436,0,0,1,1.013.462c.046.046.093.092.144.134l.239.2c.267.231.631.547.843.547.129,0,.269-.189.34-.3.354-.555-.333-1.259-.745-1.553a25.162,25.162,0,0,0-3.634-2.143A2.169,2.169,0,0,1,3.614,43.5c.284-.091.568-.2.854-.3a7.692,7.692,0,0,1,2.644-.632,3.737,3.737,0,0,1,2.165.688,1.053,1.053,0,0,0,.618.139c.135,0,.272-.008.408-.017.156-.009.312-.018.464-.018l2.274.072c1.359.042,2.72.085,4.078.15A8.385,8.385,0,0,1,21.6,44.914a4.215,4.215,0,0,1,2.112,3.022,4.088,4.088,0,0,1-1.512,3.25,3.416,3.416,0,0,1-.836.554,2.654,2.654,0,0,0-.719.48c.979,1.551,1.608,1.759,2.054,1.759a1.682,1.682,0,0,0,.534-.1,3.33,3.33,0,0,0,1.922-3.51,1.283,1.283,0,0,0-.083-.233,2.057,2.057,0,0,1-.144-.436,4.029,4.029,0,0,1,.608-3.423,3.512,3.512,0,0,1,2.811-1.109q.308,0,.644.031c.422.04.841.1,1.261.155.372.051.743.1,1.116.14A2.774,2.774,0,0,1,33.9,47.123a3.154,3.154,0,0,1-.784,3.38c-.983,1.156-2.383,1.849-4.776,2.348a2.768,2.768,0,0,0,.631,1.443,3.548,3.548,0,0,0,.438.454,2.549,2.549,0,0,1,.936,1.43.5.5,0,0,1-.289.547A4.431,4.431,0,0,1,28.39,57.238Zm-.173-7.487a4.429,4.429,0,0,0,.714.064,2.148,2.148,0,0,0,1.754-.789c.186-.214.237-.362.224-.429s-.113-.173-.354-.289a3.533,3.533,0,0,0-2.295-.32,4.572,4.572,0,0,1-.007,1.053C28.234,49.271,28.215,49.506,28.218,49.751ZM14.851,49.6a3.153,3.153,0,0,1,1.239-.251,3.692,3.692,0,0,1,.9.116,7.944,7.944,0,0,1,.841-3.148,8.7,8.7,0,0,0-2.578-.326c-.3,0-.6.007-.9.018Zm5.766-1.646a.507.507,0,0,0-.285.111,1.376,1.376,0,0,0-.491,1.254,1.875,1.875,0,0,0,1.025-.893.252.252,0,0,0-.047-.392A.306.306,0,0,0,20.617,47.952Z" transform="translate(0)"/>
    <path class="cls-2" d="M7.111,43.068a3.248,3.248,0,0,1,1.884.6,1.543,1.543,0,0,0,.9.226c.288,0,.585-.035.871-.035l.11,0c2.073.074,4.147.121,6.219.219a7.8,7.8,0,0,1,4.224,1.245c2.308,1.574,2.556,3.543.534,5.5-.523.506-1.333.581-1.812,1.364.949,1.594,1.745,2.289,2.657,2.289a2.191,2.191,0,0,0,.693-.121,3.8,3.8,0,0,0,2.257-4.066c-.038-.233-.186-.447-.228-.679-.458-2.519.614-3.942,2.927-3.942q.286,0,.6.029c.793.075,1.58.214,2.373.294a2.352,2.352,0,0,1,2.123,1.32,2.715,2.715,0,0,1-.7,2.865c-.973,1.144-2.4,1.783-4.886,2.26a2.989,2.989,0,0,0,.721,2.154c.421.562,1.139.9,1.281,1.673a4.113,4.113,0,0,1-1.465.471c-.677,0-1.049-.631-1.922-2.336h-.021c-.763,0-1.193.613-1.73,1.019a3.1,3.1,0,0,1-1.852.769,2.986,2.986,0,0,1-1.613-.569,4.254,4.254,0,0,1-1.3-1.037,6.447,6.447,0,0,0-4.935-2.862c-.505.66.271,1.271.223,1.952-.052.732.007,1.537-1.008,1.574h-.06c-.76,0-.994-.558-1.029-1.271a32.473,32.473,0,0,0-1.634-8.349,2.457,2.457,0,0,1-1.283.342c-1.2,0-2.436-.708-3.739-.708a3.087,3.087,0,0,0-1.505.378c.908,1.229,2.3,1.566,3.311,2.411a6.89,6.89,0,0,1,2.161,3.063c.535,1.478.17,2.267-1.237,2.835a2.872,2.872,0,0,1-1.05.166,5.453,5.453,0,0,1-3.626-1.292,1.081,1.081,0,0,1-.053-1.517,1.083,1.083,0,0,1,.783-.44.953.953,0,0,1,.662.319c.057.056.114.112.176.163.435.359.919.866,1.4.866a.926.926,0,0,0,.761-.533c.516-.811-.18-1.731-.876-2.229a25.672,25.672,0,0,0-3.706-2.186c-.816-.4-1.364-.936-1.3-1.78a1.848,1.848,0,0,1,1.383-1.51,11.488,11.488,0,0,1,3.345-.909m7.345,7.314a2.853,2.853,0,0,1,1.635-.534,3.725,3.725,0,0,1,1.4.306,7.608,7.608,0,0,1,1.049-4.12,8.512,8.512,0,0,0-3.283-.544c-.479,0-.969.019-1.477.038l.678,4.855m14.475-.067a2.654,2.654,0,0,0,2.132-.96c.569-.654.418-1.156-.292-1.5a4.145,4.145,0,0,0-1.82-.437,4.436,4.436,0,0,0-1.306.206c.324.757-.021,1.525.1,2.542a5.661,5.661,0,0,0,1.188.145m-9.389-.463a2.077,2.077,0,0,0,1.736-1.144.744.744,0,0,0-.143-1.062.807.807,0,0,0-.517-.193,1,1,0,0,0-.578.206c-.718.519-.717,1.286-.694,2.184.068.006.133.009.2.009M7.111,42.068h0a8.08,8.08,0,0,0-2.816.663c-.278.1-.555.205-.833.294a2.823,2.823,0,0,0-2.076,2.392,2.767,2.767,0,0,0,1.865,2.75,24.667,24.667,0,0,1,3.561,2.1c.405.29.708.722.615.876-.136-.094-.314-.249-.434-.353-.084-.073-.167-.145-.249-.212-.039-.032-.074-.069-.111-.1a1.925,1.925,0,0,0-1.363-.606,2.017,2.017,0,0,0-1.538.784,2.064,2.064,0,0,0,.04,2.814,6.326,6.326,0,0,0,4.394,1.651,3.819,3.819,0,0,0,1.424-.239c1.93-.779,2.52-2.121,1.8-4.1a7.846,7.846,0,0,0-2.462-3.492,8.3,8.3,0,0,0-1.25-.826c.157.042.316.087.478.133a7.51,7.51,0,0,0,2.066.381,3.727,3.727,0,0,0,.634-.053,30.079,30.079,0,0,1,1.284,7.11c.1,2.061,1.579,2.221,2.028,2.221l.1,0a2.055,2.055,0,0,0,1.957-2.309l.012-.193a2.12,2.12,0,0,0-.1-.786,5.112,5.112,0,0,1,2.982,2.176,4.259,4.259,0,0,0,1.391,1.2l.2.129a3.916,3.916,0,0,0,2.155.729,4.038,4.038,0,0,0,2.455-.972c.156-.118.3-.25.453-.383.08-.072.151-.134.214-.188.686,1.284,1.28,2.09,2.4,2.09a4.77,4.77,0,0,0,1.871-.558,1,1,0,0,0,.577-1.093,3.039,3.039,0,0,0-1.087-1.706,3.319,3.319,0,0,1-.378-.387,3.039,3.039,0,0,1-.439-.761A7.871,7.871,0,0,0,33.5,50.827a3.611,3.611,0,0,0,.866-3.895A3.245,3.245,0,0,0,31.42,45c-.366-.037-.732-.087-1.1-.137-.427-.059-.855-.117-1.284-.157q-.36-.034-.691-.034a3.931,3.931,0,0,0-3.195,1.289,4.461,4.461,0,0,0-.717,3.832,2.54,2.54,0,0,0,.175.542,1.087,1.087,0,0,1,.053.134,2.831,2.831,0,0,1-1.589,2.94,1.218,1.218,0,0,1-.377.07c-.155,0-.581,0-1.379-1.145.081-.047.173-.1.277-.151a3.871,3.871,0,0,0,.951-.637,4.555,4.555,0,0,0,1.662-3.652A4.644,4.644,0,0,0,21.883,44.5a8.855,8.855,0,0,0-4.74-1.418c-1.368-.065-2.755-.108-4.1-.15q-1.067-.033-2.134-.07l-.146,0c-.162,0-.327.009-.493.019-.127.007-.253.016-.378.016a.659.659,0,0,1-.337-.052,4.223,4.223,0,0,0-2.447-.775Zm7.811,4.425.333,0h0a9.155,9.155,0,0,1,1.875.163,8.211,8.211,0,0,0-.593,2.221,3.937,3.937,0,0,0-.446-.026,3.64,3.64,0,0,0-.827.095l-.242-1.732-.1-.718Zm13.865,1.933q.082,0,.164,0a3.129,3.129,0,0,1,1.328.31,1.659,1.659,0,0,1-1.348.584q-.1,0-.2-.006c.005-.074.012-.149.018-.225.017-.21.036-.43.036-.658Z" transform="translate(0)"/>
  </g>
  <g>
    <path class="cls-1" d="M38.068,16.5a1.466,1.466,0,0,1-1.152-.577,2.8,2.8,0,0,1-.522-1.4c-.022-.128-.044-.257-.072-.384-.181-.793-.289-1.6-.394-2.387A16.468,16.468,0,0,0,35.219,8.3l-.5.057c-.786.087-1.6.177-1.7.359-.168.3.541,1.8.773,2.295.041.087.089.176.137.266a1.734,1.734,0,0,1,.29,1.447,1.3,1.3,0,0,1-.87.71,2.443,2.443,0,0,1-.763.129,1.5,1.5,0,0,1-1.075-.4,1.721,1.721,0,0,1-.462-1.284.315.315,0,0,0-.132-.283,19.22,19.22,0,0,1-4.836,1.826,10.981,10.981,0,0,1-2.061.237,4.669,4.669,0,0,1-2.011-.4,5.9,5.9,0,0,0-1.788-.412,5.312,5.312,0,0,1-2.612-.819h0a.815.815,0,0,0-.271.16c-.067.05-.134.1-.2.146a5.691,5.691,0,0,1-3.12,1.075h0c-1.827,0-3.252-1.241-3.911-3.4a8.221,8.221,0,0,1-.042-4.784,4.366,4.366,0,0,1,4.071-3.085,3.6,3.6,0,0,1,.47.031A4.646,4.646,0,0,1,18.486,6.2c.031.289.044.584.058.883a6.766,6.766,0,0,0,.215,1.69,14.45,14.45,0,0,1,.671-2.742l.143-.453A8.207,8.207,0,0,1,22.431,1.82,2.367,2.367,0,0,1,24,1.26a3.941,3.941,0,0,1,.9.116,1.5,1.5,0,0,1,1.23,1.5,1.308,1.308,0,0,1-.358.972,1.37,1.37,0,0,1-.99.383c-.01,0-.254-.01-.324-.01a2.094,2.094,0,0,0-2.033,1.269A6,6,0,0,0,21.6,9.724a1.59,1.59,0,0,0,1.25,1.226,7.1,7.1,0,0,0,1.75.254,4.034,4.034,0,0,0,1.273-.2l1.6-.52c.905-.292,1.81-.583,2.71-.887a.358.358,0,0,0,.159-.095H30.18c-.247.082-.491.174-.735.266-.279.105-.559.21-.843.3a2,2,0,0,1-.616.106,1.318,1.318,0,0,1-1.314-1.1A1.462,1.462,0,0,1,26.8,7.9a1.509,1.509,0,0,1,1.046-.643l.156-.031a6.618,6.618,0,0,1,.848-.133c.411-.03.69-.127.787-.273.108-.166.074-.524-.1-1.008a8.392,8.392,0,0,1-.437-2.982,1.546,1.546,0,0,1,1.708-1.605c1.161.017,1.215,1.064,1.237,1.512.015.29.021.58.026.87a11.606,11.606,0,0,0,.141,1.92c.092.486.259.62.78.62a6.14,6.14,0,0,0,1.323-.2.757.757,0,0,0,.44-.2c.062-.105-.028-.426-.1-.684,0,0-.192-.681-.275-.969-.161-.557-.322-1.114-.459-1.676a1.482,1.482,0,0,1,.188-1.253A1.7,1.7,0,0,1,35.384.509,1.736,1.736,0,0,1,35.561.5a1.233,1.233,0,0,1,.905.358A1.679,1.679,0,0,1,36.873,2.1l0,.1a5.1,5.1,0,0,0,.183,1.852,6.306,6.306,0,0,1,.215.819,1.863,1.863,0,0,0,.191-.033,3.667,3.667,0,0,1,.83-.123,1.305,1.305,0,0,1,1.338,1.034A1.988,1.988,0,0,1,39.5,7.4a1.5,1.5,0,0,1-1.1.659.849.849,0,0,0-.575.244c-.114.178-.016.577.067.862a14.453,14.453,0,0,1,.384,1.922,6.739,6.739,0,0,0,1.12,3.334,1.165,1.165,0,0,1,.258.918,1.248,1.248,0,0,1-.589.829A1.86,1.86,0,0,1,38.068,16.5ZM13.871,5.02a1.12,1.12,0,0,0-1.1.715,3.3,3.3,0,0,0-.41,1.329,5.479,5.479,0,0,0,.981,3.137,1.151,1.151,0,0,0,1.023.541,2.161,2.161,0,0,0,.744-.145.947.947,0,0,0,.5-1.347,9.43,9.43,0,0,1-.563-3.2.9.9,0,0,0-.835-1A2.055,2.055,0,0,0,13.871,5.02Z" transform="translate(0)"/>
    <path class="cls-2" d="M35.562,1c.6,0,.823.478.811,1.087a5.806,5.806,0,0,0,.209,2.132,11.679,11.679,0,0,1,.294,1.2c.272-.035.489-.046.7-.094a3.254,3.254,0,0,1,.715-.109.816.816,0,0,1,.859.674c.221.757.109,1.542-.815,1.68-1.209.182-1.154.919-.913,1.741.53,1.807.331,3.825,1.59,5.425a.649.649,0,0,1-.208,1.017,1.382,1.382,0,0,1-.735.247A.973.973,0,0,1,37.3,15.6a3.559,3.559,0,0,1-.492-1.578c-.473-2.082-.435-4.272-1.264-6.271-3.147.395-3.818.063-2.21,3.467.3.631.918,1.384-.148,1.735a1.967,1.967,0,0,1-.607.1c-.553,0-1.037-.3-1.037-1.186a.905.905,0,0,0-.6-.855,19.527,19.527,0,0,1-4.959,1.908,10.4,10.4,0,0,1-1.964.228,4.208,4.208,0,0,1-1.8-.357c-1.4-.654-3.031-.254-4.321-1.183a.51.51,0,0,0-.3-.108c-.266,0-.5.24-.743.4a5.229,5.229,0,0,1-2.842.991c-1.563,0-2.822-1.045-3.433-3.05a7.707,7.707,0,0,1-.042-4.495,3.894,3.894,0,0,1,3.593-2.73,3.108,3.108,0,0,1,.4.026,4.136,4.136,0,0,1,3.457,3.6c.147,1.361-.128,2.868,1.255,4.26a11.161,11.161,0,0,1,.805-4.787,7.665,7.665,0,0,1,2.7-3.526A1.857,1.857,0,0,1,24,1.76a3.457,3.457,0,0,1,.787.1,1.009,1.009,0,0,1,.845,1.017.778.778,0,0,1-.849.846l-.078,0q-.125-.007-.246-.007a2.581,2.581,0,0,0-2.479,1.542,6.419,6.419,0,0,0-.862,4.588,2.083,2.083,0,0,0,1.611,1.588A7.654,7.654,0,0,0,24.6,11.7a4.545,4.545,0,0,0,1.429-.221c1.439-.471,2.884-.924,4.319-1.408.306-.1.591-.355.458-.713a.557.557,0,0,0-.542-.371.769.769,0,0,0-.243.041c-.529.176-1.044.4-1.575.568a1.507,1.507,0,0,1-.462.081.826.826,0,0,1-.83-.723.889.889,0,0,1,.791-1.212,7.858,7.858,0,0,1,.943-.156c1.344-.1,1.528-.809,1.127-1.946a7.842,7.842,0,0,1-.409-2.8,1.055,1.055,0,0,1,1.207-1.117h.034c.636.009.68.544.7,1.038a21.242,21.242,0,0,0,.175,2.856A1.114,1.114,0,0,0,33,6.645a6.671,6.671,0,0,0,1.436-.212c1.117-.259.876-.9.679-1.611-.233-.842-.495-1.677-.7-2.526-.2-.83.333-1.219,1.02-1.289A1.243,1.243,0,0,1,35.562,1m-21.2,10.242a2.666,2.666,0,0,0,.917-.176,1.426,1.426,0,0,0,.8-1.984,8.935,8.935,0,0,1-.535-3.029,1.392,1.392,0,0,0-1.252-1.5,2.559,2.559,0,0,0-.425-.037,1.624,1.624,0,0,0-1.555,1,3.3,3.3,0,0,0-.452,1.612,5.888,5.888,0,0,0,1.057,3.343,1.645,1.645,0,0,0,1.442.768M35.562,0h0a2.244,2.244,0,0,0-.229.012,2.207,2.207,0,0,0-1.625.861,1.967,1.967,0,0,0-.264,1.659c.141.582.307,1.158.468,1.714.081.28.162.561.24.842l.03.107c.021.075.048.169.068.254l-.04.01A5.812,5.812,0,0,1,33,5.645a.828.828,0,0,1-.243-.026c0-.011-.023-.068-.046-.186A11.28,11.28,0,0,1,32.579,3.6c-.006-.3-.012-.594-.027-.889C32.471,1.087,31.589.734,30.863.723h0a2.061,2.061,0,0,0-2.254,2.093,8.865,8.865,0,0,0,.466,3.161,1.955,1.955,0,0,1,.13.549,1.52,1.52,0,0,1-.385.067,7.071,7.071,0,0,0-.9.14l-.16.032a1.994,1.994,0,0,0-1.372.867,1.949,1.949,0,0,0-.2,1.574,2.065,2.065,0,0,0,.553.995l-1.021.332A3.537,3.537,0,0,1,24.6,10.7a6.631,6.631,0,0,1-1.628-.239,1.086,1.086,0,0,1-.887-.864,5.432,5.432,0,0,1,.785-3.89,1.585,1.585,0,0,1,1.587-.994q.092,0,.187.006c.046,0,.093,0,.138,0a1.864,1.864,0,0,0,1.347-.532,1.8,1.8,0,0,0,.5-1.33A2,2,0,0,0,25.015.89,4.42,4.42,0,0,0,24,.76a2.855,2.855,0,0,0-1.89.678,8.653,8.653,0,0,0-3.014,4l-.142.452,0,.009a5.159,5.159,0,0,0-4.287-4.233,4.126,4.126,0,0,0-.534-.035A4.876,4.876,0,0,0,9.576,5.069a8.731,8.731,0,0,0,.043,5.074c.728,2.388,2.327,3.758,4.389,3.758a6.172,6.172,0,0,0,3.4-1.158c.062-.041.124-.086.186-.132a6.26,6.26,0,0,0,2.563.726,5.567,5.567,0,0,1,1.641.369,5.151,5.151,0,0,0,2.221.45,11.427,11.427,0,0,0,2.156-.246,18.041,18.041,0,0,0,4.4-1.593,2.058,2.058,0,0,0,.58,1.2,1.988,1.988,0,0,0,1.425.546,2.943,2.943,0,0,0,.919-.155,1.773,1.773,0,0,0,1.178-1,2.185,2.185,0,0,0-.313-1.868c-.044-.083-.088-.165-.126-.245a10.807,10.807,0,0,1-.721-1.77c.284-.067.792-.123,1.252-.174l.1-.011a18.543,18.543,0,0,1,.559,2.974c.106.8.216,1.618.4,2.434.027.118.047.238.067.358a3.256,3.256,0,0,0,.628,1.634A1.979,1.979,0,0,0,38.068,17a2.35,2.35,0,0,0,1.275-.4,1.74,1.74,0,0,0,.811-1.168,1.66,1.66,0,0,0-.358-1.31,6.375,6.375,0,0,1-1.019-3.1,15.014,15.014,0,0,0-.4-1.986,2.492,2.492,0,0,1-.1-.427,1.348,1.348,0,0,1,.2-.043,1.985,1.985,0,0,0,1.444-.885,2.469,2.469,0,0,0,.182-2.065A1.808,1.808,0,0,0,38.29,4.214a3.371,3.371,0,0,0-.643.07c-.035-.133-.074-.267-.123-.4a4.671,4.671,0,0,1-.153-1.669l0-.106a2.129,2.129,0,0,0-.55-1.6A1.722,1.722,0,0,0,35.562,0Zm-21.2,10.242a.647.647,0,0,1-.6-.314,4.851,4.851,0,0,1-.9-2.8A1.006,1.006,0,0,0,12.855,7a2.652,2.652,0,0,1,.365-1.046.632.632,0,0,1,.651-.429,1.569,1.569,0,0,1,.259.023c.289.049.418.134.418.512a9.924,9.924,0,0,0,.593,3.362c.2.56-.066.658-.208.711a1.686,1.686,0,0,1-.57.114Z" transform="translate(0)"/>
  </g>
  <g>
    <path class="cls-1" d="M32.317,37.591a1.662,1.662,0,0,1-1.29-.551,1.4,1.4,0,0,1-.293-1.161,9.307,9.307,0,0,0-.33-3.707,14.166,14.166,0,0,1-.43-2.773c-.015-.676-.2-.676-.408-.676a2.927,2.927,0,0,0-.545.073,4.141,4.141,0,0,0-.94.375,4.143,4.143,0,0,1-1.706.537,16.1,16.1,0,0,1,.214,1.816,7,7,0,0,0,.64,2.907,1.652,1.652,0,0,1,.312,1.344,1.247,1.247,0,0,1-.758.71,1.737,1.737,0,0,1-.673.142,1.465,1.465,0,0,1-1.377-.982,10.439,10.439,0,0,1-.855-4.144,5.824,5.824,0,0,0-.645-2.773c-.169-.358-.3-.434-.322-.434-.036,0-.191.07-.422.383a5.638,5.638,0,0,0-1.061,2.85,31.055,31.055,0,0,1-.57,3.349,1.51,1.51,0,0,1-1.509,1.209,1.472,1.472,0,0,1-1.407-1.3c-.317-1.325-.706-2.733-1.259-4.566a3.327,3.327,0,0,1-.036-1.475c.017-.124.034-.248.045-.373.105-1.173.771-1.93,1.692-1.93l.107,0a1.15,1.15,0,0,1,.845.377,1.648,1.648,0,0,1,.235,1.287,2.808,2.808,0,0,0-.021.349c0,.135,0,.269,0,.406,0,.043,0,.085,0,.128l0,0c.48-.783.936-1.522,1.445-2.236.87-1.216,1.642-1.783,2.429-1.783,1.172,0,1.957,1.289,2.445,2.258-.007-.015,0-.021,0-.021a.12.12,0,0,1,.044.02c2.278-1.43,4.854-1.623,7.35-1.809.839-.062,1.706-.127,2.543-.239.944-.126,1.891-.228,2.837-.331.64-.069,1.279-.138,1.918-.214a6.93,6.93,0,0,1,.8-.059,1.437,1.437,0,0,1,1.3.572,2.86,2.86,0,0,1,.286,1.536,11.81,11.81,0,0,0,.5,3.612,3.409,3.409,0,0,0,1.521,2.167l.143.081c.354.2,1.182.656.752,1.6a1.722,1.722,0,0,1-1.656,1.033,2.725,2.725,0,0,1-.508-.05,2.486,2.486,0,0,1-1.581-1.253l-.1-.146a.866.866,0,0,0-.14.225,1.8,1.8,0,0,1-.234.371A4.729,4.729,0,0,1,38.1,36.259a4.572,4.572,0,0,1-2.338-.715c-1.808-1.078-2.422-3.361-1.528-5.68.22-.569.465-1.127.708-1.682l.121-.28c-2.441.343-2.431.44-2.14,3.084a36.814,36.814,0,0,0,.654,3.638l.213,1a1.712,1.712,0,0,1-.191,1.427,1.456,1.456,0,0,1-1.1.53C32.432,37.589,32.375,37.591,32.317,37.591Zm7.1-9.482a3.411,3.411,0,0,0-.759.111c-1.014.241-1.391,1.113-1.813,2.318a2.468,2.468,0,0,0,.418,2.638.894.894,0,0,0,.661.313,1.479,1.479,0,0,0,.706-.219A2.827,2.827,0,0,0,40.187,30.3a3.9,3.9,0,0,0-.336-2.062A.555.555,0,0,0,39.416,28.109Z" transform="translate(0)"/>
    <path class="cls-2" d="M41.37,25.073c.9,0,1.086.378,1.086,1.607a12.376,12.376,0,0,0,.527,3.761,3.945,3.945,0,0,0,1.745,2.449c.412.242.963.446.693,1.039a1.226,1.226,0,0,1-1.2.74,2.262,2.262,0,0,1-.416-.041c-.864-.162-1.157-1-1.585-1.486-.69.06-.7.567-.938.847a4.283,4.283,0,0,1-3.183,1.77,4.065,4.065,0,0,1-2.082-.645c-1.594-.951-2.128-2.968-1.317-5.071.314-.814.681-1.608,1.019-2.4-.15-.117-.27-.283-.366-.283H35.34c-3.178.436-3.268.495-2.916,3.678.174,1.576.552,3.131.874,4.688.157.761,0,1.288-.847,1.357-.046,0-.091.006-.135.006-.706,0-1.207-.463-1.09-1.125.4-2.291-.7-4.374-.752-6.578-.021-.913-.382-1.164-.908-1.164a3.274,3.274,0,0,0-.646.083c-.9.187-1.619.9-2.654.9a2.344,2.344,0,0,1-.54-.064c.566,1.945.144,3.851,1.063,5.526.287.523.589,1.021-.2,1.353a1.24,1.24,0,0,1-.48.1.961.961,0,0,1-.909-.662,9.9,9.9,0,0,1-.823-3.943,6.363,6.363,0,0,0-.692-3.007c-.227-.481-.489-.721-.775-.721-.258,0-.536.2-.824.587a6.171,6.171,0,0,0-1.156,3.1,30.435,30.435,0,0,1-.561,3.294,1.012,1.012,0,0,1-1.021.815h-.034c-.545-.015-.757-.377-.887-.919-.37-1.544-.808-3.074-1.267-4.595a4.156,4.156,0,0,1,.028-1.658c.068-.756.433-1.475,1.194-1.475l.077,0c.922.056.569.965.589,1.532a4.776,4.776,0,0,0,.225,1.905c.759-1.2,1.393-2.306,2.131-3.339.749-1.049,1.405-1.573,2.021-1.573.691,0,1.332.661,2,1.983.062.123.241.188.491.373,2.98-2.031,6.553-1.7,9.961-2.151,1.579-.211,3.167-.354,4.748-.544a6.45,6.45,0,0,1,.744-.055M37.923,33.99a1.962,1.962,0,0,0,.951-.283,3.328,3.328,0,0,0,1.811-3.461c0-1.92-.279-2.637-1.269-2.636a3.879,3.879,0,0,0-.875.125c-1.337.319-1.783,1.539-2.169,2.639a2.93,2.93,0,0,0,.528,3.149,1.383,1.383,0,0,0,1.023.468m3.447-9.917a7.328,7.328,0,0,0-.863.062c-.638.076-1.277.145-1.916.214-.932.1-1.9.2-2.846.331-.822.11-1.682.174-2.514.236-2.406.18-4.885.365-7.152,1.632-.559-1-1.4-2.081-2.652-2.081S21.2,25.6,20.592,26.46c-.183.256-.358.514-.53.776a1.56,1.56,0,0,0-.346-.739,1.639,1.639,0,0,0-1.195-.551c-.047,0-.093,0-.138,0a2.3,2.3,0,0,0-2.19,2.385c-.01.116-.026.232-.042.348a3.8,3.8,0,0,0,.052,1.688c.373,1.237.852,2.87,1.251,4.539a1.881,1.881,0,0,0,1.832,1.686h.061a2,2,0,0,0,2-1.6,31.84,31.84,0,0,0,.578-3.4,5.181,5.181,0,0,1,.908-2.525,5.238,5.238,0,0,1,.545,2.426,10.9,10.9,0,0,0,.888,4.342,1.954,1.954,0,0,0,1.843,1.3,2.233,2.233,0,0,0,.867-.181,1.724,1.724,0,0,0,1.037-1.006,2.068,2.068,0,0,0-.322-1.707,6.543,6.543,0,0,1-.6-2.749c-.035-.44-.07-.888-.134-1.347a5.657,5.657,0,0,0,1.35-.518,3.729,3.729,0,0,1,.821-.335c.058-.012.207-.043.339-.056.006.047.01.106.012.181a14.515,14.515,0,0,0,.442,2.872,8.935,8.935,0,0,1,.325,3.51,1.888,1.888,0,0,0,.4,1.57,2.159,2.159,0,0,0,1.672.729q.106,0,.216-.009A1.928,1.928,0,0,0,34,37.354a2.175,2.175,0,0,0,.281-1.828q-.094-.452-.191-.9A4.351,4.351,0,0,0,35.5,35.974a5.067,5.067,0,0,0,2.594.786,5.259,5.259,0,0,0,3.939-2.115l.022-.026a2.57,2.57,0,0,0,1.563.993,3.271,3.271,0,0,0,.6.058,2.224,2.224,0,0,0,2.111-1.325c.283-.622.346-1.515-.965-2.242l-.131-.074a2.966,2.966,0,0,1-1.3-1.885,11.33,11.33,0,0,1-.482-3.463,3.264,3.264,0,0,0-.366-1.806,1.936,1.936,0,0,0-1.72-.8Zm-7.953,6.849A7.406,7.406,0,0,1,33.34,28.8a2.446,2.446,0,0,1,.9-.258c-.162.375-.323.758-.473,1.146a6.711,6.711,0,0,0-.349,1.238Zm4.506,2.067c-.048,0-.148,0-.3-.159a1.942,1.942,0,0,1-.307-2.127c.382-1.088.689-1.814,1.457-2a2.983,2.983,0,0,1,.643-.1.676.676,0,0,1,.1.006,4.093,4.093,0,0,1,.174,1.629.989.989,0,0,0,.006.111,2.338,2.338,0,0,1-1.307,2.481,1.029,1.029,0,0,1-.461.155Z" transform="translate(0)"/>
  </g>
  <g>
    <path class="cls-1" d="M92.877,41.634a1.29,1.29,0,0,1-1.366-1.152c-.045-.422-.127-.841-.208-1.262a7.306,7.306,0,0,1-.137-3.159,9.985,9.985,0,0,0-.015-4.5,3.805,3.805,0,0,1-.062-.7c-.018-.742-.06-.861-.594-.861a2.707,2.707,0,0,1-.763-.145,2.076,2.076,0,0,0-.509-.108c-.084,0-.239,0-.4.483a.81.81,0,0,1-.792.587,2.087,2.087,0,0,1-.82-.24c-.1-.043-.189-.086-.274-.114a5.185,5.185,0,0,0-1.6-.333,3.339,3.339,0,0,0-1.7.548l.027.011c.683.264,1.323.512,1.952.784a11.329,11.329,0,0,1,2.522,1.5,3.774,3.774,0,0,1,1.531,3.51,4.837,4.837,0,0,1-2.907,3.708,6.718,6.718,0,0,1-2.673.721,3.459,3.459,0,0,1-2.532-1.116,4.37,4.37,0,0,1-.808-1.047,1.527,1.527,0,0,1,.43-2.147,1.644,1.644,0,0,1,.852-.262,1.325,1.325,0,0,1,1.236.932c.258.652.6.735.872.735a2.01,2.01,0,0,0,.81-.212l.2-.09c1.008-.453,1.623-.78,1.585-1.74s-.551-1.55-1.666-1.958c-.326-.12-.656-.23-.985-.342a12.75,12.75,0,0,1-3.294-1.476c-.639-.441-1.367-1.049-1.336-1.836s.795-1.3,1.367-1.637a6.058,6.058,0,0,1,3.095-1.029c.362,0,.668.027.975.05s.64.048.957.048a2.588,2.588,0,0,0,2.021-.741,1.08,1.08,0,0,1,.8-.268,2.543,2.543,0,0,1,.9.171,7.537,7.537,0,0,0,2.934.53,22.758,22.758,0,0,0,3.11-.292c.809-.113,1.644-.229,2.476-.277l.6-.04c.482-.034.965-.067,1.446-.067.214,0,.427.006.64.022a1.331,1.331,0,0,1,1.318,1.469,1.22,1.22,0,0,1-1.226,1.215,1.458,1.458,0,0,1-.43-.066,3.755,3.755,0,0,0-1.113-.157,10.213,10.213,0,0,0-1.8.218,11.038,11.038,0,0,1-1.976.235l-.2,0a1.446,1.446,0,0,0-1.092.335,1.412,1.412,0,0,0-.319,1.051c.018.86-.038,1.729-.092,2.568-.133,2.083-.258,4.049.626,5.949a1.312,1.312,0,0,1,.075,1.107,1.621,1.621,0,0,1-1.058.8A1.966,1.966,0,0,1,92.877,41.634Z" transform="translate(0)"/>
    <path class="cls-2" d="M88.663,27.268a2.039,2.039,0,0,1,.71.134,8.108,8.108,0,0,0,3.122.568c1.874,0,3.745-.463,5.614-.57.673-.039,1.343-.106,2.015-.106.2,0,.4.006.6.021a.832.832,0,0,1,.855.94.717.717,0,0,1-.727.746.97.97,0,0,1-.283-.044,4.264,4.264,0,0,0-1.26-.179c-1.267,0-2.5.453-3.771.453l-.168,0-.107,0a1.666,1.666,0,0,0-1.832,1.9c.059,2.916-.735,5.889.581,8.718.347.746-.131,1.039-.684,1.219a1.483,1.483,0,0,1-.456.075.791.791,0,0,1-.869-.705c-.15-1.413-.7-2.81-.356-4.252a10.521,10.521,0,0,0-.012-4.724c-.164-.758.26-1.958-1.143-1.959-.4,0-.858-.253-1.272-.253-.346,0-.659.177-.874.826a.311.311,0,0,1-.317.244,3.878,3.878,0,0,1-.937-.328,5.655,5.655,0,0,0-1.757-.359,5.12,5.12,0,0,0-2.817,1.15c1.054.416,1.986.759,2.9,1.152A10.752,10.752,0,0,1,87.83,33.36c2.41,1.888,1.414,5.158-1.273,6.369a6.2,6.2,0,0,1-2.467.677,2.937,2.937,0,0,1-2.176-.966,3.9,3.9,0,0,1-.719-.924,1.058,1.058,0,0,1,.247-1.495,1.141,1.141,0,0,1,.589-.188.83.83,0,0,1,.772.615A1.4,1.4,0,0,0,84.139,38.5a2.5,2.5,0,0,0,1.017-.257c.992-.453,2.134-.864,2.077-2.3a2.6,2.6,0,0,0-1.994-2.408,17.637,17.637,0,0,1-4.167-1.759c-1.479-1.024-1.508-1.755,0-2.63a5.608,5.608,0,0,1,2.843-.962h.053c.619.009,1.255.1,1.88.1a3.092,3.092,0,0,0,2.376-.889.643.643,0,0,1,.441-.12m0-1a1.553,1.553,0,0,0-1.152.417,2.083,2.083,0,0,1-1.664.592c-.292,0-.6-.023-.919-.046s-.634-.046-.946-.051h-.067a6.578,6.578,0,0,0-3.345,1.1,2.725,2.725,0,0,0-1.615,2.05,2.854,2.854,0,0,0,1.55,2.267,13.136,13.136,0,0,0,3.419,1.539c.325.11.651.219.973.337,1.141.418,1.318.972,1.339,1.509.024.593-.238.791-1.292,1.264l-.2.091a1.506,1.506,0,0,1-.6.167c-.1,0-.241,0-.407-.419a1.824,1.824,0,0,0-1.7-1.247,2.137,2.137,0,0,0-1.114.337,2.016,2.016,0,0,0-.614,2.8,4.843,4.843,0,0,0,.9,1.172,3.944,3.944,0,0,0,2.889,1.266,7.16,7.16,0,0,0,2.878-.765,5.338,5.338,0,0,0,3.2-4.1,4.312,4.312,0,0,0-1.719-3.964,11.819,11.819,0,0,0-2.632-1.565c-.278-.12-.558-.236-.84-.349a1.928,1.928,0,0,1,.365-.035,4.747,4.747,0,0,1,1.443.308c.07.023.146.06.226.1a2.513,2.513,0,0,0,1.026.284,1.307,1.307,0,0,0,1.267-.93c.016-.049.032-.089.045-.12.079.019.175.047.248.068a3.152,3.152,0,0,0,.9.165l.075,0c.012.108.016.259.018.371a4.191,4.191,0,0,0,.073.8,9.475,9.475,0,0,1,.017,4.281,7.8,7.8,0,0,0,.132,3.369c.083.425.16.827.2,1.22a1.791,1.791,0,0,0,1.864,1.6,2.471,2.471,0,0,0,.765-.124A2.076,2.076,0,0,0,95,40.936a1.8,1.8,0,0,0-.08-1.518c-.83-1.784-.709-3.689-.581-5.706.054-.85.11-1.729.092-2.61a1.019,1.019,0,0,1,.177-.691.991.991,0,0,1,.655-.186h.074c.067,0,.134,0,.2,0a11.461,11.461,0,0,0,2.065-.242,9.8,9.8,0,0,1,1.707-.21,3.268,3.268,0,0,1,.967.135,1.969,1.969,0,0,0,.575.088,1.723,1.723,0,0,0,1.725-1.684,1.824,1.824,0,0,0-1.781-2c-.225-.016-.451-.023-.676-.023-.506,0-1,.035-1.483.069-.2.014-.393.028-.59.039-.851.049-1.7.167-2.515.282a22.105,22.105,0,0,1-3.042.287,7.047,7.047,0,0,1-2.744-.493,3.033,3.033,0,0,0-1.088-.208Z" transform="translate(0)"/>
  </g>
  <g>
    <path class="cls-1" d="M104.007,56.608a.43.43,0,0,1-.134-.021v0a.6.6,0,0,1-.395-.393.525.525,0,0,1,.226-.53.544.544,0,0,1,.284-.083.458.458,0,0,1,.275.089.538.538,0,0,1,.176.65A.5.5,0,0,1,104.007,56.608Z" transform="translate(0)"/>
    <path class="cls-2" d="M103.967,56.068l.056.042c-.019-.006-.033,0-.051-.009,0-.011,0-.022-.005-.033m0-1a1,1,0,0,0-.986,1.165c0,.024.008.052.012.071a1,1,0,0,0,.73.766c.027.007.064.014.1.02a1,1,0,0,0,.8-1.782l-.056-.042a1,1,0,0,0-.6-.2Z" transform="translate(0)"/>
  </g>
  <g>
    <path class="cls-1" d="M111.98,58.963c-.108,0-.219-.006-.327-.012a1.8,1.8,0,0,1-1.892-1.517,14.542,14.542,0,0,1-.128-1.995l0-.223c-.018-.92-.023-1.84-.029-2.865l0-.378a4.36,4.36,0,0,0-.857,1.505c-.1.237-.188.469-.3.689-.443.9-.818,1.814-1.127,2.595-.21.53-.7,1.772-2.022,1.772a2.372,2.372,0,0,1-.428-.041c-1.192-.217-1.285-1.185-1.329-1.788-.046.042-.095.1-.152.159a2.377,2.377,0,0,1-.451.416A6.066,6.066,0,0,1,99.549,58.3a6.863,6.863,0,0,1-.843-.053,3.638,3.638,0,0,1-3.334-3.441c-.165-1.665-.211-3.277,1.031-4.685.485-.549,1.01-1.086,1.606-1.086a1.743,1.743,0,0,1,.209.023,9.425,9.425,0,0,0,1.717.174,7.151,7.151,0,0,1,2.795.5,3.767,3.767,0,0,1,1.871,2.525,8.042,8.042,0,0,1,.436-1.3c.043-.095.084-.2.126-.308.217-.554.544-1.392,1.4-1.392a1.957,1.957,0,0,1,1.146.467c.043-.044.093-.1.128-.142a2.743,2.743,0,0,1,.234-.247c.141-.125.276-.267.412-.409a2.606,2.606,0,0,1,1.833-1.062,2.032,2.032,0,0,1,.917.238c1.364.692,1.2,1.94,1.082,2.852-.026.2-.053.4-.065.6-.061.958-.044,1.947-.028,2.9l.013,1.053c0,.44.018.565.221.689a1.527,1.527,0,0,1,.872,1.967,1.34,1.34,0,0,1-1.341.791Zm-13.515-6.61c-.023,0-.1,0-.221.139a2.875,2.875,0,0,0-.01,2.572,1.376,1.376,0,0,0,1.188.741,1.93,1.93,0,0,0,.692-.145,6.516,6.516,0,0,0,1.2-.57,1.789,1.789,0,0,0,.723-2.066c-.354-.7-.765-.7-.9-.7a1.491,1.491,0,0,0-.621.162,2.04,2.04,0,0,1-.876.2,2.121,2.121,0,0,1-.687-.118.507.507,0,0,1-.115-.057A.741.741,0,0,0,98.466,52.353Z" transform="translate(0)"/>
    <path class="cls-2" d="M110.314,48.374a1.52,1.52,0,0,1,.69.184c1.292.656.813,1.872.744,2.969-.08,1.275-.029,2.558-.017,3.838,0,.466-.06.948.459,1.266.477.292.973.653.674,1.342a.838.838,0,0,1-.885.49c-.116,0-.235-.008-.35-.014a1.3,1.3,0,0,1-1.375-1.093,15.747,15.747,0,0,1-.126-2.149c-.026-1.313-.025-2.627-.038-4.245-1.474.861-1.627,2.034-2.1,2.984-.424.857-.792,1.744-1.144,2.633-.309.782-.709,1.455-1.558,1.455a1.885,1.885,0,0,1-.337-.032c-1.087-.2-.834-1.172-.984-1.9.018,0,.033,0,.051.009a.45.45,0,0,1-.034-.062.141.141,0,0,1,.089-.046c.059,0,.074.082.077.082s0-.029,0-.121a.337.337,0,0,0-.038-.143h0c-.159.018-.2.1-.126.227a.248.248,0,0,0-.023.019l.057.043-.056-.042c0,.01,0,.022.005.033a.844.844,0,0,0-.212-.029c-.512,0-.728.547-1.1.792a5.559,5.559,0,0,1-3.11.935,6.4,6.4,0,0,1-.781-.049,3.145,3.145,0,0,1-2.9-2.993c-.15-1.511-.225-3.021.908-4.3.362-.41.833-.917,1.232-.917a.436.436,0,0,1,.1.011c1.461.334,3.015,0,4.414.645,1.151.531,1.392,1.674,1.776,2.712.127.343.2.708.349,1.265a21.055,21.055,0,0,1,.847-3c.246-.546.438-1.406,1.068-1.406a1.572,1.572,0,0,1,.907.414.393.393,0,0,0,.242.1c.274,0,.48-.372.689-.556.6-.53,1.11-1.346,1.914-1.346M99.637,52.189a1.614,1.614,0,0,1-.525-.091,1.206,1.206,0,0,0-.646-.244.786.786,0,0,0-.6.307,3.326,3.326,0,0,0-.056,3.174,1.873,1.873,0,0,0,1.609.971,2.417,2.417,0,0,0,.875-.179,6.966,6.966,0,0,0,1.287-.617,2.267,2.267,0,0,0,.9-2.71,1.513,1.513,0,0,0-1.346-.976,1.969,1.969,0,0,0-.834.21,1.542,1.542,0,0,1-.664.155m4.335,3.912h.005m6.337-8.727a3.082,3.082,0,0,0-2.195,1.217c-.126.132-.252.264-.382.38-.037.033-.075.07-.113.109a2.127,2.127,0,0,0-1.062-.313h0c-1.2,0-1.63,1.113-1.864,1.711-.039.1-.076.2-.115.283l-.032.071a3.413,3.413,0,0,0-1.61-1.549,7.641,7.641,0,0,0-2.984-.549,9.1,9.1,0,0,1-1.626-.162,1.44,1.44,0,0,0-.32-.036,2.867,2.867,0,0,0-1.982,1.255,6.2,6.2,0,0,0-1.154,5.065,4.159,4.159,0,0,0,3.771,3.887,7.425,7.425,0,0,0,.9.056,6.562,6.562,0,0,0,3.659-1.1l0,0a1.891,1.891,0,0,0,1.565,1.29,2.9,2.9,0,0,0,.516.048,2.778,2.778,0,0,0,2.488-2.088c.305-.773.676-1.681,1.11-2.557.079-.16.151-.325.22-.494,0,.451.01.891.018,1.331l0,.232a14.629,14.629,0,0,0,.134,2.054,2.3,2.3,0,0,0,2.309,1.935c.167.009.286.015.4.015a1.8,1.8,0,0,0,1.8-1.093c.437-1.009.085-1.876-1.046-2.578-.007-.071-.006-.19-.006-.275v-.163c0-.3-.008-.6-.013-.9-.016-.992-.032-1.93.027-2.87.012-.185.037-.373.062-.562.123-.939.328-2.511-1.351-3.363a2.521,2.521,0,0,0-1.143-.292ZM99.637,53.189a2.544,2.544,0,0,0,1.09-.25.99.99,0,0,1,.408-.114c.059,0,.238,0,.453.426a1.29,1.29,0,0,1-.549,1.422,6.11,6.11,0,0,1-1.1.522,1.437,1.437,0,0,1-.512.111c-.12,0-.44,0-.766-.51a2.66,2.66,0,0,1-.094-1.862,1,1,0,0,0,.225.11,2.621,2.621,0,0,0,.849.145Z" transform="translate(0)"/>
  </g>
  <g>
    <path class="cls-1" d="M126.8,41.079a6.8,6.8,0,0,1-6.564-5.53,15.277,15.277,0,0,1-.26-2.139,9.705,9.705,0,0,0-.515-2.919,1.626,1.626,0,0,1,.111-1.46,2,2,0,0,1,1.513-.922c.2-.024.406-.053.609-.083a10.857,10.857,0,0,1,1.553-.146,4.9,4.9,0,0,1,.809.064l.712.115a15.993,15.993,0,0,1,4.691,1.246,2.542,2.542,0,0,1,1.576,1.94,2.718,2.718,0,0,1-1.257,2.348,2.833,2.833,0,0,1-.924.428,3.043,3.043,0,0,0-.535.207,7.325,7.325,0,0,1,1.885,2.5,3.1,3.1,0,0,1,.117,2.743,2.962,2.962,0,0,1-2.211,1.484,6.9,6.9,0,0,1-1.31.127Zm-2.254-5.521a1.1,1.1,0,0,1,.136.123,1.334,1.334,0,0,1,.31,1.048c-.06.836.353,1.015,1.292,1.34l.112.039a1.2,1.2,0,0,0,.4.074.777.777,0,0,0,.682-.4c.049-.078.2-.315-.38-.816A6.737,6.737,0,0,0,124.543,35.557Zm-1.366-.184a.627.627,0,0,0-.023.173l.04-.019a2.013,2.013,0,0,1,.382-.135,2.329,2.329,0,0,0-.269-.035h0A.353.353,0,0,0,123.177,35.374Zm.49-4.435c-.562.022-.616.2-.635.475-.011.157-.021.306.468.431a6.616,6.616,0,0,0,1.633.237,3.431,3.431,0,0,0,1.957-.566,7.213,7.213,0,0,0-2.989-.585C123.957,30.931,123.811,30.934,123.667,30.939Z" transform="translate(0)"/>
    <path class="cls-2" d="M123.244,28.379a4.43,4.43,0,0,1,.727.057,18.376,18.376,0,0,1,5.263,1.315c1.675.829,1.727,2.29.236,3.445-.566.439-1.419.316-1.915,1.07a6.732,6.732,0,0,1,2.194,2.671c.813,1.729.132,3.164-1.737,3.524a6.415,6.415,0,0,1-1.215.118,6.268,6.268,0,0,1-6.076-5.136c-.369-1.7-.136-3.462-.8-5.137a1.287,1.287,0,0,1,1.217-1.7,17.951,17.951,0,0,1,2.1-.225m1.89,4.2A3.992,3.992,0,0,0,128,31.422a7.5,7.5,0,0,0-3.9-.991q-.227,0-.455.009c-.617.024-1.067.245-1.115.94-.041.6.367.828.842.95a7.122,7.122,0,0,0,1.758.252m-2.164,3.531a1.126,1.126,0,0,0,.436-.131,1.192,1.192,0,0,1,.5-.127c.4,0,.625.323.589.838-.093,1.307.815,1.565,1.738,1.887a1.7,1.7,0,0,0,.561.1,1.274,1.274,0,0,0,1.1-.63c.359-.566-.065-1.108-.475-1.462a6.835,6.835,0,0,0-3.065-1.58c-.717-.105-.873-.144-1.031-.148h-.036c-.488,0-.645.306-.633.753.01.367.125.5.315.5m.275-8.734a11.222,11.222,0,0,0-1.625.152c-.2.029-.4.057-.6.081a2.492,2.492,0,0,0-1.883,1.163,2.142,2.142,0,0,0-.147,1.9,9.313,9.313,0,0,1,.48,2.77,15.7,15.7,0,0,0,.27,2.21,7.29,7.29,0,0,0,7.053,5.924,7.441,7.441,0,0,0,1.4-.136,3.487,3.487,0,0,0,2.562-1.749,3.584,3.584,0,0,0-.109-3.183,7.993,7.993,0,0,0-1.412-2.094,2.855,2.855,0,0,0,.839-.431,3.191,3.191,0,0,0,1.448-2.793,3.018,3.018,0,0,0-1.852-2.339,16.381,16.381,0,0,0-4.834-1.291c-.237-.038-.473-.075-.709-.114a5.393,5.393,0,0,0-.891-.07Zm.678,4.053.181,0a7.712,7.712,0,0,1,1.444.128,3.5,3.5,0,0,1-.413.024,5.629,5.629,0,0,1-1.211-.15Zm2.867,6.248a.729.729,0,0,1-.232-.046l-.114-.04c-.991-.343-.985-.418-.956-.832a2.481,2.481,0,0,0,0-.289,6.893,6.893,0,0,1,1.273.87,1.433,1.433,0,0,1,.231.243.248.248,0,0,1-.206.093Z" transform="translate(0)"/>
  </g>
  <g>
    <path class="cls-1" d="M5.549,37.123a4.431,4.431,0,0,1-3.454-1.455A6.25,6.25,0,0,1,.957,30.594c.357-2.675,2.329-4.4,4.209-5.737a2.561,2.561,0,0,1,1.1-.422,1.346,1.346,0,0,1,.185-.013,1.4,1.4,0,0,1,1.264.907,1.055,1.055,0,0,1,.042.9A1.293,1.293,0,0,1,6.9,26.9c-1.649.516-2.637,1.631-3.3,3.729a3.218,3.218,0,0,0,.344,2.9A2.483,2.483,0,0,0,6.01,34.542a3.705,3.705,0,0,0,1.267-.24,3.476,3.476,0,0,0,.33-.146,8.465,8.465,0,0,1,1-5.917c.317-.535.908-1.532,1.958-1.532a2.273,2.273,0,0,1,1.206.4.826.826,0,0,0,.435.134.7.7,0,0,0,.264-.052,3.243,3.243,0,0,1,1.218-.268,2.336,2.336,0,0,1,1.884,1.014,4.207,4.207,0,0,1,.993,3.482c-.531,2.968-2.523,4.74-5.33,4.74-.177,0-.356-.007-.54-.021-.092-.007-.182-.01-.271-.01a6.779,6.779,0,0,0-2.136.462,11.055,11.055,0,0,1-1.541.427A6.844,6.844,0,0,1,5.549,37.123Zm7.88-7.093c-.162,0-.229,0-.238.34a5.983,5.983,0,0,1-.884,2.809,2.464,2.464,0,0,0,1.387-.846,2,2,0,0,0,.3-1.76c-.12-.474-.267-.521-.476-.54Z" transform="translate(0)"/>
    <path class="cls-2" d="M6.449,24.922a.928.928,0,0,1,.811.621c.237.5-.126.764-.506.883-2.026.634-3.013,2.112-3.628,4.056-.77,2.433.636,4.561,2.884,4.561a4.2,4.2,0,0,0,1.439-.27c.219-.08.425-.2.718-.331a8.168,8.168,0,0,1,.868-5.947c.407-.688.849-1.287,1.527-1.287a1.8,1.8,0,0,1,.941.321,1.32,1.32,0,0,0,.7.209,1.2,1.2,0,0,0,.45-.088,2.777,2.777,0,0,1,1.031-.231,1.831,1.831,0,0,1,1.49.82,3.71,3.71,0,0,1,.9,3.087c-.475,2.662-2.211,4.328-4.838,4.328q-.246,0-.5-.02c-.1-.008-.207-.012-.309-.012-1.357,0-2.5.672-3.765.9a6.331,6.331,0,0,1-1.106.1c-2.885,0-4.595-2.251-4.1-5.963.326-2.428,2.085-4.032,4-5.4a2.045,2.045,0,0,1,.878-.334.851.851,0,0,1,.116-.008M11.33,33.8c2.316-.042,3.613-1.5,3.145-3.354-.125-.5-.347-.865-.916-.915-.046,0-.089-.006-.131-.006-.513,0-.723.3-.738.827A6.622,6.622,0,0,1,11.33,33.8m-1.2-1.258c.39-.033.5-.331.565-.624s.055-.639-.283-.768a.594.594,0,0,0-.21-.043c-.227,0-.362.179-.367.472-.006.349-.138.75.3.963M6.449,23.922a1.849,1.849,0,0,0-.252.017,3.027,3.027,0,0,0-1.321.51C2.908,25.847.845,27.662.461,30.527A6.729,6.729,0,0,0,1.719,36a4.913,4.913,0,0,0,3.829,1.625,7.358,7.358,0,0,0,1.281-.117,11.433,11.433,0,0,0,1.611-.445,6.416,6.416,0,0,1,1.979-.437q.115,0,.232.009.3.023.579.023c3.069,0,5.246-1.926,5.822-5.153a4.729,4.729,0,0,0-1.09-3.876,2.814,2.814,0,0,0-2.28-1.207,3.731,3.731,0,0,0-1.405.3.2.2,0,0,1-.075.015.331.331,0,0,1-.17-.057,2.791,2.791,0,0,0-1.471-.473,2.963,2.963,0,0,0-2.387,1.777,8.966,8.966,0,0,0-1.117,5.866,3.177,3.177,0,0,1-1.047.192,2,2,0,0,1-1.66-.8,2.73,2.73,0,0,1-.27-2.456c.608-1.924,1.5-2.942,2.974-3.4a1.753,1.753,0,0,0,1.16-.949,1.57,1.57,0,0,0-.048-1.314,1.894,1.894,0,0,0-1.716-1.195Z" transform="translate(0)"/>
  </g>
  <g>
    <path class="cls-1" d="M61.317,57.857a2.1,2.1,0,0,1-2.015-1.74c-.279-1.1-.579-2.2-.878-3.3-.2-.736-.4-1.473-.6-2.21a3.356,3.356,0,0,1,.141-2.688,3.232,3.232,0,0,1,2.36-1.21,10.026,10.026,0,0,1,1.534-.123,9.226,9.226,0,0,1,4.278,1.077,2.809,2.809,0,0,1,1.844,2.67,2.853,2.853,0,0,1-2.364,2.5,7.4,7.4,0,0,1-1.363.339,3.013,3.013,0,0,0,1.753.507c.082,0,.4-.01.4-.01a1.64,1.64,0,0,1,1.2.422,1.291,1.291,0,0,1,.356.957c-.012,1.052-.918,1.186-1.354,1.25-.092.014-.184.027-.271.046a3.063,3.063,0,0,1-.663.073,5.182,5.182,0,0,1-2.089-.569,7.731,7.731,0,0,0-.813-.322.2.2,0,0,0-.033.022c0,.008.008.1.011.157.022.62.07,2.016-1.215,2.142C61.462,57.853,61.389,57.857,61.317,57.857Zm1.321-8.485c-.267,0-.535.019-.8.037l-.219.015a.312.312,0,0,0-.327.282c0,.049-.02.2.357.341a3.891,3.891,0,0,0,1.358.266,3.239,3.239,0,0,0,1.411-.333A2.409,2.409,0,0,0,62.639,49.372Z" transform="translate(0)"/>
    <path class="cls-2" d="M61.864,47.083A8.711,8.711,0,0,1,65.915,48.1a2.4,2.4,0,0,1,1.572,2.2c-.059,1.239-.986,1.7-2.027,2.052a6.408,6.408,0,0,1-2.237.382l-.207,0a3.785,3.785,0,0,0,2.994,1.44q.136,0,.275-.007.06,0,.121,0c.548,0,1.064.2,1.056.874-.009.769-.7.7-1.233.814a2.535,2.535,0,0,1-.554.061c-1.1,0-2.018-.692-2.93-.917-.574.181-.5.505-.49.816.022.657,0,1.459-.769,1.534q-.086.008-.17.008a1.592,1.592,0,0,1-1.531-1.363c-.467-1.846-.99-3.678-1.474-5.519-.473-1.8-.2-2.918,2.094-3.276a9.428,9.428,0,0,1,1.457-.117m1.144,3.729a3.961,3.961,0,0,0,2.2-.7,2.9,2.9,0,0,0-2.566-1.238c-.35,0-.7.03-1.05.052a.8.8,0,0,0-.794.733c-.045.462.318.724.682.859a4.4,4.4,0,0,0,1.531.3m-1.144-4.729a10.49,10.49,0,0,0-1.611.129,3.686,3.686,0,0,0-2.7,1.43,3.792,3.792,0,0,0-.205,3.089c.2.745.4,1.489.6,2.232.3,1.091.594,2.181.871,3.277a2.575,2.575,0,0,0,2.5,2.118q.131,0,.267-.013c.731-.072,1.58-.5,1.666-2.1l.135.059a5.583,5.583,0,0,0,2.289.61,3.552,3.552,0,0,0,.771-.085c.075-.017.155-.028.235-.039a1.8,1.8,0,0,0,1.28-3.053,2.1,2.1,0,0,0-1.555-.571q-.086,0-.172,0l-.087,0a3.159,3.159,0,0,0,2.338-2.822,3.275,3.275,0,0,0-2.116-3.14,9.718,9.718,0,0,0-4.506-1.131Z" transform="translate(0)"/>
  </g>
  <g>
    <path class="cls-1" d="M49.753,13.605a6.271,6.271,0,0,1-1.268-.173c-.212-.044-.425-.088-.636-.118a1.617,1.617,0,0,1-1.591-1.738,1.7,1.7,0,0,1,1.61-1.728,5.876,5.876,0,0,1,.86-.082,1.211,1.211,0,0,1,.979.342,2.022,2.022,0,0,0,1.611.9,4.875,4.875,0,0,0,1.826-.547c.2-.087.4-.176.608-.258a8.614,8.614,0,0,0-3.07-1.212c-.526-.134-1.07-.272-1.6-.457l-.2-.068A6.662,6.662,0,0,1,45.6,6.522a1.607,1.607,0,0,1,.047-2.342,9.183,9.183,0,0,1,6.962-2.858c.338,0,.682.014,1.029.041a1.127,1.127,0,0,1,1.081,1.116,1.18,1.18,0,0,1-1.067,1.048c-1.208.242-2.357.473-3.462.767a4.29,4.29,0,0,0-1.341.627c-.24.17-.3.3-.3.347s.068.162.313.311a11.652,11.652,0,0,0,3.426,1.264l.479.113a8.959,8.959,0,0,1,3.485,1.358,2.51,2.51,0,0,1,1.245,1.91,2.5,2.5,0,0,1-1.21,1.924,8.036,8.036,0,0,1-4.74,1.32c-.485.029-.97.058-1.447.117A2.84,2.84,0,0,1,49.753,13.605Z" transform="translate(0)"/>
    <path class="cls-2" d="M52.608,1.822q.489,0,.992.039a.634.634,0,0,1,.62.6c-.008.3-.309.5-.666.571-1.169.234-2.341.467-3.493.774a4.763,4.763,0,0,0-1.5.7c-.655.464-.722,1.027.042,1.492a12.228,12.228,0,0,0,3.569,1.323,9.9,9.9,0,0,1,3.784,1.387c1.374,1.022,1.4,1.983.029,3.037-1.764,1.356-3.923,1.09-5.943,1.337a2.357,2.357,0,0,1-.287.017,13.682,13.682,0,0,1-1.833-.286c-.716-.1-1.172-.438-1.162-1.236a1.213,1.213,0,0,1,1.187-1.241,5.369,5.369,0,0,1,.784-.075.805.805,0,0,1,.6.164,2.545,2.545,0,0,0,1.994,1.079c1.149,0,2.276-.839,3.425-1.1-1.58-1.638-3.65-1.7-5.493-2.343a6.6,6.6,0,0,1-3.264-1.854,1.117,1.117,0,0,1,.018-1.682,8.749,8.749,0,0,1,6.6-2.705m0-1a9.784,9.784,0,0,0-7.321,3.011,2.105,2.105,0,0,0-.078,3,7.148,7.148,0,0,0,3.516,2.1l.2.069c.548.192,1.1.333,1.64.47a12.166,12.166,0,0,1,2.078.66,3.643,3.643,0,0,1-1.319.372c-.29,0-.691-.082-1.229-.722a1.738,1.738,0,0,0-1.362-.52,6.278,6.278,0,0,0-.937.087,2.195,2.195,0,0,0-2.034,2.216,2.116,2.116,0,0,0,2.021,2.239c.2.028.4.071.6.113a6.743,6.743,0,0,0,1.371.184,3.357,3.357,0,0,0,.409-.024c.456-.056.922-.084,1.415-.114a8.549,8.549,0,0,0,5.015-1.423A2.951,2.951,0,0,0,58,10.219a2.959,2.959,0,0,0-1.447-2.307,9.342,9.342,0,0,0-3.668-1.444l-.478-.113A11.69,11.69,0,0,1,49.27,5.239a3.789,3.789,0,0,1,1.048-.462c1.091-.291,2.234-.52,3.34-.742l.092-.018A1.659,1.659,0,0,0,55.219,2.49,1.627,1.627,0,0,0,53.676.864c-.362-.028-.721-.042-1.068-.042Z" transform="translate(0)"/>
  </g>
  <g>
    <path class="cls-1" d="M87.721,60.465A1.533,1.533,0,0,1,86.208,59.3a23.4,23.4,0,0,1-.9-5.521c-.015-.267-.014-.535-.012-.8,0-.214,0-.428,0-.642-.037-.942-.3-.942-.428-.942a1.474,1.474,0,0,0-.513.12,2.176,2.176,0,0,1-.779.154,1.79,1.79,0,0,1-1.294-.558,1.548,1.548,0,0,1-.232-1.9,1.467,1.467,0,0,1,1.349-.862,1.8,1.8,0,0,1,.418.051,11.161,11.161,0,0,0,2.61.27c.793,0,1.607-.055,2.395-.107.428-.029.854-.057,1.281-.078a4.956,4.956,0,0,0,1.691-.266,2.906,2.906,0,0,1,1.069-.244,1.228,1.228,0,0,1,1.01.446,2.072,2.072,0,0,1,.2,1.785,11.817,11.817,0,0,0,.2,4.981l.02.1c.09.462.141.633.359.74.638.312.972.679,1.021,1.123a1.276,1.276,0,0,1-.594,1.129,1.843,1.843,0,0,1-1.158.442h0a1.89,1.89,0,0,1-1.431-.73,2.683,2.683,0,0,1-.576-1.608l-.027-.227c-.174-1.322-.329-2.646-.494-4.057l-.132-1.119c-.227.037-.45.088-.668.138a5.936,5.936,0,0,1-1.333.2c-.1,0-.2,0-.3-.015-.066-.006-.132-.01-.2-.01a1.061,1.061,0,0,0-.795.278.859.859,0,0,0-.181.683c.046.512.051,1.035.056,1.56.012,1.5.022,2.911,1.044,4.048a1.693,1.693,0,0,1,.539,1.4,1.324,1.324,0,0,1-.734.94A2.025,2.025,0,0,1,87.721,60.465Z" transform="translate(0)"/>
    <path class="cls-2" d="M92.862,48.475c.693,0,.966.557.724,1.621a12.156,12.156,0,0,0,.2,5.189c.1.486.155.951.65,1.193.7.34,1.093.806.334,1.412a1.36,1.36,0,0,1-.846.333,1.425,1.425,0,0,1-1.055-.561,2.673,2.673,0,0,1-.483-1.569c-.238-1.811-.441-3.626-.684-5.661-.895.045-1.644.386-2.44.386-.083,0-.167,0-.251-.012s-.165-.012-.245-.012A1.321,1.321,0,0,0,87.294,52.3c.182,2-.3,4.2,1.226,5.9.574.639.585,1.206-.065,1.567a1.531,1.531,0,0,1-.734.2,1.041,1.041,0,0,1-1.034-.808,23.069,23.069,0,0,1-.876-5.4c-.026-.478,0-.958-.016-1.437-.032-.82-.247-1.423-.927-1.423a1.967,1.967,0,0,0-.692.152,1.674,1.674,0,0,1-.6.121,1.3,1.3,0,0,1-.941-.413,1.062,1.062,0,0,1-.136-1.32.965.965,0,0,1,.9-.582,1.313,1.313,0,0,1,.3.037,11.759,11.759,0,0,0,2.726.283c1.233,0,2.467-.126,3.7-.186a5.391,5.391,0,0,0,1.856-.3,2.414,2.414,0,0,1,.88-.208m0-1a3.344,3.344,0,0,0-1.257.281,4.258,4.258,0,0,1-1.433.225l-.1,0c-.431.021-.862.05-1.293.079-.814.055-1.583.106-2.358.106a10.657,10.657,0,0,1-2.5-.256,2.318,2.318,0,0,0-.532-.064,1.975,1.975,0,0,0-1.8,1.142,2.04,2.04,0,0,0,.329,2.469,2.3,2.3,0,0,0,1.646.7,2.673,2.673,0,0,0,.959-.188,1.684,1.684,0,0,1,.21-.067,2.365,2.365,0,0,1,.051.443c.008.207.006.414,0,.621,0,.278,0,.555.012.832a23.975,23.975,0,0,0,.917,5.638,2.037,2.037,0,0,0,1.992,1.52,2.527,2.527,0,0,0,1.219-.327,1.807,1.807,0,0,0,.984-1.295,2.149,2.149,0,0,0-.66-1.815c-.895-1-.9-2.257-.917-3.718,0-.522-.008-1.062-.057-1.6a.46.46,0,0,1,.051-.3.608.608,0,0,1,.426-.116q.073,0,.148.007c.117.011.232.017.348.017a6.323,6.323,0,0,0,1.444-.21l.124-.028.077.649c.163,1.387.316,2.693.487,4l.026.216a3.18,3.18,0,0,0,.7,1.884,2.251,2.251,0,0,0,3.275.349,1.737,1.737,0,0,0,.78-1.575,2.005,2.005,0,0,0-1.3-1.518,3.173,3.173,0,0,1-.089-.388l-.02-.1a11.235,11.235,0,0,1-.206-4.772,2.532,2.532,0,0,0-.3-2.208,1.745,1.745,0,0,0-1.4-.635Z" transform="translate(0)"/>
  </g>
  <g>
    <path class="cls-1" d="M58.67,36.559a1.4,1.4,0,0,1-1.4-1.376,4.352,4.352,0,0,1,.083-1.079,13.377,13.377,0,0,0-.6-6.421,3.55,3.55,0,0,0-1.217,1.947l-.077.217a29.531,29.531,0,0,0-.939,3.39,4.678,4.678,0,0,1-.839,1.941,1.6,1.6,0,0,1-1.24.626A1.212,1.212,0,0,1,51.2,34.557a28.172,28.172,0,0,0-.467-4.229,35.209,35.209,0,0,1-.449-3.547,1.314,1.314,0,0,1,1.223-1.54l.118,0a1.438,1.438,0,0,1,1.4,1.16,3.955,3.955,0,0,1,.12,1.455,3.761,3.761,0,0,0,.025.913l.022-.065c.03-.084.06-.168.095-.245.075-.164.136-.338.2-.512a3.889,3.889,0,0,1,.531-1.107c.1-.138.209-.283.314-.429.64-.887,1.436-1.992,2.785-1.992a2.655,2.655,0,0,1,.526.054c1.773.359,1.933,2.038,2.05,3.264l.028.292c.058.549.13,1.1.2,1.645a23.648,23.648,0,0,1,.3,4.367c-.007.131-.006.263-.006.4a4.65,4.65,0,0,1-.053.861,1.415,1.415,0,0,1-1.4,1.27Z" transform="translate(0)"/>
    <path class="cls-2" d="M57.112,24.913a2.157,2.157,0,0,1,.428.045c1.53.309,1.552,1.889,1.68,3.118a38,38,0,0,1,.5,5.934,9.27,9.27,0,0,1-.052,1.193.924.924,0,0,1-.911.86l-.063,0a.9.9,0,0,1-.923-.906,3.761,3.761,0,0,1,.074-.951c.5-2.417-.049-4.715-.783-7.261a3.836,3.836,0,0,0-2.074,2.734,29.939,29.939,0,0,0-.956,3.448,4.187,4.187,0,0,1-.741,1.74,1.109,1.109,0,0,1-.85.439.713.713,0,0,1-.742-.752c-.023-2.643-.764-5.186-.917-7.8-.031-.524.163-.971.758-1.012l.084,0c.493,0,.756.321.921.818.316.951-.214,2.036.38,2.918.649-.007.661-.478.813-.812a7.771,7.771,0,0,1,.671-1.523c.728-.956,1.419-2.224,2.7-2.224m0-1c-1.6,0-2.521,1.271-3.19,2.2-.1.143-.205.285-.308.42l-.03.04a2.9,2.9,0,0,0-.089-.332,1.916,1.916,0,0,0-1.87-1.5c-.05,0-.1,0-.152.005a1.8,1.8,0,0,0-1.688,2.068,35.681,35.681,0,0,0,.455,3.6,27.5,27.5,0,0,1,.46,4.153A1.715,1.715,0,0,0,52.443,36.3a2.1,2.1,0,0,0,1.63-.813,5.134,5.134,0,0,0,.937-2.144,29.22,29.22,0,0,1,.923-3.333l.078-.219a5.756,5.756,0,0,1,.491-1.134A11.682,11.682,0,0,1,56.868,34a4.79,4.79,0,0,0-.093,1.206,1.9,1.9,0,0,0,1.867,1.851c.04,0,.08,0,.119,0a1.912,1.912,0,0,0,1.894-1.678,5.061,5.061,0,0,0,.062-.953c0-.123,0-.247.005-.37a24.091,24.091,0,0,0-.307-4.458c-.072-.543-.144-1.087-.2-1.631l-.028-.286c-.116-1.225-.311-3.276-2.448-3.708a3.171,3.171,0,0,0-.626-.064Z" transform="translate(0)"/>
  </g>
  <g>
    <path class="cls-1" d="M118.781,62.113c-2.188,0-2.632-1.687-2.773-3.158a.5.5,0,0,1,.8-.449,3.856,3.856,0,0,0,2.332.856,7.664,7.664,0,0,0,3.489-1.25c.294-.159.445-.3.466-.411s-.083-.339-.293-.585a8.047,8.047,0,0,0-2.218-1.868c-1.171-.662-2.308-1.41-3.265-2.055-1.451-.979-1.728-1.963-1.7-2.617a3.013,3.013,0,0,1,1.835-2.435,7.093,7.093,0,0,1,3.569-.952,8.1,8.1,0,0,1,1.138.083,1.353,1.353,0,0,1,1.295,1.461,1.271,1.271,0,0,1-1.248,1.135c-.852.153-1.7.315-2.548.5-.46.1-.734.171-.8.364-.072.227-.008.438.537.846a16.01,16.01,0,0,0,1.661,1.04l.1.06a15.989,15.989,0,0,1,3.934,2.939,3.265,3.265,0,0,1,1.038,2.619,2.723,2.723,0,0,1-1.437,1.935,13.032,13.032,0,0,1-5.352,1.914,5.192,5.192,0,0,1-.561.032Z" transform="translate(0)"/>
    <path class="cls-2" d="M121.016,47.69a7.524,7.524,0,0,1,1.066.078c.517.074.9.349.867.934-.031.493-.423.6-.837.675-.857.154-1.713.317-2.565.5-.464.1-1.008.2-1.168.7-.2.633.273,1.067.714,1.4a17.285,17.285,0,0,0,1.818,1.133,15.324,15.324,0,0,1,3.813,2.844c1.3,1.417,1.261,2.847-.29,3.787a12.562,12.562,0,0,1-5.145,1.844,4.8,4.8,0,0,1-.508.029c-1.433,0-2.092-.789-2.277-2.706a4.324,4.324,0,0,0,2.63.955,8.232,8.232,0,0,0,3.779-1.338c.8-.434.9-.984.264-1.732a8.613,8.613,0,0,0-2.353-1.979c-1.107-.625-2.176-1.322-3.231-2.034-2.017-1.36-1.974-3.014.1-4.2a6.575,6.575,0,0,1,3.32-.885m0-1a7.584,7.584,0,0,0-3.818,1.018,3.479,3.479,0,0,0-2.086,2.851c-.028.78.282,1.943,1.924,3.049.961.648,2.1,1.4,3.3,2.075a7.57,7.57,0,0,1,2.083,1.757,1.717,1.717,0,0,1,.115.15c-.026.016-.057.035-.094.055l-.052.028a7.337,7.337,0,0,1-3.25,1.189A3.375,3.375,0,0,1,117.1,58.1a1,1,0,0,0-1.592.9c.086.893.348,3.61,3.272,3.61a5.8,5.8,0,0,0,.614-.035,13.527,13.527,0,0,0,5.557-1.983,3.2,3.2,0,0,0,1.673-2.292,3.667,3.667,0,0,0-1.164-3.027,16.445,16.445,0,0,0-4.054-3.036l-.1-.059a15.364,15.364,0,0,1-1.611-1.006,2.549,2.549,0,0,1-.285-.24c.1-.027.216-.052.3-.071.8-.172,1.629-.333,2.579-.5,1.046-.188,1.6-.725,1.659-1.6a1.841,1.841,0,0,0-1.724-1.987,8.562,8.562,0,0,0-1.208-.088Z" transform="translate(0)"/>
  </g>
  <g>
    <path class="cls-1" d="M106.933,39.979a1.954,1.954,0,0,1-1.65-.946,5.916,5.916,0,0,1-.879-1.873l-.049-.221a30.7,30.7,0,0,0-1.876-6.285,1.543,1.543,0,0,1,.439-2.033,8.228,8.228,0,0,1,7.594-.711,2.884,2.884,0,0,1,1.765,2.527,2.792,2.792,0,0,1-1.541,2.48c-.392.208-.792.4-1.192.594-.318.153-.637.306-.951.468a3.11,3.11,0,0,1-1.177.278,2.759,2.759,0,0,0-.94.2l.016.084c.247,1.347.46,2.51,1.589,3.3a1.046,1.046,0,0,1,.542,1.04c-.106.662-.879.942-1.112,1.012a2.018,2.018,0,0,1-.576.086Zm1.058-10.008a2.487,2.487,0,0,0-1.571.408c-.492.418-.611.57-.521.834.067.2.156.3.454.3a1.944,1.944,0,0,0,.337-.035l.248-.043a3.537,3.537,0,0,0,1.722-.6c.078-.064.165-.123.252-.181a1.2,1.2,0,0,0,.235-.185c-.042-.173-.3-.294-.518-.367a3.106,3.106,0,0,0-.527-.111Z" transform="translate(0)"/>
    <path class="cls-2" d="M107.422,27.8a6.7,6.7,0,0,1,2.869.561,2.23,2.23,0,0,1,.211,4.118c-.7.373-1.431.695-2.138,1.059s-1.605.054-2.444.675c.3,1.553.446,3.043,1.872,4.041.736.515.134.995-.427,1.163a1.506,1.506,0,0,1-.433.065,1.46,1.46,0,0,1-1.23-.717,5.515,5.515,0,0,1-.811-1.711,31.969,31.969,0,0,0-1.959-6.608A1.053,1.053,0,0,1,103.244,29a6.8,6.8,0,0,1,4.178-1.2m-1.07,4.215a2.454,2.454,0,0,0,.426-.042,4.451,4.451,0,0,0,2.2-.75c.3-.244.748-.4.653-.858a1.118,1.118,0,0,0-.84-.735,5.139,5.139,0,0,0-.769-.158A3,3,0,0,0,106.1,30c-.413.351-.891.731-.672,1.376a.88.88,0,0,0,.927.638m1.07-5.215a7.658,7.658,0,0,0-4.829,1.444,2.033,2.033,0,0,0-.567,2.623,29.923,29.923,0,0,1,1.844,6.2l.046.207a6.466,6.466,0,0,0,.947,2.035,2.447,2.447,0,0,0,2.071,1.175,2.509,2.509,0,0,0,.719-.107,1.905,1.905,0,0,0,1.464-1.412,1.538,1.538,0,0,0-.75-1.528,3.625,3.625,0,0,1-1.317-2.627c.12-.02.256-.035.416-.05a3.552,3.552,0,0,0,1.357-.331c.31-.16.625-.311.939-.462.406-.2.813-.391,1.21-.6a3.288,3.288,0,0,0,1.806-2.928,3.41,3.41,0,0,0-2.043-2.969,7.672,7.672,0,0,0-3.312-.665Zm-.956,4.209c.075-.073.172-.155.241-.213a2.017,2.017,0,0,1,1.253-.319l.067.01c.067.01.143.022.218.036a3.52,3.52,0,0,1-1.391.423l-.251.043q-.075.013-.137.02Z" transform="translate(0)"/>
  </g>
  <g>
    <path class="cls-1" d="M46.578,57.037c-1.176,0-2.581-.64-2.6-3.685a7.206,7.206,0,0,0-.393-2.267c-.125-.446-.251-.9-.343-1.363a3,3,0,0,1,.335-2.559,2.32,2.32,0,0,1,1.894-.723,5.958,5.958,0,0,1,.693.043c2.107.247,4.752.848,6.5,3.321,1.079,1.524,1.08,2.679,0,3.987a9.093,9.093,0,0,1-5.3,3.161A4.048,4.048,0,0,1,46.578,57.037Zm-.2-5.847c.113.587.267,1.39.468,2.177a.808.808,0,0,0,.859.632,4.051,4.051,0,0,0,2.526-2.01c.16-1.1-.948-1.854-1.623-2.2a3.668,3.668,0,0,0-1.38-.452c-.183-.017-.341-.028-.479-.028-.368,0-.459,0-.462,1.423Z" transform="translate(0)"/>
    <path class="cls-2" d="M45.473,46.94a5.492,5.492,0,0,1,.635.04c2.411.282,4.65.989,6.154,3.113.915,1.292.991,2.208.026,3.38a8.543,8.543,0,0,1-5.015,2.988,3.563,3.563,0,0,1-.7.075c-1.4,0-2.086-1.049-2.1-3.188a16.444,16.444,0,0,0-.745-3.724c-.361-1.817.166-2.684,1.738-2.684m2.236,7.56h.071a4.365,4.365,0,0,0,2.951-2.437c.151-1.042-.517-2.007-1.888-2.719a4.176,4.176,0,0,0-1.564-.506c-.2-.018-.373-.03-.524-.03-.828,0-.962.358-.963,1.971.115.557.3,1.646.573,2.714A1.3,1.3,0,0,0,47.709,54.5m-2.236-8.56a2.789,2.789,0,0,0-2.279.906,3.446,3.446,0,0,0-.439,2.973c.1.486.226.95.351,1.4a6.9,6.9,0,0,1,.377,2.07q0,.033,0,.066c.02,3.639,1.949,4.182,3.1,4.182a4.581,4.581,0,0,0,.891-.094,9.586,9.586,0,0,0,5.591-3.333,3.383,3.383,0,0,0,.018-4.594c-1.866-2.635-4.643-3.27-6.854-3.528a6.521,6.521,0,0,0-.752-.047Zm1.319,4.738a8.233,8.233,0,0,1,.037-.871c.106,0,.225.013.359.025a3.161,3.161,0,0,1,1.194.4c.557.289,1.474.894,1.359,1.689a3.959,3.959,0,0,1-2,1.581h-.033c-.31,0-.349-.154-.375-.256-.2-.765-.347-1.556-.458-2.133-.031-.162-.059-.308-.084-.433Z" transform="translate(0)"/>
  </g>
  <g>
    <path class="cls-1" d="M65.452,38a1.16,1.16,0,0,1-1.176-.739,1.11,1.11,0,0,1-.019-.873,1.484,1.484,0,0,1,.924-.7l.105-.041c.387-.155.779-.3,1.172-.442.57-.208,1.141-.417,1.694-.665.756-.338.8-.507.8-.514s0-.2-.683-.825a6.469,6.469,0,0,0-2.1-1.13l-.491-.195c-1.255-.513-2.388-.971-3.535-1.391a3.5,3.5,0,0,1-2.1-2.047,1.957,1.957,0,0,1,.7-2.65l.569-.4A15,15,0,0,1,64.069,23.7a3.241,3.241,0,0,1,1.284-.287,2.761,2.761,0,0,1,1.454.425c.353.215,1.181.72.924,1.664a1.391,1.391,0,0,1-1.346,1.048,1.43,1.43,0,0,1-.412-.061,2.244,2.244,0,0,0-.651-.1,3.118,3.118,0,0,0-1.812.721c-.309.22-.385.383-.382.438s.087.192.387.365A21.265,21.265,0,0,0,66.884,29.5a15.921,15.921,0,0,1,3.072,1.55,3.413,3.413,0,0,1,1.92,2.606,3.337,3.337,0,0,1-1.637,2.718,7.5,7.5,0,0,1-4.492,1.6,1.632,1.632,0,0,1-.295.023Z" transform="translate(0)"/>
    <path class="cls-2" d="M65.353,23.911a2.258,2.258,0,0,1,1.194.352c.419.255.851.557.7,1.106a.891.891,0,0,1-.863.68.935.935,0,0,1-.268-.04,2.764,2.764,0,0,0-.8-.12,3.628,3.628,0,0,0-2.1.814c-.786.562-.806,1.153.047,1.643a21.8,21.8,0,0,0,3.448,1.621,15.715,15.715,0,0,1,2.978,1.5c2.169,1.352,2.239,2.994.246,4.5a6.954,6.954,0,0,1-4.2,1.5,2,2,0,0,1-.289.023.683.683,0,0,1-.71-.421c-.258-.656.307-.8.732-.973.956-.384,1.945-.694,2.884-1.114,1.415-.634,1.429-1.1.255-2.165a8.624,8.624,0,0,0-2.739-1.418c-1.178-.481-2.358-.961-3.552-1.4a2.994,2.994,0,0,1-1.806-1.771,1.452,1.452,0,0,1,.53-2.047,18.739,18.739,0,0,1,3.223-2.034,2.722,2.722,0,0,1,1.085-.246m0-1h0a3.729,3.729,0,0,0-1.482.329,15.359,15.359,0,0,0-2.833,1.729c-.188.135-.376.27-.566.4a2.436,2.436,0,0,0-.878,3.254,3.972,3.972,0,0,0,2.384,2.322c1.14.417,2.268.874,3.518,1.384.165.067.331.132.5.2a6.115,6.115,0,0,1,1.947,1.035c.16.145.273.259.353.345-.085.046-.2.1-.344.168-.531.238-1.079.438-1.66.651-.4.145-.8.291-1.187.448l-.1.039a1.944,1.944,0,0,0-1.2.969,1.6,1.6,0,0,0,.011,1.258A1.662,1.662,0,0,0,65.452,38.5a2.9,2.9,0,0,0,.365-.025,7.99,7.99,0,0,0,4.723-1.7,3.757,3.757,0,0,0,1.835-3.139c-.035-.781-.437-1.937-2.155-3.007a16.423,16.423,0,0,0-3.168-1.6,20.759,20.759,0,0,1-3.239-1.518,2.618,2.618,0,0,1,1.508-.619,1.759,1.759,0,0,1,.51.078,1.935,1.935,0,0,0,.554.082,1.885,1.885,0,0,0,1.828-1.417,1.989,1.989,0,0,0-1.146-2.223,3.26,3.26,0,0,0-1.715-.5Z" transform="translate(0)"/>
  </g>
  <g>
    <path class="cls-1" d="M79.622,16.22c-.926,0-1.288-.667-1.58-1.2l-.1-.177a8.749,8.749,0,0,1-.873-4.135,14.5,14.5,0,0,0-.188-2.1,3,3,0,0,1-.007-.841,2.153,2.153,0,0,0,0-.57c-.273-1.345-.642-1.345-.911-1.345a3.346,3.346,0,0,0-1.077.255,3.2,3.2,0,0,0-.366.173,2.718,2.718,0,0,1-.811.311,3.765,3.765,0,0,1-.6.066,1.055,1.055,0,0,1-1.131-.916,1.76,1.76,0,0,1,.773-1.752,3.026,3.026,0,0,1,1.069-.343c.146-.027.29-.053.429-.091a39.123,39.123,0,0,1,8.036-1.046c.668-.04,1.335-.08,2-.128q.082-.006.161-.006a2.77,2.77,0,0,1,2.1,1.243.5.5,0,0,1-.081.722l-.23.175a3.866,3.866,0,0,1-2.3,1.077A2.692,2.692,0,0,1,82.456,5.1a1.223,1.223,0,0,0-.685-.159A6.5,6.5,0,0,0,81,5c-.2.024-.4.048-.591.061-.522.034-.832.124-.944.272a1.223,1.223,0,0,0-.023.893,12.888,12.888,0,0,1,.188,2.879,10.651,10.651,0,0,0,.25,3.026c.037.132.063.265.089.393a1.514,1.514,0,0,0,.113.4h.02a1.464,1.464,0,0,0,.44-.07A1.683,1.683,0,0,1,81,12.791a.989.989,0,0,1,.859.439,1.7,1.7,0,0,1,0,1.535,2.4,2.4,0,0,1-2.112,1.45Z" transform="translate(0)"/>
    <path class="cls-2" d="M84.454,2.874A2.3,2.3,0,0,1,86.169,3.94a4.038,4.038,0,0,1-2.228,1.151,2.209,2.209,0,0,1-1.213-.412,1.71,1.71,0,0,0-.957-.24c-.457,0-.945.1-1.4.127-1.126.074-1.723.39-1.424,1.77.42,1.938-.1,3.977.445,5.935.158.565.1,1.164.752,1.164a1.946,1.946,0,0,0,.531-.091A1.177,1.177,0,0,1,81,13.291c.623,0,.649.711.4,1.276a1.9,1.9,0,0,1-1.688,1.149c-.034,0-.066,0-.1,0-.7,0-.923-.56-1.241-1.126-1.08-1.92-.623-4.064-1.006-6.081-.087-.456.089-.963,0-1.417-.247-1.217-.627-1.746-1.4-1.746a3.783,3.783,0,0,0-1.25.286,6.452,6.452,0,0,1-1.084.46,3.321,3.321,0,0,1-.521.06.566.566,0,0,1-.639-.5,1.263,1.263,0,0,1,.543-1.239,5.275,5.275,0,0,1,1.368-.378c3.255-.89,6.612-.916,9.941-1.158q.063,0,.124,0m0-1q-.1,0-.2.007c-.664.048-1.33.088-1.995.128a39.481,39.481,0,0,0-8.137,1.063c-.125.034-.256.057-.387.081a3.49,3.49,0,0,0-1.242.409,2.249,2.249,0,0,0-1,2.265,1.556,1.556,0,0,0,1.624,1.329,3.787,3.787,0,0,0,.63-.065l.051-.008a3.15,3.15,0,0,0,.961-.361,2.751,2.751,0,0,1,.309-.148,2.852,2.852,0,0,1,.9-.224.31.31,0,0,1,.091.009s.167.132.329.935a2.023,2.023,0,0,1-.013.427,3.458,3.458,0,0,0,.014.978,14.093,14.093,0,0,1,.18,2.025,9.147,9.147,0,0,0,.937,4.359l.094.171a2.257,2.257,0,0,0,2.018,1.464c.054,0,.109,0,.166-.006a2.915,2.915,0,0,0,2.537-1.75,2.133,2.133,0,0,0-.044-2.007A1.494,1.494,0,0,0,81,12.291a2.146,2.146,0,0,0-.56.079c-.025-.122-.051-.246-.086-.37a10.3,10.3,0,0,1-.232-2.885,13.23,13.23,0,0,0-.2-2.991,1.687,1.687,0,0,1-.052-.473,2.2,2.2,0,0,1,.564-.088c.2-.013.409-.038.618-.064a6.246,6.246,0,0,1,.715-.062.788.788,0,0,1,.412.078,3.176,3.176,0,0,0,1.758.574,4.3,4.3,0,0,0,2.6-1.18l.227-.173A1,1,0,0,0,86.933,3.3a3.221,3.221,0,0,0-2.479-1.421Z" transform="translate(0)"/>
  </g>
  <g>
    <path class="cls-1" d="M100.579,39.471a5.172,5.172,0,0,1-4.226-2.544c-.226-.34-.439-.688-.652-1.036a14.228,14.228,0,0,0-1.542-2.2.5.5,0,0,1-.048-.613,3.629,3.629,0,0,1,.961-.916,1.936,1.936,0,0,0,.72-.729c.809-1.911,2.548-2.254,4.115-2.426a4.678,4.678,0,0,1,.509-.029,2.623,2.623,0,0,1,2.7,2.193c.412,1.433-.3,2.632-1.955,3.29a10.143,10.143,0,0,1-1.075.338c-.188.052-.377.1-.563.161-.272.084-.544.175-.816.266.6,1.254.961,1.5,1.41,1.5a4.366,4.366,0,0,0,1.548-.453c.378-.162.766-.3,1.154-.432a1.589,1.589,0,0,1,.516-.09,1.154,1.154,0,0,1,.92.422A1.208,1.208,0,0,1,104,37.853,4.628,4.628,0,0,1,100.579,39.471Z" transform="translate(0)"/>
    <path class="cls-2" d="M100.416,29.482a2.136,2.136,0,0,1,2.216,1.832c.336,1.169-.234,2.12-1.659,2.687-.517.206-1.069.32-1.6.486-.451.14-.9.294-1.354.445.716,1.63,1.217,2.3,2.1,2.3a4.767,4.767,0,0,0,1.744-.494c.366-.157.744-.289,1.121-.418a1.094,1.094,0,0,1,.353-.063.655.655,0,0,1,.53.236c.317.394.045.718-.234,1.026a4.106,4.106,0,0,1-3.049,1.454A4.663,4.663,0,0,1,96.77,36.65a25.919,25.919,0,0,0-2.242-3.292c.492-.743,1.394-.945,1.725-1.727.7-1.644,2.184-1.956,3.709-2.123a4.174,4.174,0,0,1,.454-.026m-1.424,3.162c.341,0,.608-.31,1.253-1.058a2.8,2.8,0,0,0-.335-.02,3.654,3.654,0,0,0-1.913.66,2.452,2.452,0,0,0,.995.419m1.424-4.162a5.171,5.171,0,0,0-.563.032c-1.234.135-3.531.387-4.521,2.727-.068.161-.255.3-.554.521a4.088,4.088,0,0,0-1.083,1.043,1,1,0,0,0,.095,1.226,13.811,13.811,0,0,1,1.485,2.12c.217.353.434.706.663,1.051a5.66,5.66,0,0,0,4.642,2.768,5.121,5.121,0,0,0,3.79-1.782c.938-1.034.666-1.835.272-2.324a1.643,1.643,0,0,0-1.309-.609,2.083,2.083,0,0,0-.678.117c-.422.145-.8.279-1.19.445a4.431,4.431,0,0,1-1.35.413c-.152,0-.343-.069-.7-.709l.254-.08c.18-.056.363-.106.546-.156a10.44,10.44,0,0,0,1.13-.356c1.893-.753,2.735-2.208,2.25-3.892a3.106,3.106,0,0,0-3.177-2.555Z" transform="translate(0)"/>
  </g>
  <g>
    <path class="cls-1" d="M6.176,14.422A5.791,5.791,0,0,1,.5,8.56C.494,6.487.806,3.5,3.571,1.475A3.73,3.73,0,0,1,5.757.663a2.946,2.946,0,0,1,1.481.412,3.084,3.084,0,0,1,1.29,3.214C8.366,6.171,7.3,8.523,3.2,9.237c.19,1.518,1.265,2.034,2.631,2.534a1.708,1.708,0,0,0,.6.1,4.906,4.906,0,0,0,1.261-.238,5.9,5.9,0,0,1,1.6-.283,2.976,2.976,0,0,1,1.107.207.5.5,0,0,1,.282.65,3.494,3.494,0,0,1-2.647,1.907l-.251.072a5.672,5.672,0,0,1-1.6.234ZM5.34,3.3a1.334,1.334,0,0,0-.843.522A4.448,4.448,0,0,0,3.153,7.132a3.582,3.582,0,0,0,2.83-2.174A1.172,1.172,0,0,0,5.71,3.437.634.634,0,0,0,5.34,3.3Z" transform="translate(0)"/>
    <path class="cls-2" d="M5.757,1.162a2.439,2.439,0,0,1,1.232.345A2.57,2.57,0,0,1,8.03,4.245c-.221,2.56-2,4.109-5.357,4.568.035,2.165,1.427,2.857,2.988,3.428a2.209,2.209,0,0,0,.77.133c.946,0,1.864-.521,2.856-.521a2.494,2.494,0,0,1,.925.172c-.472,1.185-1.67,1.417-2.576,1.684a5.156,5.156,0,0,1-1.461.214A5.277,5.277,0,0,1,1,8.558c-.008-2.623.584-5.011,2.866-6.679a3.244,3.244,0,0,1,1.891-.717M2.72,7.676a4.1,4.1,0,0,0,3.713-2.5A1.64,1.64,0,0,0,6,3.03,1.125,1.125,0,0,0,5.339,2.8,1.744,1.744,0,0,0,4.119,3.5a4.741,4.741,0,0,0-1.4,4.179M5.757.162a4.211,4.211,0,0,0-2.481.909C.326,3.228-.006,6.379,0,8.561a6.291,6.291,0,0,0,6.175,6.362,6.166,6.166,0,0,0,1.743-.254l.246-.07a3.956,3.956,0,0,0,2.977-2.2,1,1,0,0,0-.564-1.3,3.469,3.469,0,0,0-1.29-.241,6.4,6.4,0,0,0-1.729.3,4.576,4.576,0,0,1-1.128.22A1.2,1.2,0,0,1,6,11.3C4.771,10.85,4.063,10.448,3.8,9.63c3.99-.869,5.059-3.32,5.23-5.3A3.624,3.624,0,0,0,7.488.641,3.438,3.438,0,0,0,5.757.162ZM3.659,6.5A4.349,4.349,0,0,1,4.873,4.154.95.95,0,0,1,5.339,3.8a.209.209,0,0,1,.081.042.679.679,0,0,1,.113.9A3.143,3.143,0,0,1,3.659,6.5Z" transform="translate(0)"/>
  </g>
  <g>
    <path class="cls-1" d="M62.119,13.933a4.036,4.036,0,0,1-2.317-.616c-1.595-1.159-2.918-5.516-2.246-7.4a1.988,1.988,0,0,1,1.893-1.279,1.952,1.952,0,0,1,1.487.667,1.206,1.206,0,0,1-.014,1.552,3.827,3.827,0,0,0,.251,3.875,1.081,1.081,0,0,0,.853.428,1.244,1.244,0,0,0,.184-.014,1.153,1.153,0,0,0,.937-.884,3.35,3.35,0,0,0-.009-1.5L63.1,8.513c-.006-.2-.013-.342-.02-.483a2.88,2.88,0,0,1,.643-2.36,1.844,1.844,0,0,1,1.345-.637,1.706,1.706,0,0,1,.429.056A1.406,1.406,0,0,1,66.554,6.7c-.009.193-.023.389-.037.584a10.753,10.753,0,0,0-.041,1.279c.07,1.431.489,1.943,1.951,2.384.064.02.134.036.2.052a1.284,1.284,0,0,1,.922.545,1.044,1.044,0,0,1,.033.857,1.73,1.73,0,0,1-1.655,1.32,3.58,3.58,0,0,1-1.79-.66,2.392,2.392,0,0,0-1.046-.449.6.6,0,0,0-.133.014,2.555,2.555,0,0,0-.85.5,3.115,3.115,0,0,1-1.892.809Z" transform="translate(0)"/>
    <path class="cls-2" d="M59.448,5.137a1.445,1.445,0,0,1,1.109.493c.325.377.107.677-.11,1.048a4.291,4.291,0,0,0,.345,4.377,1.585,1.585,0,0,0,1.234.6,1.746,1.746,0,0,0,.256-.019,1.649,1.649,0,0,0,1.339-1.223A4.368,4.368,0,0,0,63.6,8.445c0-.795-.212-1.7.489-2.429a1.371,1.371,0,0,1,.984-.483,1.2,1.2,0,0,1,.3.04.939.939,0,0,1,.683,1.1c-.032.638-.11,1.278-.079,1.913.08,1.642.646,2.338,2.306,2.838.46.138,1.052.141.826.818a1.256,1.256,0,0,1-1.18.978h-.034c-1.064-.027-1.892-1.108-2.8-1.108a1.108,1.108,0,0,0-.242.027c-.878.2-1.5,1.294-2.632,1.294l-.077,0a3.535,3.535,0,0,1-2.045-.521c-1.408-1.022-2.664-5.159-2.069-6.827a1.486,1.486,0,0,1,1.421-.947m0-1a2.488,2.488,0,0,0-2.363,1.611c-.74,2.075.664,6.695,2.423,7.972a4.44,4.44,0,0,0,2.589.711l.121,0a3.578,3.578,0,0,0,2.192-.91,2.4,2.4,0,0,1,.657-.409h0a2.294,2.294,0,0,1,.809.374,4.025,4.025,0,0,0,1.989.731h.059a2.229,2.229,0,0,0,2.129-1.661,1.521,1.521,0,0,0-.07-1.257,1.758,1.758,0,0,0-1.24-.789c-.059-.014-.119-.028-.176-.045-1.324-.4-1.54-.79-1.6-1.929a10.367,10.367,0,0,1,.041-1.225c.014-.2.028-.393.038-.589A1.922,1.922,0,0,0,65.624,4.6a2.206,2.206,0,0,0-.554-.072,2.334,2.334,0,0,0-1.706.791,3.337,3.337,0,0,0-.781,2.729c.007.134.014.267.014.4a1,1,0,0,0,.009.132l.035.246a3.019,3.019,0,0,1,.03,1.278c-.161.49-.423.528-.535.545a.748.748,0,0,1-.109.008.584.584,0,0,1-.473-.252,3.34,3.34,0,0,1-.244-3.224l.042-.07a1.688,1.688,0,0,0-.037-2.134,2.453,2.453,0,0,0-1.867-.841Z" transform="translate(0)"/>
  </g>
  <g>
    <path class="cls-1" d="M136.42,44.451a1.822,1.822,0,0,1-1.81-1.493,13.453,13.453,0,0,1-.475-4.669c.231-1.8.132-3.241-1.1-4.449a3.161,3.161,0,0,1-.722-2.11c-.108-1.242.368-1.964,1.414-2.146a2.131,2.131,0,0,1,.359-.033,1.119,1.119,0,0,1,.838.32,1.8,1.8,0,0,1,.334,1.371c-.016.554.1,1.148,1.165,1.435a1.016,1.016,0,0,0,.267.036,1.113,1.113,0,0,0,.89-.483c.332-.451.3-.48.178-.591-.062-.055-.128-.108-.194-.161a1.227,1.227,0,0,1-.429-1.828,1.622,1.622,0,0,1,1.377-.675,2.513,2.513,0,0,1,.7.1c1.075.312,1.618.9,1.612,1.743-.01,1.458-.236,2.942-1.82,3.91a4.875,4.875,0,0,1-.773.358c-.646.254-1.02.425-1.155,1a16.435,16.435,0,0,0-.312,5.076c0,.034.01.139.278.237a1.422,1.422,0,0,1,.975,1.93,1.611,1.611,0,0,1-1.524,1.12Z" transform="translate(0)"/>
    <path class="cls-2" d="M138.51,29.475a2.024,2.024,0,0,1,.559.085c.627.182,1.258.506,1.252,1.259-.009,1.372-.2,2.642-1.581,3.487-.753.461-1.873.478-2.155,1.668a17.114,17.114,0,0,0-.325,5.227.8.8,0,0,0,.605.671.931.931,0,0,1,.674,1.3,1.121,1.121,0,0,1-1.051.783h-.048a1.322,1.322,0,0,1-1.344-1.109,12.845,12.845,0,0,1-.464-4.5c.229-1.785.177-3.467-1.25-4.864a2.813,2.813,0,0,1-.573-1.795c-.071-.82.1-1.454,1-1.611a1.61,1.61,0,0,1,.274-.026c.738,0,.686.682.67,1.246a1.792,1.792,0,0,0,1.536,1.863,1.518,1.518,0,0,0,.4.053,1.607,1.607,0,0,0,1.293-.687c.283-.385.6-.818.109-1.258-.406-.368-1.033-.659-.553-1.326a1.14,1.14,0,0,1,.972-.468m0-1h0a2.133,2.133,0,0,0-1.783.883c-.63.875-.46,1.715.507,2.5l-.057.078a.615.615,0,0,1-.488.279.523.523,0,0,1-.136-.018c-.753-.2-.807-.528-.8-.87l0-.066a2.258,2.258,0,0,0-.474-1.735,1.609,1.609,0,0,0-1.2-.472,2.618,2.618,0,0,0-.445.041c-.757.131-2,.655-1.827,2.682a3.685,3.685,0,0,0,.871,2.424c1.091,1.067,1.175,2.33.957,4.021a13.863,13.863,0,0,0,.484,4.856A2.315,2.315,0,0,0,136.4,44.95l.092,0a2.131,2.131,0,0,0,2-1.457,1.915,1.915,0,0,0-1.24-2.548,15.777,15.777,0,0,1,.314-4.742c.074-.315.228-.4.852-.648a5.31,5.31,0,0,0,.852-.4,4.648,4.648,0,0,0,2.059-4.333c.005-.753-.333-1.751-1.974-2.226a3.013,3.013,0,0,0-.838-.125Z" transform="translate(0)"/>
  </g>
  <g>
    <path class="cls-1" d="M32.508,72.276c-2.5,0-4.7-1.691-4.794-3.692-.113-2.367,1.924-4.348,4.638-4.511l.144,0c1.744,0,3.058,1.917,3.124,4.56a3.78,3.78,0,0,1-.975,2.753,2.89,2.89,0,0,1-2.057.894Z" transform="translate(0)"/>
    <path class="cls-2" d="M32.495,64.569c1.459,0,2.566,1.7,2.625,4.072.044,1.781-1.034,3.113-2.539,3.134h-.073c-2.219,0-4.212-1.486-4.3-3.216-.1-2.081,1.741-3.842,4.168-3.987.038,0,.076,0,.113,0m0-1c-.057,0-.115,0-.173.005-2.99.179-5.234,2.39-5.107,5.034.108,2.26,2.533,4.168,5.294,4.168H32.6A3.387,3.387,0,0,0,35,71.728a4.275,4.275,0,0,0,1.115-3.112c-.073-2.925-1.6-5.047-3.624-5.047Z" transform="translate(0)"/>
  </g>
  <g>
    <path class="cls-1" d="M101.489,74.15a2.079,2.079,0,0,1-.377-.033l-.171,0c-2.644,0-4.24-1.273-4.27-3.405a3.514,3.514,0,0,1,2.9-3.737,6.06,6.06,0,0,1,1.569-.22,3.657,3.657,0,0,1,3.371,1.879,7.383,7.383,0,0,1,.7,1.9,2.472,2.472,0,0,1-1.989,3.26l-.354.1a5.348,5.348,0,0,1-1.381.255Z" transform="translate(0)"/>
    <path class="cls-2" d="M101.142,67.256a3.167,3.167,0,0,1,2.933,1.621,6.948,6.948,0,0,1,.651,1.775,1.974,1.974,0,0,1-1.626,2.663,7.128,7.128,0,0,1-1.611.335,1.524,1.524,0,0,1-.33-.034l-.218,0c-2.4,0-3.743-1.075-3.769-2.912A3.024,3.024,0,0,1,99.7,67.46a5.546,5.546,0,0,1,1.44-.2m-.768,3.79a1.221,1.221,0,0,0,.4-.211c.135-.16.052-.279-.151-.342a.558.558,0,0,0-.162-.028.2.2,0,0,0-.216.173c-.022.124.085.271.134.407m.768-4.79a6.553,6.553,0,0,0-1.7.238,4.013,4.013,0,0,0-3.27,4.227c.035,2.4,1.862,3.9,4.769,3.9h.136a2.614,2.614,0,0,0,.412.032A5.73,5.73,0,0,0,103,74.377c.115-.032.23-.064.345-.093a2.952,2.952,0,0,0,2.352-3.857,7.9,7.9,0,0,0-.75-2.032,4.138,4.138,0,0,0-3.809-2.138Z" transform="translate(0)"/>
  </g>
  <g>
    <path class="cls-1" d="M71.569,57.826a3.528,3.528,0,0,1-3.335-2.316,6.178,6.178,0,0,0-.473-.8,2.885,2.885,0,0,1-.613-2.864c.125-.283.241-.574.357-.866.554-1.391,1.183-2.967,2.911-3.77a4.862,4.862,0,0,1,1.949-.54,2.058,2.058,0,0,1,1.513.617c.581.585,1.052,1.661,0,3.467a7.438,7.438,0,0,1-2.241,2.208l-.276.2c-.128.095-.272.184-.419.272-.612.374-.657.478-.571.729a1.427,1.427,0,0,0,1.41,1.064,2.065,2.065,0,0,0,.27-.018c.089-.011.176-.033.264-.053l.166-.038c.182-.013.281-.017.38-.017,1.181,0,1.446.666,1.461,1.225.023.935-.829,1.158-1.288,1.277l-.1.028A5.227,5.227,0,0,1,71.569,57.826Z" transform="translate(0)"/>
    <path class="cls-2" d="M72.366,47.166a1.564,1.564,0,0,1,1.158.47c.783.789.5,1.877-.077,2.863a7.9,7.9,0,0,1-2.383,2.261c-.559.414-1.467.688-1.165,1.566a1.92,1.92,0,0,0,1.882,1.4,2.6,2.6,0,0,0,.335-.022c.157-.02.312-.065.467-.1.091,0,.184-.006.276-.006.487,0,.945.089.962.738.015.583-.559.684-1.023.81a4.723,4.723,0,0,1-1.229.177A3.027,3.027,0,0,1,68.691,55.3c-.469-1.043-1.638-2.01-1.085-3.261.718-1.624,1.138-3.51,3.022-4.385a4.353,4.353,0,0,1,1.738-.493m-1.84,3.613c.651,0,.938-.454,1.195-1.165a1.52,1.52,0,0,0-1.644,1.106,1.943,1.943,0,0,0,.449.059m1.84-4.613a5.3,5.3,0,0,0-2.159.586c-1.911.887-2.578,2.562-3.167,4.04-.114.286-.227.57-.349.847a3.327,3.327,0,0,0,.652,3.339,5.926,5.926,0,0,1,.435.737,3.979,3.979,0,0,0,3.791,2.612,5.737,5.737,0,0,0,1.491-.212l.1-.027c.464-.121,1.7-.443,1.66-1.774A1.718,1.718,0,0,0,72.859,54.6c-.1,0-.209,0-.312.007a1,1,0,0,0-.167.02l-.182.041c-.07.016-.141.035-.212.044a1.6,1.6,0,0,1-.206.014.9.9,0,0,1-.909-.652c.09-.067.23-.152.332-.215.159-.1.316-.194.455-.3l.275-.2A7.934,7.934,0,0,0,74.311,51c1.275-2.19.5-3.491-.078-4.071a2.575,2.575,0,0,0-1.868-.765Z" transform="translate(0)"/>
  </g>
  <g>
    <path class="cls-1" d="M80.372,58.2a6.4,6.4,0,0,1-4.5-1.847,4.38,4.38,0,0,1-1.28-3.724,5.547,5.547,0,0,1,3.506-5.441,3.249,3.249,0,0,1,1.292-.252,6.3,6.3,0,0,1,.83.065,1.444,1.444,0,0,1,.111,2.763c-.2.047-.409.076-.615.1a3.352,3.352,0,0,0-.72.146,2.889,2.889,0,0,0-1.9,3.075,2.585,2.585,0,0,0,2.328,2.421,6.244,6.244,0,0,0,1.116.108,3.913,3.913,0,0,0,1.834-.426,2.285,2.285,0,0,1,1-.277,1.147,1.147,0,0,1,1.134.825c.348,1.027-.582,1.461-1.029,1.67l-.18.086A6.428,6.428,0,0,1,80.372,58.2Z" transform="translate(0)"/>
    <path class="cls-2" d="M79.384,47.439a5.867,5.867,0,0,1,.765.06c.462.061.637.436.648.869a.79.79,0,0,1-.587.912,11.385,11.385,0,0,0-1.4.268A3.385,3.385,0,0,0,76.6,53.134,3.085,3.085,0,0,0,79.334,56a6.814,6.814,0,0,0,1.2.116,4.413,4.413,0,0,0,2.063-.482,1.794,1.794,0,0,1,.772-.222.649.649,0,0,1,.66.487c.235.692-.49.911-.96,1.149A5.928,5.928,0,0,1,76.217,56a3.9,3.9,0,0,1-1.132-3.319,5.079,5.079,0,0,1,3.2-5.028,2.735,2.735,0,0,1,1.1-.212m0-1a3.733,3.733,0,0,0-1.487.292,6.1,6.1,0,0,0-3.812,5.9,4.845,4.845,0,0,0,1.432,4.083,6.9,6.9,0,0,0,4.856,1.99,7.018,7.018,0,0,0,3.152-.757c.052-.027.109-.053.166-.08,1.182-.553,1.616-1.321,1.289-2.283a1.642,1.642,0,0,0-1.607-1.165,2.782,2.782,0,0,0-1.23.333,3.421,3.421,0,0,1-1.605.371,5.788,5.788,0,0,1-1.027-.1,2.1,2.1,0,0,1-1.918-1.974,2.378,2.378,0,0,1,1.575-2.563,3.055,3.055,0,0,1,.609-.118,6.661,6.661,0,0,0,.664-.112,1.94,1.94,0,0,0-.161-3.745,6.835,6.835,0,0,0-.9-.069Z" transform="translate(0)"/>
  </g>
  <g>
    <path class="cls-1" d="M65.656,90.169A3.829,3.829,0,0,1,62.5,88.627a3.508,3.508,0,0,1-.29-3.252c.467-1.279,1.284-1.47,1.73-1.47a2.2,2.2,0,0,1,.952.241,2.722,2.722,0,0,0,1.939.25,3.643,3.643,0,0,1,.814-.1,1.951,1.951,0,0,1,1.982,1.611c.588,2.087-.321,3.144-1.187,3.662a4.964,4.964,0,0,1-2.57.6Z" transform="translate(0)"/>
    <path class="cls-2" d="M63.944,84.406a1.7,1.7,0,0,1,.735.191,3.213,3.213,0,0,0,2.268.287,3.188,3.188,0,0,1,.7-.089,1.46,1.46,0,0,1,1.5,1.247c.4,1.407.117,2.451-.963,3.1a4.469,4.469,0,0,1-2.315.534l-.2,0c-2.455-.064-3.782-1.941-2.985-4.123.273-.749.7-1.141,1.261-1.141m0-1h0a2.323,2.323,0,0,0-2.2,1.8,4.046,4.046,0,0,0,.346,3.7,4.32,4.32,0,0,0,3.552,1.761q.117,0,.231,0A5.449,5.449,0,0,0,68.7,90c1.016-.609,2.086-1.836,1.412-4.227a2.447,2.447,0,0,0-2.463-1.975,4.137,4.137,0,0,0-.927.114,2.221,2.221,0,0,1-1.61-.212,2.692,2.692,0,0,0-1.17-.291Z" transform="translate(0)"/>
  </g>
  <g>
    <path class="cls-1" d="M78.269,84.536a1.732,1.732,0,0,1-1.527-.917,1.82,1.82,0,0,1-.006-1.819,1.782,1.782,0,0,1,1.5-.929,1.9,1.9,0,0,1,1.277.543,2.263,2.263,0,0,1,.42,2.124,1.6,1.6,0,0,1-1.62,1Z" transform="translate(0)"/>
    <path class="cls-2" d="M78.24,81.37a1.414,1.414,0,0,1,.94.413c.327.3.93,2.206-.876,2.252h-.035a1.336,1.336,0,0,1-1.11-1.971,1.293,1.293,0,0,1,1.081-.7m0-1a2.293,2.293,0,0,0-1.927,1.163A2.324,2.324,0,0,0,76.3,83.86a2.226,2.226,0,0,0,1.965,1.176h.061a2.1,2.1,0,0,0,2.076-1.324,2.754,2.754,0,0,0-.552-2.667,2.393,2.393,0,0,0-1.614-.674Z" transform="translate(0)"/>
  </g>
  <g>
    <path class="cls-1" d="M83.492,85.405a1.569,1.569,0,0,1-.723-.184A3.6,3.6,0,0,0,81.6,84.86a1.46,1.46,0,0,1-1.082-.771,1.38,1.38,0,0,1,0-1.275l.053-.1a1.423,1.423,0,0,1,1.146-.759l.783-.085a18.531,18.531,0,0,1,1.9-.116,8.706,8.706,0,0,1,2.311.284,1.05,1.05,0,0,1,.892,1.223,1.288,1.288,0,0,1-.67.921c-.827.342-1.667.657-2.526.979l-.433.162A1.36,1.36,0,0,1,83.492,85.405Z" transform="translate(0)"/>
    <path class="cls-2" d="M84.4,82.25a8.222,8.222,0,0,1,2.179.266c.318.087.6.279.531.65a.816.816,0,0,1-.368.55c-.961.4-1.938.757-2.945,1.135a.859.859,0,0,1-.3.054,1.063,1.063,0,0,1-.49-.127,4.139,4.139,0,0,0-1.328-.413.921.921,0,0,1-.71-1.323l.052-.1a.928.928,0,0,1,.749-.492c.262-.025.526-.058.79-.086A17.828,17.828,0,0,1,84.4,82.25m0-1a19.007,19.007,0,0,0-1.947.119l-.34.038c-.147.017-.295.034-.441.047a1.924,1.924,0,0,0-1.544,1.032l-.025.049-.026.051a1.877,1.877,0,0,0,0,1.732,1.96,1.96,0,0,0,1.452,1.037,3.124,3.124,0,0,1,1.012.31,2.068,2.068,0,0,0,.954.241,1.855,1.855,0,0,0,.655-.118l.443-.166c.873-.327,1.7-.636,2.532-.981a1.771,1.771,0,0,0,.97-1.294,1.552,1.552,0,0,0-1.252-1.8,9.19,9.19,0,0,0-2.442-.3Z" transform="translate(0)"/>
  </g>
  <g>
    <path class="cls-1" d="M56.272,57.478a1.409,1.409,0,0,1-1.35-.99l-.117-.443c-.709-2.681-1.442-5.453-1.1-8.357a1.492,1.492,0,0,1,1.516-1.231c.607.028,1.245.313,1.294,1.522a9.368,9.368,0,0,1-.037,1.046l-.028.428c.047.4.07.885.095,1.368a8.052,8.052,0,0,0,1,4.273,1.551,1.551,0,0,1-1.265,2.384Z" transform="translate(0)"/>
    <path class="cls-2" d="M55.217,46.956h.056c.612.031.718.555.738,1.04s-.04.952-.064,1.429c.2,2.015-.033,4.126,1.172,5.943a1.051,1.051,0,0,1-.848,1.607.91.91,0,0,1-.866-.617c-.742-2.818-1.554-5.649-1.206-8.615a.991.991,0,0,1,1.018-.789m0-1a1.97,1.97,0,0,0-2.011,1.672c-.351,3,.395,5.82,1.116,8.546l.116.44a1.9,1.9,0,0,0,1.833,1.362,1.945,1.945,0,0,0,1.1-.348,1.921,1.921,0,0,0,.581-2.812A7.693,7.693,0,0,1,57.04,50.8c-.022-.453-.045-.921-.09-1.389.007-.114.015-.228.023-.342a9.638,9.638,0,0,0,.037-1.106c-.069-1.731-1.2-1.975-1.687-2l-.106,0Z" transform="translate(0)"/>
  </g>
  <g>
    <path class="cls-1" d="M47.959,35.965a1.193,1.193,0,0,1-1.164-.932l-.114-.356a7.443,7.443,0,0,1-.386-1.584c-.118-1.249-.2-2.5-.272-3.755l-.094-1.486a.5.5,0,0,1,.008-.127l-.024-.217c-.033-.285-.065-.569-.08-.854a1.4,1.4,0,0,1,.332-1.071,1.3,1.3,0,0,1,.97-.384h0a1.335,1.335,0,0,1,1.51,1.237c.029.36.031.722.032,1.084s0,.71.033,1.063c.041.458.04.924.038,1.389,0,1.281-.011,2.491.973,3.5a1.1,1.1,0,0,1,.326.984,2.026,2.026,0,0,1-1.194,1.276,2.144,2.144,0,0,1-.893.232Z" transform="translate(0)"/>
    <path class="cls-2" d="M47.169,25.7c.518,0,.93.21.976.778.058.714,0,1.438.066,2.151.161,1.771-.351,3.651,1.151,5.194.561.576-.161,1.2-.721,1.458a1.707,1.707,0,0,1-.682.186.692.692,0,0,1-.686-.579,9.4,9.4,0,0,1-.479-1.839c-.164-1.738-.249-3.484-.365-5.227l.022,0c-.041-.4-.1-.792-.12-1.19-.028-.557.209-.92.81-.929h.029m0-1h-.043a1.785,1.785,0,0,0-1.328.542,1.881,1.881,0,0,0-.466,1.438c.015.3.049.591.083.887l.018.156a.958.958,0,0,0,0,.164c.033.492.063.984.093,1.476.076,1.237.154,2.517.274,3.78a7.8,7.8,0,0,0,.407,1.687c.038.118.076.235.113.353a1.686,1.686,0,0,0,1.642,1.284,2.623,2.623,0,0,0,1.1-.279,2.559,2.559,0,0,0,1.476-1.639,1.591,1.591,0,0,0-.46-1.424c-.8-.822-.837-1.732-.831-3.149,0-.466,0-.947-.04-1.438-.029-.324-.03-.662-.031-1.02s0-.736-.033-1.122a1.824,1.824,0,0,0-1.972-1.7Z" transform="translate(0)"/>
  </g>
  <g>
    <path class="cls-1" d="M72.16,13.838a2.092,2.092,0,0,1-2.065-1.827c-.307-1.39-.52-2.764-.745-4.218-.089-.569-.178-1.143-.273-1.721a.488.488,0,0,1,0-.151,1.616,1.616,0,0,1,1.54-1.674h0c1.019,0,1.529.581,1.591,1.726.021.379.031.759.042,1.139a20.026,20.026,0,0,0,.16,2.371c.025.177.041.36.057.544.066.775.136,1.266.708,1.568a1.156,1.156,0,0,1,.511,1.434,1.259,1.259,0,0,1-1.334.8Z" transform="translate(0)"/>
    <path class="cls-2" d="M70.686,4.745c.805,0,.987.578,1.023,1.254.064,1.187.034,2.387.206,3.557.129.878-.013,1.931,1.026,2.481a.657.657,0,0,1,.27.832c-.163.48-.581.451-.972.467l-.08,0A1.62,1.62,0,0,1,70.583,11.9c-.425-1.928-.68-3.894-1.014-5.914.082-.587.222-1.217,1.061-1.244h.056m0-1H70.6c-1.15.036-1.829.745-2.02,2.1a1,1,0,0,0,0,.3c.1.576.184,1.149.272,1.717.217,1.4.442,2.844.751,4.249a2.6,2.6,0,0,0,2.553,2.22l.121,0,.086,0a1.751,1.751,0,0,0,1.791-1.141,1.647,1.647,0,0,0-.749-2.038c-.318-.168-.377-.387-.444-1.169-.017-.2-.034-.388-.061-.574A19.759,19.759,0,0,1,72.75,7.1c-.011-.385-.022-.77-.043-1.153-.107-1.986-1.449-2.2-2.022-2.2Z" transform="translate(0)"/>
  </g>
  <g>
    <path class="cls-1" d="M81.765,77.663a2.1,2.1,0,0,1-.388-.037c-.069,0-.137,0-.2,0-1.4,0-1.846-.753-1.975-1.385a1.236,1.236,0,0,1,.2-1.023,1.723,1.723,0,0,1,1.278-.6c.053,0,.12-.018.2-.031a4.5,4.5,0,0,1,.793-.086,2.068,2.068,0,0,1,.954.211,1.456,1.456,0,0,1,.77,1.614,1.624,1.624,0,0,1-1.458,1.326Q81.849,77.663,81.765,77.663Z" transform="translate(0)"/>
    <path class="cls-2" d="M81.666,75.005a1.585,1.585,0,0,1,.728.156,1.079,1.079,0,0,1-.5,2q-.061.005-.125.005a1.583,1.583,0,0,1-.349-.04q-.125.008-.24.008c-.892,0-1.354-.342-1.485-.984-.151-.739.485-.976,1.031-1.026a7.116,7.116,0,0,1,.944-.115m0-1a4.977,4.977,0,0,0-.88.094c-.061.011-.114.021-.156.026a2.2,2.2,0,0,0-1.634.8,1.726,1.726,0,0,0-.285,1.422,2.238,2.238,0,0,0,2.465,1.784q.082,0,.169,0a2.556,2.556,0,0,0,.42.035q.107,0,.211-.009a2.12,2.12,0,0,0,1.906-1.727,1.946,1.946,0,0,0-1.032-2.155,2.572,2.572,0,0,0-1.184-.266Z" transform="translate(0)"/>
  </g>
  <g>
    <path class="cls-1" d="M84.781,75.55a1.15,1.15,0,0,1-.888-.4,2.03,2.03,0,0,1-.312-1.7,2.234,2.234,0,0,1,.447-1.135,1.75,1.75,0,0,1,1.355-.638,2.209,2.209,0,0,1,.981.245c1.111.549.678,1.619.493,2.075a1.05,1.05,0,0,1-.156.257,2.581,2.581,0,0,1-1.922,1.3Z" transform="translate(0)"/>
    <path class="cls-2" d="M85.384,72.175a1.729,1.729,0,0,1,.76.193c.668.33.466.907.251,1.44a1.1,1.1,0,0,1-.132.2,2.071,2.071,0,0,1-1.483,1.044c-.516,0-.865-.49-.7-1.526a1.818,1.818,0,0,1,.332-.885,1.254,1.254,0,0,1,.976-.464m0-1a2.265,2.265,0,0,0-1.734.811,2.7,2.7,0,0,0-.563,1.385,2.5,2.5,0,0,0,.427,2.1,1.641,1.641,0,0,0,1.266.575,2.978,2.978,0,0,0,2.3-1.475,1.59,1.59,0,0,0,.238-.394c.523-1.3.276-2.209-.736-2.709a2.706,2.706,0,0,0-1.2-.3Z" transform="translate(0)"/>
  </g>
  <g>
    <path class="cls-1" d="M93.825,80.262a1.28,1.28,0,0,1-.638-.179,1.571,1.571,0,0,1-.654-2.048,3.165,3.165,0,0,1,.734-1.19,12.863,12.863,0,0,0,2.352-2.732,1.9,1.9,0,0,1,1.68-.957,2.416,2.416,0,0,1,.509.056,1.592,1.592,0,0,1,1.218,1.2.5.5,0,0,1-.021.357,1.4,1.4,0,0,0-.055.164,1.293,1.293,0,0,1-.513.812,7.543,7.543,0,0,0-2.227,2.334,14.888,14.888,0,0,1-1.181,1.509,1.7,1.7,0,0,1-1.2.669Z" transform="translate(0)"/>
    <path class="cls-2" d="M97.3,73.656a1.892,1.892,0,0,1,.4.045,1.1,1.1,0,0,1,.847.866c-.095.208-.145.623-.363.75-1.609.935-2.327,2.647-3.522,3.936a1.244,1.244,0,0,1-.838.509.784.784,0,0,1-.391-.113A1.082,1.082,0,0,1,93,78.206a2.674,2.674,0,0,1,.61-1,13.3,13.3,0,0,0,2.437-2.841,1.4,1.4,0,0,1,1.249-.71m0-1a2.39,2.39,0,0,0-2.111,1.2,12.443,12.443,0,0,1-2.265,2.623,3.679,3.679,0,0,0-.859,1.38,2.063,2.063,0,0,0,.876,2.654,1.776,1.776,0,0,0,.886.244,2.2,2.2,0,0,0,1.571-.829,15.451,15.451,0,0,0,1.219-1.557,7.179,7.179,0,0,1,2.072-2.195,1.748,1.748,0,0,0,.74-1.1c.012-.041.023-.08.036-.113a.97.97,0,0,0,.039-.7,2.081,2.081,0,0,0-1.588-1.543,2.9,2.9,0,0,0-.615-.068Z" transform="translate(0)"/>
  </g>
  <g>
    <path class="cls-1" d="M150.2,38.991a2.094,2.094,0,0,1-.9-.229,4.868,4.868,0,0,0-2.152-.507,5.8,5.8,0,0,0-2.22.479,2.243,2.243,0,0,1-.859.187,1.486,1.486,0,0,1-1.487-1.281,1.421,1.421,0,0,1,.221-1.174,2.064,2.064,0,0,1,1.547-.707c.257-.023.514-.031.772-.031.2,0,.827.014.945.016a.448.448,0,0,1,.231-.077l1.095.075c.819.057,1.639.114,2.459.157a1.811,1.811,0,0,1,1.422.627,1.56,1.56,0,0,1,.223,1.337,1.3,1.3,0,0,1-1.295,1.129Z" transform="translate(0)"/>
    <path class="cls-2" d="M146.278,36.166c1.18.079,2.36.17,3.542.232.881.046,1.378.473,1.182,1.356a.8.8,0,0,1-.807.737,1.62,1.62,0,0,1-.684-.179,5.4,5.4,0,0,0-2.37-.557,6.261,6.261,0,0,0-2.412.517,1.754,1.754,0,0,1-.667.148.982.982,0,0,1-1-.881c-.184-.9.564-1.214,1.324-1.283.24-.022.482-.029.725-.029.386,0,.774.017,1.16.017l0-.079m0-1a1,1,0,0,0-.378.074l-.184,0c-.2,0-.4-.009-.6-.009-.311,0-.571.01-.816.033a2.564,2.564,0,0,0-1.9.906,1.908,1.908,0,0,0-.31,1.573,1.986,1.986,0,0,0,1.978,1.681,2.741,2.741,0,0,0,1.051-.225,5.229,5.229,0,0,1,2.028-.44,4.382,4.382,0,0,1,1.936.458,2.585,2.585,0,0,0,1.118.278,1.8,1.8,0,0,0,1.783-1.521,2.043,2.043,0,0,0-.313-1.748,2.272,2.272,0,0,0-1.793-.823c-.82-.043-1.64-.1-2.459-.158l-1.068-.073-.066,0Z" transform="translate(0)"/>
  </g>
  <g>
    <path class="cls-1" d="M112.873,35.391a1.248,1.248,0,0,1-.921-.346,1.577,1.577,0,0,1-.393-1.175c0-1.184.574-1.89,1.528-1.89a2.132,2.132,0,0,1,.219.011,18.38,18.38,0,0,1,2.68.55l.388.1a1.365,1.365,0,0,1,1.028,1.669,1.316,1.316,0,0,1-1.316,1.069h0c-.437-.011-.833-.056-1.229-.1l-.485-.053-.282.032a6.475,6.475,0,0,0-.752.084A2.428,2.428,0,0,1,112.873,35.391Z" transform="translate(0)"/>
    <path class="cls-2" d="M113.089,32.481a1.616,1.616,0,0,1,.166.009,21.16,21.16,0,0,1,3,.636.861.861,0,0,1,.662,1.082.819.819,0,0,1-.828.671h-.026c-.548-.014-1.093-.1-1.639-.151-.4.039-.794.049-1.178.124a1.937,1.937,0,0,1-.368.039c-.558,0-.815-.335-.814-1.02,0-.768.256-1.391,1.029-1.39m0-1h0c-.979,0-2.026.627-2.029,2.389A2.073,2.073,0,0,0,111.6,35.4a1.742,1.742,0,0,0,1.276.493,2.9,2.9,0,0,0,.559-.058,6.2,6.2,0,0,1,.691-.077l.293-.024.384.042c.4.045.807.092,1.233.1h.052a1.809,1.809,0,0,0,1.807-1.466,1.848,1.848,0,0,0-1.395-2.256l-.388-.1a18.773,18.773,0,0,0-2.751-.562,2.615,2.615,0,0,0-.269-.014Z" transform="translate(0)"/>
  </g>
  <g>
    <path class="cls-1" d="M73.495,74.272a1.172,1.172,0,0,1-.46-.1A1.989,1.989,0,0,1,71.9,72.129c0-.964,1.941-2.671,2.817-2.675a1.626,1.626,0,0,1,1.34.859,1.256,1.256,0,0,1,0,1.69l-.319.373c-.312.364-.623.729-.949,1.079l-.1.108a1.667,1.667,0,0,1-1.2.708Z" transform="translate(0)"/>
    <path class="cls-2" d="M74.724,69.954c.46,0,.693.325.925.65a.786.786,0,0,1,.03,1.073c-.416.482-.823.972-1.257,1.438-.263.283-.543.657-.927.657a.675.675,0,0,1-.265-.057,1.569,1.569,0,0,1-.831-1.587c0-.646,1.675-2.17,2.319-2.173h.005m0-1h-.011c-1.144.005-3.318,1.9-3.314,3.176a2.476,2.476,0,0,0,1.44,2.5,1.673,1.673,0,0,0,.656.137,2.131,2.131,0,0,0,1.568-.876l.092-.1c.332-.357.65-.728.967-1.1l.314-.366a1.754,1.754,0,0,0,.028-2.307,2.1,2.1,0,0,0-1.739-1.069Z" transform="translate(0)"/>
  </g>
  <g>
    <path class="cls-1" d="M77.021,70.5a2.546,2.546,0,0,1-1.256-.356A1.427,1.427,0,0,1,75.19,68.3a2.5,2.5,0,0,1,2.521-1.884,2.192,2.192,0,0,1,2.138,1.07,1.394,1.394,0,0,1-.519,1.683c-.077.074-.153.146-.219.223-.043.05-.089.1-.136.142a2.726,2.726,0,0,1-1.955.967Z" transform="translate(0)"/>
    <path class="cls-2" d="M77.711,66.915h.068c.645.042,1.317.117,1.615.775s-.32.972-.662,1.376c-.051.06-.111.112-.167.168A2.174,2.174,0,0,1,77.021,70a2.048,2.048,0,0,1-1.01-.291.955.955,0,0,1-.346-1.251,2.023,2.023,0,0,1,2.047-1.542m0-1a3,3,0,0,0-3,2.226,1.933,1.933,0,0,0,.8,2.438,3.044,3.044,0,0,0,1.5.42,3.13,3.13,0,0,0,2.26-1.067l.037-.036a2.489,2.489,0,0,0,.175-.182c.055-.064.12-.125.184-.187a1.884,1.884,0,0,0,.627-2.249,2.612,2.612,0,0,0-2.461-1.36l-.133,0Z" transform="translate(0)"/>
  </g>
  <g>
    <path class="cls-1" d="M47.987,76.82c-1.017,0-3.216-1.322-3.513-2.288a1.448,1.448,0,0,1,.083-1.159,1.573,1.573,0,0,1,1.01-.737,1.312,1.312,0,0,1,.345-.044c1.272,0,3.351,1.762,3.394,3.227.027.521-.455.925-1.2,1Z" transform="translate(0)"/>
    <path class="cls-2" d="M45.912,73.092c1.023,0,2.859,1.57,2.894,2.741.014.264-.328.444-.747.483q-.034,0-.072,0a4.793,4.793,0,0,1-3.035-1.935.941.941,0,0,1,.748-1.267.805.805,0,0,1,.213-.027m0-1a1.807,1.807,0,0,0-.476.062,2.093,2.093,0,0,0-1.317.98A1.938,1.938,0,0,0,44,74.681c.37,1.2,2.766,2.639,3.99,2.639q.086,0,.165-.008c1.185-.111,1.687-.872,1.652-1.532-.05-1.733-2.363-3.688-3.892-3.688Z" transform="translate(0)"/>
  </g>
  <g>
    <path class="cls-1" d="M39.657,71.878A3.211,3.211,0,0,1,36.813,70.3a1.684,1.684,0,0,1,.27-1.86A1.469,1.469,0,0,1,38.156,68a1.71,1.71,0,0,1,.568.1,5.454,5.454,0,0,1,2.667,2.025.5.5,0,0,1-.007.593c-.071.094-.131.188-.188.278a1.909,1.909,0,0,1-.561.636A1.8,1.8,0,0,1,39.657,71.878Z" transform="translate(0)"/>
    <path class="cls-2" d="M38.156,68.5a1.191,1.191,0,0,1,.4.069,4.984,4.984,0,0,1,2.429,1.846c-.237.314-.373.638-.617.793a1.332,1.332,0,0,1-.71.169,2.781,2.781,0,0,1-2.373-1.243,1.239,1.239,0,0,1,.158-1.345.974.974,0,0,1,.713-.289m0-1a1.966,1.966,0,0,0-1.434.6,2.173,2.173,0,0,0-.379,2.373c.406,1.141,2.042,1.908,3.315,1.908a2.288,2.288,0,0,0,1.247-.325,2.378,2.378,0,0,0,.713-.789c.051-.079.1-.164.166-.247a1,1,0,0,0,.014-1.185,6.02,6.02,0,0,0-2.9-2.2,2.177,2.177,0,0,0-.736-.128Z" transform="translate(0)"/>
  </g>
  <g>
    <path class="cls-1" d="M89.528,83.5a1.869,1.869,0,0,1-1.33-.564,1.007,1.007,0,0,1-.264-.373c-.49-1.276.522-1.835,1.067-2.136l.119-.066a4.276,4.276,0,0,1,2.014-.566,1.509,1.509,0,0,1,1.5.76,1.545,1.545,0,0,1,.07.221.948.948,0,0,1,.028.3,2.8,2.8,0,0,1-1.795,2.034,3.5,3.5,0,0,1-1.405.385Z" transform="translate(0)"/>
    <path class="cls-2" d="M91.135,80.3c.508,0,.9.155,1.035.459a2.024,2.024,0,0,1,.068.23,2.331,2.331,0,0,1-1.51,1.674,3.037,3.037,0,0,1-1.2.342,1.363,1.363,0,0,1-.982-.423.568.568,0,0,1-.143-.187c-.36-.939.366-1.256.964-1.592a3.751,3.751,0,0,1,1.769-.5m0-1a4.719,4.719,0,0,0-2.259.631l-.117.065a2.128,2.128,0,0,0-1.29,2.758,1.509,1.509,0,0,0,.381.548,2.353,2.353,0,0,0,1.677.7,3.929,3.929,0,0,0,1.611-.43,3.269,3.269,0,0,0,2.08-2.393,1,1,0,0,0-.021-.471l-.014-.052a1.791,1.791,0,0,0-2.05-1.359Z" transform="translate(0)"/>
  </g>
  <g>
    <path class="cls-1" d="M16.689,82.364a.48.48,0,0,1-.1-.019,1.776,1.776,0,0,1-1.161-1.013,1.682,1.682,0,0,1,.672-2.223c.119-.081.234-.171.35-.261a2.457,2.457,0,0,1,1.522-.685,1.853,1.853,0,0,1,.651.124,1.163,1.163,0,0,1,.59.576,2.171,2.171,0,0,1-.429,1.887c-.47.746-1.281,1.616-2.021,1.616Z" transform="translate(0)"/>
    <path class="cls-2" d="M17.968,78.664a1.344,1.344,0,0,1,.476.092.666.666,0,0,1,.314.324c.331.692-1.179,2.787-2,2.787h-.033a1.278,1.278,0,0,1-.842-.73,1.186,1.186,0,0,1,.491-1.611c.515-.347.96-.86,1.593-.86m0-1a2.939,2.939,0,0,0-1.831.791c-.106.083-.211.166-.321.24a2.167,2.167,0,0,0-.851,2.835,2.271,2.271,0,0,0,1.48,1.295,1,1,0,0,0,.209.038l.105,0c1.187,0,2.172-1.416,2.445-1.851a2.6,2.6,0,0,0,.456-2.368,1.644,1.644,0,0,0-.865-.828,2.351,2.351,0,0,0-.827-.156Z" transform="translate(0)"/>
  </g>
  <g>
    <path class="cls-1" d="M25.516,74.556A1.592,1.592,0,0,1,23.9,72.824a2.134,2.134,0,0,1,2.176-2.07,2.422,2.422,0,0,1,.354.026,1.474,1.474,0,0,1,1.353,1.676,2.389,2.389,0,0,1-2.151,2.1Z" transform="translate(0)"/>
    <path class="cls-2" d="M26.075,71.254a1.936,1.936,0,0,1,.28.021.985.985,0,0,1,.926,1.141,1.888,1.888,0,0,1-1.653,1.645l-.076,0A1.1,1.1,0,0,1,24.4,72.834a1.623,1.623,0,0,1,1.676-1.581m0-1A2.631,2.631,0,0,0,23.4,72.812a2.1,2.1,0,0,0,2.081,2.243q.074.005.148.005a2.884,2.884,0,0,0,2.65-2.564A1.984,1.984,0,0,0,26.5,70.285a2.937,2.937,0,0,0-.425-.031Z" transform="translate(0)"/>
  </g>
  <g>
    <path class="cls-1" d="M58.479,84.263a2.883,2.883,0,0,1-1.705-1.035,2.549,2.549,0,0,1-.72-1.624c.063-.739.529-1.156,1.385-1.239h.006a3.29,3.29,0,0,1,2.2,1.083,1.414,1.414,0,0,1,.428,1.085c-.058.473-.21,1.733-1.487,1.733Z" transform="translate(0)"/>
    <path class="cls-2" d="M57.5,80.862c.852,0,2.158.968,2.079,1.61-.071.578-.2,1.294-.992,1.294l-.076,0a2.725,2.725,0,0,1-1.954-2.118c.053-.613.483-.74.936-.784H57.5m0-1h-.011c-.031,0-.062,0-.092,0a1.8,1.8,0,0,0-1.835,1.694,2.953,2.953,0,0,0,.838,1.993,3.3,3.3,0,0,0,2.058,1.209c.044,0,.088,0,.13,0,1.141,0,1.809-.731,1.985-2.173a1.864,1.864,0,0,0-.551-1.478A3.732,3.732,0,0,0,57.5,79.862Z" transform="translate(0)"/>
  </g>
  <g>
    <path class="cls-1" d="M82.32,68.8A3.036,3.036,0,0,1,82,68.78c-.22-.039-.386-.063-.539-.086a4.592,4.592,0,0,1-.906-.2,1.434,1.434,0,0,1-.921-.826,1.677,1.677,0,0,1,.184-1.407,1.551,1.551,0,0,1,1.411-.812,2.182,2.182,0,0,1,.618.093c.1.03.21.056.318.082a1.913,1.913,0,0,1,1.68,1.354,1.415,1.415,0,0,1-.209,1.271,1.568,1.568,0,0,1-1.317.544Z" transform="translate(0)"/>
    <path class="cls-2" d="M81.23,65.954a1.691,1.691,0,0,1,.477.072c.64.189,1.438.21,1.654,1.078.19.764-.249,1.193-1.042,1.193a2.489,2.489,0,0,1-.264-.015,9.359,9.359,0,0,1-1.328-.255c-.8-.287-.8-.918-.468-1.524a1.048,1.048,0,0,1,.971-.55m0-1a2.038,2.038,0,0,0-1.85,1.072,2.129,2.129,0,0,0-.212,1.823,1.919,1.919,0,0,0,1.22,1.119,5.036,5.036,0,0,0,1,.219c.148.022.308.046.486.078l.074.011a3.492,3.492,0,0,0,.371.02,2.1,2.1,0,0,0,1.713-.737,1.938,1.938,0,0,0,.3-1.7,2.391,2.391,0,0,0-2.048-1.72c-.1-.024-.2-.047-.292-.075a2.682,2.682,0,0,0-.761-.113Z" transform="translate(0)"/>
  </g>
  <g>
    <path class="cls-1" d="M12.38,87.211a1.285,1.285,0,0,1-1.072-.813,1.669,1.669,0,0,1,.266-2.179,2.948,2.948,0,0,1,2.155-1.238A2.287,2.287,0,0,1,14,83c.523.063.859.421,1,1.067a.5.5,0,0,1-.055.352c-.113.2-.214.409-.314.619a3.918,3.918,0,0,1-1.653,2.014,1.292,1.292,0,0,1-.6.162Z" transform="translate(0)"/>
    <path class="cls-2" d="M13.729,83.481a1.8,1.8,0,0,1,.212.013c.37.044.5.335.569.676-.494.87-.761,1.919-1.762,2.436a.813.813,0,0,1-.368.106c-.335,0-.5-.331-.694-.657a1.169,1.169,0,0,1,.258-1.5,2.472,2.472,0,0,1,1.785-1.073m0-1a3.421,3.421,0,0,0-2.529,1.4,2.126,2.126,0,0,0-.371,2.686l.048.081a1.76,1.76,0,0,0,1.5,1.059,1.8,1.8,0,0,0,.826-.217,4.37,4.37,0,0,0,1.874-2.241c.1-.2.191-.4.3-.589a1,1,0,0,0,.109-.7A1.643,1.643,0,0,0,14.06,82.5a2.794,2.794,0,0,0-.331-.02Z" transform="translate(0)"/>
  </g>
  <g>
    <path class="cls-1" d="M77.525,80.086a1.558,1.558,0,0,1-1.467-1.866,2.384,2.384,0,0,1,2.147-2.083l.146.007a1.457,1.457,0,0,1,1.5,1.51c-.112,1.012-1.3,2.438-2.222,2.438C77.634,80.093,77.545,80.089,77.525,80.086Z" transform="translate(0)"/>
    <path class="cls-2" d="M78.207,76.638c.033,0,.066,0,.1,0,.61.058,1.065.333,1.051,1-.091.808-1.137,1.949-1.722,1.949l-.049,0a1.073,1.073,0,0,1-1.028-1.326,1.877,1.877,0,0,1,1.65-1.626m0-1a2.88,2.88,0,0,0-2.646,2.539,2.056,2.056,0,0,0,1.906,2.406c.039,0,.127.01.167.01,1.211,0,2.579-1.624,2.716-2.837q.005-.045.006-.09A1.94,1.94,0,0,0,78.4,75.647c-.064-.006-.129-.009-.194-.009Z" transform="translate(0)"/>
  </g>
  <g>
    <path class="cls-1" d="M20.53,78.8a1.528,1.528,0,0,1-1.1-.471,1.858,1.858,0,0,1-.448-1.352,2.316,2.316,0,0,1,2.169-1.827,1.506,1.506,0,0,1,1.118.521,1.567,1.567,0,0,1,.288,1.2,1.946,1.946,0,0,1-1.951,1.932Z" transform="translate(0)"/>
    <path class="cls-2" d="M21.153,75.654h.038a.924.924,0,0,1,.872,1.158c-.1.838-.557,1.493-1.456,1.493h-.06c-.735-.023-1.087-.589-1.063-1.306.02-.615.973-1.345,1.669-1.345m0-1a2.791,2.791,0,0,0-2.669,2.311,2.353,2.353,0,0,0,.584,1.71,2.021,2.021,0,0,0,1.447.629h.092a2.437,2.437,0,0,0,2.448-2.37,2.054,2.054,0,0,0-.392-1.572,1.938,1.938,0,0,0-1.371-.7l-.062,0-.077,0Z" transform="translate(0)"/>
  </g>
  <g>
    <path class="cls-1" d="M70.377,79.279a1.333,1.333,0,0,1-.181-.013c-.677-.094-1.461-.506-1.351-1.931a1.757,1.757,0,0,1,1.91-1.762c.085,0,.173,0,.263.011a1.428,1.428,0,0,1,1.068.5,1.229,1.229,0,0,1,.211,1,2.254,2.254,0,0,1-1.92,2.2Z" transform="translate(0)"/>
    <path class="cls-2" d="M70.755,76.074q.109,0,.224.009c.5.04.936.259.826.911-.087.964-.751,1.785-1.426,1.785a.821.821,0,0,1-.113-.008c-.826-.115-.975-.7-.921-1.4a1.266,1.266,0,0,1,1.411-1.3m0-1A2.263,2.263,0,0,0,68.346,77.3a2.031,2.031,0,0,0,1.781,2.464,1.819,1.819,0,0,0,.251.017A2.764,2.764,0,0,0,72.8,77.121a1.7,1.7,0,0,0-.315-1.348,1.9,1.9,0,0,0-1.423-.687c-.1-.008-.2-.012-.3-.012Z" transform="translate(0)"/>
  </g>
  <g>
    <path class="cls-1" d="M10.041,89.61c-1.077-.167-1.785-.785-1.8-1.574A1.534,1.534,0,0,1,8.677,86.9a2.091,2.091,0,0,1,1.5-.573,1.845,1.845,0,0,1,1.348.517,1.531,1.531,0,0,1,.414,1.138c-.034,1.133-1.106,1.445-1.683,1.613a.5.5,0,0,1-.216.014Z" transform="translate(0)"/>
    <path class="cls-2" d="M10.178,86.828h.02a1.109,1.109,0,0,1,1.242,1.138c-.023.741-.7.968-1.322,1.149-.678-.1-1.365-.471-1.38-1.092-.019-.758.657-1.2,1.441-1.2m0-1a2.593,2.593,0,0,0-1.859.724,2.05,2.05,0,0,0-.581,1.5c.026,1.043.9,1.85,2.227,2.055a1,1,0,0,0,.433-.028c.6-.174,2-.582,2.042-2.078a2.019,2.019,0,0,0-.553-1.5,2.322,2.322,0,0,0-1.679-.67Z" transform="translate(0)"/>
  </g>
  <g>
    <path class="cls-1" d="M69.4,82.056a1.5,1.5,0,0,1-1.5-1.541,1.684,1.684,0,0,1,.461-1.22,1.747,1.747,0,0,1,1.218-.584H69.6a.5.5,0,0,1,.131.018,1.709,1.709,0,0,1,1.5,1.422,1.678,1.678,0,0,1-.414,1.312,1.775,1.775,0,0,1-1.328.595Z" transform="translate(0)"/>
    <path class="cls-2" d="M69.6,79.211c.524.142,1.047.312,1.131,1a1.229,1.229,0,0,1-1.246,1.346h-.06A1,1,0,0,1,68.4,80.485,1.286,1.286,0,0,1,69.6,79.211m0-1h-.029A2.246,2.246,0,0,0,68,78.958a2.187,2.187,0,0,0-.591,1.587,1.984,1.984,0,0,0,1.972,2.011l.105,0a2.273,2.273,0,0,0,1.7-.763,2.13,2.13,0,0,0-1.324-3.548,1,1,0,0,0-.262-.035Z" transform="translate(0)"/>
  </g>
  <g>
    <path class="cls-1" d="M84.692,71.726c-1.6-.059-1.928-.968-1.92-1.72.014-1.25.788-1.437,1.248-1.437a2.156,2.156,0,0,1,2.052,1.423.494.494,0,0,1,.035.209c-.049,1.125-.732,1.526-1.355,1.526Z" transform="translate(0)"/>
    <path class="cls-2" d="M84.02,69.069h.045a1.633,1.633,0,0,1,1.544,1.109c-.03.689-.344,1.048-.856,1.048h-.041c-.747-.027-1.449-.24-1.439-1.216.005-.511.136-.942.747-.942m0-1A1.719,1.719,0,0,0,82.272,70c-.007.643.214,2.146,2.4,2.226h.078a1.862,1.862,0,0,0,1.855-2,1,1,0,0,0-.072-.418A2.611,2.611,0,0,0,84.1,68.07Z" transform="translate(0)"/>
  </g>
  <g>
    <path class="cls-1" d="M53.389,79.435a1.756,1.756,0,0,1-.221-.015c-.708-.09-1.894-.241-2.044-1.561a1.106,1.106,0,0,1,.254-.9,1.438,1.438,0,0,1,1.126-.413l.1,0a1.931,1.931,0,0,1,1.966,1.6.5.5,0,0,1,0,.179,1.163,1.163,0,0,1-1.187,1.106Z" transform="translate(0)"/>
    <path class="cls-2" d="M52.5,77.049l.083,0a1.432,1.432,0,0,1,1.5,1.2c-.075.484-.318.684-.693.684a1.252,1.252,0,0,1-.158-.011c-.733-.093-1.506-.212-1.61-1.121-.068-.593.4-.754.883-.754m0-1a1.906,1.906,0,0,0-1.5.58,1.594,1.594,0,0,0-.378,1.288,2.411,2.411,0,0,0,2.477,2,2.257,2.257,0,0,0,.284.019,1.661,1.661,0,0,0,1.681-1.529,1,1,0,0,0-.009-.357,2.43,2.43,0,0,0-2.438-2l-.119,0Z" transform="translate(0)"/>
  </g>
  <g>
    <path class="cls-1" d="M60.719,86.368a1.333,1.333,0,0,1-1.29-1.424,1.463,1.463,0,0,1,.374-1.1,1.494,1.494,0,0,1,1.116-.406,1.331,1.331,0,0,1,.989.365,1.358,1.358,0,0,1,.351,1.012,1.534,1.534,0,0,1-1.414,1.551.519.519,0,0,1-.083.007Z" transform="translate(0)"/>
    <path class="cls-2" d="M60.918,83.936h.006a.749.749,0,0,1,.834.869,1.036,1.036,0,0,1-1,1.065.845.845,0,0,1-.833-.939.867.867,0,0,1,.989-1m0-1a1.975,1.975,0,0,0-1.474.557,1.945,1.945,0,0,0-.515,1.464,1.832,1.832,0,0,0,1.746,1.909q.043,0,.086,0a1,1,0,0,0,.166-.014,2.021,2.021,0,0,0,1.83-2.035,1.84,1.84,0,0,0-.493-1.371,1.81,1.81,0,0,0-1.337-.515Z" transform="translate(0)"/>
  </g>
</svg>
