<svg id="Layer_1" data-name="Layer 1" xmlns="http://www.w3.org/2000/svg" viewBox="0 0 164.526 65.984">
  <defs>
    <style>
      .cls-1 {
        fill: #0000b8;
      }

      .cls-2 {
        fill: #fff;
      }
    </style>
  </defs>
  <title>6ef2d62c-1d53-4c3f-a5a5-e927833a35ba</title>
  <g>
    <path class="cls-1" d="M97.739,19.936q-.5,0-1.018-.042a5.55,5.55,0,0,1-4.412-3.263,5.661,5.661,0,0,1-.38-.883c-.256-.7-.442-1.146-1.041-1.372a1.08,1.08,0,0,1-.667-.7,1.52,1.52,0,0,1,.251-1.286,1.632,1.632,0,0,0,.142-1.434,3.823,3.823,0,0,0-2.37-2.21c-.875.392-.956,1.177-.991,2.425a4.86,4.86,0,0,0,.027.571c.065.725.173,1.938-1.358,2.267a1.423,1.423,0,0,1-.293.031h0c-1.018,0-1.809-1.1-1.968-2.729a53.051,53.051,0,0,0-1.5-7.9L82.1,3.207a1.773,1.773,0,0,1,0-1.407,1.274,1.274,0,0,1,.857-.57,2.321,2.321,0,0,1,.52-.062,1.82,1.82,0,0,1,1.789,1.7c.081.492.113.988.145,1.468.024.391.05.781.1,1.168a10.95,10.95,0,0,0,.269,1.23c.006.025.013.051.02.076,1-.878,1.645-1.3,2.369-1.3.791,0,1.468.494,2.6,1.532.125.114.253.226.383.338a9.124,9.124,0,0,1,1.206,1.2A15.477,15.477,0,0,1,96.77,2.752,6.653,6.653,0,0,1,100.9.99a5.063,5.063,0,0,1,1.125.13c2.6.593,4.029,1.99,4.381,4.273a4.9,4.9,0,0,0,.352,1.384l.088-.076a16.144,16.144,0,0,1,1.257-1.024,2.871,2.871,0,0,1,1.675-.512,3.235,3.235,0,0,1,2.764,1.5,1.451,1.451,0,0,1,.048,1.447,1.371,1.371,0,0,1-1.171.7h-.006a2.423,2.423,0,0,1-1.152-.285,2.031,2.031,0,0,0-.664-.267c-.025,0-.083.044-.14.24a.221.221,0,0,0-.01.139c.071.127.488.243.689.3.475.131.954.246,1.434.361.452.108.9.217,1.352.339a2.667,2.667,0,0,1,1.909,1.756,2.422,2.422,0,0,1-.55,2.323,5.7,5.7,0,0,1-4.1,2.023l-.184,0a1.875,1.875,0,0,1-2.112-1.927,1.874,1.874,0,0,1,.423-1.367,1.7,1.7,0,0,1,1.287-.43,5.417,5.417,0,0,1,.6.038c.119.014.236.033.354.053a3.221,3.221,0,0,0,.467.057l-.393-.107a15.96,15.96,0,0,1-3.2-1.12,2.584,2.584,0,0,0-.2.8c-.022.153-.045.3-.077.449C106.061,17.041,102.544,19.936,97.739,19.936Zm3.055-16a3.515,3.515,0,0,0-1.929.775A10.973,10.973,0,0,0,94.185,12a5.176,5.176,0,0,0,.934,3.877A3.365,3.365,0,0,0,97.3,17.341a5.111,5.111,0,0,0,.679.045,6.692,6.692,0,0,0,6.208-5.172,4.565,4.565,0,0,0-.861.146,4.926,4.926,0,0,1-1.134.172,2.36,2.36,0,0,1-.577-.068,2.825,2.825,0,0,0-.694-.088,5.291,5.291,0,0,0-2.129.606,2.769,2.769,0,0,1-1.133.263c-1.244,0-2.108-1.007-2.2-2.565a4.136,4.136,0,0,1,1.188-3.03,4.545,4.545,0,0,1,3.213-1.467,3.659,3.659,0,0,1,.6.05.733.733,0,0,1,.43.259,4.552,4.552,0,0,1,2.031-1.327A3.018,3.018,0,0,0,100.793,3.937Zm1.349,4.406c.236.383.487.786.58.893.021.023.092.1.14.1.021,0,.135-.012.375-.233.2-.179.213-.269.214-.27h0a1.113,1.113,0,0,0-.131-.11,2.117,2.117,0,0,0-.921-.48A.4.4,0,0,0,102.142,8.343Z" transform="translate(0 0)"/>
    <path class="cls-2" d="M100.9,1.49a4.541,4.541,0,0,1,1.013.117c2.14.488,3.645,1.573,4,3.862a4.1,4.1,0,0,0,.731,2.066c.58-.486,1.132-1.014,1.749-1.451a2.382,2.382,0,0,1,1.386-.42,2.738,2.738,0,0,1,2.334,1.256.89.89,0,0,1-.71,1.4h-.046a1.88,1.88,0,0,1-.858-.225,2.132,2.132,0,0,0-.9-.327c-.268,0-.492.153-.621.6-.2.711.492.908,1.027,1.057.923.256,1.863.45,2.788.7a1.969,1.969,0,0,1,1.114,3.267,5.2,5.2,0,0,1-3.747,1.854q-.082,0-.16,0c-1.059,0-1.6-.514-1.614-1.433s.285-1.291,1.209-1.291a4.862,4.862,0,0,1,.549.035,8.2,8.2,0,0,0,.9.113,1.313,1.313,0,0,0,1.149-.679,22.969,22.969,0,0,1-4.907-1.7,3.027,3.027,0,0,0-.631,1.787c-1.038,4.638-4.336,7.35-8.918,7.35q-.48,0-.979-.04c-1.977-.159-3.112-1.411-4.017-3.011-.488-.862-.488-2.028-1.679-2.477-.487-.184-.5-.762-.18-1.232a2.13,2.13,0,0,0,.213-1.843c-.288-1.091-1.931-2.583-2.854-2.583a.639.639,0,0,0-.274.056c-1.161.547-1.185,1.762-1.218,2.885-.026.9.465,2.032-.936,2.333a.889.889,0,0,1-.187.02c-.708,0-1.332-.869-1.47-2.277a53.3,53.3,0,0,0-1.516-7.978c-.145-.57-.518-1.351.427-1.573a1.773,1.773,0,0,1,.4-.05,1.33,1.33,0,0,1,1.3,1.284c.142.864.126,1.753.244,2.622.085.627.277,1.239.42,1.851.108,0,.224.024.314.024a.181.181,0,0,0,.122-.033c1.041-.933,1.671-1.4,2.3-1.4s1.243.466,2.26,1.4A8.735,8.735,0,0,1,92.452,9.61a15.522,15.522,0,0,1,4.63-6.467A6.178,6.178,0,0,1,100.9,1.49m-2.921,16.4a7.165,7.165,0,0,0,6.79-6.1,1.916,1.916,0,0,0-.519-.068c-.7,0-1.376.319-2.06.319a1.856,1.856,0,0,1-.454-.054,3.338,3.338,0,0,0-.817-.1,5.719,5.719,0,0,0-2.332.649,2.286,2.286,0,0,1-.93.219c-.972,0-1.625-.816-1.7-2.094a4.033,4.033,0,0,1,3.9-3.969,3.107,3.107,0,0,1,.518.043c.314.053,1.621,2.449,1.963,2.841a.68.68,0,0,0,.516.272,1.143,1.143,0,0,0,.715-.365c.4-.364.579-.773.03-1.157a2.35,2.35,0,0,0-1.208-.572.958.958,0,0,0-.665.292.239.239,0,0,1-.164.063.268.268,0,0,1-.209-.1c-.365-.459-.847-1.516,2.416-2.614-1.057-1.313-1.98-1.948-2.982-1.948a3.951,3.951,0,0,0-2.214.865,11.461,11.461,0,0,0-4.886,7.609c-.481,2.694,1.315,5.624,3.545,5.925a5.581,5.581,0,0,0,.745.05M100.9.49h0a7.208,7.208,0,0,0-4.447,1.872A15.586,15.586,0,0,0,92.228,7.7c-.259-.261-.514-.482-.755-.692-.125-.109-.249-.216-.37-.327-1.026-.943-1.894-1.664-2.936-1.664a3.364,3.364,0,0,0-2.076.9c-.035-.16-.064-.318-.086-.474-.05-.364-.074-.739-.1-1.136-.031-.491-.064-1-.149-1.514A2.322,2.322,0,0,0,83.474.667a2.78,2.78,0,0,0-.633.076,1.754,1.754,0,0,0-1.175.805,2.2,2.2,0,0,0-.046,1.8c.019.065.038.129.053.19a52.542,52.542,0,0,1,1.49,7.828c.186,1.9,1.177,3.18,2.465,3.18a1.9,1.9,0,0,0,.4-.043,2.245,2.245,0,0,0,1.752-2.8,4.508,4.508,0,0,1-.027-.482c.033-1.139.1-1.688.552-1.96a3.712,3.712,0,0,1,1.827,1.828,1.117,1.117,0,0,1-.071,1.023,2,2,0,0,0-.315,1.721,1.571,1.571,0,0,0,.967,1.012c.38.143.5.394.748,1.075a6.2,6.2,0,0,0,.414.959,6,6,0,0,0,4.807,3.514c.356.029.712.043,1.059.043,5.056,0,8.754-3.04,9.894-8.132.035-.156.06-.319.085-.486.009-.06.017-.116.026-.169q.255.111.514.209a1.752,1.752,0,0,0-.3.246,2.329,2.329,0,0,0-.567,1.725A2.358,2.358,0,0,0,110,16.25q.1,0,.205,0a6.191,6.191,0,0,0,4.454-2.2,2.91,2.91,0,0,0,.651-2.8,3.161,3.161,0,0,0-2.256-2.093q-.308-.084-.617-.16a1.834,1.834,0,0,0,.592-.646,1.945,1.945,0,0,0-.055-1.942,3.745,3.745,0,0,0-3.194-1.747,3.369,3.369,0,0,0-1.964.6c-.285.2-.553.418-.811.636-.037-.177-.069-.371-.1-.588-.381-2.475-1.984-4.051-4.763-4.685A5.567,5.567,0,0,0,100.9.49ZM97.891,6.135a11.836,11.836,0,0,1,1.261-1.014,3.062,3.062,0,0,1,1.641-.685h0a1.894,1.894,0,0,1,1.252.569,4.946,4.946,0,0,0-1.224.813,1.128,1.128,0,0,0-.273-.08,4.122,4.122,0,0,0-.685-.057,4.641,4.641,0,0,0-1.973.454Zm.092,10.75a4.6,4.6,0,0,1-.612-.041,2.916,2.916,0,0,1-1.849-1.263,4.732,4.732,0,0,1-.845-3.495,11.636,11.636,0,0,1,.3-1.254c.148,1.747,1.217,2.911,2.69,2.911A3.276,3.276,0,0,0,99,13.438a4.894,4.894,0,0,1,1.923-.562,2.334,2.334,0,0,1,.574.072,2.87,2.87,0,0,0,.7.084,5.43,5.43,0,0,0,1.248-.184l.049-.011a6.161,6.161,0,0,1-5.508,4.05Z" transform="translate(0 0)"/>
  </g>
  <g>
    <path class="cls-1" d="M142.1,65.484a3.615,3.615,0,0,1-2.647-1.762,25.13,25.13,0,0,1-1.512-2.762,14.541,14.541,0,0,0-2.492-3.948c-.178-.18-.238-.19-.249-.19s-.087.014-.309.29l-4.064,5.063a.5.5,0,0,1-.39.188h-.019a.5.5,0,0,1-.394-.217c-.874-1.272-.762-2.961-.663-4.45.028-.425.057-.836.059-1.219l.113-19.011a.5.5,0,0,1,.372-.48,1.311,1.311,0,0,1,.331-.043,2.264,2.264,0,0,1,1.508.815c2.6,2.625,5.171,5.353,7.633,8.105,2.083,2.331,4.135,4.729,6.1,7.128a1.794,1.794,0,0,1,.448,1.279.894.894,0,0,1-.407.62.935.935,0,0,1-.513.146,1.827,1.827,0,0,1-.763-.214,6.957,6.957,0,0,0-2.935-.646,6.853,6.853,0,0,0-1.8.238.867.867,0,0,0-.388.181c-.034.049-.086.22.188.728a44.738,44.738,0,0,0,3.433,5.39,5.956,5.956,0,0,1,1.139,2.021,2.266,2.266,0,0,1-.8,2.462A1.768,1.768,0,0,1,142.1,65.484Z" transform="translate(0 0)"/>
    <path class="cls-2" d="M130.234,37.441a1.828,1.828,0,0,1,1.153.669Q135.3,42.053,139,46.2q3.119,3.489,6.085,7.112c.281.344.534.922.159,1.161a.444.444,0,0,1-.244.067,1.4,1.4,0,0,1-.551-.167,7.445,7.445,0,0,0-3.146-.693,7.352,7.352,0,0,0-1.933.257,1.14,1.14,0,0,0-.665.375c-.256.364-.054.862.157,1.253a45.058,45.058,0,0,0,3.471,5.45,5.585,5.585,0,0,1,1.055,1.848,1.761,1.761,0,0,1-.588,1.916,1.276,1.276,0,0,1-.7.209,3.126,3.126,0,0,1-2.23-1.538c-1.462-2.206-2.2-4.9-4.066-6.785a.925.925,0,0,0-.592-.339H135.2a1,1,0,0,0-.7.477l-4.065,5.063c-1.012-1.473-.526-3.7-.516-5.383l.037-6.233.076-12.778a.79.79,0,0,1,.2-.026m0-1a1.8,1.8,0,0,0-.459.06,1,1,0,0,0-.744.961l-.076,12.778-.037,6.233c0,.362-.029.763-.057,1.188-.1,1.571-.224,3.351.749,4.767a1,1,0,0,0,.787.433h.037a1,1,0,0,0,.78-.374L135.22,57.5a14.9,14.9,0,0,1,2.27,3.683A25.394,25.394,0,0,0,139.034,64a4.046,4.046,0,0,0,3.064,1.986,2.263,2.263,0,0,0,1.247-.369,2.751,2.751,0,0,0,1.014-3.007,6.186,6.186,0,0,0-1.165-2.119l-.056-.075a44.2,44.2,0,0,1-3.394-5.329c-.042-.077-.072-.141-.095-.192a6.348,6.348,0,0,1,1.655-.217,6.461,6.461,0,0,1,2.722.6,2.318,2.318,0,0,0,.975.262,1.45,1.45,0,0,0,.782-.224,1.389,1.389,0,0,0,.632-.964,2.253,2.253,0,0,0-.555-1.674c-1.975-2.413-4.032-4.817-6.113-7.145-2.469-2.761-5.042-5.494-7.65-8.123a2.706,2.706,0,0,0-1.863-.964Z" transform="translate(0 0)"/>
  </g>
  <g>
    <path class="cls-1" d="M14.166,24.969c-1.271,0-1.66-.812-1.892-1.689A69.4,69.4,0,0,1,10.56,13.12a14.918,14.918,0,0,0-.426-2.056,13.623,13.623,0,0,1-.459-2.383,3.932,3.932,0,0,0-.953-2.66,1.325,1.325,0,0,1-.231-1.457,2.068,2.068,0,0,1,1.909-1.1l.708.021c.713.022,1.424.044,2.135.044a21.457,21.457,0,0,0,2.421-.119c3.755-.421,8.012-.9,12.173-1.13.181-.011.36-.015.54-.015.525,0,1.044.038,1.561.076.419.031.838.063,1.259.071a1.807,1.807,0,0,1,1.725.809A1.948,1.948,0,0,1,32.6,5.243,5.258,5.258,0,0,1,31.529,6.4a4.664,4.664,0,0,0-.892.934c-1.036,1.606-2.13,3.319-3.115,5.061-.5.89-.918,1.519-1.659,1.519a3.291,3.291,0,0,1-1.641-.7,8.777,8.777,0,0,0-2.872-1.285,29.247,29.247,0,0,1-7.811-2.632c-.085-.045-.171-.1-.26-.153a1.166,1.166,0,0,0-.542-.231.463.463,0,0,0-.072.007,42.657,42.657,0,0,1,.58,4.783A30.134,30.134,0,0,0,14.3,20.347c.469,1.482.469,1.482,1.928,1.487h0a41.627,41.627,0,0,0,6.1-.595c1.566-.232,3.188-.473,4.812-.565,1.056-.061,2.153-.092,3.261-.092,1.271,0,2.559.039,3.936.118.124.007.239.012.347.012.563,0,.673-.054.684-.675A72.972,72.972,0,0,0,34.71,9.381a1,1,0,0,0-.078-.211,1.841,1.841,0,0,1-.151-.443,1.419,1.419,0,0,1,.627-1.568,1.274,1.274,0,0,1,.641-.182,1.828,1.828,0,0,1,1.214.632,1.984,1.984,0,0,1,.514,1.442l.157,2.783c.115,2.015.23,4.029.322,6.046l.03.8a16.834,16.834,0,0,0,.308,3.158,2.471,2.471,0,0,1-.433,2.1,2.179,2.179,0,0,1-1.713.815,2.581,2.581,0,0,1-1.168-.29,12.593,12.593,0,0,0-5.846-1.217c-1.249,0-2.535.105-3.778.208l-.377.03a47.715,47.715,0,0,0-9.1,1.378,3.361,3.361,0,0,1-.92.1s-.543,0-.622,0Zm-.577-18.66A8.847,8.847,0,0,0,15,7.11l.372.184a24.667,24.667,0,0,0,5.469,1.743,35.6,35.6,0,0,1,4.044,1.119,1.047,1.047,0,0,0,.354.071c.193,0,.459-.074.8-.654.429-.731.89-1.444,1.35-2.158.315-.488.632-.978.937-1.473.372-.6.372-.789.369-.817l0,0a3.152,3.152,0,0,0-.868-.1q-.4-.009-.806-.009a80.761,80.761,0,0,0-10.513.919C15.541,6.063,14.57,6.19,13.589,6.309Z" transform="translate(0 0)"/>
    <path class="cls-2" d="M28.374,2.765c.949,0,1.873.128,2.812.148,1.424.029,1.755.851.992,2.064-.517.823-1.423,1.249-1.961,2.081-1.08,1.674-2.148,3.35-3.131,5.085-.495.873-.787,1.265-1.224,1.265a3.057,3.057,0,0,1-1.373-.624,9.148,9.148,0,0,0-3.039-1.353,28.986,28.986,0,0,1-7.679-2.586,2.248,2.248,0,0,0-1.034-.44,1.142,1.142,0,0,0-.642.221c.849,3.869.493,7.966,1.73,11.872.579,1.829.547,1.83,2.4,1.836h.059c3.669,0,7.226-.951,10.878-1.161q1.621-.093,3.23-.09c1.305,0,2.607.042,3.909.117.133.008.258.012.375.012.759,0,1.168-.2,1.184-1.166a73.906,73.906,0,0,0-.657-10.73c-.03-.231-.192-.443-.233-.674a.943.943,0,0,1,.385-1.051.768.768,0,0,1,.39-.114,1.381,1.381,0,0,1,.869.5,1.523,1.523,0,0,1,.359,1.106c.161,2.942.345,5.882.479,8.825a22.812,22.812,0,0,0,.348,4.041,1.773,1.773,0,0,1-1.657,2.309,2.1,2.1,0,0,1-.943-.237,13.121,13.121,0,0,0-6.07-1.27c-1.4,0-2.8.127-4.2.24a48.314,48.314,0,0,0-9.2,1.395,2.907,2.907,0,0,1-.784.081l-.384,0c-.088,0-.176,0-.263.005q-.076,0-.147,0c-.821,0-1.154-.364-1.407-1.316a68.31,68.31,0,0,1-1.7-10.086c-.167-1.519-.782-2.965-.883-4.419a4.415,4.415,0,0,0-1.08-2.958c-.628-.7.127-1.724,1.3-1.724h.058c.93.026,1.858.063,2.786.063a22.173,22.173,0,0,0,2.477-.122C19.76,3.453,23.8,3,27.864,2.779c.171-.01.341-.014.51-.014m-3.133,7.962a1.471,1.471,0,0,0,1.23-.9C27.193,8.6,28,7.419,28.752,6.2c.775-1.257.574-1.648-.919-1.678q-.406-.008-.811-.008c-4.819,0-9.568.853-14.57,1.421a7.674,7.674,0,0,0,2.7,1.8c3.02,1.517,6.43,1.747,9.566,2.886a1.539,1.539,0,0,0,.525.1m3.133-8.962h0c-.188,0-.376,0-.566.015-4.174.232-8.438.711-12.2,1.133a20.95,20.95,0,0,1-2.366.116c-.7,0-1.409-.022-2.115-.044l-.643-.019H10.4a2.537,2.537,0,0,0-2.364,1.4,1.812,1.812,0,0,0,.314,1.994,3.466,3.466,0,0,1,.828,2.362A13.887,13.887,0,0,0,9.65,11.19a14.5,14.5,0,0,1,.413,1.985,69.757,69.757,0,0,0,1.728,10.233,2.323,2.323,0,0,0,2.373,2.06c.063,0,.127,0,.194,0s.144,0,.216,0h.384a3.875,3.875,0,0,0,1.054-.118,47.254,47.254,0,0,1,9.006-1.361l.385-.031c1.231-.1,2.5-.205,3.73-.205a12.11,12.11,0,0,1,5.62,1.163,3.079,3.079,0,0,0,1.393.344,2.676,2.676,0,0,0,2.1-1,2.969,2.969,0,0,0,.53-2.526,16.393,16.393,0,0,1-.294-3.06c-.009-.269-.018-.538-.031-.808-.092-2.018-.209-4.065-.323-6.045q-.08-1.395-.157-2.789a2.466,2.466,0,0,0-.67-1.777,2.272,2.272,0,0,0-1.557-.769,1.761,1.761,0,0,0-.891.249,1.918,1.918,0,0,0-.869,2.088,2.312,2.312,0,0,0,.187.561,1.094,1.094,0,0,1,.048.113,72.687,72.687,0,0,1,.64,10.542,1.692,1.692,0,0,1-.011.176c-.042,0-.1.006-.173.006-.1,0-.2,0-.317-.011-1.387-.08-2.685-.119-3.967-.119-1.116,0-2.222.031-3.287.092-1.646.094-3.278.336-4.856.57a40.548,40.548,0,0,1-5.965.589h-.056a8.357,8.357,0,0,1-1.068-.039,8.374,8.374,0,0,1-.355-1l-.03-.094a29.788,29.788,0,0,1-1.035-6.544c-.106-1.286-.216-2.606-.423-3.915a29.719,29.719,0,0,0,7.927,2.673,8.3,8.3,0,0,1,2.706,1.218,3.742,3.742,0,0,0,1.909.78c1.09,0,1.647-.982,2.094-1.772.989-1.746,2.074-3.445,3.1-5.035a4.3,4.3,0,0,1,.8-.829,5.76,5.76,0,0,0,1.167-1.263,2.411,2.411,0,0,0,.335-2.527,2.27,2.27,0,0,0-2.154-1.07c-.4-.008-.805-.038-1.231-.07-.516-.038-1.05-.078-1.6-.078ZM15.137,6.619l1.437-.187a80.457,80.457,0,0,1,10.448-.914q.4,0,.791.008l.176.006q-.039.068-.089.148c-.3.494-.619.982-.934,1.469-.453.7-.922,1.429-1.358,2.171-.145.247-.29.407-.368.407a.564.564,0,0,1-.184-.042,36.1,36.1,0,0,0-4.1-1.136,23.863,23.863,0,0,1-5.36-1.7c-.124-.062-.249-.123-.375-.185l-.087-.042Z" transform="translate(0 0)"/>
  </g>
  <g>
    <path class="cls-1" d="M158.883,15.612c-.67,0-1.185-.482-1.53-1.435q-.211-.579-.364-.965a1.944,1.944,0,0,1-1.355.616,2.464,2.464,0,0,1-1.78-.982,3.737,3.737,0,0,0-1.606-.622c-.051.341-.12.774-.178,1.054l-.025.129a1.486,1.486,0,0,1-1.019,1.371,1.98,1.98,0,0,1-.547.079,1.772,1.772,0,0,1-1.482-.81A8.187,8.187,0,0,1,148.424,13a5.635,5.635,0,0,1-1.337,1.154,4.231,4.231,0,0,1-2.136.734,3.238,3.238,0,0,1-2.54-1.558,1.732,1.732,0,0,0-1.593-.641l-.753.012-.267,0c-1.038,0-1.485.149-1.566,1.073a1.565,1.565,0,0,1-1.57,1.469l-.1,0a1.747,1.747,0,0,1-1.605-1.8,7.811,7.811,0,0,1,.052-.979c.1-1.192.314-3.673-.628-3.994a1.268,1.268,0,0,1-.92-1.175,1.459,1.459,0,0,1,1.027-1.347,7.186,7.186,0,0,1,2.256-.436c1.236-.035,2.473-.046,3.71-.046q1.27,0,2.54.011a4.023,4.023,0,0,1,1.318.287c.927.333,1.08.917,1.045,1.349a1.4,1.4,0,0,1-.181.6,5.376,5.376,0,0,1,2.974,1.154,3.782,3.782,0,0,1,1.705-3,3.549,3.549,0,0,1,2.013-.62,3.685,3.685,0,0,1,2.966,1.5,2.354,2.354,0,0,1-.463,3.162c.589.218,1.364.52,1.987.817-.015-.147-.033-.294-.052-.438a3.978,3.978,0,0,1,.11-2.064,2.387,2.387,0,0,1,2.334-1.8h0c.3,0,.563-.011.828-.021s.558-.022.836-.022a7.233,7.233,0,0,1,.784.038,3.126,3.126,0,0,1,2.4,1.371,3.074,3.074,0,0,1,.223,2.707,10.284,10.284,0,0,1-3.741,4.627,1.951,1.951,0,0,1-1.191.491ZM145.57,10.878a.752.752,0,0,0-.149.017c-.589.119-.563.322-.537.538.039.319.146.319.281.319a1.01,1.01,0,0,0,.105-.006c.529-.062.727-.249.809-.531C145.874,10.922,145.708,10.878,145.57,10.878Zm14.541-1.535a.705.705,0,0,0-.512.149,1.219,1.219,0,0,0-.183.848c.018.674.112.759.343.8a2.748,2.748,0,0,0,.98-1.576c-.016-.171-.019-.2-.539-.224ZM139.121,8.172a.983.983,0,0,0-.7.176,1.2,1.2,0,0,0-.168.79c.03.848.357.915.783.915a2.97,2.97,0,0,0,.372-.027,4.07,4.07,0,0,0,2.528-.909,6.505,6.505,0,0,1,1.011-.774c-.783-.028-1.547-.065-2.312-.1L139.3,8.176Z" transform="translate(0 0)"/>
    <path class="cls-2" d="M151.864,5.745a3.162,3.162,0,0,1,2.559,1.292A1.875,1.875,0,0,1,154,9.566l-.648.51a21.421,21.421,0,0,1,3.522,1.508c.1-1.182-.39-2.156.009-3.18.368-.945.845-1.484,1.868-1.484h.037c.543,0,1.091-.043,1.633-.043a6.928,6.928,0,0,1,.728.034,2.444,2.444,0,0,1,2.2,3.417,9.862,9.862,0,0,1-3.577,4.4,1.5,1.5,0,0,1-.884.385c-.452,0-.8-.383-1.06-1.105a17.654,17.654,0,0,0-.7-1.722c-.484.678-.971,1.043-1.492,1.043a2.018,2.018,0,0,1-1.41-.818,5.4,5.4,0,0,0-2.4-.866s-.141,1.026-.246,1.532-.143.964-.692,1.12a1.5,1.5,0,0,1-.41.06,1.261,1.261,0,0,1-1.067-.589,15.869,15.869,0,0,1-.876-1.685,6.409,6.409,0,0,1-1.7,1.647,3.786,3.786,0,0,1-1.879.663,2.8,2.8,0,0,1-2.147-1.366,2.238,2.238,0,0,0-1.985-.832c-.251,0-.506.012-.76.012h-.26c-1.017,0-1.943.138-2.064,1.529a1.061,1.061,0,0,1-1.072,1.012l-.074,0a1.266,1.266,0,0,1-1.136-1.334c-.053-.847.753-4.847-.914-5.415-.842-.287-.74-1.263.119-1.579a6.722,6.722,0,0,1,2.1-.4c1.234-.036,2.468-.047,3.7-.047q1.265,0,2.529.011a3.576,3.576,0,0,1,1.152.256c.377.136.755.365.718.84a.855.855,0,0,1-.959.8h-.041c-1.513-.039-3.024-.127-4.537-.195q-.1,0-.2,0c-.906,0-1.41.326-1.369,1.484.039,1.075.547,1.4,1.283,1.4a3.426,3.426,0,0,0,.437-.031,4.511,4.511,0,0,0,2.8-1.038,4.107,4.107,0,0,1,2.8-1.27,5.628,5.628,0,0,1,3.572,1.694,3.585,3.585,0,0,1,1.486-3.628,3.047,3.047,0,0,1,1.73-.534m.268,2.512c.12,0,.246-.131.369-.2-.117-.084-.233-.231-.352-.235h-.005c-.126,0-.255.13-.382.2.121.084.238.229.363.235h.008m7.587,3.383c.553,0,1.557-1.4,1.52-2.1-.058-.643-.525-.673-1.016-.7l-.112,0c-.986,0-1.217.646-1.195,1.51.015.561.06,1.148.746,1.281a.3.3,0,0,0,.057.005m-14.554.613a1.4,1.4,0,0,0,.163-.01,1.267,1.267,0,0,0,1.281-1.124,1.216,1.216,0,0,0-1.039-.74,1.254,1.254,0,0,0-.249.026c-.583.118-1.02.389-.934,1.089.061.5.319.759.778.759m6.7-7.508h0a4.048,4.048,0,0,0-2.3.708,4.159,4.159,0,0,0-1.8,2.572,5.778,5.778,0,0,0-1.93-.745c.006-.042.011-.085.014-.129a1.788,1.788,0,0,0-1.375-1.859,4.491,4.491,0,0,0-1.484-.316c-.845-.006-1.691-.011-2.537-.011-1.43,0-2.615.015-3.731.047a7.706,7.706,0,0,0-2.415.465A1.951,1.951,0,0,0,132.958,7.3a1.754,1.754,0,0,0,1.259,1.641c.134.046.551.431.291,3.477a8.023,8.023,0,0,0-.052,1.054,2.247,2.247,0,0,0,2.074,2.269c.045,0,.09,0,.134,0a2.056,2.056,0,0,0,2.068-1.925c.042-.486.054-.617,1.068-.617h.26c.135,0,.271,0,.405-.006.119,0,.237-.006.355-.006.656,0,.925.1,1.2.449a3.852,3.852,0,0,0,2.934,1.749,4.692,4.692,0,0,0,2.393-.805,5.512,5.512,0,0,0,.952-.73c.087.157.18.314.284.468a2.263,2.263,0,0,0,1.9,1.031,2.5,2.5,0,0,0,.684-.1,1.972,1.972,0,0,0,1.372-1.753l.025-.126c.031-.152.065-.343.1-.54a2.487,2.487,0,0,1,.829.346,2.923,2.923,0,0,0,2.147,1.142,2.193,2.193,0,0,0,1.128-.314l.116.316c.536,1.475,1.386,1.781,2.006,1.781a2.428,2.428,0,0,0,1.5-.6,10.893,10.893,0,0,0,3.906-4.857,3.563,3.563,0,0,0-.272-3.139,3.616,3.616,0,0,0-2.766-1.6,7.9,7.9,0,0,0-.833-.04c-.284,0-.57.011-.856.023-.259.01-.519.021-.777.021a2.881,2.881,0,0,0-2.837,2.12,3.877,3.877,0,0,0-.193,1.871c-.177-.074-.354-.145-.527-.213a2.819,2.819,0,0,0,.01-3.244,4.137,4.137,0,0,0-3.374-1.712ZM138.787,8.7a1.256,1.256,0,0,1,.337-.033c.049,0,.1,0,.151,0q.66.03,1.321.063l.965.046a3.524,3.524,0,0,1-2.127.734l-.088.011a2.418,2.418,0,0,1-.308.023.641.641,0,0,1-.222-.027,1.485,1.485,0,0,1-.061-.406,1.319,1.319,0,0,1,.033-.415Zm21.171,1.151a.756.756,0,0,1,.154-.013h.045a3.157,3.157,0,0,1-.241.394,1.267,1.267,0,0,1,.042-.382Z" transform="translate(0 0)"/>
  </g>
  <g>
    <circle class="cls-1" cx="100.978" cy="42.312" r="0.001" transform="translate(40.717 133.72) rotate(-79.34)"/>
    <path class="cls-2" d="M100.974,42.311h0m0,0h.006l-.006,0" transform="translate(0 0)"/>
  </g>
  <g>
    <path class="cls-1" d="M113.617,48.5a1.952,1.952,0,0,1-.627-.108,1.663,1.663,0,0,1-1.054-1.3,1.574,1.574,0,0,1,.5-1.525c1.188-1,.792-1.973.1-3.243-.285-.526-.625-.828-.933-.828-.334,0-.708.336-1.026.921a17.915,17.915,0,0,0-1.047,2.335c-.054.142-.1.294-.143.446-.2.68-.5,1.707-1.687,1.707-.064,0-.131,0-.2-.01-1.487-.143-1.437-1.417-1.411-2.1.006-.162.013-.322,0-.472-.008-.133-.012-.268-.016-.4a3.5,3.5,0,0,0-.205-1.317,1.9,1.9,0,0,0-.438,1.029,4.321,4.321,0,0,1-.25.835,4.836,4.836,0,0,0-.287,1.082,8.113,8.113,0,0,1-.216.938,1.655,1.655,0,0,1-1.646,1.164c-.065,0-.131,0-.2-.009a1.39,1.39,0,0,1-1.229-1.524c0-.029,0-.059,0-.087-.059.077-.117.168-.184.271a3.191,3.191,0,0,1-.438.576,3.966,3.966,0,0,1-2.676,1.373,2.688,2.688,0,0,1-.793-.122,3.452,3.452,0,0,0-1.029-.153,6.777,6.777,0,0,0-1.71.277,6.174,6.174,0,0,1-1.562.2,7.178,7.178,0,0,1-2.715-.575,2.691,2.691,0,0,1-1.854-2.861,6.258,6.258,0,0,1,3.2-5.285,1.839,1.839,0,0,1,.965-.3,1.571,1.571,0,0,1,1.379.878,1.426,1.426,0,0,1,.15,1.178,1.552,1.552,0,0,1-.867.918,4.738,4.738,0,0,0-1.876,1.75,1.022,1.022,0,0,0-.259.752c.048.206.269.418.653.63a2.278,2.278,0,0,0,1.167.237c.156,0,.313-.006.471-.012l.214-.007c.337-.01.413-.077.416-.08h0a.62.62,0,0,0-.039-.313,5.351,5.351,0,0,1,.587-3.821,2.3,2.3,0,0,1,2.007-1.636,3.921,3.921,0,0,1,1.605.44,3.868,3.868,0,0,0,.845.23,3.355,3.355,0,0,1,1.553.6,1.735,1.735,0,0,1,1.465-2.08,2,2,0,0,1,.257-.017,1.456,1.456,0,0,1,1.379.948c.034-.064.068-.132.1-.2.266-.525.63-1.246,1.564-1.246a2.218,2.218,0,0,1,.64.1,3.372,3.372,0,0,1,1.884,1.727l.106.172.2-.247a3.935,3.935,0,0,1,3.063-1.641,3.789,3.789,0,0,1,3.278,2.156,8.054,8.054,0,0,1,.377,6.423A1.545,1.545,0,0,1,113.617,48.5ZM98.743,43.737a2.15,2.15,0,0,0-.237.015l-.187.02c-.863.09-1.123.189-1.176.673a.891.891,0,0,0,.276.576,1.2,1.2,0,0,0,.715.435,1.588,1.588,0,0,0,1.183-1.372C99.307,43.957,99.287,43.737,98.743,43.737Z" transform="translate(0 0)"/>
    <path class="cls-2" d="M105.585,39.092a1.729,1.729,0,0,1,.495.082c1.143.344,1.44,1.414,2.107,2.26.23-.29.423-.533.616-.777a3.445,3.445,0,0,1,2.671-1.451,3.3,3.3,0,0,1,2.841,1.9,7.669,7.669,0,0,1,.334,6.044,1.056,1.056,0,0,1-1.032.857,1.464,1.464,0,0,1-.467-.082,1.217,1.217,0,0,1-.392-1.968c1.517-1.274.9-2.615.222-3.864-.4-.732-.883-1.09-1.373-1.09-.518,0-1.041.4-1.466,1.182a18.737,18.737,0,0,0-1.076,2.4c-.287.769-.35,1.827-1.36,1.827-.049,0-.1,0-.153-.008-1.269-.121-.909-1.279-.956-2.1a3.915,3.915,0,0,0-.533-2.369c-1.146.414-.98,1.556-1.331,2.334a18.543,18.543,0,0,0-.523,2.076,1.155,1.155,0,0,1-1.17.814c-.05,0-.1,0-.152-.007-.549-.051-.759-.5-.775-1.04-.009-.3-.059-.6-.092-.926-.8.177-.943.91-1.384,1.343a3.493,3.493,0,0,1-2.326,1.23,2.177,2.177,0,0,1-.646-.1,3.942,3.942,0,0,0-1.176-.175,7.271,7.271,0,0,0-1.836.293,5.661,5.661,0,0,1-1.437.188,6.674,6.674,0,0,1-2.527-.539,2.193,2.193,0,0,1-1.542-2.38,5.752,5.752,0,0,1,2.965-4.878,1.329,1.329,0,0,1,.7-.223,1.081,1.081,0,0,1,.944.625.938.938,0,0,1-.488,1.393,5.184,5.184,0,0,0-2.08,1.919c-.634.91-.423,1.565.564,2.107a2.819,2.819,0,0,0,1.406.3c.233,0,.467-.012.7-.019.649-.019,1.074-.23.843-1.032a4.89,4.89,0,0,1,.56-3.471c.429-.924.88-1.347,1.553-1.347a3.494,3.494,0,0,1,1.4.395c.952.438,2.308.15,2.765,1.5l0,0,.006,0h0c.051-.04.109-.118.155-.118h.006a.823.823,0,0,0,.124.012c.115,0,.113-.054,0-.176l-.284.277v0a1.709,1.709,0,0,0,.341-1.111c-.024-.761.075-1.472,1.027-1.592a1.545,1.545,0,0,1,.194-.013c.8,0,.957.73,1.205,1.375.818-.383.742-1.873,1.841-1.873m-7.449,6.863h.039a2.059,2.059,0,0,0,1.643-1.894c-.056-.635-.545-.823-1.073-.823a2.615,2.615,0,0,0-.295.018c-.741.084-1.688.093-1.8,1.135a1.745,1.745,0,0,0,1.489,1.565m7.449-7.863h0a1.974,1.974,0,0,0-1.722,1,1.826,1.826,0,0,0-1.325-.5h0a2.538,2.538,0,0,0-.319.021,2,2,0,0,0-1.844,1.754,5.91,5.91,0,0,0-1.012-.27,3.6,3.6,0,0,1-.733-.195,4.386,4.386,0,0,0-1.815-.486,2.366,2.366,0,0,0-2,1.1,2.21,2.21,0,0,0-.193-.447,2.079,2.079,0,0,0-1.814-1.131,2.332,2.332,0,0,0-1.23.375,6.728,6.728,0,0,0-3.434,5.692,3.174,3.174,0,0,0,2.166,3.341,7.648,7.648,0,0,0,2.9.612,6.7,6.7,0,0,0,1.689-.22,6.34,6.34,0,0,1,1.584-.261,2.944,2.944,0,0,1,.881.131,3.189,3.189,0,0,0,.94.144,4.485,4.485,0,0,0,3.026-1.516l.038-.038a1.743,1.743,0,0,0,1.42.944c.082.008.163.011.244.011a2.143,2.143,0,0,0,2.124-1.514,8.316,8.316,0,0,0,.23-.995,5.672,5.672,0,0,1,.2-.841c-.026.682-.069,2.407,1.865,2.592.086.008.169.012.248.012,1.559,0,1.969-1.4,2.166-2.066.041-.141.082-.281.13-.411a17.6,17.6,0,0,1,1.018-2.272c.3-.545.55-.66.587-.66s.24.1.494.566c.736,1.358.841,1.928.015,2.622a2.067,2.067,0,0,0-.67,2,2.162,2.162,0,0,0,1.385,1.68,2.462,2.462,0,0,0,.786.134,2.047,2.047,0,0,0,1.994-1.582,8.709,8.709,0,0,0-.421-6.8,4.087,4.087,0,0,0-6.921-.879,3.422,3.422,0,0,0-1.9-1.525,2.7,2.7,0,0,0-.783-.124Zm-13.761,6.7a1.284,1.284,0,0,1,.184-.346,4.207,4.207,0,0,1,1.673-1.58l.1-.049a4.822,4.822,0,0,0-.1,2.449l-.062,0c-.153.005-.306.011-.458.011a1.84,1.84,0,0,1-.925-.176,1.084,1.084,0,0,1-.409-.313Zm5.821-.329a.251.251,0,0,1,.018-.07,2.7,2.7,0,0,1,.708-.127l.191-.02a1.611,1.611,0,0,1,.182-.011l.059,0a1.312,1.312,0,0,1-.661.711,1.073,1.073,0,0,1-.5-.485Z" transform="translate(0 0)"/>
  </g>
  <g>
    <polygon class="cls-1" points="100.978 42.308 100.977 42.306 100.974 42.311 100.978 42.308"/>
    <polyline class="cls-2" points="100.977 42.306 100.978 42.308 100.974 42.311 100.977 42.306"/>
  </g>
  <g>
    <polygon class="cls-1" points="139.986 19.645 139.985 19.643 139.985 19.643 139.986 19.645"/>
    <path class="cls-2" d="M139.985,19.643v0h0m0-1a1,1,0,1,0,.989.847c0-.019-.007-.039-.011-.058a1,1,0,0,0-.978-.789Z" transform="translate(0 0)"/>
  </g>
  <g>
    <path class="cls-1" d="M158.777,26.3a1.777,1.777,0,0,1-1.678-1.392c-.059-.189-.106-.382-.154-.576A3.241,3.241,0,0,0,156.4,23a7.626,7.626,0,0,0-.611.649,3.253,3.253,0,0,1-2.443,1.477,2.94,2.94,0,0,1-.857-.137c-1.687-.517-2.089-1.774-2.317-3.2a9.64,9.64,0,0,1-1.712,1.527c-.293.221-.583.438-.854.677a3.48,3.48,0,0,1-2.12,1.1c-1.236,0-1.665-1.4-1.881-2.457a6.85,6.85,0,0,0-1.237-2.791,4.96,4.96,0,0,1-2.739,2.39.9.9,0,0,0,.139.01,2.922,2.922,0,0,0,1.079-.329,2.29,2.29,0,0,1,.919-.233,1.18,1.18,0,0,1,1.163.9,1.527,1.527,0,0,1-1.061,1.932,6.33,6.33,0,0,1-2.344.486,4.963,4.963,0,0,1-2.921-.949,3.085,3.085,0,0,1-1.121-3.951,4.878,4.878,0,0,1,4.847-3.477,7.525,7.525,0,0,1,1.124.088,11.272,11.272,0,0,0,1.676.134,7.278,7.278,0,0,0,1.573-.159,6.834,6.834,0,0,1,1.47-.171,4.685,4.685,0,0,1,4.106,2.291c.229-.648.594-1.322,1.415-1.322a1.734,1.734,0,0,1,.644.137,2.036,2.036,0,0,1,.98,2.658,3.856,3.856,0,0,0-.175,1.033.514.514,0,0,0,.321.469h.011c.041,0,.128-.049.274-.322l.069-.13a4.158,4.158,0,0,0,.724-2.288,1.57,1.57,0,0,1,.377-1.181,1.819,1.819,0,0,1,1.3-.559l.134,0a1.708,1.708,0,0,1,1.882,1.685,6.665,6.665,0,0,0,1.813,4.4,1.807,1.807,0,0,1,.37,1.7,1.6,1.6,0,0,1-1.048,1.129,2.05,2.05,0,0,1-.593.093Zm-12.763-6.866a.948.948,0,0,0-.2.02.463.463,0,0,0-.232.1,2.511,2.511,0,0,1,.267.7c.153.578.23.7.5.722a.922.922,0,0,0,.82-.865.358.358,0,0,0-.115-.23A1.511,1.511,0,0,0,146.014,19.434Z" transform="translate(0 0)"/>
    <path class="cls-2" d="M146.169,17.013a4.3,4.3,0,0,1,3.9,2.419.727.727,0,0,0,.355.159c.094,0,.145-.067.18-.182.2-.651.415-1.427,1.081-1.427a1.232,1.232,0,0,1,.458.1,1.569,1.569,0,0,1,.688,2.049,4.376,4.376,0,0,0-.2,1.169,1.013,1.013,0,0,0,.635.942.593.593,0,0,0,.222.046c.314,0,.529-.3.69-.595a4.881,4.881,0,0,0,.852-2.688,1.109,1.109,0,0,1,1.2-1.206l.111,0a1.211,1.211,0,0,1,1.382,1.2,7.18,7.18,0,0,0,1.938,4.718,1.274,1.274,0,0,1-.446,2.017,1.553,1.553,0,0,1-.448.071,1.282,1.282,0,0,1-1.2-1.04,4.217,4.217,0,0,0-1.132-2.423c-1.06.661-1.637,2.289-3.1,2.289a2.422,2.422,0,0,1-.711-.115c-1.857-.569-1.868-2.18-2.159-4.1-.809,1.654-2.138,2.278-3.2,3.212a3.109,3.109,0,0,1-1.79.972c-.671,0-1.108-.668-1.391-2.057a7.6,7.6,0,0,0-1.821-3.613,4.725,4.725,0,0,1-3.879,3.1,1.817,1.817,0,0,0,1.371.724,3.356,3.356,0,0,0,1.308-.383,1.794,1.794,0,0,1,.69-.179.69.69,0,0,1,.688.556,1.052,1.052,0,0,1-.77,1.311,5.835,5.835,0,0,1-2.16.45,4.457,4.457,0,0,1-2.632-.857,2.6,2.6,0,0,1-.939-3.375,4.365,4.365,0,0,1,4.374-3.144,7.018,7.018,0,0,1,1.05.083,11.747,11.747,0,0,0,1.749.139,7.807,7.807,0,0,0,1.684-.171,6.294,6.294,0,0,1,1.362-.159m.217,4.467a1.424,1.424,0,0,0,1.281-1.31c.072-.619-.847-1.238-1.654-1.238a1.4,1.4,0,0,0-.306.033c-.43.1-.764.383-.539.827.321.634.2,1.659,1.219,1.688m-7-1.352c.365,0,.921-.621.839-.731a.464.464,0,0,0-.456-.342h-.013a.635.635,0,0,0-.6.93.247.247,0,0,0,.23.144m6.783-4.115h0a7.324,7.324,0,0,0-1.579.183,6.817,6.817,0,0,1-1.467.147,10.742,10.742,0,0,1-1.6-.128,8.049,8.049,0,0,0-1.2-.094,5.349,5.349,0,0,0-5.317,3.809,3.573,3.573,0,0,0,1.3,4.526,5.455,5.455,0,0,0,3.211,1.042,6.839,6.839,0,0,0,2.53-.522,2.274,2.274,0,0,0,1.325-1.235,2.332,2.332,0,0,0,2.107,1.851,3.9,3.9,0,0,0,2.45-1.22c.252-.221.53-.43.824-.651.363-.273.745-.56,1.119-.9a3.621,3.621,0,0,0,3.469,2.805,3.75,3.75,0,0,0,2.82-1.648l.123-.14c.062.177.114.378.173.616.05.2.1.405.162.6a2.252,2.252,0,0,0,2.155,1.743,2.557,2.557,0,0,0,.737-.113,2.1,2.1,0,0,0,1.384-1.47,2.3,2.3,0,0,0-.475-2.165,6.192,6.192,0,0,1-1.689-4.085,2.2,2.2,0,0,0-2.381-2.17q-.077,0-.157,0a2.319,2.319,0,0,0-1.652.725,2.057,2.057,0,0,0-.5,1.547,2.285,2.285,0,0,1-.151.951,2.454,2.454,0,0,0-1.368-2.868,2.229,2.229,0,0,0-.833-.174,1.718,1.718,0,0,0-1.513.862,5.119,5.119,0,0,0-4.006-1.83Zm.254,4.423c-.031-.092-.064-.214-.089-.307-.013-.047-.025-.1-.039-.145a1.065,1.065,0,0,1,.356.2.352.352,0,0,1-.229.253Zm-4.407.763q.183-.208.352-.44a6.22,6.22,0,0,1,.36.719,1.618,1.618,0,0,0-.713-.279Z" transform="translate(0 0)"/>
  </g>
  <g>
    <path class="cls-1" d="M61.823,48.366a2.358,2.358,0,0,1-1.516-.751c-.189-.171-.255-.176-.256-.176a1.191,1.191,0,0,0-.266.1l-.108.048a7.308,7.308,0,0,1-1.959.576,3.83,3.83,0,0,1-.481.031,4.007,4.007,0,0,1-3.866-3.308,4.084,4.084,0,0,1,2.8-4.9,2.931,2.931,0,0,1,.78-.119,1.5,1.5,0,0,1,1.449.92,1.488,1.488,0,0,1,.085,1.172,1.868,1.868,0,0,1-1.063,1l-.271.13c-.128.063-.256.125-.386.181-.478.205-.914.549-.533,1.54a1.092,1.092,0,0,0,1.184.711c.086,0,.174,0,.264-.014a2,2,0,0,0,1-.55,4.144,4.144,0,0,1,.881-.591c.386-.177.4-.25.153-.869a3.1,3.1,0,0,1-.205-.655c-.4-2.539-.814-4.831-1.26-7.008a1.86,1.86,0,0,1,.526-1.97,1.436,1.436,0,0,1,.965-.394,1.931,1.931,0,0,1,.9.259,1.583,1.583,0,0,1,.9,1.847,11.164,11.164,0,0,0,.258,4.428,5.484,5.484,0,0,1,2.951-.985A3.686,3.686,0,0,1,68.017,41a7.017,7.017,0,0,1,.572,4.274c-.028.371-.058.739-.068,1.1a1.516,1.516,0,0,1-1.653,1.3h0c-.062,0-.123,0-.185-.008-1.034-.1-1.049-1.052-1.056-1.459l0-.128c-.021-.667-.021-1.335-.02-2v-.645c0-.833-.248-1.3-.729-1.382a1.094,1.094,0,0,0-.189-.018c-.428,0-.7.326-1.049,1.245a7.637,7.637,0,0,0-.365,2.354c-.014.267-.027.534-.05.8C63.084,48.116,62.286,48.366,61.823,48.366Z" transform="translate(0 0)"/>
    <path class="cls-2" d="M59.745,33.972a1.479,1.479,0,0,1,.669.2,1.1,1.1,0,0,1,.64,1.336,11.605,11.605,0,0,0,.473,5.308,5.4,5.4,0,0,1,3.23-1.3,3.183,3.183,0,0,1,2.827,1.726c.919,1.589.489,3.4.437,5.114-.016.514-.594.82-1.152.82-.047,0-.093,0-.139-.007-.651-.062-.591-.648-.605-1.1-.029-.877-.018-1.755-.02-2.633s-.261-1.72-1.143-1.873a1.6,1.6,0,0,0-.275-.025c-.837,0-1.211.756-1.517,1.568a11.656,11.656,0,0,0-.446,3.292c-.079.963-.4,1.467-.9,1.467a1.944,1.944,0,0,1-1.18-.622.9.9,0,0,0-.591-.306,1.553,1.553,0,0,0-.573.189,6.843,6.843,0,0,1-1.823.538,3.281,3.281,0,0,1-.419.027,3.713,3.713,0,0,1-.93-7.225,2.469,2.469,0,0,1,.648-.1,1.013,1.013,0,0,1,1,.631c.338.729-.067,1.206-.731,1.507-.218.1-.43.211-.649.306a1.507,1.507,0,0,0-.8,2.179,1.606,1.606,0,0,0,1.649,1.031c.1,0,.208-.005.314-.016.849-.083,1.32-.852,2.045-1.184,1.148-.525.342-1.376.234-2.056-.373-2.352-.787-4.7-1.263-7.031a1.371,1.371,0,0,1,.368-1.495.929.929,0,0,1,.632-.268m0-1v0a1.916,1.916,0,0,0-1.3.52,2.356,2.356,0,0,0-.684,2.442c.272,1.335.531,2.707.783,4.149a1.993,1.993,0,0,0-1.594-.716,3.417,3.417,0,0,0-.914.137,4.579,4.579,0,0,0-3.158,5.484,4.5,4.5,0,0,0,4.355,3.7,4.3,4.3,0,0,0,.547-.035,7.715,7.715,0,0,0,2.095-.613L59.984,48a2.8,2.8,0,0,0,1.838.869c.512,0,1.72-.232,1.9-2.385.023-.273.037-.546.051-.818a7.272,7.272,0,0,1,.335-2.2c.307-.816.472-.921.581-.921a.605.605,0,0,1,.1.01c.283.049.315.64.315.891V44.1c0,.654,0,1.33.02,2l0,.12c.019,1.2.527,1.854,1.508,1.947.077.007.155.011.234.011a1.989,1.989,0,0,0,2.151-1.789c.011-.357.039-.718.067-1.081a7.512,7.512,0,0,0-.638-4.565,4.168,4.168,0,0,0-3.692-2.226,5.616,5.616,0,0,0-2.618.709,10.78,10.78,0,0,1-.094-3.585,2.079,2.079,0,0,0-1.169-2.357,2.464,2.464,0,0,0-1.131-.316Zm-2.33,12.05c-.565,0-.656-.234-.715-.39-.26-.676-.029-.776.264-.9.139-.06.275-.125.411-.192.085-.041.17-.083.256-.122a2.406,2.406,0,0,0,1.28-1.172q.054.336.109.678a3.557,3.557,0,0,0,.234.762c.027.069.063.158.089.235a4.674,4.674,0,0,0-.974.651,1.647,1.647,0,0,1-.738.441c-.073.007-.146.011-.217.011Z" transform="translate(0 0)"/>
  </g>
  <g>
    <path class="cls-1" d="M53.591,18.054A1.889,1.889,0,0,1,53.137,18a1.8,1.8,0,0,1-1.289-1.955c-.009-.239-.033-.479-.059-.725a5.127,5.127,0,0,0-.595.085,4.727,4.727,0,0,1-.868.1,2.264,2.264,0,0,1-.905-.181A4.236,4.236,0,0,1,46.9,12.04,4.158,4.158,0,0,1,48.31,8.225a1,1,0,0,1,.312-.23c2.253-.961,2.84-2.6,1.963-5.484a1.7,1.7,0,0,1,.008-1.382,1.257,1.257,0,0,1,.871-.566A2.528,2.528,0,0,1,52,.5a1.562,1.562,0,0,1,1.6,1.518,9.1,9.1,0,0,1,.044,1.257l0,.246c-.021,2.883.239,5.808.491,8.637l.068.775a4.62,4.62,0,0,0,.6,2.313,1.677,1.677,0,0,1-.082,2.374A1.632,1.632,0,0,1,53.591,18.054ZM51.073,9.866a2.791,2.791,0,0,0-1.552,1.787.553.553,0,0,0,.174.393,1.315,1.315,0,0,0,.932.367c.634-.032.77-.188.732-1.3a2.1,2.1,0,0,1-.01-.559C51.381,9.994,51.34,9.939,51.073,9.866Z" transform="translate(0 0)"/>
    <path class="cls-2" d="M52,1a1.063,1.063,0,0,1,1.107,1.081,10.924,10.924,0,0,1,.037,1.437c-.023,3.1.272,6.184.545,9.268a5.411,5.411,0,0,0,.7,2.743,1.222,1.222,0,0,1-.015,1.729,1.126,1.126,0,0,1-.786.3,1.4,1.4,0,0,1-.335-.041c-.781-.193-.883-.816-.909-1.488-.015-.389-.067-.777-.1-1.189a2.206,2.206,0,0,0-.313-.022c-.562,0-1.074.192-1.6.192a1.758,1.758,0,0,1-.707-.14,3.743,3.743,0,0,1-.984-6.261.837.837,0,0,1,.184-.152c2.9-1.237,3.033-3.5,2.244-6.089-.176-.58-.274-1.144.507-1.314A2.031,2.031,0,0,1,52,1M50.626,12.913l.1,0c1.132-.06,1.162-.875,1.131-1.819-.116-.543.32-1.447-.663-1.709a.473.473,0,0,0-.123-.015c-.728,0-2.008,1.429-2.051,2.261-.035.677.72,1.284,1.6,1.284M52,0a3.037,3.037,0,0,0-.644.073,1.744,1.744,0,0,0-1.2.8,2.2,2.2,0,0,0-.055,1.78c.807,2.651.336,4.019-1.68,4.878a1.379,1.379,0,0,0-.438.306A4.66,4.66,0,0,0,46.4,12.116a4.73,4.73,0,0,0,2.823,3.67,2.743,2.743,0,0,0,1.1.221,5.253,5.253,0,0,0,.959-.11l.055-.01q.006.088.009.176a2.309,2.309,0,0,0,1.668,2.421,2.4,2.4,0,0,0,.575.07,2.122,2.122,0,0,0,1.476-.572,2.2,2.2,0,0,0,.149-3.02,4.19,4.19,0,0,1-.515-2.069l-.017-.2-.052-.585c-.251-2.817-.511-5.73-.489-8.588l0-.233A9.546,9.546,0,0,0,54.1,1.956,2.052,2.052,0,0,0,52,0ZM50.626,11.913a.721.721,0,0,1-.609-.267,2.814,2.814,0,0,1,.832-1.1,3.049,3.049,0,0,0,.014.65,3.159,3.159,0,0,1-.033.7.841.841,0,0,1-.154.02Z" transform="translate(0 0)"/>
  </g>
  <g>
    <path class="cls-1" d="M10.448,48.027a4.9,4.9,0,0,1-.979-.094,5.955,5.955,0,0,1-3.739-2.17,3.531,3.531,0,0,1-.876-2.936,3.527,3.527,0,0,1,2.061-2.263,8.15,8.15,0,0,1,3.363-.992c.488-.013.639-.114.685-.174s.118-.266-.016-.84a.5.5,0,0,1-.012-.137,8.574,8.574,0,0,0-.527-2.937,1.892,1.892,0,0,1,.04-1.562,1.55,1.55,0,0,1,1.089-.709,2.2,2.2,0,0,1,.446-.05c1.255,0,1.37,1.3,1.408,1.731.114,1.283.287,2.588.454,3.85.142,1.07.283,2.14.393,3.213a6.721,6.721,0,0,0,.79,2.732,2.018,2.018,0,0,1,.2,2.014,2.319,2.319,0,0,1-2.067,1.03c-.356.026-.71.079-1.064.131a11.132,11.132,0,0,1-1.646.16Zm.2-6.42a5.284,5.284,0,0,0-3.012,1.915c.035.581,1.846,1.775,3.332,1.777h0a1.078,1.078,0,0,0,.74-.2.874.874,0,0,0,.124-.658c-.068-1.727-.531-2.828-1.181-2.833l0-.5Z" transform="translate(0 0)"/>
    <path class="cls-2" d="M11.983,33.665c.639,0,.84.5.909,1.276.21,2.363.605,4.709.848,7.069a7.262,7.262,0,0,0,.85,2.926c.744,1.334.149,2.181-1.469,2.3-.892.066-1.775.289-2.673.289a4.4,4.4,0,0,1-.88-.084A5.493,5.493,0,0,1,6.126,45.46c-1.4-1.831-1.032-3.413,1.012-4.449a7.526,7.526,0,0,1,3.152-.938c1.111-.03,1.408-.487,1.143-1.627a9.162,9.162,0,0,0-.551-3.114c-.281-.865-.095-1.447.757-1.627a1.674,1.674,0,0,1,.343-.04M10.971,45.8c1.019,0,1.444-.47,1.36-1.4-.082-2.08-.7-3.282-1.675-3.289h-.008c-1.1,0-3.55,1.685-3.51,2.412.056,1.014,2.231,2.279,3.829,2.281h0m1.012-13.135a2.679,2.679,0,0,0-.55.061,2.033,2.033,0,0,0-1.419.947,2.366,2.366,0,0,0-.083,1.967,8.115,8.115,0,0,1,.5,2.76,1,1,0,0,0,.025.272,2.416,2.416,0,0,1,.063.38,2.02,2.02,0,0,1-.259.021,8.607,8.607,0,0,0-3.577,1.046,4,4,0,0,0-2.321,2.6,4,4,0,0,0,.967,3.351,6.43,6.43,0,0,0,4.036,2.355,5.361,5.361,0,0,0,1.079.1,11.613,11.613,0,0,0,1.715-.164c.359-.053.7-.1,1.031-.127a2.78,2.78,0,0,0,2.471-1.291,2.485,2.485,0,0,0-.2-2.494,6.252,6.252,0,0,1-.728-2.541c-.111-1.079-.255-2.166-.394-3.217-.167-1.26-.339-2.563-.453-3.838-.161-1.808-1.125-2.188-1.905-2.188Z" transform="translate(0 0)"/>
  </g>
  <g>
    <path class="cls-1" d="M44.688,48.43a2.2,2.2,0,0,1-.337-.026c-.982-.147-1.452-.6-1.4-1.359a4.1,4.1,0,0,0-.392-1.757,6.039,6.039,0,0,1-.438-1.6c-.1-1.19-.954-1.6-1.937-2.079l-.183-.089a1.52,1.52,0,0,0-.674-.162,1.48,1.48,0,0,0-1.064.467,1.616,1.616,0,0,0-.43,1.215,6.794,6.794,0,0,0,.728,2.551,1.709,1.709,0,0,1,.122,1.357,2.211,2.211,0,0,1-1.3,1.134,1.5,1.5,0,0,1-.607.135,1.663,1.663,0,0,1-1.491-1.354c-.6-2-1.133-4.01-1.583-5.987a1.522,1.522,0,0,1,.218-1.348,1.393,1.393,0,0,1,1.156-.485,2.845,2.845,0,0,1,.5.049.49.49,0,0,1,.172.065.881.881,0,0,0,.479.136,3.35,3.35,0,0,0,1.022-.259l.243-.086a8.27,8.27,0,0,1,2.6-.565,3.241,3.241,0,0,1,2.883,1.662c1.949.412,2.075,2.042,2.168,3.244.016.2.031.4.054.591a4.01,4.01,0,0,0,.974,2.063,1.319,1.319,0,0,1,.119,1.706,2,2,0,0,1-1.611.786Z" transform="translate(0 0)"/>
    <path class="cls-2" d="M40.1,38.877a2.81,2.81,0,0,1,2.572,1.615c2.076.312,1.871,2.036,2.035,3.44a4.534,4.534,0,0,0,1.076,2.312.854.854,0,0,1,.121,1.093,1.516,1.516,0,0,1-1.219.593,1.747,1.747,0,0,1-.261-.02c-.455-.069-1.019-.2-.971-.828.1-1.253-.729-2.276-.831-3.442-.137-1.559-1.31-2.04-2.4-2.573a2,2,0,0,0-2.886,2,7.394,7.394,0,0,0,.774,2.738c.489,1.034-.2,1.5-.922,1.819a1.021,1.021,0,0,1-.408.092c-.537,0-.87-.525-1.012-1q-.886-2.948-1.574-5.954c-.17-.747.132-1.221.886-1.221a2.342,2.342,0,0,1,.417.041,1.38,1.38,0,0,0,.74.209,4.643,4.643,0,0,0,1.428-.372,7.766,7.766,0,0,1,2.437-.539m0-1a8.675,8.675,0,0,0-2.763.594l-.247.087a3.093,3.093,0,0,1-.855.229.382.382,0,0,1-.219-.062,1,1,0,0,0-.343-.131,3.346,3.346,0,0,0-.6-.057,1.874,1.874,0,0,0-1.546.673,2,2,0,0,0-.315,1.77c.453,1.987.988,4.013,1.592,6.02a2.14,2.14,0,0,0,1.97,1.711,2.018,2.018,0,0,0,.807-.175,2.7,2.7,0,0,0,1.567-1.417,2.184,2.184,0,0,0-.139-1.747,6.328,6.328,0,0,1-.679-2.366,1.119,1.119,0,0,1,.293-.842.974.974,0,0,1,.7-.31,1.029,1.029,0,0,1,.454.111l.184.09c1.037.5,1.582.806,1.658,1.673a6.508,6.508,0,0,0,.469,1.737,3.721,3.721,0,0,1,.361,1.541c-.046.6.13,1.637,1.818,1.893a2.747,2.747,0,0,0,.411.031,2.527,2.527,0,0,0,2.008-.979,1.812,1.812,0,0,0-.119-2.32,3.581,3.581,0,0,1-.873-1.816c-.022-.186-.036-.378-.051-.571-.09-1.174-.238-3.088-2.36-3.647a3.712,3.712,0,0,0-3.19-1.721Z" transform="translate(0 0)"/>
  </g>
  <g>
    <path class="cls-1" d="M79.306,49.134a6.837,6.837,0,0,1-3.557-1.013,8.935,8.935,0,0,1-1.3-1.045,5.728,5.728,0,0,0-1.654-1.187,1.289,1.289,0,0,1-.722-.768.864.864,0,0,1,.083-.739,7.534,7.534,0,0,0,.664-1.512c.44-1.231.94-2.627,2.667-3.2a5.226,5.226,0,0,1,1.657-.311,2.958,2.958,0,0,1,1.973.724,4.6,4.6,0,0,1,1.522,3.837c-.043,1.1-.962,1.353-1.57,1.522l-.157.045a3.64,3.64,0,0,1-1.02.117l-.521,0c-.151,0-.291,0-.421.018a3.541,3.541,0,0,0,2.222.888,3.241,3.241,0,0,0,1.789-.577c.1-.062.184-.136.273-.208a3.139,3.139,0,0,1,.538-.374,1.843,1.843,0,0,1,.861-.286,1.1,1.1,0,0,1,.8.36,1.319,1.319,0,0,1-.06,1.9,4.969,4.969,0,0,1-4.067,1.813Zm-2.859-6.456a.958.958,0,0,0,.406-.058c-.078-.09-.128-.09-.149-.09a.727.727,0,0,0-.358.146Z" transform="translate(0 0)"/>
    <path class="cls-2" d="M77.141,39.86a2.444,2.444,0,0,1,1.648.6A4.1,4.1,0,0,1,80.136,43.9c-.031.8-.749.927-1.367,1.107a3.125,3.125,0,0,1-.878.1c-.173,0-.348-.005-.522-.005A2.477,2.477,0,0,0,76,45.41a4.4,4.4,0,0,0,3.174,1.6,3.732,3.732,0,0,0,2.063-.659A9.156,9.156,0,0,1,82,45.791a1.479,1.479,0,0,1,.632-.23.608.608,0,0,1,.445.21c.459.47.2.852-.1,1.249a4.507,4.507,0,0,1-3.667,1.614,6.3,6.3,0,0,1-3.293-.938c-1.081-.67-1.819-1.782-3.035-2.272-.306-.123-.569-.514-.4-.774.974-1.529.869-3.776,3.066-4.505a4.831,4.831,0,0,1,1.5-.285m-.7,3.318a.992.992,0,0,0,.948-.4.455.455,0,0,0-.076-.388.749.749,0,0,0-.613-.357,1.215,1.215,0,0,0-.634.229c-.2.128-.4.249-.681.419a.907.907,0,0,0,.947.5h.11m.7-4.318h0a5.708,5.708,0,0,0-1.815.336c-1.958.649-2.525,2.233-2.98,3.5a7.2,7.2,0,0,1-.615,1.412,1.374,1.374,0,0,0-.137,1.162,1.781,1.781,0,0,0,1.01,1.077,5.379,5.379,0,0,1,1.505,1.094,9.418,9.418,0,0,0,1.377,1.1,7.345,7.345,0,0,0,3.82,1.088,5.459,5.459,0,0,0,4.467-2.014,1.808,1.808,0,0,0,.017-2.548,1.6,1.6,0,0,0-1.16-.511,2.173,2.173,0,0,0-1.026.308l-.064.033a3.61,3.61,0,0,0-.625.431c-.076.062-.151.125-.233.178a2.749,2.749,0,0,1-1.514.495q-.11,0-.221-.011l.1-.027.152-.043a2.187,2.187,0,0,0,1.936-1.985,5.082,5.082,0,0,0-1.7-4.238,3.447,3.447,0,0,0-2.3-.842Z" transform="translate(0 0)"/>
  </g>
  <g>
    <path class="cls-1" d="M71.645,15.8a1.7,1.7,0,0,1-1.138-.472,2.9,2.9,0,0,1-.914-2.288,26.28,26.28,0,0,0-.282-2.792,3.406,3.406,0,0,0-.208-.678l-.015-.04-.325.075a10.681,10.681,0,0,1-1.426.271l-.14.007a1.438,1.438,0,0,1-1.326-.893,1.549,1.549,0,0,1,.436-1.832,3.215,3.215,0,0,1,1.77-.777l.156-.033c-.014-.067-.027-.135-.04-.2a14.505,14.505,0,0,0-.354-1.5A4.153,4.153,0,0,1,67.7,2.782,1.426,1.426,0,0,1,69.12,1.488c.054,0,.1-.006.153-.006a1.258,1.258,0,0,1,1.319,1.266c.041.417.1.833.152,1.249.071.529.142,1.06.185,1.592.059.711.3.714.449.714h0a1.613,1.613,0,0,0,.5-.1c.179-.06.353-.133.525-.206.194-.081.389-.162.587-.229a1.79,1.79,0,0,1,.571-.1,1.578,1.578,0,0,1,1.479,1.294A1.4,1.4,0,0,1,74.943,8.1a1.6,1.6,0,0,1-1.057.723,1.014,1.014,0,0,1-.187.023,3.125,3.125,0,0,1-.942.173c-.668.054-.734.114-.766.289a3.511,3.511,0,0,0,.511,2.8,7.316,7.316,0,0,1,.8,1.308,1.587,1.587,0,0,1-.671,2.068,1.811,1.811,0,0,1-.99.323Z" transform="translate(0 0)"/>
    <path class="cls-2" d="M69.275,1.982c.493,0,.766.262.821.814.094.946.26,1.885.337,2.832.066.808.39,1.173.949,1.173a2.111,2.111,0,0,0,.665-.128c.376-.128.734-.309,1.111-.436a1.279,1.279,0,0,1,.411-.074c.542,0,.851.44,1,.938a.932.932,0,0,1-.8,1.23,1.4,1.4,0,0,0-.236.034c-.692.3-1.875-.078-2.04.851a4.049,4.049,0,0,0,.6,3.181,6.813,6.813,0,0,1,.751,1.217,1.087,1.087,0,0,1-.489,1.444,1.314,1.314,0,0,1-.717.242,1.214,1.214,0,0,1-.808-.347,2.416,2.416,0,0,1-.744-1.927,26.282,26.282,0,0,0-.287-2.847,7.9,7.9,0,0,0-.4-1.232,21.044,21.044,0,0,1-2.12.432q-.046,0-.091,0a.945.945,0,0,1-.868-.591,1.069,1.069,0,0,1,.329-1.279c.549-.547,1.288-.556,2.162-.791-.163-.741-.278-1.5-.505-2.225a3.626,3.626,0,0,1-.125-1.647.935.935,0,0,1,.967-.865q.06,0,.116,0m0-1h0q-.093,0-.191.007A1.93,1.93,0,0,0,67.2,2.71,4.636,4.636,0,0,0,67.362,4.8a11.673,11.673,0,0,1,.284,1.168,3.307,3.307,0,0,0-1.692.841,2.046,2.046,0,0,0-.54,2.388A1.934,1.934,0,0,0,67.2,10.385q.094,0,.188-.009a10.386,10.386,0,0,0,1.381-.256,1.32,1.32,0,0,1,.048.2,25.511,25.511,0,0,1,.278,2.738A3.392,3.392,0,0,0,70.175,15.7a2.19,2.19,0,0,0,1.47.6,2.3,2.3,0,0,0,1.263-.4,2.085,2.085,0,0,0,.853-2.694,7.843,7.843,0,0,0-.859-1.4,2.952,2.952,0,0,1-.445-2.256c.1-.015.238-.026.339-.034A3.816,3.816,0,0,0,73.8,9.336a1.427,1.427,0,0,0,.2-.03,2.093,2.093,0,0,0,1.376-.958,1.921,1.921,0,0,0,.152-1.536,2.072,2.072,0,0,0-1.959-1.648,2.281,2.281,0,0,0-.732.127c-.21.071-.416.157-.622.243-.162.068-.323.137-.489.193a1.576,1.576,0,0,1-.259.068,1.518,1.518,0,0,1-.037-.247c-.045-.549-.117-1.092-.188-1.617-.055-.411-.11-.821-.151-1.233A1.753,1.753,0,0,0,69.275.982Z" transform="translate(0 0)"/>
  </g>
  <g>
    <path class="cls-1" d="M49.944,48.663a1.831,1.831,0,0,1-.284-.022,1.9,1.9,0,0,1-1.327-.777,1.679,1.679,0,0,1-.227-1.363,6.574,6.574,0,0,0,.187-3.067c-.209-.905-.381-1.066-.759-1.066a2.038,2.038,0,0,0-.552.094,3.054,3.054,0,0,1-.839.134,1.43,1.43,0,0,1-1.066-.408,1.9,1.9,0,0,1-.442-1.42c.021-.919.481-1.4,1.33-1.4.156,0,.321.016.485.032.088.009.176.018.261.022s.2.019.294.032a1.939,1.939,0,0,0,.268.026.4.4,0,0,0,.093-.009c.021-.191-.076-.376-.276-.7-.059-.095-.116-.188-.169-.283a1.7,1.7,0,0,1-.206-1.471,1.64,1.64,0,0,1,1.131-.9,2.488,2.488,0,0,1,.73-.119,1.676,1.676,0,0,1,1.669,1.51,2.26,2.26,0,0,1,.035.512,1.919,1.919,0,0,0,.007.249,4.706,4.706,0,0,0,.174,1.016s.064,0,.132,0a7.691,7.691,0,0,0,.867-.089,3.1,3.1,0,0,0,.405-.09,4.3,4.3,0,0,1,.529-.114,1.675,1.675,0,0,1,.226-.016c.481,0,1.082.229,1.2,1.315.139,1.231-.59,1.547-1.036,1.626a5.218,5.218,0,0,1-.851.06c-.134,0-.267,0-.4.012a.862.862,0,0,0-.642.241,1.115,1.115,0,0,0-.094.821c.085.5.215.98.352,1.494.07.263.141.526.205.79.029.124.07.249.111.375a2.47,2.47,0,0,1,.174,1.22c-.21,1.1-.829,1.73-1.7,1.73Z" transform="translate(0 0)"/>
    <path class="cls-2" d="M48.574,36.5c.615,0,1.028.384,1.181,1.112.048.231.006.479.034.716.135,1.155.172,1.462.8,1.462a8.151,8.151,0,0,0,.932-.092c.315-.041.619-.163.933-.2a1.215,1.215,0,0,1,.16-.011c.511,0,.654.386.709.871.059.526-.028.972-.627,1.079a10.51,10.51,0,0,1-1.193.064c-1.061.064-1.357.73-1.2,1.646.135.781.376,1.544.563,2.317a3.656,3.656,0,0,1,.281,1.383c-.125.654-.451,1.324-1.208,1.324a1.44,1.44,0,0,1-.211-.016,1.227,1.227,0,0,1-1.139-1.533,7.151,7.151,0,0,0,.186-3.294c-.188-.811-.42-1.453-1.247-1.453a2.513,2.513,0,0,0-.69.113,2.557,2.557,0,0,1-.7.114c-.728,0-1.028-.49-1.009-1.316.018-.768.385-.916.83-.916.231,0,.482.04.716.054.2.012.4.059.592.059a.734.734,0,0,0,.525-.192c.239-.621-.179-1.068-.439-1.541-.454-.824-.254-1.373.635-1.648a1.974,1.974,0,0,1,.581-.1m0-1a2.974,2.974,0,0,0-.877.142,2.113,2.113,0,0,0-1.447,1.185,2.167,2.167,0,0,0,.232,1.9c.033.061.069.121.105.181L46.5,38.9c-.182-.018-.364-.035-.537-.035a1.738,1.738,0,0,0-1.83,1.893,2.37,2.37,0,0,0,.585,1.781,1.92,1.92,0,0,0,1.423.558,3.51,3.51,0,0,0,.978-.154,1.535,1.535,0,0,1,.412-.074.274.274,0,0,1,.068.006,3.357,3.357,0,0,1,.2.673,6.159,6.159,0,0,1-.186,2.84,2.2,2.2,0,0,0,.3,1.758,2.4,2.4,0,0,0,1.668.992,2.436,2.436,0,0,0,.358.027,2.286,2.286,0,0,0,2.19-2.136,2.906,2.906,0,0,0-.19-1.468c-.037-.114-.075-.227-.1-.338-.065-.268-.136-.534-.207-.8-.134-.5-.261-.977-.343-1.451a.866.866,0,0,1,0-.429h0a1.01,1.01,0,0,1,.276-.049c.125-.008.25-.009.375-.011a5.677,5.677,0,0,0,.933-.067,1.766,1.766,0,0,0,1.445-2.175c-.179-1.587-1.25-1.759-1.7-1.759a2.215,2.215,0,0,0-.292.02,4.647,4.647,0,0,0-.589.127,2.764,2.764,0,0,1-.343.078c-.2.027-.39.051-.542.067-.024-.165-.048-.37-.07-.561a1.456,1.456,0,0,1,0-.186,2.736,2.736,0,0,0-.046-.619,2.168,2.168,0,0,0-2.16-1.907Z" transform="translate(0 0)"/>
  </g>
  <g>
    <path class="cls-1" d="M19.783,47.989a4.119,4.119,0,0,1-3.21-1.611,4.039,4.039,0,0,1-.628-3.466,7.011,7.011,0,0,1,2.523-3.5,2.184,2.184,0,0,1,1.414-.487,3.029,3.029,0,0,1,1.149.24A1.582,1.582,0,0,1,22.1,40.719a1.335,1.335,0,0,1-1.32,1.361,5.057,5.057,0,0,0-1.441.431,1.477,1.477,0,0,0-.738.895,1.339,1.339,0,0,0,.072,1.047,1.109,1.109,0,0,0,1.052.624,2.408,2.408,0,0,0,.661-.105,4.84,4.84,0,0,0,1.765-1.157l.217-.189a1.229,1.229,0,0,1,.812-.319,1.161,1.161,0,0,1,.688.231,1.338,1.338,0,0,1,.465,1.618c-.482,1.431-2.686,2.835-4.448,2.835Z" transform="translate(0 0)"/>
    <path class="cls-2" d="M19.882,39.426a2.511,2.511,0,0,1,.957.2,1.087,1.087,0,0,1,.761,1.087c0,.6-.339.788-.893.87a5.545,5.545,0,0,0-1.586.475,1.988,1.988,0,0,0-.885,2.634,1.607,1.607,0,0,0,1.488.881,2.9,2.9,0,0,0,.8-.124A5.993,5.993,0,0,0,22.7,44a.743.743,0,0,1,.485-.2.658.658,0,0,1,.392.134.852.852,0,0,1,.287,1.055,4.734,4.734,0,0,1-3.974,2.495H19.8a3.481,3.481,0,0,1-3.37-4.45,6.481,6.481,0,0,1,2.359-3.24,1.685,1.685,0,0,1,1.095-.372m0-1a2.676,2.676,0,0,0-1.733.6,7.468,7.468,0,0,0-2.688,3.755,4.534,4.534,0,0,0,.711,3.892,4.615,4.615,0,0,0,3.6,1.812l.117,0c1.978,0,4.37-1.543,4.921-3.175a1.85,1.85,0,0,0-.644-2.182,1.656,1.656,0,0,0-.983-.327,1.748,1.748,0,0,0-1.141.442l-.217.19a4.44,4.44,0,0,1-1.575,1.055,1.915,1.915,0,0,1-.523.085.615.615,0,0,1-.615-.368.837.837,0,0,1-.033-.652.987.987,0,0,1,.48-.595,4.537,4.537,0,0,1,1.3-.386A1.8,1.8,0,0,0,22.6,40.723,2.078,2.078,0,0,0,21.223,38.7a3.483,3.483,0,0,0-1.341-.279Z" transform="translate(0 0)"/>
  </g>
  <g>
    <path class="cls-1" d="M57.556,14.075a1.519,1.519,0,0,1-1.341-.94,16.13,16.13,0,0,1-1.089-3.54c-.133-.592-.266-1.184-.434-1.765a.99.99,0,0,1,.183-.771.842.842,0,0,1,.582-.424A7.871,7.871,0,0,0,57.43,6.01a7.266,7.266,0,0,1,2.792-.729,4.161,4.161,0,0,1,.852.089c.8.169,2.281.483,2.157,2.315a.5.5,0,0,1-.283.417,2.957,2.957,0,0,1-1.294.263c-.194,0-.389-.012-.582-.023-.173-.011-.345-.021-.517-.021l-.166,0a1.773,1.773,0,0,0-1.227.364,1.994,1.994,0,0,0-.238,1.393,4.354,4.354,0,0,0,.382,1.663c.588,1.262-.532,1.87-1.01,2.131a1.548,1.548,0,0,1-.74.2Z" transform="translate(0 0)"/>
    <path class="cls-2" d="M60.22,5.781a3.6,3.6,0,0,1,.75.078c1.029.218,1.847.523,1.761,1.792a2.424,2.424,0,0,1-1.077.214c-.368,0-.735-.045-1.1-.045-.064,0-.127,0-.191,0-1.587.081-2.033.65-1.939,2.285a4.918,4.918,0,0,0,.427,1.846c.371.794-.219,1.166-.8,1.479a1.047,1.047,0,0,1-.5.14,1.029,1.029,0,0,1-.89-.658A32.181,32.181,0,0,1,55.173,7.69a.675.675,0,0,1,.345-.56c1.625-.206,3.023-1.35,4.7-1.35m0-1h0a7.759,7.759,0,0,0-2.982.767,7.538,7.538,0,0,1-1.847.591,1.338,1.338,0,0,0-.937.649,1.47,1.47,0,0,0-.242,1.18c.162.562.29,1.132.426,1.736a16.507,16.507,0,0,0,1.126,3.647,2.005,2.005,0,0,0,1.791,1.224,2.037,2.037,0,0,0,.979-.262c1.335-.726,1.746-1.661,1.223-2.781a3.9,3.9,0,0,1-.335-1.481c-.046-.79.073-.988.111-1.03s.18-.163.88-.2c.047,0,.093,0,.14,0,.162,0,.324.011.486.021.2.013.409.024.614.024a3.429,3.429,0,0,0,1.508-.311,1,1,0,0,0,.567-.835c.153-2.265-1.812-2.681-2.552-2.838a4.628,4.628,0,0,0-.957-.1Z" transform="translate(0 0)"/>
  </g>
  <g>
    <path class="cls-1" d="M79.492,14.414c-2.605-.033-4-.78-4.53-2.425a4.527,4.527,0,0,1,1.231-4.913,3.167,3.167,0,0,1,1.938-.823,2.374,2.374,0,0,1,1,.229A1.4,1.4,0,0,1,80.1,7.836a1.241,1.241,0,0,1-.91,1.137c-.747.24-1.189.492-1.383,1.138a1.387,1.387,0,0,0,.055,1.172,1.324,1.324,0,0,0,1.06.375,4.607,4.607,0,0,0,2.474-1.015l.291-.19a1.756,1.756,0,0,1,.94-.313,1.205,1.205,0,0,1,1,.546,1.415,1.415,0,0,1-.379,1.932,6.686,6.686,0,0,1-3.74,1.8h-.015Z" transform="translate(0 0)"/>
    <path class="cls-2" d="M78.132,6.754a1.873,1.873,0,0,1,.792.183c.366.169.7.391.672.873a.746.746,0,0,1-.562.688,2.215,2.215,0,0,0-1.71,1.471c-.4,1.339.188,2.19,1.593,2.19h.01a5.668,5.668,0,0,0,3.025-1.284,1.283,1.283,0,0,1,.67-.234.7.7,0,0,1,.594.333.928.928,0,0,1-.293,1.264A6.326,6.326,0,0,1,79.5,13.915c-2.481-.031-3.627-.729-4.059-2.077a4.029,4.029,0,0,1,1.069-4.373,2.647,2.647,0,0,1,1.624-.711m0-1h0a3.634,3.634,0,0,0-2.253.933,5.029,5.029,0,0,0-1.393,5.456c.781,2.438,3.227,2.749,5,2.772A7.152,7.152,0,0,0,83.569,13a1.914,1.914,0,0,0,.466-2.6,1.693,1.693,0,0,0-1.414-.76,2.239,2.239,0,0,0-1.211.393l-.295.192a4.189,4.189,0,0,1-2.192.934c-.4,0-.607-.093-.666-.173a.954.954,0,0,1,.024-.73c.107-.356.285-.557,1.057-.8a1.749,1.749,0,0,0,1.255-1.585,1.841,1.841,0,0,0-1.252-1.836,2.879,2.879,0,0,0-1.21-.275Z" transform="translate(0 0)"/>
  </g>
  <g>
    <path class="cls-1" d="M71.035,48.011a1.53,1.53,0,0,1-1.5-1.231c-.454-1.669-.927-3.47-1.3-5.33a2.04,2.04,0,0,1,.287-1.654,1.034,1.034,0,0,1,.792-.4,2.031,2.031,0,0,1,1.516.524,1.542,1.542,0,0,1,.4,1.168A8.168,8.168,0,0,0,72.516,45.5a1.8,1.8,0,0,1,.229,1.431,1.454,1.454,0,0,1-.822.872,2.109,2.109,0,0,1-.889.21Z" transform="translate(0 0)"/>
    <path class="cls-2" d="M69.316,39.892c1.278.008,1.421.724,1.406,1.175a8.821,8.821,0,0,0,1.357,4.676c.384.683.309,1.29-.368,1.6a1.629,1.629,0,0,1-.678.164,1.029,1.029,0,0,1-1.022-.862c-.477-1.755-.935-3.518-1.3-5.3-.151-.743.092-1.446.6-1.458m0-1h-.023a1.527,1.527,0,0,0-1.172.592,2.535,2.535,0,0,0-.386,2.064c.379,1.87.854,3.683,1.311,5.364a2.031,2.031,0,0,0,1.987,1.6,2.6,2.6,0,0,0,1.1-.257,1.941,1.941,0,0,0,1.087-1.172,2.245,2.245,0,0,0-.27-1.83,7.707,7.707,0,0,1-1.23-4.153,2.037,2.037,0,0,0-.543-1.531,2.49,2.49,0,0,0-1.856-.677Z" transform="translate(0 0)"/>
  </g>
  <g>
    <path class="cls-1" d="M64.887,14.385c-.526,0-1.427-.23-1.546-1.773a25.241,25.241,0,0,0-.416-2.726c-.078-.412-.156-.828-.228-1.248a.516.516,0,0,1,0-.182c.019-.092.027-.192.038-.295a1.933,1.933,0,0,1,.3-1,1.441,1.441,0,0,1,1.13-.666,1.28,1.28,0,0,1,1.03.591,2.906,2.906,0,0,1,.6,1.872,5.237,5.237,0,0,0,.623,2.932,1.727,1.727,0,0,1,.172,1.55,1.565,1.565,0,0,1-1.137.87,2.539,2.539,0,0,1-.567.071Z" transform="translate(0 0)"/>
    <path class="cls-2" d="M64.166,7a.81.81,0,0,1,.631.392,2.415,2.415,0,0,1,.5,1.555,5.744,5.744,0,0,0,.691,3.2,1.03,1.03,0,0,1-.647,1.681,2,2,0,0,1-.454.058c-.651,0-.98-.44-1.048-1.312-.1-1.333-.418-2.65-.649-4.018a2.773,2.773,0,0,1,.247-1.09A.987.987,0,0,1,64.166,7m0-1a1.94,1.94,0,0,0-1.529.866,2.367,2.367,0,0,0-.4,1.247c-.009.085-.015.169-.031.246a1,1,0,0,0-.006.363c.071.422.15.839.229,1.253a24.844,24.844,0,0,1,.409,2.677c.156,2.017,1.482,2.235,2.045,2.235a3.008,3.008,0,0,0,.682-.085,2.05,2.05,0,0,0,1.482-1.159,2.22,2.22,0,0,0-.2-2A4.7,4.7,0,0,1,66.3,8.976a3.392,3.392,0,0,0-.7-2.185A1.759,1.759,0,0,0,64.166,6Z" transform="translate(0 0)"/>
  </g>
  <g>
    <path class="cls-1" d="M26.164,44.555a1.677,1.677,0,0,1-1.754-1.663,1.367,1.367,0,0,1,.311-1.1,1.67,1.67,0,0,1,1.306-.461l.187,0,.54.029c.354.021.7.041,1.053.041a4.5,4.5,0,0,0,1.9-.351,1.553,1.553,0,0,1,.624-.127,1.457,1.457,0,0,1,1.518,1.338,1.8,1.8,0,0,1-1.369,1.969,4.973,4.973,0,0,1-1.188.139h0a6.521,6.521,0,0,1-1-.081,1.766,1.766,0,0,0-.325-.031,3.359,3.359,0,0,0-.823.137,4.779,4.779,0,0,1-.734.144Q26.282,44.555,26.164,44.555Z" transform="translate(0 0)"/>
    <path class="cls-2" d="M30.332,41.43a.958.958,0,0,1,1.019.872,1.307,1.307,0,0,1-.991,1.449,4.431,4.431,0,0,1-1.069.125,6.073,6.073,0,0,1-.927-.076,2.17,2.17,0,0,0-.4-.037,14.567,14.567,0,0,0-1.6.283q-.1.009-.195.009a1.182,1.182,0,0,1-1.257-1.212c-.084-.867.571-1.01,1.119-1.01.056,0,.111,0,.164,0,.545.024,1.082.07,1.615.07a5.023,5.023,0,0,0,2.105-.393,1.044,1.044,0,0,1,.421-.084m0-1a2.05,2.05,0,0,0-.827.17,4.028,4.028,0,0,1-1.7.307c-.341,0-.682-.02-1.027-.04-.181-.01-.362-.021-.544-.029-.067,0-.137,0-.208,0a2.159,2.159,0,0,0-1.677.626,1.851,1.851,0,0,0-.437,1.481,2.165,2.165,0,0,0,2.252,2.115q.138,0,.286-.013a5.183,5.183,0,0,0,.809-.156,2.95,2.95,0,0,1,.7-.122,1.171,1.171,0,0,1,.218.02,7.071,7.071,0,0,0,1.112.093,5.443,5.443,0,0,0,1.31-.154,2.307,2.307,0,0,0,1.747-2.488,1.943,1.943,0,0,0-2.017-1.8Z" transform="translate(0 0)"/>
  </g>
  <g>
    <path class="cls-1" d="M2.141,10.6A1.554,1.554,0,0,1,.535,9.2,1.5,1.5,0,0,1,.806,7.914a2.075,2.075,0,0,1,1.683-.6h0a4.833,4.833,0,0,1,.588.047L3.44,7.4l.8-.115c.83-.122,1.754-.257,2.681-.362A3.245,3.245,0,0,1,7.263,6.9a1.1,1.1,0,0,1,1.179.82,1.212,1.212,0,0,1-.1.945,1.518,1.518,0,0,1-1,.656l-1.429.381c-1.056.283-2.11.566-3.172.82a2.584,2.584,0,0,1-.6.076Z" transform="translate(0 0)"/>
    <path class="cls-2" d="M7.264,7.4a.623.623,0,0,1,.694.449c.155.586-.226.855-.739.99-1.53.4-3.053.829-4.591,1.2a2.1,2.1,0,0,1-.487.062,1.062,1.062,0,0,1-1.114-.994C.872,8.249,1.37,7.82,2.491,7.814H2.5c.234,0,.47.044.946.092,1.018-.143,2.27-.341,3.527-.484A2.582,2.582,0,0,1,7.264,7.4m0-1a3.588,3.588,0,0,0-.4.026c-.941.107-1.879.244-2.706.365L3.427,6.9l-.3-.034a5.129,5.129,0,0,0-.627-.05,2.58,2.58,0,0,0-2.08.78A1.983,1.983,0,0,0,.044,9.287a2.065,2.065,0,0,0,2.1,1.815,3.1,3.1,0,0,0,.72-.09c1.075-.258,2.154-.547,3.2-.827q.707-.19,1.414-.376a2.015,2.015,0,0,0,1.3-.889A1.7,1.7,0,0,0,8.925,7.6,1.6,1.6,0,0,0,7.264,6.4Z" transform="translate(0 0)"/>
  </g>
  <g>
    <path class="cls-1" d="M4.7,16.78A1.447,1.447,0,0,1,3.26,15.4,1.5,1.5,0,0,1,4.592,13.69c.812-.166,1.63-.3,2.563-.459l1.318-.224A.856.856,0,0,1,8.586,13,1.291,1.291,0,0,1,9.8,14.091a1.385,1.385,0,0,1-.863,1.552,35.215,35.215,0,0,1-3.916,1.1A1.551,1.551,0,0,1,4.7,16.78Z" transform="translate(0 0)"/>
    <path class="cls-2" d="M8.588,13.5a.794.794,0,0,1,.724.688.886.886,0,0,1-.531.982,34.443,34.443,0,0,1-3.859,1.088,1.075,1.075,0,0,1-.219.023.953.953,0,0,1-.947-.937,1,1,0,0,1,.935-1.162c1.167-.238,2.345-.417,3.867-.68h.029m0-1c-.031,0-.09,0-.12.005s-.053.006-.079.01c-.467.081-.9.154-1.313.223-.944.158-1.759.295-2.583.463a1.982,1.982,0,0,0-1.728,2.252A1.95,1.95,0,0,0,4.7,17.28a2.082,2.082,0,0,0,.422-.044A35.6,35.6,0,0,0,9.1,16.117a1.873,1.873,0,0,0,1.2-2.122,1.789,1.789,0,0,0-1.706-1.5Z" transform="translate(0 0)"/>
  </g>
  <g>
    <path class="cls-1" d="M5.747,23.577c-.171-.025-.32-.044-.454-.061a5.165,5.165,0,0,1-.745-.13,1.362,1.362,0,0,1-1.067-1.315,1.276,1.276,0,0,1,1.126-1.34c.31-.038.619-.067.93-.1a9.917,9.917,0,0,0,2.677-.5.913.913,0,0,1,.24-.043,1.283,1.283,0,0,1,.927.508,1.167,1.167,0,0,1-.147,1.468,4.208,4.208,0,0,1-2.521,1.294c-.255.059-.5.115-.731.191a.5.5,0,0,1-.159.026A.475.475,0,0,1,5.747,23.577Z" transform="translate(0 0)"/>
    <path class="cls-2" d="M8.454,20.6a.8.8,0,0,1,.516.294.69.69,0,0,1-.123.864c-.842,1.016-2.085,1.014-3.026,1.33a10.523,10.523,0,0,1-1.138-.177.865.865,0,0,1-.7-.843.779.779,0,0,1,.687-.835,15.3,15.3,0,0,0,3.724-.623.171.171,0,0,1,.062-.01m0-1a1.167,1.167,0,0,0-.42.076,9.56,9.56,0,0,1-2.543.466c-.316.03-.631.059-.946.1A1.783,1.783,0,0,0,2.981,22.08a1.862,1.862,0,0,0,1.431,1.789,5.33,5.33,0,0,0,.821.145c.13.016.275.034.442.059a1,1,0,0,0,.466-.041c.2-.066.433-.121.684-.178a4.681,4.681,0,0,0,2.792-1.462,1.665,1.665,0,0,0,.173-2.074A1.767,1.767,0,0,0,8.454,19.6Z" transform="translate(0 0)"/>
  </g>
  <g>
    <path class="cls-1" d="M63.176,4.721a1.8,1.8,0,0,1-1.7-1.967A1.922,1.922,0,0,1,62.866.86a1.017,1.017,0,0,1,.277-.039c.928,0,1.649,1.184,1.676,2.242-.035,1.039-.6,1.667-1.462,1.667C63.357,4.73,63.239,4.727,63.176,4.721Z" transform="translate(0 0)"/>
    <path class="cls-2" d="M63.143,1.321c.548,0,1.154.867,1.176,1.754-.021.6-.28,1.155-.962,1.155-.043,0-.087,0-.134-.007A1.307,1.307,0,0,1,61.977,2.77,1.421,1.421,0,0,1,63,1.34a.5.5,0,0,1,.139-.019m0-1a1.5,1.5,0,0,0-.416.059,2.4,2.4,0,0,0-1.75,2.359,2.3,2.3,0,0,0,2.151,2.48c.08.008.156.011.23.011A1.986,1.986,0,0,0,65.318,3.11q0-.03,0-.06C65.287,1.759,64.386.321,63.143.321Z" transform="translate(0 0)"/>
  </g>
  <g>
    <path class="cls-1" d="M132.722,24.239a1.667,1.667,0,0,1-1.292-.442,1.39,1.39,0,0,1-.318-1.1,1.885,1.885,0,0,1,1.878-1.735,1.986,1.986,0,0,1,.225-.013,1.533,1.533,0,0,1,1.537,1.378.487.487,0,0,1,.007.125,1.757,1.757,0,0,1-1.92,1.785Z" transform="translate(0 0)"/>
    <path class="cls-2" d="M133.214,21.449a1.038,1.038,0,0,1,1.045.965,1.264,1.264,0,0,1-1.434,1.323l-.106,0c-.662,0-1.174-.193-1.109-1a1.409,1.409,0,0,1,1.436-1.279,1.5,1.5,0,0,1,.169-.01m0-1a2.5,2.5,0,0,0-.282.016,2.376,2.376,0,0,0-2.32,2.193,1.87,1.87,0,0,0,.45,1.477,2.212,2.212,0,0,0,1.656.6l.134,0a2.252,2.252,0,0,0,2.4-2.247,1,1,0,0,0-.012-.251,2.031,2.031,0,0,0-2.03-1.79Z" transform="translate(0 0)"/>
  </g>
  <g>
    <path class="cls-1" d="M68.118,38.4c-.689,0-1.555-.307-1.761-1.769a.487.487,0,0,1,0-.155c.241-1.385,1.091-1.64,1.575-1.668l.137,0c1.321,0,1.541,1.157,1.673,1.85l.037.19a1.263,1.263,0,0,1-.172,1.042,1.663,1.663,0,0,1-1.276.5C68.26,38.4,68.188,38.4,68.118,38.4Z" transform="translate(0 0)"/>
    <path class="cls-2" d="M68.072,35.3c.993,0,1.068.887,1.22,1.64.169.838-.428.9-1,.949q-.09.008-.173.008c-.772,0-1.147-.485-1.266-1.338.1-.587.382-1.212,1.112-1.255q.055,0,.107,0m0-1c-.054,0-.109,0-.167.005a2.19,2.19,0,0,0-2.037,2.082,1,1,0,0,0-.005.311,2.217,2.217,0,0,0,2.256,2.2q.124,0,.258-.011a2.126,2.126,0,0,0,1.634-.7,1.734,1.734,0,0,0,.261-1.439l-.036-.185c-.128-.676-.429-2.258-2.165-2.258Z" transform="translate(0 0)"/>
  </g>
  <g>
    <path class="cls-1" d="M43.691,38.4l-.262-.037c-.686-.092-1.721-.231-1.78-1.532a1.747,1.747,0,0,1,.418-1.324,1.481,1.481,0,0,1,1.116-.435,2.029,2.029,0,0,1,2.116,1.9,1.124,1.124,0,0,1-1.065,1.318,1.241,1.241,0,0,0-.235.062.506.506,0,0,1-.308.05Z" transform="translate(0 0)"/>
    <path class="cls-2" d="M43.183,35.577h.042A1.525,1.525,0,0,1,44.8,37.035c.1.839-.658.68-1.036.875-.781-.122-1.574-.1-1.62-1.1-.033-.723.281-1.235,1.036-1.235m0-1a1.971,1.971,0,0,0-1.479.589,2.2,2.2,0,0,0-.556,1.692,2.133,2.133,0,0,0,2.214,2.005c.083.011.167.022.25.035a1,1,0,0,0,.614-.1h0a.806.806,0,0,0,.1-.017A1.577,1.577,0,0,0,45.8,36.912a2.509,2.509,0,0,0-2.545-2.334Z" transform="translate(0 0)"/>
  </g>
  <g>
    <path class="cls-1" d="M86.832,47.8c-.611-.075-1.75-.216-1.643-1.488a1.723,1.723,0,0,1,1.729-1.666l.114,0a1.469,1.469,0,0,1,1.69,1.513c.017.65-.243,1.468-1.577,1.664a.463.463,0,0,1-.073.006C87.051,47.825,86.832,47.8,86.832,47.8Z" transform="translate(0 0)"/>
    <path class="cls-2" d="M87.031,45.143c.677,0,1.171.227,1.193,1.027.022.822-.529,1.065-1.15,1.156-.691-.093-1.459-.1-1.386-.973a1.227,1.227,0,0,1,1.246-1.208h.1m0-1-.127,0a2.223,2.223,0,0,0-2.212,2.123c-.148,1.752,1.527,1.959,2.078,2.027l.17.022a1,1,0,0,0,.28,0,2.055,2.055,0,0,0,2-2.172,1.964,1.964,0,0,0-2.192-2Z" transform="translate(0 0)"/>
  </g>
  <g>
    <path class="cls-1" d="M117.779,15.028c-1.118,0-1.337-1.058-1.454-1.626a21.028,21.028,0,0,1-.177-4.036,10.585,10.585,0,0,1-1.758.421c-.134.012-.263.022-.389.022a1.156,1.156,0,0,1-1.157-.666,1.418,1.418,0,0,1,.662-1.893c1.313-.656,9.042-1.259,10.117-1.259l.111,0c.644.035,1.118.786,1.8,3.092-.019-.511-.041-.916-.067-1.07a.5.5,0,0,1,.149-.446,3.534,3.534,0,0,1,1.156-.7.513.513,0,0,1,.186-.035.507.507,0,0,1,.189.037,5.159,5.159,0,0,1,1.863-.833,3.5,3.5,0,0,1,.733-.084,2.517,2.517,0,0,1,2.389,1.937,10.693,10.693,0,0,1,.537,2.344,13.1,13.1,0,0,0,.36,1.808,2,2,0,0,1-.216,1.762,1.3,1.3,0,0,1-1.068.525l-.114,0c-1.231-.088-1.762-.752-1.721-2.154.041-1.373-.265-2.6-.682-2.734-.12.07-.344.5-.586,2.078-.021.141-.04.262-.057.354a2.685,2.685,0,0,1-2.173,2.513l-.177.05a2.12,2.12,0,0,1-.644.1,1.953,1.953,0,0,1-1.155-.361,2.531,2.531,0,0,1-.7-1.361,3.078,3.078,0,0,1-2,.968,2.841,2.841,0,0,1-2.312-1.644c.028.382.043.667.035.777-.044.636-.136,1.958-1.5,2.107A1.867,1.867,0,0,1,117.779,15.028Zm1.362-6.057a2.81,2.81,0,0,1,.259-.5l-.3.052C119.11,8.654,119.125,8.806,119.141,8.971Z" transform="translate(0 0)"/>
    <path class="cls-2" d="M129.743,6.455c.934,0,1.515.561,1.924,1.617.515,1.33.464,2.708.885,4.114.236.79-.03,1.644-.806,1.644l-.079,0c-.839-.06-1.293-.388-1.256-1.641.026-.888-.094-2.922-1.027-3.225a.506.506,0,0,0-.156-.026c-.8,0-1.012,2.183-1.132,2.844a2.282,2.282,0,0,1-2.01,2.176,1.626,1.626,0,0,1-.492.075,1.448,1.448,0,0,1-.858-.263c-.375-.277-.632-1.583-.7-1.824-.006-.021-.018-.031-.035-.031-.2,0-1.1,1.363-2.257,1.363-.589,0-1.243-.355-1.9-1.429-.377-.616-1.168-3.3,1.447-4.153-.672.044-2.737.414-2.737.414s.446,4.316.415,4.768c-.048.693-.133,1.544-1.052,1.644a1.243,1.243,0,0,1-.136.008c-.746,0-.864-.749-.982-1.307a25.6,25.6,0,0,1-.121-4.55,15.581,15.581,0,0,1-2.33.618c-.112.01-.23.021-.346.021a.683.683,0,0,1-.7-.374.919.919,0,0,1,.431-1.238c1.171-.585,8.791-1.206,9.9-1.206l.082,0c.972.053,2.192,6.315,2.332,6.315l0,0a43.993,43.993,0,0,0-.084-4.874,3.087,3.087,0,0,1,1-.6V7.67a4.685,4.685,0,0,1,2.158-1.143,2.981,2.981,0,0,1,.627-.073m-7.669,4.457c.093-.122.252-.234.26-.357.024-.351.221-1.013-.17-1.012a.519.519,0,0,0-.137.021c-.57.158-.318.886.047,1.349m7.669-5.457h0a4,4,0,0,0-.838.1,5.6,5.6,0,0,0-1.864.788q-.041,0-.083,0a1,1,0,0,0-.371.072,4.155,4.155,0,0,0-1.206.7c-.475-1.108-.956-1.578-1.618-1.614-.035,0-.081,0-.137,0-.866,0-8.887.584-10.343,1.311a1.913,1.913,0,0,0-.893,2.548,1.647,1.647,0,0,0,1.611.958c.14,0,.283-.011.419-.023a7.729,7.729,0,0,0,1.21-.249,17.943,17.943,0,0,0,.189,3.389l.016.076c.115.554.419,2.025,1.944,2.025a2.242,2.242,0,0,0,.245-.014,2.105,2.105,0,0,0,1.882-2,2.68,2.68,0,0,0,1.836.763,3.03,3.03,0,0,0,1.755-.62,2.058,2.058,0,0,0,.643.915,2.452,2.452,0,0,0,1.452.459,2.612,2.612,0,0,0,.8-.123c.045-.014.1-.027.15-.041a3.2,3.2,0,0,0,2.539-2.908c.018-.1.037-.223.059-.369q.082-.536.163-.919a6.931,6.931,0,0,1,.11,1.486c-.049,1.663.686,2.561,2.184,2.668.051,0,.1.005.15.005a1.787,1.787,0,0,0,1.469-.727,2.5,2.5,0,0,0,.294-2.2,12.4,12.4,0,0,1-.344-1.737,11.129,11.129,0,0,0-.566-2.451,3,3,0,0,0-2.856-2.256Z" transform="translate(0 0)"/>
  </g>
</svg>
