<svg xmlns="http://www.w3.org/2000/svg" viewBox="0 0 77.55 121.55"><defs><style>.a{fill:#fff;stroke:#000;stroke-width:0.05px;}.b{fill:none;stroke:#df0000;}.c{fill:#df0000;}</style></defs><title>DiamAsset 41</title><path class="a" d="M77.53,116.53a5,5,0,0,1-5,5H5a5,5,0,0,1-5-5V5A5,5,0,0,1,5,0h67.5a5,5,0,0,1,5,5Z"/><path class="b" d="M11.53,14.28v2.25H4V15.28c0-3.25,7.5-3.75,7.5-7.75,0-2.75-1.25-3.5-3.75-3.5S4,5.53,4,7"/><path class="b" d="M66,107.28V105h7.5v1.25c0,3.25-7.5,3.75-7.5,7.75,0,2.75,1.25,3.5,3.75,3.5s3.75-1.5,3.75-3"/><path class="c" d="M9.76,21.15a26.5,26.5,0,0,1-2-2.87,26.5,26.5,0,0,1-2,2.88,21,21,0,0,1-2.51,2.63A21,21,0,0,1,5.79,26.4a26.5,26.5,0,0,1,2,2.88,26.5,26.5,0,0,1,2-2.87,21,21,0,0,1,2.51-2.62A21.08,21.08,0,0,1,9.76,21.15Z"/><path class="c" d="M71.76,95.15a26.5,26.5,0,0,1-2-2.87,26.5,26.5,0,0,1-2,2.88,21,21,0,0,1-2.51,2.63,21,21,0,0,1,2.52,2.63,26.5,26.5,0,0,1,2,2.88,26.5,26.5,0,0,1,2-2.87,21,21,0,0,1,2.51-2.62A21.08,21.08,0,0,1,71.76,95.15Z"/><path class="c" d="M42.3,15.76a51.06,51.06,0,0,1-3.53-5.49,51.06,51.06,0,0,1-3.53,5.49,38.83,38.83,0,0,1-4.47,5,38.89,38.89,0,0,1,4.47,5,51,51,0,0,1,3.53,5.49,51,51,0,0,1,3.53-5.49,39,39,0,0,1,4.47-5A39,39,0,0,1,42.3,15.76Z"/><path class="c" d="M42.3,95.76a51.06,51.06,0,0,1-3.53-5.49,51.06,51.06,0,0,1-3.53,5.49,38.83,38.83,0,0,1-4.47,5,38.89,38.89,0,0,1,4.47,5,51,51,0,0,1,3.53,5.49,51,51,0,0,1,3.53-5.49,39,39,0,0,1,4.47-5A39,39,0,0,1,42.3,95.76Z"/></svg>