<svg id="Layer_1" data-name="Layer 1" xmlns="http://www.w3.org/2000/svg" viewBox="0 0 154.605 96.343">
  <defs>
    <style>
      .cls-1 {
        fill: #0000b8;
      }

      .cls-2 {
        fill: #fff;
      }
    </style>
  </defs>
  <title>182fcdb5-cd2f-45a9-a4c0-5ddc0a20ae09</title>
  <g>
    <path class="cls-1" d="M37.117,14.676a.538.538,0,0,1-.161-.025c-.021-.006-.071-.027-.092-.036a.365.365,0,0,1-.216-.157l-.124-.152a.5.5,0,0,1,.669-.727c.021.014.2.157.207.162a.409.409,0,0,1,.091.1,1.1,1.1,0,0,1,.058.105.485.485,0,0,1-.046.553A.491.491,0,0,1,37.117,14.676Z"/>
    <path class="cls-2" d="M36.915,13.994a1.076,1.076,0,0,1,.133.1c0,.017,0,.034,0,.051h0l.032-.03c.013.02.019.039.03.059-.023-.007-.041-.019-.065-.026-.046-.058-.082-.1-.126-.154m0-1a1,1,0,0,0-.782,1.624l.072.088.051.063a1,1,0,0,0,.428.314,1.173,1.173,0,0,0,.131.049,1,1,0,0,0,1.178-1.416,1.185,1.185,0,0,0-.085-.153,1,1,0,0,0-.229-.244,2.16,2.16,0,0,0-.208-.155,1,1,0,0,0-.556-.169Z"/>
  </g>
  <g>
    <path class="cls-1" d="M20.512,20.165c-.977,0-1.156-.886-1.232-1.265l-.021-.1c-.146-.677-.229-1.362-.309-2.025s-.162-1.33-.3-1.978c-.037-.168-.066-.337-.1-.5-.173-.975-.265-1.283-1.039-1.283a3.075,3.075,0,0,0-.327.019l-.1.006a1.083,1.083,0,0,1-1.018-1.022,1.521,1.521,0,0,1,.962-1.728c.8-.25.75-.471.545-1.29-.308-1.242-.61-2.39-.921-3.535a1.784,1.784,0,0,1,.1-1.4,1.555,1.555,0,0,1,1.012-.7,1.893,1.893,0,0,1,.476-.067c.993,0,1.123.925,1.193,1.422l.026.178c.21,1.33.423,2.659.671,3.982.12.634.376.634.529.634a1.4,1.4,0,0,0,.385-.065A7.925,7.925,0,0,1,22.7,9.207a3.1,3.1,0,0,0,2.181-.664c.5-.579-.118-3.382-.413-4.729a11.829,11.829,0,0,1-.3-1.61c-.037-1.073.4-1.645,1.307-1.7l.117,0c1.17,0,1.361,1.084,1.434,1.492a9.191,9.191,0,0,1,.1,1.5c0,.238.006.476.019.712.038.692.35,2.657.544,3.6a9.288,9.288,0,0,0,3.741-1.919,4.132,4.132,0,0,1,2.728-1.16,3.944,3.944,0,0,1,1.774.452.629.629,0,0,0,.289.064,3.258,3.258,0,0,0,1.183-.4,7.265,7.265,0,0,1,.886-.368,4.54,4.54,0,0,0,.839-.4,6.457,6.457,0,0,1,.843-.42,4.636,4.636,0,0,1,1.663-.33A3.887,3.887,0,0,1,45.043,5.5a4.046,4.046,0,0,1-1.157,5.313c-.655.48-1.354.922-2.093,1.391l-.419.265a16.781,16.781,0,0,0,4.682,1.315l.89.16a.747.747,0,0,0,.14.015c.1-.027.127-.154.033-.4a24.445,24.445,0,0,1,.235-4.63c.655-1.988,2.261-2.9,3.813-3.784l.313-.178a3.193,3.193,0,0,1,1.626-.383c.18,0,.36.01.539.026A2.491,2.491,0,0,1,55.68,5.644a2.269,2.269,0,0,1,.07,2.084,7.559,7.559,0,0,1-4.939,4.783,3.879,3.879,0,0,1-.474.109c-.489.089-.542.139-.562.248-.074.421.2.646.85,1.061l.1.067a2.946,2.946,0,0,0,1.64.488,7.326,7.326,0,0,0,2.485-.607,3.512,3.512,0,0,0,.636-.359c.1-.068.209-.137.315-.2l.117-.074a1.506,1.506,0,0,1,.809-.308.974.974,0,0,1,.76.383,1.244,1.244,0,0,1,.31.988,1.442,1.442,0,0,1-.645.979,8.444,8.444,0,0,1-4.829,1.792h0a6.114,6.114,0,0,1-1.885-.3,5.319,5.319,0,0,0-1.62-.35,2.36,2.36,0,0,0-.812.144,3.907,3.907,0,0,1-1.343.229,8.452,8.452,0,0,1-2.506-.507l-.437-.134c-.709-.212-1.9-.484-2.663-.651a8.8,8.8,0,0,1,.113,1.243,1.846,1.846,0,0,1-1.815,1.985c-1.008,0-1.229-.945-1.362-1.51-.023-.1-.077-.355-.156-.724-.294-1.387-1.013-4.768-1.487-6.5-1.894,1.375-2.243,1.472-5.187,1.9-.827.121-1.019.349-1.024,1.219a2.529,2.529,0,0,0,.557,1.845,2.027,2.027,0,0,0,1.491.5,5.025,5.025,0,0,0,.733-.058,5.058,5.058,0,0,0,2.266-1.157l.217-.161a1.537,1.537,0,0,1,.893-.346.985.985,0,0,1,.92.665,1.506,1.506,0,0,1-.206,1.519,7.715,7.715,0,0,1-5.076,2.191A4.656,4.656,0,0,1,28.961,17.1a1.411,1.411,0,0,1-.157.914,1.6,1.6,0,0,1-1.15.745,1.865,1.865,0,0,1-.329.031c-.832,0-1.354-.606-1.4-1.62-.057-1.324-.165-2.672-.271-3.976l-.021-.272c-.124-1.528-.353-1.528-.808-1.528a5.784,5.784,0,0,0-1,.123c-1.47.276-2.356.442-2.6.792s-.1,1.269.137,2.785c.041.256.133.658.234,1.107.431,1.893.549,2.636.354,3.035a1.541,1.541,0,0,1-1.337.928ZM41.169,6.27A1.5,1.5,0,0,0,39.707,7.4a6.635,6.635,0,0,0-.324,1.463c-.032.227-.064.447-.1.655-.009.682.136.811.138.812h.033a1.5,1.5,0,0,0,.638-.19A7.534,7.534,0,0,0,42.611,8.36a.849.849,0,0,0,.063-1.152A1.619,1.619,0,0,0,41.2,6.27l-.026-.5Zm11.5,1.561a3.242,3.242,0,0,0-2.92,2.043.4.4,0,0,0-.012.2c0-.037.055-.042.14-.077C51.278,9.418,52.273,8.927,52.673,7.831ZM31.621,9.068a1.492,1.492,0,0,0,.439.068,1.587,1.587,0,0,0,.867-.276c.113-.073.235-.14.359-.206.474-.254.694-.373.609-.924l-.006-.018A3.273,3.273,0,0,0,31.621,9.068Z"/>
    <path class="cls-2" d="M25.594,1c.719,0,.854.584.941,1.079a18.328,18.328,0,0,1,.113,2.15,34.16,34.16,0,0,0,.676,4.188,10.087,10.087,0,0,0,4.435-2.151,3.684,3.684,0,0,1,2.4-1.039,3.428,3.428,0,0,1,1.55.4,1.124,1.124,0,0,0,.514.118,8.929,8.929,0,0,0,2.217-.788c.6-.186,1.121-.606,1.712-.833a4.131,4.131,0,0,1,1.484-.3,3.372,3.372,0,0,1,2.971,1.925,3.527,3.527,0,0,1-1.017,4.664c-.947.695-1.965,1.293-3.193,2.092,2.14,1.3,4.332,1.535,6.457,1.933a1.261,1.261,0,0,0,.231.023c.568,0,.729-.48.5-1.078a27.248,27.248,0,0,1,.244-4.3c.636-1.931,2.31-2.773,3.9-3.684a2.734,2.734,0,0,1,1.377-.317c.165,0,.33.009.494.024,1.53.139,2.217,1.012,1.683,2.443a7.1,7.1,0,0,1-4.625,4.482c-.5.162-1.257.09-1.373.745-.148.84.562,1.24,1.175,1.635a3.433,3.433,0,0,0,1.911.568,7.727,7.727,0,0,0,2.66-.64,6.7,6.7,0,0,0,1.034-.6,1.5,1.5,0,0,1,.668-.31.484.484,0,0,1,.376.2.8.8,0,0,1-.236,1.235,8.1,8.1,0,0,1-4.545,1.7A5.585,5.585,0,0,1,50.6,16.3a5.8,5.8,0,0,0-1.775-.374,2.863,2.863,0,0,0-.982.173,3.43,3.43,0,0,1-1.173.2,9.993,9.993,0,0,1-2.8-.621c-1.131-.338-3.418-.815-3.418-.815a13.551,13.551,0,0,1,.224,1.877,1.326,1.326,0,0,1-.987,1.447,1.3,1.3,0,0,1-.328.047c-.62,0-.754-.6-.88-1.143-.108-.461-1.3-6.276-1.849-7.91-2.324,1.7-2.316,1.758-5.536,2.227-1.135.166-1.445.67-1.452,1.71-.013,1.892.862,2.846,2.549,2.846A5.541,5.541,0,0,0,33,15.9a6.035,6.035,0,0,0,2.705-1.41,1.052,1.052,0,0,1,.6-.249c.607,0,.644,1.058.369,1.322a7.231,7.231,0,0,1-4.731,2.052,4.214,4.214,0,0,1-3.569-1.876,16.511,16.511,0,0,1-.831-4l-.043.024a50.824,50.824,0,0,0,.883,5.083.967.967,0,0,1-.814,1.415,1.358,1.358,0,0,1-.24.023c-.584,0-.869-.449-.9-1.142-.061-1.424-.18-2.845-.294-4.266-.119-1.48-.36-1.988-1.306-1.988a6.206,6.206,0,0,0-1.094.132c-3.413.641-3.412.641-2.862,4.148.135.861.85,3.4.633,3.842a1.042,1.042,0,0,1-.92.648l-.069,0c-.622,0-.681-.581-.765-.97-.283-1.318-.323-2.673-.611-4-.237-1.1-.178-2.178-1.623-2.178a3.59,3.59,0,0,0-.38.022l-.052,0c-.684,0-.778-1.5.093-1.772,1.3-.4,1.072-1.12.859-1.979-.286-1.155-.589-2.306-.9-3.455-.2-.735-.017-1.287.754-1.486a1.418,1.418,0,0,1,.351-.051c.629,0,.638.627.725,1.178.211,1.334.425,2.668.675,4,.125.667.446,1.042,1.02,1.042a1.88,1.88,0,0,0,.527-.085c1.366-.4,3.152.016,4.073-1.058s-.555-5.73-.589-6.683c-.02-.558.035-1.134.837-1.183l.087,0M39.47,10.832a2.065,2.065,0,0,0,.832-.244,7.909,7.909,0,0,0,2.687-1.9A1.336,1.336,0,0,0,43.1,6.953,2.11,2.11,0,0,0,41.2,5.77h-.032a2,2,0,0,0-1.927,1.442,11.988,11.988,0,0,0-.456,2.208c-.021.966.178,1.412.683,1.412m-7.409-1.2A2.082,2.082,0,0,0,33.2,9.281c.561-.362,1.379-.524,1.185-1.666-.04-.1-.065-.416-.4-.416a.635.635,0,0,0-.1.008,3.8,3.8,0,0,0-2.713,1.63c-.146.217-.161.518.029.6a2.066,2.066,0,0,0,.859.194m17.656.9a.937.937,0,0,0,.355-.079c1.461-.607,2.937-1.246,3.236-3.108a3.446,3.446,0,0,0-.44-.028,3.753,3.753,0,0,0-3.6,2.436c-.117.5.1.778.452.778M25.594,0h0q-.072,0-.148,0c-.69.042-1.839.386-1.775,2.216a11.5,11.5,0,0,0,.307,1.7c.224,1.022.82,3.737.5,4.327-.3.35-1.006.4-1.818.462a8.313,8.313,0,0,0-1.759.259,1.032,1.032,0,0,1-.218.044,1.057,1.057,0,0,1-.064-.225c-.241-1.282-.446-2.555-.67-3.967l-.025-.169c-.064-.458-.26-1.852-1.688-1.852a2.387,2.387,0,0,0-.6.082,2.045,2.045,0,0,0-1.319.936,2.262,2.262,0,0,0-.151,1.78c.344,1.269.637,2.392.9,3.434l.023.091a3.863,3.863,0,0,1,.113.556,1.362,1.362,0,0,1-.322.136,2.016,2.016,0,0,0-1.308,2.28,1.564,1.564,0,0,0,1.511,1.447,1.491,1.491,0,0,0,.158-.008,2.6,2.6,0,0,1,.274-.016c.393,0,.393,0,.547.871.03.17.061.344.1.519.135.625.212,1.259.294,1.93s.167,1.372.316,2.07l.019.091c.223,1.108.8,1.669,1.724,1.669.043,0,.088,0,.134,0A2.043,2.043,0,0,0,22.4,19.451c.277-.57.125-1.417-.316-3.358-.1-.436-.193-.848-.228-1.076a8.449,8.449,0,0,1-.219-2.428,8.239,8.239,0,0,1,2.278-.583,5.31,5.31,0,0,1,.909-.114,1.034,1.034,0,0,1,.135.007,3.8,3.8,0,0,1,.174,1.061l.024.3c.1,1.291.212,2.626.268,3.931a1.929,1.929,0,0,0,1.9,2.1,2.366,2.366,0,0,0,.418-.039,2.088,2.088,0,0,0,1.5-.991,1.83,1.83,0,0,0,.13-.283,5.24,5.24,0,0,0,2.569.639,8.223,8.223,0,0,0,5.36-2.272l.052.247c.081.38.136.641.156.725.137.585.447,1.916,1.854,1.916a2.342,2.342,0,0,0,2.314-2.476,5.717,5.717,0,0,0-.03-.609c.668.152,1.431.336,1.937.488l.433.133a8.836,8.836,0,0,0,2.653.529,4.4,4.4,0,0,0,1.511-.258,1.875,1.875,0,0,1,.644-.114,4.961,4.961,0,0,1,1.467.325,6.616,6.616,0,0,0,2.038.326A8.915,8.915,0,0,0,57.442,15.7a1.935,1.935,0,0,0,.856-1.325A1.762,1.762,0,0,0,57.875,13a1.485,1.485,0,0,0-1.142-.561,1.97,1.97,0,0,0-1.08.388l-.1.065c-.111.067-.221.139-.331.21a3.169,3.169,0,0,1-.54.31,6.922,6.922,0,0,1-2.308.576A2.427,2.427,0,0,1,51,13.575l-.1-.067a3.944,3.944,0,0,1-.538-.383l.069-.013a4.124,4.124,0,0,0,.538-.125A8.143,8.143,0,0,0,56.219,7.9,2.745,2.745,0,0,0,56.1,5.378,2.962,2.962,0,0,0,53.69,4.115c-.194-.018-.39-.028-.585-.028a3.675,3.675,0,0,0-1.875.45l-.31.177C49.361,5.6,47.594,6.6,46.879,8.775a26.743,26.743,0,0,0-.292,4.6l-.443-.078a19.658,19.658,0,0,1-3.709-.9c.609-.387,1.19-.764,1.746-1.172a4.539,4.539,0,0,0,1.3-5.963,4.365,4.365,0,0,0-3.842-2.432,5.132,5.132,0,0,0-1.844.364,6.935,6.935,0,0,0-.908.451A4.215,4.215,0,0,1,38.142,4a7.471,7.471,0,0,0-.949.393,3.147,3.147,0,0,1-.97.35.128.128,0,0,1-.064-.011,4.441,4.441,0,0,0-2-.506A4.607,4.607,0,0,0,31.1,5.509,8.389,8.389,0,0,1,28.077,7.17c-.178-.977-.4-2.411-.432-3-.013-.23-.015-.461-.018-.693a9.667,9.667,0,0,0-.108-1.575C27.3.641,26.65,0,25.594,0ZM39.785,9.52c.034-.19.063-.388.093-.592a6.262,6.262,0,0,1,.294-1.349c.281-.711.645-.809,1-.809a1.118,1.118,0,0,1,1.074.693c.2.331.135.4-.011.57a6.869,6.869,0,0,1-2.36,1.652l-.084.039c0-.058,0-.126,0-.2Zm-7.593,5.443a1.564,1.564,0,0,1-1.138-.35,2.2,2.2,0,0,1-.411-1.489c0-.623.021-.644.6-.728,2.752-.4,3.372-.562,4.815-1.566.181.719.383,1.587.576,2.449a1.455,1.455,0,0,0-.332-.038,2.016,2.016,0,0,0-1.189.444l-.219.162a4.621,4.621,0,0,1-2.04,1.064,4.569,4.569,0,0,1-.66.053Z"/>
  </g>
  <g>
    <path class="cls-1" d="M78.059,95.842a2.528,2.528,0,0,1-1.83-1.293,3.659,3.659,0,0,1-.609-3.707.97.97,0,0,0,.029-.813,1.383,1.383,0,0,0-1-.433L73.1,89.4Q62.852,88.12,52.6,86.858l-2.153-.264c-4.263-.522-8.669-1.062-13.011-1.489a21.793,21.793,0,0,0-2.185-.094c-.619,0-1.241.016-1.862.031s-1.26.032-1.889.032c-.375.013-.767.019-1.157.019-2.024,0-4.065-.16-6.039-.315-1.955-.154-3.977-.312-5.962-.312-.384,0-.77.006-1.154.019l-.125,0a7.383,7.383,0,0,1-1.61-.235,8.823,8.823,0,0,0-1.135-.2L13.792,84c-.563-.051-1.146-.1-1.707-.1a5.27,5.27,0,0,0-2.229.422,1.95,1.95,0,0,1-.806.177,2.341,2.341,0,0,1-1.259-.4,1.646,1.646,0,0,1-.816-1.677,1.374,1.374,0,0,1,1.107-1.141,6.2,6.2,0,0,1,2.121-.345,11.391,11.391,0,0,1,1.2.07l1.06.111c2.752.289,5.6.589,8.4.774l2.309.158c3.433.239,6.982.487,10.484.486.966,0,1.934-.018,2.9-.061.312-.013.622-.02.934-.02a47.125,47.125,0,0,1,5.8.482c1.244.155,2.532.316,3.791.4,3.095.218,6.211.628,9.225,1.024,1.954.258,3.974.523,5.964.733q2.3.242,4.6.5c2.1.23,4.207.461,6.313.676.2.02.373.03.529.03.471,0,.553-.1.553-.1.013-.019.113-.209-.246-1.1-.085-.211-.192-.415-.3-.619a4.982,4.982,0,0,1-.5-1.191,1.84,1.84,0,0,1,1.047-2.39,1.8,1.8,0,0,1,2.272.788c1.312,2.075,3.278,3.3,5.36,4.6.536.335,1.072.67,1.6,1.02a2.207,2.207,0,0,1,.817,3.313,8.74,8.74,0,0,1-1.829,2.092c-.375.3-.767.58-1.158.857a12.531,12.531,0,0,0-1.955,1.594,1.82,1.82,0,0,1-1.314.675Z"/>
    <path class="cls-2" d="M74.969,81.26a1.379,1.379,0,0,1,1.149.7c1.727,2.728,4.556,4.072,7.1,5.772a1.725,1.725,0,0,1,.673,2.628,8.223,8.223,0,0,1-1.721,1.971,27.985,27.985,0,0,0-3.163,2.5,1.341,1.341,0,0,1-.95.517c-.479,0-.939-.4-1.422-1.082a3.174,3.174,0,0,1-.546-3.25c.415-1.164-.166-1.759-1.384-1.911q-11.02-1.379-22.043-2.738c-5.055-.616-10.108-1.256-15.175-1.755-.74-.073-1.484-.1-2.231-.1-1.249,0-2.5.064-3.754.064q-.579.019-1.157.019c-4.009,0-7.994-.628-12-.628q-.584,0-1.168.019l-.108,0c-.9,0-1.8-.358-2.7-.434-.759-.063-1.521-.153-2.279-.153a5.792,5.792,0,0,0-2.434.466,1.449,1.449,0,0,1-.6.133,1.847,1.847,0,0,1-.99-.325,1.148,1.148,0,0,1-.588-1.2c.055-.482.423-.6.809-.737a5.642,5.642,0,0,1,1.921-.305,11.049,11.049,0,0,1,1.148.068c3.156.33,6.314.678,9.48.888,4.274.284,8.536.646,12.83.646.972,0,1.946-.019,2.922-.061q.456-.02.912-.019c3.17,0,6.365.661,9.554.886,5.085.358,10.108,1.221,15.171,1.755,3.638.384,7.273.8,10.912,1.173a5.787,5.787,0,0,0,.58.033c1.153,0,1.322-.522.77-1.887a12.408,12.408,0,0,1-.771-1.735,1.4,1.4,0,0,1,.747-1.814,1.361,1.361,0,0,1,.512-.1m4.28,10.875c.057-.056.157-.11.158-.168s-.1-.116-.157-.182c-.055.058-.152.116-.152.174s.1.117.15.175M74.969,80.26h0A2.375,2.375,0,0,0,72.735,83.4a5.466,5.466,0,0,0,.538,1.309c.106.2.207.4.28.577a4.93,4.93,0,0,1,.18.512H73.71c-.141,0-.3-.01-.479-.028-2.107-.215-4.212-.445-6.317-.676q-2.3-.251-4.592-.5c-1.983-.209-4-.475-5.951-.731-3.021-.4-6.144-.808-9.254-1.027-1.244-.087-2.524-.247-3.761-.4a47.584,47.584,0,0,0-5.863-.486q-.478,0-.955.02c-.918.04-1.886.06-2.878.06-3.49,0-7.036-.247-10.465-.486q-1.149-.08-2.3-.158c-2.8-.186-5.648-.486-8.4-.776L11.454,80.5a11.877,11.877,0,0,0-1.252-.073,6.63,6.63,0,0,0-2.257.363,1.882,1.882,0,0,0-1.468,1.565,2.136,2.136,0,0,0,1.044,2.155A2.829,2.829,0,0,0,9.049,85a2.449,2.449,0,0,0,1.011-.221,4.8,4.8,0,0,1,2.023-.377c.538,0,1.085.05,1.665.1l.532.047a8.268,8.268,0,0,1,1.069.191,7.816,7.816,0,0,0,1.718.246l.141,0q.567-.019,1.135-.018c1.966,0,3.978.158,5.924.311,1.984.156,4.036.317,6.08.317q.6,0,1.19-.019h.03c.591,0,1.215-.016,1.84-.032s1.235-.032,1.851-.032c.826,0,1.5.029,2.133.091,4.334.427,8.736.966,12.993,1.488l2.159.264q9.978,1.217,19.95,2.476l2.09.262a1.209,1.209,0,0,1,.641.2h0a.879.879,0,0,1-.075.382,4.177,4.177,0,0,0,.672,4.164,2.955,2.955,0,0,0,2.238,1.5,2.3,2.3,0,0,0,1.68-.833,12.069,12.069,0,0,1,1.88-1.529c.389-.276.79-.561,1.181-.875a9.232,9.232,0,0,0,1.937-2.212,2.709,2.709,0,0,0-.96-4c-.529-.353-1.07-.691-1.61-1.029-2.032-1.269-3.951-2.468-5.2-4.446a2.354,2.354,0,0,0-1.994-1.161Z"/>
  </g>
  <g>
    <path class="cls-1" d="M112.791,7.382c-.027,0-.054,0-.081,0l-.014.076c.034-.025.065-.051.1-.076-.007-.038-.009-.079-.015-.118l-.057.049Z"/>
    <path class="cls-2" d="M112.78,7.267c.005.039.008.08.015.118-.034.025-.066.051-.1.076l.014-.076h0c.025,0,.05,0,.075,0h.006l-.068-.066.057-.049m0-1a1,1,0,0,0-.655.244l.034.04-.016.011-.034-.038-.046.039a1,1,0,0,0-.337.638l-.012.058a1.006,1.006,0,0,0,.988,1.2.983.983,0,0,0,.583-.19l.072-.055a1.042,1.042,0,0,0,.42-1l-.007-.071a1,1,0,0,0-.991-.87Z"/>
  </g>
  <g>
    <path class="cls-1" d="M115.018,18.486a1.889,1.889,0,0,1-.573-.1,2.539,2.539,0,0,1-1.578-1.257c-.073-.145-.135-.3-.194-.449a2.762,2.762,0,0,0-.249-.522,5.113,5.113,0,0,1-2.831,1.2c-1.021,0-1.968-.579-3.037-1.866-.06.035-.118.072-.176.112a4.069,4.069,0,0,1-2.073,1.02c-.793,0-1.273-.657-1.992-1.729-.663-.988-1.31-1.987-2-3.061l-.433-.668a14.249,14.249,0,0,0-.324,1.958,13.782,13.782,0,0,1-.3,1.847,4.578,4.578,0,0,0-.1.736c-.062.772-.146,1.829-1.249,2.121a1.855,1.855,0,0,1-.473.063c-1.176,0-1.944-1.141-2.453-1.9A25.828,25.828,0,0,1,91.4,8.286,1.633,1.633,0,0,0,91.33,8.1a1.391,1.391,0,0,1-.146-.675c.126-1.292.672-1.976,1.624-2.033l.11,0c1.311,0,1.374,1.373,1.395,1.824a12.489,12.489,0,0,0,2.222,6.214,20.167,20.167,0,0,0,.684-3.213c.114-.735.232-1.5.413-2.23a1.948,1.948,0,0,0,.025-.475c0-.132,0-.264,0-.394a1.459,1.459,0,0,1,1.226-1.481A2.259,2.259,0,0,1,99.3,5.6a1.617,1.617,0,0,1,1.513.979c.179.372.35.746.521,1.12.35.765.711,1.556,1.122,2.292.154.275.3.561.44.848a7.162,7.162,0,0,0,1.554,2.3,5.652,5.652,0,0,0,.36-3.214c-.026-.351-.054-.7-.062-1.045a2.229,2.229,0,0,1-.294.073,1.8,1.8,0,0,1-.409.05c-.454,0-1.239-.207-1.389-1.59-.07-.656.151-1.494,1.606-1.761a3.132,3.132,0,0,1,.57-.054c1.154,0,2.024.7,2.645,2.12l.135-.145c.539-.575,1.06-1.13,1.572-1.691a2.931,2.931,0,0,1,2.154-1.1,2.5,2.5,0,0,1,.7.1,1.579,1.579,0,0,1,1.166,1.478,1.576,1.576,0,0,1,.7-.178,1.272,1.272,0,0,1,.79.276,1.928,1.928,0,0,1,.329,2.605,6.327,6.327,0,0,0-.508,3.9l.036.355c.1,1.08.194,2.013,1.26,2.465a1.108,1.108,0,0,1,.64.632,1.643,1.643,0,0,1-.19,1.285A1.351,1.351,0,0,1,115.018,18.486ZM112.09,7.957a4.692,4.692,0,0,0-2.887,2.278,3.763,3.763,0,0,0-.37,3.559,1.074,1.074,0,0,0,.923.649,1.052,1.052,0,0,0,.789-.411,3.538,3.538,0,0,0,.715-1.705c.218-1.215.453-2.428.689-3.64Z"/>
    <path class="cls-2" d="M111.338,5.28a1.983,1.983,0,0,1,.561.083c.953.28.785,1.172.881,1.9l-.057.049c-.057.023-.1.052-.155.078-2.929.11-5.489,4.075-4.18,6.628a1.561,1.561,0,0,0,1.368.921,1.536,1.536,0,0,0,1.17-.587,4.049,4.049,0,0,0,.827-1.94c.3-1.654.626-3.3.943-4.954.034-.025.065-.051.1-.076-.007-.038-.01-.079-.015-.118a1.932,1.932,0,0,1,1.125-.585.78.78,0,0,1,.486.173,1.45,1.45,0,0,1,.2,1.962,6.737,6.737,0,0,0-.571,4.2c.133,1.225.119,2.6,1.6,3.227.6.256.4.821.2,1.235a.845.845,0,0,1-.8.507,1.386,1.386,0,0,1-.421-.071,2.047,2.047,0,0,1-1.284-1.006c-.248-.491-.336-1.075-.857-1.393a5.137,5.137,0,0,1-2.864,1.35c-.935,0-1.822-.6-2.913-2.012-.194.114-.4.217-.588.349-.855.6-1.365.929-1.786.929-.508,0-.884-.475-1.577-1.507-.967-1.441-1.9-2.906-3-4.591-.725,1.72-.583,3.329-.965,4.821-.229.892.068,2.217-.988,2.5a1.342,1.342,0,0,1-.345.046c-.919,0-1.581-1-2.052-1.695a25.239,25.239,0,0,1-3.5-7.547c-.062-.23-.221-.462-.2-.68.072-.744.282-1.528,1.156-1.581l.08,0c.757,0,.865.691.9,1.347a14,14,0,0,0,2.843,7.293c.967-2.261.963-4.406,1.461-6.426a5.589,5.589,0,0,0,.043-.956.975.975,0,0,1,.818-1.022A1.786,1.786,0,0,1,99.3,6.1a1.112,1.112,0,0,1,1.062.7c.55,1.148,1.037,2.33,1.657,3.439.687,1.23,1.137,2.643,2.554,3.64,1.186-1.6.718-3.351.674-5.008-.009-.33-.23-.449-.529-.449a1.7,1.7,0,0,0-.378.049,1.308,1.308,0,0,1-.3.037c-.629,0-.83-.576-.891-1.144-.088-.82.541-1.095,1.2-1.216a2.65,2.65,0,0,1,.48-.046c1.11,0,1.9.807,2.459,2.55.791-.847,1.533-1.632,2.262-2.428a2.466,2.466,0,0,1,1.784-.935m0-1h0a3.4,3.4,0,0,0-2.522,1.26c-.4.437-.8.87-1.217,1.312a3.117,3.117,0,0,0-2.766-1.759,3.667,3.667,0,0,0-.66.062c-2,.368-2.075,1.736-2.014,2.307.2,1.89,1.495,2.037,1.885,2.037a2.137,2.137,0,0,0,.233-.013c.01.157.023.314.035.471a7.355,7.355,0,0,1-.044,2.244,9.585,9.585,0,0,1-.925-1.59c-.147-.294-.293-.586-.451-.868-.4-.719-.744-1.467-1.106-2.258-.172-.376-.344-.752-.522-1.124A2.121,2.121,0,0,0,99.3,5.1a2.792,2.792,0,0,0-.506.048,1.968,1.968,0,0,0-1.634,1.941c-.009.144-.008.291,0,.437a1.89,1.89,0,0,1-.011.345c-.186.756-.306,1.527-.422,2.273-.1.665-.208,1.341-.363,2.023a10.871,10.871,0,0,1-1.549-4.97c-.088-1.9-1.078-2.3-1.894-2.3q-.068,0-.14,0c-.85.051-1.9.524-2.091,2.483a1.845,1.845,0,0,0,.182.916,1.145,1.145,0,0,1,.048.121,26.3,26.3,0,0,0,3.639,7.844C95.1,17.075,96,18.4,97.436,18.4a2.35,2.35,0,0,0,.6-.079c1.444-.383,1.558-1.8,1.619-2.564a4.333,4.333,0,0,1,.082-.652,14.339,14.339,0,0,0,.313-1.914c.027-.235.054-.466.086-.7.6.934,1.177,1.815,1.763,2.688.673,1,1.308,1.95,2.407,1.95a3.937,3.937,0,0,0,2.159-.969,4.325,4.325,0,0,0,3.127,1.7,4.894,4.894,0,0,0,2.631-.956c.061.153.124.3.2.45a3.021,3.021,0,0,0,1.871,1.508,2.382,2.382,0,0,0,.726.119,1.836,1.836,0,0,0,1.691-1.063,2.118,2.118,0,0,0,.211-1.68,1.592,1.592,0,0,0-.914-.919c-.72-.305-.839-.833-.957-2.053l-.036-.361a5.742,5.742,0,0,1,.446-3.6A2.432,2.432,0,0,0,115,6.063a1.787,1.787,0,0,0-1.1-.38,1.879,1.879,0,0,0-.336.03,1.958,1.958,0,0,0-1.387-1.31,2.992,2.992,0,0,0-.842-.124Zm-1.583,9.663a.594.594,0,0,1-.478-.377,3.278,3.278,0,0,1,.358-3.079,4.59,4.59,0,0,1,1.8-1.766c-.228,1.172-.455,2.343-.665,3.518a3.057,3.057,0,0,1-.6,1.47.576.576,0,0,1-.407.234Z"/>
  </g>
  <g>
    <path class="cls-1" d="M51.272,42.478a1.977,1.977,0,0,1-1.8-2.092,34.509,34.509,0,0,0-.913-4.739c-.178-.736-.355-1.471-.511-2.211a8.48,8.48,0,0,1-.157-2.271,1.478,1.478,0,0,1,1.524-1.491,2.167,2.167,0,0,1,.394.038c1.173.218,1.13,1.2,1.105,1.729a17.232,17.232,0,0,0,.707,4.84c.076.313.152.625.225.939l.013-.04c.239-.732.479-1.465.681-2.208a3.86,3.86,0,0,0,.078-.41,2.779,2.779,0,0,1,.339-1.083,3.228,3.228,0,0,0,.168-.342,1.482,1.482,0,0,1,1.358-1.117,1.7,1.7,0,0,1,.211.014,1.917,1.917,0,0,1,1.778,1.889,5.378,5.378,0,0,0,1.482,3.421,3.187,3.187,0,0,0,.326-2c-.012-.281-.022-.559-.013-.83a1.914,1.914,0,0,0-.155-.636,4.305,4.305,0,0,1-.187-.643,1.792,1.792,0,0,1,.246-1.367,1.6,1.6,0,0,1,1.07-.639,2.821,2.821,0,0,1,.479-.043,1.533,1.533,0,0,1,1.59,1.176,4.209,4.209,0,0,1,.051-.86c.161-1.022.782-1.657,1.619-1.657l.118,0A1.6,1.6,0,0,1,64.552,31.5a6.111,6.111,0,0,0,.073.692c.034.242.067.484.079.727.022.466.137.641.734.695.3.026.553.042.774.042a1.079,1.079,0,0,0,.706-.147c.188-.2.173-.9.146-1.409a6.855,6.855,0,0,0-.2-1.141l-.093-.417a1.4,1.4,0,0,1,.166-1.113,1.577,1.577,0,0,1,1.121-.6,2.726,2.726,0,0,1,.432-.038,1.267,1.267,0,0,1,1.357,1.237c.045.43.068.862.093,1.294.016.288.031.575.053.862.01.116.011.252.013.39,0,.116,0,.29.015.4.506.267,1.041.638,1.121,1.183.084.578-.352.987-.773,1.383a5.844,5.844,0,0,0-.455.458,2.216,2.216,0,0,0,.058,2.554,2.113,2.113,0,0,1,.426,1.7,1.606,1.606,0,0,1-.986.949,1.682,1.682,0,0,1-.665.143h0c-.89,0-1.566-.743-1.767-1.938a10.182,10.182,0,0,1-.078-1.93l.01-.535c0-.374-.082-.479-.1-.5a.241.241,0,0,0-.154-.038.919.919,0,0,0-.127.01c-.124.018-.256.027-.388.036-.607.039-.663.056-.644.518a4.815,4.815,0,0,0,.45,2.093,2,2,0,0,1,.188,1.736,1.613,1.613,0,0,1-1.158.871,2.061,2.061,0,0,1-.513.069c-.872,0-1.429-.616-1.653-1.831a10.841,10.841,0,0,1-.138-1.593c-.014-.354-.025-.708-.065-1.059-.061-.538-.233-.693-.774-.693-.052,0-.106,0-.162.005-.712.044-.8.121-.831.748-.107,2.009-.946,3.208-2.493,3.563a2.07,2.07,0,0,1-.462.053c-.82,0-2.02-.512-3.072-2.947-.033-.077-.063-.158-.094-.239a1.146,1.146,0,0,0-.217-.424,9.569,9.569,0,0,0-.518,1.673,11.1,11.1,0,0,1-.549,1.788c-.312.72-.739,1.706-1.983,1.706Q51.367,42.485,51.272,42.478Zm10.111-9.294a2.273,2.273,0,0,0,.017.427c.027.146.068.146.111.146a.424.424,0,0,0,.129-.023,3.876,3.876,0,0,1-.256-.776C61.385,33.032,61.385,33.107,61.384,33.183Z"/>
    <path class="cls-2" d="M68.5,29.286a.773.773,0,0,1,.86.79c.075.712.089,1.429.144,2.143.03.39-.035,1.03.158,1.126,1.9.948.642,1.435-.12,2.324a2.674,2.674,0,0,0,.013,3.143c.508.82.687,1.488-.333,1.926a1.183,1.183,0,0,1-.468.1c-.613,0-1.113-.556-1.274-1.521a13.858,13.858,0,0,1-.061-2.378c0-.6-.176-1.038-.754-1.038a1.384,1.384,0,0,0-.2.015c-.64.093-1.507-.1-1.459,1.069a5.312,5.312,0,0,0,.505,2.3c.414.805.415,1.62-.65,1.893a1.562,1.562,0,0,1-.388.053c-.774,0-1.035-.737-1.162-1.422-.158-.855-.1-1.748-.2-2.617a1.113,1.113,0,0,0-1.272-1.137q-.092,0-.193.006c-.889.055-1.248.272-1.3,1.22-.075,1.405-.512,2.737-2.106,3.1a1.555,1.555,0,0,1-.349.04c-.984,0-1.888-.967-2.614-2.646-.184-.427-.244-.951-1-1.108-.705,1.179-.749,2.638-1.3,3.9-.309.714-.621,1.4-1.524,1.4q-.071,0-.147-.006c-1.026-.079-1.26-.8-1.341-1.642a64.3,64.3,0,0,0-1.433-7,7.943,7.943,0,0,1-.147-2.134.981.981,0,0,1,1.026-1.024,1.665,1.665,0,0,1,.3.029c.671.124.727.534.7,1.215-.1,2.308.661,4.487,1.118,6.71l.5.131c.334-1.051.7-2.094.986-3.158a4.7,4.7,0,0,1,.362-1.364c.3-.493.385-1.219,1.1-1.219a1.213,1.213,0,0,1,.149.01,1.427,1.427,0,0,1,1.341,1.431,5.938,5.938,0,0,0,2.008,4.112c1.126-1.036.744-2.358.788-3.538a7.266,7.266,0,0,0-.35-1.384,1.1,1.1,0,0,1,.909-1.426,2.315,2.315,0,0,1,.394-.036,1.06,1.06,0,0,1,1.153,1.059c.035.316-.021.644.036.954a.6.6,0,0,0,.6.555.923.923,0,0,0,.283-.048.509.509,0,0,0,.314-.762,2.929,2.929,0,0,1-.254-1.864c.1-.643.445-1.235,1.126-1.235l.083,0a1.093,1.093,0,0,1,.988,1.161c.015.477.13.95.153,1.427.037.774.4,1.1,1.189,1.168.313.028.585.045.819.045,1.217,0,1.438-.448,1.351-2.083a10.94,10.94,0,0,0-.3-1.633c-.153-.73.235-1.015.878-1.119a2.218,2.218,0,0,1,.352-.031m0-1a3.181,3.181,0,0,0-.511.044,2.046,2.046,0,0,0-1.455.813,1.875,1.875,0,0,0-.243,1.5c.029.141.062.282.094.423a6.49,6.49,0,0,1,.185,1.057,4.324,4.324,0,0,1-.02,1.009,2.024,2.024,0,0,1-.333.021c-.188,0-.42-.013-.731-.041a1.146,1.146,0,0,1-.257-.046.918.918,0,0,1-.022-.174c-.013-.274-.049-.529-.084-.775a6.057,6.057,0,0,1-.068-.635,2.08,2.08,0,0,0-1.919-2.128q-.077-.005-.151-.005a2.116,2.116,0,0,0-2.026,1.682,2.225,2.225,0,0,0-1.234-.342,3.322,3.322,0,0,0-.565.051,2.085,2.085,0,0,0-1.393.845,2.274,2.274,0,0,0-.329,1.741,4.507,4.507,0,0,0,.208.724,2.013,2.013,0,0,1,.127.449c-.011.3,0,.588.012.869a7.154,7.154,0,0,1,0,.954,4.944,4.944,0,0,1-.809-2.436,2.41,2.41,0,0,0-2.214-2.347,2.216,2.216,0,0,0-.272-.017,1.971,1.971,0,0,0-1.815,1.412,2.574,2.574,0,0,1-.14.287,3.247,3.247,0,0,0-.4,1.263,3.376,3.376,0,0,1-.068.358q-.069.254-.144.509a14.251,14.251,0,0,1-.5-3.887A1.884,1.884,0,0,0,49.9,29.22a2.671,2.671,0,0,0-.485-.046,1.972,1.972,0,0,0-2.024,1.957,8.98,8.98,0,0,0,.167,2.406c.158.751.34,1.5.515,2.229a33.57,33.57,0,0,1,.9,4.666c.153,1.584.913,2.44,2.26,2.543q.115.009.223.009A2.66,2.66,0,0,0,53.9,40.978a11.446,11.446,0,0,0,.575-1.865c.037-.149.073-.3.11-.442,1.112,2.265,2.4,2.758,3.306,2.758a2.563,2.563,0,0,0,.574-.066c1.791-.412,2.76-1.766,2.881-4.024a1.723,1.723,0,0,1,.026-.236,2.4,2.4,0,0,1,.335-.039c.045,0,.089,0,.131,0a.818.818,0,0,1,.241.026c0,.013.022.082.038.223.037.326.049.665.062,1.023A11.277,11.277,0,0,0,62.324,40c.343,1.851,1.356,2.24,2.145,2.24a2.571,2.571,0,0,0,.637-.085A2.093,2.093,0,0,0,66.6,41a1.922,1.922,0,0,0,.159-.609,2.1,2.1,0,0,0,2.857,1.264A2.079,2.079,0,0,0,70.878,40.4a2.582,2.582,0,0,0-.478-2.114,1.734,1.734,0,0,1-.1-1.965,5.644,5.644,0,0,1,.417-.418,2.128,2.128,0,0,0,.927-1.82,2.073,2.073,0,0,0-1.13-1.411v-.106c0-.15,0-.3-.014-.423-.022-.283-.037-.566-.052-.849-.023-.429-.047-.874-.094-1.321A1.764,1.764,0,0,0,68.5,28.286ZM66,36.96l.175-.013c.08-.005.159-.011.237-.018v0c0,.174-.005.35-.01.525-.011.46-.022.932.013,1.412l-.02-.039A4.355,4.355,0,0,1,66,36.96Z"/>
  </g>
  <g>
    <path class="cls-1" d="M63.628,62.482A7,7,0,0,1,57.3,58.548a7.468,7.468,0,0,0-.51-.992,7.632,7.632,0,0,0-.778.88c-1.911,2.386-4.569,2.893-7.355,3.236a2.558,2.558,0,0,1-.306.02,2.059,2.059,0,0,1-2.045-1.971c-.23-1.815-.384-3.211-.5-4.522l-.021-.3c-.046-.741-.087-.982-.651-1.118-.485-.117-1.571-.579-1.174-2.327a1.947,1.947,0,0,1,2.041-1.593c3.379.013,7.638.486,10.946,3.986a1.233,1.233,0,0,0,.307-.563l.073-.2a4.651,4.651,0,0,1,4.261-3.032,5.24,5.24,0,0,1,.591-.034,3.713,3.713,0,0,1,3.083,1.425A3.935,3.935,0,0,1,65.739,55,2.219,2.219,0,0,1,63.8,56.629c-1.178.2-2.358.39-3.541.559-.29.041-.4.119-.421.154s-.021.189.122.481a4.276,4.276,0,0,0,3.309,1.9,1.9,1.9,0,0,0,.213-.012c.341-.039.544-.155.635-.66a1.283,1.283,0,0,1,1.34-1.086,2.129,2.129,0,0,1,.319.025,1.561,1.561,0,0,1,1.332,1.67,2.293,2.293,0,0,1-2.113,2.682A6.93,6.93,0,0,1,63.628,62.482ZM48.522,52.9a.354.354,0,0,0-.1.009,12.691,12.691,0,0,0-.025,1.318l.079.512c.093.637.212,1.456.31,2.278a1.214,1.214,0,0,0,.658.947,2.585,2.585,0,0,0,1.422.4,3.229,3.229,0,0,0,3.247-2.634,1.335,1.335,0,0,0-.864-1.59,17.362,17.362,0,0,0-4-1.158A5.251,5.251,0,0,0,48.522,52.9Zm13.416-.075a2.068,2.068,0,0,0-.517.08,2.474,2.474,0,0,0-1.664,1.4,6.662,6.662,0,0,0,2.072-.449c.748-.277.657-.538.591-.728S62.251,52.825,61.938,52.825Z"/>
    <path class="cls-2" d="M46.005,50.364h.01c4.093.016,7.9.8,10.836,4.116.7-.272.783-.8.946-1.214a4.182,4.182,0,0,1,3.851-2.717,4.751,4.751,0,0,1,.534-.031c2.375,0,3.811,1.9,3.077,4.341a1.731,1.731,0,0,1-1.547,1.277c-1.175.2-2.35.388-3.529.556-.9.129-1.032.627-.678,1.351a4.78,4.78,0,0,0,3.758,2.183,2.4,2.4,0,0,0,.269-.015A1.133,1.133,0,0,0,64.6,59.144a.781.781,0,0,1,.847-.675,1.547,1.547,0,0,1,.241.02c.672.106.872.588.911,1.207a1.8,1.8,0,0,1-1.713,2.16,6.38,6.38,0,0,1-1.263.126,6.529,6.529,0,0,1-5.872-3.641c-.407-.893-.636-1.329-.934-1.329-.276,0-.611.376-1.2,1.112-1.823,2.277-4.4,2.729-7.026,3.053a2,2,0,0,1-.245.015A1.556,1.556,0,0,1,46.8,59.657c-.191-1.5-.365-3-.494-4.5-.069-.8.026-1.6-1.053-1.858-.9-.218-.972-.987-.8-1.731a1.457,1.457,0,0,1,1.553-1.2m13.379,4.449A7.139,7.139,0,0,0,62,54.324c.7-.259,1.133-.662.888-1.361a.916.916,0,0,0-.954-.638,2.534,2.534,0,0,0-.647.1A3.243,3.243,0,0,0,59.013,54.8c.128.005.251.008.372.008M50.86,58.868a3.735,3.735,0,0,0,3.746-3.089,1.831,1.831,0,0,0-1.171-2.1,17.935,17.935,0,0,0-4.111-1.19,5.781,5.781,0,0,0-.8-.092c-.62,0-.636.374-.63,1.829.092.653.261,1.748.392,2.847a1.713,1.713,0,0,0,.881,1.307,3.071,3.071,0,0,0,1.695.484m-4.855-9.5a2.443,2.443,0,0,0-2.528,1.981,2.187,2.187,0,0,0,1.544,2.924.522.522,0,0,1,.193.074,2.362,2.362,0,0,1,.077.589c.006.1.013.206.022.309.113,1.328.267,2.729.5,4.543a2.536,2.536,0,0,0,2.541,2.408,2.988,2.988,0,0,0,.367-.023c2.892-.357,5.656-.887,7.684-3.42.063-.079.168-.21.281-.345.066.139.126.271.163.352a7.5,7.5,0,0,0,6.782,4.227,7.4,7.4,0,0,0,1.461-.146,2.787,2.787,0,0,0,2.513-3.2A2.039,2.039,0,0,0,65.849,57.5a2.55,2.55,0,0,0-.4-.032,1.779,1.779,0,0,0-1.831,1.5.61.61,0,0,1-.072.227h0a.677.677,0,0,1-.128.026,1.408,1.408,0,0,1-.157.008,3.877,3.877,0,0,1-2.827-1.56c1.187-.171,2.354-.362,3.441-.544a2.711,2.711,0,0,0,2.339-1.976,4.421,4.421,0,0,0-.55-4,4.256,4.256,0,0,0-3.485-1.627,5.778,5.778,0,0,0-.647.037,5.167,5.167,0,0,0-4.67,3.347q-.021.055-.042.111c-3.356-3.19-7.5-3.637-10.805-3.65Zm15.039,4.223a2.182,2.182,0,0,1,.507-.2,2.142,2.142,0,0,1,.219-.048c-.034.015-.072.03-.115.046-.213.079-.415.146-.612.2Zm-12.153.568c0-.224,0-.5.005-.717l.272.041a16.844,16.844,0,0,1,3.882,1.126c.429.178.622.385.558,1.083a2.753,2.753,0,0,1-2.75,2.18,2.06,2.06,0,0,1-1.148-.321c-.338-.221-.408-.36-.435-.589-.1-.822-.217-1.641-.31-2.279l-.075-.524Z"/>
  </g>
  <g>
    <path class="cls-1" d="M91.463,83.835c-1.041-.117-1.019-1.117-1.01-1.544l0-.35a6.154,6.154,0,0,1,.191-1.794,28.842,28.842,0,0,0,.868-4.437,30.471,30.471,0,0,1,.864-4.462,6.456,6.456,0,0,0-.13-4.105,2.051,2.051,0,0,1,.637-2.484,1.942,1.942,0,0,1,1.234-.453,2.252,2.252,0,0,1,1.117.319c1.883,1.069,3.914,1.078,6.064,1.088a28.494,28.494,0,0,1,2.849.107c.089.009.174.014.255.014a.987.987,0,0,0,.83-.325A1.477,1.477,0,0,0,105.2,64.1a.905.905,0,0,0-.082-.137,2.115,2.115,0,0,1-.141-.238,1.975,1.975,0,0,0-.294-.372,1.331,1.331,0,0,1-.179-2.013,1.774,1.774,0,0,1,1.325-.6,2.919,2.919,0,0,1,1.725.705,8.188,8.188,0,0,0,5.076,1.8c.118,0,.237,0,.357-.008l.11,0a1.9,1.9,0,0,1,1.75,1.01,1.548,1.548,0,0,1-.467,1.915s-1.233,1.369-1.8,2c-.926,1.036-1.852,2.073-2.795,3.093a3.122,3.122,0,0,1-2.3.837h0a3.253,3.253,0,0,1-2.269-.782,1.536,1.536,0,0,1-.325-1.627l.032-.139a.938.938,0,0,0-.054-.752,1.248,1.248,0,0,0-.907-.314c-1.224-.078-2.446-.174-3.669-.269l-1.583-.122c-.827-.09-1.468-.159-1.932-.159-.956,0-1.011.089-1.47,2.394l-.1.5q-.368,1.819-.745,3.636c-.544,2.63-1.105,5.35-1.6,8.033-.165.9-.584,1.354-1.245,1.354C91.6,83.843,91.481,83.836,91.463,83.835Z"/>
    <path class="cls-2" d="M105.83,61.24a2.524,2.524,0,0,1,1.424.6,8.706,8.706,0,0,0,5.375,1.9q.189,0,.381-.008l.088,0a1.409,1.409,0,0,1,1.312.749c.342.628-.119,1.029-.5,1.449-1.5,1.658-2.973,3.341-4.491,4.982a2.681,2.681,0,0,1-1.934.676,2.782,2.782,0,0,1-1.914-.635c-.422-.425-.264-.831-.159-1.3.254-1.143-.338-1.6-1.417-1.674-1.75-.112-3.5-.259-5.247-.391-.852-.093-1.486-.16-1.968-.16-1.5,0-1.529.661-2.061,3.294-.786,3.891-1.626,7.772-2.347,11.677-.086.464-.25.945-.755.945a.877.877,0,0,1-.1-.006c-.634-.071-.57-.685-.564-1.14a6.855,6.855,0,0,1,.17-1.9c.9-2.909.865-5.993,1.735-8.9a6.943,6.943,0,0,0-.139-4.417,1.555,1.555,0,0,1,.479-1.926,1.455,1.455,0,0,1,.923-.343,1.766,1.766,0,0,1,.87.253c2.866,1.628,6.063.938,9.108,1.258a2.933,2.933,0,0,0,.306.017c1.3,0,1.773-.978,1.26-2.31-.057-.147-.171-.271-.24-.414-.285-.585-1.3-1.038-.558-1.823a1.283,1.283,0,0,1,.961-.447m5.58,4.495c.057-.056.157-.11.158-.167s-.1-.116-.157-.182c-.055.058-.152.116-.152.174s.1.117.15.175M105.83,60.24h0a2.284,2.284,0,0,0-1.69.762c-.767.815-.709,1.721.173,2.69a2.316,2.316,0,0,1,.216.257,2.608,2.608,0,0,0,.173.293c.016.024.032.047.046.071a1.049,1.049,0,0,1,.078.812c-.037.054-.18.108-.418.108a1.942,1.942,0,0,1-.2-.011,28.976,28.976,0,0,0-2.9-.111c-2.083-.009-4.05-.018-5.819-1.022a2.748,2.748,0,0,0-1.364-.384,2.467,2.467,0,0,0-1.547.562,2.551,2.551,0,0,0-.8,3.044,5.968,5.968,0,0,1,.122,3.793,30.8,30.8,0,0,0-.88,4.534A28.075,28.075,0,0,1,90.17,80a6.674,6.674,0,0,0-.212,1.944l0,.241,0,.094c-.034,1.557.772,1.976,1.454,2.052a1.883,1.883,0,0,0,.21.012c.528,0,1.455-.229,1.739-1.764.494-2.676,1.055-5.391,1.6-8.016q.376-1.822.747-3.644l.1-.5a7.322,7.322,0,0,1,.519-1.94,1.144,1.144,0,0,1,.462-.051c.437,0,1.065.068,1.86.155l1.592.124c1.233.1,2.465.193,3.7.272a1.155,1.155,0,0,1,.542.121,1.4,1.4,0,0,1-.037.338l-.031.133a2.031,2.031,0,0,0,.457,2.093,3.7,3.7,0,0,0,2.623.93,3.612,3.612,0,0,0,2.668-1c.955-1.032,1.9-2.095,2.823-3.123q.836-.936,1.676-1.868l.094-.1a2.042,2.042,0,0,0,.54-2.5,2.417,2.417,0,0,0-2.19-1.271l-.13,0q-.17.007-.339.007a7.709,7.709,0,0,1-4.772-1.7,3.385,3.385,0,0,0-2.027-.807Z"/>
  </g>
  <g>
    <path class="cls-1" d="M115.04,41.164c-.124,0-.248,0-.372-.01a2.659,2.659,0,0,1-2.76-2.26,5.849,5.849,0,0,1-.122-2.322,7.587,7.587,0,0,0-.336-4.146,2.233,2.233,0,0,1,.255-2.018,3.778,3.778,0,0,1,2.706-1.782q.42-.042.836-.042a9.514,9.514,0,0,1,3.367.649,3.033,3.033,0,0,1,2.208,2.644,2.4,2.4,0,0,1-1.634,2.521,1.455,1.455,0,0,0,.45.085c.173,0,.576,0,.97-.983a3.294,3.294,0,0,1,2.279-1.945,4.361,4.361,0,0,1,1.1-.167,2.3,2.3,0,0,1,1.939,1.03c.093.125.194.245.294.362a1.864,1.864,0,0,1,.284,2.676,2.419,2.419,0,0,0-.3.885l-.061.274a2.133,2.133,0,0,0-.035,1.413,1.1,1.1,0,0,0,.737.382,1.251,1.251,0,0,1,.846.519.893.893,0,0,1,.091.725,1.67,1.67,0,0,1-.854,1.02,3.117,3.117,0,0,1-1.222.26,2.72,2.72,0,0,1-1.768-.658,1.124,1.124,0,0,0-.618-.336c-.042,0-.169,0-.4.2a1.168,1.168,0,0,1-.714.324.856.856,0,0,1-.162-.02,5.013,5.013,0,0,0-1.262-.153,12.33,12.33,0,0,0-2.75.423,13.372,13.372,0,0,1-3,.452Zm.209-4.291a2.458,2.458,0,0,0,1.723,1.134,2.2,2.2,0,0,0,1.463-.793,2.529,2.529,0,0,0-1.562-.417c-.277,0-.557.019-.837.038C115.772,36.852,115.51,36.869,115.249,36.874Zm7.567-1.423-6.789-3.746a4.515,4.515,0,0,0-.716.063c-.206.033-.278.079-.283.743a.644.644,0,0,0,.014.2c.115-.038.259-.073.357-.1.22-.06.444-.107.673-.155a5.5,5.5,0,0,0,1.337-.4A2.779,2.779,0,0,0,116.027,31.705Z"/>
    <path class="cls-2" d="M115.247,29.085a8.969,8.969,0,0,1,3.191.617,2.536,2.536,0,0,1,1.887,2.219,1.985,1.985,0,0,1-1.579,2.114c-.213.074-.436.157-.39.538a2.842,2.842,0,0,0,1.284.411c.581,0,1.06-.362,1.433-1.3a2.81,2.81,0,0,1,1.942-1.646,3.9,3.9,0,0,1,.974-.15,1.8,1.8,0,0,1,1.538.828c.568.766,1.422,1.33.581,2.437a3.613,3.613,0,0,0-.447,1.348c-.251,1.068-.394,2.1,1.091,2.4.327.065.656.249.553.618a1.172,1.172,0,0,1-.568.695,2.629,2.629,0,0,1-1.026.22,2.211,2.211,0,0,1-1.446-.54,1.534,1.534,0,0,0-.94-.453,1.107,1.107,0,0,0-.724.319.746.746,0,0,1-.386.2.156.156,0,0,1-.039,0,5.534,5.534,0,0,0-1.385-.169c-1.938,0-3.794.875-5.749.875q-.172,0-.346-.009a2.181,2.181,0,0,1-2.305-1.891,5.393,5.393,0,0,1-.109-2.124,8.1,8.1,0,0,0-.369-4.4c-.509-1.233.994-2.957,2.549-3.112q.4-.039.786-.039m-.2,4.089a1.9,1.9,0,0,0,.481-.08,6.291,6.291,0,0,0,2.773-1.021,3.368,3.368,0,0,0-2.277-.867,5,5,0,0,0-.794.069c-.725.116-.7.772-.705,1.3-.006.475.237.6.523.6m7,4.117a3.538,3.538,0,0,0,1.41-2.454c.006-.068-.22-.239-.318-.239l-.018,0c-1.133.352-.8,1.516-1.221,2.267-.024.043.045.138.148.423m-5.075,1.217a3.077,3.077,0,0,0,2.176-1.325,2.858,2.858,0,0,0-2.275-.885c-.576,0-1.165.077-1.741.077a4.013,4.013,0,0,1-.927-.095c.978,1.5,1.87,2.228,2.767,2.228m-1.724-10.423c-.294,0-.592.015-.885.044a4.242,4.242,0,0,0-3.086,2.023,2.719,2.719,0,0,0-.288,2.466,7.141,7.141,0,0,1,.3,3.888,6.354,6.354,0,0,0,.134,2.519,3.158,3.158,0,0,0,3.216,2.629q.2.011.4.011a13.741,13.741,0,0,0,3.111-.464,11.977,11.977,0,0,1,2.638-.411,4.521,4.521,0,0,1,1.137.137,1.334,1.334,0,0,0,.287.036,1.652,1.652,0,0,0,1.04-.445.776.776,0,0,1,.08-.062,1.609,1.609,0,0,1,.286.2,3.215,3.215,0,0,0,2.09.775,3.619,3.619,0,0,0,1.416-.3,2.151,2.151,0,0,0,1.14-1.345,1.4,1.4,0,0,0-.146-1.122,1.733,1.733,0,0,0-1.175-.748.782.782,0,0,1-.414-.162c-.046-.072-.066-.309.1-1.028.022-.093.042-.188.063-.284a2.385,2.385,0,0,1,.208-.687,2.35,2.35,0,0,0-.3-3.3c-.093-.109-.187-.22-.274-.337a2.81,2.81,0,0,0-2.341-1.232,4.816,4.816,0,0,0-1.228.183,4.047,4.047,0,0,0-1.446.7,3.5,3.5,0,0,0-2.523-3.007,10.019,10.019,0,0,0-3.544-.682Zm1.181,9.226c.149-.008.3-.014.444-.014a3.316,3.316,0,0,1,.6.048.857.857,0,0,1-1.049-.034Z"/>
  </g>
  <g>
    <path class="cls-1" d="M138.51,68.564c-3.093,0-6.991-.187-10.431-.352-2.5-.12-4.652-.224-5.966-.229l-.718.01a3.442,3.442,0,0,1-1.365-.229,1.817,1.817,0,0,1-1.123-2.365,1.529,1.529,0,0,1,1.453-1.052,1.557,1.557,0,0,1,.883.275c1,.683,8.8.8,13.455.866,1.6.023,3.01.044,4.021.079l.275,0a4.164,4.164,0,0,0,3.906-2.09c.521-.84,1.117-1.618,1.747-2.442.157-.206.317-.415.479-.628-.18-.051-.362-.093-.542-.135-.858-.2-1.926-.449-1.938-1.726-.019-1.777,5.532-3.667,6.165-3.876a1.3,1.3,0,0,1,.409-.064c2.094,0,4.754,5.067,4.876,5.9a.568.568,0,0,1-.38.675,16.589,16.589,0,0,1-2.871.347,11.7,11.7,0,0,0-3.3.487c-.244.332-.509.67-.773,1.007a11.68,11.68,0,0,0-2.534,4.441C144.065,68.18,143.1,68.564,138.51,68.564Z"/>
    <path class="cls-2" d="M149.221,55.111c1.8,0,4.72,5.49,4.353,5.6-1.436.424-5.876.27-6.421,1-1.316,1.771-2.857,3.359-3.4,5.642-.128.536-2.289.709-5.239.709-5.339,0-13.262-.567-16.394-.58h-.029c-.229,0-.46.01-.69.01a2.936,2.936,0,0,1-1.172-.191,1.325,1.325,0,0,1-.845-1.74,1.033,1.033,0,0,1,.981-.717,1.061,1.061,0,0,1,.6.188c1.458,1,13.375.88,17.74,1.032q.148.005.293.005a4.669,4.669,0,0,0,4.331-2.326c.745-1.2,1.661-2.293,2.6-3.572-1.222-.587-2.768-.319-2.781-1.628s5.259-3.21,5.823-3.4a.8.8,0,0,1,.252-.039m0-1a1.8,1.8,0,0,0-.565.09c-1.964.648-6.529,2.371-6.509,4.356.016,1.543,1.252,1.948,2.121,2.159l-.014.019c-.638.835-1.241,1.623-1.776,2.484a3.665,3.665,0,0,1-3.481,1.854q-.127,0-.258,0c-1.017-.035-2.411-.056-4.025-.08-3.93-.058-12.107-.178-13.2-.787a2.035,2.035,0,0,0-3.077,1.035,2.313,2.313,0,0,0,1.4,2.988,3.889,3.889,0,0,0,1.562.27c.122,0,.245,0,.367-.005s.215,0,.323,0c1.329.005,3.481.108,5.973.228,3.443.165,7.346.352,10.45.352,5.012,0,5.967-.455,6.212-1.476a11.3,11.3,0,0,1,2.442-4.25c.241-.308.482-.616.717-.929a16.376,16.376,0,0,1,3-.373,16.691,16.691,0,0,0,2.976-.367,1.071,1.071,0,0,0,.734-1.225c-.138-.952-2.93-6.333-5.37-6.333Z"/>
  </g>
  <g>
    <path class="cls-1" d="M140.1,43.9a1.543,1.543,0,0,1-.806-.231,1.329,1.329,0,0,1-.7-.934,2.071,2.071,0,0,1,.708-1.584c1.378-1.548,1.427-3.494,1.478-5.555l0-.2c.02-.748-.243-.8-.355-.817h0c-.125,0-.23.144-.369.346-.073.106-.146.21-.224.3a6.139,6.139,0,0,0-.989,2.009c-.131.373-.263.745-.424,1.1-.128.285-.229.581-.331.876s-.21.609-.339.9l-.109.257c-.3.728-.683,1.632-1.676,1.844a8.6,8.6,0,0,1-1.766.17,13.053,13.053,0,0,1-1.333-.073,1.473,1.473,0,0,1-1.278-1.058,2,2,0,0,1-.372.474,2.1,2.1,0,0,1-1.447.555,1.906,1.906,0,0,1-1.649-.843,2.062,2.062,0,0,1-.315-1.216,17.3,17.3,0,0,0-.159-3.75,20.537,20.537,0,0,1-.194-3.517,2.523,2.523,0,0,1,.112-.556c.226-.784.655-1.012.977-1.069a1.057,1.057,0,0,1,.191-.017,1.256,1.256,0,0,1,1.105.759,5.6,5.6,0,0,1,.661,2.247c.007.2.014.379.715.4h0a.388.388,0,0,0,.158-.019,1.755,1.755,0,0,0,.014-.5L131.372,34a3.71,3.71,0,0,0-.187-1.033,1.444,1.444,0,0,1,.068-1.2,1.468,1.468,0,0,1,1.02-.663,1.821,1.821,0,0,1,.385-.042,1.509,1.509,0,0,1,1.477,1.2,5.405,5.405,0,0,1,.152,1.118c.008.129.016.258.028.386.009.1.013.2.016.3a1.559,1.559,0,0,0,.054.446h0a.837.837,0,0,0,.092.006l.261-.014c.772-.042.916-.124.961-.553.007-.137.01-.19.016-.242.012-.1.015-.208.019-.315.015-.457.051-1.527,1.185-1.527.053,0,.108,0,.167.008.878.079,1.024.739,1.076,1.223.349-.4.684-.776,1.05-1.126a2.8,2.8,0,0,1,1.893-.852A2.227,2.227,0,0,1,143.22,33.2a13.507,13.507,0,0,1-1.446,9.6,2.054,2.054,0,0,1-1.678,1.1Zm-9.133-6.418c-.381,0-.395.111-.413.28-.013.108-.029.219-.046.331-.11.754-.11,1.064.335,1.329a2.333,2.333,0,0,1,.578.465,12.278,12.278,0,0,1,.126-1.978c.039-.255-.009-.323-.011-.325a.433.433,0,0,0-.248-.079A2.747,2.747,0,0,0,130.964,37.481Zm3.449.171a.521.521,0,0,0-.057.239c-.015.3-.02.607-.02.912.123-.308.24-.619.34-.928.024-.077,0-.109,0-.12a.266.266,0,0,0-.185-.1l-.055-.006A.092.092,0,0,0,134.413,37.652Z"/>
    <path class="cls-2" d="M132.658,31.563a1.022,1.022,0,0,1,.995.836,8.1,8.1,0,0,1,.164,1.417c.048.514-.076,1.2.661,1.2.03,0,.061,0,.094,0,.664-.047,1.518.014,1.625-1.011.008-.079.007-.16.016-.239.066-.57-.1-1.4.706-1.4q.057,0,.122.006c.9.08.45,1.046.832,1.806.624-.69,1.118-1.306,1.684-1.847a2.292,2.292,0,0,1,1.547-.714c.78,0,1.439.572,1.623,1.66a13.067,13.067,0,0,1-1.381,9.26,1.576,1.576,0,0,1-1.25.861,1.051,1.051,0,0,1-.548-.159c-.828-.5-.422-1.147.123-1.758,1.548-1.738,1.554-3.93,1.609-6.072.013-.5-.072-1.194-.764-1.321a.731.731,0,0,0-.132-.013c-.471,0-.667.51-.937.828a12.346,12.346,0,0,0-1.489,3.233c-.259.579-.418,1.2-.672,1.784-.318.729-.594,1.635-1.431,1.812a8.041,8.041,0,0,1-1.662.16,12.465,12.465,0,0,1-1.281-.07c-.742-.077-.962-.8-.985-1.46a12.765,12.765,0,0,1,.11-2.379c.1-.631-.145-.91-.693-.976a3.192,3.192,0,0,0-.382-.027c-.444,0-.843.139-.91.723-.087.756-.368,1.613.531,2.147.676.4.915.914.279,1.525a1.589,1.589,0,0,1-1.1.415,1.408,1.408,0,0,1-1.222-.6,1.584,1.584,0,0,1-.246-.905c.251-2.45-.494-4.848-.351-7.288a2.178,2.178,0,0,1,.1-.466c.091-.317.256-.64.577-.7a.594.594,0,0,1,.1-.009.766.766,0,0,1,.656.477,5.143,5.143,0,0,1,.611,2.048c.03.79.7.865,1.2.878h.035c.8,0,.652-.723.642-1.241a4.211,4.211,0,0,0-.21-1.173.846.846,0,0,1,.718-1.219,1.311,1.311,0,0,1,.278-.031m1.582,8.792c.309-.774.658-1.535.912-2.326a.657.657,0,0,0-.573-.865.8.8,0,0,0-.143-.014c-.4,0-.56.351-.578.716-.039.783-.011,1.57-.011,2.355l.393.133m-1.582-9.792h0a2.319,2.319,0,0,0-.49.054,1.946,1.946,0,0,0-1.347.9,1.779,1.779,0,0,0-.222,1.061c-.1-.248-.207-.485-.318-.714a1.753,1.753,0,0,0-1.557-1.041,1.591,1.591,0,0,0-.278.025,1.756,1.756,0,0,0-1.364,1.405,3.039,3.039,0,0,0-.136.683,20.844,20.844,0,0,0,.2,3.6,16.959,16.959,0,0,1,.158,3.642,2.592,2.592,0,0,0,.386,1.525,2.406,2.406,0,0,0,2.078,1.084,2.611,2.611,0,0,0,1.744-.649,1.9,1.9,0,0,0,1.3.675,13.521,13.521,0,0,0,1.384.076,9.057,9.057,0,0,0,1.869-.182,3.045,3.045,0,0,0,2.034-2.14l.106-.25c.139-.319.249-.636.354-.943s.2-.576.314-.833c.172-.384.308-.77.439-1.143a5.771,5.771,0,0,1,.9-1.85c.024-.028.047-.057.07-.087l0,.121c-.049,1.965-.1,3.822-1.351,5.232a2.589,2.589,0,0,0-.829,1.992,1.81,1.81,0,0,0,.937,1.288,2.039,2.039,0,0,0,1.064.3,2.544,2.544,0,0,0,2.105-1.343c1.68-2.775,2.174-6.028,1.511-9.945a2.7,2.7,0,0,0-2.609-2.493,3.294,3.294,0,0,0-2.238.991c-.169.162-.331.328-.489.5a1.5,1.5,0,0,0-1.247-.73c-.074-.007-.145-.01-.211-.01-1.074,0-1.641.677-1.684,2.011,0,.094,0,.187-.015.272-.007.064-.011.128-.014.193l0,.057c0,.022-.005.041-.008.055a2.384,2.384,0,0,1-.365.042c0-.094-.008-.187-.016-.276-.011-.122-.019-.245-.027-.369a5.808,5.808,0,0,0-.17-1.224,2.008,2.008,0,0,0-1.958-1.567Zm-1.6,7.158Zm-.112,1.068a2.859,2.859,0,0,1,.053-.624c.009-.061.018-.122.026-.182h0c-.036.258-.063.526-.081.806Z"/>
  </g>
  <g>
    <path class="cls-1" d="M74.154,17.8c-.776,0-1.271-.536-1.471-1.593-.367-1.944-.774-3.88-1.182-5.817L71.01,8.038c-.316-1.529-.512-1.529-1.091-1.529a6.955,6.955,0,0,0-.882.075A6.4,6.4,0,0,0,67.9,6.89c-.288.1-.577.191-.87.262a2.1,2.1,0,0,1-.494.062A1.413,1.413,0,0,1,65.1,6.106a1.387,1.387,0,0,1,1.009-1.7,8.837,8.837,0,0,1,2.882-.594l.646.008c.588.008,1.177.017,1.766.017a25.66,25.66,0,0,0,4.959-.39,3.78,3.78,0,0,1,.723-.082,1.219,1.219,0,0,1,1.041.438A1.985,1.985,0,0,1,78.17,5.52c-.133.444-.3.88-.459,1.315a4.673,4.673,0,0,1,3.87-2.174l.134,0a2.973,2.973,0,0,1,2.692,2.13c1.635,3.952.263,8.2-3.124,9.676a6.783,6.783,0,0,1-2.666.634h0a3.716,3.716,0,0,1-3.029-1.475A1.743,1.743,0,0,1,75.655,17a1.409,1.409,0,0,1-.918.7A2.01,2.01,0,0,1,74.154,17.8ZM77.6,7.139a11.532,11.532,0,0,0-.479,1.516,10.618,10.618,0,0,0-.128,3.357c.119,1.3.488,1.933,1.315,2.258a1.964,1.964,0,0,0,.73.144,3.588,3.588,0,0,0,2.073-.948c1.09-.866,1.652-3.747,1-5.137A1.182,1.182,0,0,0,81.066,7.6a1.084,1.084,0,0,0-.725.292,1.6,1.6,0,0,0-.27.424,3.443,3.443,0,0,1-.293.5,1.244,1.244,0,0,1-1.01.521,1.378,1.378,0,0,1-.368-.052,1.3,1.3,0,0,1-.9-1.431A2.813,2.813,0,0,1,77.6,7.139ZM74.67,6.363c-.6,0-.831.241-.839.776a19.288,19.288,0,0,0,.448,4.911c0-.235.027-.437.042-.57A9.437,9.437,0,0,1,74.58,7.9c.049-.218.1-.432.138-.648.02-.1.051-.214.084-.333a1.669,1.669,0,0,0,.1-.524h0a1.078,1.078,0,0,0-.214-.035Z"/>
    <path class="cls-2" d="M77.082,3.869c.772,0,.918.473.609,1.508-.319,1.067-.819,2.088-1.062,3.169a11.285,11.285,0,0,0-.137,3.512c.113,1.233.45,2.214,1.63,2.678a2.476,2.476,0,0,0,.913.178,3.973,3.973,0,0,0,2.384-1.056c1.313-1.044,1.871-4.187,1.145-5.74a1.674,1.674,0,0,0-1.5-1.021,1.58,1.58,0,0,0-1.056.418,6.327,6.327,0,0,0-.631.994.75.75,0,0,1-.61.321.865.865,0,0,1-.233-.033c-.486-.135-.544-.531-.536-.94a2.129,2.129,0,0,1,.118-.7,4.1,4.1,0,0,1,3.464-1.995l.114,0a2.446,2.446,0,0,1,2.25,1.821c1.508,3.647.34,7.633-2.862,9.026a6.277,6.277,0,0,1-2.467.593c-1.816,0-3.127-1.21-3.766-3.809a4.332,4.332,0,0,1-.021-1.4,10.5,10.5,0,0,1,.379-4.048c.1-.518.577-1.416-.494-1.486-.044,0-.088,0-.132,0a1.158,1.158,0,0,0-1.252,1.273,17.738,17.738,0,0,0,.786,6.131c.259.748.592,1.471.877,2.21.26.674.615,1.441-.4,1.753a1.5,1.5,0,0,1-.436.073c-.578,0-.845-.472-.979-1.186-.516-2.734-1.112-5.452-1.674-8.177-.3-1.471-.554-1.928-1.581-1.928a7.421,7.421,0,0,0-.948.08,20.9,20.9,0,0,0-2.062.578,1.611,1.611,0,0,1-.377.048.918.918,0,0,1-.951-.734.894.894,0,0,1,.686-1.1,8.385,8.385,0,0,1,2.72-.567h.065c.782.01,1.564.024,2.346.024a25.978,25.978,0,0,0,5.058-.4,3.3,3.3,0,0,1,.626-.072m0-1a4.25,4.25,0,0,0-.819.091A25.216,25.216,0,0,1,71.4,3.34c-.583,0-1.167-.008-1.751-.016l-.583-.008h-.078a9.265,9.265,0,0,0-3.04.62,1.888,1.888,0,0,0-1.334,2.3,1.914,1.914,0,0,0,1.919,1.481,2.613,2.613,0,0,0,.612-.076c.32-.077.62-.177.91-.274A6.032,6.032,0,0,1,69.1,7.08a6.492,6.492,0,0,1,.816-.071.808.808,0,0,1,.283.03,3.668,3.668,0,0,1,.318,1.1q.248,1.2.5,2.4c.4,1.888.807,3.841,1.17,5.764.328,1.74,1.37,2,1.962,2a2.5,2.5,0,0,0,.729-.117,1.889,1.889,0,0,0,1.222-.962,1.672,1.672,0,0,0,.114-.311,4.257,4.257,0,0,0,2.4.694,7.274,7.274,0,0,0,2.866-.676c3.639-1.583,5.126-6.119,3.387-10.325a3.5,3.5,0,0,0-3.135-2.438c-.051,0-.1,0-.154,0a5.405,5.405,0,0,0-2.778.854,1.929,1.929,0,0,0-.279-1.507,1.689,1.689,0,0,0-1.442-.639Zm1.687,6.961a1.757,1.757,0,0,0,1.41-.721,3.8,3.8,0,0,0,.338-.568,2,2,0,0,1,.163-.284.581.581,0,0,1,.387-.161.692.692,0,0,1,.592.445c.552,1.181.053,3.808-.861,4.534a3.167,3.167,0,0,1-1.762.839,1.475,1.475,0,0,1-.548-.109c-.547-.215-.886-.585-1-1.838A11.32,11.32,0,0,1,77.5,9.322a1.728,1.728,0,0,0,.764.437,1.868,1.868,0,0,0,.5.07Z"/>
  </g>
  <g>
    <path class="cls-1" d="M9.612,62.882a1.341,1.341,0,0,1-1.2-.865c-.037-.067-.074-.136-.116-.2a2.585,2.585,0,0,1-.353-1.683c.055-.717.1-1.416.093-2.1-.04-2.866-.132-2.977-.842-2.977a15.32,15.32,0,0,0-2.167.3,10.316,10.316,0,0,1-1.794.171h0a7.134,7.134,0,0,1-1.239-.1,1.855,1.855,0,0,1-1.278-.749A1.436,1.436,0,0,1,.557,53.5,1.327,1.327,0,0,1,1.992,52.45c.119,0,.246.007.382.019q.359.029.712.029a17.779,17.779,0,0,0,4.558-.8q.5-.135,1.011-.265a40.732,40.732,0,0,1,6.7-1.063c.084-.006.17-.01.259-.01a9.677,9.677,0,0,1,1.618.2c.326.059.653.117.968.154,2.217.261,3.674,2.12,3.627,4.625a6.521,6.521,0,0,1-5.09,5.843,3.889,3.889,0,0,1-4.433-3.169,9.331,9.331,0,0,1,.2-4.016l-.346,0c-1.362,0-1.362,0-1.371,1.852a14.825,14.825,0,0,0,.326,3.219,8.657,8.657,0,0,1,.194,2.262,1.623,1.623,0,0,1-1.53,1.55A1.5,1.5,0,0,1,9.612,62.882ZM17.6,53.716a2.468,2.468,0,0,0-.594.083,3.8,3.8,0,0,0-2.086,2.907c.035,1,.568,1.644,1.359,1.644a1.866,1.866,0,0,0,.8-.2,3.712,3.712,0,0,0,1.929-2.138,1.815,1.815,0,0,0-.5-1.912A1.183,1.183,0,0,0,17.6,53.716Z"/>
    <path class="cls-2" d="M15.616,50.857c.744,0,1.685.251,2.529.351,1.963.232,3.227,1.894,3.186,4.118a6.02,6.02,0,0,1-4.668,5.358,3.333,3.333,0,0,1-.519.041,3.414,3.414,0,0,1-3.343-2.8,9.311,9.311,0,0,1,.362-4.414c-.381-.009-.711-.016-1-.016-1.837,0-1.861.3-1.871,2.349a15.439,15.439,0,0,0,.336,3.326,8.21,8.21,0,0,1,.184,2.13,1.118,1.118,0,0,1-1.087,1.08,1.034,1.034,0,0,1-.115.007c-.534,0-.661-.468-.9-.837a2.092,2.092,0,0,1-.273-1.373c.054-.713.1-1.429.094-2.142C8.5,55.339,8.48,54.56,7.191,54.56a15.208,15.208,0,0,0-2.253.3,9.878,9.878,0,0,1-1.707.163,6.6,6.6,0,0,1-1.152-.1c-.617-.109-1.248-.476-1.036-1.307a.826.826,0,0,1,.95-.673c.106,0,.219.006.34.017.253.021.5.031.754.031a23.292,23.292,0,0,0,5.691-1.083,40.16,40.16,0,0,1,6.62-1.049c.071-.006.144-.008.219-.008m.665,7.993a2.361,2.361,0,0,0,1.013-.247,4.2,4.2,0,0,0,2.187-2.425,2.3,2.3,0,0,0-.609-2.422,1.681,1.681,0,0,0-1.272-.54,2.983,2.983,0,0,0-.714.1,4.224,4.224,0,0,0-2.465,3.41A1.955,1.955,0,0,0,16.28,58.85m-.664-8.993h0q-.153,0-.3.011a41.255,41.255,0,0,0-6.788,1.077c-.341.087-.681.177-1.018.267A17.37,17.37,0,0,1,3.086,52c-.222,0-.445-.009-.67-.028-.15-.013-.291-.02-.423-.02A1.794,1.794,0,0,0,.073,53.375a1.928,1.928,0,0,0,.219,1.57,2.347,2.347,0,0,0,1.611.97,7.638,7.638,0,0,0,1.327.112,10.806,10.806,0,0,0,1.88-.179,15.181,15.181,0,0,1,2.08-.289,1.3,1.3,0,0,1,.184.011,12.328,12.328,0,0,1,.158,2.474c.009.664-.038,1.35-.091,2.053a3.084,3.084,0,0,0,.431,1.991c.036.056.068.114.1.172a1.83,1.83,0,0,0,1.64,1.122,2.027,2.027,0,0,0,.226-.013,2.1,2.1,0,0,0,1.974-2.02,9.144,9.144,0,0,0-.205-2.393,14.362,14.362,0,0,1-.314-3.112,9.733,9.733,0,0,1,.056-1.307,3.388,3.388,0,0,1,.535-.043,9.488,9.488,0,0,0-.068,3.6,4.39,4.39,0,0,0,5,3.574,6.962,6.962,0,0,0,5.512-6.328c.051-2.775-1.584-4.836-4.068-5.129-.3-.036-.621-.093-.937-.15a10.043,10.043,0,0,0-1.709-.208Zm.664,7.993c-.6,0-.84-.6-.86-1.162a3.415,3.415,0,0,1,1.706-2.4,1.99,1.99,0,0,1,.473-.068h0a.682.682,0,0,1,.55.232,1.311,1.311,0,0,1,.387,1.4A3.214,3.214,0,0,1,16.864,57.7a1.372,1.372,0,0,1-.583.149Z"/>
  </g>
  <g>
    <path class="cls-1" d="M8.127,19.005c-.879,0-1.521-.7-1.718-1.872l-.037-.224C5.11,9.35,4.362,6.408,3.957,5.271a1.317,1.317,0,0,1,.1-1.076,1.521,1.521,0,0,1,1.014-.75,1.057,1.057,0,0,1,.238-.028c.705,0,.953.7,1.073,1.036a28.453,28.453,0,0,1,.888,3.927c.038.212.079.435.12.657a14.069,14.069,0,0,0-.1-3.047c-.021-.132-.048-.263-.075-.395a4.745,4.745,0,0,1-.12-.831,1.719,1.719,0,0,1,1.671-2l.1,0c.62,0,1.4.283,1.6,1.631.26,1.729,1.794,4.493,3.009,6.468-.466-2.018-.906-3.911-.951-4.071a1.929,1.929,0,0,1,1.088-2.365,1.461,1.461,0,0,1,.56-.122c.973,0,1.187,1.1,1.277,1.563.364,1.871.66,3.742.945,5.552l.264,1.655c.183,1.14.365,2.28.5,3.426a1.562,1.562,0,0,1-1.023,1.9,1.962,1.962,0,0,1-.609.1,1.794,1.794,0,0,1-1.557-1.03c-1.037-1.757-2.8-4.716-3.825-6.432-.134,1.72-.325,4.409-.319,5.637C9.844,18.5,8.979,18.944,8.253,19Z"/>
    <path class="cls-2" d="M8.87,3.263c.7,0,1,.48,1.109,1.2.46,3.067,4.626,9.044,4.626,9.044S13.1,6.954,13.011,6.65a1.421,1.421,0,0,1,.8-1.763.96.96,0,0,1,.367-.083c.577,0,.708.755.794,1.2.453,2.329.8,4.678,1.178,7.021.189,1.178.38,2.356.524,3.539.07.573-.018,1.149-.683,1.366a1.461,1.461,0,0,1-.454.079,1.32,1.32,0,0,1-1.125-.784c-1.527-2.587-4.628-7.777-4.628-7.777s-.456,5.322-.447,7.238c0,.858-.178,1.747-1.121,1.82q-.045,0-.088,0c-.7,0-1.095-.677-1.225-1.455C6.692,15.8,5.376,7.763,4.427,5.1a.946.946,0,0,1,.76-1.171.558.558,0,0,1,.125-.015c.377,0,.51.446.624.763.654,1.807,1.141,6.4,1.55,6.64a13.118,13.118,0,0,0,.3-5.406A9.749,9.749,0,0,1,7.6,4.749c-.022-.813.31-1.443,1.194-1.485l.077,0m-1.1,9.492h.006l0,0c-.016.029-.007.045,0,.045s.023-.017.011-.052l-.012,0c0-.007,0-.009,0-.009s-.017.009,0,.009M8.87,2.263h0l-.124,0A2.113,2.113,0,0,0,6.7,3.887a1.514,1.514,0,0,0-1.384-.97,1.563,1.563,0,0,0-.35.041,2.044,2.044,0,0,0-1.341,1,1.821,1.821,0,0,0-.136,1.483C3.813,6.356,4.559,9.078,5.88,17l.036.213C6.152,18.628,7,19.505,8.127,19.505q.081,0,.165-.006c.618-.048,2.055-.418,2.044-2.821,0-.88.1-2.528.2-4.02.99,1.66,2.216,3.721,3.014,5.071A2.261,2.261,0,0,0,15.536,19a2.467,2.467,0,0,0,.765-.128,2.046,2.046,0,0,0,1.365-2.438c-.143-1.172-.332-2.348-.515-3.486l-.015-.09L16.9,11.386c-.289-1.829-.588-3.721-.949-5.577-.1-.521-.388-2.005-1.776-2.005a1.957,1.957,0,0,0-.751.16A2.422,2.422,0,0,0,12.05,6.929c.017.062.074.3.159.66a12.276,12.276,0,0,1-1.241-3.271,2.079,2.079,0,0,0-2.1-2.056Z"/>
  </g>
  <g>
    <path class="cls-1" d="M38.82,62.137a1.346,1.346,0,0,1-.735-.224,4.535,4.535,0,0,1-1.374-1.6,5.853,5.853,0,0,0-3.923-2.924,7.011,7.011,0,0,0,.518,2.565,1.43,1.43,0,0,1-1.287,1.991,1.411,1.411,0,0,1-1.264-.9l-.151-.364a5.626,5.626,0,0,1-.627-2.827c.118-1.181.121-1.949-.839-2.66a1.832,1.832,0,0,1-.616-1.735,3.477,3.477,0,0,1,1.709-2.695A22.481,22.481,0,0,1,35.781,49a3.5,3.5,0,0,1,.618-.058,2.421,2.421,0,0,1,2.344,1.781c.81,2.082.337,3.864-1.585,5.906A4.971,4.971,0,0,0,38.326,57.7c.258.19.515.382.753.593a4.806,4.806,0,0,1,1.313,1.656,1.52,1.52,0,0,1-.61,1.809A1.487,1.487,0,0,1,38.82,62.137ZM32.706,53.12c.176.447.527.521,1.2.622a4.664,4.664,0,0,1,1,.229l.121-.016a2.724,2.724,0,0,0,.513-.1c.425-.147.834-.42.645-1.313-.06-.282-.143-.37-.542-.37-.12,0-.243.009-.364.018A4.828,4.828,0,0,0,32.706,53.12Z"/>
    <path class="cls-2" d="M36.4,49.444a1.936,1.936,0,0,1,1.878,1.462c.755,1.942.3,3.6-1.742,5.65.472.975,1.449,1.433,2.212,2.11a4.316,4.316,0,0,1,1.185,1.481c.239.554-.118.924-.476,1.229a.993.993,0,0,1-.636.261.854.854,0,0,1-.466-.145,4.05,4.05,0,0,1-1.215-1.436c-1.129-1.868-2.2-2.587-4.877-3.343a8.757,8.757,0,0,0,.588,3.449.931.931,0,0,1-.831,1.286.908.908,0,0,1-.8-.592,6.134,6.134,0,0,1-.745-2.953c.117-1.166.166-2.22-1.037-3.112-.94-.7-.214-3,1.007-3.576a21.931,21.931,0,0,1,5.427-1.72,2.991,2.991,0,0,1,.53-.051m-1.564,5.042a5.341,5.341,0,0,0,.862-.161,1.449,1.449,0,0,0,.97-1.889.9.9,0,0,0-1.03-.766c-.156,0-.317.013-.472.023-1.384.092-3.127.953-2.974,1.465.389,1.3,1.7.886,2.645,1.329M36.4,48.444h0a4.005,4.005,0,0,0-.707.066,22.985,22.985,0,0,0-5.674,1.8,3.954,3.954,0,0,0-1.994,3.1,2.336,2.336,0,0,0,.817,2.188c.728.539.753,1.06.637,2.208a6.116,6.116,0,0,0,.664,3.07l.149.36a1.909,1.909,0,0,0,1.727,1.216,1.93,1.93,0,0,0,1.742-2.7,5.311,5.311,0,0,1-.413-1.641,5.039,5.039,0,0,1,2.935,2.464,4.983,4.983,0,0,0,1.531,1.761,1.864,1.864,0,0,0,1.006.3,1.975,1.975,0,0,0,1.284-.5,1.944,1.944,0,0,0,.746-2.387,5.306,5.306,0,0,0-1.44-1.833c-.26-.231-.528-.429-.787-.621a7.1,7.1,0,0,1-.8-.653c1.8-2.051,2.221-3.958,1.388-6.1a2.9,2.9,0,0,0-2.81-2.1Zm-2.865,4.725a4.956,4.956,0,0,1,1.7-.478l.075-.005c.11-.008.222-.016.331-.016h.058c.111.557-.073.622-.326.71a2.382,2.382,0,0,1-.414.078,5.551,5.551,0,0,0-.977-.212c-.191-.029-.334-.054-.442-.078Z"/>
  </g>
  <g>
    <path class="cls-1" d="M92.088,41.46a1.309,1.309,0,0,1-1.22-.984c-.063-.158-.134-.315-.2-.473a4.371,4.371,0,0,1-.533-2.269,1.118,1.118,0,0,0-.112-.8.715.715,0,0,0-.531-.148,3.349,3.349,0,0,0-.525.049c-.309.049-.614.113-.959.184l-.107.022a2.567,2.567,0,0,0,.711,1.793,1.151,1.151,0,0,1,.41.914,1.45,1.45,0,0,1-.645,1.074,1.876,1.876,0,0,1-1.1.448h0A1.33,1.33,0,0,1,86.484,41a2.774,2.774,0,0,1-1.312-2.705c.126-.976-.124-1.381-.956-1.551-.887-.181-1.394-.747-1.323-1.478a1.427,1.427,0,0,1,1.462-1.321h0c.194,0,.267-.037.279-.051s.063-.137.02-.539c-.053-.493-.135-.982-.217-1.472-.062-.366-.122-.732-.172-1.1a1.415,1.415,0,0,1,.268-1.134,1.234,1.234,0,0,1,.945-.417h0a1.407,1.407,0,0,1,1.548,1.21c.1.791.214,1.834.246,2.9.021.708.243.737.742.737,0,0,.523-.014.633-.014.082,0,.162,0,.241.007q.145.01.284.01a1.088,1.088,0,0,0,.771-.2.91.91,0,0,0,.164-.659l-.006-.242a4.646,4.646,0,0,0-.246-1.69,1.761,1.761,0,0,1,1.04-2.387,1.191,1.191,0,0,1,.433-.082c.846,0,1.565.9,1.64,2.049A5.592,5.592,0,0,1,92.9,32l-.021.162a1,1,0,0,0,.092.744.913.913,0,0,0,.633.171h0c.935,0,1.5.454,1.561,1.213a1.388,1.388,0,0,1-.785,1.268l-.111.076c-1.643,1.152-1.663,1.209-1.112,3.066a3.078,3.078,0,0,0,.131.339,3.291,3.291,0,0,1,.207.588A1.4,1.4,0,0,1,92.6,41.36,1.455,1.455,0,0,1,92.088,41.46Z"/>
    <path class="cls-2" d="M91.332,29.327c.561,0,1.084.694,1.14,1.581a6.242,6.242,0,0,1-.094,1.189c-.124.949.188,1.481,1.223,1.481h.045c.47,0,.968.146,1.016.752.037.466-.363.669-.686.895-1.81,1.27-1.917,1.555-1.3,3.618.09.3.262.586.329.892a.909.909,0,0,1-.576,1.157.956.956,0,0,1-.337.068c-.372,0-.6-.289-.756-.671a5.238,5.238,0,0,1-.7-2.5c.124-1.142-.359-1.5-1.141-1.5a3.847,3.847,0,0,0-.605.055c-.471.076-.936.182-1.538.3a3.611,3.611,0,0,0,.93,2.565c.417.371.264.869-.2,1.213a1.411,1.411,0,0,1-.8.35.837.837,0,0,1-.5-.177,2.3,2.3,0,0,1-1.109-2.237c.142-1.1-.138-1.857-1.353-2.1-.454-.092-.98-.366-.925-.939a.935.935,0,0,1,.963-.87h.014c.847,0,.843-.584.782-1.143-.093-.866-.274-1.722-.391-2.586-.074-.547.134-.965.735-.984h.053a.885.885,0,0,1,.985.773c.118.947.214,1.9.242,2.854.033,1.089.6,1.223,1.242,1.223.209,0,.426-.014.635-.014.07,0,.14,0,.208.006.108.007.214.011.317.011.825,0,1.466-.257,1.435-1.371a5.754,5.754,0,0,0-.288-2.106,1.261,1.261,0,0,1,.757-1.732.692.692,0,0,1,.252-.048m0-1h0a1.691,1.691,0,0,0-.614.116,2.259,2.259,0,0,0-1.323,3.04A4.218,4.218,0,0,1,89.605,33l.006.245a.79.79,0,0,1-.032.3h0a1.815,1.815,0,0,1-.4.038c-.083,0-.167,0-.254-.009s-.179-.008-.271-.008c-.115,0-.233,0-.35.008-.1,0-.191.007-.284.007a1.785,1.785,0,0,1-.216-.01,1.3,1.3,0,0,1-.026-.242c-.026-.855-.1-1.764-.249-2.948a1.882,1.882,0,0,0-1.978-1.65h-.086a1.722,1.722,0,0,0-1.312.6,1.875,1.875,0,0,0-.381,1.523c.051.374.113.747.175,1.119.083.5.162.967.213,1.439l0,.046a1.9,1.9,0,0,0-.045,3.779c.477.1.667.169.56,1a3.256,3.256,0,0,0,1.515,3.175,1.825,1.825,0,0,0,1.084.366,2.358,2.358,0,0,0,1.4-.547,1.934,1.934,0,0,0,.845-1.453,1.639,1.639,0,0,0-.577-1.309,1.589,1.589,0,0,1-.48-1.024c.2-.04.39-.076.582-.107a2.884,2.884,0,0,1,.446-.042,1.034,1.034,0,0,1,.15.009,1.485,1.485,0,0,1,0,.382,4.771,4.771,0,0,0,.573,2.526c.067.152.135.3.2.457a1.789,1.789,0,0,0,1.683,1.3,1.955,1.955,0,0,0,.691-.133,1.909,1.909,0,0,0,1.2-2.306,3.659,3.659,0,0,0-.236-.681,2.632,2.632,0,0,1-.111-.283c-.459-1.547-.459-1.547.921-2.514l.1-.07a1.863,1.863,0,0,0,1.005-1.723,1.81,1.81,0,0,0-2.013-1.673h0a1.518,1.518,0,0,1-.287-.021,1.416,1.416,0,0,1,.013-.33l.022-.166a6.042,6.042,0,0,0,.079-1.217,2.454,2.454,0,0,0-2.138-2.517Z"/>
  </g>
  <g>
    <path class="cls-1" d="M28.844,44.31a1.124,1.124,0,0,1-.523-.134,1.109,1.109,0,0,1-.649-1.429c.254-.5.14-.66-.34-1.2-.088-.1-.179-.2-.27-.311a4.44,4.44,0,0,1-.755-2.017c-.058-.286-.114-.571-.193-.84a18.942,18.942,0,0,1-.8-5.308,2.768,2.768,0,0,1,.6-1.978A1.869,1.869,0,0,1,27.3,30.59a3.3,3.3,0,0,1,.33.017c.041,0,.081.006.121.006a2.543,2.543,0,0,0,1.265-.5,6.551,6.551,0,0,1,.778-.422l.117-.051a5.106,5.106,0,0,1,2.107-.559,3.578,3.578,0,0,1,.415.024l.118-.007a6.4,6.4,0,0,1,4.121,1.874c1.336,1.181,1.356,3.351.051,5.277a39.106,39.106,0,0,1-5.062,5.708c-.638.631-1.275,1.262-1.9,1.908a1.271,1.271,0,0,1-.92.446Zm-.6-9.421c.129.489.216.99.308,1.519a9.15,9.15,0,0,0,1.017,3.3c.215.356.407.552.539.552.07,0,.236-.04.563-.312a20.57,20.57,0,0,0,4.344-5.4c.278-.464.226-.848-.194-1.417a3.609,3.609,0,0,0-2.54-1.342,2.345,2.345,0,0,0-.362-.027,4.161,4.161,0,0,0-2.76,1.277A2.819,2.819,0,0,0,28.244,34.889Z"/>
    <path class="cls-2" d="M32.019,29.581a3.071,3.071,0,0,1,.357.021c.059,0,.118,0,.176,0a5.831,5.831,0,0,1,3.79,1.748c1.132,1,1.138,2.9-.032,4.621-1.929,2.845-4.539,5.091-6.9,7.55a.806.806,0,0,1-.56.293.624.624,0,0,1-.292-.077c-.313-.164-.574-.489-.436-.759.5-.973-.105-1.371-.668-2.053a7.686,7.686,0,0,1-.855-2.68,18.421,18.421,0,0,1-.775-5.167c0-1.017.22-1.985,1.481-1.985q.132,0,.28.015c.058.006.115.009.171.009.859,0,1.5-.643,2.24-.964a4.98,4.98,0,0,1,2.027-.569M30.108,40.758a1.474,1.474,0,0,0,.882-.427A20.975,20.975,0,0,0,35.442,34.8a1.62,1.62,0,0,0-.22-1.971,4.16,4.16,0,0,0-2.867-1.539,2.861,2.861,0,0,0-.438-.033c-1.947,0-4.2,1.849-4.174,3.693.418,1.532.409,3.38,1.4,5.011.325.536.624.793.968.793m1.911-12.177h0a5.592,5.592,0,0,0-2.307.6l-.116.05a6.855,6.855,0,0,0-.838.452,2.244,2.244,0,0,1-1.006.429c-.024,0-.048,0-.073,0-.133-.013-.26-.019-.379-.019a2.349,2.349,0,0,0-1.732.654,3.215,3.215,0,0,0-.749,2.332,19.47,19.47,0,0,0,.815,5.447c.071.24.125.511.183.8a4.891,4.891,0,0,0,.861,2.238c.094.114.189.221.281.324a2.346,2.346,0,0,1,.343.438h0a.73.73,0,0,1-.076.2,1.592,1.592,0,0,0,.864,2.1,1.616,1.616,0,0,0,.755.191,1.754,1.754,0,0,0,1.281-.6c.615-.639,1.262-1.279,1.888-1.9a39.52,39.52,0,0,0,5.124-5.784c1.452-2.141,1.4-4.58-.134-5.932a6.854,6.854,0,0,0-4.452-2l-.141,0c-.134-.013-.265-.019-.392-.019Zm-3.272,6.255a2.431,2.431,0,0,1,.767-1.446,3.641,3.641,0,0,1,2.4-1.128,1.868,1.868,0,0,1,.285.021,3.15,3.15,0,0,1,2.215,1.144c.378.513.285.668.167.863a20.105,20.105,0,0,1-4.234,5.272,2.115,2.115,0,0,1-.182.138A2.337,2.337,0,0,1,30,39.447a8.778,8.778,0,0,1-.952-3.124c-.085-.492-.173-1-.3-1.488Z"/>
  </g>
  <g>
    <path class="cls-1" d="M7.513,42.449A2.918,2.918,0,0,1,4.65,40.01c-.423-1.91-.708-4.675,1.693-6.63a10.192,10.192,0,0,0,.979-.958,6.054,6.054,0,0,1,2.45-1.831,4.26,4.26,0,0,1,1.286-.3c.722,0,1,.483,1.386,1.153.1.176.219.379.363.612a4.751,4.751,0,0,1,.574,2.792,4.189,4.189,0,0,0,.226,1.8,7.541,7.541,0,0,1,.4,1.3,4.39,4.39,0,0,0,.659,1.693,1.435,1.435,0,0,1,.354,1.173,1.158,1.158,0,0,1-.614.78,1.378,1.378,0,0,1-.684.185,1.9,1.9,0,0,1-1.184-.5,3.57,3.57,0,0,1-.933-1.352c-.089-.187-.175-.369-.274-.543a5.439,5.439,0,0,1-1.379,2.088A3.8,3.8,0,0,1,7.513,42.449Zm2.393-8.8A4.487,4.487,0,0,0,8.6,34.694a8.208,8.208,0,0,1-.644.618c-1.021.847-.908,1.982-.777,3.3a.837.837,0,0,0,.67.764.677.677,0,0,0,.188.03c.082,0,.3,0,.542-.507A10.618,10.618,0,0,0,9.906,33.647Z"/>
    <path class="cls-2" d="M11.059,30.787c.557,0,.666.469,1.324,1.528.961,1.548.123,3.075.767,4.533.435.984.414,2.171,1.118,3.1.321.421.443.9-.108,1.215a.88.88,0,0,1-.439.121,1.442,1.442,0,0,1-.87-.385c-.753-.607-.807-1.675-1.638-2.484A7.088,7.088,0,0,1,9.627,41.1a3.286,3.286,0,0,1-2.114.851A2.4,2.4,0,0,1,5.139,39.9c-.488-2.2-.5-4.492,1.52-6.134,1.1-.893,1.818-2.206,3.277-2.7a3.936,3.936,0,0,1,1.124-.276M8.033,39.9a1.148,1.148,0,0,0,.993-.792,10.533,10.533,0,0,0,1.32-6.15c-1.414.368-1.943,1.329-2.712,1.968-1.228,1.019-1.09,2.386-.955,3.738a1.331,1.331,0,0,0,1.029,1.188,1.178,1.178,0,0,0,.326.049m3.026-10.114a4.62,4.62,0,0,0-1.447.33A6.537,6.537,0,0,0,6.958,32.08a9.858,9.858,0,0,1-.93.912c-2.615,2.129-2.317,5.086-1.865,7.126a3.4,3.4,0,0,0,3.351,2.831,4.3,4.3,0,0,0,2.765-1.092,4.753,4.753,0,0,0,1.06-1.336,3.424,3.424,0,0,0,.887,1.151,2.369,2.369,0,0,0,1.5.607,1.874,1.874,0,0,0,.93-.25,1.646,1.646,0,0,0,.858-1.115,1.917,1.917,0,0,0-.446-1.577,3.979,3.979,0,0,1-.57-1.506,7.952,7.952,0,0,0-.429-1.387,3.781,3.781,0,0,1-.183-1.592,5.228,5.228,0,0,0-.649-3.064c-.141-.228-.256-.427-.355-.6-.4-.69-.809-1.4-1.819-1.4ZM7.994,38.894l-.01,0c-.264-.076-.3-.2-.31-.326-.14-1.4-.181-2.223.6-2.869a8.528,8.528,0,0,0,.684-.655c.148-.153.29-.3.438-.436a11.4,11.4,0,0,1-1.271,4.073,1.012,1.012,0,0,1-.129.215Z"/>
  </g>
  <g>
    <path class="cls-1" d="M127.6,20.329a1.936,1.936,0,0,1-1.75-2,19.8,19.8,0,0,0-2.43-9.5,2.012,2.012,0,0,1-.211-1.631,1.531,1.531,0,0,1,.931-.869,1.513,1.513,0,0,1,.549-.113,1.492,1.492,0,0,1,1.211.824,2.945,2.945,0,0,0,.23.306,4.258,4.258,0,0,1,.9,2.223c.055.289.11.584.191.877a4.353,4.353,0,0,0,.914-1.317,5.006,5.006,0,0,1,.928-1.366,1.533,1.533,0,0,0,.235-.38,2.575,2.575,0,0,1,.372-.584,1.449,1.449,0,0,1,1.092-.52,1.9,1.9,0,0,1,1.057.372,1.459,1.459,0,0,1,.672.958,1.568,1.568,0,0,1-.332,1.193,6.55,6.55,0,0,1-1.116,1.12l-.14.12a8.929,8.929,0,0,0-1.814,2.478c-.135.236-.271.473-.41.706a.825.825,0,0,0-.153.614,1.094,1.094,0,0,0,.672.507,5.428,5.428,0,0,0,2.03.342,18.059,18.059,0,0,0,1.868-.131c.276-.028.553-.057.829-.081a3.091,3.091,0,0,0,.485-.1,3.536,3.536,0,0,1,.868-.15,1.163,1.163,0,0,1,1.2,1.077,1.245,1.245,0,0,1-.178.969,2.136,2.136,0,0,1-1.477.675c-.156.027-.307.052-.437.088a6.443,6.443,0,0,1-1.8.225c-.494,0-.989-.037-1.484-.075-.471-.036-.942-.072-1.412-.072l-.173,0a1.788,1.788,0,0,0-.63.081c.024.024.061.155.212.4a1.061,1.061,0,0,1,.175.861c-.035.109-.065.228-.1.347-.146.574-.39,1.535-1.472,1.535Z"/>
    <path class="cls-2" d="M124.686,6.715c.523,0,.719.575,1.069.964.862.959.636,2.247,1.2,3.542,1.442-.746,1.534-2.232,2.442-3.1.275-.263.374-.7.633-.99a.956.956,0,0,1,.721-.356,1.414,1.414,0,0,1,.776.285.918.918,0,0,1,.217,1.444,7.119,7.119,0,0,1-1.178,1.154,12.467,12.467,0,0,0-2.327,3.305c-.558.93-.1,1.506.766,1.844a5.976,5.976,0,0,0,2.212.376c.909,0,1.824-.135,2.739-.213.39-.033.9-.253,1.312-.253.339,0,.615.148.709.667.188,1.04-1.046.967-1.734,1.162a6.052,6.052,0,0,1-1.667.206c-.962,0-1.932-.147-2.9-.147l-.185,0c-.893.019-1.479.2-.832,1.242a.639.639,0,0,1,.125.441c-.207.631-.237,1.539-1.093,1.539l-.074,0a1.435,1.435,0,0,1-1.279-1.494A20.481,20.481,0,0,0,123.864,8.6c-.333-.661-.465-1.446.458-1.809a1,1,0,0,1,.365-.078m0-1h0a2,2,0,0,0-.732.148,2.019,2.019,0,0,0-1.215,1.156,2.481,2.481,0,0,0,.232,2.033,19.306,19.306,0,0,1,2.376,9.263,2.44,2.44,0,0,0,2.221,2.511q.068,0,.132,0c1.471,0,1.811-1.339,1.956-1.911.028-.109.054-.216.087-.315a1.393,1.393,0,0,0-.076-1h.018c.444,0,.9.034,1.374.071.493.037,1,.076,1.522.076a6.951,6.951,0,0,0,1.939-.244c.114-.032.248-.053.386-.077a2.552,2.552,0,0,0,1.8-.881,1.735,1.735,0,0,0,.259-1.344,1.659,1.659,0,0,0-1.693-1.489,3.908,3.908,0,0,0-1,.167,3.214,3.214,0,0,1-.4.09c-.28.024-.559.053-.839.082a17.739,17.739,0,0,1-1.815.128,4.956,4.956,0,0,1-1.848-.307,1.255,1.255,0,0,1-.366-.2.87.87,0,0,1,.094-.2c.141-.236.278-.475.415-.714a8.579,8.579,0,0,1,1.706-2.348l.138-.118a7.085,7.085,0,0,0,1.2-1.209,2.037,2.037,0,0,0,.419-1.573,1.95,1.95,0,0,0-.884-1.284,2.382,2.382,0,0,0-1.338-.458,1.937,1.937,0,0,0-1.462.684,3.021,3.021,0,0,0-.446.692,1.957,1.957,0,0,1-.141.251,5.477,5.477,0,0,0-1.02,1.49c-.071.136-.14.265-.208.388a4.436,4.436,0,0,0-.98-2.272,2.613,2.613,0,0,1-.191-.256,1.982,1.982,0,0,0-1.622-1.039Z"/>
  </g>
  <g>
    <path class="cls-1" d="M18.306,42.672a1.454,1.454,0,0,1-1.153-.75,2.7,2.7,0,0,1-.566-1.633,14.581,14.581,0,0,0-1.354-6.019,2.12,2.12,0,0,1,.078-2.282,1.825,1.825,0,0,1,1.432-.847,1.684,1.684,0,0,1,.207.013,1.358,1.358,0,0,1,1.178,1.551,6.5,6.5,0,0,0,.423,2.491A13.328,13.328,0,0,1,19.7,32.285a2.2,2.2,0,0,1,1.973-1.428c.056,0,.112,0,.169.007,1.18.095,1.521,1.239,1.649,1.669.121.406.256.81.391,1.214a18.707,18.707,0,0,1,.759,2.723c.042.239.079.479.115.717a7.866,7.866,0,0,0,.776,2.78,1.513,1.513,0,0,1,.194,1.223,1.44,1.44,0,0,1-.8.861,1.753,1.753,0,0,1-.766.2,1.648,1.648,0,0,1-1.4-1.083,5.649,5.649,0,0,1-.488-2.528,8.482,8.482,0,0,0-.965-3.593,10.207,10.207,0,0,0-.582,2.174,12.854,12.854,0,0,1-.373,1.6,8.216,8.216,0,0,0-.24,1.045,5.482,5.482,0,0,1-.661,2.018,1.4,1.4,0,0,1-1.147.788Z"/>
    <path class="cls-2" d="M21.678,31.357c.042,0,.085,0,.128.005.73.059,1.019.672,1.21,1.314a34.512,34.512,0,0,1,1.137,3.879,10.794,10.794,0,0,0,.949,3.659.885.885,0,0,1-.393,1.387,1.258,1.258,0,0,1-.547.146c-.414,0-.706-.3-.949-.8a5.266,5.266,0,0,1-.438-2.316,10.158,10.158,0,0,0-1.453-4.674c-1.048,1.625-.97,3.256-1.443,4.71a12.171,12.171,0,0,1-.848,2.951c-.233.37-.476.555-.724.555s-.494-.179-.743-.537a2.174,2.174,0,0,1-.477-1.326A15.029,15.029,0,0,0,15.7,34.086,1.649,1.649,0,0,1,15.7,32.3a1.352,1.352,0,0,1,1.04-.657,1.11,1.11,0,0,1,.142.009c.6.077.741.568.742,1.055a6.873,6.873,0,0,0,1.166,4.042,11.081,11.081,0,0,1,1.358-4.236,1.767,1.767,0,0,1,1.527-1.154m0-1a2.664,2.664,0,0,0-2.419,1.7c-.213.42-.421.844-.611,1.29-.015-.21-.021-.424-.021-.643a1.866,1.866,0,0,0-1.614-2.047,2.1,2.1,0,0,0-.27-.018,2.329,2.329,0,0,0-1.825,1.038,2.578,2.578,0,0,0-.162,2.747,14.23,14.23,0,0,1,1.331,5.842,3.16,3.16,0,0,0,.655,1.94,1.916,1.916,0,0,0,1.564.966,1.849,1.849,0,0,0,1.571-1.022,5.961,5.961,0,0,0,.729-2.193,7.9,7.9,0,0,1,.224-.982,13.234,13.234,0,0,0,.389-1.667c.051-.27.1-.536.159-.8a6.749,6.749,0,0,1,.4,2.134,6.231,6.231,0,0,0,.538,2.74,2.04,2.04,0,0,0,1.848,1.364,2.25,2.25,0,0,0,.986-.247,1.927,1.927,0,0,0,1.062-1.163,2,2,0,0,0-.237-1.617,7.517,7.517,0,0,1-.717-2.61c-.037-.242-.074-.484-.116-.726a19.169,19.169,0,0,0-.777-2.795c-.133-.4-.267-.8-.386-1.2a2.486,2.486,0,0,0-2.088-2.025q-.107-.009-.209-.009Z"/>
  </g>
  <g>
    <path class="cls-1" d="M110.839,40.9a1.728,1.728,0,0,1-.834-.242,3.575,3.575,0,0,1-1.681-2.13c-.068-.219-.12-.445-.171-.673s-.1-.426-.161-.629l-.015.019c-.375.48-.729.934-1.037,1.416a2.594,2.594,0,0,1-2.361,1.231,6.745,6.745,0,0,1-.882-.067,2.6,2.6,0,0,1-2.089-2.5,18.145,18.145,0,0,1-.142-2.814,17.526,17.526,0,0,0-.13-2.669,1.135,1.135,0,0,1,.207-.9,1.879,1.879,0,0,1,1.389-.534c.074-.006.117-.008.16-.008a1.208,1.208,0,0,1,.926.407,1.365,1.365,0,0,1,.3,1.087,23.933,23.933,0,0,0-.25,3.974l0,.1c.017.6.061.82.285.916a.5.5,0,0,0,.191.047c.178,0,.355-.208.606-.526l.155-.193a6.367,6.367,0,0,0,1.73-5.053,2.082,2.082,0,0,1,1.981-2.276,1.672,1.672,0,0,1,1.334.718,1.836,1.836,0,0,1,.265,1.664,6.865,6.865,0,0,0-.067,3.026,10.882,10.882,0,0,1,.118,2.316,3.3,3.3,0,0,0,.983,2.123l.072.094a1.191,1.191,0,0,1-.034,1.728A1.228,1.228,0,0,1,110.839,40.9Z"/>
    <path class="cls-2" d="M109.035,29.38a1.307,1.307,0,0,1,1.115,1.728c-.6,1.845.19,3.631.028,5.452a3.881,3.881,0,0,0,1.157,2.564c.255.334.383.715.019,1.063a.723.723,0,0,1-.514.214,1.266,1.266,0,0,1-.593-.18,3.078,3.078,0,0,1-1.444-1.841,6.933,6.933,0,0,0-.709-2.1c-.542.722-1.108,1.387-1.573,2.116a2.1,2.1,0,0,1-1.94,1,6.3,6.3,0,0,1-.817-.063c-1.176-.155-1.515-1.142-1.66-2.08-.279-1.809.005-3.656-.271-5.482-.116-.769.651-.821,1.175-.868q.044,0,.086,0a.758.758,0,0,1,.736.928,24.465,24.465,0,0,0-.255,4.056c.018.573,0,1.209.592,1.461a.988.988,0,0,0,.388.087c.508,0,.812-.5,1.145-.9a6.882,6.882,0,0,0,1.843-5.436,1.584,1.584,0,0,1,1.488-1.712h.005m0-1h-.011a2.582,2.582,0,0,0-2.475,2.839,5.831,5.831,0,0,1-1.621,4.671c-.054.066-.108.134-.162.2s-.114.144-.173.214c-.01-.115-.014-.255-.017-.355l0-.1a23.355,23.355,0,0,1,.246-3.891,1.867,1.867,0,0,0-.423-1.483,1.7,1.7,0,0,0-1.3-.578q-.085,0-.174.008a2.371,2.371,0,0,0-1.767.725,1.624,1.624,0,0,0-.308,1.289,17.089,17.089,0,0,1,.124,2.59,18.592,18.592,0,0,0,.148,2.894c.27,1.752,1.117,2.734,2.517,2.919a7.206,7.206,0,0,0,.948.072,3.1,3.1,0,0,0,2.783-1.462c.123-.193.256-.383.4-.574.027.108.057.215.09.321a4.068,4.068,0,0,0,1.917,2.419,2.207,2.207,0,0,0,1.074.3,1.719,1.719,0,0,0,1.2-.49,1.691,1.691,0,0,0,.086-2.393l-.074-.1a3,3,0,0,1-.882-1.772,11.249,11.249,0,0,0-.12-2.422,6.491,6.491,0,0,1,.047-2.811,2.334,2.334,0,0,0-.337-2.113,2.169,2.169,0,0,0-1.729-.923Z"/>
  </g>
  <g>
    <path class="cls-1" d="M119.742,18.764q-.684,0-1.37-.038a1.547,1.547,0,0,1-1.515-1.522,9.653,9.653,0,0,1,.2-3.76,8.891,8.891,0,0,0,.216-2.229,9.73,9.73,0,0,1,.174-2.064c-.022-.258-.041-.508-.06-.75a15.743,15.743,0,0,0-.175-1.628,1.7,1.7,0,0,1,.235-1.422,1.444,1.444,0,0,1,1.12-.5l.1,0a1.537,1.537,0,0,1,1.547,1.731c0,.314.018.632.031.951a10.861,10.861,0,0,1-.113,2.743,15.231,15.231,0,0,0-.243,1.83,13.533,13.533,0,0,1-.382,2.442c-.247.879-.134,1.21-.044,1.329a.993.993,0,0,0,.741.216,4.638,4.638,0,0,0,.718-.065c.249-.04.5-.07.754-.1a4.65,4.65,0,0,0,2.438-.749,1.423,1.423,0,0,1,.879-.347,1.061,1.061,0,0,1,.568.164,1.463,1.463,0,0,1,.549,1.565,1.858,1.858,0,0,1-1.41,1.609,19.723,19.723,0,0,1-4.958.594Z"/>
    <path class="cls-2" d="M118.667,5.351c.748,0,1.041.537,1.048,1.236a16.57,16.57,0,0,1-.072,3.584c-.3,1.4-.221,2.832-.617,4.241-.427,1.517-.045,2.18,1.18,2.18a5.119,5.119,0,0,0,.8-.072c1.163-.185,2.415-.16,3.421-.95a.962.962,0,0,1,.571-.24.567.567,0,0,1,.3.089c.391.243.37.682.318,1.074a1.35,1.35,0,0,1-1.039,1.191,19.364,19.364,0,0,1-4.833.579q-.67,0-1.343-.037c-.652-.036-.962-.439-1.046-1.087a9.226,9.226,0,0,1,.183-3.564c.409-1.506.074-3.032.414-4.388-.086-.92-.108-1.723-.248-2.5s.059-1.292.887-1.331l.078,0m0-1-.125,0a1.922,1.922,0,0,0-1.487.684,2.2,2.2,0,0,0-.337,1.823,15.3,15.3,0,0,1,.167,1.565c.017.224.034.454.054.692a10.433,10.433,0,0,0-.169,2.09,8.43,8.43,0,0,1-.2,2.105,10.133,10.133,0,0,0-.21,3.954,2.058,2.058,0,0,0,1.983,1.958c.473.026.943.039,1.4.039a20.206,20.206,0,0,0,5.082-.61,2.343,2.343,0,0,0,1.781-2.028,1.957,1.957,0,0,0-.781-2.055,1.576,1.576,0,0,0-.832-.24,1.914,1.914,0,0,0-1.189.453,4.227,4.227,0,0,1-2.188.646c-.259.031-.518.062-.772.1a4.163,4.163,0,0,1-.639.059,1.2,1.2,0,0,1-.339-.037,2.176,2.176,0,0,1,.122-.873,13.871,13.871,0,0,0,.4-2.535,15.074,15.074,0,0,1,.233-1.768,11.213,11.213,0,0,0,.125-2.868c-.014-.313-.027-.626-.03-.936a2.022,2.022,0,0,0-2.048-2.226Z"/>
  </g>
  <g>
    <path class="cls-1" d="M80.327,41.874a5.729,5.729,0,0,1-1.246-.14,4.466,4.466,0,0,1-3.335-4.345,12.863,12.863,0,0,1,1.82-6.365A2.99,2.99,0,0,1,79.319,29.7c.131-.051.262-.1.392-.159a1.957,1.957,0,0,1,.789-.183,1.373,1.373,0,0,1,1.278.86,1.76,1.76,0,0,1,.01,1.449,1.229,1.229,0,0,1-.782.7c-2.2.6-2.272,2.289-2.362,4.239l-.012.245a2.5,2.5,0,0,0,.511,1.869,1.669,1.669,0,0,0,1.262.469A3.912,3.912,0,0,0,81.534,39a4.724,4.724,0,0,0,.559-.226A3.19,3.19,0,0,1,83.4,38.4a1.9,1.9,0,0,1,1,.293.5.5,0,0,1,.185.654,4.664,4.664,0,0,1-4.261,2.523Z"/>
    <path class="cls-2" d="M80.5,29.856a.881.881,0,0,1,.826.572,1.056,1.056,0,0,1-.452,1.455c-2.65.73-2.641,2.889-2.74,4.942-.089,1.835.781,2.862,2.272,2.862a4.4,4.4,0,0,0,1.276-.21A6.346,6.346,0,0,1,83.4,38.9a1.389,1.389,0,0,1,.74.22,4.174,4.174,0,0,1-3.815,2.251,5.229,5.229,0,0,1-1.138-.128,3.98,3.98,0,0,1-2.943-3.857A12.385,12.385,0,0,1,78,31.268c.463-.826,1.2-.959,1.91-1.273a1.467,1.467,0,0,1,.587-.14m0-1a2.452,2.452,0,0,0-.991.225c-.123.054-.248.1-.371.151a3.492,3.492,0,0,0-2.007,1.547,13.344,13.344,0,0,0-1.885,6.609,4.976,4.976,0,0,0,3.725,4.833,6.239,6.239,0,0,0,1.356.152,5.153,5.153,0,0,0,4.706-2.8,1,1,0,0,0-.37-1.308A2.393,2.393,0,0,0,83.4,37.9a3.635,3.635,0,0,0-1.515.414,4.508,4.508,0,0,1-.5.2,3.419,3.419,0,0,1-.984.167,1.193,1.193,0,0,1-.9-.314,2.061,2.061,0,0,1-.373-1.5l.011-.247c.1-2.149.233-3.293,2-3.779a1.721,1.721,0,0,0,1.1-.973A2.244,2.244,0,0,0,82.231,30,1.873,1.873,0,0,0,80.5,28.856Z"/>
  </g>
  <g>
    <path class="cls-1" d="M73.885,41.329c-1.164,0-1.909-.874-1.994-2.336-.053-.9-.04-1.8-.028-2.682a18.347,18.347,0,0,0-.393-5.049,1.712,1.712,0,0,1,.2-1.37,1.6,1.6,0,0,1,1.115-.7,2.24,2.24,0,0,1,.351-.029,1.616,1.616,0,0,1,1.623,1.728c.036.675.028,1.352.02,2.028,0,.287-.007.575-.007.862l-.037.722c-.095,1.719-.185,3.342.717,4.833a1.2,1.2,0,0,1,.112,1.124,1.544,1.544,0,0,1-1.169.815A2.649,2.649,0,0,1,73.885,41.329Z"/>
    <path class="cls-2" d="M73.132,29.665c.711,0,1.084.509,1.124,1.255.051.952.012,1.909.012,2.863-.089,1.975-.36,3.975.752,5.813.365.6-.07,1.061-.725,1.19a2.139,2.139,0,0,1-.412.042c-.883,0-1.424-.649-1.5-1.865-.152-2.608.251-5.241-.436-7.83a1.106,1.106,0,0,1,.907-1.445,1.723,1.723,0,0,1,.272-.023m0-1a2.733,2.733,0,0,0-.43.035,2.1,2.1,0,0,0-1.456.919,2.209,2.209,0,0,0-.26,1.77,18,18,0,0,1,.375,4.913c-.012.886-.024,1.8.029,2.719.121,2.07,1.367,2.807,2.494,2.807a3.147,3.147,0,0,0,.6-.061,2.031,2.031,0,0,0,1.529-1.1,1.682,1.682,0,0,0-.141-1.585c-.822-1.359-.736-2.909-.645-4.549.013-.234.026-.468.036-.7,0-.33,0-.615.008-.9.008-.671.017-1.365-.02-2.062a2.127,2.127,0,0,0-2.123-2.2Z"/>
  </g>
  <g>
    <path class="cls-1" d="M89.641,91.114a4.279,4.279,0,0,1-3.3-1.295,2.517,2.517,0,0,1-.2-3,2.259,2.259,0,0,1,2.144-1.443c.132,0,.274.007.429.021a6.119,6.119,0,0,1,3.452,1.6,1.828,1.828,0,0,1,.664,1.558,2.7,2.7,0,0,1-1.215,2.072,3.755,3.755,0,0,1-1.973.49Z"/>
    <path class="cls-2" d="M88.285,85.872c.119,0,.247.006.386.018a5.678,5.678,0,0,1,3.186,1.5c.838.657.507,2.164-.512,2.815a3.23,3.23,0,0,1-1.7.412,3.875,3.875,0,0,1-2.905-1.1,2.023,2.023,0,0,1-.162-2.444c.522-.9.9-1.2,1.711-1.2m0-1a2.738,2.738,0,0,0-2.575,1.692,3.018,3.018,0,0,0,.238,3.563,4.869,4.869,0,0,0,3.693,1.487,4.24,4.24,0,0,0,2.241-.569,3.163,3.163,0,0,0,1.446-2.469,2.319,2.319,0,0,0-.855-1.975,6.549,6.549,0,0,0-3.754-1.709c-.135-.012-.291-.019-.436-.019Z"/>
  </g>
  <g>
    <path class="cls-1" d="M42.565,60.975A1.5,1.5,0,0,1,41.1,59.648a64.35,64.35,0,0,1-.992-8.331,1.75,1.75,0,0,1,1.144-1.735.5.5,0,0,1,.209-.046l.043,0a1.562,1.562,0,0,1,1.484,1.353,16.349,16.349,0,0,1,.111,1.99c0,.229.023,1.029.023,1.029.042,1.57.083,3.053,1.082,4.321a1.5,1.5,0,0,1,.336,1.3,1.877,1.877,0,0,1-1.079,1.219,2.049,2.049,0,0,1-.9.228Z"/>
    <path class="cls-2" d="M41.462,50.036a1.056,1.056,0,0,1,1.032.922,24.707,24.707,0,0,1,.12,2.623c.053,1.735.019,3.461,1.2,4.959.535.679.209,1.375-.571,1.757a1.554,1.554,0,0,1-.677.177,1,1,0,0,1-.974-.927,64.411,64.411,0,0,1-.983-8.267,1.271,1.271,0,0,1,.854-1.245m0-1a1,1,0,0,0-.417.091,2.253,2.253,0,0,0-1.434,2.227,65.074,65.074,0,0,0,1,8.4,2,2,0,0,0,1.953,1.726,2.537,2.537,0,0,0,1.117-.279,2.363,2.363,0,0,0,1.347-1.556,2.024,2.024,0,0,0-.431-1.718c-.9-1.138-.933-2.475-.975-4.023l-.01-.348c-.007-.227-.01-.454-.013-.682a16.6,16.6,0,0,0-.116-2.048,2.048,2.048,0,0,0-1.938-1.782c-.028,0-.057,0-.085,0Z"/>
  </g>
  <g>
    <path class="cls-1" d="M141.462,23.641a1.414,1.414,0,0,1-1.349-1.049,1.925,1.925,0,0,1-.017-1.541,26.37,26.37,0,0,0,1.748-4.8,1.3,1.3,0,0,1,1.374-1.035,2.489,2.489,0,0,1,.269.015,1.262,1.262,0,0,1,.9.46,1.741,1.741,0,0,1,.26,1.349.5.5,0,0,1-.037.135c-.055.125-.121.267-.194.422a11.014,11.014,0,0,0-.527,1.264,7.814,7.814,0,0,1-.514,1.163,3.145,3.145,0,0,0-.529,2.159,1.087,1.087,0,0,1-.165.839,1.443,1.443,0,0,1-.93.593A1.562,1.562,0,0,1,141.462,23.641Z"/>
    <path class="cls-2" d="M143.219,15.715a2,2,0,0,1,.214.012c.549.059.822.423.715,1.248a17.253,17.253,0,0,0-.739,1.733c-.379,1.181-1.36,2.174-1.056,3.581a.769.769,0,0,1-.7.834,1.085,1.085,0,0,1-.2.019.953.953,0,0,1-.881-.727,1.457,1.457,0,0,1-.03-1.156,26.475,26.475,0,0,0,1.779-4.894.809.809,0,0,1,.889-.649m0-1a1.793,1.793,0,0,0-1.862,1.42,25.731,25.731,0,0,1-1.716,4.708,2.431,2.431,0,0,0,.005,1.926,1.923,1.923,0,0,0,1.815,1.372,2.1,2.1,0,0,0,.377-.035,1.925,1.925,0,0,0,1.255-.808,1.583,1.583,0,0,0,.238-1.222,2.708,2.708,0,0,1,.486-1.827,8.291,8.291,0,0,0,.544-1.237,10.286,10.286,0,0,1,.5-1.2c.075-.16.144-.306.2-.435a1,1,0,0,0,.074-.27,2.233,2.233,0,0,0-.363-1.723,1.756,1.756,0,0,0-1.237-.648,3.009,3.009,0,0,0-.322-.018Z"/>
  </g>
</svg>
