<svg id="Layer_1" data-name="Layer 1" xmlns="http://www.w3.org/2000/svg" viewBox="0 0 137.059 86.615">
  <defs>
    <style>
      .cls-1 {
        fill: #0000b8;
      }

      .cls-2 {
        fill: #fff;
      }
    </style>
  </defs>
  <title>2b363921-ba10-462f-859a-f81cd963f8f1</title>
  <g>
    <path class="cls-1" d="M37.573,22.279c-.795-.037-1.276-.58-1.43-1.613a2.951,2.951,0,0,1-.023-.574,46.518,46.518,0,0,0-.315-6.648A49.56,49.56,0,0,1,35.47,7c.018-.5-.079-.672-.138-.732a.434.434,0,0,0-.312-.087,1.808,1.808,0,0,0-.367.043c-.4.081-.8.155-1.2.229-.833.155-1.7.315-2.515.538-.124.034-.341.108-.4.233a.762.762,0,0,0,.068.546A48.968,48.968,0,0,1,33.02,17.783l.048.284c.023.139.06.28.1.423a1.983,1.983,0,0,1-.482,2.275,1.564,1.564,0,0,1-.991.4,1.209,1.209,0,0,1-.727-.247,2.219,2.219,0,0,1-.726-2.207c.012-.137.022-.274.026-.41a22.506,22.506,0,0,0-2.08-9.514.95.95,0,0,0-.507-.551,14.545,14.545,0,0,0-2.214,7.7,14.6,14.6,0,0,1-.21,1.809c-.068.429-.137.855-.174,1.289A1.657,1.657,0,0,1,23.57,20.6a1.681,1.681,0,0,1-.215.014c-1.078,0-1.222-1.043-1.291-1.544a9.818,9.818,0,0,0-.228-1.056,6.39,6.39,0,0,1-.282-2.116,1.813,1.813,0,0,0-.2-.928A11.415,11.415,0,0,1,18.4,17.454a12.179,12.179,0,0,1-2.514,1.082,6.379,6.379,0,0,1-1.66.236c-2.134,0-3.63-1.289-4.213-3.629-.905-3.629.492-7.163,3.833-9.7a3.315,3.315,0,0,1,1.292-.552,4.055,4.055,0,0,1,.834-.094,2.023,2.023,0,0,1,1.606.646,2.508,2.508,0,0,1,.442,2.069,7.045,7.045,0,0,1-3.54,5.378,2.12,2.12,0,0,1-.494.189,1.257,1.257,0,0,0-.25.088,1.949,1.949,0,0,1-.833.5c-.49.188-.55.228-.472.607a1.93,1.93,0,0,0,1.555,1.775,4.008,4.008,0,0,0,.828.089,4.629,4.629,0,0,0,2.977-1.214,6.881,6.881,0,0,0,2.767-6.488,1.247,1.247,0,0,0-.062-.206,1.6,1.6,0,0,1-.12-.554,1.666,1.666,0,0,1,1.7-1.807,2.094,2.094,0,0,1,.219.012,1.684,1.684,0,0,1,1.283.678,1.678,1.678,0,0,1,.157,1.458,8.683,8.683,0,0,0-.208,3.06c.032-.131.21-.863.21-.863.948-3.783,2.972-5.586,6.768-6.027l1.13-.129A52.453,52.453,0,0,0,40.54,2.524a4.883,4.883,0,0,1,1.316-.217h0a1.745,1.745,0,0,1,1.534.639,1.386,1.386,0,0,1,.039,1.367,18.183,18.183,0,0,0-1.088,5.25c-.1.93-.2,1.892-.38,2.835a4.509,4.509,0,0,0,.11,1.678,7.526,7.526,0,0,1,.17,1.3,1.115,1.115,0,0,0,.784,1.156,1.409,1.409,0,0,0,.352.047,1.431,1.431,0,0,0,1.19-.69,7.293,7.293,0,0,0,1.174-2.405c.212-.968.5-1.928.774-2.856A17.3,17.3,0,0,0,47.58,4.306a1.415,1.415,0,0,1,.333-1.119,1.487,1.487,0,0,1,1.146-.432A1.557,1.557,0,0,1,50.8,4.118a3.941,3.941,0,0,1-.256,1.607c-.774,2.35-.444,4.657-.095,7.1.122.854.248,1.733.321,2.612a1.134,1.134,0,0,1,.873-.529,1.007,1.007,0,0,1,.488.136,1.578,1.578,0,0,1,.655,1.832,3.318,3.318,0,0,0-.041.365,2.766,2.766,0,0,1-.52,1.294c-.61.979-1.218,1.179-1.624,1.179-.434,0-1.056-.221-1.556-1.271a11.4,11.4,0,0,1-.927-3.966c-.046.129-.085.265-.126.4a5.747,5.747,0,0,1-.217.642,6.927,6.927,0,0,1-2.651,3.395,3.831,3.831,0,0,1-1.978.6h0a3.085,3.085,0,0,1-2.916-2.393,12.088,12.088,0,0,1-.576-4.861c.183-1.972.626-6.643.626-6.643a5.561,5.561,0,0,0-.83-.073c-.893,0-1.329.263-1.4,1.753a70.918,70.918,0,0,0,.612,10.752l.116,1.076a3.322,3.322,0,0,0,.086.419,2.478,2.478,0,0,1,.086,1.144l-.039.218c-.075.445-.23,1.371-1.262,1.371ZM15.2,7.77a.343.343,0,0,0-.2.094,7.274,7.274,0,0,0-1.966,2.413,2.949,2.949,0,0,0,2.137-2.224,1.36,1.36,0,0,0,.083-.308Z" transform="translate(0 0)"/>
    <path class="cls-2" d="M41.89,2.807c.855,0,1.462.405,1.08,1.312-1.107,2.63-.988,5.462-1.5,8.187-.2,1.073.253,2.048.272,3.081a1.582,1.582,0,0,0,1.157,1.63,1.876,1.876,0,0,0,.479.063,1.933,1.933,0,0,0,1.608-.916,7.756,7.756,0,0,0,1.244-2.572c.68-3.1,2.1-6.041,1.847-9.325-.052-.683.319-1.013.983-1.013h.031c.627.009,1.141.271,1.21.915a3.488,3.488,0,0,1-.233,1.4c-1.128,3.424-.014,6.794.223,10.184.01.136.17.262.262.392l.043,0c.473,0,.62-.738,1.045-.738a.514.514,0,0,1,.247.073c.708.39.376,1.149.355,1.742a2.429,2.429,0,0,1-.462,1.077c-.378.606-.788.914-1.182.914s-.79-.325-1.1-.986a13.87,13.87,0,0,1-.979-5.088c-.9.579-.9,1.49-1.2,2.186a6.346,6.346,0,0,1-2.449,3.162,3.358,3.358,0,0,1-1.72.53,2.58,2.58,0,0,1-2.439-2.044,11.591,11.591,0,0,1-.555-4.665c.219-2.367.445-4.741.67-7.1a7.213,7.213,0,0,0-1.372-.162c-1.31,0-1.824.651-1.9,2.23a78.513,78.513,0,0,0,.731,11.9,4.371,4.371,0,0,1,.179,1.408c-.108.52-.1,1.191-.811,1.191H37.6c-.662-.031-.872-.6-.959-1.187a2.443,2.443,0,0,1-.017-.479c.213-4.388-.8-8.714-.651-13.1.031-.874-.237-1.337-.95-1.337a2.352,2.352,0,0,0-.467.053c-1.249.255-2.516.442-3.744.775-.648.176-1.009.583-.668,1.446a49.779,49.779,0,0,1,2.433,10.2c.125.744.578,1.571-.214,2.232a1.086,1.086,0,0,1-.672.286.7.7,0,0,1-.427-.147c-.775-.579-.521-1.421-.5-2.2A23.183,23.183,0,0,0,28.645,8.6a1.621,1.621,0,0,0-1.153-.974,14.868,14.868,0,0,0-2.529,8.3c-.035,1.047-.295,2.044-.382,3.072a1.161,1.161,0,0,1-1.074,1.11,1.185,1.185,0,0,1-.151.01c-.636,0-.724-.6-.8-1.113a13.96,13.96,0,0,1-.507-3.063,3.068,3.068,0,0,0-.587-1.825,12.823,12.823,0,0,1-3.3,2.9,11.819,11.819,0,0,1-2.409,1.041,5.886,5.886,0,0,1-1.53.219c-1.869,0-3.2-1.116-3.728-3.25-.945-3.793.816-7.029,3.65-9.178a2.8,2.8,0,0,1,1.092-.461,3.58,3.58,0,0,1,.731-.083c1.165,0,1.754.746,1.554,2.144a6.581,6.581,0,0,1-3.295,5.016c-.272.157-.681.161-.863.375-.453.531-1.678.316-1.425,1.545a2.437,2.437,0,0,0,1.941,2.164,4.48,4.48,0,0,0,.931.1,5.13,5.13,0,0,0,3.3-1.331,7.425,7.425,0,0,0,2.941-6.935,5.715,5.715,0,0,1-.177-.694,1.174,1.174,0,0,1,1.2-1.308c.054,0,.11,0,.167.009a1.063,1.063,0,0,1,1.01,1.5,13.7,13.7,0,0,0,.027,5.446,13.985,13.985,0,0,0,.942-2.994c.892-3.563,2.751-5.234,6.34-5.652A59.915,59.915,0,0,0,40.682,3a4.4,4.4,0,0,1,1.18-.2h.028M12.285,10.886a3.446,3.446,0,0,0,3.362-2.675c.1-.309.222-.627-.1-.839a.616.616,0,0,0-.34-.1.825.825,0,0,0-.528.216,6.913,6.913,0,0,0-2.389,3.4M41.89,1.807h-.039a5.384,5.384,0,0,0-1.452.237,52.032,52.032,0,0,1-8.823,1.52l-1.132.13c-2.916.339-4.887,1.488-6.122,3.635a1.955,1.955,0,0,0-.333-1.048,2.2,2.2,0,0,0-1.648-.893,2.667,2.667,0,0,0-.267-.014,2.163,2.163,0,0,0-2.2,2.3,2.073,2.073,0,0,0,.149.725,1.092,1.092,0,0,1,.04.119,6.408,6.408,0,0,1-2.595,6.024,4.14,4.14,0,0,1-2.655,1.1,3.5,3.5,0,0,1-.724-.077c-.551-.117-.96-.394-1.165-1.366.052-.022.11-.044.156-.062a2.606,2.606,0,0,0,.947-.548l.1-.027a2.564,2.564,0,0,0,.606-.237,7.616,7.616,0,0,0,3.785-5.741,2.957,2.957,0,0,0-.56-2.467A2.5,2.5,0,0,0,15.971,4.3a4.591,4.591,0,0,0-.936.1,3.8,3.8,0,0,0-1.491.643c-3.508,2.66-4.972,6.383-4.017,10.217.635,2.547,2.348,4.008,4.7,4.008a6.9,6.9,0,0,0,1.79-.253A12.669,12.669,0,0,0,18.634,17.9a10.031,10.031,0,0,0,2.412-1.874,7.269,7.269,0,0,0,.306,2.115,9.545,9.545,0,0,1,.217,1c.068.489.274,1.976,1.786,1.976a2.239,2.239,0,0,0,2.222-2.035c.035-.408.1-.817.169-1.251a14.916,14.916,0,0,0,.216-1.873,14.414,14.414,0,0,1,1.794-6.892,21.955,21.955,0,0,1,2.008,9.227c0,.126-.015.254-.025.383a2.7,2.7,0,0,0,.925,2.651,1.7,1.7,0,0,0,1.025.346A2.054,2.054,0,0,0,33,21.149a2.486,2.486,0,0,0,.646-2.78c-.033-.13-.066-.258-.087-.384l-.047-.282A49.379,49.379,0,0,0,31.071,7.585c-.016-.04-.027-.074-.036-.1l.037-.011c.8-.216,1.607-.367,2.465-.527.406-.076.812-.151,1.217-.234a1.631,1.631,0,0,1,.207-.03,1.9,1.9,0,0,1,.01.3,50.019,50.019,0,0,0,.336,6.513,46.165,46.165,0,0,1,.315,6.57,3.361,3.361,0,0,0,.026.676c.256,1.707,1.3,2.01,1.9,2.038l.1,0a1.814,1.814,0,0,0,1.755-1.789c.011-.067.022-.134.036-.2a2.962,2.962,0,0,0-.09-1.364,2.96,2.96,0,0,1-.074-.354l-.115-1.069a70.38,70.38,0,0,1-.611-10.683c.058-1.275.338-1.275.9-1.275q.133,0,.286.012c-.195,2.048-.39,4.105-.58,6.157a12.593,12.593,0,0,0,.6,5.06,3.562,3.562,0,0,0,3.392,2.741,4.319,4.319,0,0,0,2.236-.673,6.757,6.757,0,0,0,2.5-2.87,9.287,9.287,0,0,0,.706,2.183c.645,1.354,1.535,1.556,2.008,1.556a2.423,2.423,0,0,0,2.03-1.385,3.251,3.251,0,0,0,.613-1.569,3,3,0,0,1,.036-.312,2.075,2.075,0,0,0-.909-2.342,1.5,1.5,0,0,0-.729-.2,1.338,1.338,0,0,0-.467.082c-.068-.586-.151-1.166-.233-1.735-.341-2.384-.662-4.636.075-6.876A4.382,4.382,0,0,0,51.3,4.064a2.051,2.051,0,0,0-2.189-1.809h0a2.009,2.009,0,0,0-1.558.592,1.9,1.9,0,0,0-.466,1.5,16.926,16.926,0,0,1-1.043,6.143c-.279.937-.567,1.906-.783,2.891a6.808,6.808,0,0,1-1.1,2.237.94.94,0,0,1-.772.465.883.883,0,0,1-.224-.03c-.11-.029-.4-.106-.412-.682a8.05,8.05,0,0,0-.178-1.385,4.087,4.087,0,0,1-.11-1.494c.18-.962.284-1.934.385-2.874a17.824,17.824,0,0,1,1.051-5.109,1.877,1.877,0,0,0-.084-1.837,2.193,2.193,0,0,0-1.918-.863Z" transform="translate(0 0)"/>
  </g>
  <g>
    <path class="cls-1" d="M92,21.684c-.4,0-.968-.207-1.408-1.191a17.491,17.491,0,0,1-1.963-6.919c-.022-1.281-.158-2.592-.289-3.859l-.108-1.071c-.033-.35-.16-.35-.308-.35a1.179,1.179,0,0,0-.281.039,3.778,3.778,0,0,1-.872.134c-.45,0-1.223-.175-1.335-1.345-.14-1.481,1.188-1.687,1.825-1.786l.206-.031a45.367,45.367,0,0,1,6.918-.711,19.3,19.3,0,0,1,3.044.229,1.636,1.636,0,0,1,1.233.592,1.235,1.235,0,0,1,.068,1.042c-.341,1.121-.95,1.356-1.4,1.356a1.563,1.563,0,0,1-.664-.162,4.775,4.775,0,0,0-2.147-.4c-.329,0-.659.015-.989.029s-.689.03-1.032.03a8.276,8.276,0,0,1-.853-.039q-.091-.009-.176-.009a.689.689,0,0,0-.481.138.521.521,0,0,0-.107.378c0,.367,0,.734,0,1.1a12.214,12.214,0,0,0,.29,3.53c.158.566.369.566.471.566a1.041,1.041,0,0,0,.293-.053c.294-.093.592-.174.891-.255a5.832,5.832,0,0,0,2.8-1.319A6.122,6.122,0,0,1,100.032,9.4a6.813,6.813,0,0,1,2.032.325,1.733,1.733,0,0,0,.478.1.051.051,0,0,0,.021,0c.035,0,.051-.045.049-.15-.044-2.851,1.222-4.517,3.762-4.952a7.27,7.27,0,0,1,1.217-.106,6.773,6.773,0,0,1,5.359,2.8,4.612,4.612,0,0,1,1.263,3.783,4.517,4.517,0,0,1-2.178,2.827,13.127,13.127,0,0,0,2.28,1.272c.484.23.967.46,1.43.721.151.084.309.16.467.236a6.028,6.028,0,0,1,.832.457,1.628,1.628,0,0,1,.357,2.38,1.439,1.439,0,0,1-1.2.73h0a1.67,1.67,0,0,1-1.191-.586c-1.907-2-4.34-3.042-6.915-4.148l-.483-.208a3.406,3.406,0,0,0-.376-.131,5.178,5.178,0,0,0,.355,2.267c.1.332.205.662.281.994.03.131.068.271.108.412.215.778.575,2.08-.678,2.509a1.792,1.792,0,0,1-.58.105c-.978,0-1.287-.928-1.514-1.605-.061-.181-.12-.362-.192-.528-.174-.4-.366-.8-.562-1.2a17.691,17.691,0,0,1-1.094-2.6,7.4,7.4,0,0,1-2.862,2.534,6.358,6.358,0,0,1-2.731.761c-1.065,0-2.469-.472-3.105-2.722-.206-.73-.423-.73-.516-.73a2.5,2.5,0,0,0-.658.16c-.112.036-.227.073-.343.107l-.344.094c-.984.259-1.286.382-1.072,1.26l.069.3c.176.77.3,1.326,1.029,1.693a1.442,1.442,0,0,1,.81,1.105,1.81,1.81,0,0,1-.61,1.556A1.532,1.532,0,0,1,92,21.684Zm7.815-9.566c-.086,0-.187.016-.307.2a3.073,3.073,0,0,1-1.275,1.043,3.238,3.238,0,0,0-.694.45A1,1,0,0,0,97.192,15c.084.223.265.492.91.6a1.312,1.312,0,0,0,.224.019,2.764,2.764,0,0,0,1.838-.916,2.291,2.291,0,0,0,.729-1.551.827.827,0,0,0-.553-.876A1.319,1.319,0,0,0,99.818,12.118Zm7.838-4.841c-.555,0-.654.083-.668.1-.044.051-.1.258.031,1.073.015.1.037.2.06.3a2.29,2.29,0,0,1,.056,1.081,1.119,1.119,0,0,0,0,.809c.122.169.464.271,1.045.311a10.154,10.154,0,0,1,1.363.219c.188.039.375.077.563.111a1.484,1.484,0,0,0,1.241-.449,1.194,1.194,0,0,0,.025-1.065,5.37,5.37,0,0,0-3.407-2.479C107.855,7.279,107.752,7.277,107.655,7.277Z" transform="translate(0 0)"/>
    <path class="cls-2" d="M94.386,5.094a18.856,18.856,0,0,1,2.967.223c.623.1,1.141.206.9.993-.157.517-.429,1-.924,1A1.058,1.058,0,0,1,96.88,7.2a5.354,5.354,0,0,0-2.361-.451c-.672,0-1.348.06-2.019.06a8.021,8.021,0,0,1-.805-.037,2.236,2.236,0,0,0-.224-.012c-.6,0-1.1.265-1.091,1.022a18.053,18.053,0,0,0,.3,4.762c.174.621.483.931.953.931a1.486,1.486,0,0,0,.442-.076c1.354-.425,2.8-.6,3.9-1.7a5.646,5.646,0,0,1,4.059-1.8,6.3,6.3,0,0,1,1.882.3,2.2,2.2,0,0,0,.628.119c.347,0,.576-.169.569-.654-.037-2.392.838-4.022,3.346-4.451a6.71,6.71,0,0,1,1.134-.1,6.3,6.3,0,0,1,4.97,2.611c2,2.461,1.516,4.638-1.389,6.227,1.277,1.192,2.9,1.691,4.327,2.5.414.233.871.4,1.259.669a1.133,1.133,0,0,1,.223,1.7.942.942,0,0,1-.777.5,1.2,1.2,0,0,1-.83-.432c-2.1-2.2-4.853-3.3-7.562-4.47-.284-.123-.593-.191-.941-.3-.475,1.474.221,2.717.516,4,.194.843.721,2.006-.244,2.335a1.3,1.3,0,0,1-.417.078c-.806,0-.916-1.066-1.247-1.832a20.032,20.032,0,0,1-1.913-4.915,7.331,7.331,0,0,1-3.284,3.4,5.9,5.9,0,0,1-2.511.709c-1.208,0-2.149-.679-2.623-2.358-.241-.854-.587-1.094-1-1.094a4.663,4.663,0,0,0-1.14.287c-.981.284-2.146.381-1.764,1.952.225.925.312,1.791,1.36,2.322a1.093,1.093,0,0,1,.086,1.846,1.047,1.047,0,0,1-.69.333c-.41,0-.726-.391-.952-.895a17.122,17.122,0,0,1-1.919-6.724c-.029-1.659-.239-3.315-.4-4.97-.055-.566-.362-.8-.8-.8a1.706,1.706,0,0,0-.4.053,3.338,3.338,0,0,1-.754.119c-.433,0-.771-.194-.837-.892-.1-1.022.737-1.14,1.425-1.247a46.025,46.025,0,0,1,7.025-.733m15.744,6.677c1.483,0,2.181-.877,1.714-2.178a5.791,5.791,0,0,0-3.86-2.809c-.117,0-.226-.007-.327-.007-1.2,0-1.356.327-1.132,1.751a3.1,3.1,0,0,1,.126,1.172c-.359,1.362.373,1.668,1.5,1.746a17.449,17.449,0,0,1,1.871.323l.112,0m-11.8,4.348a3.363,3.363,0,0,0,3.067-2.984,1.3,1.3,0,0,0-.836-1.309,1.762,1.762,0,0,0-.739-.208.826.826,0,0,0-.73.438c-.458.728-1.324.856-1.892,1.4a1.472,1.472,0,0,0,.823,2.641,1.836,1.836,0,0,0,.307.025M94.386,4.094a45.8,45.8,0,0,0-7,.717l-.18.028c-.623.1-2.453.38-2.267,2.33a1.779,1.779,0,0,0,1.833,1.8,4.164,4.164,0,0,0,.976-.144q.046.462.094.925c.131,1.263.266,2.57.288,3.835A17.9,17.9,0,0,0,90.137,20.7c.579,1.293,1.417,1.486,1.865,1.486a2.01,2.01,0,0,0,1.368-.6,2.306,2.306,0,0,0,.767-1.991,1.952,1.952,0,0,0-1.078-1.483c-.5-.252-.59-.579-.768-1.359l-.071-.306a.866.866,0,0,1-.037-.4,3.1,3.1,0,0,1,.751-.254c.12-.031.24-.063.357-.1s.241-.074.359-.113.293-.1.406-.121a1.918,1.918,0,0,1,.13.352c.759,2.685,2.572,3.086,3.586,3.086a6.846,6.846,0,0,0,2.953-.812A7.65,7.65,0,0,0,103.2,16.14c.253.645.54,1.233.809,1.785.191.393.38.781.552,1.177.067.154.122.322.177.49.227.68.65,1.946,1.988,1.946a2.3,2.3,0,0,0,.74-.132c1.7-.581,1.208-2.358,1-3.117-.037-.134-.074-.265-.1-.389-.082-.357-.188-.7-.291-1.031a7.617,7.617,0,0,1-.342-1.394l.176.076c2.525,1.085,4.911,2.11,6.746,4.032a2.129,2.129,0,0,0,1.553.741,1.9,1.9,0,0,0,1.615-.959,2.12,2.12,0,0,0-.492-3.062,6.431,6.431,0,0,0-.9-.5c-.149-.072-.3-.143-.441-.223-.483-.271-.979-.507-1.458-.735-.566-.269-1.114-.529-1.622-.837A4.624,4.624,0,0,0,114.7,11.3,5.077,5.077,0,0,0,113.337,7.1a7.246,7.246,0,0,0-5.746-2.98,7.746,7.746,0,0,0-1.3.114c-2.678.458-4.08,2.136-4.173,4.988a7.277,7.277,0,0,0-2.082-.318,6.6,6.6,0,0,0-4.765,2.089,5.4,5.4,0,0,1-2.578,1.19c-.305.083-.61.166-.911.26l-.065.018a1.256,1.256,0,0,1-.068-.189,11.888,11.888,0,0,1-.272-3.387c0-.372.01-.744.005-1.116V7.764a.809.809,0,0,1,.091,0,1.24,1.24,0,0,1,.124.007,8.988,8.988,0,0,0,.905.042c.35,0,.7-.015,1.053-.031.322-.014.644-.029.966-.029a4.313,4.313,0,0,1,1.933.354,2.05,2.05,0,0,0,.879.211c.508,0,1.428-.222,1.88-1.712a1.706,1.706,0,0,0-.123-1.452,2.081,2.081,0,0,0-1.579-.819,19.72,19.72,0,0,0-3.123-.235Zm13.056,3.689c.057,0,.128-.005.215-.005s.187,0,.291.006A4.985,4.985,0,0,1,110.9,9.93a.771.771,0,0,1,.037.61c-.075.106-.332.23-.81.23h-.012c-.156-.029-.311-.062-.467-.094a10.547,10.547,0,0,0-1.434-.228,2.234,2.234,0,0,1-.657-.112,1.392,1.392,0,0,1,.059-.382,2.72,2.72,0,0,0-.051-1.315c-.02-.09-.04-.179-.054-.267-.044-.28-.064-.467-.071-.59Zm-9.116,7.336a.838.838,0,0,1-.14-.011c-.447-.076-.5-.212-.526-.285-.048-.126-.12-.317.226-.645a2.846,2.846,0,0,1,.587-.371A3.587,3.587,0,0,0,99.9,12.637a1.572,1.572,0,0,1,.219.089c.28.135.277.223.271.369q0,.038,0,.075a1.829,1.829,0,0,1-.59,1.186,2.29,2.29,0,0,1-1.477.763Z" transform="translate(0 0)"/>
  </g>
  <g>
    <path class="cls-1" d="M73.23,19.419a7.631,7.631,0,0,1-3.679-1.051A20.729,20.729,0,0,0,61.2,15.435c-.669-.047-1.331-.159-1.971-.268a14.631,14.631,0,0,0-2.435-.275c-.16,0-.32,0-.481.018-.067.141-.04.3.035.613a4.019,4.019,0,0,1,.087.442,4.19,4.19,0,0,0,.163.663,2.241,2.241,0,0,1,.037,1.826,1.51,1.51,0,0,1-1.084.645,1.892,1.892,0,0,1-.325.03c-1.259,0-1.387-1.335-1.464-2.132-.016-.165-.03-.325-.053-.472-.03-.2-.078-.39-.125-.584a6.448,6.448,0,0,1-.163-.843c-.062-.593-.166-.781-.5-.916a1.487,1.487,0,0,1-.863-.782,1,1,0,0,1,.063-.825c.655-1.27.336-2.518,0-3.84a12.5,12.5,0,0,1-.389-1.94c-.025-.281-.06-.563-.094-.846A14.442,14.442,0,0,1,51.485,3.9,3.077,3.077,0,0,1,54.239.614,6.656,6.656,0,0,1,55.421.5,4.555,4.555,0,0,1,57.1.8c3.556,1.381,5.521,3.618,6,6.839a3.6,3.6,0,0,1-1.683,3.919c-.347.222-.706.423-1.066.625l-.854.481,6.515,1.123a13.543,13.543,0,0,1,.163-6.446,5.8,5.8,0,0,1,4.784-3.937c.075,0,.149-.007.223-.007A3.544,3.544,0,0,1,73.97,4.748a4.123,4.123,0,0,1,.74,3.513,7.512,7.512,0,0,1-3.471,4.855c-.6.368-1.23.693-1.894,1.039l-.387.2.213.213c.481.484.933.938,1.4,1.367a3.631,3.631,0,0,0,2.463,1.05,3.438,3.438,0,0,0,1.241-.241,2.227,2.227,0,0,0,1.6-2.655,1.147,1.147,0,0,1,.749-1.326,1.227,1.227,0,0,1,.389-.066,1.348,1.348,0,0,1,1.141.848,4.083,4.083,0,0,1-1.782,5,6.344,6.344,0,0,1-3.147.873ZM71.106,6.133a2.742,2.742,0,0,0-1.224.537c-1.726,1.077-1.783,2.66-1.7,4.651A5.505,5.505,0,0,0,71.88,8.363a1.5,1.5,0,0,0-.237-2A.777.777,0,0,0,71.106,6.133ZM55.548,2.987c-.3,0-.8,0-.891,2.085a.5.5,0,0,1-.073.239A2.315,2.315,0,0,0,54.6,7.206a8.19,8.19,0,0,1,.213.928c.377,2.521.677,2.8,1.227,2.8a8.166,8.166,0,0,0,2.452-.74l.2-.079a4.246,4.246,0,0,0,.41-.176A2.272,2.272,0,0,0,60.24,6.611a6,6,0,0,0-3.178-3.169A4.043,4.043,0,0,0,55.548,2.987Z" transform="translate(0 0)"/>
    <path class="cls-2" d="M55.422,1a4.1,4.1,0,0,1,1.5.27c3.015,1.171,5.181,3.062,5.692,6.448a3.1,3.1,0,0,1-1.457,3.423c-.471.3-.966.563-1.452.84s-.945.533-1.671.942l8.613,1.485a13.866,13.866,0,0,1,.014-6.92A5.276,5.276,0,0,1,71,3.908q.1-.006.192-.006a3.3,3.3,0,0,1,3.033,4.247,6.968,6.968,0,0,1-3.244,4.54c-.869.531-1.792.973-2.853,1.542.769.758,1.418,1.442,2.114,2.075a4.147,4.147,0,0,0,2.8,1.179,3.931,3.931,0,0,0,1.421-.274,2.731,2.731,0,0,0,1.915-3.2.653.653,0,0,1,.417-.77.709.709,0,0,1,.228-.04c.344,0,.553.3.7.577a3.617,3.617,0,0,1-1.584,4.337,5.8,5.8,0,0,1-2.9.807,7.185,7.185,0,0,1-3.44-.99,21.046,21.046,0,0,0-8.557-2.992c-1.488-.1-2.947-.545-4.439-.545a6.741,6.741,0,0,0-.751.04c-.5.528-.167,1.069-.106,1.591.11.939,1.039,2.31-.476,2.583a1.337,1.337,0,0,1-.237.023c-.981,0-.892-1.325-1.022-2.179-.072-.472-.235-.932-.285-1.4-.062-.589-.183-1.075-.817-1.328-.362-.145-.776-.46-.542-.913,1.078-2.087-.152-4.05-.337-6.055a24.536,24.536,0,0,1-.237-2.842,2.578,2.578,0,0,1,2.344-2.8A6.144,6.144,0,0,1,55.422,1m.618,10.43a8.214,8.214,0,0,0,2.64-.776c.22-.089.448-.166.658-.275A2.752,2.752,0,0,0,60.7,6.416a6.5,6.5,0,0,0-3.432-3.43,4.464,4.464,0,0,0-1.722-.5c-.945,0-1.314.8-1.391,2.564-.631,1.031,0,2.1.162,3.157.345,2.305.653,3.222,1.721,3.222m11.674.512a6.106,6.106,0,0,0,4.612-3.351,2,2,0,0,0-.353-2.6,1.28,1.28,0,0,0-.866-.354,3.107,3.107,0,0,0-1.514.628c-2.122,1.325-1.99,3.381-1.879,5.681M55.422,0h0A7.09,7.09,0,0,0,54.15.122a3.565,3.565,0,0,0-3.165,3.761,14.707,14.707,0,0,0,.149,2.126c.033.278.067.555.092.832a12.9,12.9,0,0,0,.4,2.019c.328,1.28.61,2.385.042,3.485a1.505,1.505,0,0,0-.087,1.229,1.933,1.933,0,0,0,1.146,1.072c.107.043.146.059.193.5a6.941,6.941,0,0,0,.174.907c.044.18.088.361.116.543.021.138.035.29.05.445.075.773.249,2.582,1.96,2.582a2.347,2.347,0,0,0,.414-.039,1.984,1.984,0,0,0,1.421-.874,2.688,2.688,0,0,0,.017-2.23,4.129,4.129,0,0,1-.146-.579,4.329,4.329,0,0,0-.1-.5l0-.015a14.487,14.487,0,0,1,2.316.269c.651.11,1.325.224,2.017.273a20.307,20.307,0,0,1,8.148,2.873,8.112,8.112,0,0,0,3.919,1.113,6.84,6.84,0,0,0,3.394-.937c1.952-1.105,2.914-3.859,1.98-5.667A1.76,1.76,0,0,0,77.02,12.2a1.709,1.709,0,0,0-.549.093,1.65,1.65,0,0,0-1.083,1.882A1.73,1.73,0,0,1,74.1,16.278a2.946,2.946,0,0,1-1.061.207,3.147,3.147,0,0,1-2.126-.919c-.373-.339-.739-.7-1.119-1.081.592-.308,1.156-.607,1.706-.943a8,8,0,0,0,3.7-5.172,4.616,4.616,0,0,0-.837-3.933A4.041,4.041,0,0,0,71.19,2.9c-.083,0-.167,0-.252.008A6.242,6.242,0,0,0,65.7,7.2a13.456,13.456,0,0,0-.291,5.976l-4.438-.765c.24-.136.482-.278.721-.43A4.109,4.109,0,0,0,63.6,7.569C63.09,4.155,61.023,1.79,57.286.338A5.055,5.055,0,0,0,55.422,0Zm.043,3.492a.573.573,0,0,1,.083-.006h0a3.542,3.542,0,0,1,1.306.41A5.521,5.521,0,0,1,59.78,6.8c.552,1.311.3,2.064-.9,2.686a3.649,3.649,0,0,1-.369.155l-.2.08a8.345,8.345,0,0,1-2.264.7.337.337,0,0,1-.12-.014c-.131-.086-.344-.565-.612-2.357a8.5,8.5,0,0,0-.225-.985c-.2-.717-.295-1.14-.072-1.5a1,1,0,0,0,.146-.479c.058-1.333.285-1.58.308-1.6Zm13.2,7.153c-.024-1.677.2-2.753,1.456-3.536a2.781,2.781,0,0,1,.984-.476c.028,0,.086,0,.206.105.173.152.579.508.123,1.4a4.9,4.9,0,0,1-2.769,2.511Z" transform="translate(0 0)"/>
  </g>
  <g>
    <path class="cls-1" d="M34.472,53.609c-1.97,0-3.693-1.193-4.986-3.453a11.694,11.694,0,0,1,.035-8.271,4.641,4.641,0,0,1,3.669-2.413,2.942,2.942,0,0,1,.525-.047,3.084,3.084,0,0,1,2.518,1.38,3.36,3.36,0,0,1,.379,3.106c-.631,1.644-1.684,3.561-4.246,3.806a2.439,2.439,0,0,0-.621.187c.408,2.6,1.751,2.965,2.746,3.011l.107,0a4.116,4.116,0,0,0,3.484-3.039c.245-.765.367-2.479-.439-6.3-.031-.147-.052-.247-.058-.286a2.063,2.063,0,0,1,.336-1.63,1.785,1.785,0,0,1,1.318-.642c.062,0,.12-.008.178-.008a1.445,1.445,0,0,1,1.1.442,1.975,1.975,0,0,1,.421,1.523,29.283,29.283,0,0,0,1.053,4.629,36.551,36.551,0,0,1,2.342-5.315,3.718,3.718,0,0,1,3.1-1.712,3.3,3.3,0,0,1,2.426,1.041c2.58,2.733,3.74,6.247,3.545,10.74a1.194,1.194,0,0,1-1.223,1.248,1.7,1.7,0,0,1-.341-.035,1.892,1.892,0,0,1-1.335-.914,1.283,1.283,0,0,1-.021-1.135,5.023,5.023,0,0,0-.077-3.549c-.091-.341-.181-.682-.254-1.025a6.8,6.8,0,0,0-1.231-2.606,1.828,1.828,0,0,0-1.38-.886,1.771,1.771,0,0,0-1.416,1.045c-1.25,2.128-1.518,4.5-1.8,7.009l-.014.125c-.025.226-.027.455-.03.685a6.027,6.027,0,0,1-.07,1.015A1.613,1.613,0,0,1,41,51.354c-.026-.177-.049-.353-.071-.529a7.328,7.328,0,0,0-.325-1.6,6.854,6.854,0,0,1-2.625,3.209A6.517,6.517,0,0,1,34.472,53.609ZM33.429,42.467a1.2,1.2,0,0,0-.3.044c-1.07.277-1.436.46-1.686,2.456,1.721-.438,2.023-.732,2.384-1.523.22-.481.213-.616.082-.753A.611.611,0,0,0,33.429,42.467Z" transform="translate(0 0)"/>
    <path class="cls-2" d="M47.44,39.082a2.8,2.8,0,0,1,2.062.884c2.738,2.9,3.577,6.49,3.408,10.376-.022.507-.3.77-.723.77a1.234,1.234,0,0,1-.241-.025c-.722-.144-1.291-.705-1-1.353.78-1.726.043-3.276-.3-4.883a7.352,7.352,0,0,0-1.316-2.8,2.286,2.286,0,0,0-1.785-1.091A2.234,2.234,0,0,0,45.7,42.253c-1.325,2.256-1.595,4.8-1.881,7.331-.062.553,0,1.124-.1,1.668a1.13,1.13,0,0,1-1.1,1.069h0A1.117,1.117,0,0,1,41.5,51.279a6.323,6.323,0,0,0-.983-3.261,6.863,6.863,0,0,1-2.805,3.995,6,6,0,0,1-3.239,1.1c-1.995,0-3.517-1.393-4.552-3.2a11.232,11.232,0,0,1,.054-7.81,4.235,4.235,0,0,1,3.307-2.134,2.431,2.431,0,0,1,.436-.04,2.79,2.79,0,0,1,2.429,3.808c-.672,1.75-1.669,3.28-3.827,3.486a5.465,5.465,0,0,0-1.122.355c.281,2.5,1.36,3.753,3.273,3.839l.13,0c1.724,0,3.369-1.536,3.96-3.387.65-2.036-.432-6.5-.479-6.811-.146-.944.234-1.619,1.2-1.7q.072-.006.139-.006c.827,0,1.081.654,1.024,1.429-.071.977,1.493,6.279,1.493,6.279a51.249,51.249,0,0,1,2.818-6.654,3.236,3.236,0,0,1,2.686-1.487M30.868,45.621c2.4-.556,2.909-.864,3.413-1.969.2-.442.377-.9-.01-1.306a1.111,1.111,0,0,0-.842-.379,1.7,1.7,0,0,0-.426.06c-1.514.394-1.875.915-2.134,3.594M47.44,38.082h0a4.218,4.218,0,0,0-3.523,1.939A26.943,26.943,0,0,0,42.077,44a19.444,19.444,0,0,1-.637-2.986,2.446,2.446,0,0,0-.553-1.895,1.933,1.933,0,0,0-1.469-.6q-.106,0-.219.009a2.271,2.271,0,0,0-1.671.83,2.511,2.511,0,0,0-.438,2.015l0,.025a3.92,3.92,0,0,0-.451-.874,3.584,3.584,0,0,0-2.929-1.6,3.446,3.446,0,0,0-.615.056,5.108,5.108,0,0,0-4.033,2.692,12.078,12.078,0,0,0-.017,8.732c1.367,2.389,3.292,3.705,5.42,3.705a7.6,7.6,0,0,0,5.938-3.43l.026.2c.023.182.046.363.073.543a2.112,2.112,0,0,0,4.2,0,6.6,6.6,0,0,0,.078-1.1c0-.228.005-.442.027-.635l.014-.122c.277-2.457.54-4.778,1.736-6.815.3-.507.657-.8.985-.8a1.39,1.39,0,0,1,.977.681,6.31,6.31,0,0,1,1.145,2.415c.075.351.167.7.259,1.048a4.587,4.587,0,0,1,.106,3.216,1.772,1.772,0,0,0,.031,1.568,2.394,2.394,0,0,0,1.682,1.177,2.238,2.238,0,0,0,.438.045,1.7,1.7,0,0,0,1.722-1.726c.2-4.636-1-8.269-3.68-11.106a3.8,3.8,0,0,0-2.789-1.2ZM32.312,48.232a.681.681,0,0,1,.1-.019c2.868-.274,4.036-2.484,4.666-4.123a3.816,3.816,0,0,0,.249-1.546c.623,3.279.45,4.645.28,5.18A3.659,3.659,0,0,1,34.6,50.415l-.085,0c-.879-.04-1.805-.348-2.2-2.181Zm-.262-3.955c.2-1.022.492-1.1,1.2-1.283a.715.715,0,0,1,.175-.028.09.09,0,0,1,.051.01c-.021.062-.057.148-.108.26-.219.481-.331.726-1.321,1.04Z" transform="translate(0 0)"/>
  </g>
  <g>
    <path class="cls-1" d="M130.43,24.386a1.267,1.267,0,0,1-.945-.357,2.035,2.035,0,0,1-.383-1.522,18.59,18.59,0,0,1,.326-2.714,14.9,14.9,0,0,0,.311-3l-.006-.187c-.056-1.874-.056-1.874-1.136-1.874-.271,0-.592.009-.968.021a4.46,4.46,0,0,0-1.245.117,4.7,4.7,0,0,0,0,1.233l.013.22a3.32,3.32,0,0,0,.823,2.522,1.5,1.5,0,0,1,.068,2.112,1.5,1.5,0,0,1-1.323.773c-.049,0-.1,0-.149-.007-.817-.066-1.3-.6-1.434-1.6l-.065-.477c-.172-1.266-.344-2.531-.479-3.8l-.017-.166c-.052-.549-.056-.549-.3-.549a1.493,1.493,0,0,0-.168.01,1.8,1.8,0,0,1-.2.011,1.444,1.444,0,0,1-1.078-.446,1.716,1.716,0,0,1-.427-1.3,1.49,1.49,0,0,1,1.687-1.368h0a.568.568,0,0,0,.378-.085.679.679,0,0,0,.079-.444,9.714,9.714,0,0,1,.014-1.012c.08-1.451.044-2.27-.376-2.713a2.853,2.853,0,0,0-2.051-.525c-.127,0-.259,0-.4.008.01.723.008,1.44.007,2.153a29.175,29.175,0,0,0,.9,8.979,3.264,3.264,0,0,1,.1,2.462,1.338,1.338,0,0,1-.936.625,1.837,1.837,0,0,1-.351.035c-1.34,0-1.472-1.507-1.55-2.407l-.014-.158c-.124-1.37-.261-2.74-.4-4.11-.239-2.4-.487-4.873-.659-7.317-.061-.87-.188-.945-.812-.945l-.61,0c-1.37,0-2.494-.044-3.536-.138a1.854,1.854,0,0,1-1.393-.643,1.384,1.384,0,0,1-.208-1.148A1.512,1.512,0,0,1,113.1,3.394a2.428,2.428,0,0,1,.52.059,48.172,48.172,0,0,0,4.816.714,36.77,36.77,0,0,1,6.537,1.149c.138.042.277.077.418.113a2.8,2.8,0,0,1,1.93,1.16l.116.184a1.812,1.812,0,0,1,.422,1.461,1.641,1.641,0,0,1-.961.976,4.34,4.34,0,0,0-.613,2.655,2.173,2.173,0,0,0,1.255.3c.254,0,.512-.02.771-.039.285-.021.57-.041.854-.041a4.226,4.226,0,0,1,.746.06.634.634,0,0,0,.1.01c.119-.066.172-.412.2-.6l.016-.1a17.08,17.08,0,0,0,.3-3.458,10.255,10.255,0,0,1,.065-2.011,1.4,1.4,0,0,1,1.483-1.295,2.7,2.7,0,0,1,.552.062c1.165.243.973,1.3.9,1.7-.107.595-.223,1.188-.339,1.783-.2,1.025-.406,2.087-.562,3.132-.1.678-.014.818,0,.84s.081.081.469.081c.113,0,.239-.006.377-.017a3.647,3.647,0,0,0,.508-.092,3.69,3.69,0,0,1,.829-.121,1.921,1.921,0,0,1,.478.059,1.617,1.617,0,0,1,1.263,1.458c.078,1.064-.93,1.261-1.36,1.345a2.58,2.58,0,0,1-.484.036l-.146-.5v.5l-.156,0c-2.221.12-2.221.12-2.238,2.187A15.353,15.353,0,0,1,132,19a7.738,7.738,0,0,0,.024,3.206,1.77,1.77,0,0,1-.256,1.534,1.612,1.612,0,0,1-1.3.644Z" transform="translate(0 0)"/>
    <path class="cls-2" d="M113.1,3.894a1.947,1.947,0,0,1,.414.047c3.74.818,7.626.737,11.316,1.853.757.229,1.6.293,2.066,1.057.412.673.988,1.313-.219,1.91-.652.322-1.233,3.074-.753,3.437a2.546,2.546,0,0,0,1.616.467c.533,0,1.083-.08,1.623-.08a3.782,3.782,0,0,1,.661.052,1.073,1.073,0,0,0,.187.018c.574,0,.624-.579.709-1.123a17.533,17.533,0,0,0,.309-3.558,9.8,9.8,0,0,1,.06-1.913.911.911,0,0,1,.99-.869,2.209,2.209,0,0,1,.449.051c.662.139.6.646.511,1.12-.3,1.645-.659,3.279-.9,4.931-.169,1.14.04,1.494.969,1.494.125,0,.264-.006.416-.018.434-.034.856-.211,1.3-.211a1.4,1.4,0,0,1,.354.043,1.115,1.115,0,0,1,.889,1.01c.045.607-.49.727-.958.817a2.063,2.063,0,0,1-.392.028h-.139c-.062,0-.125,0-.187,0-2.649.142-2.69.142-2.712,2.681-.015,1.732-.631,3.431-.121,5.206a1.155,1.155,0,0,1-1.088,1.54h-.029c-.884,0-.841-.813-.826-1.412.047-1.913.7-3.752.635-5.7-.069-2.219-.03-2.546-1.64-2.546-.276,0-.6.01-.985.021-1.841.055-1.84.055-1.726,1.887.069,1.112.074,2.241,1,3.077.561.506.264,1-.032,1.495a.987.987,0,0,1-.889.519c-.035,0-.071,0-.108,0-.7-.058-.9-.582-.979-1.167-.193-1.42-.39-2.839-.542-4.263-.065-.613-.042-1.162-.814-1.162a2.051,2.051,0,0,0-.223.013,1.341,1.341,0,0,1-.146.008,1.03,1.03,0,0,1-1.006-1.215c.038-.657.575-.9,1.186-.9h.028c.719,0,.962-.388.929-1.054a9.218,9.218,0,0,1,.014-.959c.137-2.492.013-3.766-2.925-3.766q-.415,0-.907.034c.084,4.052-.26,7.944.934,11.755.254.811.682,2.226-.451,2.446a1.331,1.331,0,0,1-.255.026c-.937,0-.984-1.208-1.066-2.11-.345-3.807-.789-7.606-1.057-11.418-.072-1.022-.323-1.411-1.312-1.411h-.033l-.6,0c-1.157,0-2.316-.032-3.466-.136-.613-.055-1.34-.3-1.156-1.193a1.015,1.015,0,0,1,1.083-.867m0-1a2.007,2.007,0,0,0-2.062,1.665,1.872,1.872,0,0,0,.3,1.548,2.322,2.322,0,0,0,1.749.842c1.054.1,2.184.14,3.556.14l.61,0h0a1.774,1.774,0,0,1,.272.016,2.456,2.456,0,0,1,.065.464c.172,2.455.421,4.939.661,7.341.137,1.365.273,2.731.4,4.1l.014.156c.081.929.249,2.864,2.048,2.864a2.338,2.338,0,0,0,.446-.045,1.825,1.825,0,0,0,1.27-.859,3.64,3.64,0,0,0-.055-2.868,17.628,17.628,0,0,1-.668-3.222l.017.019a1.957,1.957,0,0,0,1.442.6q.08,0,.164-.006l.008.081.017.172c.138,1.3.317,2.613.489,3.881l.056.411a2.041,2.041,0,0,0,1.888,2.029q.1.008.189.008a1.974,1.974,0,0,0,1.748-1.008,2.012,2.012,0,0,0-.158-2.749c-.534-.482-.6-1.141-.658-2.176l-.013-.22c-.018-.289-.036-.583-.039-.792.21-.016.507-.025.8-.034.371-.011.687-.021.955-.021a4.163,4.163,0,0,1,.55.026,11.691,11.691,0,0,1,.084,1.361l.006.189a14.534,14.534,0,0,1-.3,2.9,18.869,18.869,0,0,0-.331,2.743,2.51,2.51,0,0,0,.523,1.928,1.754,1.754,0,0,0,1.3.509,2.129,2.129,0,0,0,1.743-.846,2.276,2.276,0,0,0,.335-1.97,7.358,7.358,0,0,1-.009-3,15.834,15.834,0,0,0,.169-1.919,8.954,8.954,0,0,1,.085-1.528,9.751,9.751,0,0,1,1.674-.163c.051,0,.1,0,.14,0h.139a2.994,2.994,0,0,0,.583-.046c1.245-.241,1.839-.871,1.765-1.872a2.1,2.1,0,0,0-1.636-1.9,2.412,2.412,0,0,0-.6-.075,4.1,4.1,0,0,0-.941.134,3.288,3.288,0,0,1-.432.081c-.124.01-.237.015-.339.015h-.018c.005-.085.017-.2.039-.348.153-1.033.359-2.088.557-3.108.116-.6.233-1.194.341-1.793.3-1.682-.679-2.148-1.29-2.276a3.21,3.21,0,0,0-.653-.072A1.907,1.907,0,0,0,130.1,5.912a10.857,10.857,0,0,0-.07,2.109,16.609,16.609,0,0,1-.3,3.356l-.016.1c-.006.039-.013.083-.02.129a5.175,5.175,0,0,0-.533-.026c-.295,0-.593.021-.889.043-.246.018-.492.037-.733.037a1.877,1.877,0,0,1-.8-.135A4.862,4.862,0,0,1,127.22,9.6a2.043,2.043,0,0,0,1.118-1.236,2.262,2.262,0,0,0-.483-1.864l-.11-.175a3.294,3.294,0,0,0-2.233-1.384c-.133-.034-.266-.068-.4-.107a37.127,37.127,0,0,0-6.627-1.168,47.632,47.632,0,0,1-4.765-.705,2.945,2.945,0,0,0-.628-.07Zm8.417,9.45c-.027-.955-.025-1.925-.023-2.913,0-.553,0-1.108,0-1.667a2.422,2.422,0,0,1,1.58.368c.322.34.295,1.343.24,2.342a10.118,10.118,0,0,0-.014,1.064v.005a2.2,2.2,0,0,0-1.782.8Z" transform="translate(0 0)"/>
  </g>
  <g>
    <path class="cls-1" d="M13.894,58.188c-.5,0-1.022-.029-1.7-.093a2.527,2.527,0,0,1-1.82-1.263,3.231,3.231,0,0,1-.415-2.74A55.16,55.16,0,0,1,12.25,48.53c.593-1.211.7-1.943-.233-3.087A15.387,15.387,0,0,1,8.5,37.936a6.411,6.411,0,0,1,1.118-4.6,3.434,3.434,0,0,1,2.956-1.649,3.978,3.978,0,0,1,.662.056,4.567,4.567,0,0,1,3.71,3.083,10.4,10.4,0,0,1,.262,5.714,22.957,22.957,0,0,1-1.024,3.513c-.651,1.755-.368,2.909.947,3.86a10.658,10.658,0,0,1,1.294,1.174l.2.2.077-.163c.255-.539.465-.981.7-1.412a1.167,1.167,0,0,1,1.036-.629,1.3,1.3,0,0,1,.343.047,1.1,1.1,0,0,1,.792,1.266,9.2,9.2,0,0,1-.188,1.494c-.343,1.627-.343,1.627,1.044,2.6,1.153.811,1.742,1.555,1.749,2.213a1.069,1.069,0,0,1-.46.888,1.671,1.671,0,0,1-1,.361h0a2.358,2.358,0,0,1-1.427-.655,2.8,2.8,0,0,0-.582-.389,2.237,2.237,0,0,1-.679-.5,3.1,3.1,0,0,0-.279-.246c-.7,1.6-1.454,3.219-3.583,3.76A9.133,9.133,0,0,1,13.894,58.188Zm.87-9.253a31.2,31.2,0,0,0-1.745,4.575l-.283.872a.755.755,0,0,0-.018.595,1.209,1.209,0,0,0,.8.389,4.012,4.012,0,0,0,.791.087c.952,0,1.8-.417,2.862-2.453.155-.3.295-.523.409-.706a2.154,2.154,0,0,0,.2-.358,8.239,8.239,0,0,0-1.026-1.09l-.333-.328c-.169-.167-.331-.345-.494-.523A5.455,5.455,0,0,0,14.764,48.935ZM12.729,34.46c-.777.037-1.189.419-1.522,1.41a4.335,4.335,0,0,0-.122,1.69,11.183,11.183,0,0,0,2.711,6.3,21.4,21.4,0,0,0,1.047-6.054,4.513,4.513,0,0,0-.566-2.259c-.43-.809-.809-1.095-1.447-1.095Z" transform="translate(0 0)"/>
    <path class="cls-2" d="M12.573,32.188a3.514,3.514,0,0,1,.579.049A4.053,4.053,0,0,1,16.475,35a9.956,9.956,0,0,1,.241,5.444,22.577,22.577,0,0,1-1,3.436c-.656,1.768-.517,3.253,1.123,4.44a21.945,21.945,0,0,1,1.936,1.814c.446-.925.731-1.568,1.064-2.185a.661.661,0,0,1,.595-.366.813.813,0,0,1,.213.029c.389.106.435.456.423.764a8.547,8.547,0,0,1-.178,1.41c-.409,1.946-.417,1.944,1.246,3.113,1.389.976,1.891,1.839,1.28,2.289a1.177,1.177,0,0,1-.7.264c-.682,0-1.2-.749-1.816-1.005-.484-.2-.746-.83-1.416-.924-.733,1.673-1.361,3.39-3.44,3.918a8.653,8.653,0,0,1-2.146.246c-.554,0-1.106-.039-1.654-.09-1.264-.119-2.284-2.028-1.812-3.335A55.226,55.226,0,0,1,12.7,48.749a2.864,2.864,0,0,0-.295-3.622,14.977,14.977,0,0,1-3.413-7.266A6,6,0,0,1,10.04,33.6a2.922,2.922,0,0,1,2.533-1.416M13.99,44.9a23.123,23.123,0,0,0,1.351-7.083,5.03,5.03,0,0,0-.625-2.5,2.053,2.053,0,0,0-1.888-1.359l-.123,0c-1.157.055-1.649.784-1.973,1.751a4.767,4.767,0,0,0-.147,1.882c.185,2.727,1.431,4.956,3.4,7.307m.322,11.052c1.338,0,2.291-.773,3.305-2.722.818-1.572,1.215-1.035-.843-3.068a6.927,6.927,0,0,0-2.225-1.893,34.33,34.33,0,0,0-2.289,5.957c-.329,1,.23,1.443,1.161,1.629a4.535,4.535,0,0,0,.89.1M12.573,31.188h0a3.926,3.926,0,0,0-3.38,1.884A7.064,7.064,0,0,0,8,38.01a15.865,15.865,0,0,0,3.627,7.749c.765.938.717,1.436.172,2.551a56.741,56.741,0,0,0-2.316,5.613A3.737,3.737,0,0,0,9.947,57.1a3.019,3.019,0,0,0,2.2,1.492c.7.066,1.235.095,1.748.095a9.621,9.621,0,0,0,2.392-.277A5.393,5.393,0,0,0,19.921,55a2.214,2.214,0,0,0,.589.373,2.692,2.692,0,0,1,.467.321,2.825,2.825,0,0,0,1.733.761,2.167,2.167,0,0,0,1.3-.458,1.559,1.559,0,0,0,.663-1.3c-.009-.839-.651-1.7-1.961-2.616a6.039,6.039,0,0,1-1.048-.82,6.1,6.1,0,0,1,.2-1.246,9.617,9.617,0,0,0,.2-1.6,1.586,1.586,0,0,0-1.16-1.77,1.813,1.813,0,0,0-.474-.064,1.658,1.658,0,0,0-1.475.892c-.165.307-.319.619-.481.956a9,9,0,0,0-1.052-.922c-1.128-.816-1.345-1.737-.772-3.282A23.41,23.41,0,0,0,17.7,40.638a10.885,10.885,0,0,0-.283-5.983,5.045,5.045,0,0,0-4.1-3.4,4.532,4.532,0,0,0-.744-.063Zm1.021,11.564a10.026,10.026,0,0,1-2.011-5.227,3.923,3.923,0,0,1,.1-1.5c.3-.88.581-1.046,1.073-1.07l.076,0c.33,0,.6.059,1,.829a4.033,4.033,0,0,1,.508,2.018,19.679,19.679,0,0,1-.748,4.948Zm-.427,11.974a.867.867,0,0,1,.044-.189l.283-.872A34.894,34.894,0,0,1,14.948,49.7c.207.187.4.4.612.632.169.185.336.369.512.542l.335.33c.308.3.6.593.777.784l-.026.041c-.119.191-.266.427-.428.739-1.049,2.015-1.77,2.184-2.418,2.184a3.527,3.527,0,0,1-.694-.077,1.436,1.436,0,0,1-.451-.148Z" transform="translate(0 0)"/>
  </g>
  <g>
    <path class="cls-1" d="M49.069,85.439a16.763,16.763,0,0,1-2.549-.26c-1.249-.194-1.386-1.469-1.431-1.888a22.179,22.179,0,0,0-1.578-5.576l-.063-.168a3.493,3.493,0,0,0-.84-1.46,1.917,1.917,0,0,1-.556-1.892,1.665,1.665,0,0,1,1.226-1.224c.584-.141,1.161-.316,1.746-.494a15.857,15.857,0,0,1,4.762-.9c.153,0,.308,0,.464.011.354.06.668.086,1,.114a5.908,5.908,0,0,1,3.466,1.131,4.753,4.753,0,0,1,1.847,4.682,10.715,10.715,0,0,1-4.152,6.91,5.355,5.355,0,0,1-3.336,1.018ZM49.788,74a17.936,17.936,0,0,1-1.931.395c-.37.062-.747.125-1.121.2a1.164,1.164,0,0,0-.782.4,1.916,1.916,0,0,0-.024,1.358,15.355,15.355,0,0,0,.939,2.671c.181.427.36.854.522,1.287.528,1.409,1.359,2.186,2.338,2.186a3.276,3.276,0,0,0,2.093-.986,6.084,6.084,0,0,0,1.633-2.587c.555-1.521.571-2.689.051-3.475C52.939,74.6,51.689,74.111,49.788,74Z" transform="translate(0 0)"/>
    <path class="cls-2" d="M49.785,72.074q.218,0,.442.01c1.194.218,2.8.021,4.168,1.134a4.257,4.257,0,0,1,1.668,4.21,10.171,10.171,0,0,1-3.958,6.594,4.856,4.856,0,0,1-3.036.918,16.3,16.3,0,0,1-2.473-.254c-.735-.114-.938-.774-1.01-1.447a22.729,22.729,0,0,0-1.608-5.7,4.3,4.3,0,0,0-1.029-1.814,1.319,1.319,0,0,1,.446-2.263c2.026-.489,3.973-1.385,6.39-1.385M49.73,83a3.727,3.727,0,0,0,2.427-1.115A6.654,6.654,0,0,0,53.925,79.1c1.194-3.274.155-5.382-4.2-5.6-.9.271-2.009.391-3.091.608-1.238.248-1.5.965-1.2,2.356a29.591,29.591,0,0,0,1.483,4.028C47.542,82.14,48.557,83,49.73,83m.055-11.928A16.243,16.243,0,0,0,44.879,72c-.593.18-1.153.35-1.718.487A2.156,2.156,0,0,0,41.57,74.07a2.418,2.418,0,0,0,.7,2.384,3.025,3.025,0,0,1,.71,1.265l.067.176a21.754,21.754,0,0,1,1.547,5.45c.184,1.716,1.108,2.213,1.85,2.329a17.155,17.155,0,0,0,2.627.266,5.836,5.836,0,0,0,3.636-1.117A11.2,11.2,0,0,0,57.05,77.6a5.228,5.228,0,0,0-2.023-5.155A6.326,6.326,0,0,0,51.289,71.2c-.322-.028-.626-.054-.882-.1a1,1,0,0,0-.134-.015q-.247-.011-.488-.011ZM49.73,82c-1.02,0-1.609-1.166-1.87-1.861-.165-.439-.347-.871-.529-1.3a14.919,14.919,0,0,1-.913-2.587c-.167-.764-.059-.958-.046-.978.026-.039.152-.123.462-.185.369-.074.742-.136,1.108-.2a18.949,18.949,0,0,0,1.9-.383c1.2.076,2.672.354,3.247,1.221.428.646.394,1.664-.1,3.027a5.624,5.624,0,0,1-1.5,2.387A2.8,2.8,0,0,1,49.73,82Z" transform="translate(0 0)"/>
  </g>
  <g>
    <path class="cls-1" d="M9.967,22.6a1.37,1.37,0,0,1-1.2-.767,39.253,39.253,0,0,0-3.483-5.087A33.125,33.125,0,0,1,1.1,10.263l-.142-.3a2.712,2.712,0,0,1,.129-3.178.5.5,0,0,1,.408-.212h.019a.5.5,0,0,1,.41.243c.423.705.824,1.409,1.222,2.106a34.307,34.307,0,0,0,3.649,5.553L6.711,14.1Q6.15,11.5,5.6,8.9c-.257-1.223-.465-2.242-.613-3.313A1.67,1.67,0,0,1,5.3,4.247a1.561,1.561,0,0,1,1.189-.531l.12,0a1.517,1.517,0,0,1,1.136.418,1.669,1.669,0,0,1,.4,1.263c-.127,4.161,1.066,8.173,2.22,12.053q.258.866.511,1.73a5.34,5.34,0,0,0,.188.51,3.323,3.323,0,0,1,.315,1.2,1.6,1.6,0,0,1-1.02,1.646,1.361,1.361,0,0,1-.4.061Z" transform="translate(0 0)"/>
    <path class="cls-2" d="M6.611,4.212c.723,0,1.061.388,1.037,1.166C7.5,10.232,9.074,14.75,10.4,19.315a6.536,6.536,0,0,1,.484,1.581,1.118,1.118,0,0,1-.668,1.161.833.833,0,0,1-.247.039.873.873,0,0,1-.755-.5c-2.2-4.078-5.749-7.259-7.658-11.532C1.169,9.2.563,8.39,1.493,7.072c1.954,3.259,3.454,6.505,6.16,9.017C7.13,13.658,6.6,11.228,6.089,8.795c-.228-1.088-.455-2.18-.608-3.28a1.015,1.015,0,0,1,1.031-1.3l.1,0m0-1h0q-.07,0-.144,0a2.052,2.052,0,0,0-1.552.71,2.136,2.136,0,0,0-.425,1.726c.16,1.159.4,2.322.619,3.348q.356,1.7.723,3.394c-.8-1.17-1.517-2.426-2.254-3.719-.4-.7-.8-1.409-1.228-2.118a1,1,0,0,0-.821-.485H1.493A1,1,0,0,0,.676,6.5a3.205,3.205,0,0,0-.17,3.683c.046.1.093.192.136.288a33.477,33.477,0,0,0,4.25,6.578,38.394,38.394,0,0,1,3.441,5.022A1.862,1.862,0,0,0,9.967,23.1a1.834,1.834,0,0,0,.543-.084,2.06,2.06,0,0,0,1.372-2.13A3.76,3.76,0,0,0,11.53,19.5a4.881,4.881,0,0,1-.171-.462q-.252-.867-.511-1.732c-1.195-4.019-2.324-7.815-2.2-11.9A2.147,2.147,0,0,0,8.1,3.782a2,2,0,0,0-1.493-.57Z" transform="translate(0 0)"/>
  </g>
  <g>
    <path class="cls-1" d="M67.107,86.115a7.628,7.628,0,0,1-1.427-.138,6.61,6.61,0,0,1-5.474-4.5,10.739,10.739,0,0,1,1.244-9.369,5.179,5.179,0,0,1,4.566-2.677c.17,0,.345.008.521.022a2.312,2.312,0,0,1,2,1.159,1.793,1.793,0,0,1-.176,2.138,1.268,1.268,0,0,1-.962.435,2.41,2.41,0,0,1-.91-.228,3.883,3.883,0,0,0-1.44-.373c-.512,0-1,.209-1.724,1.229-.808,1.138-1,2.063-.945,4.5.079,3.418,1.032,4.709,3.774,5.117a8.12,8.12,0,0,0,1.168.106,1.924,1.924,0,0,0,2.052-1.382,2.033,2.033,0,0,1,2.069-1.146s.3-.019.349-.019a1.54,1.54,0,0,1,1.493,1.03,1.442,1.442,0,0,1-.425,1.649A8.851,8.851,0,0,1,67.107,86.115Z" transform="translate(0 0)"/>
    <path class="cls-2" d="M66.017,69.935q.235,0,.481.02a1.859,1.859,0,0,1,1.6.9,1.3,1.3,0,0,1-.1,1.563.772.772,0,0,1-.594.273,1.947,1.947,0,0,1-.718-.19,4.365,4.365,0,0,0-1.633-.411c-.826,0-1.434.456-2.131,1.44-.873,1.231-1.1,2.262-1.037,4.8.083,3.607,1.194,5.153,4.2,5.6a8.537,8.537,0,0,0,1.24.112,2.41,2.41,0,0,0,2.52-1.706c.306-.815,1.14-.783,1.84-.837q.056,0,.111,0a1.034,1.034,0,0,1,1.023.705.941.941,0,0,1-.276,1.091,8.439,8.439,0,0,1-5.438,2.326,7.11,7.11,0,0,1-1.333-.129,6.109,6.109,0,0,1-5.094-4.164,10.278,10.278,0,0,1,1.2-8.949,4.68,4.68,0,0,1,4.14-2.437m0-1h0a5.658,5.658,0,0,0-4.993,2.915,11.221,11.221,0,0,0-1.292,9.789,7.082,7.082,0,0,0,5.855,4.828,8.152,8.152,0,0,0,1.521.147,9.55,9.55,0,0,0,6.079-2.558,1.952,1.952,0,0,0,.571-2.208A2.021,2.021,0,0,0,71.8,80.493q-.093,0-.188.007l-.194.013a2.508,2.508,0,0,0-2.506,1.47,1.424,1.424,0,0,1-1.584,1.057,7.661,7.661,0,0,1-1.093-.1c-2.462-.367-3.276-1.493-3.349-4.634-.057-2.463.174-3.241.853-4.2.666-.94,1.015-1.018,1.316-1.018a3.505,3.505,0,0,1,1.248.334,2.844,2.844,0,0,0,1.1.267,1.772,1.772,0,0,0,1.33-.6,2.272,2.272,0,0,0,.249-2.712,2.788,2.788,0,0,0-2.4-1.423q-.287-.024-.564-.024Z" transform="translate(0 0)"/>
  </g>
  <g>
    <path class="cls-1" d="M70.615,52.468c-2.21,0-3.87-1.456-4.553-4a7.236,7.236,0,0,1-.239-3.8,7.887,7.887,0,0,0,.172-.93c.154-1.046.345-2.347,1.733-2.906a10.35,10.35,0,0,1,3.8-.937,5.211,5.211,0,0,1,2.768.774A2.93,2.93,0,0,1,75.728,42.4c.081.308.179.612.275.916a6.606,6.606,0,0,1,.463,2.909c.079,2.79-1.011,4.672-3.328,5.671a6.394,6.394,0,0,1-2.521.569Zm.514-9.428c-1.253,0-1.989.277-2.317.874a4.676,4.676,0,0,0-.293,4.151A2.652,2.652,0,0,0,70.845,49.9a2.853,2.853,0,0,0,1.841-.786,3.113,3.113,0,0,0,1.286-2.705c-.025-.164-.051-.363-.075-.562a10.73,10.73,0,0,0-.2-1.233,1.726,1.726,0,0,0-1.671-1.536C71.733,43.056,71.431,43.041,71.129,43.041Z" transform="translate(0 0)"/>
    <path class="cls-2" d="M71.528,40.4a4.744,4.744,0,0,1,2.51.7,2.483,2.483,0,0,1,1.206,1.432,9.6,9.6,0,0,1,.726,3.63c.064,2.452-.762,4.3-3.031,5.279a5.9,5.9,0,0,1-2.323.528c-1.952,0-3.439-1.277-4.07-3.625A6.813,6.813,0,0,1,66.3,44.8c.341-1.234.112-2.9,1.61-3.505a9.861,9.861,0,0,1,3.613-.9M70.845,50.4a3.334,3.334,0,0,0,2.168-.908A3.617,3.617,0,0,0,74.47,46.37c-.093-.626-.139-1.263-.289-1.875a2.22,2.22,0,0,0-2.119-1.917c-.3-.022-.617-.039-.931-.039a2.92,2.92,0,0,0-2.758,1.133,5.117,5.117,0,0,0-.312,4.593A3.135,3.135,0,0,0,70.845,50.4M71.528,39.4a10.774,10.774,0,0,0-3.988.974c-1.653.667-1.877,2.187-2.04,3.3a7.569,7.569,0,0,1-.16.869A7.687,7.687,0,0,0,65.58,48.6c.746,2.774,2.582,4.365,5.036,4.365a6.89,6.89,0,0,0,2.719-.61c2.471-1.065,3.694-3.133,3.636-6.147a7.146,7.146,0,0,0-.494-3.048c-.094-.295-.189-.59-.267-.889a3.411,3.411,0,0,0-1.656-2.033,5.781,5.781,0,0,0-3.026-.847ZM70.845,49.4a2.182,2.182,0,0,1-1.868-1.537,4.118,4.118,0,0,1,.273-3.709c.084-.152.339-.615,1.882-.615.252,0,.525.012.857.036.589.044,1,.253,1.222,1.159a10.247,10.247,0,0,1,.19,1.173c.024.191.048.383.075.573a2.631,2.631,0,0,1-1.117,2.257,2.372,2.372,0,0,1-1.513.663Z" transform="translate(0 0)"/>
  </g>
  <g>
    <path class="cls-1" d="M85.064,53.708c-.448,0-1.235-.217-1.468-1.669-.124-.777-.273-1.551-.422-2.323-.167-.867-.334-1.733-.467-2.605a3.06,3.06,0,0,0-1.874-2.7,7.2,7.2,0,0,1-3.59-3.833l-.052-.124a5.879,5.879,0,0,1-.374-1.081,1.377,1.377,0,0,1,1.028-1.65,1.536,1.536,0,0,1,.5-.089,1.269,1.269,0,0,1,1.229,1.052A4.129,4.129,0,0,0,80.6,40.764a8.159,8.159,0,0,0,3.666,1.353A.8.8,0,0,0,84.8,42c.858-.73,1.372-1.251,1.271-2.31a.923.923,0,0,0-.719-1.049,1.2,1.2,0,0,1-.749-.614,1.232,1.232,0,0,1-.013-.982,1.391,1.391,0,0,1,1.382-.925,2.316,2.316,0,0,1,.323.024,3.038,3.038,0,0,1,2.249,1.784,4.34,4.34,0,0,1-.111,4.012A5.788,5.788,0,0,1,85.315,44.6c-.607.21-.635.273-.42.974a17.455,17.455,0,0,1,.487,2.3,10.389,10.389,0,0,0,.939,3.354,1.874,1.874,0,0,1,.111,1.67,1.453,1.453,0,0,1-1.106.779,1.557,1.557,0,0,1-.263.022Z" transform="translate(0 0)"/>
    <path class="cls-2" d="M85.969,36.616a1.768,1.768,0,0,1,.252.019c1.912.276,2.909,3.082,1.775,5.051a5.3,5.3,0,0,1-2.844,2.446c-.947.327-1,.737-.735,1.594.58,1.886.488,3.936,1.465,5.747.349.647.305,1.556-.64,1.719a1.04,1.04,0,0,1-.177.016c-.6,0-.869-.589-.975-1.249-.264-1.647-.637-3.277-.889-4.925a3.544,3.544,0,0,0-2.159-3.075,6.678,6.678,0,0,1-3.337-3.571,6.316,6.316,0,0,1-.4-1.116.882.882,0,0,1,.7-1.074,1.053,1.053,0,0,1,.341-.062.777.777,0,0,1,.743.673,4.576,4.576,0,0,0,1.166,2.315,8.422,8.422,0,0,0,4.013,1.493,1.3,1.3,0,0,0,.85-.24,3.009,3.009,0,0,0,1.445-2.738A1.38,1.38,0,0,0,85.5,38.16a.659.659,0,0,1-.445-.94.9.9,0,0,1,.915-.6m0-1a1.885,1.885,0,0,0-1.848,1.245A1.654,1.654,0,0,0,85.2,39.114c.329.1.38.231.368.477a1.013,1.013,0,0,0,0,.141c.075.794-.256,1.165-1.088,1.874l-.006,0c-.02,0-.088.013-.206.013A7.738,7.738,0,0,1,80.947,40.4a3.7,3.7,0,0,1-.885-1.832,1.769,1.769,0,0,0-1.713-1.431,2.053,2.053,0,0,0-.666.116,1.863,1.863,0,0,0-1.355,2.225,6.327,6.327,0,0,0,.4,1.17l.053.126a7.7,7.7,0,0,0,3.843,4.1,2.547,2.547,0,0,1,1.587,2.317c.135.886.306,1.771.471,2.627.146.757.3,1.539.419,2.3.3,1.887,1.473,2.09,1.962,2.09a2.038,2.038,0,0,0,.347-.03,1.939,1.939,0,0,0,1.471-1.052A2.35,2.35,0,0,0,86.761,51a10.009,10.009,0,0,1-.886-3.2,17.734,17.734,0,0,0-.5-2.37c-.04-.13-.063-.221-.076-.284.044-.02.1-.044.182-.071a6.28,6.28,0,0,0,3.384-2.892,4.843,4.843,0,0,0,.127-4.479,3.525,3.525,0,0,0-2.626-2.06,2.764,2.764,0,0,0-.395-.029Z" transform="translate(0 0)"/>
  </g>
  <g>
    <path class="cls-1" d="M63.161,56.535a4.5,4.5,0,0,1-1.672-.418,27.129,27.129,0,0,1-4.077-2.168,3.237,3.237,0,0,1-1.459-2.021,1.494,1.494,0,0,1,.839-1.71A1.475,1.475,0,0,1,57.531,50a1.184,1.184,0,0,1,1.11.861c.512,1.265,1.675,1.794,2.907,2.354l.291.133a1.541,1.541,0,0,0,.591.18l0,0c.014,0,.074-.16-.037-.66a64.829,64.829,0,0,0-2.252-7.335c-.253-.724-.507-1.446-.753-2.172l-.09-.264a26.47,26.47,0,0,0-.974-2.583,1.8,1.8,0,0,1-.105-1.5,1.7,1.7,0,0,1,1.063-.912,1.929,1.929,0,0,1,.636-.114A1.517,1.517,0,0,1,61.4,39.63a25.807,25.807,0,0,0,1.854,7.725c.418,1.187.851,2.414,1.192,3.652.052.185.108.368.165.551a4.985,4.985,0,0,1,.336,2.116c0,.813,0,2.86-1.787,2.86Z" transform="translate(0 0)"/>
    <path class="cls-2" d="M59.921,38.488c.582,0,.959.449.98,1.157.123,4.075,2.008,7.673,3.064,11.495a6.576,6.576,0,0,1,.487,2.471c0,1.664-.354,2.424-1.29,2.424a4.117,4.117,0,0,1-1.482-.38,27.324,27.324,0,0,1-4-2.129,2.728,2.728,0,0,1-1.235-1.706,1.028,1.028,0,0,1,.6-1.169.988.988,0,0,1,.488-.154c.269,0,.495.171.647.549.63,1.56,2.092,2.128,3.452,2.753a2.037,2.037,0,0,0,.8.225c.492,0,.64-.426.453-1.266a92.384,92.384,0,0,0-3.02-9.558,29.675,29.675,0,0,0-1.083-2.9,1.122,1.122,0,0,1,.668-1.727,1.435,1.435,0,0,1,.472-.087m0-1v0a2.432,2.432,0,0,0-.8.143,2.165,2.165,0,0,0-1.358,1.188,2.284,2.284,0,0,0,.111,1.9,25.724,25.724,0,0,1,.954,2.533l.09.266c.246.726.5,1.45.754,2.175a66.15,66.15,0,0,1,2.2,7.113l-.114-.052c-1.189-.54-2.215-1.006-2.651-2.086A1.675,1.675,0,0,0,57.531,49.5a1.964,1.964,0,0,0-.991.29,2.011,2.011,0,0,0-1.075,2.251,3.745,3.745,0,0,0,1.681,2.337A27.705,27.705,0,0,0,61.3,56.579a4.968,4.968,0,0,0,1.863.455c2.232,0,2.287-2.465,2.29-3.364a5.583,5.583,0,0,0-.363-2.263c-.055-.177-.111-.354-.16-.534-.347-1.255-.782-2.49-1.2-3.685A25.05,25.05,0,0,1,61.9,39.615a2.012,2.012,0,0,0-1.98-2.127Z" transform="translate(0 0)"/>
  </g>
  <g>
    <path class="cls-1" d="M24.661,80.715c-.649-.021-1.63-.051-1.624-1.275a1.347,1.347,0,0,1,1.34-1.344c1.348-.2,2.714-.464,4.035-.714.6-.113,1.2-.228,1.8-.337a24.838,24.838,0,0,0,4.916-1.336,4.008,4.008,0,0,1,1.042-.28,4.169,4.169,0,0,1,.455-.027,1.412,1.412,0,0,1,1.614,1.2,1.668,1.668,0,0,1-1.525,1.88l-2.108.374c-3.332.589-6.479,1.144-9.443,1.864a.535.535,0,0,1-.118.014Z" transform="translate(0 0)"/>
    <path class="cls-2" d="M36.625,75.9c.53,0,1.023.154,1.12.773a1.188,1.188,0,0,1-1.12,1.312c-3.976.713-7.963,1.365-11.582,2.244-.868-.053-1.509.076-1.505-.789,0-.611.392-.773.915-.852,1.96-.3,3.9-.7,5.849-1.052a25.726,25.726,0,0,0,5.011-1.365,3.532,3.532,0,0,1,.911-.247,3.706,3.706,0,0,1,.4-.024m0-1a4.712,4.712,0,0,0-.51.03,4.468,4.468,0,0,0-1.174.313,24.362,24.362,0,0,1-4.819,1.309c-.6.109-1.2.223-1.8.337-1.316.249-2.677.507-4.015.71a1.794,1.794,0,0,0-1.765,1.836c-.008,1.711,1.529,1.759,2.108,1.778.107,0,.22.007.337.014l.061,0a1,1,0,0,0,.236-.028c2.951-.717,6.094-1.271,9.422-1.859q1.049-.185,2.1-.373a2.172,2.172,0,0,0,1.931-2.451A1.913,1.913,0,0,0,36.625,74.9Z" transform="translate(0 0)"/>
  </g>
  <g>
    <path class="cls-1" d="M96.9,46.572c-.761,0-1.093-.756-1.2-1a14.677,14.677,0,0,1-.977-5.553l-.014-.486a47.306,47.306,0,0,1,.221-7.9c.084-.6.229-1.651,1.235-1.651.018,0,.123.006.14.008a1.693,1.693,0,0,1,1.252.7,1.453,1.453,0,0,1,.217,1.2c-1.094,3.595-.939,6.886-.372,10.727a5.094,5.094,0,0,0,.313,1.045,5.78,5.78,0,0,1,.36,1.232,1.341,1.341,0,0,1-.634,1.558,1.307,1.307,0,0,1-.539.125Z" transform="translate(0 0)"/>
    <path class="cls-2" d="M96.166,30.479a.868.868,0,0,1,.088,0,1.06,1.06,0,0,1,1.037,1.274,24.03,24.03,0,0,0-.384,10.926c.12.812.559,1.486.672,2.276.059.411.078.839-.345,1.031a.8.8,0,0,1-.332.081c-.376,0-.592-.357-.744-.705A14.172,14.172,0,0,1,95.224,40a49.847,49.847,0,0,1,.2-8.3c.079-.563.154-1.221.74-1.221m0-1c-1.442,0-1.647,1.481-1.725,2.039a47.744,47.744,0,0,0-.23,8.026l.014.485a15.1,15.1,0,0,0,1.018,5.739,1.82,1.82,0,0,0,1.66,1.3,1.8,1.8,0,0,0,.746-.17,1.756,1.756,0,0,0,.922-2.083,6.269,6.269,0,0,0-.387-1.337,4.756,4.756,0,0,1-.286-.943c-.557-3.774-.711-7,.351-10.489a1.974,1.974,0,0,0-.28-1.649,2.187,2.187,0,0,0-1.611-.912,1.873,1.873,0,0,0-.19-.01Z" transform="translate(0 0)"/>
  </g>
  <g>
    <path class="cls-1" d="M96.317,55.255a1.573,1.573,0,0,1-1.224-2.564,1.419,1.419,0,0,1,1.071-.445l.295.013a1.717,1.717,0,0,1,1.832,1.114.5.5,0,0,1,.021.2,1.762,1.762,0,0,1-1.651,1.654,2.475,2.475,0,0,1-.344.024Z" transform="translate(0 0)"/>
    <path class="cls-2" d="M96.164,52.746l.083,0c.589.037,1.312-.023,1.568.776a1.275,1.275,0,0,1-1.223,1.211,2.009,2.009,0,0,1-.275.02.979.979,0,0,1-1.071-.971.877.877,0,0,1,.918-1.038m0-1a1.913,1.913,0,0,0-1.441.608,2.073,2.073,0,0,0,1.595,3.4,3.006,3.006,0,0,0,.411-.029,2.254,2.254,0,0,0,2.081-2.1,1,1,0,0,0-.042-.41,2.193,2.193,0,0,0-2.288-1.46l-.17-.008c-.049,0-.1,0-.145,0Z" transform="translate(0 0)"/>
  </g>
</svg>
