<svg id="Layer_1" data-name="Layer 1" xmlns="http://www.w3.org/2000/svg" viewBox="0 0 151.833 93.384">
  <defs>
    <style>
      .cls-1 {
        fill: #0000b8;
      }

      .cls-2 {
        fill: #fff;
      }
    </style>
  </defs>
  <title>ad74faa7-118e-4948-8563-669731689439</title>
  <g>
    <path class="cls-1" d="M36.044,18.965c-1.287,0-1.4-1.853-1.453-2.848-.013-.222-.018-.446-.022-.669a8.1,8.1,0,0,0-.078-1.175,5.663,5.663,0,0,0-.31-1.005c-.018-.047-.035-.094-.054-.142l-.539.075c-.669.092-1.3.179-1.919.31-.414.088-.677.215-.76.368a1.173,1.173,0,0,0,.107.857,3.658,3.658,0,0,0,.639,1.077,1.732,1.732,0,0,1,.548,1.394,1.371,1.371,0,0,1-.72.955,1.853,1.853,0,0,1-.964.286,1.818,1.818,0,0,1-1.559-1,3.46,3.46,0,0,1-.347-1.074c-.029-.14-.058-.28-.095-.416a5.3,5.3,0,0,1-.132-.8c-.09-.8-.158-1.164-.859-1.325a.852.852,0,0,1-.622-.592,1.118,1.118,0,0,1,.2-1.049,3.977,3.977,0,0,0,.7-3.066c-.015-.4-.029-.8-.01-1.2l.008-.2a2.513,2.513,0,0,1,.673-1.916,1.568,1.568,0,0,1,1.072-.455,1.5,1.5,0,0,1,.551.107,1.15,1.15,0,0,1,.681,1.311l-.151,1.518c-.077.757-.153,1.514-.221,2.272a.626.626,0,0,0,.055.382L31,10.836c.666-.13,1.365-.266,2.063-.415.268-.057.394-.142.42-.2s.015-.225-.121-.492c-.239-.476-.466-.958-.692-1.44-.181-.385-.361-.771-.549-1.152a1.524,1.524,0,0,1,.658-2.058,1.4,1.4,0,0,1,.75-.236,1.423,1.423,0,0,1,1.282,1.06l.171.447c.367.96.747,1.953,1.062,2.957.2.628.426.81,1.062.845h.016c.372,0,.422-.075.581-.511.046-.124.093-.249.148-.366a8.949,8.949,0,0,0,.372-.96,5.048,5.048,0,0,1,1.188-2.164,3.576,3.576,0,0,1,2.355-1.266,3.472,3.472,0,0,1,2.041.853,1.073,1.073,0,0,0,.448.245,1.5,1.5,0,0,0,.5-.273l.576-.415c.442-.323.89-.647,1.351-.942A4.149,4.149,0,0,1,48.908,3.6c1.181,0,2.241.678,3.335,2.133a3.3,3.3,0,0,1,.67,1.564,12.922,12.922,0,0,1,.96-2.192A8.6,8.6,0,0,1,54.917,3.67,2.133,2.133,0,0,1,56.6,2.894a3.3,3.3,0,0,1,1.063.194,1.971,1.971,0,0,1,1.362,2.223l-.047.484c-.212,2.2-.432,4.484-2.78,5.984-.226.144-.6.436-.6.778,0,.305.3.657.81.964a2.447,2.447,0,0,0,1.257.421,3.617,3.617,0,0,0,2.089-.983,2.971,2.971,0,0,0,.334-.333,1.813,1.813,0,0,1,1.244-.764,1.164,1.164,0,0,1,.8.352,1.309,1.309,0,0,1,.46.927,2.2,2.2,0,0,1-.814,1.481c-.081.085-.161.169-.232.251a4.683,4.683,0,0,1-3.69,1.739h0a7.265,7.265,0,0,1-1.788-.244c-.606-.153-1.217-.288-1.828-.422a22.12,22.12,0,0,1-5.633-1.8,3.324,3.324,0,0,0,.216,1.218c.04.127.08.253.114.379.471,1.731-.411,2.26-.979,2.421a1.987,1.987,0,0,1-.541.08c-.836,0-1.414-.583-1.72-1.732-.131-.491-.268-.98-.4-1.468l-.034-.12a2.15,2.15,0,0,0-.481.42,3.835,3.835,0,0,1-.457.428,4.277,4.277,0,0,1-2.549.938,3.848,3.848,0,0,1-3.238-1.991,3.6,3.6,0,0,1-.264-.532,3.155,3.155,0,0,0-.162-.347.534.534,0,0,0-.5-.324,1.052,1.052,0,0,0-.35.069c-.144.051-.23.082-.147.663.031.221.08.44.128.658a7.141,7.141,0,0,1,.174,1.018,3.2,3.2,0,0,0,.124.576c.176.648.5,1.853-1.011,2.373A1.5,1.5,0,0,1,36.044,18.965Zm8.11-8.662a6.247,6.247,0,0,1-1.578,1.54c-.3.213-.606.414-.914.614-.229.148-.456.3-.68.45-.037.025-.1.076-.108.127a.3.3,0,0,0,.076.2,1.676,1.676,0,0,0,1.373.73,2.157,2.157,0,0,0,.439-.048,7.875,7.875,0,0,0,1.867-1.6A7.12,7.12,0,0,1,44.155,10.3Zm5.978,1.2a6.478,6.478,0,0,0,2.35,1.246A11.994,11.994,0,0,1,52.449,9.3a5.092,5.092,0,0,1-1.133,1.268c-.338.278-.685.546-1.074.847ZM41.715,8.117a.689.689,0,0,0-.354.155A2.388,2.388,0,0,0,40.548,9.9a2.811,2.811,0,0,0,1.33-1.3.341.341,0,0,0-.057-.441A.152.152,0,0,0,41.715,8.117Zm5.9.418c.019.768.079.928.382,1.009h0a2.267,2.267,0,0,0,1.295-.829,1.782,1.782,0,0,0,.563-1.006A1.362,1.362,0,0,0,48.6,6.415a.779.779,0,0,0-.13-.011c-.255,0-.356.164-.543.876l-.319,1.16Zm8.4-1.728a4.225,4.225,0,0,0-.56,1.831A2.071,2.071,0,0,0,56.016,6.807Z" transform="translate(0)"/>
    <path class="cls-2" d="M56.6,3.394a2.8,2.8,0,0,1,.9.168,1.487,1.487,0,0,1,1.027,1.7c-.233,2.3-.292,4.624-2.6,6.1-1.217.777-1.05,1.825.224,2.592a2.919,2.919,0,0,0,1.515.492,4.064,4.064,0,0,0,2.394-1.087c.4-.309.792-.992,1.272-.992a.677.677,0,0,1,.462.216c.77.723-.111,1.381-.621,1.965a4.187,4.187,0,0,1-3.314,1.569,6.829,6.829,0,0,1-1.666-.229c-2.67-.674-5.431-1-7.964-2.519a3.988,3.988,0,0,0,.228,2.514c.2.732.253,1.557-.632,1.809a1.483,1.483,0,0,1-.4.061c-.706,0-1.044-.637-1.236-1.361-.183-.689-.379-1.375-.568-2.058-.817.032-1.109.683-1.591,1.046a3.759,3.759,0,0,1-2.249.837,3.354,3.354,0,0,1-2.817-1.759c-.169-.267-.256-.586-.415-.861a1.031,1.031,0,0,0-.927-.574,1.553,1.553,0,0,0-.517.1c-.583.207-.544.727-.475,1.2.079.551.257,1.091.3,1.643.064.861.874,1.95-.55,2.438a1.015,1.015,0,0,1-.327.062c-.586,0-.857-.721-.955-2.377a17.859,17.859,0,0,0-.106-1.9,11.335,11.335,0,0,0-.522-1.62c-1.024.155-1.97.254-2.895.451-1.154.245-1.438.785-1.017,1.891a4.14,4.14,0,0,0,.729,1.228c.509.583.676,1.152-.053,1.592a1.367,1.367,0,0,1-.706.214,1.322,1.322,0,0,1-1.126-.75A5.8,5.8,0,0,1,29,15.826c-.253-.931.066-2.154-1.361-2.481-.33-.076-.364-.591-.16-.823,1.2-1.37.735-3.017.811-4.571a2.3,2.3,0,0,1,.523-1.778,1.067,1.067,0,0,1,.73-.32,1,1,0,0,1,.368.073.692.692,0,0,1,.366.8c-.121,1.265-.26,2.529-.373,3.795a1.077,1.077,0,0,0,.359.973c.9-.179,1.9-.366,2.9-.579.824-.176,1.024-.646.641-1.4-.43-.854-.818-1.729-1.24-2.587a1.034,1.034,0,0,1,.476-1.415.911.911,0,0,1,.484-.159c.368,0,.649.3.815.738.426,1.118.865,2.234,1.223,3.375a1.449,1.449,0,0,0,1.511,1.194l.1,0c.861,0,.881-.659,1.123-1.163.479-1,.6-2.155,1.455-2.98a3.064,3.064,0,0,1,2.009-1.126,3.039,3.039,0,0,1,1.743.755,1.32,1.32,0,0,0,.746.343,1.462,1.462,0,0,0,.79-.366c.626-.445,1.25-.925,1.906-1.344A3.678,3.678,0,0,1,48.907,4.1c1.023,0,1.958.634,2.936,1.934,1.022,1.359.72,2.86-.844,4.147-.49.4-1,.783-1.63,1.277a7.443,7.443,0,0,0,3.748,1.995,11.328,11.328,0,0,1,1.194-8.105A8.086,8.086,0,0,1,55.3,4a1.645,1.645,0,0,1,1.3-.6M55.107,9.825c1.608-1.8,1.746-2.356,1.046-4.316-.762,1.412-1.539,2.516-1.046,4.316m-7.079.222c.883,0,2.406-1.545,2.327-2.384a1.853,1.853,0,0,0-1.676-1.742,1.333,1.333,0,0,0-.208-.017c-.763,0-.9.776-1.071,1.414-.1.381-.211.761-.294,1.061.024.724-.024,1.44.758,1.648a.634.634,0,0,0,.163.02m-5.7,4.415a2.631,2.631,0,0,0,.543-.059c.51-.108,2.431-1.837,2.3-2.107-.729-1.549-.465-3.25-.858-4.879a4.01,4.01,0,0,1-2.028,4.02c-.517.369-1.062.7-1.586,1.059a.673.673,0,0,0-.147,1.038,2.163,2.163,0,0,0,1.771.928M39.9,10.67a3.5,3.5,0,0,0,2.423-1.834.827.827,0,0,0-.182-1.067.654.654,0,0,0-.421-.152,1.148,1.148,0,0,0-.651.252c-.823.606-.931,1.526-1.169,2.8M56.6,2.394h0a2.647,2.647,0,0,0-2.058.95,9.055,9.055,0,0,0-1.1,1.522q-.275.5-.5,1a4.44,4.44,0,0,0-.29-.436C51.462,3.864,50.24,3.1,48.907,3.1a4.624,4.624,0,0,0-2.5.833c-.481.307-.939.641-1.382.963-.189.137-.377.274-.565.408-.095.067-.162.112-.209.141-.037-.024-.087-.058-.152-.106a3.918,3.918,0,0,0-2.338-.951,4,4,0,0,0-2.7,1.406,5.531,5.531,0,0,0-1.312,2.36,8.557,8.557,0,0,1-.349.907c-.063.132-.116.272-.168.411-.02.055-.047.128-.071.184-.46-.025-.506-.066-.641-.5-.321-1.023-.706-2.028-1.078-3l-.165-.431a1.918,1.918,0,0,0-1.749-1.382,1.894,1.894,0,0,0-1.017.313,2.016,2.016,0,0,0-.841,2.7c.185.376.363.755.541,1.134.228.485.455.969.7,1.447-.669.142-1.34.273-1.98.4.061-.666.129-1.331.2-2q.078-.764.152-1.527a1.657,1.657,0,0,0-1-1.823,2,2,0,0,0-.733-.142,2.056,2.056,0,0,0-1.412.588A2.96,2.96,0,0,0,27.3,7.707l-.008.194c-.021.425-.005.841.009,1.243.045,1.229.042,2.017-.573,2.716a1.61,1.61,0,0,0-.3,1.532,1.359,1.359,0,0,0,.987.927c.34.078.384.088.474.893a5.7,5.7,0,0,0,.147.877c.034.125.06.254.086.383a3.919,3.919,0,0,0,.4,1.225,2.3,2.3,0,0,0,1.992,1.251,2.349,2.349,0,0,0,1.223-.358,1.85,1.85,0,0,0,.955-1.306,2.222,2.222,0,0,0-.666-1.8,3.139,3.139,0,0,1-.548-.926,1.706,1.706,0,0,1-.117-.428A1.665,1.665,0,0,1,31.774,14c.6-.127,1.223-.213,1.882-.3l.142-.02a3.972,3.972,0,0,1,.2.68,7.754,7.754,0,0,1,.071,1.1c0,.231.009.461.023.691.063,1.077.2,3.318,1.953,3.318a2.013,2.013,0,0,0,.651-.116,2.147,2.147,0,0,0,1.33-2.975,3.162,3.162,0,0,1-.108-.483,7.51,7.51,0,0,0-.184-1.091c-.046-.206-.092-.411-.122-.619-.009-.065-.016-.117-.02-.16h.024c.006,0,.028.02.06.075a2.644,2.644,0,0,1,.136.293,3.992,3.992,0,0,0,.3.6,4.332,4.332,0,0,0,3.661,2.224,4.769,4.769,0,0,0,2.85-1.039A3.409,3.409,0,0,0,45,15.844q.111.4.219.8c.462,1.739,1.453,2.1,2.2,2.1a2.488,2.488,0,0,0,.678-.1c.6-.17,1.929-.807,1.324-3.033-.036-.133-.078-.265-.12-.4-.023-.073-.046-.144-.067-.214a25.979,25.979,0,0,0,4.9,1.431c.607.134,1.213.268,1.814.419a7.761,7.761,0,0,0,1.911.259A5.158,5.158,0,0,0,61.925,15.2c.068-.077.143-.156.219-.236a2.649,2.649,0,0,0,.951-1.839,1.8,1.8,0,0,0-.618-1.277,1.656,1.656,0,0,0-1.147-.487,2.23,2.23,0,0,0-1.612.926,3.064,3.064,0,0,1-.271.275,3.263,3.263,0,0,1-1.783.879,1.984,1.984,0,0,1-1-.349c-.455-.274-.565-.5-.568-.542,0-.025.081-.167.366-.35,2.555-1.632,2.8-4.143,3.009-6.359l.047-.48a2.468,2.468,0,0,0-1.7-2.747A3.8,3.8,0,0,0,56.6,2.394ZM48.11,8.5l.035-.124c.069-.246.146-.522.221-.8l.045-.171a4.509,4.509,0,0,1,.15-.494.842.842,0,0,1,.8.807,2.859,2.859,0,0,1-1.218,1.286c-.018-.135-.023-.337-.027-.485V8.5Zm2.844,2.992c.236-.184.46-.36.68-.541q.106-.087.206-.176,0,.6.049,1.214a5.746,5.746,0,0,1-.935-.5Zm-9.419,1.644c.132-.087.264-.173.4-.26.315-.205.63-.41.935-.629a8.443,8.443,0,0,0,.969-.8,6.547,6.547,0,0,0,.221.76A8.252,8.252,0,0,1,42.6,13.435a1.593,1.593,0,0,1-.28.026,1.078,1.078,0,0,1-.789-.323Z" transform="translate(0)"/>
  </g>
  <g>
    <path class="cls-1" d="M9.033,86.7c-1.34,0-2.4-.766-3.551-2.561A3.4,3.4,0,0,1,5.968,79.4a16.388,16.388,0,0,1,4.242-2.957c.629-.3.724-.494.538-1.072-.093-.287-.167-.58-.241-.872a4.467,4.467,0,0,0-.877-2.022,3.611,3.611,0,0,1-.6-1.057L8.98,71.3a1.491,1.491,0,0,1-.045-1.244,1.719,1.719,0,0,1,1.128-.861,1.807,1.807,0,0,1,.544-.091c.443,0,1.035.2,1.33,1.147a24.9,24.9,0,0,0,1.531,4.012c.148-.057.218-.2.333-.554a3.221,3.221,0,0,1,.17-.437,3.971,3.971,0,0,1,3.541-2.365,4.143,4.143,0,0,1,3.6,2.241l.07.137c.1-.262.213-.527.333-.788a1.608,1.608,0,0,1,1.468-1.1,1.773,1.773,0,0,1,.732.171,1.422,1.422,0,0,1,.8.834,1.611,1.611,0,0,1-.146,1.274,6.483,6.483,0,0,0-.555,2.032c-.033.2-.065.4-.1.6a2.106,2.106,0,0,0,.217,1.557.893.893,0,0,0,.581.387h.007a2.4,2.4,0,0,0,1.8-1.395,6.284,6.284,0,0,0,.246-2.1c.009-1.2.6-1.858,1.586-1.858a2.5,2.5,0,0,1,.32.021,1.611,1.611,0,0,1,1.145.606,1.678,1.678,0,0,1,.231,1.326,4.784,4.784,0,0,0,.094,2.154c.173.629.308.746.6.763.136.007.271.015.4.015a.925.925,0,0,0,.881-.375,3.957,3.957,0,0,0,.737-3.232,1.849,1.849,0,0,1,1.294-2.407,2.314,2.314,0,0,0,.529-.266A6.007,6.007,0,0,1,37.7,70.067a5.811,5.811,0,0,1,3.028,1.187c1.345.862,1.987,1.652,2.086,2.562a3.72,3.72,0,0,1-1.275,2.8,13.88,13.88,0,0,0,3.206,1.16c1.137.259,1.116,1.041,1.055,1.365a1.3,1.3,0,0,1-1.337,1.073h-.135a10.007,10.007,0,0,1-3.411-.784l-.541-.192c-.315-.109-.624-.238-.934-.366a9.084,9.084,0,0,0-1.47-.519,1.671,1.671,0,0,0,.194.71,3.339,3.339,0,0,1,.237.715,1.78,1.78,0,0,1-1.274,2.245,1.98,1.98,0,0,1-.569.092c-.8,0-1.295-.557-1.472-1.655a4.06,4.06,0,0,0-.551-1.633c-.193.151-.376.315-.565.485a5.5,5.5,0,0,1-1.456,1.034,4.813,4.813,0,0,1-1.861.472,2.539,2.539,0,0,1-1.586-.545,1.467,1.467,0,0,0-.905-.361,3.189,3.189,0,0,0-1.37.492,5.448,5.448,0,0,1-2.531.8,4.1,4.1,0,0,1-3.01-1.72,5.852,5.852,0,0,1-4.091,1.88,5.862,5.862,0,0,1-2.642-.681,30.482,30.482,0,0,1-.936,2.914,4.706,4.706,0,0,1-3.254,2.87A4.265,4.265,0,0,1,9.033,86.7Zm2.5-7.658c-2.145.862-2.7,1.348-3.411,2.447a1.259,1.259,0,0,0,.184,1.768A1.612,1.612,0,0,0,9.5,83.8a1.776,1.776,0,0,0,1.638-1.241A7.883,7.883,0,0,0,11.537,79.039Zm6.634-4.284a2.167,2.167,0,0,0-1.5.688,2.533,2.533,0,0,0-.766,1.771c.007,1.062.6,1.206,1.044,1.222l.184,0c1.449,0,2.02-.624,2.033-2.225a1.89,1.89,0,0,0-.278-1.139.832.832,0,0,0-.706-.321l-.015-.5Zm19.9-1.428a1.061,1.061,0,0,0-.782.253.7.7,0,0,0-.154.557c.019.256.021.271.6.287l.123,0a3.7,3.7,0,0,1,.788-.1c.564-.03.834-.073,1-.354a2.33,2.33,0,0,0-1.511-.644l-.065-.5Z" transform="translate(0)"/>
    <path class="cls-2" d="M10.606,69.6c.426,0,.694.285.853.8a23.744,23.744,0,0,0,1.723,4.393c.036,0,.071,0,.1,0,.891,0,.9-.841,1.128-1.3a3.471,3.471,0,0,1,3.1-2.093,3.654,3.654,0,0,1,3.163,1.979c.151.28.231.6.726.706.18-.442.356-.923.57-1.386a1.16,1.16,0,0,1,1.015-.8,1.273,1.273,0,0,1,.525.126.944.944,0,0,1,.419,1.421,9.407,9.407,0,0,0-.706,2.772c-.254,1.366.307,2.372,1.2,2.528a.89.89,0,0,0,.152.013,2.871,2.871,0,0,0,2.206-1.729,6.956,6.956,0,0,0,.277-2.359c.005-.721.3-1.273,1.085-1.273a1.948,1.948,0,0,1,.256.018,1.011,1.011,0,0,1,.949,1.349,5.311,5.311,0,0,0,.1,2.375c.15.545.349,1.09,1.054,1.129.145.008.289.016.43.016a1.424,1.424,0,0,0,1.286-.582,4.441,4.441,0,0,0,.82-3.632,1.359,1.359,0,0,1,.983-1.833,2.88,2.88,0,0,0,.64-.324,5.529,5.529,0,0,1,3.03-1.348,5.3,5.3,0,0,1,2.758,1.107c2.378,1.525,2.507,2.836.261,5.082a14.867,14.867,0,0,0,3.916,1.512c.445.1.765.3.674.784a.8.8,0,0,1-.859.667l-.125,0a11.581,11.581,0,0,1-3.784-.949,14.284,14.284,0,0,0-2.9-.979c-.463.8.152,1.415.271,2.079a1.289,1.289,0,0,1-.927,1.678,1.474,1.474,0,0,1-.425.07c-.652,0-.876-.6-.978-1.234a4.165,4.165,0,0,0-.937-2.242,20.013,20.013,0,0,1-2.327,1.748,4.3,4.3,0,0,1-1.664.431,2.027,2.027,0,0,1-1.279-.44,1.945,1.945,0,0,0-1.212-.466,3.54,3.54,0,0,0-1.605.552,5.042,5.042,0,0,1-2.3.746c-1.021,0-1.868-.623-2.988-1.959a5.64,5.64,0,0,1-4.112,2.119,5.683,5.683,0,0,1-2.953-.925,35.686,35.686,0,0,1-1.09,3.477A4.24,4.24,0,0,1,10.178,86a3.8,3.8,0,0,1-1.145.2c-1.172,0-2.1-.726-3.129-2.33a2.928,2.928,0,0,1,.412-4.107,15.884,15.884,0,0,1,4.113-2.866c.76-.367,1.087-.772.8-1.676A7.5,7.5,0,0,0,10,72.141,3.67,3.67,0,0,1,9.44,71.1c-.335-.784.069-1.21.773-1.432a1.316,1.316,0,0,1,.394-.067m27.318,5.328c.7-.241,1.756.134,2.213-.815.24-.5-.973-1.26-1.987-1.289h-.078c-.952,0-1.5.516-1.436,1.348.062.81.663.727,1.288.757M17.139,78.94c1.727,0,2.516-.852,2.532-2.721.011-1.24-.529-1.956-1.481-1.964h-.018a3,3,0,0,0-2.763,2.962,1.5,1.5,0,0,0,1.526,1.719q.1,0,.2,0M9.5,84.3a2.28,2.28,0,0,0,2.106-1.564,9.09,9.09,0,0,0,.363-4.4C9.256,79.375,8.557,79.9,7.706,81.215a1.744,1.744,0,0,0,.235,2.378,2.105,2.105,0,0,0,1.558.7M10.606,68.6h0a2.316,2.316,0,0,0-.694.114A2.193,2.193,0,0,0,8.48,69.847a1.976,1.976,0,0,0,.04,1.65l.049.115a4.079,4.079,0,0,0,.691,1.2,4.051,4.051,0,0,1,.763,1.809c.076.3.153.6.249.9a.88.88,0,0,1,.057.283h0c-.013,0-.095.071-.335.187A16.872,16.872,0,0,0,5.621,79.04a3.9,3.9,0,0,0-.561,5.366C5.893,85.706,7.1,87.2,9.032,87.2a4.761,4.761,0,0,0,1.447-.244,5.239,5.239,0,0,0,3.569-3.166c.3-.773.542-1.532.792-2.4a6.085,6.085,0,0,0,2.32.484A6.118,6.118,0,0,0,21.225,80.2a4.267,4.267,0,0,0,3.035,1.516,5.9,5.9,0,0,0,2.767-.864,2.92,2.92,0,0,1,1.134-.433.961.961,0,0,1,.6.258,3.028,3.028,0,0,0,1.89.648,5.276,5.276,0,0,0,2.062-.514A5.936,5.936,0,0,0,34.3,79.69l.071-.064a4.953,4.953,0,0,1,.219.917c.29,1.806,1.356,2.076,1.966,2.076a2.476,2.476,0,0,0,.715-.113,2.284,2.284,0,0,0,1.621-2.811,3.061,3.061,0,0,0-.166-.57c.172.067.346.14.523.213.318.132.635.264.959.376.181.063.361.128.541.193a10.369,10.369,0,0,0,3.571.812l.149,0a1.787,1.787,0,0,0,1.817-1.481,1.622,1.622,0,0,0-1.435-1.945,13.163,13.163,0,0,1-2.516-.845,3.789,3.789,0,0,0,.971-2.686A4.342,4.342,0,0,0,41,70.832a6.221,6.221,0,0,0-3.3-1.266,6.4,6.4,0,0,0-3.6,1.53,1.916,1.916,0,0,1-.417.206,2.334,2.334,0,0,0-1.607,2.981,3.428,3.428,0,0,1-.652,2.833c-.077.105-.123.169-.477.169-.123,0-.248-.007-.375-.014h-.005a1.91,1.91,0,0,1-.139-.4,4.292,4.292,0,0,1-.083-1.934,2.154,2.154,0,0,0-.32-1.71,2.089,2.089,0,0,0-1.482-.806,2.938,2.938,0,0,0-.387-.026,2.054,2.054,0,0,0-2.085,2.266v.078a5.952,5.952,0,0,1-.216,1.946A2.009,2.009,0,0,1,24.58,77.76a.38.38,0,0,1-.236-.177,1.646,1.646,0,0,1-.136-1.181c.038-.2.071-.406.1-.611a6.14,6.14,0,0,1,.5-1.879,2.1,2.1,0,0,0,.176-1.669,1.908,1.908,0,0,0-1.067-1.128,2.269,2.269,0,0,0-.937-.215A2.114,2.114,0,0,0,21.1,72.212a4.57,4.57,0,0,0-3.587-1.805,4.456,4.456,0,0,0-3.987,2.638q-.021.041-.039.081A30.638,30.638,0,0,1,12.414,70.1a1.867,1.867,0,0,0-1.808-1.5Zm27.048,5.318v0a.656.656,0,0,1,.417-.094,1.684,1.684,0,0,1,.225.022,3.281,3.281,0,0,0-.5.078l-.053,0-.094,0ZM17.139,77.94q-.082,0-.167,0c-.287-.01-.558-.02-.562-.726a2.059,2.059,0,0,1,.62-1.416,1.674,1.674,0,0,1,1.143-.54c.23,0,.286.077.32.122a1.374,1.374,0,0,1,.178.833c-.013,1.471-.5,1.729-1.532,1.729ZM9.5,83.3a1.1,1.1,0,0,1-.823-.382c-.4-.435-.43-.695-.131-1.157a4.546,4.546,0,0,1,2.528-1.983,6.829,6.829,0,0,1-.4,2.6A1.282,1.282,0,0,1,9.5,83.3Z" transform="translate(0)"/>
  </g>
  <g>
    <path class="cls-1" d="M129.315,66.026a2.093,2.093,0,0,1-1.724-.905,2.655,2.655,0,0,1-.279-2.42,1.673,1.673,0,0,1,.536-.693,2.515,2.515,0,0,0,.187-.174,12.223,12.223,0,0,1-3.27-1.2c-.367-.176-.734-.354-1.109-.517a3.959,3.959,0,0,1-2.479-3.3c-.263-2.478-.029-4.978,3.428-6.485a.945.945,0,0,1,.334-.137,4.223,4.223,0,0,0,3.812-3.671,2.01,2.01,0,0,1,.849-1.232l.15-.125a17.98,17.98,0,0,1,3.977-2.416,4.9,4.9,0,0,1,2.145-.522A4.769,4.769,0,0,1,139.3,43.8c1.855,1.909,2.321,4.038,1.311,6a14.557,14.557,0,0,1-.993,1.577c-.077.112-.156.227-.236.344a9.044,9.044,0,0,1,3.342,2.873,4.439,4.439,0,0,1,.79,3.4,4.164,4.164,0,0,1-2.007,2.6c-.8.5-1.636.92-2.521,1.37-.263.133-.529.269-.8.41a2.45,2.45,0,0,1,.27.59,2.067,2.067,0,0,1-.114,1.85,1.43,1.43,0,0,1-1.214.508,3.008,3.008,0,0,1-.314-.017c-.534-.053-1.082-.08-1.629-.08a21.56,21.56,0,0,0-5.29.727A2.342,2.342,0,0,1,129.315,66.026Zm2.249-3.608a1.465,1.465,0,0,0,.655.167,1.994,1.994,0,0,0,1.011-.347l-1.016-.8c-.167.206-.314.39-.443.585A2.829,2.829,0,0,0,131.564,62.417Zm3.693-3.928a1.417,1.417,0,0,1,1.007.369,1.77,1.77,0,0,0,1.207.55,4.138,4.138,0,0,0,1.957-.828l.454-.277c.658-.387.913-.6.773-1.138-.28-1.095-.513-1.777-1.365-2.032-.185-.056-.367-.119-.551-.183a4.362,4.362,0,0,0-1.383-.32,1.794,1.794,0,0,0-.372.037,2.086,2.086,0,0,1-.433.045A3.117,3.117,0,0,1,135.3,54.4c-.73-.318-1.954-.851-1.857-2.346.076-1.2,1.038-1.308,1.555-1.367a2.336,2.336,0,0,0,.438-.075,3.532,3.532,0,0,0,2.729-3.064,2.45,2.45,0,0,0-2.5-2.32,2.548,2.548,0,0,0-.753.114,6.888,6.888,0,0,0-2.853,2.057,3.14,3.14,0,0,0-.36,4.163l.113.178a3.318,3.318,0,0,1,.637,1.544,1.661,1.661,0,0,1-1.052,1.874,1.754,1.754,0,0,1-.6.109,1.449,1.449,0,0,1-1.264-.724,5.272,5.272,0,0,0-.769-.92c-.2-.208-.4-.415-.58-.638-.39-.484-.677-.54-.858-.54a1.618,1.618,0,0,0-.786.272c-.181.105-.366.2-.552.295a6.232,6.232,0,0,0-.671.374,2.968,2.968,0,0,0-1.222,1.876,2.136,2.136,0,0,0,.268,1.62,4.983,4.983,0,0,0,2.714,1.61l.267.093a2.558,2.558,0,0,0,.837.162,1.907,1.907,0,0,0,1.3-.56,2.773,2.773,0,0,1,1.8-.758,2.221,2.221,0,0,1,1.67.8,1.079,1.079,0,0,0,.911.362c.153,0,.309-.012.464-.023l.2-.014c.086,0,.173-.016.259-.025A4.051,4.051,0,0,1,135.257,58.49Z" transform="translate(0)"/>
    <path class="cls-2" d="M135.87,42.727a4.253,4.253,0,0,1,3.069,1.424c1.685,1.733,2.145,3.636,1.226,5.419-.393.763-.932,1.451-1.51,2.332a9.063,9.063,0,0,1,3.648,2.966c1.327,2.021.993,4.03-1.062,5.3-1.15.711-2.386,1.281-3.755,2a5.316,5.316,0,0,1,.484.926c.317,1.129.086,1.723-.847,1.723-.083,0-.171,0-.265-.014-.565-.057-1.124-.083-1.679-.083a21.993,21.993,0,0,0-5.411.742,1.772,1.772,0,0,1-1.985-2.6c.186-.523.949-.622.884-1.463-1.746-.12-3.223-1.056-4.811-1.749a3.444,3.444,0,0,1-2.181-2.894c-.3-2.793.268-4.726,3.13-5.974a1.038,1.038,0,0,1,.216-.1,4.719,4.719,0,0,0,4.221-4.072c.1-.529.46-.75.833-1.069a17.607,17.607,0,0,1,3.871-2.346,4.4,4.4,0,0,1,1.925-.472M130.8,54.765a.943.943,0,0,1-.835-.481,15.274,15.274,0,0,0-1.388-1.613,1.606,1.606,0,0,0-1.249-.727,2.089,2.089,0,0,0-1.04.342c-.408.24-.854.421-1.247.683a3.2,3.2,0,0,0-1.089,4.194,5.9,5.9,0,0,0,3.229,1.893,3.03,3.03,0,0,0,1,.19,2.39,2.39,0,0,0,1.628-.686,2.281,2.281,0,0,1,1.47-.631,1.716,1.716,0,0,1,1.3.63,1.578,1.578,0,0,0,1.283.528c.23,0,.464-.023.7-.038s.469-.06.7-.06a.924.924,0,0,1,.667.237,2.238,2.238,0,0,0,1.546.682,5.076,5.076,0,0,0,2.457-1.05c.611-.378,1.49-.742,1.213-1.818-.264-1.027-.542-2.037-1.707-2.387a7.361,7.361,0,0,0-2.076-.523,2.315,2.315,0,0,0-.475.048,1.61,1.61,0,0,1-.331.034,2.624,2.624,0,0,1-1.048-.273c-.842-.366-1.627-.779-1.558-1.854.068-1.054,1.022-.8,1.647-1a4.025,4.025,0,0,0,3.074-3.54,2.941,2.941,0,0,0-3-2.82,3.058,3.058,0,0,0-.9.136,7.318,7.318,0,0,0-3.068,2.19,3.65,3.65,0,0,0-.422,4.773,3.344,3.344,0,0,1,.676,1.5,1.191,1.191,0,0,1-.725,1.364,1.259,1.259,0,0,1-.428.079m1.419,8.319a3.188,3.188,0,0,0,1.85-.821l-1.935-1.524c-.311.4-.57.688-.782,1.01a8,8,0,0,0-.429.863,2.21,2.21,0,0,0,1.3.473m3.651-21.357a5.393,5.393,0,0,0-2.362.572,18.374,18.374,0,0,0-4.084,2.486l-.143.119a2.486,2.486,0,0,0-1.023,1.525,3.726,3.726,0,0,1-3.4,3.271,1.374,1.374,0,0,0-.475.182c-3.737,1.629-3.969,4.446-3.7,6.985a4.44,4.44,0,0,0,2.776,3.7c.368.161.73.335,1.091.508a16.473,16.473,0,0,0,2.509,1.039,1.717,1.717,0,0,0-.214.412,3.153,3.153,0,0,0,.341,2.875,2.585,2.585,0,0,0,2.133,1.118,2.856,2.856,0,0,0,.7-.089,21.049,21.049,0,0,1,5.166-.712c.53,0,1.062.026,1.58.078.129.013.251.019.365.019a1.9,1.9,0,0,0,1.612-.706,2.667,2.667,0,0,0,.2-2.287,2.27,2.27,0,0,0-.081-.237l.36-.183c.894-.455,1.738-.884,2.556-1.39A4.648,4.648,0,0,0,144,58.1a4.921,4.921,0,0,0-.86-3.783,9.012,9.012,0,0,0-3.04-2.764,14.05,14.05,0,0,0,.955-1.528c1.116-2.165.62-4.5-1.4-6.574a5.254,5.254,0,0,0-3.786-1.727ZM130.8,55.765a2.251,2.251,0,0,0,.769-.139,2.175,2.175,0,0,0,1.38-2.385,3.77,3.77,0,0,0-.715-1.772l-.111-.174a2.653,2.653,0,0,1,.3-3.553,6.471,6.471,0,0,1,2.637-1.923,2.06,2.06,0,0,1,.606-.092,1.943,1.943,0,0,1,2,1.82,3.086,3.086,0,0,1-2.381,2.588,2.384,2.384,0,0,1-.341.054,1.932,1.932,0,0,0-2,1.831,2.893,2.893,0,0,0,2.157,2.836,3.556,3.556,0,0,0,1.447.356,2.621,2.621,0,0,0,.535-.055,1.31,1.31,0,0,1,.271-.027,4.024,4.024,0,0,1,1.219.294c.19.065.379.13.569.188.583.175.76.646,1.026,1.678.049.19.059.229-.542.583-.078.046-.155.091-.228.136l-.237.147a3.868,3.868,0,0,1-1.695.754,1.24,1.24,0,0,1-.867-.417,1.918,1.918,0,0,0-1.346-.5,4.571,4.571,0,0,0-.526.039c-.078.009-.155.019-.233.023l-.207.014c-.144.01-.288.022-.429.022a.586.586,0,0,1-.539-.2,2.707,2.707,0,0,0-2.042-.962,3.267,3.267,0,0,0-2.133.883,1.383,1.383,0,0,1-.965.434,2.052,2.052,0,0,1-.671-.134l-.272-.094a4.635,4.635,0,0,1-2.46-1.417,1.644,1.644,0,0,1-.191-1.244A2.462,2.462,0,0,1,125.6,53.8a6.172,6.172,0,0,1,.616-.341c.2-.1.393-.2.583-.312a1.152,1.152,0,0,1,.532-.2c.153,0,.34.193.47.354.2.246.407.462.609.67a4.966,4.966,0,0,1,.7.831,1.939,1.939,0,0,0,1.692.965Z" transform="translate(0)"/>
  </g>
  <g>
    <path class="cls-1" d="M38.272,62.907c-.444,0-1.043-.229-1.368-1.316l-.144-.473a12.326,12.326,0,0,1-.6-2.638,27.468,27.468,0,0,0-.5-3.146,23.163,23.163,0,0,1-.553-3.971c-.02-.854-.153-.854-.355-.854a3.225,3.225,0,0,0-.7.109c-.246.059-.488.138-.73.216a7.537,7.537,0,0,1-1.151.306c-.069.011-.144.03-.222.048a2.612,2.612,0,0,1-.607.093,1.055,1.055,0,0,1-1.071-1.012l-.016-.1a2.007,2.007,0,0,1,.181-1.563,1.511,1.511,0,0,1,1.056-.553c.744-.105,1.485-.236,2.227-.366a31.149,31.149,0,0,1,5.184-.611h.171c2.854,0,3.553.595,4.152,3.535.072.356.137.714.2,1.073s.122.689.192,1.032c.154.763.425.823.762.823a2.144,2.144,0,0,0,.337-.029c.216-.033.873-.137.964-.271a2.012,2.012,0,0,0-.1-.991,15.544,15.544,0,0,0-.532-1.767,1.656,1.656,0,0,1,.013-1.448,1.414,1.414,0,0,1,1.07-.626,2.087,2.087,0,0,1,.321-.025,1.487,1.487,0,0,1,1.5,1.577,9.907,9.907,0,0,0,.456,2.46c.109.346.191.346.24.346a.679.679,0,0,0,.182-.03c.332-.093.38-.181.38-.182.009-.019.01-.117-.091-.32-.872-1.768.243-2.915,1.059-3.751a6.66,6.66,0,0,0,.685-.776,1.765,1.765,0,0,1,1.534-.752,6.61,6.61,0,0,1,2.273.6l.1.039a7.69,7.69,0,0,1,2.633,1.958,3.124,3.124,0,0,1,.188,4.087,6.527,6.527,0,0,1-1.912,1.714l-.158.107c.214.166.419.337.62.5a4.137,4.137,0,0,0,2.592,1.317,2.984,2.984,0,0,0,.792-.114,1.277,1.277,0,0,1,.336-.047.968.968,0,0,1,.775.367,1.4,1.4,0,0,1,.206,1.193,2.175,2.175,0,0,1-2.1,1.772,2.34,2.34,0,0,1-.965-.214,11.721,11.721,0,0,1-1.752-1.041c-.184-.124-.367-.248-.552-.368-.292-.189-.578-.386-.864-.582-.24-.166-.481-.331-.726-.491a3.313,3.313,0,0,0,.143.83,5.015,5.015,0,0,1,.166.864,1.716,1.716,0,0,1-1.433,1.941,1.256,1.256,0,0,1-.22.02c-.859,0-1.133-.867-1.265-1.284-.4-1.283-.787-2.643-1.172-4.154-.032-.125-.054-.254-.074-.381a1.362,1.362,0,0,0-.1-.4h0a.481.481,0,0,0-.1-.01,1.217,1.217,0,0,0-.214.022.677.677,0,0,0-.506.272.826.826,0,0,0,.043.667,5.978,5.978,0,0,1,.358,1.849,3.787,3.787,0,0,0,.522,1.969,1.311,1.311,0,0,1,.25,1.1,1.27,1.27,0,0,1-.743.831,1.638,1.638,0,0,1-.71.169,1.583,1.583,0,0,1-1.173-.553,2.894,2.894,0,0,1-.641-2.15,6.8,6.8,0,0,0-.32-1.911c-.068-.258-.137-.515-.194-.773a.763.763,0,0,0-.866-.642,1.986,1.986,0,0,0-.236.016c-.4.05-.5.156-.521.188a.656.656,0,0,0,.02.454c.132.462.642,2.309.772,2.768.035.123.083.244.129.365a3.114,3.114,0,0,1,.233.861,1.512,1.512,0,0,1-1.262,1.768,1.889,1.889,0,0,1-.337.031,1.463,1.463,0,0,1-1.446-1.3c-.088-.458-.137-.924-.185-1.39a13.593,13.593,0,0,0-.2-1.437c-.273-1.291-.331-1.291-.781-1.291a8.995,8.995,0,0,0-.913.073c-.635.069-1.27.138-1.9.194-.015,0-.151.006-.163,0a10.129,10.129,0,0,0,.711,2.915l.158.451a1.735,1.735,0,0,1-.019,1.381,1.559,1.559,0,0,1-.988.764A1.448,1.448,0,0,1,38.272,62.907Zm.9-13.123c-1.059.024-1.218.518-1.231,1.047l-.02.552a6.671,6.671,0,0,0,.422,3.286,3.585,3.585,0,0,1,1.961-.4c.126,0,.252,0,.378-.006.3-.01.407-.075.425-.1,0,0,.069-.106-.062-.506l-.1-.319a10.1,10.1,0,0,1-.607-2.568c-.049-.834-.32-.983-1.061-.983Zm14.087.485c-.623,0-.856.143-.924.944a1.642,1.642,0,0,0,1.5,1.682l.1,0a1.417,1.417,0,0,0,1.382-1.134c.043-.56-.849-1.413-1.783-1.485C53.437,50.273,53.346,50.269,53.26,50.269Z" transform="translate(0)"/>
    <path class="cls-2" d="M52.407,47.451a6.654,6.654,0,0,1,2.189.6,7.219,7.219,0,0,1,2.458,1.842,2.629,2.629,0,0,1,.129,3.461,9.534,9.534,0,0,1-2.515,2.1c1.387.9,2.383,2.325,4.073,2.325a3.474,3.474,0,0,0,.925-.132.766.766,0,0,1,.2-.03c.432,0,.608.452.494.948a1.673,1.673,0,0,1-1.617,1.385,1.861,1.861,0,0,1-.761-.17A17.227,17.227,0,0,1,55.748,58.4c-.6-.389-1.18-.814-1.783-1.2a.542.542,0,0,0-.287-.049H53.65c-.049,0-.1,0-.147-.005-.328.815.135,1.557.193,2.333a1.228,1.228,0,0,1-1.022,1.411.748.748,0,0,1-.132.012c-.49,0-.665-.544-.788-.935-.429-1.363-.812-2.741-1.164-4.126-.136-.536-.054-1.164-.763-1.164a1.709,1.709,0,0,0-.3.03,1.065,1.065,0,0,0-.835,1.622c.525,1.269.089,2.737.937,3.918a.725.725,0,0,1-.3,1.185,1.15,1.15,0,0,1-.5.12,1.086,1.086,0,0,1-.8-.392,2.435,2.435,0,0,1-.509-1.8,11.512,11.512,0,0,0-.527-2.805,1.261,1.261,0,0,0-1.353-1.033,2.429,2.429,0,0,0-.3.019c-.8.1-1.156.452-.921,1.275.263.921.51,1.846.773,2.767a6.218,6.218,0,0,1,.344,1.131,1.022,1.022,0,0,1-.853,1.234,1.369,1.369,0,0,1-.247.024.966.966,0,0,1-.955-.9c-.18-.936-.189-1.906-.387-2.837-.285-1.341-.428-1.686-1.27-1.686a9.449,9.449,0,0,0-.969.076c-.63.07-1.261.137-1.893.194-.027,0-.054,0-.083,0-.133,0-.285-.024-.537-.04a10.672,10.672,0,0,0,.9,4.068c.269.782.016,1.289-.682,1.5a.961.961,0,0,1-.284.046c-.508,0-.753-.5-.89-.96a14.813,14.813,0,0,1-.724-3.006c-.187-2.39-.991-4.677-1.049-7.09-.023-.981-.237-1.342-.856-1.342a3.659,3.659,0,0,0-.812.123c-.62.148-1.217.415-1.843.515a5.023,5.023,0,0,1-.752.135c-.273,0-.5-.122-.576-.588-.107-.688-.292-1.491.8-1.646a54.838,54.838,0,0,1,7.343-.972h.167c2.609,0,3.111.428,3.663,3.136.142.7.25,1.4.392,2.1.17.837.529,1.224,1.251,1.224A2.688,2.688,0,0,0,44.8,54c1.42-.223,1.6-.419,1.278-1.865a16.044,16.044,0,0,0-.549-1.826c-.257-.725-.174-1.28.687-1.412a1.629,1.629,0,0,1,.246-.02c.637,0,.966.436,1,1.1a10.386,10.386,0,0,0,.479,2.582c.142.45.348.7.717.7a1.186,1.186,0,0,0,.316-.049c.639-.178.953-.5.6-1.206-.957-1.938.918-2.883,1.705-4.021a1.273,1.273,0,0,1,1.123-.537m-14.213,7.98a3.129,3.129,0,0,1,2.506-.672c.848-.029,1.091-.436.822-1.26a11.28,11.28,0,0,1-.689-2.761c-.066-1.141-.59-1.455-1.559-1.455h-.113c-1.048.024-1.691.467-1.72,1.534-.04,1.5-.248,3.031.752,4.613M53.935,53.4a1.914,1.914,0,0,0,1.88-1.6c.068-.9-1.082-1.932-2.243-2.021q-.164-.013-.311-.013c-.943,0-1.339.4-1.423,1.4a2.145,2.145,0,0,0,1.948,2.221q.074.007.148.007m-1.528-6.948h0a2.245,2.245,0,0,0-1.945.968,6.24,6.24,0,0,1-.632.712,5.425,5.425,0,0,0-1.359,1.931c0-.044-.006-.089-.008-.133a1.974,1.974,0,0,0-2-2.05,2.626,2.626,0,0,0-.4.031,1.889,1.889,0,0,0-1.423.863,2.145,2.145,0,0,0-.055,1.871,15.364,15.364,0,0,1,.516,1.711c.06.266.089.439.1.55-.111.028-.286.063-.561.107a1.691,1.691,0,0,1-.26.023.448.448,0,0,1-.139-.015,1.311,1.311,0,0,1-.132-.408c-.069-.34-.13-.681-.19-1.021-.065-.362-.129-.724-.2-1.084-.645-3.163-1.556-3.936-4.643-3.936H38.9a31.517,31.517,0,0,0-5.266.619c-.726.128-1.478.259-2.211.364a1.989,1.989,0,0,0-1.388.752,2.473,2.473,0,0,0-.271,1.941l.015.1a1.549,1.549,0,0,0,1.564,1.435,3.069,3.069,0,0,0,.724-.107c.064-.015.127-.031.184-.04a7.986,7.986,0,0,0,1.227-.325c.229-.074.458-.15.692-.205.165-.04.3-.067.413-.082.01.083.019.2.023.352a23.569,23.569,0,0,0,.561,4.058,26.358,26.358,0,0,1,.491,3.086,12.8,12.8,0,0,0,.623,2.754l.14.46c.434,1.457,1.344,1.674,1.848,1.674a1.962,1.962,0,0,0,.579-.091A2.048,2.048,0,0,0,40.138,62.3a2.21,2.21,0,0,0,.045-1.769l-.158-.453a11.665,11.665,0,0,1-.638-2.289c.526-.05,1.052-.106,1.577-.165.316-.035.643-.07.858-.07h.065a8.07,8.07,0,0,1,.227.893,13.391,13.391,0,0,1,.191,1.383c.048.466.1.948.192,1.435a1.962,1.962,0,0,0,1.937,1.71,2.377,2.377,0,0,0,.427-.04,2,2,0,0,0,1.669-2.3,3.589,3.589,0,0,0-.265-1c-.041-.108-.083-.216-.115-.325-.131-.459-.258-.92-.386-1.381s-.255-.922-.386-1.382l.081-.012a1.43,1.43,0,0,1,.176-.012h0c.322,0,.344.1.377.25.059.266.129.53.2.8a6.415,6.415,0,0,1,.3,1.768,3.39,3.39,0,0,0,.772,2.5,2.066,2.066,0,0,0,1.541.715,2.142,2.142,0,0,0,.925-.217,1.716,1.716,0,0,0,.685-2.67,3.377,3.377,0,0,1-.431-1.719c-.016-.191-.033-.39-.057-.594.277,1.027.557,1.989.848,2.915.141.447.515,1.635,1.742,1.635a1.746,1.746,0,0,0,.307-.028,2.215,2.215,0,0,0,1.843-2.471,4.088,4.088,0,0,0-.086-.563c.2.135.4.269.6.4.182.118.362.24.543.362a12.093,12.093,0,0,0,1.829,1.084,2.852,2.852,0,0,0,1.17.257,2.666,2.666,0,0,0,2.591-2.16,1.893,1.893,0,0,0-.3-1.617,1.48,1.48,0,0,0-1.167-.556,1.768,1.768,0,0,0-.469.065,2.468,2.468,0,0,1-.66.1c-.786,0-1.376-.457-2.272-1.2l-.1-.087a6.048,6.048,0,0,0,1.652-1.578,3.6,3.6,0,0,0-.246-4.714,8.131,8.131,0,0,0-2.809-2.074l-.1-.038a7.081,7.081,0,0,0-2.456-.631ZM38.613,53.989a7.354,7.354,0,0,1-.192-2.584c.008-.188.015-.375.02-.561.009-.339.014-.544.743-.561h.09a1.024,1.024,0,0,1,.472.063h0a1.057,1.057,0,0,1,.088.449,10.512,10.512,0,0,0,.633,2.7l.089.268-.254,0a4.9,4.9,0,0,0-1.688.225ZM52.935,50.8a1.139,1.139,0,0,1,.326-.035c.073,0,.151,0,.234.01a1.581,1.581,0,0,1,1.323.949.939.939,0,0,1-.883.671l-.059,0a1.142,1.142,0,0,1-1.041-1.141,1.061,1.061,0,0,1,.1-.452Z" transform="translate(0)"/>
  </g>
  <g>
    <path class="cls-1" d="M17.194,41.013c-1.3,0-1.4-1.1-1.448-1.7a2.219,2.219,0,0,0-.1-.591,9.063,9.063,0,0,1-.531-1.948L15,36.183a1.41,1.41,0,0,0-.271-.722,2.92,2.92,0,0,0-.335-.287,1.618,1.618,0,0,1-.766-1.916,10.626,10.626,0,0,0,.338-1.54,5.485,5.485,0,0,1,1.666-3.645A4.506,4.506,0,0,1,18.5,26.943a4.024,4.024,0,0,1,2.965,1.382,1.68,1.68,0,0,0,1.31.7,3.577,3.577,0,0,0,1.049-.208c1.658-.522,3.375-.924,5.035-1.313l1.468-.347a4.216,4.216,0,0,1,.979-.135,1.594,1.594,0,0,1,1.209.457A2.592,2.592,0,0,1,33,29.491a18.747,18.747,0,0,0,1.088,6.6c.125.4.186.5.282.514h.012c.147,0,.237-.049.39-.543a23.168,23.168,0,0,0,1.091-7.1l0-.139a2.249,2.249,0,0,1,.48-1.729,1.754,1.754,0,0,1,1.33-.632,1.917,1.917,0,0,1,.449.056,1.552,1.552,0,0,1,1.206,1.487c.024.4.025.792.026,1.188l0,.516a12.491,12.491,0,0,0,1.377,6.442,1.7,1.7,0,0,1,.314,1.32,1.281,1.281,0,0,1-.729.768,1.673,1.673,0,0,1-.73.177,1.538,1.538,0,0,1-1.358-.877,11.644,11.644,0,0,1-.638-1.549,9.175,9.175,0,0,1-1.2,2.694,2.844,2.844,0,0,1-2.251,1.468c-.526,0-1.511-.247-2.188-1.9A26.7,26.7,0,0,1,30.2,31.193c-.119-1-.253-1-.474-1A3.536,3.536,0,0,0,29,30.3c-.323.074-.372.157-.372.157s-.042.083.061.37a19.329,19.329,0,0,1,.843,4.256,23.156,23.156,0,0,0,.553,3.274,2.064,2.064,0,0,1-.534,2.246,1.446,1.446,0,0,1-.976.4,1.68,1.68,0,0,1-.954-.328,1.969,1.969,0,0,1-.774-2.094,15.738,15.738,0,0,0-.778-6.819c-.191-.565-.377-.565-.466-.565a1.258,1.258,0,0,0-.48.134l-.27.118c-.595.257-1.107.479-1.341,1.013a4.3,4.3,0,0,1-1.71,2.22c.386.229.763.444,1.132.654.682.389,1.326.756,1.959,1.17a1.55,1.55,0,0,1,.89,1.9,1.938,1.938,0,0,1-1.521,1.462,1.674,1.674,0,0,1-.2.013,1.537,1.537,0,0,1-1.371-1.043c-.646-1.352-1.818-1.66-3.175-2.016-.363-.1-.735-.193-1.1-.315a1.6,1.6,0,0,0,.175.857,4.01,4.01,0,0,1,.19.572,3.2,3.2,0,0,1-.043,2.43,1.548,1.548,0,0,1-1.119.607A2.733,2.733,0,0,1,17.194,41.013Zm1.777-8.341a.808.808,0,0,0,.212-.019,4.794,4.794,0,0,1,.549-.13c.6-.118.776-.192.85-.486.108-.433-.169-.761-.63-1.262l-.108-.118a1.492,1.492,0,0,0-.266-.235,2.158,2.158,0,0,0-1.175-.447,1.233,1.233,0,0,0-.816.325,1.818,1.818,0,0,0-.465,1.85c.083.324.3.393,1,.459.178.017.352.034.513.063l.091,0Z" transform="translate(0)"/>
    <path class="cls-2" d="M37.669,26.965a1.414,1.414,0,0,1,.331.041,1.05,1.05,0,0,1,.824,1.035c.036.557.021,1.118.029,1.677A12.946,12.946,0,0,0,40.3,36.409c.29.487.544,1.02-.2,1.382a1.175,1.175,0,0,1-.513.127,1.041,1.041,0,0,1-.915-.609,28.612,28.612,0,0,1-1.116-2.9,14.154,14.154,0,0,1-1.574,3.981,2.475,2.475,0,0,1-1.844,1.258c-.671,0-1.289-.526-1.726-1.593A26.473,26.473,0,0,1,30.7,31.134c-.126-1.063-.329-1.441-.97-1.441a3.965,3.965,0,0,0-.839.124c-.7.16-.92.486-.671,1.183.866,2.421.718,5.034,1.384,7.492a1.566,1.566,0,0,1-.388,1.744.937.937,0,0,1-.64.27,1.2,1.2,0,0,1-.67-.239c-.576-.4-.645-.876-.561-1.627a16.209,16.209,0,0,0-.8-7.035c-.212-.627-.514-.906-.94-.906a1.714,1.714,0,0,0-.686.178c-.721.324-1.509.574-1.863,1.388a3.254,3.254,0,0,1-2.39,2.308c1.423.908,2.734,1.555,3.955,2.354.53.346.918.67.691,1.318-.186.529-.459,1.052-1.11,1.132a1.161,1.161,0,0,1-.142.009c-.464,0-.707-.314-.92-.759-1.021-2.137-3.216-2.023-5-2.748-.552.891.008,1.528.152,2.171.375,1.685.264,2.278-.75,2.434a2.256,2.256,0,0,1-.342.029c-1.217,0-.79-1.308-1.089-1.988a11.575,11.575,0,0,1-.591-2.314,2.075,2.075,0,0,0-.422-1.091c-.459-.491-1.3-.755-.991-1.706.551-1.677.292-3.663,1.849-4.957A4.014,4.014,0,0,1,18.5,27.443a3.528,3.528,0,0,1,2.6,1.224,2.2,2.2,0,0,0,1.676.855,4.064,4.064,0,0,0,1.2-.231c2.12-.668,4.305-1.129,6.47-1.651a3.76,3.76,0,0,1,.863-.121c.931,0,1.264.6,1.2,1.947a19.122,19.122,0,0,0,1.11,6.779c.124.391.258.817.713.86q.048,0,.092,0c.521,0,.7-.454.833-.9a23.543,23.543,0,0,0,1.113-7.251,1.978,1.978,0,0,1,.353-1.53,1.251,1.251,0,0,1,.957-.464M18.593,33.173c.046,0,.09,0,.135,0l.243,0a1.193,1.193,0,0,0,.366-.043c.642-.207,1.518-.122,1.73-.971.194-.773-.376-1.313-.853-1.838a2.042,2.042,0,0,0-.353-.311,2.648,2.648,0,0,0-1.458-.534,1.726,1.726,0,0,0-1.139.443,2.31,2.31,0,0,0-.626,2.356c.236.923,1.248.755,1.956.9m19.076-7.208h0a2.241,2.241,0,0,0-1.7.8,2.727,2.727,0,0,0-.607,2.069l0,.138a22.412,22.412,0,0,1-.94,6.514,17.507,17.507,0,0,1-.922-5.97,3.2,3.2,0,0,0-.623-2.386,2.074,2.074,0,0,0-1.571-.612,4.7,4.7,0,0,0-1.1.149c-.488.118-.977.232-1.466.347-1.669.391-3.394.795-5.07,1.323a3.142,3.142,0,0,1-.9.185c-.214,0-.482-.042-.945-.537a4.51,4.51,0,0,0-3.33-1.541,5,5,0,0,0-3.188,1.246,5.887,5.887,0,0,0-1.839,3.947,10.306,10.306,0,0,1-.32,1.467,2.093,2.093,0,0,0,.932,2.465,2.741,2.741,0,0,1,.277.235,1.257,1.257,0,0,1,.148.48l.027.132c.032.152.061.306.091.46a9.416,9.416,0,0,0,.564,2.053,2.612,2.612,0,0,1,.058.433,1.984,1.984,0,0,0,1.947,2.152,3.265,3.265,0,0,0,.494-.04,2.02,2.02,0,0,0,1.456-.82c.468-.686.392-1.587.118-2.82a4.143,4.143,0,0,0-.2-.607l.318.084c1.429.376,2.331.661,2.85,1.748a2.032,2.032,0,0,0,1.822,1.328,2.161,2.161,0,0,0,.265-.017,2.416,2.416,0,0,0,1.931-1.793,2.046,2.046,0,0,0-1.087-2.487c-.645-.421-1.294-.792-1.982-1.183l-.476-.272a5.55,5.55,0,0,0,1.262-1.971c.146-.337.488-.5,1.079-.753l.277-.121a1.474,1.474,0,0,1,.183-.07,1.5,1.5,0,0,1,.084.206,15.253,15.253,0,0,1,.756,6.6,2.452,2.452,0,0,0,.987,2.561,2.166,2.166,0,0,0,1.238.416,1.936,1.936,0,0,0,1.312-.529,2.546,2.546,0,0,0,.681-2.746,22.426,22.426,0,0,1-.54-3.2,20.155,20.155,0,0,0-.83-4.254,4.02,4.02,0,0,1,.414-.072,4.48,4.48,0,0,1,.092.552,27.238,27.238,0,0,0,1.782,7.187c.788,1.927,2,2.215,2.651,2.215a3.311,3.311,0,0,0,2.658-1.677,7.19,7.19,0,0,0,.823-1.543c.053.114.108.227.166.339a2.031,2.031,0,0,0,1.8,1.146,2.168,2.168,0,0,0,.949-.227,1.761,1.761,0,0,0,.989-1.074,2.159,2.159,0,0,0-.364-1.719A12.067,12.067,0,0,1,39.853,29.7c0-.172,0-.344,0-.516,0-.392,0-.8-.028-1.211a2.054,2.054,0,0,0-1.587-1.943,2.421,2.421,0,0,0-.566-.069ZM17.607,32.024a1.351,1.351,0,0,1,.3-1.344.728.728,0,0,1,.493-.206,1.72,1.72,0,0,1,.893.36,1.05,1.05,0,0,1,.178.158l.112.122c.394.429.553.635.511.8a2.234,2.234,0,0,1-.461.117,5.22,5.22,0,0,0-.606.145s-.028,0-.06,0h-.3c-.171-.028-.337-.044-.5-.06a3.03,3.03,0,0,1-.564-.086Z" transform="translate(0)"/>
  </g>
  <g>
    <path class="cls-1" d="M136.6,33.309a2.158,2.158,0,0,1-.366-.034A7.007,7.007,0,0,0,135,33.186c-.247,0-.493.006-.739.013s-.507.013-.76.013a7.051,7.051,0,0,1-1.791-.193.5.5,0,0,1-.271-.181,1.924,1.924,0,0,1-.258-1.6c.02-.124.039-.244.045-.348l-.052,0a1.342,1.342,0,0,0-.648.266,3.4,3.4,0,0,1-.536.282,9.137,9.137,0,0,1-3.3.677h0a7.035,7.035,0,0,1-1.683-.2,3.1,3.1,0,0,1-2.216-1.5,2.961,2.961,0,0,1,.17-2.562,14.83,14.83,0,0,1,2.268-3.539c.4-.462.784-.937,1.17-1.413a31.519,31.519,0,0,1,2.444-2.782,19.432,19.432,0,0,0,4.135-5.873l.078-.177c.207-.472.521-1.185,1.365-1.185a1.455,1.455,0,0,1,.163.009,1.919,1.919,0,0,1,1.636,1.39c.538,1.891,1.892,3.141,3.474,4.465a10.936,10.936,0,0,1,4.284,8.127c.064,1.281.161,3.216-1.824,4.162a3.09,3.09,0,0,1-1.342.3,4.759,4.759,0,0,1-3.452-1.793l-.118-.139a7.13,7.13,0,0,0,.4,2.281,1.32,1.32,0,0,1-.116,1.219A1.089,1.089,0,0,1,136.6,33.309Zm-2.489-14.982c-.064,0-.136.077-.172.123-.9,1.148-1.888,2.253-2.839,3.322a38.751,38.751,0,0,0-4.842,6.25c-.251.436-.258.661-.226.719s.17.134.546.153q.393.021.776.021c2.783,0,4.544-.9,5.707-2.919.723-1.252,1.569-1.887,2.519-1.887a3.393,3.393,0,0,1,2.574,1.668c.191.257.358.533.524.808a4.136,4.136,0,0,0,1.083,1.342,1.186,1.186,0,0,0,.65.265c.078,0,.315,0,.518-.482a3.456,3.456,0,0,0,.178-.837c.019-.137.038-.278.063-.422l-.266-.982c-.824-3.133-3.243-4.776-5.8-6.517l-.8-.545A.4.4,0,0,0,134.111,18.327Z" transform="translate(0)"/>
    <path class="cls-2" d="M134.425,13.374a.981.981,0,0,1,.108.006,1.42,1.42,0,0,1,1.21,1.03c.586,2.061,2.068,3.4,3.633,4.711a10.523,10.523,0,0,1,4.107,7.769c.075,1.5.041,2.932-1.54,3.686a2.6,2.6,0,0,1-1.127.252,4.3,4.3,0,0,1-3.079-1.626,1.015,1.015,0,0,0-.881-.5h-.028a6.305,6.305,0,0,0,.337,3.122c.187.627-.016.989-.565.989a1.635,1.635,0,0,1-.28-.026,7.638,7.638,0,0,0-1.319-.1c-.5,0-1,.026-1.5.026a6.494,6.494,0,0,1-1.665-.177c-.512-.675.059-1.435-.164-2.038a1.261,1.261,0,0,0-.5-.111c-.544,0-.921.412-1.363.582a8.667,8.667,0,0,1-3.116.644,6.5,6.5,0,0,1-1.563-.189c-1.882-.464-2.519-1.6-1.71-3.373a14.326,14.326,0,0,1,2.191-3.42c1.2-1.388,2.276-2.892,3.584-4.163a20.039,20.039,0,0,0,4.24-6.02c.223-.481.4-1.072.989-1.072m-7.071,16.041c2.5,0,4.705-.678,6.142-3.169.633-1.1,1.343-1.636,2.084-1.636a2.957,2.957,0,0,1,2.173,1.467,8.566,8.566,0,0,0,1.723,2.262,1.689,1.689,0,0,0,.936.354,1.076,1.076,0,0,0,.978-.789,7.594,7.594,0,0,0,.291-1.475c-.088-.325-.193-.7-.294-1.086-.962-3.657-3.988-5.4-6.8-7.346a.845.845,0,0,0-.477-.17.72.72,0,0,0-.564.314c-2.546,3.233-5.645,6.024-7.721,9.632-.571.993-.347,1.567.728,1.621q.405.021.8.021m6.96,1.29c.137-.056.345-.076.4-.177a.4.4,0,0,0-.211-.559.316.316,0,0,0-.149-.044c-.1,0-.18.076-.226.214a.412.412,0,0,0,.188.567m.111-18.33a2.032,2.032,0,0,0-1.822,1.484l-.074.167a18.96,18.96,0,0,1-4.03,5.724,31.869,31.869,0,0,0-2.485,2.826c-.382.471-.765.943-1.16,1.4a15.307,15.307,0,0,0-2.344,3.659,3.43,3.43,0,0,0-.165,2.987,3.567,3.567,0,0,0,2.546,1.771,7.534,7.534,0,0,0,1.8.218,9.617,9.617,0,0,0,3.475-.711,3.085,3.085,0,0,0,.454-.224,2.128,2.128,0,0,0,.418,1.462,1,1,0,0,0,.542.362,7.518,7.518,0,0,0,1.919.21c.257,0,.514-.007.773-.013.242-.006.484-.013.726-.013a6.553,6.553,0,0,1,1.147.082,2.64,2.64,0,0,0,.452.041,1.586,1.586,0,0,0,1.329-.613,1.793,1.793,0,0,0,.2-1.66c-.081-.27-.157-.539-.22-.805a4.75,4.75,0,0,0,2.913,1.1,3.589,3.589,0,0,0,1.558-.35c2.286-1.09,2.175-3.312,2.108-4.639a11.563,11.563,0,0,0-4.464-8.486c-1.518-1.27-2.814-2.463-3.313-4.217a2.416,2.416,0,0,0-2.061-1.75,1.978,1.978,0,0,0-.219-.012Zm-7.8,16.022c.019-.037.041-.079.068-.125a37.808,37.808,0,0,1,4.782-6.167c.907-1.019,1.844-2.071,2.717-3.166l.631.43c2.48,1.686,4.823,3.278,5.6,6.23.072.272.146.542.214.793l.024.089c-.017.111-.032.22-.047.327a3.163,3.163,0,0,1-.145.712.763.763,0,0,1-.092.169,1.075,1.075,0,0,1-.329-.169,3.718,3.718,0,0,1-.94-1.189c-.168-.278-.342-.566-.553-.85a3.848,3.848,0,0,0-2.975-1.869c-.784,0-1.933.37-2.951,2.137-1.079,1.871-2.656,2.669-5.276,2.669-.24,0-.484-.007-.73-.019Z" transform="translate(0)"/>
  </g>
  <g>
    <path class="cls-1" d="M102.078,39.914a1.653,1.653,0,0,1-1.3-.753,3.024,3.024,0,0,1-.5-1.793l-.017-.292c-.086-1.224-.186-2.447-.291-3.726l-.072-.893a21.057,21.057,0,0,1-6.183,1.2,29.009,29.009,0,0,0-3.873.52c-.107,1.017.462,1.534,1.4,2.012a.5.5,0,0,1,.258.57c-.392,1.528-1.273,1.858-1.944,1.867-1.211,0-1.533-1.05-1.725-1.677l-.052-.166c-.181-.57-.394-1.131-.606-1.693a14.626,14.626,0,0,1-1.143-4.34c-.043-.741-.188-.939-.743-1.012a1.7,1.7,0,0,1-1.178-.664,1.608,1.608,0,0,1-.261-1.269,1.74,1.74,0,0,1,1.511-1.472,2.9,2.9,0,0,0,.55-.193,2.612,2.612,0,0,1,1-.271,1.307,1.307,0,0,1,.2.015,8.3,8.3,0,0,0,1.3.1,19.009,19.009,0,0,0,3.741-.5c.772-.155,1.57-.314,2.372-.414a4.031,4.031,0,0,0,.4-.079,3.442,3.442,0,0,1,.755-.113,1.337,1.337,0,0,1,.479.082,9.849,9.849,0,0,0,3.593.558c.657,0,1.316-.033,1.976-.066.676-.034,1.352-.067,2.025-.067l.274,0c.157,0,.283-.008.408-.017.148-.01.3-.019.442-.019a2.62,2.62,0,0,1,.4.028,1.468,1.468,0,0,1,1.354,1.708,1.444,1.444,0,0,1-1.447,1.281c-.058.005-.117.006-.177.006l-.1-.5-.024.5a3.668,3.668,0,0,1-.738-.1,2.857,2.857,0,0,0-.535-.081c-.164,0-.214.041-.271.138a4.069,4.069,0,0,0-.562,2.208,17.99,17.99,0,0,1,0,2.128,7.343,7.343,0,0,0,.711,4.4,1.973,1.973,0,0,1-.17,2.141A1.538,1.538,0,0,1,102.078,39.914ZM94.364,27.737a2.313,2.313,0,0,0-.464.079l-.127.029c-.4.088-.795.182-1.191.275-.988.233-2.011.474-3.039.629-.614.093-.75.257-.762.925s.014,1.135.177,1.3a2.585,2.585,0,0,0,1.375.229c.26,0,.552-.007.88-.019.362-.034.787-.069,1.236-.1,1.149-.093,2.452-.2,3.743-.377a5.211,5.211,0,0,0,2.781-1.179c.236-.207.754-.747.46-1.286-.021-.041-.047-.087-.213-.087a2.848,2.848,0,0,0-.713.148l-.164.048a6.592,6.592,0,0,1-1.824.354,2.677,2.677,0,0,1-2.077-.96Z" transform="translate(0)"/>
    <path class="cls-2" d="M95.685,25.374a.848.848,0,0,1,.3.049,10.472,10.472,0,0,0,3.77.59c1.332,0,2.669-.133,4-.133l.261,0h.041c.273,0,.55-.036.822-.036a2.159,2.159,0,0,1,.327.022,1,1,0,0,1-.06,2c-.046,0-.092,0-.139,0h-.125c-.4,0-.87-.181-1.273-.181a.743.743,0,0,0-.7.387,4.587,4.587,0,0,0-.627,2.5c.174,2.25-.536,4.606.78,6.747a1.479,1.479,0,0,1-.151,1.589,1.043,1.043,0,0,1-.832.505,1.165,1.165,0,0,1-.9-.551,3.154,3.154,0,0,1-.416-1.823c-.121-1.725-.27-3.448-.421-5.325-3.553,1.7-7.409,1.154-10.936,2.049-.338,1.575.544,2.322,1.615,2.866-.223.868-.65,1.481-1.466,1.491h-.018c-.894,0-1.068-.839-1.276-1.494-.622-1.956-1.606-3.808-1.727-5.911-.044-.762-.209-1.352-1.178-1.479a1.1,1.1,0,0,1-1.01-1.347,1.244,1.244,0,0,1,1.109-1.07c.5-.092,1-.455,1.464-.455a.8.8,0,0,1,.123.009,8.851,8.851,0,0,0,1.372.1c2.1,0,4.113-.66,6.176-.916a10.055,10.055,0,0,1,1.1-.188m-5.353,6.331c.265,0,.563-.007.9-.02,1.387-.128,3.218-.236,5.03-.487A5.724,5.724,0,0,0,99.3,29.9a1.546,1.546,0,0,0,.57-1.9.681.681,0,0,0-.653-.348,3.368,3.368,0,0,0-.89.179,6.7,6.7,0,0,1-1.811.372,2.179,2.179,0,0,1-1.705-.8.573.573,0,0,0-.449-.171,3.426,3.426,0,0,0-.7.119c-1.4.31-2.786.684-4.2.9-.909.138-1.17.551-1.186,1.41-.03,1.662.153,2.04,2.052,2.04m5.353-7.331h0a3.872,3.872,0,0,0-.867.125c-.119.027-.238.056-.352.07-.82.1-1.628.263-2.41.42a18.662,18.662,0,0,1-3.644.488,7.8,7.8,0,0,1-1.217-.091,1.8,1.8,0,0,0-.278-.021,3.083,3.083,0,0,0-1.2.31,2.711,2.711,0,0,1-.448.162,2.231,2.231,0,0,0-1.911,1.874,2.125,2.125,0,0,0,.347,1.653,2.2,2.2,0,0,0,1.517.866.6.6,0,0,1,.234.062,1.4,1.4,0,0,1,.075.482,15,15,0,0,0,1.176,4.491c.217.572.421,1.113.6,1.665l.049.159a2.337,2.337,0,0,0,2.18,2.032c.722-.009,1.957-.311,2.452-2.243a1,1,0,0,0-.516-1.14c-.736-.374-1.073-.694-1.133-1.161a32.2,32.2,0,0,1,3.422-.427,23.557,23.557,0,0,0,5.693-.994l.019.237c.1,1.275.2,2.495.29,3.716.007.094.011.189.016.282a3.485,3.485,0,0,0,.594,2.065,2.136,2.136,0,0,0,1.707.957,2.022,2.022,0,0,0,1.645-.924,2.476,2.476,0,0,0,.189-2.694,6.973,6.973,0,0,1-.637-4.112,18.419,18.419,0,0,0,0-2.188,3.551,3.551,0,0,1,.429-1.8c.1.012.221.037.338.061a4.076,4.076,0,0,0,.84.111h.087c.115,0,.188,0,.261-.008a2,2,0,0,0,.126-3.981,3.143,3.143,0,0,0-.478-.034c-.157,0-.316.01-.475.02-.116.008-.232.016-.347.016l-.3,0c-.69,0-1.381.035-2.05.068s-1.31.065-1.951.065a9.375,9.375,0,0,1-3.417-.526,1.846,1.846,0,0,0-.654-.113Zm-6.357,4.934a2.3,2.3,0,0,1,.289-.065c1.047-.159,2.078-.4,3.076-.636.4-.093.792-.186,1.188-.274l.132-.03c.069-.016.153-.036.225-.049a3.153,3.153,0,0,0,2.28.95,6.951,6.951,0,0,0,1.966-.375l.127-.037c.128-.038.268-.079.389-.106a1.378,1.378,0,0,1-.356.465,4.724,4.724,0,0,1-2.521,1.059c-1.277.177-2.573.282-3.717.374-.44.036-.856.069-1.239.1-.31.011-.587.018-.834.018a3.518,3.518,0,0,1-1.006-.086,3.987,3.987,0,0,1-.046-.937,1.182,1.182,0,0,1,.045-.375Z" transform="translate(0)"/>
  </g>
  <g>
    <path class="cls-1" d="M134.7,89.265a1.816,1.816,0,0,1-1.622-1.072,8.6,8.6,0,0,0-3.769-3.64,10.112,10.112,0,0,1-5.356-7.993,3.589,3.589,0,0,1,.883-2.835,3.636,3.636,0,0,1,2.755-1.2c.03,0,.14,0,.17.009l.171.031a3.183,3.183,0,0,1,2.279,1.2,3.229,3.229,0,0,0,.566.6,2.867,2.867,0,0,0,1.114.708c.228,0,.6-.464.9-.869,2.22-3.01,5.476-3.6,8.366-3.776.151-.01.3-.014.437-.014a2.811,2.811,0,0,1,2.483,1,3.353,3.353,0,0,1-.032,3.137,25.794,25.794,0,0,1-3.575,5.9c-.314.426-.628.851-.934,1.279a21.108,21.108,0,0,0-3.346,6.105c-.156.525-.387,1.3-1.235,1.421A1.9,1.9,0,0,1,134.7,89.265Zm-7.186-13.452a.743.743,0,0,0-.549.508,2.313,2.313,0,0,0,.054,1.544c1.238,3.354,4.156,4.671,7.246,6.064l.31.141c.1-.017.27-.261.334-.354.292-.417.593-.83.894-1.242.575-.79,1.171-1.606,1.688-2.441.383-.619.8-1.221,1.209-1.821a20.179,20.179,0,0,0,2.313-3.977c.23-.587.137-.75.136-.752s-.078-.053-.272-.053c-3.012.173-4.724,1.016-5.811,2.822-1.114,1.85-1.866,2.788-2.881,2.788h0c-.889,0-1.753-.753-3.036-2.143A3.34,3.34,0,0,0,127.516,75.813Z" transform="translate(0)"/>
    <path class="cls-2" d="M141.6,70.9c2.207,0,2.84,1.242,1.983,3.46-1.024,2.649-2.836,4.809-4.448,7.065a21.607,21.607,0,0,0-3.417,6.252c-.13.43-.269.989-.828,1.07a1.287,1.287,0,0,1-.183.013,1.327,1.327,0,0,1-1.174-.794,9.2,9.2,0,0,0-3.97-3.851,9.613,9.613,0,0,1-5.106-7.615,3.094,3.094,0,0,1,3.14-3.482h.08a2.933,2.933,0,0,1,2.133,1.024,3.719,3.719,0,0,0,.655.694c.644.535,1.059.824,1.433.824.4,0,.76-.339,1.3-1.073,2.014-2.731,4.924-3.385,8-3.574q.211-.013.406-.013m-9.409,7.636c-.686,0-1.459-.672-2.67-1.982a3.794,3.794,0,0,0-2-1.259,1.261,1.261,0,0,0-1.028.866,2.8,2.8,0,0,0,.061,1.872c1.354,3.669,4.622,5.042,7.818,6.487a.558.558,0,0,0,.231.054c.307,0,.526-.3.718-.575.865-1.236,1.8-2.427,2.6-3.708,1.205-1.948,2.711-3.716,3.562-5.878.377-.959.2-1.487-.6-1.487-.038,0-.077,0-.118,0-2.458.142-4.738.761-6.122,3.06-1.031,1.713-1.687,2.546-2.451,2.546M141.6,69.9q-.224,0-.467.015c-3.007.185-6.4.8-8.739,3.978a4.193,4.193,0,0,1-.541.642,7.023,7.023,0,0,1-.749-.568,2.738,2.738,0,0,1-.479-.5,3.655,3.655,0,0,0-2.6-1.4l-.167-.03a1,1,0,0,0-.159-.016h-.1a4.093,4.093,0,0,0-4.133,4.595,10.584,10.584,0,0,0,5.606,8.372,8.137,8.137,0,0,1,3.568,3.426,2.333,2.333,0,0,0,2.07,1.35,2.28,2.28,0,0,0,.325-.023,2.093,2.093,0,0,0,1.625-1.707l.019-.063a20.689,20.689,0,0,1,3.273-5.96c.3-.426.616-.848.928-1.271a26.145,26.145,0,0,0,3.64-6.015c.586-1.515.579-2.727-.02-3.6a3.271,3.271,0,0,0-2.9-1.22Zm-9.409,9.636c1.374,0,2.274-1.313,3.308-3.03.965-1.6,2.5-2.375,5.093-2.563-.011.032-.024.067-.039.1a19.734,19.734,0,0,1-2.26,3.877c-.408.594-.83,1.208-1.221,1.84-.507.82-1.072,1.594-1.669,2.413-.3.414-.6.828-.9,1.247l-.03.043c-2.99-1.349-5.814-2.624-6.98-5.781a1.817,1.817,0,0,1-.048-1.216.221.221,0,0,1,.095-.134,3.044,3.044,0,0,1,1.245.9c1.411,1.527,2.326,2.3,3.4,2.3Z" transform="translate(0)"/>
  </g>
  <g>
    <path class="cls-1" d="M48.621,81.1a2.024,2.024,0,0,1-1.511-.712,1.5,1.5,0,0,1-.264-1.253c.368-1.789-.218-3.378-.838-5.06-.109-.294-.218-.589-.321-.886-.033-.094-.072-.189-.111-.287a1.966,1.966,0,0,1-.163-1.559,1.535,1.535,0,0,1,.959-.77,2.343,2.343,0,0,1,.764-.143,1.315,1.315,0,0,1,1.122.547,1.947,1.947,0,0,1,1.455-1.28,2.014,2.014,0,0,1,.376-.037,2.148,2.148,0,0,1,1.754,1.223c.1.148.2.3.315.433a11.367,11.367,0,0,1,1.521,2.666c.149.33.3.662.464.988a.952.952,0,0,1,.511-.382c1.716-.479,2.607-1.039,2.72-2.772.108-1.659,2.5-2.86,4.056-2.86.085,0,.169,0,.25.011a2.715,2.715,0,0,1,2.135,1.192,2.831,2.831,0,0,1,.19,2.539,5.568,5.568,0,0,1-2.971,2.89l-.346.2c-.455.26-.717.549-.719.793s.239.51.662.76a2.193,2.193,0,0,0,1.124.374,1.6,1.6,0,0,0,.51-.086,15.617,15.617,0,0,0,3.383-1.466,1.726,1.726,0,0,1,.9-.282,1.2,1.2,0,0,1,1.055.613,1.31,1.31,0,0,1,.17,1.011,1.465,1.465,0,0,1-.719.889l-.165.1a11.467,11.467,0,0,1-4.639,1.893c-.181.017-.359.025-.535.025a4.747,4.747,0,0,1-4.3-2.645,2.6,2.6,0,0,1-.171-.429,1.289,1.289,0,0,0-.139-.33,7.4,7.4,0,0,0-2.388.508,1.011,1.011,0,0,0,.172.8,1.7,1.7,0,0,1,.28,1.461,1.369,1.369,0,0,1-.915.788,1.84,1.84,0,0,1-.594.106c-.525,0-1.227-.266-1.582-1.53a13.7,13.7,0,0,1-.31-1.554,12.482,12.482,0,0,0-.3-1.48c-.05-.174-.1-.368-.144-.569-.154-.654-.346-1.47-.726-1.47-.331.03-.415.464-.486,1.365a8.276,8.276,0,0,1-.1.857,5.292,5.292,0,0,0,.043,1.675,8.41,8.41,0,0,1,.1,1.31c-.038,1.517-.8,1.835-1.435,1.835ZM60.939,72a1.787,1.787,0,0,0-.321.246l-.077.066a2.3,2.3,0,0,0-.556.644,1.171,1.171,0,0,0,.818-.5c.094-.1.257-.324.2-.4A.381.381,0,0,0,60.939,72Z" transform="translate(0)"/>
    <path class="cls-2" d="M61.429,69.457c.071,0,.141,0,.208.008a2.139,2.139,0,0,1,1.9,3.063c-.542,1.5-1.853,2.112-3.094,2.821-1.263.721-1.3,1.685-.062,2.418a2.7,2.7,0,0,0,1.377.443,2.111,2.111,0,0,0,.667-.111,15.9,15.9,0,0,0,3.49-1.516,1.238,1.238,0,0,1,.636-.206.7.7,0,0,1,.625.37.826.826,0,0,1-.374,1.212,11.542,11.542,0,0,1-4.6,1.923q-.248.023-.489.023a4.241,4.241,0,0,1-3.861-2.383c-.2-.369-.2-1.013-.754-1.013a.792.792,0,0,0-.08,0,7.557,7.557,0,0,0-2.521.547c-.524.255-.326,1.017-.04,1.5.392.667.463,1.239-.365,1.523a1.331,1.331,0,0,1-.431.079c-.634,0-.94-.591-1.1-1.165-.278-.991-.323-2.049-.607-3.038-.262-.911-.4-2.4-1.35-2.4-.031,0-.063,0-.1,0-1,.1-.793,1.645-.979,2.626a17.823,17.823,0,0,0,.136,3.064c-.014.571-.119,1.348-.934,1.348l-.079,0c-.784-.046-1.489-.511-1.313-1.365.464-2.259-.474-4.2-1.177-6.211-.249-.712-.815-1.565.377-1.978a1.848,1.848,0,0,1,.6-.116c.729,0,.988.653,1.086,1.476a2.078,2.078,0,0,0,.23-.415c.218-.785.461-1.63,1.356-1.8a1.485,1.485,0,0,1,.281-.028c.863,0,1.183.871,1.684,1.474a24.1,24.1,0,0,1,2.16,4.009.52.52,0,0,0,.13.018c.377,0,.423-.508.724-.592,1.663-.464,2.946-1.075,3.085-3.222.083-1.286,2.138-2.392,3.556-2.392m-1.5,4a1.633,1.633,0,0,0,1.242-.662c.261-.289.495-.7.211-1.052a.563.563,0,0,0-.433-.251c-.265,0-.513.247-.739.442a2.288,2.288,0,0,0-.88,1.42,1.971,1.971,0,0,0,.6.1m1.5-5h0c-1.727,0-4.424,1.327-4.554,3.328-.095,1.461-.772,1.881-2.356,2.323a1.333,1.333,0,0,0-.2.073q-.092-.2-.186-.407A11.763,11.763,0,0,0,52.543,71c-.1-.123-.194-.26-.287-.4a2.618,2.618,0,0,0-2.166-1.439,2.5,2.5,0,0,0-.47.046,2.272,2.272,0,0,0-1.5.983,1.918,1.918,0,0,0-.986-.259,2.809,2.809,0,0,0-.926.171,2.009,2.009,0,0,0-1.251,1.035,2.425,2.425,0,0,0,.155,1.952c.036.09.072.179.1.266.1.3.215.6.325.9a8.646,8.646,0,0,1,.817,4.784,2.013,2.013,0,0,0,.356,1.658,2.52,2.52,0,0,0,1.879.906c.047,0,.093,0,.138,0,.564,0,1.882-.226,1.934-2.323a8.77,8.77,0,0,0-.1-1.387,4.9,4.9,0,0,1-.048-1.516,8.63,8.63,0,0,0,.1-.911c.011-.145.026-.333.048-.51.072.234.136.5.179.689.049.21.1.412.15.593a12.012,12.012,0,0,1,.283,1.419A14.056,14.056,0,0,0,51.6,79.27c.463,1.649,1.492,1.9,2.064,1.9a2.333,2.333,0,0,0,.756-.133,1.842,1.842,0,0,0,1.221-1.087,2.264,2.264,0,0,0-.318-1.888,1.329,1.329,0,0,1-.1-.215,7.094,7.094,0,0,1,1.568-.3,2.778,2.778,0,0,0,.188.456,5.227,5.227,0,0,0,4.74,2.906q.287,0,.582-.028a11.815,11.815,0,0,0,4.845-1.958l.167-.1a1.938,1.938,0,0,0,.949-1.2,1.824,1.824,0,0,0-.226-1.391,1.7,1.7,0,0,0-1.483-.856,2.22,2.22,0,0,0-1.165.358,15.176,15.176,0,0,1-3.275,1.415,1.115,1.115,0,0,1-.354.061,1.741,1.741,0,0,1-.869-.3,1.266,1.266,0,0,1-.4-.327,1.341,1.341,0,0,1,.451-.361l.346-.195a6.042,6.042,0,0,0,3.193-3.155,3.363,3.363,0,0,0-.239-2.978,3.207,3.207,0,0,0-2.515-1.422c-.095-.008-.193-.012-.292-.012Z" transform="translate(0)"/>
  </g>
  <g>
    <path class="cls-1" d="M18.193,63.157a1.68,1.68,0,0,1-1.575-1.139,4.259,4.259,0,0,1-.228-1.259c-.013-.168-.025-.336-.048-.5a5.531,5.531,0,0,1-.038-.619,2.484,2.484,0,0,0-.07-.682c-1.786-1.315-1.362-2.922-.823-4.321a2.337,2.337,0,0,0-.069-1.067l-.062-.321-.034-.214c-.088-.583-.142-.583-.249-.583a.9.9,0,0,0-.2.026,1.247,1.247,0,0,0-.823.438.705.705,0,0,0,.031.571,7.545,7.545,0,0,1,.353,3.529,4.638,4.638,0,0,1-3.191,4.161,5.1,5.1,0,0,1-1.7.321,3.9,3.9,0,0,1-3.128-1.674A7.265,7.265,0,0,1,7.5,50.077a3.788,3.788,0,0,1,1.223-.6,3.461,3.461,0,0,1,.993-.188,1.283,1.283,0,0,1,1.275.884A1.228,1.228,0,0,1,11,51.16a1.543,1.543,0,0,1-1.027.693,3.144,3.144,0,0,0-.333.12,3.76,3.76,0,0,0-1.922,2.694,3.847,3.847,0,0,0,.608,3.284,1.822,1.822,0,0,0,1.379.638,1.716,1.716,0,0,0,.819-.208,2.427,2.427,0,0,0,1.22-2.439c-.011-.039-.014-.05-.187-.136a2.242,2.242,0,0,1-.284-.163A2.773,2.773,0,0,1,9.792,53.3c.026-.612.365-1.522,1.838-2.377a14.882,14.882,0,0,1,7.356-2.109h.006a.5.5,0,0,1,.157.025,2.144,2.144,0,0,0,.678.088l.593-.011a2.48,2.48,0,0,1,1.26.282,1.587,1.587,0,0,1,.836,2.19c-.376.89-.953,1.023-1.264,1.023a1.62,1.62,0,0,1-.983-.391,1.666,1.666,0,0,0-.855-.308,5.4,5.4,0,0,0-.655-.047.989.989,0,0,0-.728.19c-.165.188-.2.656-.1,1.389.258,1.891.333,1.956.646,1.956a9.337,9.337,0,0,0,1.69-.329c1.019-.247,2.071-.449,3.362-.646a1.216,1.216,0,0,1,.18-.014,1.076,1.076,0,0,1,1.086.929,1.138,1.138,0,0,1-.767,1.307c-.688.23-1.381.447-2.073.663-.675.211-1.349.422-2.02.646-1.272.427-1.272.427-.86,1.789a5.165,5.165,0,0,0,.246.614,4.768,4.768,0,0,1,.35.965,1.509,1.509,0,0,1-.994,1.94,1.988,1.988,0,0,1-.586.092Z" transform="translate(0)"/>
    <path class="cls-2" d="M18.992,49.311a2.6,2.6,0,0,0,.835.114c.2,0,.4-.011.593-.011a1.987,1.987,0,0,1,1.016.219,1.105,1.105,0,0,1,.621,1.559c-.189.446-.456.719-.8.719a1.135,1.135,0,0,1-.676-.285,2.152,2.152,0,0,0-1.1-.409,5.9,5.9,0,0,0-.717-.051c-1.215,0-1.533.584-1.321,2.146.245,1.8.324,2.389,1.141,2.389a9.587,9.587,0,0,0,1.86-.356c1.077-.262,2.173-.458,3.269-.626a.677.677,0,0,1,.1-.008.579.579,0,0,1,.593.511.634.634,0,0,1-.433.75c-1.357.456-2.733.855-4.09,1.309-1.658.555-1.709.664-1.181,2.408.158.524.473,1.008.585,1.537a1.03,1.03,0,0,1-.652,1.359,1.491,1.491,0,0,1-.439.07,1.179,1.179,0,0,1-1.109-.824,7.244,7.244,0,0,1-.246-1.643c-.076-.549.042-1.366-.271-1.6-1.477-1.1-1.244-2.336-.688-3.775a3.406,3.406,0,0,0-.106-1.655c-.093-.527-.1-1.209-.776-1.209a1.4,1.4,0,0,0-.309.039c-.871.2-1.528.655-1.15,1.671a7.153,7.153,0,0,1,.325,3.3A4.127,4.127,0,0,1,11,60.705,4.62,4.62,0,0,1,9.466,61a3.414,3.414,0,0,1-2.738-1.487,6.765,6.765,0,0,1,1.077-9.04,3.336,3.336,0,0,1,1.061-.513,3.048,3.048,0,0,1,.848-.166.785.785,0,0,1,.807.558c.336.908-.521.911-1.089,1.167-2.283,1.028-3.11,4.878-1.487,6.761a2.326,2.326,0,0,0,1.758.811,2.208,2.208,0,0,0,1.058-.268A2.9,2.9,0,0,0,12.222,55.8c-.106-.363-.415-.395-.664-.569-1.841-1.286-1.625-2.749.324-3.881a14.318,14.318,0,0,1,7.111-2.042m0-1h-.012a15.323,15.323,0,0,0-7.416,2.07A2.322,2.322,0,0,0,11.458,50a1.777,1.777,0,0,0-1.745-1.21,3.936,3.936,0,0,0-1.14.21,4.288,4.288,0,0,0-1.382.679A7.76,7.76,0,0,0,5.948,60.137,4.369,4.369,0,0,0,9.466,62a5.566,5.566,0,0,0,1.866-.35A5.013,5.013,0,0,0,14.717,57.9a3.654,3.654,0,0,0,1.069,1.35c.011.115.015.279.018.4a6.008,6.008,0,0,0,.043.676c.021.155.033.313.045.47a4.678,4.678,0,0,0,.261,1.4,2.164,2.164,0,0,0,2.04,1.457,2.493,2.493,0,0,0,.734-.115,1.994,1.994,0,0,0,1.336-2.522,5.224,5.224,0,0,0-.383-1.066,4.979,4.979,0,0,1-.224-.554c-.068-.224-.194-.641-.238-.884.213-.1.594-.225.78-.287.665-.223,1.334-.432,2-.641.7-.218,1.395-.436,2.087-.668a1.642,1.642,0,0,0,1.1-1.861,1.58,1.58,0,0,0-1.58-1.349,1.676,1.676,0,0,0-.254.019c-1.308.2-2.374.4-3.354.643l-.05.012a12.829,12.829,0,0,1-1.471.31,14.285,14.285,0,0,1-.251-1.514,2.654,2.654,0,0,1-.021-.982,1.311,1.311,0,0,1,.35-.035,4.96,4.96,0,0,1,.594.043,1.187,1.187,0,0,1,.61.207,2.1,2.1,0,0,0,1.29.5,1.86,1.86,0,0,0,1.725-1.328,2.086,2.086,0,0,0-1.053-2.822,2.98,2.98,0,0,0-1.5-.346c-.106,0-.213,0-.32.006-.09,0-.182,0-.273,0a1.631,1.631,0,0,1-.521-.063,1,1,0,0,0-.314-.051ZM9.7,58.089a1.323,1.323,0,0,1-1-.464,3.346,3.346,0,0,1-.5-2.85,3.669,3.669,0,0,1,1.18-2.062,2.453,2.453,0,0,0-.091.564,3.238,3.238,0,0,0,1.692,2.776,2.547,2.547,0,0,0,.3.178,2.033,2.033,0,0,1-1.005,1.712,1.216,1.216,0,0,1-.58.146Zm4.726-4.943a1.073,1.073,0,0,1,.306-.135c.005.034.01.067.015.1.012.077.023.154.036.227.019.108.041.218.064.331a2.74,2.74,0,0,1,.093.792c-.033.086-.069.18-.107.281a6.917,6.917,0,0,0-.364-1.426.733.733,0,0,1-.045-.167Z" transform="translate(0)"/>
  </g>
  <g>
    <path class="cls-1" d="M74.47,59.777a4.5,4.5,0,0,1-1.8-.361,9.453,9.453,0,0,1-2.755-1.992c-.207.138-.405.274-.6.407A16.68,16.68,0,0,1,67.432,59a5.267,5.267,0,0,1-2.367.611,4.071,4.071,0,0,1-3.729-2.534c-.372-.768-.612-.832-.827-.832a1.678,1.678,0,0,0-.538.117,2.584,2.584,0,0,1-.88.168h0a1.375,1.375,0,0,1-1.443-1.3,1.7,1.7,0,0,1,.374-1.361,1.579,1.579,0,0,1,1.218-.5,2.523,2.523,0,0,1,.547.063,2.027,2.027,0,0,0,.432.055c.279,0,.662,0,.691-1.163a4.562,4.562,0,0,1,.486-2.315,3.217,3.217,0,0,1,2.561-1.883,2.445,2.445,0,0,1,2.438,2.555c-.014.487.056.665.882.745.236.023.454.042.65.042.436,0,.723,0,.77-.991.078-1.665,2.328-3.355,3.887-3.355A1.854,1.854,0,0,1,74.5,48.466a4.557,4.557,0,0,1-1.517,4.815,10.22,10.22,0,0,1-1.286.845l-.266.157c.433,1.649,1.274,2.468,2.7,2.638a5.026,5.026,0,0,0,.574.037,1.613,1.613,0,0,0,1.7-1.044l.045-.106c.173-.418.464-1.116,1.168-1.116a1.241,1.241,0,0,1,.683.231,1.765,1.765,0,0,1,.455,2.562A5.1,5.1,0,0,1,74.47,59.777Zm-8.9-5.959c-.1.011-.346.3-.479.453a3.124,3.124,0,0,1-.7.66.778.778,0,0,0-.367,1.177,1.039,1.039,0,0,0,.863.708,5.206,5.206,0,0,0,3.623-1.766.533.533,0,0,0,.1-.4.212.212,0,0,0-.113-.141,3.632,3.632,0,0,0-1.284-.3,5.041,5.041,0,0,1-1.625-.384l-.021-.508Zm-1.958-1.57a.793.793,0,0,1,.05-.149c-.026.042-.056.091-.078.133Zm8.275-1.766c-.134.015-.273.09-.353.459A.906.906,0,0,0,71.887,50.482Z" transform="translate(0)"/>
    <path class="cls-2" d="M72.58,47.624h.007a1.367,1.367,0,0,1,1.437,1,4.069,4.069,0,0,1-1.358,4.266,18.032,18.032,0,0,1-1.808,1.152c.388,1.807,1.261,3.14,3.21,3.372a5.382,5.382,0,0,0,.633.041,2.115,2.115,0,0,0,2.16-1.348c.158-.37.343-.918.753-.918a.746.746,0,0,1,.406.148,1.261,1.261,0,0,1,.307,1.882,4.617,4.617,0,0,1-3.858,2.055,4.033,4.033,0,0,1-1.6-.321,9.95,9.95,0,0,1-2.894-2.17,32.126,32.126,0,0,1-2.769,1.773,4.779,4.779,0,0,1-2.141.557,3.591,3.591,0,0,1-3.28-2.252c-.363-.75-.719-1.114-1.277-1.114a2.116,2.116,0,0,0-.708.147,2.128,2.128,0,0,1-.71.138.873.873,0,0,1-.946-.857,1.053,1.053,0,0,1,1.095-1.306,2.023,2.023,0,0,1,.438.051,2.5,2.5,0,0,0,.54.066c.917,0,1.167-.7,1.191-1.65a4.133,4.133,0,0,1,.419-2.078,2.641,2.641,0,0,1,2.128-1.633,1.947,1.947,0,0,1,.271.019,1.872,1.872,0,0,1,1.666,2.022c-.025.931.462,1.171,1.333,1.256.255.025.489.045.7.045.751,0,1.211-.256,1.267-1.467.064-1.356,2.071-2.879,3.387-2.879m-1.158,3.861a1.2,1.2,0,0,0,.973-1.047.4.4,0,0,0-.387-.46h-.023c-.645,0-.885.457-.97,1.018a.436.436,0,0,0,.354.487.451.451,0,0,0,.052,0M63.6,52.746c.334,0,.5-.415.627-.712a2.135,2.135,0,0,0-.036-.877.856.856,0,0,0-.822.457c-.172.318-.552.714-.12,1a.638.638,0,0,0,.351.128m1.292,4.57H64.9a5.714,5.714,0,0,0,4.028-1.992.836.836,0,0,0-.2-1.253c-.89-.473-1.957-.24-2.931-.7a.545.545,0,0,0-.234-.055c-.532,0-.919.868-1.436,1.187a1.258,1.258,0,0,0-.561,1.807,1.513,1.513,0,0,0,1.321,1M72.58,46.624c-1.8,0-4.294,1.895-4.385,3.832a1.753,1.753,0,0,1-.077.5,1.247,1.247,0,0,1-.192.012c-.175,0-.394-.02-.6-.04a2.021,2.021,0,0,1-.424-.074,1.039,1.039,0,0,1-.006-.159,2.862,2.862,0,0,0-2.527-3.039,2.947,2.947,0,0,0-.41-.029,3.668,3.668,0,0,0-2.995,2.133,5.037,5.037,0,0,0-.552,2.55,1.608,1.608,0,0,1-.108.676h-.007c-.014,0-.039,0-.076,0a1.533,1.533,0,0,1-.323-.042,3.029,3.029,0,0,0-.655-.075,2.091,2.091,0,0,0-1.59.666,2.212,2.212,0,0,0-.5,1.75,1.867,1.867,0,0,0,1.94,1.747,3.1,3.1,0,0,0,1.05-.2,1.165,1.165,0,0,1,.368-.087c.022,0,.147.074.377.55a4.6,4.6,0,0,0,4.18,2.816,5.753,5.753,0,0,0,2.591-.664A16.925,16.925,0,0,0,69.6,58.244l.268-.183a9.3,9.3,0,0,0,2.608,1.813,5.008,5.008,0,0,0,2,.4,5.61,5.61,0,0,0,4.708-2.528,2.258,2.258,0,0,0-.6-3.242,1.726,1.726,0,0,0-.96-.315c-1.039,0-1.453,1-1.63,1.425l-.042.1a1.124,1.124,0,0,1-1.24.741,4.359,4.359,0,0,1-.515-.034,2.433,2.433,0,0,1-2.168-1.908A10.058,10.058,0,0,0,73.3,53.67a5.072,5.072,0,0,0,1.676-5.364,2.362,2.362,0,0,0-2.38-1.681ZM64.89,56.316c-.027,0-.237-.035-.406-.412-.149-.333-.142-.353.173-.547a3.572,3.572,0,0,0,.814-.76c.052-.061.118-.138.179-.2a6.137,6.137,0,0,0,1.509.313,4.831,4.831,0,0,1,.878.153,4.919,4.919,0,0,1-3.146,1.457Z" transform="translate(0)"/>
  </g>
  <g>
    <path class="cls-1" d="M72.83,81.339c-.593,0-1.307-.308-1.344-1.772-.008-.288-.006-.575,0-.863a9.081,9.081,0,0,0-.191-2.354c-.208-.806-.319-.882-.749-.882a2.436,2.436,0,0,0-.267.017,5.968,5.968,0,0,1-.653.037,4.231,4.231,0,0,1-3.869-2.251,3.587,3.587,0,0,1-.5-2.121c.1-1.177.6-1.8,1.48-1.854h0c1.157,0,1.357,1.071,1.453,1.587.021.108.036.218.052.328a2.8,2.8,0,0,0,.108.534,1.377,1.377,0,0,0,1.16,1.02.825.825,0,0,0,.256-.041c.3-.1.621-.174.943-.249a4,4,0,0,0,2.106-.935l-.217-.027a1.725,1.725,0,0,1-1.3-.555,1.4,1.4,0,0,1-.152-1.161c.25-1.15,1.269-1.151,1.878-1.152a2.316,2.316,0,0,0,.7-.065,1.364,1.364,0,0,1,.46-.085.8.8,0,0,1,.476.139,2.466,2.466,0,0,0,1.462.513,5.72,5.72,0,0,0,2.328-.758l.511-.243a5.672,5.672,0,0,1,2.345-.632,3.264,3.264,0,0,1,1.046.169,1.408,1.408,0,0,1,1.08,1.271,1.248,1.248,0,0,1-1.118,1.341c-.517.094-1.038.157-1.56.221-.354.044-.708.087-1.061.14-.96.147-1.062.526-1.1.651-.047.174.126.34.531.645l.174.133a12.775,12.775,0,0,0,3.112,1.634l.152.063A35.344,35.344,0,0,1,86.3,75.518a1.908,1.908,0,0,1,1.072,1.413,1.813,1.813,0,0,1-.705,1.536,12.492,12.492,0,0,1-4.494,2.626,2.589,2.589,0,0,1-.764.134h0a1.256,1.256,0,0,1-1.265-.952,1.285,1.285,0,0,1,.079-1.042,1.712,1.712,0,0,1,1.165-.733,4.853,4.853,0,0,0,2.385-1.288c-.668-.317-1.351-.608-2.016-.892A16.132,16.132,0,0,1,75.829,72.7a2.7,2.7,0,0,0-.547.481,3.085,3.085,0,0,1-.66.569,1.277,1.277,0,0,0-.561,1.7,8,8,0,0,1,.236,1.507,4.894,4.894,0,0,0,.419,1.876,1.559,1.559,0,0,1,.124,1.39,2.064,2.064,0,0,1-1.475,1.04A2.1,2.1,0,0,1,72.83,81.339Z" transform="translate(0)"/>
    <path class="cls-2" d="M81.308,68.013a2.766,2.766,0,0,1,.888.143.939.939,0,0,1,.74.833.755.755,0,0,1-.709.813c-.862.157-1.739.227-2.605.359a1.633,1.633,0,0,0-1.5,1.014c-.164.608.459.97.877,1.3a13.962,13.962,0,0,0,3.382,1.767,35.153,35.153,0,0,1,3.682,1.713,1.2,1.2,0,0,1,.281,2.138,11.941,11.941,0,0,1-4.313,2.523,2.125,2.125,0,0,1-.615.111.755.755,0,0,1-.787-.6c-.219-.728.31-1.006.885-1.146a5.323,5.323,0,0,0,3.076-1.932c-3.064-1.565-6.429-2.335-8.621-4.955-.792.243-1.067.912-1.6,1.224a1.77,1.77,0,0,0-.787,2.265c.326,1.141.112,2.369.692,3.478.533,1.018-.225,1.5-1.037,1.714a1.581,1.581,0,0,1-.406.06c-.647,0-.826-.566-.844-1.286a14.431,14.431,0,0,0-.212-3.329c-.206-.8-.4-1.256-1.233-1.256a2.958,2.958,0,0,0-.322.019,5.474,5.474,0,0,1-.6.034,3.736,3.736,0,0,1-3.434-2,3.1,3.1,0,0,1-.435-1.834c.057-.67.252-1.351,1.013-1.4l.061,0c.636,0,.773.634.875,1.181a6.033,6.033,0,0,0,.181.939,1.865,1.865,0,0,0,1.63,1.351,1.325,1.325,0,0,0,.409-.065c1.27-.411,2.854-.4,3.683-1.895-.634-.565-2.3.109-1.969-1.4.247-1.138,1.5-.569,2.268-.857A.862.862,0,0,1,74.188,69a.323.323,0,0,1,.184.045,2.936,2.936,0,0,0,1.753.606A7.722,7.722,0,0,0,79.174,68.6a5.185,5.185,0,0,1,2.134-.586m0-1a6.123,6.123,0,0,0-2.553.678c-.174.081-.347.164-.518.246a5.4,5.4,0,0,1-2.111.709,1.956,1.956,0,0,1-1.17-.419A1.305,1.305,0,0,0,74.188,68a1.855,1.855,0,0,0-.635.116,2.367,2.367,0,0,1-.528.034,2.083,2.083,0,0,0-2.366,1.547,1.9,1.9,0,0,0,.234,1.557,1.57,1.57,0,0,0,.6.5c-.262.086-.558.159-.894.238s-.655.153-.983.26a.326.326,0,0,1-.1.017c-.214,0-.528-.242-.69-.689a2.5,2.5,0,0,1-.084-.435c-.016-.117-.033-.234-.055-.349-.092-.494-.373-2-1.858-2q-.059,0-.121,0c-.657.039-1.784.392-1.949,2.309a4.062,4.062,0,0,0,.561,2.412,4.708,4.708,0,0,0,4.3,2.5,6.5,6.5,0,0,0,.707-.04,1.955,1.955,0,0,1,.212-.013.853.853,0,0,1,.105.006,2.921,2.921,0,0,1,.16.5,8.729,8.729,0,0,1,.175,2.226c0,.293,0,.586.005.879.053,2.039,1.307,2.259,1.844,2.259a2.586,2.586,0,0,0,.664-.094,2.523,2.523,0,0,0,1.8-1.321A2.036,2.036,0,0,0,75.16,78.6a4.478,4.478,0,0,1-.364-1.691,8.457,8.457,0,0,0-.253-1.6c-.212-.742,0-.936.333-1.13a3.524,3.524,0,0,0,.768-.656c.051-.054.1-.1.142-.147a17.527,17.527,0,0,0,5.777,3.4c.425.181.857.365,1.287.557a4.63,4.63,0,0,1-1.578.677,2.269,2.269,0,0,0-1.482.971,1.775,1.775,0,0,0-.124,1.435,1.751,1.751,0,0,0,1.744,1.307,3.063,3.063,0,0,0,.913-.157A12.972,12.972,0,0,0,87,78.843a2.3,2.3,0,0,0,.872-1.965,2.39,2.39,0,0,0-1.325-1.8,35.651,35.651,0,0,0-3.786-1.764l-.161-.067a12.444,12.444,0,0,1-2.986-1.562c-.058-.046-.12-.093-.184-.141s-.184-.138-.266-.209a1.591,1.591,0,0,1,.607-.191c.35-.053.7-.1,1.054-.139.515-.063,1.047-.128,1.58-.225a1.742,1.742,0,0,0,1.527-1.869,1.9,1.9,0,0,0-1.419-1.707,3.779,3.779,0,0,0-1.207-.2Z" transform="translate(0)"/>
  </g>
  <g>
    <path class="cls-1" d="M6.471,18.6a7.594,7.594,0,0,1-1.451-.15A2.264,2.264,0,0,1,3.1,16.417c-.108-.691.73-1.805.827-1.93.646-.838,1.041-.879,1.171-.893.068-.007.135-.01.2-.01a1.275,1.275,0,0,1,1.018.44,1.387,1.387,0,0,1,.229,1.209,1.048,1.048,0,0,0-.029.559,5.512,5.512,0,0,0,.678-.155L7.34,15.6a2.864,2.864,0,0,0,1.37-2.087A1.529,1.529,0,0,0,7.247,12.1a7.172,7.172,0,0,1-2.873-1,2.808,2.808,0,0,1-1.6-3.042,4.1,4.1,0,0,1,3.42-2.71l.137,0a5.38,5.38,0,0,1,.923.173l.319.076.243.05c.629.125,1.938.383,1.7,1.636A1.107,1.107,0,0,1,8.388,8.3a3.264,3.264,0,0,1-1.236-.357A1.285,1.285,0,0,0,6.641,7.8a.553.553,0,0,0-.27.068l-.147.075c-.307.153-.393.214-.413.345-.075.475.214.586.309.623.993.385,2.025.731,3.024,1.067l.323.108a.5.5,0,0,0,.157.032c.089,0,.161-.281.181-.368a3.638,3.638,0,0,1,1.876-2.577,4.381,4.381,0,0,1,1.771-.237c.129,0,3.176.008,3.843.75a5.327,5.327,0,0,1,1.36,4.391,6.438,6.438,0,0,1-2.728,4.243,2.448,2.448,0,0,1-1.492.52,4.137,4.137,0,0,1-1.721-.475c-.451-.21-.9-.433-1.354-.663l-.226-.112-.15.208c-.3.411-.587.813-.909,1.187A4.5,4.5,0,0,1,6.471,18.6Zm8.6-8.483a1.886,1.886,0,0,0-.885.4l-.224.145a1.353,1.353,0,0,0-.165.13,1.56,1.56,0,0,1-.527.333c-.575.188-.748.491-.6,1.045.271,1.005.562,1.586,1.323,1.779a1.065,1.065,0,0,0,.266.036c.39,0,.721-.261,1.128-.683a2.174,2.174,0,0,0,.564-1.626c-.038-.727-.084-1.195-.539-1.458A.685.685,0,0,0,15.068,10.119Z" transform="translate(0)"/>
    <path class="cls-2" d="M6.19,5.852c.034,0,.067,0,.1,0A8.459,8.459,0,0,1,7.461,6.1c.691.152,1.723.237,1.555,1.1-.088.453-.33.6-.628.6a3.118,3.118,0,0,1-1.1-.344A1.619,1.619,0,0,0,6.641,7.3a1.058,1.058,0,0,0-.5.126c-.343.181-.749.319-.822.785a.993.993,0,0,0,.623,1.167c1.109.429,2.241.8,3.369,1.183a1,1,0,0,0,.316.058c.395,0,.571-.333.668-.756a3.165,3.165,0,0,1,1.621-2.246,4.343,4.343,0,0,1,1.538-.179c1.365,0,3.137.213,3.471.585A4.817,4.817,0,0,1,18.16,12a5.961,5.961,0,0,1-2.532,3.915,1.934,1.934,0,0,1-1.193.42,3.67,3.67,0,0,1-1.51-.428c-.642-.3-1.27-.624-1.945-.958-.438.586-.828,1.175-1.285,1.7A4.033,4.033,0,0,1,6.471,18.1a7.178,7.178,0,0,1-1.356-.141A1.774,1.774,0,0,1,3.6,16.341c-.082-.529,1.034-2.2,1.555-2.249a1.442,1.442,0,0,1,.147-.008c.6,0,.889.413.757,1.048-.187.9.085,1.135.5,1.135a4.008,4.008,0,0,0,.914-.184,3.261,3.261,0,0,0,1.741-2.625,2.011,2.011,0,0,0-1.895-1.852,6.7,6.7,0,0,1-2.677-.927c-.933-.572-1.658-1.332-1.38-2.5A3.631,3.631,0,0,1,6.19,5.852m8.066,8.637a2.132,2.132,0,0,0,1.488-.836,2.691,2.691,0,0,0,.7-1.97c-.037-.727-.07-1.479-.789-1.9a1.166,1.166,0,0,0-.593-.17,2.811,2.811,0,0,0-1.374.623c-.2.126-.366.341-.582.411a1.234,1.234,0,0,0-.926,1.651c.252.936.59,1.856,1.682,2.134a1.574,1.574,0,0,0,.388.051M6.191,4.852h0A4.61,4.61,0,0,0,2.283,7.947c-.339,1.426.277,2.632,1.831,3.584A7.671,7.671,0,0,0,7.182,12.6c.842.111.992.606,1.031.969A2.654,2.654,0,0,1,7.2,15.119l-.133.035A1.858,1.858,0,0,0,6.7,13.708a1.764,1.764,0,0,0-1.4-.625,2.437,2.437,0,0,0-.25.013c-.316.033-.817.18-1.512,1.081a3.7,3.7,0,0,0-.929,2.316,2.764,2.764,0,0,0,2.316,2.449,8.1,8.1,0,0,0,1.546.159,5.039,5.039,0,0,0,3.982-1.791c.3-.352.576-.723.838-1.085.409.2.808.4,1.213.592a4.573,4.573,0,0,0,1.931.522,2.94,2.94,0,0,0,1.793-.62,6.92,6.92,0,0,0,2.922-4.571,5.816,5.816,0,0,0-1.483-4.8c-.744-.827-3.2-.916-4.215-.916a4.068,4.068,0,0,0-2,.294,4.131,4.131,0,0,0-2.1,2.787l-.031-.011C8.326,9.174,7.3,8.83,6.323,8.452l.125-.064.157-.08a.267.267,0,0,1,.044,0,.6.6,0,0,1,.236.065l.064.028a3.646,3.646,0,0,0,1.439.4A1.608,1.608,0,0,0,10,7.388c.337-1.742-1.489-2.1-2.089-2.221-.08-.016-.159-.031-.233-.048-.1-.023-.206-.048-.308-.074a5.922,5.922,0,0,0-1-.186c-.057,0-.115-.006-.173-.006Zm8.066,8.637a.586.586,0,0,1-.142-.02c-.476-.121-.7-.454-.963-1.425-.072-.268-.087-.324.271-.441a2.023,2.023,0,0,0,.7-.429,1.127,1.127,0,0,1,.1-.086c.077-.048.154-.1.232-.15a1.973,1.973,0,0,1,.61-.321.241.241,0,0,1,.092.036c.21.121.255.36.29,1.065a1.661,1.661,0,0,1-.424,1.24c-.369.382-.585.53-.769.53Z" transform="translate(0)"/>
  </g>
  <g>
    <path class="cls-1" d="M90.566,15.61a1.387,1.387,0,0,1-1.052-.4c-.484-.51-.541-1.41-.476-2.7A9.7,9.7,0,0,0,88.833,9.4a6.068,6.068,0,0,1-.146-2.049,5.84,5.84,0,0,0-.059-1.514A1.514,1.514,0,0,1,88.9,4.534a1.894,1.894,0,0,1,1.463-.669h0a.989.989,0,0,1,.75.262.832.832,0,0,1,.2.345c.872-1.064,1.439-1.7,2.233-1.7.831,0,1.6.736,2.81,2.278a8.794,8.794,0,0,0,.61-.827A5.21,5.21,0,0,1,98.16,2.855a2.828,2.828,0,0,1,1.571-.725c.733,0,1.205.621,1.626,1.256A6.182,6.182,0,0,1,102.386,6.3c.035.406.092.81.148,1.214.065.465.131.93.166,1.4.057.758.147.93.538,1.024a1.3,1.3,0,0,1,.856.573,1.434,1.434,0,0,1,.107,1.121,2.039,2.039,0,0,1-1.734,1.567,2.185,2.185,0,0,1-.4.038,1.679,1.679,0,0,1-1.549-.963,6.11,6.11,0,0,1-.58-2.764,8.947,8.947,0,0,0-.778-3.9,9.152,9.152,0,0,0-1.553,4.878c-.024.2-.03.349-.037.5a2.6,2.6,0,0,1-.471,1.64,1.691,1.691,0,0,1-1.3.795l-.1,0a1.41,1.41,0,0,1-1.171-1.049A5.166,5.166,0,0,1,94.2,10.1c0-.192.006-.384,0-.575a6.176,6.176,0,0,0-.736-3.249A11.8,11.8,0,0,0,92.2,12.582a3.393,3.393,0,0,1-.484,2.558,1.446,1.446,0,0,1-1.074.468Z" transform="translate(0)"/>
    <path class="cls-2" d="M99.732,2.63c.407,0,.74.324,1.209,1.032a5.672,5.672,0,0,1,.947,2.68c.075.871.248,1.734.313,2.605.051.677.127,1.283.921,1.473.595.142.73.544.595,1.085a1.543,1.543,0,0,1-1.341,1.2,1.692,1.692,0,0,1-.31.03,1.176,1.176,0,0,1-1.1-.686,5.693,5.693,0,0,1-.527-2.545,9.023,9.023,0,0,0-1.176-4.764C97.58,6.446,97.347,8.471,97.1,10.48a3.285,3.285,0,0,1-.4,1.837,1.236,1.236,0,0,1-.909.607l-.062,0c-.465-.036-.612-.431-.775-.806a6.635,6.635,0,0,1-.266-2.6,6.132,6.132,0,0,0-1.3-4.183,12.532,12.532,0,0,0-1.69,7.292c.126,1.726-.208,2.461-1.076,2.49h-.063c-.907,0-1.124-.694-1.028-2.575a10.079,10.079,0,0,0-.224-3.273c-.348-1.194.06-2.356-.2-3.53-.187-.855.489-1.347,1.256-1.368h.03c.81,0,.231.921.616,1.258,1.2-1.446,1.812-2.35,2.53-2.35.655,0,1.4.754,2.766,2.537.957-.853,1.269-1.911,2.141-2.552a2.461,2.461,0,0,1,1.276-.628m0-1a3.225,3.225,0,0,0-1.869.822,5.608,5.608,0,0,0-1.307,1.49c-.069.1-.137.2-.205.3-1.11-1.353-1.873-1.968-2.8-1.968h0c-.864,0-1.473.532-2.208,1.389a1.486,1.486,0,0,0-.938-.3h-.056a2.389,2.389,0,0,0-1.844.861,2.033,2.033,0,0,0-.363,1.72,5.466,5.466,0,0,1,.048,1.384,6.546,6.546,0,0,0,.166,2.211,9.294,9.294,0,0,1,.185,2.942c-.072,1.42.005,2.428.612,3.067a1.868,1.868,0,0,0,1.414.559l.1,0a1.946,1.946,0,0,0,1.429-.634,3.8,3.8,0,0,0,.61-2.928,11.187,11.187,0,0,1,.754-5.031,7.878,7.878,0,0,1,.24,2.019c0,.186,0,.371,0,.557a5.606,5.606,0,0,0,.349,2.422l.024.054a1.9,1.9,0,0,0,1.591,1.35q.071.005.139.005a2.182,2.182,0,0,0,1.691-.983,3.094,3.094,0,0,0,.579-1.928c.006-.138.011-.277.028-.413a10.928,10.928,0,0,1,.953-3.9,9.344,9.344,0,0,1,.388,2.812,6.6,6.6,0,0,0,.632,2.983,2.165,2.165,0,0,0,2,1.24,2.7,2.7,0,0,0,.493-.047,2.541,2.541,0,0,0,2.128-1.938,1.912,1.912,0,0,0-.165-1.5,1.791,1.791,0,0,0-1.167-.8.332.332,0,0,1-.089-.03,3.365,3.365,0,0,1-.068-.545c-.037-.487-.1-.963-.168-1.424-.058-.413-.113-.8-.146-1.192a6.684,6.684,0,0,0-1.11-3.147A2.582,2.582,0,0,0,99.732,1.63Z" transform="translate(0)"/>
  </g>
  <g>
    <path class="cls-1" d="M79.086,40.127a1.559,1.559,0,0,1-1.405-.93c-.193-.4-.347-.4-.46-.4a1.783,1.783,0,0,0-.485.095,7.415,7.415,0,0,1-1.355.236l-.144.016a6.383,6.383,0,0,1-.707.04,4.816,4.816,0,0,1-4.945-4.613,13.177,13.177,0,0,1,1.635-7.884A2.565,2.565,0,0,1,72.467,25.5l.118-.046a2.847,2.847,0,0,1,1.035-.262,1.278,1.278,0,0,1,1.159.719,1.681,1.681,0,0,1-.609,2.237c-1.309,1.076-1.348,1.108-1.823,3.367h.095a9.666,9.666,0,0,0,3.494-.7,3.691,3.691,0,0,1,1.271-.277c1.443,0,1.725,1.48,1.817,1.966a17.4,17.4,0,0,0,1.741,4.612,2.009,2.009,0,0,1-.716,2.7,1.7,1.7,0,0,1-.963.315ZM72.4,34.678a2.081,2.081,0,0,0,2.265,1.835,6.781,6.781,0,0,0,1.284-.144A1.081,1.081,0,0,0,76.678,36a1.223,1.223,0,0,0,.037-.914c-.236-1.018-.6-1.018-.8-1.018a1.845,1.845,0,0,0-.594.124,7.115,7.115,0,0,1-2.439.512C72.722,34.7,72.56,34.694,72.4,34.678Z" transform="translate(0)"/>
    <path class="cls-2" d="M73.621,25.689a.787.787,0,0,1,.723.463c.351.628.125,1.1-.491,1.608-1.552,1.276-1.506,1.332-2.116,4.226.242.018.477.027.706.027a10.179,10.179,0,0,0,3.668-.735,3.236,3.236,0,0,1,1.1-.245c.727,0,1.122.484,1.327,1.559a17.677,17.677,0,0,0,1.786,4.746,1.505,1.505,0,0,1-.554,2.062,1.2,1.2,0,0,1-.679.227,1.061,1.061,0,0,1-.954-.648c-.246-.508-.541-.682-.91-.682a2.233,2.233,0,0,0-.63.116,7.9,7.9,0,0,1-1.41.233,5.869,5.869,0,0,1-.652.037,4.292,4.292,0,0,1-4.447-4.157,12.634,12.634,0,0,1,1.571-7.591,2.046,2.046,0,0,1,1-.972,2.914,2.914,0,0,1,.973-.275M72.885,34.2a4.645,4.645,0,0,1-1.113-.138c.314,2.351,1.52,2.95,2.891,2.95a7.414,7.414,0,0,0,1.379-.153c1.133-.218,1.393-.892,1.161-1.89-.216-.928-.6-1.4-1.284-1.4a2.309,2.309,0,0,0-.761.152,6.664,6.664,0,0,1-2.272.483m.735-9.513h0a3.285,3.285,0,0,0-1.218.3l-.115.045a3.027,3.027,0,0,0-1.5,1.407,13.671,13.671,0,0,0-1.7,8.178,5.3,5.3,0,0,0,5.443,5.068,6.9,6.9,0,0,0,.763-.043l.14-.015a7.916,7.916,0,0,0,1.449-.254,1.9,1.9,0,0,1,.288-.069,1.03,1.03,0,0,1,.063.114,2.047,2.047,0,0,0,1.854,1.212,2.194,2.194,0,0,0,1.247-.4,2.509,2.509,0,0,0,.877-3.339,16.537,16.537,0,0,1-1.695-4.478c-.3-1.574-1.076-2.373-2.309-2.373a4.177,4.177,0,0,0-1.446.308A9.564,9.564,0,0,1,72.969,31a3.149,3.149,0,0,1,1.519-2.464,2.1,2.1,0,0,0,.728-2.868,1.782,1.782,0,0,0-1.6-.975Zm-.5,10.507a8.037,8.037,0,0,0,2.37-.535,1.338,1.338,0,0,1,.427-.095.2.2,0,0,1,.057.006h0s.132.108.253.626c.094.4.031.527.031.528a.785.785,0,0,1-.406.154,6.34,6.34,0,0,1-1.19.135,1.521,1.521,0,0,1-1.541-.817Z" transform="translate(0)"/>
  </g>
  <g>
    <path class="cls-1" d="M47.875,38.741A2.137,2.137,0,0,1,45.8,37.265l-.037.019a5.167,5.167,0,0,1-2.36.689c-.942,0-2.575-.435-2.927-3.35a12.116,12.116,0,0,1,.395-4.925c.66-2.222,2.4-3.036,4.076-3.823l.531-.251a1.1,1.1,0,0,1,.481-.112,1.173,1.173,0,0,1,.992.589,7.511,7.511,0,0,0,.493.7,3.028,3.028,0,0,1,.721,3.367A3.522,3.522,0,0,0,48,31.5a8.807,8.807,0,0,1-.038.885l-.039.341c-.2,1.689-.25,2.763,1.15,3.515a1.3,1.3,0,0,1,.467,1.735,1.47,1.47,0,0,1-1.152.722A3.1,3.1,0,0,1,47.875,38.741ZM44.489,29.4c-.134,0-.29.139-.476.424a5.807,5.807,0,0,0-.628,4.812c.012.045.074.27.172.27a.811.811,0,0,0,.46-.243,2.629,2.629,0,0,0,.766-1.941,6.787,6.787,0,0,1,.212-1.2l-.064-.384c-.061-.367-.121-.733-.2-1.1-.02-.095-.032-.2-.044-.3a1.067,1.067,0,0,0-.065-.315A.377.377,0,0,0,44.489,29.4Z" transform="translate(0)"/>
    <path class="cls-2" d="M45.96,26.012a.667.667,0,0,1,.562.344c.657,1.106,1.915,1.966,1.187,3.609a8.358,8.358,0,0,0-.244,2.363c-.184,1.653-.529,3.33,1.372,4.352a.8.8,0,0,1,.259,1.065.974.974,0,0,1-.791.458,2.6,2.6,0,0,1-.429.038c-.986,0-1.532-.658-1.761-1.648-.32.135-.458.182-.585.249a4.671,4.671,0,0,1-2.126.631c-1.333,0-2.2-.983-2.43-2.91a11.571,11.571,0,0,1,.377-4.723c.662-2.229,2.561-2.906,4.344-3.766a.606.606,0,0,1,.265-.062m-2.4,9.394a1.285,1.285,0,0,0,.782-.361c1.137-.953.772-2.331,1.17-3.485-.095-.541-.173-1.086-.288-1.622-.077-.363-.012-.841-.464-.992a.839.839,0,0,0-.267-.046,1.165,1.165,0,0,0-.9.651,6.3,6.3,0,0,0-.693,5.211c.107.413.339.644.656.644m2.4-10.394a1.6,1.6,0,0,0-.7.161c-.175.084-.351.167-.527.25-1.7.8-3.618,1.7-4.342,4.133a12.612,12.612,0,0,0-.412,5.127c.412,3.421,2.531,3.79,3.423,3.79a5.253,5.253,0,0,0,2.171-.538,2.566,2.566,0,0,0,2.3,1.306,3.609,3.609,0,0,0,.595-.052,1.976,1.976,0,0,0,1.515-.986,1.791,1.791,0,0,0-.674-2.4c-1.071-.575-1.1-1.284-.891-3.016l.04-.344A9.049,9.049,0,0,0,48.5,31.5a3.261,3.261,0,0,1,.124-1.132,3.526,3.526,0,0,0-.78-3.871,7.281,7.281,0,0,1-.463-.654,1.674,1.674,0,0,0-1.422-.834Zm-2.168,9.179a5.2,5.2,0,0,1,.49-3.85c.057.291.105.583.154.875q.023.14.047.28a7.805,7.805,0,0,0-.2,1.168,2.384,2.384,0,0,1-.494,1.526Z" transform="translate(0)"/>
  </g>
  <g>
    <path class="cls-1" d="M108.85,16.826c-.631,0-1.1-.765-1.145-1.292l-.062-.671a19.783,19.783,0,0,1-.112-3.705,1.577,1.577,0,0,0-.948-1.8,5.313,5.313,0,0,1-2.729-3.054,2.522,2.522,0,0,1,.109-2.269,1.683,1.683,0,0,1,1.425-.777,2.012,2.012,0,0,1,.306.024,1.034,1.034,0,0,1,.887,1.21c0,.057,0,.114,0,.169.039.756.11,1.321.675,1.718a2.3,2.3,0,0,0,1.31.449,1.857,1.857,0,0,0,1.76-1.392,5.183,5.183,0,0,0,.173-.81,7.248,7.248,0,0,1,.159-.8.574.574,0,0,0,.038-.28h-.011c-.094,0-.211.15-.275.232-.184.232-.314.436-.492.709l-.354.538a.5.5,0,0,1-.415.222.539.539,0,0,1-.083-.007.5.5,0,0,1-.4-.366,4.109,4.109,0,0,1,.3-3.227A2.334,2.334,0,0,1,110.507.562,2.973,2.973,0,0,1,111.093.5a1.973,1.973,0,0,1,1.88,1.326,5,5,0,0,1-1.014,5.886c-2.036,1.937-1.833,4.194-1.31,6.345a1.8,1.8,0,0,1-.812,2.108,1.755,1.755,0,0,0-.349.314.774.774,0,0,1-.639.347Z" transform="translate(0)"/>
    <path class="cls-2" d="M111.093,1a1.48,1.48,0,0,1,1.423,1.03,4.516,4.516,0,0,1-.9,5.32c-2.164,2.058-2.028,4.455-1.451,6.825.32,1.316-.682,1.449-1.083,2.016a.279.279,0,0,1-.23.136c-.287,0-.616-.484-.647-.835a23.687,23.687,0,0,1-.174-4.286,2.065,2.065,0,0,0-1.2-2.282,4.894,4.894,0,0,1-2.5-2.767,2.028,2.028,0,0,1,.046-1.84,1.182,1.182,0,0,1,1.011-.556,1.463,1.463,0,0,1,.227.018c.569.09.446.526.467.912a2.4,2.4,0,0,0,.887,2.1,2.787,2.787,0,0,0,1.6.54A2.351,2.351,0,0,0,110.8,5.6c.176-.523.192-1.1.34-1.631.094-.341.111-.651-.186-.841a.588.588,0,0,0-.317-.106c-.279,0-.473.27-.653.5-.242.306-.441.647-.834,1.237-.513-1.943.182-3.445,1.457-3.7A2.482,2.482,0,0,1,111.093,1m0-1a3.5,3.5,0,0,0-.684.072,2.859,2.859,0,0,0-1.87,1.317,4.6,4.6,0,0,0-.356,3.619,1,1,0,0,0,1.548.558,1.285,1.285,0,0,1-1.164.763,1.8,1.8,0,0,1-1.022-.359c-.347-.244-.423-.561-.463-1.335,0-.046,0-.092,0-.138a1.493,1.493,0,0,0-1.309-1.709,2.464,2.464,0,0,0-.383-.03,2.17,2.17,0,0,0-1.839,1,2.989,2.989,0,0,0-.172,2.7,5.9,5.9,0,0,0,2.961,3.341,1.094,1.094,0,0,1,.7,1.315,20.043,20.043,0,0,0,.112,3.8l.061.669a1.891,1.891,0,0,0,1.643,1.748,1.276,1.276,0,0,0,1.046-.558,1.943,1.943,0,0,1,.245-.207,2.306,2.306,0,0,0,.994-2.624c-.564-2.317-.581-4.2,1.168-5.864a5.483,5.483,0,0,0,1.125-6.452A2.452,2.452,0,0,0,111.093,0Z" transform="translate(0)"/>
  </g>
  <g>
    <path class="cls-1" d="M7.785,42.118a1.971,1.971,0,0,1-.742-.148,1.641,1.641,0,0,1-.926-1.146c-.03-.09-.06-.18-.1-.263-1.118-2.467-2.188-4.9-3.184-7.23-.073-.172-.142-.344-.21-.516a4.063,4.063,0,0,0-1.334-2.041A1.878,1.878,0,0,1,.5,29.143a1.763,1.763,0,0,1,.876-1.456,1.915,1.915,0,0,1,.938-.275c.483,0,1.157.236,1.622,1.36l.314.757c.5,1.207,1.023,2.455,1.43,3.728a9.074,9.074,0,0,0,.344.936A6.118,6.118,0,0,0,5.454,31.7a2.206,2.206,0,0,1,.8-3.15,1.671,1.671,0,0,1,.885-.253,1.506,1.506,0,0,1,1.17.525,1.2,1.2,0,0,1,.239,1.021c-.525,2.468-.045,4.8.463,7.274.2.953.4,1.939.535,2.924a1.824,1.824,0,0,1-.413,1.474,1.779,1.779,0,0,1-1.345.6Z" transform="translate(0)"/>
    <path class="cls-2" d="M2.316,27.912c.541,0,.911.448,1.159,1.051.606,1.47,1.247,2.933,1.729,4.445a5.844,5.844,0,0,0,1.532,2.662c-.311-1.7-.1-3.214-.842-4.607a1.713,1.713,0,0,1,.621-2.49,1.171,1.171,0,0,1,.621-.178c.55,0,1.037.388.919.942-.76,3.578.516,6.93.992,10.371a1.272,1.272,0,0,1-1.263,1.508,1.478,1.478,0,0,1-.555-.111c-.545-.221-.57-.744-.755-1.151Q4.849,36.762,3.3,33.135a5.57,5.57,0,0,0-1.713-2.767,1.346,1.346,0,0,1,.04-2.246,1.417,1.417,0,0,1,.692-.21m0-1a2.406,2.406,0,0,0-1.184.339A2.259,2.259,0,0,0,0,29.116a2.376,2.376,0,0,0,1,2.065A3.636,3.636,0,0,1,2.162,33c.07.175.14.352.215.528.987,2.312,2.059,4.748,3.188,7.24.031.068.054.142.078.215a2.127,2.127,0,0,0,1.212,1.45,2.471,2.471,0,0,0,.93.184,2.277,2.277,0,0,0,1.721-.774,2.317,2.317,0,0,0,.532-1.871c-.139-1-.343-2-.541-2.959-.5-2.418-.966-4.7-.464-7.067a1.689,1.689,0,0,0-.34-1.44,2.009,2.009,0,0,0-1.558-.71,2.169,2.169,0,0,0-1.15.329A2.915,2.915,0,0,0,4.78,29.5l-.065-.155-.316-.76a2.261,2.261,0,0,0-2.084-1.67Z" transform="translate(0)"/>
  </g>
  <g>
    <path class="cls-1" d="M78.929,15.428a.518.518,0,0,1-.112-.013l-.41-.088A3.5,3.5,0,0,1,75.8,13.86a1.433,1.433,0,0,1,.168-1.927,1.169,1.169,0,0,1,.8-.332,1.431,1.431,0,0,1,.923.385,2.23,2.23,0,0,0,1.469.6A3.122,3.122,0,0,0,80.828,12c.257-.165.317-.283.318-.312s-.054-.162-.319-.362a6.5,6.5,0,0,0-3.256-1.345,9.153,9.153,0,0,1-3.129-.958,2.57,2.57,0,0,1-.5-4.381A4.758,4.758,0,0,1,76.9,3.22a3.1,3.1,0,0,1,1.224.263c1.357.582,1.235,1.5,1.12,1.863a1.528,1.528,0,0,1-1.567,1.031,4.624,4.624,0,0,1-.542-.048,3.509,3.509,0,0,0-.455-.043c-.209,0-.259,0-.278.278-.027.373.064.483.968.625.122.019.242.038.357.061a13.548,13.548,0,0,1,4.8,1.978A2.878,2.878,0,0,1,84.1,11.548,2.991,2.991,0,0,1,82.534,14a9.942,9.942,0,0,1-3.051,1.282l-.411.121A.5.5,0,0,1,78.929,15.428Z" transform="translate(0)"/>
    <path class="cls-2" d="M76.9,3.719a2.577,2.577,0,0,1,1.026.222c.487.209,1.049.593.842,1.254a1.039,1.039,0,0,1-1.091.681h-.05c-.285-.007-.636-.09-.948-.09-.4,0-.734.136-.777.743-.077,1.079.966,1.061,1.728,1.211a12.994,12.994,0,0,1,4.621,1.906c1.818,1.185,1.784,2.692-.006,3.948a10.97,10.97,0,0,1-3.318,1.334c-1.01-.232-2.081-.311-2.7-1.328a.942.942,0,0,1,.08-1.3.669.669,0,0,1,.461-.2.958.958,0,0,1,.6.267,2.722,2.722,0,0,0,1.792.719,3.634,3.634,0,0,0,1.939-.664c.713-.458.737-.96.029-1.493a6.986,6.986,0,0,0-3.5-1.443,8.667,8.667,0,0,1-2.959-.909,2.07,2.07,0,0,1-.408-3.547A4.368,4.368,0,0,1,76.9,3.719m0-1h0A5.319,5.319,0,0,0,73.619,4.26a3.152,3.152,0,0,0-1.166,2.782,3.14,3.14,0,0,0,1.768,2.431,9.605,9.605,0,0,0,3.3,1.008,5.967,5.967,0,0,1,2.913,1.178,2.548,2.548,0,0,1-1.273.428,1.754,1.754,0,0,1-1.145-.481,1.913,1.913,0,0,0-1.246-.5,1.663,1.663,0,0,0-1.14.465,1.92,1.92,0,0,0-.255,2.554,3.952,3.952,0,0,0,2.929,1.7c.134.028.268.055.4.086a1,1,0,0,0,.51-.016l.406-.119a10.339,10.339,0,0,0,3.2-1.354A3.461,3.461,0,0,0,84.6,11.539a3.346,3.346,0,0,0-1.8-2.731,14.1,14.1,0,0,0-4.63-1.977A1.955,1.955,0,0,0,79.724,5.5c.121-.387.379-1.708-1.4-2.473a3.59,3.59,0,0,0-1.42-.3Z" transform="translate(0)"/>
  </g>
  <g>
    <path class="cls-1" d="M145.394,92.884a1.4,1.4,0,0,1-.312-.034c-1.259-.283-1.924-1.032-1.871-2.109a1.376,1.376,0,0,1,1.517-1.38,2.585,2.585,0,0,1-.326-.038,2.2,2.2,0,0,1-1.607-.858,2.138,2.138,0,0,1,.05-1.761,1.558,1.558,0,0,0-.079-1.176l-.084-.261a2.21,2.21,0,0,1,.075-1.874,2.358,2.358,0,0,1,1.811-.792c.278-.024.532-.036.764-.036a2.515,2.515,0,0,1,1.919.642,2.977,2.977,0,0,1,.44,2.412,1.093,1.093,0,0,0,.484,1.151,2.737,2.737,0,0,1,.739,3.754,5.149,5.149,0,0,1-3.519,2.36Zm-.088-3.5a.751.751,0,0,0,.153-.011c-.122-.011-.248-.011-.382-.011h-.091C145.036,89.37,145.25,89.389,145.306,89.389Z" transform="translate(0)"/>
    <path class="cls-2" d="M145.33,83.064c1.6,0,2.07.642,1.862,2.5a1.566,1.566,0,0,0,.642,1.575c1.168,1.074,1.277,1.96.638,3.15a4.677,4.677,0,0,1-3.078,2.1.917.917,0,0,1-.2-.021c-.814-.184-1.529-.629-1.481-1.6.035-.707.48-.905,1.057-.905.1,0,.211.006.321.017.073.007.147.012.219.012a.854.854,0,0,0,.914-.8c-.609-.341-1.188-.157-1.727-.258-1.3-.242-1.641-.671-1.18-1.96a2.381,2.381,0,0,0-.155-1.751c-.419-1.368.024-1.9,1.451-2.022.262-.023.5-.035.721-.035m0-1c-.244,0-.508.013-.806.038a2.8,2.8,0,0,0-2.182,1.012,2.737,2.737,0,0,0-.139,2.3c.029.094.058.184.087.271.147.446.181.575.083.85a2.572,2.572,0,0,0-.012,2.178,1.911,1.911,0,0,0,.833.76,2,2,0,0,0-.481,1.243,2.546,2.546,0,0,0,2.26,2.622,1.918,1.918,0,0,0,.423.046,5.569,5.569,0,0,0,3.959-2.623,3.237,3.237,0,0,0-.842-4.359c-.36-.331-.366-.367-.325-.728a3.547,3.547,0,0,0-.565-2.8,2.962,2.962,0,0,0-2.291-.809Z" transform="translate(0)"/>
  </g>
  <g>
    <circle class="cls-1" cx="147.642" cy="62.224" r="0.001" transform="translate(-12.547 65.326) rotate(-23.962)"/>
    <path class="cls-2" d="M147.642,62.223h0m0-1a1,1,0,1,0,1,1,1,1,0,0,0-1-1Z" transform="translate(0)"/>
  </g>
  <g>
    <path class="cls-1" d="M144.708,65.154a1.837,1.837,0,0,1-1.806-1.147,2.258,2.258,0,0,1,.885-2.879l.169-.121a3.709,3.709,0,0,0,.847-.737h-.035a1.571,1.571,0,0,1-.191-.021,1.466,1.466,0,0,1-1.261-1.761,1.592,1.592,0,0,1,1.661-1.39,3.765,3.765,0,0,1,3.407,1.344,2.491,2.491,0,0,1-.25,3.036,3.345,3.345,0,0,1,1.194-.267,2.171,2.171,0,0,1,1.948,1.405.5.5,0,0,1-.227.682,22.252,22.252,0,0,1-5.557,1.77,4.209,4.209,0,0,1-.785.085Z" transform="translate(0)"/>
    <path class="cls-2" d="M144.975,57.6h0a3.3,3.3,0,0,1,2.995,1.129c.66.942.229,1.815-.367,2.626a.666.666,0,0,0-.013.779v0l-.046-.081c-.008-.01-.014-.015-.019-.015s-.008.008-.007.025q.01.191.044.191l.052-.022.024-.01v0a4.751,4.751,0,0,1,1.686-.512c.543,0,1.057.274,1.5,1.136a21.927,21.927,0,0,1-5.435,1.73,3.7,3.7,0,0,1-.69.076,1.336,1.336,0,0,1-1.348-.847,1.756,1.756,0,0,1,.721-2.274,3.142,3.142,0,0,0,1.4-1.5c-.078-.244-.206-.3-.349-.3-.118,0-.246.038-.362.038a.4.4,0,0,1-.084-.008.979.979,0,0,1-.875-1.191,1.089,1.089,0,0,1,1.166-.971m0-1a2.091,2.091,0,0,0-2.153,1.808,1.926,1.926,0,0,0,.985,2.089l-.142.1-.173.124a2.755,2.755,0,0,0-1.048,3.484,2.336,2.336,0,0,0,2.264,1.447,4.656,4.656,0,0,0,.879-.094,22.689,22.689,0,0,0,5.678-1.81,1,1,0,0,0,.454-1.363,2.66,2.66,0,0,0-2.392-1.674q-.11,0-.218.009a2.655,2.655,0,0,0-.317-2.567,4.29,4.29,0,0,0-3.811-1.555Z" transform="translate(0)"/>
  </g>
  <g>
    <path class="cls-1" d="M147.643,62.726A.5.5,0,1,1,148,61.87a.505.505,0,0,1,.147.348.5.5,0,0,1-.492.508Z" transform="translate(0)"/>
    <path class="cls-2" d="M147.642,62.224h0m0-1a1,1,0,0,0-.9,1.44c.01.02.02.039.03.058a1,1,0,0,0,1.806-.844,1.024,1.024,0,0,0-.131-.244,1,1,0,0,0-.808-.41Z" transform="translate(0)"/>
  </g>
  <g>
    <path class="cls-1" d="M54.762,39.64c-1.342,0-3.614-.564-3.753-4.34-.019-.526-.026-1.052-.033-1.579a24.111,24.111,0,0,0-.312-4.279,1.449,1.449,0,0,1,.067-.675,1.674,1.674,0,0,0,.046-.187A1.437,1.437,0,0,1,52.3,27.24c.053,0,.106,0,.162.005a1.41,1.41,0,0,1,1.432,1.612c-.034.807-.075,1.614-.115,2.42l-.038.755a.455.455,0,0,1,.024.146c0,.326-.006.653-.013.979-.014.692-.027,1.407.025,2.094.113,1.495.533,1.61,1.112,1.61a4.562,4.562,0,0,0,.93-.119,1.515,1.515,0,0,1,.264-.072,3.412,3.412,0,0,0,.517-.134,3.25,3.25,0,0,1,.954-.191,1.505,1.505,0,0,1,1.194.58.843.843,0,0,1,.143.819A3.491,3.491,0,0,1,56.52,39.4a7.284,7.284,0,0,1-1.758.24Z" transform="translate(0)"/>
    <path class="cls-2" d="M52.3,27.74c.042,0,.085,0,.129,0a.922.922,0,0,1,.965,1.091c-.047,1.114-.107,2.228-.161,3.341h.032c0,1.037-.064,2.079.014,3.11.112,1.475.543,2.073,1.612,2.073a5.068,5.068,0,0,0,1.034-.13c.078-.017.152-.055.23-.066a10.77,10.77,0,0,1,1.4-.32,1,1,0,0,1,.811.4c.371.445-.7,1.351-1.964,1.67a6.763,6.763,0,0,1-1.635.225c-2.044,0-3.16-1.295-3.253-3.858a37.981,37.981,0,0,0-.354-5.936,2.192,2.192,0,0,1,.116-.689A.947.947,0,0,1,52.3,27.74m0-1A1.937,1.937,0,0,0,50.283,28.5a1.2,1.2,0,0,1-.033.129,1.905,1.905,0,0,0-.077.909,23.48,23.48,0,0,1,.3,4.192c.007.53.014,1.059.034,1.588.112,3.065,1.661,4.822,4.252,4.822a7.785,7.785,0,0,0,1.879-.255A3.892,3.892,0,0,0,59.364,37.9a1.334,1.334,0,0,0-.234-1.293,2.01,2.01,0,0,0-1.579-.76,3.646,3.646,0,0,0-1.1.213,3.273,3.273,0,0,1-.439.117,1.7,1.7,0,0,0-.311.079,4.016,4.016,0,0,1-.811.106c-.34,0-.527,0-.615-1.148-.05-.663-.037-1.335-.024-2.047.006-.329.013-.658.013-.987a1,1,0,0,0-.021-.2l.036-.735c.04-.787.079-1.575.112-2.362a1.9,1.9,0,0,0-1.9-2.131q-.1-.007-.2-.007Z" transform="translate(0)"/>
  </g>
  <g>
    <path class="cls-1" d="M83.883,38.93a1.882,1.882,0,0,1-1.277-.587,3.35,3.35,0,0,1-.954-2.249,77.6,77.6,0,0,0-.99-7.7,4.809,4.809,0,0,1,.11-1.8,1.176,1.176,0,0,1,1.174-.961,1.645,1.645,0,0,1,1.6,1.731c.076,1.345.21,2.715.339,4.04.075.771.15,1.542.215,2.314l.027.392c.061.942.128,1.5.829,1.931a1.278,1.278,0,0,1,.648.951,1.809,1.809,0,0,1-.62,1.445,1.532,1.532,0,0,1-1.1.5Z" transform="translate(0)"/>
    <path class="cls-2" d="M81.951,26.127a1.141,1.141,0,0,1,1.1,1.259c.12,2.126.375,4.245.555,6.368.086,1.018,0,2.03,1.091,2.706.678.42.442,1.11-.063,1.618a1.044,1.044,0,0,1-.746.352,1.429,1.429,0,0,1-.936-.452,2.909,2.909,0,0,1-.8-1.93,77.717,77.717,0,0,0-1-7.752,4.494,4.494,0,0,1,.115-1.641.672.672,0,0,1,.683-.528m0-1h-.009a1.665,1.665,0,0,0-1.656,1.341,5.279,5.279,0,0,0-.115,2.019c.494,2.546.757,5.176.984,7.653a3.824,3.824,0,0,0,1.109,2.569,2.363,2.363,0,0,0,1.619.722,2.025,2.025,0,0,0,1.455-.646,2.29,2.29,0,0,0,.762-1.856,1.793,1.793,0,0,0-.881-1.318c-.476-.294-.534-.617-.593-1.537-.009-.134-.017-.268-.028-.4-.065-.77-.14-1.539-.215-2.308-.129-1.324-.262-2.693-.338-4.033A2.111,2.111,0,0,0,82.1,25.139a1,1,0,0,0-.152-.012Z" transform="translate(0)"/>
  </g>
  <g>
    <path class="cls-1" d="M13.188,42.307a1.645,1.645,0,0,1-1.575-1.25,12.91,12.91,0,0,1-.36-1.717c-.072-.446-.145-.892-.258-1.327a29.368,29.368,0,0,1-1.009-6.126h0s-.073-.323-.154-.643a1.361,1.361,0,0,1,.123-1.1,1.609,1.609,0,0,1,1.12-.667,1.818,1.818,0,0,1,.364-.038,1.467,1.467,0,0,1,1.449,1.232,2.439,2.439,0,0,1,.019.813c-.008.089-.017.179-.02.267a20.6,20.6,0,0,0,1.666,8.326c.18.451.6,1.508-.533,2.032a1.984,1.984,0,0,1-.832.194Z" transform="translate(0)"/>
    <path class="cls-2" d="M11.439,29.944a.978.978,0,0,1,.962.85,3.675,3.675,0,0,1-.014.947,21.094,21.094,0,0,0,1.7,8.526c.246.616.352,1.1-.278,1.393a1.493,1.493,0,0,1-.623.148,1.141,1.141,0,0,1-1.1-.9c-.3-.979-.354-2.029-.613-3.023a28.714,28.714,0,0,1-.994-6.031h0s-.076-.371-.17-.737c-.19-.743.278-1.03.86-1.149a1.316,1.316,0,0,1,.264-.028m0-1a2.323,2.323,0,0,0-.465.048,2.106,2.106,0,0,0-1.444.891,1.849,1.849,0,0,0-.183,1.485c.063.248.118.5.143.615A29.84,29.84,0,0,0,10.51,38.14c.106.406.175.833.249,1.285a13.309,13.309,0,0,0,.376,1.78,2.127,2.127,0,0,0,2.052,1.6,2.482,2.482,0,0,0,1.042-.24c.714-.329,1.431-1.06.788-2.671a19.841,19.841,0,0,1-1.631-8.124c0-.077.01-.155.018-.234a2.873,2.873,0,0,0-.031-.98,1.962,1.962,0,0,0-1.934-1.615Z" transform="translate(0)"/>
  </g>
  <g>
    <path class="cls-1" d="M72.243,14.993a1.741,1.741,0,0,1-1.32-.605,2.9,2.9,0,0,1-.739-1.241l-.229-1.033a21.607,21.607,0,0,1-.778-7.132,4.441,4.441,0,0,1,.209-1.054,1.462,1.462,0,0,1,1.36-1.062,1.522,1.522,0,0,1,.294.029,1.336,1.336,0,0,1,1.019,1.39c.022.513.018,1.027.013,1.542l0,.633A9.333,9.333,0,0,0,73.4,12.6l.119.166a1.491,1.491,0,0,1,.41,1.177,1.168,1.168,0,0,1-.634.756,2.184,2.184,0,0,1-1.048.29Z" transform="translate(0)"/>
    <path class="cls-2" d="M70.746,3.365a1.032,1.032,0,0,1,.2.02c.45.088.6.515.614.921.032.716.009,1.435.009,2.153a9.846,9.846,0,0,0,1.412,6.422c.287.43.85.949.068,1.384a1.672,1.672,0,0,1-.8.227,1.247,1.247,0,0,1-.949-.44,2.438,2.438,0,0,1-.621-1.011c-.571-2.637-1.3-5.26-1-8.006a4.017,4.017,0,0,1,.181-.937.969.969,0,0,1,.891-.734m0-1a1.943,1.943,0,0,0-1.83,1.391,4.86,4.86,0,0,0-.236,1.171,22,22,0,0,0,.787,7.3c.077.343.154.686.229,1.03a3.34,3.34,0,0,0,.855,1.469,2.26,2.26,0,0,0,1.692.771,2.676,2.676,0,0,0,1.291-.353,1.644,1.644,0,0,0,.879-1.087,1.945,1.945,0,0,0-.5-1.579c-.037-.051-.074-.1-.106-.148a8.817,8.817,0,0,1-1.246-5.795q0-.036,0-.072c0-.209,0-.417,0-.626,0-.511.01-1.04-.014-1.572A1.828,1.828,0,0,0,71.137,2.4a2.04,2.04,0,0,0-.391-.039Z" transform="translate(0)"/>
  </g>
  <g>
    <path class="cls-1" d="M144.66,38.912a1.617,1.617,0,0,1-1.187-.594,4.5,4.5,0,0,1-.94-3.443,5.047,5.047,0,0,1,.156-1.106,1.5,1.5,0,0,1,1.461-1.195,1.845,1.845,0,0,1,.387.042c.525.112,1.122.492.984,1.66a4.763,4.763,0,0,0,.34,2.748,1.264,1.264,0,0,1-.5,1.693,1.414,1.414,0,0,1-.7.194Z" transform="translate(0)"/>
    <path class="cls-2" d="M144.15,33.074a1.344,1.344,0,0,1,.282.031c.6.129.653.606.594,1.113a5.3,5.3,0,0,0,.385,3.025.759.759,0,0,1-.292,1.039.922.922,0,0,1-.458.129,1.134,1.134,0,0,1-.817-.43,4.01,4.01,0,0,1-.811-3.09,4.606,4.606,0,0,1,.138-.986,1.006,1.006,0,0,1,.979-.831m0-1a2,2,0,0,0-1.941,1.558,5.246,5.246,0,0,0-.172,1.157.615.615,0,0,0,0,.07,5.042,5.042,0,0,0,1.071,3.8,2.078,2.078,0,0,0,1.557.757,1.913,1.913,0,0,0,.951-.259,1.751,1.751,0,0,0,.7-2.346,4.3,4.3,0,0,1-.292-2.472,1.774,1.774,0,0,0-1.377-2.207,2.347,2.347,0,0,0-.491-.054Z" transform="translate(0)"/>
  </g>
  <g>
    <path class="cls-1" d="M141.309,65.221a1.228,1.228,0,0,1-.455-.107.6.6,0,0,1-.367-.331.531.531,0,0,1,.015-.462.944.944,0,0,1,.477-.5.715.715,0,0,1,.207-.036.912.912,0,0,1,.438.135.665.665,0,0,1,.355.34.74.74,0,0,1-.081.685.694.694,0,0,1-.583.281Z" transform="translate(0)"/>
    <path class="cls-2" d="M141.185,64.28a1.2,1.2,0,0,1,.319.133c.059.179,0,.308-.19.308h0a1.432,1.432,0,0,1-.4-.119c.076-.111.131-.279.233-.316a.107.107,0,0,1,.037-.006m0-1a1.224,1.224,0,0,0-.378.066,1.316,1.316,0,0,0-.707.669,1.027,1.027,0,0,0-.125.9,1.009,1.009,0,0,0,.635.639l.057.022a1.7,1.7,0,0,0,.642.144,1.2,1.2,0,0,0,.993-.489,1.246,1.246,0,0,0,.15-1.135,1,1,0,0,0-.578-.614,1.421,1.421,0,0,0-.69-.2Z" transform="translate(0)"/>
  </g>
</svg>
