<svg xmlns="http://www.w3.org/2000/svg" viewBox="0 0 77.55 121.55"><defs><style>.a,.d{fill:#fff;}.a{stroke:#000;stroke-width:0.05px;}.b{fill:none;stroke:#df0000;}.c{fill:#df0000;}</style></defs><title>DiamAsset 52</title><path class="a" d="M77.53,116.53a5,5,0,0,1-5,5H5a5,5,0,0,1-5-5V5A5,5,0,0,1,5,0h67.5a5,5,0,0,1,5,5Z"/><path class="b" d="M3.28,4h4"/><path class="b" d="M8.28,4h4"/><path class="b" d="M3.28,16.52h4"/><path class="b" d="M8.28,16.52h4"/><path class="b" d="M11,3.78,5,12"/><path class="b" d="M11,16.77,7.28,9"/><path class="b" d="M5,4.28v12"/><path class="b" d="M74.28,117.53h-4"/><path class="b" d="M69.28,117.53h-4"/><path class="b" d="M74.28,105h-4"/><path class="b" d="M72.48,117.28v-12"/><path class="b" d="M66.48,117.78l6-8.25"/><path class="b" d="M66.48,104.78l3.75,7.75"/><path class="b" d="M69.28,105h-4"/><path class="c" d="M9.76,21.15a26.5,26.5,0,0,1-2-2.87,26.5,26.5,0,0,1-2,2.88,21,21,0,0,1-2.51,2.63A21,21,0,0,1,5.79,26.4a26.5,26.5,0,0,1,2,2.88,26.5,26.5,0,0,1,2-2.87,21,21,0,0,1,2.51-2.62A21.08,21.08,0,0,1,9.76,21.15Z"/><path class="c" d="M71.76,95.15a26.5,26.5,0,0,1-2-2.87,26.5,26.5,0,0,1-2,2.88,21,21,0,0,1-2.51,2.63,21,21,0,0,1,2.52,2.63,26.5,26.5,0,0,1,2,2.88,26.5,26.5,0,0,1,2-2.87,21,21,0,0,1,2.51-2.62A21.08,21.08,0,0,1,71.76,95.15Z"/><path class="c" d="M58.9,103.41l-27.49-.08-15.6,0c-.81,0-2.15.3-2.65-.4s0-3.14,0-3.94q0-3.9,0-7.79.11-31.18.29-62.35,0-5.46.06-10.91l50.06.72.11,83.66a.91.91,0,0,1-1.1,1.15Z"/><path class="d" d="M23.22,69.05c.18-.06.35-.06.37,0s1,.07,1.22-.09a2.71,2.71,0,0,0,.55-.61c.18-.26.54-.71.78-1A9.68,9.68,0,0,0,27.2,66a4.09,4.09,0,0,1,.42-.56c.13-.12.07-.5-.08-.5a1.5,1.5,0,0,1-.36-.13,2,2,0,0,0-.38-.15,2.91,2.91,0,0,1-1-.31c-.07-.07-.15-.09-.18-.06a1.57,1.57,0,0,1-.62-.09A14.65,14.65,0,0,0,23.28,64a10.44,10.44,0,0,0-2.78,0,2.28,2.28,0,0,0,.26,1.14c.05,0,.07.05,0,.12a.26.26,0,0,0,0,.25,6.49,6.49,0,0,1,.37.92c.15.43.31.87.36,1a1,1,0,0,1,.09.33,3.78,3.78,0,0,0,.26.73c.22.5.31.6.58.64l.37.06a1.4,1.4,0,0,0,.37-.09Zm-4.92,1.6a5.23,5.23,0,0,1,1.48-.73s.07,0,.07-.1.06-.1.14-.06c.32.14.5-.55.21-.82a.49.49,0,0,1-.15-.31,1.21,1.21,0,0,0-.19-.46,3.44,3.44,0,0,1-.31-.72,1.36,1.36,0,0,0-.21-.48.33.33,0,0,1-.09-.24,6.62,6.62,0,0,0-.41-1.13l-.41-1-.37.08c-.2,0-.38.12-.4.18a.08.08,0,0,1-.13,0,1.68,1.68,0,0,0-.72.27A19.6,19.6,0,0,0,14,66.85l-.29.27,0,1.72a10.35,10.35,0,0,0,.06,2l.11.31h1.48a4.15,4.15,0,0,0,1.6-.13c.08-.1.12-.1.12,0s.33.23.6,0l.65-.43ZM33.49,72a5.82,5.82,0,0,0-1-2.21,1.55,1.55,0,0,1-.28-.48A8.35,8.35,0,0,0,31,67.66a6.47,6.47,0,0,0-1.15-1.14s-.1,0-.23-.11-.25-.14-.88.6c-1.86,2.21-2.3,2.94-1.81,2.94a1.63,1.63,0,0,1,.63.37,2.75,2.75,0,0,0,.57.39,4,4,0,0,1,.71.69l.59.66h.83a4,4,0,0,1,.88.07A9,9,0,0,0,33.49,72Z"/><path class="d" d="M41.55,22.57a1.09,1.09,0,0,1,.23-.76.62.62,0,0,0,.16-.28.12.12,0,0,1,.14-.1.39.39,0,0,0,.26-.16c.07-.09.17-.14.24-.11s.12-.12.12-.49c0-.53.19-.92.44-.92a.67.67,0,0,0,.31-.22.65.65,0,0,1,.35-.22c.21,0,.19-.31,0-.39s-1.3-.07-2.68-.08a24.51,24.51,0,0,1-2.72-.11c-.12,0-.23,0-.23,0s-.11.07-.24,0c-.36-.08-.39.23-.06.65a2.32,2.32,0,0,1,.35.57c0,.11.1.21.15.21s.09.07.09.16a1.15,1.15,0,0,0,.24.48c.24.31.24.31.46.09a3,3,0,0,0,.6-1.39.29.29,0,0,1,.58,0,8.89,8.89,0,0,0,.52,1.68,2.33,2.33,0,0,1,.21.59,1.22,1.22,0,0,0,.22.53s.08.1.08.22c0,.28.2.3.21,0Z"/><path class="d" d="M41.61,23.16c0-.23-.16-.36-.16-.15s.08.32.16.32S41.62,23.25,41.61,23.16Z"/><path class="d" d="M37.25,19.44s-.09,0-.2,0-.2,0-.2.1.09.08.2,0S37.25,19.46,37.25,19.44Zm.16,3.38a.21.21,0,0,1,0-.23.2.2,0,0,0,.05-.21.3.3,0,0,1,.06-.27c.06-.07.08-.13,0-.13s0-.07.05-.16a1.39,1.39,0,0,0,.41-.79c0-.27,0-.44-.3-.87a2.39,2.39,0,0,0-.43-.53,7.12,7.12,0,0,0-.19,2.24,8.85,8.85,0,0,1-.07,1.27c0,.05,0,0,.16,0s.2-.2.17-.29Zm6.85-.47c0-.6,0-1.4,0-1.77,0-1.1,0-1.16-.71-.62-.36.3-.62.83-.44.92a4.49,4.49,0,0,1,.57,1.55l.2.87a.2.2,0,0,0,.19.14c.13,0,.16-.19.17-1.1Zm-3.27,1c-.06,0-.09-.17-.06-.33a.93.93,0,0,0-.1-.53,5.7,5.7,0,0,1-.33-.87,3.9,3.9,0,0,0-.32-.8c-.07-.1-.1-.21-.06-.25s0-.08-.1-.08-.22.2-.18.48a.07.07,0,0,1-.08.08c-.09,0-.24.42-.22.59a2.55,2.55,0,0,1-.24.59c-.28.57-.33,1.06-.1,1.06a.16.16,0,0,0,.16-.11l0-.22a.59.59,0,0,1,.14-.25.5.5,0,0,0,.13-.27.63.63,0,0,1,.19-.32c.18-.18.19-.17.35.27a3.08,3.08,0,0,1,.16.58c0,.18.28.38.53.4S41,23.39,41,23.37Zm-2.4-.65a.45.45,0,0,1,.13-.27c.14-.1.22-.8.11-.88s-.55.09-.77.61a2,2,0,0,0-.12,1.37c0,.12.62-.65.65-.83Zm6.36.52a3.73,3.73,0,0,0,.1-.57,3.25,3.25,0,0,1,.35-.76,3.6,3.6,0,0,0,.35-.73c0-.06,0-.09.09-.05s0-.53-.13-.67a.43.43,0,0,1-.16-.26c0-.07,0-.13-.09-.13a1,1,0,0,1-.35-.29c-.46-.52-.47-.5-.48,2.54,0,.53,0,1,0,1.07a.77.77,0,0,1,0,.2.08.08,0,0,0,.08.08c.05,0,.14-.19.2-.42Zm-2-.86c-.44-.41-.67-.45-.89-.18a.68.68,0,0,0,.16.9c.14.09.22.06.33-.13s.17-.22.31-.09a.42.42,0,0,1,.1.4c0,.18,0,.26.12.29s.18-.05.21-.4S43.32,22.7,43,22.38Zm-6.37,1.11c.12-.14.15-.51.15-2a18.07,18.07,0,0,0-.05-1.86c-.06-.06-.64.28-.85.5s-.08,1,.17,1.49a3.26,3.26,0,0,1,.29,1.85c-.15.17-.38-.12-.38-.47s0-.38-.1-.38-.1-.09-.1-.2a1.27,1.27,0,0,0-.32-.57c-.32-.37-.63-.41-1-.1a.72.72,0,0,0,.1.93c.21.17.24.16.44-.11s.22-.28.38-.11a.81.81,0,0,1,.16.47c0,.49.17.71.56.71a.78.78,0,0,0,.5-.17Zm10.53.16c0-.07,0-.09-.1,0s-.13.17,0,.17A.11.11,0,0,0,47.15,23.66Zm-1.36-.08.2-.65c.09-.31.2-.46.34-.48s.21,0,.2.31.07.53.27.31a.79.79,0,0,0,0-1.05c-.29-.31-.47-.28-.9.14a1.78,1.78,0,0,0-.51,1.37c0,.3.27.34.36.06Zm1.06.19c0-.07,0-.09-.1,0s-.13.17,0,.17A.11.11,0,0,0,46.85,23.77Zm-15.22-.29a3.91,3.91,0,0,1,.08-.74c.08-.15.44-.1.6.08s.19.14.35,0,.19-.22.15-.52c-.07-.47,0-.44-.54-.53s-.45,0-.77.31-.35.42-.31,1.09.18,1.08.34,1A2.31,2.31,0,0,0,31.63,23.48Zm18.15.35a8.25,8.25,0,0,0-.6-2.49c-.06,0-.2.15-.3.38a3.47,3.47,0,0,1-.41.71,1,1,0,0,0-.23.4,1.22,1.22,0,0,1-.3.44,1.07,1.07,0,0,0-.3.6c0,.27,0,.27.28.07a6.45,6.45,0,0,0,.76-.75,2.29,2.29,0,0,1,.52-.51,4.9,4.9,0,0,1,.13,1.11c0,.29.23.65.41.65s.06-.28,0-.62Zm-19.3.49a.54.54,0,0,0,0-.39,5.1,5.1,0,0,1,0-2c.11-.71.1-.8-.06-1a2,2,0,0,0-1.69,0,4.15,4.15,0,0,1-.79.2c-.31,0-.59.31-.31.31a.11.11,0,0,1,.11.11,5.8,5.8,0,0,0,1,1.46.1.1,0,0,1,.09.11,2.32,2.32,0,0,0,.4.59,3.13,3.13,0,0,1,.46.68c.07.25.63.22.78,0Zm21,.4a1.48,1.48,0,0,0,.06-.4c0-.18-.06-.21-.35-.19s-.35.06-.35.11-.09.05-.2,0-.2,0-.2.1.2.42.35.36a.16.16,0,0,1,.19.06A.29.29,0,0,0,51.49,24.72Zm.92-.6c0-.35-.09-.8-.12-1a1,1,0,0,0-1.1-.95.77.77,0,0,0-.5,1.23c.24.31.3.31.55,0l.2-.23.19.26a1.81,1.81,0,0,1,.26.65,3.56,3.56,0,0,0,.21.72c.13.3.16.31.25.12a2.13,2.13,0,0,0,0-.83ZM54,25.32a.79.79,0,0,0,0-.4c0-.08,0-.14,0-.14a2.85,2.85,0,0,0,.33-.9,3,3,0,0,1,.32-.9s.08-.09.08-.19a6.52,6.52,0,0,1,.56-1.52.66.66,0,0,0,.09-.42,2.17,2.17,0,0,0-1,0l-1.07.07a.79.79,0,0,0-.38.29c-.22.27-.23.35-.16,1.13,0,.46.07,1.33.06,1.91,0,1,0,1.08.2,1.18.43.22.77.18.86-.09Z"/><path class="d" d="M58,96.52c.06,0,.11,0,.11,0s.08.1.17.07a9.11,9.11,0,0,1,1.16-.12c.54,0,1.13-.09,1.3-.12a8,8,0,0,1,.87-.09,2.27,2.27,0,0,0,.67-.11.09.09,0,0,1,.15.06.13.13,0,0,0,.18.07.5.5,0,0,1,.22,0c.14,0,.39-.5.36-.75s.21-.26-2.53-.13c-.39,0-1.29.09-2,.15l-1.52.12c-.41,0-.41.72,0,.9a1.09,1.09,0,0,0,.85,0Z"/><path class="d" d="M42.92,102.84c0,.09.09.09.22,0s.21-.07.23,0a4,4,0,0,0,1.13,0,4.1,4.1,0,0,1,1.21,0c.08.07.13.05.13-.05s0-.1,0,0a53.66,53.66,0,0,0,5.44.05.26.26,0,0,1,.13,0l1.25.06c1.45.06,1.58,0,1.49-.8a4.88,4.88,0,0,0-.23-1,4,4,0,0,1-.17-.51,1.71,1.71,0,0,0-.13-.34,5.94,5.94,0,0,1-.27-1.79A17,17,0,0,0,52.75,95a2.17,2.17,0,0,1-.2-.57.26.26,0,0,0-.15-.21.19.19,0,0,1-.13-.19,6.3,6.3,0,0,0-.4-1.42,1.56,1.56,0,0,1-.07-.28c0-.06-.09-.11-.18-.1s-.17-.07-.17-.27-.27-.85-1-1.83c-.28-.4-.63-.93-.77-1.18a8.36,8.36,0,0,0-.66-1,2.46,2.46,0,0,1-.41-.62,3.66,3.66,0,0,0-.36-.73,11.85,11.85,0,0,1-.65-1.35c-.16-.4-.33-.82-.39-.93a1.12,1.12,0,0,1-.1-.41.4.4,0,0,0-.1-.29.7.7,0,0,1-.1-.43,3.42,3.42,0,0,0-.14-.81,20.61,20.61,0,0,1-.41-4c0-1.9,0-1.75-.52-1.95-.26-.1-.51-.14-.56-.09a6.51,6.51,0,0,0-.13,1.31,62.86,62.86,0,0,1-.42,6.39c-.12.8-.26,2-.32,2.62a11.29,11.29,0,0,1-.2,1.44,8,8,0,0,0-.19,1,19.91,19.91,0,0,1-.63,2.89c-.27,1-.5,2.08-.63,2.92,0,.19-.1.58-.15.87a4.81,4.81,0,0,0-.08.62.36.36,0,0,1,0,.14s0,.13-.05.22-.14.55-.28,1a10.32,10.32,0,0,0-.31,1.44,3.81,3.81,0,0,1-.2.9,7.52,7.52,0,0,0-.29,1.2c-.09.5-.19,1-.22,1.09s-.06.18,1.05.34a.84.84,0,0,0,.45-.07c.13-.07.21-.07.23,0Z"/><path class="d" d="M60.05,102.86a.1.1,0,0,0,.09-.11,5.53,5.53,0,0,0-2-1,.54.54,0,0,1-.27-.1,1.16,1.16,0,0,0-.92-.11c-.08.06-.09.15,0,.28a2.65,2.65,0,0,1,.15.6l.06.41,1.22,0a7.92,7.92,0,0,1,1.27.07s.11,0,.19,0A.74.74,0,0,1,60.05,102.86Z"/><path class="d" d="M19.44,102.74s.17,0,.38,0,1.78.07,3.49.05c3,0,3.54-.08,3.54-.38a4.08,4.08,0,0,1,.58-.76,5.62,5.62,0,0,0,1.13-1.6.11.11,0,0,1,.09-.12,2,2,0,0,0,.42-.65,3.57,3.57,0,0,1,.5-.78.87.87,0,0,0,.23-.42c0-.16.11-.28.16-.28a.11.11,0,0,0,.1-.12,1.51,1.51,0,0,1,.22-.48,7.07,7.07,0,0,0,.54-1,1.4,1.4,0,0,1,.25-.35.6.6,0,0,0,.18-.32,1.1,1.1,0,0,1,.2-.42,1.09,1.09,0,0,0,.2-.44c0-.08,0-.15.09-.15s.14-.18.21-.39.15-.39.18-.39.33-.47,1.07-2.13a33.39,33.39,0,0,0,1.54-3.76.3.3,0,0,1,.09-.22,1,1,0,0,0,.16-.46,3.07,3.07,0,0,1,.25-.76,4.45,4.45,0,0,0,.31-.9c.07-.29.16-.53.21-.53s.09-.11.09-.24a5,5,0,0,1,.28-1.22c0-.09.06-.23.08-.3l.18-.84c.09-.39.2-1.09.26-1.55s.13-1,.16-1.18A24.41,24.41,0,0,0,37,75c0-1.7,0-3.34,0-3.65,0-.49-.13-1.79-.25-2.64,0-.15-.07-.53-.1-.84a17.91,17.91,0,0,0-.5-2.53,10.69,10.69,0,0,1-.31-1.74,1.81,1.81,0,0,0-.07-.28c-.08-.24-.39-1.48-.42-1.68a2.68,2.68,0,0,0-.08-.34c0-.09-.13-.55-.23-1a5.94,5.94,0,0,0-.26-1,4.08,4.08,0,0,1-.23-.7c-.08-.32-.19-.58-.25-.58s-.07-.08,0-.17,0-.17,0-.17a3.22,3.22,0,0,1-.53-1.22,7.89,7.89,0,0,0-.44-1.14,5.34,5.34,0,0,1-.39-1s-.06-.15-.19-.26a2.2,2.2,0,0,1-.42-.66c-.1-.25-.29-.64-.42-.87a2,2,0,0,1-.23-.54,4.42,4.42,0,0,0-.68-1.1.55.55,0,0,1-.13-.29.78.78,0,0,0-.18-.36,8.05,8.05,0,0,1-.45-.68,7.93,7.93,0,0,0-.45-.67,2.42,2.42,0,0,1-.3-.52c-.07-.17-.17-.31-.22-.31s-.16-.14-.24-.31a4.91,4.91,0,0,0-.5-.76,2.59,2.59,0,0,1-.36-.52,5,5,0,0,0-.83-1.11,2.3,2.3,0,0,1-.37-.51,1,1,0,0,0-.23-.32l-.5-.57-.38-.44-.36-.43a1.38,1.38,0,0,0-.53-.41,2.46,2.46,0,0,0-1.45.22.41.41,0,0,1-.27.12,2.28,2.28,0,0,0-.66.28,2.54,2.54,0,0,1-.62.28,2.56,2.56,0,0,0-.65.38,5.28,5.28,0,0,1-.63.41,5.67,5.67,0,0,0-1,.65,3.42,3.42,0,0,1-.61.36,1.27,1.27,0,0,0-.37.29,2.88,2.88,0,0,1-.64.46,4.37,4.37,0,0,0-.8.58,5,5,0,0,1-.75.57,3.87,3.87,0,0,0-.6.43c-.84.75-1.12,1-1.53,1.43l-.44.45,0,7.23,0,7.23.3-.07a3,3,0,0,0,.76-.37A8,8,0,0,1,15.94,63l1.35-.55a15,15,0,0,1,7.51-.77l1,.24a1.06,1.06,0,0,1,.46.22.66.66,0,0,0,.4.16,1.13,1.13,0,0,1,.49.16,1.18,1.18,0,0,0,.52.16.54.54,0,0,1,.4.2.6.6,0,0,0,.33.23.63.63,0,0,1,.29.14.62.62,0,0,0,.38.1c.15,0,.28.05.28.11s.14.11.3.11.3.06.3.12.06.1.14.06a.15.15,0,0,1,.2.1.24.24,0,0,0,.2.16,4.16,4.16,0,0,1,1.25.91.17.17,0,0,0,.15.1,7.44,7.44,0,0,1,1.51,1.6,1,1,0,0,0,.37.37c.11,0,.16.12.13.18s0,.22.14.36a10.73,10.73,0,0,1,1.58,3.17,5.6,5.6,0,0,0,.25.67,1.83,1.83,0,0,1,.13.42c0,.23.13.31.31.31s.25,0,.25.39a4.9,4.9,0,0,1-.26,1.15A4.56,4.56,0,0,0,36,75.05a16.22,16.22,0,0,1-.15,1.74l-.25,1.8c-.05.4-.14.88-.19,1.07s-.12.54-.16.79a2.21,2.21,0,0,1-.14.56,3.65,3.65,0,0,0-.21.62,3.72,3.72,0,0,1-.21.62,3.12,3.12,0,0,0-.19.59c-.06.26-.16.48-.21.48s-.1.09-.1.2a1.44,1.44,0,0,1-.18.5,13.19,13.19,0,0,0-.92,1.78.1.1,0,0,1-.1.1.1.1,0,0,0-.1.1,4.57,4.57,0,0,1-.42.8c-.23.38-.51.85-.61,1a2.82,2.82,0,0,1-.42.57,1.56,1.56,0,0,0-.33.51,21.7,21.7,0,0,1-1.8,2.64c-.15.19-.41.54-.57.79s-.35.52-.42.6a.52.52,0,0,0-.12.24,8.14,8.14,0,0,1-.8,1,7.18,7.18,0,0,0-.8,1,.1.1,0,0,1-.1.1,6.77,6.77,0,0,0-.93,1L24.12,98a5.53,5.53,0,0,0-.68.85c0,.14-.58.4-.7.32a.14.14,0,0,1-.05-.17c0-.05-.11-.15-.3-.23a.93.93,0,0,1-.46-.36,11.05,11.05,0,0,0-1.61-1.77,1.77,1.77,0,0,1-.43-.37,4.55,4.55,0,0,0-.5-.45.34.34,0,0,1-.14-.25.15.15,0,0,0-.13-.16.91.91,0,0,1-.57-.55.12.12,0,0,0-.11-.13,1,1,0,0,1-.38-.28c-.15-.15-.47-.46-.72-.67l-.56-.49L16,92.68a5.59,5.59,0,0,1-.72-.69.35.35,0,0,0-.28-.14c-.11,0-.18,0-.15-.09s-.15-.21-.39-.34-.45-.3-.45-.35-.09-.1-.19-.1-.28.43-.29,3.65c0,1.36,0,3.68,0,5.15a14.41,14.41,0,0,0,.1,2.83,1.2,1.2,0,0,0,.68.19c1.19.07,5.12.05,5.12,0Z"/><path class="d" d="M36,102.53a.13.13,0,0,0,0-.17c-.05,0-.12,0-.15.1S35.9,102.7,36,102.53Zm-4.15-.06c0-.15,0-.28,0-.28a.62.62,0,0,0-.09.28c0,.15,0,.28,0,.28S31.85,102.62,31.85,102.46Zm3.7.2a.64.64,0,0,0-.14-.21c-.16-.18-.31,0-.22.24S35.55,102.81,35.55,102.67Zm-4.27-.13c0-.14-.1-.25-.15-.25s-.11.07,0,.33S31.36,102.87,31.28,102.54Zm-.62.12a1.1,1.1,0,0,0,.23-.49c0-.18.1-.33.15-.33s.14-.18.21-.39.16-.39.2-.39.1-.1.14-.22.13-.22.2-.22.33.59.41,1.48c0,.48.1.64.22.65l.81,0,.65,0v-.37c0-.5-.13-.57-.3-.13s-.15.34-.23.16-.14-.17-.31-.07-.21.08-.21,0a4.77,4.77,0,0,1,.6-1.37,3.54,3.54,0,0,0,.23-.37c.15-.27.5-.44.45-.22,0,0,0,.58.06,1.18.07,1,.1,1.1.29,1.09s.66-.63.66-1c0-.09,0-.17.09-.17a2,2,0,0,0,.36-.67,1.93,1.93,0,0,1,.36-.67c.19,0,.29.44.32,1.39a3.31,3.31,0,0,0,.14,1.09,1.81,1.81,0,0,0,1.35-.13c.13-.23.11-.33,0-.33a.24.24,0,0,1-.2-.17.25.25,0,0,0-.21-.17c-.08,0-.15-.05-.15-.11a.11.11,0,0,1,.1-.11c.06,0,.1-.1.1-.22a.4.4,0,0,1,.1-.29,1.38,1.38,0,0,0,.24-.46c.19-.5.41-.5.5,0a7.06,7.06,0,0,1,0,2c-.06.11,0,.11.09,0s.17-.12.17,0,.07.08.2-.06a.7.7,0,0,0,.2-.3A.9.9,0,0,1,39,102a3.73,3.73,0,0,0,.41-.73c.14-.32.27-.48.4-.48s.19,0,.19,0,0,.29.09.59a3.3,3.3,0,0,1,0,.94c-.07.38-.08.39-.2.14s-.31-.23-.31.11,0,.22.37.17a1.07,1.07,0,0,0,.5-.22,4.76,4.76,0,0,0,.34-1.16c.12-.55.23-1.08.26-1.17a3.43,3.43,0,0,0,.09-.48l0-.31-.92,0c-.51,0-1.53,0-2.27,0l-1.5,0L33,99.44l-3.35,0-.28.35a9.41,9.41,0,0,0-.63,1,5.63,5.63,0,0,1-.47.73c-.4.38-1,1.45-.67,1.24a.1.1,0,0,1,.15,0c0,.06.17.1.32.09s2.1-2.18,2.16-2.12a.21.21,0,0,1,0,.27,1.22,1.22,0,0,0-.07.54c0,.55-.07,1.24-.17,1.24s-.11-.15-.15-.34-.11-.31-.17-.26-.17,0-.24-.13-.15-.18-.43.18-.37.55-.23.56a6.29,6.29,0,0,1,1.09.14c.08.09.59-.07.75-.23Zm32.4-2.13a1.08,1.08,0,0,1,.09-.5,7.2,7.2,0,0,0,0-2.42c0-.84-.1-1-.4-.88s-1.47.16-3.9.27c-1.47.07-1.5.08-1.53.33s0,.28.17.32.21.11.21.16.07.1.16.1a.5.5,0,0,1,.31.17.54.54,0,0,0,.34.17c.11,0,.19,0,.19.1s.13.15.28.21a2,2,0,0,1,.59.46,1.22,1.22,0,0,0,.42.35.12.12,0,0,1,.11.12c0,.07.06.1.14.06a.15.15,0,0,1,.2.1.24.24,0,0,0,.2.16.2.2,0,0,1,.18.09c.06.16.8.59.9.52s.19,0,.3.17a.59.59,0,0,0,.62.21c.36,0,.41-.06.39-.28ZM39.8,97.81a10.53,10.53,0,0,0,1.47,0c.39-.06.45-.16.62-1.09,0-.19,1-5,.93-5.06s-.73-.09-4.27,0l-3.82.09c-1,0-1.07,0-1.23.31a1.35,1.35,0,0,0-.16.47.24.24,0,0,1-.09.21,5.57,5.57,0,0,0-.53,1c-.72,1.52-1,2.12-1.46,2.94s-.53,1.1-.33,1a.1.1,0,0,1,.15,0,24.71,24.71,0,0,0,3.07.11c1.66,0,3,0,3,0a4.21,4.21,0,0,0,.76,0,15.28,15.28,0,0,1,1.83,0ZM56.65,94c0-.1.06-.11,2.1-.14a7.54,7.54,0,0,0,1.67-.13.2.2,0,0,1,.23,0,.22.22,0,0,0,.23,0,.82.82,0,0,1,.43-.06,2,2,0,0,0,.75-.14c.28-.11.48-.13.54-.06a.33.33,0,0,0,.55-.11,1.78,1.78,0,0,0,.09-.65c0-.24,0-.88,0-2,0-.66,0-1.28,0-1.36s-.31-.14-1.83-.08a15.59,15.59,0,0,0-1.92.15,6.92,6.92,0,0,1-1.26.1c-.64,0-1.44.07-1.79.1l-.63.07,0,.64a12.63,12.63,0,0,0,.31,1.87c.12.53.16.76.26,1.32.06.36.15.65.2.65a.09.09,0,0,0,.09-.09Zm-13.19-4.8a8.83,8.83,0,0,0,.23-1c.33-2.33.45-3.32.59-5,0-.5,0-.52-.26-.59a.71.71,0,0,0-.38,0,11.69,11.69,0,0,1-1.51.11c-.79,0-1.61.07-1.83.1a24.87,24.87,0,0,1-2.54.19,1.59,1.59,0,0,0-.47,0c-.38.08-.57.4-.68,1.16,0,.26-.11.48-.16.48s-.09.06-.09.13a2.76,2.76,0,0,1-.18.59c-.1.25-.29.81-.41,1.24a17.9,17.9,0,0,1-.61,1.68,11.1,11.1,0,0,0-.45,1.19l-.07.3H43.3l.17-.56ZM58,87.7a12.22,12.22,0,0,0,3.42-.46.32.32,0,0,1,.31,0c.17.07.26,0,.39-.13a.4.4,0,0,0,.1-.35c-.08-.14.06-.06.49.29.27.22.28.22.42,0s.14-.58.11-2.12a11,11,0,0,0-.14-2,12.56,12.56,0,0,0-2.55,0l-2,.12a28.19,28.19,0,0,0-3.91.32A14.66,14.66,0,0,0,55,85.84c.14.62.29,1.32.34,1.57s.15.46.34.52a.46.46,0,0,0,.36,0,13,13,0,0,1,2-.2Zm-1.67-6.14.9-.06a2.11,2.11,0,0,0,.59-.08,8.59,8.59,0,0,1,1.3-.09,12.85,12.85,0,0,0,2.11-.16s.83-.11,1.23-.13.4-.09.12-.38l-.44-.47a.85.85,0,0,0-.32-.25,2,2,0,0,1-.64-.8A.1.1,0,0,0,61,79a9.39,9.39,0,0,1-1.57-1.57l-.55-.61-.75,0a3.43,3.43,0,0,0-.84.09,10,10,0,0,1-2.35.22c-1.59.1-1.55.08-1.55.68a15.21,15.21,0,0,0,.47,2.64,2.68,2.68,0,0,1,.1.44c.06.43.22.68.38.61s.15,0,.15.07.19.11.68.06l1.08-.11ZM40.87,81a11.8,11.8,0,0,0,1.8-.14,3.21,3.21,0,0,1,.94-.05c1.05,0,1,.23,1.09-2.79.12-3.21.15-3.07-.79-3-2.85.21-5.47.44-5.77.5l-.35.08-.08,1c0,.53-.12,1.33-.17,1.8s-.12,1.15-.14,1.53-.05.73-.06.79c-.07.42,0,.45.93.42l2.6-.09Zm13.47-4.36c0-.05.1-.06.22,0a1.36,1.36,0,0,0,.48.06,4.75,4.75,0,0,0,.8-.13,3.35,3.35,0,0,1,.53,0c.92,0,2.1-.56,1.47-.75-.11,0-.2-.09-.2-.13a6,6,0,0,0-1.15-1.31,16.87,16.87,0,0,1-1.57-1.72,2.43,2.43,0,0,0-.58-.58.12.12,0,0,1-.1-.13c0-.19-.51-.69-.61-.58a1.13,1.13,0,0,0,0,.58,2.94,2.94,0,0,1-.18,1.7,8.56,8.56,0,0,0-.1,2.83c.07.28.11.3.53.28.25,0,.45-.06.45-.12Zm-15.25-2.9c.5-.06,1.62-.12,2.51-.14a9.48,9.48,0,0,0,1.75-.13,1,1,0,0,1,.5-.07.62.62,0,0,0,.54-.17c.16-.18.17-.34.11-1.55-.18-3.51-.25-4.24-.39-4.4s-.37-.1-1,0c-.5.05-1.42.13-2.05.16-1.39.09-1.9.14-3.47.35-.48.06-.49.17-.27,1.74.08.56.14,1.55.18,2.85s.08,1.52.51,1.51l1.11-.11Zm0-7.91c.82,0,1.61-.08,1.74-.1s.58,0,1,0c.57,0,2,.23,2-.06a.22.22,0,0,1,.12-.2c.09,0,.07-.32,0-1.1-.09-.58-.19-1.49-.22-2a13.45,13.45,0,0,0-.2-1.85,3.39,3.39,0,0,1-.05-.43c0-.19-.08-.2-.88-.13a7.89,7.89,0,0,0-.93.11,9.57,9.57,0,0,1-1.05.11,33,33,0,0,0-3.84.41c-.87.15-1,.25-.9.55a1.32,1.32,0,0,1,.1.47.7.7,0,0,0,.08.35.36.36,0,0,1,.08.16,1.66,1.66,0,0,0,.07.24c0,.09.11.57.17,1.07a12,12,0,0,0,.43,2.38.73.73,0,0,0,.68.19c.09,0,.83-.07,1.65-.1Zm15.61-3.44a4.05,4.05,0,0,0,.06-1,12.49,12.49,0,0,1,.07-1.52c.06-.47.05-.7,0-.76s-.08-.08,0-.08.13-.19.13-.55V58l-.68-.07c-.37,0-.91-.07-1.19-.07a1.08,1.08,0,0,1-.57-.1c-.06-.1-.65-.06-.75,0a5.69,5.69,0,0,0,.84,1.79,28.45,28.45,0,0,0,1.79,2.84c.13.18.22.18.31,0ZM35.57,58.92a2.82,2.82,0,0,1,.92-.16,19.84,19.84,0,0,0,3.52-.3c0-.06.11-.06.18,0a.77.77,0,0,0,.72,0,3,3,0,0,1,.82,0c.4,0,.72,0,.72-.07s0-.09.07-.08h.31c.22,0,.23,0,.18-.49a12.52,12.52,0,0,0-.27-1.52.59.59,0,0,1,0-.14.52.52,0,0,0,0-.14,1.55,1.55,0,0,1-.05-.31c0-.15-.11-.73-.21-1.28l-.18-1L41,53.46c-1.39.07-4.38.37-5.35.54a12.14,12.14,0,0,1-1.6.2c-.56,0-.62.15-.4.82a6.9,6.9,0,0,0,.4,1,8.32,8.32,0,0,1,.69,1.73A5,5,0,0,0,35.31,59a1.13,1.13,0,0,0,.26-.13ZM55,56.29c.18,0,.23-.19.34-1,.07-.51.21-1.51.32-2.22.17-1.17.17-1.3,0-1.42a11.1,11.1,0,0,0-2.84-.25,14.34,14.34,0,0,1-1.53-.06c-.89-.08-1.08-.07-1.09.06A5.65,5.65,0,0,0,50.31,53a8.48,8.48,0,0,1,.13,1.18,1.81,1.81,0,0,0,.2.84,1.44,1.44,0,0,1,.2.56c0,.43.32.51,3,.76A3.77,3.77,0,0,0,55,56.29Zm-21.7-4a.09.09,0,0,1,.16,0,1.89,1.89,0,0,0,.91-.06A11,11,0,0,1,35.92,52a1.92,1.92,0,0,0,.73-.09,16,16,0,0,1,3-.28c.55,0,1.2-.08,1.44-.12l.44-.06-.06-.6a7.38,7.38,0,0,0-.68-2.13.6.6,0,0,1-.08-.31,2.87,2.87,0,0,0-.27-.77l-.27-.57-.65.06-2,.18-2.35.22c-1.25.13-2,.2-3.35.28-.58,0-1.17.09-1.33.13s-.35.27-.15.51a2.72,2.72,0,0,1,.3.55,2,2,0,0,0,.32.55.48.48,0,0,1,.15.27,1.26,1.26,0,0,0,.3.45,1.15,1.15,0,0,1,.3.48,1.47,1.47,0,0,0,.25.53,1.63,1.63,0,0,1,.25.48.9.9,0,0,0,.2.35c.22.26.83.34,1,.12Zm22.77-2.58a2.61,2.61,0,0,0,.46-1.25A12,12,0,0,1,57,47c.17-.4.17-.46,0-.64s-.22-.17-.29-.14a1,1,0,0,1-.49-.05c-.23-.07-.38-.07-.42,0s-.11.07-.18,0a1.48,1.48,0,0,0-.67-.08A3.91,3.91,0,0,1,54,46a15,15,0,0,0-1.75-.16c-.77,0-1.45-.08-1.52-.11s-.33.23-.42,1a12.76,12.76,0,0,0,0,2.82c.1.24.14.26.35.15s.27-.09.31,0a1.31,1.31,0,0,0,.74.09,8.92,8.92,0,0,1,1.25,0c.32,0,1.09.08,1.71.08.94,0,1.16,0,1.35-.19ZM29.24,46.11s.09,0,.2,0a.38.38,0,0,0,.32-.05.33.33,0,0,1,.31,0,2,2,0,0,0,.75,0,15.35,15.35,0,0,1,1.66-.14,10.9,10.9,0,0,0,1.5-.14,7.08,7.08,0,0,1,1.28-.09,3.47,3.47,0,0,0,.88-.05,2.42,2.42,0,0,1,.73-.07,7.93,7.93,0,0,0,2.37-.33,19.7,19.7,0,0,0-1-2.32,2.48,2.48,0,0,1-.26-.51,1.7,1.7,0,0,0-.29-.43c-.16-.19-.27-.38-.25-.41s-.08-.21-.24-.4-.27-.37-.24-.4,0-.12-.16-.2a.47.47,0,0,1-.21-.28,1,1,0,0,0-.33-.41c-.3-.26-.43-.28-1.93-.35-.88,0-1.71-.09-1.85-.12s-5.35-.19-6.2-.18H24.47a4.88,4.88,0,0,0-1.63.12.11.11,0,0,0,.1.11c.06,0,.2.13.32.3a23.54,23.54,0,0,0,1.9,2.17c.11,0,2,2.58,2.18,2.58a3.45,3.45,0,0,1,.56.76c.26.42.52.82.58.89s.75.15.75,0Zm26-1.71a11.71,11.71,0,0,0,2.42,0,3.17,3.17,0,0,0,.53-1.24c0-.1,0-.19.08-.19a1.89,1.89,0,0,0,.27-.7,6.7,6.7,0,0,1,.36-1,6.48,6.48,0,0,0,.33-.84c.14-.46.14-.51,0-.63a3.27,3.27,0,0,0-1-.21L57,39.44c-.45-.06-1.64-.14-3.21-.23l-1.41-.08-.17.43a12.23,12.23,0,0,0-.51,1.5,4.49,4.49,0,0,1-.27.74A9.91,9.91,0,0,0,51,43.21l-.09.3a.75.75,0,0,0,0,.47c.09.18.19.22.51.18s.4,0,.4,0,.17.09.38.1l1,.09a1.28,1.28,0,0,0,.78-.07c.11-.1.14-.09.14,0s.07.15.38.08a2.08,2.08,0,0,1,.68,0Z"/><path class="d" d="M58.59,101.17a.11.11,0,0,0-.16,0c-.14.1-.11.16.06.16S58.63,101.23,58.59,101.17Z"/><path class="d" d="M57.4,100.83c0-.06-.21-.11-.38-.1s-.31,0-.07.1S57.47,101,57.4,100.83Z"/><path class="d" d="M55.8,100.73c.77,0,.31-.24-.66-.32-.76-.06-.79-.05-.79.18s0,.24.47.2Z"/><path class="d" d="M58.75,100.4c0-.05-.09-.13-.2-.16s-.2,0-.2,0,.08.12.17.14l.2.06S58.75,100.45,58.75,100.4Z"/><path class="d" d="M56.76,99.48c.09-.12.21-.22.27-.22s.15-.1.21-.22c.14-.28,0-.28-.55,0s-.88.6-.78.72.67-.06.84-.28Z"/><path class="d" d="M23.31,98a4.94,4.94,0,0,1,.68-.7,41.16,41.16,0,0,0,3.61-4.17c.11-.18.43-.6.71-.94a14,14,0,0,0,1.24-1.71,8,8,0,0,0,.5-.81,2.5,2.5,0,0,1,.35-.45,1.72,1.72,0,0,0,.35-.5,1,1,0,0,1,.25-.37,1,1,0,0,0,.25-.38,1.84,1.84,0,0,1,.3-.52,6.47,6.47,0,0,0,.56-1,1.86,1.86,0,0,1,.33-.57s.12-.1.17-.21l.39-.84a2,2,0,0,1,.38-.63s.08-.06.08-.12a2.48,2.48,0,0,1,.16-.53c.51-1.3.76-1.89.84-2.07a1,1,0,0,0,.1-.37c0-.09.13-.71.3-1.38a15.31,15.31,0,0,0,.46-2.37c0-.28.09-.64.11-.8s.07-.74.09-1.31c0-.76,0-1.06-.09-1.15a1.58,1.58,0,0,0-1,0,13,13,0,0,0-.11,1.33A18.64,18.64,0,0,1,34,77.69l-.35,1.74a10.32,10.32,0,0,1-.59,2.13c-.12.31-.28.76-.35,1a2.73,2.73,0,0,1-.22.59c-.05.08-.07.14,0,.14a5.31,5.31,0,0,1-.54,1.24s-.19.35-.35.7a6.86,6.86,0,0,1-.57,1,1.42,1.42,0,0,0-.28.5c0,.08,0,.14-.09.14s-.16.18-.26.4a1.09,1.09,0,0,1-.31.46.23.23,0,0,0-.14.18,1.83,1.83,0,0,1-.33.53c-.8,1-.91,1.19-.9,1.25a1.66,1.66,0,0,1-.29.45,7.27,7.27,0,0,0-.55.86c-.14.26-.29.48-.35.48s-.19.13-.32.3c-.64.85-1.17,1.48-2.72,3.2a20,20,0,0,1-1.83,1.89.15.15,0,0,1-.12-.16c0-.17-.51-.65-.83-.77a.27.27,0,0,1-.18-.21,1.77,1.77,0,0,0-.61-.77,7.32,7.32,0,0,1-1.18-1.1,1.53,1.53,0,0,0-.45-.37,1.57,1.57,0,0,1-.45-.39A6.12,6.12,0,0,0,17.59,92c-.06,0-.16-.1-.23-.23s-.17-.22-.23-.22-.31-.2-.94-.84c-.13-.13-1.48-1.18-1.74-1.35L14,89c-.34-.26-.39-.21-.42.39a.84.84,0,0,0,.29.79,1.62,1.62,0,0,0,.37.32,1.88,1.88,0,0,1,.4.34,1.3,1.3,0,0,0,.46.34c.07,0,.13.08.13.17s.11.2.24.23a1.18,1.18,0,0,1,.47.34.8.8,0,0,0,.33.27,1.5,1.5,0,0,1,.47.37c.83.84,1.11,1.09,1.29,1.15s.2.11.2.16a1.21,1.21,0,0,0,.45.57s.16.11.27.25.23.25.28.25.18.14.3.31.28.31.35.31.24.14.37.31a1.74,1.74,0,0,0,.33.36,1.59,1.59,0,0,1,.31.31c.12.14.25.26.29.26a5.31,5.31,0,0,1,1,1.25c0,.06.07.1.15.1a.25.25,0,0,1,.21.17c.1.28.29.19.7-.32Z"/><path class="d" d="M55.69,98a.44.44,0,0,1,.28-.1c.12,0,.18-.08.18-.24s0-.21-.14-.11-.17.06-.29-.24l-.38-.93a5.26,5.26,0,0,1-.24-.67,6.17,6.17,0,0,0-.49-1.18,2.73,2.73,0,0,1-.24-.7c0-.11,0-.2-.09-.2s0,.29,0,.65.09,1.32.11,2.15c0,1.73.09,1.83.81,1.73a1.27,1.27,0,0,0,.51-.16Z"/><path class="d" d="M57,97.81a2.6,2.6,0,0,0-.36-1.13.89.89,0,0,1-.14-.36.58.58,0,0,0-.22-.37c-.31-.14-.34.13-.08.77.14.35.26.66.26.69a1.26,1.26,0,0,0,.42.5.19.19,0,0,0,.13-.1Z"/><path class="d" d="M54.06,97c0-.29,0-.57,0-.61s0-.5-.06-1a15.66,15.66,0,0,0-.2-1.72,8.79,8.79,0,0,1-.15-1.09,3.3,3.3,0,0,0-.32-1.32c-.11,0-.39-.69-.33-.8s-.07-.1-.23-.1c-.35,0-.48-.11-.48-.39s.14-.53.51-.45.34,0,.34-.16a2,2,0,0,0-.2-.64c-.19-.39-.19-.43,0-.73s.22-.37.45-.18.17.36.19,1c0,.79.19,1.16.26.59,0-.37.31-.49.69-.31s.31.17.2.44a.42.42,0,0,1-.32.29c-.17,0-.2.08-.22.59,0,.32,0,.7,0,.84a1.26,1.26,0,0,0,.06.45,2.5,2.5,0,0,1,.11.36c0,.09.15.57.28,1.07a9.21,9.21,0,0,1,.25,1,3.47,3.47,0,0,0,.61,1.28,1.07,1.07,0,0,0,.4,0c.37-.06.37-.28,0-2-.17-.74-.32-1.54-.35-1.79s-.14-.88-.25-1.4A16.09,16.09,0,0,1,55,88.65a3.94,3.94,0,0,0-.15-.87.41.41,0,0,1,0-.29,1.5,1.5,0,0,0-.08-.59c-.08-.27-.21-.92-.31-1.45s-.21-1.07-.26-1.21a1.76,1.76,0,0,1-.09-.48c0-.12,0-.22-.08-.22a5,5,0,0,1-.26-1.21c-.1-.66-.24-1.46-.32-1.77a32.26,32.26,0,0,1-.54-4,12.56,12.56,0,0,0-.16-1.37c0-.05-.22,0-.42.16a10.12,10.12,0,0,1-2.66,1.1,4.32,4.32,0,0,1-1.87.28,2.24,2.24,0,0,0-.82,0,22,22,0,0,0,.27,5.09.16.16,0,0,1,0,.2.28.28,0,0,0,0,.27,3.74,3.74,0,0,1,.22.81,10,10,0,0,0,.47,1.52,6.89,6.89,0,0,1,.34,1A18.56,18.56,0,0,0,49.61,88c.36.53.77,1.08.91,1.24a.52.52,0,0,1,.13.24,5.57,5.57,0,0,0,.73,1.21.66.66,0,0,1,.17.35c0,.09,0,.16.09.16s.14.18.21.39a1.2,1.2,0,0,0,.23.48,2.78,2.78,0,0,1,.36.76,4.63,4.63,0,0,0,.39.87c.08.11.12.23.08.27s0,.18.07.31a16.44,16.44,0,0,1,.72,2.54c.16,1,.34,1.09.36.25Z"/><path class="d" d="M24.63,89.75a6.14,6.14,0,0,0,2-1.83,5.38,5.38,0,0,1,.34-.56,4.38,4.38,0,0,0,.3-.62,4.12,4.12,0,0,0,.24-2,7.4,7.4,0,0,0-.11-1.68,9,9,0,0,1-.56-1.9c.1,0-.29-.33-.4-.33s-.1.37,0,.51a2.73,2.73,0,0,1,.21.61,1.71,1.71,0,0,0,.22.57,9.17,9.17,0,0,1,.3,2.75,5.92,5.92,0,0,1-1,2.41,1,1,0,0,0-.28.4,1.41,1.41,0,0,1-.7.61.1.1,0,0,0-.1.09,1.67,1.67,0,0,1-.63.34,4,4,0,0,1-2.41.11,1.49,1.49,0,0,0-.42-.17.32.32,0,0,1-.23-.15.18.18,0,0,0-.16-.11,3.12,3.12,0,0,1-1-1c0-.05-.07-.1-.16-.1s-.14-.06-.11-.16a.64.64,0,0,0-.14-.44,1.06,1.06,0,0,1-.19-.46c0-.1,0-.18-.08-.18s-.09-.09-.1-.2-.07-.6-.13-1.1A7.15,7.15,0,0,1,19.28,84a9.93,9.93,0,0,1,.87-2.75,8.36,8.36,0,0,0,.4-.79c0-.13-.42,0-.6.14a5.5,5.5,0,0,0-.78,1.72,8.2,8.2,0,0,0-.07,4,1.54,1.54,0,0,1,.14.45c0,.42.84,1.87,1,1.75s.08,0,.08.07a1.38,1.38,0,0,0,.68.67.12.12,0,0,1,.13.12c0,.06.08.11.18.11a.44.44,0,0,1,.28.1c.18.19.92.33,1,.2s.11-.08.11,0c0,.3,1.29.27,1.89,0Z"/><path class="d" d="M24.39,88.75a2.2,2.2,0,0,0,.69-.46,2,2,0,0,1,.48-.38s.08-.07.08-.15a.52.52,0,0,1,.17-.31,4.6,4.6,0,0,0,.51-1,3.91,3.91,0,0,0,.37-1.64c0-.73,0-.85-.22-1.11s-.44-.28-.44.36a5.3,5.3,0,0,1-.23,2c-.25,0-.46-.31-.46-.65s0-.35-.2-.35-.21-.1-.26-.45a1.73,1.73,0,0,0-.23-.67c-.16-.2-.19-.21-.39,0s-.22.18-.34-.29a.67.67,0,0,1,.05-.38c.08-.17.16-.19.46-.13a.9.9,0,0,1,.49.26c.15.22.17.11,0-.18a3.26,3.26,0,0,1-.25-1.66c.08-1,0-1.07-1-1.13l-1.53-.1c-.73,0-1.12.07-1.12.35a.25.25,0,0,1-.15.19.25.25,0,0,0-.15.19,1.86,1.86,0,0,1-.36.57l-.36.44.2.36c.28.49.38.49.46,0s.3-.82.52-.82.25-.15.4-.34S21.92,81,22,81a3.53,3.53,0,0,1-.2,1.79,2.6,2.6,0,0,0-.25.3c-.17.23-.17.24.12.22s.3,0,.3-.08.06-.07.13-.07.21.8,0,1-.18.17-.39-.12-.25-.28-.4-.19a.52.52,0,0,1-.37.06c-.14,0-.19,0-.19.23a.4.4,0,0,0,.15.35c.24.1.18.26-.15.39-.17.06-.3.19-.3.28s-.23.42-.39.31-.11-.27,0-1c.14-1.09.14-1.08,0-1.08-.37,0-.32,2,.08,3,.14.36.26.67.26.7a8.38,8.38,0,0,0,.63.79c.41.48.72.74.88.75a.72.72,0,0,1,.34.1c.15.12.41-.13.48-.48s0-.31-.15-.36-.19-.12-.15-.24c.1-.3-.25-1-.52-1s-.23-.05-.2-.37.08-.37.26-.38a.73.73,0,0,1,.62.66c0,.12,0,.18.08.15a2.39,2.39,0,0,0,0-1.23c-.15-.1-.07-.56.18-1.16s.53-.74.58-.23c0,.17.07.31.11.31.2,0,.21.59,0,.95a3.12,3.12,0,0,0-.33,1.76c.07.08.15,0,.25-.36s.21-.51.43-.59.31-.07.41.09,0,.64-.24.59-.44.45-.37.73c0,.12,0,.2-.08.2a.64.64,0,0,0-.32.15c-.14.12-.16.23-.11.57s.07.42.48.37a5.74,5.74,0,0,0,.71-.14Z"/><path class="d" d="M25.65,84.1c0-.41.36-1.24.54-1.24s.25-.32.11-.73a6.16,6.16,0,0,1-.26-.84s-.06-.1-.14-.15a.34.34,0,0,1-.14-.25c0-.09,0-.16-.07-.16l-.3-.07c-.18-.05-.23,0-.23.16s0,.25.08.27c.22.11.4.76.34,1.28,0,.3-.06.8-.06,1.11a1.07,1.07,0,0,1-.13.65.42.42,0,0,0-.13.31c0,.19,0,.2.2.08a.57.57,0,0,0,.2-.42Z"/><path class="d" d="M63.22,68.41c0-10.89,0-11.51-.15-11.44l-.37.14a.88.88,0,0,0-.33.21.47.47,0,0,1-.3.15,8.72,8.72,0,0,0-1.83.92s-.15.05-.28,0a.61.61,0,0,1-.31-.66,1.76,1.76,0,0,0-.05-.47c-.09-.45-.26-.46-.93-.1a4.8,4.8,0,0,1-1.31.57,4.71,4.71,0,0,0-.62.16l-.82.25c-.4.12-.36,0-.53,1.51,0,.19,0,1-.06,1.85,0,1.51.06,2.36.21,2.36s.1.07.11.16a10.42,10.42,0,0,0,1.43,1.85l.58.6a1.24,1.24,0,0,0,.37.31,1.87,1.87,0,0,1,.44.45,1.76,1.76,0,0,0,.45.45,1.39,1.39,0,0,1,.41.37,2,2,0,0,0,.63.48c.4.15.56.43.42.69a2.09,2.09,0,0,1-1.31.58,8.11,8.11,0,0,0-1.93.46c-.36.11-1,.29-1.45.4s-.9.24-1,.29-.22.1,0,.4A5.23,5.23,0,0,0,55,72a5.05,5.05,0,0,1,.39.54c.08.14.19.25.24.25a2.62,2.62,0,0,1,.56.56,2.61,2.61,0,0,0,.56.56,10.57,10.57,0,0,1,1.13,1.18,7,7,0,0,0,1.19,1.18c.08,0,.15,0,.15.08a1.3,1.3,0,0,0,.27.39l.78.87a2.86,2.86,0,0,0,.6.57,1.66,1.66,0,0,1,.46.37,9.27,9.27,0,0,0,1.18,1,1.2,1.2,0,0,1,.28.26c.13.14.26.23.3.19s.08-5.26.09-11.59Z"/><path class="d" d="M22.35,79a.1.1,0,1,0-.1.11A.11.11,0,0,0,22.35,79Zm4.8.05c0-.2,0-.21-1-.39l-1.2-.23c-.25-.05-.7-.13-1-.16l-.85-.12a5.77,5.77,0,0,0-.9,0h-.75c-.26,0-1.53,0-2,0a1.11,1.11,0,0,0-.48.09.2.2,0,0,1-.21,0c-.08,0-.14,0-.14.11s.29.49.38.36.34-.16,1.39-.16a1.76,1.76,0,0,0,.83-.1c0-.06.18,0,.4.05a1.45,1.45,0,0,0,.68.1,5.16,5.16,0,0,1,1.85,0,.57.57,0,0,0,.37.09.83.83,0,0,1,.47.13c.15.1.23.11.25,0s.14-.06.36.06.37.15.53.05.25-.09.33,0a1.35,1.35,0,0,0,.59.23S27.15,79.19,27.15,79.09Zm-2.58.1a.35.35,0,0,0-.25,0c-.07,0,0,.06.13.06S24.64,79.22,24.57,79.19Zm-.8,0a.35.35,0,0,0-.25,0c-.07,0,0,.06.13.06S23.84,79.22,23.77,79.19Zm-.43,0c0-.06-.09-.11-.2-.11s-.2.05-.2.11.09.11.2.11S23.35,79.22,23.35,79.15Zm-.6,0c.12-.09.11-.11-.07-.11s-.23,0-.23.11S22.55,79.29,22.75,79.15Zm-1.94.07A5,5,0,0,0,22,79.11s-.15-.08-.42-.07a2.84,2.84,0,0,1-.8-.09A1.56,1.56,0,0,0,20,79a6.31,6.31,0,0,1-.69.12.33.33,0,0,0-.29.17c0,.12,0,.13.28.07a10.64,10.64,0,0,1,1.46-.1Zm4.34.14a.58.58,0,0,0-.39,0c-.13.06-.12.09,0,.16a.69.69,0,0,0,.39,0C25.36,79.46,25.36,79.45,25.14,79.36Zm.9.25c0-.06-.07-.11-.15-.11s-.15.05-.15.11.07.11.15.11S26,79.66,26,79.6Zm1.1.22a.11.11,0,0,0-.11-.11c-.06,0-.08.05,0,.11s.08.11.11.11S27.15,79.89,27.15,79.83Zm-3.3,0c0-.05-.12-.1-.28-.11l-.53,0c-.32,0-.56.05-.4.16S23.85,79.93,23.85,79.81Zm-3.27.07,1.34,0c.3,0,.53-.06.53-.13s-.48-.11-1.5-.09c-.83,0-1.5,0-1.5.06s.14.36.22.31A4.1,4.1,0,0,1,20.58,79.88Zm4.82.19c-.14-.16-1.1-.34-1.16-.22a.13.13,0,0,1-.19,0q-.13-.09-.05,0a.17.17,0,0,0,.21.08.16.16,0,0,1,.2.06c0,.07.21.09.4.06s.36,0,.39,0a.11.11,0,0,0,.16,0A.1.1,0,0,0,25.39,80.07Zm.75.15a.16.16,0,0,0-.14-.17c-.19,0-.29.19-.13.26S26.15,80.39,26.15,80.22Zm.7.11s0,0-.1,0a.11.11,0,0,0-.1.12c0,.07,0,.09.1,0S26.85,80.35,26.85,80.33Z"/><path class="d" d="M28.54,76.46a.1.1,0,1,0-.1.11A.11.11,0,0,0,28.54,76.46Z"/><path class="d" d="M48.6,76.12a.21.21,0,0,1,.25-.05,2.63,2.63,0,0,0,1.44-.46c.09-.1.16-.11.18,0s1-.4,1.65-.95a2.67,2.67,0,0,0,1-2.25c0-.52,0-.79-.12-.82s-.12,0-.12.19,0,.23-.09.23-.12.13-.15.28-.12.28-.19.28-.21.14-.31.31a7,7,0,0,1-2.16,1.46,5.53,5.53,0,0,1-2.68.43,7.68,7.68,0,0,1-1.47-.24c-.58-.2-.68-.11-.61.51s.16.87.44.94a7.84,7.84,0,0,0,2,.27c.57,0,.94,0,1-.09Z"/><path class="d" d="M18.09,76.39c.12,0,.22.13.26.3s.12.27.28.25.24.06.34.48.17.5.23.5.21-.2.33-.44a1.51,1.51,0,0,1,.34-.5c.09,0,.09-.09,0-.17s-.09-.17.18-.47.56-.33.67.24a.6.6,0,0,0,.23.4,1.47,1.47,0,0,1,.38.28c.21.22.22.22.43,0a1.35,1.35,0,0,0,.27-.56.46.46,0,0,1,.27-.39c.33-.1.66-.08.66,0s.07.11.16.11.14-.07.09-.25a1.19,1.19,0,0,0-.16-.36c-.17-.2-.1-.75.1-.81s.21-.19.25-.46a1.35,1.35,0,0,0,0-.45,1.49,1.49,0,0,0-.52.2,3.67,3.67,0,0,1-1.17.29,3.82,3.82,0,0,0-1.72.33,1.25,1.25,0,0,1-.47.17c-.1,0-.18.05-.18.11s-.09.11-.2.11a.34.34,0,0,0-.28.15c-.1.19-.67.37-.63.58s-.22.23-.16.32Zm9.06,1.92a1.15,1.15,0,0,0,.15-.5c0-.26,0-.33-.19-.36s-.21-.11-.21-.36,0-.33.3-.37c.42-.06.51-.19.39-.56A2.92,2.92,0,0,0,25.86,75c-.11,0-.21,0-.23-.1A3.61,3.61,0,0,0,24,74.56a.46.46,0,0,0,.05.32,1.5,1.5,0,0,1-.06,1.2,4.43,4.43,0,0,0-.2.65c0,.2,0,.2.14,0a1.32,1.32,0,0,1,.5-.35c.29-.11.34-.09.49.15.25.43,0,.83-.26.45s-.6,0-.6.47c0,.22,0,.24.19.12s.23-.1.4.08.21.21.68-.37c.59-.73.83-.71,1.06.09a4,4,0,0,1,.16.77c0,.19.1.27.41.34C27,78.47,27.08,78.4,27.15,78.31Zm-4.29-1c-.05-.5-.2-.6-.42-.29s-.23.67.25.63C22.85,77.62,22.89,77.55,22.86,77.29Zm.88-1.72a.53.53,0,0,0-.14-.34c-.11-.1-.15-.09-.18.07s.13.61.24.53A.37.37,0,0,0,23.74,75.57Z"/><path class="d" d="M23.35,95.57c.2-.18.22-.3.22-1.26,0-2.77,0-3.71-.16-3.67s-.23.57-.31,2.24c0,.82-.11,1.69-.16,1.94-.09.46,0,1,.1,1a.86.86,0,0,0,.3-.2Zm-.8-.11s0-.49.05-1,.09-1.22.15-1.61a3.44,3.44,0,0,0,0-1c-.11-.39-.17-.18-.68,2.58-.11.61-.11.71,0,.86s.41.24.42.1Zm-.77-1.13a8.63,8.63,0,0,0,.21-.93c0-.21.13-.79.21-1.27.13-.75.14-1.15,0-1S20.94,94,20.94,94.1a3.21,3.21,0,0,0,.65.78,2.83,2.83,0,0,0,.19-.54Zm3.39-.83c.84-1,1.18-1.44,1.16-1.6a2.19,2.19,0,0,0-.33-.68,6.58,6.58,0,0,1-.44-.76c-.16-.35-.41-.41-.41-.11a6.94,6.94,0,0,0,.25,1c.3,1,.32,1.26.08,1.21s-.24-.2-.43-1.08c-.06-.26-.14-.45-.19-.42s-.08-.07-.08-.23-.08-.47-.16-.38a4.09,4.09,0,0,0,.1.83c.19,1.09.19,2.08,0,2.08s-.16-.17-.2-.53-.1-.78-.16-1.08a6.25,6.25,0,0,1-.1-.86c0-.32-.14-.53-.24-.36a39.07,39.07,0,0,0-.1,4.29,16.73,16.73,0,0,0,1.26-1.37Zm-4.32,0c.07-.2.28-.72.47-1.15.49-1.1.65-1.63.5-1.63s-.21.16-.32.36l-.35.61a11,11,0,0,0-.9,1.77.47.47,0,0,0,.36.41C20.67,93.87,20.78,93.7,20.85,93.5Zm-.74-.73a1.69,1.69,0,0,1,.27-.46.16.16,0,0,0,.07-.13,9.62,9.62,0,0,1,.79-1.42,1.34,1.34,0,0,0,.17-.42c.11-.48-.28-.37-.7.2a2.65,2.65,0,0,0-.36.58.63.63,0,0,1-.15.27c-.86,1-.91,1.17-.57,1.61.21.28.26.25.48-.22Zm-.81-.67a1.19,1.19,0,0,0,.25-.45c0-.08,0-.14.08-.14s.16-.16.26-.37a4.35,4.35,0,0,1,.39-.62c.11-.14.17-.25.12-.25s0-.12.08-.27.14-.29,0-.41-.28,0-.91.72c-.92,1-1.29,1.63-1,1.73a.71.71,0,0,1,.24.2c.17.22.25.2.52-.15Zm-.87-.86a9.22,9.22,0,0,1,.67-.9,3.25,3.25,0,0,0,.5-.74c0-.12.1-.22.16-.22s.12-.3,0-.39-.94.34-1.16.61-.22.23-.27.23A.85.85,0,0,0,18,90l-.47.43a.44.44,0,0,0-.16.54c.07.3.08.31.16.1s.1-.2.13.05.3.55.4.5A1.54,1.54,0,0,0,18.43,91.24Zm8.32.27q.41-.24-.09-.85a2.09,2.09,0,0,1-.35-.56c-.07-.26-.43-.53-.57-.44s-.05.14,0,.26a4.08,4.08,0,0,1,.45,1.26,1,1,0,0,0,.31.44,1,1,0,0,0,.22-.11Zm.73-1c0-.17,0-.34-.26-.59s-.4-.47-.5-.62-.21-.23-.29-.14-.06.18.06.33a.78.78,0,0,1,.17.4c0,.1,0,.19.1.19a.11.11,0,0,1,.1.11c0,.16.33.56.46.56S27.45,90.62,27.48,90.48Zm-9.47-1a4,4,0,0,1,.79-.66c.4-.22.57-.49.44-.72s-.13-.14-.29,0a.77.77,0,0,1-.31.14,1,1,0,0,0-.38.21,1.81,1.81,0,0,1-.52.28,3.57,3.57,0,0,0-.78.47,3.3,3.3,0,0,1-.61.4c-.12,0-.19.28-.11.44a1.52,1.52,0,0,0,.42.34l.34.21.29-.3.73-.77Zm10.13.12a2.29,2.29,0,0,0-.75-.93.54.54,0,0,1-.21-.17c-.2-.23-.34-.21-.34,0a1.09,1.09,0,0,0,.3.53c.16.18.28.34.26.37s.05.17.17.31.25.24.39.15A.39.39,0,0,0,28.14,89.64ZM16.3,89.27a6.35,6.35,0,0,0,1.13-.94s.12-.08.23-.08.19,0,.19-.11S18,88,18.19,88c.39-.08.71-.41.62-.65s-.23-.14-1.52.38a14.52,14.52,0,0,1-2.35.68c-.11,0-.12,0,0-.13a6.47,6.47,0,0,1,1.71-.77.43.43,0,0,0,.27-.1,2.71,2.71,0,0,1,.62-.29c.29-.11.53-.24.53-.29s.09-.1.2-.1.2-.07.2-.23,0-.24-1,0l-.55.1c-.4.06-1.08.22-2,.46l-.75.2c-.43.1-.55.21-.55.52s.08.39.4.61a3,3,0,0,0,.44.28,1.65,1.65,0,0,1,.33.29,4,4,0,0,0,1,.71,3.49,3.49,0,0,0,.47-.32ZM28.61,89c.07-.21-.41-.71-.69-.71s-.22.09.15.52S28.52,89.23,28.61,89Zm.66-.94c0-.12,0-.22,0-.22s-.09-.08-.09-.17-.1-.17-.28-.17a.62.62,0,0,1-.4-.13c-.07-.07-.12-.09-.12,0s-.12,0-.26-.1c-.33-.25-.59,0-.28.22a.71.71,0,0,0,.32.17.13.13,0,0,1,.13.13c0,.07.07.1.15.06s.15,0,.15.05.42.53.56.47a.42.42,0,0,0,.17-.27Zm-1.78-.11c.1-.19,0-.21-.13,0s-.08.16,0,.16A.23.23,0,0,0,27.5,87.91Zm2.32-.78c.07-.15.13-.23.13-.18s.57-.75.65-1,.11-.24.16-.24.12-.38,0-.54-.09-.13,0-.13c.27,0,1-1,.86-1.24,0-.06,0-.14.1-.18a.27.27,0,0,0,.16-.22,1.92,1.92,0,0,1,.21-.56c.26-.49.15-.73-.25-.53a9,9,0,0,1-1.48.31,10.27,10.27,0,0,0-1.48.3,1.13,1.13,0,0,1-.5.09c-.16,0-.22,0-.15.08a3.08,3.08,0,0,0,1,.18c1,.08,1.68.28,1.63.46a.13.13,0,0,1-.16.08c-.07,0-.68,0-1.36-.07-.85,0-1.25,0-1.28.08s1,.53,2,.74c.4.08.73.2.73.26s-.06.08-.14,0a.12.12,0,0,0-.18.06,5.55,5.55,0,0,1-2-.35c-.15-.06-.26-.06-.3,0s0,.11.15.11.2,0,.19.08c0,.25.05.34.44.48a1.79,1.79,0,0,0,.54.13.18.18,0,0,1,.18.09.3.3,0,0,0,.25.12.27.27,0,0,1,.24.17c.08.24-.26.21-1.09-.1a2.41,2.41,0,0,0-.78-.21c-.11.08,0,.26.18.26a.13.13,0,0,1,.14.11c0,.06.07.11.16.11s.13,0,.09.11,0,.08.09,0,.16,0,.16.05.19.16.43.21.43.16.43.26-.55.19-1.08-.09-.85-.39-.93-.25.31.6.45.51.17.05.27.19a.78.78,0,0,0,.38.29.63.63,0,0,1,.3.14c.16.17.39.06.52-.24ZM14.14,86.9c.15-.17.52-.34.61-.27a.19.19,0,0,0,.22,0,4.3,4.3,0,0,1,1.45-.37c.15,0,.72-.23.72-.33s.13-.07.3-.07c.33,0,.45-.08.36-.25s-.18-.07-.39,0a13.78,13.78,0,0,1-2.05.13,9,9,0,0,0-1.78.12,2.15,2.15,0,0,0,0,.65c.06.48.1.55.28.53a.58.58,0,0,0,.27-.08Zm4.1-1.23c0-.06-.07-.08-.15,0s-.19.15,0,.15S18.24,85.73,18.24,85.67Zm-4.07-.28a10,10,0,0,1,1-.11A15.3,15.3,0,0,0,17.94,85c.24-.14-.2-.33-.91-.39l-1.23-.12-.9-.1-.77-.12c-.44-.08-.47-.07-.5.18a4.21,4.21,0,0,0,0,.7c0,.32.07.41.18.36l.36-.12Zm4.11-1.18c0-.07,0-.12-.14-.12a.32.32,0,0,1-.25-.1.87.87,0,0,0-.43-.17,7.52,7.52,0,0,1-1.54-.51,4,4,0,0,0-.8-.23,5.73,5.73,0,0,1-.84-.22c-.64-.3-.78-.17-.67.57l.08.5h.75a3.75,3.75,0,0,1,.91.09,2,2,0,0,0,.7,0,1.41,1.41,0,0,1,.64,0,2.5,2.5,0,0,0,1.6.12Zm.05-.74s0,0-.1,0a.11.11,0,0,0-.1.12c0,.07,0,.09.1,0S18.34,83.5,18.34,83.47Zm-.43-.16s-.08-.13-.25-.28a1.39,1.39,0,0,0-.37-.28,1.09,1.09,0,0,1-.32-.22.9.9,0,0,0-.47-.22.71.71,0,0,1-.42-.22,1.89,1.89,0,0,0-.64-.36,1.76,1.76,0,0,1-.57-.29.51.51,0,0,0-.33-.14c-.11,0-.19,0-.19-.1s-.09-.13-.2-.16-.2-.12-.2-.19.07-.11.16-.07a1.06,1.06,0,0,0,.35.07.18.18,0,0,1,.19.17c0,.12.09.16.3.13s.31,0,.33.08a.28.28,0,0,0,.23.14,2,2,0,0,1,.49.17,3,3,0,0,0,.43.18,1.47,1.47,0,0,1,.38.21c.14.1.29.15.34.12s.13,0,.17.1a2.1,2.1,0,0,0,.56.46c.43.27.48.28.48.09s-.17-.31-.45-.48a1.58,1.58,0,0,1-.45-.34,1.4,1.4,0,0,0-.6-.35,1.16,1.16,0,0,1-.3-.25,7.69,7.69,0,0,0-.69-.58l-.7-.53a5.91,5.91,0,0,0-.67-.41,1.63,1.63,0,0,1-.48-.34.26.26,0,0,0-.21-.12c-.17,0-.2,1,0,1.35a.45.45,0,0,1,0,.47c-.2.35-.1,1.11.15,1.18s.16.1.13.15,0,.07.1,0,.16,0,.16.11.16.25.22.07.23-.05.56.06a2.5,2.5,0,0,0,.7.15.67.67,0,0,1,.32,0,2.16,2.16,0,0,0,.5.11,2.54,2.54,0,0,1,.7.22.92.92,0,0,0,.48.13l.18,0Zm10.68-.95c.16,0,.26,0,.26-.05a.12.12,0,0,1,.11-.12c.06,0,.08.06,0,.12s0,.1.15,0a6.93,6.93,0,0,1,1.14-.13A12.08,12.08,0,0,0,32.21,82c.16,0,.28-.25.47-.87a16,16,0,0,0,.53-2.1,2.18,2.18,0,0,1,.15-.49,3.66,3.66,0,0,0,.14-.93,3.77,3.77,0,0,1,.1-.84,3.14,3.14,0,0,0,0-1.32c-.05-.1-.13-.07-.29.09a.72.72,0,0,1-.33.22.85.85,0,0,0-.36.21,7.28,7.28,0,0,1-.79.53,5,5,0,0,0-.74.52.65.65,0,0,1-.31.2,1.39,1.39,0,0,0-.46.29,4.91,4.91,0,0,1-.67.46c-.18.1-.32.22-.32.27s-.06.1-.14.1a.44.44,0,0,0-.27.18,1.83,1.83,0,0,1-.55.38.86.86,0,0,0-.47.43c-.06.24.07.43.17.25a.67.67,0,0,1,.33-.18,1.19,1.19,0,0,0,.45-.25.69.69,0,0,1,.43-.17.41.41,0,0,0,.31-.1.38.38,0,0,1,.29-.1.38.38,0,0,0,.3-.11,3.18,3.18,0,0,1,1-.56,2.36,2.36,0,0,0,.5-.22,1.93,1.93,0,0,1,.56-.22.26.26,0,0,0,.21-.11c.07-.13.45-.15.45,0a5.28,5.28,0,0,1-1,.63c-.56.3-1.19.64-1.4.77s-.37.19-.37.15-.12,0-.28.14a5.64,5.64,0,0,1-1.41.7,1.23,1.23,0,0,0-.33.1l-.33.12c-.15,0-.25.25-.25.54s.12.32.45.08a1.37,1.37,0,0,1,.37-.2,3.21,3.21,0,0,0,.48-.2,5.1,5.1,0,0,1,1.52-.48,1.06,1.06,0,0,0,.54-.19.16.16,0,0,1,.2-.05c.08,0,.14,0,.14,0s.58-.39.69-.31.11,0,.13-.07.88-.26.88-.11-.14.14-.31.18a2.6,2.6,0,0,0-.58.23,1.31,1.31,0,0,1-.34.16,3.69,3.69,0,0,0-.59.28,3.19,3.19,0,0,1-.61.28,3.82,3.82,0,0,0-.68.34,3,3,0,0,1-.74.34,4.79,4.79,0,0,0-1.54.62c-.18.2-.06.35.14.17a.23.23,0,0,1,.25-.06,2.26,2.26,0,0,0,1.2-.28c0-.08.43-.2,1.05-.28.16,0,.65-.13,1.08-.23a1.73,1.73,0,0,1,1-.08c.19.09.1.14-.58.31-.44.11-1.22.34-1.75.52a8,8,0,0,1-1.11.33c-.28,0-.9.34-.83.46s.11.07.19,0a.46.46,0,0,1,.39,0ZM18.4,81.57c-.21-.21-.42-.36-.46-.33s-.32-.23-.61-.56a3.87,3.87,0,0,0-.61-.62c-.08,0-.32-.21-.86-.76a1.85,1.85,0,0,0-.44-.37s-.07-.1-.07-.21c0-.31.28-.39.42-.12a.42.42,0,0,0,.29.22.31.31,0,0,1,.25.16c.13.25,1,.88,1.13.8s.1,0,.1.08a.81.81,0,0,0,.25.4.83.83,0,0,1,.25.37c0,.07.07.1.15.06a.15.15,0,0,1,.21.1c.07.22.24.22.24,0a.16.16,0,0,0-.15-.17.16.16,0,0,1-.15-.17c0-.09-.14-.25-.3-.34a1.12,1.12,0,0,1-.42-.45c-.06-.15-.16-.28-.22-.28a3.7,3.7,0,0,1-.73-.67A4.42,4.42,0,0,0,16,78a1.22,1.22,0,0,1-.37-.33c-.16-.18-.33-.3-.38-.26s-.07,0,0,0-.07-.21-.23-.33-.29-.28-.29-.34-.15-.17-.33-.23-.31-.17-.3-.25,0-.11-.17,0-.24.79.05.79a.42.42,0,0,1,.26.2,4.46,4.46,0,0,0,.66.63c.54.44.62.57.39.67s-.57-.28-1.1-.85c-.16-.17-.33-.28-.38-.25a2.48,2.48,0,0,0,0,1.45,1,1,0,0,0,.35.22c.12,0,.22.13.22.18s.08.11.17.11.53.26.53.43.17.16.22,0,.09,0,.16.11a.41.41,0,0,0,.37.25c.14,0,.25.05.25.11s.07.11.15.11.15.05.15.11.09.11.19.11a.28.28,0,0,1,.25.18c0,.1.11.14.16.11s.27.08.47.27a1.47,1.47,0,0,0,.49.34.28.28,0,0,1,.2.16c.08.17.55.41.62.33s-.13-.22-.34-.43Zm-.22-5.72a1.32,1.32,0,0,1,.06-.22c.06-.15.13-.29.18-.29a1.87,1.87,0,0,0,.47-.38,1.5,1.5,0,0,1,.83-.46c.51-.09.85-.41.81-.77s-.08-.25-1.24-.26c-.67,0-1.68,0-2.25-.09a19.46,19.46,0,0,0-3.28,0c-.06,0-.06.2,0,.42a.89.89,0,0,1,0,.55,2.27,2.27,0,0,0,.06,1.5c.09.1.19.15.24.12s.11,0,.14.11a.29.29,0,0,0,.26.17c.11,0,.2.05.2.11a.12.12,0,0,0,.13.11,1.09,1.09,0,0,1,.43.31,7.16,7.16,0,0,0,.7.6,5.17,5.17,0,0,1,.64.58,3.24,3.24,0,0,0,1,.76s-.06-.21-.25-.48-.7-.89-1.16-1.4c-.74-.82-.92-1.15-.62-1.15a1.29,1.29,0,0,1,.4.34,4.8,4.8,0,0,0,.55.52c.14.1.25.23.25.28s.76.85.86.74,0-.18-.16-.33a1.18,1.18,0,0,1-.2-.39,1,1,0,0,0-.25-.37.89.89,0,0,1-.25-.47c0-.25.27-.39.43-.22a.45.45,0,0,0,.29.13c.11,0,.18.08.18.22s.06.23.13.24.27-.28.41-.51Zm10.76,2c.25-.14.59-.35.75-.46a1.23,1.23,0,0,1,.47-.22.34.34,0,0,0,.25-.15,10.77,10.77,0,0,1,2.08-1.31c1-.56,1.14-.71,1.21-1.11s0-.36-.2-.42-1,0-1,.17a.18.18,0,0,1-.16.11.58.58,0,0,0-.31.22c-.1.12-.22.22-.26.22A8,8,0,0,0,30.28,76a11.71,11.71,0,0,1-1,.82,3.25,3.25,0,0,0-.61.5c-.15.19-.31.86-.19.78l.51-.29Zm-.1-2.12c.33-.19.5-.19.5,0s.29.31.65,0c.19-.15.35-.3.35-.35s.06-.08.14-.08A1.3,1.3,0,0,0,31,75l.61-.53c.49-.41.35-.46-1.11-.43-4.11.1-4,.09-4,.28s.46.68.61.58.07,0,0,.05,0,.16.2.2.64.42.64.62.07.1.15.06.15,0,.15,0,.18.05.6-.19Z"/><path class="d" d="M26.11,73.91a7.37,7.37,0,0,0,.6-1.36c.16-.43.06-.69-.28-.69a.27.27,0,0,1-.24-.16c-.05-.16-.11-.18-.94-.48a11.75,11.75,0,0,0-2.8-.41c-1.25.13-1.8.41-1.8.91a8.56,8.56,0,0,0,.6,2.38c.19.13.51-.35.45-.69A3.3,3.3,0,0,1,21.63,72c.12-.23.12-.23.37,1,.21,1.05.4,1.14.41.19a2.89,2.89,0,0,1,.07-.74c.12-.14.27.1.28.44a3.55,3.55,0,0,0,.08.62l.07.26.27-.31.27-.31.09.28c.16.46.4.48.57,0a2.31,2.31,0,0,0,.14-.55c0-.25.11-.52.21-.52s.09.29.09.65a2.56,2.56,0,0,0,.1.81c.08.14.1.14.1,0s0-.2.09-.2.12-.11.16-.25a4.18,4.18,0,0,1,.15-.48.75.75,0,0,0,0-.17.39.39,0,0,1,.16-.22c.18-.13.33.1.19.29a2.76,2.76,0,0,0-.16.81l-.06.68.32-.1a1,1,0,0,0,.46-.3Z"/><path class="d" d="M49.73,73.74A4.77,4.77,0,0,0,51,73.15a.94.94,0,0,1,.29-.23,2.74,2.74,0,0,0,.7-.71c.17-.23.17-.25,0-.48s-.28-.23-.91-.17a14,14,0,0,0-1.46.25l-1,.21c-3.16.52-3.72.73-3.46,1.27a.5.5,0,0,1,.06.35c-.12.21.4.36,1.43.42a7.11,7.11,0,0,1,1.11.11,5,5,0,0,0,2-.44Z"/><path class="d" d="M35.64,73.59c.09.06.41-.65.41-.9s0-.2-1.2-.15c-.52,0-2.45,0-4.28,0H27.24l-.06.26a1.4,1.4,0,0,0,0,.51l.06.25,2.18,0,3.33,0h1.59a1.44,1.44,0,0,1,.59.09.47.47,0,0,0,.4,0,.47.47,0,0,1,.31,0Z"/><path class="d" d="M20.21,72.83c.13-.09.08-.86-.08-1a15.49,15.49,0,0,0-2.67-.14l-2.72,0a5.76,5.76,0,0,0-.62,0l-.47,0,0,.39c0,.22.06.39.1.39s.08.08.08.17.16.17.83.17a13.56,13.56,0,0,1,2.24.14,22.82,22.82,0,0,0,3.3-.07Z"/><path class="d" d="M28.36,71.94c.12-.21.1-.42,0-.42s-.18-.1-.25-.22a.41.41,0,0,0-.27-.22c-.08,0-.15,0-.15-.11s-.7-.48-.78-.4-.16,0-.3-.17-.29-.19-.34-.16a.19.19,0,0,1-.21,0c-.53-.46-3.49-.74-4.44-.42-.24.08-.43.12-.43.09s-.07,0-.15.08-.15.11-.15.08a8.22,8.22,0,0,0-2.11.88c-.3.3-.23.37.33.37a4,4,0,0,0,1.63-.43,2.58,2.58,0,0,1,.55-.16c.55-.1.61-.13.71-.3s.09-.1.09,0,.74.15.86,0a.13.13,0,0,1,.17,0,1.81,1.81,0,0,0,.56.09,5.62,5.62,0,0,1,1.07.21c.33.1.78.21,1,.25.49.09,1,.37,1.12.57s.09.13.13.1.17.09.29.27.27.31.63.28a.78.78,0,0,0,.49-.18Z"/><path class="d" d="M35.07,72c.34-.33.26-.7-.53-2.56-.22-.51-.39-1-.39-1A25.46,25.46,0,0,0,31,65a1,1,0,0,0-.35-.17,1.83,1.83,0,0,1-.4-.3,8.18,8.18,0,0,0-1.94-1.13,8.2,8.2,0,0,1-.92-.31,14.06,14.06,0,0,0-2.53-.7,6,6,0,0,1-.7-.15,12.58,12.58,0,0,0-4.9.22l-.85.16a4.39,4.39,0,0,0-1.15.4,5.63,5.63,0,0,1-.88.34,2.15,2.15,0,0,0-.84.41c0,.08-.09.15-.14.15a5.15,5.15,0,0,0-1.69,1,1.59,1.59,0,0,0-.08.65c0,.33.08.42.26.45s.23,0,.23-.07.18-.17.4-.25.4-.18.4-.23.2-.14.45-.21a.91.91,0,0,0,.51-.28.19.19,0,0,1,.24-.1.58.58,0,0,0,.42-.12,6.32,6.32,0,0,1,1.09-.47,10.06,10.06,0,0,0,1-.37,1.06,1.06,0,0,1,.35-.1,3.83,3.83,0,0,0,.55-.13,9.94,9.94,0,0,1,3.15-.3,5.61,5.61,0,0,1,1.88.22.82.82,0,0,0,.39.06,4.66,4.66,0,0,1,1.23.19l.2.06.39.16a.71.71,0,0,0,.42.1s.11,0,.15.06a.3.3,0,0,0,.24.11.44.44,0,0,1,.31.17c.07.09.16.14.2.11s.13,0,.2.12.18.15.25.12.19,0,.26.12a1.44,1.44,0,0,0,.46.33c.18.08.32.21.32.27s0,.09.08.06.17.05.28.19a7.22,7.22,0,0,0,.63.64c.38.34,1.15,1.11,1.71,1.71a.68.68,0,0,1,.18.37c0,.09,0,.17.1.17s.17.16.25.37.14.32.15.26a4.11,4.11,0,0,1,.7,1.2,8.55,8.55,0,0,0,.61,1.5c.12.17.61.14.81-.05Z"/><path class="d" d="M45.35,71.42a14.52,14.52,0,0,1-.14-1.76c-.06-1.53-.14-2.09-.34-2.16s-.1.55.08,1.79c.06.42.12,1,.14,1.4.05,1.35,0,1.31.2,1.16s.12-.22.06-.43Z"/><path class="d" d="M46.14,71.71s0-.33-.11-.7-.12-1-.14-1.29c0-.51-.1-1.11-.21-1.85,0-.06,0-.2,0-.31s-.05-.2-.1-.2-.08.77.08,2.7c.06.71.11,1.38.11,1.49a.18.18,0,0,0,.2.2c.11,0,.2,0,.2,0Z"/><path class="d" d="M46.81,71.26c-.06-.55-.25-1.77-.36-2.27a1.44,1.44,0,0,1,0-.53c.08-.15-.16-1-.27-.93a.23.23,0,0,0,0,.26,2.82,2.82,0,0,1,.1.63c0,.25,0,.68.07,1s.08.9.12,1.38c.07.75.1.87.26.87s.18-.07.15-.37Z"/><path class="d" d="M47.61,71.45a.25.25,0,0,0,0-.25.4.4,0,0,1-.1-.24c0-.16-.12-.67-.37-1.74-.16-.69-.21-.12-.08,1S47.44,72,47.61,71.45Z"/><path class="d" d="M48.1,70.76c-.11-.12-.15,0-.08.31l.07.28,0-.26A.59.59,0,0,0,48.1,70.76Z"/><path class="d" d="M48.81,70.68a5.34,5.34,0,0,0-.15-.87c0-.14-.14-.48-.21-.76a5.19,5.19,0,0,0-.21-.7,1.37,1.37,0,0,1-.09-.48c0-.16,0-.28-.11-.28s-.08.12-.05.31.08.51.1.76a9.11,9.11,0,0,0,.5,2.22c.06,0,.07.08,0,.08s.12.34.21.34a1.85,1.85,0,0,0,0-.61Z"/><path class="d" d="M49.7,71s0-.12.05-.2.07-.16,0-.21a.5.5,0,0,1-.1-.35c0-.15-.05-.27-.11-.27s-.09-.1-.06-.22,0-.22,0-.22-.14-.21-.2-.48a6.16,6.16,0,0,0-.42-1.37.76.76,0,0,1-.08-.37c0-.14,0-.26-.1-.26a.11.11,0,0,0-.1.11,20.41,20.41,0,0,0,.4,2.19,13,13,0,0,1,.37,1.53c0,.23.1.28.25.24s.17-.08.14-.12Z"/><path class="d" d="M50.49,70.86a1,1,0,0,0-.09-.53,1.64,1.64,0,0,1-.15-.52,1.15,1.15,0,0,0-.09-.39,4.64,4.64,0,0,1-.36-1.13c0-.21-.12-.35-.18-.33s-.16.53,0,.73.06.14,0,.14A6.46,6.46,0,0,0,50,70.28a1.9,1.9,0,0,1,.07.28c0,.22.18.51.26.51s.11-.09.14-.21Z"/><path class="d" d="M51.3,70.59a4.52,4.52,0,0,1,0-.5.77.77,0,0,0-.16-.42,2.86,2.86,0,0,1-.41-1.24.65.65,0,0,0-.14-.37c-.05,0-.09-.16-.09-.3a.49.49,0,0,0-.09-.33A.84.84,0,0,1,50.2,67c0-.21-.11-.31-.2-.27s-.11.17,0,.52a2.26,2.26,0,0,0,.18.58,2.29,2.29,0,0,1,.16.65c0,.29.11.53.15.53s.11.18.14.4c.11.64.43,1.4.6,1.4S51.33,70.76,51.3,70.59Z"/><path class="d" d="M52.35,70.5a.46.46,0,0,0-.15-.22c-.08-.08-.12-.19-.09-.24a.3.3,0,0,0-.06-.27c-.07-.09-.08-.17,0-.17s0-.05-.09-.12a.4.4,0,0,1-.18-.29,2.53,2.53,0,0,0-.42-.94.29.29,0,0,1-.08-.17,4.19,4.19,0,0,0-.52-1.52c-.11,0,0,.47.09.55a.48.48,0,0,1,.11.36,10.47,10.47,0,0,0,.55,2.36,1.91,1.91,0,0,1,.16.49.34.34,0,0,0,.46.31c.13,0,.24-.09.24-.14Z"/><path class="d" d="M47.95,70.06c-.06-.26-.13-.6-.16-.77-.13-.9-.21-1.19-.27-1.08a7.74,7.74,0,0,0,.31,2.11C48,70.79,48.08,70.61,47.95,70.06Z"/><path class="d" d="M53,70.39a9.6,9.6,0,0,0-.86-2.31,10.08,10.08,0,0,1-.43-1.18c0-.15-.13-.3-.22-.32s-.15,0-.09.35a2.51,2.51,0,0,0,.16.54.74.74,0,0,1,.09.28c0,.07.23.74.5,1.49.37,1,.55,1.36.68,1.36s.18-.09.18-.22Z"/><path class="d" d="M53.88,69.85c0-.13-.13-.25-.22-.25s-.14,0,0-.11.12-.11,0-.11-.17-.09-.17-.21a.55.55,0,0,0-.15-.35.48.48,0,0,1-.15-.29c0-.09,0-.15-.08-.15s-.14-.21-.22-.48a3.1,3.1,0,0,0-.25-.65,3,3,0,0,1-.23-.48c-.14-.38-.37-.42-.27-.06a.69.69,0,0,0,.21.34.45.45,0,0,1,.14.34,1.06,1.06,0,0,0,.14.47,2.23,2.23,0,0,1,.21.61,1.41,1.41,0,0,0,.14.45,4.23,4.23,0,0,1,.31.65c.26.63.5.89.62.65A.7.7,0,0,0,53.88,69.85Z"/><path class="d" d="M54.67,70a.42.42,0,0,0-.07-.37,6.87,6.87,0,0,1-.59-1.2c-.8-1.9-.92-2.13-1.09-2.17s-.24.09.49,1.84a3.52,3.52,0,0,1,.24.72,1.49,1.49,0,0,0,.25.52,1.44,1.44,0,0,1,.25.54c0,.1,0,.18.11.18s.08,0,0,.1.14.24.26.16a.72.72,0,0,0,.11-.32Z"/><path class="d" d="M55.74,69.87c.07-.07-.23-.65-.42-.81a.47.47,0,0,1-.17-.26.88.88,0,0,0-.2-.35.87.87,0,0,1-.2-.44c0-.11,0-.2-.1-.2s-.16-.18-.24-.39a2.65,2.65,0,0,0-.35-.64.89.89,0,0,1-.21-.45.36.36,0,0,0-.1-.27c-.05,0-.1,0-.1,0a1.37,1.37,0,0,1-.07.25c0,.13,0,.17,0,.11s.12,0,.12.2a.78.78,0,0,0,.13.43.52.52,0,0,1,.13.26,3.79,3.79,0,0,0,.24.67l.35.84a6.75,6.75,0,0,0,.39.76c.23.4.33.47.5.41a1.08,1.08,0,0,0,.26-.12Z"/><path class="d" d="M56.48,69.64a.16.16,0,0,1-.06-.21c0-.09,0-.16,0-.16s-.13-.1-.17-.22-.13-.22-.22-.22-.13-.06-.1-.17a.23.23,0,0,0-.07-.25,3.56,3.56,0,0,1-.46-.85,2.6,2.6,0,0,0-.42-.76s-.09-.1-.09-.22a.66.66,0,0,0-.15-.38c-.08-.09-.12-.19-.08-.23s0-.07-.15-.07-.2,0-.13.31a9.13,9.13,0,0,0,1,2,.44.44,0,0,1,.15.29c0,.23,1,1.39,1.07,1.28a.09.09,0,0,0,0-.14Z"/><path class="d" d="M26.34,69.22a1.12,1.12,0,0,1,.36-.41c.13-.08.24-.18.24-.22a16.3,16.3,0,0,1,1.36-1.81,1.66,1.66,0,0,0,.34-.53.12.12,0,0,1,.1-.13c.17,0,.11-.4-.09-.6a.34.34,0,0,0-.37-.11c-.2.09-.44.31-.44.42a.84.84,0,0,1-.18.27c-.1.11-.33.42-.52.68l-.45.61c-1,1.4-1.21,1.77-.89,2s.38.13.54-.21Z"/><path class="d" d="M57.35,69.35a1.5,1.5,0,0,0-.24-.51,4.21,4.21,0,0,1-.36-.7c-.07-.18-.17-.33-.23-.33s-.21-.24-.34-.53a9.25,9.25,0,0,0-.86-1.54c-.14-.21-.15-.21-.22,0A7.09,7.09,0,0,0,56,68c.08.06.07.11,0,.15s-.06.1.1.19a1.62,1.62,0,0,1,.46.63c.12.28.22.45.23.4s.06,0,.12,0,.48.17.48,0Z"/><path class="d" d="M58.43,69.21a1.73,1.73,0,0,0-.44-.89.25.25,0,0,1-.14-.21,1.55,1.55,0,0,0-.38-.56,1.48,1.48,0,0,1-.38-.58,2.85,2.85,0,0,0-.8-1.19c-.06,0-.14-.08-.17-.18s-.26-.11-.26.13a.62.62,0,0,0,.15.34c.08.09.13.22.09.27s0,.1.05.1.14.09.18.2a9.82,9.82,0,0,0,.52,1l.91,1.52c.11.19.21.23.4.18a1.09,1.09,0,0,0,.28-.11Z"/><path class="d" d="M21.41,68.79a9.57,9.57,0,0,0-.69-2.34.65.65,0,0,1-.1-.36c0-.16,0-.3-.07-.3a2.83,2.83,0,0,1-.28-.71c-.27-.87-.47-1-1-.81-.2.09-.36.2-.36.24a2.59,2.59,0,0,0,.31.94s.11.16.14.35a2.77,2.77,0,0,0,.3.74,4,4,0,0,1,.35.8,8.41,8.41,0,0,0,.52,1.17c.32.6.45.76.64.76s.24,0,.2-.48Z"/><path class="d" d="M59.14,68.85c0-.2-.69-.92-.69-.73a1.34,1.34,0,0,0,.25.43,1.48,1.48,0,0,1,.25.41A.09.09,0,0,0,59,69C59.1,69,59.14,69,59.14,68.85Z"/><path class="d" d="M46.9,67.73c0-.17-.09-.33-.16-.35s-.11,0-.07.22a2.64,2.64,0,0,1,.07.35.09.09,0,0,0,.09.08C46.89,68,46.92,67.9,46.9,67.73Z"/><path class="d" d="M49.54,67.26c-.07-.25-.16-.46-.21-.46s-.1.84,0,1S49.67,67.75,49.54,67.26Z"/><path class="d" d="M47.47,67.25c-.08-.11-.21.26-.15.44s.08.11.12-.1A.74.74,0,0,0,47.47,67.25Z"/><path class="d" d="M46.14,66.73a6.61,6.61,0,0,0,1-.11,4.08,4.08,0,0,1,.7-.11A11.51,11.51,0,0,0,49,66.3c.36-.08.65-.1.68,0s.12,0,.19,0a1.35,1.35,0,0,1,.67-.13,1.44,1.44,0,0,0,.65-.11.28.28,0,0,1,.27,0,.23.23,0,0,0,.25-.08.36.36,0,0,1,.34-.1,1.51,1.51,0,0,0,.62-.08,6.14,6.14,0,0,1,.74-.19,1.23,1.23,0,0,0,.45-.15,1.27,1.27,0,0,1,.45-.16c.76-.14.95-.24,1-.51a.58.58,0,0,0-.64-.63l-.52.13-.9.16-1.53.28-1.25.24a2.15,2.15,0,0,0-.52.15,5.31,5.31,0,0,1-1.09.16,7.12,7.12,0,0,0-1,.12,3.13,3.13,0,0,1-.61.11,6.64,6.64,0,0,0-.88.17,1,1,0,0,1-.4.06,2.52,2.52,0,0,0-.66.1c-.45.1-.6.18-.59.32,0,.94,0,.89.31.81a8.31,8.31,0,0,1,1.13-.13Z"/><path class="d" d="M46.2,65.06c1.52-.1,2.15-.2,2.15-.33s.2-.13.48-.14c.84,0,1.45-.17,1.33-.3s-.11-.34.08-.15.72.26.72.1.16-.09.35-.09a.77.77,0,0,0,.44-.11,6,6,0,0,0-.53-2,7.38,7.38,0,0,1-.56-1.53.86.86,0,0,0-.15-.37.93.93,0,0,1-.15-.41.79.79,0,0,0-.19-.41C50,59.16,50,59,50,59s-.18-.41-.28-.34,0,.16,0,.29.09.25.06.28a5.68,5.68,0,0,0,.3,1.14c.2.6.38,1.22.4,1.39s.09.31.14.31.07,0,0,.1a.14.14,0,0,0,.05.18.21.21,0,0,1,.05.23c0,.09,0,.16,0,.16a.11.11,0,0,1,.1.11c0,.07-.07.07-.18,0a2.8,2.8,0,0,1-.62-1.19,2.15,2.15,0,0,0-.2-.56,10.54,10.54,0,0,1-.45-1.32c-.29-1.06-.4-1.28-.54-1.12a2.92,2.92,0,0,0,.26,1.4,1.29,1.29,0,0,1,.08.34A20.34,20.34,0,0,0,50,63.2c.08.07.19.67.12.67s-.42-.39-.42-.56a.58.58,0,0,0-.08-.29,2.79,2.79,0,0,1-.21-.56c-.07-.25-.19-.6-.26-.79s-.18-.56-.25-.84l-.28-1.12L48.48,59a.17.17,0,0,0-.15-.14c-.08,0-.09.12,0,.37.13.7.36,2.05.45,2.73A8.85,8.85,0,0,0,49,63.08c.19.6.19.57,0,.57s-.15-.07-.11-.22,0-.22,0-.22a5.9,5.9,0,0,1-.61-2.08,12.78,12.78,0,0,0-.31-1.29,2.65,2.65,0,0,1-.14-.56,2,2,0,0,0-.16-.56c-.09-.15-.11-.15-.19,0a.29.29,0,0,0,0,.28,1.93,1.93,0,0,1,.14.57c.06.45.22,1.45.31,2l.11.62c0,.19.17.71.3,1.17.24.81.25,1.07,0,.83A25.09,25.09,0,0,1,47,59.19a.75.75,0,0,0-.21-.43l-.21-.21.06.39c.06.44.2,1.14.43,2.26a15.14,15.14,0,0,1,.3,2.06c.08.79-.07.79-.27,0-.07-.3-.14-.56-.14-.59-.13-.84-.71-3.43-.85-3.81-.07-.19-.13-.23-.21-.15s-.08.28,0,.66.2,1.12.3,1.84.24,1.49.3,1.74c.13.54.14,1.38,0,1.23a7.07,7.07,0,0,1-.45-1.29A5.14,5.14,0,0,0,46,62.3a8.35,8.35,0,0,1-.19-1,7.29,7.29,0,0,0-.48-2.19s-.06.1,0,.22a7,7,0,0,1,.11.93,7.07,7.07,0,0,0,.11.92c.06.22.19,1.06.33,2.1a2.73,2.73,0,0,1,0,.84c-.07.21-.08.2-.19-.09a2,2,0,0,1-.11-.49,5.11,5.11,0,0,0-.15-.75,9,9,0,0,1-.19-1c0-.25-.1-.73-.17-1.07a4,4,0,0,1-.1-.76c0-.08,0-.14-.09-.14s-.1.22-.05.81a15.29,15.29,0,0,1,.08,3.4,17.92,17.92,0,0,1-.46-3.15c-.12-1.54-.32-2.39-.51-2.17a57.23,57.23,0,0,0,.67,5.91c.11.58.12.59.42.54s.71-.08,1.21-.11Z"/><path class="d" d="M53,63.76c.13-.08.19-.08.19,0s.37.15.46,0,.1-.08.17,0,.68-.05.68-.22,0-.08-.09,0-.09,0-.08-.13a3.07,3.07,0,0,0-.72-1.27s-.15-.16-.24-.37a4.41,4.41,0,0,0-.56-.85,2,2,0,0,1-.41-.65.16.16,0,0,0-.15-.16c-.08,0-.15-.1-.15-.22s-.17-.42-.25-.32.1.65.2.62.15.2.21.48a5.4,5.4,0,0,0,.33,1c.12.25.29.65.39.9l.21.53s0,.08-.12.08-.22-.14-.28-.31a2,2,0,0,0-.25-.46.36.36,0,0,1-.08-.3.16.16,0,0,0-.08-.2.64.64,0,0,1-.2-.4.91.91,0,0,0-.15-.4,10,10,0,0,1-.61-1.24c-.44-1-.56-1.18-.75-1.18h-.23l.34,1A7.76,7.76,0,0,1,51,60.75a.35.35,0,0,0,.1.26.38.38,0,0,1,.1.27.54.54,0,0,0,.15.34,1.19,1.19,0,0,1,.21.55,5.12,5.12,0,0,0,.24.86c.1.25.2.54.23.65s.56.27.87.08Z"/><path class="d" d="M49.12,58.1,50.61,58c.27,0,.31,0,.29-.26-.05-.47-.16-.61-.4-.58a1,1,0,0,0-.34.1.11.11,0,0,1-.16,0,2.16,2.16,0,0,0-.88-.11c-.45,0-1.72,0-2.82-.06a23.1,23.1,0,0,0-2.32,0c-.38.08-.48.3-.31.7l.13.3h1.93a15.63,15.63,0,0,1,2,.08.11.11,0,0,0,.14,0,8.22,8.22,0,0,1,1.26-.1Z"/><path class="d" d="M60.57,57.56a1.3,1.3,0,0,0,.27-.21,7.8,7.8,0,0,1,1.48-.63.43.43,0,0,0,.29-.21.22.22,0,0,1,.18-.15c.21,0,.45-.38.36-.56s-.13-.12-.36,0a2.33,2.33,0,0,1-.55.29,5.77,5.77,0,0,0-1.83,1.29c-.19.32-.16.35.16.14Z"/><path class="d" d="M57.08,57.25c.09-.11,0-.12-.33-.06-.73.13-.93.29-.32.24A1.3,1.3,0,0,0,57.08,57.25Z"/><path class="d" d="M56.7,56.81a1,1,0,0,1,.45-.16,2.81,2.81,0,0,0,1.15-.43c.12-.13-.79,0-1.15.17l-.75.31-.5.19h.35a.74.74,0,0,0,.45-.1Z"/><path class="d" d="M47.82,56.71a5.18,5.18,0,0,0,2.33-.17c.19-.11.23-.21.21-.47a1,1,0,0,0-.12-.44.66.66,0,0,1-.09-.36.48.48,0,0,0-.07-.3s-1.29-.09-2.78-.14c-2.56-.08-3.13-.09-3.86-.06h-.31l.06.62a2.52,2.52,0,0,0,.25.91c.18.27.24.29.93.28a12.57,12.57,0,0,1,2.24.08,1.65,1.65,0,0,0,.7,0,.88.88,0,0,1,.52,0Z"/><path class="d" d="M60.78,56.38a3.86,3.86,0,0,0,.56-.38.59.59,0,0,1,.3-.11A.78.78,0,0,0,62,55.7c.07-.08.17-.11.23-.08s.09,0,.09-.06.14-.18.3-.24a1,1,0,0,0,.45-.44c.23-.5,0-.53-.83-.11a6.36,6.36,0,0,0-1.4.87.46.46,0,0,1-.27.14c-.18,0-.58.64-.5.79s.11.15.69-.19Z"/><path class="d" d="M59.25,56.34c0-.15-.16-.12-.29.06s-.08.15.09.1S59.25,56.39,59.25,56.34Z"/><path class="d" d="M56.46,56.1a.19.19,0,0,0-.32.14c0,.05.09.07.21,0S56.52,56.17,56.46,56.1Z"/><path class="d" d="M57.65,55.79c0-.06-.07-.11-.15-.11s-.15.05-.15.11.07.11.15.11S57.65,55.85,57.65,55.79Z"/><path class="d" d="M56.45,55.56c0-.06.08-.11.18-.11a.4.4,0,0,0,.26-.08.3.3,0,0,1,.19-.08,2.84,2.84,0,0,0,1.27-.58c0-.19-.17-.29-.25-.15a.11.11,0,0,1-.16.05c-.05,0-.09,0-.09.05a.13.13,0,0,1-.14.12.19.19,0,0,0-.17.11c0,.06-.19.13-.38.15a2.26,2.26,0,0,0-.53.13.46.46,0,0,1-.33,0c-.2-.09-.32.26-.14.39s.29.13.29,0Z"/><path class="d" d="M58.35,55.45c.2-.17.21-.22.08-.22s-.68.23-.68.35S58.09,55.68,58.35,55.45Z"/><path class="d" d="M59.95,55.54q0-.14.1,0c.07.11.1.12.1,0s.24-.27.53-.43c1.9-1,2.48-1.51,2.48-2,0-.16,0-.28-.11-.28a1.34,1.34,0,0,0-.69.45,1.55,1.55,0,0,1-.5.33,5,5,0,0,0-1.9,1.22c-.32.44-.39.81-.15.81a.15.15,0,0,0,.15-.14Z"/><path class="d" d="M56.75,54.67s.08-.08.18-.08c.49,0,.71-.06.9-.26s.23-.19.26-.15.65-.46.85-.77c.09-.15.1-.21,0-.21s-.14.11-.17.23-.08.19-.12.11-.19-.07-.5,0c-.54.21-.71.22-.71,0a.25.25,0,0,0-.12-.22c-.07,0,0-.06.2-.07s.33-.06.33-.12.07-.11.15-.11a.16.16,0,0,0,.15-.18c0-.1,0-.15.1-.11s.8-.25.8-.48.48-.58.58-.39.19.1.5,0a1.09,1.09,0,0,1,.52,0c.05,0,.19,0,.32-.08a.72.72,0,0,1,.41-.11c.1,0,.16,0,.13-.07s.08-.17.68-.43c.32-.14-.07-.2-.48-.07s-.74-.1-.83-.63-.13-.44-1.13-.52a6.56,6.56,0,0,0-2.55.42l-.49.14-.17.8c-.09.44-.2,1-.23,1.29s-.1.76-.15,1.1a4,4,0,0,0,0,.92c0,.28.07.29.34.19s.29-.15.29-.2Z"/><path class="d" d="M49.51,54.2c.11-.1.15-.11.1,0s0,.14.06.14.19-.23.12-.63c0-.17-.16-.27-.44-.35s-.4-.08-.4,0a21.9,21.9,0,0,1-3.55,0c-2.86-.17-2.88-.16-2.61.57l.14.38h.78c.76,0,3,.11,3,.15s.61,0,1.32,0c1,0,1.35-.05,1.48-.17Z"/><path class="d" d="M60.3,53.87c.06-.06.14-.07.18,0s.16,0,.27-.19.23-.23.27-.19.21-.05.39-.21a1.75,1.75,0,0,1,.39-.28.42.42,0,0,0,.18-.11c.57-.53.76-.68.86-.68s.11-.08.11-.17,0-.17.1-.17a.11.11,0,0,0,.1-.12c0-.15-.49,0-.88.19a1.15,1.15,0,0,1-.39.16.74.74,0,0,0-.3.11l-.5.25c-.18.08-.33.19-.33.23s-.07.08-.15.08a3.2,3.2,0,0,0-1.29,1.11c-.22.49-.1.59.42.34a3.59,3.59,0,0,0,.58-.33Z"/><path class="d" d="M47.35,52.7c.13.09.12,0-.06-1.29-.08-.59-.18-1.29-.21-1.57s-.1-.73-.15-1c-.09-.47-.28-2-.34-2.75,0-.19,0-.37,0-.41s-.72-.2-1-.1l-.23.1.22,1.47c.12.81.25,2,.28,2.6A9.44,9.44,0,0,0,46,50.95a3.05,3.05,0,0,1,.1.62c.09,1,.49,1.44,1,1.17a.31.31,0,0,1,.28,0Z"/><path class="d" d="M48.69,52.77c0-.06.19-.08.36,0,.55.1.6-.07.57-2.06,0-1,0-2.18,0-2.68a18.36,18.36,0,0,1,.24-2.32s0-.11-.13-.14a11.94,11.94,0,0,0-2.36,0l-.38.07,0,.58c0,.32.1.86.16,1.2.1.57.32,2.48.46,3.93.11,1.13.32,1.56.77,1.57a.27.27,0,0,0,.23-.1Z"/><path class="d" d="M45.56,52.65c.22,0,.27-.3.17-1,0-.34-.13-1-.18-1.4s-.11-.91-.14-1.07-.08-.53-.11-.82-.09-.65-.11-.79-.07-.62-.1-1.09S45,45.62,45,45.6a13,13,0,0,0-1.39,0c-.27,0-.27,0-.23.71s.29,2.66.56,4.36c.1.65.19,1.28.19,1.38a1.12,1.12,0,0,0,.15.45c.13.22.22.25.63.23l.64,0Z"/><path class="d" d="M43.7,52.42a16.41,16.41,0,0,0-.4-3.49,4.89,4.89,0,0,1-.11-.86A7.78,7.78,0,0,0,43,46.8a5.91,5.91,0,0,1-.17-.84c0-.31-.06-.34-.47-.37l-.44,0,.08.65a8.25,8.25,0,0,1,.06.92.94.94,0,0,0,.06.39,1,1,0,0,1,.09.3c0,.09.07.45.12.79s.13.9.16,1.24a7.21,7.21,0,0,0,.15,1,6.06,6.06,0,0,1,.14.87c.05.6.18.83.5.9l.29.06s.1-.09.13-.21Z"/><path class="d" d="M42.2,50.43c0-.48-.13-1.25-.22-1.71a22.94,22.94,0,0,0-.53-2.53.85.85,0,0,1-.06-.34c0-.19-.08-.23-.53-.26-.66,0-.73.11-.4.84.22.48.49,1.19.8,2.06.05.15.13.36.18.45a6.39,6.39,0,0,1,.21.82,2.42,2.42,0,0,0,.21.7s.05.13,0,.22,0,.16,0,.16.12.1.15.22c.12.51.19.17.13-.65Z"/><path class="d" d="M63.15,50.52A.13.13,0,0,0,63,50.4c-.16,0-.29.3-.2.46S63.15,50.7,63.15,50.52Z"/><path class="d" d="M62.12,50.47c.1-.11-.5-.08-.67,0s0,.1.23.07A1.09,1.09,0,0,0,62.12,50.47Z"/><path class="d" d="M57.68,49.72a.7.7,0,0,0,.44-.13c.09-.1.12-.1.12,0s.07.1.24,0a6.28,6.28,0,0,1,2.38,0,5,5,0,0,0,2,0c.21,0,.33-.12.33-.25a20.24,20.24,0,0,0,0-3c-.12-.22-.84-.33-1.85-.29l-1.81.06a11.11,11.11,0,0,0-1.29.09c-.37.07-.4.1-.62.8a5.24,5.24,0,0,0-.23,1,.57.57,0,0,1-.1.37.61.61,0,0,0-.1.39.61.61,0,0,1-.1.39c-.17.12-.12.6.08.64s.19,0,.21,0,.18-.09.35-.09Z"/><path class="d" d="M14.54,47.86a3.1,3.1,0,0,0,.75-.47A44.16,44.16,0,0,1,23.67,42c.17-.08.36-.19.39-.38a.59.59,0,0,0-.22-.46L22.4,39.67a.82.82,0,0,1-.29-.55c0-.42.57-.53,1-.52l12.5.23c.14-.37-.37-.68-.76-.62a9.68,9.68,0,0,1-1.13.34,1.68,1.68,0,0,1-.82-.24,6.4,6.4,0,0,1-3.34-6.25c.08-.68.54-1.53,1.2-1.35L30.85,27a1.56,1.56,0,0,1-1.69-2.61,22.41,22.41,0,0,1-2.38-3.53,5.94,5.94,0,0,1,2.51-.67,2,2,0,0,1,2,1.42,1.2,1.2,0,1,1,.56,2,2.79,2.79,0,0,0,3.32-.12A1.22,1.22,0,0,1,34,22.12a2.35,2.35,0,0,1,.68-1.1l2-2.19Q25.35,18.38,14,18.32c-.16,0-.23,19.62-.23,21.4s0,3.52,0,5.27C13.86,46.4,13.45,48.29,14.54,47.86Z"/><path class="d" d="M59.85,45.56a.19.19,0,0,1,.2-.08c.23.06.33-.85.21-2-.06-.57-.11-1.47-.11-2a3.32,3.32,0,0,0-.07-1,1.59,1.59,0,0,0-.53.72,5.81,5.81,0,0,1-.35.9,4.66,4.66,0,0,0-.35,1,.52.52,0,0,1-.15.33.52.52,0,0,0-.15.32,3,3,0,0,1-.25.74c-.32.71-.33,1.16,0,1.21a3.73,3.73,0,0,0,1.58-.14Z"/><path class="d" d="M57.16,45.58c.23,0,.31-.44.1-.51a30.38,30.38,0,0,0-3.46-.23c-.83,0-1.79-.11-2.15-.16a2.91,2.91,0,0,0-.78,0,.39.39,0,0,0,0,.52,14.53,14.53,0,0,0,2.37.23,1.58,1.58,0,0,1,.66.09s.19,0,.36,0,.35-.06.39,0a.71.71,0,0,0,.34.13c.22,0,1.77,0,2.21,0ZM31.54,47.29a6.86,6.86,0,0,1,2-.14A6.89,6.89,0,0,0,34.81,47a5.82,5.82,0,0,1,1.1-.16,17.51,17.51,0,0,0,2.23-.22,4.86,4.86,0,0,1,1.23-.21c.24,0,.27,0,.27-.31s0-.33-.34-.39a2.59,2.59,0,0,0-.88,0A15.44,15.44,0,0,1,36.6,46a5.83,5.83,0,0,0-1.41.17c-.06.06-.15.07-.19,0s-.11,0-.16.09-.09.13-.09,0,0-.12-.08-.1a8.58,8.58,0,0,1-1.17.12c-.6,0-1.19.09-1.3.12s-.72.08-1.35.11c-1.35.08-1.69.12-1.76.2s.09.21.27.4.34.34,1.18.29a5.49,5.49,0,0,0,1-.12Zm24.4,3.43c0-.18-.06-.33-.12-.34l-.38,0c-.14,0-1.36-.07-2.73-.11-2.39-.08-2.47-.08-2.47.13a1.63,1.63,0,0,0,.09.44c.09.22.09.22.1,0s0-.2.13,0a.84.84,0,0,0,.57.2,2.91,2.91,0,0,1,.47,0s1,0,2.18,0l2.16,0v-.33ZM35.79,53.5a6,6,0,0,1,1-.16c.23,0,2.8-.21,2.8-.26l.9,0a2.63,2.63,0,0,0,1.15-.19l.28-.18a.84.84,0,0,0-.09-.31c-.11-.28-.15-.29-.68-.24l-1.36.1a13.55,13.55,0,0,0-2.25.26,2.21,2.21,0,0,1-.5.09l-1.1.12-1,.12-.28,0-.75,0a2,2,0,0,0-.83.13.56.56,0,0,0,.1.66,8.11,8.11,0,0,0,2.61-.18ZM55,57.16c0-.14,0-.25,0-.25l-.32,0c-.14,0-.9-.07-1.7-.12a12.47,12.47,0,0,1-1.53-.14s-.07.06,0,.21.08.26.13.25a.49.49,0,0,1,.26.08.21.21,0,0,0,.28,0c.09-.1.14-.1.21,0s.39.17,1.27.2a8,8,0,0,1,1.23.1c.1.11.24,0,.27-.27ZM37.89,59.87a2.13,2.13,0,0,0,1-.19c.06-.1.1-.09.18,0s.13.13.18.06a2.52,2.52,0,0,1,1-.11A12.48,12.48,0,0,0,43,59.32c.14,0,.22-.15.2-.26s-.21-.19-1.13-.2A19.66,19.66,0,0,0,40,59l-2.35.22-1.55.15-.43.05c-.25,0-.3.26-.1.53s.27.15.78.1l1.55-.12Zm-.55,7.25c0,.07,0,.1.1.06a9.34,9.34,0,0,1,1.48-.12c.75,0,1.56-.07,1.8-.09s.42,0,.42.07,0,.08.13,0,1.27-.24,1.28-.09,0,.06.08,0a1.16,1.16,0,0,1,.66-.2c.7-.06.89-.2.74-.52s-.17-.22-1.47-.15c-.75,0-1.84.12-2.42.18s-1.47.13-2,.16a5,5,0,0,0-1,.12.66.66,0,0,0-.1.41c0,.29,0,.32.15.2s.15-.11.15,0Zm2.3,7.82c.52,0,1.29-.12,1.7-.18s1.1-.14,1.53-.18.78-.12.78-.18,0-.07.13,0a.52.52,0,0,0,.4.06c.21,0,.28-.12.28-.32s0-.26-1-.21c-1.5.08-4.91.37-5.7.48-.07,0-.13.15-.13.31s0,.29.34.26a.73.73,0,0,1,.41,0,.18.18,0,0,0,.18,0c.06,0,.54-.07,1.07-.11Zm-.85,7.51a2,2,0,0,0,.73-.19c.07-.06.13-.07.13,0s.26.07.63,0,1.15-.11,1.8-.13a3.05,3.05,0,0,0,1.34-.2q.17-.16.1,0c0,.08,0,.14,0,.14a.12.12,0,0,0,.11-.13c0-.09,0-.09.14,0s.16.1.21,0,.1-.09.15-.06.2-.2.2-.46c0-.12-.06-.15-.2-.1s-.2,0-.2,0-.24-.07-.58,0c-.64.09-2,.19-3.93.27a6.93,6.93,0,0,0-2.31.26,2.33,2.33,0,0,0,0,.71A5,5,0,0,0,38.79,82.46Zm17.68.36a1.78,1.78,0,0,0,.68-.08s.21-.06.46,0a.86.86,0,0,0,.51-.08c0-.05.11-.05.17,0a1.53,1.53,0,0,0,.72,0,4.43,4.43,0,0,1,1,0,1.11,1.11,0,0,0,.64-.1,3.78,3.78,0,0,1,1.4-.17H63.1l0-.31c0-.18,0-.33-.1-.37a6.07,6.07,0,0,0-2,0c-.41,0-1.29.12-2,.16l-1.75.12L55.7,82a12.29,12.29,0,0,0-1.23.11c-.19.07-.15.47.06.71s.25.2.73.1a8.42,8.42,0,0,1,1.21-.13Zm0,6.17a2,2,0,0,0,.57,0,6.79,6.79,0,0,1,1-.1c1.51-.09,2.27-.14,3.28-.23l1.3-.11.43,0s.07-.16.07-.33v-.32l-.63,0c-.34,0-1.05.06-1.58.11l-1.75.12-1.4.1-2.13.18c-.2,0-.16.65,0,.7s.2,0,.23,0a1.28,1.28,0,0,1,.55,0ZM37.68,91.22c1.6,0,3.3-.07,3.77-.1s1-.06,1.21-.06.38-.05.49-.27a.74.74,0,0,0,.07-.45c-.05-.15-.25-.17-1.49-.12-1.63.07-6.08.18-6.83.17s-.75.08-.79.51,0,.34.23.39a.67.67,0,0,0,.35,0s1.4-.07,3-.09Zm20.81,3.92A14.06,14.06,0,0,0,60.25,95a5,5,0,0,1,1.35-.23,4.59,4.59,0,0,0,1.55,0c0-.05,0-.07-.1,0s-.1,0-.1,0a.24.24,0,0,1,.15-.17.35.35,0,0,0,.15-.31c0-.24,0-.24-1.23-.17a31.8,31.8,0,0,0-3.28.26,8.28,8.28,0,0,1-1.17.08,3.77,3.77,0,0,0-1,.09c-.17.2.27.95.48.81a8.15,8.15,0,0,1,1.42-.12ZM31.82,98.78c.09-.08.13-.07.13,0s.14.12.45.1.45,0,.45,0a12.85,12.85,0,0,0,2.69-.07.1.1,0,0,1,.15,0,23.56,23.56,0,0,0,4.74-.11c.16-.11.27-.1.6,0s.4.17.45,0a.39.39,0,0,0-.09-.34c-.13-.12-4.36-.24-8.74-.24-2,0-2.12,0-2.33.18s-.11.55.29.48c.18,0,.34,0,.34,0s.71,0,.88-.14Z"/><path class="d" d="M62.3,45.5c.52-.06.68-.12.77-.31a15.61,15.61,0,0,0,.1-2.88c0-2.4,0-4.93,0-8.42a4.84,4.84,0,0,0-.08-1.29,3.73,3.73,0,0,0-.63,1.28.77.77,0,0,1-.26.37.74.74,0,0,0-.25.34.83.83,0,0,1-.23.36,1.52,1.52,0,0,0-.3.43c0,.11-.11.19-.17.19s-.1.08-.1.17,0,.17-.08.17-.15.19-.42,1l-.19.54a.81.81,0,0,0-.07.4c.07.13.4,5.37.4,6.33,0,.23,0,.42.08.42s.06.05,0,.11a1,1,0,0,0,0,.5c.11.37.31.53.58.44.07,0,.42-.07.78-.11Z"/><path class="d" d="M46.4,44.15c1.15-.05,2.49-.09,3-.09.94,0,.89,0,1-.7.08-.44,0-.48-1-.43-4.67.2-5.81.23-8.2.18-1.31,0-2,.07-2,.28a1.6,1.6,0,0,0,.24.39c.16.21.26.27.29.18s.07-.1.15,0,.29.15.73.14a3.52,3.52,0,0,0,.66-.05,2.5,2.5,0,0,1,.61.09C42.43,44.3,43,44.3,46.4,44.15Z"/><path class="d" d="M45.87,42.63a1.08,1.08,0,0,0,.53-.11s.19,0,.36,0a.77.77,0,0,0,.38.06,7.44,7.44,0,0,1,1-.11c1.15-.08,1.52-.16,1.44-.3s-.26-.08-.53,0a4.37,4.37,0,0,1-.82,0c-.8-.06-9.42,0-9.52.07s-.05.12,0,.2.4.15,1.71.14a13.31,13.31,0,0,1,1.74,0c.08.06,2.44,0,3.72,0ZM42,45c.9,0,3.09,0,4.5,0a3.9,3.9,0,0,0,1-.1,1,1,0,0,1,.53,0c.22,0,.42,0,.45,0a.11.11,0,0,1,.16,0,1.64,1.64,0,0,0,.57.09,1.6,1.6,0,0,1,.58.09c.15.1.23-.14.13-.37s-.21-.16-1-.08c-1.47.15-1.55.15-1.6.06s-.21-.06-.42,0a21.87,21.87,0,0,1-3.82,0l-1.32-.08a2.87,2.87,0,0,1-.84-.11s-.16,0-.28,0a2.12,2.12,0,0,1-.59.07c-.41,0-.46.1-.21.42s.26.2.73.14A12.85,12.85,0,0,1,42,45Z"/><path class="d" d="M43.07,41.81a7.71,7.71,0,0,0,1.55-.17c.19-.11.25-.46.17-.88,0-.21-.12-.25-.45-.25s-.4-.05-.4-.12-.06-.1-.13-.07-.27-.08-.43-.25a1.82,1.82,0,0,0-.53-.4,1.47,1.47,0,0,1-.7-.81c0-.29-.24-.26-.79.11a4.56,4.56,0,0,1-2.31.85c-.87.11-1.46.07-1.56-.11s-.64-.13-.64,0a1.26,1.26,0,0,0,.49.58,1.27,1.27,0,0,1,.3.48c.4.86.56,1,1.14,1a1.25,1.25,0,0,0,.65-.09.16.16,0,0,1,.26,0,1.12,1.12,0,0,0,.62.09,4,4,0,0,1,.84,0,1.61,1.61,0,0,0,.46,0c.06,0,.72-.06,1.48-.09Z"/><path class="d" d="M38.5,39.35a.26.26,0,0,0,.15-.08,3.24,3.24,0,0,1,1.33-.6c.1,0,.21,0,.29-.17s.19-.23.26-.23a.12.12,0,0,0,.13-.11c0-.06.07-.11.16-.11a.56.56,0,0,0,.44-.44c0-.18.2-.14.27.05s.12.08.3-.22a1.8,1.8,0,0,0,.24-.51c0-.07.15-.11.35-.1a.68.68,0,0,0,.47-.11,2.39,2.39,0,0,0,.16-.87,1.52,1.52,0,0,1,.29-1c.22-.27.24-.37.21-1.11a2.07,2.07,0,0,0-.26-1.15,1.15,1.15,0,0,1-.05-1.26c.2-.38.39-.43,1.05-.28l.27.06,0-1.15c-.07-1.81-.31-2.66-.72-2.65a9.38,9.38,0,0,1-1.33-.19c-.14,0-.52-.08-.85-.11s-.71-.08-.85-.11l-.63-.11a1.76,1.76,0,0,1-.46-.11,4.33,4.33,0,0,0-.87-.08,3,3,0,0,1-.9-.11,29.66,29.66,0,0,0-4.47.06c-.27.13-.48.72-.48,1.35a2.28,2.28,0,0,0,.06.64c.08.08.75-.15.7-.25s.71-.17,1.49-.15c.35,0,.61.07.64.14a1.12,1.12,0,0,0,.23.33c.17.18.19.34.15,1.88a18.09,18.09,0,0,1-.15,2.13,3.88,3.88,0,0,0,.07,2.13c.16.23.41.26.53.05a1.45,1.45,0,0,1,.95-.21l.7,0c.4,0,.4,0,.39-.42s0-.53-.53-.61-.44-.26.07-.22.59.13.76.59A1,1,0,0,1,38.87,35c-.14.15-.56.13-1-.05-.16-.07-.18,0-.14.22s-.07.5-.2.24-.33-.24-.86-.12a.9.9,0,0,1-1.16-.53,2,2,0,0,1-.05-.7c0-.19.07-.58.1-.87,0-.5,0-.53-.21-.6s-.25-.12-.2-.29,0-.21-.37-.22l-.68,0c-.23,0-.25,0-.23.38s0,.33,0,.25a.28.28,0,0,0-.25-.14c-.15,0-.19.08-.19.35a5.67,5.67,0,0,0,.41,1.72.65.65,0,0,1,.09.34,2.84,2.84,0,0,0,.25.79A10.73,10.73,0,0,0,35,37.28a2.9,2.9,0,0,1,.33.65.11.11,0,0,0,.1.11,4.68,4.68,0,0,1,.83.56,4.19,4.19,0,0,0,.85.56.11.11,0,0,1,.12.1c0,.13.46.22.85.15l.4-.07Z"/><path class="c" d="M36.76,38.28a.73.73,0,0,0,0-.58c-.15-.32-.09-.37.53-.46a5.38,5.38,0,0,0,.75-.16c.15-.05.23,0,.23.05a.55.55,0,0,1-.45.45c-.12,0-.15.07-.11.25.08.37-.13.61-.61.7l-.42.08Z"/><path class="c" d="M38.77,36.92a.29.29,0,0,0-.22-.23l-.39,0c-.12,0-.23,0-.23,0a6.24,6.24,0,0,1-1.65,0,1.08,1.08,0,0,0-.46.06c-.11.05-.18,0-.23-.11s.1-.48.42-.47a1.57,1.57,0,0,0,.48-.07.78.78,0,0,1,.48,0,.54.54,0,0,0,.56-.06c.16-.09.29-.13.29-.09s.05,0,.11,0,.19-.09.4,0a.7.7,0,0,0,.47.1c.31-.11.44.2.27.66s-.26.5-.33.18Z"/><path class="c" d="M38.46,31.83a.91.91,0,0,1-.22-.44c0-.26-.18-.35-.36-.19s-.28.07-.29-.76c0-1,.24-1.63.8-1.81s1.17-.12,1.33.13a.48.48,0,0,0,.35.2,1.16,1.16,0,0,1,.57.33,1.39,1.39,0,0,0,.47.34.12.12,0,0,1,.13.12c0,.06.07.11.15.11a1,1,0,0,1,.44.23c.27.23.28.24.15.68A3,3,0,0,1,41.32,32s0-.2,0-.45,0-.45,0-.45a2.28,2.28,0,0,0-.54.31c-1,.73-1.89.9-2.28.44Z"/><path class="d" d="M39.83,31.48a.7.7,0,0,1,.27-.13c.33-.05.72-.32.67-.46a.22.22,0,0,0-.19-.15c-.08,0-.14,0-.14-.1s-.12-.13-.27-.16c-.52-.11-.62-.15-.69-.22s-.34.21-.34.79,0,.61.28.58A.94.94,0,0,0,39.83,31.48Z"/><path class="d" d="M40.69,29.83a.57.57,0,0,0-.27-.21.53.53,0,0,1-.26-.15,3.14,3.14,0,0,0-1.24-.52c-.29-.07-.43,0-.57.09a.3.3,0,0,0,.27.52,2.23,2.23,0,0,1,.83.18,3.48,3.48,0,0,0,.9.23c.17,0,.3.05.3.12s0,.09.11,0,0-.15-.07-.29Z"/><path class="c" d="M42.75,29.34a.78.78,0,0,0-.37-.28.12.12,0,0,1-.13-.1c0-.39-1.76-.82-3.25-.79s-1.28,0-1.16-.21a1.35,1.35,0,0,1,.69-.39,2,2,0,0,1,1.33,0l1.06.21a2.17,2.17,0,0,1,.68.29,1.68,1.68,0,0,0,.44.23,4,4,0,0,1,1.1,1.2c0,.23-.14.18-.4-.13Z"/><path class="d" d="M59.49,28a.25.25,0,0,1,.1.15,3.52,3.52,0,0,1,.12.84,4.86,4.86,0,0,0,.12.94.74.74,0,0,1,.08.23l0,.25a.16.16,0,0,0,.16.14c.09,0,.13-.09.11-.25s-.06-.59-.1-1a2.54,2.54,0,0,0-.15-.82s-.06-.24,0-.45l.06-.39-.44,0Z"/><path class="d" d="M59.35,27.57h-.47a6.66,6.66,0,0,1-2.63-.9s-.13-.13-.3-.21a1.75,1.75,0,0,1-.56-.52.92.92,0,0,1-.19-.84.84.84,0,0,1,.21-.51.29.29,0,0,0,.14-.26.72.72,0,0,1,.21-.4.5.5,0,0,0,.16-.42c0-.11,0-.19.05-.17s1-.83,1-1,.07-.12.2-.07.2,0,.2-.08.11-.16.24-.16a1.53,1.53,0,0,0,.53-.18,5.14,5.14,0,0,1,2.43,0,2.9,2.9,0,0,0,.53.2,4.24,4.24,0,0,1,1.49,1.72c.07.2.15.37.19.37s.09.1.12.22c.09.39.24.25.27-.25.06-1,0-4.21,0-4.61s-.11-.41-.21-.37a.19.19,0,0,1-.2,0C62.62,19,61,19,51.62,18.91c-6.92,0-6.76-.06-6.28.49a.8.8,0,0,1,.2.33c0,.06.14.17.3.25s.3.21.3.29,0,.14.09.14.12.14.15.32a1.77,1.77,0,0,0,.51.73,1.8,1.8,0,0,1,.58.93l.13.51.16-.26a6.09,6.09,0,0,1,.37-.53,1,1,0,0,0,.21-.37,2.39,2.39,0,0,1,.35-.58,2,2,0,0,0,.35-.64.45.45,0,0,1,.2-.3c.17-.12.21-.1.32.11a.8.8,0,0,1,.1.33,5.92,5.92,0,0,0,.14.84c.16.8.3,1.07.42.87a2.26,2.26,0,0,1,1-.61c.09,0,.16,0,.16-.1s.47,0,.69.22a1,1,0,0,0,.25.21,2.1,2.1,0,0,0,.26-.51c.12-.28.26-.51.31-.51s.06-.09,0-.2,0-.16,0-.11.16,0,.25-.08a2.64,2.64,0,0,1,1.39-.35,2.19,2.19,0,0,0,.76-.16c1-.33,1.28-.08.82.76a6.24,6.24,0,0,0-.37.81,2.53,2.53,0,0,1-.22.5.56.56,0,0,0-.08.3.51.51,0,0,1-.14.32,3.1,3.1,0,0,0-.36.88c-.12.41-.25.85-.3,1a3.93,3.93,0,0,0-.15.65c-.05.37,0,.43.18.53.41.18.28.77-.42,1.94a10,10,0,0,0-.61,1.09.74.74,0,0,1-.2.29.68.68,0,0,0-.2.33A.93.93,0,0,1,53,30c-.22.23-.25.36-.23.84a4,4,0,0,0,.1.82c.07.22.13.24.57.18s.5,0,.71.25a2.31,2.31,0,0,1,.33,2.26,2.36,2.36,0,0,1-1.15,1.07c-.44.15-.52.29-.43.69.06.25.11.27.57.27.62,0,.91.26,1.09,1a1.45,1.45,0,0,1,0,.9,1.32,1.32,0,0,0-.09.44s2,.25,3.16.36c.4,0,.94.1,1.2.14s.62.08.79.09h.32l0-.8h0a4.67,4.67,0,0,0-.46-2A4.37,4.37,0,0,0,58.52,35a2.57,2.57,0,0,1-.37-.52,1.33,1.33,0,0,0-.28-.37,4.65,4.65,0,0,1-1-1.47c-.31-.77-.23-2.22.13-2.22.07,0,.2-.1.27-.22a.47.47,0,0,1,.31-.22.21.21,0,0,0,.2-.11c0-.14,1.38-.25,1.38-.11s.07.07.15,0a.21.21,0,0,0,.1-.27,3.63,3.63,0,0,1,0-1.52Z"/><path class="d" d="M60,36.13a.11.11,0,0,0-.11-.11c-.06,0-.08.05,0,.11s.08.11.11.11S60,36.19,60,36.13Z"/><path class="d" d="M60.41,35.49s-.06,0-.05.15,0,.16.06.07A.25.25,0,0,0,60.41,35.49Z"/><path class="d" d="M60,34.83c0-.51-.18-.63-.18-.13,0,.33.06.53.16.53a1.33,1.33,0,0,0,0-.4Z"/><path class="d" d="M59.4,34.36a18,18,0,0,0-.26-2.9.28.28,0,0,1,0-.27,1.18,1.18,0,0,0-.06-.8c-.12-.39-.2.31-.12,1,0,.4.09,1.36.1,2.13A13.58,13.58,0,0,0,59.11,35a.23.23,0,0,0,.19.08c.11,0,.13-.17.11-.76Z"/><path class="d" d="M61.1,34.13c0-.35-.07-.87-.11-1.15s-.06-.58-.07-.67a.63.63,0,0,0-.08-.28,1.46,1.46,0,0,1-.07-.55c0-.24,0-.46-.1-.48s-.11.16,0,1.43c0,.28.07.86.08,1.29a5.23,5.23,0,0,0,.1,1c.14.37.25.07.2-.57Z"/><path class="d" d="M60.47,33.79a4.73,4.73,0,0,0-.08-.93,1.87,1.87,0,0,1-.05-.57,1.82,1.82,0,0,0-.05-.56c-.07-.24-.08-.24-.14.08a2,2,0,0,0,0,.67,5.86,5.86,0,0,1,.08,1c0,.68.08,1.11.18,1a3,3,0,0,0,0-.73Z"/><path class="d" d="M61.61,33.92s-.06,0-.05.15,0,.16.06.07A.25.25,0,0,0,61.61,33.92Z"/><path class="d" d="M58.68,33.41c0-.39-.07-1-.1-1.43a9.63,9.63,0,0,1,0-1.09,2.23,2.23,0,0,0,0-.61c-.11-.4-.23,0-.2.63.15,2.9.18,3.2.34,3.2s.07-.32.05-.7Z"/><path class="d" d="M59.92,33.75c0-.19,0-.21-.07-.09a.32.32,0,0,0,0,.25C59.88,34,59.9,34,59.92,33.75Z"/><path class="d" d="M59.85,32.75c0-.37,0-.66-.08-.63s-.08-.23-.09-.56c0-.59-.08-.81-.19-.69a13.75,13.75,0,0,0,.2,2.45C59.82,33.54,59.84,33.43,59.85,32.75Z"/><path class="d" d="M58,32.65A2.27,2.27,0,0,1,58,32c-.05-1.11-.14-1.74-.23-1.68a.13.13,0,0,0,0,.16,8.61,8.61,0,0,1,.07,1.26c0,1.22.17,1.93.28,1.27A.79.79,0,0,0,58,32.65Z"/><path class="d" d="M61.55,33.21a.1.1,0,1,0-.1.11A.11.11,0,0,0,61.55,33.21Z"/><path class="d" d="M62,32.34c0-.54-.06-1.19-.07-1.43a1.27,1.27,0,0,0-.13-.59c-.19-.22-.2,0-.07.91a11.56,11.56,0,0,1,.13,1.37c0,.49.06.72.16.72s0-.44,0-1Z"/><path class="d" d="M61.48,32.45a1.38,1.38,0,0,0-.16-.53c-.07-.08-.08,0,0,.09a2.21,2.21,0,0,1,.06.53c0,.18,0,.33.09.33S61.51,32.69,61.48,32.45Z"/><path class="d" d="M57.36,31.36c0-.18-.11-.25-.19-.19s-.09.2,0,.58.12.49.19.19A1.5,1.5,0,0,0,57.36,31.36Z"/><path class="d" d="M62.52,31.4a1.42,1.42,0,0,0-.17-.59c-.09-.1-.1,0-.06.32l.08.59c0,.08.06.14.11.14s.07-.2,0-.46Z"/><path class="d" d="M35.6,30.57a.27.27,0,0,1-.25.17c-.36,0-.58.84-.23.92a.56.56,0,0,0,.64-.42c0-.29,0-.52,0-.7Z"/><path class="d" d="M35.79,30.31a1.4,1.4,0,0,0,0-.18.43.43,0,0,0-.27-.35,1.92,1.92,0,0,0-2,0c-.34.22-.38.29-.31.5s.21.32.44,0a.59.59,0,0,1,.37-.22c.1,0,.18,0,.18-.09s1.27.12,1.41.28a.29.29,0,0,1,.07.15Z"/><path class="d" d="M61.32,31a2.17,2.17,0,0,0-.1-.79c-.09,0-.1.57,0,1.15s.14.51.11-.36Z"/><path class="d" d="M33.75,31.12c0-.29,0-.3-.24-.2a.39.39,0,0,0-.1.52c.12.14.34-.06.34-.32Z"/><path class="d" d="M63.15,29.93c0-2.52,0-4.21,0-4.32s-.09-.14-.14-.14-.07.08,0,.17-.08.33-.31.59a2.22,2.22,0,0,1-.37.38s-.14,0-.29.08a1.57,1.57,0,0,1-.38.12.09.09,0,0,0-.09.09,1.63,1.63,0,0,1-.58.34l-.58.26v.86c0,1.19.09,1.41.43,1.32.65-.19,1-.19,1.14,0a.52.52,0,0,0,.27.18.11.11,0,0,1,.11.11.13.13,0,0,0,.14.11c.08,0,.17.1.21.22a.3.3,0,0,0,.26.22c.17,0,.19-.09.2-.59Z"/><path class="d" d="M33.57,29.34c.15-.15.33-.25.4-.23a9.1,9.1,0,0,0,1.4.18c.1,0,.18,0,.18.1s.07.11.16.11.15-.09.13-.3-.11-.33-.48-.45-1.5-.09-1.5.07-.14.08-.31.08c-.41,0-.62.27-.54.64s.06.31.57-.2Z"/><path class="d" d="M49.18,29.45c0-.09-.08-.17-.1-.17s0,.08,0,.17,0,.17.1.17S49.21,29.54,49.18,29.45Zm.62,0s-.06,0-.05.15,0,.16.06.07A.25.25,0,0,0,49.81,29.42ZM31.7,30.81a15.13,15.13,0,0,1-.09-3.53c.05-.42,0-.48-.14-.48s-.3.39-.39,1.85a5.05,5.05,0,0,0,.28,2.14.48.48,0,0,1,.09.31c0,.3.09.43.22.33a1.26,1.26,0,0,0,0-.64Zm17.76.78a.62.62,0,0,1-.1-.37c0-.11,0-.48,0-.82,0-.56,0-.59-.11-.28-.14.52.09,1.91.28,1.7,0,0,0-.14-.07-.23ZM50,31c0-.87-.05-1.12-.16-1.12s-.13.12-.09.48.08.77.11,1.12a2.31,2.31,0,0,0,.11.65A6.62,6.62,0,0,0,50,31Zm-.94,1.23a14.56,14.56,0,0,1-.44-3.33.15.15,0,0,0-.16-.14c-.12,0-.15.15-.15.65,0,1.13.49,3.15.72,3a.13.13,0,0,0,0-.16Zm3.41-.88a1.8,1.8,0,0,0-.14-.68.87.87,0,0,1-.16-.38c0-.18-.11-.28-.17-.24a4.8,4.8,0,0,0,.13,2c.06.13.1.24.08.24a.66.66,0,0,0,.05.28c.08.27.09.26.17-.17a4.81,4.81,0,0,0,0-1.06Zm-2.29,1.17c0-.32-.26-.39-.26-.07a.53.53,0,0,0,.07.28C50.15,32.84,50.22,32.76,50.21,32.48Zm-5.46.09a1.05,1.05,0,0,0,.3-.44.24.24,0,0,1,.14-.2c.35-.15.39-1.57.07-3.05l-.1-.48s0-.17,0-.35-.06-.35-.17-.4c-.3-.13-.35.1-.19.88.3,1.45.15,2.83-.35,3.3l-.28.25L44,31.7c-.13-.44-.17-.46-.4-.23s-.14.81.29,1.13.45.34.82,0Zm3.75,0L48.38,32a1.22,1.22,0,0,0-.15-.42,3.52,3.52,0,0,1-.15-1A14.37,14.37,0,0,0,47.92,29c-.1-.55-.15-.65-.33-.65s-.21.05-.17.42a10.36,10.36,0,0,0,.18,1,5.15,5.15,0,0,1,.13,1,6.53,6.53,0,0,0,.5,2c.2.39.36.28.27-.18ZM45.35,33a.25.25,0,0,0-.1-.18c-.05,0-.1,0-.1.11s0,.18.1.18A.1.1,0,0,0,45.35,33Zm6.73.25a11.79,11.79,0,0,1-.48-2.74c0-.32-.23-.77-.33-.77a14.06,14.06,0,0,0,.13,2.36c.08.8.41,1.57.58,1.38,0,0,.06,0,.06.06s0,.13.09.13,0-.19-.06-.42Zm-3.93.5a1.49,1.49,0,0,0-.14-.44,9,9,0,0,1-.41-1.22l-.1-.51a3.17,3.17,0,0,1-.07-.52,21.78,21.78,0,0,0-.58-2.83c-.18-.2-.36,0-.33.39a19.6,19.6,0,0,0,.4,2.79c.29,1.11.62,1.91.79,1.91s.28.32.25.48,0,.08.08.08.1-.06.1-.14Zm-2.91.34a.08.08,0,0,0-.09-.08c-.06,0-.1.14-.09.31s0,.28.09.08A1.73,1.73,0,0,0,45.24,34.08Zm-13.8.58a1.33,1.33,0,0,0,.61-.33.55.55,0,0,1,.28-.22c.06,0,.11-.07.11-.16a.6.6,0,0,1,.15-.33A3.08,3.08,0,0,0,33,32.11s-.07-.15,0-.28,0-.21,0-.16a.49.49,0,0,0-.1.24A4.39,4.39,0,0,1,32.29,33c-.11.16-.18.18-.26.1s-.05-.21.09-.44a2.93,2.93,0,0,0,.33-1.35.21.21,0,0,1,.07-.19,1.66,1.66,0,0,0,0-.71c0-.36,0-1.37,0-2.25,0-1.19,0-1.6-.12-1.6s-.32.27-.42,1.12A10.49,10.49,0,0,0,32,30.57a2.22,2.22,0,0,1-.37,1.82c-.34.44-.7.4-1-.09s-.13-.58.2-.48.24,0,.24-.2c0-.48-.36-.66-1-.47-.34.1-.4.83-.12,1.46.14.32.27.48.36.44s.11,0,.07.05,0,.11.14.11a.32.32,0,0,1,.26.11.11.11,0,0,0,.16,0c.16-.11,1-.14,1,0s-.56.34-1.17.27-.62,0-.66.13.2.82.38.82a.13.13,0,0,1,.15.11c0,.14.13.14.69,0Zm22.26,0a1.19,1.19,0,0,0,.33-.27s.07-.06.13,0,.09-.25.09-.67a1.94,1.94,0,0,0-.1-.8.13.13,0,0,1-.05-.16s0-.2-.15-.33a.69.69,0,0,0-.88-.14c-.18.11-.29.8-.12.8s.61.52.61.7-.23.33-.64.48a1.79,1.79,0,0,1-.72-.07c-.5-.13-.55-.17-.78-.7A7.59,7.59,0,0,1,51,31.58c-.23-1.87-.31-2.19-.54-2.19s-.21,0,0,1.91.4,2.61.75,3a2,2,0,0,1,.21.29c.24.44,1.63.49,2.28.09Zm-4.47.42c.18-.07.33-.16.33-.21s.1-.12.21-.15.2-.12.16-.29,0-.26,0-.29,0-.37-.14-.92a.44.44,0,0,0-.76-.16.68.68,0,0,0-.11.89c.14.23.13.27,0,.42s-.31.2-.39.06a.4.4,0,0,0-.31-.11c-.14,0-.22,0-.19-.11s0-.11,0-.11a1.58,1.58,0,0,1-.45-.41,4.16,4.16,0,0,1-.77-1.56l-.2-.56a5.79,5.79,0,0,1-.18-1.15,2,2,0,0,0-.15-.81c-.05,0-.07,0,0-.1a2.82,2.82,0,0,0-.05-.78c-.12-.75-.29-1-.48-.76s-.09.36,0,1a8.29,8.29,0,0,1,.1,1.16,1.58,1.58,0,0,0,.07.56,9.6,9.6,0,0,1,.26,1c.19.94.51,1.82.66,1.82s.09.06.06.13a.45.45,0,0,0,.12.33l.36.46a2.37,2.37,0,0,0,.75.68,2.11,2.11,0,0,0,1.16,0Zm-17.48.63a.24.24,0,0,1,.25-.1c.16.07.85-.68.85-.92s0-.16.09-.16.28-.56.24-.8-.18,0-.58.41a4.8,4.8,0,0,1-.92.79c-.4.22-1.15.25-1.21.06a.19.19,0,0,0-.18-.12c-.12,0-.12,0,0,.32a.83.83,0,0,0,.57.51.31.31,0,0,1,.14.09.64.64,0,0,0,.74-.08Zm17.51.4c0-.35-.18-.5-.41-.34s-.11.13.06.28.19.19.18.22,0,.16.07.16S49.25,36.32,49.25,36.14Zm-4-.09a1.5,1.5,0,0,0,.29-.49.84.84,0,0,1,.15-.36,3.14,3.14,0,0,0,.24-1,4.92,4.92,0,0,1,.13-.87c.09-.21-.07-.9-.2-.9s-.1.11-.11.25c-.05,1.52-.23,2.25-.66,2.73s-.8.59-1,.31a.83.83,0,0,1-.14-.34c0-.24-.38-.16-.43.09s.11.87.31.92a5.26,5.26,0,0,0,.62.07c.42,0,.48,0,.78-.4Zm-12.36.28A.68.68,0,0,0,33,36a.13.13,0,0,1,.15-.11c.2,0,.33-.32.29-.72a1.32,1.32,0,0,0-.06-.36s-.21.16-.43.41a5.28,5.28,0,0,1-.81.73c-.53.36-.49.61.1.58a1,1,0,0,0,.59-.22Zm19.68-.15c-.14-.57-.39-.87-.59-.73s-.12.17,0,.57a3.13,3.13,0,0,0,.33.75c.18.25.2.26.29.09A1.12,1.12,0,0,0,52.54,36.18Zm-3.8.37a.18.18,0,0,0-.15-.2.16.16,0,0,1-.15-.17c0-.09,0-.17-.09-.17s-.11-.11-.12-.25-.08-.23-.13-.2-.1.71,0,.76a.18.18,0,0,1,.11.16.74.74,0,0,0,.17.33c.18.23.33.11.33-.27Zm3.22.68a2.61,2.61,0,0,0-.47-1.12.11.11,0,0,1,0-.15,2.49,2.49,0,0,0-.36-1.24c-.29-.33-.39-.2-.32.41A4.22,4.22,0,0,0,51.55,37C51.82,37.39,51.91,37.44,52,37.23Zm-8.67,0c.14-.11.18-.48.06-.48s-.31.35-.31.5S43.18,37.38,43.3,37.28Zm9.1.31a.21.21,0,0,0-.16-.11.1.1,0,0,0-.09.11c0,.06.07.11.16.11S52.43,37.65,52.4,37.59Zm-18.73-.48c.4-.48.47-.76.24-1s-.46-.06-.46.08-.67.56-1,.63a2.25,2.25,0,0,0-.48.13c-.13.09.13.49.32.49a.32.32,0,0,1,.26.12c.14.25.78,0,1.17-.49Zm14.63.26c-.09-.19-.2-.35-.24-.35a2.24,2.24,0,0,1-.42-1.11.36.36,0,0,0-.16-.31c-.1,0-.12-.09,0-.15s0-.15-.09-.28-.2-.2-.2.18a1.42,1.42,0,0,0,.15.63.69.69,0,0,1,.13.33c0,.16.23.64.61,1.05a1.8,1.8,0,0,0,.4.38,1,1,0,0,0-.13-.37Zm-4.21.08c.11-.24.13-.39.06-.47s-.51.27-.44.58S43.9,37.88,44.09,37.46Zm7.34.15a2.71,2.71,0,0,0-.23-.3,7.7,7.7,0,0,1-.75-1.94,2.13,2.13,0,0,0-.11-.55c-.1-.3-.11-.31-.25-.1s-.18.45.27,1.51.86,1.7,1.06,1.62.11-.1,0-.24Zm-17,.09c.19-.21.19-.22,0-.42s-.2-.2-.52.18c-.18.22-.3.44-.26.5S34.16,38,34.39,37.7ZM44.64,38c0-.09,0-.17.1-.17s.42-.79.35-1-.46.21-.7,1.07c-.05.19,0,.25.09.25a.16.16,0,0,0,.16-.17Zm9,.58a.58.58,0,0,0,.37-.38,1.24,1.24,0,0,0,0-1c-.12-.37-.17-.4-.57-.43s-.44,0-.5.25c-.12.53,0,.69.38.67s.48.15.13.44a1.61,1.61,0,0,1-1.5,0c-.52-.18-.62-.17-.5,0a2.46,2.46,0,0,0,1.8.55,1.41,1.41,0,0,1,.36-.14Zm-8.76.26c.14-.06.23-.16.2-.22s0-.11,0-.11.2-.24.31-.53.26-.63.31-.75c.13-.28.22-1.19.11-1.19s-.29.48-.39,1a2.74,2.74,0,0,1-.81,1.39.43.43,0,0,0-.23.34c0,.26.07.28.45.11ZM42.83,38a.54.54,0,0,0-.21-.1c-.12,0-.09.4,0,.74l.12.3.09-.42C42.95,38.23,42.94,38.1,42.83,38Zm8.41.74a.3.3,0,0,0-.1-.22c-.06,0-.1.06-.1.22s0,.26.1.22A.3.3,0,0,0,51.24,38.77Zm-2.52.15c.08-.09.19-.1.35,0s.58.08.58-.08a.11.11,0,0,1,.11-.1c.14,0,.49-.44.49-.61a1.48,1.48,0,0,0-.5-1.13c-.39-.23-.45-.22-.65.12a.81.81,0,0,0-.11.57c.05.24.1.27.36.22s.3,0,.3.21a.65.65,0,0,1-1.07.37.54.54,0,0,0-.34-.21c-.09,0-.3-.19-.45-.42a5.79,5.79,0,0,0-.34-.48,7.67,7.67,0,0,1-.54-1.27,7,7,0,0,1-.25-1.27c-.09-.85-.15-1-.28-.9a3.72,3.72,0,0,0,0,1.47s.06.19,0,.34,0,.28.06.28.11.16.12.37a1.76,1.76,0,0,0,.2.7,4.89,4.89,0,0,1,.3.63c.11.3.8,1,1,1a.12.12,0,0,1,.11.12c0,.07.07.1.15.06s.15,0,.15,0,.13.14.28,0Zm1.88,0c0-.17.08-.37.1-.45a.11.11,0,0,0-.11-.14.16.16,0,0,0-.16.14c0,.51,0,.76,0,.76S50.57,39.14,50.6,39Zm1,.33s-.11,0-.18.08-.09.12.06.06S51.63,39.33,51.6,39.3Zm-5.31.16a1.05,1.05,0,0,1,.3-.29,1.22,1.22,0,0,0,.29-.18c.17-.13.18-.19.06-.5s-.35-.4-.58.05a2.34,2.34,0,0,1-.28.45,2.59,2.59,0,0,0-.29.42c-.17.3-.17.31.06.31A.67.67,0,0,0,46.29,39.46Zm-1.2.08c.16-.08.26-.15.22-.15s0-.12.16-.26a4,4,0,0,0,.81-1.46c.1-.47-.11-.37-.34.17a4.13,4.13,0,0,1-.43.76,3.49,3.49,0,0,1-1.42.85l-.28.08.07-.56c.08-.65,0-.85-.42-.69-.2.09-.23.15-.17.46.09.5.33.87.56.87a.31.31,0,0,1,.25.11c.07.12.56,0,1-.18ZM50.2,40c.18-.49.19-.63,0-.34s-.28.73-.2.73A1.2,1.2,0,0,0,50.2,40Zm-1.26.31c0-.36-.09-.28-.16.13,0,.19,0,.28.05.23A.54.54,0,0,0,48.94,40.32Zm-.5-.18c0-.05-.06,0-.15,0a.58.58,0,0,0-.15.38c0,.23,0,.22.15,0A1.49,1.49,0,0,0,48.44,40.13Zm.4.81c0-.06,0-.08-.1,0a.25.25,0,0,0-.1.18c0,.06,0,.08.1,0A.25.25,0,0,0,48.84,40.95Zm1.7.15a3.11,3.11,0,0,1,.14-.62c.1-.3.1-.41,0-.38s-.38,1.2-.25,1.2.09-.09.09-.2Zm-4.65,0c0-.21,0-.34,0-.34s.11-.08.11-.18-.06-.16-.12-.13-.23,1-.08,1S45.94,41.3,45.89,41.07Zm.64.08a1.44,1.44,0,0,1,.12-.58.85.85,0,0,0,.09-.43c0-.28,0-.31-.15-.19s-.13.16-.11.19a2.28,2.28,0,0,1-.08.63c-.12.58-.11.86,0,.86s.08-.21.1-.48Z"/><path class="d" d="M52.74,29.31a.64.64,0,0,0,.2-.34c0-.08,0-.14.1-.14s.1-.07.1-.15a.49.49,0,0,1,.15-.3,1.88,1.88,0,0,0,.31-.55c.09-.22.22-.54.3-.7.24-.52.13-.74-.41-.82a.77.77,0,0,1-.25-.12,1.1,1.1,0,0,0-.25-.14l-.5-.14-1.75-.49a8.57,8.57,0,0,0-1.48-.33.08.08,0,0,1-.12-.08c0-.07,0-.1-.08-.07a5.8,5.8,0,0,1-1.23-.17,14.87,14.87,0,0,0-2.51-.38c-.42,0-.94-.08-1.15-.11A19.92,19.92,0,0,0,41,24.08a43.06,43.06,0,0,0-5,.19c-1,.07-2.34.2-2.6.25-.46.08-2.24.52-3,.72a7.05,7.05,0,0,1-1,.22c-.2,0-.39.47-.21.54s.08.12,0,.21,0,.16.58.1l.79-.08a4.35,4.35,0,0,0,.65-.15A29.77,29.77,0,0,1,38.85,26c.35.07,1.76.28,2.25.33a10.81,10.81,0,0,1,2,.38,3.32,3.32,0,0,0,.85.16,1.73,1.73,0,0,1,.75.17,1.32,1.32,0,0,0,.61.19,7.42,7.42,0,0,1,1.71.4,4.65,4.65,0,0,0,.73.24,1.61,1.61,0,0,1,.57.21s.08.07.19.08a8.39,8.39,0,0,1,1.08.35l1.61.58a2.94,2.94,0,0,1,.78.35c.09.17.53.11.74-.09Z"/><path class="d" d="M60.65,26.82a2.08,2.08,0,0,0,.77-.46c.1-.18.07-.19-.26-.16l-.77.11a11.62,11.62,0,0,1-2.88-.06,1.82,1.82,0,0,0-.88,0c-.13.06-.17.11-.1.11a6.28,6.28,0,0,1,1.25.59c.13.08.21.07.28,0s.1-.12.18,0,1.6.22,2.41-.11Z"/><path class="d" d="M59.18,25.74a.74.74,0,0,0-.39-.16c-.17,0-.21-.08-.22-.41s-.22-.68-.6-.65a5.06,5.06,0,0,0-1.66.56c-.17.14-.18.18,0,.33a.81.81,0,0,0,.47.2c.18,0,.32.06.32.1s.59.15,1.63.17c.61,0,.66,0,.5-.14Z"/><path class="d" d="M61.4,25.61c.51-.19,1-.49.77-.49S62,25,62,25s0-.17-.1-.17-.1.06-.1.14,0,.1-.07,0a1.81,1.81,0,0,0-1.48-.33c-.17,0-.2.12-.16.45s0,.4-.07.4-.16.1-.22.23-.09.23.47.17a5.49,5.49,0,0,0,1.08-.24Z"/><path class="d" d="M56.8,24.34a3,3,0,0,1,1.44-.26,1,1,0,0,0,.55-.06,1.24,1.24,0,0,1,.61,0c.28,0,.85.06,1.28.06a1.71,1.71,0,0,1,.78.11c0,.05,0,.06.1,0s.11-.21-.23-.44a3.83,3.83,0,0,0-1.87-.48,4,4,0,0,0-2.21.38.36.36,0,0,1-.24.15.39.39,0,0,0-.25.16c-.07.09-.15.15-.19.14s-.18.09-.32.24l-.25.26.35-.08a1.47,1.47,0,0,0,.45-.17Z"/><path class="d" d="M57.45,22.93c0-.09,0-.17-.1-.17s-.1.08-.1.17,0,.17.1.17S57.45,23,57.45,22.93Z"/><path class="d" d="M61.45,23c0-.07-.09-.15-.2-.18s-.2-.1-.2-.15a2,2,0,0,0-.72-.34,2.24,2.24,0,0,0-1.18-.16l-.6.1a1.3,1.3,0,0,0-.37.16.91.91,0,0,1-.37.13c-.22,0-.3.22-.11.3a.22.22,0,0,0,.26-.09c.08-.12.11-.13.15,0s.08.11.19,0,.18-.1.29,0,.18.11.29,0,.16-.09.19,0a1,1,0,0,0,.53.08.88.88,0,0,1,.56.11c.05.09.07.09.08,0s.14-.09.53,0c.69.19.68.19.68,0Z"/></svg>