<svg id="Layer_1" data-name="Layer 1" xmlns="http://www.w3.org/2000/svg" viewBox="0 0 119.587 114.612">
  <defs>
    <style>
      .cls-1 {
        fill: #0000b8;
      }

      .cls-2 {
        fill: #fff;
      }
    </style>
  </defs>
  <title>426c525c-d1c7-445c-bcae-7bd3c8351cf4</title>
  <g>
    <path class="cls-1" d="M57.835,114.111c-14.7,0-27.839-4.9-37-13.8C13.879,93.561,8.769,84.243,5.642,72.618,5.017,70.295,4.472,67.9,3.977,65.3A231.391,231.391,0,0,1,.6,36.715c-.614-9.472,1.575-18.272,6.167-24.782C11.665,4.987,19.959.5,27.9.5a20.606,20.606,0,0,1,5.682.787.5.5,0,0,1,.354.568c-.146.813-.8,1.783-3.1,1.783a9.7,9.7,0,0,1-1.061-.062,21.685,21.685,0,0,0-2.382-.132,23.106,23.106,0,0,0-16.478,7.021C2.585,19.234,2.684,33.063,3.482,42.7A184.966,184.966,0,0,0,7.237,67.452c1.542,6.944,3.713,15,8.119,22.077,7.058,11.345,19.752,19.384,33.956,21.5a54.821,54.821,0,0,0,8.064.592,64.241,64.241,0,0,0,31.892-8.841A48.62,48.62,0,0,0,102.086,92.59a37.74,37.74,0,0,0,6.309-37.908.5.5,0,0,1,.072-.5,1.058,1.058,0,0,1,.838-.416,2.345,2.345,0,0,1,1.8,1.5c4.785,11.314,2.685,25.7-5.351,36.66-7.056,9.621-18.406,16.8-31.959,20.211a65.445,65.445,0,0,1-15.961,1.978Z" transform="translate(0 0)"/>
    <path class="cls-2" d="M27.9,1a20.085,20.085,0,0,1,5.545.768c-.2,1.085-1.413,1.371-2.609,1.371a9.184,9.184,0,0,1-1.006-.059,22.043,22.043,0,0,0-2.437-.134,23.5,23.5,0,0,0-16.84,7.177c-7.927,8.349-8.515,21.147-7.565,32.62A184.925,184.925,0,0,0,6.749,67.56c1.72,7.747,3.989,15.5,8.182,22.233,7.381,11.861,20.49,19.671,34.307,21.734a55.077,55.077,0,0,0,8.137.6,65.092,65.092,0,0,0,32.142-8.907,49.617,49.617,0,0,0,12.947-10.3A38.223,38.223,0,0,0,108.859,54.5a.552.552,0,0,1,.446-.228c.5,0,1.1.621,1.34,1.191,4.965,11.738,2.245,25.892-5.292,36.169s-19.319,16.909-31.678,20.021a65.091,65.091,0,0,1-15.84,1.963c-13.547,0-27.022-4.3-36.656-13.659C13.6,92.591,8.869,82.693,6.125,72.488c-.646-2.4-1.191-4.833-1.657-7.277A234.558,234.558,0,0,1,1.1,36.682c-.552-8.5,1.1-17.4,6.076-24.462C11.877,5.555,19.881,1,27.9,1m0-1V0C19.8,0,11.348,4.57,6.359,11.644,1.7,18.247-.52,27.162.1,36.747A231.8,231.8,0,0,0,3.486,65.4c.49,2.568,1.053,5.041,1.673,7.349C8.31,84.462,13.465,93.856,20.483,100.67c9.259,8.99,22.524,13.942,37.353,13.942a65.933,65.933,0,0,0,16.084-1.994c13.666-3.441,25.116-10.685,32.24-20.4,8.137-11.1,10.26-25.678,5.407-37.15a2.82,2.82,0,0,0-2.261-1.8,1.548,1.548,0,0,0-1.23.606,1,1,0,0,0-.144,1,37.228,37.228,0,0,1-6.224,37.394,48.15,48.15,0,0,1-12.69,10.089,63.742,63.742,0,0,1-31.644,8.774,54.276,54.276,0,0,1-7.99-.586c-14.06-2.1-26.623-10.052-33.605-21.273-4.366-7.017-6.522-15.019-8.055-21.922A184.505,184.505,0,0,1,3.98,42.66c-.79-9.542-.894-23.225,7.294-31.849A22.6,22.6,0,0,1,27.389,3.945a21.123,21.123,0,0,1,2.327.128,10.16,10.16,0,0,0,1.116.065c2.783,0,3.446-1.374,3.593-2.194A1,1,0,0,0,33.716.807,21.117,21.117,0,0,0,27.9,0Z" transform="translate(0 0)"/>
  </g>
  <g>
    <path class="cls-1" d="M35.146,68a.6.6,0,0,1-.453-.263.513.513,0,0,1,.084-.662c.014-.012.115-.1.13-.107a.5.5,0,0,1,.781.466.59.59,0,0,1-.013.076.526.526,0,0,1-.529.49Z" transform="translate(0 0)"/>
    <path class="cls-2" d="M35.191,67.374H35.2m-.005,0v.01c-.016.084-.031.111-.045.111s-.027-.025-.042-.047a1.067,1.067,0,0,1,.087-.074m0-1h-.007a1,1,0,0,0-.593.2c-.044.033-.09.071-.135.112a1.04,1.04,0,0,0,.689,1.809,1.046,1.046,0,0,0,1.017-.877,1,1,0,0,0-.967-1.244h-.005Zm0,2h0Z" transform="translate(0 0)"/>
  </g>
  <g>
    <path class="cls-1" d="M30.505,72.207a1.676,1.676,0,0,1-.258-.021,1.8,1.8,0,0,1-1.5-1.563,20.779,20.779,0,0,0-.757-3.071c-.15-.5-.3-1-.433-1.5-.2-.743-.395-.743-.571-.743a1.377,1.377,0,0,0-.321.046,2.072,2.072,0,0,1-.51.061,2.9,2.9,0,0,1-.655-.08,1.441,1.441,0,0,1-1.158-1.56,1.313,1.313,0,0,1,1.047-1.345c.34-.071.685-.12,1-.164l.076-.011a.8.8,0,0,0-.1-.436,2.276,2.276,0,0,1-.149-.48c-.024-.143-.037-.3-.05-.458-.06-.754-.13-.814-.5-.814l-.1,0c-1.839.119-1.809,1.259-1.8,1.633a35.48,35.48,0,0,0,.988,6.492l.106.488a1.1,1.1,0,0,0,.1.226,2.282,2.282,0,0,1,.174.392,2,2,0,0,1-.623,2.478,1.01,1.01,0,0,1-.566.167,2.415,2.415,0,0,1-2.018-1.98,14.729,14.729,0,0,1-.152-2.095,10.505,10.505,0,0,0-.275-2.592,21.65,21.65,0,0,1-.521-2.837c-.037-.27-.075-.543-.116-.819a8.2,8.2,0,0,0-2.776,1.3,2.182,2.182,0,0,1-1.228.433,1.547,1.547,0,0,1-.906-.292,1.715,1.715,0,0,1-.478-1.816A1.475,1.475,0,0,1,16.8,60l.2-.053c1.3-.363,2.605-.806,3.869-1.233A49.214,49.214,0,0,1,27.1,56.908c.131-.026.26-.062.387-.1a3.228,3.228,0,0,1,.884-.158,1.608,1.608,0,0,1,.925.282l.125.082a1.6,1.6,0,0,1,.936,1.416,1.033,1.033,0,0,1-.934,1.007,1.082,1.082,0,0,0-.2.06,2.935,2.935,0,0,0-.054,2.372,1.955,1.955,0,0,0,.916.177,1.341,1.341,0,0,0,.758-.157c.2-.184.187-.355-.087-.967a1.985,1.985,0,0,1,.68-2.9,1.683,1.683,0,0,1,.808-.254c.279,0,.777.116.98.9a8.365,8.365,0,0,1,.168.885c.04.256.078.513.143.764.18.7.347.82.651.82.415-.026.614-.135.691-.637a4.181,4.181,0,0,1,2.491-2.984,3.688,3.688,0,0,1,1.745-.462,2.182,2.182,0,0,1,1.972,1,3.045,3.045,0,0,1-.229,3.475,9.79,9.79,0,0,1-2.917,2.374c-.881.537-.948.772-.478,1.673a3,3,0,0,0,2.57,1.526,2.327,2.327,0,0,0,.52-.058c2.292-.525,2.522-.89,2.057-3.248l-.046-.232c-.332-1.679-.676-3.415-1.157-5.068a1.629,1.629,0,0,1,1.141-2.276,1.728,1.728,0,0,1,.484-.075c.364,0,1.219.16,1.29,1.65a5.726,5.726,0,0,0,.236,1.188l.006.021a1.593,1.593,0,0,1,.393-.558,2.287,2.287,0,0,1,1.5-.8c.74,0,1.18.687,1.445,1.2a7.841,7.841,0,0,1,.6,1.821,8.773,8.773,0,0,0,.454,1.5,12.181,12.181,0,0,0,.5-1.794c.105-.459.21-.915.35-1.357l.115-.372a9.975,9.975,0,0,1,1.1-2.631,1.555,1.555,0,0,1,2.873.046,7.75,7.75,0,0,1,1.01,3.142c.23,1.768.373,3.569.51,5.312l.109,1.373a1.954,1.954,0,0,1-.328,1.485,1.132,1.132,0,0,1-.851.363h0a1.691,1.691,0,0,1-1.265-.483,1.936,1.936,0,0,1-.5-1.44l.013-.482c.029-1.09.059-2.217.017-3.313l-.01-.38a5.113,5.113,0,0,0-.254-1.791,7.183,7.183,0,0,0-.63,2.172,15.512,15.512,0,0,1-.959,3.135c-.188.489-.378.979-.54,1.478-.249.773-.7,1.166-1.335,1.166a1.823,1.823,0,0,1-.515-.08c-.4-.117-1.619-.475-1.339-1.679a2.212,2.212,0,0,0-.219-1.473c.006.131.015.263.023.4a6.412,6.412,0,0,1-.061,1.816c-.231,1.053-.563,2.08-1.839,2.08a4.412,4.412,0,0,1-1.162-.194,1.734,1.734,0,0,0-.452-.076.89.89,0,0,0-.477.148,6.447,6.447,0,0,1-3.3,1,4.615,4.615,0,0,1-2.214-.554.564.564,0,0,0,.122.087.5.5,0,0,1,.017.888,4.7,4.7,0,0,1-2.148.726c-1.173,0-1.657-1-1.919-1.748-.268-.766-.482-1.554-.69-2.316-.166-.606-.331-1.213-.523-1.811a1.318,1.318,0,0,0-1.257-.651,1.089,1.089,0,0,0-.829.3c-.106.122-.073.313.033.669.079.263.153.528.227.794a7.786,7.786,0,0,0,1.4,3.166,1.523,1.523,0,0,1,.191,2.1A1.782,1.782,0,0,1,30.505,72.207Z" transform="translate(0 0)"/>
    <path class="cls-2" d="M52.451,55.583a1.288,1.288,0,0,1,1.016.746,7.394,7.394,0,0,1,.939,2.945c.29,2.209.435,4.438.617,6.66.047.566.026,1.293-.69,1.307H54.3c-.772,0-1.241-.541-1.219-1.411.032-1.276.078-2.555.03-3.829a4.9,4.9,0,0,0-.744-3.126,6.588,6.588,0,0,0-1.144,3.068,30.437,30.437,0,0,1-1.48,4.537c-.156.482-.393.82-.86.82a1.339,1.339,0,0,1-.374-.06c-.576-.169-1.151-.4-.992-1.086.3-1.3-.578-2.214-.973-3.33-.533,1.258.022,2.576-.258,3.851-.257,1.172-.546,1.688-1.35,1.688a4,4,0,0,1-1.029-.176,2.2,2.2,0,0,0-.587-.095,1.372,1.372,0,0,0-.732.219,6,6,0,0,1-3.047.935,4.264,4.264,0,0,1-3.316-1.6,8.755,8.755,0,0,1-1.4-2.229c-.107-.279-.169-.452-.169-.452a4.464,4.464,0,0,0,.169.452c.425,1.105,1.562,3.886,2.407,4.3a4.361,4.361,0,0,1-1.91.664c-.694,0-1.115-.462-1.447-1.413-.471-1.348-.773-2.753-1.21-4.114a1.78,1.78,0,0,0-1.734-1,1.577,1.577,0,0,0-1.207.47,1.148,1.148,0,0,0-.067,1.141,10.541,10.541,0,0,0,1.729,4.143c.431.5.579.927.169,1.476a1.318,1.318,0,0,1-1.044.611,1.167,1.167,0,0,1-.181-.014,1.284,1.284,0,0,1-1.086-1.14,41.2,41.2,0,0,0-1.2-4.631c-.179-.681-.442-1.117-1.055-1.117a1.825,1.825,0,0,0-.443.062,1.6,1.6,0,0,1-.39.045,2.354,2.354,0,0,1-.538-.066.943.943,0,0,1-.773-1.051.818.818,0,0,1,.649-.878c.457-.1.922-.149,1.3-.207.413-.593-.014-1.014-.087-1.454-.114-.69.066-1.69-1.045-1.69q-.063,0-.132,0c-1.514.1-2.3.848-2.266,2.146a38.528,38.528,0,0,0,1.106,7.071c.049.229.218.43.287.658a1.56,1.56,0,0,1-.422,1.917.508.508,0,0,1-.288.082,1.955,1.955,0,0,1-1.525-1.562c-.261-1.562,0-3.166-.439-4.738a40,40,0,0,1-.7-4.114A8.373,8.373,0,0,0,17.8,62.511a1.72,1.72,0,0,1-.946.345,1.045,1.045,0,0,1-.617-.2c-.417-.3-.357-.823-.274-1.325.119-.715.6-.739,1.176-.9,3.373-.943,6.606-2.348,10.063-3.031a6.473,6.473,0,0,1,1.175-.247,1.122,1.122,0,0,1,.646.2c.388.26.857.49.839,1.068-.018.556-.5.47-.846.628-.626.289-.77,2.32-.264,3.1a1.8,1.8,0,0,0,1.333.4,1.743,1.743,0,0,0,1.1-.288c.508-.464.266-1.015.031-1.54-.385-.857-.6-1.662.467-2.254a1.245,1.245,0,0,1,.565-.192c.232,0,.4.152.5.523.141.539.17,1.107.309,1.647.156.608.385,1.2,1.136,1.2q.053,0,.111,0a1.077,1.077,0,0,0,1.075-1.056,3.7,3.7,0,0,1,2.237-2.621,3.2,3.2,0,0,1,1.506-.4,1.7,1.7,0,0,1,1.538.751,2.551,2.551,0,0,1-.2,2.924,9.316,9.316,0,0,1-2.777,2.246c-1.12.684-1.239,1.221-.66,2.331a3.509,3.509,0,0,0,3.014,1.8,2.822,2.822,0,0,0,.63-.07c2.544-.583,2.956-1.2,2.435-3.833-.354-1.792-.7-3.593-1.214-5.344-.274-.938.058-1.435.8-1.657a1.2,1.2,0,0,1,.341-.055c.594,0,.764.6.792,1.174.054,1.124.706,2.1.525,3.653.88-1.025.228-1.984.95-2.66a1.935,1.935,0,0,1,1.157-.668c.364,0,.673.3,1,.932.656,1.275.538,2.831,1.534,4.151a16.967,16.967,0,0,0,1.291-4.055A11.157,11.157,0,0,1,51.437,56.3a1.3,1.3,0,0,1,1.013-.713m-14.176,5c.327-.013.631-.106.691-.48a.442.442,0,0,0-.482-.553c-.025,0-.05,0-.076,0a.66.66,0,0,0-.627.594c-.026.3.269.346.494.435m14.177-6v0A2.2,2.2,0,0,0,50.6,55.746,10.346,10.346,0,0,0,49.441,58.5l-.116.373c-.148.468-.255.94-.359,1.4l-.026.114a7.654,7.654,0,0,0-.6-1.763c-.188-.365-.759-1.474-1.89-1.474a2.54,2.54,0,0,0-1.624.743q-.006-.059-.009-.117c-.075-1.568-.974-2.126-1.791-2.126a2.2,2.2,0,0,0-.627.1A2.1,2.1,0,0,0,40.887,57.1a2.931,2.931,0,0,0-1.773-.542,4.178,4.178,0,0,0-1.984.523,4.682,4.682,0,0,0-2.747,3.348.717.717,0,0,1-.053.2h0c-.012,0-.046.007-.1.011h-.054a1.805,1.805,0,0,1-.153-.442c-.056-.219-.093-.461-.132-.717a8.942,8.942,0,0,0-.178-.934,1.5,1.5,0,0,0-1.464-1.27,2.146,2.146,0,0,0-1.05.317,3.358,3.358,0,0,0-.406.263A2.323,2.323,0,0,0,29.7,56.6l-.118-.077a2.125,2.125,0,0,0-1.2-.367,3.678,3.678,0,0,0-1.018.177c-.115.032-.232.066-.35.089a49.789,49.789,0,0,0-6.295,1.823c-1.257.426-2.558.866-3.845,1.226l-.191.05a1.962,1.962,0,0,0-1.7,1.649,2.192,2.192,0,0,0,.681,2.305,2.057,2.057,0,0,0,1.2.385,2.673,2.673,0,0,0,1.511-.52,8.343,8.343,0,0,1,2.079-1.079l.035.251a22.026,22.026,0,0,0,.534,2.9,10.16,10.16,0,0,1,.258,2.471,15.229,15.229,0,0,0,.159,2.165,2.915,2.915,0,0,0,2.511,2.4,1.51,1.51,0,0,0,.844-.251,2.46,2.46,0,0,0,.823-3.037,2.623,2.623,0,0,0-.211-.482,1.087,1.087,0,0,1-.063-.125l-.1-.448c-.188-.869-.372-1.72-.53-2.563a2.174,2.174,0,0,0,.674.281,3.33,3.33,0,0,0,.77.093,2.6,2.6,0,0,0,.635-.075,1.061,1.061,0,0,1,.158-.029,1.879,1.879,0,0,1,.128.369c.134.511.286,1.018.438,1.524a20.513,20.513,0,0,1,.74,2.993A2.283,2.283,0,0,0,30.17,72.68a2.166,2.166,0,0,0,.336.026A2.26,2.26,0,0,0,32.351,71.7a2,2,0,0,0-.214-2.731,7.432,7.432,0,0,1-1.3-2.976c-.074-.268-.149-.535-.229-.8-.018-.06-.05-.167-.067-.246a.862.862,0,0,1,.383-.076.961.961,0,0,1,.782.305c.187.583.354,1.195.516,1.787.211.771.428,1.569.7,2.351a2.647,2.647,0,0,0,2.391,2.083,5.145,5.145,0,0,0,2.387-.786,1,1,0,0,0,.464-.54,5.211,5.211,0,0,0,1.372.18A6.935,6.935,0,0,0,43.1,69.17a.379.379,0,0,1,.219-.077,1.319,1.319,0,0,1,.32.058,4.888,4.888,0,0,0,1.3.212,2.175,2.175,0,0,0,2.136-1.735,3.16,3.16,0,0,0,1.157.572,2.341,2.341,0,0,0,.655.1,1.872,1.872,0,0,0,1.812-1.511c.157-.484.339-.957.533-1.458a18.005,18.005,0,0,0,.9-2.775c.017.922-.008,1.862-.032,2.776l-.012.473a2.421,2.421,0,0,0,.638,1.8,2.149,2.149,0,0,0,1.58.634h.053a1.622,1.622,0,0,0,1.212-.528,2.428,2.428,0,0,0,.455-1.861l-.109-1.361c-.138-1.752-.28-3.565-.514-5.348a8.317,8.317,0,0,0-1.08-3.34,2.2,2.2,0,0,0-1.867-1.221ZM29.558,59.921a2.524,2.524,0,0,0,.352-.113,4.144,4.144,0,0,0,.39,1.321c.045.1.119.266.157.383a1.758,1.758,0,0,1-.374.036,2.053,2.053,0,0,1-.552-.07,3.017,3.017,0,0,1,.026-1.556ZM24.295,62.5q-.029-.406-.04-.815c-.01-.386-.027-1.034,1.331-1.121h.036c.016.105.027.247.036.352.014.173.028.343.054.5a2.276,2.276,0,0,0,.116.421c-.179.028-.362.06-.544.1a1.749,1.749,0,0,0-.989.566Zm13.382,2.238a1.625,1.625,0,0,1,.522-.409,10.285,10.285,0,0,0,3.058-2.5,4.089,4.089,0,0,0,.332-.524c.173.794.33,1.591.485,2.375l.043.216c.415,2.1.352,2.2-1.678,2.664a1.822,1.822,0,0,1-.407.044A2.51,2.51,0,0,1,37.9,65.346a1.413,1.413,0,0,1-.228-.606Z" transform="translate(0 0)"/>
  </g>
  <g>
    <path class="cls-1" d="M90.776,91.845a1.427,1.427,0,0,1-1.04-.531,1.587,1.587,0,0,1-.278-1.249c.422-2.581-.324-4.932-1.114-7.421-.11-.35-.222-.7-.329-1.049a2.259,2.259,0,0,0-.256.7l-.035.136c-.362,1.389-.68,2.819-.987,4.2l-.147.666c-.329,1.471-1.253,1.689-1.773,1.689a2.319,2.319,0,0,1-.492-.056,1.528,1.528,0,0,1-1.054-.687,2.07,2.07,0,0,1-.05-1.637,2.178,2.178,0,0,0,.115-.847c-.218.146-.434.3-.656.462a10.786,10.786,0,0,1-1.787,1.111,6.223,6.223,0,0,1-2.585.641,4.459,4.459,0,0,1-2.649-.882,2.2,2.2,0,0,0-1.243-.513,1.51,1.51,0,0,0-.824.276,2.937,2.937,0,0,1-1.46.521,1.223,1.223,0,0,1-.676-.188,1.628,1.628,0,0,0-.885-.309,2.82,2.82,0,0,0-1.532.77c-.13.1-.26.2-.391.291a4.862,4.862,0,0,1-2.886.95,7.807,7.807,0,0,1-3.286-.855,2.847,2.847,0,0,1-1.633-2.588A1.545,1.545,0,0,1,62,83.9a1.243,1.243,0,0,1,.3-.04,1.384,1.384,0,0,1,1.142.835,2.694,2.694,0,0,0,2.259,1.445,2.757,2.757,0,0,0,1.759-.706c.193-.163.308-.321.307-.424s-.107-.233-.29-.377a23.479,23.479,0,0,0-4.44-2.6c-.624-.295-1.19-.588-1.731-.9a2.328,2.328,0,0,1-.953-2.637c.22-1.285,2.424-2.661,3.81-2.661a1.771,1.771,0,0,1,.4.043,1.52,1.52,0,0,1,1.274,1.048c.111.411.067,1.009-.776,1.515a2.344,2.344,0,0,1-.369.17,1.293,1.293,0,0,0-.238.11c-.433.318-.447.46-.447.461h0s.035.119.376.317l.676.4a18.65,18.65,0,0,0,2.768,1.446,3.311,3.311,0,0,0,.035-.63c0-.162,0-.321.011-.48.155-2,1.318-3.248,3.037-3.248a4.362,4.362,0,0,1,1.56.313A4.574,4.574,0,0,1,74.3,78.382c.265.288.4.288.447.288a.974.974,0,0,0,.517-.257c.657-.515,4.749-.841,5.669-.841a2.811,2.811,0,0,1,.4.022,2.744,2.744,0,0,1,1.881,1.194c.09.125.173.258.256.391a2.144,2.144,0,0,0,.543.673,1.22,1.22,0,0,0,.152-.683,1.646,1.646,0,0,1,.9-1.309,1.192,1.192,0,0,1,.632-.189,1.653,1.653,0,0,1,1.013.449c.056.044.132.1.188.14.119-.085.23-.181.341-.276a2.338,2.338,0,0,1,1.557-.723c.054,0,.108,0,.165.007a1.53,1.53,0,0,1,1.475,1.285c.212,1.488.562,2.986.9,4.437a37.849,37.849,0,0,1,1.106,6.385,3.841,3.841,0,0,1-.013.5c-.007.087-.014.173-.015.259-.021,1.554-1.031,1.722-1.465,1.722C90.953,91.853,90.837,91.85,90.776,91.845ZM76.753,81.605a5.269,5.269,0,0,0-.088,1.611c.011.225.021.447.021.669,0,.467.15.981,1.283,1.252a2.106,2.106,0,0,0,.492.054,4.041,4.041,0,0,0,3.23-1.812,2.523,2.523,0,0,0-.494-2.827,1.624,1.624,0,0,0-.87-.307c-.469,0-.925.331-1.355.982a1.441,1.441,0,0,1-1.182.792,1.9,1.9,0,0,1-1.024-.407Zm-4.482-1.2a5.634,5.634,0,0,0-1.5,1.854c.038,1.182.606,2.064,1.354,2.064.716-.015,1.43-.23,1.454-1.72a2.987,2.987,0,0,0-.838-1.879A1.107,1.107,0,0,0,72.271,80.41Z" transform="translate(0 0)"/>
    <path class="cls-2" d="M64.167,76.337a1.285,1.285,0,0,1,.286.03,1.08,1.08,0,0,1,.9.69c.12.444-.2.743-.551.956-.2.122-.458.168-.646.306-.7.515-1.012,1.041-.026,1.614a20.884,20.884,0,0,0,4,2.05,3.766,3.766,0,0,0,.241-1.71c.137-1.779,1.124-2.786,2.538-2.786a3.864,3.864,0,0,1,1.38.28,4.1,4.1,0,0,1,1.64.952,1.127,1.127,0,0,0,.815.45,1.384,1.384,0,0,0,.825-.363c.449-.352,4.123-.734,5.36-.734a2.315,2.315,0,0,1,.324.016,2.262,2.262,0,0,1,1.555.993c.359.5.6,1.137,1.261,1.346.521-.264.566-.739.594-1.229a1.134,1.134,0,0,1,.667-.912.7.7,0,0,1,.37-.114c.5,0,.853.614,1.217.614a.335.335,0,0,0,.187-.059c.556-.365.947-.966,1.693-.965q.06,0,.123.005a1.032,1.032,0,0,1,1.021.859c.516,3.622,1.789,7.1,2,10.779.014.238-.024.479-.028.719-.01.691-.24,1.23-.965,1.23q-.065,0-.135-.006a.946.946,0,0,1-.867-1.2c.537-3.292-.747-6.247-1.637-9.291-.807.171-.922.871-1.074,1.454-.422,1.618-.776,3.254-1.14,4.886-.174.779-.568,1.3-1.286,1.3a1.821,1.821,0,0,1-.385-.044c-.942-.2-.966-.9-.73-1.692A2.255,2.255,0,0,0,83.624,85c-1.019.58-1.867,1.4-2.94,1.887a5.75,5.75,0,0,1-2.377.6,3.986,3.986,0,0,1-2.361-.791,2.7,2.7,0,0,0-1.531-.6,1.991,1.991,0,0,0-1.1.358,2.432,2.432,0,0,1-1.186.439.73.73,0,0,1-.4-.108,2.107,2.107,0,0,0-1.156-.388,4.148,4.148,0,0,0-2.215,1.155,4.335,4.335,0,0,1-2.594.856,7.45,7.45,0,0,1-3.076-.809,2.358,2.358,0,0,1-1.343-2.135,1.04,1.04,0,0,1,.786-1.07.73.73,0,0,1,.18-.024c.332,0,.516.275.715.6a3.19,3.19,0,0,0,2.685,1.683,3.242,3.242,0,0,0,2.08-.824c.593-.5.7-1.035,0-1.576a23.656,23.656,0,0,0-4.535-2.659c-.576-.272-1.144-.563-1.7-.877a1.8,1.8,0,0,1-.707-2.118c.17-.993,2.148-2.245,3.316-2.245m13.624,5.184c-.414,0-.808-.434-1.309-.64a6.379,6.379,0,0,0-.3,3c0,1.074.758,1.523,1.667,1.74a2.628,2.628,0,0,0,.609.068,4.524,4.524,0,0,0,3.674-2.082,2.993,2.993,0,0,0-.665-3.476,2.1,2.1,0,0,0-1.143-.387,2.2,2.2,0,0,0-1.772,1.207c-.278.421-.525.567-.765.567M72.126,84.83h.031c1.256-.026,1.9-.767,1.924-2.212C74.1,81.46,73.034,79.9,72.224,79.9h0a4.8,4.8,0,0,0-1.945,2.341c.046,1.508.82,2.584,1.851,2.584m-7.959-9.493h0c-1.613,0-4.035,1.521-4.3,3.077a2.806,2.806,0,0,0,1.2,3.156c.549.312,1.126.61,1.764.912a22.962,22.962,0,0,1,4.344,2.541l-.028.024a2.266,2.266,0,0,1-1.438.59,2.217,2.217,0,0,1-1.834-1.209,1.868,1.868,0,0,0-1.565-1.071,1.734,1.734,0,0,0-.426.055,2.03,2.03,0,0,0-1.54,2.04,3.353,3.353,0,0,0,1.923,3.042,8.28,8.28,0,0,0,3.5.9,5.357,5.357,0,0,0,3.177-1.044c.135-.1.269-.2.4-.3a2.568,2.568,0,0,1,1.23-.668,1.162,1.162,0,0,1,.612.227,1.713,1.713,0,0,0,.949.27,3.355,3.355,0,0,0,1.731-.6,1.03,1.03,0,0,1,.553-.2,1.8,1.8,0,0,1,.953.42,5.011,5.011,0,0,0,2.939.975,6.694,6.694,0,0,0,2.793-.687,9.5,9.5,0,0,0,1.538-.922,2.308,2.308,0,0,0,.2,1.633,2.013,2.013,0,0,0,1.379.922,2.826,2.826,0,0,0,.6.067,2.289,2.289,0,0,0,2.262-2.08l.152-.682c.252-1.133.511-2.3.8-3.442a14.32,14.32,0,0,1,.941,6.7,2.079,2.079,0,0,0,.378,1.637,1.94,1.94,0,0,0,1.393.723q.113.009.218.009a1.959,1.959,0,0,0,1.964-2.216c0-.077.007-.154.013-.231a4.148,4.148,0,0,0,.013-.56,38.217,38.217,0,0,0-1.119-6.468c-.336-1.439-.683-2.927-.892-4.394a2.014,2.014,0,0,0-1.926-1.714c-.071-.006-.141-.009-.208-.009a2.789,2.789,0,0,0-1.881.844l-.026.022a1.973,1.973,0,0,0-1.19-.455,1.687,1.687,0,0,0-.894.263,2.258,2.258,0,0,0-1.06,1.246c-.041-.062-.083-.124-.126-.184a3.254,3.254,0,0,0-2.209-1.4,3.121,3.121,0,0,0-.482-.029c-.386,0-5.076.24-5.977.947a1.4,1.4,0,0,1-.182.125,1.152,1.152,0,0,1-.1-.1,4.984,4.984,0,0,0-2.018-1.209,4.857,4.857,0,0,0-1.739-.347c-1.974,0-3.362,1.456-3.535,3.709-.01.134-.013.269-.013.4-.685-.322-1.352-.718-2.044-1.13q-.287-.171-.575-.34l.009-.006c.026-.013.075-.028.122-.046a2.792,2.792,0,0,0,.446-.208,1.793,1.793,0,0,0,1-2.074,1.986,1.986,0,0,0-1.646-1.4,2.285,2.285,0,0,0-.51-.055Zm13.624,7.184a1.923,1.923,0,0,0,1.6-1.017c.228-.346.576-.758.938-.758a1.2,1.2,0,0,1,.6.224,2.091,2.091,0,0,1,.323,2.181,3.531,3.531,0,0,1-2.785,1.54,1.633,1.633,0,0,1-.377-.04c-.9-.215-.9-.52-.9-.765,0-.229-.01-.459-.021-.692-.013-.279-.026-.543-.016-.8a1.735,1.735,0,0,0,.643.127Z" transform="translate(0 0)"/>
  </g>
  <g>
    <path class="cls-1" d="M109.486,52.267a1.334,1.334,0,0,1-1.136-.67,1.913,1.913,0,0,1-.106-1.792,4.023,4.023,0,0,1,1.8-1.578l.173-.1a14.462,14.462,0,0,0,3.993-3.407,47.972,47.972,0,0,1-7.5-2.553c-.751-.327-1.756-.885-1.812-1.938a2.547,2.547,0,0,1,.457-1.408l.062-.11c1.176-2.1,1.307-4.694,1.423-6.984a14.71,14.71,0,0,0-.328-5.069,14.907,14.907,0,0,0-2.3-4.059l-.4-.557c-.307-.436-.607-.877-.908-1.317a31.956,31.956,0,0,0-3.091-4.052,25.8,25.8,0,0,0-6.734-4.753,69.767,69.767,0,0,0-17.71-6.5c-.747-.164-1.83-.871-1.833-1.721,0-.325.158-.906,1.235-1.149a2.05,2.05,0,0,1,.443-.047,4.086,4.086,0,0,1,1.231.248C83.251,4.937,90.3,7.2,96.54,11.025a26.1,26.1,0,0,1,5.147,3.962,36.607,36.607,0,0,1,3.5,4.389,23.381,23.381,0,0,1,3.858,6.968,23.408,23.408,0,0,1,.41,7.758l-.345,5.693a1.067,1.067,0,0,0,.044.513,1.007,1.007,0,0,0,.43.248,24.964,24.964,0,0,0,6.584,1.578l.121.513.047-.5c2.2.206,2.712,1.118,2.749,1.847.059,1.118-1.071,1.776-1.613,2.092a26.728,26.728,0,0,0-6.487,5.29,2.177,2.177,0,0,1-1.427.888Z" transform="translate(0 0)"/>
    <path class="cls-2" d="M75.207,3a3.619,3.619,0,0,1,1.079.225c6.879,2.206,13.834,4.447,19.993,8.223a25.972,25.972,0,0,1,5.052,3.886,36.39,36.39,0,0,1,3.45,4.33,22.749,22.749,0,0,1,3.783,6.813,22.746,22.746,0,0,1,.393,7.591l-.345,5.694a1.345,1.345,0,0,0,.121.812,1.311,1.311,0,0,0,.671.446,25.5,25.5,0,0,0,6.715,1.608l.171.016c.975.09,2.246.4,2.3,1.374.039.749-.719,1.257-1.366,1.634a27.329,27.329,0,0,0-6.609,5.388,1.729,1.729,0,0,1-1.081.721h-.044c-.748,0-1.131-1.057-.793-1.741a4,4,0,0,1,1.769-1.465,14.878,14.878,0,0,0,4.609-4.146A47.388,47.388,0,0,1,106.9,41.71c-.689-.3-1.471-.757-1.511-1.507a2.415,2.415,0,0,1,.456-1.247c1.209-2.16,1.361-4.732,1.485-7.2a15.125,15.125,0,0,0-.349-5.243,17.691,17.691,0,0,0-2.768-4.755,46.415,46.415,0,0,0-4.046-5.426,26.165,26.165,0,0,0-6.862-4.85A70.309,70.309,0,0,0,75.468,4.932c-1-.219-2.34-1.5-.6-1.894A1.521,1.521,0,0,1,75.207,3m0-1a2.532,2.532,0,0,0-.553.06c-1.47.331-1.626,1.256-1.625,1.638,0,1.174,1.33,2.012,2.226,2.209a69.207,69.207,0,0,1,17.582,6.453,25.357,25.357,0,0,1,6.606,4.655A31.048,31.048,0,0,1,102.481,21c.3.444.606.888.915,1.327l.4.556a14.305,14.305,0,0,1,2.235,3.919,14.325,14.325,0,0,1,.306,4.9c-.112,2.234-.239,4.766-1.359,6.766l-.062.11a3.039,3.039,0,0,0-.52,1.679c.079,1.485,1.608,2.151,2.111,2.37A48.5,48.5,0,0,0,113.3,45a13.933,13.933,0,0,1-3.341,2.691l-.171.1a4.48,4.48,0,0,0-2,1.791,2.4,2.4,0,0,0,.129,2.277,1.824,1.824,0,0,0,1.561.907l.1,0a2.625,2.625,0,0,0,1.771-1.053,26.235,26.235,0,0,1,6.366-5.191c.579-.337,1.936-1.127,1.862-2.551-.04-.759-.508-2.069-3.2-2.318l-.165-.016a24.463,24.463,0,0,1-6.451-1.545q-.1-.04-.164-.068c0-.068.005-.152.008-.2l.164-2.707.181-2.987a23.773,23.773,0,0,0-.429-7.924,23.764,23.764,0,0,0-3.932-7.123,37.283,37.283,0,0,0-3.548-4.447A26.592,26.592,0,0,0,96.8,10.6c-6.3-3.86-13.369-6.129-20.21-8.323A4.527,4.527,0,0,0,75.207,2Z" transform="translate(0 0)"/>
  </g>
  <g>
    <path class="cls-1" d="M89.219,71.2c-.766,0-1.325-.554-1.5-1.481a4,4,0,0,1-.048-.791c0-.151,0-.3-.011-.452q-.028-.3-.06-.6a1.1,1.1,0,0,1-.054.139,1.389,1.389,0,0,1-.842.713,1.652,1.652,0,0,1-.566.108c-.962,0-1.282-.975-1.418-1.391-.148-.451-.265-.913-.381-1.375-.06-.24-.12-.481-.186-.72-.043-.158-.08-.316-.118-.476-.226-.957-.4-1.511-1.258-1.771a1.444,1.444,0,0,1-.7-.453,13.461,13.461,0,0,0,.58,2.027,2.179,2.179,0,0,0,.194.364,3.631,3.631,0,0,1,.248.462c.165.39.67,1.582-.466,2.117a1.844,1.844,0,0,1-.793.186,1.745,1.745,0,0,1-1.634-1.234,20.853,20.853,0,0,1-.843-3.552l-.11-.672a16.177,16.177,0,0,1-.32-3.455c.031-.682-.055-.808-.072-.826,0,0-.048-.04-.27-.04a4.765,4.765,0,0,0-.634.058c-.115.016-.23.043-.347.068a3.213,3.213,0,0,1-.718.1,1.517,1.517,0,0,1-.241-.018,1.268,1.268,0,0,0-.182-.016c-.161,0-.258,0-.278.475a17.41,17.41,0,0,0,.272,3.284c.1.685.2,1.392.257,2.1.014.188.17.317.5.55l.205.148c.442.328,1.055.782.73,1.707a2.019,2.019,0,0,1-1.924,1.307c-.061.006-.121.008-.18.008a1.549,1.549,0,0,1-1.567-1.3l-.2-.862a26.081,26.081,0,0,1-.571-2.926c-.09-.763-.122-1.533-.152-2.278a19.162,19.162,0,0,0-.34-3.37,2.054,2.054,0,0,1,.189-1.795,1.4,1.4,0,0,1,1.152-.472,3.3,3.3,0,0,1,.511.043,14.666,14.666,0,0,0,2.277.154c.685,0,1.37-.03,2.055-.06s1.4-.062,2.095-.062c.573,0,1.087.021,1.568.063l.477.037a11.247,11.247,0,0,1,1.478.174,1.364,1.364,0,0,1,1.107.771,1.461,1.461,0,0,1-.349,1.392,4.161,4.161,0,0,0-.006,3.109.606.606,0,0,0,.436.154,2.973,2.973,0,0,0,.572-.083,4.078,4.078,0,0,1,.722-.1c.1-.023.172-.106.137-.545a6.675,6.675,0,0,1,.09-1.484,4.357,4.357,0,0,0,.012-1.723,1.534,1.534,0,0,1,.24-1.352,1.575,1.575,0,0,1,1.286-.582,2.287,2.287,0,0,1,.277.018,1.464,1.464,0,0,1,1.025.548,1.9,1.9,0,0,1,.278,1.465c-.048.328-.121.652-.2.977a8.972,8.972,0,0,0-.207,1.106l-.017.167c-.038.354-.081.757.048.9a.935.935,0,0,0,.636.165,1.192,1.192,0,0,1,1.111.917,1.1,1.1,0,0,1-.526,1.261c-2.081,1.183-1.82,2.815-1.52,4.706.079.5.162,1.014.2,1.521.012.173.037.343.063.513.021.141.041.281.056.423a1.809,1.809,0,0,1-.273,1.395,1.231,1.231,0,0,1-.9.414Zm-2.678-7.724a15.925,15.925,0,0,0,.9,3l.007.017c-.064-.61-.122-1.231-.146-1.852l0-.12a4.329,4.329,0,0,0-.1-1.05h0a2.1,2.1,0,0,0-.254-.015C86.826,63.455,86.694,63.461,86.541,63.472Zm-4.4-5.837c-.2,0-.311.014-.335.412a19.072,19.072,0,0,0,.063,3.218,1.637,1.637,0,0,1,.389-.574c.554-.535.472-1.034.28-1.872a6.682,6.682,0,0,1-.158-.874c-.027-.3-.057-.3-.216-.31Z" transform="translate(0 0)"/>
    <path class="cls-2" d="M89.276,55.194a1.725,1.725,0,0,1,.214.014c.817.1.972.752.871,1.445s-.333,1.4-.4,2.1c-.084.85-.28,1.755,1.154,1.784a.68.68,0,0,1,.349,1.243c-2.993,1.7-1.742,4.311-1.576,6.7.022.319.087.634.12.952.062.589.047,1.209-.712,1.258l-.074,0c-.612,0-.9-.511-1.007-1.072-.073-.388-.016-.8-.052-1.2-.114-1.27-.3-2.536-.354-3.807-.053-1.356-.039-1.664-.864-1.664-.242,0-.555.026-.963.061a14.252,14.252,0,0,0,1,3.634c.24.636.384,1.3-.442,1.6a1.168,1.168,0,0,1-.4.078c-.548,0-.774-.534-.943-1.047-.223-.678-.37-1.38-.558-2.07-.285-1.046-.334-2.178-1.715-2.593a.9.9,0,0,1-.32-1.568c1.048-1.012.37-2.087.273-3.15-.04-.439-.182-.749-.7-.765H82.13c-.59,0-.793.364-.824.883a16.408,16.408,0,0,0,.888,6.828c.111.3.327.552.45.845.224.531.427,1.168-.218,1.472a1.354,1.354,0,0,1-.579.137,1.243,1.243,0,0,1-1.162-.9,20.437,20.437,0,0,1-.822-3.466,19.7,19.7,0,0,1-.426-4.026c.05-1.067-.127-1.389-.841-1.389a5.284,5.284,0,0,0-.7.062,7.691,7.691,0,0,1-1,.168,1.1,1.1,0,0,1-.167-.012,1.7,1.7,0,0,0-.257-.021c-.579,0-.752.382-.777.953a46.316,46.316,0,0,0,.53,5.443c.04.53.521.773.9,1.059s.778.523.561,1.143a1.5,1.5,0,0,1-1.5.975q-.07.006-.136.006a1.054,1.054,0,0,1-1.08-.914,36.949,36.949,0,0,1-.763-3.737,55.163,55.163,0,0,0-.5-5.7c-.254-1.138.01-1.658.854-1.658a2.861,2.861,0,0,1,.434.037,15.313,15.313,0,0,0,2.353.16c1.385,0,2.768-.121,4.15-.121.508,0,1.016.016,1.525.061a16.513,16.513,0,0,1,1.9.2c.871.181.981.665.457,1.375-.564.763-.522,3.267.068,3.782a1.105,1.105,0,0,0,.765.279c.431,0,.878-.177,1.3-.186.654-.014.661-.626.624-1.084-.091-1.1.385-2.151.089-3.293a1,1,0,0,1,1.042-1.308m0-1h0a2.092,2.092,0,0,0-1.682.776,2.047,2.047,0,0,0-.329,1.784,3.959,3.959,0,0,1-.024,1.529,7.193,7.193,0,0,0-.093,1.594l0,.031c-.165.022-.319.055-.463.084a2.711,2.711,0,0,1-.471.073.23.23,0,0,1-.069-.007,4.154,4.154,0,0,1,.042-2.462,1.92,1.92,0,0,0,.413-1.866,1.817,1.817,0,0,0-1.472-1.081,11.6,11.6,0,0,0-1.539-.183c-.158-.012-.317-.023-.474-.037-.5-.044-1.024-.065-1.613-.065-.712,0-1.426.031-2.116.062-.67.029-1.363.06-2.034.06a14.168,14.168,0,0,1-2.2-.149,3.868,3.868,0,0,0-.587-.049,1.87,1.87,0,0,0-1.543.659,2.593,2.593,0,0,0-.287,2.216,18.489,18.489,0,0,1,.328,3.28c.031.755.063,1.535.155,2.318A26.7,26.7,0,0,0,73.8,65.75c.067.284.134.568.2.852A2.046,2.046,0,0,0,76.058,68.3q.109,0,.223-.01a2.505,2.505,0,0,0,2.352-1.641,1.824,1.824,0,0,0-.829-2.217l-.074-.055c-.069-.052-.142-.1-.215-.155a2.737,2.737,0,0,1-.294-.226c-.055-.71-.157-1.409-.256-2.086a17.233,17.233,0,0,1-.27-3.165q.1.01.2.009a3.687,3.687,0,0,0,.83-.117c.1-.023.2-.047.3-.061.168-.024.3-.039.412-.047,0,.084,0,.194-.006.337a16.552,16.552,0,0,0,.327,3.557c.037.223.075.447.11.671a21.333,21.333,0,0,0,.865,3.636A2.238,2.238,0,0,0,81.846,68.3a2.345,2.345,0,0,0,1.006-.232c.586-.276,1.458-1,.712-2.766a3.964,3.964,0,0,0-.281-.525,2.093,2.093,0,0,1-.154-.28q-.155-.413-.281-.841c.389.179.505.492.7,1.327.039.164.078.329.123.493.063.233.122.468.181.7.116.462.235.941.392,1.417.141.429.57,1.734,1.893,1.734a2.168,2.168,0,0,0,.737-.138,2.422,2.422,0,0,0,.295-.129,3.98,3.98,0,0,0,.057.746,2.062,2.062,0,0,0,1.99,1.888q.068,0,.139,0a1.722,1.722,0,0,0,1.254-.591A2.322,2.322,0,0,0,91,69.331c-.016-.149-.037-.3-.059-.447s-.047-.313-.058-.471c-.037-.53-.121-1.057-.2-1.566-.333-2.091-.427-3.226,1.274-4.193a1.611,1.611,0,0,0,.763-1.819,1.693,1.693,0,0,0-1.585-1.293,1.549,1.549,0,0,1-.234-.02,4.885,4.885,0,0,1,.037-.494l.018-.172a8.712,8.712,0,0,1,.2-1.046c.074-.325.151-.66.2-1.013a2.373,2.373,0,0,0-.375-1.84,1.952,1.952,0,0,0-1.361-.741,2.728,2.728,0,0,0-.339-.021Z" transform="translate(0 0)"/>
  </g>
  <g>
    <path class="cls-1" d="M37.8,17.519a.542.542,0,0,1-.439-.231l-.021-.034a.5.5,0,0,1,.571-.738.528.528,0,0,1,.322.29.478.478,0,0,1-.183.643A.461.461,0,0,1,37.8,17.519Z" transform="translate(0 0)"/>
    <path class="cls-2" d="M37.768,16.993l.006.012-.007-.011h0m.006.012h0m-.006-1.012a1,1,0,0,0-.834,1.553c.012.018.024.036.036.052a1,1,0,0,0,1.695-1.05,1.011,1.011,0,0,0-.9-.555ZM37.775,18h0Z" transform="translate(0 0)"/>
  </g>
  <g>
    <path class="cls-1" d="M69.081,28.528c-.486,0-1.338-.232-1.581-1.792-.273-1.748-.517-3.5-.761-5.251l-.188-1.347c-.062-.442-.131-.957-.154-1.471C66.365,18,66.167,18,66.082,18a1.429,1.429,0,0,0-.555.153l-.481.217c-.277.127-.555.253-.836.371a1.883,1.883,0,0,1-.728.158,1.285,1.285,0,0,1-1.157-.677,1.459,1.459,0,0,1,.706-2.074,5.446,5.446,0,0,1,1.461-.551,43.14,43.14,0,0,1,5.562-.823c1.056-.108,2.147-.222,3.209-.379a2.136,2.136,0,0,1,.325-.025,1.416,1.416,0,0,1,1.046.405,1.6,1.6,0,0,1,.409,1.212.909.909,0,0,0,.118.595.974.974,0,0,0,.633.133l.419-.01c2.488,0,3.341,2.145,3.905,3.564a4.005,4.005,0,0,1-1.575,4.564,5.8,5.8,0,0,1-3.485,1.351h0c-2.183,0-3.768-1.714-4.036-4.365a1.7,1.7,0,0,1,.02-.412c0-.038.012-.075.015-.109a3.055,3.055,0,0,1,.319-3.989,1.1,1.1,0,0,0-.186-.021l-.558,0c-.333,0-1.027,0-1.181.158a4.108,4.108,0,0,0-.127,1.749,17.28,17.28,0,0,0,1.2,6.755,2.023,2.023,0,0,1,.14,1.636,1.508,1.508,0,0,1-.943.83A1.929,1.929,0,0,1,69.081,28.528ZM74.964,19.2a1.02,1.02,0,0,0-.79.235,2.716,2.716,0,0,0-.389,1.8c0,1.222.65,2.215,1.445,2.215a2.3,2.3,0,0,0,2.184-2.166A2.3,2.3,0,0,0,75,19.2l-.037-.5Z" transform="translate(0 0)"/>
    <path class="cls-2" d="M73.589,14.869c.629,0,.972.4.954,1.1-.026,1,.4,1.24,1.248,1.24q.117,0,.244-.006c.06,0,.119,0,.177,0,2.053,0,2.8,1.646,3.441,3.249a3.5,3.5,0,0,1-1.416,3.985,5.3,5.3,0,0,1-3.18,1.246c-1.843,0-3.284-1.4-3.539-3.916-.024-.232.1-.54-.008-.693-1.045-1.457-.557-2.714.837-4.085a10.279,10.279,0,0,0-1.153-.2c-.206,0-.395,0-.568,0-1.79,0-1.878.23-1.8,2.423a17.724,17.724,0,0,0,1.246,6.947c.366.8.288,1.5-.516,1.786a1.436,1.436,0,0,1-.474.09c-.684,0-.977-.664-1.087-1.37-.342-2.193-.64-4.392-.948-6.59-.066-.473-.128-.948-.15-1.424-.037-.781-.314-1.146-.812-1.146a1.938,1.938,0,0,0-.759.2c-.436.193-.867.4-1.307.584a1.4,1.4,0,0,1-.534.119.793.793,0,0,1-.724-.424c-.346-.606,0-1.095.52-1.394a5.015,5.015,0,0,1,1.329-.5c2.869-.684,5.823-.762,8.728-1.194a1.715,1.715,0,0,1,.252-.02m1.642,9.085q.055,0,.11,0a2.792,2.792,0,0,0,2.573-2.674A2.782,2.782,0,0,0,75.008,18.7h-.043c-1.228,0-1.683.692-1.679,2.539,0,1.526.867,2.714,1.946,2.714M73.589,13.869h0a2.709,2.709,0,0,0-.4.031c-1.049.156-2.134.268-3.183.376a43.343,43.343,0,0,0-5.63.834,5.915,5.915,0,0,0-1.6.6,1.947,1.947,0,0,0-.891,2.756,1.792,1.792,0,0,0,1.592.928,2.377,2.377,0,0,0,.922-.2c.285-.12.567-.248.849-.377.158-.072.317-.144.475-.215.06-.027.111-.047.155-.062,0,.041.009.088.011.144.025.535.095,1.063.159,1.516l.182,1.306c.242,1.737.492,3.533.768,5.3.313,2,1.555,2.216,2.075,2.216a2.437,2.437,0,0,0,.806-.147,2,2,0,0,0,1.238-1.107,2.46,2.46,0,0,0-.145-2.041,16.853,16.853,0,0,1-1.155-6.563,10.012,10.012,0,0,1,.012-1.351,4.351,4.351,0,0,1,.6-.037,3.339,3.339,0,0,0,.1,3.633,1.993,1.993,0,0,0-.012.452c.3,2.925,2.077,4.815,4.534,4.815a6.294,6.294,0,0,0,3.791-1.455,4.5,4.5,0,0,0,1.734-5.146c-.577-1.451-1.542-3.88-4.37-3.88-.073,0-.146,0-.222,0s-.136,0-.2,0a2,2,0,0,1-.243-.012,1.6,1.6,0,0,1-.006-.2,2.09,2.09,0,0,0-.551-1.574,1.894,1.894,0,0,0-1.4-.556Zm1.642,9.085c-.446,0-.944-.7-.946-1.716,0-1.115.185-1.39.243-1.447a.719.719,0,0,1,.436-.089,1.8,1.8,0,0,1,1.95,1.6,1.812,1.812,0,0,1-1.647,1.654Z" transform="translate(0 0)"/>
  </g>
  <g>
    <path class="cls-1" d="M64.921,67.916a1.734,1.734,0,0,1-.643-.132,1.923,1.923,0,0,1-1.453-1.628,20.284,20.284,0,0,0-2.378-7.5,1.935,1.935,0,0,1-.277-1.623,1.5,1.5,0,0,1,.95-.929,1.818,1.818,0,0,1,.657-.134c1.026,0,1.347,1.076,1.468,1.481.4,1.339.873,2.687,1.337,4a7.874,7.874,0,0,0-.3-3.554c-.489-1.347.194-1.873.646-2.066a1.832,1.832,0,0,1,.73-.158,1.8,1.8,0,0,1,1.655,1.266,7.54,7.54,0,0,1,.35,1.546,9.24,9.24,0,0,0,.2,1.056c.071.258.137.52.2.781a6.66,6.66,0,0,0,1.447,3.229,3.915,3.915,0,0,0-.527-3.67c-.056-.088-.117-.17-.177-.25a1.4,1.4,0,0,1-.244-1.722,1.719,1.719,0,0,1,1.577-.826,4.206,4.206,0,0,1,.64.057,1.592,1.592,0,0,1,1.377,1.658c.018.431.039.86.062,1.29.055,1.073.111,2.182.1,3.279-.014,2.52-1.142,3.327-2.085,3.562a3.176,3.176,0,0,1-.757.1,2.527,2.527,0,0,1-2.264-1.663,4.647,4.647,0,0,0-.186.515,3.049,3.049,0,0,1-.561,1.141,2.123,2.123,0,0,1-1.555.9Z" transform="translate(0 0)"/>
    <path class="cls-2" d="M65.66,56.17a1.315,1.315,0,0,1,1.188.941c.3.806.305,1.72.537,2.56.454,1.642.654,3.427,2.309,4.706a4.426,4.426,0,0,0-.284-4.771c-.311-.485-.779-.844-.415-1.44a1.233,1.233,0,0,1,1.15-.586,3.681,3.681,0,0,1,.563.051,1.1,1.1,0,0,1,.954,1.185c.064,1.515.174,3.03.166,4.545-.01,1.816-.623,2.81-1.705,3.079a2.646,2.646,0,0,1-.637.085c-1.187,0-1.682-1.015-2.138-2.1-.845.613-.684,1.622-1.248,2.266a1.655,1.655,0,0,1-1.179.729,1.217,1.217,0,0,1-.456-.1c-.549-.221-1-.386-1.148-1.25a20.621,20.621,0,0,0-2.447-7.68c-.38-.6-.482-1.472.427-1.818a1.363,1.363,0,0,1,.48-.1c.526,0,.788.454.988,1.124.6,2.023,1.353,4,2.043,6,.263-1.986.645-3.945-.056-5.872-.211-.581-.264-1.163.373-1.436a1.348,1.348,0,0,1,.533-.117m0-1h0a2.344,2.344,0,0,0-.928.2,1.789,1.789,0,0,0-1.117,1.614,1.954,1.954,0,0,0-1.836-1.511,2.329,2.329,0,0,0-.835.166A2.024,2.024,0,0,0,59.7,56.875a2.429,2.429,0,0,0,.329,2.047,19.887,19.887,0,0,1,2.308,7.319,2.4,2.4,0,0,0,1.732,1.995,2.266,2.266,0,0,0,.857.179,2.569,2.569,0,0,0,1.932-1.071,2.838,2.838,0,0,0,.5-.85,2.645,2.645,0,0,0,2.134,1.029,3.659,3.659,0,0,0,.878-.114c.913-.227,2.448-1.054,2.464-4.044.006-1.114-.051-2.232-.106-3.314-.022-.426-.043-.852-.061-1.278a2.081,2.081,0,0,0-1.8-2.131,4.6,4.6,0,0,0-.718-.063,2.209,2.209,0,0,0-2,1.066q-.045.074-.082.147a5.97,5.97,0,0,0-.275-1.033A2.289,2.289,0,0,0,65.66,55.17Zm3.6,7.163a9.534,9.534,0,0,1-.706-2.134l-.03-.119c.015.021.03.043.044.065a3.758,3.758,0,0,1,.692,2.187Z" transform="translate(0 0)"/>
  </g>
  <g>
    <path class="cls-1" d="M17.3,49.884a1.376,1.376,0,0,1-1.4-.993c-.115-.348-.233-.694-.351-1.041-.341-1-.693-2.035-.963-3.083-.143-.555-.271-1.113-.4-1.673a25.654,25.654,0,0,0-1.306-4.419,3.563,3.563,0,0,1,.229-2.91,1.4,1.4,0,0,1,1.448-.89l.142,0a.508.508,0,0,1,.234.07,2.078,2.078,0,0,1,.773.517,1.271,1.271,0,0,0,1.127.437c.133,0,.27-.006.408-.013.1-.006.2-.008.3-.008a10.131,10.131,0,0,1,4.1,1.146l.6.261a3.806,3.806,0,0,1,2.19,2.327,3.912,3.912,0,0,1-.6,3.343,17.27,17.27,0,0,1-3.649,3.96,6.635,6.635,0,0,1-.549.4c-.612.409-.9.634-.815,1.271a.985.985,0,0,1-.2.752,1.534,1.534,0,0,1-1.043.53A2.291,2.291,0,0,1,17.3,49.884Zm-.213-11.5c-.474,0-.764.056-.865.166-.174.189-.139.865-.089,1.432a14.11,14.11,0,0,0,.728,3.041c.129.407.258.813.373,1.224a1.016,1.016,0,0,0,.9.772.525.525,0,0,0,.332-.11,12.04,12.04,0,0,0,2.284-2.179,2.717,2.717,0,0,0,.728-2.267c-.185-.631-.837-1.164-1.937-1.584l-.279-.108a4,4,0,0,0-1.409-.374c-.043,0-.086,0-.129,0C17.445,38.388,17.255,38.381,17.084,38.381Z" transform="translate(0 0)"/>
    <path class="cls-2" d="M14.559,35.375l.118,0a2.037,2.037,0,0,1,.644.406,1.768,1.768,0,0,0,1.513.618c.141,0,.286-.006.434-.014.091,0,.181-.007.271-.007a11.559,11.559,0,0,1,4.5,1.368A3.163,3.163,0,0,1,23.4,42.689a16.9,16.9,0,0,1-3.547,3.844c-.71.591-1.714.861-1.539,2.121.057.41-.365.665-.807.718a1.764,1.764,0,0,1-.207.013.885.885,0,0,1-.923-.651c-.449-1.359-.948-2.707-1.3-4.091a40.693,40.693,0,0,0-1.732-6.166,3.078,3.078,0,0,1,.233-2.525.906.906,0,0,1,.986-.577m3.575,10.141a1.024,1.024,0,0,0,.641-.217,12.448,12.448,0,0,0,2.378-2.275c1.557-2.1,1.036-3.673-1.434-4.615a5.365,5.365,0,0,0-1.866-.516q-.084,0-.169.007c-.221-.012-.421-.019-.6-.019-1.412,0-1.6.436-1.451,2.142a23.9,23.9,0,0,0,1.118,4.355,1.509,1.509,0,0,0,1.383,1.138M14.559,34.375h0a1.886,1.886,0,0,0-1.914,1.2,4.028,4.028,0,0,0-.223,3.295A24.919,24.919,0,0,1,13.7,43.205c.13.563.261,1.126.4,1.686.274,1.066.629,2.11.973,3.119.118.345.235.69.349,1.036A1.89,1.89,0,0,0,17.3,50.384a2.763,2.763,0,0,0,.325-.02A2.032,2.032,0,0,0,19,49.643a1.494,1.494,0,0,0,.3-1.127c-.042-.3-.031-.367.6-.787a6.884,6.884,0,0,0,.591-.428,17.739,17.739,0,0,0,3.751-4.075,4.4,4.4,0,0,0,.66-3.76,4.3,4.3,0,0,0-2.471-2.637c-.2-.084-.393-.171-.589-.258a10.507,10.507,0,0,0-4.3-1.191c-.107,0-.214,0-.323.008-.13.007-.258.013-.382.013-.454,0-.6-.079-.742-.255a2.316,2.316,0,0,0-.857-.608l-.063-.03a.906.906,0,0,0-.452-.13q-.083,0-.161,0Zm2.047,4.538a2.638,2.638,0,0,1,.477-.032c.163,0,.344.007.544.018l.056,0q.039,0,.078,0c.031,0,.061,0,.091,0a3.683,3.683,0,0,1,1.228.34l.281.11c.651.248,1.462.667,1.635,1.256a2.445,2.445,0,0,1-.649,1.829,11.653,11.653,0,0,1-2.191,2.082l-.023,0a.528.528,0,0,1-.421-.409c-.117-.414-.247-.825-.378-1.236a13.757,13.757,0,0,1-.707-2.936,4.828,4.828,0,0,1-.022-1.022Z" transform="translate(0 0)"/>
  </g>
  <g>
    <path class="cls-1" d="M46.123,90.54a3.578,3.578,0,0,1-2.939-1.405,15.249,15.249,0,0,1-2.517-7.9,1.71,1.71,0,0,1,.145-.711,1.338,1.338,0,0,0,.087-.29c.1-1.053.689-1.681,1.573-1.681a2.208,2.208,0,0,1,.429.045,1.348,1.348,0,0,1,.95.627,1.868,1.868,0,0,1,.021,1.562c-.568,1.719.066,3.209.737,4.786.211.494.421.988.6,1.49a1.032,1.032,0,0,0,1.073.595c.3,0,.395-.141.6-.7.037-.1.074-.2.114-.3a10.085,10.085,0,0,0,.573-5.372c-.077-.557-.145-1.114-.2-1.672A1.565,1.565,0,0,1,48.6,77.846a1.649,1.649,0,0,1,.438-.064c.67,0,1.123.442,1.349,1.313.266,1.025.464,2.079.656,3.1l.172.9a5.668,5.668,0,0,0,1.419,3.361,1.749,1.749,0,0,1,.738,1.2,1.236,1.236,0,0,1-.44.906,1.694,1.694,0,0,1-2.423.012,5.724,5.724,0,0,1-.835-1.074c-.109.3-.206.562-.3.827A3.3,3.3,0,0,1,46.123,90.54Z" transform="translate(0 0)"/>
    <path class="cls-2" d="M49.033,78.281c.549,0,.756.514.865.938.338,1.306.563,2.643.821,3.969a6.1,6.1,0,0,0,1.573,3.635c.443.4.878.81.289,1.37a1.2,1.2,0,0,1-1.735.009,12.677,12.677,0,0,1-1.307-1.8c-.271.745-.466,1.248-.64,1.759a2.8,2.8,0,0,1-2.777,1.88,3.086,3.086,0,0,1-2.528-1.191A14.833,14.833,0,0,1,41.166,81.2c-.02-.3.2-.608.23-.92.073-.755.419-1.229,1.075-1.229a1.668,1.668,0,0,1,.33.035c.875.177.8.931.6,1.541-.815,2.465.593,4.463,1.335,6.6a1.5,1.5,0,0,0,1.546.931h0c.823,0,.935-.738,1.171-1.309a10.625,10.625,0,0,0,.607-5.633c-.076-.549-.143-1.1-.2-1.65a1.066,1.066,0,0,1,.868-1.237,1.124,1.124,0,0,1,.3-.045m0-1h0a2.129,2.129,0,0,0-.573.082,2.054,2.054,0,0,0-1.594,2.3c.051.537.117,1.091.2,1.693a9.6,9.6,0,0,1-.541,5.113c-.043.1-.083.213-.122.322a3.466,3.466,0,0,1-.148.367c-.494-.011-.558-.2-.58-.258-.182-.523-.4-1.031-.607-1.522-.661-1.552-1.232-2.893-.723-4.432a2.358,2.358,0,0,0-.063-1.97A1.831,1.831,0,0,0,43,78.107a2.675,2.675,0,0,0-.528-.055A2.08,2.08,0,0,0,40.4,80.184a1.337,1.337,0,0,1-.058.165,2.149,2.149,0,0,0-.174.918,15.716,15.716,0,0,0,2.6,8.153,4.081,4.081,0,0,0,3.35,1.62,3.788,3.788,0,0,0,3.7-2.477,3.931,3.931,0,0,0,.345.369,2.275,2.275,0,0,0,1.548.639,2.241,2.241,0,0,0,1.56-.653,1.713,1.713,0,0,0,.6-1.274,2.2,2.2,0,0,0-.9-1.559,5.167,5.167,0,0,1-1.257-3.042c-.068-.349-.125-.653-.183-.958-.193-1.022-.392-2.078-.661-3.116-.38-1.468-1.312-1.687-1.833-1.687Z" transform="translate(0 0)"/>
  </g>
  <g>
    <path class="cls-1" d="M67.332,47.779a2.025,2.025,0,0,1-2.023-1.218.986.986,0,0,1,.061-.961c.422-.646,1.511-.742,2.122-.742l.244,0a8,8,0,0,0,.873.05c2.365,0,3.854-1.173,5.431-2.415l.123-.1a.482.482,0,0,0,.226-.343c-.009-.114-.136-.254-.341-.374a9.313,9.313,0,0,0-3.006-.992,12.27,12.27,0,0,1-4-1.327c-1.2-.708-1.81-1.406-1.935-2.2a3.734,3.734,0,0,1,1.245-2.792,5.918,5.918,0,0,1,4.6-1.864c.2,0,.41.007.616.021,1.238.088,1.441.852,1.452,1.3.01.36-.123,1.01-1.12,1.293-.354.1-.713.184-1.071.267a14.292,14.292,0,0,0-1.437.383c-.8.271-1.026.493-.983.946.036.383.278.513.986.708l1.262.343c1.179.316,2.4.644,3.58,1.033.153.05.312.1.471.146,1.09.328,2.446.736,2.825,2.3.437,1.806-.819,2.669-1.829,3.362-.144.1-.287.2-.424.3a12.957,12.957,0,0,1-6.795,2.8c-.127.008-.255.02-.385.031C67.843,47.757,67.583,47.779,67.332,47.779Z" transform="translate(0 0)"/>
    <path class="cls-2" d="M70.954,33.01c.193,0,.387.007.581.021.485.034.972.193.988.812.012.483-.373.692-.757.8-.839.239-1.711.375-2.534.656-.674.23-1.405.549-1.319,1.467.073.775.718.969,1.351,1.144,1.61.445,3.234.847,4.819,1.368,1.18.388,2.607.606,2.965,2.086.411,1.693-.988,2.354-2.061,3.136a12.367,12.367,0,0,1-6.531,2.7c-.368.023-.756.076-1.125.076a1.5,1.5,0,0,1-1.564-.919c-.278-.633.55-1,1.726-1,.073,0,.148,0,.223,0a8.194,8.194,0,0,0,.892.05c2.6,0,4.236-1.338,5.864-2.619.582-.458.579-1.1-.172-1.541A9.89,9.89,0,0,0,71.136,40.2a11.83,11.83,0,0,1-3.841-1.265c-2.2-1.3-2.164-2.422-.57-4.23a5.483,5.483,0,0,1,4.228-1.7m0-1a6.485,6.485,0,0,0-4.978,2.034,4.151,4.151,0,0,0-1.364,3.2A4.016,4.016,0,0,0,66.785,39.8a12.708,12.708,0,0,0,4.16,1.386,9.03,9.03,0,0,1,2.8.908l-.018.014c-1.507,1.187-2.93,2.309-5.124,2.309a7.233,7.233,0,0,1-.783-.044l-.071-.005c-.089,0-.176-.005-.262-.005a2.99,2.99,0,0,0-2.541.969,1.488,1.488,0,0,0-.1,1.436,2.476,2.476,0,0,0,2.48,1.517c.283,0,.555-.024.818-.048.124-.011.248-.022.369-.03a13.412,13.412,0,0,0,7.058-2.894c.134-.1.273-.193.413-.289,1.015-.7,2.55-1.751,2.031-3.891-.446-1.839-2.018-2.312-3.166-2.658-.155-.047-.309-.093-.458-.142-1.194-.392-2.416-.721-3.6-1.038-.423-.114-.845-.227-1.267-.344a2.317,2.317,0,0,1-.616-.229s0-.017-.006-.044c-.01-.107-.019-.2.646-.427a14.075,14.075,0,0,1,1.384-.367c.369-.085.737-.17,1.1-.274a1.776,1.776,0,0,0,1.483-1.788,1.808,1.808,0,0,0-1.917-1.784c-.218-.015-.435-.023-.651-.023Z" transform="translate(0 0)"/>
  </g>
  <g>
    <path class="cls-1" d="M31.769,93.264a1.435,1.435,0,0,1-1.133-.556,3.564,3.564,0,0,1-.673-1.193c-.155-.521-.321-1.038-.488-1.558a32.516,32.516,0,0,1-1.232-4.636A7.074,7.074,0,0,1,21.6,78.783c-.157-1.489.689-1.891,1.208-2a1.587,1.587,0,0,1,.309-.032c.875,0,1.075.806,1.183,1.239l.056.213a8.145,8.145,0,0,0,1.616,3.431,1.913,1.913,0,0,0,1.391.789,2.508,2.508,0,0,0,1.016-.271A3.251,3.251,0,0,0,29.96,79.9,1.873,1.873,0,0,1,29.4,80a.946.946,0,0,1-.754-.317,1.793,1.793,0,0,1-.166-1.474l.026-.165c.223-1.493,1.072-1.867,1.746-1.918.072,0,.144-.008.212-.008a1.948,1.948,0,0,1,2,1.723A5.6,5.6,0,0,1,32.2,81.65c-1.453,3.03-1.163,6.027.887,9.162a1.7,1.7,0,0,1,.345,1.313,1.287,1.287,0,0,1-.635.819A1.992,1.992,0,0,1,31.769,93.264Z" transform="translate(0 0)"/>
    <path class="cls-2" d="M30.467,76.614a1.478,1.478,0,0,1,1.509,1.338,5.117,5.117,0,0,1-.225,3.483c-1.636,3.413-1.078,6.6.919,9.651.343.525.48,1.061-.13,1.431a1.528,1.528,0,0,1-.771.247.939.939,0,0,1-.748-.373,3.045,3.045,0,0,1-.578-1.019,43.751,43.751,0,0,1-1.765-6.514A6.593,6.593,0,0,1,22.1,78.732c-.078-.742.093-1.307.812-1.455a1.043,1.043,0,0,1,.209-.023c.57,0,.617.6.756,1.09a8.589,8.589,0,0,0,1.73,3.631,2.381,2.381,0,0,0,1.758.95,2.963,2.963,0,0,0,1.223-.317,3.63,3.63,0,0,0,1.87-2.821c-.011-.232-.113-.467-.288-.467a.231.231,0,0,0-.082.016,2.044,2.044,0,0,1-.688.159c-.681,0-.49-.772-.4-1.383.109-.731.406-1.426,1.289-1.492.06,0,.118-.007.175-.007m0-1h0q-.122,0-.25.01a2.377,2.377,0,0,0-2.2,2.341l-.025.158A2.225,2.225,0,0,0,28.267,80a1.432,1.432,0,0,0,1,.489A2.805,2.805,0,0,1,28.173,81.7a2.035,2.035,0,0,1-.807.226c-.219,0-.511-.075-1.023-.629a7.628,7.628,0,0,1-1.5-3.229c-.018-.064-.034-.13-.051-.2-.11-.443-.4-1.618-1.667-1.618a2.089,2.089,0,0,0-2.016,2.582,7.514,7.514,0,0,0,6.708,6.936A35.084,35.084,0,0,0,29,90.11c.166.516.331,1.031.486,1.548a3.969,3.969,0,0,0,.764,1.368,1.947,1.947,0,0,0,1.52.737,2.483,2.483,0,0,0,1.289-.392,1.778,1.778,0,0,0,.863-1.135,2.169,2.169,0,0,0-.414-1.7c-1.946-2.976-2.225-5.813-.854-8.672a6.061,6.061,0,0,0,.3-4.145,2.469,2.469,0,0,0-2.482-2.108Z" transform="translate(0 0)"/>
  </g>
  <g>
    <path class="cls-1" d="M49.326,46.085a2.337,2.337,0,0,1-2.191-1.914c-.651-2.479-1.146-4.542-1.555-6.494a2.168,2.168,0,0,1,2.029-2.89,1.269,1.269,0,0,1,1.037.462,1.476,1.476,0,0,1,.181,1.338,8.685,8.685,0,0,0,.5,4.78c.1.343.2.688.3,1.036a2.926,2.926,0,0,0,.944-2.351,11.751,11.751,0,0,0,.011-1.555c-.016-.429-.03-.856-.014-1.283a2.168,2.168,0,0,1,1.855-2.181,1.308,1.308,0,0,1,.32.04,1.656,1.656,0,0,1,1.079.8,2,2,0,0,1,.117,1.552,3.943,3.943,0,0,0-.006,1.885c.023.154.048.309.069.465a3.993,3.993,0,0,0,2.358,3.39.5.5,0,0,1,.113.831,2.858,2.858,0,0,1-1.86.819h0a3.426,3.426,0,0,1-2.181-1.087l-.267.337A10.4,10.4,0,0,1,51,45.384,2.509,2.509,0,0,1,49.326,46.085Z" transform="translate(0 0)"/>
    <path class="cls-2" d="M47.609,35.288c.618,0,.927.434.734,1.173-.617,2.365.423,4.427.953,6.7,1.526-.667,1.653-1.894,1.767-3.058.093-.946-.04-1.912,0-2.867.038-.911.7-1.7,1.355-1.7a.8.8,0,0,1,.2.025,1.268,1.268,0,0,1,.844,1.719,5.487,5.487,0,0,0,.043,2.568,4.5,4.5,0,0,0,2.641,3.777,2.376,2.376,0,0,1-1.533.7c-.838,0-1.51-.674-2.242-1.3a20.6,20.6,0,0,1-1.7,1.994,2.021,2.021,0,0,1-1.344.573,1.832,1.832,0,0,1-1.708-1.541c-.563-2.145-1.093-4.3-1.548-6.47-.26-1.239.226-2.026,1.165-2.241a1.691,1.691,0,0,1,.375-.046m0-1h0a2.693,2.693,0,0,0-.6.071A2.638,2.638,0,0,0,45.09,37.78C45.5,39.733,46,41.8,46.65,44.3a2.823,2.823,0,0,0,2.675,2.287,3,3,0,0,0,2.013-.83A10.267,10.267,0,0,0,52.5,44.447a3.364,3.364,0,0,0,2.108.874A3.331,3.331,0,0,0,56.8,44.38a1,1,0,0,0-.227-1.662,3.493,3.493,0,0,1-2.076-3c-.021-.159-.046-.317-.071-.475a3.465,3.465,0,0,1-.012-1.655,2.471,2.471,0,0,0-.156-1.948,2.145,2.145,0,0,0-1.393-1.047,1.806,1.806,0,0,0-.444-.055,2.643,2.643,0,0,0-2.354,2.66c-.019.453,0,.9.013,1.323A11.3,11.3,0,0,1,50.067,40a5.278,5.278,0,0,1-.236,1.319l-.03-.1a8.186,8.186,0,0,1-.491-4.51,2.007,2.007,0,0,0-.269-1.77,1.756,1.756,0,0,0-1.432-.656Z" transform="translate(0 0)"/>
  </g>
  <g>
    <path class="cls-1" d="M60.273,44.461c-.377,0-.755-.013-1.134-.043-.086-.006-.178-.009-.271-.011-.522-.015-1.609-.044-1.659-1.261-.022-.565.191-1.549,1.876-1.793l.116-.009c-.62-.4-1.207-.776-1.79-1.162a2.757,2.757,0,0,1-1.1-3.447c.57-1.812,2.024-2.668,3.309-3.422a1.783,1.783,0,0,1,.921-.254,2.733,2.733,0,0,1,1.638.655,1.328,1.328,0,0,1,.521,1.265,1.4,1.4,0,0,1-.924,1.106,4.55,4.55,0,0,1-.822.2,2.882,2.882,0,0,0-.736.189c-.605.289-.97.685-1,1.084a1.406,1.406,0,0,0,.775,1.157,12.028,12.028,0,0,0,5.11,1.83,5.058,5.058,0,0,0,.544.041,4.209,4.209,0,0,1,.927.107,1.41,1.41,0,0,1,1.122.969,1.529,1.529,0,0,1-.538,1.475,3.324,3.324,0,0,1-2,.941c-.491.042-.981.093-1.473.145A32.7,32.7,0,0,1,60.273,44.461Z" transform="translate(0 0)"/>
    <path class="cls-2" d="M60.541,33.559a2.294,2.294,0,0,1,1.334.552.86.86,0,0,1-.272,1.506c-.513.191-1.114.172-1.6.405-1.592.761-1.726,2.135-.288,3.107a12.688,12.688,0,0,0,5.316,1.91,13.641,13.641,0,0,1,1.418.137c.9.235,1.042.935.361,1.6a2.816,2.816,0,0,1-1.693.8c-1.613.137-3.223.381-4.845.381-.364,0-.729-.012-1.094-.041-.6-.047-1.433.1-1.469-.794-.036-.872.7-1.169,1.447-1.277a.687.687,0,0,1,.1-.007c.169,0,.346.051.548.051a1.133,1.133,0,0,0,.736-.283c-1.034-.668-1.948-1.248-2.851-1.845a2.253,2.253,0,0,1-.9-2.88c.5-1.6,1.792-2.38,3.085-3.142a1.3,1.3,0,0,1,.668-.185m0-1a2.289,2.289,0,0,0-1.175.323,6.776,6.776,0,0,0-3.532,3.7,3.238,3.238,0,0,0,1.3,4.014c.277.184.556.366.838.549a2.041,2.041,0,0,0-1.265,2.018c.045,1.118.767,1.7,2.145,1.741.084,0,.167,0,.245.01.378.03.761.044,1.172.044a33.181,33.181,0,0,0,3.474-.241c.485-.051.97-.1,1.456-.143a3.827,3.827,0,0,0,2.308-1.083,2.029,2.029,0,0,0,.671-1.96A1.939,1.939,0,0,0,66.7,40.209a4.7,4.7,0,0,0-1.035-.124,4.48,4.48,0,0,1-.488-.035A11.55,11.55,0,0,1,60.275,38.3c-.352-.238-.571-.515-.557-.706.012-.157.206-.427.716-.671a2.66,2.66,0,0,1,.607-.148,4.991,4.991,0,0,0,.911-.221,1.92,1.92,0,0,0,1.243-1.5,1.824,1.824,0,0,0-.711-1.736,3.218,3.218,0,0,0-1.943-.759Z" transform="translate(0 0)"/>
  </g>
  <g>
    <path class="cls-1" d="M33.258,46.436a8,8,0,0,1-3.564-.878A1.915,1.915,0,0,1,28.56,44.4a1.489,1.489,0,0,1,.379-1.26,1.641,1.641,0,0,1,1.28-.742,1.923,1.923,0,0,1,1.226.542c.77.653,1.043.843,1.372.843a3.118,3.118,0,0,0,.992-.264l-.078-.031c-.764-.314-1.367-.562-1.994-.751a10.157,10.157,0,0,1-2.894-1.446,3.637,3.637,0,0,1,.272-6.428l.293-.169c.521-.3,1.059-.61,1.621-.87a1.538,1.538,0,0,1,2.062.732c.347.6.159,1.229-.559,1.86a3.133,3.133,0,0,1-1.092.548l-.132.046a1.545,1.545,0,0,0-1.144,1.5c-.01.538.434.78,1.165,1.114l.1.047c1.037.479,2.119.916,3.166,1.34l.553.224a2.067,2.067,0,0,0,.359.095,2.871,2.871,0,0,1,.567.164l.2.086c.764.322,1.809.765,1.851,2.062.046,1.415-1.141,1.884-1.926,2.194l-.1.038A7.688,7.688,0,0,1,33.258,46.436Z" transform="translate(0 0)"/>
    <path class="cls-2" d="M31.7,34.167a1.134,1.134,0,0,1,.959.636c.286.5-.112.933-.455,1.234a3.194,3.194,0,0,1-1.06.5A2.038,2.038,0,0,0,29.667,38.5c-.017.95.846,1.3,1.559,1.625,1.227.566,2.486,1.063,3.739,1.572.292.119.629.129.916.254.8.346,1.717.637,1.752,1.706.036,1.109-.922,1.439-1.707,1.752a7.159,7.159,0,0,1-2.665.528,7.481,7.481,0,0,1-3.344-.826c-.738-.366-1.227-.851-.584-1.661a1.176,1.176,0,0,1,.889-.553,1.453,1.453,0,0,1,.9.424c.775.657,1.164.961,1.7.961a7.417,7.417,0,0,0,2.323-.765c-1.368-.537-2.292-.968-3.258-1.259a9.647,9.647,0,0,1-2.752-1.377,3.14,3.14,0,0,1,.234-5.584c.618-.353,1.231-.721,1.876-1.019a1.094,1.094,0,0,1,.46-.108m0-1a2.089,2.089,0,0,0-.879.2c-.582.268-1.128.583-1.657.888l-.3.171a4.135,4.135,0,0,0-.31,7.273q.36.251.716.466a2.759,2.759,0,0,0-.727.662,1.955,1.955,0,0,0-.475,1.679,2.43,2.43,0,0,0,1.4,1.5,8.493,8.493,0,0,0,3.789.93,8.183,8.183,0,0,0,3.035-.6l.1-.038c.8-.317,2.3-.908,2.24-2.675a2.847,2.847,0,0,0-2.154-2.505l-.2-.085a3.322,3.322,0,0,0-.664-.194,2.03,2.03,0,0,1-.275-.069l-.533-.216c-1.048-.424-2.132-.862-3.164-1.338l-.107-.049c-.695-.318-.874-.452-.87-.65a1.036,1.036,0,0,1,.809-1.039l.124-.043a3.611,3.611,0,0,0,1.265-.648c1.207-1.062.932-2.012.661-2.483A2.13,2.13,0,0,0,31.7,33.167Z" transform="translate(0 0)"/>
  </g>
  <g>
    <path class="cls-1" d="M51.552,28a5.125,5.125,0,0,1-4.88-3.244c-.062-.14-.117-.292-.172-.445-.235-.659-.357-.851-.712-.851a1.359,1.359,0,0,0-.276.032,1.953,1.953,0,0,1-.4.043,1.236,1.236,0,0,1-1.282-1.083,1.773,1.773,0,0,1,.285-1.3,1.115,1.115,0,0,1,.735-.468c.9-.132,1.177-.65,1.583-1.557a8.877,8.877,0,0,1,.41-.832,3.752,3.752,0,0,1,3.8-2.169,2.27,2.27,0,0,1,1.937,1.209,2.235,2.235,0,0,1-.331,2.226,5.789,5.789,0,0,1-2.45,2.3c-.757.309-.886.717-.553,1.749a2.509,2.509,0,0,0,2.394,1.746,2.543,2.543,0,0,0,.816-.136,1.963,1.963,0,0,0,.486-.307,4.391,4.391,0,0,1,.408-.286,1.481,1.481,0,0,1,.763-.228,1.125,1.125,0,0,1,.972.549,1.256,1.256,0,0,1-.353,1.735,7.231,7.231,0,0,1-3.1,1.307.452.452,0,0,1-.063,0Z" transform="translate(0 0)"/>
    <path class="cls-2" d="M50.257,16.6a3.43,3.43,0,0,1,.343.017,1.575,1.575,0,0,1,1.245,2.652A5.382,5.382,0,0,1,49.617,21.4c-1.236.5-1.154,1.394-.841,2.365a3.015,3.015,0,0,0,3.847,1.93,5.772,5.772,0,0,0,.992-.639.993.993,0,0,1,.5-.155.62.62,0,0,1,.547.312.76.76,0,0,1-.212,1.062A6.785,6.785,0,0,1,51.572,27.5a4.622,4.622,0,0,1-4.443-2.947c-.29-.653-.393-1.593-1.34-1.593a1.86,1.86,0,0,0-.38.043,1.44,1.44,0,0,1-.293.032.735.735,0,0,1-.79-.666c-.088-.523.168-1.125.6-1.189,1.594-.233,1.728-1.558,2.354-2.633a3.458,3.458,0,0,1,2.977-1.94m-.912,2.852a3.613,3.613,0,0,0,.516-.4c.111-.12.024-.26-.166-.332a.341.341,0,0,0-.109-.017.389.389,0,0,0-.388.345c-.011.129.094.268.147.4m.912-3.852h0a4.426,4.426,0,0,0-3.841,2.437,9.14,9.14,0,0,0-.435.88c-.4.883-.577,1.175-1.2,1.267a1.611,1.611,0,0,0-1.066.667,2.261,2.261,0,0,0-.375,1.678,1.733,1.733,0,0,0,1.776,1.5,2.438,2.438,0,0,0,.5-.053.873.873,0,0,1,.175-.022,1.717,1.717,0,0,1,.24.519c.059.166.119.329.185.48a5.586,5.586,0,0,0,5.318,3.54h.039a1,1,0,0,0,.127-.008A7.72,7.72,0,0,0,55.024,27.1a1.765,1.765,0,0,0,.493-2.409,1.614,1.614,0,0,0-1.4-.786,1.989,1.989,0,0,0-1.02.3,5.166,5.166,0,0,0-.453.317,1.947,1.947,0,0,1-.344.231,2.037,2.037,0,0,1-.656.109,2.01,2.01,0,0,1-1.917-1.4c-.292-.905-.151-.962.266-1.132a6.2,6.2,0,0,0,2.671-2.481,2.721,2.721,0,0,0,.375-2.72,2.756,2.756,0,0,0-2.342-1.5,4.426,4.426,0,0,0-.443-.022Z" transform="translate(0 0)"/>
  </g>
  <g>
    <path class="cls-1" d="M37.675,91.4a2.967,2.967,0,0,1-2.248-1.108,14.892,14.892,0,0,1-3.051-6.359,3.113,3.113,0,0,1,.205-1.682,1.583,1.583,0,0,1,1.5-1.123,1.67,1.67,0,0,1,.413.053,1.436,1.436,0,0,1,1.066,1.882c-.4,1.587.4,2.842,1.235,4.171.148.234.3.467.436.7.181.3.351.406.442.406.133,0,.354-.206.523-.658a3.309,3.309,0,0,0,.135-2.526,1.374,1.374,0,0,1-1.064.689,1.268,1.268,0,0,1-.629-.186,1.833,1.833,0,0,1-.584-2.546,5.429,5.429,0,0,1,.827-1.334,1.665,1.665,0,0,1,2.914.064,8.027,8.027,0,0,1,.6,7.829A3.217,3.217,0,0,1,37.675,91.4Z" transform="translate(0 0)"/>
    <path class="cls-2" d="M38.325,81.453a1.464,1.464,0,0,1,1.079.7,7.546,7.546,0,0,1,.559,7.271A2.712,2.712,0,0,1,37.676,90.9a2.459,2.459,0,0,1-1.869-.935,14.538,14.538,0,0,1-2.944-6.152,2.657,2.657,0,0,1,.191-1.4,1.1,1.1,0,0,1,1.03-.789,1.168,1.168,0,0,1,.288.037.938.938,0,0,1,.707,1.276c-.528,2.1.771,3.655,1.727,5.251a1.1,1.1,0,0,0,.87.65c.384,0,.752-.345.991-.983a3.529,3.529,0,0,0-.221-3.529c-.479.285-.677,1.017-1.176,1.017a.769.769,0,0,1-.38-.119c-.745-.428-.676-1.213-.375-1.915a4.953,4.953,0,0,1,.751-1.21,1.468,1.468,0,0,1,1.059-.65m0-1h0A2.407,2.407,0,0,0,36.5,81.459a6.094,6.094,0,0,0-.439.593A1.894,1.894,0,0,0,34.618,80.7a2.169,2.169,0,0,0-.535-.068,2.1,2.1,0,0,0-1.974,1.459,3.583,3.583,0,0,0-.219,1.964,15.382,15.382,0,0,0,3.157,6.568A3.46,3.46,0,0,0,37.676,91.9a3.71,3.71,0,0,0,3.151-1.974,8.467,8.467,0,0,0-.635-8.39,2.4,2.4,0,0,0-1.866-1.084ZM37.27,86.347a1.468,1.468,0,0,0,.764-.209,3.968,3.968,0,0,1-.3,1.37,1.758,1.758,0,0,1-.071.165c-.141-.236-.29-.471-.439-.707s-.3-.468-.432-.7a1.6,1.6,0,0,0,.482.076Z" transform="translate(0 0)"/>
  </g>
  <g>
    <path class="cls-1" d="M42.492,46.079a4.672,4.672,0,0,1-4.358-3.148c-1.13-2.911-.54-6.284,1.372-7.846a6.4,6.4,0,0,1,1.3-.847,1.81,1.81,0,0,1,.772-.187,1.415,1.415,0,0,1,1.3.886c.427.914-.267,1.43-.682,1.737-1.776,1.317-2.288,2.829-1.621,4.765.54,1.566,1.212,2.095,2.663,2.095a8.009,8.009,0,0,0,1.064-.082,1.335,1.335,0,0,0,.308-.116,1.916,1.916,0,0,1,.828-.227,1.531,1.531,0,0,1,.9.318.5.5,0,0,1,.085.733A5.219,5.219,0,0,1,42.492,46.079Z" transform="translate(0 0)"/>
    <path class="cls-2" d="M41.577,34.552a.911.911,0,0,1,.844.6c.255.549-.116.82-.535,1.131A4.333,4.333,0,0,0,40.1,41.6c.57,1.655,1.377,2.432,3.136,2.432a8.352,8.352,0,0,0,1.133-.086c.349-.048.663-.338,1.068-.338a1.03,1.03,0,0,1,.611.224,4.735,4.735,0,0,1-3.554,1.746A4.172,4.172,0,0,1,38.6,42.75c-1.047-2.7-.528-5.847,1.223-7.277a5.933,5.933,0,0,1,1.2-.782,1.32,1.32,0,0,1,.559-.139m0-1a2.3,2.3,0,0,0-.986.234,6.849,6.849,0,0,0-1.4.912c-2.071,1.692-2.726,5.309-1.522,8.413a5.165,5.165,0,0,0,4.825,3.468A5.713,5.713,0,0,0,46.8,44.49a1,1,0,0,0-.17-1.468,2.026,2.026,0,0,0-1.2-.413,2.412,2.412,0,0,0-1.038.272,1.157,1.157,0,0,1-.183.078,7.445,7.445,0,0,1-.98.074c-1.229,0-1.721-.394-2.191-1.758a3.342,3.342,0,0,1,1.438-4.193,1.841,1.841,0,0,0,.846-2.356,1.9,1.9,0,0,0-1.751-1.175Z" transform="translate(0 0)"/>
  </g>
  <g>
    <path class="cls-1" d="M27.138,47.526a1.368,1.368,0,0,1-1.328-.911,3.634,3.634,0,0,1-.186-.692,3.026,3.026,0,0,0-.115-.47,33.239,33.239,0,0,1-1-3.523,29.43,29.43,0,0,0-1.1-3.753,2.14,2.14,0,0,1,.1-2,1.488,1.488,0,0,1,1.249-.65,1.736,1.736,0,0,1,1.655,1.507c.058.374.111.75.165,1.125.369,2.573.719,5,2.117,7.182a1.266,1.266,0,0,1,.144,1.118,1.593,1.593,0,0,1-1,.944A2.141,2.141,0,0,1,27.138,47.526Z" transform="translate(0 0)"/>
    <path class="cls-2" d="M24.76,36.023h.046A1.212,1.212,0,0,1,25.921,37.1c.448,2.929.686,5.9,2.355,8.5a.9.9,0,0,1-.6,1.319,1.669,1.669,0,0,1-.539.1.879.879,0,0,1-.866-.6c-.147-.362-.159-.777-.294-1.145-.871-2.379-1.177-4.918-2.107-7.287-.434-1.1.06-1.971.887-1.971m0-1a1.98,1.98,0,0,0-1.662.869,2.628,2.628,0,0,0-.156,2.468,28.679,28.679,0,0,1,1.079,3.69,33.574,33.574,0,0,0,1.02,3.575,2.873,2.873,0,0,1,.094.395,4.087,4.087,0,0,0,.212.782,1.865,1.865,0,0,0,1.792,1.224A2.652,2.652,0,0,0,28,47.871a2.094,2.094,0,0,0,1.309-1.254,1.756,1.756,0,0,0-.2-1.55c-1.34-2.088-1.681-4.466-2.043-6.983-.054-.377-.108-.754-.166-1.131A2.2,2.2,0,0,0,24.9,35.028l-.053,0-.084,0Z" transform="translate(0 0)"/>
  </g>
  <g>
    <path class="cls-1" d="M98.388,86.257a1.093,1.093,0,0,1-.806-.331,1.612,1.612,0,0,1-.382-1.142,13.169,13.169,0,0,0-.133-1.966,10.366,10.366,0,0,1-.044-3.081,15.162,15.162,0,0,0,.031-3.623l-.038-.557a2.114,2.114,0,0,1,.426-1.61,1.483,1.483,0,0,1,1.1-.462h0a1.462,1.462,0,0,1,1.187.474,1.981,1.981,0,0,1,.325,1.635c-.014.089-.019.182-.024.273l-.011.166a48.321,48.321,0,0,0-.473,8.77c.036,1.217-.746,1.411-.986,1.442a1.443,1.443,0,0,1-.179.012Z" transform="translate(0 0)"/>
    <path class="cls-2" d="M98.6,73.985c.886,0,1.093.719.965,1.531-.025.157-.027.318-.039.477a48.786,48.786,0,0,0-.475,8.826c.013.424-.091.871-.55.93a.918.918,0,0,1-.116.008c-.549,0-.7-.551-.688-.956.054-1.66-.488-3.27-.184-4.976a18.182,18.182,0,0,0,0-4.3c-.056-.869.2-1.518,1.044-1.539H98.6m0-1h-.068a1.977,1.977,0,0,0-1.462.625,2.58,2.58,0,0,0-.555,1.979l.038.562a14.752,14.752,0,0,1-.025,3.5,10.737,10.737,0,0,0,.039,3.228,12.858,12.858,0,0,1,.13,1.891,2.063,2.063,0,0,0,.522,1.505,1.6,1.6,0,0,0,1.165.483,1.917,1.917,0,0,0,.243-.016,1.692,1.692,0,0,0,1.422-1.953,47.5,47.5,0,0,1,.464-8.645c0-.024.006-.048.008-.072l.011-.172c0-.076.007-.153.019-.228a2.461,2.461,0,0,0-.439-2.038,1.906,1.906,0,0,0-1.514-.649Z" transform="translate(0 0)"/>
  </g>
  <g>
    <path class="cls-1" d="M16.888,28.514c-1.377-.025-1.377-1.193-1.378-1.755v-.109c0-.7,0-1.4,0-2.256V23.025c-.006-.329-.026-.7-.047-1.106a20.609,20.609,0,0,1,.052-3.842,2.667,2.667,0,0,0,.014-.313c0-.421.017-1.406,1.075-1.438h0c1.295,0,1.315,1.193,1.325,1.7l.051,1.314c.063,1.436.126,2.92.1,4.385a4.456,4.456,0,0,0,.2,1.2,4.666,4.666,0,0,1,.22,1.642l-.011.123c-.056.637-.158,1.821-1.559,1.821Z" transform="translate(0 0)"/>
    <path class="cls-2" d="M16.659,16.824c.842,0,.75.824.774,1.421.072,1.824.18,3.65.146,5.473-.018.98.513,1.843.425,2.8-.064.7-.07,1.491-1.071,1.491H16.9c-.94-.017-.882-.727-.887-1.367-.007-1.033,0-2.066,0-3.621a29.86,29.86,0,0,1,0-4.882c.069-.514-.137-1.3.609-1.319h.042m0-1h-.073c-.7.022-1.54.374-1.559,1.931a2.2,2.2,0,0,1-.01.254,21,21,0,0,0-.055,3.935c.021.4.041.765.047,1.1v1.335c0,.868,0,1.572,0,2.276v.107c0,1.472.63,2.23,1.868,2.252h.053c1.859,0,2-1.657,2.056-2.28l.01-.118a5.111,5.111,0,0,0-.234-1.814,4.122,4.122,0,0,1-.187-1.064c.028-1.49-.038-2.991-.1-4.443l-.046-1.088,0-.185c-.025-1.457-.62-2.2-1.769-2.2Z" transform="translate(0 0)"/>
  </g>
  <g>
    <path class="cls-1" d="M98.935,93.1c-1.453,0-1.722-.905-1.752-1.445a1.8,1.8,0,0,1,.412-1.364,1.33,1.33,0,0,1,1-.406,1.886,1.886,0,0,1,.191.011c.73.074,2.091.212,2.078,1.552-.013,1.14-1.1,1.455-1.618,1.606a1.515,1.515,0,0,1-.218.046Z" transform="translate(0 0)"/>
    <path class="cls-2" d="M98.59,90.383a1.368,1.368,0,0,1,.141.008c.669.069,1.639.13,1.63,1.049-.008.816-.861,1.013-1.348,1.157h-.078c-.84,0-1.216-.341-1.252-.974-.039-.666.22-1.241.909-1.241m0-1a1.817,1.817,0,0,0-1.359.562,2.3,2.3,0,0,0-.548,1.737A2,2,0,0,0,98.934,93.6h.1a1,1,0,0,0,.26-.041l.083-.024c.537-.156,1.965-.57,1.98-2.082.018-1.8-1.839-1.984-2.449-2.046l-.077-.008a2.364,2.364,0,0,0-.244-.013Z" transform="translate(0 0)"/>
  </g>
  <g>
    <path class="cls-1" d="M25.911,27.563c-.5,0-1.379-.229-1.586-1.763l-.137-1.055c-.085-.671-.169-1.342-.276-2.009a4.215,4.215,0,0,1-.038-.429c-.017-.307-.035-.513-.134-.579-.648-.436-1.309-.98-1.3-1.726.009-.528.36-1.016,1.073-1.489a16.162,16.162,0,0,0-.154-2.483c-.067-.63-.131-1.225-.139-1.611a1.324,1.324,0,0,1,1.239-1.491,2.319,2.319,0,0,1,.254-.015,1.354,1.354,0,0,1,1.432,1.374c.052.706.125,1.906.188,2.921.035.573.066,1.086.088,1.411a1.525,1.525,0,0,0,.295.046c.385.014.709.024.981.024.656,0,.763-.077.778-.093a5.528,5.528,0,0,0-.16-1.8l-.068-.4a8.629,8.629,0,0,1-.186-2.109A1.736,1.736,0,0,1,29.7,12.506h.01a1.316,1.316,0,0,1,1,.328,1.6,1.6,0,0,1,.342,1.215c0,.1,0,.2.006.292.07.869.264,2.593.392,3.512.009-.024.087-.235.119-.312.8-1.915,1.982-2.316,2.836-2.316a3.638,3.638,0,0,1,.956.145l.107.027a3.723,3.723,0,0,1,1.849,1.086l.111.1a4.954,4.954,0,0,0,1.227-.973,5.981,5.981,0,0,1,4.54-2.056,7.587,7.587,0,0,1,1.55.168A2.494,2.494,0,0,1,46.9,16.629c-.087,1.853-1.353,2.9-2.47,3.821-1,.821-1.433,1.387-1.463,1.891s.351,1.149,1.277,2.123a2.553,2.553,0,0,0,.261.225,1.449,1.449,0,0,1,.677.968,1.276,1.276,0,0,1-.381.959,1.394,1.394,0,0,1-1.089.447h0a2.894,2.894,0,0,1-2.344-1.348,23.691,23.691,0,0,1-1.456-4.387c-.053-.193-.107-.4-.165-.6a4.61,4.61,0,0,1-1.779,3.654A4.96,4.96,0,0,1,34.8,25.795a3.8,3.8,0,0,1-2.417-.937,1.207,1.207,0,0,1-1.031,1.5,2.441,2.441,0,0,1-.535.063,1.484,1.484,0,0,1-1.53-1.276,10.039,10.039,0,0,1-.146-1.6c-.011-.278-.021-.557-.046-.833a1.566,1.566,0,0,0-1.533-1.475,1.53,1.53,0,0,0-.781.219c-.092.054-.115.083-.114.446v.187a7.3,7.3,0,0,0,.527,2.5c.064.193.129.387.189.581a2.037,2.037,0,0,1-.063,1.673,1.477,1.477,0,0,1-1.051.676A1.888,1.888,0,0,1,25.911,27.563Zm8.184-6.632c.115,1.018.4,1.918,1.052,1.918a1.841,1.841,0,0,0,.777-.226,2.154,2.154,0,0,0,1.163-1.9l.011-.154c.044-.582.006-.72-.224-.82a.316.316,0,0,0-.123-.029c-.19,0-.432.293-.522.4a2.075,2.075,0,0,1-1.541.936A1.514,1.514,0,0,1,34.094,20.931ZM43.268,16.3a3.706,3.706,0,0,0-.485.045l-.106.015a.268.268,0,0,0-.108.029,1.205,1.205,0,0,0-.056.39l-.016.23-.019.178a4.371,4.371,0,0,0-.011,1.205c.5-.121.759-.483,1.037-1.085.036-.077.076-.154.118-.233.2-.387.21-.466.128-.574A.517.517,0,0,0,43.268,16.3Zm-8.105,1.21c.062-.017.126-.036.2-.058a1.07,1.07,0,0,0-.147-.057Z" transform="translate(0 0)"/>
    <path class="cls-2" d="M29.783,13c.94,0,.724.8.77,1.376.083,1.031.4,3.852.508,4.2a1.339,1.339,0,0,0,.175.012c.559,0,.609-.436.786-.861.695-1.666,1.65-2.009,2.375-2.009a3.957,3.957,0,0,1,.974.165,4.358,4.358,0,0,1,1.973,1.292l.017-.008a5.462,5.462,0,0,0,1.654-1.223,5.483,5.483,0,0,1,4.171-1.894,7.063,7.063,0,0,1,1.448.157A2.01,2.01,0,0,1,46.4,16.606c-.077,1.618-1.177,2.54-2.29,3.459-2.125,1.755-2.183,2.69-.229,4.744.413.435,1.221.7.542,1.478a.911.911,0,0,1-.712.276,2.407,2.407,0,0,1-1.906-1.09c-1.056-1.912-1.984-7.558-2.78-8.028-.242.119-.486.235-.73.352,1.436,2.384,1.254,4.577-.653,6.2a4.532,4.532,0,0,1-2.84,1.3,4.137,4.137,0,0,1-3.115-1.847c-.23.407.026.762.125,1.132.156.584.229,1.111-.568,1.291a1.93,1.93,0,0,1-.425.051.985.985,0,0,1-1.04-.875,22.224,22.224,0,0,1-.184-2.375,2.062,2.062,0,0,0-2.032-1.931,2.03,2.03,0,0,0-1.035.288c-.425.25-.351.66-.362,1.05a9.907,9.907,0,0,0,.74,3.249c.237.753.194,1.533-.73,1.707a1.43,1.43,0,0,1-.264.026c-.706,0-.995-.619-1.091-1.33-.139-1.025-.251-2.054-.414-3.075-.074-.462.034-1.061-.387-1.344-1.182-.794-1.616-1.511-.122-2.448.377-.236-.15-3.343-.173-4.455-.011-.516.172-.916.794-.984a1.826,1.826,0,0,1,.2-.011.86.86,0,0,1,.933.91c.1,1.343.275,4.476.3,4.7a5.318,5.318,0,0,0,.749.137c.39.013.72.024,1,.024,1.521,0,1.46-.335,1.108-2.5a10.24,10.24,0,0,1-.244-2.37,1.264,1.264,0,0,1,1.155-1.316h.066m12.311,5.937a1.97,1.97,0,0,0,1.864-1.421c.187-.4.546-.85.19-1.32a1.018,1.018,0,0,0-.879-.4,5.165,5.165,0,0,0-.657.064c-.654.085-.57.64-.614,1.1a4.253,4.253,0,0,0,.1,1.977M34.5,18.136a6.035,6.035,0,0,0,1.88-.525,3.8,3.8,0,0,0-.681-.541,1.769,1.769,0,0,0-.814-.229,4.15,4.15,0,0,0-.385,1.294m.187,2.42a1.72,1.72,0,0,1-1.16-.644c.054,2.348.613,3.437,1.618,3.437a2.3,2.3,0,0,0,1-.278,2.638,2.638,0,0,0,1.441-2.318c.033-.534.149-1.176-.512-1.465a.8.8,0,0,0-.323-.071,1.289,1.289,0,0,0-.908.585,1.622,1.622,0,0,1-1.154.753m-3.32,1.208a.3.3,0,0,0,.162-.057c.366-.237.028-.762-.333-1.052-.067.122-.2.251-.184.358.042.278.11.752.355.752M29.783,12l-.1,0a2.236,2.236,0,0,0-2.114,2.24,9.005,9.005,0,0,0,.191,2.232l.063.373c.083.511.166,1.02.19,1.331-.078,0-.18.007-.311.007-.229,0-.495-.008-.8-.018-.019-.309-.042-.675-.063-1.02-.062-1.011-.134-2.2-.186-2.9a1.856,1.856,0,0,0-1.93-1.837,2.825,2.825,0,0,0-.308.017,1.821,1.821,0,0,0-1.685,2c.008.407.073,1.011.141,1.651.065.605.176,1.651.169,2.158a2.325,2.325,0,0,0-1.09,1.756,2.651,2.651,0,0,0,1.411,2.076c.01.076.016.185.02.265a4.736,4.736,0,0,0,.044.479c.105.661.189,1.326.273,1.99.045.354.089.708.137,1.062.276,2.037,1.663,2.2,2.082,2.2a2.442,2.442,0,0,0,.449-.043,1.962,1.962,0,0,0,1.387-.909,2.469,2.469,0,0,0,.112-2.081c-.062-.2-.128-.393-.193-.589a6.943,6.943,0,0,1-.5-2.331c0-.067,0-.135,0-.2,0-.025,0-.053,0-.081a1,1,0,0,1,.4-.083A1.069,1.069,0,0,1,28.6,22.76c.023.268.033.539.044.809a10.552,10.552,0,0,0,.156,1.673,1.979,1.979,0,0,0,2.021,1.68,2.934,2.934,0,0,0,.646-.076,1.808,1.808,0,0,0,1.214-.8,1.553,1.553,0,0,0,.137-.293,4,4,0,0,0,1.986.545,5.424,5.424,0,0,0,3.489-1.535,5.659,5.659,0,0,0,1.51-1.943,16.385,16.385,0,0,0,1.129,3.14,3.386,3.386,0,0,0,2.782,1.606,1.9,1.9,0,0,0,1.466-.619,1.766,1.766,0,0,0,.5-1.334,1.931,1.931,0,0,0-.864-1.313,2,2,0,0,1-.209-.177c-.789-.829-1.162-1.4-1.141-1.749s.439-.839,1.282-1.534c1.138-.939,2.553-2.109,2.652-4.182a3,3,0,0,0-2.556-3.42,8.094,8.094,0,0,0-1.653-.178,6.46,6.46,0,0,0-4.907,2.217,4.417,4.417,0,0,1-.8.687A3.9,3.9,0,0,0,35.551,14.9l-.068-.018a4.1,4.1,0,0,0-1.086-.162,3.176,3.176,0,0,0-2.658,1.453c-.08-.706-.153-1.425-.19-1.877-.006-.079,0-.164,0-.25a2.06,2.06,0,0,0-.488-1.569A1.725,1.725,0,0,0,29.783,12Zm13.248,4.57h0Zm-.021.249c.068-.008.132-.015.19-.018l-.021.039c-.046.087-.09.172-.129.256q-.04.086-.077.161l0-.017.018-.184c.007-.077.012-.157.016-.237Zm-8.3,4.732a2.547,2.547,0,0,0,1.9-1.107l-.006.082-.011.16a1.635,1.635,0,0,1-.887,1.484,1.331,1.331,0,0,1-.555.174c-.128,0-.306-.233-.439-.793Z" transform="translate(0 0)"/>
  </g>
</svg>
