<svg id="Layer_1" data-name="Layer 1" xmlns="http://www.w3.org/2000/svg" viewBox="0 0 192.39 70.954">
  <defs>
    <style>
      .cls-1 {
        fill: #0000b8;
      }

      .cls-2 {
        fill: #fff;
      }
    </style>
  </defs>
  <title>2fcc27f6-16ef-472b-8236-87e366c49bba</title>
  <g>
    <path class="cls-1" d="M60.321,69.925a3.958,3.958,0,0,1-3.487-2.145,11.5,11.5,0,0,1-.918-7.795,1.893,1.893,0,0,1,1.713-1.642,2.772,2.772,0,0,1,.337-.022,1.326,1.326,0,0,1,1.184.535,1.557,1.557,0,0,1,.026,1.518,7.318,7.318,0,0,0-.223,5.263c.346,1.014.847,1.528,1.489,1.528a1.589,1.589,0,0,0,.329-.037,2.633,2.633,0,0,0,1.39-2.041c0-.193,0-.387-.009-.578a5.018,5.018,0,0,1,.449-2.678,4.319,4.319,0,0,1,4.05-2.607q.231,0,.478.018a3.941,3.941,0,0,1,.592.1,2.475,2.475,0,0,0,.508.078.942.942,0,0,0,.662-.291,1.377,1.377,0,0,1,.911-.364,1.419,1.419,0,0,1,1,.445,2.808,2.808,0,0,1,.7,1.992,3.311,3.311,0,0,0,1.325,2.977,6.541,6.541,0,0,0,.627-2.854l.02-.276c.172-2.319.8-3.036,3.038-3.488l.262-.051a3.254,3.254,0,0,0,1.339-.455,1.831,1.831,0,0,1,1.06-.383,2.236,2.236,0,0,1,1.693,1.2l.067.094c.733,1.006-.184,1.7-.624,2.039l-.193.15a2.327,2.327,0,0,1-.5.293c-.067.032-.135.063-.2.1-1.774,1-1.887,1.685-1.469,2.765a2.91,2.91,0,0,0,3.474,2.2,6.577,6.577,0,0,0,1.28-.356c.483-.216.749-.422.836-.649a.988.988,0,0,0-.1-.729,8.958,8.958,0,0,1-.588-1.933,3.619,3.619,0,0,1,3.1-4.587,3.593,3.593,0,0,1,.634-.059,2.773,2.773,0,0,1,2.021.822,3.1,3.1,0,0,1,.81,2.295,9.648,9.648,0,0,1-1.284,3.962c-.052.105-.1.211-.156.317a6.066,6.066,0,0,0,2.841.511l.241,0a1.008,1.008,0,0,0,1.11-.978,1.2,1.2,0,0,1,1.2-1.271,1.939,1.939,0,0,1,.615.111,1.645,1.645,0,0,1,1.26,1.994,2.492,2.492,0,0,1-1.4,1.764,6.918,6.918,0,0,1-3.515.985,7.038,7.038,0,0,1-2.937-.661,3.147,3.147,0,0,0-3.324.233,6.371,6.371,0,0,1-3.329.924,7.312,7.312,0,0,1-.893-.056A5.7,5.7,0,0,1,75.744,65.3c-.846,1.353-1.52,2.151-2.511,2.151-.91,0-1.938-.722-3.457-1.929l-.143.174c-.352.431-.7.862-1.078,1.272A3.814,3.814,0,0,1,65.75,68.41a3.19,3.19,0,0,1-.9-.135,2.185,2.185,0,0,0-.613-.106,1.63,1.63,0,0,0-1.153.616,3.992,3.992,0,0,1-2.759,1.141Zm6.354-7.559c-.814.069-1.27.543-1.623,1.689a1.041,1.041,0,0,0,.529,1.266.343.343,0,0,0,.171.059,1.176,1.176,0,0,0,.522-.3c.082-.064.163-.128.245-.186a3.458,3.458,0,0,0,1.256-2.621Zm19.7-2.021c-.421.2-.69.374-.764.555a2.079,2.079,0,0,0,.247,1.225A1.577,1.577,0,0,0,86.374,60.346Z" transform="translate(0)"/>
    <path class="cls-2" d="M79.171,57.171c.613,0,1.018.62,1.357,1.084.514.705-.252,1.116-.731,1.508a4.238,4.238,0,0,1-.63.344c-1.811,1.017-2.257,1.913-1.689,3.382a3.406,3.406,0,0,0,4.043,2.5A6.9,6.9,0,0,0,82.9,65.6c.876-.391,1.49-.925.984-2.041a8.684,8.684,0,0,1-.553-1.828,3.123,3.123,0,0,1,2.7-3.994,3.016,3.016,0,0,1,.544-.051,2.319,2.319,0,0,1,2.33,2.6,11.506,11.506,0,0,1-1.588,4.485,6.273,6.273,0,0,0,3.715.826h.046a1.489,1.489,0,0,0,1.577-1.437c.044-.549.295-.812.705-.812a1.45,1.45,0,0,1,.455.085,1.168,1.168,0,0,1,.927,1.436,2.019,2.019,0,0,1-1.163,1.416,6.426,6.426,0,0,1-3.263.918,6.536,6.536,0,0,1-2.729-.616,3.646,3.646,0,0,0-3.79.26,5.85,5.85,0,0,1-3.073.853,6.841,6.841,0,0,1-.83-.052c-2.07-.253-3.151-1.7-4.173-3.278-1.042,1.737-1.644,2.58-2.492,2.58-.785,0-1.781-.723-3.531-2.128-.5.6-.985,1.227-1.516,1.808a3.373,3.373,0,0,1-2.436,1.274,2.663,2.663,0,0,1-.762-.114,2.663,2.663,0,0,0-.756-.127,2.11,2.11,0,0,0-1.5.755,3.408,3.408,0,0,1-5.461-.882,11.175,11.175,0,0,1-.865-7.47,1.4,1.4,0,0,1,1.283-1.231,2.214,2.214,0,0,1,.275-.018c.777,0,1.093.491.745,1.368A7.853,7.853,0,0,0,58.48,65.8c.427,1.252,1.1,1.867,1.962,1.867a2.058,2.058,0,0,0,.435-.049,3.079,3.079,0,0,0,1.784-2.525,5.975,5.975,0,0,1,.381-3.023,3.807,3.807,0,0,1,3.61-2.345q.214,0,.44.016c.393.028.751.18,1.137.18a1.445,1.445,0,0,0,.99-.415.881.881,0,0,1,.582-.24c.624,0,1.2.775,1.2,1.935a3.832,3.832,0,0,0,1.965,3.673,6.583,6.583,0,0,0,1.006-3.789c.154-2.09.607-2.626,2.638-3.036a4.367,4.367,0,0,0,1.792-.588,1.332,1.332,0,0,1,.769-.29M85.679,63c1.452-1.4,1.452-1.4,1.07-3.367-1.938.8-2.037,1.114-1.07,3.367M65.752,65.88c.4,0,.722-.343,1.055-.578,1.154-.814,1.358-2.037,1.546-3.58l-1.722.147c-1.252.106-1.746,1.034-2.057,2.04a1.534,1.534,0,0,0,.752,1.843.828.828,0,0,0,.426.128m13.419-9.709h0a2.317,2.317,0,0,0-1.35.477,2.873,2.873,0,0,1-1.144.37l-.265.052c-2.478.5-3.249,1.384-3.437,3.942l-.02.282a8.508,8.508,0,0,1-.3,2.048A3.039,3.039,0,0,1,72,61.2a3.3,3.3,0,0,0-.844-2.347,1.917,1.917,0,0,0-1.354-.592,1.871,1.871,0,0,0-1.241.487c-.192.168-.283.168-.332.168a2.119,2.119,0,0,1-.4-.067,4.4,4.4,0,0,0-.667-.111q-.263-.019-.511-.019a4.777,4.777,0,0,0-4.491,2.87,5.478,5.478,0,0,0-.509,2.923c0,.188.01.377.008.567a2.3,2.3,0,0,1-1,1.557,1.064,1.064,0,0,1-.216.024c-.4,0-.746-.4-1.015-1.19a6.842,6.842,0,0,1,.214-4.916,2.03,2.03,0,0,0-.076-1.983,1.822,1.822,0,0,0-1.6-.754,3.214,3.214,0,0,0-.4.026A2.393,2.393,0,0,0,55.424,59.9,11.963,11.963,0,0,0,56.4,68.02a4.407,4.407,0,0,0,7.03,1.126c.462-.441.645-.478.807-.478a1.736,1.736,0,0,1,.471.085,3.675,3.675,0,0,0,1.047.156,4.291,4.291,0,0,0,3.174-1.6c.326-.357.632-.726.928-1.088,1.506,1.175,2.424,1.733,3.381,1.733a3.182,3.182,0,0,0,2.539-1.769,5.813,5.813,0,0,0,4,2.459,7.874,7.874,0,0,0,.952.059,6.867,6.867,0,0,0,3.588-1A3.034,3.034,0,0,1,85.9,67.18a3.078,3.078,0,0,1,1.276.321,7.526,7.526,0,0,0,3.145.707,7.406,7.406,0,0,0,3.767-1.054,2.977,2.977,0,0,0,1.644-2.11,2.15,2.15,0,0,0-1.594-2.554,2.445,2.445,0,0,0-.774-.137,1.7,1.7,0,0,0-1.7,1.732c-.012.155-.042.518-.58.518l-.261-.005a7.114,7.114,0,0,1-2.171-.261,9.668,9.668,0,0,0,1.259-4.013,3.6,3.6,0,0,0-.95-2.659,3.269,3.269,0,0,0-2.379-.974,4.034,4.034,0,0,0-.724.067,4.115,4.115,0,0,0-3.5,5.179,9.817,9.817,0,0,0,.622,2.039.643.643,0,0,1,.092.344s-.059.142-.573.371A5.784,5.784,0,0,1,81.379,65l-.064.014a2.613,2.613,0,0,1-.541.059,2.673,2.673,0,0,1-2.362-1.945c-.277-.716-.461-1.19,1.246-2.149.053-.03.11-.056.166-.082a2.789,2.789,0,0,0,.607-.36c.057-.046.118-.093.18-.14,1.159-.883,1.4-1.8.726-2.731l-.065-.09a2.707,2.707,0,0,0-2.1-1.405Zm-13.412,8.67a.519.519,0,0,1-.229-.638c.328-1.063.684-1.3,1.186-1.339l.458-.039a2.465,2.465,0,0,1-.942,1.659c-.089.063-.177.131-.265.2-.061.048-.142.112-.207.156Z" transform="translate(0)"/>
  </g>
  <g>
    <path class="cls-1" d="M92.163,47.712a1.188,1.188,0,0,1-.413-.075c-1.261-.469-1.866-1.2-1.8-2.167a11.485,11.485,0,0,0-1.624-5.385,2.57,2.57,0,0,0-1.738.585.153.153,0,0,0-.022.167c.2.537.65,1.474,1.088,2.38,1.132,2.343,1.315,2.817,1.225,3.17-.123.483-.731.733-1.81,1.026l-.116.032a1.18,1.18,0,0,1-1.381-.6,8.21,8.21,0,0,1-.512-1.8c-.331-1.513-.887-4.044-1.944-4.044a1.036,1.036,0,0,0-.378.081l-.239.1a7.89,7.89,0,0,1-2.586.736,1.029,1.029,0,0,1-1.06-.6,1.949,1.949,0,0,1,.014-1.593,2.04,2.04,0,0,1,1.2-1.065c1.473-.479,2.618-.876,3.577-1.208a27.42,27.42,0,0,1,9.249-1.9q.189-.014.372-.014A5.853,5.853,0,0,1,96.5,36.607l.106.068a2.287,2.287,0,0,1,1.178,1.567,2.16,2.16,0,0,1-.633,1.748,4.623,4.623,0,0,1-1.513.856c.874.385,2.093.907,3.045,1.262a5.839,5.839,0,0,1,2.729-6.193,2.882,2.882,0,0,1,1.62-.586,2.5,2.5,0,0,1,1.55.6,1.57,1.57,0,0,1,.508.662,4.511,4.511,0,0,1,3.319-1.213,8.4,8.4,0,0,1,1.115.079,3.042,3.042,0,0,1,2.147,1.065,3.472,3.472,0,0,1,.438,2.666,2.824,2.824,0,0,0,.46,2.529,1.19,1.19,0,0,1,.13,1.289,1.542,1.542,0,0,1-1.387.923h0a1.56,1.56,0,0,1-.671-.156,1.181,1.181,0,0,1-.459-.375c-.659.335-1.75.884-2.046,1a2.1,2.1,0,0,1-.768.137,4.346,4.346,0,0,1-1.467-.32.819.819,0,0,0-.272-.062c-.055,0-.171,0-.354.266a2.283,2.283,0,0,1-1.963,1.052,4.268,4.268,0,0,1-1.381-.268,5.351,5.351,0,0,1-.547-.237,1.976,1.976,0,0,0-.73-.254.414.414,0,0,0-.27.1,2.287,2.287,0,0,1-1.428.534,3.67,3.67,0,0,1-1.654-.527c-.161-.082-.324-.165-.491-.239-.979-.434-2.933-1.264-4.13-1.771.306.915.587,1.714.665,1.86a1.972,1.972,0,0,1-.2,2.564A1.345,1.345,0,0,1,92.163,47.712Zm11.563-8.123c-.293.2-.6.384-.881.55a5.855,5.855,0,0,0-.57.362c-.357.328-.1,1.616.177,2.085a.6.6,0,0,0,.575.337,2.551,2.551,0,0,0,.731-.149.368.368,0,0,0,.172-.088,1.408,1.408,0,0,0-.117-.477l-.062-.176A7.489,7.489,0,0,1,103.726,39.59Zm4.368-1.366a2.183,2.183,0,0,0-1.823,2.273,1.375,1.375,0,0,0,1.392,1.429,1.127,1.127,0,0,0,.783-.371,1.78,1.78,0,0,0,.5-1.242c-.016-1.25-.343-2.09-.814-2.09v-.5Zm-15.754.915a4.182,4.182,0,0,0,1.5-.371,4.113,4.113,0,0,0-1.562-.306c-.1,0-.2,0-.3.011a2.52,2.52,0,0,0,.21.658A1.538,1.538,0,0,0,92.34,39.139Zm10.3-1.469-.021.016.023-.008.038-.026A.118.118,0,0,0,102.637,37.67Z" transform="translate(0)"/>
    <path class="cls-2" d="M103.036,35.828a2.012,2.012,0,0,1,1.243.5c.808.628.271,1.69.027,2.065-.473.728-2.031,1.434-2.369,1.744-.637.584-.219,2.188.083,2.7a1.088,1.088,0,0,0,1.006.585,2.954,2.954,0,0,0,.886-.174c.805-.262.477-.878.314-1.372-.058-.177-.876-6,4.187-6a7.8,7.8,0,0,1,1.047.075c1.851.251,2.437,1.251,2.159,3.163a3.3,3.3,0,0,0,.578,2.929c.392.45-.109,1.383-.88,1.383a1.07,1.07,0,0,1-.458-.108.7.7,0,0,1-.4-.621s-2.1,1.078-2.5,1.232a1.6,1.6,0,0,1-.586.1,3.807,3.807,0,0,1-1.291-.288,1.285,1.285,0,0,0-.448-.094.917.917,0,0,0-.766.481,1.786,1.786,0,0,1-1.552.837,3.81,3.81,0,0,1-1.217-.24,5.015,5.015,0,0,0-1.441-.518.913.913,0,0,0-.575.2,1.8,1.8,0,0,1-1.123.43,5.2,5.2,0,0,1-1.943-.723c-1.475-.653-5.151-2.2-5.151-2.2s.885,2.735,1.054,3.005a1.488,1.488,0,0,1-.14,1.972.852.852,0,0,1-.619.314.683.683,0,0,1-.239-.044c-.78-.29-1.536-.763-1.473-1.664.123-1.746-1.324-5.9-2.028-5.921h-.091c-1.02,0-2.565.526-2.234,1.426.495,1.344,2.4,4.845,2.3,5.252-.083.325-1.246.607-1.578.7a.681.681,0,0,1-.806-.359c-.559-1.029-.848-6.11-2.9-6.11a1.53,1.53,0,0,0-.562.116,9.2,9.2,0,0,1-2.641.8c-.291,0-.512-.079-.6-.285a1.471,1.471,0,0,1,.905-1.993c6.591-2.145,6.631-2.639,12.708-3.083q.171-.013.336-.012A5.529,5.529,0,0,1,96.343,37.1a1.52,1.52,0,0,1,.435,2.563A9.366,9.366,0,0,1,94.306,40.8s3.514,1.607,5.049,2.069c-.729-2.836.011-4.986,2.339-6.535a2.461,2.461,0,0,1,1.343-.5m-.992,2.454a2.621,2.621,0,0,0,.8-.148c.887-.548.415-.994-.083-.994a.7.7,0,0,0-.421.13,2.473,2.473,0,0,0-.445.359c-.428.518-.191.652.154.652m5.618,4.143h.01a2.033,2.033,0,0,0,1.772-2.12c-.021-1.627-.509-2.583-1.315-2.583l-.067,0a2.684,2.684,0,0,0-2.291,2.786,1.879,1.879,0,0,0,1.891,1.915M92.339,39.639a4.488,4.488,0,0,0,1.267-.242c.181-.056,1.069-.409,1.1-.624a3.231,3.231,0,0,0-2.438-.811,4.5,4.5,0,0,0-.6.04c-.5.067.05,1.539.25,1.589a1.7,1.7,0,0,0,.416.048m10.7-4.81h0a3.478,3.478,0,0,0-1.9.67A6.227,6.227,0,0,0,98.1,41.343c-.409-.164-.837-.343-1.245-.517a2.674,2.674,0,0,0,.677-.507,2.633,2.633,0,0,0,.751-2.15,2.751,2.751,0,0,0-1.406-1.918l-.1-.065a6.31,6.31,0,0,0-3.507-1.152q-.2,0-.409.015a27.81,27.81,0,0,0-9.377,1.925c-.935.324-2.1.728-3.568,1.205a2.549,2.549,0,0,0-1.5,1.331,2.466,2.466,0,0,0-.022,1.992,1.516,1.516,0,0,0,1.522.905,8.243,8.243,0,0,0,2.775-.774l.232-.095a.549.549,0,0,1,.2-.046c.434,0,.924,1.228,1.456,3.65a8.2,8.2,0,0,0,.561,1.937,1.681,1.681,0,0,0,1.957.844l.112-.031c1.062-.289,1.958-.592,2.161-1.384.14-.544-.079-1.07-1.257-3.508-.38-.786-.771-1.6-.99-2.131a2.743,2.743,0,0,1,.971-.276,12.112,12.112,0,0,1,1.364,4.84c-.059.837.262,1.98,2.123,2.671a1.682,1.682,0,0,0,.587.107,1.84,1.84,0,0,0,1.36-.642,2.461,2.461,0,0,0,.267-3.141c-.048-.105-.146-.37-.269-.722,1.1.466,2.369,1.01,3.093,1.33.16.071.315.15.468.227a4.112,4.112,0,0,0,1.879.581,2.807,2.807,0,0,0,1.734-.639,3.985,3.985,0,0,1,.477.21,5.582,5.582,0,0,0,.6.259,4.75,4.75,0,0,0,1.543.295,2.792,2.792,0,0,0,2.374-1.267l.02-.028.02.007a4.806,4.806,0,0,0,1.642.352,2.6,2.6,0,0,0,.95-.171c.269-.105,1.1-.52,1.764-.854a1.709,1.709,0,0,0,.346.216,2.009,2.009,0,0,0,2.726-1.012,1.682,1.682,0,0,0-.208-1.825c-.478-.548-.492-1.1-.342-2.128a3.93,3.93,0,0,0-.534-3.038,3.507,3.507,0,0,0-2.48-1.26,8.838,8.838,0,0,0-1.182-.084h0a5.216,5.216,0,0,0-3.2.958,2.238,2.238,0,0,0-.319-.3,2.978,2.978,0,0,0-1.856-.707Zm-.4,6.027c.083-.058.3-.188.465-.285l.048-.029a6.618,6.618,0,0,0,.128,1.649l.064.185a1.384,1.384,0,0,1-.315.049.234.234,0,0,1-.081-.009.284.284,0,0,1-.061-.08,2.671,2.671,0,0,1-.248-1.48Z" transform="translate(0)"/>
  </g>
  <g>
    <path class="cls-1" d="M150.894,63.479a5.064,5.064,0,0,1-4.937-4.291c-.337-1.668,1.323-4.9,2.865-5.58a4.027,4.027,0,0,1,1.618-.374,3.13,3.13,0,0,1,1.82.592c.789.553.463,3-.048,3.824a4.733,4.733,0,0,1-1.983,1.723c-.655.333-.738.453-.687.59a1.23,1.23,0,0,0,1.159.915c.052,0,.105,0,.161-.008a3.331,3.331,0,0,0,2.677-1.786,6.626,6.626,0,0,0,.956-4.261c-.169-1.212-.181-1.92.224-2.429.447-.562,1.25-.671,2.521-.784.426-.038.842-.061,1.247-.061a5.556,5.556,0,0,1,4.6,1.949,3.048,3.048,0,0,1,1.03,2.312c-.109.645-.6,1.179-1.654,1.785a2.413,2.413,0,0,1-.5.2l-.061.02a10.025,10.025,0,0,0,2.65.71c.292.051.583.1.872.159.07.014.147.025.227.037a1.671,1.671,0,0,1,1.238.583,1.287,1.287,0,0,1,.128,1.057,1.644,1.644,0,0,1-1.68,1.231h0a2.039,2.039,0,0,1-.473-.055,27.74,27.74,0,0,1-2.784-.878c-.443-.157-.887-.314-1.334-.46a7.956,7.956,0,0,1-.818-.335,3.429,3.429,0,0,0-1.364-.41h-.034a.95.95,0,0,0,.166.492,2.088,2.088,0,0,1,.268.79c.043.532.171,2.153-1.375,2.441a2.159,2.159,0,0,1-.405.039c-.978,0-1.624-.728-1.687-1.9l0-.019a5.2,5.2,0,0,0-.731.594,5.646,5.646,0,0,1-.847.68A5.76,5.76,0,0,1,150.894,63.479Zm8.074-9.156c-.312,0-.583.322-.755.592-.256.4-.18.5-.154.535a.162.162,0,0,0,.161.077,1.905,1.905,0,0,0,.4-.071c.094-.023.187-.045.276-.062.177-.033.357-.054.54-.075a3.167,3.167,0,0,0,1.016-.229,1.874,1.874,0,0,0-1.066-.656l-.192-.068A.658.658,0,0,0,158.968,54.323Z" transform="translate(0)"/>
    <path class="cls-2" d="M158.487,52.048a5.116,5.116,0,0,1,4.216,1.775c1.334,1.551,1.292,2.306-.495,3.338-.387.224-.937.181-1.174.734a11.073,11.073,0,0,0,4.292,1.28c.553.111,1.446.074,1.2,1.068a1.146,1.146,0,0,1-1.193.85,1.541,1.541,0,0,1-.357-.041c-1.386-.332-2.718-.884-4.079-1.327a7.723,7.723,0,0,0-2.338-.769,2.068,2.068,0,0,0-.359.031c-.5.7.214,1.2.261,1.79.065.828.02,1.727-.969,1.911a1.714,1.714,0,0,1-.313.031c-.748,0-1.141-.576-1.187-1.426a3.612,3.612,0,0,0-.185-.684c-.937.289-1.425,1.088-2.157,1.542a5.239,5.239,0,0,1-2.76.829,4.547,4.547,0,0,1-4.447-3.89c-.294-1.454,1.276-4.451,2.576-5.023a3.525,3.525,0,0,1,1.417-.332,2.618,2.618,0,0,1,1.534.5c.439.308.289,2.384-.185,3.15A4.287,4.287,0,0,1,150,58.927c-.479.244-1.165.569-.929,1.21a1.709,1.709,0,0,0,1.629,1.241,2.075,2.075,0,0,0,.211-.011,3.846,3.846,0,0,0,3.062-2.039,7.118,7.118,0,0,0,1.015-4.575c-.314-2.246-.044-2.439,2.293-2.646.411-.036.813-.059,1.2-.059m-.267,3.98a4.416,4.416,0,0,0,.766-.142,4,4,0,0,0,2.1-.612c-.334-.971-1.09-1.144-1.728-1.377a1.147,1.147,0,0,0-.4-.074,1.486,1.486,0,0,0-1.177.824c-.222.348-.4.755-.132,1.1a.656.656,0,0,0,.56.277m-8.776.941c.224,0,.327-.167.349-.372.013-.121-.09-.361-.152-.365h-.047a.509.509,0,0,0-.54.5c-.006.067.195.154.3.23a.535.535,0,0,0,.091.008m9.044-5.921c-.389,0-.812.021-1.293.063-1.362.121-2.3.254-2.868.971s-.489,1.653-.327,2.809a6.069,6.069,0,0,1-.9,3.945,2.857,2.857,0,0,1-2.293,1.536,1.077,1.077,0,0,1-.11.006.624.624,0,0,1-.593-.375c.1-.059.222-.121.3-.162l.045-.023a5.208,5.208,0,0,0,2.182-1.905c.556-.9,1.047-3.7-.091-4.5a3.619,3.619,0,0,0-2.107-.683,4.53,4.53,0,0,0-1.82.416c-1.734.764-3.532,4.262-3.153,6.136a5.551,5.551,0,0,0,5.427,4.692,6.039,6.039,0,0,0,4.206-1.715l.054-.05a2.067,2.067,0,0,0,2.029,1.5,2.723,2.723,0,0,0,.5-.047c1.643-.306,1.876-1.785,1.783-2.973a2.025,2.025,0,0,0-.125-.546c.123.051.251.109.384.169a8.413,8.413,0,0,0,.871.354c.442.144.881.3,1.32.456a28.048,28.048,0,0,0,2.836.893,2.535,2.535,0,0,0,.589.069,2.129,2.129,0,0,0,2.165-1.614,1.764,1.764,0,0,0-.2-1.453,2.137,2.137,0,0,0-1.579-.8c-.071-.011-.139-.02-.2-.033-.294-.059-.59-.11-.886-.162-.5-.087-.993-.173-1.459-.294a2.893,2.893,0,0,0,1.429-1.847,3.5,3.5,0,0,0-1.145-2.721,6.153,6.153,0,0,0-4.974-2.123Zm.482,3.775Zm-.1.068a.325.325,0,0,1,.1-.068.214.214,0,0,1,.05.013l.063.022c-.071.01-.142.02-.213.032Z" transform="translate(0)"/>
  </g>
  <g>
    <path class="cls-1" d="M140.475,66.36a15,15,0,0,1-2.48-.23,2.352,2.352,0,0,1-1.568-.909,25.088,25.088,0,0,1-2.952-6.91.522.522,0,0,1-.011-.1c-.019-2.8,1.3-4.5,3.929-5.056a8.086,8.086,0,0,1,1.668-.16c.286,0,.571.012.853.032a3.388,3.388,0,0,1,2.654,1.188,3.519,3.519,0,0,1,.291,3,4.378,4.378,0,0,1-.194.556c-.175.435-.238.645-.119.835.059.094.211.122.521.161a2.316,2.316,0,0,1,.828.218l.117.063c1.272.678,2.856,1.521,2.813,3.44-.047,2.127-2,2.874-3.159,3.32a8.755,8.755,0,0,1-3.189.559Zm-1.412-4.73a1.6,1.6,0,0,1,.691,1.788c-.016.038.047.086.3.1.122.008.243.011.363.011a7.386,7.386,0,0,0,2.662-.54.728.728,0,0,0,.522-.608c.008-.16.022-.459-.632-.677a5.965,5.965,0,0,0-.637-.163,7.508,7.508,0,0,1-.731-.188,2.444,2.444,0,0,0-.788-.127A5.264,5.264,0,0,0,139.063,61.629ZM138.8,55.9a2.089,2.089,0,0,0-1.591.6,1.78,1.78,0,0,0-.579,2.225,5.873,5.873,0,0,1,2-.679c.729-.138,1.088-.558,1.373-1.606.08-.3.031-.382.031-.383a.305.305,0,0,0-.159-.054A7.148,7.148,0,0,0,138.8,55.9Z" transform="translate(0)"/>
    <path class="cls-2" d="M139.06,53.491c.274,0,.548.011.817.03,2.248.159,3.059,1.341,2.5,3.564-.15.593-.622,1.19-.252,1.78.316.5,1.046.292,1.535.553,1.278.683,2.7,1.389,2.668,3.052-.037,1.682-1.443,2.329-2.838,2.864a8.3,8.3,0,0,1-3.011.526,14.489,14.489,0,0,1-2.4-.224,1.888,1.888,0,0,1-1.221-.67,24.821,24.821,0,0,1-2.893-6.762c-.018-2.666,1.238-4.076,3.532-4.564a7.568,7.568,0,0,1,1.565-.149m-2.587,5.963a4.629,4.629,0,0,1,2.256-.917c1.11-.21,1.5-1.007,1.763-1.967.147-.544.065-.968-.533-1.061a7.577,7.577,0,0,0-1.156-.11,2.594,2.594,0,0,0-1.944.747,2.311,2.311,0,0,0-.386,3.31m3.943,4.576a7.931,7.931,0,0,0,2.842-.574,1.2,1.2,0,0,0,.843-1.051c.032-.657-.419-.991-.972-1.176-.445-.149-.923-.2-1.368-.352a2.966,2.966,0,0,0-.947-.153c-1.235,0-2.366.72-3.625.968,1.057.221,2.267.04,2.069,1.664-.064.523.365.636.766.661q.2.012.393.012M139.06,52.491a8.586,8.586,0,0,0-1.773.171c-2.849.605-4.344,2.524-4.324,5.549a1,1,0,0,0,.022.2,25.578,25.578,0,0,0,3.009,7.058,2.835,2.835,0,0,0,1.918,1.15,15.453,15.453,0,0,0,2.563.238,9.245,9.245,0,0,0,3.369-.592c1.2-.459,3.426-1.314,3.48-3.776.049-2.227-1.759-3.19-3.078-3.893l-.118-.063a2.751,2.751,0,0,0-1-.272l-.113-.015c.031-.094.078-.211.113-.3a4.8,4.8,0,0,0,.215-.619,3.984,3.984,0,0,0-.37-3.413,3.854,3.854,0,0,0-3.024-1.394c-.293-.021-.59-.033-.888-.033Zm-2.115,5.515a1.571,1.571,0,0,1,.619-1.152A1.6,1.6,0,0,1,138.8,56.4a5.31,5.31,0,0,1,.684.052c-.246.83-.506,1.022-.943,1.1a7.665,7.665,0,0,0-1.6.451Zm3.043,3.847a3.181,3.181,0,0,1,.826-.127,1.968,1.968,0,0,1,.631.1,7.546,7.546,0,0,0,.782.2,5.906,5.906,0,0,1,.584.148.716.716,0,0,1,.3.151c-.011.111-.162.176-.209.194a6.9,6.9,0,0,1-2.484.507l-.137,0a2.209,2.209,0,0,0-.292-1.176Z" transform="translate(0)"/>
  </g>
  <g>
    <path class="cls-1" d="M48.02,51.1a1.353,1.353,0,0,1-1.033-.4A1.965,1.965,0,0,1,46.6,49.16a14.253,14.253,0,0,0-.429-5.417c-.16-.5-.274-.5-.351-.5a1.353,1.353,0,0,0-.384.08,15.493,15.493,0,0,1-2.147.543,2.1,2.1,0,0,1-.354.031,1.332,1.332,0,0,1-1.386-.977,1.348,1.348,0,0,1,1.085-1.641,14.564,14.564,0,0,1,2.153-.512,15.039,15.039,0,0,0,5.313-1.45,2.435,2.435,0,0,1,1.175-.365,1.845,1.845,0,0,1,.853.217c2.007,1.022,4.506,2.294,5.4,4.95a4.54,4.54,0,0,1-.383,4.294,5.44,5.44,0,0,1-4.369,1.984h0a3.26,3.26,0,0,1-2.482-.842,5.138,5.138,0,0,1-1.012-2.737A21.875,21.875,0,0,0,49.788,50a.5.5,0,0,1-.048.378,1.183,1.183,0,0,1-.957.622l-.132.026A3.083,3.083,0,0,1,48.02,51.1Zm4.771-7.8a1.665,1.665,0,0,0-.577.1c-.819.3-.813.8-.729,1.742.019.213.037.424.04.627.021,1.54.542,1.667,1.119,1.667.067,0,.136,0,.208-.008a1.925,1.925,0,0,0,2-1.892A2.223,2.223,0,0,0,52.791,43.3Zm-3.8-.421q.1,1.879.237,3.339c-.061-.814-.053-1.661-.046-2.466,0-.328,0-.646,0-.948-.006-.005-.032-.046-.062-.088l-.136.086C48.984,42.823,48.986,42.848,48.987,42.875Z" transform="translate(0)"/>
    <path class="cls-2" d="M51.281,39.45a1.359,1.359,0,0,1,.625.162c2.145,1.092,4.344,2.259,5.149,4.663,1.351,4.036-1.88,5.619-4.278,5.619a2.856,2.856,0,0,1-2.1-.666c-1.208-1.421-.977-4.321-.994-6.433,0-.169-.261-.642-.537-.642h0a3.032,3.032,0,0,0-.674.387,52.2,52.2,0,0,0,.841,7.588c-.191.333-.354.323-.757.407a2.628,2.628,0,0,1-.53.062c-.717,0-.979-.45-.917-1.407a14.926,14.926,0,0,0-.452-5.6c-.19-.6-.424-.85-.827-.85a1.781,1.781,0,0,0-.538.1,14.968,14.968,0,0,1-2.078.526,1.585,1.585,0,0,1-.269.024.85.85,0,0,1-.9-.606c-.144-.54.257-.888.743-1.032a14.126,14.126,0,0,1,2.079-.5,15.5,15.5,0,0,0,5.486-1.507,1.962,1.962,0,0,1,.935-.3m1.364,8.485q.118,0,.246-.01a2.427,2.427,0,0,0,2.464-2.392A2.706,2.706,0,0,0,52.791,42.8a2.167,2.167,0,0,0-.75.134c-1.492.548-1.029,1.813-1.015,2.844.021,1.534.536,2.16,1.619,2.16M51.281,38.45h0a2.885,2.885,0,0,0-1.415.426,14.643,14.643,0,0,1-5.141,1.393A14.982,14.982,0,0,0,42.5,40.8a1.816,1.816,0,0,0,.443,3.6,2.587,2.587,0,0,0,.439-.038A16.027,16.027,0,0,0,45.6,43.8l.062-.019c.012.033.026.072.041.118a13.836,13.836,0,0,1,.407,5.233,2.5,2.5,0,0,0,.516,1.917,1.839,1.839,0,0,0,1.4.555,3.585,3.585,0,0,0,.734-.083l.125-.025a1.676,1.676,0,0,0,1.3-.865,1,1,0,0,0,.127-.4,4.262,4.262,0,0,0,2.475.664A5.945,5.945,0,0,0,57.551,48.7,5.015,5.015,0,0,0,58,43.958c-.954-2.849-3.554-4.173-5.643-5.237a2.366,2.366,0,0,0-1.079-.271Zm1.364,8.485c-.337,0-.6,0-.619-1.174,0-.215-.022-.439-.042-.665-.091-1.013-.015-1.074.4-1.227a1.171,1.171,0,0,1,.405-.072,1.708,1.708,0,0,1,1.563,1.742c.005.937-.793,1.332-1.541,1.39-.058,0-.115.007-.169.007Z" transform="translate(0)"/>
  </g>
  <g>
    <path class="cls-1" d="M139.436,21.142a2.333,2.333,0,0,1-.655-.1,1.385,1.385,0,0,1-.918-.707,1.9,1.9,0,0,1,.1-1.515l.42-1.042A43.972,43.972,0,0,1,140.37,13.3a3.127,3.127,0,0,0-.42-4,18.409,18.409,0,0,1-1.412-1.984c-.218-.337-.437-.675-.665-1a4.572,4.572,0,0,1-.924-2.459c-.031-.672-.081-1.765,1.229-1.98a2.634,2.634,0,0,1,.428-.036,1.675,1.675,0,0,1,1.251.479,1.529,1.529,0,0,1,.4,1.163,5.613,5.613,0,0,0,1.122,3.172,14.456,14.456,0,0,1,.769,1.4,1.275,1.275,0,0,0,.279.31A8.506,8.506,0,0,0,143.652,6.5c.106-.2.212-.391.321-.583a22.8,22.8,0,0,1,3.489-4.38A1.773,1.773,0,0,1,148.72.891a1.3,1.3,0,0,1,.932.413,1.666,1.666,0,0,1,.009,2.4,2.95,2.95,0,0,1-.63.521,3.021,3.021,0,0,0-.347.255,20.022,20.022,0,0,0-3.726,4.742c-.921,1.546-.486,2.531.514,3.619l.1.105a13.335,13.335,0,0,0,2.251,2.1l.234.163a2,2,0,0,0,.919.459c.22,0,.455-.19.7-.563a1.16,1.16,0,0,1,.984-.543,1.9,1.9,0,0,1,1.571,1.119,1.645,1.645,0,0,1-.527,2.475,3.735,3.735,0,0,1-1.846.506,5.261,5.261,0,0,1-2.926-1.063,16,16,0,0,1-4.085-3.935c-.22.539-.448,1.051-.671,1.551a12.3,12.3,0,0,0-1.35,4.331C140.741,20.987,139.825,21.142,139.436,21.142Z" transform="translate(0)"/>
    <path class="cls-2" d="M148.72,1.391a.808.808,0,0,1,.579.267,1.173,1.173,0,0,1-.021,1.719,9.16,9.16,0,0,1-.93.728,20.545,20.545,0,0,0-3.819,4.856c-1.043,1.751-.571,2.966.575,4.213a14.306,14.306,0,0,0,2.437,2.287,2.917,2.917,0,0,0,1.432.706c.359,0,.734-.2,1.117-.79a.654.654,0,0,1,.565-.316,1.411,1.411,0,0,1,1.127.849c.381.738.516,1.335-.328,1.81a3.215,3.215,0,0,1-1.6.441,4.921,4.921,0,0,1-2.65-.981,16.285,16.285,0,0,1-4.5-4.561c-.93,2.589-2.253,4.528-2.385,6.9-.042.748-.33,1.127-.887,1.127a1.848,1.848,0,0,1-.515-.084c-.891-.262-.735-.966-.5-1.554a56.585,56.585,0,0,1,2.385-5.468,3.63,3.63,0,0,0-.48-4.558c-.773-.905-1.362-1.967-2.047-2.949a4.129,4.129,0,0,1-.836-2.2c-.03-.662-.068-1.319.812-1.464a2.143,2.143,0,0,1,.347-.029,1.021,1.021,0,0,1,1.148,1.119c-.09,1.93,1.219,3.236,1.934,4.8.125.273.423.467.731.792a9.77,9.77,0,0,0,1.986-2.891,22.234,22.234,0,0,1,3.416-4.282,1.354,1.354,0,0,1,.9-.488m0-1h0a2.237,2.237,0,0,0-1.619.8,23.261,23.261,0,0,0-3.562,4.478c-.111.195-.218.393-.326.592a12.1,12.1,0,0,1-.761,1.281c-.2-.39-.424-.772-.647-1.144a5.161,5.161,0,0,1-1.05-2.891,2.008,2.008,0,0,0-.534-1.531,2.191,2.191,0,0,0-1.612-.634,3.15,3.15,0,0,0-.509.043,2.056,2.056,0,0,0-1.65,2.479A5.067,5.067,0,0,0,137.463,6.6c.226.325.442.658.657.992a18.725,18.725,0,0,0,1.449,2.034,2.66,2.66,0,0,1,.36,3.436,44.548,44.548,0,0,0-2.016,4.536q-.206.515-.414,1.028a2.349,2.349,0,0,0-.087,1.921,1.871,1.871,0,0,0,1.228.97,2.808,2.808,0,0,0,.8.125c.856,0,1.8-.544,1.886-2.071a11.946,11.946,0,0,1,1.305-4.151c.114-.256.23-.515.345-.779a15.981,15.981,0,0,0,3.681,3.373,5.973,5.973,0,0,0,3.2,1.146,4.231,4.231,0,0,0,2.091-.57c.83-.467,1.63-1.391.726-3.14a2.393,2.393,0,0,0-2.015-1.39,1.652,1.652,0,0,0-1.4.77c-.187.287-.3.34-.3.34a3,3,0,0,1-.607-.371c-.083-.059-.165-.116-.245-.17a12.968,12.968,0,0,1-2.163-2.03l-.095-.1c-1.036-1.127-1.145-1.861-.452-3.025a19.277,19.277,0,0,1,3.631-4.627,2.844,2.844,0,0,1,.291-.212,3.355,3.355,0,0,0,.733-.613A2.157,2.157,0,0,0,150,.95,1.791,1.791,0,0,0,148.72.391Z" transform="translate(0)"/>
  </g>
  <g>
    <path class="cls-1" d="M138.409,42.611a1.544,1.544,0,0,1-1.332-.875A11.082,11.082,0,0,1,136,38.954l-.046-.181a20.237,20.237,0,0,0-.6-2.051c-.789-2.116-.779-2.821.778-4.107a4.744,4.744,0,0,1,3.038-1.341,4.808,4.808,0,0,1,2.271.67,2.612,2.612,0,0,1,1.536,3.415l-.058.263c-.151.735-1.1,1.318-1.963,1.705A30.558,30.558,0,0,0,145,38.56a6.17,6.17,0,0,0,.744.068,6.76,6.76,0,0,1,.924.093,1.3,1.3,0,0,1,1.122,1.317,1.239,1.239,0,0,1-1.281,1.231h0c-1.126-.01-2.595-.042-4.084-.2a12.913,12.913,0,0,1-1.867-.382l-.366-.093c0,.021,0,.043,0,.065a1.712,1.712,0,0,1-.351,1.169A1.918,1.918,0,0,1,138.409,42.611Zm.759-8.214a.465.465,0,0,0-.306.11.714.714,0,0,0-.073.485.321.321,0,0,0,.025.113c.092-.016.169-.028.255-.045a2.011,2.011,0,0,1,.521-.119,1.362,1.362,0,0,0,.362-.08,1.144,1.144,0,0,0-.008-.145c-.026-.2-.364-.322-.676-.322Z" transform="translate(0)"/>
    <path class="cls-2" d="M139.166,31.774a4.341,4.341,0,0,1,2.036.611c1.885,1,1.442,2.089,1.225,3.135-.2.983-2.9,1.807-2.9,1.807a42.075,42.075,0,0,0,5.392,1.724c.546.1,1.116.055,1.659.16a.813.813,0,0,1,.718.82.74.74,0,0,1-.782.737H146.5c-1.343-.012-2.69-.055-4.024-.194a24.585,24.585,0,0,1-2.714-.6c-.16.616.054,1.105-.3,1.527a1.458,1.458,0,0,1-1.052.6,1.055,1.055,0,0,1-.9-.623,10.676,10.676,0,0,1-1.029-2.657,22.158,22.158,0,0,0-.663-2.283c-.768-2.062-.682-2.466.628-3.548a4.3,4.3,0,0,1,2.72-1.226m-.312,3.812a1.722,1.722,0,0,0,.375-.049c.386-.2,1.334.044,1.211-.887-.067-.507-.622-.757-1.172-.757q-.069,0-.138.005c-.69.053-.9.515-.838,1.143.038.383.226.544.562.544m.312-4.812h0a5.2,5.2,0,0,0-3.357,1.455c-1.758,1.452-1.776,2.393-.928,4.668a19.555,19.555,0,0,1,.59,2.02l.041.162a11.658,11.658,0,0,0,1.13,2.908,2.051,2.051,0,0,0,1.766,1.125,2.43,2.43,0,0,0,1.814-.957,1.889,1.889,0,0,0,.425-.926,12.019,12.019,0,0,0,1.727.341c1.508.157,2.993.189,4.119.2a1.732,1.732,0,0,0,1.8-1.728,1.808,1.808,0,0,0-1.528-1.811,7.153,7.153,0,0,0-.991-.1,5.873,5.873,0,0,1-.684-.062,22.776,22.776,0,0,1-2.9-.835,2.578,2.578,0,0,0,1.218-1.509l.056-.255a3.093,3.093,0,0,0-1.79-3.965,5.279,5.279,0,0,0-2.506-.729Z" transform="translate(0)"/>
  </g>
  <g>
    <path class="cls-1" d="M189.291,62.892a1.342,1.342,0,0,1-1.017-2.169c1.763-1.9,1.015-3.68.148-5.747-.147-.352-.295-.7-.427-1.05-.209-.553-.378-.611-.379-.611h0s-.2.016-.592.577a20.316,20.316,0,0,0-2.608,5.178c-.163.5-.406,1.232-1.306,1.335a2.8,2.8,0,0,1-.3.018,1.6,1.6,0,0,1-1.434-.756,1.9,1.9,0,0,1-.335-.89l-.054-.974c-.089-1.622-.182-3.3-.184-4.955a1.869,1.869,0,0,1,.471-1.336,1.425,1.425,0,0,1,1.035-.4c.054,0,.109,0,.166.007,1.392.112,1.384,1.307,1.381,1.881v.935c.212-.315.407-.628.6-.937a11.671,11.671,0,0,1,1.7-2.287,2.434,2.434,0,0,1,1.639-.771,1.561,1.561,0,0,1,1.375.829c1.54,2.7,3.457,6.068,2.416,10.04a2.524,2.524,0,0,1-1.613,1.948,2.158,2.158,0,0,1-.687.134Z" transform="translate(0)"/>
    <path class="cls-2" d="M187.8,50.441a1.055,1.055,0,0,1,.941.576c1.693,2.97,3.321,6.024,2.367,9.666a2.075,2.075,0,0,1-1.291,1.6,1.672,1.672,0,0,1-.527.108.72.72,0,0,1-.574-.266.731.731,0,0,1-.076-1.063c2.317-2.492.723-4.939-.177-7.314-.238-.629-.524-.934-.848-.934-.3,0-.641.27-1,.793a20.711,20.711,0,0,0-2.672,5.306c-.152.462-.3.928-.887.995a2.12,2.12,0,0,1-.24.014,1.109,1.109,0,0,1-1.01-.521,1.467,1.467,0,0,1-.26-.65c-.1-1.967-.234-3.935-.236-5.9,0-.552.2-1.236,1.006-1.236.04,0,.082,0,.126.005.9.073.925.711.922,1.379,0,.634,0,1.269,0,2.448,1.359-1.623,1.947-3.209,3.149-4.375a1.933,1.933,0,0,1,1.29-.629m0-1a2.883,2.883,0,0,0-1.986.912,10.261,10.261,0,0,0-1.5,1.933,1.816,1.816,0,0,0-1.8-1.665q-.107-.009-.206-.008a1.877,1.877,0,0,0-1.653.879,2.577,2.577,0,0,0-.353,1.358c0,1.658.094,3.329.183,4.946l.055,1.01a2.381,2.381,0,0,0,.412,1.129,2.11,2.11,0,0,0,1.857.989,3.116,3.116,0,0,0,.353-.021,2.078,2.078,0,0,0,1.721-1.668,19.8,19.8,0,0,1,2.548-5.058c.027-.04.053-.076.078-.108l.014.036c.134.354.283.71.433,1.067.924,2.2,1.415,3.633-.053,5.212a1.841,1.841,0,0,0,1.382,3.01,2.627,2.627,0,0,0,.849-.161,3.026,3.026,0,0,0,1.935-2.294c1.092-4.17-.881-7.632-2.466-10.414a2.049,2.049,0,0,0-1.809-1.081Z" transform="translate(0)"/>
  </g>
  <g>
    <path class="cls-1" d="M120.641,65.216a1.924,1.924,0,0,1-.577-.092,1.455,1.455,0,0,1-.98-1.665,9.476,9.476,0,0,0-.426-4.033c-.066-.173-.12-.362-.173-.554-.2-.711-.3-.906-.659-.924l-.106,0a2.014,2.014,0,0,0-1.79,1.107l-.058.1a10.334,10.334,0,0,0-1.43,3.43c-.191,1.26-.847,1.9-1.947,1.9-1.4-.037-1.546-1.268-1.609-1.794a4.282,4.282,0,0,0-.646-1.57c-.123-.216-.246-.433-.356-.654a11,11,0,0,1-.872-2.322,1.582,1.582,0,0,1,1.106-1.928,1.565,1.565,0,0,1,.43-.062,1.689,1.689,0,0,1,1.5,1.1,5.378,5.378,0,0,1,.332,1.168,3.6,3.6,0,0,0,.354,1.132,1.731,1.731,0,0,0,.246-.559,3.137,3.137,0,0,1,.255-.632,7.317,7.317,0,0,1,3.069-3.01,3.892,3.892,0,0,1,1.755-.446,3.187,3.187,0,0,1,3.056,2.506c.309,1.072.512,2.181.709,3.254l.095.516a3.809,3.809,0,0,1,.051.57c.013.364.028.579.2.753a1.533,1.533,0,0,1,.528,1.063,1.211,1.211,0,0,1-.418.86,2.41,2.41,0,0,1-1.638.785Z" transform="translate(0)"/>
    <path class="cls-2" d="M118.061,55.409a2.674,2.674,0,0,1,2.575,2.143c.349,1.217.56,2.476.793,3.724.1.535-.066,1.122.38,1.58.354.363.6.757.123,1.215a1.908,1.908,0,0,1-1.291.645,1.416,1.416,0,0,1-.427-.068c-.544-.171-.66-.656-.632-1.16a10.027,10.027,0,0,0-.458-4.241c-.276-.716-.285-1.749-1.274-1.8q-.066,0-.13,0a2.513,2.513,0,0,0-2.226,1.363,11.137,11.137,0,0,0-1.546,3.7c-.141.924-.54,1.474-1.453,1.474h-.064c-.83-.023-.969-.691-1.049-1.353a7.5,7.5,0,0,0-1.05-2.387,10.636,10.636,0,0,1-.834-2.215,1.077,1.077,0,0,1,.757-1.331,1.065,1.065,0,0,1,.292-.042,1.206,1.206,0,0,1,1.047.806c.4.893.254,2.013,1.04,2.762.793-.312.732-1.08,1.037-1.609a6.87,6.87,0,0,1,2.86-2.814,3.412,3.412,0,0,1,1.531-.392m0-1a4.389,4.389,0,0,0-1.98.5,7.886,7.886,0,0,0-3.259,3.177,5.005,5.005,0,0,0-.317-1.035,2.174,2.174,0,0,0-1.958-1.394,2.1,2.1,0,0,0-2.022,2.607,11.485,11.485,0,0,0,.911,2.426c.115.231.242.456.37.68a3.879,3.879,0,0,1,.583,1.382,2.152,2.152,0,0,0,2.015,2.233h.091a2.368,2.368,0,0,0,2.442-2.324,9.947,9.947,0,0,1,1.37-3.258l.059-.106a1.512,1.512,0,0,1,1.354-.853l.082,0h.011a2.994,2.994,0,0,1,.191.56c.057.207.116.412.188.6a9.034,9.034,0,0,1,.392,3.827,1.942,1.942,0,0,0,1.331,2.169,2.422,2.422,0,0,0,.727.114,2.943,2.943,0,0,0,1.984-.924,1.7,1.7,0,0,0,.572-1.213,2.017,2.017,0,0,0-.671-1.421,1.071,1.071,0,0,1-.055-.422,4.2,4.2,0,0,0-.058-.643l-.1-.528c-.2-1.08-.4-2.2-.717-3.289a3.67,3.67,0,0,0-3.536-2.867Z" transform="translate(0)"/>
  </g>
  <g>
    <path class="cls-1" d="M126.658,43.167a4.033,4.033,0,0,1-3.087-1.375c-1.447-1.656-1.617-5.161-.324-6.7a1.467,1.467,0,0,1,1.143-.582,1.493,1.493,0,0,1,.433.066,1.564,1.564,0,0,1,1,1.27,2.033,2.033,0,0,1-.228,1.38c-.039.088-.078.176-.113.266-.318.836-.074,1.564.817,2.435a.947.947,0,0,0,.66.306,1,1,0,0,0,.5-.148,2.168,2.168,0,0,0,1.321-2.225l-.031-.308a4.592,4.592,0,0,1,.151-2.275,2.072,2.072,0,0,1,2.028-1.483,3.249,3.249,0,0,1,.613.062,1.622,1.622,0,0,1,1.179.719,1.5,1.5,0,0,1,.032,1.292,10.376,10.376,0,0,0-.449,1.52c-.3,1.515-.095,1.821,1.436,2.179l.166.033a1.124,1.124,0,0,1,1.087,1,1.516,1.516,0,0,1-.949,1.592,3.013,3.013,0,0,1-1.395.372,3.312,3.312,0,0,1-2.24-1.063l-.016.014a9.848,9.848,0,0,1-.793.66,5.027,5.027,0,0,1-2.939.992Z" transform="translate(0)"/>
    <path class="cls-2" d="M130.926,34.3a2.751,2.751,0,0,1,.519.054c.741.143,1.128.531.835,1.35a11.06,11.06,0,0,0-.469,1.592c-.348,1.787.018,2.342,1.813,2.762.387.091.817.071.871.6a1.021,1.021,0,0,1-.683,1.1,2.507,2.507,0,0,1-1.165.315,3.179,3.179,0,0,1-2.217-1.25c-.4.347-.743.68-1.123.954a4.549,4.549,0,0,1-2.647.9,3.545,3.545,0,0,1-2.711-1.2c-1.282-1.467-1.449-4.7-.318-6.045a.924.924,0,0,1,1.048-.359c.434.132.565.516.662.912a2.185,2.185,0,0,1-.322,1.348,2.644,2.644,0,0,0,.936,2.97,1.439,1.439,0,0,0,1.008.448,1.486,1.486,0,0,0,.745-.215,2.677,2.677,0,0,0,1.569-2.705,4.924,4.924,0,0,1,.087-2.355,1.58,1.58,0,0,1,1.561-1.164m0-1h0a2.579,2.579,0,0,0-2.494,1.8,5.081,5.081,0,0,0-.181,2.511l.031.3c.053.553-.04,1.147-1.074,1.744a.534.534,0,0,1-.245.081.475.475,0,0,1-.31-.164c-.861-.84-.9-1.366-.7-1.9.031-.082.067-.162.1-.241a2.519,2.519,0,0,0,.256-1.7,2.056,2.056,0,0,0-1.342-1.63,1.993,1.993,0,0,0-.579-.088,1.954,1.954,0,0,0-1.525.76c-1.452,1.725-1.282,5.5.33,7.347a4.526,4.526,0,0,0,3.464,1.546,5.522,5.522,0,0,0,3.232-1.087c.181-.131.351-.27.515-.411a3.27,3.27,0,0,0,3.867.468,2,2,0,0,0,1.216-2.087,1.617,1.617,0,0,0-1.495-1.439c-.047-.009-.1-.017-.143-.028-1.273-.3-1.3-.343-1.059-1.6a10.025,10.025,0,0,1,.43-1.447,1.98,1.98,0,0,0-.068-1.707,2.092,2.092,0,0,0-1.519-.962,3.761,3.761,0,0,0-.709-.072Z" transform="translate(0)"/>
  </g>
  <g>
    <path class="cls-1" d="M171.175,62.113c-2.775,0-3.667-2.309-4.1-4.045a16.335,16.335,0,0,1-.362-2.685c-.036-.465-.071-.929-.131-1.393a3.277,3.277,0,0,1,.121-1.4c.3-.938.822-1.415,1.544-1.415a1.78,1.78,0,0,1,.4.047c1.188.274,1.041,1.379.971,1.91a13.158,13.158,0,0,0,.324,5.013c.276,1.107.567,1.284,1.361,1.284.088,0,.18,0,.277-.009a8.021,8.021,0,0,0,3.377-1.179c.315-.172.37-.336.309-.922-.048-.452-.064-.908-.081-1.363l-.022-.576a.485.485,0,0,1,.034-.208V53.2c0-1.375.87-1.58,1.388-1.58a1.629,1.629,0,0,1,1.244.475,1.7,1.7,0,0,1,.354,1.32c-.054.7-.1,1.276-.089,1.869,0,.24,0,.482-.013.724-.036,1.129-.067,2.1.923,2.785a1.137,1.137,0,0,1,.316,1.49,1.375,1.375,0,0,1-1.176.88h0a1.027,1.027,0,0,1-.43-.1,2.673,2.673,0,0,0-1.137-.255,6.033,6.033,0,0,0-2.118.548c-.4.153-.795.307-1.2.423A7.7,7.7,0,0,1,171.175,62.113Z" transform="translate(0)"/>
    <path class="cls-2" d="M168.25,51.677a1.281,1.281,0,0,1,.288.035c.741.171.66.807.587,1.357a13.738,13.738,0,0,0,.335,5.2c.306,1.224.731,1.663,1.848,1.663q.145,0,.306-.01a8.559,8.559,0,0,0,3.588-1.239c.622-.34.626-.827.565-1.412-.066-.634-.071-1.274-.1-1.912h.035q0-1.078,0-2.157c0-.616.181-1.081.889-1.081h.049c.817.024,1.111.48,1.051,1.254-.05.636-.1,1.276-.091,1.913.014,1.4-.329,2.912,1.126,3.916a.655.655,0,0,1,.149.864.91.91,0,0,1-.724.594.524.524,0,0,1-.221-.05,3.164,3.164,0,0,0-1.346-.3,13.187,13.187,0,0,0-3.456.989,7.235,7.235,0,0,1-1.951.313c-1.92,0-3-1.186-3.61-3.665a34.4,34.4,0,0,1-.482-4.021,2.807,2.807,0,0,1,.1-1.181c.177-.547.461-1.069,1.068-1.069m0-1h0c-.662,0-1.55.306-2.02,1.762a3.8,3.8,0,0,0-.14,1.614c.057.446.091.891.128,1.364a16.723,16.723,0,0,0,.375,2.772c.271,1.095,1.094,4.425,4.581,4.425a8.162,8.162,0,0,0,2.224-.351c.436-.124.847-.283,1.245-.437a5.683,5.683,0,0,1,1.938-.514,2.178,2.178,0,0,1,.928.209,1.518,1.518,0,0,0,.639.142,1.865,1.865,0,0,0,1.629-1.169,1.634,1.634,0,0,0-.487-2.112c-.731-.5-.745-1.156-.707-2.358.008-.249.016-.5.013-.745-.006-.574.035-1.142.088-1.825a2.18,2.18,0,0,0-.481-1.693,2.054,2.054,0,0,0-1.537-.639h-.078A1.843,1.843,0,0,0,174.7,53.2v1.917a.909.909,0,0,0-.034.292c.009.19.016.379.023.569.016.454.033.923.083,1.4a1.61,1.61,0,0,1,.014.394c-.006,0-.027.017-.064.037a7.591,7.591,0,0,1-3.167,1.118c-.087.005-.169.008-.247.008-.539,0-.651,0-.878-.905a12.665,12.665,0,0,1-.314-4.825c.185-1.385-.271-2.214-1.354-2.463a2.289,2.289,0,0,0-.512-.061Z" transform="translate(0)"/>
  </g>
  <g>
    <path class="cls-1" d="M160.207,41.08a2.243,2.243,0,0,1-.267-.016,3.27,3.27,0,0,1-2.267-1.49,6.3,6.3,0,0,1-.938-2.125c-.05-.207-.094-.417-.139-.625a7.888,7.888,0,0,0-.5-1.705l-.094-.192a2.522,2.522,0,0,1-.339-1.079,1.825,1.825,0,0,1,.445-1.191,2.947,2.947,0,0,1,2.034-.969c.151-.014.3-.02.454-.02a10.843,10.843,0,0,1,1.275.1l.285.033c.257.029.516.053.773.077a18.838,18.838,0,0,1,1.909.244,5.792,5.792,0,0,1,2.639,1.152,2.679,2.679,0,0,1,1.077,1.979,2.959,2.959,0,0,1-.692,1.8,13.581,13.581,0,0,1-2.731,2.548l-.359.278a4.444,4.444,0,0,1-2.57,1.2Zm.125-6.584a1.322,1.322,0,0,0-.833.161.965.965,0,0,0-.112.672c.014.174.019.356.022.541.019.762.059,1.24.461,1.451a1.085,1.085,0,0,0,.513.126,3.22,3.22,0,0,0,1.627-.7c.7-.481,1.2-1.19,1.118-1.58-.069-.335-.649-.5-.989-.564a6.294,6.294,0,0,0-.943-.083l-.418-.02Z" transform="translate(0)"/>
    <path class="cls-2" d="M158.6,32.167a13.65,13.65,0,0,1,1.5.129c.882.1,1.771.143,2.642.315a5.394,5.394,0,0,1,2.417,1.047,2.229,2.229,0,0,1,.9,1.6,2.523,2.523,0,0,1-.593,1.492,15.083,15.083,0,0,1-3,2.731,3.981,3.981,0,0,1-2.263,1.1,1.8,1.8,0,0,1-.209-.012,2.8,2.8,0,0,1-1.916-1.282,5.833,5.833,0,0,1-.861-1.953,12.427,12.427,0,0,0-.667-2.426,2.8,2.8,0,0,1-.385-1.071,1.329,1.329,0,0,1,.33-.86,2.474,2.474,0,0,1,1.7-.79c.136-.013.272-.018.409-.018m1.78,5.779a3.609,3.609,0,0,0,1.91-.791c1.2-.828,2.326-2.578-.058-3.046A11.172,11.172,0,0,0,160.808,34h-.1l-.375,0c-.806,0-1.541.086-1.442,1.371.067.868-.106,1.948.75,2.4a1.58,1.58,0,0,0,.744.183m-1.78-6.779c-.167,0-.334.007-.5.022a3.438,3.438,0,0,0-2.373,1.148,2.319,2.319,0,0,0-.56,1.522,2.976,2.976,0,0,0,.391,1.29c.03.06.06.12.088.181a7.549,7.549,0,0,1,.46,1.6c.045.212.09.423.14.633a6.817,6.817,0,0,0,1.016,2.3,3.753,3.753,0,0,0,2.617,1.7,2.806,2.806,0,0,0,.325.019,4.838,4.838,0,0,0,2.878-1.309l.362-.281a13.939,13.939,0,0,0,2.824-2.643,3.43,3.43,0,0,0,.79-2.1,3.169,3.169,0,0,0-1.258-2.356,6.275,6.275,0,0,0-2.861-1.257,19.217,19.217,0,0,0-1.959-.252c-.256-.024-.511-.048-.766-.076l-.278-.032a11.256,11.256,0,0,0-1.336-.1Zm1.283,3.853a2.861,2.861,0,0,1,.444-.024h.45c.13.008.261.013.392.018a5.994,5.994,0,0,1,.87.074,1.584,1.584,0,0,1,.588.2,2.341,2.341,0,0,1-.905,1.037,2.893,2.893,0,0,1-1.342.614.583.583,0,0,1-.28-.069c-.159-.083-.18-.475-.193-1.02,0-.193-.01-.384-.024-.567a1.4,1.4,0,0,1,0-.27Z" transform="translate(0)"/>
  </g>
  <g>
    <path class="cls-1" d="M51.014,70.454a2.159,2.159,0,0,1-1.265-.5,7.07,7.07,0,0,1-2.66-4.536,3.95,3.95,0,0,1-.035-.946c.035-.832.05-1.177-.9-1.3a.791.791,0,0,1-.66-.763,2.48,2.48,0,0,1,1.283-2.328,26.7,26.7,0,0,1,2.7-.814c.324-.085.633-.166.918-.247A.543.543,0,0,1,50.532,59a.526.526,0,0,1,.078.006c.365.058.7.1,1.007.139a9.437,9.437,0,0,1,1.752.327,2.407,2.407,0,0,1,1.656,1.525,2.464,2.464,0,0,1-.5,2.251,8.183,8.183,0,0,1-3.267,2.345c-.726.337-.862.5-.879.564-.021.082.058.318.548.974.139.187.283.367.428.548l.3.386a1.773,1.773,0,0,0,.186.189,1.112,1.112,0,0,1,.307,1.582,1.377,1.377,0,0,1-1.142.621Zm-.038-8.6a4.924,4.924,0,0,0-.555.041l-.192.021c-.137.013-.206.047-.226.074-.008.012-.078.127.021.531.05.2.137.242.27.242a.711.711,0,0,0,.2-.031,1.466,1.466,0,0,0,1-.8A1.586,1.586,0,0,0,50.976,61.857Z" transform="translate(0)"/>
    <path class="cls-2" d="M50.532,59.5a19.8,19.8,0,0,1,2.684.447,1.792,1.792,0,0,1,.915,3,7.67,7.67,0,0,1-3.079,2.193c-1.431.665-1.481,1.007-.521,2.292.238.319.493.625.737.939.271.35.878.63.483,1.172a.888.888,0,0,1-.737.416,1.721,1.721,0,0,1-.965-.4,6.629,6.629,0,0,1-2.47-4.233c-.194-.987.538-2.4-1.362-2.648-.529-.07-.114-1.8.735-2.126,1.247-.472,2.563-.759,3.58-1.049m-.238,3.769a1.212,1.212,0,0,0,.337-.051,1.979,1.979,0,0,0,1.482-1.527,1.955,1.955,0,0,0-1.136-.331c-.272,0-.537.039-.8.064-.759.075-.783.649-.641,1.223a.738.738,0,0,0,.755.622m.238-4.769a1,1,0,0,0-.274.038c-.282.08-.588.16-.909.245a27.081,27.081,0,0,0-2.751.831A2.949,2.949,0,0,0,45,62.461a1.289,1.289,0,0,0,1.09,1.2.918.918,0,0,1,.447.131,2.379,2.379,0,0,1,.022.655,4.45,4.45,0,0,0,.044,1.064,7.548,7.548,0,0,0,2.852,4.84,2.636,2.636,0,0,0,1.564.6,1.892,1.892,0,0,0,1.545-.827,1.553,1.553,0,0,0-.367-2.241,1.371,1.371,0,0,1-.134-.132c-.1-.129-.2-.258-.305-.386-.142-.178-.284-.356-.421-.539a6.341,6.341,0,0,1-.363-.527,5.65,5.65,0,0,1,.5-.259,8.633,8.633,0,0,0,3.456-2.5,2.992,2.992,0,0,0,.573-2.7,2.894,2.894,0,0,0-1.979-1.85,9.844,9.844,0,0,0-1.838-.346c-.305-.038-.634-.079-1-.137a1,1,0,0,0-.157-.012Z" transform="translate(0)"/>
  </g>
  <g>
    <path class="cls-1" d="M69.879,47.743a4.669,4.669,0,0,1-1.612-.3,3.689,3.689,0,0,1-2.434-3.761,4.857,4.857,0,0,1,1.894-2.938,6.793,6.793,0,0,1,4.471-1.4h.1c1.413.013,2.38,1.045,2.522,2.695s.333,2.662,1.795,3.061a1,1,0,0,1,.616.488,1.188,1.188,0,0,1,.072.922,1.34,1.34,0,0,1-1.08.913,3.294,3.294,0,0,1-.6.057,2.266,2.266,0,0,1-1.392-.435,2.028,2.028,0,0,0-1.17-.5,1.856,1.856,0,0,0-1.132.51,3.2,3.2,0,0,1-2.053.7Zm1.052-5.673A2.9,2.9,0,0,0,69,43.407c-.141.344-.234.86.564,1.375a.887.887,0,0,0,.486.146,1.669,1.669,0,0,0,1.42-1.656c-.041-.136-.071-.281-.1-.427-.091-.447-.154-.655-.378-.77Z" transform="translate(0)"/>
    <path class="cls-2" d="M72.2,39.838h.1c1.336.012,1.929,1.086,2.029,2.238.137,1.582.326,3,2.161,3.5a.579.579,0,0,1,.344.776.844.844,0,0,1-.7.573,2.791,2.791,0,0,1-.507.049,1.786,1.786,0,0,1-1.092-.335,2.489,2.489,0,0,0-1.469-.6,2.3,2.3,0,0,0-1.449.623,2.689,2.689,0,0,1-1.736.584,4.193,4.193,0,0,1-1.439-.274,3.2,3.2,0,0,1-2.107-3.307,4.524,4.524,0,0,1,1.713-2.538,6.35,6.35,0,0,1,4.15-1.286m-2.146,5.59a2.173,2.173,0,0,0,1.924-2.222c-.186-.528-.122-1.251-.754-1.575a.63.63,0,0,0-.289-.06,3.334,3.334,0,0,0-2.4,1.648,1.535,1.535,0,0,0,.757,1.984,1.384,1.384,0,0,0,.757.226m2.146-6.59a7.275,7.275,0,0,0-4.789,1.517,5.4,5.4,0,0,0-2.067,3.194,1.018,1.018,0,0,0-.006.144,4.192,4.192,0,0,0,2.76,4.214,5.165,5.165,0,0,0,1.785.336,3.692,3.692,0,0,0,2.369-.809,1.411,1.411,0,0,1,.817-.4,1.617,1.617,0,0,1,.87.4,2.794,2.794,0,0,0,1.691.535,3.8,3.8,0,0,0,.689-.066,1.827,1.827,0,0,0,1.466-1.253,1.688,1.688,0,0,0-.11-1.313,1.489,1.489,0,0,0-.925-.731c-1.06-.289-1.276-.878-1.427-2.621A3.1,3.1,0,0,0,72.3,38.838Zm-2.146,5.59a.385.385,0,0,1-.216-.067c-.542-.349-.448-.58-.373-.765a2.683,2.683,0,0,1,1.334-1c.031.094.062.248.083.351s.049.244.085.375a1.177,1.177,0,0,1-.913,1.109Z" transform="translate(0)"/>
  </g>
  <g>
    <path class="cls-1" d="M119.4,44.168c-1.636,0-3.851-.566-4.847-1.808a1.681,1.681,0,0,1-.18-1.869,1.19,1.19,0,0,1,.69-.654c-.046-.025-.093-.051-.138-.078-2.008-1.174-2.414-2.354-1.5-4.355a5.335,5.335,0,0,1,4.061-2.367,2.015,2.015,0,0,1,.543.069,1.487,1.487,0,0,1,1.152,1.539,1.215,1.215,0,0,1-1.141,1.283c-.106.012-.215.019-.323.025a2,2,0,0,0-.51.069c-.884.311-1.019.722-1.037,1.044-.013.225.006.284.565.447a3.612,3.612,0,0,1,.486.168c.581.266,1.176.5,1.771.739.511.2,1.021.407,1.524.628l.1.043a4.557,4.557,0,0,1,1.882,1.255,2.218,2.218,0,0,1,.6,1.789,2.273,2.273,0,0,1-1.24,1.479,4.907,4.907,0,0,1-2.461.554Zm-1.7-3.237a2.7,2.7,0,0,0,1.366.462c-.338-.129-.725-.257-.993-.347l-.393-.131Z" transform="translate(0)"/>
    <path class="cls-2" d="M117.486,33.537a1.525,1.525,0,0,1,.409.05.993.993,0,0,1,.787,1.05.716.716,0,0,1-.7.793,4.315,4.315,0,0,0-.943.119,1.734,1.734,0,0,0-1.37,1.487c-.051.886.815.856,1.343,1.1,1.082.5,2.211.89,3.3,1.37a4.321,4.321,0,0,1,1.79,1.152c.826,1.042.675,1.837-.5,2.526a4.468,4.468,0,0,1-2.208.485c-1.71,0-3.653-.618-4.457-1.621a1.2,1.2,0,0,1-.116-1.344.682.682,0,0,1,.673-.435,2.5,2.5,0,0,1,.561.089c.564.135.9.608,1.325.96a3.277,3.277,0,0,0,1.9.585,1.2,1.2,0,0,0,.869-.251c.407-.459-1.925-1.03-2.8-1.39a17.236,17.236,0,0,1-2.172-.933c-1.815-1.061-2.1-1.96-1.3-3.716a4.86,4.86,0,0,1,3.6-2.075m0-1a5.838,5.838,0,0,0-4.514,2.659c-.943,2.063-.6,3.454,1.2,4.68a1.9,1.9,0,0,0-.253.4,2.18,2.18,0,0,0,.242,2.393c1.106,1.378,3.427,2,5.237,2a5.518,5.518,0,0,0,2.714-.623,2.768,2.768,0,0,0,1.478-1.818,2.714,2.714,0,0,0-.7-2.192,4.966,4.966,0,0,0-2.076-1.4l-.1-.042c-.509-.224-1.026-.43-1.544-.636-.606-.241-1.179-.469-1.744-.728a3.952,3.952,0,0,0-.555-.194c-.054-.016-.123-.036-.184-.055.046-.137.191-.311.682-.484a1.917,1.917,0,0,1,.373-.042c.117-.007.234-.014.349-.027a1.7,1.7,0,0,0,1.585-1.772,1.98,1.98,0,0,0-1.518-2.028,2.521,2.521,0,0,0-.678-.087Z" transform="translate(0)"/>
  </g>
  <g>
    <path class="cls-1" d="M151.463,41.512a3.214,3.214,0,0,1-3.072-1.843l-.1-.2c-.575-1.09-1.923-3.643.052-6a4.9,4.9,0,0,1,1.224-1.014,3.16,3.16,0,0,1,3.919.9,2.651,2.651,0,0,1-1.018,3.063,1.961,1.961,0,0,1-.537.284c-.378.162-1.165.5-1.3.844a.227.227,0,0,0,.014.191c.348.8.716,1.122,1.271,1.122a1.675,1.675,0,0,0,.221-.016l.657-.17c.609-.156,1.218-.312,1.833-.442a1.658,1.658,0,0,1,.339-.037,1.017,1.017,0,0,1,1.019.7,1.119,1.119,0,0,1-.577,1.342,7.054,7.054,0,0,1-3.838,1.272Z" transform="translate(0)"/>
    <path class="cls-2" d="M150.948,32.628a2.328,2.328,0,0,1,2.076.931c.45,1.043-.155,1.827-.894,2.494-.232.21-2.437.773-1.948,1.891.33.755.8,1.422,1.729,1.422a2.151,2.151,0,0,0,.287-.02c.842-.21,1.679-.44,2.527-.619a1.15,1.15,0,0,1,.235-.026.529.529,0,0,1,.547.362c.129.365-.1.571-.382.76a6.589,6.589,0,0,1-3.571,1.188h-.092a2.715,2.715,0,0,1-2.625-1.57c-.453-.889-2-3.4-.114-5.644a4.4,4.4,0,0,1,1.1-.907,2.226,2.226,0,0,1,1.127-.263m0-1a3.189,3.189,0,0,0-1.642.406,5.333,5.333,0,0,0-1.35,1.122c-2.19,2.612-.679,5.474-.109,6.552l.1.189a3.723,3.723,0,0,0,3.516,2.116h.112a7.539,7.539,0,0,0,4.1-1.355,1.564,1.564,0,0,0,.772-1.926,1.532,1.532,0,0,0-1.49-1.029,2.149,2.149,0,0,0-.442.048c-.63.133-1.255.293-1.859.448l-.645.164q-.054.005-.1.005c-.17,0-.422,0-.752-.689a4.931,4.931,0,0,1,.966-.508,2.3,2.3,0,0,0,.675-.373,3.133,3.133,0,0,0,1.142-3.633,3.219,3.219,0,0,0-2.994-1.535Z" transform="translate(0)"/>
  </g>
  <g>
    <path class="cls-1" d="M70.708,9.3a3.38,3.38,0,0,1-1.764-.55c-1.144-.7-2.3-2.5-2.015-3.695C67.2,3.942,68.635,3.1,70.276,3.1a2.4,2.4,0,0,1,.309-.019c1.379,0,1.92,1.146,2.354,2.066.076.162.152.324.232.48a2.2,2.2,0,0,1-.577,2.941,2.916,2.916,0,0,1-1.886.73Z" transform="translate(0)"/>
    <path class="cls-2" d="M70.585,3.583c1.26,0,1.612,1.245,2.142,2.276a1.707,1.707,0,0,1-.452,2.328,2.423,2.423,0,0,1-1.566.615,2.881,2.881,0,0,1-1.5-.477c-1.071-.656-2-2.286-1.789-3.153.2-.85,1.428-1.57,2.857-1.57h.03a2.155,2.155,0,0,1,.281-.019m-.187,3.4c.08,0,.145-.059.173-.17a.38.38,0,0,0-.272-.518l-.339.2a1.974,1.974,0,0,0,.252.393.277.277,0,0,0,.185.092m.187-4.4a3.11,3.11,0,0,0-.345.02c-1.872.025-3.481,1.021-3.8,2.338-.336,1.408.928,3.434,2.239,4.238a3.871,3.871,0,0,0,2.025.624,3.4,3.4,0,0,0,2.2-.846,2.684,2.684,0,0,0,.7-3.555c-.078-.152-.152-.309-.226-.466C72.948,4,72.28,2.583,70.585,2.583Z" transform="translate(0)"/>
  </g>
  <g>
    <path class="cls-1" d="M107.661,66.478c-.5,0-1.381-.222-1.6-1.707a20.769,20.769,0,0,0-1.084-3.82c-.179-.508-.358-1.017-.522-1.528a1.989,1.989,0,0,1,.141-1.8,1.441,1.441,0,0,1,1.205-.563,1.551,1.551,0,0,1,1.7,1.461,14.682,14.682,0,0,0,1.6,5.434,1.978,1.978,0,0,1,.153,1.659,1.444,1.444,0,0,1-.97.767,2.205,2.205,0,0,1-.621.1Z" transform="translate(0)"/>
    <path class="cls-2" d="M105.8,57.561h.062a1.035,1.035,0,0,1,1.14.981,15.179,15.179,0,0,0,1.643,5.619c.342.757.4,1.475-.5,1.74a1.7,1.7,0,0,1-.481.077c-.625,0-.985-.463-1.108-1.281a35.075,35.075,0,0,0-1.625-5.427c-.338-1.055.06-1.709.87-1.709m0-1a1.929,1.929,0,0,0-1.61.769,2.466,2.466,0,0,0-.213,2.245c.166.518.347,1.031.528,1.545a20.323,20.323,0,0,1,1.06,3.725c.3,1.98,1.68,2.133,2.1,2.133a2.708,2.708,0,0,0,.764-.118,1.93,1.93,0,0,0,1.283-1.038,2.435,2.435,0,0,0-.153-2.073A14.278,14.278,0,0,1,108,58.5a2.025,2.025,0,0,0-2.126-1.938Z" transform="translate(0)"/>
  </g>
  <g>
    <path class="cls-1" d="M58.048,7.664a1.664,1.664,0,0,1-1.3-.685c-.859-1.084.167-1.906.605-2.256a6.2,6.2,0,0,1,3.922-1.465,6.652,6.652,0,0,1,1.7.231.5.5,0,0,1,.372.487A1.352,1.352,0,0,1,62.169,5.46a4.531,4.531,0,0,0-2.787,1.5,1.716,1.716,0,0,1-1.334.7Z" transform="translate(0)"/>
    <path class="cls-2" d="M61.279,3.758a6.123,6.123,0,0,1,1.573.214c-.006.784-.413.917-.789,1a4.978,4.978,0,0,0-3.071,1.676,1.231,1.231,0,0,1-.944.517,1.161,1.161,0,0,1-.9-.5c-.54-.681.042-1.168.526-1.555a5.675,5.675,0,0,1,3.609-1.355m0-1a6.684,6.684,0,0,0-4.233,1.574c-1.533,1.225-1.219,2.285-.686,2.957a2.151,2.151,0,0,0,1.688.875,2.206,2.206,0,0,0,1.726-.893,4,4,0,0,1,2.5-1.323A1.86,1.86,0,0,0,63.852,3.98a1,1,0,0,0-.744-.974,7.154,7.154,0,0,0-1.829-.248Z" transform="translate(0)"/>
  </g>
  <g>
    <path class="cls-1" d="M112.544,7.291c-.764,0-1.4-.506-2.173-1.322a.874.874,0,0,1-.259-.922.65.65,0,0,1,.6-.4,4.114,4.114,0,0,0,1.977-.815,5.194,5.194,0,0,1,2.256-.948c.078-.008.154-.012.227-.012A1.4,1.4,0,0,1,116.59,4a.5.5,0,0,1-.062.424c-.033.049-.066.106-.1.167a2.664,2.664,0,0,1-.444.608,7.821,7.821,0,0,1-.728.594c-.137.1-.273.2-.405.312a3.96,3.96,0,0,1-2.3,1.187Z" transform="translate(0)"/>
    <path class="cls-2" d="M115.174,3.374a.909.909,0,0,1,.937.771,3.678,3.678,0,0,1-.476.692c-.339.324-.739.582-1.1.88a3.559,3.559,0,0,1-1.99,1.074c-.558,0-1.069-.387-1.81-1.167-.186-.2-.26-.466,0-.476,1.648-.065,2.667-1.6,4.263-1.765.061-.006.12-.009.178-.009m0-1q-.134,0-.277.014a5.673,5.673,0,0,0-2.473,1.022,3.708,3.708,0,0,1-1.729.739,1.154,1.154,0,0,0-1.046.709,1.376,1.376,0,0,0,.359,1.455,3.679,3.679,0,0,0,2.535,1.478,4.346,4.346,0,0,0,2.624-1.3c.126-.1.257-.2.387-.3a8.174,8.174,0,0,0,.772-.631,3.135,3.135,0,0,0,.532-.72c.029-.05.057-.1.084-.14a1,1,0,0,0,.124-.847,1.9,1.9,0,0,0-1.893-1.48Z" transform="translate(0)"/>
  </g>
  <g>
    <path class="cls-1" d="M89.767,19.818a1.735,1.735,0,0,1-1.045-.381l-.273-.21a3.435,3.435,0,0,0-.777-.512,1.525,1.525,0,0,1-.963-2.137,1.91,1.91,0,0,1,1.9-1.288l.111,0a.6.6,0,0,1,.169-.014c.937,0,1.219.73,1.405,1.213a1.272,1.272,0,0,0,.315.565,1.6,1.6,0,0,1,.82,1.095,1.252,1.252,0,0,1-.362,1.013,1.726,1.726,0,0,1-1.3.654Z" transform="translate(0)"/>
    <path class="cls-2" d="M88.886,15.778c1,0,.8,1.269,1.445,1.7.482.318.88.775.361,1.357a1.125,1.125,0,0,1-1.671.206,5.553,5.553,0,0,0-1.162-.786,1.037,1.037,0,0,1-.683-1.5,1.416,1.416,0,0,1,1.431-.966l.091,0a1.417,1.417,0,0,1,.189-.013m0-1c-.074,0-.152,0-.233.012h-.047A2.414,2.414,0,0,0,86.24,16.4a2.02,2.02,0,0,0,1.246,2.78,3.128,3.128,0,0,1,.653.44c.094.074.189.148.284.219a2.115,2.115,0,0,0,3.016-.342,1.736,1.736,0,0,0,.485-1.41,2.092,2.092,0,0,0-1.041-1.447c-.006-.021-.077-.205-.124-.327a1.979,1.979,0,0,0-1.871-1.534Z" transform="translate(0)"/>
  </g>
  <g>
    <path class="cls-1" d="M48.862,15.783a1.9,1.9,0,0,1-1.579-1.055,1.265,1.265,0,0,1,.146-1.295,7.23,7.23,0,0,1,3.313-2.65,1.245,1.245,0,0,1,.425-.079,1.088,1.088,0,0,1,.965.609,1.132,1.132,0,0,1-.1,1.274,9.8,9.8,0,0,0-1.8,2.25l-.277.423a1.232,1.232,0,0,1-1,.527S48.882,15.786,48.862,15.783Z" transform="translate(0)"/>
    <path class="cls-2" d="M51.166,11.205a.6.6,0,0,1,.528.352c.1.174.123.557.014.649a12.3,12.3,0,0,0-2.171,2.778.741.741,0,0,1-.585.3h-.029c-1.013-.108-1.538-.966-1.1-1.553a6.818,6.818,0,0,1,3.083-2.481.75.75,0,0,1,.255-.049m0-1a1.748,1.748,0,0,0-.6.109,7.707,7.707,0,0,0-3.541,2.819,1.775,1.775,0,0,0-.205,1.8,2.4,2.4,0,0,0,1.993,1.354c.035,0,.1.007.135.007a1.745,1.745,0,0,0,1.418-.75l.282-.429a9.431,9.431,0,0,1,1.7-2.138,1.664,1.664,0,0,0-1.187-2.766Z" transform="translate(0)"/>
  </g>
  <g>
    <path class="cls-1" d="M70.577,23.8c-1.115,0-1.314-.981-1.434-1.567-.021-.108-.043-.215-.069-.316a2.189,2.189,0,0,0-.223-.475c-.051-.09-.1-.181-.147-.272a1.667,1.667,0,0,1,.534-2.021,1.724,1.724,0,0,1,1.265-.624,1.525,1.525,0,0,1,.556.108,1.708,1.708,0,0,1,1.088,1.834c-.013.17-.035.339-.062.528l-.035.269-.021.375c0,.1,0,.206,0,.312,0,.611,0,1.748-1.308,1.844C70.668,23.8,70.621,23.8,70.577,23.8Z" transform="translate(0)"/>
    <path class="cls-2" d="M70.5,19.028a1.02,1.02,0,0,1,.374.074,1.208,1.208,0,0,1,.771,1.333c-.018.237-.056.473-.093.772-.006.1-.017.254-.025.412-.034.695.146,1.608-.85,1.682q-.053,0-.1,0c-.85,0-.851-.862-1.019-1.508a4.586,4.586,0,0,0-.406-.847c-.315-.63.063-1.04.452-1.455a1.255,1.255,0,0,1,.9-.465m0-1a2.206,2.206,0,0,0-1.63.782,2.157,2.157,0,0,0-.616,2.585c.049.1.1.2.158.294a2.021,2.021,0,0,1,.175.357c.024.094.044.192.064.292.12.588.4,1.966,1.923,1.966q.084,0,.175-.007c1.767-.131,1.77-1.8,1.771-2.343,0-.1,0-.194,0-.286l.018-.3,0-.064.031-.238c.027-.2.05-.378.063-.556a2.2,2.2,0,0,0-1.4-2.338,2.02,2.02,0,0,0-.738-.143Z" transform="translate(0)"/>
  </g>
  <g>
    <path class="cls-1" d="M94.349,22.059a1.687,1.687,0,0,1-1.887-1.589,1.631,1.631,0,0,1,.359-1.322,1.684,1.684,0,0,1,1.318-.507c.006,0,.381.008.52.008l1.193-.012c.1,0,.194,0,.291.008.063,0,.128,0,.194,0,.35,0,1.279.007,1.345,1.043a1.3,1.3,0,0,1-1.038,1.375,2.276,2.276,0,0,0-.707.384,2.662,2.662,0,0,1-1.506.606Z" transform="translate(0)"/>
    <path class="cls-2" d="M95.852,19.138c.087,0,.174,0,.261.007.448.027,1.027-.1,1.07.58a.806.806,0,0,1-.66.858c-.759.188-1.218.954-2.1.975h-.072c-.837,0-1.305-.364-1.388-1.141a1.048,1.048,0,0,1,1.18-1.277l.086,0c.145.005.289.007.434.007.249,0,.5,0,.746-.006.149,0,.3-.006.446-.006m0-1h0l-.264,0-.189,0-.343,0-.4,0c-.133,0-.266,0-.4-.006l-.122,0a2.167,2.167,0,0,0-1.69.673,2.117,2.117,0,0,0-.485,1.71,2.187,2.187,0,0,0,2.382,2.035h.1a3.153,3.153,0,0,0,1.779-.695,2.007,2.007,0,0,1,.542-.31,1.8,1.8,0,0,0,1.417-1.892c-.043-.685-.4-1.5-1.841-1.512-.057,0-.113,0-.167,0-.107-.006-.214-.009-.321-.009Z" transform="translate(0)"/>
  </g>
  <g>
    <path class="cls-1" d="M81.359,28.754c-.715-.014-1.911-.036-1.965-1.533a1.683,1.683,0,0,1,.438-1.264,2.024,2.024,0,0,1,1.5-.538,3.854,3.854,0,0,1,.389.02,1.057,1.057,0,0,1,.42.115,1.731,1.731,0,0,0,.626.073,1.714,1.714,0,0,1,1.332.4,1.311,1.311,0,0,1,.271,1.039c-.149,1.546-1.937,1.652-2.61,1.692H81.73C81.721,28.765,81.473,28.756,81.359,28.754Z" transform="translate(0)"/>
    <path class="cls-2" d="M81.332,25.919q.161,0,.338.018a.608.608,0,0,1,.229.056c.669.37,2.1-.3,1.973,1.031-.1,1.045-1.28,1.19-2.141,1.241-.874-.047-1.794.125-1.836-1.062-.03-.835.5-1.284,1.438-1.284m0-1a2.472,2.472,0,0,0-1.86.691,2.153,2.153,0,0,0-.577,1.629c.07,1.97,1.8,2,2.455,2.015.108,0,.218,0,.327.01h.053l.059,0c.714-.042,2.887-.172,3.078-2.143a1.785,1.785,0,0,0-.4-1.421,2.167,2.167,0,0,0-1.7-.571,2.492,2.492,0,0,1-.426-.026,1.474,1.474,0,0,0-.577-.16,4.375,4.375,0,0,0-.438-.023Z" transform="translate(0)"/>
  </g>
  <g>
    <path class="cls-1" d="M2.279,46.187A1.66,1.66,0,0,1,.8,45.366a2.122,2.122,0,0,1,.542-2.8l.221-.175a3.619,3.619,0,0,1,2.214-1.033,2.4,2.4,0,0,1,.774.132.9.9,0,0,1,.474.468,1.638,1.638,0,0,0,.1.157.5.5,0,0,1-.006.583l-.163.219c-.114.154-.234.315-.349.479a3.342,3.342,0,0,1-.609.62c-.4.343-.6.525-.539.917a1.1,1.1,0,0,1-.206.841,1.074,1.074,0,0,1-.74.4A1.989,1.989,0,0,1,2.279,46.187Z" transform="translate(0)"/>
    <path class="cls-2" d="M3.779,41.855a1.889,1.889,0,0,1,.613.106c.12.041.184.244.322.44-.163.222-.348.461-.52.709-.429.617-1.379.886-1.233,1.894a.556.556,0,0,1-.507.674,1.57,1.57,0,0,1-.177.01,1.161,1.161,0,0,1-1.043-.573,1.631,1.631,0,0,1,.418-2.156,3.677,3.677,0,0,1,2.127-1.1m0-1A4.022,4.022,0,0,0,1.254,42l-.217.172a2.642,2.642,0,0,0-.666,3.451,2.149,2.149,0,0,0,1.906,1.068,2.566,2.566,0,0,0,.289-.016,1.57,1.57,0,0,0,1.081-.594,1.6,1.6,0,0,0,.3-1.218c-.015-.107-.02-.135.368-.463a3.712,3.712,0,0,0,.7-.717c.112-.162.23-.319.344-.471l.16-.216a1,1,0,0,0,.012-1.169c-.028-.039-.049-.08-.07-.116a1.378,1.378,0,0,0-.748-.694,2.9,2.9,0,0,0-.935-.159Z" transform="translate(0)"/>
  </g>
  <g>
    <path class="cls-1" d="M101.264,18.909A1.314,1.314,0,0,1,99.9,17.524c.009-1.373,1.856-2.715,3.229-2.715a1.834,1.834,0,0,1,.643.11,1.152,1.152,0,0,1,.791,1.245c-.128.863-2.37,2.746-3.245,2.746Z" transform="translate(0)"/>
    <path class="cls-2" d="M103.127,15.309a1.328,1.328,0,0,1,.467.078.66.66,0,0,1,.47.726,5.477,5.477,0,0,1-2.749,2.3h-.02c-.547-.035-.9-.3-.9-.883.006-1.035,1.578-2.218,2.729-2.218m0-1c-1.62,0-3.719,1.557-3.729,3.211a1.813,1.813,0,0,0,1.833,1.887l.084,0c1.131,0,3.577-2.06,3.738-3.15a1.663,1.663,0,0,0-1.108-1.809,2.322,2.322,0,0,0-.818-.142Z" transform="translate(0)"/>
  </g>
  <g>
    <path class="cls-1" d="M108,12.026a1.013,1.013,0,0,1-.895-.812c-.333-1.113.633-2.609,1.743-3.309a1.466,1.466,0,0,1,.784-.246,1.442,1.442,0,0,1,.861.31,1.427,1.427,0,0,1,.646,1.28.507.507,0,0,1-.082.245l-.1.148c-.076.11-.161.233-.236.363l-.132.231c-.454.8-1.019,1.8-2.361,1.8C108.231,12.035,108.081,12.032,108,12.026Z" transform="translate(0)"/>
    <path class="cls-2" d="M109.636,8.159a.947.947,0,0,1,.565.212.917.917,0,0,1,.443.846c-.1.15-.237.337-.353.537-.49.845-.9,1.78-2.06,1.78q-.09,0-.187-.008c-.3-.024-.388-.231-.456-.458-.24-.8.515-2.1,1.531-2.741a.967.967,0,0,1,.518-.169m0-1a1.957,1.957,0,0,0-1.051.323c-1.26.794-2.366,2.5-1.956,3.874a1.465,1.465,0,0,0,1.333,1.168q.139.011.268.011a3.2,3.2,0,0,0,2.8-2.053l.129-.226c.068-.117.146-.229.214-.329l.108-.159a1,1,0,0,0,.164-.488,1.894,1.894,0,0,0-.848-1.714,1.931,1.931,0,0,0-1.158-.407Z" transform="translate(0)"/>
  </g>
  <g>
    <path class="cls-1" d="M74.688,28.264a4,4,0,0,1-1.912-.562l-.219-.11a1.439,1.439,0,0,1-.762-1.774,1.6,1.6,0,0,1,1.522-1.084,1.909,1.909,0,0,1,.2-.01,2.742,2.742,0,0,1,1.54.6,3.682,3.682,0,0,0,.611.354,1.456,1.456,0,0,1,.767,1.826,1.06,1.06,0,0,1-1.087.748l-.183-.006-.1-.5-.015.5a2.945,2.945,0,0,1-.36.023Z" transform="translate(0)"/>
    <path class="cls-2" d="M73.513,25.223c.768,0,1.293.644,1.963.917a.949.949,0,0,1,.483,1.2.571.571,0,0,1-.615.412c-.1,0-.2-.01-.282-.01a.451.451,0,0,0-.115.012c-.09.008-.177.012-.261.012a4.07,4.07,0,0,1-1.909-.621.933.933,0,0,1-.506-1.175,1.139,1.139,0,0,1,1.1-.737,1.4,1.4,0,0,1,.144-.007m0-1a2.4,2.4,0,0,0-.247.013,2.082,2.082,0,0,0-1.948,1.431,1.925,1.925,0,0,0,1.018,2.373l.212.107a4.471,4.471,0,0,0,2.139.617c.114,0,.231-.005.352-.016l.052-.006.043,0c.067,0,.138.007.21.007A1.566,1.566,0,0,0,76.9,27.666a1.938,1.938,0,0,0-1.05-2.453,3.36,3.36,0,0,1-.523-.308,3.192,3.192,0,0,0-1.817-.683Z" transform="translate(0)"/>
  </g>
  <g>
    <path class="cls-1" d="M120.8,3.769a1.177,1.177,0,0,1-1.242-1.159A1.509,1.509,0,0,1,120.635.754a10.509,10.509,0,0,1,1.25-.168c.236-.022.5-.048.8-.083h.022a3.218,3.218,0,0,1,.773.164,1.293,1.293,0,0,1,.96,1.409,1.228,1.228,0,0,1-.929,1.13c-.686.173-1.5.372-2.34.527a2.04,2.04,0,0,1-.368.036Z" transform="translate(0)"/>
    <path class="cls-2" d="M122.739,1a3.6,3.6,0,0,1,.578.141.8.8,0,0,1,.624.887.732.732,0,0,1-.554.693c-.764.194-1.533.378-2.308.521a1.538,1.538,0,0,1-.278.027.688.688,0,0,1-.745-.707c-.056-.582-.024-1.164.687-1.32.542-.119,1.1-.139,2-.242h0m0-1a1,1,0,0,0-.148.011c-.281.032-.528.056-.751.077a10.99,10.99,0,0,0-1.311.178c-.759.166-1.629.716-1.469,2.392A1.678,1.678,0,0,0,120.8,4.27a2.541,2.541,0,0,0,.459-.044c.851-.157,1.677-.359,2.372-.535a1.732,1.732,0,0,0,1.3-1.567,1.8,1.8,0,0,0-1.3-1.93,3.8,3.8,0,0,0-.9-.194Z" transform="translate(0)"/>
  </g>
  <g>
    <path class="cls-1" d="M39.542,22.706a1.1,1.1,0,0,1-1.046-.925,1.332,1.332,0,0,1,.561-1.374,23.934,23.934,0,0,1,2.358-1.237,1.2,1.2,0,0,1,.486-.106,1.261,1.261,0,0,1,1.137.812,1.2,1.2,0,0,1-.523,1.68,25.268,25.268,0,0,1-2.681,1.1.9.9,0,0,1-.292.048Z" transform="translate(0)"/>
    <path class="cls-2" d="M41.9,19.564a.775.775,0,0,1,.68.517A.705.705,0,0,1,42.3,21.1a25.152,25.152,0,0,1-2.628,1.081.409.409,0,0,1-.131.021.608.608,0,0,1-.556-.521.862.862,0,0,1,.323-.846,23.174,23.174,0,0,1,2.309-1.211.7.7,0,0,1,.283-.063m0-1a1.691,1.691,0,0,0-.688.149A24.353,24.353,0,0,0,38.8,19.976a1.771,1.771,0,0,0-.816,1.77,1,1,0,0,0,.017.133,1.6,1.6,0,0,0,1.537,1.328,1.407,1.407,0,0,0,.453-.074,25.765,25.765,0,0,0,2.733-1.124,1.687,1.687,0,0,0,.767-2.335A1.768,1.768,0,0,0,41.9,18.564Z" transform="translate(0)"/>
  </g>
  <g>
    <path class="cls-1" d="M72.358,13.8a1.346,1.346,0,0,1-.972-.466,2.567,2.567,0,0,1-.659-1.82,2.029,2.029,0,0,1,1.862-1.885,1.341,1.341,0,0,1,.367.051,1.512,1.512,0,0,1,1.171,1.568c-.15,1.153-.307,2.344-1.609,2.541-.025,0-.136.012-.16.012Z" transform="translate(0)"/>
    <path class="cls-2" d="M72.589,10.123a.848.848,0,0,1,.231.032,1.017,1.017,0,0,1,.811,1.024c-.163,1.24-.3,1.975-1.189,2.109a.573.573,0,0,1-.086.006c-.6,0-1.175-.919-1.131-1.76a1.546,1.546,0,0,1,1.363-1.411m0-1a2.52,2.52,0,0,0-2.361,2.359,3.047,3.047,0,0,0,.8,2.19,1.856,1.856,0,0,0,1.334.623,1.571,1.571,0,0,0,.235-.018c1.674-.253,1.872-1.759,2.031-2.968a2.022,2.022,0,0,0-1.53-2.117,1.85,1.85,0,0,0-.5-.069Z" transform="translate(0)"/>
  </g>
  <g>
    <path class="cls-1" d="M89.5,14.322a1.145,1.145,0,0,1-1.112-.931,2.6,2.6,0,0,1,.795-2.365A1.8,1.8,0,0,1,90.6,10.44a5.307,5.307,0,0,1,.8.079,1,1,0,0,1,.891,1.119,3.6,3.6,0,0,1-2.724,2.686Z" transform="translate(0)"/>
    <path class="cls-2" d="M90.6,10.94a4.818,4.818,0,0,1,.725.073.5.5,0,0,1,.471.558,3.214,3.214,0,0,1-2.229,2.254h-.037a.647.647,0,0,1-.656-.542,2.115,2.115,0,0,1,.68-1.922A1.313,1.313,0,0,1,90.6,10.94m0-1a2.3,2.3,0,0,0-1.791.752A3.092,3.092,0,0,0,87.9,13.5a1.637,1.637,0,0,0,1.569,1.321l.1,0c1.291,0,3.086-1.757,3.223-3.145a1.511,1.511,0,0,0-1.313-1.655A5.721,5.721,0,0,0,90.6,9.94Z" transform="translate(0)"/>
  </g>
  <g>
    <path class="cls-1" d="M129.184,5.944a3.007,3.007,0,0,1-.619-.068l-.14-.027a1.648,1.648,0,0,1-1.15-.587,1.218,1.218,0,0,1-.138-.956c.218-1.028.8-1.618,1.6-1.618a1.782,1.782,0,0,1,.489.072c.7.195,1.723.481,1.914,1.639a.5.5,0,0,1-.043.3,2.037,2.037,0,0,1-1.916,1.247Z" transform="translate(0)"/>
    <path class="cls-2" d="M128.74,3.187a1.3,1.3,0,0,1,.354.053c.618.175,1.41.355,1.557,1.24a1.541,1.541,0,0,1-1.467.965,2.512,2.512,0,0,1-.516-.058c-.511-.107-1.216-.155-1.041-.978.138-.65.476-1.222,1.114-1.222m0-1A2.206,2.206,0,0,0,126.648,4.2a1.7,1.7,0,0,0,.21,1.336,2.111,2.111,0,0,0,1.473.8l.131.026a3.52,3.52,0,0,0,.722.079,2.54,2.54,0,0,0,2.366-1.528,1,1,0,0,0,.087-.6A2.612,2.612,0,0,0,129.448,2.3l-.083-.023a2.305,2.305,0,0,0-.626-.09Z" transform="translate(0)"/>
  </g>
  <g>
    <path class="cls-1" d="M93.489,15.415a2.37,2.37,0,0,1-1.733-.838,1.332,1.332,0,0,1-.326-1.1c.221-1.1.763-1.663,1.611-1.663a1.9,1.9,0,0,1,1.92,1.807.5.5,0,0,1-.08.339,1.247,1.247,0,0,0-.112.331,1.235,1.235,0,0,1-1.19,1.125Z" transform="translate(0)"/>
    <path class="cls-2" d="M93.041,12.312H93.1a1.381,1.381,0,0,1,1.361,1.367c-.291.435-.1,1.193-.912,1.234l-.063,0c-.788,0-1.7-.717-1.57-1.343s.371-1.261,1.121-1.261m0-1c-.63,0-1.742.268-2.1,2.064a1.819,1.819,0,0,0,.43,1.518,2.855,2.855,0,0,0,2.12,1.022l.113,0a1.725,1.725,0,0,0,1.65-1.5,1.9,1.9,0,0,1,.057-.2.928.928,0,0,0,.148-.654,2.375,2.375,0,0,0-2.307-2.245l-.109,0Z" transform="translate(0)"/>
  </g>
  <g>
    <path class="cls-1" d="M89.031,22.539a1.155,1.155,0,0,1-.856-.319,1.7,1.7,0,0,1-.343-1.284v-.23a1.256,1.256,0,0,1,.315-.947,1.242,1.242,0,0,1,.94-.337,4.024,4.024,0,0,1,.467.034c.5.059,1.676.2,1.788,1.451a.5.5,0,0,1-.01.152,1.954,1.954,0,0,1-2.079,1.469c-.1.01-.165.012-.222.012Z" transform="translate(0)"/>
    <path class="cls-2" d="M89.087,19.922a3.54,3.54,0,0,1,.409.03c.62.073,1.278.2,1.349,1-.214.971-1.019,1.023-1.676,1.082-.049,0-.094.006-.137.006-.829,0-.683-.779-.7-1.347-.017-.637.346-.77.755-.77m0-1a1.636,1.636,0,0,0-1.754,1.8c0,.068,0,.139,0,.211a2.154,2.154,0,0,0,.486,1.641,1.643,1.643,0,0,0,1.212.467c.071,0,.147,0,.227-.01a2.484,2.484,0,0,0,2.563-1.863,1,1,0,0,0,.019-.3,2.187,2.187,0,0,0-2.227-1.9,4.556,4.556,0,0,0-.526-.037Z" transform="translate(0)"/>
  </g>
  <g>
    <path class="cls-1" d="M33.912,25.713a1.384,1.384,0,0,1-1.4-1.409,1.513,1.513,0,0,1,1.438-1.592.338.338,0,0,0,.115-.018,1.719,1.719,0,0,1,1.045-.38,1.417,1.417,0,0,1,1.017.43,1.6,1.6,0,0,1,.435,1.2,1.292,1.292,0,0,1-.48.959,3.492,3.492,0,0,1-2.08.805Z" transform="translate(0)"/>
    <path class="cls-2" d="M35.108,22.814a.918.918,0,0,1,.663.284,1.006,1.006,0,0,1,0,1.414,3.013,3.013,0,0,1-1.8.7l-.06,0c-1.228,0-1.2-1.938.06-2a.691.691,0,0,0,.383-.114,1.243,1.243,0,0,1,.752-.284m0-1a2.215,2.215,0,0,0-1.24.4,2,2,0,0,0-1.858,2.1,1.87,1.87,0,0,0,1.9,1.9l.11,0a4.012,4.012,0,0,0,2.364-.911,1.786,1.786,0,0,0,.671-1.323,2.087,2.087,0,0,0-.58-1.585,1.929,1.929,0,0,0-1.37-.577Z" transform="translate(0)"/>
  </g>
  <g>
    <path class="cls-1" d="M7.833,40.424a1.632,1.632,0,0,1-1.4-.814A1.371,1.371,0,0,1,6.5,38.18a5.645,5.645,0,0,1,2.681-2.219,1.19,1.19,0,0,1,.466-.093,1.568,1.568,0,0,1,1.439,1.12,1.522,1.522,0,0,1-.987,1.823,2.333,2.333,0,0,0-1.026.914,1.45,1.45,0,0,1-1.241.7Z" transform="translate(0)"/>
    <path class="cls-2" d="M9.648,36.367a1.081,1.081,0,0,1,.958.753,1.034,1.034,0,0,1-.7,1.23,2.84,2.84,0,0,0-1.255,1.107.947.947,0,0,1-.819.467.977.977,0,0,1-.908-1.476,5.151,5.151,0,0,1,2.451-2.026.7.7,0,0,1,.272-.054m0-1a1.692,1.692,0,0,0-.659.132,6.12,6.12,0,0,0-2.908,2.413A1.881,1.881,0,0,0,6,39.85a2.118,2.118,0,0,0,1.837,1.074A1.943,1.943,0,0,0,9.5,39.993a1.854,1.854,0,0,1,.8-.721,2.03,2.03,0,0,0,1.275-2.417,2.063,2.063,0,0,0-1.923-1.488Z" transform="translate(0)"/>
  </g>
  <g>
    <path class="cls-1" d="M11.481,37.29a1.557,1.557,0,0,1-1.455-1.183,1.391,1.391,0,0,1,.692-1.617l2.666-1.5a1.49,1.49,0,0,1,.738-.2,1.557,1.557,0,0,1,1.455,1.183,1.391,1.391,0,0,1-.692,1.617l-2.665,1.5a1.5,1.5,0,0,1-.739.2Z" transform="translate(0)"/>
    <path class="cls-2" d="M14.123,33.286a1.011,1.011,0,0,1,.516,1.864l-2.665,1.5a1,1,0,0,1-.493.137,1.011,1.011,0,0,1-.516-1.864l2.665-1.5a1,1,0,0,1,.493-.137m0-1a1.986,1.986,0,0,0-.985.266l-2.665,1.5a1.894,1.894,0,0,0-.931,2.18A2.037,2.037,0,0,0,11.48,37.79a1.987,1.987,0,0,0,.985-.266l1.247-.7,1.418-.8a1.894,1.894,0,0,0,.931-2.18,2.037,2.037,0,0,0-1.938-1.556Z" transform="translate(0)"/>
  </g>
  <g>
    <path class="cls-1" d="M18.667,33.37a1.576,1.576,0,0,1-1.1-.437,1.528,1.528,0,0,1-.032-2.086,3.38,3.38,0,0,1,2-1.167,1.841,1.841,0,0,1,.321-.029,1.484,1.484,0,0,1,1.48,1.086,1.572,1.572,0,0,1-.2,1.229,1.341,1.341,0,0,1-.894.626.735.735,0,0,0-.522.305,1.355,1.355,0,0,1-1.056.471Z" transform="translate(0)"/>
    <path class="cls-2" d="M19.857,30.152a.985.985,0,0,1,1,.719,1.009,1.009,0,0,1-.7,1.23,1.226,1.226,0,0,0-.818.479.854.854,0,0,1-.671.29,1.071,1.071,0,0,1-.743-.29,1.028,1.028,0,0,1,0-1.414,2.9,2.9,0,0,1,1.7-.993,1.307,1.307,0,0,1,.232-.021m0-1a2.314,2.314,0,0,0-.41.037,3.875,3.875,0,0,0-2.293,1.339,2.018,2.018,0,0,0,.063,2.759,2.057,2.057,0,0,0,1.45.583,1.855,1.855,0,0,0,1.442-.652.265.265,0,0,1,.226-.133,1.833,1.833,0,0,0,1.228-.852,2.076,2.076,0,0,0,.257-1.628,1.97,1.97,0,0,0-1.962-1.454Z" transform="translate(0)"/>
  </g>
  <g>
    <path class="cls-1" d="M23.2,31.006a1.472,1.472,0,0,1-1.282-.729,1.562,1.562,0,0,1-.129-1.22,1.364,1.364,0,0,1,.7-.851l2.273-1.115a1.69,1.69,0,0,1,.739-.174,1.47,1.47,0,0,1,1.282.729,1.562,1.562,0,0,1,.129,1.22,1.364,1.364,0,0,1-.7.851l-2.275,1.115a1.685,1.685,0,0,1-.737.174Z" transform="translate(0)"/>
    <path class="cls-2" d="M25.5,27.418a.96.96,0,0,1,.85.482,1.01,1.01,0,0,1-.359,1.368l-2.275,1.115a1.181,1.181,0,0,1-.518.123.961.961,0,0,1-.85-.482,1.01,1.01,0,0,1,.359-1.368l2.275-1.115a1.182,1.182,0,0,1,.518-.123m0-1a2.192,2.192,0,0,0-.958.225l-2.275,1.115a1.861,1.861,0,0,0-.959,1.156,2.041,2.041,0,0,0,.177,1.615,1.963,1.963,0,0,0,1.713.977,2.191,2.191,0,0,0,.959-.225l2.275-1.115a1.861,1.861,0,0,0,.959-1.156,2.04,2.04,0,0,0-.177-1.615,1.963,1.963,0,0,0-1.713-.977Z" transform="translate(0)"/>
  </g>
  <g>
    <path class="cls-1" d="M28.967,28.59a1.541,1.541,0,0,1-.767-2.812l1-.662a1.428,1.428,0,0,1,.794-.25,1.541,1.541,0,0,1,.767,2.813l-1,.662A1.425,1.425,0,0,1,28.967,28.59Z" transform="translate(0)"/>
    <path class="cls-2" d="M30,25.364a1.043,1.043,0,0,1,.491,1.9l-1,.662a.936.936,0,0,1-.518.168,1.043,1.043,0,0,1-.491-1.9l1-.662A.936.936,0,0,1,30,25.364m0-1a1.944,1.944,0,0,0-1.069.334l-1,.662a2.041,2.041,0,0,0,1.042,3.73,1.944,1.944,0,0,0,1.069-.334l.5-.331.5-.331A2.041,2.041,0,0,0,30,24.364Z" transform="translate(0)"/>
  </g>
  <g>
    <path class="cls-1" d="M44.339,19.361a1.416,1.416,0,0,1-1.018-.43,1.6,1.6,0,0,1-.435-1.2,1.3,1.3,0,0,1,.478-.964,8.617,8.617,0,0,0,1.349-1.329,1.347,1.347,0,0,1,1.057-.475,1.576,1.576,0,0,1,1.1.437,1.517,1.517,0,0,1,.034,2.084,9.759,9.759,0,0,1-1.5,1.482,1.733,1.733,0,0,1-1.06.392Z" transform="translate(0)"/>
    <path class="cls-2" d="M45.769,15.467a1.077,1.077,0,0,1,.746.29,1.029,1.029,0,0,1,0,1.414,9.169,9.169,0,0,1-1.426,1.406,1.23,1.23,0,0,1-.75.284.921.921,0,0,1-.664-.284,1.006,1.006,0,0,1,0-1.414A9.172,9.172,0,0,0,45.1,15.757a.844.844,0,0,1,.668-.29m0-1a1.843,1.843,0,0,0-1.444.659,8.117,8.117,0,0,1-1.271,1.253,1.794,1.794,0,0,0-.667,1.327,2.085,2.085,0,0,0,.581,1.578,1.931,1.931,0,0,0,1.372.577,2.232,2.232,0,0,0,1.37-.5A10.236,10.236,0,0,0,47.29,17.8a2.026,2.026,0,0,0-.068-2.753,2.061,2.061,0,0,0-1.453-.583Z" transform="translate(0)"/>
  </g>
  <g>
    <path class="cls-1" d="M53.294,10.97a1.457,1.457,0,0,1-1.036-.432A1.555,1.555,0,0,1,51.823,9.4a1.374,1.374,0,0,1,.459-1.007l.578-.506a1.613,1.613,0,0,1,1.061-.41,1.458,1.458,0,0,1,1.036.432,1.556,1.556,0,0,1,.435,1.136,1.375,1.375,0,0,1-.459,1.007l-.578.507a1.614,1.614,0,0,1-1.061.409Z" transform="translate(0)"/>
    <path class="cls-2" d="M53.921,7.979a.952.952,0,0,1,.683.285,1.01,1.01,0,0,1,0,1.414l-.578.506a1.12,1.12,0,0,1-.732.285.952.952,0,0,1-.682-.285,1.01,1.01,0,0,1,0-1.414l.578-.506a1.12,1.12,0,0,1,.732-.285m0-1a2.115,2.115,0,0,0-1.391.533l-.292.255-.286.251a1.872,1.872,0,0,0-.629,1.366,2.038,2.038,0,0,0,.581,1.507,1.954,1.954,0,0,0,1.39.578,2.115,2.115,0,0,0,1.391-.533l.578-.506a1.873,1.873,0,0,0,.629-1.366,2.038,2.038,0,0,0-.581-1.507,1.954,1.954,0,0,0-1.39-.578Z" transform="translate(0)"/>
  </g>
</svg>
