<svg id="Layer_1" data-name="Layer 1" xmlns="http://www.w3.org/2000/svg" viewBox="0 0 148.008 70.893">
  <defs>
    <style>
      .cls-1 {
        fill: #0000b8;
      }

      .cls-2 {
        fill: #fff;
      }
    </style>
  </defs>
  <title>e6a53431-fc95-4020-8c33-0bf6e1d10af7</title>
  <g>
    <path class="cls-1" d="M32.541,70.393a1.931,1.931,0,0,1-1.04-.382A3.1,3.1,0,0,1,30.352,68.1c-.206-.78-.482-1.563-.75-2.32a22.267,22.267,0,0,1-1-3.407c-.181-1-.344-1.406-1.248-1.42a1.113,1.113,0,0,1-1.066-.639,1.539,1.539,0,0,1,.414-1.6,4.422,4.422,0,0,1,2.013-1.276,33.468,33.468,0,0,1,7.9-1.185c.077,0,.155-.008.231-.008,1.333,0,1.5.917,1.508,1.312.027,1.239-1.134,1.343-1.63,1.387-.425.038-.852.072-1.277.106-1.136.092-2.311.186-3.444.358a.977.977,0,0,0-.7.352,1.826,1.826,0,0,0-.05,1.358c.128.562.356.606.642.606a3.105,3.105,0,0,0,.6-.078A13.966,13.966,0,0,0,37.08,59.6c.506-.319,1.041-.664,1.537-1.049a2.656,2.656,0,0,1,1.591-.691c.673,0,1.223.433,1.635,1.286a2.855,2.855,0,0,0,.448.6c.563-2.667,1.838-3.923,4.33-4.378a3.763,3.763,0,0,1,.678-.06,6.205,6.205,0,0,1,5.03,3.081,3.35,3.35,0,0,1-.838,4.029,4.582,4.582,0,0,1-.522.424c-.1.078-.2.15-.294.226a2.853,2.853,0,0,0,1.608.509,8.716,8.716,0,0,0,1.68-.232,6.454,6.454,0,0,1,4.432-6.778,3.56,3.56,0,0,1,1.249-.292,1.756,1.756,0,0,1,1.287.551,2.46,2.46,0,0,1,.447,2.5,7.036,7.036,0,0,1-2.857,3.837c-.093.067-.2.135-.311.2-.546.341-.6.449-.536.67.128.405.464.565,1.329.631.122.01.242.015.362.015a3.778,3.778,0,0,0,1.706-.388,3.47,3.47,0,0,1,1.516-.478,1.87,1.87,0,0,1,.985.285.5.5,0,0,1,.138.73,5.665,5.665,0,0,1-4.473,2.6h0a5.8,5.8,0,0,1-2.981-.917,4.448,4.448,0,0,1-.416-.3c-.25-.2-.414-.316-.579-.316a.465.465,0,0,0-.1.013,10.318,10.318,0,0,1-2.413.27A23.957,23.957,0,0,1,48.2,65.6l-.66-.127.048.072a2.421,2.421,0,0,1,.456,1.973,1.607,1.607,0,0,1-.955,1,1.468,1.468,0,0,1-.6.132c-.9,0-1.482-.876-1.866-1.455a3.412,3.412,0,0,1-.4-.974,2.03,2.03,0,0,0-.4-.879c-.2.1-.321.313-.509.707a3.345,3.345,0,0,1-.454.77,5.526,5.526,0,0,1-4.312,2.137,6.179,6.179,0,0,1-.761-.048,3.988,3.988,0,0,1-2.865-1.4,4.228,4.228,0,0,1-.57-3.314c.006-.041.016-.084.025-.126-.952.218-1.889.492-2.105.928-.184.368,0,1.064.625,2.4a2.1,2.1,0,0,0,.336.444,4.244,4.244,0,0,1,.353.436A1.326,1.326,0,0,1,33.441,70,1.249,1.249,0,0,1,32.541,70.393Zm7.914-8.646a4.558,4.558,0,0,0-3.433,2.833,1.468,1.468,0,0,0,.206,1.132,1.406,1.406,0,0,0,.971.525,1.768,1.768,0,0,0,.26.019A3.206,3.206,0,0,0,41.4,63.5c.009-.925-.537-1.732-.885-1.751l-.058-.5ZM47.4,58.211a1.616,1.616,0,0,0-1.772,1.619c-.015.634.126.854.232.965a2.123,2.123,0,0,0,1.433.344h0a2.828,2.828,0,0,0,1.992-.555.975.975,0,0,0,.283-.736c-.012-.959-.867-1.617-2.129-1.637l-.042-.5Zm10.706,1.613a1.331,1.331,0,0,0-.463.453A2.2,2.2,0,0,0,58.106,59.824Z" transform="translate(0)"/>
    <path class="cls-2" d="M47.3,55.8a5.7,5.7,0,0,1,4.593,2.822,2.862,2.862,0,0,1-.749,3.431c-.393.385-.936.613-1.223,1.122a3.965,3.965,0,0,0,2.365.895,10.748,10.748,0,0,0,2.2-.333c-.267-4.111,1.876-5.867,4.091-6.711a3.115,3.115,0,0,1,1.071-.259,1.255,1.255,0,0,1,.932.4,1.918,1.918,0,0,1,.323,2.013,6.632,6.632,0,0,1-2.672,3.57c-.456.332-1.278.632-1.028,1.428s1.026.924,1.767.98q.2.015.4.016a4.293,4.293,0,0,0,1.928-.439,3.048,3.048,0,0,1,1.294-.427,1.366,1.366,0,0,1,.726.212,5.2,5.2,0,0,1-4.076,2.4,5.3,5.3,0,0,1-2.724-.845c-.415-.249-.75-.685-1.252-.685a.936.936,0,0,0-.217.026,9.894,9.894,0,0,1-2.3.256,32.262,32.262,0,0,1-5.65-.8c-.351.441-.079.7.065.928.534.848.745,1.794-.278,2.246a.975.975,0,0,1-.4.089c-.622,0-1.081-.676-1.449-1.231-.435-.656-.317-1.593-1.105-2.127-.935.139-.976,1.134-1.46,1.7a5.011,5.011,0,0,1-3.929,1.961,5.677,5.677,0,0,1-.7-.044c-2.44-.3-3.388-1.652-3-4.143.034-.222.184-.465-.084-.651-.06-.031-.128-.1-.183-.1h-.013c-3.132.663-3.449,1.259-2.121,4.086a8.167,8.167,0,0,0,.725.946.818.818,0,0,1-.078,1.094.741.741,0,0,1-.542.245,1.447,1.447,0,0,1-.762-.3,2.638,2.638,0,0,1-.945-1.621c-.505-1.92-1.384-3.72-1.742-5.69-.165-.91-.358-1.809-1.733-1.831-.781-.012-.866-.766-.289-1.4a3.914,3.914,0,0,1,1.792-1.135,32.844,32.844,0,0,1,7.779-1.163c.066,0,.132-.007.2-.007.527,0,.993.165,1.008.824.017.747-.591.825-1.174.877-1.586.142-3.181.229-4.753.469-1.148.175-1.468.964-1.162,2.314.174.769.585,1,1.128,1a3.587,3.587,0,0,0,.705-.088,14.319,14.319,0,0,0,4.754-2.115c.538-.34,1.074-.688,1.576-1.077a2.258,2.258,0,0,1,1.284-.586c.444,0,.84.29,1.185,1a10.588,10.588,0,0,0,1.216,1.509c.421-3.25,1.6-4.56,4.1-5.016A3.269,3.269,0,0,1,47.3,55.8m.068,5.835c1.71,0,2.719-.668,2.706-1.8C50.056,58.6,49,57.735,47.45,57.711H47.4a2.114,2.114,0,0,0-2.274,2.109c-.03,1.329.529,1.8,2.159,1.819h.078m9.415-.287c1.166-.583,1.928-1.049,2.18-2.294-1.3.175-1.945.748-2.18,2.294m-18.321,5.4A3.706,3.706,0,0,0,41.9,63.5c.011-1.12-.651-2.218-1.359-2.255l-.082,0A5.04,5.04,0,0,0,36.53,64.5a1.8,1.8,0,0,0,1.6,2.236,2.29,2.29,0,0,0,.332.024M47.3,54.8h0a4.285,4.285,0,0,0-.766.068,5.151,5.151,0,0,0-4.438,3.688,2.171,2.171,0,0,0-1.886-1.2,2.625,2.625,0,0,0-1.365.427q.009-.116.006-.239a1.8,1.8,0,0,0-2.008-1.8c-.087,0-.175,0-.264.009a33.9,33.9,0,0,0-8.013,1.207,4.91,4.91,0,0,0-2.234,1.419,2.023,2.023,0,0,0-.5,2.136,1.612,1.612,0,0,0,1.516.938c.494.008.583.009.764,1.009a22.5,22.5,0,0,0,1.02,3.484c.277.782.538,1.521.738,2.282a3.545,3.545,0,0,0,1.355,2.2,2.4,2.4,0,0,0,1.318.467A1.736,1.736,0,0,0,33.8,70.35a1.807,1.807,0,0,0,.2-2.354,4.551,4.551,0,0,0-.4-.491,1.978,1.978,0,0,1-.255-.322c-.705-1.5-.676-1.875-.63-1.967.036-.072.216-.241,1.065-.478a4.33,4.33,0,0,0,.74,3.07,4.513,4.513,0,0,0,3.2,1.6,6.7,6.7,0,0,0,.824.052,6,6,0,0,0,4.69-2.313,3.6,3.6,0,0,0,.5-.816l.01.035a3.867,3.867,0,0,0,.464,1.11c.416.628,1.113,1.679,2.282,1.679a1.973,1.973,0,0,0,.8-.175,2.092,2.092,0,0,0,1.23-1.309,2.375,2.375,0,0,0-.076-1.507,22.721,22.721,0,0,0,4.3.523,10.828,10.828,0,0,0,2.528-.283c.009.016.158.133.257.21a4.493,4.493,0,0,0,.467.333,6.294,6.294,0,0,0,3.239.988,6.136,6.136,0,0,0,4.87-2.8,1,1,0,0,0-.274-1.462,2.367,2.367,0,0,0-1.246-.358,3.772,3.772,0,0,0-1.679.5l-.057.028a3.29,3.29,0,0,1-1.486.336q-.161,0-.324-.013c-.579-.044-.77-.124-.842-.2.083-.061.2-.133.277-.183.121-.075.237-.149.339-.223a7.615,7.615,0,0,0,3.044-4.1,2.864,2.864,0,0,0-.574-2.99,2.242,2.242,0,0,0-1.642-.7,4,4,0,0,0-1.427.325,6.845,6.845,0,0,0-4.757,6.837,6.625,6.625,0,0,1-1.176.142,1.992,1.992,0,0,1-.664-.1c.074-.061.149-.127.222-.2a3.836,3.836,0,0,0,.926-4.627A6.647,6.647,0,0,0,47.3,54.8Zm.068,5.835H47.3c-.86-.01-1.049-.161-1.078-.191-.011-.011-.1-.122-.093-.606A1.125,1.125,0,0,1,47.4,58.711c.782.012,1.66.319,1.67,1.143a.477.477,0,0,1-.139.379,2.377,2.377,0,0,1-1.567.406Zm-15.559.58a.883.883,0,0,1-.071-.212c-.166-.732-.04-.945-.025-.967a.59.59,0,0,1,.363-.138c1.118-.171,2.286-.264,3.416-.355l.835-.068a12.579,12.579,0,0,1-3.931,1.677,2.675,2.675,0,0,1-.5.067.619.619,0,0,1-.083,0Zm6.653,4.537a1.293,1.293,0,0,1-.187-.013.95.95,0,0,1-.638-.326,1.017,1.017,0,0,1-.117-.754,4.26,4.26,0,0,1,2.921-2.416,1.727,1.727,0,0,1,.46,1.247,2.733,2.733,0,0,1-2.439,2.263Z" transform="translate(0)"/>
  </g>
  <g>
    <path class="cls-1" d="M97.793,38.195a.468.468,0,0,1-.2-.043.5.5,0,0,1-.3-.437c0-.014,0-.045,0-.059a.517.517,0,0,1,.5-.476h.036a.7.7,0,0,1,.105.018.451.451,0,0,1,.4.343.51.51,0,0,1-.2.531A.558.558,0,0,1,97.793,38.195Z" transform="translate(0)"/>
    <path class="cls-2" d="M97.79,37.679c.013,0,.021.005.034.006l-.035.029,0-.035m0-1a1,1,0,0,0-1,.966c0,.023,0,.052,0,.069a1,1,0,0,0,1.632.775A1.031,1.031,0,0,0,98.76,37.4a1,1,0,0,0-.748-.694,1.244,1.244,0,0,0-.125-.02q-.048,0-.1,0Z" transform="translate(0)"/>
  </g>
  <g>
    <path class="cls-1" d="M92.444,43.788a1.878,1.878,0,0,1-.362-.037,1.626,1.626,0,0,1-1.306-1.636c-.036-.338-.066-.677-.1-1.016-.184-2.02-.355-3.928-1.5-5.612a1.355,1.355,0,0,1-.2-1.139,1.565,1.565,0,0,1,.888-.991,1.709,1.709,0,0,1,.719-.173,1.434,1.434,0,0,1,1.314.941c.133.278.3.644.464,1a10.716,10.716,0,0,1,.788-2.015c.292-.514.767-1.2,1.507-1.2a1.893,1.893,0,0,1,1.427.923,7.161,7.161,0,0,1,1.1,2.6c.081.3.161.591.255.879,0,.015.011.035.017.059.577-2.377,2.616-4.534,4.754-4.78a2.931,2.931,0,0,1,.34-.02,2.21,2.21,0,0,1,1.964,1.135,5.152,5.152,0,0,1,.767,3.026,4,4,0,0,1-.085.625,3.843,3.843,0,0,0,.944-1.8c.432-2.293,4.093-4.476,6.677-4.588l.107,0a2.051,2.051,0,0,1,1.873,1.189,2.63,2.63,0,0,1-.1,3.021,8.419,8.419,0,0,1-2.652,2.328c-.618.341-1.23.694-1.844,1.049l-.307.176a3.757,3.757,0,0,0,2.706,1.222,3.9,3.9,0,0,0,1.894-.514,2.062,2.062,0,0,0,.381-.315,3.25,3.25,0,0,1,.509-.421,1.316,1.316,0,0,1,.7-.21,1.173,1.173,0,0,1,.785.3,1.081,1.081,0,0,1,.094,1.512,4.587,4.587,0,0,1-3.838,2.332h0c-.128,0-.259-.006-.392-.018l-.239-.021a7.31,7.31,0,0,1-3.443-.885,1.778,1.778,0,0,0-.975-.344,2.227,2.227,0,0,0-1.122.392,9.16,9.16,0,0,1-4.694,1.481,7.06,7.06,0,0,1-2.312-.4,2.178,2.178,0,0,0-.572-.105c-3.27-.205-3.55-.445-4.285-3.673l-.065-.308a3.6,3.6,0,0,0-.24-.84l-.027.185c-.178,1.2-.35,2.355-.516,3.509-.027.187-.045.375-.062.563a6.53,6.53,0,0,1-.179,1.154C93.664,43.536,92.969,43.788,92.444,43.788Zm8.295-5.06a2.905,2.905,0,0,0,2.1.892,6.367,6.367,0,0,0,3.064-1.013,1.28,1.28,0,0,1-1.079-.711,1.129,1.129,0,0,1-.092-.556,2.572,2.572,0,0,1-1.489.846c-.308.071-.625.121-.943.171A6.637,6.637,0,0,0,100.739,38.728Zm1.285-4.047a.762.762,0,0,0-.354.115,2.165,2.165,0,0,0-1.095,1.082,3.31,3.31,0,0,0,1.391-.3c.114-.056.416-.2.189-.8C102.118,34.685,102.087,34.681,102.024,34.681ZM112.3,32.772a.891.891,0,0,0-.155.015,4.054,4.054,0,0,0-3.437,2.279,6.865,6.865,0,0,0,3.5-1.938.675.675,0,0,0,.114-.354Z" transform="translate(0)"/>
    <path class="cls-2" d="M112.92,30.472a1.576,1.576,0,0,1,1.437.935,2.123,2.123,0,0,1-.064,2.474,7.9,7.9,0,0,1-2.494,2.191c-.9.5-1.785,1.018-2.682,1.532a4.21,4.21,0,0,0,5.614,1.278c.339-.187.583-.543.914-.751a.82.82,0,0,1,.433-.133.675.675,0,0,1,.454.178.6.6,0,0,1,.014.853,4.165,4.165,0,0,1-3.427,2.116q-.17,0-.348-.016a7.409,7.409,0,0,1-3.453-.826,2.26,2.26,0,0,0-1.249-.426,2.708,2.708,0,0,0-1.378.463,8.709,8.709,0,0,1-4.439,1.411,6.511,6.511,0,0,1-2.148-.369,2.685,2.685,0,0,0-.7-.132c-3.028-.19-3.142-.265-3.83-3.286a2.843,2.843,0,0,0-1.133-2.15c-.245,1.656-.475,3.2-.7,4.736a13.381,13.381,0,0,1-.227,1.655c-.156.563-.436,1.082-1.068,1.082a1.375,1.375,0,0,1-.267-.028c-.63-.125-.835-.538-.9-1.2-.248-2.354-.261-4.768-1.683-6.857a.927.927,0,0,1,.484-1.4,1.2,1.2,0,0,1,.507-.126.97.97,0,0,1,.863.656c.375.787,1.036,2.269,1.036,2.269a15.972,15.972,0,0,1,1.1-3.251c.354-.623.7-.945,1.072-.945.319,0,.656.238,1.031.728a10.471,10.471,0,0,1,1.276,3.329c.091.28.48,2.492.847,2.492l.022,0c.065-.016.121-.239.11-.359-.027-.286-.131-.887-.125-.9l.01-.01c-.013,0-.021-.005-.034-.006,0-2.569,2.206-5.328,4.473-5.589a2.477,2.477,0,0,1,.283-.017,1.7,1.7,0,0,1,1.535.894,4.636,4.636,0,0,1,.694,2.737,1.9,1.9,0,0,1-1.641,1.994,8.422,8.422,0,0,0-3.186.895,3.558,3.558,0,0,0,2.893,1.527,7.9,7.9,0,0,0,4.128-1.581c-.133-.354-.411-.4-.752-.408-1.128-.02-1.19-.818-.685-1.4a4.431,4.431,0,0,0,1.092-2.071c.386-2.05,3.844-4.079,6.207-4.181l.086,0m-4.983,5.236a7.536,7.536,0,0,0,4.621-2.228,1.137,1.137,0,0,0,.253-.856c-.04-.276-.272-.353-.512-.353a1.439,1.439,0,0,0-.24.022c-1.863.319-3.43,1.033-4.122,3.415m-7.621.674a4.093,4.093,0,0,0,1.869-.355,1.032,1.032,0,0,0,.437-1.424.6.6,0,0,0-.6-.422,1.247,1.247,0,0,0-.607.184,2.444,2.444,0,0,0-1.466,2.012q.189.006.365.006m12.6-6.911h0l-.129,0c-2.761.119-6.516,2.359-7.115,4.844a5.788,5.788,0,0,0-.739-1.871,2.688,2.688,0,0,0-2.39-1.375,3.463,3.463,0,0,0-.4.023,6.483,6.483,0,0,0-4.632,3.683,6.609,6.609,0,0,0-1.039-2.248,2.472,2.472,0,0,0-1.824-1.12c-1.116,0-1.737,1.092-1.942,1.45a7.223,7.223,0,0,0-.427.924,1.923,1.923,0,0,0-1.7-1.1,2.2,2.2,0,0,0-.93.22,2.058,2.058,0,0,0-1.159,1.31,1.853,1.853,0,0,0,.271,1.554c1.073,1.576,1.24,3.42,1.417,5.373.031.342.062.685.1,1.026a2.084,2.084,0,0,0,1.705,2.074,2.385,2.385,0,0,0,.461.047c.571,0,1.595-.236,2.032-1.815a6.979,6.979,0,0,0,.194-1.243c.017-.179.033-.359.058-.536q.09-.624.182-1.25c.657,2.28,1.433,2.616,4.427,2.8a1.709,1.709,0,0,1,.439.079,7.549,7.549,0,0,0,2.476.424A9.644,9.644,0,0,0,107.2,41.2a1.814,1.814,0,0,1,.866-.322,1.256,1.256,0,0,1,.7.263,7.7,7.7,0,0,0,3.675.964l.236.021q.222.02.436.019a5.115,5.115,0,0,0,4.25-2.547,1.569,1.569,0,0,0-.175-2.171A1.666,1.666,0,0,0,116.078,37a1.817,1.817,0,0,0-.964.286,3.678,3.678,0,0,0-.589.484,1.94,1.94,0,0,1-.276.238,3.41,3.41,0,0,1-1.652.451,3.1,3.1,0,0,1-1.853-.637c.511-.3,1.022-.588,1.538-.873a8.9,8.9,0,0,0,2.81-2.464,3.1,3.1,0,0,0,.136-3.568,2.545,2.545,0,0,0-2.308-1.443Zm-2.735,4.537a3.267,3.267,0,0,1,.506-.292q-.247.158-.506.292Zm-8.292,4.92c.157-.028.32-.053.488-.079.318-.05.648-.1.979-.178a3.6,3.6,0,0,0,1.085-.43,1.64,1.64,0,0,0,.318.389,4.818,4.818,0,0,1-1.921.488,2.347,2.347,0,0,1-.949-.19Z" transform="translate(0)"/>
  </g>
  <g>
    <path class="cls-1" d="M132.757,26.036a1.955,1.955,0,0,1-1.441-.554,2.053,2.053,0,0,1-.538-1.526,31.967,31.967,0,0,0-.655-6.138c-.153-.892-.308-1.784-.429-2.68-.105-.772-.146-1.55-.185-2.3-.037-.729-.076-1.482-.174-2.214l-.034-.252c-.214-1.606-.435-3.267-.809-4.87-.254-1.089-.333-1.929.107-2.483a1.879,1.879,0,0,1,1.529-.558,7.308,7.308,0,0,1,.769.047,20.924,20.924,0,0,0,2.214.117A29.57,29.57,0,0,0,143.027.67a2.751,2.751,0,0,1,.908-.17c.636,0,1.735.3,1.947,2.281.077.718.172,1.435.267,2.152a26.743,26.743,0,0,1,.276,7.456,2.868,2.868,0,0,0-.008.47c0,.165.008.375.008.656a21.041,21.041,0,0,0,.913,7.857,2.415,2.415,0,0,1-.213,2.217,2.05,2.05,0,0,1-1.707.832,2.776,2.776,0,0,1-.349-.022,11.57,11.57,0,0,0-1.477-.093,24.587,24.587,0,0,0-5.615.867c-.694.162-1.389.324-2.087.465a25.311,25.311,0,0,1-2.895.389C132.915,26.033,132.834,26.036,132.757,26.036ZM131.423,5.568a43.526,43.526,0,0,1,.649,5.009c.043.482.086.962.134,1.442.321,3.179.814,6.4,1.291,9.515l.021.134c.184,1.2.455,1.258.918,1.258a3.549,3.549,0,0,0,.581-.058c1.563-.263,3.146-.6,4.677-.933,1-.215,2-.43,3-.627.718-.141.872-.448,1.029-1.43a9.647,9.647,0,0,0-.006-2.325,9.675,9.675,0,0,1,.022-2.59,24.4,24.4,0,0,0-.021-6.91c-.088-.9-.176-1.791-.227-2.688-.056-.975-.45-1.166-1.112-1.166q-.088,0-.185.006a29.513,29.513,0,0,0-3.019.394c-.659.109-1.313.252-1.974.4a21.05,21.05,0,0,1-4.546.639h0A11.308,11.308,0,0,1,131.423,5.568Z" transform="translate(0)"/>
    <path class="cls-2" d="M143.935,1c.8,0,1.319.606,1.451,1.834.337,3.148,1.017,6.283.544,9.481a11.935,11.935,0,0,0,0,1.2,21.5,21.5,0,0,0,.942,8.022c.454,1.3-.226,2.384-1.449,2.384a2.232,2.232,0,0,1-.285-.019,12.03,12.03,0,0,0-1.54-.1c-2.673,0-5.209.82-7.8,1.341a24.777,24.777,0,0,1-2.837.381c-.068.006-.134.008-.2.008a1.391,1.391,0,0,1-1.479-1.568c.07-3.025-.688-5.937-1.089-8.9-.2-1.5-.157-3.008-.358-4.516-.232-1.736-.453-3.46-.851-5.169-.418-1.79-.212-2.428,1.15-2.428a6.838,6.838,0,0,1,.716.044,21.336,21.336,0,0,0,2.266.12,30.26,30.26,0,0,0,10.081-1.98A2.251,2.251,0,0,1,143.935,1M132.661,5.135a10.629,10.629,0,0,1-1.88-.164,52.154,52.154,0,0,1,.929,7.1c.327,3.236.822,6.457,1.314,9.674.184,1.2.516,1.683,1.412,1.683a4.055,4.055,0,0,0,.664-.065c2.579-.434,5.125-1.059,7.693-1.563,1.065-.209,1.268-.847,1.427-1.841.266-1.661-.283-3.321.014-4.9.615-3.284-.056-6.485-.24-9.719-.061-1.083-.53-1.638-1.61-1.638q-.1,0-.216.007a29.979,29.979,0,0,0-3.071.4,38.03,38.03,0,0,1-6.438,1.028M143.935,0a3.25,3.25,0,0,0-1.074.2,29.1,29.1,0,0,1-9.749,1.924,20.445,20.445,0,0,1-2.16-.114,7.777,7.777,0,0,0-.822-.049,2.4,2.4,0,0,0-1.921.747c-.565.712-.49,1.677-.2,2.908.367,1.573.576,3.141.8,4.8l.036.273c.095.71.132,1.419.17,2.17s.08,1.554.188,2.348c.123.908.28,1.818.432,2.7a31.106,31.106,0,0,1,.648,6.041,2.541,2.541,0,0,0,.68,1.887,2.445,2.445,0,0,0,1.8.7q.137,0,.281-.012a25.723,25.723,0,0,0,2.951-.4c.7-.142,1.4-.3,2.1-.468a24.228,24.228,0,0,1,5.5-.854,11.1,11.1,0,0,1,1.412.088,3.236,3.236,0,0,0,.413.027,2.544,2.544,0,0,0,2.115-1.043,2.906,2.906,0,0,0,.278-2.67,20.522,20.522,0,0,1-.887-7.651c0-.329,0-.543-.007-.712a3.315,3.315,0,0,1,0-.383,27.08,27.08,0,0,0-.274-7.6c-.094-.713-.188-1.425-.265-2.138C146.109.2,144.44,0,143.935,0ZM132.661,6.135a21.422,21.422,0,0,0,4.651-.65c.672-.146,1.308-.285,1.95-.391a29.367,29.367,0,0,1,2.969-.389q.08,0,.154,0c.416,0,.572,0,.611.694.052.91.141,1.822.228,2.7a23.678,23.678,0,0,1,.027,6.774,10.078,10.078,0,0,0-.029,2.721,9.3,9.3,0,0,1,.011,2.207c-.148.923-.241.941-.632,1.018-1.005.2-2.007.413-3.01.628-1.526.328-3.1.668-4.658.93a3.124,3.124,0,0,1-.5.051.564.564,0,0,1-.2-.023,2.038,2.038,0,0,1-.219-.811l-.025-.162c-.474-3.1-.964-6.305-1.283-9.462-.048-.48-.091-.96-.134-1.443-.126-1.415-.256-2.867-.532-4.407q.308.016.623.016Z" transform="translate(0)"/>
  </g>
  <g>
    <path class="cls-1" d="M96.914,66.053a1.588,1.588,0,0,1-1.533-1.268,59.032,59.032,0,0,1-1.546-8.474,1.362,1.362,0,0,1,.35-1.031A1.1,1.1,0,0,1,95,54.893l.115.5v-.5a3.642,3.642,0,0,0,1.54-.387,10.167,10.167,0,0,1,2.154-.673,3.433,3.433,0,0,1,.646-.062,4.6,4.6,0,0,1,2.029.558,2.568,2.568,0,0,0,.406.174,24.68,24.68,0,0,0,2.636-.537c.7-.163,1.337-.312,1.68-.368,1.152-.19,2.318-.291,3.446-.388.9-.078,1.838-.158,2.747-.284a6.576,6.576,0,0,1,.9-.07c1.685,0,2.281,1.012,2.7,2.644a28.07,28.07,0,0,1,.531,2.913l.1.664c.038.247.062.5.086.744A3.561,3.561,0,0,0,117.3,61.8a1.585,1.585,0,0,1-.235,2.182,1.868,1.868,0,0,1-1.309.536h0a2.177,2.177,0,0,1-.771-.147,1.274,1.274,0,0,1-.777-1.359,2.467,2.467,0,0,0-.013-.27c-.188-1.661-.383-3.285-.681-4.9-.319-1.726-.319-1.726-2.2-1.77-.2,0-.4-.006-.612-.006l-.76,0,.238,1.5c.262,1.64.508,3.188.749,4.738.015.092.032.186.051.28a1.7,1.7,0,0,1-.768,2.142,1.008,1.008,0,0,1-.444.1,1.945,1.945,0,0,1-1.408-.793,1.863,1.863,0,0,1-.437-1.543,6.257,6.257,0,0,0-.372-3.2,13.128,13.128,0,0,1-.43-1.745c-.156-1.02-.333-1.02-.627-1.02a4.628,4.628,0,0,0-.894.129,6.223,6.223,0,0,0-.813.255,4.619,4.619,0,0,1-1.607.367,2.662,2.662,0,0,1-.276-.015h0a.263.263,0,0,0-.278.259,5.286,5.286,0,0,1-1.8,3.051l3.474.887a2.872,2.872,0,0,1,2.172,1.7,1.153,1.153,0,0,1-.631,1.4,2.517,2.517,0,0,1-1.247.355,2.816,2.816,0,0,1-1.7-.66,6.363,6.363,0,0,0-2.958-.971c-.437-.069-.887-.141-1.328-.246-.059.109-.028.237.057.519a2.153,2.153,0,0,1,.126.693A1.764,1.764,0,0,1,97.2,66.03,1.812,1.812,0,0,1,96.914,66.053Zm2.451-9.345a2.167,2.167,0,0,0-1.334.717,1.074,1.074,0,0,0-.361.647c.008.14.016.3.5.329h0a1.642,1.642,0,0,0,1.518-1.411c.01-.138,0-.237-.24-.275Z" transform="translate(0)"/>
    <path class="cls-2" d="M113.3,53.356c1.288,0,1.792.62,2.214,2.267.3,1.154.441,2.347.62,3.528a5.742,5.742,0,0,0,.761,2.958,1.082,1.082,0,0,1-.187,1.515,1.359,1.359,0,0,1-.961.4,1.682,1.682,0,0,1-.6-.115c-.564-.214-.416-.746-.469-1.218-.187-1.65-.385-3.3-.687-4.934-.385-2.079-.5-2.126-2.679-2.178-.2,0-.4-.006-.623-.006-.372,0-.793,0-1.347,0,.388,2.442.739,4.627,1.079,6.813.107.688.415,1.482-.44,1.895a.518.518,0,0,1-.227.049,1.629,1.629,0,0,1-1.357-1.728c.409-1.864-.536-3.428-.8-5.131-.165-1.079-.427-1.444-1.12-1.444a5.081,5.081,0,0,0-1,.139,11.223,11.223,0,0,1-2.318.61,2.229,2.229,0,0,1-.226-.011.9.9,0,0,0-.092,0,.742.742,0,0,0-.737.7c-.182,1.441-1.24,2.324-2.282,3.381l4.324,1.1a2.36,2.36,0,0,1,1.827,1.388.678.678,0,0,1-.408.786,2.035,2.035,0,0,1-1,.291,2.332,2.332,0,0,1-1.4-.559c-1.387-1.045-3.165-.937-4.741-1.372-.748.586-.148,1.188-.164,1.753a1.261,1.261,0,0,1-1.16,1.306,1.288,1.288,0,0,1-.2.017,1.087,1.087,0,0,1-1.049-.893,58.228,58.228,0,0,1-1.534-8.4A.8.8,0,0,1,95,55.392h.117c1.336,0,1.78-.681,3.787-1.069a2.9,2.9,0,0,1,.552-.053A6.877,6.877,0,0,1,101.8,55a.461.461,0,0,0,.085.006c.666,0,3.53-.765,4.407-.91,2.057-.339,4.127-.386,6.181-.67a6.164,6.164,0,0,1,.835-.066M98.233,58.9a2.137,2.137,0,0,0,1.958-1.879.709.709,0,0,0-.66-.8,1.044,1.044,0,0,0-.166-.013c-.926,0-2.237,1.1-2.195,1.892.031.59.47.768.968.8.032,0,.063,0,.095,0M113.3,52.356a7.112,7.112,0,0,0-.972.075c-.9.124-1.823.2-2.719.281-1.138.1-2.314.2-3.487.393-.369.061-.993.206-1.715.375-.778.181-2.048.478-2.461.517-.058-.026-.164-.078-.247-.117a5.024,5.024,0,0,0-2.246-.608,3.919,3.919,0,0,0-.742.071,10.593,10.593,0,0,0-2.251.7,3.168,3.168,0,0,1-1.347.349h-.081a1.61,1.61,0,0,0-1.224.554,1.866,1.866,0,0,0-.475,1.418,59.475,59.475,0,0,0,1.56,8.546,2.075,2.075,0,0,0,2.018,1.643,2.287,2.287,0,0,0,.363-.029,2.26,2.26,0,0,0,2-2.266,2.143,2.143,0,0,0-.073-.591c.215.038.429.072.641.106a6.008,6.008,0,0,1,2.735.876,3.3,3.3,0,0,0,2,.76,3.042,3.042,0,0,0,1.492-.419,1.653,1.653,0,0,0,.855-2.01,3.4,3.4,0,0,0-2.516-2.005l-2.647-.676a5.007,5.007,0,0,0,1.321-2.524h.091a5.091,5.091,0,0,0,1.775-.4,5.924,5.924,0,0,1,.75-.237,4.635,4.635,0,0,1,.788-.118,3.126,3.126,0,0,1,.134.595,13.612,13.612,0,0,0,.444,1.812,5.805,5.805,0,0,1,.363,2.954,2.354,2.354,0,0,0,.535,1.962,2.415,2.415,0,0,0,1.8.98,1.511,1.511,0,0,0,.661-.148,2.191,2.191,0,0,0,1.041-2.686c-.017-.089-.034-.177-.048-.263-.242-1.555-.49-3.11-.752-4.757l-.144-.906h.176c.211,0,.405,0,.6.006a6.207,6.207,0,0,1,1.425.118,7.113,7.113,0,0,1,.295,1.242c.3,1.6.489,3.214.676,4.865.008.073.008.148.01.223a1.761,1.761,0,0,0,1.1,1.817,2.676,2.676,0,0,0,.95.18,2.351,2.351,0,0,0,1.653-.675,2.065,2.065,0,0,0,.286-2.849,3.167,3.167,0,0,1-.475-1.726c-.025-.257-.05-.515-.089-.771l-.1-.656a28.672,28.672,0,0,0-.543-2.97c-.4-1.568-1.065-3.02-3.182-3.02ZM98.271,57.9a2.291,2.291,0,0,1,.823-.629,1.178,1.178,0,0,1-.823.629Z" transform="translate(0)"/>
  </g>
  <g>
    <path class="cls-1" d="M15.287,69.71a7.733,7.733,0,0,1-2.2-.358,7.543,7.543,0,0,0-1.327-.221l-.477-.055a2.161,2.161,0,0,1-1.789-.99A19.807,19.807,0,0,1,6.4,59.209c-.042-.867-.04-1.466.339-1.872.41-.44,1.072-.455,2.168-.48a4.7,4.7,0,0,0,1.655-.408,4.679,4.679,0,0,1,1.825-.341,11.146,11.146,0,0,1,1.746.176,2.5,2.5,0,0,1,1.938,1.086,2.639,2.639,0,0,1-.11,2.335,14.881,14.881,0,0,1-.679,1.373l-.142.264c.249.107.5.206.753.3a9.638,9.638,0,0,1,2.37,1.2,7.454,7.454,0,0,1,3.105-4.372,3.387,3.387,0,0,1,1.683-.565A2.13,2.13,0,0,1,25.1,60.658l-.027.3a4.167,4.167,0,0,1-1.287,2.45c-.126.144-.252.288-.373.436a5.047,5.047,0,0,1-1.325,1.062c-.212.133-.416.261-.6.4a2.745,2.745,0,0,0,2.065,1.148,3.388,3.388,0,0,0,1.517-.426,7.743,7.743,0,0,0,2.165-1.583,1.231,1.231,0,0,1,.892-.437,1.064,1.064,0,0,1,.881.508,1.2,1.2,0,0,1-.154,1.438,6.748,6.748,0,0,1-5.4,3.109,7.429,7.429,0,0,1-4.379-1.6,4.122,4.122,0,0,1-3.786,2.247Zm-4.131-4.937a33.2,33.2,0,0,1,3.032,1.95,1.046,1.046,0,0,0,.614.173,1.846,1.846,0,0,0,1.627-.941c.07-.279.286-1.131-1.571-1.632a4.547,4.547,0,0,0-1.2-.162A6.133,6.133,0,0,0,11.156,64.773Zm.886-5.678a2.271,2.271,0,0,0-1.829.629,2.52,2.52,0,0,0-.349,1.93,5.105,5.105,0,0,0,3.3-2.462A7.359,7.359,0,0,0,12.041,59.1Z" transform="translate(0)"/>
    <path class="cls-2" d="M12.39,56.608a10.6,10.6,0,0,1,1.667.17c1.67.267,2.108,1.128,1.445,2.736-.269.652-.636,1.263-1.045,2.062,1.357.668,2.842.939,4.047,2.129.668-2.023,1.353-3.751,3.124-4.8a2.872,2.872,0,0,1,1.428-.5,1.735,1.735,0,0,1,.992.328c.807.546.589,1.4.53,2.188-.085,1.126-.9,1.81-1.549,2.608-.613.753-1.573,1.044-2.231,1.717a3.507,3.507,0,0,0,2.756,1.709,3.88,3.88,0,0,0,1.742-.479,8.2,8.2,0,0,0,2.3-1.688.76.76,0,0,1,.527-.279.577.577,0,0,1,.469.293c.208.3.058.581-.145.856a6.251,6.251,0,0,1-5,2.906,7.106,7.106,0,0,1-4.277-1.651c-.05-.038-.142-.022-.353-.049a3.7,3.7,0,0,1-3.535,2.343,7.318,7.318,0,0,1-2.058-.337,11.858,11.858,0,0,0-1.883-.292,1.7,1.7,0,0,1-1.419-.746A19.1,19.1,0,0,1,6.9,59.186c-.083-1.749.086-1.786,2.02-1.83a5.248,5.248,0,0,0,1.835-.445,4.186,4.186,0,0,1,1.633-.3M9.452,62.245a5.819,5.819,0,0,0,4.5-3.416,9.135,9.135,0,0,0-1.906-.233c-2.206,0-3.063,1.24-2.589,3.649m10.92.806a2.511,2.511,0,0,0,2.186-2.6,4.681,4.681,0,0,0-2.186,2.6M14.8,67.4a2.284,2.284,0,0,0,2.11-1.319c.269-1.06-.407-1.827-1.925-2.237a5.063,5.063,0,0,0-1.329-.18,7.743,7.743,0,0,0-3.6,1.093A29.56,29.56,0,0,1,13.9,67.132a1.545,1.545,0,0,0,.9.265M12.39,55.608a5.163,5.163,0,0,0-2.016.379,4.241,4.241,0,0,1-1.475.369c-1.186.027-1.969.045-2.523.64A2.858,2.858,0,0,0,5.9,59.234a20.246,20.246,0,0,0,3.158,9.1,2.7,2.7,0,0,0,2.159,1.236c.159.02.319.037.48.055a7.231,7.231,0,0,1,1.245.2,8.22,8.22,0,0,0,2.342.379,4.522,4.522,0,0,0,3.932-2.037,7.661,7.661,0,0,0,4.233,1.393,7.225,7.225,0,0,0,5.8-3.312,1.612,1.612,0,0,0,.162-2.021,1.548,1.548,0,0,0-1.291-.722,1.74,1.74,0,0,0-1.256.595,7.143,7.143,0,0,1-2.027,1.48,2.909,2.909,0,0,1-1.291.371,1.854,1.854,0,0,1-1.287-.568l.091-.057A5.529,5.529,0,0,0,23.8,64.163c.116-.143.239-.282.361-.421A4.634,4.634,0,0,0,25.575,61c.007-.1.017-.193.027-.29a2.693,2.693,0,0,0-.994-2.8,2.739,2.739,0,0,0-1.553-.5,3.852,3.852,0,0,0-1.938.636,7.471,7.471,0,0,0-3.1,4.035,12.477,12.477,0,0,0-1.938-.9l-.233-.092c.213-.4.412-.785.58-1.193a3.091,3.091,0,0,0,.084-2.77,2.948,2.948,0,0,0-2.3-1.335,11.548,11.548,0,0,0-1.825-.182Zm-2.063,5.385a1.54,1.54,0,0,1,.272-.95,1.829,1.829,0,0,1,1.443-.447q.107,0,.22,0a4.459,4.459,0,0,1-1.936,1.392Zm1.988,3.88a4.68,4.68,0,0,1,1.345-.211,4.051,4.051,0,0,1,1.068.145c1.382.373,1.262.847,1.216,1.026A1.468,1.468,0,0,1,14.8,66.4a.587.587,0,0,1-.326-.081c-.638-.451-1.349-.944-2.163-1.443Z" transform="translate(0)"/>
  </g>
  <g>
    <path class="cls-1" d="M39.218,46.893a1.984,1.984,0,0,1-1.143-.438,2.487,2.487,0,0,1-1.015-1.807,4.455,4.455,0,0,1-2.543,1.079,4.618,4.618,0,0,1-2.454-.964,1.157,1.157,0,0,0-.563-.23c-.159,0-.346.113-.644.391a3.821,3.821,0,0,1-2.551,1.155h0c-1.286,0-2.39-.863-3.105-2.429a5.636,5.636,0,0,1,.193-4.745,5.853,5.853,0,0,1,3.623-3.239,3.76,3.76,0,0,1,.931-.161,1.284,1.284,0,0,1,1.283.937,1.705,1.705,0,0,1,.041,1.235,1.635,1.635,0,0,1,.5-.078l.129,0c1.185.082,1.26,1.172,1.3,1.7a6.045,6.045,0,0,1-.023.928,4.074,4.074,0,0,0,0,.938c.165,1,.565,1.5,1.3,1.62a.975.975,0,0,0,.166.015c.295,0,.428-.178.706-.649a4.836,4.836,0,0,1,.354-.542,3.6,3.6,0,0,0,.477-2.88c-.042-.39-.082-.78-.086-1.167,0-.134,0-.178-.257-.178a1.5,1.5,0,0,0-.215.017c-.322.046-.642.12-.961.192a9.6,9.6,0,0,1-1.4.247l-.135.005a1.316,1.316,0,0,1-1.4-1.28,1.406,1.406,0,0,1,1.229-1.556c2.786-.343,5.66-.667,8.785-.988a1.742,1.742,0,0,1,.177-.009,1.237,1.237,0,0,1,1.291.982,1.3,1.3,0,0,1-1.137,1.581c-.478.115-.963.208-1.448.281-1.467.222-1.553.307-1.52,1.509.008.307.009.617.01.927,0,1.77.009,3.442,1.384,4.746.991.939.108,1.939-.269,2.366A1.326,1.326,0,0,1,39.218,46.893ZM30.36,38.456a3.06,3.06,0,0,1-.46.119,2.69,2.69,0,0,0-2.237,2.1,2.915,2.915,0,0,0-.065,1.2,1.287,1.287,0,0,0,.794,1.055.545.545,0,0,0,.165.031c.162,0,.289-.16.52-.5.074-.111.149-.22.228-.319a2.219,2.219,0,0,0,.461-1.267,9.965,9.965,0,0,1,.41-1.962A2.25,2.25,0,0,1,30.36,38.456Z" transform="translate(0)"/>
    <path class="cls-2" d="M41.919,34.512a.744.744,0,0,1,.8.58c.117.587-.252.875-.764,1-.464.112-.934.2-1.406.273-1.605.243-1.987.466-1.945,2.018.057,2.092-.239,4.326,1.55,6.022.629.6.111,1.206-.3,1.672a.831.831,0,0,1-.638.319,1.564,1.564,0,0,1-.854-.346,2.559,2.559,0,0,1-.857-2.352c-1.355,1.039-2.171,1.532-2.988,1.532a4.2,4.2,0,0,1-2.184-.885,1.575,1.575,0,0,0-.834-.31,1.5,1.5,0,0,0-.985.525,3.314,3.314,0,0,1-2.21,1.022,3.076,3.076,0,0,1-2.651-2.137c-1.273-2.786.747-6.577,3.487-7.293a3.353,3.353,0,0,1,.8-.144.792.792,0,0,1,.812.6c.286.806.036,1.295-.949,1.476a3.2,3.2,0,0,0-2.632,2.469,3.4,3.4,0,0,0-.073,1.411,1.757,1.757,0,0,0,1.13,1.442,1.031,1.031,0,0,0,.322.056c.57,0,.816-.6,1.139-1.009a2.729,2.729,0,0,0,.568-1.539,9.465,9.465,0,0,1,.392-1.862,1.157,1.157,0,0,1,1.12-.952c.031,0,.062,0,.094,0,.756.052.795.7.833,1.242.044.632-.125,1.288-.022,1.9a2.131,2.131,0,0,0,1.71,2.031,1.5,1.5,0,0,0,.249.022c.833,0,1.012-.825,1.453-1.381,1.091-1.379.512-2.895.5-4.362,0-.53-.365-.674-.757-.674a2.035,2.035,0,0,0-.285.022c-.781.111-1.545.375-2.327.436-.032,0-.063,0-.1,0a.827.827,0,0,1-.9-.807.9.9,0,0,1,.79-1.033q4.382-.54,8.776-.987a1.211,1.211,0,0,1,.125-.006m0-1a2.223,2.223,0,0,0-.227.012c-3.113.32-5.99.644-8.8.989a1.839,1.839,0,0,0-1.523,1.155A1.758,1.758,0,0,0,29.947,35a4.127,4.127,0,0,0-1.05.175,6.357,6.357,0,0,0-3.956,3.511,6.129,6.129,0,0,0-.2,5.167,4.056,4.056,0,0,0,3.561,2.722A4.3,4.3,0,0,0,31.2,45.289a1.505,1.505,0,0,1,.329-.258c0,.009.091.038.267.152a5.1,5.1,0,0,0,2.725,1.044,4.086,4.086,0,0,0,2.223-.761,2.809,2.809,0,0,0,1.046,1.4,2.482,2.482,0,0,0,1.431.53,1.813,1.813,0,0,0,1.388-.658c1.047-1.187,1.127-2.216.238-3.059-1.22-1.157-1.224-2.653-1.229-4.385,0-.314,0-.628-.01-.938a1.85,1.85,0,0,1,.061-.767A3.618,3.618,0,0,1,40.7,37.35c.515-.078,1.016-.175,1.49-.289A1.8,1.8,0,0,0,43.7,34.9a1.721,1.721,0,0,0-1.782-1.385h0Zm-8.39,4.8a11.6,11.6,0,0,0,1.239-.235c.29-.066.565-.129.833-.172.016.3.047.59.077.874a3.138,3.138,0,0,1-.371,2.516,5.119,5.119,0,0,0-.394.6,2.1,2.1,0,0,1-.281.413.27.27,0,0,0-.076-.018c-.343-.058-.722-.2-.889-1.209a3.706,3.706,0,0,1,.009-.818,6.66,6.66,0,0,0,.025-.991,3.706,3.706,0,0,0-.171-.959Zm-5.045,4.114a.881.881,0,0,1-.394-.644,2.4,2.4,0,0,1,.057-.983,2.175,2.175,0,0,1,1.436-1.63,8.974,8.974,0,0,0-.316,1.662,1.73,1.73,0,0,1-.356,1c-.086.108-.168.228-.25.349-.052.076-.121.179-.177.25Z" transform="translate(0)"/>
  </g>
  <g>
    <path class="cls-1" d="M42.374,23.122a1.735,1.735,0,0,1-1.867-1.547,17.782,17.782,0,0,1-.184-2.7,24.8,24.8,0,0,0-.395-4.093l-.048-.319c-.133-.878-.328-.917-.723-.917-.066,0-.137,0-.212.01-.206.019-.414.027-.622.027s-.444-.01-.664-.03a1.619,1.619,0,0,1-1.194-.608,1.316,1.316,0,0,1-.209-1.091c.226-1.047.783-1.648,1.529-1.648a1.612,1.612,0,0,1,.6.125,4.506,4.506,0,0,0,1.561.2,35.339,35.339,0,0,0,3.835-.323,31.717,31.717,0,0,1,3.369-.291,3.139,3.139,0,0,1,1.484.258.557.557,0,0,0,.261.048,4.179,4.179,0,0,0,.744-.106,5.234,5.234,0,0,1,1-.131,2.228,2.228,0,0,1,1.907.755,2.109,2.109,0,0,1,.09,1.932,6.631,6.631,0,0,1-3.525,3.878c-.915.471-1.412.924-1.439,1.311-.019.273.187.762,1.274,1.531a3.434,3.434,0,0,0,1.691.811,1.408,1.408,0,0,0,1.026-.561,1.043,1.043,0,0,1,.778-.354,1.143,1.143,0,0,1,.779.326,1.274,1.274,0,0,1,.226,1.4A2.87,2.87,0,0,1,50.082,23a7.289,7.289,0,0,1-4.095-2.465A5.112,5.112,0,0,1,44.3,17.016a6.672,6.672,0,0,1,1.753-4.464c-.083-.006-.167-.009-.251-.009a5.884,5.884,0,0,0-1.733.333,6.283,6.283,0,0,1-1.472.318,1.207,1.207,0,0,0,.014.364c.014.081,1.294,8.225.45,9.3a.645.645,0,0,1-.46.255C42.526,23.119,42.45,23.122,42.374,23.122Zm7.041-10.049a1.972,1.972,0,0,0-1.332,1.094A5.069,5.069,0,0,0,49.415,13.073Z" transform="translate(0)"/>
    <path class="cls-2" d="M47.15,10.417a2.8,2.8,0,0,1,1.243.2,1.026,1.026,0,0,0,.5.11c.527,0,1.181-.237,1.748-.237h.064c1.417.047,1.895.689,1.457,2.031a6.178,6.178,0,0,1-3.28,3.589c-2.2,1.135-2.279,2.241-.225,3.695a3.741,3.741,0,0,0,1.981.9,1.864,1.864,0,0,0,1.4-.725.544.544,0,0,1,.407-.19.639.639,0,0,1,.436.19c.278.262.186.588.091.893a2.369,2.369,0,0,1-2.784,1.644,6.793,6.793,0,0,1-3.821-2.3c-.052-.061-3.9-3.162.642-7.995a4.235,4.235,0,0,0-1.205-.179c-1.3,0-2.249.618-3.289.655-.419.015-.47.478-.395.94.33,2.028,1.2,8.917.444,8.977-.065.005-.128.008-.191.008A1.244,1.244,0,0,1,41,21.5a17.183,17.183,0,0,1-.179-2.624,27.522,27.522,0,0,0-.449-4.493c-.141-.933-.422-1.342-1.216-1.342q-.12,0-.257.012c-.191.017-.384.026-.577.026s-.414-.01-.619-.028c-.653-.059-1.1-.466-.961-1.094.126-.58.423-1.254,1.042-1.254a1.111,1.111,0,0,1,.414.088,4.957,4.957,0,0,0,1.748.237c2.19,0,5.354-.614,7.2-.614m.273,4.521c1.41-.322,2.23-1.342,3.4-2.732-2.512.454-3.286,1.156-3.4,2.732m-.273-5.521h0a32.034,32.034,0,0,0-3.428.295,35.081,35.081,0,0,1-3.776.32,3.924,3.924,0,0,1-1.375-.165,2.109,2.109,0,0,0-.786-.16c-.986,0-1.741.763-2.019,2.042a1.828,1.828,0,0,0,.3,1.493,2.112,2.112,0,0,0,1.553.81c.234.021.472.032.708.032s.447-.01.667-.03c.059-.005.115-.008.167-.008a.858.858,0,0,1,.111.006,1.984,1.984,0,0,1,.117.485l.05.328a24.422,24.422,0,0,1,.388,4,18.233,18.233,0,0,0,.188,2.777,2.227,2.227,0,0,0,2.362,1.977q.133,0,.27-.011a1.142,1.142,0,0,0,.814-.444c.935-1.192-.052-7.828-.324-9.533a9.215,9.215,0,0,0,1.083-.279c.267-.081.527-.159.79-.217a6.576,6.576,0,0,0-1.2,3.9,5.659,5.659,0,0,0,1.844,3.876,7.776,7.776,0,0,0,4.328,2.58,3.369,3.369,0,0,0,3.953-2.323,1.754,1.754,0,0,0-.36-1.917,1.639,1.639,0,0,0-1.123-.463,1.536,1.536,0,0,0-1.15.52c-.357.4-.581.4-.655.4a3.267,3.267,0,0,1-1.4-.719C48.2,18.25,48.174,17.9,48.174,17.9s.071-.336,1.169-.9a7.1,7.1,0,0,0,3.772-4.167,2.6,2.6,0,0,0-.156-2.373,2.645,2.645,0,0,0-2.218-.967l-.1,0a5.688,5.688,0,0,0-1.1.141,4.038,4.038,0,0,1-.649.1.349.349,0,0,1-.063,0,3.468,3.468,0,0,0-1.682-.3Z" transform="translate(0)"/>
  </g>
  <g>
    <path class="cls-1" d="M66.812,45.376a3.037,3.037,0,0,1-2.03-.761,6.162,6.162,0,0,1-1.728-4.331,4.886,4.886,0,0,1,1.105-3.6A3.533,3.533,0,0,1,66.7,35.6a5.056,5.056,0,0,1,3.419,1.586c.02-.094.036-.2.055-.316a2.657,2.657,0,0,1,.311-1.019c.214-.349.715-1.167,1.576-1.167a1.651,1.651,0,0,1,.834.248,1.2,1.2,0,0,1,.6.733,1.831,1.831,0,0,1-.369,1.373c-.744,1.268-.595,2.508.452,3.938a1.67,1.67,0,0,0,1.211.8,1.726,1.726,0,0,0,1.2-.716A4.627,4.627,0,0,0,77.1,37.047a3.8,3.8,0,0,1,.1-1.75c.039-.175.08-.351.107-.531a1.246,1.246,0,0,1,1.357-1.059,1.486,1.486,0,0,1,1.564,1.124,4.038,4.038,0,0,1,.033,1.492c-.02.183-.039.367-.045.55l-.02.489c-.079,1.9-.148,3.542,1.6,4.641a1.063,1.063,0,0,1,.479.708,1.088,1.088,0,0,1-.22.857,1.481,1.481,0,0,1-1.188.677,1.3,1.3,0,0,1-.387-.061A3.371,3.371,0,0,1,78.9,43.078c-.219-.268-.356-.268-.408-.268a.868.868,0,0,0-.41.146c-1.795,1.056-2.826,1.558-3.826,1.558-1.035,0-1.864-.52-3.18-1.674a5.808,5.808,0,0,1-4.263,2.537Zm.756-6.8a3.273,3.273,0,0,0-1.78,1.774c.03,1.236.566,2.035,1.365,2.035,1.257-.042,1.485-1.114,1.463-2.007-.024-.969-.706-1.8-1.031-1.8v-.5Z" transform="translate(0)"/>
    <path class="cls-2" d="M78.675,34.208a.989.989,0,0,1,1.072.75,6.519,6.519,0,0,1-.027,1.9c-.07,2.061-.349,4.21,1.811,5.57a.56.56,0,0,1,.129.839,1.036,1.036,0,0,1-.79.479.786.786,0,0,1-.237-.038,2.852,2.852,0,0,1-1.346-.946,1.026,1.026,0,0,0-.8-.452,1.329,1.329,0,0,0-.664.215c-1.671.982-2.682,1.489-3.573,1.489-.988,0-1.828-.623-3.255-1.911-1.245,1.785-2.817,2.774-4.187,2.774a2.523,2.523,0,0,1-1.7-.637c-1.779-1.56-2.12-5.673-.6-7.2A3.028,3.028,0,0,1,66.7,36.1a4.912,4.912,0,0,1,3.54,1.938c.54-.546.319-1.35.671-1.926.294-.48.647-.928,1.149-.928a1.153,1.153,0,0,1,.581.179c.677.4.314.974.031,1.456a3.792,3.792,0,0,0,.5,4.452,2.069,2.069,0,0,0,1.614,1,2.128,2.128,0,0,0,1.579-.895,5.076,5.076,0,0,0,1.231-4.438,5.275,5.275,0,0,1,.211-2.1c.072-.473.433-.633.866-.635h.005M67.154,42.889h.061c1.239-.042,1.939-.969,1.9-2.518-.028-1.12-.828-2.291-1.531-2.291a.611.611,0,0,0-.094.007c-.814.126-2.22,1.583-2.2,2.281.037,1.524.779,2.522,1.866,2.522m11.521-9.681h-.005a1.735,1.735,0,0,0-1.854,1.484c-.026.169-.064.333-.1.5a4.276,4.276,0,0,0-.1,1.965,4.145,4.145,0,0,1-1.02,3.58,1.26,1.26,0,0,1-.813.538c-.237,0-.531-.216-.807-.594-.927-1.265-1.064-2.3-.445-3.354a2.335,2.335,0,0,0,.442-1.787,1.692,1.692,0,0,0-.83-1.038,2.144,2.144,0,0,0-1.086-.316,2.491,2.491,0,0,0-2,1.406,2.411,2.411,0,0,0-.272.655A5.151,5.151,0,0,0,66.7,35.1a4.02,4.02,0,0,0-2.889,1.236A5.368,5.368,0,0,0,62.555,40.3a6.663,6.663,0,0,0,1.9,4.689,3.527,3.527,0,0,0,2.359.885,6.044,6.044,0,0,0,4.322-2.325,4.877,4.877,0,0,0,3.12,1.462c1.116,0,2.205-.525,4.08-1.627a.974.974,0,0,1,.117-.06.837.837,0,0,1,.061.068,3.867,3.867,0,0,0,1.821,1.267,1.787,1.787,0,0,0,.537.084,1.962,1.962,0,0,0,1.586-.873,1.581,1.581,0,0,0,.313-1.249,1.564,1.564,0,0,0-.7-1.042c-1.428-.9-1.448-2.181-1.364-4.2l.019-.493c.006-.171.025-.343.043-.514a4.5,4.5,0,0,0-.047-1.671,1.974,1.974,0,0,0-2.04-1.5ZM66.289,40.4a3.391,3.391,0,0,1,1.266-1.291,1.933,1.933,0,0,1,.56,1.289c.036,1.461-.695,1.486-.935,1.494h-.027c-.559,0-.834-.74-.865-1.492Z" transform="translate(0)"/>
  </g>
  <g>
    <path class="cls-1" d="M84.891,67.242c-.769,0-1.111-1.025-1.223-1.466-.278-1.093-.5-2.213-.706-3.3l-.182-.925c-.045-.225-.074-.453-.1-.683-.021-.171-.044-.342-.073-.512-.062-.342-.175-.75-.37-.75a1.123,1.123,0,0,0-.507.183,2.139,2.139,0,0,1-1.043.33,1.214,1.214,0,0,1-1.1-.7c-.5-.959.274-1.576.692-1.907l.1-.078a6.125,6.125,0,0,1,2.856-1.154c.8-.136,1.61-.226,2.4-.312a20.168,20.168,0,0,0,4.56-.857.99.99,0,0,1,.329-.055c1.045,0,2.7,1.693,2.766,2.831.02.343.012.688,0,1.033a7.851,7.851,0,0,0,.038,1.314l.035.259c.107.8.2,1.484.864,1.883a1.279,1.279,0,0,1,.753,1.21,1.255,1.255,0,0,1-.385.884,1.889,1.889,0,0,1-1.339.55h0a1.759,1.759,0,0,1-.555-.088l-.208-.068a5.474,5.474,0,0,0-1.4-.362c-.34,0-.637.2-1.417.837a4.168,4.168,0,0,1-2.324.915,1.677,1.677,0,0,1-1.412-.684c-.028-.039-.056-.079-.081-.12a2.585,2.585,0,0,1-.311,1.49A.91.91,0,0,1,84.891,67.242Zm4.814-7.864a4.133,4.133,0,0,0-1.573,3.351C89.247,62.084,89.731,61.049,89.706,59.378ZM85.218,58.9c.095.591.274,1.776.42,3.064a23.391,23.391,0,0,1,.719-2.8c.011-.035.021-.082.007-.1a1.1,1.1,0,0,0-.757-.2A1.905,1.905,0,0,0,85.218,58.9Z" transform="translate(0)"/>
    <path class="cls-2" d="M90.517,55.558a3.36,3.36,0,0,1,2.266,2.36c.046.8-.067,1.607.046,2.39.133.919.18,1.925,1.138,2.5.267.16.545.351.512.738.017.537-.594.976-1.226.976a1.279,1.279,0,0,1-.4-.062A6.6,6.6,0,0,0,91.093,64c-.515,0-.906.273-1.734.95a3.712,3.712,0,0,1-2.008.8c-1.2,0-2.156-1.232-.518-6.443.216-.686-.541-.954-1.227-.954a1.351,1.351,0,0,0-.94.264c.239,1,1.054,7.433.525,7.968a.429.429,0,0,1-.3.152c-.372,0-.642-.708-.739-1.089-.352-1.384-.6-2.794-.883-4.2-.078-.391-.1-.791-.175-1.184-.121-.678-.351-1.163-.862-1.163a1.584,1.584,0,0,0-.753.248,1.715,1.715,0,0,1-.8.265.712.712,0,0,1-.657-.435c-.337-.64.234-1.017.662-1.363a5.541,5.541,0,0,1,2.626-1.05c2.344-.4,4.752-.387,7.038-1.191a.49.49,0,0,1,.163-.026m-2.892,7.956c2.041-.766,2.8-2.26,2.531-5.01-1.832.97-2.6,2.494-2.531,5.01m2.892-8.956a1.489,1.489,0,0,0-.5.083,19.793,19.793,0,0,1-4.448.832c-.793.088-1.612.178-2.425.316a6.6,6.6,0,0,0-3.086,1.258l-.093.074a1.948,1.948,0,0,0-.825,2.533,1.715,1.715,0,0,0,1.541.969,2.623,2.623,0,0,0,1.29-.395l.079-.042c.019.066.039.152.059.263.029.164.05.329.071.494.03.238.061.475.108.709l.179.913c.213,1.093.433,2.224.715,3.334.3,1.171.92,1.843,1.708,1.843a1.4,1.4,0,0,0,1.011-.449,1.611,1.611,0,0,0,.34-.807,2.312,2.312,0,0,0,1.108.269,4.72,4.72,0,0,0,2.641-1.028c.678-.555.935-.724,1.1-.724a5.778,5.778,0,0,1,1.239.337l.21.069a2.275,2.275,0,0,0,.71.112,2.4,2.4,0,0,0,1.7-.7,1.8,1.8,0,0,0,.527-1.245,1.777,1.777,0,0,0-1-1.625c-.417-.25-.507-.636-.626-1.523l-.036-.262a7.579,7.579,0,0,1-.033-1.229c.008-.347.017-.705,0-1.076-.083-1.419-1.944-3.3-3.264-3.3Z" transform="translate(0)"/>
  </g>
  <g>
    <path class="cls-1" d="M139.11,68.394c-1.426,0-1.6-1.465-1.671-2.016a11.332,11.332,0,0,1-.058-1.33,4.969,4.969,0,0,0-.357-2.3l-.874.227c-.873.229-1.746.457-2.625.662a5.958,5.958,0,0,1-1.337.161,3.753,3.753,0,0,1-2.95-1.266,4.441,4.441,0,0,1-.78-3.688,21.752,21.752,0,0,1,2.014-6.207,5.263,5.263,0,0,1,2.1-2.3,2.136,2.136,0,0,1,1.05-.279,1.787,1.787,0,0,1,1.689,1.076,1.418,1.418,0,0,1,0,1.221,1.758,1.758,0,0,1-1.223.833c-.927.225-1.293.963-1.716,1.817l-.146.292a9.5,9.5,0,0,0-.883,2.741,7.044,7.044,0,0,1,1.24-.123,4.626,4.626,0,0,1,1.35.193,1.632,1.632,0,0,0,.476.066,5.018,5.018,0,0,0,1.629-.411l.374-.136a4.7,4.7,0,0,1,1.514-.335c1.468,0,1.6,1.5,1.66,2.143.032.358.061.716.088,1.073a16.616,16.616,0,0,0,1,5.307,2.089,2.089,0,0,1-.114,1.8,1.587,1.587,0,0,1-1.25.766C139.241,68.39,139.174,68.394,139.11,68.394Zm-7.187-7.614a.956.956,0,0,0,.722.294,1.774,1.774,0,0,0,.376-.044A5.365,5.365,0,0,1,131.922,60.779Z" transform="translate(0)"/>
    <path class="cls-2" d="M133.625,50.565a1.284,1.284,0,0,1,1.226.763c.331.816-.22,1.221-.878,1.38-1.28.31-1.7,1.4-2.19,2.369a10.538,10.538,0,0,0-1.036,3.6,8.112,8.112,0,0,1,1.839-.26,4.14,4.14,0,0,1,1.206.172,2.137,2.137,0,0,0,.619.088,6.851,6.851,0,0,0,2.169-.575,4.341,4.341,0,0,1,1.348-.307c.729,0,1.054.483,1.162,1.687a21.1,21.1,0,0,0,1.123,6.529,1.3,1.3,0,0,1-.95,1.87c-.053.005-.1.007-.153.007-.822,0-1.067-.689-1.175-1.576-.168-1.383.207-2.876-.677-4.143-1.282.328-2.558.679-3.846.979a5.4,5.4,0,0,1-1.224.148c-2.316,0-3.7-1.753-3.238-4.367a21.4,21.4,0,0,1,1.967-6.068,4.825,4.825,0,0,1,1.905-2.088,1.634,1.634,0,0,1,.8-.214m-.981,11.008a4.773,4.773,0,0,0,2.391-.95c-1.531-.044-2.939.063-4.242-1.072.356,1.365.947,2.022,1.851,2.022m3.7-1.114c.061,0,.123-.069.184-.107-.039-.05-.07-.128-.12-.144a.3.3,0,0,0-.09-.013.179.179,0,0,0-.12.034c-.128.129-.07.227.145.23h0m-2.72-10.895a2.638,2.638,0,0,0-1.3.344,5.829,5.829,0,0,0-2.3,2.5,22.253,22.253,0,0,0-2.061,6.349,4.927,4.927,0,0,0,.89,4.1,4.244,4.244,0,0,0,3.333,1.444,6.419,6.419,0,0,0,1.451-.174c.9-.209,1.8-.445,2.672-.673l.415-.108a6.019,6.019,0,0,1,.157,1.7,11.7,11.7,0,0,0,.061,1.388c.2,1.629.927,2.455,2.167,2.455.079,0,.161,0,.247-.012a2.077,2.077,0,0,0,1.634-1.008,2.568,2.568,0,0,0,.145-2.245,16.248,16.248,0,0,1-.961-5.157c-.028-.357-.056-.715-.088-1.074-.155-1.724-.881-2.6-2.158-2.6a5.139,5.139,0,0,0-1.68.363c-.126.044-.254.092-.382.139a4.621,4.621,0,0,1-1.455.38,1.138,1.138,0,0,1-.332-.046,5.115,5.115,0,0,0-1.493-.214c-.205,0-.409.011-.609.03a8.568,8.568,0,0,1,.7-1.921l.148-.3c.438-.885.718-1.393,1.387-1.555a2.2,2.2,0,0,0,1.549-1.09,1.9,1.9,0,0,0,.02-1.638,2.285,2.285,0,0,0-2.153-1.387Z" transform="translate(0)"/>
  </g>
  <g>
    <path class="cls-1" d="M108.945,20.031a2.529,2.529,0,0,1-2.193-1.176,4.814,4.814,0,0,1-.309-.565,3.161,3.161,0,0,0-.506-.808,9.487,9.487,0,0,1-3.685,2.284,5.836,5.836,0,0,1-1.583.234,3.811,3.811,0,0,1-3.775-2.925,7.6,7.6,0,0,1,1.161-7.24,1.614,1.614,0,0,1,1.257-.747,1.237,1.237,0,0,1,.589.153,1.166,1.166,0,0,1,.6.742,1.581,1.581,0,0,1-.235,1.229A7.845,7.845,0,0,0,99.2,14.154c-.215,1.323.067,2.228.841,2.689a2.32,2.32,0,0,0,1.2.342,2.71,2.71,0,0,0,1.626-.595c1.26-.955,2.141-1.747,2-3.251a7.706,7.706,0,0,1,.312-2.464l.065-.278a1.692,1.692,0,0,1,1.743-1.369c.075,0,.152,0,.232.011a1.566,1.566,0,0,1,1.123.552,1.777,1.777,0,0,1,.313,1.36,9.018,9.018,0,0,1-.269,1.244c-.058.218-.116.437-.164.656a4.319,4.319,0,0,0,.109,2.744l.061.14c.311.719.463.97.947.97.04,0,.082,0,.125-.005.079-.006.16-.01.239-.01a1.178,1.178,0,0,1,1.322,1.2,1.722,1.722,0,0,1-1.479,1.883A3.651,3.651,0,0,1,108.945,20.031Z" transform="translate(0)"/>
    <path class="cls-2" d="M99.312,9.589a.742.742,0,0,1,.353.094.842.842,0,0,1,.178,1.263A8.3,8.3,0,0,0,98.7,14.074a2.912,2.912,0,0,0,1.078,3.2,2.821,2.821,0,0,0,1.457.413,3.194,3.194,0,0,0,1.928-.7c1.228-.93,2.366-1.867,2.2-3.7a8.445,8.445,0,0,1,.367-2.584,1.2,1.2,0,0,1,1.256-.982c.06,0,.122,0,.185.009.818.078,1.074.645.987,1.353-.077.626-.29,1.235-.425,1.856a4.785,4.785,0,0,0,.14,3.05c.313.717.55,1.41,1.466,1.41q.079,0,.165-.007c.066-.005.132-.009.2-.009.416,0,.811.132.822.713a1.234,1.234,0,0,1-1.062,1.381,3.161,3.161,0,0,1-.522.046,2.019,2.019,0,0,1-1.777-.952,4.873,4.873,0,0,0-1.235-1.768,9.789,9.789,0,0,1-3.818,2.473,5.328,5.328,0,0,1-1.447.216,3.294,3.294,0,0,1-3.3-2.571,7.135,7.135,0,0,1,1.079-6.788,1.177,1.177,0,0,1,.861-.552m0-1a2.077,2.077,0,0,0-1.653.941,8.081,8.081,0,0,0-1.243,7.692,4.285,4.285,0,0,0,4.253,3.278,6.337,6.337,0,0,0,1.719-.253,9.109,9.109,0,0,0,3.461-2.023c.048.089.094.183.144.286a5.258,5.258,0,0,0,.342.622,3.008,3.008,0,0,0,2.61,1.4,4.175,4.175,0,0,0,.687-.059,2.215,2.215,0,0,0,1.9-2.386,1.67,1.67,0,0,0-1.822-1.695c-.093,0-.187,0-.28.012q-.043,0-.083,0c-.158,0-.2,0-.489-.67l-.061-.14a3.763,3.763,0,0,1-.079-2.437c.046-.213.1-.424.159-.635a9.567,9.567,0,0,0,.281-1.311,2.233,2.233,0,0,0-.42-1.734,2.054,2.054,0,0,0-1.465-.736q-.143-.014-.28-.013a2.192,2.192,0,0,0-2.23,1.756l-.066.28a8.217,8.217,0,0,0-.323,2.621c.113,1.254-.608,1.9-1.809,2.808a2.216,2.216,0,0,1-1.324.493,1.826,1.826,0,0,1-.944-.271c-.58-.346-.783-1.079-.6-2.179a7.239,7.239,0,0,1,1-2.756,2.079,2.079,0,0,0,.3-1.622,1.68,1.68,0,0,0-.849-1.056,1.734,1.734,0,0,0-.824-.212Z" transform="translate(0)"/>
  </g>
  <g>
    <path class="cls-1" d="M126.8,64.452c-.12,0-.246-.008-.372-.016a1.587,1.587,0,0,1-1.289-.664,1.426,1.426,0,0,1-.074-1.307c.763-1.973-.047-3.693-.9-5.515a.868.868,0,0,0-.367-.459,6.66,6.66,0,0,0-1.237,3.19l-.121.573c-.033.153-.061.313-.089.473-.148.867-.374,2.178-1.892,2.178a1.812,1.812,0,0,1-1.351-.5,2.523,2.523,0,0,1-.421-1.891c.007-.17.014-.337.01-.5q-.023-.936-.056-1.872c-.035-1.128-.071-2.256-.085-3.385l0-.119a1.783,1.783,0,0,1,.359-1.367,1.365,1.365,0,0,1,1.02-.367,1.519,1.519,0,0,1,1.637,1.254c.514-1,1.146-1.512,1.881-1.512a2.391,2.391,0,0,1,1.707.94,12.112,12.112,0,0,1,3.028,9.647,1.231,1.231,0,0,1-1.381,1.208Z" transform="translate(0)"/>
    <path class="cls-2" d="M123.449,53.157a1.925,1.925,0,0,1,1.337.776,11.605,11.605,0,0,1,2.9,9.265c-.059.639-.434.754-.883.754-.11,0-.224-.007-.339-.015-.84-.056-1.2-.592-.93-1.291.841-2.176-.039-4.04-.922-5.916a1.235,1.235,0,0,0-.965-.806c-1.171,1.122-1.367,2.718-1.7,4.224-.219,1-.186,2.258-1.491,2.258h-.079c-1.521-.057-1.159-1.4-1.184-2.393-.044-1.75-.119-3.5-.14-5.25-.008-.609-.093-1.348.878-1.348h.011a1.061,1.061,0,0,1,1.171,1.189,6.725,6.725,0,0,0,.092.706c.518-.022.574-.432.735-.771.433-.909.94-1.382,1.508-1.382m0-1v0a2.293,2.293,0,0,0-1.818.984,2.1,2.1,0,0,0-1.682-.726,1.861,1.861,0,0,0-1.395.517,2.248,2.248,0,0,0-.5,1.728l0,.115c.014,1.12.049,2.24.084,3.36.02.634.04,1.268.056,1.9,0,.148,0,.306-.009.465a2.935,2.935,0,0,0,.554,2.248,2.2,2.2,0,0,0,1.6.655l.116,0c1.938,0,2.239-1.752,2.384-2.594.026-.152.052-.3.084-.449.042-.192.082-.386.123-.58a8.5,8.5,0,0,1,.751-2.432c.809,1.723,1.463,3.226.8,4.934a1.913,1.913,0,0,0,.119,1.756,2.072,2.072,0,0,0,1.678.893c.138.009.274.017.406.017a1.722,1.722,0,0,0,1.879-1.661,12.592,12.592,0,0,0-3.155-10.03,2.857,2.857,0,0,0-2.078-1.1Z" transform="translate(0)"/>
  </g>
  <g>
    <path class="cls-1" d="M118.763,43.342a1.392,1.392,0,0,1-.791-.274,1.868,1.868,0,0,1-.845-1.917c.017-.116.041-.231.064-.346l.018-.084c-.105-1.327-.282-2.673-.453-3.976-.108-.823-.217-1.646-.309-2.471l-.015-.129a9.559,9.559,0,0,1-.052-2.616,1.432,1.432,0,0,1,1.35-1.278,1.1,1.1,0,0,1,.929.508c.267.4.441.4.525.4a2.063,2.063,0,0,0,.518-.111c.147-.043.3-.088.462-.121a5.062,5.062,0,0,1,1.02-.109c2.059,0,3.451,1.433,3.635,3.74a7.853,7.853,0,0,1-2.287,5.754,14.352,14.352,0,0,1-1.756,1.666c-.255.215-.509.43-.755.652l-.129.12a1.657,1.657,0,0,1-1.129.588Zm2.266-9.618a1.709,1.709,0,0,0-1.189.526,2.221,2.221,0,0,0-.616,1.6l.323,1.849c.112.661.245.792.482.822a1.854,1.854,0,0,0,.231.015,1.069,1.069,0,0,0,.966-.479,4.336,4.336,0,0,0,.437-3.9c-.108-.32-.219-.392-.411-.422A1.426,1.426,0,0,0,121.029,33.724Z" transform="translate(0)"/>
    <path class="cls-2" d="M117.731,30.752a.6.6,0,0,1,.511.283,1.108,1.108,0,0,0,.942.629,6.126,6.126,0,0,0,1.08-.242,4.548,4.548,0,0,1,.919-.1c1.8,0,2.974,1.233,3.137,3.279.173,2.17-.876,3.852-2.172,5.393a24.538,24.538,0,0,1-2.462,2.268c-.289.261-.557.579-.922.579a.891.891,0,0,1-.506-.185,1.376,1.376,0,0,1-.635-1.435c.022-.158.06-.313.091-.469-.17-2.187-.525-4.354-.769-6.533a9.622,9.622,0,0,1-.07-2.61.944.944,0,0,1,.857-.857m2.53,8.287a1.571,1.571,0,0,0,1.386-.709A4.809,4.809,0,0,0,122.136,34a.971.971,0,0,0-.805-.757,1.909,1.909,0,0,0-.3-.024,2.472,2.472,0,0,0-2.305,2.632l.33,1.929c.1.567.249,1.15.912,1.234a2.338,2.338,0,0,0,.3.019m-2.53-9.287a1.93,1.93,0,0,0-1.844,1.7,9.933,9.933,0,0,0,.048,2.751l.015.13c.092.825.2,1.649.309,2.472.168,1.276.341,2.593.446,3.888v0c-.027.128-.053.257-.072.386a2.361,2.361,0,0,0,1.055,2.4,1.877,1.877,0,0,0,1.076.364,2.12,2.12,0,0,0,1.471-.724l.121-.112c.243-.219.493-.43.744-.642a14.72,14.72,0,0,0,1.814-1.724,8.308,8.308,0,0,0,2.4-6.117c-.2-2.551-1.826-4.2-4.134-4.2a5.567,5.567,0,0,0-1.121.119c-.174.036-.341.084-.5.131a3.006,3.006,0,0,1-.344.088,1,1,0,0,1-.14-.176,1.591,1.591,0,0,0-1.346-.733Zm1.992,6.024a1.708,1.708,0,0,1,.47-1.173,1.2,1.2,0,0,1,.834-.378.912.912,0,0,1,.125.008.947.947,0,0,1,.035.091,3.809,3.809,0,0,1-.383,3.465.563.563,0,0,1-.545.25c-.041,0-.082,0-.123-.006a2.239,2.239,0,0,1-.1-.416l-.265-1.55-.05-.291Z" transform="translate(0)"/>
  </g>
  <g>
    <path class="cls-1" d="M61.342,46.809a1.839,1.839,0,0,1-1.493-.94A11.8,11.8,0,0,1,58.342,41.4c-.179-.959-.389-1.322-1.279-1.582-2.152-.629-3.028-2.572-3.552-4.194a2.2,2.2,0,0,1-.049-.914,1.541,1.541,0,0,1,1.325-1.385,1.274,1.274,0,0,1,.266-.029,1.166,1.166,0,0,1,1.134,1.19c.084,1.963,2.259,2.8,2.957,3.019.461-.338.943-.7,1.3-.986a.8.8,0,0,1-.589-.27,1.144,1.144,0,0,1-.187-.906l.02-.138c.1-.735.258-1.845,1.521-2.147a2.613,2.613,0,0,1,.606-.074A2.248,2.248,0,0,1,63.981,35.4a4.449,4.449,0,0,1-1.514,3.158l-.087.1a3.723,3.723,0,0,1-.716.583c-.558.381-.745.55-.656.946.082.359.131.73.18,1.1a3.913,3.913,0,0,0,.878,2.43c.047.047.1.09.151.133.069.058.139.117.2.18a1.688,1.688,0,0,1,.6,1.3,1.468,1.468,0,0,1-.633,1.081,1.7,1.7,0,0,1-1.047.394Z" transform="translate(0)"/>
    <path class="cls-2" d="M61.819,33.487c.955,0,1.611.739,1.662,1.938a4.153,4.153,0,0,1-1.475,2.9c-.552.623-1.733.872-1.485,1.97.29,1.282.146,2.725,1.19,3.774.112.113.245.205.359.317.548.539.655,1.133.012,1.632a1.209,1.209,0,0,1-.741.289,1.362,1.362,0,0,1-1.075-.716,11.222,11.222,0,0,1-1.432-4.283A2.047,2.047,0,0,0,57.2,39.34c-1.835-.536-2.662-2.148-3.217-3.868a1.821,1.821,0,0,1-.028-.711,1.053,1.053,0,0,1,.932-.945.779.779,0,0,1,.162-.018.677.677,0,0,1,.634.712c.117,2.732,3.555,3.545,3.555,3.545a23.953,23.953,0,0,0,2.169-1.719.293.293,0,0,0-.249-.431.368.368,0,0,0-.084.01,2.821,2.821,0,0,1-.575.107c-.244,0-.4-.127-.335-.605.11-.761.169-1.633,1.161-1.87a2.115,2.115,0,0,1,.491-.06m0-1a3.124,3.124,0,0,0-.723.088,2.616,2.616,0,0,0-1.9,2.566l-.019.134a1.567,1.567,0,0,0,.3,1.3l.029.032c-.148.111-.3.226-.453.338-.761-.278-2.309-1.02-2.371-2.482A1.666,1.666,0,0,0,55.053,32.8a1.781,1.781,0,0,0-.37.04,2.04,2.04,0,0,0-1.719,1.828,2.7,2.7,0,0,0,.072,1.114c.561,1.74,1.51,3.826,3.888,4.521.649.19.77.346.927,1.193a12.182,12.182,0,0,0,1.583,4.654,2.319,2.319,0,0,0,1.908,1.163,2.186,2.186,0,0,0,1.354-.5,1.953,1.953,0,0,0,.826-1.446,2.166,2.166,0,0,0-.749-1.688c-.075-.073-.155-.142-.236-.209-.039-.033-.08-.064-.116-.1a3.506,3.506,0,0,1-.737-2.142c-.049-.373-.1-.758-.187-1.147a.263.263,0,0,1-.009-.069,2.768,2.768,0,0,1,.459-.353,4.18,4.18,0,0,0,.808-.664l.087-.1a4.915,4.915,0,0,0,1.639-3.505,2.722,2.722,0,0,0-2.661-2.9Z" transform="translate(0)"/>
  </g>
  <g>
    <path class="cls-1" d="M85.151,21.895A2.343,2.343,0,0,1,82.8,20.473a17.594,17.594,0,0,1-.657-2.435c-.076-.352-.153-.7-.24-1.053l-.106-.442c-.31-1.312-.577-2.444-2-2.9a2.754,2.754,0,0,1-1.668-1.581,1.626,1.626,0,0,1,.448-2.088,1.283,1.283,0,0,1,.731-.246,1.39,1.39,0,0,1,1.162.75,2.59,2.59,0,0,0,2.452,1.128l.229,0a1.967,1.967,0,0,0,2.24-1.562,2.153,2.153,0,0,0,.144-.466,1.117,1.117,0,0,0-.134-.007,3.227,3.227,0,0,0-.438.037,2.87,2.87,0,0,1-.392.032,1.2,1.2,0,0,1-1.1-.625,1.442,1.442,0,0,1,.2-1.635A2.38,2.38,0,0,1,85.722,6.3a3.561,3.561,0,0,1,.813.1c1.494.353,1.486,1.615,1.481,2.45,0,.12,0,.24,0,.357a4.9,4.9,0,0,1-2.734,4.754,1.091,1.091,0,0,0-.684,1.378c.044.32.071.645.1.968.113,1.352.212,2.52,1.425,3.346a1.069,1.069,0,0,1,.389,1.247,1.37,1.37,0,0,1-1.266,1Z" transform="translate(0)"/>
    <path class="cls-2" d="M85.722,6.8a3.053,3.053,0,0,1,.7.087c1.271.3,1.075,1.39,1.1,2.332a4.394,4.394,0,0,1-2.476,4.3,1.565,1.565,0,0,0-.937,1.883c.227,1.685.006,3.482,1.737,4.661.528.359.067,1.332-.6,1.332l-.055,0c-.773-.062-1.566-.14-1.925-1.1a30.721,30.721,0,0,1-.881-3.433c-.371-1.49-.564-3.1-2.439-3.694a2.257,2.257,0,0,1-1.352-1.283c-.22-.572-.291-1.115.264-1.5a.792.792,0,0,1,.448-.158.953.953,0,0,1,.743.524,3.114,3.114,0,0,0,2.87,1.354q.122,0,.246,0a2.445,2.445,0,0,0,2.689-1.876c.326-.818.239-1.158-.456-1.158a3.722,3.722,0,0,0-.508.042,2.34,2.34,0,0,1-.322.027.7.7,0,0,1-.67-.383c-.25-.416-.034-.776.184-1.1a1.879,1.879,0,0,1,1.64-.863m0-1a2.859,2.859,0,0,0-2.468,1.3,1.928,1.928,0,0,0-.213,2.173,1.683,1.683,0,0,0,1.528.868c.077,0,.158,0,.244-.012-.356.805-.645.943-1.681.977-.072,0-.143,0-.214,0a2.12,2.12,0,0,1-2.032-.9,1.863,1.863,0,0,0-1.58-.977,1.774,1.774,0,0,0-1.014.333,2.035,2.035,0,0,0-.632,2.68,3.268,3.268,0,0,0,1.983,1.878c1.1.35,1.328,1.11,1.664,2.534.035.15.071.3.108.448.087.347.162.7.238,1.044a17.783,17.783,0,0,0,.676,2.5,2.832,2.832,0,0,0,2.781,1.744c.045,0,.091.005.135.005a1.874,1.874,0,0,0,1.744-1.352,1.573,1.573,0,0,0-.585-1.807c-.969-.66-1.085-1.516-1.208-2.972-.028-.333-.057-.666-.1-1-.071-.527-.061-.6.428-.873a5.385,5.385,0,0,0,2.992-5.243c0-.073,0-.187,0-.3.005-.811.016-2.5-1.866-2.941a4.058,4.058,0,0,0-.928-.113Z" transform="translate(0)"/>
  </g>
  <g>
    <path class="cls-1" d="M91.4,20.314a3.782,3.782,0,0,1-2.151-.7,6.527,6.527,0,0,1-2.1-6.8A2.287,2.287,0,0,1,89.3,11.054c.079,0,.16,0,.245.011.167.014.334.02.5.02.454,0,.918-.041,1.4-.083.325-.028.659-.058,1.006-.077a3.656,3.656,0,0,1,2.787.991,3.811,3.811,0,0,1,.808,2.953,6.329,6.329,0,0,1-2.44,4.646A3.512,3.512,0,0,1,91.4,20.314Zm.72-6.67a3.305,3.305,0,0,0-2.322,1.368,2.488,2.488,0,0,0,.547,1.8,1.338,1.338,0,0,0,.86.54c.045,0,.089.006.134.006,1,0,1.816-.977,1.981-2.376.11-.938-.118-1.212-1.111-1.334Z" transform="translate(0)"/>
    <path class="cls-2" d="M92.489,11.423c2.191.031,3.2,1.09,3.067,3.416A5.789,5.789,0,0,1,93.3,19.125a3.011,3.011,0,0,1-1.905.689,3.285,3.285,0,0,1-1.867-.608A6.031,6.031,0,0,1,87.609,13c.316-.787.7-1.451,1.694-1.451q.1,0,.2.009c.18.015.361.021.543.021.768,0,1.563-.112,2.44-.161m-1.156,6.435c1.263,0,2.281-1.143,2.478-2.818.143-1.214-.283-1.734-1.547-1.889a1.23,1.23,0,0,0-.15-.009c-1.01,0-2.729,1.076-2.818,1.808-.161,1.336.787,2.811,1.862,2.9q.088.007.175.007m1.156-7.435-.056,0c-.353.02-.693.049-1.024.078-.481.042-.935.082-1.36.082-.154,0-.308-.005-.46-.018q-.149-.012-.286-.012a2.785,2.785,0,0,0-2.622,2.078,6.989,6.989,0,0,0,2.278,7.4,4.279,4.279,0,0,0,2.436.786,4,4,0,0,0,2.533-.91A6.813,6.813,0,0,0,96.555,14.9a4.278,4.278,0,0,0-.941-3.323A4.148,4.148,0,0,0,92.5,10.423Zm-2.206,4.713a3.24,3.24,0,0,1,1.831-.993c.785.094.778.146.7.78-.134,1.139-.745,1.935-1.485,1.935-.031,0-.061,0-.093,0a.867.867,0,0,1-.514-.358,2.016,2.016,0,0,1-.444-1.36Z" transform="translate(0)"/>
  </g>
  <g>
    <path class="cls-1" d="M19.27,25.121a2.584,2.584,0,0,1-.51-.049c-2.1,0-2.407-.129-2.894-2.28a42.918,42.918,0,0,1-.954-5.437,18.076,18.076,0,0,0-.692-3.623,4.847,4.847,0,0,1-.3-1.806,1.425,1.425,0,0,1,1.214-1.5,1.869,1.869,0,0,1,.271-.02,1.481,1.481,0,0,1,1.488,1.325c.115.711.21,1.425.3,2.139.082.619.164,1.239.26,1.856.093.592.171,1.187.25,1.781.127.952.257,1.936.445,2.893.334,1.695.818,1.829,1.416,1.829A5.417,5.417,0,0,0,20.914,22c.1-.027.2-.064.293-.1a1.994,1.994,0,0,1,.692-.166.994.994,0,0,1,.959.775,1.414,1.414,0,0,1-.032,1.128,1.91,1.91,0,0,1-1.2.905l-.411.139a6.151,6.151,0,0,1-1.944.441Z" transform="translate(0)"/>
    <path class="cls-2" d="M15.406,10.9a.977.977,0,0,1,.994.906c.215,1.326.356,2.664.563,3.991.244,1.562.392,3.134.7,4.694.314,1.6.816,2.232,1.907,2.232a5.858,5.858,0,0,0,1.476-.246,4.168,4.168,0,0,1,.855-.249c.2,0,.367.106.488.444.266.746-.247,1.171-.917,1.389a7.637,7.637,0,0,1-2.2.555,2.1,2.1,0,0,1-.412-.039c-2.016-.01-2.073,0-2.5-1.9a42.169,42.169,0,0,1-.944-5.372,18.736,18.736,0,0,0-.711-3.722,4.373,4.373,0,0,1-.279-1.623c.04-.526.244-.965.787-1.045a1.377,1.377,0,0,1,.2-.015m0-1a2.374,2.374,0,0,0-.343.025,1.946,1.946,0,0,0-1.64,1.959,5.232,5.232,0,0,0,.313,1.968,17.7,17.7,0,0,1,.679,3.545,43.444,43.444,0,0,0,.964,5.5c.547,2.42,1.1,2.665,3.388,2.68a3.16,3.16,0,0,0,.5.039,6.518,6.518,0,0,0,2.1-.467c.135-.046.271-.093.407-.137a2.379,2.379,0,0,0,1.495-1.16,1.9,1.9,0,0,0,.054-1.516A1.49,1.49,0,0,0,21.9,21.233a2.445,2.445,0,0,0-.867.2c-.081.03-.164.063-.249.086a4.964,4.964,0,0,1-1.214.211c-.346,0-.645,0-.926-1.426-.186-.943-.315-1.921-.441-2.867-.079-.6-.158-1.193-.251-1.788-.1-.616-.178-1.234-.259-1.852-.095-.716-.189-1.432-.305-2.145A1.983,1.983,0,0,0,15.406,9.9Z" transform="translate(0)"/>
  </g>
  <g>
    <path class="cls-1" d="M58.009,22.371a2.874,2.874,0,0,1-1.532-.383,1.483,1.483,0,0,1-.681-.825c-.214-.926-.5-1.861-.777-2.766A21.888,21.888,0,0,1,53.832,12.8l-.006-.223a2.785,2.785,0,0,1,.019-.591,1.561,1.561,0,0,1,1.584-1.4,1.356,1.356,0,0,1,1.319,1.541,17.189,17.189,0,0,0,.646,4.551,3.336,3.336,0,0,0,.157.427l.076.188c.09.228.161.475.232.724.237.828.4,1.3.989,1.414a.869.869,0,0,0,.166.017c.394,0,.662-.339,1.058-.9a6.944,6.944,0,0,1,.453-.594,1.453,1.453,0,0,0,.135-.2,1.034,1.034,0,0,1,1.535-.526,1.7,1.7,0,0,1,.788,2c-.391,1.74-3.041,3.141-4.974,3.141Z" transform="translate(0)"/>
    <path class="cls-2" d="M55.428,11.086h.06c.592.024.759.564.76,1.041a17.832,17.832,0,0,0,.663,4.683,6.683,6.683,0,0,0,.251.666c.366.933.4,2.219,1.593,2.446a1.385,1.385,0,0,0,.259.025c.92,0,1.32-1.023,1.885-1.661.224-.253.356-.722.723-.722a.687.687,0,0,1,.33.1A1.221,1.221,0,0,1,62.5,19.12c-.329,1.46-2.7,2.751-4.487,2.751a2.409,2.409,0,0,1-1.27-.308,1,1,0,0,1-.456-.51c-.635-2.759-1.843-5.383-1.952-8.267a4.353,4.353,0,0,1,.006-.712,1.067,1.067,0,0,1,1.09-.987m0-1h0a2.059,2.059,0,0,0-2.077,1.821,3.239,3.239,0,0,0-.026.7c0,.061.005.122.005.182a22.266,22.266,0,0,0,1.209,5.756c.288.938.559,1.825.769,2.735a1.943,1.943,0,0,0,.9,1.136,3.364,3.364,0,0,0,1.8.458c2.158,0,5.014-1.543,5.462-3.531a2.2,2.2,0,0,0-1.033-2.546,1.673,1.673,0,0,0-.816-.228,1.65,1.65,0,0,0-1.387.928,1.345,1.345,0,0,1-.087.134,7.25,7.25,0,0,0-.484.633c-.216.306-.486.687-.649.687a.392.392,0,0,1-.073-.008c-.259-.049-.366-.237-.6-1.06-.072-.251-.146-.511-.248-.769l-.081-.2a3.135,3.135,0,0,1-.137-.366,16.727,16.727,0,0,1-.627-4.421,1.845,1.845,0,0,0-1.719-2.037l-.1,0Z" transform="translate(0)"/>
  </g>
  <g>
    <path class="cls-1" d="M26.056,24.548A3.656,3.656,0,0,1,22.743,21.5c-.415-1.731-.681-3.516-.938-5.242l-.063-.434a3.184,3.184,0,0,0-.489-1.552,1.392,1.392,0,0,1-.325-1.339,1.431,1.431,0,0,1,1.121-.837,3.631,3.631,0,0,1,.832-.127c.532,0,1.2.235,1.347,1.354.13.985.293,1.964.455,2.944.1.583.194,1.166.284,1.75a3.17,3.17,0,0,1,.024.52,1.945,1.945,0,0,0,.022.4l.04.179c.419,1.883.639,2.492,1.639,2.492a5.675,5.675,0,0,0,1.818-.409,1.571,1.571,0,0,0,.2-.1,1.774,1.774,0,0,1,.85-.257,1.671,1.671,0,0,1,.976.351.5.5,0,0,1,.111.107,1.166,1.166,0,0,1,.151,1.231c-.567,1.233-3.3,1.926-4.568,2.008C26.171,24.546,26.114,24.548,26.056,24.548Z" transform="translate(0)"/>
    <path class="cls-2" d="M22.88,12.467c.426,0,.755.2.85.921.208,1.573.5,3.135.741,4.7.048.313-.016.647.053.953.4,1.789.63,3.062,2.167,3.062a6.13,6.13,0,0,0,1.988-.439,2.451,2.451,0,0,1,.882-.324,1.183,1.183,0,0,1,.686.259c.933,1.243-2.365,2.332-4.049,2.44-.047,0-.095,0-.142,0a3.185,3.185,0,0,1-2.827-2.665c-.425-1.773-.689-3.587-.96-5.392a4.116,4.116,0,0,0-.618-2.02c-.515-.685-.331-1.184.514-1.39a3.161,3.161,0,0,1,.714-.114m0-1a4.048,4.048,0,0,0-.951.142,1.887,1.887,0,0,0-1.474,1.155,1.864,1.864,0,0,0,.4,1.808,2.791,2.791,0,0,1,.393,1.322l.035.246.033.222c.258,1.727.525,3.513.943,5.256a4.148,4.148,0,0,0,3.8,3.432c.069,0,.137,0,.206-.007,1.27-.082,4.289-.774,4.991-2.3A1.667,1.667,0,0,0,31.046,21a1,1,0,0,0-.221-.215,2.179,2.179,0,0,0-1.265-.443,2.228,2.228,0,0,0-1.083.315,1.21,1.21,0,0,1-.137.068,5.309,5.309,0,0,1-1.65.38c-.563,0-.724-.181-1.151-2.1l-.04-.179a1.79,1.79,0,0,1-.01-.286,3.638,3.638,0,0,0-.031-.6c-.091-.593-.19-1.185-.288-1.778-.158-.954-.322-1.94-.45-2.906a1.8,1.8,0,0,0-1.842-1.789Z" transform="translate(0)"/>
  </g>
  <g>
    <path class="cls-1" d="M67.565,20.706c-2.489,0-4.337-1.44-4.6-3.583-.063-.515-.178-1.285-.3-2.105-.576-3.862-.551-4.09-.362-4.353.36-.5.821-1.145,1.571-1.145a1.365,1.365,0,0,1,.543.117c.654.283.788,1.364.957,3.948a17.166,17.166,0,0,0,.3,2.75c.381,1.337.909,1.582,1.812,1.582l.157.5v-.5a2.193,2.193,0,0,0,1.682-.657,1.523,1.523,0,0,1,1.039-.483,1.166,1.166,0,0,1,.935.488,1.845,1.845,0,0,1,.412,1.424,1.464,1.464,0,0,1-.664,1,6.48,6.48,0,0,1-3.486,1.018Z" transform="translate(0)"/>
    <path class="cls-2" d="M63.876,10.02a.862.862,0,0,1,.344.076c.738.319.546,4.859.977,6.376.407,1.429,1.045,1.944,2.291,1.944h.16a2.7,2.7,0,0,0,2.028-.8,1.047,1.047,0,0,1,.691-.342.684.684,0,0,1,.542.3,1.112,1.112,0,0,1-.131,1.693,5.983,5.983,0,0,1-3.215.937c-2,0-3.845-1.038-4.1-3.143-.2-1.643-.927-5.863-.752-6.106.3-.417.658-.937,1.165-.937m0-1a2.522,2.522,0,0,0-1.954,1.321c-.339.473-.356.686.25,4.751.122.815.236,1.58.3,2.092.293,2.406,2.341,4.022,5.094,4.022a6.988,6.988,0,0,0,3.758-1.1,1.959,1.959,0,0,0,.885-1.336,2.344,2.344,0,0,0-.513-1.817,1.68,1.68,0,0,0-1.327-.677,2.005,2.005,0,0,0-1.385.623,1.712,1.712,0,0,1-1.333.517h-.16c-.7,0-1.014-.11-1.329-1.218a17.5,17.5,0,0,1-.285-2.643c-.174-2.664-.3-3.964-1.257-4.378a1.861,1.861,0,0,0-.742-.158Z" transform="translate(0)"/>
  </g>
  <g>
    <path class="cls-1" d="M6,26.573a1.66,1.66,0,0,1-.41-.053c-1.051-.268-1.1-1.167-1.125-1.761-.033-.691-.121-1.386-.206-2.059-.091-.722-.185-1.468-.215-2.209a26.072,26.072,0,0,0-.434-3.026c-.483-2.7-.775-4.33.26-4.52.029-.005.145-.016.175-.016,1.092,0,1.387,1.692,1.6,2.928.031.176.059.333.084.46.314,1.53.555,3.1.786,4.609.1.654.2,1.309.307,1.963l.038.273a1.22,1.22,0,0,0,.261.776,1.544,1.544,0,0,1,.535,1.108,1.449,1.449,0,0,1-.515,1.041A1.639,1.639,0,0,1,6,26.573Z" transform="translate(0)"/>
    <path class="cls-2" d="M4.045,13.43c.8,0,1.023,2.152,1.195,2.989.446,2.167.734,4.365,1.089,6.551A2.117,2.117,0,0,0,6.772,24.3.873.873,0,0,1,6.8,25.724a1.145,1.145,0,0,1-.8.349,1.159,1.159,0,0,1-.287-.037c-.7-.178-.721-.744-.749-1.315-.07-1.425-.363-2.842-.42-4.25-.089-2.2-1.448-6.875-.584-7.034a.468.468,0,0,1,.085-.008m0-1a1.462,1.462,0,0,0-.265.024c-1.525.28-1.182,2.2-.662,5.1a25.918,25.918,0,0,1,.427,2.957c.031.763.126,1.521.219,2.253.087.693.17,1.348.2,2.005A2.082,2.082,0,0,0,5.467,27,2.164,2.164,0,0,0,6,27.073a2.133,2.133,0,0,0,1.483-.622,1.928,1.928,0,0,0,.672-1.4,2.015,2.015,0,0,0-.685-1.47,1.149,1.149,0,0,1-.115-.483c-.012-.1-.025-.194-.04-.29-.105-.647-.2-1.3-.3-1.945-.233-1.524-.475-3.1-.793-4.647-.025-.122-.051-.273-.08-.442-.245-1.412-.581-3.345-2.094-3.345Z" transform="translate(0)"/>
  </g>
  <g>
    <path class="cls-1" d="M11.278,15.586a1.275,1.275,0,0,1-.641-.17c-.751-.438-1.1-1.91-1.191-2.351A3.377,3.377,0,0,1,9.6,10.719a1.368,1.368,0,0,1,.558-.4,1.138,1.138,0,0,0,.1-.051.5.5,0,0,1,.257-.071l.054,0a1.6,1.6,0,0,1,1.161.607,1.479,1.479,0,0,1,.253,1.165,1.482,1.482,0,0,0,.307.856,1.719,1.719,0,0,1-.163,2.438,1.259,1.259,0,0,1-.853.323Z" transform="translate(0)"/>
    <path class="cls-2" d="M10.519,10.693a.98.98,0,0,1,.975,1.186c-.195,1.061,1.506,1.909.3,3.014a.763.763,0,0,1-.515.193.772.772,0,0,1-.388-.1c-.775-.452-1.4-3.278-.887-3.966a1.6,1.6,0,0,1,.517-.324m0-1a1,1,0,0,0-.507.138l-.066.032a1.851,1.851,0,0,0-.745.556,3.692,3.692,0,0,0-.245,2.744c.128.631.525,2.157,1.43,2.684a1.786,1.786,0,0,0,2.082-.217,2.206,2.206,0,0,0,.26-3.055,2.1,2.1,0,0,1-.248-.523,1.965,1.965,0,0,0-.344-1.547A2.081,2.081,0,0,0,10.626,9.7a1,1,0,0,0-.108-.006Z" transform="translate(0)"/>
  </g>
  <g>
    <path class="cls-1" d="M138.452,17.4c-.45,0-1.962-.24-2.526-3.329a31.13,31.13,0,0,0-1.2-3.323,21.291,21.291,0,0,1-.979-2.709,1.917,1.917,0,0,1,.325-1.584,1.642,1.642,0,0,1,1.264-.558c.447-.013,1.188-.116,1.973-.226a23.677,23.677,0,0,1,2.848-.293c.628,0,.983.107,1.188.357a.5.5,0,0,1,.053.553c-1.025,1.907-.947,3.654-.85,5.866.031.71.063,1.457.062,2.254,0,1.706-.932,2.992-2.157,2.992Z" transform="translate(0)"/>
    <path class="cls-2" d="M140.157,5.879c.406,0,.7.048.8.173-1.434,2.669-.838,5.068-.847,8.356,0,1.494-.792,2.494-1.657,2.494-.795,0-1.655-.843-2.034-2.919-.2-1.092-2.058-5.282-2.176-6.022-.172-1.078.361-1.541,1.109-1.563,1.063-.03,3.511-.519,4.806-.519m0-1a23.956,23.956,0,0,0-2.916.3c-.771.108-1.5.209-1.919.221a2.153,2.153,0,0,0-1.634.739,2.384,2.384,0,0,0-.434,1.981,19.567,19.567,0,0,0,1.008,2.818,32.473,32.473,0,0,1,1.172,3.227c.634,3.469,2.47,3.739,3.018,3.739,1.509,0,2.652-1.5,2.657-3.491,0-.813-.031-1.557-.062-2.277-.094-2.136-.169-3.823.791-5.609a1,1,0,0,0-.106-1.1,1.918,1.918,0,0,0-1.575-.541Z" transform="translate(0)"/>
  </g>
  <g>
    <path class="cls-1" d="M138.6,22.072a2.931,2.931,0,0,1-1.686-.521,2.015,2.015,0,0,1-.972-1.74A1.877,1.877,0,0,1,137,18.275a7.562,7.562,0,0,1,2.863-.695c.96,0,1.338.387,1.485.711a3.352,3.352,0,0,1-.255,2.247,2.042,2.042,0,0,1-.961,1.221,4.246,4.246,0,0,1-1.525.313Z" transform="translate(0)"/>
    <path class="cls-2" d="M139.861,18.08c.49,0,.89.111,1.03.418a3.267,3.267,0,0,1-.939,2.794,3.8,3.8,0,0,1-1.347.28,2.423,2.423,0,0,1-1.4-.434,1.336,1.336,0,0,1,.037-2.426,7.042,7.042,0,0,1,2.622-.632m0-1a7.891,7.891,0,0,0-3.1.756,2.368,2.368,0,0,0-1.309,1.95,2.5,2.5,0,0,0,1.189,2.177,3.42,3.42,0,0,0,1.968.609,4.737,4.737,0,0,0,1.7-.346,2.488,2.488,0,0,0,1.246-1.5,3.877,3.877,0,0,0,.246-2.641,1.9,1.9,0,0,0-1.94-1Z" transform="translate(0)"/>
  </g>
  <g>
    <path class="cls-1" d="M6.794,49a1.953,1.953,0,0,1-1.24-.6C4.779,47.73,3.8,45.7,2.5,42.9A30.761,30.761,0,0,0,.912,39.733a1.865,1.865,0,0,1-.365-1.528,1.588,1.588,0,0,1,.9-1.024,1.7,1.7,0,0,1,.76-.2c.674,0,1.19.474,1.534,1.408.386,1.042,1.081,2.628,1.63,3.846.227-2.119.711-4.428,1.744-4.681a1.065,1.065,0,0,1,.252-.03c1.073,0,1.971,1.605,3.009,3.464.417.746.843,1.509,1.247,2.088a5.944,5.944,0,0,0-.321-2.822,1.836,1.836,0,0,1-.019-1.53,1.363,1.363,0,0,1,.936-.661,1.983,1.983,0,0,1,.459-.058c.84,0,1.317.6,1.418,1.771a5.136,5.136,0,0,1,0,.564c-.025.769.049.778.229.8a2.478,2.478,0,0,0,.3.018,7.467,7.467,0,0,0,2.092-.446l.172-.053h0c-.043,0-.078-.161-.159-.411-.3-.931-.588-1.843-.8-2.784a2.024,2.024,0,0,1,.21-1.607,1.558,1.558,0,0,1,1.109-.652,1.816,1.816,0,0,1,.263-.02c.82,0,1.289.576,1.395,1.713a15.149,15.149,0,0,0,.248,1.536l.058.292a5,5,0,0,0,.3,1.184c.146-.025.479-.122.9-.243l.3-.087c.459-.13.583-.251.616-.312s.053-.208-.051-.56a3.468,3.468,0,0,0-.139-.361,2.563,2.563,0,0,1-.247-.878,1.948,1.948,0,0,1,1.522-2.166,1.477,1.477,0,0,1,.238-.02c.564,0,1.255.314,1.341,1.814.079,1.363.733,6.843,1.368,7.673.418.546.761.993.646,1.525a1.356,1.356,0,0,1-.775.871,2.124,2.124,0,0,1-1.012.278A1.688,1.688,0,0,1,22.6,46.137c-.291-.9-.555-1.863-.831-3.03a3.073,3.073,0,0,1-.061-.444,1.666,1.666,0,0,0-.044-.317s-.049,0-.091,0l-.116.007c-.846.069-1.155.162-1.207.549l-.021.16c-.143,1.049-.181,1.72.507,2.188.054.037.112.07.171.1a1.006,1.006,0,0,1,.589,1.358,2.318,2.318,0,0,1-1.749,1.485,1.686,1.686,0,0,1-.245.018,1.518,1.518,0,0,1-1.45-1.032,20.229,20.229,0,0,1-.636-2.361c-.252-1.163-.252-1.163-.728-1.163-.172,0-.378.009-.625.02l-.133.006c-1.1.046-1.53.173-1.737,1.335-.34,1.907-1.437,2.113-1.893,2.113A3.049,3.049,0,0,1,10.284,46.1c-.248-.242-.773-.863-1.329-1.521-.2-.239-.406-.481-.6-.707-.012.375-.006.742,0,1.1a8.043,8.043,0,0,1-.271,2.742C7.98,48.038,7.659,49,6.794,49Z" transform="translate(0)"/>
    <path class="cls-2" d="M17.508,35.689c.668,0,.836.608.9,1.259.058.63.193,1.254.313,1.878.225,1.175.3,1.563.771,1.563a6.593,6.593,0,0,0,1.358-.324c.978-.278,1.151-.668.908-1.493a5.209,5.209,0,0,1-.367-1.122,1.476,1.476,0,0,1,1.1-1.648,1.022,1.022,0,0,1,.16-.013c.67,0,.808.76.842,1.343.056.959.682,6.917,1.47,7.948.557.728.914,1.173.03,1.652a1.64,1.64,0,0,1-.773.217,1.2,1.2,0,0,1-1.14-.966C22.76,45,22.494,44,22.256,42.991c-.115-.485.068-1.149-.681-1.149q-.057,0-.121.005c-.716.059-1.582.115-1.7.984-.131.985-.35,2.113.7,2.827.331.225.812.356.588.837a1.887,1.887,0,0,1-1.37,1.2,1.161,1.161,0,0,1-.171.013,1.015,1.015,0,0,1-.977-.7,19.534,19.534,0,0,1-.62-2.3c-.288-1.333-.333-1.558-1.216-1.558-.208,0-.463.012-.779.026-1.209.051-1.942.257-2.208,1.747-.2,1.138-.721,1.7-1.4,1.7a2.579,2.579,0,0,1-1.669-.881c-.452-.441-2.033-2.4-2.67-3.069-.295,1.861.139,3.408-.352,4.886-.21.631-.467.942-.817.942a1.541,1.541,0,0,1-.912-.476c-1.245-1.085-3.6-7.187-4.559-8.58-.479-.695-.469-1.414.346-1.82a1.205,1.205,0,0,1,.536-.144c.556,0,.867.542,1.066,1.081.713,1.93,2.447,5.637,2.447,5.637s.3-5.862,1.515-6.159a.552.552,0,0,1,.133-.016c1.362,0,3.067,4.87,4.555,6.175a6.745,6.745,0,0,0-.15-4.115c-.257-.711-.23-1.345.563-1.535a1.477,1.477,0,0,1,.343-.044c.68,0,.861.624.92,1.315s-.249,1.707.672,1.818a3.016,3.016,0,0,0,.361.021,8.542,8.542,0,0,0,2.411-.522c.437-.135.3-.637.166-1.041-.293-.905-.579-1.816-.793-2.742-.179-.778.023-1.522.906-1.652a1.3,1.3,0,0,1,.19-.015m0-1h0a2.3,2.3,0,0,0-.336.025,2.047,2.047,0,0,0-1.449.864,2.516,2.516,0,0,0-.285,2c.219.948.511,1.883.8,2.762a5.876,5.876,0,0,1-1.6.319h-.037c0-.1,0-.217.006-.3a5.188,5.188,0,0,0,0-.623c-.166-1.94-1.272-2.229-1.917-2.229a2.483,2.483,0,0,0-.575.072,1.846,1.846,0,0,0-1.259.91,2.325,2.325,0,0,0-.011,1.937,5.841,5.841,0,0,1,.214.737l-.234-.417c-1.161-2.078-2.078-3.719-3.445-3.72a1.562,1.562,0,0,0-.371.045c-.366.09-1.3.319-1.876,3.367-.349-.8-.684-1.608-.91-2.22-.529-1.433-1.382-1.734-2-1.734a2.2,2.2,0,0,0-.982.249A2.075,2.075,0,0,0,.062,38.08,2.348,2.348,0,0,0,.5,40.016a31.772,31.772,0,0,1,1.549,3.1c1.366,2.941,2.326,4.924,3.177,5.665a2.491,2.491,0,0,0,1.569.722c.813,0,1.407-.547,1.766-1.627a7.836,7.836,0,0,0,.3-2.632c.519.613.864,1.011,1.074,1.216A3.477,3.477,0,0,0,12.3,47.627c.454,0,1.967-.182,2.385-2.526.143-.8.25-.88,1.265-.923l.133-.006c.239-.01.437-.019.6-.019h.06c.052.182.114.469.174.75a20.809,20.809,0,0,0,.657,2.439A2.011,2.011,0,0,0,19.5,48.709a2.165,2.165,0,0,0,.319-.024,2.791,2.791,0,0,0,2.129-1.768,1.552,1.552,0,0,0,.154-.695l.021.067a2.186,2.186,0,0,0,2.091,1.658,2.614,2.614,0,0,0,1.249-.338,1.89,1.89,0,0,0,1.027-1.206,2.329,2.329,0,0,0-.716-1.9c-.53-.766-1.189-5.717-1.289-7.428-.119-2.062-1.326-2.285-1.84-2.285a2.017,2.017,0,0,0-.317.026A2.463,2.463,0,0,0,20.387,37.5a2.993,2.993,0,0,0,.287,1.051,2.929,2.929,0,0,1,.119.307c.019.066.032.119.041.16a2.283,2.283,0,0,1-.263.089l-.307.088c-.144.042-.3.086-.431.122-.042-.192-.089-.435-.135-.674l-.061-.313a14.668,14.668,0,0,1-.238-1.468c-.172-1.886-1.259-2.168-1.892-2.168Zm3.24,8.275a1.907,1.907,0,0,1,.478-.092,2.743,2.743,0,0,0,.057.35c.206.869.412,1.65.625,2.368a2.075,2.075,0,0,0-.752-.675c-.047-.027-.095-.053-.138-.083-.415-.282-.436-.655-.292-1.707l.022-.161Z" transform="translate(0)"/>
  </g>
  <g>
    <path class="cls-1" d="M73.712,66.238a1.172,1.172,0,0,1-1.271-1.072,1.822,1.822,0,0,1,1.142-2.052,2.335,2.335,0,0,1,1.007-.248,2.119,2.119,0,0,1,.735.137,1.574,1.574,0,0,0,.553.1,3.438,3.438,0,0,0,1.336-.381,8.958,8.958,0,0,0-1.061-.376c-.184-.056-.364-.111-.542-.173l-.275-.094a11.527,11.527,0,0,1-2.454-1.058A2.086,2.086,0,0,1,71.9,59.2a1.864,1.864,0,0,1,.922-1.606,15.215,15.215,0,0,1,4.949-1.514l.884-.166a1.3,1.3,0,0,1,.238-.022,1.11,1.11,0,0,1,1.09.792,1.209,1.209,0,0,1-.807,1.529,13.533,13.533,0,0,1-1.494.5,9.4,9.4,0,0,0-1.752.634,1.209,1.209,0,0,0,.362.131c.089.023.178.048.262.076.337.114.678.215,1.018.316a17.182,17.182,0,0,1,1.732.581c.126.053.263.1.4.154.764.282,1.811.669,1.875,1.749a2.761,2.761,0,0,1-2.1,2.545A20.758,20.758,0,0,1,74.286,66.2l-.152.014C74,66.225,73.852,66.238,73.712,66.238Z" transform="translate(0)"/>
    <path class="cls-2" d="M78.888,56.386a.611.611,0,0,1,.611.437c.144.475-.133.76-.523.924-1.216.512-2.584.652-3.682,1.386.112.744.668.742,1.094.886.9.307,1.842.52,2.718.886.776.324,1.915.562,1.97,1.472.06.986-.861,1.728-1.768,2.042A20.272,20.272,0,0,1,74.248,65.7c-.168.013-.356.039-.536.039a.678.678,0,0,1-.776-.645,1.334,1.334,0,0,1,.859-1.525,1.857,1.857,0,0,1,.8-.2,1.619,1.619,0,0,1,.563.107,2.079,2.079,0,0,0,.724.131,6.989,6.989,0,0,0,2.45-.825A8.7,8.7,0,0,0,75.773,61.7a12.665,12.665,0,0,1-2.627-1.1,1.525,1.525,0,0,1-.082-2.578A18.015,18.015,0,0,1,78.746,56.4a.743.743,0,0,1,.142-.014m0-1a1.747,1.747,0,0,0-.334.032c-.292.057-.585.111-.878.165a15.616,15.616,0,0,0-5.107,1.572,2.361,2.361,0,0,0-1.174,2.031,2.62,2.62,0,0,0,1.221,2.262,10,10,0,0,0,2.015.918H74.59a2.847,2.847,0,0,0-1.219.3,2.336,2.336,0,0,0-1.425,2.577,1.663,1.663,0,0,0,1.765,1.5c.156,0,.317-.014.471-.029l.141-.013a21.1,21.1,0,0,0,5.314-1.331,3.244,3.244,0,0,0,2.438-3.048c-.086-1.406-1.41-1.9-2.2-2.187-.132-.049-.262-.1-.382-.146a17.423,17.423,0,0,0-1.785-.6l-.278-.083.389-.114a13.907,13.907,0,0,0,1.547-.517,1.71,1.71,0,0,0,1.092-2.135,1.6,1.6,0,0,0-1.568-1.148Z" transform="translate(0)"/>
  </g>
</svg>
