<svg id="Layer_1" data-name="Layer 1" xmlns="http://www.w3.org/2000/svg" viewBox="0 0 155.039 90.566">
  <defs>
    <style>
      .cls-1 {
        fill: #0000b8;
      }

      .cls-2 {
        fill: #fff;
      }
    </style>
  </defs>
  <title>80bae366-4c73-4b00-8918-05958b67872f</title>
  <g>
    <path class="cls-1" d="M121.1,60.947a2.74,2.74,0,0,1-.882-.143,1.408,1.408,0,0,1-1-.956,1.1,1.1,0,0,1,.72-1.33l.205-.1a3.613,3.613,0,0,1,1.577-.509c.563,0,4.713-.488,26.184-3.755l.868-.132a.451.451,0,0,0,.246-.11c-.231-1.382-2.426-19.792-3.067-25.341-.252-2.182-.9-6.773-1.419-10.462-.369-2.622-.661-4.692-.735-5.346-.015-.135-.047-.416-.544-.416a1.366,1.366,0,0,0-.14.007c-6.488.675-12.975,1.359-19.5,2.047l-3.987.42a22.452,22.452,0,0,0,1.731,4.932,1.529,1.529,0,0,1,.09,1.554,1.562,1.562,0,0,1-1.46.627,2.52,2.52,0,0,1-.668-.1,1.634,1.634,0,0,0-.4-.074.625.625,0,0,0-.2.032,4.9,4.9,0,0,1-1.354.331.89.89,0,0,1-.539-.161c.492,7.368,1.269,19.69,1.74,27.179.218,3.456.367,5.819.386,6.067.035.485.107,1.466-1,1.633a1.756,1.756,0,0,1-.258.02,1.543,1.543,0,0,1-1.413-.968,4.457,4.457,0,0,1-.272-2.32l.019-.288c.033-.567-.271-4.7-.622-9.483-1.735-23.639-2.01-31.1-1.174-31.914.191-.187.438-.205,1.191-.234l.162-.007a6.728,6.728,0,0,0-.432-.99,7.322,7.322,0,0,1-.5-1.182,2.816,2.816,0,0,1,.146-2.45,2.852,2.852,0,0,1,2.241-1.066c1.514-.149,1.514-.149,1.676-1.816.084-.86.379-2,1.965-2q.192,0,.41.021c.489.047,1.228.072,2.192.071,7.1,0,23.712-1.249,24.663-1.513A3.247,3.247,0,0,1,149.035.5a1.463,1.463,0,0,1,1.1.417,1.505,1.505,0,0,1,.379,1.146,42.934,42.934,0,0,0,.27,4.654c.348,3.909.523,6.345-.2,7.152a.888.888,0,0,1-.488.29c.006.09.022.2.033.278l.025.19c.3,2.874,1.217,14.526,1.433,17.544a.5.5,0,0,1-.439.532,2.69,2.69,0,0,1-.314.02,1.215,1.215,0,0,1-.9-.318,1.358,1.358,0,0,1-.309-1.027,64.876,64.876,0,0,0-1.143-10.36c-.212-1.279-.423-2.559-.606-3.841-.5-3.523-.852-6.226-1.128-8.762-.085-.775-.191-.92-.763-1.036l-.319-.065a11.83,11.83,0,0,0-2.385-.325c-3.55.012-20.36.82-25.625,2.033a2.064,2.064,0,0,0,.163.631c.037.1.075.2.106.307.5,1.617.919,2.012,2.131,2.012.132,0,.271-.005.418-.016,5.5-.373,22.954-2.455,23.664-2.645a2.849,2.849,0,0,1,1.3-.4,1.162,1.162,0,0,1,.849.337,2.2,2.2,0,0,1,.449,1.633c-.091,5.945,3.954,34.453,4.328,36.21a.3.3,0,0,0,.263.137.623.623,0,0,0,.166-.025c.077-.021.095-.189.1-.288.01-.255,0-.513,0-.771-.008-.3-.015-.6,0-.9a1.22,1.22,0,0,1,1-1.14,1.142,1.142,0,0,1,.191-.016,1.326,1.326,0,0,1,1.133.7,6.67,6.67,0,0,1,.487,4.253,1.466,1.466,0,0,1-1.6,1.216h0a2.248,2.248,0,0,1-.293-.019,2.446,2.446,0,0,0-.312-.022.663.663,0,0,0-.482.136,1.807,1.807,0,0,0-.159,1.09c.029.556.038,1.112.047,1.668.006.405.013.81.027,1.214.063,1.8-.551,2.473-2.344,2.58-1.192.072-24.141,2.751-26.405,3.629A4.973,4.973,0,0,1,121.1,60.947Zm-4.689-45.115a2.888,2.888,0,0,0,.021.568s.037.429.047.565C116.471,16.588,116.45,16.21,116.412,15.832ZM147.78,3.419c-9.013.608-24.944,1.692-25.456,1.755a.621.621,0,0,0-.358.127l0,.015.07-.023a2.107,2.107,0,0,1,.44-.108c.895-.092,22.053-1.077,25.1-1.218Z" transform="translate(0 0)"/>
    <path class="cls-2" d="M149.036,1a.891.891,0,0,1,.977,1.044c-.131,3.314,1.4,11.594-.081,11.633-.485.013-.31.646-.272,1,.3,2.854,1.219,14.553,1.431,17.526a2.165,2.165,0,0,1-.255.016c-.763,0-.7-.524-.705-.925-.019-4.8-1.081-9.472-1.754-14.191-.415-2.91-.807-5.824-1.126-8.746-.09-.821-.246-1.287-1.161-1.472a14.091,14.091,0,0,0-2.8-.4h-.022c-3.759.013-21.239.88-26.057,2.129a2.489,2.489,0,0,0,.247,1.491c.535,1.729,1.1,2.364,2.609,2.364.142,0,.292-.006.452-.016,5.4-.366,23.44-2.489,23.789-2.671a2.674,2.674,0,0,1,1.144-.373c.563,0,.813.468.8,1.462-.095,6.237,4.206,36.144,4.363,36.419a.807.807,0,0,0,.727.436,1.121,1.121,0,0,0,.3-.043.717.717,0,0,0,.466-.75c.021-.557-.03-1.116,0-1.672a.725.725,0,0,1,.583-.671.621.621,0,0,1,.106-.009.829.829,0,0,1,.7.44,6.192,6.192,0,0,1,.429,3.946.993.993,0,0,1-1.1.782,1.753,1.753,0,0,1-.228-.015,2.9,2.9,0,0,0-.377-.027c-1.077,0-1.193.769-1.141,1.753.05.957.04,1.916.073,2.874.053,1.513-.336,1.971-1.874,2.063-.8.048-24.163,2.734-26.556,3.662a4.521,4.521,0,0,1-1.608.384,2.228,2.228,0,0,1-.721-.116.935.935,0,0,1-.675-.614c-.108-.4.2-.62.457-.749a3.89,3.89,0,0,1,1.562-.56h0c1.714,0,26.491-3.8,27.122-3.892.333-.049.7-.281.654-.594-.211-1.427-2.378-19.592-3.05-25.409-.427-3.7-1.976-14.222-2.155-15.806a.937.937,0,0,0-1.041-.86,1.85,1.85,0,0,0-.192.01c-7.994.832-15.986,1.677-24.051,2.526a23.98,23.98,0,0,0,1.9,5.6c.471.935.111,1.456-.924,1.456h-.054c-.347-.006-.65-.177-1.016-.177a1.126,1.126,0,0,0-.354.057,4.831,4.831,0,0,1-1.2.306c-.464,0-.459-.419-.435-1.569a25.683,25.683,0,0,0-.16-5.258c-1.083.353-.865,1.267-.819,1.839.425,5.319,2.431,37.656,2.5,38.61.037.491.08,1-.572,1.1a1.234,1.234,0,0,1-.184.014,1.049,1.049,0,0,1-.961-.685,4.632,4.632,0,0,1-.206-2.362c.116-1.992-3.267-39.774-1.946-41.069.111-.109,1.307-.074,1.606-.149a14.955,14.955,0,0,0-1.056-2.763c-.528-1.786.113-2.694,1.958-2.877s1.92-.175,2.123-2.265c.108-1.111.532-1.553,1.468-1.553q.169,0,.361.019c.527.051,1.3.074,2.242.074,7.07,0,24.086-1.274,24.819-1.539A2.8,2.8,0,0,1,149.036,1m-27.2,4.852c.206,0,.467-.145.7-.169.94-.1,25.4-1.231,25.4-1.231l.583-1.583S122.885,4.6,122.26,4.678c-.387.049-.851.236-.787.71.049.361.184.463.357.463M118.6,18.624a.032.032,0,0,0,.018,0,.46.46,0,0,0,.135-.612c-.044-.091-.2-.13-.295-.189a.468.468,0,0,0-.133.627.479.479,0,0,0,.275.179M149.036,0h0a3.735,3.735,0,0,0-1.227.233c-1.317.277-17.628,1.494-24.52,1.494-.95,0-1.672-.023-2.146-.069q-.243-.024-.458-.024c-1.015,0-2.265.426-2.463,2.456a8.6,8.6,0,0,1-.174,1.229,8.207,8.207,0,0,1-1.012.135,3.343,3.343,0,0,0-2.647,1.288,3.315,3.315,0,0,0-.211,2.871,7.674,7.674,0,0,0,.535,1.263c.051.1.1.2.148.3a1.393,1.393,0,0,0-.973.35c-.927.908-.911,5.927,1.026,32.315.335,4.565.652,8.877.621,9.41l-.018.279a4.926,4.926,0,0,0,.321,2.573,2.042,2.042,0,0,0,1.863,1.252,2.231,2.231,0,0,0,.333-.025c1.039-.156,1.517-.881,1.422-2.153-.019-.254-.173-2.7-.387-6.093-.457-7.252-1.2-19.04-1.693-26.465a5.21,5.21,0,0,0,1.5-.355h.035a1.137,1.137,0,0,1,.283.051,2.92,2.92,0,0,0,.724.12h.071a2.029,2.029,0,0,0,1.886-.865,2,2,0,0,0-.069-2.041,21.137,21.137,0,0,1-1.553-4.27l3.71-.391c6.425-.677,12.814-1.351,19.2-2.016a.848.848,0,0,1,.088,0l.048,0c.091.756.377,2.782.735,5.326.52,3.688,1.167,8.277,1.418,10.453.6,5.184,2.553,21.6,2.986,24.937l-.64.1c-22.216,3.38-25.638,3.745-26.078,3.745a4.055,4.055,0,0,0-1.8.562l-.2.1a1.608,1.608,0,0,0-.981,1.91,1.884,1.884,0,0,0,1.319,1.3,3.24,3.24,0,0,0,1.042.169,5.412,5.412,0,0,0,1.97-.452c2.121-.823,25.048-3.517,26.254-3.6,2.071-.124,2.886-1.021,2.813-3.1-.014-.4-.02-.794-.026-1.191-.009-.567-.018-1.135-.048-1.7a2.534,2.534,0,0,1,.025-.693.869.869,0,0,1,.117-.007,1.905,1.905,0,0,1,.246.018,2.756,2.756,0,0,0,.358.023A1.963,1.963,0,0,0,154.9,49.1a7.1,7.1,0,0,0-.545-4.561,1.835,1.835,0,0,0-1.572-.957,1.621,1.621,0,0,0-.276.024,1.718,1.718,0,0,0-1.309,1.1c-.389-2.609-1.025-7.1-1.675-12.012q.027.031.057.061a1.692,1.692,0,0,0,1.251.465,3.159,3.159,0,0,0,.373-.023,1,1,0,0,0,.879-1.064c-.214-3.011-1.126-14.661-1.434-17.561,0-.033-.008-.067-.013-.1a1.455,1.455,0,0,0,.318-.269c.814-.914.723-3,.319-7.529a43.843,43.843,0,0,1-.268-4.59,1.986,1.986,0,0,0-.517-1.512A1.947,1.947,0,0,0,149.036,0ZM118.267,9.4c5.651-1.126,21.7-1.9,25-1.915h0a11.459,11.459,0,0,1,2.3.315l.321.065a.725.725,0,0,1,.268.088,1.81,1.81,0,0,1,.1.512l.016.142a1.718,1.718,0,0,0-.824-.2,3.379,3.379,0,0,0-1.5.43c-1.55.293-18.149,2.253-23.5,2.616-.136.009-.263.014-.384.014-.847,0-1.165-.08-1.654-1.66-.034-.111-.074-.222-.115-.333l-.028-.076Zm30.775,19.558c-.254-1.99-.5-3.989-.727-5.9.31,1.948.59,3.925.727,5.9Z" transform="translate(0 0)"/>
  </g>
  <g>
    <path class="cls-1" d="M144.5,54.079a.5.5,0,0,1-.483-.373c-.3-1.142-1.775-5.573-2.324-6.71a.865.865,0,0,1,.083-.813,1.383,1.383,0,0,1,1.058-.7l.1,0a1.259,1.259,0,0,1,1.152.786c.009.019.017.038.024.057.016-.157.026-.317.038-.479a3.5,3.5,0,0,1,.964-2.613.5.5,0,0,1,.644-.021,2.39,2.39,0,0,1,.746,2.54,15.957,15.957,0,0,0-.133,4.116,20.241,20.241,0,0,1-.027,3.6.5.5,0,0,1-.477.437,3.091,3.091,0,0,0-.644.069,5.642,5.642,0,0,1-.667.106Z" transform="translate(0 0)"/>
    <path class="cls-2" d="M145.446,43.6a1.887,1.887,0,0,1,.567,2.047c-.534,2.583.157,5.176-.167,7.752a10.959,10.959,0,0,0-1.347.178,70.8,70.8,0,0,0-2.357-6.8c-.1-.2.235-.756.73-.795l.062,0a.758.758,0,0,1,.694.486,13.54,13.54,0,0,1,.456,1.487c1-1.324.082-3.2,1.362-4.351m0-1a1,1,0,0,0-.669.257,3.431,3.431,0,0,0-1.073,2.3,1.707,1.707,0,0,0-.77-.182q-.069,0-.141.006a1.882,1.882,0,0,0-1.451.947,1.364,1.364,0,0,0-.1,1.28,70,70,0,0,1,2.291,6.62,1,1,0,0,0,1.078.74,6.248,6.248,0,0,0,.716-.114,2.568,2.568,0,0,1,.559-.058,1,1,0,0,0,.953-.874,20.59,20.59,0,0,0,.03-3.688,15.583,15.583,0,0,1,.124-3.987,2.88,2.88,0,0,0-.926-3.034,1,1,0,0,0-.62-.215Z" transform="translate(0 0)"/>
  </g>
  <g>
    <path class="cls-1" d="M30.554,58.884a1.242,1.242,0,0,1-1.308-1.25,34.526,34.526,0,0,0-.764-5.1,31.836,31.836,0,0,1-.831-6.2.475.475,0,0,0-.07-.327.509.509,0,0,0-.341-.086,1.953,1.953,0,0,0-.339.034c-.936.168-1.917.382-3,.654l-.159.042a2.708,2.708,0,0,1-.7.124,1.055,1.055,0,0,1-1.069-.973c-.253-1.207.832-1.463,1.3-1.573l.379-.092a18.708,18.708,0,0,1,4.491-.721h.277a13.836,13.836,0,0,0,5.856-1.055,11.568,11.568,0,0,1,4.661-.916c.144,0,.287,0,.43.007a4.481,4.481,0,0,1,3.474,2.02,4.413,4.413,0,0,1,.641,3.905c-.288.835-1.338,1.765-3.42,2.206a27.557,27.557,0,0,1,2.5,1.761A19.741,19.741,0,0,0,45.4,53.278a3.9,3.9,0,0,0-.131-1.483l-.07-.333c-.4-2.008.533-3.448,1.433-4.84.146-.226.293-.453.433-.681a3.979,3.979,0,0,1,1.728-1.312,3.446,3.446,0,0,1,1.49-.406c.649,0,1.766.316,1.941,2.433.217,2.611-.515,3.554-3.13,4.035-1.152.212-1.316.431-1.167,1.563a4.673,4.673,0,0,0,3.448,3.893,2.694,2.694,0,0,0,.491.052.724.724,0,0,0,.7-.323c.142-.22.092-.5-.192-1.081a7.619,7.619,0,0,1,.03-6.076,7.173,7.173,0,0,1,3.98-4.207,5.03,5.03,0,0,1,1.688-.362,2.652,2.652,0,0,1,1.743.637c.058.048.117.1.18.159a1.485,1.485,0,0,0,.366.278,2.579,2.579,0,0,1,1.019-.246c1.282,0,1.307,1.336,1.319,2.054l0,.22a17.27,17.27,0,0,1-.261,4.414c-.34,1.479-.45,2.315,1.1,2.8a.5.5,0,0,1,.154.875,2.955,2.955,0,0,1-1.816.71,4.061,4.061,0,0,1-.626-.061,2.133,2.133,0,0,0-.329-.027,1.307,1.307,0,0,0-1.1.565,1.552,1.552,0,0,1-.306.285,1.019,1.019,0,0,0-.106.085,3.457,3.457,0,0,1-2.543.9c-.261,0-.522-.013-.782-.026-.238-.013-.475-.025-.707-.025a2.625,2.625,0,0,0-1.105.186,7.292,7.292,0,0,1-2.929.826,3.875,3.875,0,0,1-2.32-.8l-.135-.1a1.431,1.431,0,0,0-.59-.326,3.193,3.193,0,0,1-1.253.309c-1.039,0-1.625-.774-2.19-1.523l-.229-.3c-.662-.851-4.969-3.361-7.185-4.549a16.082,16.082,0,0,0,.281,4.467l.026.166a2.27,2.27,0,0,1-.274,1.718,1.426,1.426,0,0,1-1.012.528,1.629,1.629,0,0,1-.2.012c-.49,0-1.322-.234-1.382-1.8a28.429,28.429,0,0,0-.72-4.722,24.261,24.261,0,0,1-.742-5.944c.013-.308,0-.446-.547-.484-.2-.014-.38-.021-.552-.021a1.889,1.889,0,0,0-1.39.378,2.49,2.49,0,0,0-.375,1.793c.211,5.91.831,8.517,1.314,9.664a1.085,1.085,0,0,1-.084,1.051A1.507,1.507,0,0,1,30.554,58.884Zm27-11.744a1.617,1.617,0,0,0-.851.249,4.419,4.419,0,0,0-2.2,3.529l-.013.16c-.117,1.434-.21,2.566,1.2,3.517a2.689,2.689,0,0,0,1.468.582,1.76,1.76,0,0,0,.806-.216c1.043-.533,1.46-1.1,1.395-1.909-.033-.4-.046-1.547-.058-2.558-.008-.65-.015-1.241-.025-1.522A1.809,1.809,0,0,0,57.552,47.14Zm-8.191.387a.761.761,0,0,0-.431.352h.01c.448-.057.44-.152.432-.274C49.368,47.575,49.365,47.549,49.361,47.527ZM39.147,43.893a2.108,2.108,0,0,0-2.294,2.277,2.2,2.2,0,0,0,.175,1.171,2.61,2.61,0,0,0,1.357.2h.141c2.246-.016,2.419-.535,2.437-1.388a2.422,2.422,0,0,0-.66-1.743,1.622,1.622,0,0,0-1.149-.52l-.006-.5Z" transform="translate(0 0)"/>
    <path class="cls-2" d="M38.936,41.952q.207,0,.414.007a4.177,4.177,0,0,1,3.657,5.262c-.252.73-1.463,1.882-4.661,2.1,2.524.886,4.994,3.709,7.364,4.65a4.01,4.01,0,0,0-.023-2.6c-.42-2.123.84-3.592,1.8-5.163a3.613,3.613,0,0,1,1.52-1.124,3,3,0,0,1,1.271-.355c.853,0,1.335.667,1.444,1.975.2,2.344-.368,3.069-2.722,3.5-1.419.261-1.757.718-1.572,2.12a5.174,5.174,0,0,0,3.852,4.318,3.184,3.184,0,0,0,.583.061,1.237,1.237,0,0,0,1.126-.554c.314-.488.1-1.033-.164-1.571-1.605-3.268.372-8.375,3.731-9.592a4.549,4.549,0,0,1,1.519-.332,2.137,2.137,0,0,1,1.422.52c.254.213.546.554.859.554a.428.428,0,0,0,.165-.033,2.337,2.337,0,0,1,.861-.213c.873,0,.8,1,.824,1.788a16.673,16.673,0,0,1-.248,4.287c-.3,1.286-.654,2.736,1.44,3.389a2.419,2.419,0,0,1-1.513.608,3.616,3.616,0,0,1-.56-.056,2.606,2.606,0,0,0-.4-.032,1.8,1.8,0,0,0-1.5.76,3.354,3.354,0,0,1-.361.314,2.946,2.946,0,0,1-2.2.757c-.5,0-1-.052-1.49-.052a3.139,3.139,0,0,0-1.311.23,6.814,6.814,0,0,1-2.723.782,3.372,3.372,0,0,1-2.028-.7,1.973,1.973,0,0,0-1.016-.519.669.669,0,0,0-.281.062,2.366,2.366,0,0,1-.973.247c-.9,0-1.373-.791-2.026-1.63-.849-1.092-6.282-4.145-7.928-4.991-.537,1.637.118,5.143.161,5.45.1.745.085,1.573-.847,1.68a1.226,1.226,0,0,1-.14.008c-.692,0-.858-.66-.883-1.318-.135-3.59-1.6-7-1.462-10.628.026-.682-.309-.953-1.012-1q-.313-.022-.588-.022c-1.722,0-2.336.684-2.264,2.689.088,2.453.349,7.453,1.353,9.839.242.575-.327.967-.865.967a.743.743,0,0,1-.807-.761c-.066-2.953-1.694-8.293-1.595-11.267a.8.8,0,0,0-.911-.929,2.435,2.435,0,0,0-.427.042c-1.019.183-2.031.409-3.035.662a3.335,3.335,0,0,1-.736.151c-.269,0-.487-.127-.58-.574-.163-.785.5-.88,1.036-1.012a19.455,19.455,0,0,1,4.643-.773h.276a14.153,14.153,0,0,0,6.062-1.1,11.03,11.03,0,0,1,4.455-.872m-.554,6.092h.147c2.16-.015,2.9-.492,2.933-1.877a2.571,2.571,0,0,0-2.309-2.774h-.006a2.61,2.61,0,0,0-2.794,2.774c-.01,1.618.241,1.877,2.029,1.877m18.77,7.633a2.24,2.24,0,0,0,1.034-.271,2.457,2.457,0,0,0,1.665-2.394c-.052-.635-.053-3.343-.081-4.059a2.31,2.31,0,0,0-2.218-2.313,2.12,2.12,0,0,0-1.11.322A4.933,4.933,0,0,0,54,50.877c-.123,1.529-.307,2.977,1.4,4.131a3.169,3.169,0,0,0,1.748.668m-8.324-7.292a1.624,1.624,0,0,0,.162-.009c.629-.079.918-.32.88-.81-.021-.265-.132-.572-.416-.572a.482.482,0,0,0-.129.019,1.207,1.207,0,0,0-.934.925c-.061.357.165.447.436.447m-9.891-7.432a12.074,12.074,0,0,0-4.868.961,13.375,13.375,0,0,1-5.65,1.011h-.276a19.11,19.11,0,0,0-4.61.735l-.271.066-.106.025c-1.341.317-1.9,1.045-1.671,2.162a1.559,1.559,0,0,0,1.559,1.37,3.112,3.112,0,0,0,.829-.141l.151-.04c1.07-.269,2.041-.481,2.968-.647.056-.01.11-.017.158-.022a33.161,33.161,0,0,0,.843,6.2,34.951,34.951,0,0,1,.755,5.012,1.742,1.742,0,0,0,1.807,1.739,1.99,1.99,0,0,0,1.659-.834,1.591,1.591,0,0,0,.128-1.521c-.466-1.107-1.066-3.651-1.276-9.487-.036-.993.132-1.321.235-1.428a1.577,1.577,0,0,1,1.029-.225c.161,0,.333.007.517.02l.082.008a24.784,24.784,0,0,0,.754,6.025,27.577,27.577,0,0,1,.71,4.637c.079,2.116,1.46,2.28,1.882,2.28a2.222,2.222,0,0,0,.254-.015,1.919,1.919,0,0,0,1.35-.719,2.757,2.757,0,0,0,.374-2.094l-.028-.176a20.129,20.129,0,0,1-.33-3.578c2.412,1.328,5.835,3.391,6.345,4.047l.226.3a3.272,3.272,0,0,0,2.589,1.72,3.225,3.225,0,0,0,1.26-.281c.085.051.2.14.284.2l.141.1a4.357,4.357,0,0,0,2.612.891,7.707,7.707,0,0,0,3.135-.871,2.171,2.171,0,0,1,.9-.141c.224,0,.452.012.682.024.268.014.539.027.808.027a3.92,3.92,0,0,0,2.89-1.036c.018-.016.04-.032.062-.048a2.006,2.006,0,0,0,.4-.376.8.8,0,0,1,.707-.371,1.609,1.609,0,0,1,.243.02,4.485,4.485,0,0,0,.711.068,3.423,3.423,0,0,0,2.119-.813,1,1,0,0,0-.308-1.75c-1.083-.338-1.113-.687-.773-2.166a17.715,17.715,0,0,0,.283-4.584l0-.213c-.012-.7-.046-2.546-1.819-2.546a2.952,2.952,0,0,0-.958.18l-.09-.082c-.067-.061-.132-.12-.2-.173a3.138,3.138,0,0,0-2.064-.754,5.487,5.487,0,0,0-1.86.392,7.087,7.087,0,0,0-3.472,2.928q-.009-.173-.024-.356c-.217-2.61-1.779-2.892-2.44-2.892a3.926,3.926,0,0,0-1.708.456,4.4,4.4,0,0,0-1.936,1.5c-.138.225-.282.448-.426.671-.909,1.407-1.94,3-1.5,5.208.022.112.047.227.073.344.038.174.075.342.1.5-.649-.41-1.323-.923-2.021-1.454-.522-.4-1.052-.8-1.591-1.174a3.958,3.958,0,0,0,2.683-2.232,4.917,4.917,0,0,0-.7-4.353,4.982,4.982,0,0,0-3.868-2.235q-.222-.007-.446-.007ZM37.4,46.977a3.857,3.857,0,0,1-.047-.8,1.618,1.618,0,0,1,1.794-1.781,1.131,1.131,0,0,1,.8.37,1.949,1.949,0,0,1,.517,1.383c-.012.57-.018.884-1.94.9h-.14a4.339,4.339,0,0,1-.982-.067Zm19.752,7.7a2.291,2.291,0,0,1-1.188-.5c-1.115-.753-1.1-1.525-.978-3.061L55,50.957a3.935,3.935,0,0,1,1.963-3.142,1.124,1.124,0,0,1,.59-.175,1.312,1.312,0,0,1,1.218,1.352c.011.279.017.866.025,1.511.015,1.272.027,2.2.059,2.59.04.489-.136.917-1.123,1.422a1.258,1.258,0,0,1-.578.161ZM51.864,55.7a2.216,2.216,0,0,1-.4-.044,4.208,4.208,0,0,1-3.045-3.467c-.082-.619-.006-.757,0-.763s.115-.123.764-.243a6.134,6.134,0,0,0,2.218-.772,7.52,7.52,0,0,0,.527,4.605,1.463,1.463,0,0,1,.218.6c-.025.033-.058.083-.281.083Z" transform="translate(0 0)"/>
  </g>
  <g>
    <path class="cls-1" d="M101.871,61.721a2.83,2.83,0,0,1-.621-.071,10.527,10.527,0,0,1-5.436-2.905,3.129,3.129,0,0,0-2.077-1.254,15.75,15.75,0,0,1-6.358-1.761,1.308,1.308,0,0,0-.591-.205l-.048,0a4.327,4.327,0,0,0,.133,1.036c.047.23.094.462.124.692.207,1.575-.51,2.134-1.147,2.326a1.38,1.38,0,0,1-.4.061c-.738,0-1.075-.639-1.3-1.062a3.384,3.384,0,0,0-.183-.321,1.607,1.607,0,0,1-.23-.588,4.3,4.3,0,0,1-1.644.356,3.4,3.4,0,0,1-2.348-.974.139.139,0,0,0-.049-.008.609.609,0,0,0-.277.123l-.106.068c-1.274.811-2.044,1.3-2.8,1.3-.921,0-1.571-.673-2.867-2.015a.525.525,0,0,0-.317-.194.633.633,0,0,0-.379.255,4.137,4.137,0,0,1-3.329,1.327c-.424,0-.854-.031-1.281-.062a5.369,5.369,0,0,1-3.971-2.708,1.328,1.328,0,0,1,.286-1.79.961.961,0,0,1,.562-.193,1.208,1.208,0,0,1,.924.6l.1.127a4.566,4.566,0,0,0,3.283,1.292,3.136,3.136,0,0,0,1.282-.24.348.348,0,0,0,.206-.291.732.732,0,0,0-.331-.631,15.652,15.652,0,0,0-3.142-1.953,6.068,6.068,0,0,1-3.577-3.107,2.756,2.756,0,0,1,.367-3.11,8.686,8.686,0,0,1,2.5-1.913c.232-.136.465-.271.693-.414a1.316,1.316,0,0,1,.705-.2,2.39,2.39,0,0,1,.909.219,1.2,1.2,0,0,1,.8.927,1.119,1.119,0,0,1-.5,1.034,4.709,4.709,0,0,1-1.107.561,6,6,0,0,0-.661.293A1.77,1.77,0,0,0,66.6,47.7a1.6,1.6,0,0,0,.894,1.3c1.355.864,2.757,1.64,4.241,2.462q.7.385,1.407.783c.11-.578.162-1.138.213-1.683a10.02,10.02,0,0,1,.433-2.449.982.982,0,0,0,.014-.192,1.518,1.518,0,0,1,.083-.533c.038-.1.076-.205.114-.315.228-.647.57-1.624,1.482-1.624a1.346,1.346,0,0,1,.447.081,1.174,1.174,0,0,1,.735.676,2.7,2.7,0,0,1-.382,2.075,8.638,8.638,0,0,0-.555,4.471c.031.632.063,1.285.041,1.933-.027.831.808,1.1,1.064,1.166h0a2.665,2.665,0,0,0,1.686-1.657,12.765,12.765,0,0,0,.044-1.408,14.169,14.169,0,0,1,.043-1.461c.088-.886.209-1.768.33-2.65.094-.689.188-1.379.267-2.07a1.474,1.474,0,0,1,1.535-1.466,2.621,2.621,0,0,1,.34.024,1.251,1.251,0,0,1,.967.569,1.582,1.582,0,0,1,.023,1.381,14.2,14.2,0,0,0-.575,5.161c.006.595.012,1.189-.006,1.783-.025.843.238,1.2,1.009,1.36a4.054,4.054,0,0,0,.764.108.39.39,0,0,0,.178-.024c.022-.025.1-.172.078-.925-.026-.823-.039-1.647-.052-2.472-.02-1.229-.039-2.5-.107-3.743A2.506,2.506,0,0,1,85,45.611,1.983,1.983,0,0,1,85.3,45.5a2.825,2.825,0,0,0,.807-.425,2.844,2.844,0,0,1,1.567-.618,2.065,2.065,0,0,1,1.045.306,6.505,6.505,0,0,1,3.342,3.707,12.08,12.08,0,0,1,.418,1.789,5.123,5.123,0,0,1,2.579-3.546,4.041,4.041,0,0,1,2.124-.639,3.611,3.611,0,0,1,3.522,3.193,9.193,9.193,0,0,1,.152,3.211,5.206,5.206,0,0,1-2.476,4.066l-.109.062c-.413.23-.4.264-.345.426a3.174,3.174,0,0,0,3.089,1.772,3.466,3.466,0,0,0,2.417-.9.5.5,0,0,1,.345-.138.487.487,0,0,1,.168.029.5.5,0,0,1,.328.409c.025.2.063.389.1.563a1.915,1.915,0,0,1-.5,2.1A2.96,2.96,0,0,1,101.871,61.721ZM90.908,54.336a2.307,2.307,0,0,0,1.689.581q.163,0,.334-.011a4.639,4.639,0,0,0-.239-1.912l-.055-.208a7.37,7.37,0,0,1-.187-.994A5.393,5.393,0,0,1,90.908,54.336Zm6.175-5.6a1.986,1.986,0,0,0-1.757,1.372,4.269,4.269,0,0,0-.041,2.9c.183.7.515,1.527,1.066,1.527.248,0,.693-.142,1.4-.819a2.6,2.6,0,0,0,.884-2.158c-.009-.131-.013-.264-.017-.4a3.858,3.858,0,0,0-.063-.715c-.229-1.02-.39-1.573-1.185-1.693A1.988,1.988,0,0,0,97.083,48.74ZM87.079,52a5.244,5.244,0,0,1,.689.055l.1.013c1.035,0,1.679-.2,1.961-.581a1.976,1.976,0,0,0,.01-1.721,3.255,3.255,0,0,0-1.3-1.81,1.679,1.679,0,0,0-.908-.326,1,1,0,0,0-.931.872,13.253,13.253,0,0,0-.329,2.194c-.025.257-.05.515-.078.77a.64.64,0,0,0,.057.445.587.587,0,0,0,.4.1S87.014,52,87.079,52Z" transform="translate(0 0)"/>
    <path class="cls-2" d="M68.241,43.816a1.934,1.934,0,0,1,.717.181c.592.246.653.754.19,1.1a14.242,14.242,0,0,1-1.711.817c-1.67.914-1.816,2.486-.212,3.508,1.973,1.258,4.058,2.34,6.255,3.588.476-1.767.283-3.311.779-4.732.077-.22.007-.494.091-.709.248-.636.465-1.621,1.13-1.621a.849.849,0,0,1,.281.052c.835.294.443,1.32.074,2.054-1.066,2.122-.493,4.4-.567,6.611a1.691,1.691,0,0,0,1.444,1.668.549.549,0,0,0,.132.015,3.058,3.058,0,0,0,2.17-2.1c.1-.95-.005-1.922.088-2.874.155-1.575.418-3.139.6-4.713.082-.723.454-1.022,1.038-1.022a2.076,2.076,0,0,1,.273.019c.827.11.774.774.587,1.282-.851,2.32-.541,4.723-.612,7.1A1.591,1.591,0,0,0,82.393,55.9a4.491,4.491,0,0,0,.866.119c.66,0,.791-.381.756-1.464-.067-2.075-.046-4.155-.16-6.227a2.015,2.015,0,0,1,1.336-2.255,1.7,1.7,0,0,1,.224-.085c.793-.193,1.407-1.03,2.256-1.03a1.549,1.549,0,0,1,.792.237,6,6,0,0,1,3.117,3.418c.814,2.715.62,3.7-1.35,5.7a2.71,2.71,0,0,0,2.367,1.1,6.457,6.457,0,0,0,.735-.046,4.721,4.721,0,0,0-.21-2.709,4.575,4.575,0,0,1,2.2-5.522,3.52,3.52,0,0,1,1.86-.563,3.117,3.117,0,0,1,3.03,2.78,8.739,8.739,0,0,1,.151,3.045,4.675,4.675,0,0,1-2.232,3.714c-.371.214-.9.435-.676,1.085a3.677,3.677,0,0,0,3.561,2.107,3.972,3.972,0,0,0,2.761-1.038c.118.954.5,1.572-.24,2.227a2.478,2.478,0,0,1-1.665.727,2.309,2.309,0,0,1-.51-.059A10.109,10.109,0,0,1,96.175,58.4a3.619,3.619,0,0,0-2.41-1.405,15.179,15.179,0,0,1-6.157-1.706,1.724,1.724,0,0,0-.818-.26,1.465,1.465,0,0,0-.488.09,5.834,5.834,0,0,0,.2,2.2c.1.8-.006,1.546-.8,1.783a.877.877,0,0,1-.252.04c-.585,0-.772-.73-1.068-1.164A3.683,3.683,0,0,1,84.1,56.95a4.363,4.363,0,0,1-2,.577,2.886,2.886,0,0,1-2.009-.841.564.564,0,0,0-.386-.176,1.37,1.37,0,0,0-.653.3c-1.25.794-1.933,1.221-2.529,1.221-.7,0-1.278-.588-2.509-1.862a.954.954,0,0,0-.676-.347,1.054,1.054,0,0,0-.754.424,3.633,3.633,0,0,1-2.954,1.158c-.422,0-.85-.032-1.274-.062a4.829,4.829,0,0,1-3.566-2.49.838.838,0,0,1,.163-1.1.472.472,0,0,1,.272-.1c.265,0,.447.313.647.548a5.086,5.086,0,0,0,3.663,1.468,3.627,3.627,0,0,0,1.49-.285c.641-.292.7-1.212-.028-1.774A16.4,16.4,0,0,0,67.756,51.6a5.623,5.623,0,0,1-3.321-2.846,2.259,2.259,0,0,1,.294-2.6,11.343,11.343,0,0,1,3.07-2.218.819.819,0,0,1,.442-.121m18.514,8.7q.077,0,.159-.005c.056,0,.111-.005.166-.005a6.507,6.507,0,0,1,.751.066h.089c2.284,0,3.01-1,2.4-2.95a3.755,3.755,0,0,0-1.494-2.075,2.161,2.161,0,0,0-1.188-.411,1.469,1.469,0,0,0-1.414,1.242,20.757,20.757,0,0,0-.421,3.038c-.086.759.252,1.1.953,1.1m9.6,2.528a2.79,2.79,0,0,0,1.748-.957,3.11,3.11,0,0,0,1.038-2.555,7.891,7.891,0,0,0-.091-1.185c-.208-.929-.4-1.9-1.6-2.078a2.311,2.311,0,0,0-2.58,1.642,4.717,4.717,0,0,0-.067,3.232c.33,1.263.849,1.9,1.55,1.9M68.241,42.816a1.808,1.808,0,0,0-.969.272c-.224.139-.452.272-.68.405a9.061,9.061,0,0,0-2.638,2.03,3.243,3.243,0,0,0-.44,3.621,6.576,6.576,0,0,0,3.832,3.369,15.184,15.184,0,0,1,3.042,1.894.463.463,0,0,1,.111.116,2.817,2.817,0,0,1-.964.149,4.1,4.1,0,0,1-2.9-1.116c-.031-.036-.06-.074-.091-.113a1.688,1.688,0,0,0-1.318-.786,1.453,1.453,0,0,0-.851.286,1.843,1.843,0,0,0-.408,2.482,5.81,5.81,0,0,0,4.317,2.92c.455.033.9.065,1.347.065a4.659,4.659,0,0,0,3.7-1.5l0,0c1.325,1.371,2.065,2.125,3.187,2.125.9,0,1.714-.518,3.065-1.377l.056-.036a3.811,3.811,0,0,0,2.455.906,4.476,4.476,0,0,0,1.331-.212,1.736,1.736,0,0,0,.13.225,2.891,2.891,0,0,1,.154.273,2.015,2.015,0,0,0,1.741,1.328,1.88,1.88,0,0,0,.54-.082c.542-.163,1.774-.768,1.5-2.87-.031-.241-.08-.484-.13-.726-.014-.069-.028-.136-.041-.2a16.237,16.237,0,0,0,6.39,1.729c.664.035,1.122.459,1.745,1.1a11,11,0,0,0,5.683,3.045,3.324,3.324,0,0,0,.731.084,3.438,3.438,0,0,0,2.328-.979,2.407,2.407,0,0,0,.661-2.572c-.033-.163-.069-.337-.092-.526a1,1,0,0,0-1.683-.6,2.967,2.967,0,0,1-2.071.762,2.859,2.859,0,0,1-2.533-1.243l.032-.018.115-.065a5.661,5.661,0,0,0,2.72-4.42,9.642,9.642,0,0,0-.154-3.378,4.1,4.1,0,0,0-4.015-3.606,4.539,4.539,0,0,0-2.388.714,6.285,6.285,0,0,0-2.206,2.2l-.048-.162a6.952,6.952,0,0,0-3.569-3.994,2.553,2.553,0,0,0-1.3-.375,3.285,3.285,0,0,0-1.842.7,2.574,2.574,0,0,1-.651.357,2.077,2.077,0,0,0-.32.112,3.009,3.009,0,0,0-2,3.255c.068,1.238.088,2.51.107,3.74.013.822.026,1.643.052,2.464.006.176.005.309,0,.409-.175-.023-.346-.059-.419-.074-.506-.106-.631-.218-.612-.855.018-.608.012-1.217.007-1.806a13.821,13.821,0,0,1,.545-4.981,2.023,2.023,0,0,0-.065-1.812,1.734,1.734,0,0,0-1.33-.806,3.076,3.076,0,0,0-.4-.028,1.955,1.955,0,0,0-2.032,1.91c-.078.685-.172,1.369-.265,2.053-.12.872-.244,1.774-.332,2.675a14.5,14.5,0,0,0-.046,1.511,12.267,12.267,0,0,1-.041,1.354,2.5,2.5,0,0,1-1.16,1.2c-.261-.08-.605-.259-.593-.638.022-.667-.01-1.33-.041-1.971a8.273,8.273,0,0,1,.5-4.225,3.122,3.122,0,0,0,.4-2.486,1.692,1.692,0,0,0-1.034-.96,1.848,1.848,0,0,0-.613-.109c-1.266,0-1.713,1.274-1.953,1.958-.037.1-.072.206-.109.3a1.975,1.975,0,0,0-.117.7c0,.028,0,.055,0,.083a10.74,10.74,0,0,0-.443,2.522c-.029.311-.058.626-.1.945l-.784-.435c-1.476-.818-2.871-1.59-4.212-2.445-.43-.274-.672-.589-.663-.864.01-.3.316-.65.817-.924a5.7,5.7,0,0,1,.606-.267,5.194,5.194,0,0,0,1.221-.624,1.627,1.627,0,0,0,.7-1.5,1.681,1.681,0,0,0-1.1-1.328,2.89,2.89,0,0,0-1.1-.257Zm18.556,8.7c.029-.254.053-.509.077-.765a12.977,12.977,0,0,1,.314-2.113c.134-.5.362-.5.448-.5a1.215,1.215,0,0,1,.63.24,2.773,2.773,0,0,1,1.1,1.545,1.666,1.666,0,0,1,.064,1.276,2.1,2.1,0,0,1-1.508.375h-.032l-.057-.007a5.631,5.631,0,0,0-.751-.059c-.077,0-.154,0-.231.007l-.052,0Zm9.554,2.529c-.056,0-.335-.205-.582-1.154a3.713,3.713,0,0,1,.014-2.576c.314-.712.751-1.073,1.3-1.073a1.449,1.449,0,0,1,.217.017c.426.065.533.24.76,1.255l.012.053a3.566,3.566,0,0,1,.051.623c0,.138.008.275.018.412a2.1,2.1,0,0,1-.731,1.763c-.693.661-1.022.681-1.057.681Zm-4.695.2a7.987,7.987,0,0,0,.628-.833,5,5,0,0,1,.176,1,2.086,2.086,0,0,1-.8-.167Z" transform="translate(0 0)"/>
  </g>
  <g>
    <path class="cls-1" d="M123.139,41.176a1.532,1.532,0,0,1-1.44-1.161l-.086-.223a15.777,15.777,0,0,1-.888-2.808l-.046-.248a8.27,8.27,0,0,0-1.029-3.169,1.649,1.649,0,0,1-.228-1.451,1.8,1.8,0,0,1,1.64-1.148,1.48,1.48,0,0,1,1.377,1.065,2.329,2.329,0,0,1,.12-.207.5.5,0,0,1,.415-.227,1.478,1.478,0,0,1,1.546,1.419,1.777,1.777,0,0,0,.134.455,1.262,1.262,0,0,0,.47-.361,1.858,1.858,0,0,1,1.105-.657l.212-.028a4.368,4.368,0,0,1,.613-.057,1.41,1.41,0,0,1,1.2.558,1.623,1.623,0,0,1,.243,1.371,2.99,2.99,0,0,0-.013-1.97c-.068-.205-.143-.41-.216-.614a12.715,12.715,0,0,1-.464-1.469,1.769,1.769,0,0,1,1.671-2.3c.812,0,1.128.64,1.345,1.161a1.382,1.382,0,0,1,.1-.86,1.3,1.3,0,0,1,.912-.65,1.611,1.611,0,0,1,.373-.046c1.149,0,1.377,1.284,1.474,1.833.05.283.126.56.2.837a5.8,5.8,0,0,1,.285,1.848,1.31,1.31,0,0,0,.086.754c0-.047,0-.114,0-.209a2.351,2.351,0,0,1,.019-.461c.205-1.191.587-3.409,3.232-3.719.567-.066,1.053-.582,1.583-1.2a2.107,2.107,0,0,1,1.51-.808,1.336,1.336,0,0,1,1.091.57,1.46,1.46,0,0,1,.3,1.11,2.294,2.294,0,0,1-.959,1.447,2.441,2.441,0,0,1-.793.421.669.669,0,0,0-.394.225.939.939,0,0,0,.029.634,5.312,5.312,0,0,1-.128,3.119c-.491,1.495-.926,2.025-2.391,2.025-.246,0-.53-.012-.861-.029-.405-.021-.811-.042-1.217-.042a3.2,3.2,0,0,0-2.027.443,2.343,2.343,0,0,1-1.539.7,2.558,2.558,0,0,1-1.526-.66l-.06.082a5.048,5.048,0,0,0-.567.89,1.94,1.94,0,0,1-1.731,1.345,1.84,1.84,0,0,1-.556-.09.614.614,0,0,0-.189-.03,1.877,1.877,0,0,0-.906.428,2.592,2.592,0,0,1-1.443.594,1.56,1.56,0,0,1-.318-.033,1.078,1.078,0,0,1,.067.875,1.266,1.266,0,0,1-.89.659A1.672,1.672,0,0,1,123.139,41.176Zm8.032-11a10.7,10.7,0,0,1,.169,1.189,6.674,6.674,0,0,0,.273,1.511l.067.19c0-.006.012-.223.012-.223A5.9,5.9,0,0,0,131.171,30.172Z" transform="translate(0 0)"/>
    <path class="cls-2" d="M140.589,26.931a.851.851,0,0,1,.694.373c.472.619.081,1.373-.565,1.854a1.963,1.963,0,0,1-.625.339c-.821.223-.916.753-.714,1.475a4.788,4.788,0,0,1-.122,2.829c-.458,1.4-.746,1.681-1.916,1.681-.239,0-.514-.012-.835-.029-.388-.02-.815-.043-1.244-.043a3.691,3.691,0,0,0-2.359.569,1.855,1.855,0,0,1-1.207.575c-.589,0-1.065-.452-1.637-.869a10.794,10.794,0,0,0-.973,1.477,1.475,1.475,0,0,1-1.274,1.048,1.334,1.334,0,0,1-.405-.067,1.115,1.115,0,0,0-.34-.054c-.862,0-1.508,1.023-2.35,1.023a1.289,1.289,0,0,1-.8-.316l-.009,0c-.068,0-.306.381-.188.579.315.53.61,1.019-.272,1.258a1.173,1.173,0,0,1-.307.043,1.093,1.093,0,0,1-.974-.84,17.031,17.031,0,0,1-.949-2.944,9.325,9.325,0,0,0-1.148-3.6,1.118,1.118,0,0,1,.6-1.75,1.2,1.2,0,0,1,.4-.075c.556,0,.878.5,1.065,1.193.294,1.085-.319,2.409.845,3.366.592-1.356-.815-2.667.005-3.928h.015c1.387,0,.744,1.473,1.494,1.894h.051c.791,0,1.029-.958,1.751-1.042a6.759,6.759,0,0,1,.766-.082.915.915,0,0,1,.8.358,1.3,1.3,0,0,1,0,1.374c-.177.346-.469.633-.663.973a.463.463,0,0,0,.109.418.441.441,0,0,0,.3.139.476.476,0,0,0,.311-.136,3.451,3.451,0,0,0,1.044-3.825c-.226-.678-.508-1.343-.667-2.037a1.27,1.27,0,0,1,1.183-1.684c.584,0,.75.54.988,1.105.476,1.131.289,2.357.682,3.481.1.292.205.583.3.849.818-.007.713-.552.75-1.007a6.45,6.45,0,0,0-.608-3.023c-.3-.708-.6-1.537.366-1.769a1.1,1.1,0,0,1,.256-.033c.673,0,.865.763.981,1.42a11.416,11.416,0,0,1,.48,2.574c-.025.513-.053,1.148.629,1.4.647-.222.39-.781.463-1.205.284-1.651.758-3.069,2.8-3.307a3.292,3.292,0,0,0,1.9-1.37,1.637,1.637,0,0,1,1.13-.633m-3,6.811a.316.316,0,0,0,.146-.038c.146-.076.224-.323.278-.509.014-.048-.177-.155-.273-.234a.469.469,0,0,0-.414.445.277.277,0,0,0,.262.335m3-7.811h0a2.572,2.572,0,0,0-1.889.982c-.355.413-.841.979-1.261,1.028a3.666,3.666,0,0,0-3.09,2.111c-.071-.262-.137-.51-.179-.75-.1-.556-.395-2.247-1.965-2.247a2.1,2.1,0,0,0-.49.06,1.833,1.833,0,0,0-1.135.732,1.63,1.63,0,0,0-1.106-.4,2.246,2.246,0,0,0-.507.061,2.21,2.21,0,0,0-1.651,2.847,13.03,13.03,0,0,0,.479,1.522l.047.129a2.146,2.146,0,0,0-.785-.139,4.746,4.746,0,0,0-.683.062c-.067.01-.134.019-.2.027a2.133,2.133,0,0,0-1.239.639,1.864,1.864,0,0,0-1.941-1.5,1.037,1.037,0,0,0-.459.108,1.822,1.822,0,0,0-1.471-.739,2.3,2.3,0,0,0-2.113,1.488,2.14,2.14,0,0,0,.282,1.886,7.893,7.893,0,0,1,.956,2.985l.046.249a16.3,16.3,0,0,0,.908,2.885l.09.235a2.053,2.053,0,0,0,1.908,1.481,2.178,2.178,0,0,0,.568-.078,1.686,1.686,0,0,0,1.222-.953,1.372,1.372,0,0,0,.1-.554,3.423,3.423,0,0,0,1.411-.658,1.96,1.96,0,0,1,.625-.342,2.553,2.553,0,0,0,.745.12A2.44,2.44,0,0,0,130,37.568a3,3,0,0,1,.285-.479,2.551,2.551,0,0,0,1.411.466,2.812,2.812,0,0,0,1.87-.827c.134-.118.531-.317,1.7-.317.4,0,.8.021,1.16.04s.665.032.918.032c1.776,0,2.339-.764,2.866-2.369a5.8,5.8,0,0,0,.135-3.409,1.6,1.6,0,0,1-.048-.223l.062-.019a2.9,2.9,0,0,0,.96-.5,2.754,2.754,0,0,0,1.156-1.778,1.951,1.951,0,0,0-.393-1.483,1.85,1.85,0,0,0-1.489-.767Z" transform="translate(0 0)"/>
  </g>
  <g>
    <path class="cls-1" d="M33.3,85.782a1.394,1.394,0,0,1-1.318-1.136,2.487,2.487,0,0,0-.909-1.928,1.275,1.275,0,0,1-.374-1.386l.031-.193c.476-3.6.039-6.231-1.414-8.521a2.538,2.538,0,0,1,.182-2.191c.35-.739.976-1.56,1.684-1.646a1.437,1.437,0,0,1,.184-.011,1.11,1.11,0,0,1,1.15.8c.143.639.569.772,1.313.953.205.05.407.1.6.164,2.791.952,4.549,2.37,5.531,4.464.044.092.194.393.31.393a2.173,2.173,0,0,0,.668-.273,3.448,3.448,0,0,0,1.314-1.484c.148-.25.3-.5.462-.732a4.688,4.688,0,0,1,3.854-1.973c.111-.007.223-.012.333-.012a1.636,1.636,0,0,1,1.586.881,1.707,1.707,0,0,1-.343,2.1c-.2.206-.4.418-.6.629a9.429,9.429,0,0,1-2.755,2.279,1.925,1.925,0,0,0-1.132,1.546,2.238,2.238,0,0,0,.957,1.979,3.259,3.259,0,0,0,2,.671,3.729,3.729,0,0,0,.571-.044l.232-.035c1.006-.147,1.585-.271,1.795-1.118a1.131,1.131,0,0,1,1.073-.935,1.246,1.246,0,0,1,.522.122,1.326,1.326,0,0,1,.7,1.556,4.138,4.138,0,0,1-3.484,3.06,8.493,8.493,0,0,1-1.258.1,5.977,5.977,0,0,1-5.9-4.287,5.387,5.387,0,0,1-4.971,3.971c-.919.092-1.193.333-1.22,1.073a1.215,1.215,0,0,1-1.251,1.169Zm-.434-12.533A43.866,43.866,0,0,0,33.9,80.366c.071.3.255.643.54.643.309-.037.572-.054.838-.072.969-.064,1.8-.12,2.288-.91a3.249,3.249,0,0,0,.13-3.536A6.059,6.059,0,0,0,32.865,73.249Z" transform="translate(0 0)"/>
    <path class="cls-2" d="M31.363,69.268a.625.625,0,0,1,.662.414c.276,1.231,1.4,1.2,2.236,1.48a8.247,8.247,0,0,1,5.24,4.2c.237.5.481.68.762.68a2.27,2.27,0,0,0,.918-.34c1.012-.522,1.353-1.543,1.933-2.359a4.214,4.214,0,0,1,3.475-1.763c.1-.006.2-.01.3-.01a1.12,1.12,0,0,1,1.139.6,1.219,1.219,0,0,1-.252,1.525,12.064,12.064,0,0,1-3.212,2.809,2.5,2.5,0,0,0-.257,4.374,3.772,3.772,0,0,0,2.3.772,4.238,4.238,0,0,0,.647-.05c1-.155,2.111-.214,2.437-1.526a.638.638,0,0,1,.588-.556.749.749,0,0,1,.313.076.845.845,0,0,1,.412,1.016,3.672,3.672,0,0,1-3.066,2.65,7.948,7.948,0,0,1-1.183.092,5.6,5.6,0,0,1-5.572-4.373c-.087-.283.088-.642-.475-1.046-.426,2.986-1.911,4.81-4.876,5.106-1,.1-1.629.431-1.67,1.553a.719.719,0,0,1-.752.687q-.038,0-.077,0a.909.909,0,0,1-.864-.71,3,3,0,0,0-1.113-2.263c-.354-.254-.191-.7-.138-1.106.409-3.1.257-6.106-1.488-8.855-.479-.755.633-2.967,1.5-3.074a1.016,1.016,0,0,1,.123-.007M34.439,81.51a.919.919,0,0,0,.118-.008c1.217-.157,2.661.051,3.435-1.214a3.758,3.758,0,0,0,.139-4.042,6.63,6.63,0,0,0-5.8-3.552,45.685,45.685,0,0,0,1.087,7.788c.139.58.513,1.027,1.026,1.027M45.171,74.4l-.044-.033-.27-.036.314.069-.063-.115c.024-.115.167-.274-.055-.274a.75.75,0,0,0-.092.007l.147.268a.087.087,0,0,0,.008.072c.011.01.052.04.056.043m0,0h0m0,0h0m0,0h0m0,0h.005M31.363,68.268a2.013,2.013,0,0,0-.245.015c-1.145.14-1.878,1.513-2.075,1.93a3,3,0,0,0-.152,2.673c1.386,2.184,1.8,4.709,1.341,8.188-.007.057-.018.115-.028.172a1.758,1.758,0,0,0,.575,1.877c.449.322.586.771.706,1.594a1.891,1.891,0,0,0,1.772,1.562q.08.007.158.007a1.728,1.728,0,0,0,1.751-1.651c.015-.409.019-.519.77-.594a5.79,5.79,0,0,0,4.944-3.188,6.394,6.394,0,0,0,5.88,3.506,8.986,8.986,0,0,0,1.332-.1,4.655,4.655,0,0,0,3.9-3.468,1.816,1.816,0,0,0-.978-2.1,1.741,1.741,0,0,0-.732-.168,1.616,1.616,0,0,0-1.558,1.315c-.119.478-.326.589-1.383.743l-.236.035a3.251,3.251,0,0,1-.494.039,2.771,2.771,0,0,1-1.7-.571,1.744,1.744,0,0,1-.759-1.531A1.415,1.415,0,0,1,45,77.411a9.825,9.825,0,0,0,2.9-2.388c.194-.208.388-.417.587-.621a2.225,2.225,0,0,0,.433-2.67,2.085,2.085,0,0,0-2.035-1.159c-.119,0-.24.005-.361.012A5.154,5.154,0,0,0,42.3,72.768c-.182.256-.335.516-.484.767a3,3,0,0,1-1.093,1.283c-.1.051-.208.108-.3.152l-.014-.029c-1.045-2.225-2.895-3.726-5.823-4.725-.2-.069-.419-.123-.639-.177-.787-.191-.876-.274-.943-.576a1.6,1.6,0,0,0-1.638-1.2ZM34.491,80.5a.711.711,0,0,1-.106-.252,41.978,41.978,0,0,1-.974-6.4,5.452,5.452,0,0,1,3.847,2.891,2.753,2.753,0,0,1-.12,3.03c-.315.516-.82.6-1.9.672-.254.017-.507.034-.751.064Z" transform="translate(0 0)"/>
  </g>
  <g>
    <path class="cls-1" d="M49.356,64.11a54.106,54.106,0,0,1-6.046-.453l-.838-.094c-1.613-.179-3.229-.316-4.846-.455-1.555-.133-3.108-.265-4.659-.434a5.509,5.509,0,0,1-2.216-.874c-.249-.145-.5-.291-.757-.416a1.184,1.184,0,0,1-.6-.838,1.42,1.42,0,0,1,.3-1.225,1.131,1.131,0,0,1,.822-.451,1.44,1.44,0,0,1,1.019.651A3.8,3.8,0,0,0,34.589,60.7c.157,0,.314-.005.471-.014.374-.022.746-.032,1.118-.032a39.93,39.93,0,0,1,6,.6,43.532,43.532,0,0,0,5.287.585l.317,0c.647,0,1.306-.052,1.942-.1.652-.052,1.328-.105,2.008-.105.149,0,.3,0,.449.008.745.028,1.488.041,2.232.041,2.562,0,5.17-.148,7.692-.292,2.289-.13,4.656-.265,6.992-.29,1.125-.012,2.272-.112,3.382-.209,1.2-.1,2.438-.213,3.671-.213.444,0,.891.014,1.336.047s.908.048,1.36.047a43.248,43.248,0,0,0,4.5-.316,44.133,44.133,0,0,1,4.607-.322q.369,0,.739.013c.738.026,1.476.035,2.215.035.691,0,1.383-.007,2.074-.015s1.391-.015,2.085-.015l.786,0c.7.007,1.957.019,2.068,1.466a.479.479,0,0,1-.021.189c-.132.421-.342,1.093-1.094,1.093h0a1.372,1.372,0,0,1-.252-.025,25.091,25.091,0,0,0-4.794-.321h-.671c-.69,0-1.382,0-2.071-.03q-.46-.018-.922-.017c-.87,0-1.743.041-2.615.081-.888.041-1.776.082-2.663.082-.235,0-.472,0-.707-.009-.271-.008-.542-.011-.812-.011-2.04,0-4.11.2-6.113.4-1.86.181-3.785.368-5.7.4-1.543.023-3.085.071-4.628.119-2.132.066-4.338.135-6.513.135q-1.124,0-2.247-.026l-.316,0a27.962,27.962,0,0,0-2.957.213c-.562.06-1.123.12-1.685.162C50.542,64.091,49.949,64.11,49.356,64.11Z" transform="translate(0 0)"/>
    <path class="cls-2" d="M30.516,59.372c.211,0,.4.2.641.478A4.328,4.328,0,0,0,34.588,61.2c.168,0,.335-.005.5-.015q.546-.032,1.087-.031c3.795,0,7.478,1.083,11.27,1.189q.166,0,.332,0c1.332,0,2.626-.209,3.948-.209q.216,0,.432.008,1.125.043,2.249.041c4.9,0,9.794-.53,14.691-.582,2.362-.025,4.7-.422,7.046-.422.433,0,.867.014,1.3.045.467.034.932.049,1.4.049,3.047,0,6.057-.639,9.105-.639q.361,0,.722.013c.744.026,1.488.035,2.233.035,1.385,0,2.772-.03,4.158-.03q.391,0,.783,0c.7.007,1.5,0,1.575,1-.116.367-.21.744-.618.744a.833.833,0,0,1-.157-.016,25.8,25.8,0,0,0-4.9-.33h-.655c-.687,0-1.374,0-2.059-.03-.313-.012-.627-.017-.941-.017-1.758,0-3.522.163-5.281.163q-.345,0-.691-.009-.414-.011-.828-.011c-3.958,0-7.861.734-11.819.794-3.712.057-7.42.254-11.135.254q-1.116,0-2.232-.026-.165,0-.329,0c-1.556,0-3.119.26-4.679.376-.583.043-1.164.062-1.746.062a62.225,62.225,0,0,1-6.827-.543c-3.165-.35-6.342-.545-9.506-.888a8.636,8.636,0,0,1-2.81-1.243.883.883,0,0,1-.137-1.287.621.621,0,0,1,.442-.276m0-1h0a1.57,1.57,0,0,0-1.2.625,1.94,1.94,0,0,0-.412,1.652,1.661,1.661,0,0,0,.874,1.187c.236.114.473.251.724.4a5.983,5.983,0,0,0,2.413.939c1.558.169,3.14.3,4.669.435,1.588.136,3.229.276,4.834.453l.835.094a54.485,54.485,0,0,0,6.1.456c.628,0,1.24-.022,1.82-.065s1.135-.1,1.7-.164a27.3,27.3,0,0,1,2.9-.21q.152,0,.3,0,1.129.028,2.257.027c2.184,0,4.395-.069,6.532-.135,1.515-.047,3.081-.1,4.618-.119,1.935-.03,3.869-.218,5.739-.4,1.991-.194,4.049-.394,6.064-.394q.4,0,.8.011.359.01.718.01c.9,0,1.81-.042,2.688-.083.854-.04,1.738-.08,2.594-.08.3,0,.6,0,.9.017.726.028,1.464.031,2.1.031h.655a24.773,24.773,0,0,1,4.708.312,1.827,1.827,0,0,0,.345.034,1.659,1.659,0,0,0,1.553-1.383l.018-.058a1,1,0,0,0,.044-.378c-.146-1.905-1.885-1.921-2.539-1.928-.287,0-.551,0-.815,0-.7,0-1.393.007-2.09.015s-1.379.015-2.068.015c-.839,0-1.537-.011-2.2-.034q-.379-.013-.758-.013a44.426,44.426,0,0,0-4.659.325,42.92,42.92,0,0,1-4.446.314c-.465,0-.9-.015-1.323-.046-.441-.032-.891-.048-1.375-.048-1.254,0-2.5.109-3.713.215-1.1.1-2.237.2-3.344.207-2.347.025-4.72.16-7.015.29-2.516.143-5.117.291-7.665.291-.776,0-1.5-.013-2.211-.04q-.235-.009-.47-.009c-.7,0-1.384.054-2.046.107s-1.275.1-1.9.1q-.152,0-.3,0a43.151,43.151,0,0,1-5.227-.58,40.322,40.322,0,0,0-6.071-.609c-.389,0-.775.011-1.146.033-.147.009-.295.013-.443.013a3.328,3.328,0,0,1-2.676-1,1.888,1.888,0,0,0-1.4-.823Z" transform="translate(0 0)"/>
  </g>
  <g>
    <path class="cls-1" d="M22.909,30.733a1.5,1.5,0,0,1-1.455-1.581,33.861,33.861,0,0,0-.521-3.833c-.156-.893-.318-1.816-.427-2.738-.09-.775-.352-.775-.605-.775a2.151,2.151,0,0,0-.407.046,16.935,16.935,0,0,1-2.2.3.875.875,0,0,0-.613.2,1.242,1.242,0,0,0-.082.87c.085.332.161.744.239,1.173a9.145,9.145,0,0,0,.988,3.166,1.667,1.667,0,0,1-.144,2.221,1.707,1.707,0,0,1-1.241.648,1.242,1.242,0,0,1-.675-.2,1.79,1.79,0,0,1-.809-1.906,6.144,6.144,0,0,0-.436-2.647c-.141-.448-.28-.9-.378-1.353-.257-1.205-.487-1.554-1.027-1.554a2.142,2.142,0,0,0-.654.125,1.22,1.22,0,0,1-.385.062,1.233,1.233,0,0,1-.867-.357,1.317,1.317,0,0,1-.37-.947l-.007-.2c-.019-.38-.069-1.389.969-1.457.521-.034.649-.158.676-.2.1-.14-.026-.589-.117-.917l-.067-.246c-.02-.072-.044-.143-.068-.215a2.544,2.544,0,0,1-.14-.549,1.387,1.387,0,0,1,.932-1.693,1.837,1.837,0,0,1,.527-.081,1.443,1.443,0,0,1,1.416,1.124,7.257,7.257,0,0,1,.16.861c.115.8.212,1.3.724,1.473a1.968,1.968,0,0,0,.631.088,7.978,7.978,0,0,0,1.073-.1c.313-.044.627-.087.932-.1a4.3,4.3,0,0,0,1.243-.177,5.012,5.012,0,0,0-.3-1.1,7.629,7.629,0,0,0-.552-1.222,1.445,1.445,0,0,1-.171-1.225,1.7,1.7,0,0,1,1.105-.938,1.823,1.823,0,0,1,.645-.127,1.342,1.342,0,0,1,1.309,1.114c.045.173.083.35.12.527.044.209.088.418.148.622l.082.285c.28,1,.44,1.3.895,1.3a2.008,2.008,0,0,0,.673-.148,1.356,1.356,0,0,1,.479-.087,1.221,1.221,0,0,1,1.24,1.18,1.789,1.789,0,0,1-.441,1.294,1.053,1.053,0,0,1-.769.363h-.008c-.572,0-.9.086-1.027.241-.179.228-.042.8.068,1.257.042.174.082.345.112.506.079.435.135.876.191,1.318a7.531,7.531,0,0,0,1.03,3.507,1.667,1.667,0,0,1-.465,2.38A2.052,2.052,0,0,1,22.909,30.733Z" transform="translate(0 0)"/>
    <path class="cls-2" d="M20.455,15.145a.841.841,0,0,1,.825.739c.1.386.159.784.273,1.166C21.825,17.972,22,19,23.009,19a2.464,2.464,0,0,0,.848-.18.873.873,0,0,1,.3-.055.721.721,0,0,1,.741.718c.04.523-.3,1.119-.71,1.119H24.1c-2.18,0-1.45,1.529-1.255,2.6.31,1.693.248,3.488,1.3,5.018A1.165,1.165,0,0,1,23.8,29.9a1.554,1.554,0,0,1-.89.33c-.519,0-.915-.387-.957-1.11-.13-2.232-.691-4.394-.95-6.6-.1-.861-.45-1.217-1.1-1.217a2.625,2.625,0,0,0-.506.056,16.37,16.37,0,0,1-2.13.287c-.891.057-1.328.446-1.159,1.639.336,1.35.424,3.1,1.3,4.528a1.175,1.175,0,0,1-.091,1.629,1.253,1.253,0,0,1-.867.48.748.748,0,0,1-.407-.123,1.292,1.292,0,0,1-.581-1.416c.2-1.455-.524-2.782-.819-4.171-.21-.985-.472-1.95-1.517-1.95a2.612,2.612,0,0,0-.811.15.726.726,0,0,1-.228.036.745.745,0,0,1-.738-.8c0-.449-.153-1.114.494-1.156,1.608-.1,1.185-1.065.942-1.985a4.877,4.877,0,0,1-.195-.69c-.054-.5.031-1,.58-1.161a1.334,1.334,0,0,1,.383-.06.939.939,0,0,1,.933.757c.268.976.09,2.3,1.207,2.675a2.465,2.465,0,0,0,.791.114c.654,0,1.366-.17,2.032-.209,1.867-.107,1.974-.246,1.388-1.94a8.129,8.129,0,0,0-.588-1.3c-.456-.816.035-1.209.676-1.452a1.325,1.325,0,0,1,.467-.095m0-1a2.316,2.316,0,0,0-.822.16,2.257,2.257,0,0,0-1.4,1.235,1.923,1.923,0,0,0,.2,1.64,7.113,7.113,0,0,1,.516,1.141q.118.342.183.563c-.249.027-.55.045-.683.052-.332.019-.657.065-.972.109a7.651,7.651,0,0,1-1,.1,1.489,1.489,0,0,1-.471-.062c-.2-.068-.273-.268-.388-1.07a7.448,7.448,0,0,0-.173-.923,1.947,1.947,0,0,0-1.9-1.492,2.334,2.334,0,0,0-.672.1,1.889,1.889,0,0,0-1.286,2.226,2.947,2.947,0,0,0,.163.655c.021.061.042.121.059.183l.069.253c.038.135.088.315.115.454a2.094,2.094,0,0,1-.225.025c-.571.037-1.516.343-1.436,1.979,0,.06.006.119.006.174a1.813,1.813,0,0,0,.532,1.316,1.732,1.732,0,0,0,1.747.4,1.635,1.635,0,0,1,.5-.1c.137,0,.292,0,.539,1.158.1.486.249.95.39,1.4a5.794,5.794,0,0,1,.416,2.43A2.274,2.274,0,0,0,15.5,30.646a1.759,1.759,0,0,0,.943.279,2.2,2.2,0,0,0,1.616-.817,2.155,2.155,0,0,0,.2-2.812,8.762,8.762,0,0,1-.923-2.995c-.077-.418-.149-.815-.243-1.2a1.533,1.533,0,0,1-.01-.418,1.255,1.255,0,0,1,.249-.036,17.433,17.433,0,0,0,2.26-.3,1.659,1.659,0,0,1,.311-.037h.038a1.379,1.379,0,0,1,.071.332c.11.937.273,1.868.43,2.768a32.908,32.908,0,0,1,.514,3.774,2,2,0,0,0,1.955,2.052,2.542,2.542,0,0,0,1.475-.519,2.169,2.169,0,0,0,.584-3.069,7.168,7.168,0,0,1-.946-3.286c-.055-.439-.112-.892-.2-1.345-.031-.169-.074-.349-.118-.532a4.087,4.087,0,0,1-.142-.822A1.709,1.709,0,0,1,24.1,21.6h.069a1.559,1.559,0,0,0,1.159-.523A2.278,2.278,0,0,0,25.9,19.4a1.725,1.725,0,0,0-1.738-1.643,1.864,1.864,0,0,0-.654.118,1.5,1.5,0,0,1-.5.117.215.215,0,0,1-.059-.005,3.174,3.174,0,0,1-.354-.934l-.084-.292c-.057-.192-.1-.388-.139-.585s-.078-.367-.125-.549a1.839,1.839,0,0,0-1.793-1.488Z" transform="translate(0 0)"/>
  </g>
  <g>
    <path class="cls-1" d="M65.48,85.613c-.9,0-1.255-.918-1.372-1.22-.161-.415-.33-.828-.5-1.24a28.944,28.944,0,0,1-1.11-3.024c-.226-.79-.536-1.58-.836-2.343a16.787,16.787,0,0,1-1.206-4.061,1.8,1.8,0,0,0-.1-.35,2.633,2.633,0,0,1-.142-.576,1.4,1.4,0,0,1,1.1-1.612,1.347,1.347,0,0,1,.31-.037,1.284,1.284,0,0,1,1.213.907,13.22,13.22,0,0,1,.68,2.368A5.933,5.933,0,0,0,64,76.2a11.022,11.022,0,0,1,1.436-1.567,7.235,7.235,0,0,0,1.432-1.672,5.435,5.435,0,0,1,.4-.6,3.2,3.2,0,0,0,.443-.729c.371-1,.905-1.508,1.587-1.508a1.64,1.64,0,0,1,.9.305,1.408,1.408,0,0,1,.692.96,1.94,1.94,0,0,1-.664,1.459c-.079.092-.157.181-.222.267-.539.713-1.1,1.408-1.662,2.1-.44.546-.881,1.092-1.311,1.647-.458.591-.661,1-.6,1.221.038.146.245.386,1.012.706l.792.333a26.7,26.7,0,0,0,7.66,2.352l.142.012a1.344,1.344,0,0,1,1.4.923,1.883,1.883,0,0,1-.363,2.076,1.3,1.3,0,0,1-.907.354h0a2.358,2.358,0,0,1-.99-.269,56.928,56.928,0,0,0-6.564-2.446c-.914-.3-1.836-.6-2.764-.924a3.089,3.089,0,0,0,.53,1.168c.048.065.1.128.15.189a1.659,1.659,0,0,1,.494,1.121c-.017,1.23-.6,1.687-1.086,1.853A1.436,1.436,0,0,1,65.48,85.613Z" transform="translate(0 0)"/>
    <path class="cls-2" d="M69.3,70.619a1.146,1.146,0,0,1,.627.222c1.042.691.123,1.389-.316,1.969-.961,1.27-1.993,2.487-2.969,3.746-1.065,1.375-1.008,2.019.613,2.695,2.777,1.158,5.547,2.427,8.6,2.72.523.05.935.027,1.115.59a1.375,1.375,0,0,1-.225,1.555.81.81,0,0,1-.569.222,1.909,1.909,0,0,1-.778-.221c-3.22-1.51-6.646-2.4-10.146-3.663a3.917,3.917,0,0,0,.731,2.208c.234.322.554.578.549,1.009a1.33,1.33,0,0,1-.748,1.387.928.928,0,0,1-.3.054c-.467,0-.728-.44-.906-.9-.543-1.4-1.184-2.78-1.6-4.221-.609-2.133-1.749-4.092-2.026-6.329-.038-.31-.205-.605-.236-.915a.909.909,0,0,1,.72-1.075.852.852,0,0,1,.2-.023.8.8,0,0,1,.742.575A12.687,12.687,0,0,1,63.03,74.5,5.545,5.545,0,0,0,64,77.161c.9-1.732,2.5-2.485,3.313-3.964a10.969,10.969,0,0,0,.873-1.4c.23-.62.58-1.182,1.118-1.182m0-1h0c-.628,0-1.494.318-2.056,1.834a2.862,2.862,0,0,1-.378.608,5.926,5.926,0,0,0-.435.657,6.758,6.758,0,0,1-1.339,1.552c-.3.284-.61.585-.916.923-.064-.262-.11-.538-.158-.844a13.457,13.457,0,0,0-.7-2.459,1.8,1.8,0,0,0-1.684-1.24,1.856,1.856,0,0,0-.424.05,1.9,1.9,0,0,0-1.486,2.148,3.089,3.089,0,0,0,.166.686,1.842,1.842,0,0,1,.073.252A17.149,17.149,0,0,0,61.2,77.967c.309.787.6,1.531.82,2.3a29.54,29.54,0,0,0,1.128,3.076c.168.41.336.82.5,1.232.492,1.273,1.272,1.54,1.839,1.54a1.93,1.93,0,0,0,.624-.108,2.211,2.211,0,0,0,1.424-2.32,2.134,2.134,0,0,0-.608-1.445c-.045-.054-.09-.108-.132-.165l-.026-.036c.574.192,1.143.379,1.7.562a56.573,56.573,0,0,1,6.506,2.423,2.854,2.854,0,0,0,1.2.316,1.81,1.81,0,0,0,1.246-.487,2.312,2.312,0,0,0,.5-2.595,1.846,1.846,0,0,0-1.836-1.27l-.135-.012a25.911,25.911,0,0,1-7.512-2.315l-.795-.333a2.669,2.669,0,0,1-.7-.378,3.1,3.1,0,0,1,.492-.781c.426-.55.863-1.091,1.3-1.633.555-.688,1.129-1.4,1.676-2.123.059-.078.13-.159.2-.242a2.391,2.391,0,0,0,.781-1.854,1.881,1.881,0,0,0-.911-1.31,2.128,2.128,0,0,0-1.18-.388Z" transform="translate(0 0)"/>
  </g>
  <g>
    <path class="cls-1" d="M15.259,56.946a1.448,1.448,0,0,1-1.282-.739,8.344,8.344,0,0,1-.792-1.864c-.15-.478-.266-.966-.39-1.505-.1.128-.188.257-.28.384a5.16,5.16,0,0,1-1.3,1.4,3.408,3.408,0,0,1-1.888.664,2.913,2.913,0,0,1-2.294-1.305c-1.476-1.854-1.559-9.256.8-11.555A3.955,3.955,0,0,1,10.6,41.139a3.89,3.89,0,0,1,2.654,1.183,1.656,1.656,0,0,0,.731.277c.553.126,1.388.316,1.5,1.345a6.191,6.191,0,0,1-.106,1.646,8,8,0,0,0-.115,1.015l-.02.671a17.712,17.712,0,0,0,.3,4.881l.054.217a4.336,4.336,0,0,0,.932,2.13,1.506,1.506,0,0,1,.526,1.281,1.209,1.209,0,0,1-.728.872A2.4,2.4,0,0,1,15.259,56.946Zm-4.667-13.1a1.966,1.966,0,0,0-1.51,1.495l-.123.427A6.914,6.914,0,0,0,8.513,48.6c.018.376.018.671.018.953a4.949,4.949,0,0,0,.253,2.013c.213.494.487.777.755.777a1.126,1.126,0,0,0,.74-.467c1.569-1.8,1.855-4.111,2-6.135a2.322,2.322,0,0,0-1.589-1.886Z" transform="translate(0 0)"/>
    <path class="cls-2" d="M10.6,41.639a3.409,3.409,0,0,1,2.313,1.049c.652.608,1.954.2,2.079,1.312a19.761,19.761,0,0,1-.225,2.592,21.017,21.017,0,0,0,.293,5.686,5.234,5.234,0,0,0,1.11,2.573c.435.453.652,1-.065,1.36a1.939,1.939,0,0,1-.843.235.957.957,0,0,1-.856-.5,7.867,7.867,0,0,1-.741-1.753c-.229-.727-.374-1.481-.6-2.412-.875.818-1.241,1.837-2.119,2.421a2.95,2.95,0,0,1-1.61.58,2.455,2.455,0,0,1-1.9-1.116c-1.386-1.744-1.357-8.825.754-10.886A3.493,3.493,0,0,1,10.6,41.639m-1.057,11.2a1.555,1.555,0,0,0,1.117-.638c1.6-1.839,1.957-4.126,2.121-6.428a2.8,2.8,0,0,0-2-2.414,1.029,1.029,0,0,0-.186-.016A2.423,2.423,0,0,0,8.6,45.2a8.617,8.617,0,0,0-.581,3.479,8.5,8.5,0,0,0,.3,3.079c.305.709.737,1.079,1.215,1.079m1.057-12.2a4.434,4.434,0,0,0-3.112,1.426c-2.39,2.334-2.6,10.013-.838,12.224a3.423,3.423,0,0,0,2.686,1.494,3.887,3.887,0,0,0,2.164-.748A4.5,4.5,0,0,0,12.564,54c.045.166.092.33.144.494a8.817,8.817,0,0,0,.842,1.976,1.951,1.951,0,0,0,1.708.978,2.893,2.893,0,0,0,1.292-.341,1.69,1.69,0,0,0,1-1.234,1.958,1.958,0,0,0-.659-1.712,3.992,3.992,0,0,1-.807-1.9l-.054-.218a17.346,17.346,0,0,1-.283-4.75l.019-.669a7.665,7.665,0,0,1,.11-.952,6.64,6.64,0,0,0,.109-1.777,2.064,2.064,0,0,0-1.889-1.776,1.865,1.865,0,0,1-.5-.156,4.37,4.37,0,0,0-3-1.317Zm-1.045,11.2a1.166,1.166,0,0,1-.308-.469,4.634,4.634,0,0,1-.213-1.814c0-.288,0-.589-.011-.906a1.006,1.006,0,0,0-.013-.131,6.759,6.759,0,0,1,.434-2.606l.124-.433a1.517,1.517,0,0,1,1.029-1.131c.44.08,1.219.905,1.187,1.359-.172,2.411-.557,4.327-1.878,5.842a.983.983,0,0,1-.351.29Z" transform="translate(0 0)"/>
  </g>
  <g>
    <path class="cls-1" d="M9.341,30.3a1.276,1.276,0,0,1-.958-.362,2.086,2.086,0,0,1-.368-1.579c0-.114.009-.226.007-.329a44.229,44.229,0,0,0-.569-5.646,38.688,38.688,0,0,1-.573-6.718c.01-.318-.04-.419-.07-.451a.512.512,0,0,0-.318-.07,1.961,1.961,0,0,0-.211.013l-.091.031c-.185.048-.457.12-.723.21L5,15.553c-.58.194-1.18.395-1.736.638a3.82,3.82,0,0,1-1.444.422A1.281,1.281,0,0,1,.561,15.66a1.1,1.1,0,0,1,.063-.874,2.791,2.791,0,0,1,1.61-1.112,88.583,88.583,0,0,1,10.05-2.33l.809-.146a23.692,23.692,0,0,0,3.313-.751,2.482,2.482,0,0,1,.77-.136,1.316,1.316,0,0,1,1.3.857c.338.841-.393,1.36-.743,1.609l-.324.241a3.224,3.224,0,0,1-2.039.873,3.429,3.429,0,0,1-1.089-.194,3.209,3.209,0,0,0-1.024-.157,9.944,9.944,0,0,0-3.02.7c-.41.139-.816.277-1.217.393-.075.082-.028.338,0,.477l.037.217Q9.717,20,10.412,24.677l.36,2.441c.012.084.029.169.046.253a4.327,4.327,0,0,1,.075.485,2.662,2.662,0,0,1-.4,1.959,1.424,1.424,0,0,1-1.021.475Z" transform="translate(0 0)"/>
    <path class="cls-2" d="M17.174,10.811a.826.826,0,0,1,.833.543c.216.538-.349.849-.7,1.108a3.174,3.174,0,0,1-1.945.928,2.953,2.953,0,0,1-.931-.169,3.721,3.721,0,0,0-1.183-.182,16.855,16.855,0,0,0-4.376,1.112c-.605.176-.384.806-.321,1.244.561,3.934,1.145,7.865,1.724,11.8.035.236.1.469.118.707.069.834.027,1.833-.952,1.893q-.053,0-.1,0c-1.04,0-.809-1.066-.819-1.776-.058-4.144-1.27-8.18-1.143-12.341.017-.55-.094-1.036-.889-1.036a2.428,2.428,0,0,0-.266.016c-.159.045-.545.137-.92.265-.754.257-1.518.493-2.246.811a3.478,3.478,0,0,1-1.244.38.781.781,0,0,1-.781-.616c-.213-.616.592-1.11,1.348-1.344a87.456,87.456,0,0,1,9.992-2.316,31.714,31.714,0,0,0,4.186-.914,2,2,0,0,1,.614-.111m0-1h0a2.98,2.98,0,0,0-.927.161,23.386,23.386,0,0,1-3.25.735c-.269.048-.537.1-.807.145A89.014,89.014,0,0,0,2.085,13.2,3.191,3.191,0,0,0,.178,14.561a1.609,1.609,0,0,0-.089,1.262,1.771,1.771,0,0,0,1.726,1.289,4.086,4.086,0,0,0,1.607-.447c.578-.252,1.145-.442,1.745-.642l.46-.155c.255-.087.516-.155.692-.2l.06-.016a39.173,39.173,0,0,0,.578,6.8,43.771,43.771,0,0,1,.565,5.579c0,.1,0,.2-.007.3a2.505,2.505,0,0,0,.508,1.944,1.762,1.762,0,0,0,1.318.515q.079,0,.164-.005a1.9,1.9,0,0,0,1.368-.646,3.1,3.1,0,0,0,.52-2.327,4.813,4.813,0,0,0-.083-.537c-.015-.077-.031-.155-.042-.233l-.334-2.268q-.7-4.761-1.389-9.524c-.011-.075-.025-.154-.04-.236l0-.012c.295-.092.592-.193.89-.295a9.467,9.467,0,0,1,2.859-.673,2.713,2.713,0,0,1,.867.131,3.924,3.924,0,0,0,1.246.22,3.678,3.678,0,0,0,2.342-.975l.2-.151.11-.079a1.844,1.844,0,0,0,.919-2.2,1.811,1.811,0,0,0-1.761-1.171Z" transform="translate(0 0)"/>
  </g>
  <g>
    <path class="cls-1" d="M31.776,90.066c-1.254,0-1.4-.88-1.406-1.258a1.463,1.463,0,0,1,.411-1.076,2.5,2.5,0,0,1,1.769-.579h.117A11.447,11.447,0,0,1,34,87.29c.15.021.291.042.418.056,1.334-.052,2.727-.087,4.107-.122,3.215-.081,6.251-.157,9.327-.392,1.519-.116,3.056-.132,4.543-.147a53.852,53.852,0,0,0,5.69-.262,14.594,14.594,0,0,1,1.709-.091c.666,0,1.332.033,2,.065.649.032,1.3.064,1.948.064a11.747,11.747,0,0,0,2.36-.206,1.765,1.765,0,0,1,.349-.035,2.785,2.785,0,0,1,1.267.388,1.215,1.215,0,0,1,.718,1.345A1.235,1.235,0,0,1,67.4,89.007a4.356,4.356,0,0,1-.66.064h0a1.859,1.859,0,0,1-.488-.059,16.12,16.12,0,0,0-4.235-.5c-1.3,0-2.63.1-3.916.2-1.259.1-2.561.2-3.847.205-3.6.02-7.261.229-10.8.431q-1.857.106-3.715.2c-1.144.058-2.285.139-3.428.219-1.236.087-2.474.174-3.711.233-.087,0-.181.013-.278.021C32.146,90.05,31.957,90.066,31.776,90.066Z" transform="translate(0 0)"/>
    <path class="cls-2" d="M66.455,86.722a2.526,2.526,0,0,1,1.109.368.69.69,0,0,1,.381.787.727.727,0,0,1-.618.636,3.834,3.834,0,0,1-.583.058,1.4,1.4,0,0,1-.359-.042,16.781,16.781,0,0,0-4.365-.512c-2.588,0-5.181.394-7.765.408-4.848.026-9.694.388-14.54.636-2.381.121-4.757.339-7.138.452-.237.011-.528.054-.8.054-.474,0-.9-.127-.907-.765-.013-.9.865-1.147,1.678-1.147h.106c.629.016,1.256.134,1.711.187,4.632-.16,9.093-.174,13.53-.511,3.42-.26,6.85-.011,10.254-.412a14.083,14.083,0,0,1,1.651-.088c1.315,0,2.633.13,3.947.13a12.356,12.356,0,0,0,2.459-.216,1.257,1.257,0,0,1,.25-.025m0-1a2.266,2.266,0,0,0-.448.045,11.267,11.267,0,0,1-2.261.2c-.632,0-1.26-.031-1.923-.064s-1.341-.066-2.023-.066a15.042,15.042,0,0,0-1.768.094,53.426,53.426,0,0,1-5.638.259c-1.495.016-3.04.032-4.575.149-3.065.233-6.1.31-9.306.39-1.356.034-2.723.069-4.1.116-.1-.013-.214-.029-.332-.046a12.109,12.109,0,0,0-1.4-.139l-.131,0a2.906,2.906,0,0,0-2.123.727,1.954,1.954,0,0,0-.555,1.434,1.713,1.713,0,0,0,1.906,1.751c.2,0,.4-.017.594-.035.09-.008.176-.016.255-.02,1.248-.06,2.509-.148,3.729-.234,1.137-.08,2.274-.16,3.412-.218,1.238-.063,2.476-.134,3.714-.2,3.537-.2,7.194-.411,10.78-.43,1.3-.007,2.614-.108,3.881-.206s2.6-.2,3.878-.2a15.624,15.624,0,0,1,4.107.478,2.366,2.366,0,0,0,.617.076,4.749,4.749,0,0,0,.738-.07,1.727,1.727,0,0,0,1.452-1.467,1.691,1.691,0,0,0-.923-1.839l-.064-.032a3.242,3.242,0,0,0-1.491-.441Z" transform="translate(0 0)"/>
  </g>
  <g>
    <path class="cls-1" d="M39.658,29.086a5.391,5.391,0,0,1-.63-.038,4.145,4.145,0,0,1-.536.035,6.245,6.245,0,0,1-3.816-1.729,1.818,1.818,0,0,1-.834-1.223,1.285,1.285,0,0,1,.35-.99,1.236,1.236,0,0,1,.93-.486,1.766,1.766,0,0,1,1.177.654,3.67,3.67,0,0,0,2.675,1.119c.138,0,.278-.007.42-.021.559-.054.948-.217,1.042-.438s-.052-.586-.381-1a10.768,10.768,0,0,0-3.427-2.632A18.776,18.776,0,0,1,31.7,18.708a3.759,3.759,0,0,1-1.21-2.759,3.592,3.592,0,0,1,1.448-2.5l.1-.086a13.8,13.8,0,0,1,3.138-2.18,3.148,3.148,0,0,1,1.313-.364,1.838,1.838,0,0,1,.685.132,1.621,1.621,0,0,1,.77.667,1.064,1.064,0,0,1-.45,1.464,3.078,3.078,0,0,1-1.29.568,3.255,3.255,0,0,0-1.6.867l-.215.172a2.067,2.067,0,0,0-.945,1.448,2.208,2.208,0,0,0,.914,1.592,16.446,16.446,0,0,0,3.082,2.032c.5.278,1,.556,1.479.855A12.631,12.631,0,0,1,41.761,23l.112.126c.817.916,1.835,2.056,1.087,3.76A3.373,3.373,0,0,1,39.658,29.086Z" transform="translate(0 0)"/>
    <path class="cls-2" d="M36.494,11.319a1.327,1.327,0,0,1,.5.1,1.129,1.129,0,0,1,.521.452c.2.34-.038.629-.293.8a2.664,2.664,0,0,1-1.072.488,4.186,4.186,0,0,0-2.07,1.143c-1.5,1.188-1.508,2.5-.057,3.8a30.478,30.478,0,0,0,4.632,2.941,12.183,12.183,0,0,1,2.733,2.294c.849.957,1.762,1.878,1.115,3.353a2.887,2.887,0,0,1-2.845,1.9,5.015,5.015,0,0,1-.633-.042,3.724,3.724,0,0,1-.533.039A5.982,5.982,0,0,1,34.908,26.9c-.444-.341-.838-.859-.339-1.431a.75.75,0,0,1,.553-.315,1.343,1.343,0,0,1,.823.508,4.178,4.178,0,0,0,3.028,1.264c.154,0,.31-.008.468-.023,1.556-.149,1.966-1.03,1.005-2.249a11.224,11.224,0,0,0-3.58-2.762,18.639,18.639,0,0,1-4.8-3.528c-1.5-1.6-1.444-3.151.2-4.535a13.882,13.882,0,0,1,3.125-2.194,2.735,2.735,0,0,1,1.106-.319m0-1a3.619,3.619,0,0,0-1.52.408,14.223,14.223,0,0,0-3.259,2.258l-.1.082a4.065,4.065,0,0,0-1.625,2.853,4.229,4.229,0,0,0,1.344,3.13,19.247,19.247,0,0,0,5.049,3.722,10.306,10.306,0,0,1,3.274,2.5,1.573,1.573,0,0,1,.287.489,1.644,1.644,0,0,1-.6.145q-.189.018-.373.018a3.188,3.188,0,0,1-2.322-.972,2.242,2.242,0,0,0-1.53-.8,1.713,1.713,0,0,0-1.306.657,1.774,1.774,0,0,0-.472,1.368,2.2,2.2,0,0,0,.954,1.513l.07.054a6.727,6.727,0,0,0,4.124,1.836,4.715,4.715,0,0,0,.539-.031,5.923,5.923,0,0,0,.627.035,3.883,3.883,0,0,0,3.761-2.5c.876-2-.307-3.324-1.172-4.293l-.112-.125A13.106,13.106,0,0,0,39.18,20.19c-.5-.307-1.007-.592-1.5-.867a16.07,16.07,0,0,1-2.989-1.966,1.889,1.889,0,0,1-.749-1.2,1.73,1.73,0,0,1,.756-1.072l.217-.174a2.859,2.859,0,0,1,1.352-.761,3.529,3.529,0,0,0,1.506-.648,1.568,1.568,0,0,0,.607-2.132,2.121,2.121,0,0,0-1.016-.88,2.334,2.334,0,0,0-.87-.168Z" transform="translate(0 0)"/>
  </g>
  <g>
    <path class="cls-1" d="M66.652,29.57a5.421,5.421,0,0,1-.592-.033c-.219.015-.447.024-.669.024a2.938,2.938,0,0,1-2.4-.921l-.1-.113a1.351,1.351,0,0,1-.376-1.713,1.12,1.12,0,0,1,.984-.6,1.771,1.771,0,0,1,.925.313,3.167,3.167,0,0,0,1.684.514A5.074,5.074,0,0,0,68.952,25.9c.271-.189.431-.373.438-.5,0-.067-.034-.262-.446-.613a10.471,10.471,0,0,0-2.7-1.677l-.391-.167a13.909,13.909,0,0,1-3.718-2.058,4.088,4.088,0,0,1-1.744-2.966,3.77,3.77,0,0,1,1.485-2.786,7.005,7.005,0,0,1,4.668-2.137c.132,0,.266,0,.4.015.464.033,1.487.106,1.5,1.2A1.346,1.346,0,0,1,67.024,15.6a4.089,4.089,0,0,0-2.58.863c-.788.607-1.166,1.085-1.156,1.461s.4.817,1.2,1.367a13.663,13.663,0,0,0,2.445,1.246c.591.253,1.2.516,1.786.833a8.926,8.926,0,0,1,2.452,1.743c1.448,1.577,1.428,2.977-.065,4.409A6.441,6.441,0,0,1,66.652,29.57Z" transform="translate(0 0)"/>
    <path class="cls-2" d="M66.543,13.493q.18,0,.365.013c.479.035,1.026.062,1.031.708a.853.853,0,0,1-.921.888,4.6,4.6,0,0,0-2.88.967c-1.823,1.406-1.8,2.349.064,3.636a44.09,44.09,0,0,0,4.278,2.107A8.5,8.5,0,0,1,70.8,23.454c1.218,1.325,1.3,2.425-.043,3.709a5.975,5.975,0,0,1-4.108,1.907,4.841,4.841,0,0,1-.536-.03c-.247.01-.488.021-.724.021a2.443,2.443,0,0,1-2.022-.75c-.316-.361-.741-.721-.427-1.236a.637.637,0,0,1,.557-.359,1.344,1.344,0,0,1,.664.24,3.667,3.667,0,0,0,1.946.587,5.63,5.63,0,0,0,3.128-1.232c.957-.666.767-1.281.03-1.908a11.033,11.033,0,0,0-2.829-1.755A14.994,14.994,0,0,1,62.457,20.5c-1.973-1.68-2.116-3.313-.248-5a6.492,6.492,0,0,1,4.333-2.009m0-1a7.459,7.459,0,0,0-5,2.266,4.236,4.236,0,0,0-1.65,3.164,4.605,4.605,0,0,0,1.92,3.339A14.272,14.272,0,0,0,65.656,23.4l.389.166a9.988,9.988,0,0,1,2.575,1.6,1.962,1.962,0,0,1,.208.2,1.64,1.64,0,0,1-.161.126,4.63,4.63,0,0,1-2.557,1.053,2.686,2.686,0,0,1-1.423-.44,2.243,2.243,0,0,0-1.187-.387,1.616,1.616,0,0,0-1.411.838,1.841,1.841,0,0,0,.433,2.31l.1.106a3.438,3.438,0,0,0,2.774,1.091c.225,0,.457-.009.692-.019.189.019.38.028.568.028a6.923,6.923,0,0,0,4.8-2.185c1.687-1.617,1.716-3.336.087-5.108a9.322,9.322,0,0,0-2.581-1.843c-.606-.329-1.228-.6-1.829-.854a13.347,13.347,0,0,1-2.358-1.2c-.964-.666-.983-.957-.983-.969s0-.313.961-1.053a3.612,3.612,0,0,1,2.28-.759,1.844,1.844,0,0,0,1.91-1.9c-.008-1.033-.658-1.6-1.931-1.7-.175-.013-.321-.018-.465-.018Z" transform="translate(0 0)"/>
  </g>
  <g>
    <path class="cls-1" d="M58.156,84.406c-3.146-.024-5.579-1.86-6.046-4.569-.422-2.447-.658-5.242,1.9-7.438a4.626,4.626,0,0,1,2.1-1.019,1.983,1.983,0,0,1,.44-.052,1.711,1.711,0,0,1,1.673,1.622c.157,1.1-.786,1.335-1.294,1.462l-.172.044a3,3,0,0,0-1.9,1.471,4.124,4.124,0,0,0-.223,3.223A3.3,3.3,0,0,0,57.77,81.69a3.619,3.619,0,0,0,1.266-.238,5.809,5.809,0,0,0,.557-.254,3.418,3.418,0,0,1,1.542-.469l.1,0c.7.034,1.1.338,1.18.9a1.036,1.036,0,0,1-.588,1.087c-.389.2-.767.427-1.13.643a5.553,5.553,0,0,1-2.5,1.042Z" transform="translate(0 0)"/>
    <path class="cls-2" d="M56.543,71.828a1.228,1.228,0,0,1,1.177,1.193c.1.729-.533.8-1.1.952-2.174.583-3.215,2.876-2.467,5.323A3.8,3.8,0,0,0,57.77,82.19a4.123,4.123,0,0,0,1.441-.269,5.636,5.636,0,0,1,1.924-.692l.079,0c.3.014.651.059.708.474a.542.542,0,0,1-.324.575c-1.313.683-2.525,1.627-3.4,1.627h-.03c-3.066-.023-5.162-1.813-5.566-4.154-.444-2.571-.542-5.022,1.729-6.975a4.174,4.174,0,0,1,1.882-.911,1.478,1.478,0,0,1,.33-.039m0-1a2.484,2.484,0,0,0-.553.064,5.166,5.166,0,0,0-2.311,1.127c-2.621,2.255-2.54,5.131-2.062,7.9.51,2.955,3.139,4.958,6.543,4.984h0a5.819,5.819,0,0,0,2.794-1.112c.36-.214.733-.435,1.1-.628a1.548,1.548,0,0,0-.8-2.934l-.127,0a3.872,3.872,0,0,0-1.765.521,5.538,5.538,0,0,1-.508.233,3.128,3.128,0,0,1-1.092.206A2.821,2.821,0,0,1,55.109,79a3.632,3.632,0,0,1,.183-2.835,2.515,2.515,0,0,1,1.586-1.23l.163-.042a1.816,1.816,0,0,0,1.669-2.019,2.214,2.214,0,0,0-2.167-2.051Z" transform="translate(0 0)"/>
  </g>
  <g>
    <path class="cls-1" d="M28.324,30.245a1.252,1.252,0,0,1-1.248-1.138c-.073-.346-.152-.691-.231-1.036a26.57,26.57,0,0,1-.6-3.229c-.257-2.514-.585-5.489-1.068-8.495l-.024-.148c-.091-.529-.281-1.629.963-1.957a.482.482,0,0,1,.127-.017h.035a1.622,1.622,0,0,1,1.19.634,3.876,3.876,0,0,1,.741,2.569,43.784,43.784,0,0,0,.484,5.208c.144,1.075.292,2.187.388,3.292a3.192,3.192,0,0,0,.862,1.845,1.355,1.355,0,0,1,.361,1.215,1.6,1.6,0,0,1-1.062,1.037,2.392,2.392,0,0,1-.92.22Z" transform="translate(0 0)"/>
    <path class="cls-2" d="M26.244,14.726a1.131,1.131,0,0,1,.839.452,3.415,3.415,0,0,1,.628,2.258c.036,2.872.628,5.687.874,8.537a3.73,3.73,0,0,0,.975,2.121c.583.7.171,1.186-.509,1.471a1.973,1.973,0,0,1-.727.181c-.351,0-.639-.186-.759-.743a39.352,39.352,0,0,1-.822-4.21c-.29-2.851-.616-5.694-1.07-8.524-.095-.59-.3-1.312.571-1.542m0-1a1,1,0,0,0-.255.033,1.946,1.946,0,0,0-1.328,2.529l.023.139c.484,3.014.809,5.972,1.063,8.467a27.118,27.118,0,0,0,.608,3.285c.079.344.157.689.231,1.033a1.75,1.75,0,0,0,1.736,1.534,2.86,2.86,0,0,0,1.113-.259,2.067,2.067,0,0,0,1.355-1.379,1.832,1.832,0,0,0-.462-1.652,2.748,2.748,0,0,1-.749-1.569c-.1-1.117-.246-2.235-.39-3.316a43.528,43.528,0,0,1-.48-5.147,4.357,4.357,0,0,0-.855-2.88,2.13,2.13,0,0,0-1.541-.815l-.071,0Z" transform="translate(0 0)"/>
  </g>
  <g>
    <path class="cls-1" d="M57.788,28.64a1.658,1.658,0,0,1-1.661-1.167,25.861,25.861,0,0,1-1.021-4.537c-.06-.368-.118-.735-.183-1.1-.143-.826-.211-1.664-.277-2.474a18.7,18.7,0,0,0-.477-3.352,1.3,1.3,0,0,1-.036-.231,1.713,1.713,0,0,1,.265-1.391,1.559,1.559,0,0,1,1.155-.573c.05,0,.1-.006.144-.006,1.143,0,1.259,1.143,1.3,1.573.085.833.151,1.668.217,2.5a46.258,46.258,0,0,0,.688,5.7c.036.172.066.346.1.52.149.86.279,1.6,1.018,2.043.253.151.776.465.595.933a1.837,1.837,0,0,1-1.4,1.522A2.6,2.6,0,0,1,57.788,28.64Z" transform="translate(0 0)"/>
    <path class="cls-2" d="M55.7,14.306c.637,0,.748.561.805,1.124a81.116,81.116,0,0,0,.912,8.255c.22,1.066.239,2.229,1.348,2.892.193.115.4.278.385.323-.212.745-.495,1.123-1.016,1.21a2.1,2.1,0,0,1-.344.03,1.17,1.17,0,0,1-1.189-.834,33.481,33.481,0,0,1-1.182-5.558c-.337-1.947-.248-3.948-.765-5.87-.02-.076-.017-.158-.03-.236a1.016,1.016,0,0,1,.974-1.331q.053,0,.1,0m0-1c-.059,0-.121,0-.186.008A2.044,2.044,0,0,0,54,14.08a2.136,2.136,0,0,0-.367,1.73,1.741,1.741,0,0,0,.05.327,18.26,18.26,0,0,1,.462,3.263c.067.821.137,1.67.283,2.518.063.365.122.73.181,1.1a26.164,26.164,0,0,0,1.043,4.626,2.155,2.155,0,0,0,2.132,1.5A3.111,3.111,0,0,0,58.3,29.1,2.358,2.358,0,0,0,60.1,27.2c.178-.548-.1-1.046-.827-1.481-.517-.309-.624-.8-.781-1.7-.031-.18-.063-.359-.1-.536a45.8,45.8,0,0,1-.68-5.644c-.066-.838-.132-1.675-.217-2.511-.17-1.672-1.073-2.023-1.8-2.023Z" transform="translate(0 0)"/>
  </g>
</svg>
