<svg id="Layer_1" data-name="Layer 1" xmlns="http://www.w3.org/2000/svg" viewBox="0 0 152.505 68.454">
  <defs>
    <style>
      .cls-1 {
        fill: #0000b8;
      }

      .cls-2 {
        fill: #fff;
      }
    </style>
  </defs>
  <title>16be96e9-2558-4727-a7a8-65721f015a09</title>
  <g>
    <path class="cls-1" d="M141.317,67.948a1.264,1.264,0,0,1-1.239-1.207l-.023-.3a3.925,3.925,0,0,1,0-1c.22-1.316.385-2.667.545-3.975a54.286,54.286,0,0,1,1.146-6.9c.526-2.062.954-4.193,1.369-6.254.324-1.616.66-3.286,1.042-4.921.262-1.116-.288-1.269-.5-1.326-3.366-.935-4.89-3.562-6.362-6.1-.263-.453-.524-.9-.8-1.344-1.405-2.276-2.655-4.688-3.863-7.022-.634-1.224-1.268-2.447-1.926-3.657a16.644,16.644,0,0,1-1.29-3.534c-.114-.411-.229-.821-.356-1.229a1.84,1.84,0,0,0-.317-.7c-.01.026-.14.1-.381.374l-1.142,1.286c-1.9,2.13-3.856,4.333-5.6,6.627-.3.4-.6.8-.905,1.2a48.477,48.477,0,0,1-3.6,4.438,9.265,9.265,0,0,0-2.387,4.8c-.406,2.108-.727,4.275-1.036,6.371-.127.862-.254,1.724-.388,2.585a51.182,51.182,0,0,0-.531,10.168c.1,2.124.334,4.284.562,6.374a1.92,1.92,0,0,0,1.065,1.784.5.5,0,0,1-.015.91,5.89,5.89,0,0,1-2.17.653h0c-1.4,0-1.4-1.572-1.408-2.512q-.009-1.806-.027-3.612c-.035-4.088-.072-8.315.078-12.472a47.172,47.172,0,0,1,1.026-7.243l.21-1.086a45.2,45.2,0,0,1,2.564-9.492,46.6,46.6,0,0,1,5.516-10.339c1.721-2.218,4.261-3.82,7.993-5.04a39.809,39.809,0,0,1,6.043-1.581,8.07,8.07,0,0,1,1.263-.1c3.126,0,5.487,1.937,7.2,3.625,3.326,3.286,4.136,7.6,4.489,11.4a49.726,49.726,0,0,1-.521,12.291c-.2,1.3,0,1.634,1.308,2.079l.488.167c.892.3,1.781.608,2.669.923a1.291,1.291,0,0,1,.788.688,1.443,1.443,0,0,1-.027,1.144.93.93,0,0,1-.872.629,1.81,1.81,0,0,1-.817-.258c-.285-.148-.566-.309-.849-.47a6.768,6.768,0,0,0-2.794-1.091l-.782,2.922c-.667,2.493-1.321,4.938-1.984,7.382a15.086,15.086,0,0,0-.395,3.149,16.859,16.859,0,0,1-.393,3.228,23.758,23.758,0,0,0-.485,6.283,1.337,1.337,0,0,1-.32,1.011.982.982,0,0,1-.726.286ZM131.246,15.809a2.688,2.688,0,0,1,.575,1.856,14.833,14.833,0,0,0,1.755,6.646c.3.621.626,1.227.955,1.832.354.652.708,1.3,1.024,1.973a67.412,67.412,0,0,0,5.57,9.343,5.98,5.98,0,0,0,3.2,2.573,37.21,37.21,0,0,0,.532-6.573c.041-2.549-.015-4.66-.177-6.643a16.418,16.418,0,0,0-1.752-6.208c-1.744-3.389-4.994-5.578-8.278-5.578A7.985,7.985,0,0,0,131.246,15.809Zm-5.9,2.3a15.829,15.829,0,0,0-5.863,6.959c.958-1.2,1.97-2.37,3.008-3.577C123.432,20.395,124.4,19.275,125.344,18.107Z" transform="translate(0 0)"/>
    <path class="cls-2" d="M135.484,13.071c2.732,0,4.9,1.558,6.843,3.48,3.082,3.045,3.963,7.01,4.343,11.088a49.414,49.414,0,0,1-.518,12.168c-.244,1.572.124,2.11,1.641,2.629,1.052.359,2.1.717,3.152,1.088a.8.8,0,0,1,.466,1.169.431.431,0,0,1-.411.32,1.409,1.409,0,0,1-.587-.2c-1.313-.68-2.519-1.632-4.206-1.632h-.047c-.98,3.655-1.916,7.174-2.87,10.687-.567,2.09-.256,4.275-.789,6.385a24.176,24.176,0,0,0-.5,6.415c.008.391-.083.787-.545.787q-.043,0-.089,0a.77.77,0,0,1-.789-.737,5.516,5.516,0,0,1-.027-1.189c.6-3.6.772-7.262,1.683-10.832.943-3.693,1.546-7.471,2.414-11.185.235-1-.042-1.7-.849-1.922-3.757-1.042-5.113-4.389-6.866-7.227-2.12-3.431-3.845-7.1-5.776-10.655a24.976,24.976,0,0,1-1.609-4.672c-.217-.7-.446-1.053-.754-1.053-.218,0-.475.179-.8.541-2.3,2.605-4.664,5.178-6.767,7.942a65.216,65.216,0,0,1-4.469,5.6,9.84,9.84,0,0,0-2.516,5.051c-.572,2.973-.962,5.98-1.426,8.974a51.4,51.4,0,0,0-.536,10.268c.1,2.146.333,4.288.565,6.426a2.423,2.423,0,0,0,1.347,2.16,5.791,5.791,0,0,1-1.97.611c-.727,0-.9-.611-.908-2.014-.026-5.355-.143-10.715.052-16.063a55.076,55.076,0,0,1,1.227-8.253,44.467,44.467,0,0,1,2.532-9.388A46.071,46.071,0,0,1,120.58,19.6a15.613,15.613,0,0,1,7.753-4.871,39.165,39.165,0,0,1,5.966-1.562,7.536,7.536,0,0,1,1.185-.1m9.229,27.569a35.625,35.625,0,0,0,.647-7.173c.036-2.23,0-4.47-.178-6.691a16.927,16.927,0,0,0-1.806-6.4c-1.74-3.381-5.057-5.85-8.723-5.849a8.675,8.675,0,0,0-4.319,1.188,1.93,1.93,0,0,1,.987,1.942,15.547,15.547,0,0,0,1.8,6.866c.616,1.289,1.369,2.512,1.979,3.8a67.709,67.709,0,0,0,5.61,9.414,6.344,6.344,0,0,0,4,2.9M116.919,29.5c2.8-4.529,6.7-8.222,10.213-12.85-6.142,2.537-7.961,7.863-10.213,12.85m18.565-17.425a8.578,8.578,0,0,0-1.342.108,40.337,40.337,0,0,0-6.12,1.6c-3.833,1.253-6.448,2.908-8.232,5.209a46.65,46.65,0,0,0-5.546,10.366l-.035.082a45.719,45.719,0,0,0-2.6,9.6l-.21,1.083a47.564,47.564,0,0,0-1.034,7.322c-.151,4.159-.114,8.384-.079,12.469q.016,1.818.027,3.636c0,.977.014,3.01,1.908,3.01a6.49,6.49,0,0,0,2.369-.694,1,1,0,0,0,.029-1.821c-.486-.23-.7-.6-.781-1.364-.229-2.113-.463-4.261-.56-6.364a50.62,50.62,0,0,1,.526-10.068c.134-.863.261-1.727.389-2.591.308-2.089.628-4.25,1.031-6.347a8.791,8.791,0,0,1,2.259-4.551,48.886,48.886,0,0,0,3.64-4.485q.449-.6.9-1.2c1.735-2.281,3.691-4.479,5.583-6.6q.495-.556.989-1.113c.123.4.236.8.348,1.2a16.973,16.973,0,0,0,1.331,3.633c.654,1.2,1.3,2.445,1.92,3.646,1.213,2.342,2.468,4.764,3.884,7.056.269.436.528.883.789,1.333,1.452,2.5,3.1,5.344,6.661,6.333.11.031.294.082.142.731-.384,1.642-.721,3.317-1.046,4.936-.413,2.054-.84,4.179-1.363,6.229A54.875,54.875,0,0,0,140.1,61.4c-.159,1.3-.323,2.648-.542,3.954a4.38,4.38,0,0,0-.006,1.126c.008.095.016.189.021.283a1.757,1.757,0,0,0,1.689,1.677c.065.006.128.009.188.009a1.472,1.472,0,0,0,1.083-.436A1.827,1.827,0,0,0,143,66.647a23.33,23.33,0,0,1,.471-6.15,17.257,17.257,0,0,0,.406-3.323,14.7,14.7,0,0,1,.378-3.045c.67-2.467,1.33-4.937,2-7.455l.648-2.42a7.462,7.462,0,0,1,2.179.965c.288.165.574.328.866.479a2.262,2.262,0,0,0,1.047.314,1.428,1.428,0,0,0,1.335-.939,1.939,1.939,0,0,0,.021-1.538,1.778,1.778,0,0,0-1.077-.955c-.906-.321-1.815-.632-2.725-.943l-.437-.149c-1.12-.383-1.137-.49-.976-1.529a50.2,50.2,0,0,0,.526-12.414c-.362-3.881-1.2-8.307-4.636-11.707-1.776-1.755-4.239-3.768-7.546-3.768Zm-3.49,3.963a7.381,7.381,0,0,1,2.659-.5,9.217,9.217,0,0,1,7.833,5.307,15.913,15.913,0,0,1,1.7,6.02c.161,1.962.216,4.057.175,6.594a39.6,39.6,0,0,1-.418,5.9,5.933,5.933,0,0,1-2.4-2.179,67.016,67.016,0,0,1-5.529-9.274c-.324-.685-.685-1.351-1.035-1.994-.337-.62-.656-1.207-.946-1.813a14.371,14.371,0,0,1-1.706-6.425,3.488,3.488,0,0,0-.327-1.636Z" transform="translate(0 0)"/>
  </g>
  <g>
    <path class="cls-1" d="M99.887,21.143a5.378,5.378,0,0,1-4.651-2.98,5.409,5.409,0,0,1-.384-1.632c-.033-.265-.065-.529-.124-.79-.133-.59-.2-.59-.335-.59-.172,0-.287.006-.328.52-.015.189-.022.38-.03.57-.009.209-.018.418-.035.627a1.227,1.227,0,0,1-1.256,1.2,1.258,1.258,0,0,1-1.257-1.276c-.025-1.073-.029-2.147-.033-3.221l0-.768a4.887,4.887,0,0,0-.307-2.092,21.792,21.792,0,0,0-1.318,6.431c-.057.637-.176,1.961-1.635,1.961l-.162,0C86.539,19,86.62,17.63,86.659,16.969a15.885,15.885,0,0,0-.365-4.028A16.449,16.449,0,0,0,85.9,15.21c-.045.362-.09.72-.146,1.074a12.046,12.046,0,0,1-.489,2.167,1.592,1.592,0,0,1-1.479,1.115l-.126,0a1.788,1.788,0,0,1-1.588-1.42,2.414,2.414,0,0,1-.062-.713s0-4.9,0-7.288c0-.187,0-.354.013-.522a1.7,1.7,0,0,1,1.533-1.755,1.5,1.5,0,0,1,.154-.014,1.58,1.58,0,0,1,.859.347,1.539,1.539,0,0,0,.343.192,2.055,2.055,0,0,0,.239-.521,1,1,0,0,1,.978-.717,2.494,2.494,0,0,1,2.033,1.9c.1.308.2.614.3.944a7.071,7.071,0,0,0,.321-1.052,6.8,6.8,0,0,1,.341-1.1l.095-.234c.208-.525.521-1.32,1.468-1.32a1.662,1.662,0,0,1,.174.009,2.518,2.518,0,0,1,2.168,1.34,9.373,9.373,0,0,1,.837,2.638c.021.146.038.294.055.442a5.628,5.628,0,0,0,.151.9c.063.218.215.509.8.523h.01c.16,0,.336-.009.468-.5a7.679,7.679,0,0,1,1.105-2.189c.142-.217.282-.435.416-.657a3.76,3.76,0,0,1,1-1.026,5.776,5.776,0,0,0,.457-.382,1.885,1.885,0,0,1,1.311-.554,1.859,1.859,0,0,1,.794.181,1.709,1.709,0,0,1,.789,1.935,8.64,8.64,0,0,1-3.036,5.9c-.953.841-1.043,1.371-.4,2.363.576.891,1.015,1.005,1.331,1.005a2.137,2.137,0,0,0,.942-.278c.079-.04.158-.085.236-.13a2.011,2.011,0,0,1,.974-.347,1.185,1.185,0,0,1,1.054.745,1.726,1.726,0,0,1,.044,1.476,2.279,2.279,0,0,1-1.391,1.292A3.525,3.525,0,0,1,99.887,21.143Z" transform="translate(0 0)"/>
    <path class="cls-2" d="M90.693,6.786a1.175,1.175,0,0,1,.122.007,1.988,1.988,0,0,1,1.766,1.054,8.974,8.974,0,0,1,.8,2.5,10.565,10.565,0,0,0,.22,1.413,1.226,1.226,0,0,0,1.273.884h.03c.562,0,.811-.379.943-.869a11.076,11.076,0,0,1,1.467-2.72,6.889,6.889,0,0,1,1.376-1.306,1.329,1.329,0,0,1,1.544-.279c.618.29.546.942.5,1.478a8.146,8.146,0,0,1-2.865,5.526c-1.089.961-1.3,1.764-.491,3.009.536.829,1.082,1.235,1.75,1.235a2.616,2.616,0,0,0,1.169-.332,2.6,2.6,0,0,1,.983-.423c.217,0,.423.122.611.479a1.567,1.567,0,0,1-1.059,2.06,3.027,3.027,0,0,1-.943.143,4.919,4.919,0,0,1-4.195-2.685,11.35,11.35,0,0,1-.476-2.327c-.1-.43-.2-.98-.823-.98h-.023c-.619.013-.762.472-.8.98-.031.4-.033.8-.065,1.2a.734.734,0,0,1-.758.736h-.024a.748.748,0,0,1-.733-.788c-.031-1.277-.031-2.555-.037-3.833a4.545,4.545,0,0,0-.887-3.286,20.458,20.458,0,0,0-1.737,7.436c-.085.957-.284,1.506-1.136,1.506-.042,0-.086,0-.131,0-1.017-.061-.938-.943-.9-1.649a20.379,20.379,0,0,0-.735-5.762,15.254,15.254,0,0,0-1.164,5.024,11.651,11.651,0,0,1-.467,2.079,1.085,1.085,0,0,1-1.007.782q-.042,0-.086,0a1.308,1.308,0,0,1-1.147-1.057,2.689,2.689,0,0,1-.042-.715q0-3.585,0-7.169c0-.16,0-.319.011-.479a1.2,1.2,0,0,1,1.122-1.288.375.375,0,0,1,.066-.006c.379,0,.8.54,1.207.54.249,0,.49-.2.71-.863a.5.5,0,0,1,.5-.375A2.044,2.044,0,0,1,87.689,9.2c.19.6.389,1.2.639,1.974.912-1.079.852-2.191,1.261-3.131.235-.538.391-1.254,1.1-1.254m-6.1,4.344c.053,0,.089-.066.1-.193,0-.061-.046-.125-.071-.188-.043.037-.107.066-.125.113s-.039.158-.007.2a.158.158,0,0,0,.108.071m6.1-5.344a2.115,2.115,0,0,0-1.932,1.636c-.029.075-.058.149-.089.219a5.415,5.415,0,0,0-.248.715,2.822,2.822,0,0,0-2.292-1.7,1.5,1.5,0,0,0-1.441,1.026,1.823,1.823,0,0,0-.979-.328,1.369,1.369,0,0,0-.242.021A2.2,2.2,0,0,0,81.525,9.6c-.008.175-.012.35-.012.525,0,2.4,0,4.787,0,7.17l0,.129a2.85,2.85,0,0,0,.081.856,2.293,2.293,0,0,0,2.028,1.782q.085.007.167.007a2.083,2.083,0,0,0,1.949-1.448,10.4,10.4,0,0,0,.425-1.727l0,.049c-.037.627-.15,2.533,1.839,2.652q.1.006.191.006c1.917,0,2.079-1.82,2.133-2.417a28.22,28.22,0,0,1,.628-4.239v.005l0,.666c0,1.062.009,2.124.034,3.186A1.737,1.737,0,0,0,92.7,18.561h0a1.726,1.726,0,0,0,1.749-1.33,4.676,4.676,0,0,0,.334,1.138,5.907,5.907,0,0,0,5.107,3.274,4.025,4.025,0,0,0,1.254-.193,2.785,2.785,0,0,0,1.7-1.58,2.219,2.219,0,0,0-.066-1.9,1.667,1.667,0,0,0-1.5-1.012,2.441,2.441,0,0,0-1.222.413c-.071.041-.143.082-.214.118a1.7,1.7,0,0,1-.716.224c-.112,0-.408,0-.911-.777-.473-.732-.5-1,.312-1.716a9.1,9.1,0,0,0,3.2-6.189,2.228,2.228,0,0,0-1.07-2.471,2.353,2.353,0,0,0-1.006-.229,2.384,2.384,0,0,0-1.659.695,5.281,5.281,0,0,1-.417.348A4.245,4.245,0,0,0,96.452,8.54c-.13.217-.267.428-.4.64a8.089,8.089,0,0,0-1.17,2.333,1.218,1.218,0,0,1-.04.125c-.239-.017-.259-.088-.279-.157a5.249,5.249,0,0,1-.134-.821c-.017-.154-.035-.307-.057-.459a9.852,9.852,0,0,0-.878-2.776A2.931,2.931,0,0,0,90.919,5.8a2.171,2.171,0,0,0-.226-.012Z" transform="translate(0 0)"/>
  </g>
  <g>
    <path class="cls-1" d="M53.521,59.97a1.57,1.57,0,0,1-1.528-1.213,6.524,6.524,0,0,1-.24-2.258c0-.169,0-.338,0-.507,0-.427-.029-.853-.057-1.278l-.035-.61c-.029-.569-.188-.569-.316-.569a1.181,1.181,0,0,0-.27.038c-.158.039-.64.156-.744.348a.68.68,0,0,0,.037.455,8.749,8.749,0,0,1,.373,2.7c.013.4.024.8.065,1.2a1.5,1.5,0,1,1-3,.087,9.974,9.974,0,0,1,.052-1.418,6.981,6.981,0,0,0,.016-1.638c-.133-.88-.313-.921-.646-.921a1.879,1.879,0,0,0-.285.024,7.158,7.158,0,0,1-1.049.074,10.445,10.445,0,0,1-1.479-.113,1.565,1.565,0,0,1-1.372-1.731,1.074,1.074,0,0,1,1.146-1.1,3.731,3.731,0,0,1,.435.034c.079.01.157.02.231.024a3.14,3.14,0,0,1,.583.105,2.392,2.392,0,0,0,.371.075c.31.027.571.045.789.045.413,0,.481-.068.482-.069a3.206,3.206,0,0,0-.111-1.411,3.7,3.7,0,0,1,.043-2.166,1.478,1.478,0,0,1,1.4-1.075,1.635,1.635,0,0,1,.2.013,1.37,1.37,0,0,1,1.215,1.511v.393c0,.412,0,.825.037,1.234.012.133.012.269.011.4a1.95,1.95,0,0,0,.026.443,3.171,3.171,0,0,0,1.141-.323,3.083,3.083,0,0,0-.025-1.161,1.015,1.015,0,0,0-.041-.135,1.74,1.74,0,0,1-.083-.291,1.7,1.7,0,0,1,.236-1.375,1.529,1.529,0,0,1,1.134-.558q.1-.009.185-.009c.885,0,1.46.628,1.539,1.681a8.809,8.809,0,0,1,0,.95,4.705,4.705,0,0,0,.078,1.333c.032.121.056.245.079.368.095.5.142.658.507.758a1.485,1.485,0,0,0,.389.059c.274,0,.522-.1.843-.6a5.41,5.41,0,0,1,4.074-2.556,3.837,3.837,0,0,1,.47-.031,1.909,1.909,0,0,1,1.475.56,2.221,2.221,0,0,1,.458,1.758,4.1,4.1,0,0,1-2.583,3.522A13.081,13.081,0,0,1,58,55.649c-.187.054-.376.108-.567.166a1,1,0,0,0,.666,1.033,3.155,3.155,0,0,0,1.356.436,1.375,1.375,0,0,0,.522-.1,1.57,1.57,0,0,0,.248-.141,2.908,2.908,0,0,1,.355-.2c.114-.051.233-.117.355-.183a2.642,2.642,0,0,1,1.2-.419,1.19,1.19,0,0,1,1.116.813c.476,1.063-.694,1.694-1.322,2.033l-.17.093a4.988,4.988,0,0,1-2.413.626,5.108,5.108,0,0,1-4.562-2.859,2.84,2.84,0,0,1-.2-.642c-.015-.065-.028-.129-.044-.19a4.052,4.052,0,0,0,.33,1.779,1.632,1.632,0,0,1,.092,1.334,1.3,1.3,0,0,1-.87.661A2.09,2.09,0,0,1,53.521,59.97Z" transform="translate(0 0)"/>
    <path class="cls-2" d="M48.41,47.6a1.119,1.119,0,0,1,.14.009c.573.073.773.481.777,1.019.005.556-.01,1.115.04,1.668.041.459-.1.969.293,1.357,2.033-.378,2.036-.378,1.855-2.091-.016-.156-.1-.3-.129-.46-.136-.75.1-1.271.924-1.348.048,0,.094-.007.139-.007.756,0,1,.626,1.04,1.218a12.885,12.885,0,0,0,.1,2.371c.154.592.1,1.252.937,1.482a1.977,1.977,0,0,0,.521.077,1.469,1.469,0,0,0,1.265-.837,4.915,4.915,0,0,1,3.713-2.328,3.34,3.34,0,0,1,.408-.027c1.04,0,1.537.59,1.435,1.774a3.613,3.613,0,0,1-2.288,3.109,24.477,24.477,0,0,1-2.566.835,1.479,1.479,0,0,0,.861,1.872,3.581,3.581,0,0,0,1.583.49,1.875,1.875,0,0,0,.709-.138c.219-.088.406-.253.622-.35a4.051,4.051,0,0,1,1.352-.558c.257,0,.487.133.659.518.315.7-.678,1.152-1.278,1.484a4.455,4.455,0,0,1-2.17.564,4.587,4.587,0,0,1-4.114-2.578c-.265-.544-.1-1.289-1.005-1.85a4.747,4.747,0,0,0,.181,3.211c.26.612.267,1.112-.456,1.318a1.574,1.574,0,0,1-.432.066,1.1,1.1,0,0,1-1.055-.874,8.03,8.03,0,0,1-.21-2.608c0-.637-.061-1.274-.093-1.911s-.254-1.043-.815-1.043a1.653,1.653,0,0,0-.388.052c-.769.187-1.4.483-1.06,1.453a15.982,15.982,0,0,1,.413,3.78.908.908,0,0,1-.978,1.086H49.33c-.669,0-.987-.448-1.022-1.079-.059-1.033.22-2.055.062-3.1-.122-.807-.325-1.347-1.141-1.347a2.427,2.427,0,0,0-.359.029,6.568,6.568,0,0,1-.975.069,10.079,10.079,0,0,1-1.409-.108,1.058,1.058,0,0,1-.944-1.191c.048-.53.323-.642.648-.642.207,0,.434.045.637.057.315.018.623.152.939.18s.6.047.835.047c1.107,0,1.166-.42.862-2.07a3.244,3.244,0,0,1,.014-1.885,1.025,1.025,0,0,1,.934-.765m9.954,5.466a.512.512,0,0,0,.074-.006.717.717,0,0,0,.616-.563c-.073-.086-.186-.253-.219-.253h0a1.845,1.845,0,0,0-.734.451c-.129.188.024.37.266.37M48.41,46.6h0a1.963,1.963,0,0,0-1.859,1.385,4.066,4.066,0,0,0-.082,2.4l.01.051c.072.391.117.688.135.889H46.6c-.178,0-.408-.013-.746-.044a2.258,2.258,0,0,1-.294-.062,3.551,3.551,0,0,0-.676-.12c-.064,0-.132-.013-.2-.021a4.2,4.2,0,0,0-.493-.038,1.577,1.577,0,0,0-1.644,1.551,2.052,2.052,0,0,0,1.8,2.272,10.961,10.961,0,0,0,1.55.118,7.6,7.6,0,0,0,1.124-.08,1.429,1.429,0,0,1,.21-.018h.041a2.388,2.388,0,0,1,.111.494,6.614,6.614,0,0,1-.018,1.521,10.282,10.282,0,0,0-.053,1.489,1.97,1.97,0,0,0,2.021,2.023,1.9,1.9,0,0,0,1.978-2.189c-.038-.373-.05-.755-.063-1.16a9.171,9.171,0,0,0-.4-2.848l-.013-.04a2.564,2.564,0,0,1,.33-.1q0,.028,0,.061c.01.208.023.416.036.624.027.431.052.838.055,1.243,0,.166,0,.333,0,.5a6.973,6.973,0,0,0,.267,2.425,2.077,2.077,0,0,0,2,1.551,2.575,2.575,0,0,0,.707-.1,1.773,1.773,0,0,0,1.184-.926,1.626,1.626,0,0,0,.155-.624,5.6,5.6,0,0,0,3.78,1.488A5.486,5.486,0,0,0,62,59.613l.165-.09c.6-.325,2.2-1.19,1.54-2.677a1.71,1.71,0,0,0-1.572-1.11,3.066,3.066,0,0,0-1.44.48c-.111.06-.219.12-.321.166a3.212,3.212,0,0,0-.421.236,1.718,1.718,0,0,1-.166.1.88.88,0,0,1-.335.066,2.812,2.812,0,0,1-1.13-.381.938.938,0,0,1-.317-.235l.128-.037a13.816,13.816,0,0,0,1.85-.63,4.579,4.579,0,0,0,2.875-3.936,2.694,2.694,0,0,0-.587-2.139A2.388,2.388,0,0,0,60.43,48.7a4.34,4.34,0,0,0-.531.034,5.889,5.889,0,0,0-4.434,2.784c-.238.374-.349.374-.422.374a1.023,1.023,0,0,1-.257-.042.336.336,0,0,1-.082-.031c-.005-.025-.041-.213-.064-.337s-.052-.269-.086-.4a4.334,4.334,0,0,1-.063-1.192,9.11,9.11,0,0,0,0-1,2.039,2.039,0,0,0-2.037-2.143c-.074,0-.151,0-.232.011a2.009,2.009,0,0,0-1.485.753,2.177,2.177,0,0,0-.33,1.769,2.361,2.361,0,0,0,.1.365c.008.024.017.047.024.07.023.24.053.533.059.723-.06.017-.131.035-.212.054,0-.1,0-.192-.012-.286-.034-.378-.034-.77-.034-1.184v-.4a1.867,1.867,0,0,0-1.652-2,2.12,2.12,0,0,0-.266-.017Z" transform="translate(0 0)"/>
  </g>
  <g>
    <path class="cls-1" d="M29.426,39.713c-.9,0-1.258-1.087-1.375-1.445a27.8,27.8,0,0,1-.969-4.713,35.456,35.456,0,0,0-.628-3.5,1.272,1.272,0,0,1,.5-1.322,5.826,5.826,0,0,1,6.2-.589,12.545,12.545,0,0,1,3.605,3.217,1.464,1.464,0,0,0,.261-.433,2.618,2.618,0,0,1,.373-.621,4.761,4.761,0,0,1,2.854-1.778,2.263,2.263,0,0,1,.328-.025,1.546,1.546,0,0,1,.459,3.023c-2.075.87-2.575,1.63-2.326,3.534.106.813.3,1.143.735,1.258a1.161,1.161,0,0,0,.293.042c.359,0,.645-.236,1.052-.872a4.6,4.6,0,0,0,.914-3.017,1.948,1.948,0,0,1,.411-1.531,1.513,1.513,0,0,1,1.166-.471,1.767,1.767,0,0,1,1.322.541,1.965,1.965,0,0,1,.444,1.478c-.148,2.306.368,3.855,1.675,5.022a1.111,1.111,0,0,1,.291,1.5,1.278,1.278,0,0,1-1.081.557,1.713,1.713,0,0,1-.569-.1A3.367,3.367,0,0,1,43.594,38.2a4.025,4.025,0,0,1-.25-.445,1.988,1.988,0,0,0-.275-.453c-1.328,1.349-2.448,1.979-3.506,1.979-1.408,0-2.611-1.128-3.667-3.444a7.694,7.694,0,0,1-4.655,2.348c.022,0-.01.071-.031.118a1.677,1.677,0,0,1-.205.349c-.585.722-1.086,1.058-1.577,1.058Zm1.221-9.429a1.32,1.32,0,0,0-.914.213,1.33,1.33,0,0,0-.137.941c.088,1,.264,2,.451,3.05.056.316.112.635.167.958l.329-.042c.472-.06.869-.11,1.258-.2a3.729,3.729,0,0,0,2.439-2.118A3.545,3.545,0,0,0,31.977,30.5a4.346,4.346,0,0,0-1.252-.213l-.079-.5Z" transform="translate(0 0)"/>
    <path class="cls-2" d="M30.538,28.013a5,5,0,0,1,2.383.569,12.282,12.282,0,0,1,3.661,3.366c.793-.07.808-.87,1.2-1.313a4.206,4.206,0,0,1,2.551-1.612,1.735,1.735,0,0,1,.255-.02.986.986,0,0,1,1.021.81c.179.665-.141.994-.755,1.252-2.307.967-2.905,1.941-2.628,4.059.1.749.292,1.463,1.1,1.677a1.643,1.643,0,0,0,.42.058c.657,0,1.072-.476,1.474-1.1a5.112,5.112,0,0,0,.991-3.332c-.072-.776.2-1.456,1.08-1.456l.073,0a1.234,1.234,0,0,1,1.194,1.486c-.133,2.07.2,3.96,1.841,5.427a.639.639,0,0,1,.214.844.784.784,0,0,1-.672.343,1.222,1.222,0,0,1-.4-.073,2.849,2.849,0,0,1-1.528-1.072c-.3-.438-.412-1.065-1.032-1.243-1.218,1.3-2.348,2.1-3.413,2.1-1.243,0-2.4-1.1-3.493-3.8-1.386,1.374-2.857,2.555-4.874,2.711-.377.029-.4.422-.58.651-.47.58-.86.872-1.189.872-.368,0-.659-.365-.9-1.1-.872-2.655-.911-5.48-1.586-8.179a.8.8,0,0,1,.346-.823,5.058,5.058,0,0,1,3.253-1.1M29.8,36.007c.879-.128,1.507-.176,2.113-.316,1.27-.293,2.795-1.718,2.827-2.586.04-1.072-1.267-2.649-2.608-3.084a4.845,4.845,0,0,0-1.4-.237h-.087c-1.225,0-1.66.417-1.548,1.7.13,1.485.449,2.954.7,4.525m.739-8.994a6.033,6.033,0,0,0-3.906,1.34,1.762,1.762,0,0,0-.663,1.823,34.741,34.741,0,0,1,.619,3.451,28.156,28.156,0,0,0,.988,4.8c.39,1.187,1.012,1.789,1.851,1.789a2.782,2.782,0,0,0,1.965-1.241,1.823,1.823,0,0,0,.2-.316,7.819,7.819,0,0,0,4.14-2c1.082,2.1,2.342,3.13,3.828,3.13a5.147,5.147,0,0,0,3.4-1.678,3.658,3.658,0,0,0,.219.377A3.835,3.835,0,0,0,45.2,39.939a2.212,2.212,0,0,0,.734.13,1.791,1.791,0,0,0,1.493-.772,1.6,1.6,0,0,0-.369-2.16c-1.2-1.069-1.648-2.45-1.509-4.617a2.483,2.483,0,0,0-.572-1.845,2.185,2.185,0,0,0-1.578-.7l-.115,0a2.336,2.336,0,0,0-.639.084,2.359,2.359,0,0,0-.079-.5A1.977,1.977,0,0,0,40.583,28a2.735,2.735,0,0,0-.4.031,5.212,5.212,0,0,0-3.157,1.944,2.528,2.528,0,0,0-.333.5A12.662,12.662,0,0,0,33.4,27.7a5.975,5.975,0,0,0-2.862-.691Zm-.431,3.829a1.69,1.69,0,0,1,.538-.059h.072a3.829,3.829,0,0,1,1.105.189,3.125,3.125,0,0,1,1.917,2.1,3.574,3.574,0,0,1-2.052,1.649c-.318.073-.654.119-1.064.172q-.042-.24-.084-.478c-.185-1.044-.36-2.031-.446-3.016a1.674,1.674,0,0,1,.014-.552Zm.01-.03h0Zm9.625,5.047a.663.663,0,0,1-.164-.025c-.125-.033-.267-.07-.367-.84-.206-1.577.031-2.166,1.991-2.994a3.382,3.382,0,0,0,.01.516,4.091,4.091,0,0,1-.838,2.7c-.362.566-.522.642-.631.642Z" transform="translate(0 0)"/>
  </g>
  <g>
    <path class="cls-1" d="M75.059,62.462a1.974,1.974,0,0,1-.917-.281,12.877,12.877,0,0,1-2.617-2.016,14.128,14.128,0,0,0-2.01-1.634l-.179-.113a7.682,7.682,0,0,0-2.092-1.038,4.425,4.425,0,0,0-.081,1.316c.01.253.019.5.007.75a1.725,1.725,0,0,1-1.526,1.817,2.155,2.155,0,0,1-.31.023A1.672,1.672,0,0,1,63.685,59.9a38.671,38.671,0,0,1-.985-8.094,1.689,1.689,0,0,1,.4-1.292,1.229,1.229,0,0,1,.9-.384,1.644,1.644,0,0,1,.887.283,1.031,1.031,0,0,0,.468.2,1.267,1.267,0,0,0,.564-.274,3.1,3.1,0,0,1,1.7-.626,2.948,2.948,0,0,1,2.088,1.175,7.421,7.421,0,0,1,.555.7l.205.281c1.548,2.047,1.587,2.686-.274,4.234l.245.182a18.225,18.225,0,0,0,3.376,2.155,10.362,10.362,0,0,0-.445-4.113c-.054-.192-.126-.38-.2-.568a6.42,6.42,0,0,1-.266-.809,1.4,1.4,0,0,1,.837-1.763,1.274,1.274,0,0,1,.462-.09,1.374,1.374,0,0,1,1.146.7l.112.163a3.238,3.238,0,0,1,.635,1.3l.055.356c.385,2.493.782,5.07.054,7.669C76.11,61.644,75.881,62.462,75.059,62.462ZM67.573,53c-.009.061-.015.1.117.135a.96.96,0,0,0,.229.042c.027,0,.067,0,.121-.076a.3.3,0,0,0-.229-.17.766.766,0,0,0-.171-.024.231.231,0,0,0-.05,0C67.592,52.919,67.581,52.947,67.573,53Z" transform="translate(0 0)"/>
    <path class="cls-2" d="M67.62,50.22a2.438,2.438,0,0,1,1.721,1.014c.269.292.488.63.728.948,1.5,1.985,1.466,2.25-.694,3.95a20.094,20.094,0,0,0,4.835,3.021,10.43,10.43,0,0,0-.36-4.95c-.13-.458-.348-.894-.457-1.356a.915.915,0,0,1,.533-1.182.763.763,0,0,1,.279-.056.929.929,0,0,1,.733.477,3.421,3.421,0,0,1,.666,1.26c.4,2.6.854,5.2.121,7.815-.139.5-.3.8-.668.8a1.533,1.533,0,0,1-.681-.223c-1.764-.941-2.931-2.589-4.6-3.633A7.67,7.67,0,0,0,66.928,56.8a6.084,6.084,0,0,0-.257,2.625,1.242,1.242,0,0,1-1.1,1.344,1.613,1.613,0,0,1-.236.018,1.182,1.182,0,0,1-1.165-1.012,38.41,38.41,0,0,1-.973-8.051c-.033-.647.308-1.09.8-1.09a1.159,1.159,0,0,1,.617.2,1.4,1.4,0,0,0,.737.283,1.588,1.588,0,0,0,.841-.357,2.647,2.647,0,0,1,1.427-.543m.3,3.459c.249,0,.481-.117.657-.519a.828.828,0,0,0-.65-.714,1.255,1.255,0,0,0-.286-.037.527.527,0,0,0-.563.522.593.593,0,0,0,.475.686,1.351,1.351,0,0,0,.366.062m-.3-4.459v0a3.565,3.565,0,0,0-1.98.71,2.8,2.8,0,0,1-.294.178c-.028-.016-.091-.049-.192-.113A2.133,2.133,0,0,0,64,49.633a1.723,1.723,0,0,0-1.261.539,2.132,2.132,0,0,0-.54,1.6l0,.064a39.051,39.051,0,0,0,1,8.194,2.166,2.166,0,0,0,2.131,1.754,2.612,2.612,0,0,0,.383-.029,2.235,2.235,0,0,0,1.953-2.29c.011-.26,0-.523-.007-.789-.008-.221-.016-.43-.009-.629a9.915,9.915,0,0,1,1.412.789l.183.115a13.726,13.726,0,0,1,1.936,1.579,13.308,13.308,0,0,0,2.722,2.089,2.438,2.438,0,0,0,1.152.34c.8,0,1.346-.515,1.631-1.532.757-2.7.352-5.334-.041-7.879l-.055-.357a3.683,3.683,0,0,0-.721-1.517l-.106-.154a1.892,1.892,0,0,0-1.561-.916,1.762,1.762,0,0,0-.644.125,1.908,1.908,0,0,0-1.141,2.343,7.015,7.015,0,0,0,.285.873c.066.174.133.348.183.526a10.835,10.835,0,0,1,.479,3.2,20.056,20.056,0,0,1-2.385-1.6c1.671-1.574,1.4-2.5-.116-4.5-.068-.089-.134-.181-.2-.272a7.806,7.806,0,0,0-.591-.75A3.438,3.438,0,0,0,67.62,49.22Z" transform="translate(0 0)"/>
  </g>
  <g>
    <path class="cls-1" d="M126.468,58.294a4.528,4.528,0,0,1-.743-.065c-3.607-.725-7.776-6.076-7.561-9.7a1.2,1.2,0,0,1,1.214-1.235,1.608,1.608,0,0,1,.366.044,17.193,17.193,0,0,0,3.621.284,87.463,87.463,0,0,0,9.981-.732,3.527,3.527,0,0,1,.852-.11,1.779,1.779,0,0,1,1.817,2.462,10.05,10.05,0,0,0-.307,2.208c-.026.409-.053.817-.1,1.227a3.052,3.052,0,0,1-1.438,2.6c-.555.284-1.1.59-1.644.9a21.335,21.335,0,0,1-4.184,1.962,4.53,4.53,0,0,1-1.066.152c-.115.006-.224.012-.32.023l-.056,0C126.886,58.312,126.59,58.3,126.468,58.294Zm3.1-8.758a46.288,46.288,0,0,0-6.413.6c-.717.1-1.155.3-1.283.577s0,.739.352,1.312a9.967,9.967,0,0,0,2.216,2.563,3.853,3.853,0,0,0,2.478.951A4.849,4.849,0,0,0,129,55.019c.278-.132.549-.282.819-.432a10.549,10.549,0,0,1,1.341-.659,2.2,2.2,0,0,0,1.585-2.652,4.146,4.146,0,0,1-.025-.643c.009-.688-.01-.854-.576-.93A18.931,18.931,0,0,0,129.565,49.537Z" transform="translate(0 0)"/>
    <path class="cls-2" d="M134.2,47.275a1.287,1.287,0,0,1,1.337,1.823,21.747,21.747,0,0,0-.427,3.512,2.548,2.548,0,0,1-1.171,2.222,35.743,35.743,0,0,1-5.744,2.824,6.671,6.671,0,0,1-1.3.156,8.83,8.83,0,0,1-1.073-.073c-3.35-.673-7.361-5.819-7.161-9.184.03-.5.309-.765.715-.765a1.108,1.108,0,0,1,.252.031,17.878,17.878,0,0,0,3.735.3,87.275,87.275,0,0,0,10.09-.745,3.071,3.071,0,0,1,.743-.1m-7.284,8.77a5.378,5.378,0,0,0,2.3-.575c.717-.34,1.387-.795,2.125-1.075a2.688,2.688,0,0,0,1.9-3.184c-.115-.768.309-1.823-1.03-2a19.614,19.614,0,0,0-2.646-.17,46.718,46.718,0,0,0-6.533.617c-1.731.245-2.162,1.144-1.236,2.64a10.516,10.516,0,0,0,2.325,2.689,4.36,4.36,0,0,0,2.793,1.062m7.284-9.77a4.072,4.072,0,0,0-.986.129,88.465,88.465,0,0,1-9.847.715,16.756,16.756,0,0,1-3.507-.271,2.11,2.11,0,0,0-.48-.057,1.705,1.705,0,0,0-1.714,1.706c-.232,3.9,4.084,9.444,7.962,10.223a4.809,4.809,0,0,0,.828.075c.117,0,.242.007.38.016l.063,0a1,1,0,0,0,.11-.006c.089-.01.187-.015.292-.021a4.9,4.9,0,0,0,1.186-.173,21.726,21.726,0,0,0,4.286-2.005c.531-.3,1.081-.607,1.623-.885a3.52,3.52,0,0,0,1.706-2.987c.054-.43.082-.851.108-1.258a9.717,9.717,0,0,1,.288-2.1,2.452,2.452,0,0,0-.3-2.2,2.412,2.412,0,0,0-2-.9Zm-11.875,4.654s.15-.186.849-.285a46.226,46.226,0,0,1,6.393-.607,18.5,18.5,0,0,1,2.512.161,1,1,0,0,1,.135.027,3.726,3.726,0,0,1,.008.4,4.472,4.472,0,0,0,.033.733,1.7,1.7,0,0,1-1.269,2.1,10.9,10.9,0,0,0-1.41.691c-.26.144-.521.288-.788.415a4.363,4.363,0,0,1-1.872.479,3.379,3.379,0,0,1-2.164-.84,9.462,9.462,0,0,1-2.1-2.438c-.374-.6-.324-.836-.323-.839Z" transform="translate(0 0)"/>
  </g>
  <g>
    <path class="cls-1" d="M36.319,17.15a1.5,1.5,0,0,1-1.455-1.625,23.887,23.887,0,0,0-.479-5.106l-.115-.5a7.889,7.889,0,0,1-.292-2.175,1.622,1.622,0,0,1,1.585-1.73A1.753,1.753,0,0,1,35.739,6c1.07,0,1.134.965,1.161,1.377,0,.077.01.152.019.225a5.086,5.086,0,0,1,.019.672c0,.182-.006.361.008.544a3.045,3.045,0,0,0,.44-1.13c.114-1.545,1.236-1.737,1.979-1.863a2.759,2.759,0,0,1,.47-.042,1.957,1.957,0,0,1,1.827,1.186c.192.376.407.742.633,1.121.212-.4.409-.785.569-1.172a2.062,2.062,0,0,1,2-1.481,2.974,2.974,0,0,1,.352.021,1.855,1.855,0,0,1,1.57,1.6c.028.095.057.188.088.278a8.365,8.365,0,0,1,.326,1.5c.034.224.068.448.111.669s.073.471.1.708a2.362,2.362,0,0,0,.625,1.658,1.293,1.293,0,0,1,.415,1.147,1.416,1.416,0,0,1-.846,1.056,1.717,1.717,0,0,1-.726.172,1.544,1.544,0,0,1-1.334-.821,8.821,8.821,0,0,1-1.056-3.387,7.411,7.411,0,0,0-.735,2.206l-.122.538c-.188.788-.313,1.616-.436,2.417l-.055.362a1.514,1.514,0,0,1-1.611,1.412,1.332,1.332,0,0,1-.992-.359,1.7,1.7,0,0,1-.371-1.275c.006-.354.016-.709.025-1.065.028-1.05.057-2.137-.011-3.187L40.17,10.8c-.047-1.061-.165-1.354-.553-1.364h0c-.376,0-.522.417-.7,1.294l-.073.35c-.173.761-.3,1.554-.423,2.321-.074.464-.149.929-.233,1.391A7.944,7.944,0,0,1,37.855,16a1.474,1.474,0,0,1-1.424,1.156Z" transform="translate(0 0)"/>
    <path class="cls-2" d="M44.866,5.939a2.459,2.459,0,0,1,.292.018c.949.114,1.027.919,1.246,1.548a15.147,15.147,0,0,1,.419,2.1c.178.911.051,1.881.877,2.638a.818.818,0,0,1-.3,1.381,1.221,1.221,0,0,1-.515.126,1.081,1.081,0,0,1-.911-.588c-.775-1.229-.866-2.67-1.182-4.336a7.167,7.167,0,0,0-1.64,3.843c-.222.927-.353,1.876-.5,2.82a1.023,1.023,0,0,1-1.118.988h0c-.772,0-.868-.508-.858-1.126.025-1.431.106-2.868.014-4.293-.052-.816.022-2.092-1.053-2.121H39.6c-.958,0-1.057,1.225-1.241,2.034-.28,1.231-.434,2.489-.661,3.732a7.447,7.447,0,0,1-.315,1.133c-.161.455-.436.822-.952.822l-.078,0a1,1,0,0,1-.989-1.125,24.466,24.466,0,0,0-.491-5.213,9.848,9.848,0,0,1-.4-2.55,1.137,1.137,0,0,1,1.132-1.254c.046,0,.089-.007.13-.007.716,0,.623.655.682,1.16a4.867,4.867,0,0,0,.408,2.466,8.709,8.709,0,0,0,1.054-2.4c.082-1.117.746-1.268,1.565-1.407a2.3,2.3,0,0,1,.385-.035,1.47,1.47,0,0,1,1.382.913c.324.634.709,1.236,1.107,1.922.368-.73.73-1.351,1-2.009a1.585,1.585,0,0,1,1.54-1.173m0-1h0A2.56,2.56,0,0,0,42.4,6.731q-.064.154-.137.311-.082-.149-.158-.3a2.445,2.445,0,0,0-2.272-1.458,3.312,3.312,0,0,0-.553.049,2.693,2.693,0,0,0-2.061,1.141A1.475,1.475,0,0,0,35.74,5.5c-.07,0-.145,0-.225.011A2.12,2.12,0,0,0,33.478,7.72a8.242,8.242,0,0,0,.3,2.309c.038.163.077.328.113.494a23.353,23.353,0,0,1,.469,5,1.985,1.985,0,0,0,1.922,2.125q.075.005.146,0a1.956,1.956,0,0,0,1.895-1.489,8.409,8.409,0,0,0,.355-1.286c.085-.464.16-.93.235-1.4.128-.8.248-1.547.418-2.294.026-.115.051-.238.076-.364a5.926,5.926,0,0,1,.19-.769,5.794,5.794,0,0,1,.069.763c0,.1.009.206.015.3.066,1.028.038,2.055.009,3.142-.01.357-.019.713-.025,1.07a2.211,2.211,0,0,0,.515,1.635,1.8,1.8,0,0,0,1.343.508,2.019,2.019,0,0,0,2.111-1.836l.057-.374c.125-.823.242-1.6.425-2.364.043-.182.084-.365.125-.549.036-.163.071-.322.108-.478a6.542,6.542,0,0,0,.772,1.82,2.064,2.064,0,0,0,1.757,1.054,2.214,2.214,0,0,0,.938-.219,1.909,1.909,0,0,0,1.128-1.433,1.791,1.791,0,0,0-.572-1.592c-.334-.306-.39-.672-.466-1.344-.028-.25-.057-.5-.106-.748-.042-.213-.074-.429-.107-.645a8.664,8.664,0,0,0-.349-1.589c-.029-.083-.055-.169-.081-.257a2.332,2.332,0,0,0-1.99-1.954,3.456,3.456,0,0,0-.411-.025Z" transform="translate(0 0)"/>
  </g>
  <g>
    <path class="cls-1" d="M8.813,16.813a1.333,1.333,0,0,1-1.3-1.479,12.359,12.359,0,0,0-.146-1.546c-.034-.255-.068-.51-.1-.765-.1-.92-.417-.993-.824-.993a3.075,3.075,0,0,0-.521.053c-.5.088-1.006.126-1.542.167L4,12.278a3.343,3.343,0,0,0,.353,1.539,1.421,1.421,0,0,1,.072,1.266,1.35,1.35,0,0,1-1,.673,2.772,2.772,0,0,1-.558.062A1.366,1.366,0,0,1,1.4,14.5c-.155-1.373-.353-3.181-.492-5A26.875,26.875,0,0,1,.882,6.726a15.132,15.132,0,0,0-.326-4.51,1.272,1.272,0,0,1,.167-1.1A1.622,1.622,0,0,1,1.97.5L2.1.5A1.382,1.382,0,0,1,3.56,1.987l.034,2.246c.018,1.231.034,2.462.063,3.693l0,.2c.007.62.048.946.255,1l.249.069a6.88,6.88,0,0,0,1.776.332,2.47,2.47,0,0,0,.72-.1c0-.03-.032-.25-.052-.368l-.018-.11c-.075-.49-.146-.981-.216-1.472-.132-.923-.265-1.846-.426-2.763l-.023-.128a1.939,1.939,0,0,1,.22-1.617,1.61,1.61,0,0,1,1.271-.8c.019,0,.133.006.15.008A1.183,1.183,0,0,1,8.578,3.4l.17,1.235c.151,1.108.3,2.216.478,3.321.157,1.007.464,1.553,1.629,1.553a.512.512,0,0,1,.493.371.5.5,0,0,1-.224.563c-1.284.742-1.314,1.58-.92,2.867a5.046,5.046,0,0,1,.274,2.086,1.557,1.557,0,0,1-1.653,1.415Z" transform="translate(0 0)"/>
    <path class="cls-2" d="M2.1,1A.892.892,0,0,1,3.06,2c.034,1.98.051,3.961.1,5.941.014.629-.049,1.484.626,1.668a8.356,8.356,0,0,0,2.156.418A2.975,2.975,0,0,0,6.8,9.9c.468-.141.341-.634.28-1.031-.216-1.415-.4-2.837-.644-4.246a1.628,1.628,0,0,1,.11-1.367,1.1,1.1,0,0,1,.864-.589.865.865,0,0,1,.1.005c.518.058.529.5.584.889.208,1.492.4,2.986.636,4.474.169,1.074.557,1.975,2.124,1.975h.019c-1.639.947-1.544,2.152-1.148,3.446a4.557,4.557,0,0,1,.255,1.882,1.065,1.065,0,0,1-1.16.973H8.813c-.548,0-.8-.459-.8-.984-.008-.8-.16-1.576-.244-2.36-.114-1.062-.555-1.44-1.322-1.44a3.528,3.528,0,0,0-.608.061c-.7.124-1.42.144-2.295.225A3.632,3.632,0,0,0,3.9,14.028c.319.689.09,1.1-.58,1.239a2.269,2.269,0,0,1-.457.052.878.878,0,0,1-.965-.873C1.7,12.787,1.53,11.126,1.4,9.461c-.187-2.454.31-4.937-.366-7.378C.856,1.427,1.362,1.043,2,1q.052,0,.1,0m0-1h0q-.08,0-.164.005A2.117,2.117,0,0,0,.315.827,1.763,1.763,0,0,0,.073,2.35,14.743,14.743,0,0,1,.382,6.713,27.473,27.473,0,0,0,.406,9.538c.14,1.835.338,3.647.495,5.021a1.866,1.866,0,0,0,1.958,1.76,3.269,3.269,0,0,0,.66-.073,1.82,1.82,0,0,0,1.348-.938,1.887,1.887,0,0,0-.064-1.7,3.331,3.331,0,0,1-.278-.868,14.868,14.868,0,0,0,1.489-.165,2.574,2.574,0,0,1,.433-.046.517.517,0,0,1,.2.024,1.224,1.224,0,0,1,.131.522c.028.26.063.519.1.778a12.086,12.086,0,0,1,.141,1.486,1.824,1.824,0,0,0,1.8,1.974,2.056,2.056,0,0,0,2.161-1.856,5.543,5.543,0,0,0-.292-2.292c-.386-1.259-.237-1.751.692-2.287a1,1,0,0,0-.5-1.866h-.005c-.8,0-1-.2-1.15-1.131-.173-1.1-.324-2.207-.476-3.312L9.085,3.425l-.011-.086A1.671,1.671,0,0,0,7.622,1.68a1.863,1.863,0,0,0-.206-.012A2.087,2.087,0,0,0,5.738,2.674a2.417,2.417,0,0,0-.305,2l.022.122c.158.9.292,1.829.42,2.727.072.5.143,1,.219,1.494q-.076.005-.156.005A6.421,6.421,0,0,1,4.3,8.71l-.107-.03a4.5,4.5,0,0,1-.03-.565l0-.2C4.128,6.7,4.111,5.478,4.094,4.26q-.016-1.14-.035-2.281A1.885,1.885,0,0,0,2.1,0Z" transform="translate(0 0)"/>
  </g>
  <g>
    <path class="cls-1" d="M72.329,19.429a2.307,2.307,0,0,1-1.359-.462,1.686,1.686,0,0,1-.306-2.41c1.139-1.652.768-3.388.375-5.225l-.08-.375a3.4,3.4,0,0,0-.226-.794c-.164-.329-.392-.525-.607-.525-.187,0-.384.155-.54.424a6.446,6.446,0,0,0-.909,4.272,7.638,7.638,0,0,1-.039,2.064,9.312,9.312,0,0,0-.087,1.3,1.454,1.454,0,0,1-.4,1.068,1.658,1.658,0,0,1-1.186.486h0a1.332,1.332,0,0,1-1-.377,1.7,1.7,0,0,1-.412-1.273c.014-.573.045-1.145.077-1.717l.037-.686a17.812,17.812,0,0,0-.323-3.826c-.116-.744-.236-1.513-.3-2.283C64.958,8.07,64.981,7.4,65.353,7a1.09,1.09,0,0,1,.84-.335,4.871,4.871,0,0,1,1.63.417.562.562,0,0,0,.2.041,1.1,1.1,0,0,0,.416-.126,3.019,3.019,0,0,1,.391-.149,5.718,5.718,0,0,1,1.545-.251,2.946,2.946,0,0,1,2.776,2.325A15.085,15.085,0,0,1,74.174,15.2a4.8,4.8,0,0,1-.152.812,1.923,1.923,0,0,0-.074,1.1,1.576,1.576,0,0,1-.911,2.186A2.015,2.015,0,0,1,72.329,19.429Z" transform="translate(0 0)"/>
    <path class="cls-2" d="M70.376,7.092c1.106,0,1.8.593,2.306,2a14.614,14.614,0,0,1,.993,6.08c-.053.706-.454,1.387-.2,2.115a1.08,1.08,0,0,1-.615,1.552,1.517,1.517,0,0,1-.533.1,1.822,1.822,0,0,1-1.064-.366,1.186,1.186,0,0,1-.188-1.722c1.344-1.949.8-3.961.371-5.986a3.808,3.808,0,0,0-.268-.915,1.249,1.249,0,0,0-1.055-.8,1.163,1.163,0,0,0-.972.674,6.986,6.986,0,0,0-.97,4.6,25.238,25.238,0,0,1-.132,3.3,1.015,1.015,0,0,1-1.091,1.041h-.024c-.686,0-.9-.53-.883-1.139.019-.8.074-1.593.113-2.39.123-2.091-.451-4.113-.625-6.176-.112-1.329-.014-1.885.652-1.885a4.671,4.671,0,0,1,1.453.384,1.054,1.054,0,0,0,.378.073,3.324,3.324,0,0,0,.944-.295,5.258,5.258,0,0,1,1.408-.232M67.293,9.565l.139-.063L67.3,9.424l-.008.141m3.083-3.473h0a6.207,6.207,0,0,0-1.681.27,3.551,3.551,0,0,0-.456.172,1.484,1.484,0,0,1-.22.085,5.311,5.311,0,0,0-1.826-.458,1.579,1.579,0,0,0-1.208.5,3.188,3.188,0,0,0-.44,2.473c.066.789.188,1.567.305,2.32a17.483,17.483,0,0,1,.318,3.714l-.039.723c-.031.567-.063,1.134-.076,1.7a2.167,2.167,0,0,0,.554,1.634,1.8,1.8,0,0,0,1.328.528,2.181,2.181,0,0,0,1.579-.641,1.968,1.968,0,0,0,.535-1.427,9.069,9.069,0,0,1,.084-1.232,8.166,8.166,0,0,0,.037-2.194,5.953,5.953,0,0,1,.847-3.945.722.722,0,0,1,.111-.15.78.78,0,0,1,.156.223,2.875,2.875,0,0,1,.172.619l.012.056.08.378c.386,1.8.72,3.361-.3,4.835a2.155,2.155,0,0,0,.422,3.1,2.8,2.8,0,0,0,1.653.557,2.514,2.514,0,0,0,.882-.159,2.062,2.062,0,0,0,1.209-2.82,1.583,1.583,0,0,1,.087-.814,5.281,5.281,0,0,0,.166-.894,15.552,15.552,0,0,0-1.049-6.495,3.471,3.471,0,0,0-3.246-2.655Z" transform="translate(0 0)"/>
  </g>
  <g>
    <path class="cls-1" d="M56.225,41.19a1.653,1.653,0,0,1-1.283-.563,1.539,1.539,0,0,1-.314-1.285,10.448,10.448,0,0,0,.044-2.535c-.014-.229-.028-.458-.038-.687a3.835,3.835,0,0,0-1.414-3.106c-.026.056-.053.111-.078.167a8.361,8.361,0,0,0-1.011,3.084,5.519,5.519,0,0,1-.733,2.226,8.741,8.741,0,0,0-.461,1.021,1.657,1.657,0,0,1-1.6,1.185h0a2.045,2.045,0,0,1-.541-.076,1.655,1.655,0,0,1-1.247-1.865,12.861,12.861,0,0,0-.179-4.882c-.121-.737-.246-1.5-.312-2.265a1.529,1.529,0,0,1,.343-1.157,1.869,1.869,0,0,1,1.319-.59l.132,0a1.321,1.321,0,0,1,.976.373,1.6,1.6,0,0,1,.4,1.19c-.008.658-.008,1.316-.006,2.038a10.939,10.939,0,0,0,.384-1.052,9.3,9.3,0,0,1,.449-1.193c.448-.927,1.039-1.875,2.025-1.875a3.194,3.194,0,0,1,2.077,1.182,7.729,7.729,0,0,1,1.872,3.838l.173.632a10.818,10.818,0,0,1,.315,2.449,11.977,11.977,0,0,0,.188,1.847,1.622,1.622,0,0,1-.268,1.376,1.517,1.517,0,0,1-1.206.527Z" transform="translate(0 0)"/>
    <path class="cls-2" d="M53.085,29.839a2.836,2.836,0,0,1,1.728,1.039c1.218,1.194,1.482,2.73,1.913,4.25.4,1.405.2,2.856.495,4.261a.968.968,0,0,1-.987,1.3h-.009a1.041,1.041,0,0,1-1.1-1.259,14.633,14.633,0,0,0,.012-3.333,4.353,4.353,0,0,0-2.114-3.84,11.28,11.28,0,0,0-1.387,3.981c-.06,1.161-.8,2.063-1.167,3.109a1.164,1.164,0,0,1-1.125.85,1.539,1.539,0,0,1-.408-.058,1.166,1.166,0,0,1-.892-1.278c.539-2.494-.27-4.869-.482-7.3-.067-.773.49-1.159,1.2-1.205.034,0,.067,0,.1,0,.619,0,.886.412.878,1.057-.014,1.113,0,2.226,0,3.642,1.172-1.147,1.242-2.512,1.78-3.625.517-1.069.993-1.593,1.576-1.593m0-1h0c-1.208,0-1.919,1.044-2.4,2.011a1.885,1.885,0,0,0-.5-.97,1.808,1.808,0,0,0-1.331-.521q-.08,0-.165.006a2.36,2.36,0,0,0-1.667.763,2.018,2.018,0,0,0-.462,1.526c.068.783.195,1.555.317,2.3a12.47,12.47,0,0,1,.183,4.7,2.162,2.162,0,0,0,1.6,2.453,2.542,2.542,0,0,0,.673.094,2.166,2.166,0,0,0,2.069-1.52,8.364,8.364,0,0,1,.435-.962,6,6,0,0,0,.786-2.425,6.726,6.726,0,0,1,.744-2.429,3.575,3.575,0,0,1,.759,2.282c.011.23.025.461.04.691a10.094,10.094,0,0,1-.037,2.418,2.032,2.032,0,0,0,.423,1.695,2.151,2.151,0,0,0,1.667.742,2.019,2.019,0,0,0,1.607-.713,2.11,2.11,0,0,0,.368-1.792,11.616,11.616,0,0,1-.177-1.769,11.191,11.191,0,0,0-.334-2.561c-.059-.209-.115-.419-.171-.628a8.124,8.124,0,0,0-2-4.063,3.788,3.788,0,0,0-2.428-1.325Z" transform="translate(0 0)"/>
  </g>
  <g>
    <path class="cls-1" d="M70.489,42.668a2.26,2.26,0,0,1-.781-.155,6.068,6.068,0,0,1-3.247-3.18,5.7,5.7,0,0,1-2.477,1.75,3.537,3.537,0,0,1-1.256.24h0a2.9,2.9,0,0,1-2.854-2.364c-.64-2.736.1-5.234,2.257-7.635a3.5,3.5,0,0,1,2.278-1c.135-.021.269-.042.4-.066a1.713,1.713,0,0,1,.313-.029,2.218,2.218,0,0,1,1.442.667,2.064,2.064,0,0,0,.458.326c2.227.913,2,2.42,1.61,3.762a4.981,4.981,0,0,0-.007,2.141c.266,1.6.663,2.505,2.006,2.666a1.485,1.485,0,0,1,1.125.584,1.358,1.358,0,0,1,.116,1.163A1.4,1.4,0,0,1,70.489,42.668Zm-5.565-9.413a1.651,1.651,0,0,0-.7.2c-1.289.636-2.328,3.419-1.793,4.8.09.234.256.514.53.514a1,1,0,0,0,.581-.269,5.106,5.106,0,0,0,1.994-4.13,1.42,1.42,0,0,0-.253-.982A.473.473,0,0,0,64.924,33.256Z" transform="translate(0 0)"/>
    <path class="cls-2" d="M65.122,30.734c.746,0,1.167.732,1.711.955,1.714.7,1.749,1.677,1.319,3.16a5.54,5.54,0,0,0-.019,2.361c.238,1.443.638,2.865,2.439,3.081.737.088,1,.463.82,1.115a.9.9,0,0,1-.9.763,1.773,1.773,0,0,1-.607-.124c-1.59-.59-2.5-1.847-3.334-3.679a5.318,5.318,0,0,1-2.741,2.251,3.041,3.041,0,0,1-1.079.207,2.39,2.39,0,0,1-2.366-1.978A7.671,7.671,0,0,1,62.5,31.658a3.742,3.742,0,0,1,2.4-.9,1.217,1.217,0,0,1,.221-.021M62.965,39.27a1.446,1.446,0,0,0,.9-.383,5.577,5.577,0,0,0,2.176-4.532c.008-1.064-.43-1.6-1.117-1.6a2.116,2.116,0,0,0-.917.249c-1.52.75-2.666,3.805-2.037,5.432a1.108,1.108,0,0,0,1,.833m2.157-9.536a2.227,2.227,0,0,0-.4.037c-.129.024-.259.044-.388.064A3.958,3.958,0,0,0,61.76,30.99a8.683,8.683,0,0,0-2.372,8.083,3.387,3.387,0,0,0,3.34,2.75,4.033,4.033,0,0,0,1.434-.272,6.25,6.25,0,0,0,2.2-1.369,6.131,6.131,0,0,0,3.174,2.8,2.758,2.758,0,0,0,.955.186,1.894,1.894,0,0,0,1.866-1.492,1.835,1.835,0,0,0-.182-1.575,1.957,1.957,0,0,0-1.482-.8c-.938-.112-1.305-.638-1.571-2.251a4.523,4.523,0,0,1-.007-1.92c.459-1.584.593-3.341-1.9-4.363a2.288,2.288,0,0,1-.328-.247,2.7,2.7,0,0,0-1.763-.783ZM63,38.26a.727.727,0,0,1-.1-.184c-.445-1.151.481-3.649,1.547-4.175a1.139,1.139,0,0,1,.474-.146h0c.017,0,.119.143.116.592a4.577,4.577,0,0,1-1.813,3.769A.847.847,0,0,1,63,38.26Z" transform="translate(0 0)"/>
  </g>
  <g>
    <path class="cls-1" d="M36.593,58.971a2.606,2.606,0,0,1-.566-.065A3.983,3.983,0,0,1,34.2,57.814a3.306,3.306,0,0,1-.71-1.076c-.22-.456-.367-.738-.632-.8a.5.5,0,0,0-.112-.014c-.223,0-.424.212-.729.561a3.117,3.117,0,0,1-.9.786,4.383,4.383,0,0,1-1.982.5h0a3.434,3.434,0,0,1-3.413-3.485c-.168-2.991.4-4.006,3.043-5.431a7.913,7.913,0,0,1,3.016-.726,1.643,1.643,0,0,1,1.435.556,1.219,1.219,0,0,1,.254.805,2.479,2.479,0,0,1,.5.055c1.208.253,1.068,1.27,1,1.758a1.935,1.935,0,0,0-.031.395.544.544,0,0,1,0,.12,5.266,5.266,0,0,0,.437,2.623l.081.216c.313.833.507,1.226.938,1.226a1.67,1.67,0,0,0,.63-.16,1.2,1.2,0,0,1,.474-.1,1.285,1.285,0,0,1,1.118.77,1.4,1.4,0,0,1-.187,1.685A2.4,2.4,0,0,1,36.593,58.971Zm-5.1-7.934a7.68,7.68,0,0,0-1.757.861,2.183,2.183,0,0,0-1.2,1.63l-.011.125c-.067.765-.022,1.057.363,1.177a1.383,1.383,0,0,0,.4.063,1.159,1.159,0,0,0,.957-.518c.093-.127.191-.25.289-.373a2.351,2.351,0,0,0,.648-1.225,3.394,3.394,0,0,1,.226-.844,2.913,2.913,0,0,0,.163-.549,3.281,3.281,0,0,1,.089-.417Z" transform="translate(0 0)"/>
    <path class="cls-2" d="M31.781,48.63a1.228,1.228,0,0,1,1.025.342c.875,1.25-1.937,1.438-3.373,2.528a2.634,2.634,0,0,0-1.394,1.987c-.051.624-.194,1.543.7,1.82a1.87,1.87,0,0,0,.552.086,1.657,1.657,0,0,0,1.362-.723,3.769,3.769,0,0,0,1.031-1.845c.044-.464.318-.9.386-1.368.134-.916.613-1.467,1.39-1.467a1.953,1.953,0,0,1,.4.044c1.027.215.512,1.145.575,1.719A5.715,5.715,0,0,0,34.9,54.62c.318.828.585,1.763,1.487,1.763a2.129,2.129,0,0,0,.827-.2.7.7,0,0,1,.276-.061.85.85,0,0,1,.683.518.909.909,0,0,1-.127,1.105,1.905,1.905,0,0,1-1.457.728,2.1,2.1,0,0,1-.457-.053,3.551,3.551,0,0,1-1.6-.976c-.654-.59-.7-1.789-1.563-1.991a.993.993,0,0,0-.227-.027c-.791,0-1.154,1.047-1.853,1.4a3.906,3.906,0,0,1-1.757.447,2.92,2.92,0,0,1-2.914-3.013C26.065,51.489,26.5,50.648,29,49.3a7.436,7.436,0,0,1,2.779-.666m0-1a8.4,8.4,0,0,0-3.254.786c-2.8,1.513-3.483,2.725-3.305,5.9a3.917,3.917,0,0,0,3.913,3.957,4.875,4.875,0,0,0,2.208-.555,3.565,3.565,0,0,0,1.048-.9,3.3,3.3,0,0,1,.363-.376,3.1,3.1,0,0,1,.284.516,3.762,3.762,0,0,0,.827,1.231,4.5,4.5,0,0,0,2.054,1.209,3.108,3.108,0,0,0,.675.077A2.875,2.875,0,0,0,38.8,58.406a1.907,1.907,0,0,0,.245-2.264,1.772,1.772,0,0,0-1.551-1.021,1.7,1.7,0,0,0-.671.142,1.178,1.178,0,0,1-.433.119c-.162-.081-.362-.614-.47-.9l-.083-.221a4.819,4.819,0,0,1-.407-2.378,1.006,1.006,0,0,0,0-.239,2.718,2.718,0,0,1,.03-.272c.179-1.305-.29-2.085-1.394-2.316q-.073-.015-.144-.027a1.926,1.926,0,0,0-.3-.63,2.1,2.1,0,0,0-1.844-.769Zm-2.487,6.764a.875.875,0,0,1-.257-.041,1.773,1.773,0,0,1-.013-.654l.011-.13c.026-.319.158-.715.946-1.232l.056-.04a4.509,4.509,0,0,1,.89-.49,3.631,3.631,0,0,0-.237.924,1.922,1.922,0,0,1-.54.96c-.1.129-.206.258-.3.391a.663.663,0,0,1-.553.312Z" transform="translate(0 0)"/>
  </g>
  <g>
    <path class="cls-1" d="M85.725,63.786a1.616,1.616,0,0,1-1.288-.739,2.8,2.8,0,0,1-.473-1.328l-.039-.229c-.257-1.413-.537-2.821-.843-4.353l-.179-.9a3.866,3.866,0,0,0-.661,1.907c-.045.285-.09.564-.156.831a8.27,8.27,0,0,1-1.467,3.434,1.53,1.53,0,0,1-1.2.643,1.577,1.577,0,0,1-.641-.144,1.438,1.438,0,0,1-.8-1.421c-.04-1.2-.089-2.409-.138-3.613-.047-1.169-.095-2.337-.135-3.506a3.352,3.352,0,0,1,.167-1.379,1.4,1.4,0,0,1,1.277-.909,1.368,1.368,0,0,1,1.364,1.316c0,.331.023.8.054,1.272a14.307,14.307,0,0,1,.867-1.349l.134-.178a2.34,2.34,0,0,1,1.842-1.248,1.966,1.966,0,0,1,.366.036c1.32.252,1.477,1.586,1.561,2.3.193,1.649.522,3.292.84,4.879a8.267,8.267,0,0,0,.868,2.529,1.345,1.345,0,0,1-.512,1.906,1.57,1.57,0,0,1-.809.241Z" transform="translate(0 0)"/>
    <path class="cls-2" d="M83.412,52.391a1.448,1.448,0,0,1,.272.027c.965.184,1.074,1.166,1.159,1.881.194,1.656.518,3.278.845,4.908a8.833,8.833,0,0,0,.923,2.676.85.85,0,0,1-.332,1.231,1.074,1.074,0,0,1-.552.17,1.154,1.154,0,0,1-.891-.541,2.937,2.937,0,0,1-.417-1.345c-.354-1.944-.753-3.879-1.2-6.137-1.482,1.045-1.332,2.438-1.618,3.593a7.9,7.9,0,0,1-1.369,3.239,1.058,1.058,0,0,1-.817.458,1.074,1.074,0,0,1-.437-.1c-.421-.187-.485-.554-.5-.982-.08-2.374-.192-4.746-.273-7.12a2.938,2.938,0,0,1,.13-1.173.906.906,0,0,1,.815-.6.838.838,0,0,1,.128.01.812.812,0,0,1,.737.807c0,.949.184,2.974.184,2.974a26.714,26.714,0,0,1,1.634-2.748c.455-.6.844-1.23,1.579-1.23m0-1h0a2.809,2.809,0,0,0-2.243,1.449l-.131.175-.049.065A1.815,1.815,0,0,0,79.43,51.6a1.837,1.837,0,0,0-.28-.021A1.9,1.9,0,0,0,77.409,52.8a3.819,3.819,0,0,0-.2,1.584c.04,1.161.087,2.321.134,3.482.049,1.212.1,2.424.139,3.637a1.949,1.949,0,0,0,1.093,1.862,2.071,2.071,0,0,0,.842.187,2.016,2.016,0,0,0,1.594-.828A8.7,8.7,0,0,0,82.572,59.1c.073-.295.12-.588.164-.872l.023-.148c.239,1.2.466,2.359.674,3.5l.037.217a3.252,3.252,0,0,0,.569,1.555,2.089,2.089,0,0,0,1.687.936,2.063,2.063,0,0,0,1.066-.312,1.839,1.839,0,0,0,.69-2.581,7.819,7.819,0,0,1-.813-2.381c-.315-1.577-.642-3.208-.832-4.829-.094-.8-.285-2.426-1.964-2.747a2.458,2.458,0,0,0-.459-.045Z" transform="translate(0 0)"/>
  </g>
  <g>
    <path class="cls-1" d="M80.917,19.518a1.308,1.308,0,0,1-1.158-.775c-.215-.44-.345-.44-.395-.44a2.357,2.357,0,0,0-.761.275,2.743,2.743,0,0,1-1.187.279h0a2.492,2.492,0,0,1-2.425-2.127,14.205,14.205,0,0,1,.6-7.764,3.308,3.308,0,0,1,1.693-1.79,2.427,2.427,0,0,1,1.126-.308,1.994,1.994,0,0,1,1.759,1.157,1.636,1.636,0,0,1,.144,1.611,1,1,0,0,1-.249.29h.021a1.8,1.8,0,0,1,1.4.594,2.69,2.69,0,0,1,.418,2.116,6.92,6.92,0,0,0-.021,1.091c.007.217.014.448.014.7a9.655,9.655,0,0,1,0,.985,5.046,5.046,0,0,0,.257,2.179A1.313,1.313,0,0,1,81.7,19.25,1.339,1.339,0,0,1,80.917,19.518ZM79,10.16c-.845,0-.975.413-1.187,1.347-.029.131-.06.263-.093.393a9.189,9.189,0,0,0-.139,2.753l.021.432c.006.147.062.149.089.149a1.086,1.086,0,0,0,.114-.107,5.48,5.48,0,0,0,.717-2.708v-.158a2.636,2.636,0,0,1,.5-1.932,1.292,1.292,0,0,1,.2-.162C79.2,10.166,79.061,10.16,79,10.16Z" transform="translate(0 0)"/>
    <path class="cls-2" d="M78.407,7.37a1.531,1.531,0,0,1,1.325.906c.4.7.3,1.393-.431,1.393l-.082,0c-.075,0-.146-.007-.214-.007-1.465,0-1.509,1.12-1.766,2.115a11.336,11.336,0,0,0-.134,3.331.6.6,0,0,0,.576.629h.007a.78.78,0,0,0,.556-.362,5.973,5.973,0,0,0,.782-2.952c0-.8-.084-1.992,1.055-1.992h.068c1.168.046,1.4,1.064,1.255,2.142a15.244,15.244,0,0,0-.013,1.856,9.435,9.435,0,0,0,.3,3.362.811.811,0,0,1-.281,1.053.848.848,0,0,1-.494.175.814.814,0,0,1-.709-.494c-.259-.53-.523-.721-.843-.721a2.519,2.519,0,0,0-.977.324,2.256,2.256,0,0,1-.972.23,1.985,1.985,0,0,1-1.935-1.724,13.718,13.718,0,0,1,.576-7.495A2.86,2.86,0,0,1,77.514,7.62a1.935,1.935,0,0,1,.893-.25m0-1a2.92,2.92,0,0,0-1.358.364A3.836,3.836,0,0,0,75.118,8.8,14.7,14.7,0,0,0,74.5,16.83a2.98,2.98,0,0,0,2.915,2.529,3.239,3.239,0,0,0,1.4-.328c.089-.043.285-.136.427-.189.018.032.04.071.064.121a1.8,1.8,0,0,0,1.608,1.056,1.85,1.85,0,0,0,1.076-.362,1.812,1.812,0,0,0,.618-2.262,4.6,4.6,0,0,1-.216-1.965c.01-.34.02-.692,0-1.038,0-.241-.007-.465-.013-.676a6.476,6.476,0,0,1,.017-1.011,3.119,3.119,0,0,0-.531-2.5,2.1,2.1,0,0,0-.975-.65,2.287,2.287,0,0,0-.29-1.774A2.493,2.493,0,0,0,78.407,6.37Z" transform="translate(0 0)"/>
  </g>
  <g>
    <path class="cls-1" d="M98.307,65.924a8.115,8.115,0,0,1-7.483-4.148c-.5-.885-.819-1.154-1.356-1.154a2.184,2.184,0,0,0-.46.056,2.417,2.417,0,0,1-.506.053,4.419,4.419,0,0,1-1.649-.417l-.211-.084a1.233,1.233,0,0,1-.814-1.521,1.415,1.415,0,0,1,1.265-1.074,1.372,1.372,0,0,1,.248-.031.864.864,0,0,1,.288.063A2.785,2.785,0,0,0,88.793,58c.838,0,1.263-.815,1.886-2.145a3.411,3.411,0,0,1,3.07-2,2.926,2.926,0,0,1,2.143.887,2.478,2.478,0,0,1,.812,1.818,2.237,2.237,0,0,1-.867,1.585,7.684,7.684,0,0,1-2.392,1.446c-.4.14-.646.312-.7.484s.049.419.276.726c1.419,1.92,2.774,2.74,4.532,2.74q.149,0,.3-.008c.221.021.347.029.47.029a2.547,2.547,0,0,0,2.015-1.032,1.2,1.2,0,0,1,1.762-.179,1.283,1.283,0,0,1,.5.876,1.49,1.49,0,0,1-.392,1.085,4.63,4.63,0,0,1-3.556,1.608Z" transform="translate(0 0)"/>
    <path class="cls-2" d="M93.749,54.354a2.439,2.439,0,0,1,1.781.732,1.652,1.652,0,0,1-.021,2.68,7.128,7.128,0,0,1-2.23,1.352c-1.2.421-1.291,1.126-.661,1.979,1.212,1.639,2.663,2.942,4.934,2.942q.163,0,.332-.009a3.318,3.318,0,0,0,.443.03,3.035,3.035,0,0,0,2.4-1.214.7.7,0,0,1,1.056-.111.808.808,0,0,1,.04,1.257,4.164,4.164,0,0,1-3.186,1.427q-.167,0-.333,0a7.611,7.611,0,0,1-7.049-3.9c-.5-.887-.955-1.407-1.791-1.407a2.678,2.678,0,0,0-.567.067,1.874,1.874,0,0,1-.4.042,4.749,4.749,0,0,1-1.678-.467.737.737,0,0,1-.512-.934.948.948,0,0,1,.862-.7,1.091,1.091,0,0,1,.166-.024.16.16,0,0,1,.07.014,3.224,3.224,0,0,0,1.384.382c1.211,0,1.742-1.159,2.358-2.473a2.874,2.874,0,0,1,2.6-1.672M92.48,57.788a1.727,1.727,0,0,0,1.7-1.332c-1.3.116-1.3.116-1.7,1.332m1.269-4.434a3.9,3.9,0,0,0-3.5,2.247c-.611,1.3-.945,1.9-1.453,1.9a2.353,2.353,0,0,1-.947-.281,1.151,1.151,0,0,0-.507-.114,1.692,1.692,0,0,0-.31.034,1.95,1.95,0,0,0-1.687,1.449A1.726,1.726,0,0,0,86.46,60.7l.207.082a4.865,4.865,0,0,0,1.834.453,2.888,2.888,0,0,0,.612-.065,1.709,1.709,0,0,1,.354-.044c.21,0,.409,0,.922.9a8.589,8.589,0,0,0,7.918,4.4q.18,0,.361-.005a5.114,5.114,0,0,0,3.926-1.788,1.955,1.955,0,0,0,.5-1.451,1.772,1.772,0,0,0-.677-1.215,1.7,1.7,0,0,0-2.466.247,2.045,2.045,0,0,1-1.629.849,2.32,2.32,0,0,1-.309-.021,1,1,0,0,0-.133-.009h-.054q-.142.008-.278.008c-1.6,0-2.8-.735-4.13-2.537a1.413,1.413,0,0,1-.167-.275,1.546,1.546,0,0,1,.354-.165,8.208,8.208,0,0,0,2.553-1.54A2.716,2.716,0,0,0,97.2,56.583a2.955,2.955,0,0,0-.95-2.188,3.421,3.421,0,0,0-2.5-1.041Z" transform="translate(0 0)"/>
  </g>
  <g>
    <path class="cls-1" d="M14.455,37.71a5.548,5.548,0,0,1-1.218-.145l-.355-.077a4.185,4.185,0,0,1-2.5-1.185,1.591,1.591,0,0,1-.279-1.9,1.03,1.03,0,0,1,.92-.606,1.835,1.835,0,0,1,.793.243l.136.065a6.775,6.775,0,0,1,.619.344,2.212,2.212,0,0,0,1.093.438.9.9,0,0,0,.528-.225l-.011,0c-.036,0-.1-.11-.145-.179a7.653,7.653,0,0,0-2.481-2.315l-.411-.284a13.635,13.635,0,0,0-1.716-.965c-1.592-.8-2.188-1.844-1.912-3.234a3.245,3.245,0,0,1,2.691-2.507,3.451,3.451,0,0,1,.736-.095l.138-.008a3.817,3.817,0,0,1,.593-.059,1.111,1.111,0,0,1,1.192,1.016,1.514,1.514,0,0,1-.817,1.661c-.916.543-1.091.757-1.112.836.023.082.24.324,1.136.9a19.036,19.036,0,0,1,3.948,3.286l.094.105c.707.791,1.675,1.874,1.048,3.337a2.745,2.745,0,0,1-2.705,1.539Z" transform="translate(0 0)"/>
    <path class="cls-2" d="M11.672,25.526a.612.612,0,0,1,.7.592,1.016,1.016,0,0,1-.578,1.155c-1.809,1.073-1.812,1.412.007,2.59a18.6,18.6,0,0,1,3.846,3.2c.707.795,1.581,1.689,1.055,2.913a2.252,2.252,0,0,1-2.245,1.236,5.03,5.03,0,0,1-1.107-.132,4.383,4.383,0,0,1-2.591-1.1,1.107,1.107,0,0,1-.219-1.323c.146-.261.308-.351.483-.351a1.958,1.958,0,0,1,.718.262c.633.295,1.185.829,1.923.829h.029a1.39,1.39,0,0,0,.839-.358c.287-.266.055-.592-.1-.859a9.385,9.385,0,0,0-3-2.692,14.865,14.865,0,0,0-1.867-1.047A2.306,2.306,0,0,1,8,27.792a2.786,2.786,0,0,1,2.33-2.121,4.365,4.365,0,0,1,.8-.089,3.582,3.582,0,0,1,.541-.056m0-1a4.334,4.334,0,0,0-.663.063l-.09,0a3.935,3.935,0,0,0-.842.112A3.745,3.745,0,0,0,7.023,27.6C6.8,28.71,6.985,30.261,9.112,31.33l.1.05a13.162,13.162,0,0,1,1.642.922l.413.286a8.854,8.854,0,0,1,2.028,1.7,5.318,5.318,0,0,1-.469-.265,6.916,6.916,0,0,0-.667-.37l-.126-.061A2.263,2.263,0,0,0,11.02,33.3a1.522,1.522,0,0,0-1.356.863A2.093,2.093,0,0,0,10,36.633a4.651,4.651,0,0,0,2.776,1.345c.117.025.233.049.348.075a6.036,6.036,0,0,0,1.329.157,3.221,3.221,0,0,0,3.164-1.841c.754-1.755-.427-3.077-1.133-3.867l-.094-.105a19.545,19.545,0,0,0-4.049-3.373c-.327-.212-.544-.366-.69-.478.14-.1.346-.233.65-.413a2,2,0,0,0,1.056-2.168,1.6,1.6,0,0,0-1.686-1.439Z" transform="translate(0 0)"/>
  </g>
  <g>
    <path class="cls-1" d="M42.055,58.971a1.75,1.75,0,0,1-1.763-1.847,26.61,26.61,0,0,0-.792-5.562l-.046-.213c-.191-.894-.443-.894-.552-.894a1.311,1.311,0,0,0-.527.149,4.749,4.749,0,0,1-1.836.557,1.273,1.273,0,0,1-1.3-.959,1.461,1.461,0,0,1,.067-1.156,2.646,2.646,0,0,1,1.73-1.027c.2-.059.4-.115.563-.182a7.851,7.851,0,0,1,2.465-.581c.4-.022.985-.081,1.632-.145,1.073-.106,2.289-.227,3.071-.227a1.723,1.723,0,0,1,1,.187,1.678,1.678,0,0,1,.68,1.775,1.276,1.276,0,0,1-1.4,1.016c-.08,0-.162,0-.244-.01-.765-.059-1.348-.1-1.781-.1-.579,0-.735.084-.777.134a6.12,6.12,0,0,0,.22,2.469s.11.644.154.913a13.059,13.059,0,0,0,.811,3.228,2.039,2.039,0,0,1,.092,1.713,1.4,1.4,0,0,1-1.024.717,2.147,2.147,0,0,1-.441.047Z" transform="translate(0 0)"/>
    <path class="cls-2" d="M44.77,47.386a1.6,1.6,0,0,1,.711.094,1.17,1.17,0,0,1,.482,1.26c-.109.5-.488.622-.916.622-.068,0-.137,0-.206-.008-.765-.058-1.36-.1-1.818-.1-1.639,0-1.513.587-1.032,3.294a17.707,17.707,0,0,0,.981,4.151c.29.66.4,1.535-.578,1.739a1.652,1.652,0,0,1-.339.036,1.251,1.251,0,0,1-1.263-1.348,28.24,28.24,0,0,0-.849-5.878c-.172-.8-.463-1.289-1.041-1.289a1.8,1.8,0,0,0-.738.2,4.422,4.422,0,0,1-1.626.511.783.783,0,0,1-.821-.606c-.4-1.3,1.18-1.4,2.069-1.754a7.465,7.465,0,0,1,2.308-.546c1.047-.057,3.449-.37,4.676-.37m0-1c-.807,0-2.037.122-3.122.229-.633.063-1.23.122-1.608.142a8.37,8.37,0,0,0-2.623.616c-.155.062-.334.113-.519.167a3.061,3.061,0,0,0-2.031,1.27,1.951,1.951,0,0,0-.1,1.54,1.783,1.783,0,0,0,1.776,1.311,5.129,5.129,0,0,0,2.045-.6,1.451,1.451,0,0,1,.233-.088,2.18,2.18,0,0,1,.149.483l.046.213a26.208,26.208,0,0,1,.781,5.457,2.258,2.258,0,0,0,2.263,2.346,2.661,2.661,0,0,0,.543-.057,1.887,1.887,0,0,0,1.367-.978,2.458,2.458,0,0,0-.079-2.143,12.712,12.712,0,0,1-.774-3.107c-.045-.272-.089-.545-.138-.817l-.018-.1a15.99,15.99,0,0,1-.287-2,3.326,3.326,0,0,1,.352-.015c.415,0,.989.044,1.715.1.122.009.217.013.31.013a1.787,1.787,0,0,0,1.893-1.408,2.009,2.009,0,0,0-2.169-2.568Z" transform="translate(0 0)"/>
  </g>
  <g>
    <path class="cls-1" d="M54.179,19.748c-.357,0-1.21-.149-1.4-1.525l-.159-1.105a38.505,38.505,0,0,1-.47-4.376,4.038,4.038,0,0,0-1.187-2.823,5.714,5.714,0,0,1-1.748-3.963C49.253,4.629,50,4.4,50.448,4.378c1,.074,1.588.6,1.631,1.4a3.518,3.518,0,0,0,.882,2.083,2.689,2.689,0,0,0,.422.448,2.7,2.7,0,0,0,.284-.569,5.1,5.1,0,0,0,.22-.8,7.56,7.56,0,0,1,.2-.77,1.372,1.372,0,0,1,1.268-1.058,1.405,1.405,0,0,1,.429.07A1.288,1.288,0,0,1,56.716,6.9c-.093.293-.164.6-.236.9a6.771,6.771,0,0,1-.665,1.918c-1.212,2.053-.854,4.185-.477,6.441l.029.176c.036.218.087.433.137.648.058.251.116.5.156.757A1.853,1.853,0,0,1,55.39,19.2a1.45,1.45,0,0,1-1.038.54,1.63,1.63,0,0,1-.172.01Z" transform="translate(0 0)"/>
    <path class="cls-2" d="M50.47,4.877c.747.058,1.082.418,1.11.926a4.033,4.033,0,0,0,.991,2.37c.355.441.616.671.842.671.257,0,.467-.3.718-.918.2-.507.254-1.075.428-1.6.135-.4.4-.717.794-.717a.906.906,0,0,1,.276.046.8.8,0,0,1,.611,1.094,13.047,13.047,0,0,1-.856,2.716c-1.337,2.267-.9,4.6-.51,6.953.078.47.218.93.292,1.4.111.708-.066,1.332-.868,1.42a1.09,1.09,0,0,1-.119.007c-.614,0-.832-.567-.9-1.094a51.393,51.393,0,0,1-.624-5.428,4.528,4.528,0,0,0-1.318-3.145,5.157,5.157,0,0,1-1.617-3.612c.018-.644.219-1.068.755-1.092m0-1h-.045c-.388.017-1.658.217-1.71,2.063a6.174,6.174,0,0,0,1.878,4.314,3.545,3.545,0,0,1,1.058,2.5,39.035,39.035,0,0,0,.474,4.429c.054.369.108.737.159,1.105.251,1.816,1.514,1.957,1.9,1.957a2.09,2.09,0,0,0,.228-.013,1.935,1.935,0,0,0,1.38-.734,2.315,2.315,0,0,0,.367-1.835c-.042-.268-.1-.533-.164-.8-.047-.2-.1-.407-.129-.612l-.03-.176c-.362-2.164-.7-4.207.414-6.1a7.159,7.159,0,0,0,.721-2.057c.073-.307.142-.6.227-.866A1.788,1.788,0,0,0,55.932,4.7a1.907,1.907,0,0,0-.58-.093,1.849,1.849,0,0,0-1.742,1.4,7.731,7.731,0,0,0-.211.818c-.046.211-.09.413-.147.589a2.945,2.945,0,0,1-.672-1.671A1.981,1.981,0,0,0,50.548,3.88c-.026,0-.052,0-.078,0Z" transform="translate(0 0)"/>
  </g>
  <g>
    <path class="cls-1" d="M21.3,58.541a5.2,5.2,0,0,1-3.37-1.251c-2.071-1.735-2.39-4.378-.828-6.9a5.98,5.98,0,0,1,5.313-3.221l.247,0c.11,0,.432-.015.521-.015a1.911,1.911,0,0,1,.5.058c1.046.281,1.546.812,1.484,1.578-.036.454-.31,1.226-1.73,1.3l-.11,0a3.967,3.967,0,0,1-.655-.072c-.091-.016-.182-.031-.272-.042-.112-.011-.233-.017-.352-.017a2.843,2.843,0,0,0-2.614,1.768c-.637,1.215-.987,2.01-.2,2.993A2.724,2.724,0,0,0,21.426,55.9a3.45,3.45,0,0,0,.865-.119,7.107,7.107,0,0,0,.87-.311c.22-.089.44-.178.665-.253a1.888,1.888,0,0,1,.595-.11,1.059,1.059,0,0,1,.567,1.97l-.086.071a5.534,5.534,0,0,1-3.6,1.394Z" transform="translate(0 0)"/>
    <path class="cls-2" d="M23.182,47.661a1.436,1.436,0,0,1,.373.041c.547.147,1.168.4,1.116,1.056s-.683.811-1.258.842l-.083,0a7.2,7.2,0,0,1-.867-.11q-.213-.021-.414-.021a3.332,3.332,0,0,0-3.057,2.036c-.6,1.144-1.168,2.262-.15,3.537A3.223,3.223,0,0,0,21.426,56.4a3.93,3.93,0,0,0,.991-.135c.536-.14,1.041-.4,1.568-.573a1.407,1.407,0,0,1,.436-.084.565.565,0,0,1,.566.41c.139.367-.184.555-.413.753A5,5,0,0,1,21.3,58.042a4.725,4.725,0,0,1-3.049-1.134c-1.881-1.575-2.141-3.965-.725-6.25a5.526,5.526,0,0,1,4.888-2.985l.2,0h.071c.166,0,.334-.015.5-.015m0-1h0c-.1,0-.2,0-.294.008-.069,0-.137.007-.205.007-.118,0-.194,0-.269,0a6.527,6.527,0,0,0-5.738,3.458c-1.675,2.7-1.309,5.666.934,7.544A5.7,5.7,0,0,0,21.3,59.042a6.034,6.034,0,0,0,3.929-1.516l.073-.061a1.509,1.509,0,0,0,.619-1.8,1.565,1.565,0,0,0-1.5-1.055,2.359,2.359,0,0,0-.753.136c-.235.079-.465.171-.7.264a6.859,6.859,0,0,1-.808.29,2.952,2.952,0,0,1-.739.1,2.226,2.226,0,0,1-1.8-.979c-.568-.711-.381-1.237.254-2.449a2.311,2.311,0,0,1,2.171-1.5q.153,0,.316.016c.059.008.143.022.227.036a4.311,4.311,0,0,0,.738.079c.046,0,.091,0,.137,0,1.919-.1,2.17-1.373,2.2-1.76.047-.586-.131-1.639-1.853-2.1a2.384,2.384,0,0,0-.632-.075Z" transform="translate(0 0)"/>
  </g>
  <g>
    <path class="cls-1" d="M3.694,36.884a1.439,1.439,0,0,1-1.085-.427,1.909,1.909,0,0,1-.431-1.468,40.953,40.953,0,0,0-.307-6.129c-.056-.559-.111-1.117-.161-1.675A4.192,4.192,0,0,1,1.739,26.1a1.562,1.562,0,0,1,1.62-1.388,2.421,2.421,0,0,1,.34.024c1.078.15,1.041,1.169,1.025,1.6-.023.71-.066,1.4-.108,2.09l-.049.81.079.894A45.039,45.039,0,0,0,5.2,34.827a1.862,1.862,0,0,1-.228,1.5,1.4,1.4,0,0,1-1.022.542A2.319,2.319,0,0,1,3.694,36.884Z" transform="translate(0 0)"/>
    <path class="cls-2" d="M3.359,25.21a1.964,1.964,0,0,1,.271.02c.641.09.611.644.6,1.112-.032.957-.1,1.912-.157,2.869a56.272,56.272,0,0,0,.639,5.709c.128.676.025,1.359-.813,1.452a1.809,1.809,0,0,1-.2.011c-.787,0-1.057-.588-1.017-1.37a56.451,56.451,0,0,0-.469-7.874,3.709,3.709,0,0,1,.024-.956,1.058,1.058,0,0,1,1.126-.973m0-1a2.054,2.054,0,0,0-2.111,1.8,4.641,4.641,0,0,0-.035,1.217c.05.56.106,1.119.162,1.679a40.112,40.112,0,0,1,.3,6.056A2.386,2.386,0,0,0,2.247,36.8a1.927,1.927,0,0,0,1.448.582A2.81,2.81,0,0,0,4,37.366a1.89,1.89,0,0,0,1.369-.742,2.34,2.34,0,0,0,.316-1.891,43.906,43.906,0,0,1-.545-4.652L5.071,29.2l.046-.766c.042-.685.084-1.371.108-2.057.044-1.285-.446-2-1.457-2.137a2.967,2.967,0,0,0-.409-.029Z" transform="translate(0 0)"/>
  </g>
  <g>
    <path class="cls-1" d="M129.943,44.037a2.49,2.49,0,0,1-.638-.083,1.237,1.237,0,0,1-.882-1.025,1.012,1.012,0,0,1,.4-1.041c.938-.6.751-.907.249-1.724a5.739,5.739,0,0,1-.443-.82,3.265,3.265,0,0,0-.746-.99,3.961,3.961,0,0,1-.938-1.292,1.633,1.633,0,0,1-.052-1.406,1.4,1.4,0,0,1,1.111-.6c.021,0,.105-.005.128-.005a2.325,2.325,0,0,1,1.956,1,20.28,20.28,0,0,1,1.872,3.143c.216.419.432.838.66,1.25a2.092,2.092,0,0,1-.653,2.743,3.017,3.017,0,0,1-2.022.853Z" transform="translate(0 0)"/>
    <path class="cls-2" d="M128.131,35.546a1.829,1.829,0,0,1,1.56.808,32.92,32.92,0,0,1,2.491,4.33,1.665,1.665,0,0,1-.555,2.133,2.531,2.531,0,0,1-1.684.72,1.988,1.988,0,0,1-.509-.066c-.555-.147-.675-.948-.342-1.162,1.762-1.129.454-2.047,0-3.154-.386-.94-1.318-1.361-1.682-2.278-.313-.788-.206-1.213.661-1.33h.062m0-1h-.085a1,1,0,0,0-.111.009,1.883,1.883,0,0,0-1.476.848,2.075,2.075,0,0,0,.019,1.843,4.4,4.4,0,0,0,1.043,1.456,2.877,2.877,0,0,1,.643.832,6.215,6.215,0,0,0,.48.891,2.581,2.581,0,0,1,.34.67h0a1.333,1.333,0,0,1-.433.372,1.5,1.5,0,0,0-.623,1.539,1.739,1.739,0,0,0,1.249,1.431,3,3,0,0,0,.765.1,3.516,3.516,0,0,0,2.362-.985,2.6,2.6,0,0,0,.752-3.352c-.226-.408-.439-.823-.653-1.237a20.645,20.645,0,0,0-1.92-3.219,2.822,2.822,0,0,0-2.352-1.2Z" transform="translate(0 0)"/>
  </g>
  <g>
    <path class="cls-1" d="M16.087,15.624c-.529,0-1.418-.217-1.426-1.671A21.294,21.294,0,0,0,13.2,6.973l-.041-.113a2.191,2.191,0,0,1-.19-1.019,1.545,1.545,0,0,1,1.567-1.48,1.4,1.4,0,0,1,1.5,1.273,28.274,28.274,0,0,0,.837,4.29,33.935,33.935,0,0,1,.79,3.784,1.751,1.751,0,0,1-.262,1.379,1.507,1.507,0,0,1-1.094.525C16.231,15.621,16.157,15.624,16.087,15.624Z" transform="translate(0 0)"/>
    <path class="cls-2" d="M14.559,4.861a.9.9,0,0,1,.98.818c.245,2.761,1.273,5.36,1.629,8.094.1.719-.054,1.261-.907,1.342q-.092.009-.174.009c-.731,0-.923-.5-.926-1.174A21.579,21.579,0,0,0,13.67,6.806a2.114,2.114,0,0,1-.207-.9A1.058,1.058,0,0,1,14.54,4.861h.019m0-1h-.031a2.058,2.058,0,0,0-2.057,1.915,2.615,2.615,0,0,0,.216,1.255l.04.11a20.851,20.851,0,0,1,1.434,6.814c.009,2.014,1.476,2.17,1.926,2.17.085,0,.175,0,.27-.013A1.986,1.986,0,0,0,17.8,15.4a2.217,2.217,0,0,0,.363-1.764,34.129,34.129,0,0,0-.8-3.83,27.488,27.488,0,0,1-.824-4.213,1.891,1.891,0,0,0-1.976-1.73Z" transform="translate(0 0)"/>
  </g>
  <g>
    <path class="cls-1" d="M23.9,10.262c-.621,0-1.084-.412-1.375-1.226a11.443,11.443,0,0,1-.558-2.159c-.039-.263-.071-.525-.1-.786a8.3,8.3,0,0,0-.659-2.744,1.653,1.653,0,0,1-.023-1.635A1.868,1.868,0,0,1,22.853.956h.109a1.477,1.477,0,0,1,1.106.4,1.4,1.4,0,0,1,.359,1.06,20.972,20.972,0,0,0,.765,5.958,1.407,1.407,0,0,1-.834,1.807,1.491,1.491,0,0,1-.459.076Z" transform="translate(0 0)"/>
    <path class="cls-2" d="M22.854,1.456h.108c.555,0,.988.239.966.949a21.7,21.7,0,0,0,.78,6.1.929.929,0,0,1-.5,1.206.988.988,0,0,1-.3.052c-.49,0-.747-.453-.9-.894A10.934,10.934,0,0,1,22.462,6.8a11.785,11.785,0,0,0-.808-3.677c-.49-1,.072-1.671,1.2-1.671m0-1a2.343,2.343,0,0,0-2.1.992,2.1,2.1,0,0,0,0,2.119,7.945,7.945,0,0,1,.611,2.584c.033.266.066.532.105.8A11.949,11.949,0,0,0,22.054,9.2c.484,1.355,1.364,1.558,1.846,1.558a1.99,1.99,0,0,0,.612-.1,1.893,1.893,0,0,0,1.165-2.406,20.512,20.512,0,0,1-.749-5.818,1.884,1.884,0,0,0-.5-1.423A1.958,1.958,0,0,0,22.963.457Z" transform="translate(0 0)"/>
  </g>
  <g>
    <path class="cls-1" d="M24.751,16.958a1.781,1.781,0,0,1-1.357-.72,1.543,1.543,0,0,1-.345-1.3,1.676,1.676,0,0,1,1.69-1.285h0c.712,0,1.5.3,1.578,1.707a.515.515,0,0,1,0,.1,1.533,1.533,0,0,1-1.516,1.5Z" transform="translate(0 0)"/>
    <path class="cls-2" d="M24.808,14.151c.781,0,.976.571,1.014,1.237-.091.615-.376,1.045-1.039,1.07h-.032a1.313,1.313,0,0,1-1.215-1.4,1.179,1.179,0,0,1,1.22-.9h.052m0-1h-.083a2.177,2.177,0,0,0-2.161,1.667A2.038,2.038,0,0,0,23,16.548a2.282,2.282,0,0,0,1.75.911h.069a2.047,2.047,0,0,0,1.991-1.923.994.994,0,0,0,.009-.2c-.113-1.967-1.445-2.18-2.013-2.18Z" transform="translate(0 0)"/>
  </g>
</svg>
