<svg id="Layer_1" data-name="Layer 1" xmlns="http://www.w3.org/2000/svg" viewBox="0 0 156.299 111.473">
  <defs>
    <style>
      .cls-1 {
        fill: #0000b8;
      }

      .cls-2 {
        fill: #fff;
      }
    </style>
  </defs>
  <title>00132b8c-c707-44e0-8ea8-3c431c11e206</title>
  <g>
    <path class="cls-1" d="M120.627,108.182a1.838,1.838,0,0,1-.593-.108c-1.369-.466-1.424-2.3-1.461-3.509,0-.182-.01-.348-.02-.489-1.257-18.579-2.751-37.4-4.44-55.928a2.6,2.6,0,0,1,.6-2.272,2.481,2.481,0,0,1,1.065-.463,58.8,58.8,0,0,1,13.849-1.653c1.812,0,3.641.085,5.438.252a2.736,2.736,0,0,1,1.77.784,1.187,1.187,0,0,1,.254.917c-.1.774-.836,1.218-2.006,1.218l-.189,0q-1.475-.062-2.953-.062a70.522,70.522,0,0,0-13.06,1.222,2.286,2.286,0,0,0-1.172.445,2.385,2.385,0,0,0-.376,1.778c.7,17.906,2.111,35.949,4.2,53.627l.186,1.54a3.131,3.131,0,0,1-.264,2.349,1.065,1.065,0,0,1-.824.355Z" transform="translate(0)"/>
    <path class="cls-2" d="M129.625,44.26q2.7,0,5.392.251c.724.068,1.672.414,1.575,1.135-.084.621-.858.785-1.511.785-.057,0-.113,0-.167,0q-1.486-.063-2.974-.063A70.9,70.9,0,0,0,118.786,47.6a2.705,2.705,0,0,0-1.427.577,2.777,2.777,0,0,0-.527,2.157q1.05,26.9,4.2,53.667.079.672.16,1.345c.1.829.369,2.341-.566,2.341a1.359,1.359,0,0,1-.432-.082c-1.223-.416-1.077-2.573-1.143-3.557q-1.893-27.995-4.441-55.94a2.106,2.106,0,0,1,.424-1.845,2.033,2.033,0,0,1,.859-.358,58.3,58.3,0,0,1,13.73-1.639m0-1h0a59.3,59.3,0,0,0-13.966,1.667,2.947,2.947,0,0,0-1.27.567,3.057,3.057,0,0,0-.774,2.7c1.69,18.536,3.184,37.349,4.439,55.917.009.136.014.3.019.47.038,1.268.1,3.389,1.8,3.966a2.324,2.324,0,0,0,.753.136,1.57,1.57,0,0,0,1.2-.526,3.509,3.509,0,0,0,.383-2.742l-.024-.192-.16-1.343c-2.085-17.667-3.5-35.7-4.2-53.589-.016-.4-.044-1.139.224-1.4a2.129,2.129,0,0,1,.917-.312,70.025,70.025,0,0,1,12.968-1.214c.974,0,1.96.021,2.932.062.068,0,.138,0,.209,0,2.114,0,2.45-1.263,2.5-1.651a1.7,1.7,0,0,0-.359-1.3,3.159,3.159,0,0,0-2.114-.97c-1.812-.169-3.658-.255-5.485-.255Z" transform="translate(0)"/>
  </g>
  <g>
    <path class="cls-1" d="M82.341,44.255a1.323,1.323,0,0,1-.972-.333A1.128,1.128,0,0,1,81,42.758a1.978,1.978,0,0,1,1.566-1.081c7.252-1.347,14.656-2.347,22.008-2.972,1.07-.092,1.644-.336,1.8-.77a1.977,1.977,0,0,0,.075-.541l.649-13.076a70.252,70.252,0,0,1,1.311-12.11A23.621,23.621,0,0,1,113.8,1.227,1.83,1.83,0,0,1,115.1.5a1.255,1.255,0,0,1,.942.458,1.638,1.638,0,0,1,.358,1.233,3.372,3.372,0,0,1-.741,1.526,24.067,24.067,0,0,0-2.7,4.848,39.761,39.761,0,0,0-2.692,13.155c-.158,2.782-.156,5.624-.154,8.373,0,3.579.006,7.28-.345,10.914a.5.5,0,0,1-.5.452h-.383a128.982,128.982,0,0,0-16.222,1.029c-2.731.348-5.445.781-8.067,1.289-.115.022-.282.072-.479.128A7.028,7.028,0,0,1,82.341,44.255Z" transform="translate(0)"/>
    <path class="cls-2" d="M115.1,1h.039a.971.971,0,0,1,.764,1.127,3.075,3.075,0,0,1-.687,1.347,24.29,24.29,0,0,0-2.72,4.9,40.687,40.687,0,0,0-2.731,13.32c-.366,6.416.119,12.87-.5,19.267h-.38A129.031,129.031,0,0,0,92.6,41.993q-4.069.518-8.1,1.294a11.34,11.34,0,0,1-2.163.469.859.859,0,0,1-.618-.187c-.758-.758.271-1.276.934-1.4q10.9-2.024,21.959-2.966c.874-.074,1.928-.272,2.231-1.1a2.316,2.316,0,0,0,.1-.688q.325-6.538.65-13.076a69.7,69.7,0,0,1,1.3-12.024,23.349,23.349,0,0,1,5.264-10.753A1.4,1.4,0,0,1,115.1,1m0-1a2.341,2.341,0,0,0-1.676.888,24.121,24.121,0,0,0-5.5,11.209,70.663,70.663,0,0,0-1.322,12.2l-.042.844-.608,12.232a1.788,1.788,0,0,1-.044.393c-.037.1-.246.348-1.377.444-7.367.627-14.788,1.629-22.057,2.979a2.425,2.425,0,0,0-1.952,1.424,1.6,1.6,0,0,0,.493,1.665,1.8,1.8,0,0,0,1.325.48,7.4,7.4,0,0,0,1.919-.369c.178-.051.329-.1.434-.118,2.609-.505,5.313-.937,8.036-1.284a128.457,128.457,0,0,1,16.161-1.025h.38a1,1,0,0,0,1-.9c.353-3.659.35-7.374.348-10.966,0-2.741,0-5.574.153-8.34a39.3,39.3,0,0,1,2.655-12.991,23.4,23.4,0,0,1,2.607-4.7l.037-.051a3.808,3.808,0,0,0,.832-1.757,2.146,2.146,0,0,0-.47-1.616A1.72,1.72,0,0,0,115.2,0L115.1,0Z" transform="translate(0)"/>
  </g>
  <g>
    <path class="cls-1" d="M36.282,49.646a2.606,2.606,0,0,1-.315-.02,1.406,1.406,0,0,1-1-.485,1.86,1.86,0,0,1-.2-1.426l.044-.316c.211-1.485.272-2.428-1.05-3.074a1.182,1.182,0,0,1-.72-.981,1.675,1.675,0,0,1,.817-1.424c.439-.3.539-.428.508-.643l-.031-.217a10.826,10.826,0,0,0-.41-1.978s-.013,0-.026,0c-.034,0-.1-.007-.205-.007-.089,0-.364.014-.365.014-.2.008-.387.014-.574.014a5.5,5.5,0,0,1-3.232-.918,4.939,4.939,0,0,0-2.828-.721,20.044,20.044,0,0,0-2.837.279c-.278.041-.3.33-.269.565a6.147,6.147,0,0,0,.119.615,4.645,4.645,0,0,1,.158,1.084c0,.5.076.681.144.75a.755.755,0,0,0,.467.107,3.65,3.65,0,0,0,.43-.03c1.187-.142,2.379-.4,3.532-.647.989-.213,2.011-.433,3.038-.583a2.613,2.613,0,0,0,.4-.106,3.709,3.709,0,0,1,.513-.136,1.674,1.674,0,0,1,.288-.025,1.241,1.241,0,0,1,1.237.866,1.067,1.067,0,0,1-.061.858,1.4,1.4,0,0,1-.881.641c-1.25.338-2.544.653-3.959.962-1.481.325-2.685.558-3.785.733a.954.954,0,0,0-.649.289.7.7,0,0,0,.034.523,5.4,5.4,0,0,1,.205.841c.13.7.228,1.1.739,1.366a1.162,1.162,0,0,1,.623.725,1.515,1.515,0,0,1-.256,1.2A1.871,1.871,0,0,1,24.285,49.4c-.053,0-.106,0-.161-.006a1.52,1.52,0,0,1-1.413-1.3c-.093-.437-.15-.881-.207-1.326-.045-.351-.09-.7-.154-1.047-.23-1.235-.387-1.67-1.193-1.67a2.389,2.389,0,0,0-.256.014,1.593,1.593,0,0,1-.159.008,1.467,1.467,0,0,1-1.058-.446,1.5,1.5,0,0,1-.4-1.12c.059-1.276,1.259-1.292,1.711-1.3a.68.68,0,0,0,.339-.063l-.012-.051c-.06-.259-.123-.537-.164-.818-.307-2.125-.307-2.125-1.457-2.125-.26,0-.562.009-.914.02h-.118c-1.219,0-1.421-.733-1.433-1.17a1.59,1.59,0,0,1,1.427-1.671c.29-.04.58-.085.871-.131a17.534,17.534,0,0,1,2.693-.279q.16,0,.319.006c.487.019.974.025,1.46.025.747,0,1.492-.017,2.238-.033.593-.013,1.187-.026,1.78-.031.154,0,.31-.01.463-.018.183-.01.364-.019.543-.019a2.364,2.364,0,0,1,2.161,1.108c.069.1.185.2.563.2a5.566,5.566,0,0,0,.628-.051c.213-.025.422-.049.614-.054l.847-.021c1.311-.032,2.619-.064,3.93-.064,1.435,0,2.694.04,3.853.123a1.891,1.891,0,0,1,1.966,1.435,1.333,1.333,0,0,1-.466,1.642,1.842,1.842,0,0,1-.962.34,1.073,1.073,0,0,1-.762-.312,2.168,2.168,0,0,0-1.673-.581c-.238,0-.479.015-.719.029-.26.016-.52.031-.776.031-.134,0-.268,0-.4-.014-.057,0-.111-.006-.164-.006-.448,0-.795.083-.839,1.133a4.806,4.806,0,0,0,.1,1.914c.034.036.15.1.538.1.344,0,.831-.048,1.342-.1s1.034-.123,1.55-.19c.817-.107,1.662-.218,2.5-.274a2.245,2.245,0,0,0,.364-.074,2.94,2.94,0,0,1,.708-.116c.377,0,1.028.153,1.155,1.178a1.237,1.237,0,0,1-.209.943,1.556,1.556,0,0,1-1.127.477,2.4,2.4,0,0,0-.362.06,21.931,21.931,0,0,1-4.185.646l-.863.079c-.987.1-1.115.239-1.131.267s-.074.175.3.947a4.682,4.682,0,0,1,.373,2.555,1.5,1.5,0,0,1-1.6,1.46Z" transform="translate(0)"/>
    <path class="cls-2" d="M29.03,35.344a1.861,1.861,0,0,1,1.744.884,1.078,1.078,0,0,0,.981.425c.414,0,.869-.1,1.254-.1,1.59-.038,3.178-.085,4.766-.085,1.27,0,2.541.031,3.815.121.927.066,1.29.356,1.524,1.089a.855.855,0,0,1-.26,1.069,1.37,1.37,0,0,1-.69.26.573.573,0,0,1-.413-.171,2.682,2.682,0,0,0-2.021-.723c-.5,0-1,.06-1.5.06-.122,0-.243,0-.363-.013-.07-.005-.137-.008-.2-.008-.969,0-1.3.59-1.339,1.612-.085,2.022-.08,2.531,1.134,2.531.353,0,.809-.043,1.394-.1,1.347-.142,2.686-.374,4.035-.463.3-.02.7-.189,1.039-.189.322,0,.587.154.659.739.12.969-.77.774-1.339.938a27.189,27.189,0,0,1-4.959.707c-1.653.16-1.931.492-1.232,1.93a4.177,4.177,0,0,1,.324,2.3,1,1,0,0,1-1.107,1,2.078,2.078,0,0,1-.253-.016c-.82-.1-.879-.526-.769-1.349.191-1.426.57-3-1.281-3.906-.725-.353-.477-1.106.161-1.543.417-.286.8-.579.721-1.128a12.264,12.264,0,0,0-.475-2.315c-.092-.26-.385-.31-.693-.31-.131,0-.265.009-.387.014-.188.008-.371.013-.552.013a4.974,4.974,0,0,1-2.958-.836,5.5,5.5,0,0,0-3.1-.8,20.656,20.656,0,0,0-2.943.29c-.556.081-.721.6-.659,1.114a13.606,13.606,0,0,1,.273,1.636c-.007.984.274,1.36,1.11,1.36a4.16,4.16,0,0,0,.489-.033c2.229-.267,4.374-.908,6.584-1.232.313-.046.61-.191.922-.245a1.209,1.209,0,0,1,.2-.018.751.751,0,0,1,.763.522c.158.478-.226.759-.6.86-1.3.353-2.616.668-3.935.957-1.246.273-2.5.527-3.757.727-.907.145-1.318.607-1.007,1.474s.135,1.939,1.184,2.483c.505.262.481.721.172,1.221a1.371,1.371,0,0,1-1.211.811c-.04,0-.081,0-.123,0a1.024,1.024,0,0,1-.961-.911c-.166-.777-.213-1.579-.359-2.36-.193-1.032-.351-2.078-1.684-2.078a2.984,2.984,0,0,0-.308.017,1.036,1.036,0,0,1-.107.006.954.954,0,0,1-.96-1.044c.034-.743.629-.813,1.219-.821a.968.968,0,0,0,.879-.411c-.069-.328-.172-.707-.228-1.093-.322-2.23-.366-2.554-1.952-2.554-.264,0-.571.009-.929.02l-.1,0c-.49,0-.915-.116-.931-.684a1.089,1.089,0,0,1,1-1.162,25.853,25.853,0,0,1,3.5-.405q.149,0,.3.006c.5.019.99.026,1.484.026,1.34,0,2.678-.052,4.018-.063.337,0,.674-.037,1-.037m0-1h0c-.187,0-.378.01-.569.02-.147.008-.294.016-.442.017-.595,0-1.19.018-1.784.031-.741.016-1.483.032-2.225.032-.481,0-.963-.007-1.446-.025q-.168-.006-.336-.006a17.944,17.944,0,0,0-2.773.285c-.287.045-.574.09-.861.129a2.1,2.1,0,0,0-1.859,2.18,1.7,1.7,0,0,0,1.93,1.657l.134,0c.347-.01.644-.019.9-.019a2.9,2.9,0,0,1,.648.045,9.236,9.236,0,0,1,.313,1.639c.019.133.042.261.067.384-1.537.11-1.909,1.008-1.944,1.764a2,2,0,0,0,.539,1.488,1.969,1.969,0,0,0,1.42.6,2.028,2.028,0,0,0,.21-.011,1.989,1.989,0,0,1,.2-.011c.367,0,.466,0,.686,1.177l.016.085c.063.337.106.679.15,1.02.057.443.115.9.214,1.365a2.016,2.016,0,0,0,1.865,1.7c.068.005.134.007.2.007a2.352,2.352,0,0,0,2.062-1.286,1.986,1.986,0,0,0,.313-1.6,1.65,1.65,0,0,0-.876-1.035c-.282-.146-.351-.336-.477-1.014a5.857,5.857,0,0,0-.226-.918c-.013-.035-.022-.065-.028-.089a1.431,1.431,0,0,1,.251-.06c1.113-.177,2.325-.412,3.814-.738,1.328-.291,2.548-.585,3.721-.9a1.854,1.854,0,0,0-.3,1.123,1.685,1.685,0,0,0,1,1.394c.976.476.988,1.046.774,2.553l-.045.322a2.3,2.3,0,0,0,.3,1.8,1.877,1.877,0,0,0,1.337.675,3.087,3.087,0,0,0,.375.023,1.986,1.986,0,0,0,2.1-1.923,5.114,5.114,0,0,0-.422-2.81c-.087-.179-.145-.314-.183-.414.132-.026.327-.056.612-.083s.574-.053.862-.078a22.351,22.351,0,0,0,4.277-.663,2.463,2.463,0,0,1,.285-.045,2.43,2.43,0,0,0,1.1-.334,1.6,1.6,0,0,0,.672-1.643,1.628,1.628,0,0,0-1.651-1.616,3.388,3.388,0,0,0-.829.13,2.693,2.693,0,0,1-.276.06c-.858.057-1.711.169-2.535.277-.513.067-1.025.135-1.539.189-.5.052-.97.1-1.29.1-.06,0-.108,0-.148,0a12.98,12.98,0,0,1,.013-1.485,1.231,1.231,0,0,1,.121-.629h0a.7.7,0,0,1,.218-.025q.061,0,.127.005c.145.011.291.015.437.015.267,0,.537-.016.807-.032.23-.014.461-.028.689-.028a1.679,1.679,0,0,1,1.324.439A1.565,1.565,0,0,0,42.165,40a2.306,2.306,0,0,0,1.231-.419,1.82,1.82,0,0,0,.672-2.215,2.4,2.4,0,0,0-2.406-1.781c-1.17-.083-2.441-.124-3.886-.124-1.32,0-2.656.033-3.948.065l-.843.021c-.207,0-.432.03-.662.057a5.24,5.24,0,0,1-.569.048.886.886,0,0,1-.171-.013,2.854,2.854,0,0,0-2.553-1.3ZM24.08,38.22a18.583,18.583,0,0,1,2.612-.252,4.471,4.471,0,0,1,2.553.638,6.092,6.092,0,0,0,1.283.65c-.745.134-1.481.292-2.2.447-1.195.257-2.323.5-3.486.639a3.167,3.167,0,0,1-.37.026c-.036,0-.066,0-.091,0a2.258,2.258,0,0,1-.019-.35,5.135,5.135,0,0,0-.17-1.2,5.659,5.659,0,0,1-.11-.562l0-.034Z" transform="translate(0)"/>
  </g>
  <g>
    <path class="cls-1" d="M112.772,87.255a1.433,1.433,0,0,1-1.078-.652,3.91,3.91,0,0,1-.434-2.507l.009-.226a203.238,203.238,0,0,0-1.593-32.983,3.157,3.157,0,0,0-.97-2.319,3.093,3.093,0,0,0-1.574-.308q-2.041-.053-4.084-.056a88.715,88.715,0,0,0-13.275.883c-2.847.43-6.072,1.138-8.405,3.128a1.442,1.442,0,0,1-.911.428,1.7,1.7,0,0,1-.18-.018.915.915,0,0,1-.612-.442,1.146,1.146,0,0,1-.109-.912,1.957,1.957,0,0,1,.72-.923c3.243-2.608,7.662-4.108,13.509-4.585,2.078-.169,4.191-.213,6.235-.255,2.6-.053,5.294-.108,7.908-.427a8.182,8.182,0,0,1,.97-.075,2.425,2.425,0,0,1,1.5.432,3.07,3.07,0,0,1,.975,1.616,40.256,40.256,0,0,1,1.493,8.652c.479,5.361.764,11.253.9,18.543.069,3.752.1,7.5.121,11.256a2.059,2.059,0,0,1-.458,1.468.914.914,0,0,1-.657.282Z" transform="translate(0)"/>
    <path class="cls-2" d="M108.9,45.506a1.957,1.957,0,0,1,1.2.332,2.628,2.628,0,0,1,.8,1.368,39.357,39.357,0,0,1,1.472,8.544c.549,6.154.782,12.329.9,18.508.069,3.749.1,7.5.12,11.25,0,.71-.231,1.247-.615,1.247-.2,0-.428-.139-.687-.464a4.182,4.182,0,0,1-.316-2.4,203.361,203.361,0,0,0-1.6-33.065,3.55,3.55,0,0,0-1.2-2.675,3.51,3.51,0,0,0-1.831-.387q-2.046-.052-4.094-.056a89.354,89.354,0,0,0-13.353.888c-3.087.466-6.28,1.216-8.655,3.243a1,1,0,0,1-.587.308.427.427,0,0,1-.083-.008.558.558,0,0,1-.341-.716,1.514,1.514,0,0,1,.557-.681c3.684-2.963,8.523-4.091,13.235-4.476s9.469-.113,14.163-.684a7.608,7.608,0,0,1,.909-.072m0-1a8.449,8.449,0,0,0-1.029.079c-2.589.315-5.268.37-7.858.423-2.051.042-4.172.086-6.265.257-5.95.485-10.458,2.021-13.78,4.693a2.446,2.446,0,0,0-.887,1.168,1.654,1.654,0,0,0,.159,1.314,1.408,1.408,0,0,0,1.221.7,1.9,1.9,0,0,0,1.236-.548c2.237-1.909,5.378-2.6,8.155-3.015a88.283,88.283,0,0,1,13.2-.877c1.286,0,2.617.018,4.068.055a2.769,2.769,0,0,1,1.317.229c.469.3.635,1.121.745,1.963a202.865,202.865,0,0,1,1.588,32.9l-.009.223a4.337,4.337,0,0,0,.542,2.837,1.9,1.9,0,0,0,1.47.841,1.421,1.421,0,0,0,1.012-.43,2.538,2.538,0,0,0,.6-1.824c-.025-3.681-.051-7.487-.121-11.261-.135-7.3-.422-13.2-.9-18.578a40.713,40.713,0,0,0-1.515-8.76,3.516,3.516,0,0,0-1.151-1.864,2.9,2.9,0,0,0-1.8-.531Z" transform="translate(0)"/>
  </g>
  <g>
    <path class="cls-1" d="M134.745,37.574a.871.871,0,0,1-.686-.271c-.249-.294-.189-.655-.113-1.112a7.153,7.153,0,0,0,.121-1.283,11.008,11.008,0,0,0-.478-2.835q-.07-.262-.134-.509c-.108.021-.234.052-.344.079a3.686,3.686,0,0,1-.822.141.945.945,0,0,1-.349-.06l-.187-.065c-.371-.124-1.062-.354-1.064-1.161a2.129,2.129,0,0,1,.55-1.467,1.152,1.152,0,0,1,.823-.357c.282.019.476.026.667.026a15.454,15.454,0,0,0,3.563-.557,22.775,22.775,0,0,1,2.653-.515,2.208,2.208,0,0,1,.256-.016,1.02,1.02,0,0,1,1.031.567.988.988,0,0,1,.026.8,1.331,1.331,0,0,1-.791.688c-.4.156-.9.368-1.43.591-.553.233-1.134.478-1.658.686.032.22.072.525.13.955.14,1.045.4,2.992.5,3.277a1.65,1.65,0,0,1,.072,1.442,1.936,1.936,0,0,1-1.442.83,4.568,4.568,0,0,1-.9.127Z" transform="translate(0)"/>
    <path class="cls-2" d="M139.2,28.112a.575.575,0,0,1,.574.27c.183.416-.126.676-.49.818-.916.359-2.382,1.013-3.465,1.424.05.053.541,4.3.73,4.741.47,1.105-.1,1.4-1.011,1.593a4.263,4.263,0,0,1-.795.117c-.7,0-.17-.638-.177-2.168a15.763,15.763,0,0,0-.694-3.748c-.02-.087-.1-.119-.229-.119-.343,0-.983.245-1.354.245a.469.469,0,0,1-.167-.025c-.4-.155-.932-.222-.933-.763,0-.6.331-1.322.873-1.322l.049,0c.208.016.414.024.618.024,2.158,0,4.166-.836,6.273-1.076a1.775,1.775,0,0,1,.2-.012m0-1a2.779,2.779,0,0,0-.312.018,23.169,23.169,0,0,0-2.711.525,15.1,15.1,0,0,1-3.449.544c-.179,0-.359-.007-.54-.021-.026,0-.1,0-.127,0a1.66,1.66,0,0,0-1.177.5,2.64,2.64,0,0,0-.7,1.82,1.74,1.74,0,0,0,1.406,1.635c.056.019.112.037.164.057a1.436,1.436,0,0,0,.53.094,3.5,3.5,0,0,0,.806-.122l.01.038a10.544,10.544,0,0,1,.461,2.711,6.7,6.7,0,0,1-.115,1.2,1.728,1.728,0,0,0,.226,1.517,1.331,1.331,0,0,0,1.066.448,4.915,4.915,0,0,0,1-.139,2.442,2.442,0,0,0,1.782-1.088,2.115,2.115,0,0,0-.058-1.874c-.085-.289-.341-2.212-.464-3.136-.029-.22-.055-.411-.077-.577.424-.173.869-.36,1.305-.544.524-.221,1.022-.431,1.416-.586a1.787,1.787,0,0,0,1.071-.963,1.5,1.5,0,0,0-1.52-2.056Z" transform="translate(0)"/>
  </g>
  <g>
    <path class="cls-1" d="M139.116,38.826a1.361,1.361,0,0,1-1.141-.607,2.225,2.225,0,0,1-.094-2.054c.136-.343.3-.708.473-1.087a11.2,11.2,0,0,0,1-2.864c-.24.04-.526.092-.768.135a13.7,13.7,0,0,1-1.619.245.519.519,0,0,1-.521-.5,2.728,2.728,0,0,1,.386-1.5c.266-.422,3.148-1.221,4.9-1.446.021,0,.084-.007.105-.007a.826.826,0,0,1,.757,1.15,45.047,45.047,0,0,0-1.639,5.167,7.113,7.113,0,0,1,1.595-.255,1.066,1.066,0,0,1,1.06.495,2.024,2.024,0,0,0,.409.439c.329.3.7.637.612,1.117-.1.528-.669.611-2.047.81a12.262,12.262,0,0,0-2.767.6,1.749,1.749,0,0,1-.709.16Z" transform="translate(0)"/>
    <path class="cls-2" d="M141.845,29.641a.326.326,0,0,1,.3.452,53.48,53.48,0,0,0-1.884,6.089,9.7,9.7,0,0,1,2.3-.48c.3,0,.534.058.611.216.236.479,1.047.876.978,1.244s-3.094.413-4.525,1.048a1.25,1.25,0,0,1-.505.117c-.772,0-1.194-.907-.77-1.977.546-1.376,1.579-3.125,1.547-4.7a.124.124,0,0,0-.045-.005c-.356,0-2.464.448-2.877.448h-.02a2.223,2.223,0,0,1,.311-1.237,17.394,17.394,0,0,1,4.54-1.214l.042,0m0-1c-.042,0-.127.005-.169.011-.81.1-4.762.872-5.263,1.678a3.2,3.2,0,0,0-.461,1.774,1,1,0,0,0,.954.99h.067a12.615,12.615,0,0,0,1.707-.253l.033-.006a15.8,15.8,0,0,1-.812,2.035c-.176.388-.344.761-.483,1.111a2.715,2.715,0,0,0,.145,2.519,1.855,1.855,0,0,0,1.554.827,2.241,2.241,0,0,0,.911-.2,12.047,12.047,0,0,1,2.635-.566c1.484-.214,2.3-.332,2.467-1.211a1.721,1.721,0,0,0-.769-1.581,2.565,2.565,0,0,1-.3-.3,1.51,1.51,0,0,0-1.5-.762,5.38,5.38,0,0,0-.9.091,38.7,38.7,0,0,1,1.4-4.3,1.326,1.326,0,0,0-1.216-1.848Z" transform="translate(0)"/>
  </g>
  <g>
    <path class="cls-1" d="M144.542,36.105a4.04,4.04,0,0,1-1.881-.6,1.516,1.516,0,0,1-.732-1.226,3.889,3.889,0,0,1,1.316-3.077,1.853,1.853,0,0,1,1.176-.548,1.433,1.433,0,0,1,1.082.633,4.257,4.257,0,0,1,.554,3.9,1.622,1.622,0,0,1-1.515.911Zm-.345-2.728h0c-.006.049-.012.1-.018.155a1.412,1.412,0,0,1,.055-.2Z" transform="translate(0)"/>
    <path class="cls-2" d="M144.421,31.158c.322,0,.525.252.724.485.83,1.139,1.173,3.962-.6,3.962a3.538,3.538,0,0,1-1.638-.534c-.91-.5-.466-2.5.669-3.487a1.384,1.384,0,0,1,.849-.426m-.272,3.173a.481.481,0,0,0,.507-.483.843.843,0,0,1,.045-.351.489.489,0,0,0-.5-.619.46.46,0,0,0-.461.353,2.343,2.343,0,0,0-.08.617.465.465,0,0,0,.493.483m.272-4.173a2.316,2.316,0,0,0-1.5.67,4.426,4.426,0,0,0-1.486,3.507,2,2,0,0,0,.988,1.611,4.455,4.455,0,0,0,2.122.659A2.127,2.127,0,0,0,146.5,35.42a4.73,4.73,0,0,0-.55-4.367q-.023-.031-.048-.061a1.935,1.935,0,0,0-1.484-.835Z" transform="translate(0)"/>
  </g>
  <g>
    <path class="cls-1" d="M148.391,37.963c-1.871,0-2.7-4.874-2.742-5.918a.5.5,0,0,1,.379-.5,2.769,2.769,0,0,0,.316-.108,1.789,1.789,0,0,1,.63-.156.765.765,0,0,1,.588.258,11.2,11.2,0,0,1,1,2.561c.866-2.179,1.073-2.3,1.2-2.378a1.262,1.262,0,0,1,.644-.186,1.3,1.3,0,0,1,1.19.978c.03.086.1.255.182.461a6.335,6.335,0,0,1,.561-1.59,1.286,1.286,0,0,1,1.122-.73,1.982,1.982,0,0,1,.4.046c.642.134.858,1.007.849,1.562-.026,1.35-.1,5.175-2.534,5.175h0a2.56,2.56,0,0,1-.766-.126c-.139-.044-.514-.162-1.085-1.455-1.189,1.945-1.485,2.025-1.653,2.071A1.079,1.079,0,0,1,148.391,37.963Z" transform="translate(0)"/>
    <path class="cls-2" d="M153.464,31.15a1.5,1.5,0,0,1,.3.036c.309.064.457.688.45,1.063-.02.957-.032,4.684-2.034,4.684a2.049,2.049,0,0,1-.615-.1c-.442-.139-1.145-2.108-1.145-2.108a15.7,15.7,0,0,1-1.875,2.719.591.591,0,0,1-.156.021c-1.227,0-2.188-3.918-2.243-5.437a5.214,5.214,0,0,1,.825-.25.271.271,0,0,1,.215.091,26.873,26.873,0,0,1,1.312,3.777,27.013,27.013,0,0,1,1.52-3.5.768.768,0,0,1,.389-.117c.319,0,.58.25.719.643.129.367.8,1.949.8,1.949a14.591,14.591,0,0,1,.827-2.969c.221-.336.377-.5.7-.5m0-1a1.79,1.79,0,0,0-1.54.955,2.905,2.905,0,0,0-.256.526,1.645,1.645,0,0,0-1.259-.6,1.753,1.753,0,0,0-.9.255c-.2.119-.387.227-.9,1.373a4.178,4.178,0,0,0-.68-1.456,1.269,1.269,0,0,0-.963-.427,2.2,2.2,0,0,0-.807.189,2.256,2.256,0,0,1-.259.09,1,1,0,0,0-.758,1.007c.03.839.793,6.4,3.242,6.4a1.592,1.592,0,0,0,.419-.056c.267-.073.562-.153,1.474-1.544.453.755.786.86.982.922a3.056,3.056,0,0,0,.915.149c1.942,0,2.962-1.877,3.032-5.578l0-.086c.013-.621-.231-1.851-1.245-2.062a2.471,2.471,0,0,0-.506-.057Z" transform="translate(0)"/>
  </g>
  <g>
    <path class="cls-1" d="M102.677,78.709c-1.153,0-1.19-.94-1.247-2.362l-.011-.257c-.006-.161-.017-.318-.027-.472a2.768,2.768,0,0,1,.942-2.779,3.011,3.011,0,0,0-.131-.273L102,72.2a6.771,6.771,0,0,1-.486-1.008c-.337-.945-.463-1.52-.215-2.035.274-.572.954-.845,1.813-1.142.16-.056.318-.12.473-.191-.021-.081-.11-.121-.421-.217a3.562,3.562,0,0,1-.365-.126,4.261,4.261,0,0,1-2.519-3.533,1.114,1.114,0,0,1,.769-1.1,5.062,5.062,0,0,1,1.065-.116,4.635,4.635,0,0,1,1.216.162A5.047,5.047,0,0,1,100.3,57.94c.161-2.043,1.433-2.264,1.972-2.264a3.426,3.426,0,0,1,1.36.328,1.77,1.77,0,0,1,.636.536c.062.073.11.129.151.171l.087-.566c.144-.93.287-1.865.4-2.8l.014-.12a1.514,1.514,0,0,1,.649-1.288,1.814,1.814,0,0,1,.941-.3,1.314,1.314,0,0,1,.71.209,1.044,1.044,0,0,1,.355,1.332,11.824,11.824,0,0,0-.405,2.678c-.039.524-.077,1.048-.152,1.565a1.659,1.659,0,0,0,.65,1.518,4.773,4.773,0,0,1,.577.713,1.734,1.734,0,0,1-.252,2.039c-.317.477-.351.592-.223.77.973,1.353,1.86,3.122.215,4.916a.576.576,0,0,1,.065.14,2.563,2.563,0,0,1,.068,2.08,2.261,2.261,0,0,1-1.634.886c-.224.043-.45.073-.677.1a4.994,4.994,0,0,0-1.453.347,3.455,3.455,0,0,0,1.733,1,1.79,1.79,0,0,1,1.415,2.146,2.665,2.665,0,0,1-.119.451c-.021.063-.042.127-.058.187a.5.5,0,0,1-.25.316l.025-.006a.552.552,0,0,1,.105-.011.5.5,0,0,1,.441.265,1.53,1.53,0,0,1,.007,1.6,2.7,2.7,0,0,1-1.935,1.174c-.142.034-.283.068-.421.108-.256.075-.515.138-.772.2l-.175.042A7.981,7.981,0,0,1,102.677,78.709Zm3.914-3.526a13.6,13.6,0,0,0-1.647.624,3.014,3.014,0,0,0,1.07-.366C106.2,75.352,106.392,75.261,106.591,75.183Zm-2.529-12.032a5.742,5.742,0,0,1,1.188.731,1.078,1.078,0,0,1,.181.189,3.531,3.531,0,0,1,.346.462,3.354,3.354,0,0,0,.212.3c.179-.166.16-.318-.28-.964-.062-.092-.124-.181-.179-.268-.132-.208-.322-.251-.76-.308-.145-.02-.289-.039-.429-.069C104.247,63.2,104.153,63.177,104.061,63.151Z" transform="translate(0)"/>
    <path class="cls-2" d="M106.51,52.131a.815.815,0,0,1,.443.132c.35.221.213.534.122.834a28.176,28.176,0,0,0-.553,4.246c-.193,1.326.8,1.77,1.3,2.567.716,1.147-1.175,1.839-.457,2.836,1.077,1.5,1.627,2.926.109,4.437-.282.281.05.32.1.483.5,1.512.261,2.042-1.185,2.318a6.062,6.062,0,0,0-2.758.787,3.632,3.632,0,0,0,2.314,1.638,1.3,1.3,0,0,1,1.061,1.6,5.77,5.77,0,0,1-.166.582c-.812.222-4.369,1.39-2.152,1.705a1.463,1.463,0,0,0,.207.014c.8,0,1.522-.625,2.311-.795a1.034,1.034,0,0,1,.015,1.109c-.459.792-1.309.834-2.063,1.054-.305.089-.616.16-.925.236a7.9,7.9,0,0,1-1.558.3c-.713,0-.692-.538-.758-2.139-.047-1.158-.311-2.132.814-2.9.268-.184.042-.586-.107-.871a10.29,10.29,0,0,1-.637-1.274c-.593-1.664-.441-1.937,1.291-2.536a5.668,5.668,0,0,0,.658-.277c.061-.03.089-.128.15-.22.061-.771-.622-.77-1.089-.969a3.791,3.791,0,0,1-2.222-3.156.669.669,0,0,1,.38-.531,4.55,4.55,0,0,1,.961-.105,4.485,4.485,0,0,1,2.821,1.047,1.716,1.716,0,0,1,.158.178c.278.294.51.916.883.916a.508.508,0,0,0,.323-.143c.692-.584.026-1.3-.352-1.9-.353-.556-.973-.479-1.5-.6a4.618,4.618,0,0,1-3.648-4.754c.095-1.2.62-1.8,1.473-1.8a2.941,2.941,0,0,1,1.16.286c.463.2.592.871,1.226.871a1.051,1.051,0,0,0,.176-.016c.193-1.3.414-2.6.567-3.917.048-.41.05-.81.425-1.038a1.348,1.348,0,0,1,.682-.23m-3.28,7.562a.649.649,0,0,0,.1-.008c.072-.011.106-.257.158-.4-.121-.278-.263-.545-.606-.564h0a.746.746,0,0,0-.106.415c.033.285.139.554.453.554m3.28-8.562h0a2.292,2.292,0,0,0-1.2.376,1.984,1.984,0,0,0-.887,1.662l-.012.115c-.093.794-.213,1.6-.334,2.391a1.739,1.739,0,0,0-.239-.128,3.924,3.924,0,0,0-1.563-.37c-.529,0-2.27.2-2.47,2.724a5.443,5.443,0,0,0,1.709,4.362c-.188.021-.377.052-.566.093a1.613,1.613,0,0,0-1.155,1.674,4.778,4.778,0,0,0,2.494,3.759,2.474,2.474,0,0,0-1.433,1.151,3.1,3.1,0,0,0,.195,2.419,7.235,7.235,0,0,0,.518,1.08c.05.091.1.182.149.273a3.389,3.389,0,0,0-.822,2.943c.01.148.021.3.027.456l.01.255c.055,1.4.112,2.843,1.747,2.843a8.208,8.208,0,0,0,1.8-.326l.2-.049c.257-.062.513-.125.767-.2.13-.038.263-.069.4-.1a3.156,3.156,0,0,0,2.252-1.41,2.025,2.025,0,0,0,0-2.081,1,1,0,0,0-.25-.3l.018-.055a3.027,3.027,0,0,0,.139-.537,2.29,2.29,0,0,0-1.769-2.7,4.464,4.464,0,0,1-.8-.31c.144-.024.292-.044.446-.065.236-.032.472-.065.7-.109a2.731,2.731,0,0,0,1.971-1.123,2.909,2.909,0,0,0,.012-2.377c1.76-2.181.321-4.316-.33-5.225.046-.083.121-.2.177-.279a2.236,2.236,0,0,0,.26-2.581,5.243,5.243,0,0,0-.634-.787c-.44-.475-.589-.662-.524-1.106.079-.542.119-1.082.157-1.6a11.473,11.473,0,0,1,.363-2.5l.02-.065a1.494,1.494,0,0,0-.566-1.906,1.806,1.806,0,0,0-.976-.286Z" transform="translate(0)"/>
  </g>
  <g>
    <path class="cls-1" d="M17.588,26.093A1.437,1.437,0,0,1,16.2,25.049c-.16-.419-.333-.834-.5-1.249-.314-.756-.639-1.537-.885-2.341a13.04,13.04,0,0,0-1.854-3.909c-1.085-1.5-.367-2.314-.008-2.6a3.772,3.772,0,0,0,1.03-1.545,8.776,8.776,0,0,1,.46-.919c1.131-1.887,2.427-2.284,3.314-2.284a3.65,3.65,0,0,1,2.15.771,3.514,3.514,0,0,1,1.584,2.378,4.323,4.323,0,0,1-1.227,3.237c-.1.123-.2.25-.3.392a32.032,32.032,0,0,0,3.163,1.9q.366.2.74.409c0-.191,0-.38,0-.567-.007-1.061-.014-2.049.021-3.037a2.594,2.594,0,0,1,1.556-2.329,1.973,1.973,0,0,1,.831-.194,1.5,1.5,0,0,1,1.071.437,1.033,1.033,0,0,1,.336.857,1.875,1.875,0,0,1,1.565-.914q.079,0,.164.007a2.579,2.579,0,0,1,2.128,1.738c1.353,2.976,1.029,5-1.113,6.991A3.982,3.982,0,0,1,28,23.407c-.173.014-.344.022-.514.031a3.13,3.13,0,0,0-2.072.606,1.442,1.442,0,0,1-.944.332h0a2.063,2.063,0,0,1-1.456-.652,1.637,1.637,0,0,1-.464-1.231c.066-.972-.369-1.225-1.283-1.662l-.367-.177c-.98-.474-1.994-.963-3.007-1.394a2.3,2.3,0,0,0-.651-.107h-.015a4.875,4.875,0,0,0,.6,1.935c.075.161.15.321.221.482.109.249.224.5.338.744a17.994,17.994,0,0,1,.719,1.7,1.608,1.608,0,0,1-.05,1.254,1.475,1.475,0,0,1-.912.737A1.862,1.862,0,0,1,17.588,26.093Zm9.31-9.97a4.668,4.668,0,0,0-.447,2.484c.111,1.118.284,1.687.968,1.9a1.359,1.359,0,0,0,.408.065,1.867,1.867,0,0,0,1.37-.79,2.146,2.146,0,0,0,.146-2.407l-.075.041c-.076.041-.152.081-.229.113a2.019,2.019,0,0,1-.789.181,1.283,1.283,0,0,1-1.106-.613A1.551,1.551,0,0,1,26.9,16.123Zm-9.215-2.832c-.514,0-1.042.564-1.2,1.284-.078.349-.068.468.673.65a.877.877,0,0,0,.207.024A1.475,1.475,0,0,0,18.675,14c.011-.1.058-.492-.838-.688A.754.754,0,0,0,17.683,13.291Z" transform="translate(0)"/>
    <path class="cls-2" d="M17.757,10.707a3.167,3.167,0,0,1,1.857.675c1.774,1.289,1.864,2.959.266,4.893-.193.234-.365.485-.613.817a46.79,46.79,0,0,0,5.105,3.061c0-1.622-.036-3.035.013-4.445a2.09,2.09,0,0,1,1.266-1.893,1.5,1.5,0,0,1,.621-.148,1,1,0,0,1,.721.293c.353.348.138.746-.071,1.077a5.606,5.606,0,0,0-.97,3.62c.1.976.244,1.992,1.315,2.329a1.853,1.853,0,0,0,.558.088,2.325,2.325,0,0,0,1.759-.975A2.646,2.646,0,0,0,29.8,17.17c-.111-.254-.238-.337-.373-.337a1.817,1.817,0,0,0-.583.238,1.534,1.534,0,0,1-.591.14.778.778,0,0,1-.687-.384,1.247,1.247,0,0,1,.078-1.365c.393-.633.745-1.415,1.6-1.415q.06,0,.124.005A2.069,2.069,0,0,1,31.082,15.5c1.26,2.775,1,4.561-1,6.418a3.5,3.5,0,0,1-2.123.99,4.379,4.379,0,0,0-2.87.753.945.945,0,0,1-.622.214,1.412,1.412,0,0,1-1.42-1.349c.1-1.433-.788-1.771-1.718-2.22-1.074-.518-2.147-1.041-3.243-1.508a5.844,5.844,0,0,0-1.323-.2,5.436,5.436,0,0,0,.823,3.168c.351.8.758,1.582,1.042,2.406a.975.975,0,0,1-.637,1.351,1.368,1.368,0,0,1-.406.067.964.964,0,0,1-.918-.722c-.453-1.189-1.008-2.344-1.377-3.557a13.6,13.6,0,0,0-1.927-4.056c-.5-.69-.721-1.427-.1-1.908.9-.7,1.09-1.732,1.611-2.6a3.52,3.52,0,0,1,2.885-2.041m-.4,5.044a1.968,1.968,0,0,0,1.807-1.666c.086-.712-.478-1.1-1.223-1.265a1.218,1.218,0,0,0-.261-.028,1.961,1.961,0,0,0-1.691,1.675c-.2.894.438,1.1,1.042,1.245a1.361,1.361,0,0,0,.326.039m.4-6.044h0a4.5,4.5,0,0,0-3.743,2.527,9.161,9.161,0,0,0-.486.97,3.348,3.348,0,0,1-.883,1.357c-.369.288-1.466,1.378-.09,3.282A12.578,12.578,0,0,1,14.337,21.6c.252.828.582,1.622.9,2.389.17.41.341.819.5,1.233a1.944,1.944,0,0,0,1.852,1.366,2.367,2.367,0,0,0,.7-.112,1.99,1.99,0,0,0,1.209-.989,2.1,2.1,0,0,0,.076-1.643,18.552,18.552,0,0,0-.739-1.751c-.112-.243-.225-.485-.332-.73-.072-.165-.149-.328-.225-.493a7.64,7.64,0,0,1-.448-1.1c.961.414,1.927.881,2.863,1.333l.2.1.154.074c.9.431,1.044.546,1,1.177a2.132,2.132,0,0,0,.6,1.607,2.545,2.545,0,0,0,1.821.81,1.932,1.932,0,0,0,1.267-.45,2.647,2.647,0,0,1,1.776-.488c.174-.009.35-.018.527-.032a4.475,4.475,0,0,0,2.724-1.254c2.3-2.135,2.667-4.4,1.228-7.564a3.1,3.1,0,0,0-2.542-2.03q-.106-.009-.206-.009a2.139,2.139,0,0,0-1.337.449,1.822,1.822,0,0,0-.212-.25,1.988,1.988,0,0,0-1.423-.581,2.471,2.471,0,0,0-1.042.241,3.08,3.08,0,0,0-1.845,2.765c-.032.911-.029,1.819-.023,2.771-.936-.515-1.833-1.009-2.68-1.572a4.762,4.762,0,0,0,1.3-3.579,3.991,3.991,0,0,0-1.787-2.72,4.137,4.137,0,0,0-2.445-.866Zm-.784,4.95c.135-.557.5-.865.709-.865a1.286,1.286,0,0,1,.488.175.979.979,0,0,1-.811.784.365.365,0,0,1-.087-.01c-.127-.031-.227-.059-.3-.084Zm10.853,5.417a.851.851,0,0,1-.258-.042c-.345-.108-.507-.337-.62-1.474a3.994,3.994,0,0,1,.01-.89,1.752,1.752,0,0,0,1.293.543,2.4,2.4,0,0,0,.807-.15,1.419,1.419,0,0,1-.249,1.408,1.438,1.438,0,0,1-.982.6Z" transform="translate(0)"/>
  </g>
  <g>
    <path class="cls-1" d="M76.044,24.258a4.1,4.1,0,0,1-4.075-3.641c-.112-1.8-.238-3.845.965-5.648a1.975,1.975,0,0,0,.125-.235,1.184,1.184,0,0,1,1.033-.844,1.2,1.2,0,0,1,.388.069,1.049,1.049,0,0,1,.66.553,1.463,1.463,0,0,1-.126,1.184l-.052.127a7.367,7.367,0,0,0-.556,3.51c.136,1.4.9,2.46,1.778,2.466a2.091,2.091,0,0,0,1.538-.67,2.785,2.785,0,0,0,.705-2.071,12.856,12.856,0,0,0-.463-2.723,1.793,1.793,0,0,1,.173-1.468,1.74,1.74,0,0,1,1.248-.746,1.837,1.837,0,0,1,.283-.022c.484,0,1.312.22,1.412,1.7a8.068,8.068,0,0,0,1.076,3.881c.258.414.44.638.668.638a.726.726,0,0,0,.256-.058c.33-.129.466-.323.352-1.072a6.925,6.925,0,0,0-.45-1.725,4.048,4.048,0,0,1,.485-4.077c.77-1.225,1.193-1.9,2.263-1.9a7.608,7.608,0,0,1,1.513.23,6.505,6.505,0,0,1,4.037,2.576c1.221,1.657,1.1,2.592-.5,3.85a2.109,2.109,0,0,1-.5.271,1.388,1.388,0,0,0-.312.162,5.216,5.216,0,0,0,2.613.657c.427.034.854.068,1.268.138a6.585,6.585,0,0,0,1.087.063h.253c.256,0,.511,0,.765.021a1.105,1.105,0,0,1,1.129,1.014,1.2,1.2,0,0,1-.271.9,1.277,1.277,0,0,1-.893.418c-.528.039-1.058.066-1.586.066a10.523,10.523,0,0,1-2.376-.244c-.82-.189-1.637-.4-2.436-.6l-.8-.205c-.056.063-.064.173-.043.457.042.588.13,1.81-1.264,1.971a2.756,2.756,0,0,1-.323.02,1.576,1.576,0,0,1-1.653-1.337,1.281,1.281,0,0,0-.085-.309h-.016c-.113,0-.2.086-.4.336a3.905,3.905,0,0,1-.28.319,3.1,3.1,0,0,1-2.038,1.086,2.6,2.6,0,0,1-1.7-.768c-.286-.248-.437-.3-.513-.3a1.516,1.516,0,0,0-.616.38A9.386,9.386,0,0,1,77.389,24a3.627,3.627,0,0,1-1.345.254ZM87.162,14.38c-.185.008-.263.087-.271.272a3.419,3.419,0,0,0,.9,1.942c.781-.106,1-.371,1.082-.733a.965.965,0,0,0-.276-.575,2.373,2.373,0,0,0-1.419-.906v-.5Z" transform="translate(0)"/>
    <path class="cls-2" d="M85.73,11.984a7.337,7.337,0,0,1,1.407.219,6.039,6.039,0,0,1,3.74,2.384c1.045,1.417.987,2.065-.4,3.16-.357.281-.946.249-1.138.956,1.25,1.148,2.925.9,4.436,1.158a7.017,7.017,0,0,0,1.171.071H95.2c.243,0,.487,0,.728.019.32.022.634.158.665.553a.686.686,0,0,1-.7.785c-.517.038-1.034.065-1.551.065a10.036,10.036,0,0,1-2.262-.231c-1.164-.268-2.317-.579-3.426-.859-.515.23-.5.63-.467,1.029.048.667.077,1.334-.822,1.438a2.3,2.3,0,0,1-.265.016,1.084,1.084,0,0,1-1.166-.946c-.066-.3-.1-.642-.559-.709h-.014c-.516,0-.723.484-1.05.806a2.56,2.56,0,0,1-1.687.942,2.148,2.148,0,0,1-1.374-.646,1.346,1.346,0,0,0-.84-.421,1.629,1.629,0,0,0-.929.49A8.961,8.961,0,0,1,77.2,23.539a3.13,3.13,0,0,1-1.16.219,3.592,3.592,0,0,1-3.576-3.172c-.113-1.825-.217-3.692.882-5.339.216-.323.313-.857.742-.857a.705.705,0,0,1,.227.042c.674.23.336.805.178,1.208a7.95,7.95,0,0,0-.589,3.741c.161,1.647,1.1,2.91,2.274,2.917H76.2a2.907,2.907,0,0,0,2.728-3.269,13.479,13.479,0,0,0-.479-2.828,1.164,1.164,0,0,1,1.013-1.587,1.369,1.369,0,0,1,.207-.017c.68,0,.871.6.913,1.23a8.662,8.662,0,0,0,1.151,4.112c.277.445.581.873,1.093.873a1.2,1.2,0,0,0,.439-.092c.768-.3.761-.976.663-1.613a7.472,7.472,0,0,0-.487-1.849,3.6,3.6,0,0,1,.452-3.611c.778-1.238,1.063-1.665,1.838-1.665m2.015,5.12c.748-.083,1.434-.319,1.619-1.133.172-.759-1.261-2.091-2.182-2.091h-.041a.735.735,0,0,0-.75.75c-.036.853.869,2.459,1.354,2.473m-2.015-6.12h0c-1.345,0-1.878.849-2.685,2.133a4.62,4.62,0,0,0-.521,4.543,6.435,6.435,0,0,1,.415,1.6,1.317,1.317,0,0,1,.021.505c-.005,0-.025.012-.061.026l-.036.013a2.423,2.423,0,0,1-.281-.392,7.6,7.6,0,0,1-1-3.65c-.135-2.007-1.5-2.163-1.911-2.163a2.368,2.368,0,0,0-.359.028,2.254,2.254,0,0,0-1.591.968,2.285,2.285,0,0,0-.235,1.872,12.42,12.42,0,0,1,.445,2.618,2.284,2.284,0,0,1-.569,1.7A1.576,1.576,0,0,1,76.2,21.3c-.534,0-1.175-.774-1.3-2.014a6.9,6.9,0,0,1,.524-3.279l.047-.115a1.924,1.924,0,0,0,.121-1.583,1.537,1.537,0,0,0-.955-.822,1.7,1.7,0,0,0-.549-.1,1.668,1.668,0,0,0-1.483,1.127,1.457,1.457,0,0,1-.09.175c-1.3,1.943-1.165,4.075-1.049,5.956a4.613,4.613,0,0,0,4.574,4.11,4.121,4.121,0,0,0,1.53-.29A9.888,9.888,0,0,0,80.1,23.044c.076-.061.212-.169.309-.235a1.913,1.913,0,0,1,.181.141,3.1,3.1,0,0,0,2.029.89,3.542,3.542,0,0,0,2.388-1.229q.053-.052.1-.107a2.059,2.059,0,0,0,1.984,1.243,3.311,3.311,0,0,0,.381-.023,1.922,1.922,0,0,0,1.718-2.289l.223.057c.8.206,1.614.416,2.435.6a11,11,0,0,0,2.487.257c.474,0,.99-.022,1.623-.068a1.774,1.774,0,0,0,1.234-.591,1.69,1.69,0,0,0,.39-1.269,1.6,1.6,0,0,0-1.592-1.473c-.264-.018-.531-.022-.8-.022h-.254a6.168,6.168,0,0,1-1-.057c-.444-.075-.885-.11-1.312-.144a9.08,9.08,0,0,1-1.527-.2c1.786-1.409,1.95-2.68.584-4.533a7.077,7.077,0,0,0-4.334-2.768,7.948,7.948,0,0,0-1.619-.241Zm2.242,5.072a3.787,3.787,0,0,1-.537-1.094,2.4,2.4,0,0,1,.929.868c-.035.078-.121.163-.392.225Z" transform="translate(0)"/>
  </g>
  <g>
    <path class="cls-1" d="M115.487,42.062c-1.452,0-2.248-.736-2.5-2.315-1.839-11.3-.491-23.77,4.121-38.112A1.848,1.848,0,0,1,117.481.9a1.168,1.168,0,0,1,.868-.371,1.648,1.648,0,0,1,1.5,1.088,3.387,3.387,0,0,1-.252,2.226A78.76,78.76,0,0,0,115.179,37.7a1.706,1.706,0,0,0,.4,1.183.974.974,0,0,0,.6.149,4.742,4.742,0,0,0,.573-.045,181.112,181.112,0,0,1,19.317-1.348h.1c1.588,0,2.6.566,2.788,1.554a.5.5,0,0,1-.47.591c-4.691.2-9.438.576-14.11,1.119-2.353.274-4.712.593-7.014.947,0,0-.694.108-.914.138a7.383,7.383,0,0,1-.965.076Z" transform="translate(0)"/>
    <path class="cls-2" d="M118.349,1.032a1.154,1.154,0,0,1,1.026.747,2.932,2.932,0,0,1-.248,1.9,79.07,79.07,0,0,0-4.447,34.071,2.071,2.071,0,0,0,.6,1.538,1.461,1.461,0,0,0,.9.249,5.211,5.211,0,0,0,.635-.049,179.81,179.81,0,0,1,19.264-1.344h.1c.95,0,2.125.227,2.3,1.145q-7.091.3-14.146,1.122-3.525.41-7.033.949c-.311.048-.614.1-.9.136a6.9,6.9,0,0,1-.9.071c-1.012,0-1.764-.379-2.011-1.9-2.058-12.654.18-25.674,4.1-37.879a1.41,1.41,0,0,1,.268-.544.665.665,0,0,1,.5-.211m0-1a1.663,1.663,0,0,0-1.235.531,2.317,2.317,0,0,0-.486.919c-4.636,14.42-5.99,26.963-4.139,38.346a2.83,2.83,0,0,0,3,2.735,7.789,7.789,0,0,0,1.031-.08c.224-.03.455-.066.692-.1l.232-.036c2.293-.353,4.647-.671,7-.944,4.657-.542,9.392-.917,14.073-1.116a1,1,0,0,0,.941-1.182c-.232-1.247-1.427-1.963-3.279-1.963h-.112a181.479,181.479,0,0,0-19.37,1.352,4.4,4.4,0,0,1-.512.042.549.549,0,0,1-.3-.049c-.062-.047-.148-.229-.2-.828a78.263,78.263,0,0,1,4.39-33.638,3.792,3.792,0,0,0,.257-2.556A2.14,2.14,0,0,0,118.349.032Z" transform="translate(0)"/>
  </g>
  <g>
    <path class="cls-1" d="M123.338,84.4a.5.5,0,0,1-.485-.51,3.564,3.564,0,0,1,.818-2.075,3.465,3.465,0,0,0,.472-.816l-.011,0c-.727-.155-1.9-.405-1.826-1.782.036-.693.411-1.547,1.993-1.681,1.619-.137,2.417-.992,2.844-3.05.019-.092.028-.191.039-.293.045-.435.139-1.339,1.165-1.407.077,0,.156-.008.233-.008A1.952,1.952,0,0,1,130.6,74.1c.271.85.637.853.834.853h0a2.529,2.529,0,0,0,.911-.23c.465-.19.945-.344,1.426-.5a15.415,15.415,0,0,0,1.485-.526,3.887,3.887,0,0,1,1.574-.335c.091,0,.182,0,.274.009a1.542,1.542,0,0,1,1.528,1.146,1.456,1.456,0,0,1-.742,1.5c-1.134.844-2.277,1.678-3.429,2.518l-.945.69a2.489,2.489,0,0,0,.686.963,5.81,5.81,0,0,1,.569.655,1.554,1.554,0,0,1,.28,1.521,1.482,1.482,0,0,1-1.23.823,11.59,11.59,0,0,1-1.689.157h0a4.364,4.364,0,0,1-1.9-.385,3.361,3.361,0,0,0-1.448-.354,3.765,3.765,0,0,0-2.259.882,4.81,4.81,0,0,1-2.973.914Z" transform="translate(0)"/>
    <path class="cls-2" d="M128.579,73.276a1.463,1.463,0,0,1,1.543.977c.279.871.726,1.2,1.312,1.2a3,3,0,0,0,1.1-.268c.953-.391,1.977-.616,2.921-1.026a3.38,3.38,0,0,1,1.374-.294q.12,0,.242.008a1.054,1.054,0,0,1,1.076.765c.11.45-.239.744-.554.979-1.525,1.134-3.063,2.249-4.619,3.386.056.975.9,1.438,1.389,2.13.537.755.3,1.426-.616,1.561a11.175,11.175,0,0,1-1.616.151,3.9,3.9,0,0,1-1.686-.337,3.865,3.865,0,0,0-1.66-.4,4.284,4.284,0,0,0-2.558.981,4.289,4.289,0,0,1-2.671.815q-.1,0-.205,0c.027-1.379,1.16-1.961,1.336-3.025,0-.269-.222-.318-.451-.367-.717-.154-1.484-.3-1.434-1.269.048-.93.843-1.15,1.536-1.208,2.154-.182,2.911-1.609,3.292-3.446.106-.512-.018-1.251.748-1.3q.1-.007.2-.007m3.67,3.859.376-.036.012-.164c-.131.006-.262.01-.391.027a1.508,1.508,0,0,0,0,.174m-.939,3.7.178-.312c-.026-.14-.093-.219-.191-.219a.264.264,0,0,0-.109.027.207.207,0,0,0-.067.191,1.8,1.8,0,0,0,.188.312m-2.73-8.564h0c-.089,0-.177,0-.266.009a1.783,1.783,0,0,0-1.629,1.855c-.009.084-.016.167-.031.243-.377,1.818-1.026,2.537-2.4,2.653-2.12.179-2.42,1.565-2.45,2.153a2.007,2.007,0,0,0,1.594,2.14c-.044.064-.09.132-.139.2a4.082,4.082,0,0,0-.907,2.351,1,1,0,0,0,.969,1.019q.12,0,.236,0a5.284,5.284,0,0,0,3.267-1.012,3.3,3.3,0,0,1,1.962-.784,2.873,2.873,0,0,1,1.234.306,4.859,4.859,0,0,0,2.112.432,12.056,12.056,0,0,0,1.762-.162,1.935,1.935,0,0,0,1.618-1.121,2,2,0,0,0-.333-2.009,6.213,6.213,0,0,0-.616-.711,4.96,4.96,0,0,1-.411-.461l.634-.463c1.143-.834,2.278-1.662,3.405-2.5a1.945,1.945,0,0,0,.929-2.018,2.038,2.038,0,0,0-1.981-1.526q-.156-.01-.309-.01a4.375,4.375,0,0,0-1.772.376,15.07,15.07,0,0,1-1.44.509c-.478.152-.973.308-1.463.509a2.046,2.046,0,0,1-.721.194c-.069,0-.2,0-.36-.505a2.426,2.426,0,0,0-2.5-1.672Z" transform="translate(0)"/>
  </g>
  <g>
    <path class="cls-1" d="M64.543,49.926A8.954,8.954,0,0,1,59.111,48.4a1.866,1.866,0,0,0-1.129-.478,2.64,2.64,0,0,0-.914.212,8.314,8.314,0,0,1-2.968.615A5.5,5.5,0,0,1,50.476,47.4a5.917,5.917,0,0,1-2.018-5.284,5.849,5.849,0,0,1,3.194-4.587,2.1,2.1,0,0,1,.923-.244,1.461,1.461,0,0,1,1.335.92,1.1,1.1,0,0,1,.1.867,1.375,1.375,0,0,1-.8.738l-.154.078a3.752,3.752,0,0,0-1.853,1.953,3.1,3.1,0,0,0,.191,2.83A2.906,2.906,0,0,0,53.741,46c.212.014.424.024.636.024a3.829,3.829,0,0,0,1.931-.445,1.286,1.286,0,0,0-.973-1.056,1.4,1.4,0,0,1-.105-2.732,1.927,1.927,0,0,0,1.028-1.041,5.16,5.16,0,0,1,4.892-2.634c.311,0,.627.016.948.045a1.9,1.9,0,0,1,1.685.99,1.94,1.94,0,0,1-.4,1.954,7.7,7.7,0,0,1-2.7,2.048c-.182.1-.363.2-.542.3-.376.212-.766.4-1.22.621l-.07.034c.405.412.763.833,1.112,1.244.279.329.551.648.834.945a3.094,3.094,0,0,0,2.284,1,3.751,3.751,0,0,0,1.551-.353,2.326,2.326,0,0,0,.261-.149,1.664,1.664,0,0,1,.891-.328,1.171,1.171,0,0,1,.592.166,1.794,1.794,0,0,1,1.074,1.84,1.575,1.575,0,0,1-1.587,1.419C65.417,49.909,64.978,49.926,64.543,49.926Z" transform="translate(0)"/>
    <path class="cls-2" d="M52.576,37.79a.985.985,0,0,1,.888.646c.329.649-.24.8-.644,1.016a4.244,4.244,0,0,0-2.08,2.209A3.41,3.41,0,0,0,53.708,46.5c.223.015.447.025.671.025a4.275,4.275,0,0,0,2.5-.71c-.2-.856-.425-1.467-1.4-1.769a.909.909,0,0,1-.066-1.791A2.4,2.4,0,0,0,56.692,41a4.7,4.7,0,0,1,4.457-2.382c.3,0,.6.015.9.043,1.359.124,1.744,1.05.927,2.147a9.047,9.047,0,0,1-3.091,2.209c-.551.311-1.132.57-1.909.957.977.865,1.671,1.851,2.449,2.668a3.6,3.6,0,0,0,2.646,1.152,4.259,4.259,0,0,0,1.757-.4c.325-.147.607-.433.946-.433a.67.67,0,0,1,.34.1c.489.283.947.668.833,1.322a1.09,1.09,0,0,1-1.124,1.006c-.43.025-.859.041-1.285.041A8.321,8.321,0,0,1,59.409,48a2.348,2.348,0,0,0-1.426-.575,3.09,3.09,0,0,0-1.092.245,7.9,7.9,0,0,1-2.79.583,4.973,4.973,0,0,1-3.3-1.231,5.513,5.513,0,0,1,1.075-9.039,1.631,1.631,0,0,1,.7-.193m5.687,4.058c1.182-.447,1.969-.633,2.424-1.47-.718.321-1.684.152-2.424,1.47M52.576,36.79h0a2.58,2.58,0,0,0-1.143.295,6.347,6.347,0,0,0-3.471,4.975,6.416,6.416,0,0,0,2.192,5.727A5.989,5.989,0,0,0,54.1,49.253a8.8,8.8,0,0,0,3.146-.648,2.22,2.22,0,0,1,.736-.18,1.407,1.407,0,0,1,.833.381,9.415,9.415,0,0,0,5.727,1.62c.411,0,.851-.014,1.344-.043a2.081,2.081,0,0,0,2.051-1.833,2.194,2.194,0,0,0-1.318-2.359,1.663,1.663,0,0,0-.841-.233,2.139,2.139,0,0,0-1.156.4,1.764,1.764,0,0,1-.2.118,3.258,3.258,0,0,1-1.345.309,2.607,2.607,0,0,1-1.922-.842c-.27-.283-.534-.594-.814-.924-.215-.254-.434-.511-.665-.768.244-.121.476-.241.707-.372.177-.1.356-.2.536-.295A8.2,8.2,0,0,0,63.782,41.4a2.362,2.362,0,0,0,.458-2.456,2.324,2.324,0,0,0-2.1-1.284c-.344-.031-.678-.047-.994-.047A5.691,5.691,0,0,0,55.824,40.5c-.286.5-.409.675-.781.825A1.9,1.9,0,0,0,55.187,45a.728.728,0,0,1,.482.321,3.658,3.658,0,0,1-1.29.2c-.2,0-.4-.01-.605-.023a2.419,2.419,0,0,1-1.955-1.091,2.611,2.611,0,0,1-.149-2.379,3.243,3.243,0,0,1,1.625-1.7c.044-.024.091-.046.137-.069a1.838,1.838,0,0,0,1.057-1.028,1.59,1.59,0,0,0-.133-1.252,1.952,1.952,0,0,0-1.78-1.194Z" transform="translate(0)"/>
  </g>
  <g>
    <path class="cls-1" d="M34.751,24.049a1.178,1.178,0,0,1-1.2-1.087c-.115-.761-.267-1.516-.419-2.271a25.182,25.182,0,0,1-.63-4.609,4.588,4.588,0,0,1,.075-.8c.09-.557.3-1.858,1.619-1.858.056,0,.114,0,.175.008a1.251,1.251,0,0,1,.911.421,1.414,1.414,0,0,1,.21,1.108c.038-.069.077-.138.119-.206a1.869,1.869,0,0,1,1.569-1.007,2,2,0,0,1,1.57.91,4.765,4.765,0,0,1,.526,1c.05.119.232.528.232.528a1.909,1.909,0,0,0,.19.368,1.374,1.374,0,0,0,.1-.453,2.353,2.353,0,0,1,.172-.739c.075-.164.144-.33.212-.5a4.578,4.578,0,0,1,1.046-1.731,2.518,2.518,0,0,1,1.719-.707,2.119,2.119,0,0,1,2,1.39c.93,2.394,1.736,4.849,2.516,7.224a1.745,1.745,0,0,1-.025,1.428,1.231,1.231,0,0,1-.842.588,1.935,1.935,0,0,1-.434.052c-.515,0-1.194-.239-1.5-1.377-.269-.989-.579-1.965-.889-2.941-.219-.687-.437-1.373-.641-2.063l-.041-.141c-.168-.589-.238-.645-.382-.645-.22.014-.3.151-.432.7l-.047.188c-.235.9-.4,1.815-.567,2.754a3.7,3.7,0,0,0-.038.533,3.3,3.3,0,0,1-.124.955,3.908,3.908,0,0,0-.117.557c-.111.671-.3,1.793-1.6,1.793h0a2.44,2.44,0,0,1-.325-.022c-1.351-.178-1.214-1.3-1.147-1.837a1.981,1.981,0,0,0,.023-.532,9.042,9.042,0,0,0-.915-2.586,7.112,7.112,0,0,0-.471,2.888,2.638,2.638,0,0,1-1.358,2.475A1.751,1.751,0,0,1,34.751,24.049Z" transform="translate(0)"/>
    <path class="cls-2" d="M42.945,12.934a1.613,1.613,0,0,1,1.537,1.071c.92,2.367,1.714,4.785,2.507,7.2.166.5.25,1.2-.5,1.373a1.45,1.45,0,0,1-.322.039c-.531,0-.847-.365-1.022-1.01-.459-1.686-1.037-3.338-1.532-5.015-.157-.533-.274-1.144-.9-1.144l-.07,0c-.67.045-.758.751-.892,1.262-.242.919-.412,1.858-.577,2.8a10.4,10.4,0,0,1-.144,1.418c-.253.769-.077,2.006-1.238,2.006a1.988,1.988,0,0,1-.26-.018c-1.227-.162-.557-1.3-.7-1.977a9.349,9.349,0,0,0-1.431-3.491,6.875,6.875,0,0,0-.946,3.975,2.093,2.093,0,0,1-1.1,1.958,1.267,1.267,0,0,1-.6.17.687.687,0,0,1-.706-.662A50.324,50.324,0,0,1,33,16.075a4.2,4.2,0,0,1,.07-.712c.113-.706.3-1.436,1.125-1.436q.063,0,.132.006c.994.085.622.9.615,1.489a3.4,3.4,0,0,0,.241,1.51,15.207,15.207,0,0,1,.854-1.912,1.386,1.386,0,0,1,1.144-.769,1.509,1.509,0,0,1,1.168.709,7.18,7.18,0,0,1,.63,1.269c.166.355.275.747.7.94.77-.272.494-1.059.739-1.592a5.983,5.983,0,0,1,1.146-2.072,2.024,2.024,0,0,1,1.377-.571m0-1h0a3.014,3.014,0,0,0-2.062.842,5.052,5.052,0,0,0-1.167,1.907c-.052.126-.1.252-.158.377a4.016,4.016,0,0,0-.406-.7,2.482,2.482,0,0,0-1.971-1.112,2.139,2.139,0,0,0-1.364.509,1.51,1.51,0,0,0-.146-.218,1.727,1.727,0,0,0-1.258-.606c-.075-.006-.147-.009-.217-.009-1.748,0-2.022,1.715-2.113,2.279a5.085,5.085,0,0,0-.082.884,25.546,25.546,0,0,0,.64,4.7c.148.738.3,1.5.414,2.245a1.692,1.692,0,0,0,1.695,1.513,2.259,2.259,0,0,0,1.083-.295,3.086,3.086,0,0,0,1.614-2.815l0-.084a12.489,12.489,0,0,1,.078-1.41,10.429,10.429,0,0,1,.318,1.2,2.748,2.748,0,0,1-.031.367c-.174,1.428.357,2.233,1.579,2.395a2.978,2.978,0,0,0,.39.027c1.721,0,1.979-1.55,2.089-2.212a3.7,3.7,0,0,1,.1-.482,3.7,3.7,0,0,0,.149-1.1,3.433,3.433,0,0,1,.031-.457c.167-.948.323-1.8.543-2.651.192.645.4,1.286.6,1.927.3.954.617,1.941.881,2.913a2.021,2.021,0,0,0,1.987,1.747,2.456,2.456,0,0,0,.545-.064,1.721,1.721,0,0,0,1.166-.83,2.219,2.219,0,0,0,.065-1.831c-.784-2.385-1.594-4.852-2.525-7.249a2.609,2.609,0,0,0-2.469-1.709Z" transform="translate(0)"/>
  </g>
  <g>
    <path class="cls-1" d="M102.384,93.125a.5.5,0,0,1-.489-.4c-.713-3.4-.593-5.711.357-6.882a2.082,2.082,0,0,1,1.664-.793c1.829,0,3.974,2.081,4.414,4.282.263,1.315.3,2.15-1.414,2.638-.994.283-2,.533-3.022.788l-1.386.349A.491.491,0,0,1,102.384,93.125Zm1.431-3.508a1.157,1.157,0,0,0,.432.08,1.855,1.855,0,0,0,.575-.1l.114-.037c.588-.19.647-.27.633-.5a1.33,1.33,0,0,0-.729-1.273.49.49,0,0,0-.157-.034c-.089,0-.182.218-.284.479a3.584,3.584,0,0,1-.194.433l-.076.134A1.647,1.647,0,0,0,103.814,89.617Z" transform="translate(0)"/>
    <path class="cls-2" d="M103.916,85.552c1.557,0,3.528,1.9,3.924,3.88.261,1.305.221,1.695-1.061,2.06-1.432.408-2.884.747-4.4,1.133-1.106-5.274.016-7.073,1.532-7.073m.33,4.645a2.33,2.33,0,0,0,.733-.129c.508-.169,1.136-.314,1.088-1.044A1.786,1.786,0,0,0,105,87.311a.983.983,0,0,0-.321-.061c-.588,0-.679.747-.915,1.166a1.853,1.853,0,0,0-.393,1.537,1.638,1.638,0,0,0,.872.244m-.33-5.645a2.565,2.565,0,0,0-2.052.979c-1.05,1.293-1.2,3.749-.459,7.3a1,1,0,0,0,1.226.764c.461-.118.915-.231,1.366-.343,1.052-.262,2.046-.509,3.056-.8,2.11-.6,2.049-1.812,1.768-3.218-.49-2.451-2.828-4.684-4.9-4.684Zm.574,4.616.07-.123.079-.138a3.915,3.915,0,0,0,.223-.494l.007-.017a1.25,1.25,0,0,1,.192.589c-.083.033-.194.069-.278.1l-.119.039a1.787,1.787,0,0,1-.174.049Z" transform="translate(0)"/>
  </g>
  <g>
    <path class="cls-1" d="M106.033,85.927a10.231,10.231,0,0,1-3.517-.819,2.373,2.373,0,0,1-1.451-1.49,4.8,4.8,0,0,1,.78-3.866,1.863,1.863,0,0,1,1.294-.816c.445-.094.884-.214,1.324-.333.242-.065.484-.132.728-.193a4.375,4.375,0,0,1,1.043-.171,1,1,0,0,1,.847.362c.3.395.216.967-.013,1.763a2.006,2.006,0,0,1-.111.284c-.042,0-.022.044.068.136.993,1,1.824,2.652,1.3,3.914a2.208,2.208,0,0,1-2.29,1.23Zm-2.275-3.338a2.688,2.688,0,0,0,1.4.485,1.721,1.721,0,0,0-1.289-.487Z" transform="translate(0)"/>
    <path class="cls-2" d="M106.234,78.737c.617,0,.661.415.353,1.487-.1.338-.355.469.083.91,1.57,1.582,2.141,4.293-.636,4.293a9.686,9.686,0,0,1-3.337-.786c-1.788-.692-1.48-2.938-.427-4.626a1.356,1.356,0,0,1,.972-.592c.7-.147,1.381-.356,2.072-.531a4.035,4.035,0,0,1,.92-.155m-.017,4.965a2.49,2.49,0,0,0-2.351-1.615,5.8,5.8,0,0,0-1.034.112c.693,1.317,1.785,1.318,3.384,1.5m.017-5.965a4.827,4.827,0,0,0-1.167.186c-.246.062-.49.129-.735.2-.447.122-.87.237-1.3.326a2.356,2.356,0,0,0-1.615,1.041,5.292,5.292,0,0,0-.83,4.29,2.858,2.858,0,0,0,1.745,1.8,10.714,10.714,0,0,0,3.7.853,2.677,2.677,0,0,0,2.751-1.538c.587-1.409-.222-3.182-1.262-4.309.009-.026.017-.052.025-.08a2.455,2.455,0,0,0-.068-2.2,1.473,1.473,0,0,0-1.246-.562Z" transform="translate(0)"/>
  </g>
  <g>
    <path class="cls-1" d="M130.682,37.183a4.256,4.256,0,0,1-2.354-1.446c-.159.146-.613.567-.613.567a2.282,2.282,0,0,1-2.288.488,2.385,2.385,0,0,1-1.732-1.728,7.378,7.378,0,0,1-.1-3l.057-.295a2.282,2.282,0,0,1,.917-1.671,1.638,1.638,0,0,1,.946-.338,1.266,1.266,0,0,1,1.218,1.144,4.268,4.268,0,0,1,0,1.365,4.515,4.515,0,0,0-.029,1.111,3.108,3.108,0,0,0,.936-1.16,6.045,6.045,0,0,1,.5-.764,2,2,0,0,1,1.52-.948,1.738,1.738,0,0,1,.607.118,1.513,1.513,0,0,1,.806,1.875,3.01,3.01,0,0,0,.365,2.452,1.431,1.431,0,0,1-.06,1.916.854.854,0,0,1-.688.319Z" transform="translate(0)"/>
    <path class="cls-2" d="M125.51,30.256c.353,0,.627.254.729.745.173.837-.213,1.682.006,2.669a.34.34,0,0,0,.334.275.369.369,0,0,0,.159-.037c1-.475,1.244-1.469,1.785-2.143.359-.447.681-.762,1.13-.762a1.232,1.232,0,0,1,.432.086c.687.257.541.928.472,1.436a3.377,3.377,0,0,0,.483,2.734.944.944,0,0,1-.061,1.3.356.356,0,0,1-.3.129c-.672,0-1.979-1.155-2.3-1.672-.34.309-.674.619-1.006.926a1.792,1.792,0,0,1-1.215.477,1.76,1.76,0,0,1-.571-.095,1.93,1.93,0,0,1-1.4-1.356,7.012,7.012,0,0,1-.1-2.8c.141-.651.136-1.21.774-1.663a1.164,1.164,0,0,1,.657-.246m0-1h0a2.156,2.156,0,0,0-1.236.431,2.767,2.767,0,0,0-1.119,1.987c-.017.091-.034.185-.054.28a7.87,7.87,0,0,0,.1,3.213,2.891,2.891,0,0,0,2.059,2.1,2.78,2.78,0,0,0,2.79-.594l.131-.121.133-.123a4.04,4.04,0,0,0,2.365,1.256,1.345,1.345,0,0,0,1.082-.51,1.924,1.924,0,0,0,.059-2.535,2.46,2.46,0,0,1-.275-1.978l.013-.094a2.011,2.011,0,0,0-1.126-2.413,2.236,2.236,0,0,0-.782-.149,2.484,2.484,0,0,0-1.909,1.135,5.669,5.669,0,0,0-.471.709,3.8,3.8,0,0,0-.053-1.05,1.771,1.771,0,0,0-1.708-1.542Z" transform="translate(0)"/>
  </g>
  <g>
    <path class="cls-1" d="M123.438,38.935a20.584,20.584,0,0,1-2.928-.275,1.37,1.37,0,0,1-.96-.6,2.539,2.539,0,0,1-.2-1.991l.1-.42a6.865,6.865,0,0,0,.2-4.128,1.412,1.412,0,0,1,.071-1.171,1.555,1.555,0,0,1,1.055-.744,2.1,2.1,0,0,1,.463-.053,1.479,1.479,0,0,1,1.528,1.419,15.755,15.755,0,0,1-.019,2.449l-.015.25a3.165,3.165,0,0,1-.141.689,2.286,2.286,0,0,0-.1.474l-.009.138c-.054.832.013.9.453.93.232.017,2.289.188,2.936.955a.936.936,0,0,1,.229.7c-.09.913-.984,1.376-2.659,1.376Z" transform="translate(0)"/>
    <path class="cls-2" d="M121.238,30.051a.983.983,0,0,1,1.03.969,16.871,16.871,0,0,1-.034,2.621c-.023.391-.222.772-.245,1.163-.041.706-.166,1.517.907,1.6.274.02,2.786.267,2.7,1.112-.07.717-1.029.925-2.162.925a20.344,20.344,0,0,1-2.853-.27c-.832-.125-.966-1.115-.753-1.979.392-1.59.887-3.166.288-4.836a.927.927,0,0,1,.764-1.259,1.615,1.615,0,0,1,.354-.041m0-1a2.619,2.619,0,0,0-.573.066,2.048,2.048,0,0,0-1.383.991,1.9,1.9,0,0,0-.1,1.581,6.4,6.4,0,0,1-.212,3.837l-.106.423a3.027,3.027,0,0,0,.275,2.389,1.88,1.88,0,0,0,1.3.818,21.014,21.014,0,0,0,3,.281c2.462,0,3.076-.994,3.157-1.827a1.442,1.442,0,0,0-.345-1.074c-.743-.882-2.7-1.089-3.28-1.132h-.006c0-.12.008-.286.016-.4l.009-.141a2.129,2.129,0,0,1,.085-.364,3.609,3.609,0,0,0,.159-.8l.015-.246a15.918,15.918,0,0,0,.016-2.532,1.976,1.976,0,0,0-2.025-1.871Z" transform="translate(0)"/>
  </g>
  <g>
    <path class="cls-1" d="M5.4,28.332a1.571,1.571,0,0,1-1.524-1.609l-.03-.708a13.533,13.533,0,0,0-.331-2.985l-.046-.167a2.525,2.525,0,0,1-.136-.944c.028-.288-.038-.359-.546-.589a1.563,1.563,0,0,1-1.071-1.079,1.647,1.647,0,0,1,.644-1.533c.331-.335.452-.486.4-.747-.151-.829-.327-.912-.722-.912l-.2.006A1.245,1.245,0,0,1,.5,15.74a1.52,1.52,0,0,1,1.193-1.528c.7-.184,1.4-.352,2.1-.519s1.384-.33,2.071-.512c1.2-.318,2.4-.658,3.5-.973l1.306-.369a.5.5,0,0,1,.135-.019h.016c.623.02,1.782.057,1.849,1.161.019.3-.071,1-1.292,1.172a15.364,15.364,0,0,0-3.584,1.109c-.719.288-1.463.585-2.227.815-.728.218-.7.367-.529,1.193l.046.229c.122.641.328.643.493.643h0a2.625,2.625,0,0,0,.612-.107c.419-.112.837-.23,1.255-.347.581-.164,1.162-.327,1.746-.476A5.921,5.921,0,0,1,10.681,17a3.5,3.5,0,0,1,1.158.187,1.257,1.257,0,0,1,.911,1.157c0,.37-.182.853-1.046,1.049l-1.163.26c-1.145.254-2.329.517-3.471.833-1.379.382-1.525.628-1.205,2.022a22.534,22.534,0,0,0,.815,2.572l.277.777A1.7,1.7,0,0,1,6.228,28.1a1.674,1.674,0,0,1-.831.232Z" transform="translate(0)"/>
    <path class="cls-2" d="M10.8,12.321c.776.025,1.33.11,1.366.692.026.428-.444.59-.861.647-2.082.288-3.909,1.347-5.886,1.94-1.267.38-1.013,1.046-.831,2,.155.806.506,1.049.986,1.049a2.977,2.977,0,0,0,.741-.124c1-.268,1.993-.566,3-.821a5.556,5.556,0,0,1,1.366-.2,3.028,3.028,0,0,1,.995.16.772.772,0,0,1,.575.684c0,.356-.324.486-.657.561-1.555.355-3.121.674-4.658,1.1-1.631.452-1.941.95-1.559,2.616a32.664,32.664,0,0,0,1.109,3.4,1.226,1.226,0,0,1-.508,1.647,1.162,1.162,0,0,1-.581.165A1.077,1.077,0,0,1,4.372,26.7,18.114,18.114,0,0,0,4,22.9a2.774,2.774,0,0,1-.168-.933c.123-1.229-1.448-.917-1.624-1.814-.191-.973,1.244-1.21,1.049-2.273-.143-.781-.369-1.322-1.214-1.322q-.057,0-.117,0l-.086,0A.753.753,0,0,1,1,15.733,1.017,1.017,0,0,1,1.821,14.7c1.383-.367,2.784-.664,4.167-1.031,1.695-.449,3.378-.941,4.815-1.344m0-1a1,1,0,0,0-.27.037l-1.314.372c-1.1.313-2.292.651-3.487.968-.683.181-1.37.345-2.057.509-.705.168-1.41.336-2.111.522A2.023,2.023,0,0,0,0,15.747a1.746,1.746,0,0,0,1.836,1.818q.069,0,.14,0l.063,0a.63.63,0,0,1,.095.006,1.911,1.911,0,0,1,.135.5,1.866,1.866,0,0,1-.268.3,2.147,2.147,0,0,0-.779,1.982,2.032,2.032,0,0,0,1.356,1.437c.076.034.179.081.25.12a3.152,3.152,0,0,0,.159,1.1l.042.152a13.214,13.214,0,0,1,.315,2.882c.009.236.018.472.029.708A2.083,2.083,0,0,0,5.4,28.832a2.172,2.172,0,0,0,1.08-.3,2.2,2.2,0,0,0,.953-2.843c-.092-.265-.188-.529-.283-.793a21.845,21.845,0,0,1-.8-2.5c-.257-1.121-.257-1.121.851-1.428,1.129-.313,2.306-.574,3.445-.827q.584-.13,1.168-.262c1.295-.3,1.434-1.173,1.434-1.536A1.75,1.75,0,0,0,12,16.71a4.049,4.049,0,0,0-1.32-.214,6.393,6.393,0,0,0-1.613.233c-.592.151-1.181.316-1.769.482-.412.116-.825.232-1.239.343a2.9,2.9,0,0,1-.425.087,1.478,1.478,0,0,1-.062-.234l-.047-.236a4.812,4.812,0,0,1-.086-.509,1.513,1.513,0,0,1,.27-.1c.785-.236,1.539-.537,2.269-.829a14.963,14.963,0,0,1,3.466-1.078c1.336-.185,1.766-1,1.723-1.7-.1-1.558-1.72-1.61-2.332-1.63Z" transform="translate(0)"/>
  </g>
  <g>
    <path class="cls-1" d="M104.28,110.973c-.7,0-2.55,0-2.626-1.174a15.389,15.389,0,0,1,.106-2.508c.028-.3.058-.595.079-.892a1.032,1.032,0,0,1,.182-.478,1.449,1.449,0,0,1,1.426-.877c.081-.006.192-.014.266-.027.01-.093.017-.183.023-.271a2.2,2.2,0,0,1,.666-1.649,3.893,3.893,0,0,1,2.7-1.074,4.736,4.736,0,0,1,1.071.128,2.689,2.689,0,0,1,2.219,2.385,4.075,4.075,0,0,1-1.61,3.434c.148.011.289.024.425.043a1.384,1.384,0,0,1,1.175,1.309.965.965,0,0,1-.754,1.027A31.352,31.352,0,0,1,104.28,110.973Zm3.023-6.384a2.037,2.037,0,0,0-1.137,1.028c.006.051.1.088.171.089h0c.836,0,1.064-.367,1.154-.672C107.478,104.653,107.4,104.613,107.3,104.589Z" transform="translate(0)"/>
    <path class="cls-2" d="M107.1,102.523a4.218,4.218,0,0,1,.957.115A2.207,2.207,0,0,1,109.9,104.6a3.576,3.576,0,0,1-1.476,3.017c-.61.424-1.378.134-1.842.867.519,0,1.042-.032,1.561-.032a7.519,7.519,0,0,1,1,.058c.768.1,1.014,1.216.381,1.353a31.084,31.084,0,0,1-5.242.613c-1.179,0-2.093-.175-2.127-.706a24.041,24.041,0,0,1,.186-3.33c.011-.143.141-.274.2-.418.318-.812,1.576-.158,1.664-.871.078-.636,0-1.187.54-1.682a3.4,3.4,0,0,1,2.363-.943m-.712,3.684a1.473,1.473,0,0,0,1.6-1.113c-.01-.535-.137-.882-.587-.993a.4.4,0,0,0-.1-.011c-.58,0-1.7,1.02-1.643,1.568a.651.651,0,0,0,.659.549h.064m-2.26,2.725q.043,0,.089,0c.224-.022.413-.16.385-.61a.457.457,0,0,0-.455-.378.706.706,0,0,0-.1.007.5.5,0,0,0,.081.985m2.972-7.409a4.381,4.381,0,0,0-3.039,1.206,2.573,2.573,0,0,0-.815,1.832,1.8,1.8,0,0,0-1.644,1.093l-.01.007a1.533,1.533,0,0,0-.254.7c-.022.292-.051.586-.079.879a15.931,15.931,0,0,0-.108,2.591c.107,1.641,2.379,1.641,3.125,1.641a32.011,32.011,0,0,0,5.453-.636,1.453,1.453,0,0,0,1.148-1.536,1.9,1.9,0,0,0-1.073-1.626,4.359,4.359,0,0,0,1.081-3.2,3.2,3.2,0,0,0-2.6-2.809,5.234,5.234,0,0,0-1.184-.141Z" transform="translate(0)"/>
  </g>
  <g>
    <path class="cls-1" d="M13.614,47.761A4.936,4.936,0,0,1,9.44,45.448a5.96,5.96,0,0,1,.267-7.2,2.827,2.827,0,0,1,.838-.792,2.279,2.279,0,0,1,1.082-.3,1.8,1.8,0,0,1,1.482.8,1.5,1.5,0,0,1,.3.7,2.443,2.443,0,0,1,.832-.566,4.925,4.925,0,0,1,1.829-.437,2.746,2.746,0,0,1,1.835.7,4.078,4.078,0,0,1,1.478,3.916c-.605,2.522-1.8,4.166-3.651,5.023a4.989,4.989,0,0,1-2.112.47Zm-.846-7.846c-.117.1-.233.189-.333.265a2.933,2.933,0,0,0-1.357,2.444,2.666,2.666,0,0,0,1.466,2.092,2.237,2.237,0,0,0,1.176.33l.136,0a3.122,3.122,0,0,0,2.5-1.675,2.219,2.219,0,0,0,.185-2.154c-.232-.409-.345-.521-.521-.521-.177.018-.232.025-.225.353a1.283,1.283,0,0,1-1.021,1.416,1.406,1.406,0,0,1-.231.02,1.722,1.722,0,0,1-1.441-.929A2.271,2.271,0,0,1,12.769,39.915Z" transform="translate(0)"/>
    <path class="cls-2" d="M11.627,37.664a1.291,1.291,0,0,1,1.075.588c.5.7-.006,1.1-.569,1.529-2.153,1.628-2.053,4.067.156,5.366a2.734,2.734,0,0,0,1.429.4q.081,0,.163,0c2.194-.053,4.077-2.836,3.091-4.575-.22-.388-.461-.774-.955-.774a1.037,1.037,0,0,0-.127.008c-.5.062-.609.423-.6.857a.8.8,0,0,1-.6.91.912.912,0,0,1-.15.013,1.306,1.306,0,0,1-1.022-.7,1.877,1.877,0,0,1,.909-2.726,4.4,4.4,0,0,1,1.639-.4,2.234,2.234,0,0,1,1.51.579,3.581,3.581,0,0,1,1.317,3.42,6.4,6.4,0,0,1-3.375,4.686,4.522,4.522,0,0,1-1.9.424,4.434,4.434,0,0,1-3.752-2.082,5.449,5.449,0,0,1,.239-6.62,2.394,2.394,0,0,1,.682-.659,1.8,1.8,0,0,1,.845-.235m0-1h0a2.771,2.771,0,0,0-1.319.355,3.267,3.267,0,0,0-1,.925,6.436,6.436,0,0,0-.294,7.772,5.433,5.433,0,0,0,4.6,2.545,5.493,5.493,0,0,0,2.324-.516c2-.926,3.284-2.679,3.927-5.361a4.581,4.581,0,0,0-1.637-4.411,3.237,3.237,0,0,0-2.162-.822,5.386,5.386,0,0,0-2.019.475,2.955,2.955,0,0,0-.418.213q-.051-.084-.113-.17a2.288,2.288,0,0,0-1.888-1Zm2.092,7.882a1.732,1.732,0,0,1-.922-.261,1.949,1.949,0,0,1-.49-3.332,2.739,2.739,0,0,0,.374.872A2.2,2.2,0,0,0,14.54,42.98a1.908,1.908,0,0,0,.315-.026,1.681,1.681,0,0,0,1.352-1.23,1.981,1.981,0,0,1-.288,1.4,2.652,2.652,0,0,1-2.061,1.421c-.065,0-.1,0-.139,0Z" transform="translate(0)"/>
  </g>
  <g>
    <path class="cls-1" d="M63.1,26.119a1.435,1.435,0,0,1-1.092-.523,6.412,6.412,0,0,1-1.619-3.464,4.232,4.232,0,0,0-1.93-3.367,9.7,9.7,0,0,1-3.036-3.646,2.332,2.332,0,0,1-.258-2.11,1.92,1.92,0,0,1,1.4-1.059,2.875,2.875,0,0,1,.681-.1,1.017,1.017,0,0,1,.861.374,1.357,1.357,0,0,1,.106,1.233,1.181,1.181,0,0,0,.139.727l.043.113c.525,1.392.928,1.553,1.185,1.553a2.288,2.288,0,0,0,1.211-.611,1.03,1.03,0,0,1-.859-.769,3.082,3.082,0,0,1,.581-2.333,1.656,1.656,0,0,1,1.192-.786c.059,0,.115-.005.17-.005.669,0,1.812.277,1.955,2.136a7.749,7.749,0,0,1-.492,4.243,5.245,5.245,0,0,0,.783,6.059c.308.386.943,1.184.074,1.9A1.735,1.735,0,0,1,63.1,26.119Z" transform="translate(0)"/>
    <path class="cls-2" d="M61.879,11.848c1.035,0,1.386.768,1.457,1.674a7.271,7.271,0,0,1-.44,3.98,5.749,5.749,0,0,0,.838,6.594c.312.394.657.784.149,1.2a1.259,1.259,0,0,1-.781.32.94.94,0,0,1-.717-.354,5.926,5.926,0,0,1-1.5-3.2,4.736,4.736,0,0,0-2.154-3.724,9.162,9.162,0,0,1-2.868-3.464c-.683-1.259-.316-2.165.825-2.446a2.441,2.441,0,0,1,.561-.083c.43,0,.7.221.486.974a1.8,1.8,0,0,0,.2,1.15c.475,1.26.974,1.877,1.653,1.877a3.577,3.577,0,0,0,2.082-1.2c-.194-.6-1.067-.132-1.247-.81-.228-.857.54-2.442,1.321-2.491q.072,0,.139,0m0-1h0q-.1,0-.2.006a2.132,2.132,0,0,0-1.568.993,3.55,3.55,0,0,0-.657,2.753,1.51,1.51,0,0,0,.373.68.627.627,0,0,1-.242.072s-.28-.072-.717-1.23l-.045-.117a1.456,1.456,0,0,1-.123-.413,1.839,1.839,0,0,0-.19-1.67,1.5,1.5,0,0,0-1.26-.572,3.328,3.328,0,0,0-.8.112,2.457,2.457,0,0,0-1.741,1.343,2.805,2.805,0,0,0,.275,2.55,10.169,10.169,0,0,0,3.2,3.828,3.733,3.733,0,0,1,1.7,3.011,6.908,6.908,0,0,0,1.739,3.731,1.948,1.948,0,0,0,1.468.693,2.233,2.233,0,0,0,1.417-.548c.569-.469,1.037-1.292.036-2.551l-.036-.045a4.73,4.73,0,0,1-.728-5.524,8.159,8.159,0,0,0,.543-4.507c-.126-1.626-1.043-2.6-2.454-2.6Z" transform="translate(0)"/>
  </g>
  <g>
    <path class="cls-1" d="M68.069,24.437c-1.535-.039-2.638-.913-3.369-2.671a6.741,6.741,0,0,1-.479-3.258c0-.122-.009-.289-.016-.456a6.258,6.258,0,0,1,.035-1.242c.213-1.326.87-2,1.953-2a2.767,2.767,0,0,1,.278.014c.146.015.295.026.442.026a1.864,1.864,0,0,0,.352-.029A9.374,9.374,0,0,1,69,14.6c1.545,0,2.041,1.03,2.62,2.6.57,1.544,1.021,3.067.3,4.713a4.309,4.309,0,0,1-3.77,2.522Zm.792-6.646a3.781,3.781,0,0,1-1.149.573,1.751,1.751,0,0,0-.883.494,1.485,1.485,0,0,0,.317,1.624,5.543,5.543,0,0,1,.314.458c.261.409.437.658.67.658a.689.689,0,0,0,.221-.043A1.614,1.614,0,0,0,69.6,19.972c-.02-.108-.039-.278-.058-.446a2.592,2.592,0,0,0-.469-1.506C68.989,17.924,68.919,17.847,68.861,17.791Z" transform="translate(0)"/>
    <path class="cls-2" d="M69,15.1c1.13,0,1.524.573,2.151,2.275.518,1.406.97,2.837.314,4.34a3.817,3.817,0,0,1-3.311,2.223h-.073c-1.365-.035-2.286-.839-2.921-2.363a6.265,6.265,0,0,1-.443-3.022,10.6,10.6,0,0,1,.016-1.663c.138-.861.475-1.577,1.459-1.577a2.29,2.29,0,0,1,.229.012c.161.016.326.029.491.029a2.364,2.364,0,0,0,.448-.039A9.2,9.2,0,0,1,69,15.1m-.87,7a1.178,1.178,0,0,0,.383-.07A2.089,2.089,0,0,0,70.1,19.96a4.024,4.024,0,0,0-.65-2.27c-.166-.189-.436-.491-.624-.491a.147.147,0,0,0-.112.049c-.657.706-1.824.618-2.3,1.333a1.949,1.949,0,0,0,.341,2.21c.4.509.678,1.306,1.376,1.306m.87-8a10.234,10.234,0,0,0-1.829.232,1.388,1.388,0,0,1-.258.021c-.131,0-.262-.011-.391-.024s-.224-.017-.329-.017c-.769,0-2.109.314-2.446,2.418a6.706,6.706,0,0,0-.041,1.342c.006.147.012.293.013.439a7.222,7.222,0,0,0,.519,3.446c.8,1.933,2.089,2.935,3.818,2.979h.1a4.83,4.83,0,0,0,4.228-2.822,6.581,6.581,0,0,0-.292-5.086C71.478,15.37,70.862,14.1,69,14.1Zm-.826,6.985a3.5,3.5,0,0,1-.292-.415c-.111-.175-.223-.347-.343-.5a1.081,1.081,0,0,1-.293-1.037,1.918,1.918,0,0,1,.635-.3,5.61,5.61,0,0,0,.894-.384,2.663,2.663,0,0,1,.271,1.131c.017.152.034.305.055.458,0,.243-.054.747-.912,1.042l-.014,0Z" transform="translate(0)"/>
  </g>
  <g>
    <path class="cls-1" d="M103.6,103.85A1.328,1.328,0,0,1,102.36,103l-.108-.228a2.662,2.662,0,0,1-.377-1.371,20.362,20.362,0,0,0-.708-6.276L101.131,95a1.288,1.288,0,0,1,.008-1.06.813.813,0,0,1,.57-.374,1.419,1.419,0,0,1,.145-.013c.576,0,.98.581,1.408,1.2.067.1.135.193.2.286a5.665,5.665,0,0,0,.834-1.071,9.128,9.128,0,0,1,.648-.9,1.91,1.91,0,0,1,1.388-.829c.827,0,1.277.874,1.426,1.161a5.557,5.557,0,0,1,.708,3.021,1.368,1.368,0,0,1-.91,1.4,1.547,1.547,0,0,1-.407.059c-.582,0-.986-.375-1.2-1.114-.006-.007-.033-.032-.065-.062a3.277,3.277,0,0,0-.635.666,3.217,3.217,0,0,1-1.209,1.063c-.062.069-.054.186.026.348.063.129.083.167.452.167a3.429,3.429,0,0,0,1.434-.407,6.618,6.618,0,0,1,.983-.384,2.428,2.428,0,0,1,.642-.094,1.561,1.561,0,0,1,1.51,1.07,1.19,1.19,0,0,1-.82,1.659,2.342,2.342,0,0,0-.243.116,6.725,6.725,0,0,1-3.122.864c.046.181.084.34.115.5a1.225,1.225,0,0,1-.864,1.484A1.7,1.7,0,0,1,103.6,103.85Z" transform="translate(0)"/>
    <path class="cls-2" d="M106.333,92.733c.355,0,.675.3.982.89a5.11,5.11,0,0,1,.654,2.753c-.03.392-.074.829-.545.958a1.039,1.039,0,0,1-.274.041c-.405,0-.6-.317-.724-.754-.058-.2-.29-.347-.454-.531-.969.369-1.222,1.483-2.133,1.879-.416.181-.429.607-.222,1.027s.5.447.9.447h.084a9.563,9.563,0,0,0,2.468-.809,1.924,1.924,0,0,1,.508-.076,1.081,1.081,0,0,1,1.049.763c.337.807-.413.9-.853,1.151a6.684,6.684,0,0,1-3.508.814c.116.473.2.774.262,1.08a.727.727,0,0,1-.537.915,1.2,1.2,0,0,1-.389.071.838.838,0,0,1-.781-.56,3.008,3.008,0,0,1-.443-1.344,20.543,20.543,0,0,0-.718-6.431c-.061-.273-.348-.869.145-.96a.3.3,0,0,1,.054,0c.479,0,1.019,1.132,1.524,1.673.909-.559,1.292-1.566,1.95-2.337a1.476,1.476,0,0,1,1.007-.653m0-1h0a2.362,2.362,0,0,0-1.768,1,9.447,9.447,0,0,0-.686.948c-.127.192-.248.374-.371.54a2.184,2.184,0,0,0-1.655-1.176,1.3,1.3,0,0,0-.234.021,1.321,1.321,0,0,0-.907.605,1.749,1.749,0,0,0-.059,1.465c.01.034.021.066.027.093a19.945,19.945,0,0,1,.7,6.119,3.094,3.094,0,0,0,.425,1.634c.036.074.071.146.1.217a1.823,1.823,0,0,0,1.692,1.146,2.2,2.2,0,0,0,.713-.125,1.707,1.707,0,0,0,1.2-2.008,6.877,6.877,0,0,0,2.758-.881,2.011,2.011,0,0,1,.195-.092c1.426-.629,1.374-1.6,1.079-2.309a2.2,2.2,0,0,0-1.02-1.161,2.327,2.327,0,0,0,.44-1.32,6.051,6.051,0,0,0-.763-3.289,2.173,2.173,0,0,0-1.87-1.431Zm-1.317,6.639a5.822,5.822,0,0,0,.621-.695l.1-.129a1.873,1.873,0,0,0,.31.393c-.107.046-.21.093-.308.138a5.763,5.763,0,0,1-.726.293Z" transform="translate(0)"/>
  </g>
  <g>
    <path class="cls-1" d="M47,48.39a1.737,1.737,0,0,1-1.3-.556,1.251,1.251,0,0,1-.314-1,13.555,13.555,0,0,0-.4-4.5,24.441,24.441,0,0,1-.439-2.686,1.747,1.747,0,0,1,.281-1.342,1.293,1.293,0,0,1,.931-.428c.06,0,.118-.007.175-.007a1.532,1.532,0,0,1,1.579,1.619,6.408,6.408,0,0,1-.043.963c-.019.2-.04.438-.062.731l.16.888c.171.954.376,2.1.595,3.242a3.049,3.049,0,0,0,.135.442,3.355,3.355,0,0,1,.2.726,1.5,1.5,0,0,1-1.124,1.867A1.9,1.9,0,0,1,47,48.39Z" transform="translate(0)"/>
    <path class="cls-2" d="M45.932,38.375c.7,0,1.038.453,1.081,1.149a16.834,16.834,0,0,1-.109,1.691c.195,1.076.469,2.639.767,4.2.074.385.279.749.326,1.135.071.586-.047,1.179-.727,1.316A1.389,1.389,0,0,1,47,47.89c-.637,0-1.187-.441-1.115-.99.33-2.522-.621-4.86-.838-7.294-.052-.578-.03-1.167.752-1.226q.07-.005.136-.005m0-1c-.069,0-.139,0-.213.008a1.781,1.781,0,0,0-1.274.6,2.249,2.249,0,0,0-.4,1.71,25.153,25.153,0,0,0,.447,2.739,13.181,13.181,0,0,1,.4,4.336,1.746,1.746,0,0,0,.434,1.393A2.243,2.243,0,0,0,47,48.89a2.394,2.394,0,0,0,.47-.047,1.972,1.972,0,0,0,1.523-2.417,3.768,3.768,0,0,0-.221-.832,2.864,2.864,0,0,1-.115-.37c-.224-1.172-.434-2.345-.608-3.312l-.135-.751c.019-.26.039-.475.056-.659a6.694,6.694,0,0,0,.045-1.04,2.036,2.036,0,0,0-2.079-2.087Z" transform="translate(0)"/>
  </g>
  <g>
    <path class="cls-1" d="M152.863,50.036a1.66,1.66,0,0,1-1.476-.821,2.122,2.122,0,0,1,.542-2.8l.221-.175a3.619,3.619,0,0,1,2.214-1.033,2.4,2.4,0,0,1,.774.132.9.9,0,0,1,.474.468,1.638,1.638,0,0,0,.1.157.5.5,0,0,1-.006.583l-.163.219c-.114.154-.234.315-.349.479a3.342,3.342,0,0,1-.609.62c-.4.343-.6.525-.539.917a1.1,1.1,0,0,1-.206.841,1.074,1.074,0,0,1-.74.4A1.989,1.989,0,0,1,152.863,50.036Z" transform="translate(0)"/>
    <path class="cls-2" d="M154.364,45.7a1.889,1.889,0,0,1,.613.106c.12.041.184.244.322.44-.163.222-.348.461-.52.709-.429.617-1.379.886-1.233,1.894a.556.556,0,0,1-.507.674,1.57,1.57,0,0,1-.177.01,1.161,1.161,0,0,1-1.043-.573,1.631,1.631,0,0,1,.418-2.156,3.677,3.677,0,0,1,2.127-1.1m0-1a4.022,4.022,0,0,0-2.525,1.142l-.217.172a2.642,2.642,0,0,0-.666,3.451,2.149,2.149,0,0,0,1.906,1.068,2.566,2.566,0,0,0,.289-.016,1.57,1.57,0,0,0,1.081-.594,1.6,1.6,0,0,0,.3-1.218c-.015-.107-.02-.135.368-.463a3.712,3.712,0,0,0,.7-.717c.112-.162.23-.319.344-.471l.16-.216a1,1,0,0,0,.012-1.169c-.028-.039-.049-.08-.07-.116a1.378,1.378,0,0,0-.748-.694,2.9,2.9,0,0,0-.935-.159Z" transform="translate(0)"/>
  </g>
  <g>
    <path class="cls-1" d="M144.65,58.867a1.787,1.787,0,0,1-1.23-.56,1.6,1.6,0,0,1-.494-1.143,3.363,3.363,0,0,1,2.849-2.606,1.342,1.342,0,0,1,.2.014,1.186,1.186,0,0,1,1.044,1.241.493.493,0,0,1-.082.3,4.952,4.952,0,0,0-.366.751,3.863,3.863,0,0,1-1.211,1.775,1.193,1.193,0,0,1-.709.226Z" transform="translate(0)"/>
    <path class="cls-2" d="M145.774,55.058a.883.883,0,0,1,.128.009c.315.046.588.212.618.772-.463.7-.607,1.779-1.455,2.4a.69.69,0,0,1-.415.129,1.314,1.314,0,0,1-1.224-1.193,2.934,2.934,0,0,1,2.349-2.116m0-1a3.836,3.836,0,0,0-3.348,3.1,2.1,2.1,0,0,0,.637,1.5,2.264,2.264,0,0,0,1.587.71,1.689,1.689,0,0,0,1-.322,4.333,4.333,0,0,0,1.377-1.984,4.542,4.542,0,0,1,.324-.671,1,1,0,0,0,.164-.6,1.684,1.684,0,0,0-1.471-1.709,1.88,1.88,0,0,0-.273-.02Z" transform="translate(0)"/>
  </g>
  <g>
    <path class="cls-1" d="M138.248,66.626a1.5,1.5,0,0,1-1.558-1.545,1.732,1.732,0,0,1,.716-1.419c.084-.067.168-.141.253-.214a2.369,2.369,0,0,1,1.546-.754,1.819,1.819,0,0,1,.513.077,1.08,1.08,0,0,1,.733.7.887.887,0,0,1-.157.828,3.193,3.193,0,0,0-.386.729,2.324,2.324,0,0,1-1.484,1.585.5.5,0,0,1-.132.018Z" transform="translate(0)"/>
    <path class="cls-2" d="M139.206,63.195a1.283,1.283,0,0,1,.368.057c.35.1.542.467.329.732-.565.7-.57,1.86-1.611,2.145-.715-.062-1.087-.391-1.1-1.058a1.247,1.247,0,0,1,.526-1.016c.458-.365.875-.859,1.49-.859m0-1a2.818,2.818,0,0,0-1.875.876c-.079.069-.157.137-.238.2a2.244,2.244,0,0,0-.9,1.821,2,2,0,0,0,2.015,2.031q.043,0,.087,0a1,1,0,0,0,.264-.035,2.806,2.806,0,0,0,1.812-1.87,2.92,2.92,0,0,1,.315-.614,1.376,1.376,0,0,0,.245-1.289,1.575,1.575,0,0,0-1.068-1.027,2.29,2.29,0,0,0-.655-.1Z" transform="translate(0)"/>
  </g>
  <g>
    <path class="cls-1" d="M140.965,62.763a1.533,1.533,0,0,1-1.524-1.506,2.744,2.744,0,0,1,2.241-2.39,1.141,1.141,0,0,1,.2.017,1.22,1.22,0,0,1,.818.5,1.2,1.2,0,0,1,.167.928c-.092,1.391-.895,2.449-1.9,2.449Z" transform="translate(0)"/>
    <path class="cls-2" d="M141.682,59.367a.658.658,0,0,1,.111.009.667.667,0,0,1,.581.837c-.083,1.195-.687,2.05-1.408,2.05a.936.936,0,0,1-.176-.017.914.914,0,0,1-.849-.972,2.283,2.283,0,0,1,1.742-1.907m0-1a3.22,3.22,0,0,0-2.741,2.874,1.9,1.9,0,0,0,1.661,1.987,1.944,1.944,0,0,0,.365.035c1.26,0,2.263-1.225,2.4-2.922a1.684,1.684,0,0,0-.258-1.236,1.717,1.717,0,0,0-1.146-.714,1.658,1.658,0,0,0-.281-.024Z" transform="translate(0)"/>
  </g>
  <g>
    <path class="cls-1" d="M136.75,68.747a.934.934,0,0,1-1.041-.758c-.05-.406-.2-1.646,1.1-1.844.024,0,.094-.009.119-.009.3,0,1.05.224,1.056.751a1.728,1.728,0,0,1-.991,1.826.5.5,0,0,1-.147.03Z" transform="translate(0)"/>
    <path class="cls-2" d="M136.924,66.637c.2,0,.555.17.556.257.008.558-.06,1.125-.666,1.353l-.065,0c-.278,0-.519-.1-.545-.316-.067-.559-.088-1.175.676-1.292a.29.29,0,0,1,.044,0m0-1a1.657,1.657,0,0,0-.194.014c-.662.1-1.74.547-1.518,2.4a1.425,1.425,0,0,0,1.538,1.2q.059,0,.119,0a1,1,0,0,0,.3-.062,2.2,2.2,0,0,0,1.315-2.3c-.013-.878-1.02-1.242-1.556-1.242Z" transform="translate(0)"/>
  </g>
  <g>
    <path class="cls-1" d="M126.359,29.417a1.158,1.158,0,0,1-.881-.4.866.866,0,0,1-.152-.717,1.238,1.238,0,0,1,1.24-1.034c.635.038.984.392.988.9a1.172,1.172,0,0,1-1.1,1.247.554.554,0,0,1-.063,0Z" transform="translate(0)"/>
    <path class="cls-2" d="M126.566,27.762l.064,0c.247.016.422.129.425.406a.677.677,0,0,1-.667.747c-.335-.019-.644-.171-.572-.52a.746.746,0,0,1,.751-.636m0-1a1.743,1.743,0,0,0-1.73,1.433,1.361,1.361,0,0,0,.246,1.123,1.649,1.649,0,0,0,1.249.6l.056,0a1,1,0,0,0,.127-.008,1.676,1.676,0,0,0,1.54-1.748,1.372,1.372,0,0,0-1.359-1.395c-.044,0-.087,0-.129,0Z" transform="translate(0)"/>
  </g>
  <g>
    <path class="cls-1" d="M128.359,29.417a1.158,1.158,0,0,1-.881-.4.866.866,0,0,1-.152-.717,1.238,1.238,0,0,1,1.24-1.034c.635.038.984.392.988.9a1.172,1.172,0,0,1-1.1,1.247.554.554,0,0,1-.063,0Z" transform="translate(0)"/>
    <path class="cls-2" d="M128.566,27.762l.064,0c.247.016.422.129.425.406a.677.677,0,0,1-.667.747c-.335-.019-.644-.171-.572-.52a.746.746,0,0,1,.751-.636m0-1a1.743,1.743,0,0,0-1.73,1.433,1.361,1.361,0,0,0,.246,1.123,1.649,1.649,0,0,0,1.249.6l.056,0a1,1,0,0,0,.127-.008,1.676,1.676,0,0,0,1.54-1.748,1.372,1.372,0,0,0-1.359-1.395c-.044,0-.087,0-.129,0Z" transform="translate(0)"/>
  </g>
  <g>
    <path class="cls-1" d="M148.383,55.048a1.506,1.506,0,0,1-.761-.2,1.529,1.529,0,0,1-.564-2A4.476,4.476,0,0,1,147.9,51.6a1.385,1.385,0,0,1,1.029-.472,1.572,1.572,0,0,1,1.4.962,1.451,1.451,0,0,1-.282,1.6,1.934,1.934,0,0,0-.35.568,1.407,1.407,0,0,1-1.317.786Z" transform="translate(0)"/>
    <path class="cls-2" d="M148.933,51.628a1.041,1.041,0,0,1,.751,1.726,2.447,2.447,0,0,0-.441.707.911.911,0,0,1-.86.487,1.017,1.017,0,0,1-.509-.128,1.032,1.032,0,0,1-.359-1.368,4,4,0,0,1,.754-1.112.894.894,0,0,1,.664-.312m0-1a1.9,1.9,0,0,0-1.4.632,4.971,4.971,0,0,0-.937,1.391,1.983,1.983,0,0,0,1.783,2.9,1.906,1.906,0,0,0,1.775-1.085,1.486,1.486,0,0,1,.258-.429,1.961,1.961,0,0,0,.374-2.145,2.077,2.077,0,0,0-1.857-1.262Z" transform="translate(0)"/>
  </g>
</svg>
